<svg xmlns="http://www.w3.org/2000/svg" width="20" height="20" viewBox="0 0 20 20">
  <path fill="#AB92F0" fill-rule="evenodd" stroke="#AB92F0" stroke-width="2" d="M12,11.8803832 L12,9.95940109 L10.4998758,10.7403163 L9,9.95953036 L9,11.8805125 L10.5000923,10.8301365 L12,11.8803832 Z M11.4558392,7.83703394 L11.4158474,7.80903137 L10.8422709,8.62818342 L11.519734,7.89262662 C11.4989023,7.87344017 11.4775936,7.85490601 11.4558392,7.83703394 Z M9.5443092,7.83705932 C9.52257082,7.85492355 9.50127248,7.87344926 9.48045063,7.89262662 L10.1579137,8.62818342 L9.58433725,7.80903137 L9.5443092,7.83705932 Z M9,13 L9,14 L10,13 L9,13 Z M12,13 L11,13 L12,14 L12,13 Z"/>
</svg>
