<svg xmlns="http://www.w3.org/2000/svg" width="20" height="20" viewBox="0 0 20 20">
  <g fill="none" fill-rule="evenodd">
    <path stroke="#AB92F0" stroke-width="2" d="M6.54888065,3.82024714 C5.61139832,4.20800713 5,5.12252636 5,6.13703656 L5,10.5225332 C5,10.6004285 5.01981978,10.6770429 5.05759407,10.7451662 C5.18055087,10.9669101 5.459986,11.0469929 5.68172991,10.9240361 L5.90864955,10.7982093 C7.41692705,9.9618708 9.24973961,9.9618708 10.7580171,10.7982093 L11.2118564,11.0498628 C12.1168229,11.5516659 13.2165104,11.5516659 14.1214769,11.0498628 L14.8555947,10.6427952 C15.5618404,10.2511826 16,9.50721147 16,8.69965752 L16,4.6380621 C16,4.57852896 15.991193,4.51932331 15.9738649,4.46236778 C15.8768316,4.14342952 15.53962,3.96354002 15.2206818,4.06057331 L14.3276535,4.33226691 C13.2204555,4.66911918 12.0306902,4.61145958 10.9612541,4.16912109 L9.47997529,3.55643686 C8.74571252,3.25273224 7.92095414,3.25273224 7.18669137,3.55643686 L6.54888065,3.82024714 Z"/>
    <rect width="2" height="16" x="4" y="2" fill="#AB92F0" rx="1"/>
  </g>
</svg>
