<svg xmlns="http://www.w3.org/2000/svg" width="20" height="20" viewBox="0 0 20 20">
  <g fill="none" fill-rule="evenodd">
    <g fill="#AB92F0" transform="rotate(-90 10.5 10)">
      <circle cx="10" cy="10" r="3" stroke="#AB92F0"/>
      <path fill-rule="nonzero" d="M10 .5C10.5522847.5 11 .94771525 11 1.5L11 3.5C11 4.05228475 10.5522847 4.5 10 4.5 9.44771525 4.5 9 4.05228475 9 3.5L9 1.5C9 .94771525 9.44771525.5 10 .5zM10 15.5C10.5522847 15.5 11 15.9477153 11 16.5L11 18.5C11 19.0522847 10.5522847 19.5 10 19.5 9.44771525 19.5 9 19.0522847 9 18.5L9 16.5C9 15.9477153 9.44771525 15.5 10 15.5z"/>
      <path fill-rule="nonzero" d="M4.58578644,13.4142136 C5.13807119,13.4142136 5.58578644,13.8619288 5.58578644,14.4142136 L5.58578644,16.4142136 C5.58578644,16.9664983 5.13807119,17.4142136 4.58578644,17.4142136 C4.03350169,17.4142136 3.58578644,16.9664983 3.58578644,16.4142136 L3.58578644,14.4142136 C3.58578644,13.8619288 4.03350169,13.4142136 4.58578644,13.4142136 Z" transform="rotate(45 4.586 15.414)"/>
      <path fill-rule="nonzero" d="M15.5857864,2.41421356 C16.1380712,2.41421356 16.5857864,2.86192881 16.5857864,3.41421356 L16.5857864,5.41421356 C16.5857864,5.96649831 16.1380712,6.41421356 15.5857864,6.41421356 C15.0335017,6.41421356 14.5857864,5.96649831 14.5857864,5.41421356 L14.5857864,3.41421356 C14.5857864,2.86192881 15.0335017,2.41421356 15.5857864,2.41421356 Z" transform="rotate(45 15.586 4.414)"/>
      <path fill-rule="nonzero" d="M2.5,8 C3.05228475,8 3.5,8.44771525 3.5,9 L3.5,11 C3.5,11.5522847 3.05228475,12 2.5,12 C1.94771525,12 1.5,11.5522847 1.5,11 L1.5,9 C1.5,8.44771525 1.94771525,8 2.5,8 Z" transform="rotate(90 2.5 10)"/>
      <path fill-rule="nonzero" d="M17.5,8 C18.0522847,8 18.5,8.44771525 18.5,9 L18.5,11 C18.5,11.5522847 18.0522847,12 17.5,12 C16.9477153,12 16.5,11.5522847 16.5,11 L16.5,9 C16.5,8.44771525 16.9477153,8 17.5,8 Z" transform="rotate(90 17.5 10)"/>
      <path fill-rule="nonzero" d="M15.5857864,13.4142136 C16.1380712,13.4142136 16.5857864,13.8619288 16.5857864,14.4142136 L16.5857864,16.4142136 C16.5857864,16.9664983 16.1380712,17.4142136 15.5857864,17.4142136 C15.0335017,17.4142136 14.5857864,16.9664983 14.5857864,16.4142136 L14.5857864,14.4142136 C14.5857864,13.8619288 15.0335017,13.4142136 15.5857864,13.4142136 Z" transform="rotate(135 15.586 15.414)"/>
      <path fill-rule="nonzero" d="M4.58578644,2.41421356 C5.13807119,2.41421356 5.58578644,2.86192881 5.58578644,3.41421356 L5.58578644,5.41421356 C5.58578644,5.96649831 5.13807119,6.41421356 4.58578644,6.41421356 C4.03350169,6.41421356 3.58578644,5.96649831 3.58578644,5.41421356 L3.58578644,3.41421356 C3.58578644,2.86192881 4.03350169,2.41421356 4.58578644,2.41421356 Z" transform="rotate(135 4.586 4.414)"/>
    </g>
    <g transform="rotate(-90 10 9)">
      <circle cx="9" cy="9" r="3" stroke="#000"/>
      <rect width="1" height="3" x="8.5" fill="#000" rx=".5"/>
      <rect width="1" height="3" x="8.5" y="15" fill="#000" rx=".5"/>
      <rect width="1" height="3" x="3.086" y="12.914" fill="#000" rx=".5" transform="rotate(45 3.586 14.414)"/>
      <rect width="1" height="3" x="14.086" y="1.914" fill="#000" rx=".5" transform="rotate(45 14.586 3.414)"/>
      <rect width="1" height="3" x="1" y="7.5" fill="#000" rx=".5" transform="rotate(90 1.5 9)"/>
      <rect width="1" height="3" x="16" y="7.5" fill="#000" rx=".5" transform="rotate(90 16.5 9)"/>
      <rect width="1" height="3" x="14.086" y="12.914" fill="#000" rx=".5" transform="rotate(135 14.586 14.414)"/>
      <rect width="1" height="3" x="3.086" y="1.914" fill="#000" rx=".5" transform="rotate(135 3.586 3.414)"/>
    </g>
  </g>
</svg>
