<svg width="20" height="20" viewBox="0 0 20 20" fill="none" xmlns="http://www.w3.org/2000/svg">
<path fill-rule="evenodd" clip-rule="evenodd" d="M15 8H5C4.44772 8 4 8.44772 4 9V15C4 15.5523 4.44772 16 5 16H15C15.5523 16 16 15.5523 16 15V9C16 8.44772 15.5523 8 15 8ZM5 6C3.34315 6 2 7.34315 2 9V15C2 16.6569 3.34315 18 5 18H15C16.6569 18 18 16.6569 18 15V9C18 7.34315 16.6569 6 15 6H5Z" fill="#AB92F0"/>
<path d="M10 12C10 13.3807 8.88071 14.5 7.5 14.5C6.11929 14.5 5 13.3807 5 12C5 10.6193 6.11929 9.5 7.5 9.5C8.88071 9.5 10 10.6193 10 12Z" fill="#AB92F0"/>
<path fill-rule="evenodd" clip-rule="evenodd" d="M14.6708 1.66457C14.8561 2.03505 14.7059 2.48556 14.3354 2.6708L4.33541 7.67083C3.96492 7.85607 3.51442 7.7059 3.32917 7.33542C3.14393 6.96493 3.2941 6.51443 3.66458 6.32919L13.6646 1.32916C14.0351 1.14392 14.4856 1.29408 14.6708 1.66457Z" fill="#AB92F0"/>
<path fill-rule="evenodd" clip-rule="evenodd" d="M11 10.5C11 10.2239 11.2239 10 11.5 10H14.5C14.7761 10 15 10.2239 15 10.5C15 10.7761 14.7761 11 14.5 11H11.5C11.2239 11 11 10.7761 11 10.5Z" fill="#AB92F0"/>
<path fill-rule="evenodd" clip-rule="evenodd" d="M11 12C11 11.7239 11.2239 11.5 11.5 11.5H14.5C14.7761 11.5 15 11.7239 15 12C15 12.2761 14.7761 12.5 14.5 12.5H11.5C11.2239 12.5 11 12.2761 11 12Z" fill="#AB92F0"/>
<path fill-rule="evenodd" clip-rule="evenodd" d="M11 13.5C11 13.2239 11.2239 13 11.5 13H14.5C14.7761 13 15 13.2239 15 13.5C15 13.7761 14.7761 14 14.5 14H11.5C11.2239 14 11 13.7761 11 13.5Z" fill="#AB92F0"/>
</svg>
