<svg xmlns="http://www.w3.org/2000/svg" width="20" height="20" viewBox="0 0 20 20">
  <g fill="none" fill-rule="evenodd">
    <g stroke="#AB92F0" transform="translate(.25 1)">
      <path stroke-width="2" d="M9.1036943 2.55034823C8.88096907 2.48220216 8.64621295 2.4626477 8.41528264 2.49300566 7.52395331 2.6101793 6.89637612 3.42773249 7.01354976 4.31906182L7.20306353 5.76067604C7.33389771 6.7559199 8.18219604 7.5 9.18600276 7.5L10.3130112 7.5C11.316818 7.5 12.1651163 6.7559199 12.2959505 5.76067604L12.4854642 4.31906182C12.5158217 4.08813571 12.4962713 3.85338396 12.4281334 3.63066065 12.1651201 2.77094477 11.2549682 2.28722177 10.3952523 2.5502351L9.74925231 2.74786622 9.1036943 2.55034823zM7.51658511 8C7.15675661 8 6.80358237 8.09707737 6.49431244 8.28098545 4.92144635 9.21635408 3.78083537 10.2493578 3.05964111 11.3717159 3.01313223 11.4440953 2.96558794 11.5168472 2.91675935 11.5904164 2.67640508 11.9525537 1.92150326 13.0102485 1.81488271 13.1686267 1.50652869 13.6266672 1.34325051 13.9414723 1.27959082 14.1981847 1.19433541 14.5419834 1.28475739 14.8482002 1.70716962 15.3300919 3.08412487 16.9009351 6.2073646 18 9.37894681 18 13.0408665 18 15.8126788 17.1646095 17.554078 15.3056179 18.3021254 14.5070567 18.3605756 14.2345499 18.1271943 13.8410873 17.9716197 13.5788007 16.8526197 12.2841671 16.760563 12.1675407 16.5515842 11.9027859 16.3637796 11.6424725 16.1897994 11.3717159 15.4380962 10.2018782 14.2952162 9.16651124 12.7470107 8.26948751 12.4423428 8.09296421 12.0964713 8.00000408 11.7443581 8.00000408L7.51658414 8z"/>
      <path stroke-linecap="round" stroke-linejoin="round" stroke-width="1.5" d="M6.25 0L7.25 2.5M13.25 0L12.25 2.5"/>
    </g>
    <path stroke="#AB92F0" stroke-linecap="round" stroke-linejoin="round" d="M10,12.5 L10,16.5"/>
    <path stroke="#AB92F0" stroke-linecap="round" stroke-linejoin="round" d="M7.48856341,12.4943499 L6.01143659,15.5130682" transform="rotate(.435 6.75 14.004)"/>
    <path stroke="#AB92F0" stroke-linecap="round" stroke-linejoin="round" d="M13.9885916,12.4943498 L12.5114084,15.5056502" transform="scale(-1 1) rotate(.435 0 -3476.825)"/>
  </g>
</svg>
