<svg xmlns="http://www.w3.org/2000/svg" width="20" height="20" viewBox="0 0 20 20">
  <path fill="none" stroke="#AB92F0" stroke-linecap="round" stroke-linejoin="round" stroke-width="2" d="M4.82884979 2L7 2C7.3436423 4 8.34332015 5 9.99903352 5 11.6547469 5 12.6550691 4 13 2L15.1715729 2C15.7020059 2 16.2107137 2.21071368 16.5857864 2.58578644L19 5 18 9.5 16 8.5 16 17C16 18.1045695 15.1045695 19 14 19L6 19C4.8954305 19 4 18.1045695 4 17L4 8.5 2 9.50251811 1.00216364 5 3.41412616 2.58629669C3.78924031 2.21091181 4.2981668 2 4.82884979 2zM11.5 9.5L13.5 9.5"/>
</svg>
