<svg xmlns="http://www.w3.org/2000/svg" width="20" height="20" viewBox="0 0 20 20">
  <g fill="none" fill-rule="evenodd" stroke-linecap="round" stroke-linejoin="round">
    <path stroke="#AB92F0" stroke-width="2" d="M10 10.5L10 17C10.1077375 17.9054032 10.5698537 18.3581048 11.3863486 18.3581048 12.2028435 18.3581048 12.6110909 17.6786852 12.6110909 16.3198459M10 1.5L10 3"/>
    <path stroke="#AB92F0" stroke-width="2" d="M17,10.5 C17,6.58327326 14.0422045,3.5 10.1135174,3.5 C6.18483021,3.5 3,6.58327326 3,10.5 C3,11.1540546 3.38353233,11.4818567 4,11.5 C4.52235365,11.5153734 5.18243388,9.74132217 6,9.56607789 C6.61287491,9.43470892 7.28770216,10.6185494 8,10.5 C8.67224218,10.3881171 9.2885098,9.51149777 10,9.5 C10.688995,9.48886576 11.3247937,10.3973377 12,10.5 C12.6951121,10.6056889 13.3859794,9.37431709 14,9.5 C14.7888703,9.66147262 15.4721537,11.497897 16,11.4999007 C16.660261,11.5024069 17,11.1281709 17,10.5 Z"/>
  </g>
</svg>
