<svg xmlns="http://www.w3.org/2000/svg" width="20" height="20" viewBox="0 0 20 20">
  <g fill="none" fill-rule="evenodd">
    <g fill="#AB92F0" transform="rotate(-90 12 8.5)">
      <rect width="3" height="4" x="1" rx="1.5" transform="rotate(90 2.5 2)"/>
      <rect width="3" height="4" x="1" y="12" rx="1.5" transform="rotate(90 2.5 14)"/>
      <path stroke="#AB92F0" stroke-linecap="round" stroke-linejoin="round" d="M9.88852557,1.49999967 L14.9221244,2.78220515 C15.4626788,2.91990202 15.882179,3.34618248 16.011192,3.88887494 C16.337064,5.25965394 16.5,6.63026999 16.5,8.00072307 C16.5,9.371055 16.3370928,10.741224 16.0112784,12.1112301 L16.0112638,12.1112266 C15.8822171,12.6538507 15.4627469,13.0800636 14.9222493,13.217746 L9.88852566,14.5 C9.88852566,15.3284271 9.21695278,16 8.38852566,16 L5.5,16 C4.67157288,16 4,15.3284271 4,14.5 L4,1.5 C4,0.671572875 4.67157288,-1.13251381e-13 5.5,-1.13403561e-13 L8.38852566,-1.13403561e-13 C9.21695262,-1.1355574e-13 9.88852539,0.671572608 9.88852566,1.4999995 Z"/>
    </g>
    <g stroke="#000" transform="rotate(-90 10.5 8.5)">
      <path stroke-linecap="round" stroke-linejoin="round" d="M9.88852557,1.49999967 L14.9221244,2.78220515 C15.4626788,2.91990202 15.882179,3.34618248 16.011192,3.88887494 C16.337064,5.25965394 16.5,6.63026999 16.5,8.00072307 C16.5,9.371055 16.3370928,10.741224 16.0112784,12.1112301 L16.0112638,12.1112266 C15.8822171,12.6538507 15.4627469,13.0800636 14.9222493,13.217746 L9.88852566,14.5 C9.88852566,15.3284271 9.21695278,16 8.38852566,16 L5.5,16 C4.67157288,16 4,15.3284271 4,14.5 L4,1.5 C4,0.671572875 4.67157288,5.70329472e-15 5.5,5.55111512e-15 L8.38852566,5.55111512e-15 C9.21695262,5.39893556e-15 9.88852539,0.671572608 9.88852566,1.4999995 Z"/>
      <rect width="2" height="3" x="1.5" y=".5" rx="1" transform="rotate(90 2.5 2)"/>
      <rect width="2" height="3" x="1.5" y="12.5" rx="1" transform="rotate(90 2.5 14)"/>
      <circle cx="7" cy="13" r="1" stroke-linecap="round" stroke-linejoin="round"/>
      <circle cx="7" cy="3" r="1" stroke-linecap="round" stroke-linejoin="round"/>
      <path d="M9.35207827,6 L14.6475738,6 C15.1081432,6 15.5091483,6.31457056 15.6188128,6.7618936 L16.1091276,8.7618936 C16.2406301,9.29829412 15.9123954,9.83973654 15.3759949,9.97123907 C15.2980673,9.99034359 15.2181237,10 15.1378885,10 L8.86176356,10 C8.30947881,10 7.86176356,9.55228475 7.86176356,9 C7.86176356,8.91976479 7.87141997,8.83982117 7.89052448,8.7618936 L8.3808392,6.7618936 C8.49050373,6.31457056 8.89150883,6 9.35207827,6 Z" transform="rotate(90 12 8)"/>
    </g>
  </g>
</svg>
