<svg xmlns="http://www.w3.org/2000/svg" width="20" height="20" viewBox="0 0 20 20">
  <g fill="none" fill-rule="evenodd">
    <g fill="#AB92F0" transform="translate(5 3.5)">
      <path d="M10.5842423,6 C11.4949341,6.27800255 12.2400973,6.9982648 12.5489278,7.9595424 L13.8501266,12.0097037 C14.3619078,13.6026934 13.520677,15.3205941 11.971185,15.8467422 C11.6722135,15.9482614 11.3593802,16 11.0445232,16 L2.95467646,16 C1.32285371,16 0,14.6400108 0,12.962379 C0,12.6386832 0.0503258005,12.317068 0.149073,12.0097037 L1.45027185,7.9595424 C1.75771998,7.00256758 2.49760341,6.28445533 3.40273821,6.00375967 L10.5842423,6 Z"/>
      <path stroke="#AB92F0" stroke-linecap="round" stroke-linejoin="round" d="M7,11 C8.53846154,11 11,6.65240146 11,4.28555487 C11,1.91870827 9.209139,0 7,0 C4.790861,0 3,1.91870827 3,4.28555487 C3,6.65240146 5.46153846,11 7,11 Z"/>
    </g>
    <g stroke="#000" transform="rotate(-90 9.25 3.75)">
      <circle cx="6.5" cy="4.5" r="1.5"/>
      <path stroke-linecap="round" stroke-linejoin="round" d="M5.5,10 C7.03846154,10 9.5,5.65240146 9.5,3.28555487 C9.5,0.918708269 7.709139,-1 5.5,-1 C3.290861,-1 1.5,0.918708269 1.5,3.28555487 C1.5,5.65240146 3.96153846,10 5.5,10 Z" transform="rotate(90 5.5 4.5)"/>
    </g>
    <path stroke="#000" stroke-linecap="round" stroke-linejoin="round" d="M13.6194527,8.67582931 C14.2914017,8.94240735 14.8314718,9.49441544 15.0698102,10.2094306 L16.4031435,14.2094306 C16.839763,15.5192889 16.131863,16.9350888 14.8220047,17.3717082 C14.5670885,17.4566803 14.3001405,17.5 14.0314353,17.5 L5.96856472,17.5 C4.58785284,17.5 3.46856472,16.3807119 3.46856472,15 C3.46856472,14.7312948 3.51188441,14.4643468 3.59685647,14.2094306 L4.93018981,10.2094306 C5.17274633,9.481761 5.72780926,8.92291938 6.41634699,8.6619444"/>
  </g>
</svg>
