<svg width="20" height="20" viewBox="0 0 20 20" fill="none" xmlns="http://www.w3.org/2000/svg">
<path d="M6.73177 10.6402C6.37821 10.2159 6.43553 9.58537 6.85981 9.2318C7.28409 8.87824 7.91465 8.93556 8.26822 9.35984L13.2682 15.3598C13.6218 15.7841 13.5645 16.4147 13.1402 16.7682C12.7159 17.1218 12.0853 17.0645 11.7318 16.6402L6.73177 10.6402Z" fill="#AB92F0"/>
<path d="M8.26822 10.6402C7.91465 11.0645 7.28409 11.1218 6.85981 10.7682C6.43553 10.4147 6.37821 9.78412 6.73177 9.35984L11.7318 3.35984C12.0853 2.93556 12.7159 2.87824 13.1402 3.2318C13.5645 3.58537 13.6218 4.21593 13.2682 4.64021L8.26822 10.6402Z" fill="#AB92F0"/>
</svg>
