<svg width="20" height="20" viewBox="0 0 20 20" fill="none" xmlns="http://www.w3.org/2000/svg">
<path fill-rule="evenodd" clip-rule="evenodd" d="M5.23178 8.97353C4.87822 8.54926 4.93554 7.91869 5.35982 7.56513L9.35982 4.23179C9.7841 3.87823 10.4147 3.93555 10.7682 4.35983C11.1218 4.78411 11.0645 5.41467 10.6402 5.76824L6.64019 9.10157C6.21591 9.45513 5.58535 9.39781 5.23178 8.97353Z" fill="#AB92F0"/>
<path fill-rule="evenodd" clip-rule="evenodd" d="M14.7682 8.97353C14.4147 9.39781 13.7841 9.45513 13.3598 9.10157L9.35982 5.76824C8.93554 5.41467 8.87822 4.78411 9.23178 4.35983C9.58535 3.93555 10.2159 3.87823 10.6402 4.23179L14.6402 7.56513C15.0645 7.91869 15.1218 8.54926 14.7682 8.97353Z" fill="#AB92F0"/>
<path fill-rule="evenodd" clip-rule="evenodd" d="M10 6C10.5523 6 11 6.44772 11 7V15C11 15.5523 10.5523 16 10 16C9.44772 16 9 15.5523 9 15V7C9 6.44772 9.44772 6 10 6Z" fill="#AB92F0"/>
</svg>
