<svg width="20" height="20" viewBox="0 0 26 26" fill="none" xmlns="http://www.w3.org/2000/svg"><g transform="translate(3, 3)"><path fill-rule="evenodd" clip-rule="evenodd" d="M7.20299 4C7.33379 4.81869 7.52606 5.59514 7.77794 6.08409C7.97599 6.46853 8.36428 6.95849 8.89645 7.49121C9.26075 7.85589 9.64792 8.19679 10 8.48728C10.3521 8.19679 10.7392 7.85589 11.1035 7.49121C11.6357 6.95849 12.024 6.46853 12.222 6.08409C12.4739 5.59514 12.6662 4.81869 12.797 4H7.20299ZM6.54146 2C5.69701 2 5.02278 2.69677 5.12064 3.53553C5.24621 4.6119 5.49855 6.02661 6 7C6.67249 8.30543 8.21838 9.6428 9.17938 10.3928C9.66546 10.7722 10.3345 10.7722 10.8206 10.3928C11.7816 9.6428 13.3275 8.30543 14 7C14.5014 6.02661 14.7538 4.6119 14.8794 3.53553C14.9772 2.69677 14.303 2 13.4585 2H6.54146Z" fill="currentColor"/><path fill-rule="evenodd" clip-rule="evenodd" d="M12.797 16C12.6662 15.1813 12.4739 14.4049 12.2221 13.9159C12.024 13.5315 11.6357 13.0415 11.1036 12.5088C10.7393 12.1441 10.3521 11.8032 10 11.5127C9.64792 11.8032 9.26076 12.1441 8.89646 12.5088C8.36428 13.0415 7.976 13.5315 7.77795 13.9159C7.52607 14.4049 7.3338 15.1813 7.203 16H12.797ZM13.4585 18C14.303 18 14.9772 17.3032 14.8794 16.4645C14.7538 15.3881 14.5014 13.9734 14 13C13.3275 11.6946 11.7816 10.3572 10.8206 9.60718C10.3345 9.22781 9.66547 9.22781 9.17938 9.60718C8.21839 10.3572 6.6725 11.6946 6 13C5.49856 13.9734 5.24622 15.3881 5.12064 16.4645C5.02279 17.3032 5.69702 18 6.54147 18L13.4585 18Z" fill="currentColor"/><path d="M7 15.7502C7 15.7502 9 14.25 10 14.25C11 14.25 13 15.7502 13 15.7502V16.25H7V15.7502Z" fill="currentColor"/><path fill-rule="evenodd" clip-rule="evenodd" d="M4 2.5C4 1.94772 4.44772 1.5 5 1.5H15C15.5523 1.5 16 1.94772 16 2.5C16 3.05228 15.5523 3.5 15 3.5H5C4.44772 3.5 4 3.05228 4 2.5Z" fill="currentColor"/><path fill-rule="evenodd" clip-rule="evenodd" d="M4 17.5C4 16.9477 4.44772 16.5 5 16.5H15C15.5523 16.5 16 16.9477 16 17.5C16 18.0523 15.5523 18.5 15 18.5H5C4.44772 18.5 4 18.0523 4 17.5Z" fill="currentColor"/><path d="M1.29289 2.70711C0.902369 2.31658 0.902369 1.68342 1.29289 1.29289C1.68342 0.902368 2.31658 0.902368 2.70711 1.29289L18.7071 17.2929C19.0976 17.6834 19.0976 18.3166 18.7071 18.7071C18.3166 19.0976 17.6834 19.0976 17.2929 18.7071L1.29289 2.70711Z" fill="currentColor"/></g><path fill-rule="evenodd" clip-rule="evenodd" d="M13 24C19.0751 24 24 19.0751 24 13C24 6.92487 19.0751 2 13 2C6.92487 2 2 6.92487 2 13C2 19.0751 6.92487 24 13 24ZM13 26C20.1797 26 26 20.1797 26 13C26 5.8203 20.1797 0 13 0C5.8203 0 0 5.8203 0 13C0 20.1797 5.8203 26 13 26Z" fill="currentColor"/></svg>