<svg width="20" height="20" viewBox="0 0 26 26" fill="none" xmlns="http://www.w3.org/2000/svg"><g transform="translate(3, 3)"><g><path fill-rule="evenodd" clip-rule="evenodd" d="M4.9104 4.56427C4.89245 4.84749 4.87599 5.15955 4.86283 5.49066C4.80885 6.84914 4.81614 8.39826 4.96533 9.56897L12.2301 16.8337L17.1798 11.884L9.91508 4.61922C8.74436 4.47003 7.19524 4.46273 5.83678 4.5167C5.50568 4.52986 5.19362 4.54632 4.9104 4.56427ZM3.09386 2.74776C2.99676 2.83992 2.60479 7.31481 3.01673 10.078C3.06053 10.3718 3.206 10.6381 3.41605 10.8481L11.1694 18.6015C11.7552 19.1873 12.705 19.1873 13.2908 18.6015L18.9476 12.9446C19.5334 12.3589 19.5334 11.4091 18.9476 10.8233L11.1942 3.06994C10.9842 2.85989 10.7179 2.71442 10.4241 2.67062C7.66092 2.25868 3.18608 2.6506 3.09386 2.74776Z" fill="currentColor"/><path d="M9.14171 7.46623C9.53223 7.85676 9.53223 8.48992 9.14171 8.88045C8.75118 9.27097 8.11802 9.27097 7.72749 8.88045C7.33697 8.48992 7.33697 7.85676 7.72749 7.46623C8.11802 7.07571 8.75118 7.07571 9.14171 7.46623Z" fill="currentColor"/></g><path d="M1.29289 2.70711C0.902369 2.31658 0.902369 1.68342 1.29289 1.29289C1.68342 0.902368 2.31658 0.902368 2.70711 1.29289L18.7071 17.2929C19.0976 17.6834 19.0976 18.3166 18.7071 18.7071C18.3166 19.0976 17.6834 19.0976 17.2929 18.7071L1.29289 2.70711Z" fill="currentColor"/></g><path fill-rule="evenodd" clip-rule="evenodd" d="M13 24C19.0751 24 24 19.0751 24 13C24 6.92487 19.0751 2 13 2C6.92487 2 2 6.92487 2 13C2 19.0751 6.92487 24 13 24ZM13 26C20.1797 26 26 20.1797 26 13C26 5.8203 20.1797 0 13 0C5.8203 0 0 5.8203 0 13C0 20.1797 5.8203 26 13 26Z" fill="currentColor"/></svg>