<svg width="20" height="20" viewBox="0 0 26 26" fill="none" xmlns="http://www.w3.org/2000/svg"><g transform="translate(3, 3)"><path d="M17.5 8.5V17.5H2.5V8.5" stroke="currentColor" stroke-width="2" stroke-linecap="round" stroke-linejoin="round"/><path d="M10 14.5L3.5 10.17V5.5H16.5V10.17L10 14.5Z" stroke="currentColor" stroke-width="2" stroke-linejoin="round"/><path d="M5.5 5.5L10 2.5L14.5 5.5" stroke="currentColor" stroke-width="2" stroke-linejoin="round"/><path d="M7 8H13" stroke="currentColor" stroke-linecap="round"/><path d="M7.5 10H12.5" stroke="currentColor" stroke-linecap="round"/><path fill-rule="evenodd" clip-rule="evenodd" d="M2.5 7.5C3.05228 7.5 3.5 7.94772 3.5 8.5V16.5H16.5V8.5C16.5 7.94772 16.9477 7.5 17.5 7.5C18.0523 7.5 18.5 7.94772 18.5 8.5V17.5C18.5 18.0523 18.0523 18.5 17.5 18.5H2.5C1.94772 18.5 1.5 18.0523 1.5 17.5V8.5C1.5 7.94772 1.94772 7.5 2.5 7.5Z" fill="currentColor"/><path fill-rule="evenodd" clip-rule="evenodd" d="M2.5 5.5C2.5 4.94772 2.94772 4.5 3.5 4.5H16.5C17.0523 4.5 17.5 4.94772 17.5 5.5V10.17C17.5 10.5045 17.3328 10.8168 17.0544 11.0022L10.5544 15.3322C10.2186 15.5559 9.78136 15.5559 9.4456 15.3322L2.9456 11.0022C2.66723 10.8168 2.5 10.5045 2.5 10.17V5.5ZM4.5 6.5V9.63459L10 13.2984L15.5 9.63459V6.5H4.5Z" fill="currentColor"/><path fill-rule="evenodd" clip-rule="evenodd" d="M9.44531 1.66795C9.78121 1.44402 10.2188 1.44402 10.5547 1.66795L15.0547 4.66795L13.9453 6.33205L10 3.70185L6.05471 6.33205L4.94531 4.66795L9.44531 1.66795Z" fill="currentColor"/><path fill-rule="evenodd" clip-rule="evenodd" d="M6.5 8C6.5 7.72386 6.72386 7.5 7 7.5H13C13.2761 7.5 13.5 7.72386 13.5 8C13.5 8.27614 13.2761 8.5 13 8.5H7C6.72386 8.5 6.5 8.27614 6.5 8Z" fill="currentColor"/><path fill-rule="evenodd" clip-rule="evenodd" d="M7 10C7 9.72386 7.22386 9.5 7.5 9.5H12.5C12.7761 9.5 13 9.72386 13 10C13 10.2761 12.7761 10.5 12.5 10.5H7.5C7.22386 10.5 7 10.2761 7 10Z" fill="currentColor"/><path d="M1.29289 2.70711C0.902369 2.31658 0.902369 1.68342 1.29289 1.29289C1.68342 0.902368 2.31658 0.902368 2.70711 1.29289L18.7071 17.2929C19.0976 17.6834 19.0976 18.3166 18.7071 18.7071C18.3166 19.0976 17.6834 19.0976 17.2929 18.7071L1.29289 2.70711Z" fill="currentColor"/></g><path fill-rule="evenodd" clip-rule="evenodd" d="M13 24C19.0751 24 24 19.0751 24 13C24 6.92487 19.0751 2 13 2C6.92487 2 2 6.92487 2 13C2 19.0751 6.92487 24 13 24ZM13 26C20.1797 26 26 20.1797 26 13C26 5.8203 20.1797 0 13 0C5.8203 0 0 5.8203 0 13C0 20.1797 5.8203 26 13 26Z" fill="currentColor"/></svg>