<svg width="20" height="20" viewBox="0 0 26 26" fill="none" xmlns="http://www.w3.org/2000/svg"><g transform="translate(3, 3)"><path fill-rule="evenodd" clip-rule="evenodd" d="M14.5187 2.74864C14.8453 2.49387 15.3165 2.5521 15.5713 2.8787L17.1178 4.86126C17.3726 5.18786 17.3144 5.65915 16.9878 5.91392C16.6612 6.16868 16.1899 6.11045 15.9351 5.78385L14.3886 3.8013C14.1338 3.4747 14.1921 3.00341 14.5187 2.74864Z" fill="currentColor"/><path fill-rule="evenodd" clip-rule="evenodd" d="M16.9827 4.72731C16.654 4.47531 16.1832 4.53752 15.9312 4.86626L14.3847 6.88372C14.1327 7.21246 14.1949 7.68324 14.5237 7.93524C14.8524 8.18724 15.3232 8.12503 15.5752 7.79629L17.1217 5.77883C17.3737 5.45009 17.3115 4.97931 16.9827 4.72731Z" fill="currentColor"/><path fill-rule="evenodd" clip-rule="evenodd" d="M2.47998 9.32257C2.47998 6.56115 4.71856 4.32257 7.47998 4.32257H15.3404C15.8927 4.32257 16.3404 4.77029 16.3404 5.32257C16.3404 5.87486 15.8927 6.32257 15.3404 6.32257H7.47998C5.82313 6.32257 4.47998 7.66572 4.47998 9.32257V10.3226C4.47998 10.8749 4.03227 11.3226 3.47998 11.3226C2.9277 11.3226 2.47998 10.8749 2.47998 10.3226V9.32257Z" fill="currentColor"/><path fill-rule="evenodd" clip-rule="evenodd" d="M5.48781 17.2512C5.16122 17.506 4.68993 17.4478 4.43516 17.1212L2.88864 15.1386C2.63387 14.812 2.6921 14.3407 3.0187 14.086C3.3453 13.8312 3.81659 13.8894 4.07136 14.216L5.61788 16.1986C5.87264 16.5252 5.81441 16.9965 5.48781 17.2512Z" fill="currentColor"/><path fill-rule="evenodd" clip-rule="evenodd" d="M3.02373 15.2726C3.35247 15.5246 3.82325 15.4624 4.07525 15.1336L5.62176 13.1162C5.87376 12.7874 5.81155 12.3166 5.48281 12.0646C5.15407 11.8126 4.68329 11.8749 4.43129 12.2036L2.88478 14.221C2.63279 14.5498 2.69499 15.0206 3.02373 15.2726Z" fill="currentColor"/><path fill-rule="evenodd" clip-rule="evenodd" d="M17.5265 10.6773C17.5265 13.4387 15.2879 15.6773 12.5265 15.6773H4.66602C4.11374 15.6773 3.66602 15.2296 3.66602 14.6773C3.66602 14.125 4.11374 13.6773 4.66602 13.6773H12.5265C14.1833 13.6773 15.5265 12.3342 15.5265 10.6773V9.67731C15.5265 9.12502 15.9742 8.67731 16.5265 8.67731C17.0788 8.67731 17.5265 9.12502 17.5265 9.67731V10.6773Z" fill="currentColor"/><path d="M1.29289 2.70711C0.902369 2.31658 0.902369 1.68342 1.29289 1.29289C1.68342 0.902368 2.31658 0.902368 2.70711 1.29289L18.7071 17.2929C19.0976 17.6834 19.0976 18.3166 18.7071 18.7071C18.3166 19.0976 17.6834 19.0976 17.2929 18.7071L1.29289 2.70711Z" fill="currentColor"/></g><path fill-rule="evenodd" clip-rule="evenodd" d="M13 24C19.0751 24 24 19.0751 24 13C24 6.92487 19.0751 2 13 2C6.92487 2 2 6.92487 2 13C2 19.0751 6.92487 24 13 24ZM13 26C20.1797 26 26 20.1797 26 13C26 5.8203 20.1797 0 13 0C5.8203 0 0 5.8203 0 13C0 20.1797 5.8203 26 13 26Z" fill="currentColor"/></svg>