<svg width="20" height="20" viewBox="0 0 20 20" fill="none" xmlns="http://www.w3.org/2000/svg">
<path fill-rule="evenodd" clip-rule="evenodd" d="M7.37071 4.75C7.71589 4.75 7.99571 5.02982 7.99571 5.375V7V7.5C7.99571 7.91421 8.3315 8.25 8.74571 8.25C9.15992 8.25 9.49571 7.91421 9.49571 7.5V7V5.375V3.875C9.49571 3.52982 9.77553 3.25 10.1207 3.25C10.4659 3.25 10.7457 3.52982 10.7457 3.875V4.87296L10.7457 4.875V5L10.7457 5.00121V7C10.7457 7.41421 11.0815 7.75 11.4957 7.75C11.9099 7.75 12.2457 7.41421 12.2457 7L12.2457 5V4.875L12.2457 4.8739C12.2463 4.52923 12.5259 4.25 12.8707 4.25C13.2159 4.25 13.4957 4.52982 13.4957 4.875V6.5V7.5C13.4957 7.91421 13.8315 8.25 14.2457 8.25C14.6599 8.25 14.9957 7.91421 14.9957 7.5V6.5C14.9957 6.36193 15.1076 6.25 15.2457 6.25H15.6207C15.9659 6.25 16.2457 6.52982 16.2457 6.875V11.5C16.2457 11.5259 16.247 11.5515 16.2496 11.5768C16.2309 13.3334 15.5701 14.6009 14.6267 15.4394C13.6559 16.3024 12.3402 16.75 11 16.75C8.40357 16.75 6.60085 15.0421 5.14586 12.6187C5.14194 12.6121 5.13791 12.6055 5.13376 12.5989C5.12962 12.5924 5.12538 12.5859 5.12107 12.5795C4.85962 12.1871 4.52304 11.6466 4.16761 11.0603C3.59987 10.1238 4.18642 8.93556 5.24571 8.76958V10C5.24571 10.4142 5.5815 10.75 5.99571 10.75C6.40992 10.75 6.74571 10.4142 6.74571 10V5.375C6.74571 5.02982 7.02553 4.75 7.37071 4.75ZM3.86607 13.4012C3.58752 12.9825 3.24035 12.4242 2.88492 11.8379C1.69385 9.87328 3.04487 7.43579 5.24571 7.26008V5.375C5.24571 4.2014 6.1971 3.25 7.37071 3.25C7.61111 3.25 7.84219 3.28992 8.05768 3.36349C8.28664 2.43697 9.12345 1.75 10.1207 1.75C10.9533 1.75 11.674 2.22878 12.0226 2.92601C12.2824 2.81279 12.5692 2.75 12.8707 2.75C14.0085 2.75 14.9374 3.64416 14.9931 4.7681C15.0756 4.75618 15.1599 4.75 15.2457 4.75H15.6207C16.7943 4.75 17.7457 5.7014 17.7457 6.875V11.4193C17.7485 11.4458 17.75 11.4727 17.75 11.5C17.75 13.7035 16.9162 15.4113 15.6233 16.5606C14.3441 17.6976 12.6598 18.25 11 18.25C7.6048 18.25 5.41012 15.9692 3.86607 13.4012Z" fill="#AB92F0"/>
<path fill-rule="evenodd" clip-rule="evenodd" d="M3.44345 13.6686C3.16009 13.2421 2.81114 12.6807 2.45735 12.0971C1.15022 9.94105 2.46741 7.31244 4.74571 6.82848V5.375C4.74571 3.92525 5.92096 2.75 7.37071 2.75C7.49471 2.75 7.61688 2.75863 7.73661 2.77536C8.15256 1.875 9.06319 1.25 10.1207 1.25C10.9918 1.25 11.7632 1.67439 12.2403 2.32631C12.4426 2.27642 12.6538 2.25 12.8707 2.25C14.1051 2.25 15.1403 3.10186 15.4208 4.25H15.6207C17.0705 4.25 18.2457 5.42525 18.2457 6.875V11.396C18.2486 11.4304 18.25 11.4651 18.25 11.5C18.25 13.8391 17.3604 15.6854 15.9555 16.9343C14.5735 18.1627 12.7663 18.75 11 18.75C7.3415 18.75 5.01698 16.2821 3.44345 13.6686ZM3.86607 13.4012C3.58752 12.9825 3.24035 12.4242 2.88492 11.8379C1.69385 9.87328 3.04487 7.43579 5.24571 7.26008V5.375C5.24571 4.2014 6.1971 3.25 7.37071 3.25C7.48368 3.25 7.59458 3.25882 7.70278 3.2758C7.82484 3.29495 7.94345 3.32449 8.05767 3.36349C8.08723 3.2439 8.12691 3.12829 8.17576 3.01764C8.50534 2.27107 9.25217 1.75 10.1207 1.75C10.9533 1.75 11.674 2.22878 12.0226 2.92601C12.2824 2.81279 12.5692 2.75 12.8707 2.75C13.8709 2.75 14.7097 3.441 14.9357 4.37164C14.9668 4.49966 14.9863 4.6322 14.9931 4.7681C15.0756 4.75618 15.1599 4.75 15.2457 4.75H15.6207C16.7943 4.75 17.7457 5.7014 17.7457 6.875V11.4193C17.7485 11.4458 17.75 11.4727 17.75 11.5C17.75 13.7035 16.9162 15.4113 15.6233 16.5606C14.3441 17.6976 12.6598 18.25 11 18.25C7.6048 18.25 5.41012 15.9692 3.86607 13.4012Z" fill="#AB92F0"/>
</svg>
