<svg width="20" height="20" viewBox="0 0 20 20" fill="none" xmlns="http://www.w3.org/2000/svg"><path fill-rule="evenodd" clip-rule="evenodd" d="M10.5624 16.2854C10.5923 15.7828 10.4794 14.6396 10.2237 12.805L12.8761 10.3729L14.5674 16.4262C14.6681 16.7867 15.1147 16.9127 15.389 16.6581C16.8823 15.2725 17.6801 14.0195 17.7488 12.8652C17.8014 11.9793 17.3369 10.1164 16.3524 7.1852L16.8214 6.75516C18.8842 4.69305 19.4427 3.00777 18.2388 1.80381C17.0349 0.59992 15.3494 1.15809 13.3016 3.20455L12.8567 3.68935C9.92541 2.70483 8.06242 2.24023 7.17652 2.29293C6.02218 2.36158 4.76919 3.15943 3.38355 4.65265C3.12895 4.92703 3.25502 5.37359 3.61552 5.47431L9.66945 7.16575L7.23783 9.81814C5.40254 9.56238 4.25901 9.44939 3.75628 9.47932C2.97614 9.52577 2.15519 10.0485 1.25945 11.0138C1.00483 11.2882 1.13092 11.7348 1.49144 11.8355L6.27107 13.1706L6.87106 13.7706L8.20619 18.5502C8.30689 18.9108 8.75347 19.0369 9.02786 18.7822C9.99314 17.8865 10.5159 17.0655 10.5624 16.2854ZM9.19693 12.6843C9.46746 14.5947 9.58981 15.7947 9.56413 16.226C9.54433 16.5585 9.33872 16.9682 8.93509 17.4427L7.79891 13.3753C7.77578 13.2925 7.73169 13.217 7.6709 13.1562L6.88545 12.3708C6.82466 12.31 6.74922 12.2659 6.66642 12.2428L2.599 11.1066C3.07353 10.703 3.4832 10.4974 3.81571 10.4776C4.24707 10.4519 5.44749 10.5743 7.35857 10.8449C7.52176 10.868 7.68586 10.8092 7.79724 10.6877L10.9569 7.24122C11.2089 6.96629 11.0821 6.52215 10.7229 6.42178L4.70117 4.73934C5.68001 3.80916 6.53157 3.33305 7.23589 3.29116C7.96978 3.24751 9.87294 3.73165 12.8443 4.74065C13.032 4.80439 13.2397 4.75121 13.3736 4.60508L14.0236 3.8961C15.7159 2.20551 16.8505 1.82978 17.5317 2.51091C18.2127 3.19197 17.8368 4.32621 16.1299 6.03309L15.4366 6.66821C15.2905 6.80217 15.2373 7.0098 15.3011 7.1975C16.31 10.1688 16.7942 12.0719 16.7505 12.8058C16.7086 13.5101 16.2325 14.3617 15.3023 15.3405L13.6201 9.31934C13.5197 8.96009 13.0755 8.83327 12.8006 9.08536L9.35407 12.2457C9.23261 12.3571 9.17383 12.5212 9.19693 12.6843Z" fill="currentColor"/></svg>