<svg width="20" height="20" viewBox="0 0 20 20" fill="none" xmlns="http://www.w3.org/2000/svg"><path fill-rule="evenodd" clip-rule="evenodd" d="M10 4.75C6.68629 4.75 4 7.43629 4 10.75C4 14.0637 6.68629 16.75 10 16.75C13.3137 16.75 16 14.0637 16 10.75C16 7.43629 13.3137 4.75 10 4.75ZM3 10.75C3 6.88401 6.13401 3.75 10 3.75C13.866 3.75 17 6.88401 17 10.75C17 14.616 13.866 17.75 10 17.75C6.13401 17.75 3 14.616 3 10.75Z" fill="currentColor"/><path fill-rule="evenodd" clip-rule="evenodd" d="M3.14645 17.6036C3.34171 17.7989 3.65829 17.7989 3.85355 17.6036L5.35355 16.1036C5.54882 15.9083 5.54882 15.5918 5.35355 15.3965C5.15829 15.2012 4.84171 15.2012 4.64645 15.3965L3.14645 16.8965C2.95118 17.0918 2.95118 17.4083 3.14645 17.6036Z" fill="currentColor"/><path fill-rule="evenodd" clip-rule="evenodd" d="M14.6464 15.3965C14.8417 15.2013 15.1583 15.2013 15.3536 15.3965L16.8536 16.8965C17.0488 17.0918 17.0488 17.4084 16.8536 17.6036C16.6583 17.7989 16.3417 17.7989 16.1464 17.6036L14.6464 16.1036C14.4512 15.9084 14.4512 15.5918 14.6464 15.3965Z" fill="currentColor"/><path fill-rule="evenodd" clip-rule="evenodd" d="M10 7.25C10.2761 7.25 10.5 7.47386 10.5 7.75V10.75C10.5 11.0261 10.2761 11.25 10 11.25C9.72386 11.25 9.5 11.0261 9.5 10.75V7.75C9.5 7.47386 9.72386 7.25 10 7.25Z" fill="currentColor"/><path fill-rule="evenodd" clip-rule="evenodd" d="M13.5 10.75C13.5 11.0261 13.2761 11.25 13 11.25H10C9.72386 11.25 9.5 11.0261 9.5 10.75C9.5 10.4739 9.72386 10.25 10 10.25H13C13.2761 10.25 13.5 10.4739 13.5 10.75Z" fill="currentColor"/><path d="M2.3811 2.54649C4.40385 0.614694 6.33196 2.92163 6.33196 2.92163L2.57422 6.51042C2.57422 6.51042 0.358357 4.47829 2.3811 2.54649Z" fill="currentColor"/><path fill-rule="evenodd" clip-rule="evenodd" d="M3.96998 2.78312C3.74526 2.80987 3.44051 2.9175 3.07176 3.26967C2.70301 3.62184 2.58149 3.92131 2.54443 4.14457C2.50534 4.38013 2.54516 4.62649 2.64704 4.88008C2.66414 4.92263 2.68262 4.96446 2.7022 5.00541L4.82266 2.98029C4.78265 2.95885 4.74172 2.93847 4.7 2.91943C4.45136 2.806 4.20709 2.75489 3.96998 2.78312ZM5.57205 2.26459C4.82557 1.77094 3.62112 1.36223 2.3811 2.54649C1.14108 3.73076 1.494 4.95273 1.9528 5.72111C2.1026 5.97198 2.26369 6.1745 2.38431 6.31157C2.49689 6.4395 2.57422 6.51042 2.57422 6.51042L6.33196 2.92163C6.33196 2.92163 6.26467 2.84112 6.14205 2.72278C6.01067 2.59599 5.81577 2.42576 5.57205 2.26459Z" fill="currentColor"/><path d="M17.6189 2.54649C15.5962 0.614694 13.668 2.92163 13.668 2.92163L17.4258 6.51042C17.4258 6.51042 19.6416 4.47829 17.6189 2.54649Z" fill="currentColor"/><path fill-rule="evenodd" clip-rule="evenodd" d="M16.03 2.78312C16.2547 2.80987 16.5595 2.9175 16.9282 3.26967C17.297 3.62184 17.4185 3.92131 17.4556 4.14457C17.4947 4.38013 17.4548 4.62649 17.353 4.88008C17.3359 4.92263 17.3174 4.96446 17.2978 5.00541L15.1773 2.98029C15.2174 2.95885 15.2583 2.93847 15.3 2.91943C15.5486 2.806 15.7929 2.75489 16.03 2.78312ZM14.428 2.26459C15.1744 1.77094 16.3789 1.36223 17.6189 2.54649C18.8589 3.73076 18.506 4.95273 18.0472 5.72111C17.8974 5.97198 17.7363 6.1745 17.6157 6.31157C17.5031 6.4395 17.4258 6.51042 17.4258 6.51042L13.668 2.92163C13.668 2.92163 13.7353 2.84112 13.858 2.72278C13.9893 2.59599 14.1842 2.42576 14.428 2.26459Z" fill="currentColor"/><path d="M1.15063 1.87794C0.94979 1.6771 0.94979 1.35147 1.15063 1.15063C1.35147 0.949789 1.6771 0.949789 1.87794 1.15063L18.8494 18.1221C19.0502 18.3229 19.0502 18.6485 18.8494 18.8494C18.6485 19.0502 18.3229 19.0502 18.1221 18.8494L1.15063 1.87794Z" fill="currentColor"/></svg>