<svg width="20" height="20" viewBox="0 0 20 20" fill="none" xmlns="http://www.w3.org/2000/svg"><path d="M7.1159 4.3201C6.93912 4.10797 6.96778 3.79268 7.17992 3.6159C7.39206 3.43912 7.70734 3.46778 7.88412 3.67992L12.8841 9.67992C13.0609 9.89206 13.0322 10.2073 12.8201 10.3841C12.608 10.5609 12.2927 10.5322 12.1159 10.3201L7.1159 4.3201Z" fill="currentColor"/><path d="M7.88412 16.3201C7.70734 16.5322 7.39206 16.5609 7.17992 16.3841C6.96778 16.2073 6.93912 15.8921 7.1159 15.6799L12.1159 9.67992C12.2927 9.46778 12.608 9.43912 12.8201 9.6159C13.0322 9.79268 13.0609 10.108 12.8841 10.3201L7.88412 16.3201Z" fill="currentColor"/></svg>