<svg width="20" height="20" viewBox="0 0 20 20" fill="none" xmlns="http://www.w3.org/2000/svg"><path d="M12.3841 15.6799L7.38412 9.67993L6.6159 10.3201L11.6159 16.3201L12.3841 15.6799Z" fill="currentColor"/><path d="M11.6159 16.32L6.61591 10.32C6.18912 9.8079 6.95734 9.16772 7.38413 9.67986L12.3841 15.6799C12.8109 16.192 12.0427 16.8322 11.6159 16.32Z" fill="currentColor"/><path d="M11.6159 3.67993L6.6159 9.67993L7.38412 10.3201L12.3841 4.32012L11.6159 3.67993Z" fill="currentColor"/><path d="M12.3841 4.32005L7.38413 10.32C6.95734 10.8322 6.18912 10.192 6.61591 9.67986L11.6159 3.67986C12.0427 3.16772 12.8109 3.8079 12.3841 4.32005Z" fill="currentColor"/><path d="M1.15063 1.87794C0.94979 1.6771 0.94979 1.35147 1.15063 1.15063C1.35147 0.949789 1.6771 0.949789 1.87794 1.15063L18.8494 18.1221C19.0502 18.3229 19.0502 18.6485 18.8494 18.8494C18.6485 19.0502 18.3229 19.0502 18.1221 18.8494L1.15063 1.87794Z" fill="currentColor"/></svg>