<svg width="20" height="20" viewBox="0 0 26 26" fill="none" xmlns="http://www.w3.org/2000/svg"><defs><mask id="mask-pencil-angle-down-circle-filled"><rect width="26" height="26" fill="white"/><g transform="translate(3, 3)"><path d="M15.6799 7.11597L9.6799 12.116L10.3201 12.8842L16.3201 7.88419L15.6799 7.11597Z" fill="black"/><path d="M16.3201 7.88412L10.3201 12.8841C9.80793 13.3109 9.16775 12.5427 9.67989 12.1159L15.6799 7.1159C16.192 6.68911 16.8322 7.45733 16.3201 7.88412Z" fill="black"/><path d="M3.6799 7.88419L9.6799 12.8842L10.3201 12.116L4.32009 7.11597L3.6799 7.88419Z" fill="black"/><path d="M4.32008 7.1159L10.3201 12.1159C10.8322 12.5427 10.192 13.3109 9.67989 12.8841L3.67989 7.88412C3.16775 7.45733 3.80793 6.68911 4.32008 7.1159Z" fill="black"/></g></mask></defs><circle r="13" cx="13" cy="13" mask="url(#mask-pencil-angle-down-circle-filled)" fill="currentColor"/></svg>