<svg width="20" height="20" viewBox="0 0 26 26" fill="none" xmlns="http://www.w3.org/2000/svg"><g transform="translate(3, 3)"><path d="M7.1159 4.3201C6.93912 4.10797 6.96778 3.79268 7.17992 3.6159C7.39206 3.43912 7.70734 3.46778 7.88412 3.67992L12.8841 9.67992C13.0609 9.89206 13.0322 10.2073 12.8201 10.3841C12.608 10.5609 12.2927 10.5322 12.1159 10.3201L7.1159 4.3201Z" fill="currentColor"/><path d="M7.88412 16.3201C7.70734 16.5322 7.39206 16.5609 7.17992 16.3841C6.96778 16.2073 6.93912 15.8921 7.1159 15.6799L12.1159 9.67992C12.2927 9.46778 12.608 9.43912 12.8201 9.6159C13.0322 9.79268 13.0609 10.108 12.8841 10.3201L7.88412 16.3201Z" fill="currentColor"/></g><path fill-rule="evenodd" clip-rule="evenodd" d="M13 24.5C19.3513 24.5 24.5 19.3513 24.5 13C24.5 6.64873 19.3513 1.5 13 1.5C6.64873 1.5 1.5 6.64873 1.5 13C1.5 19.3513 6.64873 24.5 13 24.5ZM13 25.5C19.9036 25.5 25.5 19.9036 25.5 13C25.5 6.09644 19.9036 0.5 13 0.5C6.09644 0.5 0.5 6.09644 0.5 13C0.5 19.9036 6.09644 25.5 13 25.5Z" fill="currentColor"/></svg>