<svg width="20" height="20" viewBox="0 0 26 26" fill="none" xmlns="http://www.w3.org/2000/svg"><g transform="translate(3, 3)"><path d="M15.6799 7.11597L9.6799 12.116L10.3201 12.8842L16.3201 7.88419L15.6799 7.11597Z" fill="currentColor"/><path d="M16.3201 7.88412L10.3201 12.8841C9.80793 13.3109 9.16775 12.5427 9.67989 12.1159L15.6799 7.1159C16.192 6.68911 16.8322 7.45733 16.3201 7.88412Z" fill="currentColor"/><path d="M3.6799 7.88419L9.6799 12.8842L10.3201 12.116L4.32009 7.11597L3.6799 7.88419Z" fill="currentColor"/><path d="M4.32008 7.1159L10.3201 12.1159C10.8322 12.5427 10.192 13.3109 9.67989 12.8841L3.67989 7.88412C3.16775 7.45733 3.80793 6.68911 4.32008 7.1159Z" fill="currentColor"/></g><path fill-rule="evenodd" clip-rule="evenodd" d="M13 24.5C19.3513 24.5 24.5 19.3513 24.5 13C24.5 6.64873 19.3513 1.5 13 1.5C6.64873 1.5 1.5 6.64873 1.5 13C1.5 19.3513 6.64873 24.5 13 24.5ZM13 25.5C19.9036 25.5 25.5 19.9036 25.5 13C25.5 6.09644 19.9036 0.5 13 0.5C6.09644 0.5 0.5 6.09644 0.5 13C0.5 19.9036 6.09644 25.5 13 25.5Z" fill="currentColor"/></svg>