<svg width="20" height="20" viewBox="0 0 26 26" fill="none" xmlns="http://www.w3.org/2000/svg"><g transform="translate(3, 3)"><path d="M16.3201 12.116L10.3201 7.11597L9.67993 7.88419L15.6799 12.8842L16.3201 12.116Z" fill="currentColor"/><path d="M15.6799 12.8841L9.67992 7.88412C9.16778 7.45733 9.80796 6.68911 10.3201 7.1159L16.3201 12.1159C16.8323 12.5427 16.1921 13.3109 15.6799 12.8841Z" fill="currentColor"/><path d="M4.32012 12.8842L10.3201 7.88419L9.67993 7.11597L3.67993 12.116L4.32012 12.8842Z" fill="currentColor"/><path d="M3.67992 12.1159L9.67992 7.1159C10.1921 6.68911 10.8323 7.45733 10.3201 7.88412L4.32011 12.8841C3.80796 13.3109 3.16778 12.5427 3.67992 12.1159Z" fill="currentColor"/></g><path fill-rule="evenodd" clip-rule="evenodd" d="M13 24.5C19.3513 24.5 24.5 19.3513 24.5 13C24.5 6.64873 19.3513 1.5 13 1.5C6.64873 1.5 1.5 6.64873 1.5 13C1.5 19.3513 6.64873 24.5 13 24.5ZM13 25.5C19.9036 25.5 25.5 19.9036 25.5 13C25.5 6.09644 19.9036 0.5 13 0.5C6.09644 0.5 0.5 6.09644 0.5 13C0.5 19.9036 6.09644 25.5 13 25.5Z" fill="currentColor"/></svg>