<svg width="20" height="20" viewBox="0 0 26 26" fill="none" xmlns="http://www.w3.org/2000/svg"><g transform="translate(3, 3)"><path d="M12.3841 15.6799L7.38412 9.67993L6.6159 10.3201L11.6159 16.3201L12.3841 15.6799Z" fill="currentColor"/><path d="M11.6159 16.32L6.61591 10.32C6.18912 9.8079 6.95734 9.16772 7.38413 9.67986L12.3841 15.6799C12.8109 16.192 12.0427 16.8322 11.6159 16.32Z" fill="currentColor"/><path d="M11.6159 3.67993L6.6159 9.67993L7.38412 10.3201L12.3841 4.32012L11.6159 3.67993Z" fill="currentColor"/><path d="M12.3841 4.32005L7.38413 10.32C6.95734 10.8322 6.18912 10.192 6.61591 9.67986L11.6159 3.67986C12.0427 3.16772 12.8109 3.8079 12.3841 4.32005Z" fill="currentColor"/></g><path fill-rule="evenodd" clip-rule="evenodd" d="M13 24.5C19.3513 24.5 24.5 19.3513 24.5 13C24.5 6.64873 19.3513 1.5 13 1.5C6.64873 1.5 1.5 6.64873 1.5 13C1.5 19.3513 6.64873 24.5 13 24.5ZM13 25.5C19.9036 25.5 25.5 19.9036 25.5 13C25.5 6.09644 19.9036 0.5 13 0.5C6.09644 0.5 0.5 6.09644 0.5 13C0.5 19.9036 6.09644 25.5 13 25.5Z" fill="currentColor"/></svg>