<svg width="20" height="20" viewBox="0 0 20 20" fill="none" xmlns="http://www.w3.org/2000/svg"><path fill-rule="evenodd" clip-rule="evenodd" d="M11.3465 5.61588C11.5587 5.4391 11.874 5.46776 12.0507 5.6799L15.3841 9.6799C15.5608 9.89203 15.5322 10.2073 15.32 10.3841C15.1079 10.5609 14.7926 10.5322 14.6158 10.3201L11.2825 6.32008C11.1057 6.10794 11.1344 5.79266 11.3465 5.61588Z" fill="currentColor"/><path fill-rule="evenodd" clip-rule="evenodd" d="M11.3465 14.3841C11.1344 14.2073 11.1057 13.892 11.2825 13.6799L14.6158 9.6799C14.7926 9.46776 15.1079 9.4391 15.32 9.61588C15.5322 9.79266 15.5608 10.1079 15.3841 10.3201L12.0507 14.3201C11.874 14.5322 11.5587 14.5609 11.3465 14.3841Z" fill="currentColor"/><path fill-rule="evenodd" clip-rule="evenodd" d="M15.5 10C15.5 10.2761 15.2761 10.5 15 10.5L5 10.5C4.72386 10.5 4.5 10.2761 4.5 10C4.5 9.72386 4.72386 9.5 5 9.5L15 9.5C15.2761 9.5 15.5 9.72386 15.5 10Z" fill="currentColor"/><path d="M1.15063 1.87794C0.94979 1.6771 0.94979 1.35147 1.15063 1.15063C1.35147 0.949789 1.6771 0.949789 1.87794 1.15063L18.8494 18.1221C19.0502 18.3229 19.0502 18.6485 18.8494 18.8494C18.6485 19.0502 18.3229 19.0502 18.1221 18.8494L1.15063 1.87794Z" fill="currentColor"/></svg>