<svg width="20" height="20" viewBox="0 0 26 26" fill="none" xmlns="http://www.w3.org/2000/svg"><defs><mask id="mask-pencil-arrow-left-circle-filled"><rect width="26" height="26" fill="white"/><g transform="translate(3, 3)"><path fill-rule="evenodd" clip-rule="evenodd" d="M8.65342 14.3841C8.44128 14.5609 8.126 14.5322 7.94922 14.3201L4.61589 10.3201C4.43911 10.108 4.46777 9.79268 4.67991 9.6159C4.89204 9.43912 5.20733 9.46778 5.38411 9.67992L8.71744 13.6799C8.89422 13.8921 8.86556 14.2073 8.65342 14.3841Z" fill="black"/><path fill-rule="evenodd" clip-rule="evenodd" d="M8.65342 5.6159C8.86556 5.79268 8.89422 6.10797 8.71744 6.3201L5.38411 10.3201C5.20733 10.5322 4.89204 10.5609 4.67991 10.3841C4.46777 10.2073 4.43911 9.89206 4.61589 9.67992L7.94922 5.67992C8.126 5.46778 8.44128 5.43912 8.65342 5.6159Z" fill="black"/><path fill-rule="evenodd" clip-rule="evenodd" d="M4.99995 10C4.99995 9.72386 5.22381 9.5 5.49995 9.5L15 9.5C15.2761 9.5 15.5 9.72386 15.5 10C15.5 10.2761 15.2761 10.5 15 10.5L5.49995 10.5C5.22381 10.5 4.99995 10.2761 4.99995 10Z" fill="black"/></g></mask></defs><circle r="13" cx="13" cy="13" mask="url(#mask-pencil-arrow-left-circle-filled)" fill="currentColor"/></svg>