<svg width="20" height="20" viewBox="0 0 20 20" fill="none" xmlns="http://www.w3.org/2000/svg"><g><path fill-rule="evenodd" clip-rule="evenodd" d="M5.94774 12.145C5.67274 12.12 5.47007 11.8768 5.49507 11.6018L5.96647 6.41631C5.99147 6.1413 6.23468 5.93863 6.50969 5.96363C6.78469 5.98864 6.98736 6.23184 6.96236 6.50685L6.49096 11.6923C6.46596 11.9673 6.22275 12.17 5.94774 12.145Z" fill="currentColor"/><path fill-rule="evenodd" clip-rule="evenodd" d="M12.1478 5.94497C12.1728 6.21997 11.9701 6.46318 11.6951 6.48818L6.50969 6.95959C6.23468 6.98459 5.99148 6.78192 5.96647 6.50691C5.94147 6.2319 6.14414 5.98869 6.41915 5.96369L11.6046 5.49229C11.8796 5.46729 12.1228 5.66996 12.1478 5.94497Z" fill="currentColor"/><path fill-rule="evenodd" clip-rule="evenodd" d="M6.64651 6.64346C6.84178 6.44821 7.15836 6.44821 7.35362 6.64348L13.889 13.1791C14.0843 13.3744 14.0843 13.691 13.889 13.8862C13.6937 14.0815 13.3772 14.0815 13.1819 13.8862L6.6465 7.35057C6.45124 7.1553 6.45125 6.83872 6.64651 6.64346Z" fill="currentColor"/></g><path d="M1.15063 1.87794C0.94979 1.6771 0.94979 1.35147 1.15063 1.15063C1.35147 0.949789 1.6771 0.949789 1.87794 1.15063L18.8494 18.1221C19.0502 18.3229 19.0502 18.6485 18.8494 18.8494C18.6485 19.0502 18.3229 19.0502 18.1221 18.8494L1.15063 1.87794Z" fill="currentColor"/></svg>