<svg width="20" height="20" viewBox="0 0 26 26" fill="none" xmlns="http://www.w3.org/2000/svg"><g transform="translate(3, 3)"><g><path fill-rule="evenodd" clip-rule="evenodd" d="M14.0521 7.85222C14.3271 7.87722 14.5298 8.12042 14.5048 8.39543L14.0334 13.5809C14.0084 13.8559 13.7652 14.0586 13.4902 14.0336C13.2152 14.0086 13.0125 13.7654 13.0375 13.4903L13.5089 8.30489C13.5339 8.02989 13.7771 7.82721 14.0521 7.85222Z" fill="currentColor"/><path fill-rule="evenodd" clip-rule="evenodd" d="M7.85203 14.0522C7.82703 13.7772 8.0297 13.534 8.30471 13.509L13.4902 13.0376C13.7652 13.0126 14.0084 13.2153 14.0334 13.4903C14.0584 13.7653 13.8557 14.0085 13.5807 14.0335L8.39525 14.5049C8.12024 14.5299 7.87703 14.3272 7.85203 14.0522Z" fill="currentColor"/><path fill-rule="evenodd" clip-rule="evenodd" d="M13.3535 13.3536C13.1582 13.5489 12.8416 13.5489 12.6464 13.3536L6.11084 6.81808C5.91558 6.62282 5.91558 6.30624 6.11084 6.11098C6.3061 5.91571 6.62268 5.91572 6.81795 6.11098L13.3535 12.6465C13.5487 12.8418 13.5487 13.1583 13.3535 13.3536Z" fill="currentColor"/></g></g><path fill-rule="evenodd" clip-rule="evenodd" d="M13 24.5C19.3513 24.5 24.5 19.3513 24.5 13C24.5 6.64873 19.3513 1.5 13 1.5C6.64873 1.5 1.5 6.64873 1.5 13C1.5 19.3513 6.64873 24.5 13 24.5ZM13 25.5C19.9036 25.5 25.5 19.9036 25.5 13C25.5 6.09644 19.9036 0.5 13 0.5C6.09644 0.5 0.5 6.09644 0.5 13C0.5 19.9036 6.09644 25.5 13 25.5Z" fill="currentColor"/></svg>