<svg width="20" height="20" viewBox="0 0 26 26" fill="none" xmlns="http://www.w3.org/2000/svg"><defs><mask id="mask-pencil-arrow-spin-circle-filled"><rect width="26" height="26" fill="white"/><g transform="translate(3, 3)"><path d="M13.3745 5.0382C13.6027 5.19368 13.6616 5.50473 13.5062 5.73294C13.3507 5.96115 13.0396 6.02011 12.8114 5.86463C11.9888 5.30418 11.0178 5 10 5C7.23858 5 5 7.23858 5 10C5 12.7614 7.23858 15 10 15C12.7614 15 15 12.7614 15 10C15 9.72386 15.2239 9.5 15.5 9.5C15.7761 9.5 16 9.72386 16 10C16 13.3137 13.3137 16 10 16C6.68629 16 4 13.3137 4 10C4 6.68629 6.68629 4 10 4C11.2202 4 12.3871 4.36553 13.3745 5.0382Z" fill="black"/><path d="M12.769 11.5851C12.5364 11.7339 12.2272 11.6659 12.0784 11.4333C11.9296 11.2006 11.9976 10.8914 12.2302 10.7426L15.712 8.51555C15.9447 8.36676 16.2539 8.43472 16.4026 8.66734C16.5514 8.89997 16.4835 9.20917 16.2509 9.35796L12.769 11.5851Z" fill="black"/><path d="M17.9468 12.1141C18.0593 12.3663 17.946 12.6619 17.6939 12.7744C17.4417 12.8869 17.146 12.7737 17.0335 12.5215L15.5254 9.14069C15.4129 8.8885 15.5261 8.59286 15.7783 8.48036C16.0305 8.36786 16.3261 8.4811 16.4386 8.73329L17.9468 12.1141Z" fill="black"/></g></mask></defs><circle r="13" cx="13" cy="13" mask="url(#mask-pencil-arrow-spin-circle-filled)" fill="currentColor"/></svg>