<svg width="20" height="20" viewBox="0 0 20 20" fill="none" xmlns="http://www.w3.org/2000/svg"><path fill-rule="evenodd" clip-rule="evenodd" d="M14.3841 11.3465C14.5609 11.5587 14.5322 11.874 14.3201 12.0507L10.3201 15.3841C10.108 15.5609 9.79267 15.5322 9.61589 15.3201C9.4391 15.1079 9.46777 14.7926 9.67991 14.6159L13.6799 11.2825C13.892 11.1057 14.2073 11.1344 14.3841 11.3465Z" fill="currentColor"/><path fill-rule="evenodd" clip-rule="evenodd" d="M5.61589 11.3465C5.79267 11.1344 6.10795 11.1057 6.32009 11.2825L10.3201 14.6159C10.5322 14.7926 10.5609 15.1079 10.3841 15.3201C10.2073 15.5322 9.89204 15.5609 9.67991 15.3841L5.67991 12.0507C5.46777 11.874 5.4391 11.5587 5.61589 11.3465Z" fill="currentColor"/><path fill-rule="evenodd" clip-rule="evenodd" d="M10 15C9.72386 15 9.5 14.7761 9.5 14.5V5C9.5 4.72386 9.72386 4.5 10 4.5C10.2761 4.5 10.5 4.72386 10.5 5V14.5C10.5 14.7761 10.2761 15 10 15Z" fill="currentColor"/></svg>