<svg width="20" height="20" viewBox="0 0 26 26" fill="none" xmlns="http://www.w3.org/2000/svg"><g transform="translate(3, 3)"><g><path fill-rule="evenodd" clip-rule="evenodd" d="M7.85206 5.9519C7.87706 5.67689 8.12027 5.47422 8.39528 5.49922L13.5807 5.97062C13.8557 5.99562 14.0584 6.23883 14.0334 6.51384C14.0084 6.78884 13.7652 6.99152 13.4902 6.96651L8.30474 6.49511C8.02973 6.47011 7.82706 6.2269 7.85206 5.9519Z" fill="currentColor"/><path fill-rule="evenodd" clip-rule="evenodd" d="M14.0521 12.1519C13.7771 12.1769 13.5339 11.9742 13.5089 11.6992L13.0375 6.51378C13.0125 6.23877 13.2152 5.99556 13.4902 5.97056C13.7652 5.94556 14.0084 6.14823 14.0334 6.42324L14.5048 11.6087C14.5298 11.8837 14.3271 12.1269 14.0521 12.1519Z" fill="currentColor"/><path fill-rule="evenodd" clip-rule="evenodd" d="M13.3535 6.65047C13.5488 6.84574 13.5488 7.16232 13.3535 7.35758L6.81796 13.8932C6.6227 14.0884 6.30612 14.0884 6.11085 13.8932C5.91559 13.6979 5.91559 13.3813 6.11085 13.1861L12.6464 6.65047C12.8417 6.45521 13.1583 6.45521 13.3535 6.65047Z" fill="currentColor"/></g><path d="M1.15063 1.87794C0.94979 1.6771 0.94979 1.35147 1.15063 1.15063C1.35147 0.949789 1.6771 0.949789 1.87794 1.15063L18.8494 18.1221C19.0502 18.3229 19.0502 18.6485 18.8494 18.8494C18.6485 19.0502 18.3229 19.0502 18.1221 18.8494L1.15063 1.87794Z" fill="currentColor"/></g><path fill-rule="evenodd" clip-rule="evenodd" d="M13 24.5C19.3513 24.5 24.5 19.3513 24.5 13C24.5 6.64873 19.3513 1.5 13 1.5C6.64873 1.5 1.5 6.64873 1.5 13C1.5 19.3513 6.64873 24.5 13 24.5ZM13 25.5C19.9036 25.5 25.5 19.9036 25.5 13C25.5 6.09644 19.9036 0.5 13 0.5C6.09644 0.5 0.5 6.09644 0.5 13C0.5 19.9036 6.09644 25.5 13 25.5Z" fill="currentColor"/></svg>