<svg width="20" height="20" viewBox="0 0 20 20" fill="none" xmlns="http://www.w3.org/2000/svg"><g><path fill-rule="evenodd" clip-rule="evenodd" d="M12.1479 14.0523C12.1229 14.3273 11.8797 14.5299 11.6047 14.5049L6.41927 14.0335C6.14427 14.0085 5.94159 13.7653 5.96659 13.4903C5.9916 13.2153 6.2348 13.0126 6.50981 13.0376L11.6953 13.509C11.9703 13.534 12.1729 13.7772 12.1479 14.0523Z" fill="currentColor"/><path fill-rule="evenodd" clip-rule="evenodd" d="M5.94787 7.85224C6.22287 7.82724 6.46608 8.02991 6.49108 8.30492L6.96248 13.4904C6.98749 13.7654 6.78481 14.0086 6.50981 14.0336C6.2348 14.0586 5.99159 13.8559 5.96659 13.5809L5.49519 8.39546C5.47019 8.12045 5.67286 7.87725 5.94787 7.85224Z" fill="currentColor"/><path fill-rule="evenodd" clip-rule="evenodd" d="M6.64639 13.3535C6.45113 13.1583 6.45114 12.8417 6.64641 12.6464L13.182 6.11105C13.3773 5.91579 13.6939 5.91579 13.8892 6.11106C14.0844 6.30632 14.0844 6.62291 13.8891 6.81817L7.3535 13.3536C7.15823 13.5488 6.84165 13.5488 6.64639 13.3535Z" fill="currentColor"/></g><path d="M1.15063 1.87794C0.94979 1.6771 0.94979 1.35147 1.15063 1.15063C1.35147 0.949789 1.6771 0.949789 1.87794 1.15063L18.8494 18.1221C19.0502 18.3229 19.0502 18.6485 18.8494 18.8494C18.6485 19.0502 18.3229 19.0502 18.1221 18.8494L1.15063 1.87794Z" fill="currentColor"/></svg>