<svg width="20" height="20" viewBox="0 0 20 20" fill="none" xmlns="http://www.w3.org/2000/svg"><path fill-rule="evenodd" clip-rule="evenodd" d="M10 2.68179L3.93782 6.49997H16.0622L10 2.68179ZM10.2665 1.6678C10.1036 1.56524 9.89637 1.56524 9.73353 1.6678L1.9393 6.5769C1.51501 6.84413 1.70433 7.49997 2.20577 7.49997H17.7942C18.2957 7.49997 18.485 6.84413 18.0607 6.5769L10.2665 1.6678Z" fill="currentColor"/><path fill-rule="evenodd" clip-rule="evenodd" d="M2 17C2 16.7239 2.22386 16.5 2.5 16.5H17.5C17.7761 16.5 18 16.7239 18 17C18 17.2761 17.7761 17.5 17.5 17.5H2.5C2.22386 17.5 2 17.2761 2 17Z" fill="currentColor"/><path fill-rule="evenodd" clip-rule="evenodd" d="M3.5 8.5C3.77614 8.5 4 8.72386 4 9V15C4 15.2761 3.77614 15.5 3.5 15.5C3.22386 15.5 3 15.2761 3 15L3 9C3 8.72386 3.22386 8.5 3.5 8.5Z" fill="currentColor"/><path fill-rule="evenodd" clip-rule="evenodd" d="M6.5 8.5C6.77614 8.5 7 8.72386 7 9V15C7 15.2761 6.77614 15.5 6.5 15.5C6.22386 15.5 6 15.2761 6 15V9C6 8.72386 6.22386 8.5 6.5 8.5Z" fill="currentColor"/><path fill-rule="evenodd" clip-rule="evenodd" d="M9.5 8.5C9.77614 8.5 10 8.72386 10 9V15C10 15.2761 9.77614 15.5 9.5 15.5C9.22386 15.5 9 15.2761 9 15V9C9 8.72386 9.22386 8.5 9.5 8.5Z" fill="currentColor"/><path fill-rule="evenodd" clip-rule="evenodd" d="M12.5 8.5C12.7761 8.5 13 8.72386 13 9V15C13 15.2761 12.7761 15.5 12.5 15.5C12.2239 15.5 12 15.2761 12 15V9C12 8.72386 12.2239 8.5 12.5 8.5Z" fill="currentColor"/><path fill-rule="evenodd" clip-rule="evenodd" d="M15.5 8.5C15.7761 8.5 16 8.72386 16 9V15C16 15.2761 15.7761 15.5 15.5 15.5C15.2239 15.5 15 15.2761 15 15V9C15 8.72386 15.2239 8.5 15.5 8.5Z" fill="currentColor"/><path d="M1.15063 1.87794C0.94979 1.6771 0.94979 1.35147 1.15063 1.15063C1.35147 0.949789 1.6771 0.949789 1.87794 1.15063L18.8494 18.1221C19.0502 18.3229 19.0502 18.6485 18.8494 18.8494C18.6485 19.0502 18.3229 19.0502 18.1221 18.8494L1.15063 1.87794Z" fill="currentColor"/></svg>