<svg width="20" height="20" viewBox="0 0 20 20" fill="none" xmlns="http://www.w3.org/2000/svg"><path d="M8 17C8 16.7239 8.22386 16.5 8.5 16.5C8.77614 16.5 9 16.7239 9 17C9 17.5523 9.44772 18 10 18C10.5523 18 11 17.5523 11 17C11 16.7239 11.2239 16.5 11.5 16.5C11.7761 16.5 12 16.7239 12 17C12 18.1046 11.1046 19 10 19C8.89543 19 8 18.1046 8 17Z" fill="currentColor"/><path fill-rule="evenodd" clip-rule="evenodd" d="M17.5 14.5C17.5 13.4279 16.9211 12.4472 16 11.9254V9C16 5.96243 13.5376 3.5 10.5 3.5H9.5C6.46243 3.5 4 5.96243 4 9V11.9254C3.0789 12.4472 2.5 13.4279 2.5 14.5C2.5 15.6046 3.39543 16.5 4.5 16.5H15.5C16.6046 16.5 17.5 15.6046 17.5 14.5ZM15 12.5583L15.2952 12.6908L15.35 12.7155C16.0502 13.0332 16.5 13.7311 16.5 14.5C16.5 15.0523 16.0523 15.5 15.5 15.5H4.5C3.94772 15.5 3.5 15.0523 3.5 14.5C3.5 13.7311 3.94976 13.0332 4.65004 12.7155L4.7048 12.6908L5 12.5583V9C5 6.51472 7.01472 4.5 9.5 4.5H10.5C12.9853 4.5 15 6.51472 15 9V12.5583Z" fill="currentColor"/><path d="M9.5 1.5C9.5 1.22386 9.72386 1 10 1C10.2761 1 10.5 1.22386 10.5 1.5L10.5 4C10.5 4.27614 10.2761 4.5 10 4.5C9.72386 4.5 9.5 4.27614 9.5 4L9.5 1.5Z" fill="currentColor"/></svg>