<svg width="20" height="20" viewBox="0 0 20 20" fill="none" xmlns="http://www.w3.org/2000/svg"><path fill-rule="evenodd" clip-rule="evenodd" d="M4.5 3C4.5 2.72386 4.72386 2.5 5 2.5H15C15.2761 2.5 15.5 2.72386 15.5 3V17C15.5 17.2025 15.3778 17.3851 15.1906 17.4623C15.0033 17.5395 14.788 17.4961 14.6453 17.3524L10 12.6764L5.35472 17.3524C5.21198 17.4961 4.99666 17.5395 4.80942 17.4623C4.62218 17.3851 4.5 17.2025 4.5 17V3ZM5.5 3.5V15.7872L9.64528 11.6146C9.73915 11.5201 9.86682 11.467 10 11.467C10.1332 11.467 10.2609 11.5201 10.3547 11.6146L14.5 15.7872V3.5H5.5Z" fill="currentColor"/></svg>