<svg width="20" height="20" viewBox="0 0 20 20" fill="none" xmlns="http://www.w3.org/2000/svg"><path d="M10 13.4673L6.24548 17.6665C5.63355 18.3509 4.5 17.9181 4.5 17V3C4.5 2.44772 4.94772 2 5.5 2H14.5C15.0523 2 15.5 2.44772 15.5 3V17C15.5 17.9181 14.3665 18.3509 13.7545 17.6665L10 13.4673Z" fill="currentColor"/><path d="M1.15063 1.87794C0.94979 1.6771 0.94979 1.35147 1.15063 1.15063C1.35147 0.949789 1.6771 0.949789 1.87794 1.15063L18.8494 18.1221C19.0502 18.3229 19.0502 18.6485 18.8494 18.8494C18.6485 19.0502 18.3229 19.0502 18.1221 18.8494L1.15063 1.87794Z" fill="currentColor"/></svg>