<svg width="20" height="20" viewBox="0 0 20 20" fill="none" xmlns="http://www.w3.org/2000/svg"><g><path fill-rule="evenodd" clip-rule="evenodd" d="M3 11.5V15C3 15.8284 3.67157 16.5 4.5 16.5H15.5C16.3284 16.5 17 15.8284 17 15V11.5H18V15C18 16.3807 16.8807 17.5 15.5 17.5H4.5C3.11929 17.5 2 16.3807 2 15V11.5H3Z" fill="currentColor"/><path fill-rule="evenodd" clip-rule="evenodd" d="M1.5 7C1.5 6.17157 2.17157 5.5 3 5.5H17C17.8284 5.5 18.5 6.17157 18.5 7V10C18.5 11.3807 17.3807 12.5 16 12.5H4C2.61929 12.5 1.5 11.3807 1.5 10V7ZM3 6.5C2.72386 6.5 2.5 6.72386 2.5 7V10C2.5 10.8284 3.17157 11.5 4 11.5H16C16.8284 11.5 17.5 10.8284 17.5 10V7C17.5 6.72386 17.2761 6.5 17 6.5H3Z" fill="currentColor"/><path fill-rule="evenodd" clip-rule="evenodd" d="M6.5 4.74621V6.5H5.5V4.74621C5.5 4.54181 5.52507 4.33817 5.57464 4.13987L5.6362 3.89366C5.91443 2.78074 6.91438 2 8.06155 2H11.9384C13.0856 2 14.0856 2.78074 14.3638 3.89366L14.4254 4.13987C14.4749 4.33817 14.5 4.54181 14.5 4.74621V6.5H13.5V4.74621C13.5 4.62357 13.485 4.50139 13.4552 4.38241L13.3937 4.1362C13.2267 3.46845 12.6267 3 11.9384 3L8.06155 3C7.37325 3 6.77328 3.46845 6.60634 4.1362L6.54479 4.38241C6.51504 4.50139 6.5 4.62357 6.5 4.74621Z" fill="currentColor"/><path d="M7.866 11.5C7.4811 12.1667 6.51885 12.1667 6.13395 11.5L5.26793 10C4.88302 9.33333 5.36415 8.5 6.13395 8.5H7.866C8.6358 8.5 9.11693 9.33333 8.73203 10L7.866 11.5Z" fill="currentColor"/><path fill-rule="evenodd" clip-rule="evenodd" d="M7 11C7.41421 11 7.75 11.3358 7.75 11.75V13.5C7.75 13.9142 7.41421 14.25 7 14.25C6.58579 14.25 6.25 13.9142 6.25 13.5V11.75C6.25 11.3358 6.58579 11 7 11Z" fill="currentColor"/><path d="M13.866 11.5C13.4811 12.1667 12.5189 12.1667 12.1339 11.5L11.2679 10C10.883 9.33333 11.3641 8.5 12.134 8.5H13.866C14.6358 8.5 15.1169 9.33333 14.732 10L13.866 11.5Z" fill="currentColor"/><path fill-rule="evenodd" clip-rule="evenodd" d="M13 11C13.4142 11 13.75 11.3358 13.75 11.75V13.5C13.75 13.9142 13.4142 14.25 13 14.25C12.5858 14.25 12.25 13.9142 12.25 13.5V11.75C12.25 11.3358 12.5858 11 13 11Z" fill="currentColor"/></g></svg>