<svg width="20" height="20" viewBox="0 0 26 26" fill="none" xmlns="http://www.w3.org/2000/svg"><g transform="translate(3, 3)"><path d="M2.5 18.5C2.22386 18.5 2 18.2761 2 18C2 17.7239 2.22386 17.5 2.5 17.5H18.5C18.7761 17.5 19 17.7239 19 18C19 18.2761 18.7761 18.5 18.5 18.5H2.5Z" fill="currentColor"/><path d="M6.5 17.5C6.5 17.7761 6.27614 18 6 18C5.72386 18 5.5 17.7761 5.5 17.5V4.80769C5.5 3.27168 6.60212 2 8 2H13C14.3979 2 15.5 3.27168 15.5 4.80769V17.5C15.5 17.7761 15.2761 18 15 18C14.7239 18 14.5 17.7761 14.5 17.5V4.80769C14.5 3.7947 13.8113 3 13 3H8C7.18874 3 6.5 3.7947 6.5 4.80769V17.5Z" fill="currentColor"/><path d="M8.5 4.5H9.5C9.77614 4.5 10 4.72386 10 5V6C10 6.27614 9.77614 6.5 9.5 6.5H8.5C8.22386 6.5 8 6.27614 8 6V5C8 4.72386 8.22386 4.5 8.5 4.5Z" fill="currentColor"/><path d="M11.5 4.5H12.5C12.7761 4.5 13 4.72386 13 5V6C13 6.27614 12.7761 6.5 12.5 6.5H11.5C11.2239 6.5 11 6.27614 11 6V5C11 4.72386 11.2239 4.5 11.5 4.5Z" fill="currentColor"/><path d="M11.5 7.5H12.5C12.7761 7.5 13 7.72386 13 8V9C13 9.27614 12.7761 9.5 12.5 9.5H11.5C11.2239 9.5 11 9.27614 11 9V8C11 7.72386 11.2239 7.5 11.5 7.5Z" fill="currentColor"/><path d="M11.5 10.5H12.5C12.7761 10.5 13 10.7239 13 11V12C13 12.2761 12.7761 12.5 12.5 12.5H11.5C11.2239 12.5 11 12.2761 11 12V11C11 10.7239 11.2239 10.5 11.5 10.5Z" fill="currentColor"/><path d="M11.5 13.5H12.5C12.7761 13.5 13 13.7239 13 14V15C13 15.2761 12.7761 15.5 12.5 15.5H11.5C11.2239 15.5 11 15.2761 11 15V14C11 13.7239 11.2239 13.5 11.5 13.5Z" fill="currentColor"/><path d="M8.5 7.5H9.5C9.77614 7.5 10 7.72386 10 8V9C10 9.27614 9.77614 9.5 9.5 9.5H8.5C8.22386 9.5 8 9.27614 8 9V8C8 7.72386 8.22386 7.5 8.5 7.5Z" fill="currentColor"/><path d="M8.5 13.5H9.5C9.77614 13.5 10 13.7239 10 14V15C10 15.2761 9.77614 15.5 9.5 15.5H8.5C8.22386 15.5 8 15.2761 8 15V14C8 13.7239 8.22386 13.5 8.5 13.5Z" fill="currentColor"/><path d="M8.5 10.5H9.5C9.77614 10.5 10 10.7239 10 11V12C10 12.2761 9.77614 12.5 9.5 12.5H8.5C8.22386 12.5 8 12.2761 8 12V11C8 10.7239 8.22386 10.5 8.5 10.5Z" fill="currentColor"/><path d="M1.15063 1.87794C0.94979 1.6771 0.94979 1.35147 1.15063 1.15063C1.35147 0.949789 1.6771 0.949789 1.87794 1.15063L18.8494 18.1221C19.0502 18.3229 19.0502 18.6485 18.8494 18.8494C18.6485 19.0502 18.3229 19.0502 18.1221 18.8494L1.15063 1.87794Z" fill="currentColor"/></g><path fill-rule="evenodd" clip-rule="evenodd" d="M13 24.5C19.3513 24.5 24.5 19.3513 24.5 13C24.5 6.64873 19.3513 1.5 13 1.5C6.64873 1.5 1.5 6.64873 1.5 13C1.5 19.3513 6.64873 24.5 13 24.5ZM13 25.5C19.9036 25.5 25.5 19.9036 25.5 13C25.5 6.09644 19.9036 0.5 13 0.5C6.09644 0.5 0.5 6.09644 0.5 13C0.5 19.9036 6.09644 25.5 13 25.5Z" fill="currentColor"/></svg>