<svg width="20" height="20" viewBox="0 0 26 26" fill="none" xmlns="http://www.w3.org/2000/svg"><g transform="translate(3, 3)"><g><path fill-rule="evenodd" clip-rule="evenodd" d="M18 6.9231H2V17.9231H18V6.9231ZM2 5.9231C1.44772 5.9231 1 6.37081 1 6.9231V17.9231C1 18.4754 1.44772 18.9231 2 18.9231H18C18.5523 18.9231 19 18.4754 19 17.9231V6.9231C19 6.37081 18.5523 5.9231 18 5.9231H2Z" fill="currentColor"/><path fill-rule="evenodd" clip-rule="evenodd" d="M6 9.4231C6 9.14695 6.22386 8.9231 6.5 8.9231H13.5C13.7761 8.9231 14 9.14695 14 9.4231C14 9.69924 13.7761 9.9231 13.5 9.9231H6.5C6.22386 9.9231 6 9.69924 6 9.4231Z" fill="currentColor"/><path fill-rule="evenodd" clip-rule="evenodd" d="M5 12.4231C5 12.147 5.22386 11.9231 5.5 11.9231H14.5C14.7761 11.9231 15 12.147 15 12.4231C15 12.6992 14.7761 12.9231 14.5 12.9231H5.5C5.22386 12.9231 5 12.6992 5 12.4231Z" fill="currentColor"/><path fill-rule="evenodd" clip-rule="evenodd" d="M6 15.4231C6 15.147 6.22386 14.9231 6.5 14.9231H13.5C13.7761 14.9231 14 15.147 14 15.4231C14 15.6992 13.7761 15.9231 13.5 15.9231H6.5C6.22386 15.9231 6 15.6992 6 15.4231Z" fill="currentColor"/><path fill-rule="evenodd" clip-rule="evenodd" d="M11.7678 2.39794C10.7914 1.42163 9.20854 1.42163 8.23223 2.39794L4.35353 6.27661C4.15827 6.47187 3.84168 6.47187 3.64642 6.2766C3.45116 6.08134 3.45116 5.76476 3.64643 5.5695L7.52512 1.69083C8.89196 0.324001 11.108 0.324004 12.4749 1.69083L16.3535 5.5695C16.5488 5.76476 16.5488 6.08134 16.3535 6.2766C16.1583 6.47187 15.8417 6.47187 15.6464 6.27661L11.7678 2.39794Z" fill="currentColor"/></g></g><path fill-rule="evenodd" clip-rule="evenodd" d="M13 24.5C19.3513 24.5 24.5 19.3513 24.5 13C24.5 6.64873 19.3513 1.5 13 1.5C6.64873 1.5 1.5 6.64873 1.5 13C1.5 19.3513 6.64873 24.5 13 24.5ZM13 25.5C19.9036 25.5 25.5 19.9036 25.5 13C25.5 6.09644 19.9036 0.5 13 0.5C6.09644 0.5 0.5 6.09644 0.5 13C0.5 19.9036 6.09644 25.5 13 25.5Z" fill="currentColor"/></svg>