<svg width="20" height="20" viewBox="0 0 20 20" fill="none" xmlns="http://www.w3.org/2000/svg"><path fill-rule="evenodd" clip-rule="evenodd" d="M16.5 4.5H3.5C3.22386 4.5 3 4.72386 3 5V16C3 16.2761 3.22386 16.5 3.5 16.5H16.5C16.7761 16.5 17 16.2761 17 16V5C17 4.72386 16.7761 4.5 16.5 4.5ZM4 15.5V5.5H16V15.5H4Z" fill="currentColor"/><path fill-rule="evenodd" clip-rule="evenodd" d="M16.5 4.5H3.5C3.22386 4.5 3 4.72386 3 5V8C3 8.27614 3.22386 8.5 3.5 8.5H16.5C16.7761 8.5 17 8.27614 17 8V5C17 4.72386 16.7761 4.5 16.5 4.5ZM4 7.5V5.5H16V7.5H4Z" fill="currentColor"/><path d="M5.5 5.5H6.5C6.77614 5.5 7 5.27614 7 5V4C7 3.72386 6.77614 3.5 6.5 3.5H5.5C5.22386 3.5 5 3.72386 5 4V5C5 5.27614 5.22386 5.5 5.5 5.5Z" fill="currentColor"/><path d="M13.5 5.5H14.5C14.7761 5.5 15 5.27614 15 5V4C15 3.72386 14.7761 3.5 14.5 3.5H13.5C13.2239 3.5 13 3.72386 13 4V5C13 5.27614 13.2239 5.5 13.5 5.5Z" fill="currentColor"/><path d="M6 11.5C5.44772 11.5 5 11.0523 5 10.5C5 9.94772 5.44772 9.5 6 9.5C6.55228 9.5 7 9.94772 7 10.5C7 11.0523 6.55228 11.5 6 11.5Z" fill="currentColor"/><path d="M1.15063 1.87794C0.94979 1.6771 0.94979 1.35147 1.15063 1.15063C1.35147 0.949789 1.6771 0.949789 1.87794 1.15063L18.8494 18.1221C19.0502 18.3229 19.0502 18.6485 18.8494 18.8494C18.6485 19.0502 18.3229 19.0502 18.1221 18.8494L1.15063 1.87794Z" fill="currentColor"/></svg>