<svg width="20" height="20" viewBox="0 0 20 20" fill="none" xmlns="http://www.w3.org/2000/svg"><g><path d="M12.675 15.1375C12.675 15.5103 12.3727 15.8125 12 15.8125C11.6272 15.8125 11.325 15.5103 11.325 15.1375C11.325 14.7647 11.6272 14.4625 12 14.4625C12.3727 14.4625 12.675 14.7647 12.675 15.1375Z" fill="currentColor"/><path fill-rule="evenodd" clip-rule="evenodd" d="M12 14.9625C11.9033 14.9625 11.825 15.0409 11.825 15.1375C11.825 15.2342 11.9033 15.3125 12 15.3125C12.0966 15.3125 12.175 15.2342 12.175 15.1375C12.175 15.0409 12.0966 14.9625 12 14.9625ZM10.825 15.1375C10.825 14.4886 11.351 13.9625 12 13.9625C12.6489 13.9625 13.175 14.4886 13.175 15.1375C13.175 15.7865 12.6489 16.3125 12 16.3125C11.351 16.3125 10.825 15.7865 10.825 15.1375Z" fill="currentColor"/><path fill-rule="evenodd" clip-rule="evenodd" d="M6 3.5C6 2.11929 7.11929 1 8.5 1H15.5C16.8807 1 18 2.11929 18 3.5V16.5C18 17.8807 16.8807 19 15.5 19H8C6.89543 19 6 18.1046 6 17V16C6 15.7239 6.22386 15.5 6.5 15.5C6.77614 15.5 7 15.7239 7 16V17C7 17.5523 7.44772 18 8 18H15.5C16.3284 18 17 17.3284 17 16.5V3.5C17 2.67157 16.3284 2 15.5 2H8.5C7.67157 2 7 2.67157 7 3.5V6.5C7 6.77614 6.77614 7 6.5 7C6.22386 7 6 6.77614 6 6.5V3.5Z" fill="currentColor"/><path fill-rule="evenodd" clip-rule="evenodd" d="M7.64009 8.97417C6.43425 8.10371 4.75107 8.3756 3.88062 9.58144C3.01016 10.7873 3.28204 12.4705 4.48789 13.3409C5.69373 14.2114 7.37691 13.9395 8.24736 12.7336C9.11782 11.5278 8.84594 9.84463 7.64009 8.97417ZM3.0698 8.99614C4.26351 7.3425 6.57175 6.96965 8.22539 8.16336C9.87904 9.35706 10.2519 11.6653 9.05818 13.3189C7.96373 14.8351 5.93238 15.2746 4.32764 14.4172L1.9943 17.6495C1.83268 17.8735 1.52014 17.9239 1.29624 17.7623C1.07234 17.6007 1.02186 17.2881 1.18348 17.0642L3.51682 13.8319C2.19777 12.5787 1.97534 10.5123 3.0698 8.99614Z" fill="currentColor"/></g></svg>