<svg width="20" height="20" viewBox="0 0 26 26" fill="none" xmlns="http://www.w3.org/2000/svg"><defs><mask id="mask-pencil-cellphone-eye-circle-filled"><rect width="26" height="26" fill="white"/><g transform="translate(3, 3)"><g><path d="M12.675 15.1375C12.675 15.5103 12.3727 15.8125 12 15.8125C11.6272 15.8125 11.325 15.5103 11.325 15.1375C11.325 14.7647 11.6272 14.4625 12 14.4625C12.3727 14.4625 12.675 14.7647 12.675 15.1375Z" fill="black"/><path fill-rule="evenodd" clip-rule="evenodd" d="M12 14.9625C11.9033 14.9625 11.825 15.0409 11.825 15.1375C11.825 15.2342 11.9033 15.3125 12 15.3125C12.0966 15.3125 12.175 15.2342 12.175 15.1375C12.175 15.0409 12.0966 14.9625 12 14.9625ZM10.825 15.1375C10.825 14.4886 11.351 13.9625 12 13.9625C12.6489 13.9625 13.175 14.4886 13.175 15.1375C13.175 15.7865 12.6489 16.3125 12 16.3125C11.351 16.3125 10.825 15.7865 10.825 15.1375Z" fill="black"/><path fill-rule="evenodd" clip-rule="evenodd" d="M6 3.5C6 2.11929 7.11929 1 8.5 1H15.5C16.8807 1 18 2.11929 18 3.5V16.5C18 17.8807 16.8807 19 15.5 19H8C6.89543 19 6 18.1046 6 17V15.5C6 15.2239 6.22386 15 6.5 15C6.77614 15 7 15.2239 7 15.5V17C7 17.5523 7.44772 18 8 18H15.5C16.3284 18 17 17.3284 17 16.5V3.5C17 2.67157 16.3284 2 15.5 2H8.5C7.67157 2 7 2.67157 7 3.5V6.75C7 7.02614 6.77614 7.25 6.5 7.25C6.22386 7.25 6 7.02614 6 6.75V3.5Z" fill="black"/><path fill-rule="evenodd" clip-rule="evenodd" d="M2.89253 12.795C3.51362 13.1444 4.40531 13.3762 5.41748 13.3762C6.42965 13.3762 7.32134 13.1444 7.94243 12.795C8.57918 12.4368 8.83496 12.0203 8.83496 11.6726C8.83496 11.325 8.57918 10.9084 7.94243 10.5503C7.32134 10.2009 6.42965 9.96906 5.41748 9.96906C4.40531 9.96906 3.51362 10.2009 2.89253 10.5503C2.25578 10.9084 2 11.325 2 11.6726C2 12.0203 2.25578 12.4368 2.89253 12.795ZM2.40227 13.6666C1.62118 13.2272 1 12.542 1 11.6726C1 10.8033 1.62118 10.118 2.40227 9.67868C3.19904 9.2305 4.26609 8.96906 5.41748 8.96906C6.56887 8.96906 7.63592 9.2305 8.43269 9.67868C9.21378 10.118 9.83496 10.8033 9.83496 11.6726C9.83496 12.542 9.21378 13.2272 8.43269 13.6666C7.63592 14.1148 6.56887 14.3762 5.41748 14.3762C4.26609 14.3762 3.19904 14.1148 2.40227 13.6666Z" fill="black"/><path fill-rule="evenodd" clip-rule="evenodd" d="M5.41748 7.5C5.69362 7.5 5.91748 7.72386 5.91748 8L5.91748 9.46906C5.91748 9.7452 5.69362 9.96906 5.41748 9.96906C5.14134 9.96906 4.91748 9.7452 4.91748 9.46906L4.91748 8C4.91748 7.72386 5.14134 7.5 5.41748 7.5Z" fill="black"/><path fill-rule="evenodd" clip-rule="evenodd" d="M7.47422 7.75456C7.745 7.80871 7.92061 8.07213 7.86645 8.34291L7.62161 9.56712C7.56746 9.8379 7.30404 10.0135 7.03326 9.95935C6.76248 9.90519 6.58688 9.64178 6.64103 9.371L6.88587 8.14679C6.94003 7.87601 7.20344 7.7004 7.47422 7.75456Z" fill="black"/><path fill-rule="evenodd" clip-rule="evenodd" d="M3.36062 7.75456C3.08984 7.80871 2.91423 8.07213 2.96838 8.34291L3.21323 9.56712C3.26738 9.8379 3.5308 10.0135 3.80157 9.95935C4.07235 9.90519 4.24796 9.64178 4.19381 9.371L3.94896 8.14679C3.89481 7.87601 3.6314 7.7004 3.36062 7.75456Z" fill="black"/><path fill-rule="evenodd" clip-rule="evenodd" d="M1.24265 8.5507C1.00586 8.69277 0.929073 8.9999 1.07115 9.23669L1.80568 10.4609C1.94775 10.6977 2.25488 10.7745 2.49167 10.6324C2.72846 10.4903 2.80524 10.1832 2.66317 9.94641L1.92864 8.7222C1.78657 8.48541 1.47944 8.40863 1.24265 8.5507Z" fill="black"/><path fill-rule="evenodd" clip-rule="evenodd" d="M9.59207 8.55058C9.82886 8.69265 9.90564 8.99978 9.76357 9.23657L9.02904 10.4608C8.88697 10.6976 8.57984 10.7744 8.34305 10.6323C8.10626 10.4902 8.02947 10.1831 8.17155 9.94629L8.90608 8.72208C9.04815 8.48529 9.35528 8.4085 9.59207 8.55058Z" fill="black"/><path d="M5.42004 10.4C6.1104 10.4 6.67004 10.9597 6.67004 11.65C6.67004 12.3404 6.1104 12.9 5.42004 12.9C4.72969 12.9 4.17004 12.3404 4.17004 11.65C4.17004 10.9597 4.72969 10.4 5.42004 10.4Z" fill="black"/><path fill-rule="evenodd" clip-rule="evenodd" d="M4.67004 11.65C4.67004 12.0642 5.00583 12.4 5.42004 12.4C5.83426 12.4 6.17004 12.0642 6.17004 11.65C6.17004 11.2358 5.83426 10.9 5.42004 10.9C5.00583 10.9 4.67004 11.2358 4.67004 11.65ZM5.42004 13.4C4.45355 13.4 3.67004 12.6165 3.67004 11.65C3.67004 10.6835 4.45355 9.90002 5.42004 9.90002C6.38654 9.90002 7.17004 10.6835 7.17004 11.65C7.17004 12.6165 6.38654 13.4 5.42004 13.4Z" fill="black"/></g></g></mask></defs><circle r="13" cx="13" cy="13" mask="url(#mask-pencil-cellphone-eye-circle-filled)" fill="currentColor"/></svg>