<svg width="20" height="20" viewBox="0 0 26 26" fill="none" xmlns="http://www.w3.org/2000/svg"><g transform="translate(3, 3)"><g><path fill-rule="evenodd" clip-rule="evenodd" d="M10.3463 11.9022C8.95734 10.9988 8.56366 9.14059 9.46698 7.75164L11.6478 4.39842C12.5511 3.00947 14.4094 2.61579 15.7983 3.51911C17.1873 4.42244 17.5809 6.28069 16.6776 7.66963L14.4968 11.0229C13.5935 12.4118 11.7352 12.8055 10.3463 11.9022ZM9.03681 12.0954C7.82795 10.7827 7.61101 8.7712 8.62868 7.20644L10.8095 3.85322C12.0139 2.00129 14.4916 1.47638 16.3435 2.68081C18.1954 3.88524 18.7203 6.36291 17.5159 8.21484L15.3351 11.5681C14.1307 13.42 11.653 13.9449 9.80108 12.7405C9.51392 12.5537 9.25866 12.3363 9.03681 12.0954Z" fill="currentColor"/><path fill-rule="evenodd" clip-rule="evenodd" d="M5.39841 15.8415C4.00946 14.9382 3.61578 13.0799 4.5191 11.691L6.69991 8.33775C7.60324 6.9488 9.46149 6.55512 10.8504 7.45845C12.2394 8.36177 12.6331 10.22 11.7297 11.609L9.54893 14.9622C8.64561 16.3511 6.78736 16.7448 5.39841 15.8415ZM4.08894 16.0347C2.88007 14.722 2.66313 12.7105 3.6808 11.1458L5.86161 7.79255C7.06604 5.94062 9.54371 5.41571 11.3956 6.62014C13.2476 7.82457 13.7725 10.3022 12.568 12.1542L10.3872 15.5074C9.18281 17.3593 6.70514 17.8842 4.85321 16.6798C4.56604 16.493 4.31078 16.2756 4.08894 16.0347Z" fill="currentColor"/></g><path d="M1.15063 1.87794C0.94979 1.6771 0.94979 1.35147 1.15063 1.15063C1.35147 0.949789 1.6771 0.949789 1.87794 1.15063L18.8494 18.1221C19.0502 18.3229 19.0502 18.6485 18.8494 18.8494C18.6485 19.0502 18.3229 19.0502 18.1221 18.8494L1.15063 1.87794Z" fill="currentColor"/></g><path fill-rule="evenodd" clip-rule="evenodd" d="M13 24.5C19.3513 24.5 24.5 19.3513 24.5 13C24.5 6.64873 19.3513 1.5 13 1.5C6.64873 1.5 1.5 6.64873 1.5 13C1.5 19.3513 6.64873 24.5 13 24.5ZM13 25.5C19.9036 25.5 25.5 19.9036 25.5 13C25.5 6.09644 19.9036 0.5 13 0.5C6.09644 0.5 0.5 6.09644 0.5 13C0.5 19.9036 6.09644 25.5 13 25.5Z" fill="currentColor"/></svg>