<svg width="20" height="20" viewBox="0 0 26 26" fill="none" xmlns="http://www.w3.org/2000/svg"><g transform="translate(3, 3)"><path fill-rule="evenodd" clip-rule="evenodd" d="M12.2983 6.56362C12.5397 6.69773 12.6266 7.00213 12.4925 7.24352L9.71476 12.2435C9.58065 12.4849 9.27625 12.5719 9.03486 12.4378C8.79347 12.3037 8.70649 11.9993 8.8406 11.7579L11.6184 6.75788C11.7525 6.51649 12.0569 6.42952 12.2983 6.56362Z" fill="currentColor"/><path fill-rule="evenodd" clip-rule="evenodd" d="M6.10958 9.46611C6.28209 9.25048 6.59673 9.21552 6.81237 9.38803L9.59014 11.6102C9.80577 11.7828 9.84074 12.0974 9.66823 12.313C9.49573 12.5287 9.18108 12.5636 8.96545 12.3911L6.18767 10.1689C5.97204 9.99639 5.93708 9.68174 6.10958 9.46611Z" fill="currentColor"/><path fill-rule="evenodd" clip-rule="evenodd" d="M4.19832 4.07659C3.86621 4.40871 3.70452 4.84476 3.71305 5.28161C3.72378 5.83127 3.58347 6.41355 3.38015 6.91845C3.17683 7.42333 2.87444 7.94043 2.4856 8.32927C1.83813 8.97674 1.83813 10.0265 2.4856 10.6739C3.19679 11.3851 3.69243 12.5469 3.71308 13.5529C3.72158 13.967 3.88301 14.3755 4.19832 14.6908C4.50153 14.994 4.8906 15.1547 5.28802 15.1744C5.83795 15.2015 6.41688 15.3679 6.92456 15.5932C7.43227 15.8185 7.94393 16.136 8.33304 16.5251C8.9805 17.1726 10.0302 17.1726 10.6777 16.5251C11.0668 16.136 11.5785 15.8185 12.0862 15.5932C12.5939 15.3679 13.1728 15.2015 13.7227 15.1744C14.1201 15.1547 14.5092 14.994 14.8124 14.6908C15.1277 14.3755 15.2892 13.967 15.2977 13.5529C15.3183 12.5469 15.814 11.3851 16.5251 10.6739C17.1726 10.0265 17.1726 8.97674 16.5251 8.32927C16.1363 7.94043 15.8339 7.42333 15.6306 6.91845C15.4273 6.41355 15.287 5.83128 15.2977 5.28162C15.3062 4.84476 15.1445 4.40871 14.8124 4.07659C14.4673 3.73151 14.0097 3.57021 13.5557 3.59312C12.5599 3.64337 11.3832 3.19113 10.6777 2.4856C10.0302 1.83813 8.9805 1.83813 8.33304 2.4856C7.6275 3.19113 6.45082 3.64337 5.45504 3.59312C5.00108 3.57021 4.5434 3.73151 4.19832 4.07659ZM2.71324 5.30114C2.72805 6.05945 2.3148 7.08586 1.77849 7.62217C0.740504 8.66015 0.740504 10.3431 1.77849 11.381C2.3073 11.9099 2.69794 12.8257 2.71329 13.5734C2.72688 14.2352 2.98619 14.8929 3.49122 15.3979C3.97663 15.8833 4.60308 16.1417 5.23866 16.1731C6.03008 16.2123 7.06563 16.672 7.62593 17.2323C8.66392 18.2702 10.3468 18.2702 11.3848 17.2323C11.9451 16.672 12.9807 16.2123 13.7721 16.1731C14.4077 16.1417 15.0341 15.8833 15.5195 15.3979C16.0246 14.8929 16.2839 14.2352 16.2975 13.5734C16.3128 12.8257 16.7034 11.9099 17.2323 11.381C18.2702 10.3431 18.2702 8.66015 17.2323 7.62217C16.6959 7.08586 16.2827 6.05945 16.2975 5.30114C16.3111 4.60362 16.0518 3.90176 15.5195 3.36948C14.9662 2.8162 14.2297 2.55784 13.5053 2.59439C12.7915 2.63041 11.8902 2.28384 11.3848 1.77849C10.3468 0.740503 8.66392 0.740503 7.62593 1.77849C7.12058 2.28384 6.21921 2.63041 5.50544 2.59439C4.78102 2.55784 4.0445 2.8162 3.49122 3.36948C2.95894 3.90176 2.69962 4.60361 2.71324 5.30114Z" fill="currentColor"/></g><path fill-rule="evenodd" clip-rule="evenodd" d="M13 24.5C19.3513 24.5 24.5 19.3513 24.5 13C24.5 6.64873 19.3513 1.5 13 1.5C6.64873 1.5 1.5 6.64873 1.5 13C1.5 19.3513 6.64873 24.5 13 24.5ZM13 25.5C19.9036 25.5 25.5 19.9036 25.5 13C25.5 6.09644 19.9036 0.5 13 0.5C6.09644 0.5 0.5 6.09644 0.5 13C0.5 19.9036 6.09644 25.5 13 25.5Z" fill="currentColor"/></svg>