<svg width="20" height="20" viewBox="0 0 26 26" fill="none" xmlns="http://www.w3.org/2000/svg"><defs><mask id="mask-pencil-checkmark-filled-circle-filled"><rect width="26" height="26" fill="white"/><g transform="translate(3, 3)"><path fill-rule="evenodd" clip-rule="evenodd" d="M3.21324 5.8004C3.22805 6.55872 2.8148 7.58512 2.27849 8.12144C1.2405 9.15942 1.2405 10.8423 2.27849 11.8803C2.8073 12.4091 3.19794 13.325 3.21329 14.0727C3.22688 14.7345 3.48619 15.3922 3.99122 15.8972C4.47663 16.3826 5.10308 16.641 5.73866 16.6724C6.53008 16.7115 7.56563 17.1712 8.12593 17.7315C9.16392 18.7695 10.8468 18.7695 11.8848 17.7315C12.4451 17.1712 13.4807 16.7115 14.2721 16.6724C14.9077 16.641 15.5341 16.3826 16.0195 15.8972C16.525 15.3917 16.7843 14.7333 16.7975 14.0709C16.8123 13.3246 17.1978 12.4148 17.7256 11.887C18.7672 10.8453 18.7702 9.15943 17.7322 8.12145C17.1964 7.58567 16.7823 6.55922 16.7975 5.80166C16.8114 5.10373 16.5521 4.40134 16.0195 3.86875C15.4662 3.31547 14.7297 3.0571 14.0053 3.09366C13.2915 3.12968 12.3902 2.78311 11.8848 2.27776C10.8468 1.23977 9.16392 1.23977 8.12593 2.27776C7.62058 2.78311 6.71921 3.12968 6.00544 3.09366C5.28102 3.0571 4.5445 3.31547 3.99122 3.86875C3.45894 4.40102 3.19962 5.10288 3.21324 5.8004ZM13.0412 6.6259C13.524 6.89412 13.6979 7.50292 13.4297 7.9857L10.6619 12.9678C10.6445 13.0005 10.6252 13.0325 10.6039 13.0637C10.5372 13.1616 10.4556 13.2443 10.3638 13.3106C10.109 13.4946 9.77583 13.5515 9.4687 13.4513C9.3955 13.4275 9.32424 13.395 9.25649 13.3535C9.21313 13.327 9.17246 13.2978 9.13459 13.266L6.37534 11.0586C5.94408 10.7136 5.87416 10.0843 6.21917 9.65308C6.56418 9.22181 7.19347 9.15189 7.62473 9.4969L9.47837 10.9798L11.6814 7.01442C11.9496 6.53163 12.5584 6.35769 13.0412 6.6259Z" fill="black"/></g></mask></defs><circle r="13" cx="13" cy="13" mask="url(#mask-pencil-checkmark-filled-circle-filled)" fill="currentColor"/></svg>