<svg width="20" height="20" viewBox="0 0 26 26" fill="none" xmlns="http://www.w3.org/2000/svg"><defs><mask id="nz423gng65xxmnkfo0kio"><rect width="26" height="26" fill="white"/><g transform="translate(3, 3)"><g><path fill-rule="evenodd" clip-rule="evenodd" d="M0.768196 4.97226C0.709134 4.7025 0.879932 4.43595 1.14968 4.37688L15.8026 1.16864C16.0723 1.10958 16.3389 1.28038 16.3979 1.55013L17.0396 4.48071C17.0987 4.75046 16.9279 5.01702 16.6581 5.07608L2.00522 8.28432C1.73546 8.34338 1.46891 8.17259 1.40985 7.90283L0.768196 4.97226ZM1.852 5.2468L2.27976 7.20052L15.9558 4.20616L15.528 2.25244L1.852 5.2468Z" fill="black"/><path fill-rule="evenodd" clip-rule="evenodd" d="M9.85446 6.33781L7.25909 3.835L7.95324 3.11518L10.5486 5.61799L9.85446 6.33781Z" fill="black"/><path fill-rule="evenodd" clip-rule="evenodd" d="M5.94699 7.19334L3.35162 4.69053L4.04577 3.97071L6.64114 6.47352L5.94699 7.19334Z" fill="black"/><path fill-rule="evenodd" clip-rule="evenodd" d="M13.7619 5.48228L11.1666 2.97947L11.8607 2.25965L14.4561 4.76246L13.7619 5.48228Z" fill="black"/><path fill-rule="evenodd" clip-rule="evenodd" d="M8.98879 11.2774L10.9888 8.27736L10.1567 7.72266L8.15674 10.7227L8.98879 11.2774Z" fill="black"/><path fill-rule="evenodd" clip-rule="evenodd" d="M12.9888 11.2774L14.9888 8.27736L14.1567 7.72266L12.1567 10.7227L12.9888 11.2774Z" fill="black"/><path fill-rule="evenodd" clip-rule="evenodd" d="M4.98879 11.2774L6.98879 8.27736L6.15674 7.72266L4.15674 10.7227L4.98879 11.2774Z" fill="black"/><path fill-rule="evenodd" clip-rule="evenodd" d="M1.57275 8C1.57275 7.72386 1.79661 7.5 2.07275 7.5L17.0728 7.5C17.3489 7.5 17.5728 7.72386 17.5728 8L17.5728 17C17.5728 17.2761 17.3489 17.5 17.0728 17.5L2.07275 17.5C1.79661 17.5 1.57275 17.2761 1.57275 17L1.57275 8ZM2.57275 8.5L2.57275 16.5L16.5728 16.5L16.5728 8.5L2.57275 8.5Z" fill="black"/><path fill-rule="evenodd" clip-rule="evenodd" d="M17.5728 11.5L1.57275 11.5L1.57275 10.5L17.5728 10.5L17.5728 11.5Z" fill="black"/></g></g></mask></defs><circle r="13" cx="13" cy="13" mask="url(#nz423gng65xxmnkfo0kio)" fill="currentColor"/></svg>