<svg width="20" height="20" viewBox="0 0 20 20" fill="none" xmlns="http://www.w3.org/2000/svg"><g><path fill-rule="evenodd" clip-rule="evenodd" d="M0.76809 4.97226C0.709027 4.7025 0.879825 4.43595 1.14958 4.37688L15.8025 1.16864C16.0722 1.10958 16.3388 1.28038 16.3978 1.55013L17.0395 4.48071C17.0985 4.75046 16.9278 5.01702 16.658 5.07608L2.00511 8.28432C1.73536 8.34338 1.4688 8.17259 1.40974 7.90283L0.76809 4.97226ZM1.85189 5.2468L2.27966 7.20052L15.9557 4.20616L15.5279 2.25244L1.85189 5.2468Z" fill="currentColor"/><path fill-rule="evenodd" clip-rule="evenodd" d="M9.85438 6.33781L7.25901 3.835L7.95317 3.11518L10.5485 5.61799L9.85438 6.33781Z" fill="currentColor"/><path fill-rule="evenodd" clip-rule="evenodd" d="M5.94696 7.19334L3.35159 4.69053L4.04574 3.97071L6.64111 6.47352L5.94696 7.19334Z" fill="currentColor"/><path fill-rule="evenodd" clip-rule="evenodd" d="M13.7618 5.48228L11.1665 2.97947L11.8606 2.25965L14.456 4.76246L13.7618 5.48228Z" fill="currentColor"/><path fill-rule="evenodd" clip-rule="evenodd" d="M8.9887 11.2774L10.9887 8.27736L10.1566 7.72266L8.15665 10.7227L8.9887 11.2774Z" fill="currentColor"/><path fill-rule="evenodd" clip-rule="evenodd" d="M12.9887 11.2774L14.9887 8.27736L14.1566 7.72266L12.1566 10.7227L12.9887 11.2774Z" fill="currentColor"/><path fill-rule="evenodd" clip-rule="evenodd" d="M4.9887 11.2774L6.9887 8.27736L6.15665 7.72266L4.15665 10.7227L4.9887 11.2774Z" fill="currentColor"/><path fill-rule="evenodd" clip-rule="evenodd" d="M1.57268 8C1.57268 7.72386 1.79654 7.5 2.07268 7.5L17.0727 7.5C17.3488 7.5 17.5727 7.72386 17.5727 8L17.5727 17C17.5727 17.2761 17.3488 17.5 17.0727 17.5L2.07268 17.5C1.79654 17.5 1.57268 17.2761 1.57268 17L1.57268 8ZM2.57268 8.5L2.57268 16.5L16.5727 16.5L16.5727 8.5L2.57268 8.5Z" fill="currentColor"/><path fill-rule="evenodd" clip-rule="evenodd" d="M17.5727 11.5L1.57268 11.5L1.57268 10.5L17.5727 10.5L17.5727 11.5Z" fill="currentColor"/></g><path d="M1.15063 1.87794C0.94979 1.6771 0.94979 1.35147 1.15063 1.15063C1.35147 0.949789 1.6771 0.949789 1.87794 1.15063L18.8494 18.1221C19.0502 18.3229 19.0502 18.6485 18.8494 18.8494C18.6485 19.0502 18.3229 19.0502 18.1221 18.8494L1.15063 1.87794Z" fill="currentColor"/></svg>