<svg width="20" height="20" viewBox="0 0 20 20" fill="none" xmlns="http://www.w3.org/2000/svg"><path fill-rule="evenodd" clip-rule="evenodd" d="M6.17499 2.5C6.17499 2.22386 6.39885 2 6.67499 2H13.3178C13.594 2 13.8178 2.22386 13.8178 2.5V6.375C13.8178 6.65114 13.594 6.875 13.3178 6.875H6.67499C6.39885 6.875 6.17499 6.65114 6.17499 6.375V2.5ZM7.17499 3V5.875H12.8178V3H7.17499Z" fill="currentColor"/><path d="M4.5 5L4.5 17H15.5V5H13.5V4H15.5C16.0523 4 16.5 4.44772 16.5 5V17C16.5 17.5523 16.0523 18 15.5 18H4.5C3.94772 18 3.5 17.5523 3.5 17V5C3.5 4.44772 3.94772 4 4.5 4H6.5V5H4.5Z" fill="currentColor"/><path d="M1.15063 1.87794C0.94979 1.6771 0.94979 1.35147 1.15063 1.15063C1.35147 0.949789 1.6771 0.949789 1.87794 1.15063L18.8494 18.1221C19.0502 18.3229 19.0502 18.6485 18.8494 18.8494C18.6485 19.0502 18.3229 19.0502 18.1221 18.8494L1.15063 1.87794Z" fill="currentColor"/></svg>