<svg width="20" height="20" viewBox="0 0 26 26" fill="none" xmlns="http://www.w3.org/2000/svg"><g transform="translate(3, 3)"><path fill-rule="evenodd" clip-rule="evenodd" d="M6.17499 2.5C6.17499 2.22386 6.39885 2 6.67499 2H13.3178C13.594 2 13.8178 2.22386 13.8178 2.5V6.375C13.8178 6.65114 13.594 6.875 13.3178 6.875H6.67499C6.39885 6.875 6.17499 6.65114 6.17499 6.375V2.5ZM7.17499 3V5.875H12.8178V3H7.17499Z" fill="currentColor"/><path fill-rule="evenodd" clip-rule="evenodd" d="M4.5 17L4.5 5H6.5V4H4.5C3.94772 4 3.5 4.44772 3.5 5V17C3.5 17.5523 3.94772 18 4.5 18H12.3542C12.0302 17.714 11.7529 17.3764 11.5351 17H4.5ZM15.5 11.0309C15.8493 11.0745 16.1847 11.1631 16.5 11.2908V5C16.5 4.44772 16.0523 4 15.5 4H13.5V5H15.5V11.0309Z" fill="currentColor"/><path fill-rule="evenodd" clip-rule="evenodd" d="M15 18C16.6569 18 18 16.6569 18 15C18 13.3431 16.6569 12 15 12C13.3431 12 12 13.3431 12 15C12 16.6569 13.3431 18 15 18ZM15 19C17.2091 19 19 17.2091 19 15C19 12.7909 17.2091 11 15 11C12.7909 11 11 12.7909 11 15C11 17.2091 12.7909 19 15 19Z" fill="currentColor"/><path fill-rule="evenodd" clip-rule="evenodd" d="M16.5819 13.8823C16.7975 14.0548 16.8325 14.3694 16.66 14.5851L15.5544 15.9671C15.1821 16.4325 14.4878 16.4709 14.0664 16.0495L13.3705 15.3536C13.1753 15.1584 13.1753 14.8418 13.3705 14.6465C13.5658 14.4513 13.8824 14.4513 14.0776 14.6465L14.7735 15.3424L15.8791 13.9604C16.0516 13.7448 16.3663 13.7098 16.5819 13.8823Z" fill="currentColor"/></g><path fill-rule="evenodd" clip-rule="evenodd" d="M13 24.5C19.3513 24.5 24.5 19.3513 24.5 13C24.5 6.64873 19.3513 1.5 13 1.5C6.64873 1.5 1.5 6.64873 1.5 13C1.5 19.3513 6.64873 24.5 13 24.5ZM13 25.5C19.9036 25.5 25.5 19.9036 25.5 13C25.5 6.09644 19.9036 0.5 13 0.5C6.09644 0.5 0.5 6.09644 0.5 13C0.5 19.9036 6.09644 25.5 13 25.5Z" fill="currentColor"/></svg>