<svg width="20" height="20" viewBox="0 0 20 20" fill="none" xmlns="http://www.w3.org/2000/svg"><path fill-rule="evenodd" clip-rule="evenodd" d="M6.17499 2.5C6.17499 2.22386 6.39885 2 6.67499 2H13.3178C13.594 2 13.8178 2.22386 13.8178 2.5V6.375C13.8178 6.65114 13.594 6.875 13.3178 6.875H6.67499C6.39885 6.875 6.17499 6.65114 6.17499 6.375V2.5ZM7.17499 3V5.875H12.8178V3H7.17499Z" fill="currentColor"/><path d="M4.5 5L4.5 17H15.5V5H13.5V4H15.5C16.0523 4 16.5 4.44772 16.5 5V17C16.5 17.5523 16.0523 18 15.5 18H4.5C3.94772 18 3.5 17.5523 3.5 17V5C3.5 4.44772 3.94772 4 4.5 4H6.5V5H4.5Z" fill="currentColor"/><path fill-rule="evenodd" clip-rule="evenodd" d="M12.2837 9.08825C12.5111 9.24494 12.5684 9.55629 12.4117 9.78367L10.6447 12.3479C10.3187 12.821 9.66207 12.9228 9.20819 12.5705L7.69347 11.3949C7.47532 11.2256 7.43573 10.9115 7.60503 10.6934C7.77434 10.4752 8.08844 10.4356 8.30659 10.6049L9.82131 11.7805L11.5883 9.21627C11.745 8.98888 12.0563 8.93157 12.2837 9.08825Z" fill="currentColor"/></svg>