<svg width="20" height="20" viewBox="0 0 26 26" fill="none" xmlns="http://www.w3.org/2000/svg"><defs><mask id="mask-pencil-clock-circle-filled"><rect width="26" height="26" fill="white"/><g transform="translate(3, 3)"><path fill-rule="evenodd" clip-rule="evenodd" d="M10 16C13.3137 16 16 13.3137 16 10C16 6.68629 13.3137 4 10 4C6.68629 4 4 6.68629 4 10C4 13.3137 6.68629 16 10 16ZM10 17C13.866 17 17 13.866 17 10C17 6.13401 13.866 3 10 3C6.13401 3 3 6.13401 3 10C3 13.866 6.13401 17 10 17Z" fill="black"/><path fill-rule="evenodd" clip-rule="evenodd" d="M10 6.5C10.2761 6.5 10.5 6.72386 10.5 7V10C10.5 10.2761 10.2761 10.5 10 10.5C9.72386 10.5 9.5 10.2761 9.5 10V7C9.5 6.72386 9.72386 6.5 10 6.5Z" fill="black"/><path fill-rule="evenodd" clip-rule="evenodd" d="M13.5 10C13.5 10.2761 13.2761 10.5 13 10.5H10C9.72386 10.5 9.5 10.2761 9.5 10C9.5 9.72386 9.72386 9.5 10 9.5H13C13.2761 9.5 13.5 9.72386 13.5 10Z" fill="black"/></g></mask></defs><circle r="13" cx="13" cy="13" mask="url(#mask-pencil-clock-circle-filled)" fill="currentColor"/></svg>