<svg width="20" height="20" viewBox="0 0 20 20" fill="none" xmlns="http://www.w3.org/2000/svg"><path fill-rule="evenodd" clip-rule="evenodd" d="M11 3H10C8.13616 3 6.57006 4.27477 6.12602 6H6C3.79086 6 2 7.79086 2 10C2 12.2091 3.79086 14 6 14H14C16.2091 14 18 12.2091 18 10C18 8.09985 16.6751 6.50915 14.8987 6.10135C14.4909 4.32493 12.9002 3 11 3ZM6.90123 7L7.09445 6.24926C7.43255 4.93565 8.62326 4 10 4H11C12.4053 4 13.614 4.97458 13.924 6.32509L14.0642 6.9358L14.6749 7.07599C16.0254 7.38602 17 8.59467 17 10C17 11.6569 15.6569 13 14 13H6C4.34315 13 3 11.6569 3 10C3 8.34315 4.34315 7 6 7H6.90123Z" fill="currentColor"/><path d="M1.15063 1.87794C0.94979 1.6771 0.94979 1.35147 1.15063 1.15063C1.35147 0.949789 1.6771 0.949789 1.87794 1.15063L18.8494 18.1221C19.0502 18.3229 19.0502 18.6485 18.8494 18.8494C18.6485 19.0502 18.3229 19.0502 18.1221 18.8494L1.15063 1.87794Z" fill="currentColor"/></svg>