<svg width="20" height="20" viewBox="0 0 26 26" fill="none" xmlns="http://www.w3.org/2000/svg"><defs><mask id="mask-pencil-cloud-down-circle-filled"><rect width="26" height="26" fill="white"/><g transform="translate(3, 3)"><path fill-rule="evenodd" clip-rule="evenodd" d="M11 3H10C8.13616 3 6.57006 4.27477 6.12602 6H6C3.79086 6 2 7.79086 2 10C2 12.2091 3.79086 14 6 14H14C16.2091 14 18 12.2091 18 10C18 8.09985 16.6751 6.50915 14.8987 6.10135C14.4909 4.32493 12.9002 3 11 3ZM6.90123 7L7.09445 6.24926C7.43255 4.93565 8.62326 4 10 4H11C12.4053 4 13.614 4.97458 13.924 6.32509L14.0642 6.9358L14.6749 7.07599C16.0254 7.38602 17 8.59467 17 10C17 11.6569 15.6569 13 14 13H6C4.34315 13 3 11.6569 3 10C3 8.34315 4.34315 7 6 7H6.90123Z" fill="black"/><path d="M10 10C10 9.72386 10.2239 9.5 10.5 9.5C10.7761 9.5 11 9.72386 11 10L11 17.5C11 17.7761 10.7761 18 10.5 18C10.2239 18 10 17.7761 10 17.5V10Z" fill="black"/><path d="M12.6876 15.1095C12.9033 14.937 13.2179 14.972 13.3904 15.1876C13.5629 15.4033 13.528 15.7179 13.3123 15.8904L10.8123 17.8904C10.5967 18.0629 10.2821 18.028 10.1095 17.8123C9.93704 17.5967 9.972 17.2821 10.1876 17.1095L12.6876 15.1095Z" fill="black"/><path d="M7.68763 15.8904C7.472 15.7179 7.43704 15.4033 7.60955 15.1876C7.78205 14.972 8.0967 14.937 8.31233 15.1095L10.8123 17.1095C11.028 17.2821 11.0629 17.5967 10.8904 17.8123C10.7179 18.028 10.4033 18.0629 10.1876 17.8904L7.68763 15.8904Z" fill="black"/></g></mask></defs><circle r="13" cx="13" cy="13" mask="url(#mask-pencil-cloud-down-circle-filled)" fill="currentColor"/></svg>