<svg width="20" height="20" viewBox="0 0 26 26" fill="none" xmlns="http://www.w3.org/2000/svg"><defs><mask id="mask-pencil-coins-circle-filled"><rect width="26" height="26" fill="white"/><g transform="translate(3, 3)"><path fill-rule="evenodd" clip-rule="evenodd" d="M15.7018 10.1145C14.7795 9.74181 13.4709 9.5 12 9.5V8.5C13.5666 8.5 15.0081 8.75565 16.0764 9.18728C16.6092 9.40257 17.0738 9.67149 17.4132 9.99568C17.7538 10.3211 18 10.7355 18 11.2222C18 11.7089 17.7538 12.1234 17.4132 12.4488C17.0738 12.773 16.6092 13.0419 16.0764 13.2572C15.0081 13.6888 13.5666 13.9444 12 13.9444C10.4334 13.9444 8.9919 13.6888 7.9236 13.2572C7.39077 13.0419 6.92623 12.773 6.58684 12.4488C6.24621 12.1234 6 11.7089 6 11.2222H7C7 11.3492 7.06159 11.5193 7.27759 11.7257C7.49484 11.9332 7.83575 12.1431 8.29822 12.33C9.22053 12.7026 10.5291 12.9444 12 12.9444C13.4709 12.9444 14.7795 12.7026 15.7018 12.33C16.1642 12.1431 16.5052 11.9332 16.7224 11.7257C16.9384 11.5193 17 11.3492 17 11.2222C17 11.0953 16.9384 10.9251 16.7224 10.7188C16.5052 10.5113 16.1642 10.3013 15.7018 10.1145Z" fill="black"/><path fill-rule="evenodd" clip-rule="evenodd" d="M6.5 11.1667C6.77614 11.1667 7 11.3906 7 11.6667V14.7779C7 14.9048 7.06159 15.075 7.27759 15.2813C7.49484 15.4888 7.83575 15.6988 8.29822 15.8856C9.22053 16.2583 10.5291 16.5001 12 16.5001C13.4709 16.5001 14.7795 16.2583 15.7018 15.8856C16.1642 15.6988 16.5052 15.4888 16.7224 15.2813C16.9384 15.075 17 14.9048 17 14.7779V11.6667C17 11.3906 17.2239 11.1667 17.5 11.1667C17.7761 11.1667 18 11.3906 18 11.6667V14.7779C18 15.2646 17.7538 15.679 17.4132 16.0044C17.0738 16.3286 16.6092 16.5975 16.0764 16.8128C15.0081 17.2444 13.5666 17.5001 12 17.5001C10.4334 17.5001 8.9919 17.2444 7.9236 16.8128C7.39077 16.5975 6.92623 16.3286 6.58684 16.0044C6.24621 15.679 6 15.2646 6 14.7779V11.6667C6 11.3906 6.22386 11.1667 6.5 11.1667Z" fill="black"/><path fill-rule="evenodd" clip-rule="evenodd" d="M8.7 16.7264V13H9.7V16.7264H8.7Z" fill="black"/><path fill-rule="evenodd" clip-rule="evenodd" d="M13.1 16.5V13.5H14.1V16.5H13.1Z" fill="black"/><path fill-rule="evenodd" clip-rule="evenodd" d="M2.27759 4.71878C2.06159 4.92512 2 5.09528 2 5.22222C2 5.34916 2.06159 5.51933 2.27759 5.72566C2.49484 5.93319 2.83575 6.14313 3.29822 6.32998C4.22053 6.70263 5.52907 6.94444 7 6.94444C8.47093 6.94444 9.77947 6.70263 10.7018 6.32998C11.1642 6.14313 11.5052 5.93319 11.7224 5.72566C11.9384 5.51933 12 5.34916 12 5.22222C12 5.09528 11.9384 4.92512 11.7224 4.71878C11.5052 4.51125 11.1642 4.30132 10.7018 4.11446C9.77947 3.74181 8.47093 3.5 7 3.5C5.52907 3.5 4.22053 3.74181 3.29822 4.11446C2.83575 4.30132 2.49484 4.51125 2.27759 4.71878ZM2.9236 3.18728C3.9919 2.75565 5.43336 2.5 7 2.5C8.56664 2.5 10.0081 2.75565 11.0764 3.18728C11.6092 3.40257 12.0738 3.67149 12.4132 3.99568C12.7538 4.32108 13 4.73551 13 5.22222C13 5.70893 12.7538 6.12337 12.4132 6.44876C12.0738 6.77296 11.6092 7.04187 11.0764 7.25716C10.0081 7.6888 8.56664 7.94444 7 7.94444C5.43336 7.94444 3.9919 7.6888 2.9236 7.25716C2.39077 7.04187 1.92623 6.77296 1.58684 6.44876C1.24621 6.12337 1 5.70893 1 5.22222C1 4.73551 1.24621 4.32108 1.58684 3.99568C1.92623 3.67149 2.39077 3.40257 2.9236 3.18728Z" fill="black"/><path fill-rule="evenodd" clip-rule="evenodd" d="M1.5 5.16675C1.77614 5.16675 2 5.39061 2 5.66675V8.77786C2 8.9048 2.06159 9.07497 2.27759 9.2813C2.49484 9.48883 2.83575 9.69876 3.29822 9.88562C4.22053 10.2583 5.52907 10.5001 7 10.5001C8.47093 10.5001 9.77947 10.2583 10.7018 9.88562C11.1642 9.69876 11.5052 9.48883 11.7224 9.2813C11.9384 9.07497 12 8.9048 12 8.77786V5.66675C12 5.39061 12.2239 5.16675 12.5 5.16675C12.7761 5.16675 13 5.39061 13 5.66675V8.77786C13 9.26457 12.7538 9.67901 12.4132 10.0044C12.0738 10.3286 11.6092 10.5975 11.0764 10.8128C10.0081 11.2444 8.56664 11.5001 7 11.5001C5.43336 11.5001 3.9919 11.2444 2.9236 10.8128C2.39077 10.5975 1.92623 10.3286 1.58684 10.0044C1.24621 9.67901 1 9.26457 1 8.77786V5.66675C1 5.39061 1.22386 5.16675 1.5 5.16675Z" fill="black"/><path fill-rule="evenodd" clip-rule="evenodd" d="M3.7 10.5V7.11316H4.7V10.5H3.7Z" fill="black"/><path fill-rule="evenodd" clip-rule="evenodd" d="M8.10001 10.5V7.5H9.10001V10.5H8.10001Z" fill="black"/></g></mask></defs><circle r="13" cx="13" cy="13" mask="url(#mask-pencil-coins-circle-filled)" fill="currentColor"/></svg>