<svg width="20" height="20" viewBox="0 0 20 20" fill="none" xmlns="http://www.w3.org/2000/svg"><path fill-rule="evenodd" clip-rule="evenodd" d="M16.3241 6.71747C17.3004 5.74116 17.3004 4.15825 16.3241 3.18194C15.3478 2.20563 13.7649 2.20563 12.7886 3.18194L3.81377 12.1568L3.70234 12.3265C3.5371 12.7444 3.33627 13.1544 2.83666 14.1244C1.58211 16.56 1.38155 17.0592 1.91421 17.5918C2.44688 18.1245 2.94604 17.9239 5.38167 16.6694C6.35163 16.1698 6.76162 15.969 7.17958 15.8037L7.3493 15.6923L16.3241 6.71747ZM15.617 3.88905C16.2028 4.47483 16.2028 5.42458 15.617 6.01037L6.71449 14.9129C6.28793 15.087 5.85619 15.3001 4.92376 15.7804C3.97451 16.2693 3.57256 16.4667 3.15836 16.6331C2.98657 16.7021 2.84067 16.7521 2.72339 16.7827C2.75395 16.6654 2.80392 16.5195 2.87295 16.3477C3.03937 15.9335 3.23672 15.5315 3.72566 14.5823C4.20594 13.6499 4.41909 13.2181 4.59317 12.7916L13.4957 3.88905C14.0815 3.30326 15.0312 3.30326 15.617 3.88905Z" fill="currentColor"/><path d="M9.85103 3.82413C9.65577 3.62887 9.65577 3.31229 9.85103 3.11703C10.0463 2.92177 10.3629 2.92177 10.5581 3.11703L16.215 8.77388C16.4103 8.96914 16.4103 9.28573 16.215 9.48099C16.0197 9.67625 15.7031 9.67625 15.5079 9.48099L9.85103 3.82413Z" fill="currentColor"/><path d="M1.15063 1.87794C0.94979 1.6771 0.94979 1.35147 1.15063 1.15063C1.35147 0.949789 1.6771 0.949789 1.87794 1.15063L18.8494 18.1221C19.0502 18.3229 19.0502 18.6485 18.8494 18.8494C18.6485 19.0502 18.3229 19.0502 18.1221 18.8494L1.15063 1.87794Z" fill="currentColor"/></svg>