<svg width="20" height="20" viewBox="0 0 26 26" fill="none" xmlns="http://www.w3.org/2000/svg"><g transform="translate(3, 3)"><path d="M12.25 10C11.5596 10 11 9.44036 11 8.75C11 8.05964 11.5596 7.5 12.25 7.5C12.9404 7.5 13.5 8.05964 13.5 8.75C13.5 9.44036 12.9404 10 12.25 10Z" fill="currentColor"/><path d="M14.25 12.5C13.5596 12.5 13 11.9404 13 11.25C13 10.5596 13.5596 10 14.25 10C14.9404 10 15.5 10.5596 15.5 11.25C15.5 11.9404 14.9404 12.5 14.25 12.5Z" fill="currentColor"/><path fill-rule="evenodd" clip-rule="evenodd" d="M14.5 4.5H5.5C3.01472 4.5 1 6.51472 1 9V11C1 13.4853 3.01472 15.5 5.5 15.5H14.5C16.9853 15.5 19 13.4853 19 11V9C19 6.51472 16.9853 4.5 14.5 4.5ZM2 9C2 7.067 3.567 5.5 5.5 5.5H14.5C16.433 5.5 18 7.067 18 9V11C18 12.933 16.433 14.5 14.5 14.5H5.5C3.567 14.5 2 12.933 2 11V9Z" fill="currentColor"/><path d="M4 11C3.44772 11 3 10.5523 3 10C3 9.44772 3.44772 9 4 9H8C8.55228 9 9 9.44772 9 10C9 10.5523 8.55228 11 8 11H4Z" fill="currentColor"/><path d="M7 12C7 12.5523 6.55228 13 6 13C5.44772 13 5 12.5523 5 12V8C5 7.44772 5.44772 7 6 7C6.55228 7 7 7.44772 7 8V12Z" fill="currentColor"/><path d="M1.15063 1.87794C0.94979 1.6771 0.94979 1.35147 1.15063 1.15063C1.35147 0.949789 1.6771 0.949789 1.87794 1.15063L18.8494 18.1221C19.0502 18.3229 19.0502 18.6485 18.8494 18.8494C18.6485 19.0502 18.3229 19.0502 18.1221 18.8494L1.15063 1.87794Z" fill="currentColor"/></g><path fill-rule="evenodd" clip-rule="evenodd" d="M13 24.5C19.3513 24.5 24.5 19.3513 24.5 13C24.5 6.64873 19.3513 1.5 13 1.5C6.64873 1.5 1.5 6.64873 1.5 13C1.5 19.3513 6.64873 24.5 13 24.5ZM13 25.5C19.9036 25.5 25.5 19.9036 25.5 13C25.5 6.09644 19.9036 0.5 13 0.5C6.09644 0.5 0.5 6.09644 0.5 13C0.5 19.9036 6.09644 25.5 13 25.5Z" fill="currentColor"/></svg>