<svg width="20" height="20" viewBox="0 0 26 26" fill="none" xmlns="http://www.w3.org/2000/svg"><defs><mask id="mask-pencil-countdown-circle-filled"><rect width="26" height="26" fill="white"/><g transform="translate(3, 3)"><path fill-rule="evenodd" clip-rule="evenodd" d="M10 3C10 2.72386 10.2239 2.5 10.5 2.5C14.6421 2.5 18 5.85786 18 10C18 14.1421 14.6421 17.5 10.5 17.5C6.35786 17.5 3 14.1421 3 10C3 9.72386 3.22386 9.5 3.5 9.5C3.77614 9.5 4 9.72386 4 10C4 13.5899 6.91015 16.5 10.5 16.5C14.0899 16.5 17 13.5899 17 10C17 6.41015 14.0899 3.5 10.5 3.5C10.2239 3.5 10 3.27614 10 3Z" fill="black"/><path d="M8 3.25C8 3.66421 7.66421 4 7.25 4C6.83579 4 6.5 3.66421 6.5 3.25C6.5 2.83579 6.83579 2.5 7.25 2.5C7.66421 2.5 8 2.83579 8 3.25Z" fill="black"/><path d="M5.5 4.75C5.5 5.16421 5.16421 5.5 4.75 5.5C4.33579 5.5 4 5.16421 4 4.75C4 4.33579 4.33579 4 4.75 4C5.16421 4 5.5 4.33579 5.5 4.75Z" fill="black"/><path d="M4 7.25C4 7.66421 3.66421 8 3.25 8C2.83579 8 2.5 7.66421 2.5 7.25C2.5 6.83579 2.83579 6.5 3.25 6.5C3.66421 6.5 4 6.83579 4 7.25Z" fill="black"/><path fill-rule="evenodd" clip-rule="evenodd" d="M5.94721 11.2236C6.07071 10.9766 5.9706 10.6763 5.72361 10.5528L3.72361 9.5528C3.47662 9.4293 3.17628 9.52942 3.05279 9.77641C2.92929 10.0234 3.0294 10.3237 3.27639 10.4472L5.27639 11.4472C5.52338 11.5707 5.82372 11.4706 5.94721 11.2236Z" fill="black"/><path fill-rule="evenodd" clip-rule="evenodd" d="M3.85355 9.64648C4.04881 9.84174 4.04881 10.1583 3.85355 10.3536L2.35355 11.8536C2.15829 12.0489 1.8417 12.0489 1.64644 11.8536C1.45118 11.6583 1.45118 11.3417 1.64644 11.1465L3.14644 9.64648C3.3417 9.45122 3.65829 9.45122 3.85355 9.64648Z" fill="black"/><path fill-rule="evenodd" clip-rule="evenodd" d="M10.5 6.5C10.7761 6.5 11 6.72386 11 7V10C11 10.2761 10.7761 10.5 10.5 10.5C10.2239 10.5 10 10.2761 10 10V7C10 6.72386 10.2239 6.5 10.5 6.5Z" fill="black"/><path fill-rule="evenodd" clip-rule="evenodd" d="M14 10C14 10.2761 13.7761 10.5 13.5 10.5H10.5C10.2239 10.5 10 10.2761 10 10C10 9.72386 10.2239 9.5 10.5 9.5H13.5C13.7761 9.5 14 9.72386 14 10Z" fill="black"/></g></mask></defs><circle r="13" cx="13" cy="13" mask="url(#mask-pencil-countdown-circle-filled)" fill="currentColor"/></svg>