<svg width="20" height="20" viewBox="0 0 26 26" fill="none" xmlns="http://www.w3.org/2000/svg"><defs><mask id="mask-pencil-crown-circle-filled"><rect width="26" height="26" fill="white"/><g transform="translate(3, 3)"><path fill-rule="evenodd" clip-rule="evenodd" d="M14.8956 13.8182L16.4114 8.05171L14.1971 9.46236C13.2788 10.0473 12.0613 9.79033 11.4579 8.88413L10 6.69501L8.54215 8.88413C7.93867 9.79033 6.72119 10.0473 5.80293 9.46235L3.58857 8.05171L5.10444 13.8182L14.8956 13.8182ZM4.12585 7.20831C3.35855 6.7195 2.39013 7.42607 2.62143 8.30594L4.1373 14.0724C4.25282 14.5118 4.65007 14.8182 5.10444 14.8182H14.8956C15.3499 14.8182 15.7472 14.5118 15.8627 14.0724L17.3786 8.30595C17.6099 7.42607 16.6415 6.7195 15.8742 7.20831L13.6598 8.61895C13.2007 8.91144 12.5919 8.78294 12.2902 8.32984L10.8323 6.14072C10.4366 5.54644 9.56345 5.54644 9.16768 6.14072L7.70983 8.32984C7.40809 8.78294 6.79935 8.91144 6.34022 8.61895L4.12585 7.20831Z" fill="black"/><path d="M10.9444 3.94545C10.9444 4.46761 10.5216 4.89091 9.99999 4.89091C9.47838 4.89091 9.05554 4.46761 9.05554 3.94545C9.05554 3.42329 9.47838 3 9.99999 3C10.5216 3 10.9444 3.42329 10.9444 3.94545Z" fill="black"/><path d="M18.5 5.83635C18.5 6.35851 18.0771 6.78181 17.5555 6.78181C17.0339 6.78181 16.6111 6.35851 16.6111 5.83635C16.6111 5.31419 17.0339 4.8909 17.5555 4.8909C18.0771 4.8909 18.5 5.31419 18.5 5.83635Z" fill="black"/><path d="M3.38889 5.83635C3.38889 6.35851 2.96605 6.78181 2.44444 6.78181C1.92284 6.78181 1.5 6.35851 1.5 5.83635C1.5 5.31419 1.92284 4.8909 2.44444 4.8909C2.96605 4.8909 3.38889 5.31419 3.38889 5.83635Z" fill="black"/><path fill-rule="evenodd" clip-rule="evenodd" d="M5.25 16C5.25 15.7239 5.47386 15.5 5.75 15.5H14.4873C14.7635 15.5 14.9873 15.7239 14.9873 16C14.9873 16.2761 14.7635 16.5 14.4873 16.5H5.75C5.47386 16.5 5.25 16.2761 5.25 16Z" fill="black"/></g></mask></defs><circle r="13" cx="13" cy="13" mask="url(#mask-pencil-crown-circle-filled)" fill="currentColor"/></svg>