<svg width="20" height="20" viewBox="0 0 26 26" fill="none" xmlns="http://www.w3.org/2000/svg"><g transform="translate(3, 3)"><path fill-rule="evenodd" clip-rule="evenodd" d="M15 4.5H3C2.72386 4.5 2.5 4.72386 2.5 5C2.5 9.66828 5.37379 13.5 9 13.5C12.6262 13.5 15.5 9.66828 15.5 5C15.5 4.72386 15.2761 4.5 15 4.5ZM14.4879 5.5C14.2977 9.43156 11.8802 12.5 9 12.5C6.11981 12.5 3.70234 9.43156 3.51206 5.5H14.4879Z" fill="currentColor"/><path d="M13.8622 10.3289L14.1378 9.36761C14.4407 9.45444 14.7687 9.5 15.1073 9.5C16.4597 9.5 17.5 8.78072 17.5 8C17.5 7.21928 16.4597 6.5 15.1073 6.5V5.5C16.9501 5.5 18.5 6.57158 18.5 8C18.5 9.42842 16.9501 10.5 15.1073 10.5C14.676 10.5 14.2552 10.4416 13.8622 10.3289Z" fill="currentColor"/><path d="M3.5 14.75H14.5C14.9142 14.75 15.25 15.0858 15.25 15.5C15.25 15.9142 14.9142 16.25 14.5 16.25H3.5C3.08579 16.25 2.75 15.9142 2.75 15.5C2.75 15.0858 3.08579 14.75 3.5 14.75Z" fill="currentColor"/><path d="M1.15063 1.87794C0.94979 1.6771 0.94979 1.35147 1.15063 1.15063C1.35147 0.949789 1.6771 0.949789 1.87794 1.15063L18.8494 18.1221C19.0502 18.3229 19.0502 18.6485 18.8494 18.8494C18.6485 19.0502 18.3229 19.0502 18.1221 18.8494L1.15063 1.87794Z" fill="currentColor"/></g><path fill-rule="evenodd" clip-rule="evenodd" d="M13 24.5C19.3513 24.5 24.5 19.3513 24.5 13C24.5 6.64873 19.3513 1.5 13 1.5C6.64873 1.5 1.5 6.64873 1.5 13C1.5 19.3513 6.64873 24.5 13 24.5ZM13 25.5C19.9036 25.5 25.5 19.9036 25.5 13C25.5 6.09644 19.9036 0.5 13 0.5C6.09644 0.5 0.5 6.09644 0.5 13C0.5 19.9036 6.09644 25.5 13 25.5Z" fill="currentColor"/></svg>