<svg width="20" height="20" viewBox="0 0 26 26" fill="none" xmlns="http://www.w3.org/2000/svg"><defs><mask id="mask-pencil-database-circle-filled"><rect width="26" height="26" fill="white"/><g transform="translate(3, 3)"><path fill-rule="evenodd" clip-rule="evenodd" d="M3.828 3.62465C3.51676 3.83273 3.5 3.96237 3.5 3.97951C3.5 3.99664 3.51676 4.12628 3.828 4.33436C4.12074 4.53009 4.57729 4.72587 5.18631 4.8981C6.39747 5.24059 8.09953 5.45901 10 5.45901C11.9005 5.45901 13.6025 5.24059 14.8137 4.8981C15.4227 4.72587 15.8793 4.53009 16.172 4.33436C16.4832 4.12628 16.5 3.99664 16.5 3.97951C16.5 3.96237 16.4832 3.83273 16.172 3.62465C15.8793 3.42892 15.4227 3.23314 14.8137 3.06092C13.6025 2.71842 11.9005 2.5 10 2.5C8.09953 2.5 6.39747 2.71842 5.18631 3.06092C4.57729 3.23314 4.12074 3.42892 3.828 3.62465ZM16.5 5.30495V16H17.5V3.97951C17.5 3.45002 17.125 3.0589 16.7278 2.79334C16.3121 2.51541 15.7435 2.28465 15.0858 2.09865C13.7635 1.72471 11.9655 1.5 10 1.5C8.03447 1.5 6.23654 1.72471 4.9142 2.09865C4.25647 2.28465 3.68789 2.51541 3.27219 2.79334C2.87499 3.0589 2.5 3.45002 2.5 3.97951V16H3.5V5.30495C3.88617 5.52168 4.36963 5.70636 4.9142 5.86036C6.23654 6.2343 8.03447 6.45901 10 6.45901C11.9655 6.45901 13.7635 6.2343 15.0858 5.86036C15.6304 5.70636 16.1138 5.52168 16.5 5.30495Z" fill="black"/><path fill-rule="evenodd" clip-rule="evenodd" d="M3 15.5C3.27614 15.5 3.5 15.7239 3.5 16C3.5 16.0224 3.51991 16.1547 3.82997 16.3642C4.12259 16.5618 4.57887 16.7595 5.18761 16.9335C6.39829 17.2794 8.09989 17.5 10 17.5C11.9001 17.5 13.6017 17.2794 14.8124 16.9335C15.4211 16.7595 15.8774 16.5618 16.17 16.3642C16.4801 16.1547 16.5 16.0224 16.5 16C16.5 15.7239 16.7239 15.5 17 15.5C17.2761 15.5 17.5 15.7239 17.5 16C17.5 16.5299 17.1282 16.9237 16.7298 17.1928C16.314 17.4737 15.7451 17.707 15.0871 17.895C13.7643 18.2729 11.9659 18.5 10 18.5C8.03412 18.5 6.23571 18.2729 4.91289 17.895C4.25488 17.707 3.68604 17.4737 3.27021 17.1928C2.87184 16.9237 2.5 16.5299 2.5 16C2.5 15.7239 2.72386 15.5 3 15.5Z" fill="black"/><path fill-rule="evenodd" clip-rule="evenodd" d="M3 9.5C3.27614 9.5 3.5 9.72386 3.5 10C3.5 10.0224 3.51991 10.1547 3.82997 10.3642C4.12259 10.5618 4.57887 10.7595 5.18761 10.9335C6.39829 11.2794 8.09989 11.5 10 11.5C11.9001 11.5 13.6017 11.2794 14.8124 10.9335C15.4211 10.7595 15.8774 10.5618 16.17 10.3642C16.4801 10.1547 16.5 10.0224 16.5 10C16.5 9.72386 16.7239 9.5 17 9.5C17.2761 9.5 17.5 9.72386 17.5 10C17.5 10.5299 17.1282 10.9237 16.7298 11.1928C16.314 11.4737 15.7451 11.707 15.0871 11.895C13.7643 12.2729 11.9659 12.5 10 12.5C8.03412 12.5 6.23571 12.2729 4.91289 11.895C4.25488 11.707 3.68604 11.4737 3.27021 11.1928C2.87184 10.9237 2.5 10.5299 2.5 10C2.5 9.72386 2.72386 9.5 3 9.5Z" fill="black"/></g></mask></defs><circle r="13" cx="13" cy="13" mask="url(#mask-pencil-database-circle-filled)" fill="currentColor"/></svg>