<svg width="20" height="20" viewBox="0 0 20 20" fill="none" xmlns="http://www.w3.org/2000/svg"><path d="M9 15.25C9 14.5596 9.55964 14 10.25 14C10.5814 14 10.8993 14.1317 11.1335 14.3662C11.3678 14.6006 11.4993 14.9186 11.499 15.25C11.4993 15.5814 11.3678 15.8994 11.1335 16.1338C10.8993 16.3683 10.5814 16.5 10.25 16.5C9.91848 16.5 9.60054 16.3683 9.36612 16.1339C9.1317 15.8995 9 15.5815 9 15.25H9Z" fill="currentColor"/><path d="M9 10.25C9 9.55964 9.55964 9 10.25 9C10.9404 9 11.5 9.55964 11.5 10.25C11.5 10.9404 10.9404 11.5 10.25 11.5C9.55964 11.5 9 10.9404 9 10.25H9Z" fill="currentColor"/><path d="M9 5.25C8.99973 4.9184 9.13135 4.6003 9.36582 4.36582C9.6003 4.13135 9.9184 3.99973 10.25 4C10.9404 4 11.5 4.55964 11.5 5.25C11.5 5.94036 10.9404 6.5 10.25 6.5C9.9184 6.50027 9.6003 6.36866 9.36582 6.13418C9.13135 5.8997 8.99973 5.5816 9 5.25H9Z" fill="currentColor"/><path d="M1.15063 1.87794C0.94979 1.6771 0.94979 1.35147 1.15063 1.15063C1.35147 0.949789 1.6771 0.949789 1.87794 1.15063L18.8494 18.1221C19.0502 18.3229 19.0502 18.6485 18.8494 18.8494C18.6485 19.0502 18.3229 19.0502 18.1221 18.8494L1.15063 1.87794Z" fill="currentColor"/></svg>