<svg width="20" height="20" viewBox="0 0 20 20" fill="none" xmlns="http://www.w3.org/2000/svg"><path d="M14 10.25C14 9.55964 14.5596 9 15.25 9C15.5814 9 15.8993 9.13173 16.1335 9.36618C16.3678 9.60063 16.4993 9.91857 16.499 10.25C16.4993 10.5814 16.3678 10.8994 16.1335 11.1338C15.8993 11.3683 15.5814 11.5 15.25 11.5C14.9185 11.5 14.6005 11.3683 14.3661 11.1339C14.1317 10.8995 14 10.5815 14 10.25H14Z" fill="currentColor"/><path d="M9 10.25C9 9.55964 9.55964 9 10.25 9C10.9404 9 11.5 9.55964 11.5 10.25C11.5 10.9404 10.9404 11.5 10.25 11.5C9.55964 11.5 9 10.9404 9 10.25H9Z" fill="currentColor"/><path d="M4 10.25C3.99973 9.9184 4.13135 9.6003 4.36582 9.36582C4.6003 9.13135 4.9184 8.99973 5.25 9C5.94036 9 6.5 9.55964 6.5 10.25C6.5 10.9404 5.94036 11.5 5.25 11.5C4.9184 11.5003 4.6003 11.3687 4.36582 11.1342C4.13135 10.8997 3.99973 10.5816 4 10.25H4Z" fill="currentColor"/><path d="M1.15063 1.87794C0.94979 1.6771 0.94979 1.35147 1.15063 1.15063C1.35147 0.949789 1.6771 0.949789 1.87794 1.15063L18.8494 18.1221C19.0502 18.3229 19.0502 18.6485 18.8494 18.8494C18.6485 19.0502 18.3229 19.0502 18.1221 18.8494L1.15063 1.87794Z" fill="currentColor"/></svg>