<svg width="20" height="20" viewBox="0 0 20 20" fill="none" xmlns="http://www.w3.org/2000/svg"><path fill-rule="evenodd" clip-rule="evenodd" d="M10.6464 7.35355C10.4512 7.15829 10.4512 6.84171 10.6464 6.64645L13.6464 3.64645C13.8417 3.45118 14.1583 3.45118 14.3536 3.64645C14.5488 3.84171 14.5488 4.15829 14.3536 4.35355L11.3536 7.35355C11.1583 7.54882 10.8417 7.54882 10.6464 7.35355Z" fill="currentColor"/><path fill-rule="evenodd" clip-rule="evenodd" d="M17.3536 7.35355C17.1583 7.54882 16.8417 7.54882 16.6464 7.35355L13.6464 4.35355C13.4512 4.15829 13.4512 3.84171 13.6464 3.64645C13.8417 3.45118 14.1583 3.45118 14.3536 3.64645L17.3536 6.64645C17.5488 6.84171 17.5488 7.15829 17.3536 7.35355Z" fill="currentColor"/><path fill-rule="evenodd" clip-rule="evenodd" d="M14 4C14.2761 4 14.5 4.22386 14.5 4.5V14C14.5 14.2761 14.2761 14.5 14 14.5C13.7239 14.5 13.5 14.2761 13.5 14V4.5C13.5 4.22386 13.7239 4 14 4Z" fill="currentColor"/><path fill-rule="evenodd" clip-rule="evenodd" d="M9.35355 12.6464C9.54882 12.8417 9.54882 13.1583 9.35355 13.3536L6.35355 16.3536C6.15829 16.5488 5.84171 16.5488 5.64645 16.3536C5.45118 16.1583 5.45118 15.8417 5.64645 15.6464L8.64645 12.6464C8.84171 12.4512 9.15829 12.4512 9.35355 12.6464Z" fill="currentColor"/><path fill-rule="evenodd" clip-rule="evenodd" d="M2.64645 12.6464C2.84171 12.4512 3.15829 12.4512 3.35355 12.6464L6.35355 15.6464C6.54882 15.8417 6.54882 16.1583 6.35355 16.3536C6.15829 16.5488 5.84171 16.5488 5.64645 16.3536L2.64645 13.3536C2.45118 13.1583 2.45118 12.8417 2.64645 12.6464Z" fill="currentColor"/><path fill-rule="evenodd" clip-rule="evenodd" d="M6 16C5.72386 16 5.5 15.7761 5.5 15.5L5.5 6C5.5 5.72386 5.72386 5.5 6 5.5C6.27614 5.5 6.5 5.72386 6.5 6L6.5 15.5C6.5 15.7761 6.27614 16 6 16Z" fill="currentColor"/></svg>