<svg width="20" height="20" viewBox="0 0 26 26" fill="none" xmlns="http://www.w3.org/2000/svg"><defs><mask id="mask-pencil-dress-circle-filled"><rect width="26" height="26" fill="white"/><g transform="translate(3, 3)"><path fill-rule="evenodd" clip-rule="evenodd" d="M10.0846 3.14548L9.99993 3.17323L9.9156 3.14559C9.60545 3.04394 9.27671 3.01185 8.95275 3.0516C7.73454 3.2011 6.86817 4.30984 7.01767 5.52805L7.13236 6.46265C7.31014 7.91138 8.54051 9 10.0001 9C11.4597 9 12.6901 7.91138 12.8679 6.46265L12.9826 5.52805C13.0223 5.20411 12.9902 4.87539 12.8886 4.56524C12.5063 3.39889 11.251 2.76324 10.0846 3.14548ZM9.07455 4.04416C9.25274 4.02229 9.43355 4.03994 9.60414 4.09585L9.99991 4.22557L10.396 4.09575C11.0376 3.88551 11.7281 4.23513 11.9383 4.87667C11.9942 5.04726 12.0119 5.22807 11.99 5.40625L11.8753 6.34084C11.7591 7.28816 10.9545 8 10.0001 8C9.04569 8 8.24116 7.28816 8.12491 6.34084L8.01022 5.40625C7.928 4.73621 8.40451 4.12638 9.07455 4.04416Z" fill="black"/><path fill-rule="evenodd" clip-rule="evenodd" d="M11.8696 8L7.90444 8.00001C7.3773 8.00001 6.85947 8.13891 6.40309 8.40272C4.80865 9.32437 3.62921 10.3608 2.86476 11.5119C2.61888 11.8821 2.36958 12.2199 2.13669 12.5354C1.1223 13.9096 0.419383 14.8618 1.66806 16.2402C3.20342 17.935 6.45634 19 9.64848 19C12.8406 19 16.0206 18.3723 18.0847 16.2402C19.6128 14.6618 18.9778 13.958 17.9898 12.8632C17.6432 12.4791 17.2532 12.0469 16.8979 11.5119C16.104 10.3164 14.9187 9.27454 13.3422 8.3863C12.8927 8.13305 12.3855 8 11.8696 8ZM6.90354 9.26848C7.20779 9.09261 7.55301 9.00001 7.90444 9.00001L11.8696 9C12.2136 9 12.5517 9.0887 12.8514 9.25753C14.2975 10.0723 15.3641 11.0099 16.0648 12.0651C16.2313 12.3157 16.4108 12.5565 16.6103 12.8011C16.6332 12.8291 16.716 12.9236 16.8296 13.0533C17.1712 13.4432 17.7914 14.1513 17.8985 14.326C18.0925 14.6424 18.0488 14.8396 17.3663 15.5446C15.7285 17.2363 13.1097 18 9.64848 18C6.65197 18 3.70161 16.9954 2.40917 15.5688C2.02828 15.1483 1.9535 14.9033 2.02458 14.626C2.08114 14.4053 2.23125 14.1252 2.51751 13.7138C2.55413 13.6612 2.67316 13.4979 2.8206 13.2957C3.07602 12.9453 3.41668 12.4781 3.56171 12.2666C3.60821 12.1989 3.65349 12.1318 3.69779 12.0651C4.36984 11.0531 5.43432 10.1178 6.90354 9.26848Z" fill="black"/><path d="M6.53576 1.18571C6.4332 0.929314 6.55791 0.638329 6.8143 0.535773C7.0707 0.433216 7.36168 0.557924 7.46424 0.814316L8.46424 3.31432C8.56679 3.57071 8.44209 3.86169 8.18569 3.96425C7.9293 4.06681 7.63832 3.9421 7.53576 3.68571L6.53576 1.18571Z" fill="black"/><path d="M12.5358 0.814316C12.6383 0.557924 12.9293 0.433216 13.1857 0.535773C13.4421 0.638329 13.5668 0.929314 13.4642 1.18571L12.4642 3.68571C12.3617 3.9421 12.0707 4.06681 11.8143 3.96425C11.5579 3.86169 11.4332 3.57071 11.5358 3.31432L12.5358 0.814316Z" fill="black"/><path d="M9.5 11.5C9.5 11.2239 9.72386 11 10 11C10.2761 11 10.5 11.2239 10.5 11.5V15.5C10.5 15.7761 10.2761 16 10 16C9.72386 16 9.5 15.7761 9.5 15.5V11.5Z" fill="black"/><path d="M7.08397 11.2227C7.23715 10.9929 7.54759 10.9308 7.77735 11.084C8.00711 11.2372 8.0692 11.5476 7.91603 11.7774L5.91602 14.7774C5.76285 15.0071 5.45241 15.0692 5.22265 14.916C4.99289 14.7629 4.9308 14.4524 5.08397 14.2227L7.08397 11.2227Z" fill="black"/><path d="M12.916 11.2227C12.7628 10.9929 12.4524 10.9308 12.2227 11.084C11.9929 11.2372 11.9308 11.5476 12.084 11.7774L14.084 14.7774C14.2372 15.0071 14.5476 15.0692 14.7774 14.916C15.0071 14.7629 15.0692 14.4524 14.916 14.2227L12.916 11.2227Z" fill="black"/></g></mask></defs><circle r="13" cx="13" cy="13" mask="url(#mask-pencil-dress-circle-filled)" fill="currentColor"/></svg>