<svg width="20" height="20" viewBox="0 0 20 20" fill="none" xmlns="http://www.w3.org/2000/svg"><path fill-rule="evenodd" clip-rule="evenodd" d="M15 7.5H8C7.72386 7.5 7.5 7.72386 7.5 8V15C7.5 15.2761 7.72386 15.5 8 15.5H15C15.2761 15.5 15.5 15.2761 15.5 15V8C15.5 7.72386 15.2761 7.5 15 7.5ZM8.5 14.5V8.5H14.5V14.5H8.5Z" fill="currentColor"/><path d="M5.5 11.5H8.5V12.5H5C4.72386 12.5 4.5 12.2761 4.5 12V5C4.5 4.72386 4.72386 4.5 5 4.5H12C12.2761 4.5 12.5 4.72386 12.5 5V8.5H11.5V5.5H5.5V11.5Z" fill="currentColor"/></svg>