<svg width="20" height="20" viewBox="0 0 26 26" fill="none" xmlns="http://www.w3.org/2000/svg"><g transform="translate(3, 3)"><g><path fill-rule="evenodd" clip-rule="evenodd" d="M10 1.5C5.30558 1.5 1.5 5.30558 1.5 10C1.5 14.6944 5.30558 18.5 10 18.5C14.6944 18.5 18.5 14.6944 18.5 10C18.5 5.30558 14.6944 1.5 10 1.5ZM0.5 10C0.5 4.75329 4.75329 0.5 10 0.5C15.2467 0.5 19.5 4.75329 19.5 10C19.5 15.2467 15.2467 19.5 10 19.5C4.75329 19.5 0.5 15.2467 0.5 10Z" fill="currentColor"/><path fill-rule="evenodd" clip-rule="evenodd" d="M12.0059 1.67954L9.90986 2.92824C9.85644 2.96007 9.85653 3.03747 9.91003 3.06918C10.6172 3.48824 10.6172 4.51173 9.91003 4.93079L9.22351 5.33762C9.06866 5.42938 8.89857 5.49252 8.72135 5.52403L6.91248 5.84561C6.67384 5.88803 6.5 6.09551 6.5 6.33789V6.69097C6.5 6.86163 6.63835 6.99999 6.80901 6.99999C6.85699 6.99999 6.9043 6.98882 6.94721 6.96736L7.56524 6.65834C7.77353 6.5542 8.0032 6.49999 8.23607 6.49999H10.5C10.6574 6.49999 10.8056 6.42589 10.9 6.29999L11.6242 5.33433C12.0483 4.76892 12.8311 4.61557 13.4372 4.9792L13.9215 5.26978C14.7964 5.79472 14.5999 7.11541 13.61 7.36287C13.5454 7.37903 13.5 7.43713 13.5 7.50378V7.88195C13.5 8.45011 13.179 8.9695 12.6708 9.22359L11.8683 9.62487C11.2908 9.91361 10.5933 9.80043 10.1368 9.34389L10 9.20709C9.88871 9.09581 9.73153 9.04342 9.57573 9.06567L7.01332 9.43173C6.8725 9.45185 6.74692 9.53099 6.66801 9.64935L6.16141 10.4093C6.08326 10.5265 6.05819 10.6712 6.09236 10.8079L6.48041 12.3601L6.5966 12.7086C6.68258 12.9666 6.99031 13.0722 7.21655 12.9214C7.69097 12.6051 8.30903 12.6051 8.78344 12.9214L9.55638 13.4367C9.77358 13.5815 9.94923 13.7804 10.066 14.0139L10.8416 15.5652C10.9458 15.7735 11 16.0032 11 16.2361V17.023C11 17.3767 11.3573 17.6186 11.6857 17.4872L12.042 17.3447C12.2658 17.2552 12.3938 17.0187 12.3466 16.7824L12.1099 15.5992C12.0145 15.1222 12.1638 14.629 12.5078 14.285L12.574 14.2188C12.6697 14.1232 12.7838 14.048 12.9094 13.9977L13.896 13.6031L13.3134 13.0205C13.1487 12.8558 13.0246 12.6551 12.951 12.4341L12.5921 11.3575C12.5148 11.1254 12.5148 10.8745 12.5921 10.6425C12.8976 9.72615 14.1371 9.59008 14.6341 10.4183L14.9807 10.996C15.0991 11.1933 15.3495 11.2662 15.5553 11.1633L15.577 11.1525C15.8618 11.0101 15.9234 10.6305 15.6982 10.4053L15.3469 10.054C14.7614 9.46853 14.858 8.49375 15.5469 8.03445C16.1499 7.63247 16.9645 7.79541 17.3665 8.39837L17.6192 8.77734C17.7119 8.91644 17.868 8.99999 18.0352 8.99999H18.5V9.99999H18.0352C17.5337 9.99999 17.0653 9.74933 16.7871 9.33204L16.5345 8.95307C16.4388 8.80964 16.245 8.77088 16.1016 8.8665C15.9377 8.97576 15.9148 9.20764 16.054 9.34692L16.4053 9.69819C17.1131 10.406 16.9195 11.5993 16.0242 12.0469L16.0025 12.0577C15.3293 12.3943 14.5104 12.1559 14.1232 11.5105L13.7766 10.9328C13.7192 10.8372 13.5761 10.8529 13.5408 10.9587C13.5319 10.9855 13.5319 11.0145 13.5408 11.0413L13.8997 12.1179C13.9242 12.1916 13.9656 12.2585 14.0205 12.3134L14.7214 13.0143C15.344 13.1395 15.4711 14.05 14.8258 14.3082L13.281 14.9261L13.2149 14.9921C13.1074 15.0997 13.0607 15.2539 13.0905 15.4031L13.3272 16.5863C13.469 17.2953 13.0847 18.0046 12.4134 18.2732L12.0571 18.4157C11.0718 18.8098 10 18.0841 10 17.023V16.2361C10 16.1584 9.98192 16.0819 9.94721 16.0124L9.17155 14.4611C9.13263 14.3833 9.07408 14.317 9.00168 14.2687L8.22874 13.7534C8.09023 13.6611 7.90977 13.6611 7.77125 13.7534C6.99638 14.27 5.94241 13.9084 5.64791 13.0249L5.51958 12.6399L5.12222 11.0504C5.01972 10.6404 5.09493 10.2062 5.32935 9.85456L5.83596 9.09465C6.07268 8.73957 6.44944 8.50213 6.8719 8.44178L9.43431 8.07572C9.9017 8.00895 10.3733 8.16613 10.7071 8.49999L10.8439 8.63678C10.9961 8.78896 11.2286 8.82668 11.4211 8.73044L12.2236 8.32916C12.393 8.24447 12.5 8.07134 12.5 7.88195V7.50378C12.5 6.97826 12.8577 6.52018 13.3675 6.39273C13.493 6.36134 13.5179 6.19385 13.407 6.12727L12.9227 5.83669C12.7561 5.73672 12.5408 5.77888 12.4242 5.93433L11.7 6.89999C11.4167 7.27769 10.9721 7.49999 10.5 7.49999H8.23607C8.15844 7.49999 8.08189 7.51806 8.01246 7.55277L7.39442 7.86179C7.21266 7.95267 7.01223 7.99999 6.80901 7.99999C6.08606 7.99999 5.5 7.41392 5.5 6.69097V6.33789C5.5 5.61074 6.02153 4.98832 6.73745 4.86104L8.54632 4.53947C8.60539 4.52896 8.66209 4.50792 8.71371 4.47733L9.40023 4.0705C9.4538 4.03876 9.4538 3.96122 9.40023 3.92947C8.69401 3.51097 8.69282 2.48928 9.39806 2.06914L11.4941 0.820435L12.0059 1.67954Z" fill="currentColor"/></g><path d="M1.15063 1.87794C0.94979 1.6771 0.94979 1.35147 1.15063 1.15063C1.35147 0.949789 1.6771 0.949789 1.87794 1.15063L18.8494 18.1221C19.0502 18.3229 19.0502 18.6485 18.8494 18.8494C18.6485 19.0502 18.3229 19.0502 18.1221 18.8494L1.15063 1.87794Z" fill="currentColor"/></g><path fill-rule="evenodd" clip-rule="evenodd" d="M13 24.5C19.3513 24.5 24.5 19.3513 24.5 13C24.5 6.64873 19.3513 1.5 13 1.5C6.64873 1.5 1.5 6.64873 1.5 13C1.5 19.3513 6.64873 24.5 13 24.5ZM13 25.5C19.9036 25.5 25.5 19.9036 25.5 13C25.5 6.09644 19.9036 0.5 13 0.5C6.09644 0.5 0.5 6.09644 0.5 13C0.5 19.9036 6.09644 25.5 13 25.5Z" fill="currentColor"/></svg>