<svg width="20" height="20" viewBox="0 0 26 26" fill="none" xmlns="http://www.w3.org/2000/svg"><g transform="translate(3, 3)"><g><path fill-rule="evenodd" clip-rule="evenodd" d="M15 8.5H11.1868L13.4596 3.19696C13.601 2.86703 13.359 2.5 13 2.5H8C7.79999 2.5 7.61922 2.6192 7.54043 2.80304L4.54043 9.80304C4.39903 10.133 4.64104 10.5 5 10.5H7.47391L4.53603 17.8136C4.33617 18.3112 4.95334 18.7317 5.34323 18.3636L10.3667 13.6213L15.325 9.37993C15.6779 9.078 15.4644 8.5 15 8.5ZM10.4286 9.5H13.6465L9.69839 12.8778L6.31274 16.0734L8.67756 10.1864C8.80953 9.85784 8.56764 9.5 8.21359 9.5H5.75827L8.3297 3.5H12.2417L9.969 8.80304C9.8276 9.13297 10.0696 9.5 10.4286 9.5Z" fill="currentColor"/></g></g><path fill-rule="evenodd" clip-rule="evenodd" d="M13 24.5C19.3513 24.5 24.5 19.3513 24.5 13C24.5 6.64873 19.3513 1.5 13 1.5C6.64873 1.5 1.5 6.64873 1.5 13C1.5 19.3513 6.64873 24.5 13 24.5ZM13 25.5C19.9036 25.5 25.5 19.9036 25.5 13C25.5 6.09644 19.9036 0.5 13 0.5C6.09644 0.5 0.5 6.09644 0.5 13C0.5 19.9036 6.09644 25.5 13 25.5Z" fill="currentColor"/></svg>