<svg width="20" height="20" viewBox="0 0 26 26" fill="none" xmlns="http://www.w3.org/2000/svg"><defs><mask id="tvlm402vspsx5s8vzk0qpb"><rect width="26" height="26" fill="white"/><g transform="translate(3, 3)"><path fill-rule="evenodd" clip-rule="evenodd" d="M8.54662 7.11588C8.75876 6.93909 9.07404 6.96776 9.25082 7.1799L11.3342 9.6799C11.5109 9.89203 11.4823 10.2073 11.2701 10.3841C11.058 10.5609 10.7427 10.5322 10.5659 10.3201L8.4826 7.82008C8.30582 7.60794 8.33448 7.29266 8.54662 7.11588Z" fill="black"/><path fill-rule="evenodd" clip-rule="evenodd" d="M8.54662 12.8841C8.33448 12.7073 8.30582 12.392 8.4826 12.1799L10.5659 9.6799C10.7427 9.46776 11.058 9.43909 11.2701 9.61588C11.4823 9.79266 11.5109 10.1079 11.3342 10.3201L9.25082 12.8201C9.07404 13.0322 8.75876 13.0609 8.54662 12.8841Z" fill="black"/><path fill-rule="evenodd" clip-rule="evenodd" d="M11.0001 10C11.0001 10.2761 10.7763 10.5 10.5001 10.5L3.00012 10.5C2.72398 10.5 2.50012 10.2761 2.50012 10C2.50012 9.72386 2.72398 9.5 3.00012 9.5L10.5001 9.5C10.7763 9.5 11.0001 9.72386 11.0001 10Z" fill="black"/><path fill-rule="evenodd" clip-rule="evenodd" d="M16 17C16 17.2761 15.7761 17.5 15.5 17.5H6.3C6.02386 17.5 5.8 17.2761 5.8 17C5.8 16.7239 6.02386 16.5 6.3 16.5H15.5C15.7761 16.5 16 16.7239 16 17Z" fill="black"/><path fill-rule="evenodd" clip-rule="evenodd" d="M16 3C16 3.27614 15.7761 3.5 15.5 3.5L6.32626 3.5C6.05012 3.5 5.82626 3.27614 5.82626 3C5.82626 2.72386 6.05012 2.5 6.32626 2.5L15.5 2.5C15.7761 2.5 16 2.72386 16 3Z" fill="black"/><path fill-rule="evenodd" clip-rule="evenodd" d="M6.25 17.5C5.97386 17.5 5.75 17.2761 5.75 17V13C5.75 12.7239 5.97386 12.5 6.25 12.5C6.52614 12.5 6.75 12.7239 6.75 13V17C6.75 17.2761 6.52614 17.5 6.25 17.5Z" fill="black"/><path fill-rule="evenodd" clip-rule="evenodd" d="M6.25 7.5C5.97386 7.5 5.75 7.27614 5.75 7V3C5.75 2.72386 5.97386 2.5 6.25 2.5C6.52614 2.5 6.75 2.72386 6.75 3V7C6.75 7.27614 6.52614 7.5 6.25 7.5Z" fill="black"/><path fill-rule="evenodd" clip-rule="evenodd" d="M15.6 17.5C15.3238 17.5 15.1 17.2761 15.1 17V3C15.1 2.72386 15.3238 2.5 15.6 2.5C15.8761 2.5 16.1 2.72386 16.1 3V17C16.1 17.2761 15.8761 17.5 15.6 17.5Z" fill="black"/></g></mask></defs><circle r="13" cx="13" cy="13" mask="url(#tvlm402vspsx5s8vzk0qpb)" fill="currentColor"/></svg>