<svg width="20" height="20" viewBox="0 0 26 26" fill="none" xmlns="http://www.w3.org/2000/svg"><g transform="translate(3, 3)"><path fill-rule="evenodd" clip-rule="evenodd" d="M10.25 2.25C10.6642 2.25 11 2.58579 11 3V12C11 12.4142 10.6642 12.75 10.25 12.75C9.83579 12.75 9.5 12.4142 9.5 12V3C9.5 2.58579 9.83579 2.25 10.25 2.25Z" fill="currentColor"/><path d="M11.5 16.25C11.5 16.9404 10.9404 17.5 10.25 17.5C9.55964 17.5 9 16.9404 9 16.25C9 15.5596 9.55964 15 10.25 15C10.9404 15 11.5 15.5596 11.5 16.25Z" fill="currentColor"/></g><path fill-rule="evenodd" clip-rule="evenodd" d="M13 24.5C19.3513 24.5 24.5 19.3513 24.5 13C24.5 6.64873 19.3513 1.5 13 1.5C6.64873 1.5 1.5 6.64873 1.5 13C1.5 19.3513 6.64873 24.5 13 24.5ZM13 25.5C19.9036 25.5 25.5 19.9036 25.5 13C25.5 6.09644 19.9036 0.5 13 0.5C6.09644 0.5 0.5 6.09644 0.5 13C0.5 19.9036 6.09644 25.5 13 25.5Z" fill="currentColor"/></svg>