<svg width="20" height="20" viewBox="0 0 26 26" fill="none" xmlns="http://www.w3.org/2000/svg"><g transform="translate(3, 3)"><path d="M11.3536 9.35355C11.1583 9.54882 10.8417 9.54882 10.6464 9.35355C10.4512 9.15829 10.4512 8.84171 10.6464 8.64645L14.6464 4.64645C14.8417 4.45118 15.1583 4.45118 15.3536 4.64645C15.5488 4.84171 15.5488 5.15829 15.3536 5.35355L11.3536 9.35355Z" fill="currentColor"/><path d="M5.35355 15.3536C5.15829 15.5488 4.84171 15.5488 4.64645 15.3536C4.45118 15.1583 4.45118 14.8417 4.64645 14.6464L8.64645 10.6464C8.84171 10.4512 9.15829 10.4512 9.35355 10.6464C9.54882 10.8417 9.54882 11.1583 9.35355 11.3536L5.35355 15.3536Z" fill="currentColor"/><path d="M5 15.5C4.72386 15.5 4.5 15.2761 4.5 15C4.5 14.7239 4.72386 14.5 5 14.5H9C9.27614 14.5 9.5 14.7239 9.5 15C9.5 15.2761 9.27614 15.5 9 15.5H5Z" fill="currentColor"/><path d="M5.5 15C5.5 15.2761 5.27614 15.5 5 15.5C4.72386 15.5 4.5 15.2761 4.5 15V11C4.5 10.7239 4.72386 10.5 5 10.5C5.27614 10.5 5.5 10.7239 5.5 11V15Z" fill="currentColor"/><path d="M15.5 9C15.5 9.27614 15.2761 9.5 15 9.5C14.7239 9.5 14.5 9.27614 14.5 9V5C14.5 4.72386 14.7239 4.5 15 4.5C15.2761 4.5 15.5 4.72386 15.5 5V9Z" fill="currentColor"/><path d="M11 5.5C10.7239 5.5 10.5 5.27614 10.5 5C10.5 4.72386 10.7239 4.5 11 4.5H15C15.2761 4.5 15.5 4.72386 15.5 5C15.5 5.27614 15.2761 5.5 15 5.5H11Z" fill="currentColor"/><path d="M1.15063 1.87794C0.94979 1.6771 0.94979 1.35147 1.15063 1.15063C1.35147 0.949789 1.6771 0.949789 1.87794 1.15063L18.8494 18.1221C19.0502 18.3229 19.0502 18.6485 18.8494 18.8494C18.6485 19.0502 18.3229 19.0502 18.1221 18.8494L1.15063 1.87794Z" fill="currentColor"/></g><path fill-rule="evenodd" clip-rule="evenodd" d="M13 24.5C19.3513 24.5 24.5 19.3513 24.5 13C24.5 6.64873 19.3513 1.5 13 1.5C6.64873 1.5 1.5 6.64873 1.5 13C1.5 19.3513 6.64873 24.5 13 24.5ZM13 25.5C19.9036 25.5 25.5 19.9036 25.5 13C25.5 6.09644 19.9036 0.5 13 0.5C6.09644 0.5 0.5 6.09644 0.5 13C0.5 19.9036 6.09644 25.5 13 25.5Z" fill="currentColor"/></svg>