<svg width="20" height="20" viewBox="0 0 26 26" fill="none" xmlns="http://www.w3.org/2000/svg"><g transform="translate(3, 3)"><g><path fill-rule="evenodd" clip-rule="evenodd" d="M6.82582 12.5179C7.61264 12.9605 8.73329 13.25 9.99837 13.25C11.2635 13.25 12.3841 12.9605 13.1709 12.5179C13.9734 12.0665 14.3317 11.5211 14.3317 11.0312C14.3317 10.5414 13.9734 9.99599 13.1709 9.54459C12.3841 9.102 11.2635 8.8125 9.99837 8.8125C8.73329 8.8125 7.61264 9.102 6.82582 9.54459C6.02333 9.99599 5.66504 10.5414 5.66504 11.0312C5.66504 11.5211 6.02333 12.0665 6.82582 12.5179ZM6.33556 13.3895C5.38873 12.8569 4.66504 12.0429 4.66504 11.0312C4.66504 10.0196 5.38873 9.20561 6.33556 8.67302C7.29806 8.13161 8.59408 7.8125 9.99837 7.8125C11.4027 7.8125 12.6987 8.13161 13.6612 8.67302C14.608 9.20561 15.3317 10.0196 15.3317 11.0312C15.3317 12.0429 14.608 12.8569 13.6612 13.3895C12.6987 13.9309 11.4027 14.25 9.99837 14.25C8.59408 14.25 7.29806 13.9309 6.33556 13.3895Z" fill="currentColor"/><path fill-rule="evenodd" clip-rule="evenodd" d="M9.99835 6C10.2745 6 10.4984 6.22386 10.4984 6.5L10.4984 8.3125C10.4984 8.58864 10.2745 8.8125 9.99835 8.8125C9.72221 8.8125 9.49835 8.58864 9.49835 8.3125L9.49835 6.5C9.49835 6.22386 9.72221 6 9.99835 6Z" fill="currentColor"/><path fill-rule="evenodd" clip-rule="evenodd" d="M12.5131 6.31181C12.7839 6.36596 12.9595 6.62938 12.9053 6.90016L12.6032 8.41057C12.5491 8.68135 12.2857 8.85696 12.0149 8.80281C11.7441 8.74865 11.5685 8.48524 11.6227 8.21446L11.9247 6.70404C11.9789 6.43326 12.2423 6.25765 12.5131 6.31181Z" fill="currentColor"/><path fill-rule="evenodd" clip-rule="evenodd" d="M7.48367 6.31181C7.21289 6.36596 7.03729 6.62938 7.09144 6.90016L7.39352 8.41057C7.44768 8.68135 7.71109 8.85696 7.98187 8.80281C8.25265 8.74865 8.42826 8.48524 8.37411 8.21446L8.07202 6.70404C8.01787 6.43326 7.75445 6.25765 7.48367 6.31181Z" fill="currentColor"/><path fill-rule="evenodd" clip-rule="evenodd" d="M4.90778 7.27958C4.67099 7.42166 4.5942 7.72879 4.73628 7.96558L5.64253 9.47599C5.7846 9.71278 6.09173 9.78956 6.32852 9.64749C6.56531 9.50542 6.6421 9.19829 6.50002 8.9615L5.59377 7.45108C5.4517 7.21429 5.14457 7.13751 4.90778 7.27958Z" fill="currentColor"/><path fill-rule="evenodd" clip-rule="evenodd" d="M15.0889 7.27958C15.3257 7.42166 15.4025 7.72879 15.2604 7.96558L14.3542 9.47599C14.2121 9.71278 13.905 9.78956 13.6682 9.64749C13.4314 9.50542 13.3546 9.19829 13.4967 8.9615L14.4029 7.45108C14.545 7.21429 14.8521 7.13751 15.0889 7.27958Z" fill="currentColor"/><path fill-rule="evenodd" clip-rule="evenodd" d="M8.98798 10.7292C8.98798 11.2872 9.44035 11.7396 9.99839 11.7396C10.5564 11.7396 11.0088 11.2872 11.0088 10.7292C11.0088 10.1712 10.5564 9.71879 9.99839 9.71879C9.44035 9.71879 8.98798 10.1712 8.98798 10.7292ZM9.99839 12.7396C8.88807 12.7396 7.98798 11.8395 7.98798 10.7292C7.98798 9.61889 8.88807 8.71879 9.99839 8.71879C11.1087 8.71879 12.0088 9.61889 12.0088 10.7292C12.0088 11.8395 11.1087 12.7396 9.99839 12.7396Z" fill="currentColor"/><path fill-rule="evenodd" clip-rule="evenodd" d="M2 4C2 2.89543 2.89543 2 4 2H5.96154C6.23768 2 6.46154 2.22386 6.46154 2.5C6.46154 2.77614 6.23768 3 5.96154 3H4C3.44772 3 3 3.44772 3 4V6.25C3 6.52614 2.77614 6.75 2.5 6.75C2.22386 6.75 2 6.52614 2 6.25V4ZM13.25 2.5C13.25 2.22386 13.4739 2 13.75 2H16C17.1046 2 18 2.89543 18 4V6.25C18 6.52614 17.7761 6.75 17.5 6.75C17.2239 6.75 17 6.52614 17 6.25V4C17 3.44772 16.5523 3 16 3H13.75C13.4739 3 13.25 2.77614 13.25 2.5ZM2.5 12.9615C2.77614 12.9615 3 13.1854 3 13.4615V16C3 16.5523 3.44772 17 4 17H6.25C6.52614 17 6.75 17.2239 6.75 17.5C6.75 17.7761 6.52614 18 6.25 18H4C2.89543 18 2 17.1046 2 16V13.4615C2 13.1854 2.22386 12.9615 2.5 12.9615ZM17.5 13.25C17.7761 13.25 18 13.4739 18 13.75V16C18 17.1046 17.1046 18 16 18H13.75C13.4739 18 13.25 17.7761 13.25 17.5C13.25 17.2239 13.4739 17 13.75 17H16C16.5523 17 17 16.5523 17 16V13.75C17 13.4739 17.2239 13.25 17.5 13.25Z" fill="currentColor"/></g><path d="M1.15063 1.87794C0.94979 1.6771 0.94979 1.35147 1.15063 1.15063C1.35147 0.949789 1.6771 0.949789 1.87794 1.15063L18.8494 18.1221C19.0502 18.3229 19.0502 18.6485 18.8494 18.8494C18.6485 19.0502 18.3229 19.0502 18.1221 18.8494L1.15063 1.87794Z" fill="currentColor"/></g><path fill-rule="evenodd" clip-rule="evenodd" d="M13 24.5C19.3513 24.5 24.5 19.3513 24.5 13C24.5 6.64873 19.3513 1.5 13 1.5C6.64873 1.5 1.5 6.64873 1.5 13C1.5 19.3513 6.64873 24.5 13 24.5ZM13 25.5C19.9036 25.5 25.5 19.9036 25.5 13C25.5 6.09644 19.9036 0.5 13 0.5C6.09644 0.5 0.5 6.09644 0.5 13C0.5 19.9036 6.09644 25.5 13 25.5Z" fill="currentColor"/></svg>