<svg width="20" height="20" viewBox="0 0 26 26" fill="none" xmlns="http://www.w3.org/2000/svg"><g transform="translate(3, 3)"><g><path d="M2.09394 8.01418C1.93283 7.78991 1.98404 7.4775 2.20831 7.31639C2.43258 7.15528 2.745 7.20648 2.90611 7.43076C3.25412 7.91522 3.77651 8.36491 4.44182 8.74895C5.81478 9.54147 7.69282 10 9.70428 10C11.7157 10 13.5938 9.54147 14.9667 8.74895C15.632 8.36491 16.1544 7.91522 16.5024 7.43076C16.6636 7.20648 16.976 7.15528 17.2002 7.31639C17.4245 7.4775 17.4757 7.78991 17.3146 8.01418C16.8783 8.62157 16.2485 9.16369 15.4667 9.61501C13.9345 10.4994 11.8842 11 9.70428 11C7.52431 11 5.47403 10.4994 3.94189 9.61501C3.16002 9.16369 2.53026 8.62157 2.09394 8.01418Z" fill="currentColor"/><path d="M10.5 11C10.5 10.7239 10.2761 10.5 10 10.5C9.72386 10.5 9.5 10.7239 9.5 11L9.5 13.5C9.5 13.7761 9.72386 14 10 14C10.2761 14 10.5 13.7761 10.5 13.5L10.5 11Z" fill="currentColor"/><path d="M6.00971 10.4019C6.06387 10.1311 6.32728 9.95553 6.59806 10.0097C6.86884 10.0638 7.04445 10.3273 6.9903 10.598L6.4903 13.098C6.43614 13.3688 6.17273 13.5444 5.90195 13.4903C5.63117 13.4361 5.45556 13.1727 5.50971 12.9019L6.00971 10.4019Z" fill="currentColor"/><path d="M13.9904 10.4019C13.9362 10.1311 13.6728 9.95553 13.402 10.0097C13.1313 10.0638 12.9557 10.3273 13.0098 10.598L13.5098 13.098C13.564 13.3688 13.8274 13.5444 14.0982 13.4903C14.3689 13.4361 14.5445 13.1727 14.4904 12.9019L13.9904 10.4019Z" fill="currentColor"/><path d="M16.3536 8.64645C16.1583 8.45118 15.8417 8.45118 15.6464 8.64645C15.4512 8.84171 15.4512 9.15829 15.6464 9.35355L17.6464 11.3536C17.8417 11.5488 18.1583 11.5488 18.3536 11.3536C18.5488 11.1583 18.5488 10.8417 18.3536 10.6464L16.3536 8.64645Z" fill="currentColor"/><path d="M3.44776 8.66371C3.63349 8.45936 3.94971 8.44426 4.15406 8.62999C4.35841 8.81572 4.3735 9.13195 4.18777 9.3363L2.37001 11.3363C2.18428 11.5406 1.86806 11.5557 1.66371 11.37C1.45936 11.1843 1.44426 10.8681 1.62999 10.6637L3.44776 8.66371Z" fill="currentColor"/></g></g><path fill-rule="evenodd" clip-rule="evenodd" d="M13 24.5C19.3513 24.5 24.5 19.3513 24.5 13C24.5 6.64873 19.3513 1.5 13 1.5C6.64873 1.5 1.5 6.64873 1.5 13C1.5 19.3513 6.64873 24.5 13 24.5ZM13 25.5C19.9036 25.5 25.5 19.9036 25.5 13C25.5 6.09644 19.9036 0.5 13 0.5C6.09644 0.5 0.5 6.09644 0.5 13C0.5 19.9036 6.09644 25.5 13 25.5Z" fill="currentColor"/></svg>