<svg width="20" height="20" viewBox="0 0 26 26" fill="none" xmlns="http://www.w3.org/2000/svg"><g transform="translate(3, 3)"><g><path fill-rule="evenodd" clip-rule="evenodd" d="M10 16C14.6577 16 18.5 13.8387 18.5 11C18.5 8.16128 14.6577 6 10 6C5.34227 6 1.5 8.16128 1.5 11C1.5 13.8387 5.34227 16 10 16ZM10 7C14.1788 7 17.5 8.86816 17.5 11C17.5 13.1318 14.1788 15 10 15C5.82117 15 2.5 13.1318 2.5 11C2.5 8.86816 5.82117 7 10 7Z" fill="currentColor"/><path d="M9.5 3.5C9.5 3.22386 9.72386 3 10 3C10.2761 3 10.5 3.22386 10.5 3.5L10.5 6.5C10.5 6.77614 10.2761 7 10 7C9.72386 7 9.5 6.77614 9.5 6.5L9.5 3.5Z" fill="currentColor"/><path d="M13.5097 3.90192C13.5639 3.63114 13.8273 3.45553 14.0981 3.50968C14.3688 3.56384 14.5445 3.82725 14.4903 4.09803L13.9903 6.59803C13.9361 6.86881 13.6727 7.04442 13.4019 6.99026C13.1312 6.93611 12.9556 6.6727 13.0097 6.40192L13.5097 3.90192Z" fill="currentColor"/><path d="M6.49029 3.90192C6.43613 3.63114 6.17272 3.45553 5.90194 3.50968C5.63116 3.56384 5.45555 3.82725 5.5097 4.09803L6.0097 6.59803C6.06386 6.86881 6.32727 7.04442 6.59805 6.99026C6.86883 6.93611 7.04444 6.6727 6.99029 6.40192L6.49029 3.90192Z" fill="currentColor"/><path d="M2.42875 5.24271C2.28667 5.00592 1.97954 4.92913 1.74275 5.07121C1.50596 5.21328 1.42918 5.52041 1.57125 5.7572L3.07125 8.2572C3.21333 8.49399 3.52046 8.57077 3.75725 8.4287C3.99404 8.28663 4.07082 7.9795 3.92875 7.74271L2.42875 5.24271Z" fill="currentColor"/><path d="M17.5713 5.24271C17.7133 5.00592 18.0205 4.92913 18.2572 5.07121C18.494 5.21328 18.5708 5.52041 18.4287 5.7572L16.9287 8.2572C16.7867 8.49399 16.4795 8.57077 16.2428 8.4287C16.006 8.28663 15.9292 7.9795 16.0713 7.74271L17.5713 5.24271Z" fill="currentColor"/><path d="M13 10.5C13 12.1569 11.6569 13.5 10 13.5C8.34315 13.5 7 12.1569 7 10.5C7 8.84315 8.34315 7.5 10 7.5C11.6569 7.5 13 8.84315 13 10.5Z" fill="currentColor"/></g><path d="M1.15063 1.87794C0.94979 1.6771 0.94979 1.35147 1.15063 1.15063C1.35147 0.949789 1.6771 0.949789 1.87794 1.15063L18.8494 18.1221C19.0502 18.3229 19.0502 18.6485 18.8494 18.8494C18.6485 19.0502 18.3229 19.0502 18.1221 18.8494L1.15063 1.87794Z" fill="currentColor"/></g><path fill-rule="evenodd" clip-rule="evenodd" d="M13 24.5C19.3513 24.5 24.5 19.3513 24.5 13C24.5 6.64873 19.3513 1.5 13 1.5C6.64873 1.5 1.5 6.64873 1.5 13C1.5 19.3513 6.64873 24.5 13 24.5ZM13 25.5C19.9036 25.5 25.5 19.9036 25.5 13C25.5 6.09644 19.9036 0.5 13 0.5C6.09644 0.5 0.5 6.09644 0.5 13C0.5 19.9036 6.09644 25.5 13 25.5Z" fill="currentColor"/></svg>