<svg width="20" height="20" viewBox="0 0 20 20" fill="none" xmlns="http://www.w3.org/2000/svg"><g><path fill-rule="evenodd" clip-rule="evenodd" d="M5.5 4C5.5 2.89543 6.39543 2 7.5 2H12.6C12.7313 2 12.8573 2.05164 12.9508 2.14376L17.3508 6.47709C17.4463 6.57107 17.5 6.6994 17.5 6.83333V14C17.5 15.1046 16.6046 16 15.5 16H6.5C6.22386 16 6 15.7761 6 15.5C6 15.2239 6.22386 15 6.5 15H15.5C16.0523 15 16.5 14.5523 16.5 14V7.33333H13.6C12.7716 7.33333 12.1 6.66176 12.1 5.83333V3H7.5C6.94772 3 6.5 3.44772 6.5 4V6.5C6.5 6.77614 6.27614 7 6 7C5.72386 7 5.5 6.77614 5.5 6.5V4ZM13.1 3.69419L15.7797 6.33333H13.6C13.3239 6.33333 13.1 6.10948 13.1 5.83333V3.69419Z" fill="currentColor"/><path fill-rule="evenodd" clip-rule="evenodd" d="M7.99835 8.62841C6.88085 8.03449 5.49347 8.45894 4.89955 9.57643C4.30563 10.6939 4.73008 12.0813 5.84757 12.6752C6.96507 13.2691 8.35244 12.8447 8.94636 11.7272C9.54028 10.6097 9.11584 9.22233 7.99835 8.62841ZM4.01652 9.10712C4.86963 7.50194 6.86247 6.89227 8.46765 7.74538C10.0728 8.59849 10.6825 10.5913 9.82939 12.1965C9.05606 13.6516 7.34618 14.2886 5.83749 13.7596L4.22732 16.7892C4.09772 17.0331 3.79499 17.1257 3.55115 16.9961C3.3073 16.8665 3.21469 16.5637 3.34429 16.3199L4.95445 13.2903C3.67185 12.3358 3.24318 10.5622 4.01652 9.10712Z" fill="currentColor"/></g></svg>