<svg width="20" height="20" viewBox="0 0 26 26" fill="none" xmlns="http://www.w3.org/2000/svg"><defs><mask id="mask-pencil-file-circle-filled"><rect width="26" height="26" fill="white"/><g transform="translate(3, 3)"><path d="M6.5 12C6.22386 12 6 11.7761 6 11.5C6 11.2239 6.22386 11 6.5 11H13.5C13.7761 11 14 11.2239 14 11.5C14 11.7761 13.7761 12 13.5 12H6.5Z" fill="black"/><path d="M6.5 15C6.22386 15 6 14.7761 6 14.5C6 14.2239 6.22386 14 6.5 14H13.5C13.7761 14 14 14.2239 14 14.5C14 14.7761 13.7761 15 13.5 15H6.5Z" fill="black"/><path fill-rule="evenodd" clip-rule="evenodd" d="M11.1854 1H4.5C3.67157 1 3 1.67157 3 2.5V17.5C3 18.3284 3.67157 19 4.5 19H15.5C16.3284 19 17 18.3284 17 17.5V7.20179C17 6.82623 16.8591 6.46433 16.6052 6.18761L12.2906 1.48582C12.0065 1.17624 11.6056 1 11.1854 1ZM4 2.5C4 2.22386 4.22386 2 4.5 2H11.1854C11.3255 2 11.4591 2.05875 11.5538 2.16194L15.8684 6.86373C15.953 6.95597 16 7.0766 16 7.20179V17.5C16 17.7761 15.7761 18 15.5 18H4.5C4.22386 18 4 17.7761 4 17.5V2.5Z" fill="black"/><path d="M11 7H16.5C16.7761 7 17 7.22386 17 7.5C17 7.77614 16.7761 8 16.5 8H10.5C10.2239 8 10 7.77614 10 7.5V1.5C10 1.22386 10.2239 1 10.5 1C10.7761 1 11 1.22386 11 1.5V7Z" fill="black"/></g></mask></defs><circle r="13" cx="13" cy="13" mask="url(#mask-pencil-file-circle-filled)" fill="currentColor"/></svg>