<svg width="20" height="20" viewBox="0 0 26 26" fill="none" xmlns="http://www.w3.org/2000/svg"><defs><mask id="mask-pencil-flag-circle-filled"><rect width="26" height="26" fill="white"/><g transform="translate(3, 3)"><path fill-rule="evenodd" clip-rule="evenodd" d="M6.80448 2.63238L6.16667 2.89619C4.85526 3.43861 4 4.7179 4 6.13705V10.5225C4 10.7701 4.06299 11.0136 4.18304 11.2301C4.57382 11.9349 5.46192 12.1894 6.16667 11.7986L6.39359 11.6728C7.60021 11.0037 9.06646 11.0037 10.2731 11.6728L10.7269 11.9244C11.9335 12.5935 13.3998 12.5935 14.6064 11.9244L15.3405 11.5174C16.3646 10.9495 17 9.87068 17 8.69967V4.63808C17 4.47992 16.9766 4.32263 16.9306 4.17132C16.6728 3.32401 15.7769 2.8461 14.9296 3.10389L14.0366 3.37558C13.1508 3.64506 12.199 3.59893 11.3435 3.24506L9.86219 2.63238C8.88317 2.22744 7.78349 2.22744 6.80448 2.63238ZM5 6.13705C5 5.12254 5.6114 4.20802 6.54888 3.82026L7.18669 3.55645C7.92095 3.25275 8.74571 3.25275 9.47998 3.55645L10.9613 4.16914C12.0307 4.61148 13.2205 4.66914 14.3277 4.33228L15.2207 4.06059C15.5396 3.96356 15.8768 4.14345 15.9739 4.46238C15.9912 4.51934 16 4.57854 16 4.63808V8.69967C16 9.50723 15.5618 10.2512 14.8556 10.6428L14.1215 11.0499C13.2165 11.5517 12.1168 11.5517 11.2119 11.0499L10.758 10.7982C9.24974 9.96189 7.41693 9.96189 5.90865 10.7982L5.68173 10.9241C5.45999 11.047 5.18055 10.9669 5.05759 10.7452C5.01982 10.6771 5 10.6004 5 10.5225V6.13705Z" fill="black"/><path fill-rule="evenodd" clip-rule="evenodd" d="M5 2C5.55228 2 6 2.44772 6 3V17C6 17.5523 5.55228 18 5 18C4.44772 18 4 17.5523 4 17V3C4 2.44772 4.44772 2 5 2Z" fill="black"/></g></mask></defs><circle r="13" cx="13" cy="13" mask="url(#mask-pencil-flag-circle-filled)" fill="currentColor"/></svg>