<svg width="20" height="20" viewBox="0 0 26 26" fill="none" xmlns="http://www.w3.org/2000/svg"><defs><mask id="mask-pencil-flag-straight-circle-filled"><rect width="26" height="26" fill="white"/><g transform="translate(3, 3)"><path fill-rule="evenodd" clip-rule="evenodd" d="M16.5793 3L3.5 3V11H16.5793L14.2811 7.71683C13.9798 7.28643 13.9798 6.71357 14.2811 6.28317L16.5793 3ZM3.5 2C2.94772 2 2.5 2.44772 2.5 3V11C2.5 11.5523 2.94772 12 3.5 12H16.5793C17.3884 12 17.8625 11.0893 17.3986 10.4265L15.1004 7.14337C15.0401 7.05729 15.0401 6.94271 15.1004 6.85663L17.3986 3.57346C17.8625 2.91068 17.3884 2 16.5793 2H3.5Z" fill="black"/><path fill-rule="evenodd" clip-rule="evenodd" d="M3 3C3.27614 3 3.5 3.22386 3.5 3.5L3.5 17.5C3.5 17.7761 3.27614 18 3 18C2.72386 18 2.5 17.7761 2.5 17.5L2.5 3.5C2.5 3.22386 2.72386 3 3 3Z" fill="black"/></g></mask></defs><circle r="13" cx="13" cy="13" mask="url(#mask-pencil-flag-straight-circle-filled)" fill="currentColor"/></svg>