<svg width="20" height="20" viewBox="0 0 26 26" fill="none" xmlns="http://www.w3.org/2000/svg"><g transform="translate(3, 3)"><path fill-rule="evenodd" clip-rule="evenodd" d="M3.5 2.75C3.22386 2.75 3 2.97386 3 3.25V16.25C3 16.5261 3.22386 16.75 3.5 16.75H16.5C16.7761 16.75 17 16.5261 17 16.25V5.66421C17 5.53161 16.9473 5.40443 16.8536 5.31066L14.4393 2.89645C14.3456 2.80268 14.2184 2.75 14.0858 2.75H3.5ZM2 3.25C2 2.42157 2.67157 1.75 3.5 1.75H14.0858C14.4836 1.75 14.8651 1.90804 15.1464 2.18934L17.5607 4.60355C17.842 4.88486 18 5.26639 18 5.66421V16.25C18 17.0784 17.3284 17.75 16.5 17.75H3.5C2.67157 17.75 2 17.0784 2 16.25V3.25Z" fill="currentColor"/><path fill-rule="evenodd" clip-rule="evenodd" d="M5.5 10.75C5.5 9.92157 6.17157 9.25 7 9.25H13C13.8284 9.25 14.5 9.92157 14.5 10.75V17.75H13.5V10.75C13.5 10.4739 13.2761 10.25 13 10.25H7C6.72386 10.25 6.5 10.4739 6.5 10.75V17.75H5.5V10.75Z" fill="currentColor"/><path fill-rule="evenodd" clip-rule="evenodd" d="M6 4.75C6 5.57843 6.67157 6.25 7.5 6.25H11.5C12.3284 6.25 13 5.57843 13 4.75V2.75C13 2.47386 12.7761 2.25 12.5 2.25C12.2239 2.25 12 2.47386 12 2.75V4.75C12 5.02614 11.7761 5.25 11.5 5.25H7.5C7.22386 5.25 7 5.02614 7 4.75V2.75C7 2.47386 6.77614 2.25 6.5 2.25C6.22386 2.25 6 2.47386 6 2.75V4.75Z" fill="currentColor"/><path d="M1.15063 1.87794C0.94979 1.6771 0.94979 1.35147 1.15063 1.15063C1.35147 0.949789 1.6771 0.949789 1.87794 1.15063L18.8494 18.1221C19.0502 18.3229 19.0502 18.6485 18.8494 18.8494C18.6485 19.0502 18.3229 19.0502 18.1221 18.8494L1.15063 1.87794Z" fill="currentColor"/></g><path fill-rule="evenodd" clip-rule="evenodd" d="M13 24.5C19.3513 24.5 24.5 19.3513 24.5 13C24.5 6.64873 19.3513 1.5 13 1.5C6.64873 1.5 1.5 6.64873 1.5 13C1.5 19.3513 6.64873 24.5 13 24.5ZM13 25.5C19.9036 25.5 25.5 19.9036 25.5 13C25.5 6.09644 19.9036 0.5 13 0.5C6.09644 0.5 0.5 6.09644 0.5 13C0.5 19.9036 6.09644 25.5 13 25.5Z" fill="currentColor"/></svg>