<svg width="20" height="20" viewBox="0 0 26 26" fill="none" xmlns="http://www.w3.org/2000/svg"><g transform="translate(3, 3)"><g><path fill-rule="evenodd" clip-rule="evenodd" d="M12.9577 2.70271L12.8853 2.78196C12.5511 3.14683 12.3446 3.35528 12.1748 3.49015C11.9784 3.23554 11.6887 2.84808 11.6936 2.8544C11.4051 2.48043 11.165 2.20924 10.9195 2.00194C10.619 1.74817 10.3212 1.60174 10 1.60174C9.83135 1.60174 9.66724 1.64406 9.50862 1.72103C9.12201 1.90864 8.798 2.26211 8.36383 2.86885C8.30938 2.94494 8.17213 3.14122 8.08998 3.2587C8.05753 3.3051 8.03368 3.33921 8.02692 3.34878C7.98778 3.40411 7.95265 3.45293 7.92076 3.4962L7.90489 3.48417C7.72623 3.3472 7.51115 3.13846 7.15613 2.76687L7.08746 2.69487C6.55371 2.13443 6.40865 1.98816 6.18557 1.80638C6.00392 1.65837 5.84702 1.56272 5.67667 1.52097C5.34592 1.43991 5.02949 1.60022 4.90937 1.93114C4.64015 2.67283 4.5 3.46989 4.5 4.28809C4.5 7.97398 6.51581 10.5 10 10.5C13.4842 10.5 15.5 7.97398 15.5 4.28809C15.5 3.46989 15.3598 2.67283 15.0906 1.93114C14.9711 1.60183 14.6556 1.43776 14.3239 1.52196C14.1538 1.56515 14.0002 1.66253 13.8231 1.8129C13.6085 1.99518 13.4742 2.13653 12.9577 2.70271ZM5.5 4.28809C5.5 3.74768 5.57105 3.21929 5.70851 2.71616C5.84152 2.83956 6.01414 3.01788 6.36332 3.38453L6.43309 3.45768C6.82398 3.86681 7.06306 4.09885 7.29648 4.27779C7.7511 4.62631 8.16971 4.74941 8.52019 4.34902C8.61368 4.24222 8.71072 4.11375 8.84336 3.92621C8.85158 3.91458 8.87876 3.87571 8.91467 3.82437C8.9976 3.70578 9.12709 3.52063 9.17706 3.45079C9.51365 2.98042 9.76183 2.70968 9.94521 2.62069C9.97484 2.60631 9.99258 2.60174 10 2.60174C10.0387 2.60174 10.1373 2.65022 10.2743 2.76597C10.4531 2.91693 10.6532 3.14297 10.9018 3.46524C10.8697 3.42366 11.4473 4.19598 11.5813 4.34902C11.9329 4.75066 12.3526 4.62516 12.7943 4.27514C13.0202 4.09616 13.2515 3.86269 13.6227 3.45736L13.6965 3.37669C14.0099 3.03318 14.1737 2.85605 14.2965 2.73475C14.4307 3.2323 14.5 3.75433 14.5 4.28809C14.5 7.46499 12.876 9.49999 10 9.49999C7.12397 9.49999 5.5 7.46499 5.5 4.28809Z" fill="currentColor"/><path d="M9.5 11C9.5 10.7239 9.72386 10.5 10 10.5C10.2761 10.5 10.5 10.7239 10.5 11V17.5C10.5 17.7761 10.2761 18 10 18C9.72386 18 9.5 17.7761 9.5 17.5V11Z" fill="currentColor"/><path fill-rule="evenodd" clip-rule="evenodd" d="M12.0886 13.398C10.114 15.0548 8.80192 17.1841 9.71244 18.2692C10.6408 19.3756 13.571 18.6811 15.3025 17.2282C16.9873 15.8145 17.734 13.8274 16.797 12.7107C15.8599 11.594 13.7733 11.9843 12.0886 13.398ZM14.6597 16.4622C13.2968 17.6058 10.9315 18.1663 10.4785 17.6264C10.115 17.1932 11.1789 15.4667 12.7314 14.164C14.0493 13.0582 15.5479 12.7779 16.0309 13.3535C16.5139 13.9291 15.9776 15.3563 14.6597 16.4622Z" fill="currentColor"/><path fill-rule="evenodd" clip-rule="evenodd" d="M7.61094 13.398C9.58547 15.0548 10.8976 17.1841 9.98706 18.2692C9.05874 19.3756 6.1285 18.6811 4.397 17.2282C2.71224 15.8145 1.96554 13.8274 2.90255 12.7107C3.83956 11.594 5.92617 11.9843 7.61094 13.398ZM5.03979 16.4622C6.40267 17.6058 8.768 18.1663 9.22102 17.6264C9.58452 17.1932 8.52056 15.4667 6.96815 14.164C5.65026 13.0582 4.15159 12.7779 3.6686 13.3535C3.1856 13.9291 3.72189 15.3563 5.03979 16.4622Z" fill="currentColor"/></g></g><path fill-rule="evenodd" clip-rule="evenodd" d="M13 24.5C19.3513 24.5 24.5 19.3513 24.5 13C24.5 6.64873 19.3513 1.5 13 1.5C6.64873 1.5 1.5 6.64873 1.5 13C1.5 19.3513 6.64873 24.5 13 24.5ZM13 25.5C19.9036 25.5 25.5 19.9036 25.5 13C25.5 6.09644 19.9036 0.5 13 0.5C6.09644 0.5 0.5 6.09644 0.5 13C0.5 19.9036 6.09644 25.5 13 25.5Z" fill="currentColor"/></svg>