<svg width="20" height="20" viewBox="0 0 26 26" fill="none" xmlns="http://www.w3.org/2000/svg"><g transform="translate(3, 3)"><path fill-rule="evenodd" clip-rule="evenodd" d="M15.5 5.5H10.2187L9.50996 4.25965C9.06486 3.48072 8.2365 3 7.33935 3H4.5C3.11929 3 2 4.11929 2 5.5V15C2 16.3807 3.11929 17.5 4.5 17.5H15.5C16.8807 17.5 18 16.3807 18 15V8C18 6.61929 16.8807 5.5 15.5 5.5ZM4.5 16.5C3.67157 16.5 3 15.8284 3 15V5.5C3 4.67157 3.67157 4 4.5 4H7.33935C7.87764 4 8.37466 4.28843 8.64172 4.75579L9.49445 6.24807C9.58347 6.40386 9.74914 6.5 9.92857 6.5H15.5C16.3284 6.5 17 7.17157 17 8V15C17 15.8284 16.3284 16.5 15.5 16.5H4.5Z" fill="currentColor"/></g><path fill-rule="evenodd" clip-rule="evenodd" d="M13 24.5C19.3513 24.5 24.5 19.3513 24.5 13C24.5 6.64873 19.3513 1.5 13 1.5C6.64873 1.5 1.5 6.64873 1.5 13C1.5 19.3513 6.64873 24.5 13 24.5ZM13 25.5C19.9036 25.5 25.5 19.9036 25.5 13C25.5 6.09644 19.9036 0.5 13 0.5C6.09644 0.5 0.5 6.09644 0.5 13C0.5 19.9036 6.09644 25.5 13 25.5Z" fill="currentColor"/></svg>