<svg width="20" height="20" viewBox="0 0 20 20" fill="none" xmlns="http://www.w3.org/2000/svg"><g><path fill-rule="evenodd" clip-rule="evenodd" d="M4 11C4 10.4477 4.44772 10 5 10H15C15.5523 10 16 10.4477 16 11C16 11.5523 15.5523 12 15 12H5C4.44772 12 4 11.5523 4 11Z" fill="currentColor"/><path fill-rule="evenodd" clip-rule="evenodd" d="M6 1.5C6.27614 1.5 6.5 1.72386 6.5 2V7C6.5 7.27614 6.27614 7.5 6 7.5C5.72386 7.5 5.5 7.27614 5.5 7V2C5.5 1.72386 5.72386 1.5 6 1.5Z" fill="currentColor"/><path fill-rule="evenodd" clip-rule="evenodd" d="M6 6.5C6.27614 6.5 6.5 6.72386 6.5 7V10.5C6.5 10.7761 6.27614 11 6 11C5.72386 11 5.5 10.7761 5.5 10.5V7C5.5 6.72386 5.72386 6.5 6 6.5Z" fill="currentColor"/><path fill-rule="evenodd" clip-rule="evenodd" d="M14 6.5C14.2761 6.5 14.5 6.72386 14.5 7V10.5C14.5 10.7761 14.2761 11 14 11C13.7239 11 13.5 10.7761 13.5 10.5V7C13.5 6.72386 13.7239 6.5 14 6.5Z" fill="currentColor"/><path fill-rule="evenodd" clip-rule="evenodd" d="M14 1.5C14.2761 1.5 14.5 1.72386 14.5 2V7C14.5 7.27614 14.2761 7.5 14 7.5C13.7239 7.5 13.5 7.27614 13.5 7V2C13.5 1.72386 13.7239 1.5 14 1.5Z" fill="currentColor"/><path fill-rule="evenodd" clip-rule="evenodd" d="M15.4126 18.2824C15.2567 18.5103 14.9456 18.5686 14.7177 18.4127L5.21764 11.9127C4.98973 11.7567 4.93139 11.4456 5.08732 11.2177C5.24326 10.9898 5.55442 10.9314 5.78232 11.0874L15.2823 17.5874C15.5102 17.7433 15.5686 18.0545 15.4126 18.2824Z" fill="currentColor"/><path fill-rule="evenodd" clip-rule="evenodd" d="M4.58735 18.2824C4.74328 18.5103 5.05444 18.5686 5.28234 18.4127L14.7824 11.9127C15.0103 11.7567 15.0686 11.4456 14.9127 11.2177C14.7567 10.9898 14.4456 10.9314 14.2177 11.0874L4.71766 17.5874C4.48976 17.7433 4.43142 18.0545 4.58735 18.2824Z" fill="currentColor"/><path fill-rule="evenodd" clip-rule="evenodd" d="M14 4H6V3H14V4Z" fill="currentColor"/><path fill-rule="evenodd" clip-rule="evenodd" d="M14 7H6V6H14V7Z" fill="currentColor"/><path fill-rule="evenodd" clip-rule="evenodd" d="M2.5 8C2.5 7.72386 2.72386 7.5 3 7.5H6C6.27614 7.5 6.5 7.72386 6.5 8C6.5 8.27614 6.27614 8.5 6 8.5H3C2.72386 8.5 2.5 8.27614 2.5 8Z" fill="currentColor"/><path fill-rule="evenodd" clip-rule="evenodd" d="M13.5 8C13.5 7.72386 13.7239 7.5 14 7.5H17C17.2761 7.5 17.5 7.72386 17.5 8C17.5 8.27614 17.2761 8.5 17 8.5H14C13.7239 8.5 13.5 8.27614 13.5 8Z" fill="currentColor"/></g><path d="M1.15063 1.87794C0.94979 1.6771 0.94979 1.35147 1.15063 1.15063C1.35147 0.949789 1.6771 0.949789 1.87794 1.15063L18.8494 18.1221C19.0502 18.3229 19.0502 18.6485 18.8494 18.8494C18.6485 19.0502 18.3229 19.0502 18.1221 18.8494L1.15063 1.87794Z" fill="currentColor"/></svg>