<svg width="20" height="20" viewBox="0 0 26 26" fill="none" xmlns="http://www.w3.org/2000/svg"><defs><mask id="mask-pencil-gear-circle-filled"><rect width="26" height="26" fill="white"/><g transform="translate(3, 3)"><path fill-rule="evenodd" clip-rule="evenodd" d="M8.23223 11.7678C8.69772 12.2333 9.32837 12.5 10 12.5C10.6716 12.5 11.3023 12.2333 11.7678 11.7678C12.2333 11.3023 12.5 10.6716 12.5 10C12.5 9.32837 12.2333 8.69772 11.7678 8.23223C11.3023 7.76674 10.6716 7.5 10 7.5C9.32837 7.5 8.69772 7.76674 8.23223 8.23223C7.76674 8.69772 7.5 9.32837 7.5 10C7.5 10.6716 7.76674 11.3023 8.23223 11.7678ZM11.0607 11.0607C10.7808 11.3405 10.4037 11.5 10 11.5C9.59632 11.5 9.21915 11.3405 8.93934 11.0607C8.65953 10.7808 8.5 10.4037 8.5 10C8.5 9.59632 8.65953 9.21915 8.93934 8.93934C9.21915 8.65953 9.59632 8.5 10 8.5C10.4037 8.5 10.7808 8.65953 11.0607 8.93934C11.3405 9.21915 11.5 9.59632 11.5 10C11.5 10.4037 11.3405 10.7808 11.0607 11.0607Z" fill="black"/><path fill-rule="evenodd" clip-rule="evenodd" d="M14.2161 3.77261L12.9469 4.48706C12.5759 4.28836 12.1853 4.1275 11.7804 4.00738L11.3109 2.59254C11.2431 2.38803 11.0519 2.25 10.8364 2.25H9.05934C8.83506 2.25 8.63822 2.39934 8.57781 2.61533L8.18566 4.01755C7.78153 4.13997 7.39185 4.30304 7.02195 4.50387L5.68911 3.83516C5.49652 3.73853 5.26369 3.77615 5.11133 3.92851L3.85477 5.18507C3.69618 5.34366 3.6626 5.58845 3.77261 5.78389L4.48706 7.05311C4.28836 7.42412 4.1275 7.81472 4.00738 8.2196L2.59254 8.68906C2.38803 8.75692 2.25 8.94815 2.25 9.16362V10.9407C2.25 11.1649 2.39934 11.3618 2.61533 11.4222L4.01755 11.8143C4.13997 12.2185 4.30304 12.6081 4.50387 12.9781L3.83516 14.3109C3.73853 14.5035 3.77615 14.7363 3.92851 14.8887L5.18507 16.1452C5.34366 16.3038 5.58845 16.3374 5.78389 16.2274L7.05311 15.5129C7.42412 15.7116 7.81472 15.8725 8.2196 15.9926L8.68906 17.4075C8.75692 17.612 8.94815 17.75 9.16362 17.75H10.9407C11.1649 17.75 11.3618 17.6007 11.4222 17.3847L11.8143 15.9824C12.2185 15.86 12.6081 15.697 12.9781 15.4961L14.3109 16.1648C14.5035 16.2615 14.7363 16.2238 14.8887 16.0715L16.1452 14.8149C16.3038 14.6563 16.3374 14.4116 16.2274 14.2161L15.5129 12.9469C15.7116 12.5759 15.8725 12.1853 15.9926 11.7804L17.4075 11.3109C17.612 11.2431 17.75 11.0519 17.75 10.8364V9.05934C17.75 8.83506 17.6007 8.63822 17.3847 8.57781L15.9824 8.18566C15.86 7.78153 15.697 7.39185 15.4961 7.02195L16.1648 5.68911C16.2615 5.49652 16.2238 5.26369 16.0715 5.11133L14.8149 3.85477C14.6563 3.69618 14.4116 3.6626 14.2161 3.77261ZM13.1916 5.49689L14.3761 4.83012L15.1092 5.56325L14.4821 6.81313C14.4052 6.96642 14.4122 7.14843 14.5007 7.29534C14.7659 7.73564 14.9652 8.21281 15.0913 8.71333C15.1351 8.88728 15.2687 9.02443 15.4415 9.07274L16.75 9.43869V10.4755L15.4233 10.9157C15.2606 10.9697 15.1369 11.1033 15.0955 11.2697C14.9711 11.7707 14.7734 12.2486 14.5097 12.6897C14.4176 12.8437 14.4151 13.0352 14.5031 13.1916L15.1699 14.3761L14.4368 15.1092L13.1869 14.4821C13.0336 14.4052 12.8516 14.4122 12.7047 14.5007C12.2644 14.7659 11.7872 14.9652 11.2867 15.0913C11.1127 15.1351 10.9756 15.2687 10.9273 15.4415L10.5613 16.75H9.52452L9.08432 15.4233C9.03032 15.2606 8.89668 15.1369 8.73025 15.0955C8.22926 14.9711 7.75144 14.7734 7.31028 14.5097C7.15629 14.4176 6.96478 14.4151 6.80844 14.5031L5.62394 15.1699L4.89081 14.4368L5.5179 13.1869C5.59481 13.0336 5.58779 12.8516 5.49929 12.7047C5.23408 12.2644 5.03476 11.7872 4.9087 11.2867C4.86489 11.1127 4.73126 10.9756 4.5585 10.9273L3.25 10.5613V9.52452L4.57666 9.08432C4.73942 9.03032 4.86314 8.89668 4.90447 8.73025C5.02886 8.22926 5.22658 7.75144 5.49033 7.31028C5.58239 7.15629 5.58489 6.96478 5.49689 6.80844L4.83012 5.62394L5.56325 4.89081L6.81313 5.5179C6.96642 5.59481 7.14843 5.58779 7.29534 5.49929C7.73564 5.23408 8.21281 5.03476 8.71333 4.9087C8.88728 4.86489 9.02443 4.73126 9.07274 4.5585L9.43869 3.25H10.4755L10.9157 4.57666C10.9697 4.73942 11.1033 4.86314 11.2697 4.90447C11.7707 5.02886 12.2486 5.22658 12.6897 5.49033C12.8437 5.58239 13.0352 5.58489 13.1916 5.49689Z" fill="black"/></g></mask></defs><circle r="13" cx="13" cy="13" mask="url(#mask-pencil-gear-circle-filled)" fill="currentColor"/></svg>