<svg width="20" height="20" viewBox="0 0 26 26" fill="none" xmlns="http://www.w3.org/2000/svg"><g transform="translate(3, 3)"><g><path fill-rule="evenodd" clip-rule="evenodd" d="M3 5H17C17.5523 5 18 5.44772 18 6V17C18 17.5523 17.5523 18 17 18H3C2.44771 18 2 17.5523 2 17V6C2 5.44772 2.44771 5 3 5ZM17 17V6H3V17H17Z" fill="currentColor"/><rect x="9.5" y="5.5" width="1" height="12" fill="currentColor"/><rect x="2" y="10.5" width="16" height="1" fill="currentColor"/><path fill-rule="evenodd" clip-rule="evenodd" d="M8.94329 1.55446C10.0682 2.53232 10.7304 4.55547 9.97843 5.42046C9.22797 6.28377 7.60443 5.69065 6.31905 4.5733C5.22453 3.62184 4.8502 2.1743 5.60671 1.30404C6.36322 0.43377 7.84877 0.603005 8.94329 1.55446ZM6.97511 3.81859C7.87154 4.59784 9.0077 5.0129 9.22372 4.7644C9.52346 4.41959 9.04965 2.97193 8.28723 2.30917C7.5624 1.67908 6.6919 1.57992 6.36141 1.96009C6.03093 2.34027 6.25028 3.1885 6.97511 3.81859Z" fill="currentColor"/><path fill-rule="evenodd" clip-rule="evenodd" d="M11.2984 1.55446C10.1735 2.53232 9.51134 4.55547 10.2633 5.42046C11.0137 6.28377 12.6373 5.69065 13.9226 4.5733C15.0172 3.62184 15.3915 2.1743 14.635 1.30404C13.8785 0.43377 12.3929 0.603005 11.2984 1.55446ZM13.2666 3.81859C12.3702 4.59784 11.234 5.0129 11.018 4.7644C10.7182 4.41959 11.192 2.97193 11.9545 2.30917C12.6793 1.67908 13.5498 1.57992 13.8803 1.96009C14.2108 2.34027 13.9914 3.1885 13.2666 3.81859Z" fill="currentColor"/></g></g><path fill-rule="evenodd" clip-rule="evenodd" d="M13 24.5C19.3513 24.5 24.5 19.3513 24.5 13C24.5 6.64873 19.3513 1.5 13 1.5C6.64873 1.5 1.5 6.64873 1.5 13C1.5 19.3513 6.64873 24.5 13 24.5ZM13 25.5C19.9036 25.5 25.5 19.9036 25.5 13C25.5 6.09644 19.9036 0.5 13 0.5C6.09644 0.5 0.5 6.09644 0.5 13C0.5 19.9036 6.09644 25.5 13 25.5Z" fill="currentColor"/></svg>