<svg width="20" height="20" viewBox="0 0 26 26" fill="none" xmlns="http://www.w3.org/2000/svg"><defs><mask id="mask-pencil-grab-handle-circle-filled"><rect width="26" height="26" fill="white"/><g transform="translate(3, 3)"><path d="M2.5 7C2.22386 7 2 6.77614 2 6.5C2 6.22386 2.22386 6 2.5 6H17.5C17.7761 6 18 6.22386 18 6.5C18 6.77614 17.7761 7 17.5 7H2.5Z" fill="black"/><path d="M2.5 10.25C2.22386 10.25 2 10.0261 2 9.75C2 9.47386 2.22386 9.25 2.5 9.25H17.5C17.7761 9.25 18 9.47386 18 9.75C18 10.0261 17.7761 10.25 17.5 10.25H2.5Z" fill="black"/><path d="M2.5 13.5C2.22386 13.5 2 13.2761 2 13C2 12.7239 2.22386 12.5 2.5 12.5H17.5C17.7761 12.5 18 12.7239 18 13C18 13.2761 17.7761 13.5 17.5 13.5H2.5Z" fill="black"/></g></mask></defs><circle r="13" cx="13" cy="13" mask="url(#mask-pencil-grab-handle-circle-filled)" fill="currentColor"/></svg>