<svg width="20" height="20" viewBox="0 0 20 20" fill="none" xmlns="http://www.w3.org/2000/svg"><path d="M2.5 7C2.22386 7 2 6.77614 2 6.5C2 6.22386 2.22386 6 2.5 6H17.5C17.7761 6 18 6.22386 18 6.5C18 6.77614 17.7761 7 17.5 7H2.5Z" fill="currentColor"/><path d="M2.5 10.25C2.22386 10.25 2 10.0261 2 9.75C2 9.47386 2.22386 9.25 2.5 9.25H17.5C17.7761 9.25 18 9.47386 18 9.75C18 10.0261 17.7761 10.25 17.5 10.25H2.5Z" fill="currentColor"/><path d="M2.5 13.5C2.22386 13.5 2 13.2761 2 13C2 12.7239 2.22386 12.5 2.5 12.5H17.5C17.7761 12.5 18 12.7239 18 13C18 13.2761 17.7761 13.5 17.5 13.5H2.5Z" fill="currentColor"/><path d="M1.15063 1.87794C0.94979 1.6771 0.94979 1.35147 1.15063 1.15063C1.35147 0.949789 1.6771 0.949789 1.87794 1.15063L18.8494 18.1221C19.0502 18.3229 19.0502 18.6485 18.8494 18.8494C18.6485 19.0502 18.3229 19.0502 18.1221 18.8494L1.15063 1.87794Z" fill="currentColor"/></svg>