<svg width="20" height="20" viewBox="0 0 26 26" fill="none" xmlns="http://www.w3.org/2000/svg"><g transform="translate(3, 3)"><g><path fill-rule="evenodd" clip-rule="evenodd" d="M10.2798 1.05539C10.6133 1.05774 10.9366 1.17119 11.1984 1.37783L18.0614 6.79346C18.3232 7.00009 18.5087 7.28811 18.5886 7.61198L18.7792 8.38546C18.89 8.83489 18.7871 9.3103 18.5004 9.67367L16.0089 12.8309C15.7222 13.1943 15.2838 13.4049 14.8209 13.4016L14.0243 13.3961C13.6907 13.3937 13.3675 13.2803 13.1056 13.0736L6.24268 7.65798C5.98083 7.45135 5.79532 7.16333 5.71548 6.83946L5.52482 6.06598C5.41403 5.61655 5.51695 5.14114 5.80369 4.77777L8.2951 1.62055C8.58185 1.25718 9.0203 1.04654 9.48317 1.0498L10.2798 1.05539ZM10.579 2.16284C10.4917 2.09397 10.3839 2.05615 10.2728 2.05537L9.47615 2.04977C9.32185 2.04869 9.1757 2.1189 9.08012 2.24002L6.58871 5.39724C6.49313 5.51836 6.45883 5.67683 6.49576 5.82664L6.68642 6.60012C6.71303 6.70808 6.77487 6.80409 6.86215 6.87296L13.7251 12.2886C13.8124 12.3575 13.9201 12.3953 14.0313 12.3961L14.8279 12.4017C14.9822 12.4028 15.1283 12.3325 15.2239 12.2114L17.7153 9.0542C17.8109 8.93308 17.8452 8.77461 17.8083 8.6248L17.6176 7.85132C17.591 7.74337 17.5292 7.64736 17.4419 7.57848L10.579 2.16284Z" fill="currentColor"/><path fill-rule="evenodd" clip-rule="evenodd" d="M8.88524 9.75131L3.62362 16.4191C3.45256 16.6358 3.48962 16.9502 3.7064 17.1213L4.49142 17.7408C4.70819 17.9118 5.0226 17.8748 5.19366 17.658L10.4553 10.9902L11.2403 11.6097L5.97868 18.2775C5.46549 18.9278 4.52228 19.039 3.87194 18.5258L3.08692 17.9063C2.43659 17.3931 2.32541 16.4499 2.8386 15.7996L8.10022 9.13184L8.88524 9.75131Z" fill="currentColor"/><path fill-rule="evenodd" clip-rule="evenodd" d="M13.3764 4.0599L14.3056 2.88236C14.4767 2.66558 14.7911 2.62852 15.0079 2.79958L15.7929 3.41905C16.0097 3.59012 16.0467 3.90452 15.8757 4.1213L14.9464 5.29884L15.7315 5.91831L16.6607 4.74077C17.1739 4.09044 17.0627 3.14722 16.4124 2.63403L15.6273 2.01456C14.977 1.50138 14.0338 1.61255 13.5206 2.26289L12.5914 3.44043L13.3764 4.0599Z" fill="currentColor"/></g></g><path fill-rule="evenodd" clip-rule="evenodd" d="M13 24.5C19.3513 24.5 24.5 19.3513 24.5 13C24.5 6.64873 19.3513 1.5 13 1.5C6.64873 1.5 1.5 6.64873 1.5 13C1.5 19.3513 6.64873 24.5 13 24.5ZM13 25.5C19.9036 25.5 25.5 19.9036 25.5 13C25.5 6.09644 19.9036 0.5 13 0.5C6.09644 0.5 0.5 6.09644 0.5 13C0.5 19.9036 6.09644 25.5 13 25.5Z" fill="currentColor"/></svg>