<svg width="20" height="20" viewBox="0 0 26 26" fill="none" xmlns="http://www.w3.org/2000/svg"><defs><mask id="mask-pencil-handshake-circle-filled"><rect width="26" height="26" fill="white"/><g transform="translate(3, 3)"><g><path fill-rule="evenodd" clip-rule="evenodd" d="M3.64645 2.49062C3.14289 2.26382 2.5508 2.48818 2.324 2.99174L0.160666 7.79495C-0.0661367 8.29851 0.158225 8.8906 0.661791 9.1174L2.15161 9.7884C2.65517 10.0152 3.24725 9.79085 3.47406 9.28728L5.63739 4.48407C5.8642 3.98051 5.63983 3.38843 5.13627 3.16162L3.64645 2.49062ZM1.87305 8.4174C2.21617 8.57194 2.61959 8.41907 2.77413 8.07596C2.92866 7.73284 2.77579 7.32942 2.43268 7.17488C2.08956 7.02035 1.68614 7.17322 1.5316 7.51633C1.37707 7.85944 1.52994 8.26287 1.87305 8.4174Z" fill="black"/><path fill-rule="evenodd" clip-rule="evenodd" d="M19.0149 9.24833C19.5313 9.05266 19.7914 8.47537 19.5957 7.95891L17.7294 3.03271C17.5337 2.51625 16.9564 2.25619 16.4399 2.45186L14.912 3.03076C14.3955 3.22643 14.1354 3.80372 14.3311 4.32018L16.1975 9.24638C16.3932 9.76285 16.9705 10.0229 17.4869 9.82723L19.0149 9.24833ZM16.0783 3.8033C15.7264 3.93663 15.5492 4.32998 15.6826 4.68187C15.8159 5.03377 16.2092 5.21096 16.5611 5.07764C16.913 4.94432 17.0902 4.55097 16.9569 4.19907C16.8236 3.84717 16.4302 3.66998 16.0783 3.8033Z" fill="black"/><path fill-rule="evenodd" clip-rule="evenodd" d="M14.8853 4.10706L14.8928 4.1064C15.1679 4.08274 15.3718 3.84054 15.3482 3.56542C15.3245 3.29029 15.0816 3.08649 14.8064 3.11014L14.7979 3.11089L14.7723 3.11316L14.6755 3.12206C14.5918 3.12992 14.4711 3.14161 14.3223 3.15705C14.0248 3.18789 13.6138 3.23377 13.1596 3.29394C12.2651 3.41244 11.1559 3.59214 10.4309 3.83384C10.0783 3.9514 9.7061 4.17763 9.35039 4.43757C8.9885 4.70202 8.61496 5.02288 8.25733 5.35563C7.54188 6.02129 6.86562 6.75752 6.43806 7.24098C6.01929 7.7145 5.92211 8.47183 6.41447 9.00663C6.73356 9.35323 7.23466 9.79141 7.88235 9.9865C8.55883 10.1903 9.33854 10.1108 10.1355 9.51917L11.1349 8.87365C11.1414 8.86946 11.1474 8.86588 11.1528 8.86284C11.2956 8.94962 11.4953 9.1001 11.7324 9.29883C11.9932 9.5174 12.2754 9.774 12.5378 10.0213C12.7997 10.268 13.0386 10.5024 13.2122 10.6753C13.2989 10.7616 13.3691 10.8324 13.4174 10.8814L13.4729 10.9378L13.4871 10.9523L13.4915 10.9569L13.5506 11.0177L13.6264 11.0555C14.0289 11.2568 14.4719 11.1842 14.8161 11.068C15.174 10.9471 15.5299 10.744 15.8327 10.5425C16.1394 10.3384 16.4132 10.1214 16.6088 9.95704C16.7071 9.87443 16.7869 9.80408 16.8427 9.75389C16.8706 9.72878 16.8925 9.70864 16.9078 9.69447L16.9258 9.67779L16.9308 9.67301L16.9324 9.67156C16.9324 9.67156 16.8442 9.3627 16.5 9L16.2285 9.33984L16 10L13.4915 10.9569L14 10.5L13.7317 9.78269C13.5833 9.63691 13.4093 9.46844 13.2236 9.2935C12.9538 9.03928 12.6561 8.76826 12.3748 8.53246C12.1008 8.30276 11.8168 8.08463 11.5801 7.95503C11.1864 7.73944 10.8005 7.89918 10.5924 8.03362L9.56402 8.6978L9.55001 8.70831C8.9953 9.12434 8.53874 9.13984 8.17077 9.029C7.76988 8.90824 7.41547 8.61749 7.15016 8.32932C7.06735 8.23936 7.04335 8.06606 7.18715 7.90345C7.60515 7.43081 8.2571 6.72173 8.9385 6.08775C9.27928 5.77068 9.62132 5.47814 9.9404 5.24496C10.2657 5.00727 10.5398 4.85166 10.7472 4.78251C11.3708 4.57462 12.3921 4.40434 13.2909 4.28528C13.7334 4.22666 14.1347 4.18186 14.4254 4.15171C14.5707 4.13665 14.6881 4.12528 14.769 4.11769L14.8616 4.10916L14.8853 4.10706Z" fill="black"/><path d="M14.1274 10.1771C14.0773 10.1263 14.0057 10.0542 13.9178 9.96663C13.862 9.91108 13.7995 9.84925 13.7317 9.78269L14 10.5L13.4915 10.9569L16 10L16.2285 9.33984L16.5 9L16.2447 8.94558L16.2418 8.94828L16.2285 8.96065C16.2164 8.97187 16.1979 8.98886 16.1736 9.01068C16.1251 9.05436 16.0539 9.11711 15.9655 9.19142C15.7876 9.34087 15.5447 9.53301 15.2787 9.70998C15.0088 9.88959 14.7359 10.0396 14.4962 10.1205C14.31 10.1834 14.194 10.1881 14.1274 10.1771Z" fill="black"/><path fill-rule="evenodd" clip-rule="evenodd" d="M5.04698 5.06784L4.85 4.60828L4.65311 4.14868L4.69326 4.13152L4.80609 4.08353C4.9034 4.04225 5.04281 3.98334 5.21162 3.91268C5.54904 3.77144 6.00478 3.58285 6.47681 3.39404C6.9478 3.20564 7.43958 3.01518 7.84765 2.87116C8.05117 2.79933 8.23967 2.73698 8.39721 2.69197C8.53376 2.65295 8.70752 2.60828 8.85 2.60828C8.97965 2.60828 9.1168 2.63799 9.22981 2.66813C9.35173 2.70064 9.48589 2.74498 9.62244 2.79463C9.89597 2.8941 10.2048 3.02437 10.4906 3.15137C10.7777 3.27897 11.048 3.40618 11.2461 3.50126C11.3453 3.54888 11.4267 3.58861 11.4835 3.61653L11.5495 3.64909L11.5671 3.65784L11.5731 3.66079C11.8201 3.78429 11.9207 4.08489 11.7972 4.33188C11.6737 4.57887 11.3734 4.67898 11.1264 4.5555C11.1264 4.5555 11.1264 4.5555 11.1264 4.5555L11.1214 4.55298L11.1053 4.545L11.0426 4.51408C10.9881 4.48732 10.9094 4.44892 10.8133 4.40279C10.6208 4.31037 10.3598 4.18758 10.0844 4.06518C9.80769 3.94218 9.52279 3.82246 9.28069 3.73442C9.15943 3.69033 9.05531 3.65654 8.97215 3.63436C8.90071 3.61531 8.8638 3.61012 8.85301 3.60875C8.8519 3.60908 8.84911 3.60964 8.84447 3.61056C8.82468 3.61449 8.7713 3.6251 8.67193 3.65349C8.54237 3.69051 8.3754 3.74535 8.18047 3.81415C7.79167 3.95137 7.3147 4.13591 6.8482 4.32251C6.38273 4.5087 5.93221 4.69512 5.59776 4.83512C5.43063 4.90508 5.2927 4.96336 5.19664 5.00411L5.0856 5.05134L5.04698 5.06784ZM4.39043 4.80524C4.28165 4.55142 4.39929 4.25745 4.65311 4.14868L4.85 4.60828L5.04698 5.06784C4.79316 5.17662 4.49921 5.05905 4.39043 4.80524Z" fill="black"/><path fill-rule="evenodd" clip-rule="evenodd" d="M2.48668 8.76478C2.67639 8.56412 2.99285 8.55524 3.19351 8.74495L2.85001 9.10828L2.50651 9.47161C2.30585 9.2819 2.29697 8.96544 2.48668 8.76478ZM7.05681 12.1518L9.81974 13.1879C10.3705 13.3945 10.9912 13.26 11.4071 12.8441L13.4965 10.7547C13.6917 10.5595 14.0083 10.5595 14.2036 10.7547C14.3988 10.95 14.3988 11.2666 14.2036 11.4618L12.1142 13.5512C11.421 14.2444 10.3866 14.4685 9.46862 14.1243L6.64987 13.0672L6.6264 13.0555C6.49941 12.992 6.34336 12.88 6.19181 12.7635C6.03031 12.6393 5.84014 12.4834 5.63491 12.3094C5.22395 11.9611 4.73892 11.5292 4.27689 11.11C3.81423 10.6903 3.37178 10.2808 3.04519 9.97647C2.88183 9.82424 2.74732 9.69817 2.65358 9.6101L2.54501 9.50794L2.50651 9.47161L2.85001 9.10828L3.19351 8.74495L3.23095 8.78028L3.33831 8.8813C3.4312 8.96858 3.56472 9.09371 3.72695 9.2449C4.05154 9.54738 4.4905 9.95362 4.94879 10.3694C5.4077 10.7857 5.88314 11.209 6.28147 11.5466C6.48088 11.7156 6.65757 11.8602 6.80129 11.9707C6.93302 12.072 7.01616 12.1281 7.05681 12.1518Z" fill="black"/><path fill-rule="evenodd" clip-rule="evenodd" d="M3.66911 14.2878C3.84615 14.0759 4.16147 14.0476 4.37339 14.2246L5.33162 15.0251C5.54659 15.2047 5.80754 15.3205 6.08494 15.3594L7.32143 15.5329C7.5949 15.5712 7.78549 15.824 7.74713 16.0975C7.70878 16.3709 7.45599 16.5615 7.18253 16.5232L5.94603 16.3497C5.48371 16.2849 5.04878 16.0919 4.6905 15.7926L3.73227 14.9921C3.52035 14.815 3.49207 14.4997 3.66911 14.2878Z" fill="black"/></g></g></mask></defs><circle r="13" cx="13" cy="13" mask="url(#mask-pencil-handshake-circle-filled)" fill="currentColor"/></svg>