<svg width="20" height="20" viewBox="0 0 26 26" fill="none" xmlns="http://www.w3.org/2000/svg"><g transform="translate(3, 3)"><path fill-rule="evenodd" clip-rule="evenodd" d="M7.18289 3.71963C7.26187 2.75679 8.06833 2 9.05155 2C9.8763 2 10.5767 2.53251 10.8276 3.27246C11.1115 3.09958 11.4449 3 11.8015 3C12.8371 3 13.6765 3.83947 13.6765 4.875V5.08535C13.8329 5.03008 14.0012 5 14.1765 5H14.5515C15.5871 5 16.4265 5.83947 16.4265 6.875V11.4342C16.4294 11.4557 16.4308 11.4777 16.4308 11.5C16.4308 13.6357 15.625 15.2742 14.388 16.3737C13.1603 17.4651 11.5374 18 9.93084 18C6.66724 18 4.53747 15.8126 3.00822 13.2674C2.73214 12.8528 2.38587 12.2961 2.02954 11.7083C0.898091 9.84202 2.269 7.5031 4.42655 7.5V5.375C4.42655 4.33947 5.26601 3.5 6.30155 3.5C6.62013 3.5 6.92016 3.57946 7.18289 3.71963ZM7.17655 5.375C7.17655 4.89175 6.7848 4.5 6.30155 4.5C5.8183 4.5 5.42655 4.89175 5.42655 5.375V10C5.42655 10.2761 5.20269 10.5 4.92655 10.5C4.6504 10.5 4.42655 10.2761 4.42655 10V8.5C3.02444 8.50308 2.16959 10.0104 2.88466 11.1899C3.24192 11.7792 3.58194 12.3253 3.84686 12.7226L3.85346 12.7325L3.85959 12.7428C5.3299 15.1933 7.1988 17 9.93084 17C11.3243 17 12.7014 16.5349 13.7237 15.6263C14.7251 14.7361 15.4149 13.3954 15.4306 11.5637C15.4279 11.5428 15.4265 11.5216 15.4265 11.5V6.875C15.4265 6.39175 15.0348 6 14.5515 6H14.1765C13.9004 6 13.6765 6.22386 13.6765 6.5V7.5C13.6765 7.77614 13.4527 8 13.1765 8C12.9004 8 12.6765 7.77614 12.6765 7.5V4.875C12.6765 4.39175 12.2848 4 11.8015 4C11.3183 4 10.9265 4.39175 10.9265 4.875V7C10.9265 7.27614 10.7027 7.5 10.4265 7.5C10.1504 7.5 9.92655 7.27614 9.92655 7V3.875C9.92655 3.39175 9.5348 3 9.05155 3C8.5683 3 8.17655 3.39175 8.17655 3.875V7.5C8.17655 7.77614 7.95269 8 7.67655 8C7.4004 8 7.17655 7.77614 7.17655 7.5V5.375Z" fill="currentColor"/></g><path fill-rule="evenodd" clip-rule="evenodd" d="M13 24.5C19.3513 24.5 24.5 19.3513 24.5 13C24.5 6.64873 19.3513 1.5 13 1.5C6.64873 1.5 1.5 6.64873 1.5 13C1.5 19.3513 6.64873 24.5 13 24.5ZM13 25.5C19.9036 25.5 25.5 19.9036 25.5 13C25.5 6.09644 19.9036 0.5 13 0.5C6.09644 0.5 0.5 6.09644 0.5 13C0.5 19.9036 6.09644 25.5 13 25.5Z" fill="currentColor"/></svg>