<svg width="20" height="20" viewBox="0 0 20 20" fill="none" xmlns="http://www.w3.org/2000/svg"><path fill-rule="evenodd" clip-rule="evenodd" d="M4.65084 2.02502C4.65084 0.989491 5.4903 0.150024 6.52584 0.150024C7.56137 0.150024 8.40084 0.989491 8.40084 2.02502V4.86402C8.66101 4.72735 8.95724 4.65002 9.27155 4.65002C10.0967 4.65002 10.7973 5.18299 11.048 5.92344C11.332 5.74999 11.6658 5.65002 12.023 5.65002C13.0577 5.65002 13.8965 6.48883 13.8965 7.52355V7.73538C14.0529 7.6801 14.2212 7.65002 14.3965 7.65002H14.7715C15.8071 7.65002 16.6465 8.48949 16.6465 9.52502V13.0842C16.6494 13.1058 16.6508 13.1277 16.6508 13.15C16.6508 15.2905 15.8401 16.8168 14.5828 17.7947C13.3446 18.7578 11.7248 19.15 10.1508 19.15C8.56187 19.15 7.21614 18.7511 6.06671 18.0073C4.92551 17.2689 4.00378 16.2076 3.22823 14.9175C2.95216 14.5028 2.60588 13.9461 2.24954 13.3584C1.11734 11.4908 2.49081 9.15002 4.65084 9.15002L4.65084 2.02502ZM4.03217 14.4087C4.02962 14.4062 4.0273 14.4034 4.02526 14.4004C3.75973 14.0021 3.41926 13.4553 3.0619 12.8658C2.32541 11.651 3.20816 10.1 4.65083 10.1H4.70083L4.70083 11.65C4.70083 11.8985 4.90231 12.1 5.15083 12.1C5.39936 12.1 5.60083 11.8985 5.60083 11.65V2.02498C5.60083 1.51411 6.01497 1.09998 6.52583 1.09998C7.0367 1.09998 7.45083 1.51411 7.45083 2.02498L7.44655 9.14998C7.44656 9.39849 7.64803 9.59998 7.89655 9.59998C8.14507 9.59998 8.34655 9.3985 8.34655 9.14998V6.52781L8.34685 6.50123C8.35971 6.00178 8.76886 5.59998 9.27155 5.59998C9.78241 5.59998 10.1965 6.01411 10.1965 6.52498V8.74998C10.1965 8.9985 10.398 9.19998 10.6465 9.19998C10.8951 9.19998 11.0965 8.9985 11.0965 8.74998V8.20918C11.0991 8.1895 11.1009 8.16946 11.1008 8.14901L11.0995 7.52548C11.0984 7.01466 11.5122 6.59998 12.023 6.59998C12.5331 6.59998 12.9465 7.01345 12.9465 7.5235V9.64998C12.9465 9.8985 13.148 10.1 13.3965 10.1C13.6451 10.1 13.8465 9.8985 13.8465 9.64998V9.14998C13.8465 8.84622 14.0928 8.59998 14.3965 8.59998H14.7715C15.2824 8.59998 15.6965 9.01411 15.6965 9.52498V13.15C15.6965 13.1694 15.6978 13.1886 15.7002 13.2074L15.701 13.2141C15.6853 15.0519 14.9939 16.2714 13.9996 17.0448C12.9765 17.8405 11.5843 18.2 10.1508 18.2C8.7309 18.2 7.56706 17.8465 6.5828 17.2097C5.59384 16.5698 4.76256 15.6282 4.03671 14.4185C4.03481 14.4153 4.0333 14.412 4.03217 14.4087Z" fill="currentColor"/><path d="M1.15063 1.87794C0.94979 1.6771 0.94979 1.35147 1.15063 1.15063C1.35147 0.949789 1.6771 0.949789 1.87794 1.15063L18.8494 18.1221C19.0502 18.3229 19.0502 18.6485 18.8494 18.8494C18.6485 19.0502 18.3229 19.0502 18.1221 18.8494L1.15063 1.87794Z" fill="currentColor"/></svg>