<svg width="20" height="20" viewBox="0 0 20 20" fill="none" xmlns="http://www.w3.org/2000/svg"><path fill-rule="evenodd" clip-rule="evenodd" d="M3 7.74988C3 7.47374 3.22386 7.24988 3.5 7.24988H16.5C16.7761 7.24988 17 7.47374 17 7.74988C17 8.02602 16.7761 8.24988 16.5 8.24988H3.5C3.22386 8.24988 3 8.02602 3 7.74988Z" fill="currentColor"/><path fill-rule="evenodd" clip-rule="evenodd" d="M3 13.2499C3 12.9737 3.22386 12.7499 3.5 12.7499H16.5C16.7761 12.7499 17 12.9737 17 13.2499C17 13.526 16.7761 13.7499 16.5 13.7499H3.5C3.22386 13.7499 3 13.526 3 13.2499Z" fill="currentColor"/><path fill-rule="evenodd" clip-rule="evenodd" d="M7.79149 3.50163C8.06668 3.52457 8.27118 3.76624 8.24825 4.04143L7.24825 16.0414C7.22531 16.3166 6.98364 16.5211 6.70845 16.4982C6.43326 16.4752 6.22877 16.2336 6.2517 15.9584L7.2517 3.95838C7.27463 3.68319 7.51631 3.4787 7.79149 3.50163Z" fill="currentColor"/><path fill-rule="evenodd" clip-rule="evenodd" d="M13.2915 3.50163C13.5667 3.52457 13.7712 3.76624 13.7482 4.04143L12.7482 16.0414C12.7253 16.3166 12.4836 16.5211 12.2084 16.4982C11.9333 16.4752 11.7288 16.2336 11.7517 15.9584L12.7517 3.95838C12.7746 3.68319 13.0163 3.4787 13.2915 3.50163Z" fill="currentColor"/></svg>