<svg width="20" height="20" viewBox="0 0 20 20" fill="none" xmlns="http://www.w3.org/2000/svg"><path d="M17.4055 14.911C17.3185 15.1731 17.0356 15.3151 16.7735 15.2281C16.5114 15.1411 16.3694 14.8582 16.4564 14.5961C16.8135 13.5197 17 12.3598 17 11.166C17 6.44149 14.0285 3.25354 10 3.25354C5.9715 3.25354 3 6.44149 3 11.166C3 12.3598 3.18645 13.5197 3.54361 14.5961C3.63058 14.8582 3.48861 15.1411 3.22652 15.2281C2.96443 15.3151 2.68146 15.1731 2.5945 14.911C2.20355 13.7328 2 12.4665 2 11.166C2 5.9043 5.40289 2.25354 10 2.25354C14.5971 2.25354 18 5.9043 18 11.166C18 12.4665 17.7965 13.7328 17.4055 14.911Z" fill="currentColor"/><path d="M5.97747 17.034C4.32744 17.0027 3.01262 15.6444 3.03496 13.9942L3.03526 13.9719C3.05752 12.3274 4.40876 11.0122 6.05334 11.0345C6.06146 11.0346 6.06146 11.0346 6.06957 11.0347C6.61963 11.0452 7.05794 11.498 7.0505 12.0481L6.99636 16.0477C6.98886 16.6021 6.53178 17.0446 5.97747 17.034Z" fill="currentColor"/><path d="M14.0888 11.0001C15.7388 11.0315 17.0536 12.3898 17.0313 14.0399L17.031 14.0622C17.0087 15.7068 15.6575 17.022 14.0129 16.9997C14.0048 16.9996 14.0048 16.9996 13.9967 16.9994C13.4466 16.989 13.0083 16.5362 13.0158 15.9861L13.0699 11.9864C13.0774 11.4321 13.5345 10.9896 14.0888 11.0001Z" fill="currentColor"/><path d="M1.15063 1.87794C0.94979 1.6771 0.94979 1.35147 1.15063 1.15063C1.35147 0.949789 1.6771 0.949789 1.87794 1.15063L18.8494 18.1221C19.0502 18.3229 19.0502 18.6485 18.8494 18.8494C18.6485 19.0502 18.3229 19.0502 18.1221 18.8494L1.15063 1.87794Z" fill="currentColor"/></svg>