<svg width="20" height="20" viewBox="0 0 26 26" fill="none" xmlns="http://www.w3.org/2000/svg"><g transform="translate(3, 3)"><path fill-rule="evenodd" clip-rule="evenodd" d="M5.61805 4.61781C4.18483 4.96606 3 6.07144 3 7.9959C3 10.5602 5.16879 13.0686 10 15.4438C14.8312 13.0686 17 10.5602 17 7.9959C17 6.07144 15.8152 4.96606 14.3819 4.61782C12.9107 4.26035 11.2598 4.72076 10.4031 5.88827C10.3089 6.01663 10.1592 6.09246 10 6.09246C9.84078 6.09246 9.69108 6.01663 9.59689 5.88826C8.74017 4.72074 7.08928 4.26034 5.61805 4.61781ZM10 4.82706C8.80928 3.63625 6.96823 3.26065 5.38195 3.64609C3.56517 4.08752 2 5.54665 2 7.9959C2 11.2368 4.76619 14.028 9.78258 16.4503C9.91994 16.5166 10.0801 16.5166 10.2174 16.4503C15.2338 14.028 18 11.2368 18 7.9959C18 5.54665 16.4348 4.08753 14.6181 3.6461C13.0318 3.26067 11.1907 3.63627 10 4.82706Z" fill="currentColor"/></g><path fill-rule="evenodd" clip-rule="evenodd" d="M13 24.5C19.3513 24.5 24.5 19.3513 24.5 13C24.5 6.64873 19.3513 1.5 13 1.5C6.64873 1.5 1.5 6.64873 1.5 13C1.5 19.3513 6.64873 24.5 13 24.5ZM13 25.5C19.9036 25.5 25.5 19.9036 25.5 13C25.5 6.09644 19.9036 0.5 13 0.5C6.09644 0.5 0.5 6.09644 0.5 13C0.5 19.9036 6.09644 25.5 13 25.5Z" fill="currentColor"/></svg>