<svg width="20" height="20" viewBox="0 0 20 20" fill="none" xmlns="http://www.w3.org/2000/svg"><path fill-rule="evenodd" clip-rule="evenodd" d="M10 4.54278C8.75061 3.56391 7.03541 3.29804 5.56788 3.64825C3.67781 4.0993 2 5.62083 2 8.16289C2 11.4889 4.88008 14.1786 9.57149 16.4035C9.84269 16.5322 10.1573 16.5322 10.4285 16.4035C15.1199 14.1786 18 11.4889 18 8.16289C18 5.62083 16.3222 4.09931 14.4321 3.64826C12.9646 3.29806 11.2494 3.56392 10 4.54278Z" fill="currentColor"/><path d="M1.15063 1.87794C0.94979 1.6771 0.94979 1.35147 1.15063 1.15063C1.35147 0.949789 1.6771 0.949789 1.87794 1.15063L18.8494 18.1221C19.0502 18.3229 19.0502 18.6485 18.8494 18.8494C18.6485 19.0502 18.3229 19.0502 18.1221 18.8494L1.15063 1.87794Z" fill="currentColor"/></svg>