<svg width="20" height="20" viewBox="0 0 26 26" fill="none" xmlns="http://www.w3.org/2000/svg"><defs><mask id="mask-pencil-hourglass-circle-filled"><rect width="26" height="26" fill="white"/><g transform="translate(3, 3)"><path fill-rule="evenodd" clip-rule="evenodd" d="M12.9605 3H7.03949C6.74001 3 6.58929 3.22714 6.6115 3.41953C6.72626 4.4134 6.94003 5.55301 7.29767 6.28155C7.77541 7.25472 8.92594 8.34847 9.79535 9.07066C9.91836 9.17284 10.0817 9.17284 10.2047 9.07066C11.0741 8.34847 12.2246 7.25472 12.7023 6.28155C13.06 5.55301 13.2738 4.41341 13.3885 3.41953C13.4107 3.22714 13.26 3 12.9605 3ZM7.03949 2C6.1958 2 5.52133 2.69612 5.6181 3.53424C5.73417 4.53949 5.96104 5.82803 6.40001 6.72222C6.9813 7.90634 8.28767 9.11828 9.15638 9.83989C9.64981 10.2498 10.3502 10.2498 10.8436 9.83989C11.7123 9.11828 13.0187 7.90634 13.6 6.72222C14.039 5.82803 14.2658 4.53949 14.3819 3.53424C14.4787 2.69612 13.8042 2 12.9605 2H7.03949Z" fill="black"/><path fill-rule="evenodd" clip-rule="evenodd" d="M7.03948 17H12.9605C13.26 17 13.4107 16.7729 13.3885 16.5805C13.2737 15.5866 13.06 14.447 12.7023 13.7185C12.2246 12.7453 11.0741 11.6515 10.2046 10.9293C10.0816 10.8272 9.91835 10.8272 9.79534 10.9293C8.92592 11.6515 7.7754 12.7453 7.29766 13.7185C6.94002 14.447 6.72625 15.5866 6.61149 16.5805C6.58928 16.7729 6.74 17 7.03948 17ZM12.9605 18C13.8042 18 14.4787 17.3039 14.3819 16.4658C14.2658 15.4605 14.039 14.172 13.6 13.2778C13.0187 12.0937 11.7123 10.8817 10.8436 10.1601C10.3502 9.75023 9.64979 9.75023 9.15636 10.1601C8.28765 10.8817 6.98129 12.0937 6.39999 13.2778C5.96103 14.172 5.73416 15.4605 5.61809 16.4658C5.52132 17.3039 6.19579 18 7.03948 18H12.9605Z" fill="black"/><path fill-rule="evenodd" clip-rule="evenodd" d="M4 2.5C4 2.22386 4.22386 2 4.5 2H15.5C15.7761 2 16 2.22386 16 2.5C16 2.77614 15.7761 3 15.5 3H4.5C4.22386 3 4 2.77614 4 2.5Z" fill="black"/><path fill-rule="evenodd" clip-rule="evenodd" d="M4 17.5C4 17.2239 4.22386 17 4.5 17H15.5C15.7761 17 16 17.2239 16 17.5C16 17.7761 15.7761 18 15.5 18H4.5C4.22386 18 4 17.7761 4 17.5Z" fill="black"/></g></mask></defs><circle r="13" cx="13" cy="13" mask="url(#mask-pencil-hourglass-circle-filled)" fill="currentColor"/></svg>