<svg width="20" height="20" viewBox="0 0 20 20" fill="none" xmlns="http://www.w3.org/2000/svg"><g><path fill-rule="evenodd" clip-rule="evenodd" d="M0.999997 10H2.38889V17C2.38889 17.2761 2.61274 17.5 2.88889 17.5H16.1111C16.3873 17.5 16.6111 17.2761 16.6111 17V10H18C18.4607 10 18.6762 9.42986 18.3308 9.12508L9.83081 1.62508C9.6418 1.45831 9.3582 1.45831 9.16919 1.62508L0.669186 9.12508C0.323766 9.42986 0.539337 10 0.999997 10ZM2.88889 9H2.32238L9.5 2.66681L16.6776 9H16.1111C15.835 9 15.6111 9.22386 15.6111 9.5V16.5H3.38889V9.5C3.38889 9.22386 3.16503 9 2.88889 9Z" fill="currentColor"/><path fill-rule="evenodd" clip-rule="evenodd" d="M10.7083 11.5H8.20833C7.65604 11.5 7.20833 11.9477 7.20833 12.5V16.5C7.20833 17.0523 7.65604 17.5 8.20833 17.5H10.7083C11.2606 17.5 11.7083 17.0523 11.7083 16.5V12.5C11.7083 11.9477 11.2606 11.5 10.7083 11.5ZM8.20833 16.5V12.5H10.7083V16.5H8.20833Z" fill="currentColor"/></g><path d="M1.15063 1.87794C0.94979 1.6771 0.94979 1.35147 1.15063 1.15063C1.35147 0.949789 1.6771 0.949789 1.87794 1.15063L18.8494 18.1221C19.0502 18.3229 19.0502 18.6485 18.8494 18.8494C18.6485 19.0502 18.3229 19.0502 18.1221 18.8494L1.15063 1.87794Z" fill="currentColor"/></svg>