<svg width="20" height="20" viewBox="0 0 26 26" fill="none" xmlns="http://www.w3.org/2000/svg"><defs><mask id="mask-pencil-info-circle-filled"><rect width="26" height="26" fill="white"/><g transform="translate(3, 3)"><path fill-rule="evenodd" clip-rule="evenodd" d="M10.25 7.75C10.6642 7.75 11 8.08579 11 8.5V17.5C11 17.9142 10.6642 18.25 10.25 18.25C9.83579 18.25 9.5 17.9142 9.5 17.5V8.5C9.5 8.08579 9.83579 7.75 10.25 7.75Z" fill="black"/><path d="M11.5 4.25C11.5 4.94036 10.9404 5.5 10.25 5.5C9.55964 5.5 9 4.94036 9 4.25C9 3.55964 9.55964 3 10.25 3C10.9404 3 11.5 3.55964 11.5 4.25Z" fill="black"/></g></mask></defs><circle r="13" cx="13" cy="13" mask="url(#mask-pencil-info-circle-filled)" fill="currentColor"/></svg>