<svg width="20" height="20" viewBox="0 0 20 20" fill="none" xmlns="http://www.w3.org/2000/svg"><path fill-rule="evenodd" clip-rule="evenodd" d="M12.5 11.6111V9C12.5 8.91628 12.4959 8.83304 12.4877 8.75051C13.7286 7.92679 14.5 6.53091 14.5 5C14.5 2.51472 12.4853 0.5 10 0.5C7.51472 0.5 5.5 2.51472 5.5 5C5.5 6.53091 6.27138 7.92679 7.51233 8.75051C7.50413 8.83304 7.5 8.91628 7.5 9V17C7.5 18.3807 8.61929 19.5 10 19.5C11.3807 19.5 12.5 18.3807 12.5 17C12.5 16.8505 12.4331 16.7089 12.3177 16.6139L11.5323 15.9677L12.2483 15.558C12.404 15.4689 12.5 15.3033 12.5 15.124V14.3488C12.5 14.2164 12.4475 14.0895 12.3541 13.9958L11.3562 12.9949L12.3592 11.9589C12.4495 11.8656 12.5 11.7409 12.5 11.6111ZM11.4529 8.625C11.484 8.74626 11.5 8.87186 11.5 9V11.4087L10.296 12.6522C10.1063 12.8481 10.1086 13.1599 10.3012 13.353L11.5 14.5555V14.834L10.4069 15.4595C10.1032 15.6332 10.0674 16.0572 10.3375 16.2795L11.4836 17.2226C11.3761 17.9455 10.7528 18.5 10 18.5C9.17157 18.5 8.5 17.8284 8.5 17V9C8.5 8.87186 8.51595 8.74626 8.54713 8.625C8.60381 8.40454 8.50444 8.17362 8.30537 8.06323C7.20003 7.45024 6.5 6.28681 6.5 5C6.5 3.067 8.067 1.5 10 1.5C11.933 1.5 13.5 3.067 13.5 5C13.5 6.28681 12.8 7.45024 11.6946 8.06323C11.4956 8.17362 11.3962 8.40454 11.4529 8.625Z" fill="currentColor"/><path fill-rule="evenodd" clip-rule="evenodd" d="M10 5.5C10.8284 5.5 11.5 4.82843 11.5 4C11.5 3.17157 10.8284 2.5 10 2.5C9.17157 2.5 8.5 3.17157 8.5 4C8.5 4.82843 9.17157 5.5 10 5.5ZM10 3.5C10.2761 3.5 10.5 3.72386 10.5 4C10.5 4.27614 10.2761 4.5 10 4.5C9.72386 4.5 9.5 4.27614 9.5 4C9.5 3.72386 9.72386 3.5 10 3.5Z" fill="currentColor"/><path d="M1.15063 1.87794C0.94979 1.6771 0.94979 1.35147 1.15063 1.15063C1.35147 0.949789 1.6771 0.949789 1.87794 1.15063L18.8494 18.1221C19.0502 18.3229 19.0502 18.6485 18.8494 18.8494C18.6485 19.0502 18.3229 19.0502 18.1221 18.8494L1.15063 1.87794Z" fill="currentColor"/></svg>