<svg width="20" height="20" viewBox="0 0 26 26" fill="none" xmlns="http://www.w3.org/2000/svg"><g transform="translate(3, 3)"><path fill-rule="evenodd" clip-rule="evenodd" d="M14.2791 1.05145C12.1208 2.11457 11 3.61133 11 5.50647C11 7.32619 12.0372 8.557 14 9.13733V11C14 11.2761 14.2239 11.5 14.5 11.5C14.7761 11.5 15 11.2761 15 11V8.76362C15.0002 8.75649 15.0002 8.74939 15 8.74231V1.49999C15 1.1296 14.6113 0.88779 14.2791 1.05145ZM12 5.50647C12 4.23782 12.6491 3.19236 14 2.34771V8.08786C12.6365 7.61052 12 6.7667 12 5.50647Z" fill="currentColor"/><path fill-rule="evenodd" clip-rule="evenodd" d="M13 12.5V17.5C13 18.3284 13.6716 19 14.5 19C15.3284 19 16 18.3284 16 17.5V12.5C16 11.6716 15.3284 11 14.5 11C13.6716 11 13 11.6716 13 12.5ZM14.5 18C14.2239 18 14 17.7761 14 17.5V12.5C14 12.2239 14.2239 12 14.5 12C14.7761 12 15 12.2239 15 12.5V17.5C15 17.7761 14.7761 18 14.5 18Z" fill="currentColor"/><path d="M4.53241 2.47505C4.54619 2.19925 4.78094 1.98684 5.05674 2.00062C5.33253 2.0144 5.54494 2.24915 5.53116 2.52495C5.44761 4.19727 5.53481 5.33547 5.76872 5.89937C5.95181 6.34075 6.31286 6.53348 6.97128 6.49561C7.24697 6.47975 7.48331 6.69038 7.49917 6.96607C7.51503 7.24175 7.3044 7.4781 7.02872 7.49396C5.97051 7.55483 5.20281 7.14501 4.84504 6.28253C4.53809 5.54257 4.44189 4.2868 4.53241 2.47505Z" fill="currentColor"/><path d="M9.46744 2.47505C9.45366 2.19925 9.21891 1.98684 8.94311 2.00062C8.66731 2.0144 8.45491 2.24915 8.46868 2.52495C8.55224 4.19727 8.46504 5.33547 8.23113 5.89937C8.04803 6.34075 7.68699 6.53348 7.02856 6.49561C6.75288 6.47975 6.51653 6.69038 6.50067 6.96607C6.48481 7.24175 6.69545 7.4781 6.97113 7.49396C8.02933 7.55483 8.79704 7.14501 9.15481 6.28253C9.46175 5.54257 9.55796 4.2868 9.46744 2.47505Z" fill="currentColor"/><path d="M6.5 2.5C6.5 2.22386 6.72386 2 7 2C7.27614 2 7.5 2.22386 7.5 2.5V11.4998C7.5 11.7759 7.27614 11.9998 7 11.9998C6.72386 11.9998 6.5 11.7759 6.5 11.4998V2.5Z" fill="currentColor"/><path fill-rule="evenodd" clip-rule="evenodd" d="M5.5 12.5V17.5C5.5 18.3284 6.17157 19 7 19C7.82843 19 8.5 18.3284 8.5 17.5V12.5C8.5 11.6716 7.82843 11 7 11C6.17157 11 5.5 11.6716 5.5 12.5ZM7 18C6.72386 18 6.5 17.7761 6.5 17.5V12.5C6.5 12.2239 6.72386 12 7 12C7.27614 12 7.5 12.2239 7.5 12.5V17.5C7.5 17.7761 7.27614 18 7 18Z" fill="currentColor"/><path d="M1.15063 1.87794C0.94979 1.6771 0.94979 1.35147 1.15063 1.15063C1.35147 0.949789 1.6771 0.949789 1.87794 1.15063L18.8494 18.1221C19.0502 18.3229 19.0502 18.6485 18.8494 18.8494C18.6485 19.0502 18.3229 19.0502 18.1221 18.8494L1.15063 1.87794Z" fill="currentColor"/></g><path fill-rule="evenodd" clip-rule="evenodd" d="M13 24.5C19.3513 24.5 24.5 19.3513 24.5 13C24.5 6.64873 19.3513 1.5 13 1.5C6.64873 1.5 1.5 6.64873 1.5 13C1.5 19.3513 6.64873 24.5 13 24.5ZM13 25.5C19.9036 25.5 25.5 19.9036 25.5 13C25.5 6.09644 19.9036 0.5 13 0.5C6.09644 0.5 0.5 6.09644 0.5 13C0.5 19.9036 6.09644 25.5 13 25.5Z" fill="currentColor"/></svg>