<svg width="20" height="20" viewBox="0 0 26 26" fill="none" xmlns="http://www.w3.org/2000/svg"><g transform="translate(3, 3)"><g><path fill-rule="evenodd" clip-rule="evenodd" d="M2.624 7.95368C3.19136 10.1577 4.38717 12.4282 5.78605 13.8271C7.69859 15.7396 9.55595 16.4924 11.1327 16.5527C12.7042 16.6127 14.0994 15.9893 15.1206 14.9652C15.5812 14.5033 15.8766 13.8346 16.0017 13.0042C16.1262 12.1777 16.0763 11.2257 15.8835 10.2382C15.1465 6.46252 11.6336 3.4612 7.29498 2.40502C5.37084 1.93661 3.90285 2.01392 3.10063 2.81841C2.65263 3.26769 2.37685 3.97365 2.29832 4.8889C2.22052 5.79567 2.34128 6.85545 2.624 7.95368ZM1.22768 4.84382C1.31446 3.8324 1.62733 2.89667 2.29198 2.23012C3.56352 0.954972 5.66105 1.04413 7.61149 1.51893C12.2823 2.65598 16.1296 5.89995 16.9424 10.0646C17.1473 11.1141 17.2079 12.16 17.0663 13.1001C16.9253 14.0364 16.5778 14.9031 15.9293 15.5535C14.7251 16.761 13.019 17.5473 11.0586 17.4724C9.10351 17.3977 6.99854 16.4708 4.96387 14.4362C3.4256 12.8979 2.16941 10.4805 1.57541 8.17308C1.27744 7.01557 1.14018 5.86371 1.22768 4.84382Z" fill="currentColor"/><path fill-rule="evenodd" clip-rule="evenodd" d="M11.105 6.91237C11.3977 6.95536 11.5941 7.19285 11.5438 7.44282L11.0329 9.97975L13.4424 12.7385L14.9603 14.7624L16.9672 17.7728C17.1141 17.9932 17.0241 18.2736 16.766 18.3991C16.508 18.5246 16.1797 18.4477 16.0327 18.2273L14.0397 15.2377L12.6781 13.4222L8.67617 12.8938C8.3827 12.8551 8.18158 12.6205 8.22695 12.3698C8.27231 12.1191 8.54699 11.9474 8.84045 11.9861L11.7829 12.3746L10.0559 10.3972L6.13578 7.03712C5.92618 6.85746 5.92677 6.56668 6.13711 6.38764C6.34745 6.20861 6.68789 6.20912 6.89749 6.38878L10.1103 9.14263L10.484 7.28712C10.5343 7.03715 10.8124 6.86937 11.105 6.91237Z" fill="currentColor"/></g><defs><clipPath id="clip0_2608_819"><rect width="20" height="20" fill="white" transform="matrix(0 1 -1 0 20 0)"/></clipPath></defs></g><path fill-rule="evenodd" clip-rule="evenodd" d="M13 24.5C19.3513 24.5 24.5 19.3513 24.5 13C24.5 6.64873 19.3513 1.5 13 1.5C6.64873 1.5 1.5 6.64873 1.5 13C1.5 19.3513 6.64873 24.5 13 24.5ZM13 25.5C19.9036 25.5 25.5 19.9036 25.5 13C25.5 6.09644 19.9036 0.5 13 0.5C6.09644 0.5 0.5 6.09644 0.5 13C0.5 19.9036 6.09644 25.5 13 25.5Z" fill="currentColor"/></svg>