<svg width="20" height="20" viewBox="0 0 20 20" fill="none" xmlns="http://www.w3.org/2000/svg"><path fill-rule="evenodd" clip-rule="evenodd" d="M15.3465 7.11588C15.5587 6.93909 15.874 6.96776 16.0507 7.1799L18.1341 9.6799C18.3109 9.89203 18.2822 10.2073 18.0701 10.3841C17.8579 10.5609 17.5426 10.5322 17.3659 10.3201L15.2825 7.82008C15.1057 7.60794 15.1344 7.29266 15.3465 7.11588Z" fill="currentColor"/><path fill-rule="evenodd" clip-rule="evenodd" d="M15.3465 12.8841C15.1344 12.7073 15.1057 12.392 15.2825 12.1799L17.3659 9.6799C17.5426 9.46776 17.8579 9.43909 18.0701 9.61588C18.2822 9.79266 18.3109 10.1079 18.1341 10.3201L16.0507 12.8201C15.874 13.0322 15.5587 13.0609 15.3465 12.8841Z" fill="currentColor"/><path fill-rule="evenodd" clip-rule="evenodd" d="M17.5 10C17.5 10.2761 17.2761 10.5 17 10.5L9.5 10.5C9.22386 10.5 9 10.2761 9 10C9 9.72386 9.22386 9.5 9.5 9.5L17 9.5C17.2761 9.5 17.5 9.72386 17.5 10Z" fill="currentColor"/><path fill-rule="evenodd" clip-rule="evenodd" d="M3.5 3C3.5 2.72386 3.72386 2.5 4 2.5L13 2.5C13.2761 2.5 13.5 2.72386 13.5 3C13.5 3.27614 13.2761 3.5 13 3.5L4 3.5C3.72386 3.5 3.5 3.27614 3.5 3Z" fill="currentColor"/><path fill-rule="evenodd" clip-rule="evenodd" d="M3.5 17C3.5 16.7239 3.72386 16.5 4 16.5H13C13.2761 16.5 13.5 16.7239 13.5 17C13.5 17.2761 13.2761 17.5 13 17.5H4C3.72386 17.5 3.5 17.2761 3.5 17Z" fill="currentColor"/><path fill-rule="evenodd" clip-rule="evenodd" d="M13 2.5C13.2761 2.5 13.5 2.72386 13.5 3V7C13.5 7.27614 13.2761 7.5 13 7.5C12.7239 7.5 12.5 7.27614 12.5 7V3C12.5 2.72386 12.7239 2.5 13 2.5Z" fill="currentColor"/><path fill-rule="evenodd" clip-rule="evenodd" d="M13 12.5C13.2761 12.5 13.5 12.7239 13.5 13V17C13.5 17.2761 13.2761 17.5 13 17.5C12.7239 17.5 12.5 17.2761 12.5 17V13C12.5 12.7239 12.7239 12.5 13 12.5Z" fill="currentColor"/><path fill-rule="evenodd" clip-rule="evenodd" d="M4 2.5C4.27614 2.5 4.5 2.72386 4.5 3L4.5 17C4.5 17.2761 4.27614 17.5 4 17.5C3.72386 17.5 3.5 17.2761 3.5 17L3.5 3C3.5 2.72386 3.72386 2.5 4 2.5Z" fill="currentColor"/><path d="M1.15063 1.87794C0.94979 1.6771 0.94979 1.35147 1.15063 1.15063C1.35147 0.949789 1.6771 0.949789 1.87794 1.15063L18.8494 18.1221C19.0502 18.3229 19.0502 18.6485 18.8494 18.8494C18.6485 19.0502 18.3229 19.0502 18.1221 18.8494L1.15063 1.87794Z" fill="currentColor"/></svg>