<svg width="20" height="20" viewBox="0 0 26 26" fill="none" xmlns="http://www.w3.org/2000/svg"><defs><mask id="mask-pencil-letter-circle-filled"><rect width="26" height="26" fill="white"/><g transform="translate(3, 3)"><path fill-rule="evenodd" clip-rule="evenodd" d="M17 4H3C2.72386 4 2.5 4.22386 2.5 4.5V15.5C2.5 15.7761 2.72386 16 3 16H17C17.2761 16 17.5 15.7761 17.5 15.5V4.5C17.5 4.22386 17.2761 4 17 4ZM3.5 15V5H16.5V15H3.5Z" fill="black"/><path fill-rule="evenodd" clip-rule="evenodd" d="M17.3242 4.88066L10.2792 10.8807C10.0914 11.0406 9.81512 11.0397 9.62838 10.8786L2.6734 4.87859C2.32251 4.57588 2.53659 4 3 4H17C17.465 4 17.6782 4.57917 17.3242 4.88066ZM15.6418 5H4.34504L9.95708 9.84146L15.6418 5Z" fill="black"/></g></mask></defs><circle r="13" cx="13" cy="13" mask="url(#mask-pencil-letter-circle-filled)" fill="currentColor"/></svg>