<svg width="20" height="20" viewBox="0 0 20 20" fill="none" xmlns="http://www.w3.org/2000/svg"><g><path fill-rule="evenodd" clip-rule="evenodd" d="M0.454003 0.454017C0.649265 0.258755 0.965847 0.258755 1.16111 0.454017L19.5459 18.8388C19.7411 19.0341 19.7411 19.3506 19.5459 19.5459C19.3506 19.7412 19.034 19.7412 18.8388 19.5459L0.454003 1.16112C0.258741 0.965862 0.258741 0.649279 0.454003 0.454017Z" fill="currentColor"/></g><path d="M1.15063 1.87794C0.94979 1.6771 0.94979 1.35147 1.15063 1.15063C1.35147 0.949789 1.6771 0.949789 1.87794 1.15063L18.8494 18.1221C19.0502 18.3229 19.0502 18.6485 18.8494 18.8494C18.6485 19.0502 18.3229 19.0502 18.1221 18.8494L1.15063 1.87794Z" fill="currentColor"/></svg>