<svg width="20" height="20" viewBox="0 0 26 26" fill="none" xmlns="http://www.w3.org/2000/svg"><defs><mask id="mask-pencil-list-circle-filled"><rect width="26" height="26" fill="white"/><g transform="translate(3, 3)"><path d="M6.5 6C6.5 6.82843 5.82843 7.5 5 7.5C4.17157 7.5 3.5 6.82843 3.5 6C3.5 5.17157 4.17157 4.5 5 4.5C5.82843 4.5 6.5 5.17157 6.5 6Z" fill="black"/><path d="M6.5 10C6.5 10.8284 5.82843 11.5 5 11.5C4.17157 11.5 3.5 10.8284 3.5 10C3.5 9.17157 4.17157 8.5 5 8.5C5.82843 8.5 6.5 9.17157 6.5 10Z" fill="black"/><path d="M6.5 14C6.5 14.8284 5.82843 15.5 5 15.5C4.17157 15.5 3.5 14.8284 3.5 14C3.5 13.1716 4.17157 12.5 5 12.5C5.82843 12.5 6.5 13.1716 6.5 14Z" fill="black"/><path fill-rule="evenodd" clip-rule="evenodd" d="M7.5 6.5C7.5 6.22386 7.72386 6 8 6H16C16.2761 6 16.5 6.22386 16.5 6.5C16.5 6.77614 16.2761 7 16 7H8C7.72386 7 7.5 6.77614 7.5 6.5Z" fill="black"/><path fill-rule="evenodd" clip-rule="evenodd" d="M7.5 10.5C7.5 10.2239 7.72386 10 8 10H16C16.2761 10 16.5 10.2239 16.5 10.5C16.5 10.7761 16.2761 11 16 11H8C7.72386 11 7.5 10.7761 7.5 10.5Z" fill="black"/><path fill-rule="evenodd" clip-rule="evenodd" d="M7.5 14.5C7.5 14.2239 7.72386 14 8 14H16C16.2761 14 16.5 14.2239 16.5 14.5C16.5 14.7761 16.2761 15 16 15H8C7.72386 15 7.5 14.7761 7.5 14.5Z" fill="black"/></g></mask></defs><circle r="13" cx="13" cy="13" mask="url(#mask-pencil-list-circle-filled)" fill="currentColor"/></svg>