<svg width="20" height="20" viewBox="0 0 20 20" fill="none" xmlns="http://www.w3.org/2000/svg"><path d="M6.5 6C6.5 6.82843 5.82843 7.5 5 7.5C4.17157 7.5 3.5 6.82843 3.5 6C3.5 5.17157 4.17157 4.5 5 4.5C5.82843 4.5 6.5 5.17157 6.5 6Z" fill="currentColor"/><path d="M6.5 10C6.5 10.8284 5.82843 11.5 5 11.5C4.17157 11.5 3.5 10.8284 3.5 10C3.5 9.17157 4.17157 8.5 5 8.5C5.82843 8.5 6.5 9.17157 6.5 10Z" fill="currentColor"/><path d="M6.5 14C6.5 14.8284 5.82843 15.5 5 15.5C4.17157 15.5 3.5 14.8284 3.5 14C3.5 13.1716 4.17157 12.5 5 12.5C5.82843 12.5 6.5 13.1716 6.5 14Z" fill="currentColor"/><path fill-rule="evenodd" clip-rule="evenodd" d="M7.5 6.5C7.5 6.22386 7.72386 6 8 6H16C16.2761 6 16.5 6.22386 16.5 6.5C16.5 6.77614 16.2761 7 16 7H8C7.72386 7 7.5 6.77614 7.5 6.5Z" fill="currentColor"/><path fill-rule="evenodd" clip-rule="evenodd" d="M7.5 10.5C7.5 10.2239 7.72386 10 8 10H16C16.2761 10 16.5 10.2239 16.5 10.5C16.5 10.7761 16.2761 11 16 11H8C7.72386 11 7.5 10.7761 7.5 10.5Z" fill="currentColor"/><path fill-rule="evenodd" clip-rule="evenodd" d="M7.5 14.5C7.5 14.2239 7.72386 14 8 14H16C16.2761 14 16.5 14.2239 16.5 14.5C16.5 14.7761 16.2761 15 16 15H8C7.72386 15 7.5 14.7761 7.5 14.5Z" fill="currentColor"/><path d="M1.15063 1.87794C0.94979 1.6771 0.94979 1.35147 1.15063 1.15063C1.35147 0.949789 1.6771 0.949789 1.87794 1.15063L18.8494 18.1221C19.0502 18.3229 19.0502 18.6485 18.8494 18.8494C18.6485 19.0502 18.3229 19.0502 18.1221 18.8494L1.15063 1.87794Z" fill="currentColor"/></svg>