<svg width="20" height="20" viewBox="0 0 20 20" fill="none" xmlns="http://www.w3.org/2000/svg"><path fill-rule="evenodd" clip-rule="evenodd" d="M7.5 12.5C7.5 13.6046 8.39543 14.5 9.5 14.5C10.6046 14.5 11.5 13.6046 11.5 12.5C11.5 11.3954 10.6046 10.5 9.5 10.5C8.39543 10.5 7.5 11.3954 7.5 12.5ZM10.5 12.5C10.5 13.0523 10.0523 13.5 9.5 13.5C8.94772 13.5 8.5 13.0523 8.5 12.5C8.5 11.9477 8.94772 11.5 9.5 11.5C10.0523 11.5 10.5 11.9477 10.5 12.5Z" fill="currentColor"/><path fill-rule="evenodd" clip-rule="evenodd" d="M12 7.5H7C5.067 7.5 3.5 9.067 3.5 11V14C3.5 15.933 5.067 17.5 7 17.5H12C13.933 17.5 15.5 15.933 15.5 14V11C15.5 9.067 13.933 7.5 12 7.5ZM4.5 11C4.5 9.61929 5.61929 8.5 7 8.5H12C13.3807 8.5 14.5 9.61929 14.5 11V14C14.5 15.3807 13.3807 16.5 12 16.5H7C5.61929 16.5 4.5 15.3807 4.5 14V11Z" fill="currentColor"/><path d="M7 8C7 8.27614 6.77614 8.5 6.5 8.5C6.22386 8.5 6 8.27614 6 8V4.5C6 2.567 7.567 1 9.5 1C11.433 1 13 2.567 13 4.5V5.5C13 5.77614 12.7761 6 12.5 6C12.2239 6 12 5.77614 12 5.5V4.5C12 3.11929 10.8807 2 9.5 2C8.11929 2 7 3.11929 7 4.5V8Z" fill="currentColor"/></svg>