<svg width="20" height="20" viewBox="0 0 20 20" fill="none" xmlns="http://www.w3.org/2000/svg"><path fill-rule="evenodd" clip-rule="evenodd" d="M5.18199 5.18193C3.0341 7.32982 3.0341 10.8122 5.18199 12.9601C7.32987 15.108 10.8123 15.108 12.9602 12.9601C15.108 10.8122 15.108 7.32982 12.9602 5.18193C10.8123 3.03405 7.32987 3.03405 5.18199 5.18193ZM12.2531 12.253C10.4957 14.0104 7.64645 14.0104 5.88909 12.253C4.13174 10.4956 4.13174 7.6464 5.88909 5.88904C7.64645 4.13168 10.4957 4.13168 12.2531 5.88904C14.0104 7.6464 14.0104 10.4956 12.2531 12.253Z" fill="currentColor"/><path d="M12 14.1213C11.6095 13.7308 11.6095 13.0976 12 12.7071C12.3905 12.3166 13.0237 12.3166 13.4142 12.7071L17.2028 16.4957C17.5933 16.8862 17.5933 17.5193 17.2028 17.9099C16.8123 18.3004 16.1791 18.3004 15.7886 17.9099L12 14.1213Z" fill="currentColor"/><path d="M7.20712 9.66418C6.93098 9.66418 6.70712 9.44033 6.70712 9.16418C6.70712 8.88804 6.93098 8.66418 7.20712 8.66418H11.2071C11.4833 8.66418 11.7071 8.88804 11.7071 9.16418C11.7071 9.44033 11.4833 9.66418 11.2071 9.66418H7.20712Z" fill="currentColor"/><path d="M8.70712 7.16418C8.70712 6.88804 8.93098 6.66418 9.20712 6.66418C9.48327 6.66418 9.70712 6.88804 9.70712 7.16418V11.1642C9.70712 11.4403 9.48327 11.6642 9.20712 11.6642C8.93098 11.6642 8.70712 11.4403 8.70712 11.1642V7.16418Z" fill="currentColor"/></svg>