<svg width="20" height="20" viewBox="0 0 26 26" fill="none" xmlns="http://www.w3.org/2000/svg"><defs><mask id="e0pq72or79if5lirw79mdc"><rect width="26" height="26" fill="white"/><g transform="translate(3, 3)"><path fill-rule="evenodd" clip-rule="evenodd" d="M4.82842 4.82838C2.8758 6.781 2.8758 9.94683 4.82842 11.8994C6.78104 13.8521 9.94686 13.8521 11.8995 11.8994C13.8521 9.94683 13.8521 6.781 11.8995 4.82838C9.94687 2.87576 6.78104 2.87576 4.82842 4.82838ZM11.1924 11.1923C9.63028 12.7544 7.09762 12.7544 5.53553 11.1923C3.97343 9.63024 3.97343 7.09758 5.53553 5.53549C7.09762 3.97339 9.63028 3.97339 11.1924 5.53549C12.7545 7.09758 12.7545 9.63024 11.1924 11.1923Z" fill="black"/><path d="M11.1924 12.6274C10.8019 12.2369 10.8019 11.6037 11.1924 11.2132C11.583 10.8227 12.2161 10.8227 12.6066 11.2132L15.4351 14.0416C15.8256 14.4321 15.8256 15.0653 15.4351 15.4558C15.0445 15.8463 14.4114 15.8463 14.0209 15.4558L11.1924 12.6274Z" fill="black"/></g></mask></defs><circle r="13" cx="13" cy="13" mask="url(#e0pq72or79if5lirw79mdc)" fill="currentColor"/></svg>