<svg width="20" height="20" viewBox="0 0 26 26" fill="none" xmlns="http://www.w3.org/2000/svg"><g transform="translate(3, 3)"><path fill-rule="evenodd" clip-rule="evenodd" d="M5.18199 5.18193C3.0341 7.32982 3.0341 10.8122 5.18199 12.9601C7.32987 15.108 10.8123 15.108 12.9602 12.9601C15.108 10.8122 15.108 7.32982 12.9602 5.18193C10.8123 3.03405 7.32987 3.03405 5.18199 5.18193ZM12.2531 12.253C10.4957 14.0104 7.64645 14.0104 5.88909 12.253C4.13174 10.4956 4.13174 7.6464 5.88909 5.88904C7.64645 4.13168 10.4957 4.13168 12.2531 5.88904C14.0104 7.6464 14.0104 10.4956 12.2531 12.253Z" fill="currentColor"/><path d="M12 14.1213C11.6095 13.7308 11.6095 13.0976 12 12.7071C12.3905 12.3166 13.0237 12.3166 13.4142 12.7071L17.2028 16.4957C17.5933 16.8862 17.5933 17.5193 17.2028 17.9099C16.8123 18.3004 16.1791 18.3004 15.7886 17.9099L12 14.1213Z" fill="currentColor"/><path d="M6.70712 9.41418C6.43098 9.41418 6.20712 9.19033 6.20712 8.91418C6.20712 8.63804 6.43098 8.41418 6.70712 8.41418H11.1924C11.4685 8.41418 11.6924 8.63804 11.6924 8.91418C11.6924 9.19033 11.4685 9.41418 11.1924 9.41418H6.70712Z" fill="currentColor"/><path d="M1.15063 1.87794C0.94979 1.6771 0.94979 1.35147 1.15063 1.15063C1.35147 0.949789 1.6771 0.949789 1.87794 1.15063L18.8494 18.1221C19.0502 18.3229 19.0502 18.6485 18.8494 18.8494C18.6485 19.0502 18.3229 19.0502 18.1221 18.8494L1.15063 1.87794Z" fill="currentColor"/></g><path fill-rule="evenodd" clip-rule="evenodd" d="M13 24.5C19.3513 24.5 24.5 19.3513 24.5 13C24.5 6.64873 19.3513 1.5 13 1.5C6.64873 1.5 1.5 6.64873 1.5 13C1.5 19.3513 6.64873 24.5 13 24.5ZM13 25.5C19.9036 25.5 25.5 19.9036 25.5 13C25.5 6.09644 19.9036 0.5 13 0.5C6.09644 0.5 0.5 6.09644 0.5 13C0.5 19.9036 6.09644 25.5 13 25.5Z" fill="currentColor"/></svg>