<svg width="20" height="20" viewBox="0 0 20 20" fill="none" xmlns="http://www.w3.org/2000/svg"><path fill-rule="evenodd" clip-rule="evenodd" d="M4.82845 4.82838C2.87583 6.781 2.87583 9.94683 4.82845 11.8994C6.78107 13.8521 9.9469 13.8521 11.8995 11.8994C13.8521 9.94683 13.8521 6.781 11.8995 4.82838C9.9469 2.87576 6.78107 2.87576 4.82845 4.82838ZM11.1924 11.1923C9.63031 12.7544 7.09765 12.7544 5.53556 11.1923C3.97346 9.63024 3.97346 7.09758 5.53556 5.53549C7.09765 3.97339 9.63031 3.97339 11.1924 5.53549C12.7545 7.09758 12.7545 9.63024 11.1924 11.1923Z" fill="currentColor"/><path d="M11.1924 12.6274C10.8019 12.2369 10.8019 11.6037 11.1924 11.2132C11.5829 10.8227 12.2161 10.8227 12.6066 11.2132L15.435 14.0416C15.8256 14.4321 15.8256 15.0653 15.435 15.4558C15.0445 15.8463 14.4114 15.8463 14.0208 15.4558L11.1924 12.6274Z" fill="currentColor"/><path d="M1.15063 1.87794C0.94979 1.6771 0.94979 1.35147 1.15063 1.15063C1.35147 0.949789 1.6771 0.949789 1.87794 1.15063L18.8494 18.1221C19.0502 18.3229 19.0502 18.6485 18.8494 18.8494C18.6485 19.0502 18.3229 19.0502 18.1221 18.8494L1.15063 1.87794Z" fill="currentColor"/></svg>