<svg width="20" height="20" viewBox="0 0 26 26" fill="none" xmlns="http://www.w3.org/2000/svg"><g transform="translate(3, 3)"><path fill-rule="evenodd" clip-rule="evenodd" d="M10 8.5C11.1046 8.5 12 7.60457 12 6.5C12 5.39543 11.1046 4.5 10 4.5C8.89543 4.5 8 5.39543 8 6.5C8 7.60457 8.89543 8.5 10 8.5ZM10 5.5C10.5523 5.5 11 5.94772 11 6.5C11 7.05228 10.5523 7.5 10 7.5C9.44772 7.5 9 7.05228 9 6.5C9 5.94772 9.44772 5.5 10 5.5Z" fill="currentColor"/><path fill-rule="evenodd" clip-rule="evenodd" d="M5.5 6.28555C5.5 8.95892 8.15253 13.5 10 13.5C11.8475 13.5 14.5 8.95892 14.5 6.28555C14.5 3.64998 12.4933 1.5 10 1.5C7.50672 1.5 5.5 3.64998 5.5 6.28555ZM13.5 6.28555C13.5 8.47937 11.1515 12.5 10 12.5C8.84852 12.5 6.5 8.47937 6.5 6.28555C6.5 4.18744 8.075 2.5 10 2.5C11.925 2.5 13.5 4.18744 13.5 6.28555Z" fill="currentColor"/><path d="M13.4351 9.14059C13.1784 9.03875 13.0529 8.74812 13.1547 8.49144C13.2565 8.23476 13.5472 8.10923 13.8038 8.21106C14.6228 8.53598 15.2624 9.20616 15.5442 10.0513L16.8775 14.0513C17.4014 15.6231 16.552 17.3221 14.9801 17.846C14.6742 17.948 14.3539 18 14.0314 18H5.96857C4.31171 18 2.96857 16.6568 2.96857 15C2.96857 14.6775 3.02055 14.3572 3.12252 14.0513L4.45585 10.0513C4.74265 9.1909 5.40021 8.51238 6.23914 8.1944C6.49735 8.09653 6.78602 8.22651 6.88389 8.48473C6.98176 8.74294 6.85178 9.03161 6.59356 9.12948C6.03409 9.34154 5.59577 9.79384 5.40453 10.3675L4.0712 14.3675C4.00322 14.5715 3.96857 14.785 3.96857 15C3.96857 16.1046 4.864 17 5.96857 17H14.0314C14.2464 17 14.46 16.9653 14.6639 16.8974C15.7118 16.5481 16.2781 15.4154 15.9288 14.3675L14.5955 10.3675C14.4076 9.804 13.9813 9.35729 13.4351 9.14059Z" fill="currentColor"/></g><path fill-rule="evenodd" clip-rule="evenodd" d="M13 24.5C19.3513 24.5 24.5 19.3513 24.5 13C24.5 6.64873 19.3513 1.5 13 1.5C6.64873 1.5 1.5 6.64873 1.5 13C1.5 19.3513 6.64873 24.5 13 24.5ZM13 25.5C19.9036 25.5 25.5 19.9036 25.5 13C25.5 6.09644 19.9036 0.5 13 0.5C6.09644 0.5 0.5 6.09644 0.5 13C0.5 19.9036 6.09644 25.5 13 25.5Z" fill="currentColor"/></svg>