<svg width="20" height="20" viewBox="0 0 20 20" fill="none" xmlns="http://www.w3.org/2000/svg"><g><path fill-rule="evenodd" clip-rule="evenodd" d="M8.47396 6.43675C9.623 7.34323 11.2893 7.14659 12.1958 5.99756C13.1023 4.84852 12.9056 3.18219 11.7566 2.27571C10.6076 1.36923 8.94125 1.56587 8.03477 2.71491C7.12829 3.86394 7.32492 5.53027 8.47396 6.43675ZM7.85459 7.22185C9.43723 8.47039 11.7324 8.19956 12.9809 6.61692C14.2294 5.03429 13.9586 2.73916 12.376 1.49061C10.7933 0.242066 8.49821 0.5129 7.24967 2.09554C6.00112 3.67817 6.27195 5.9733 7.85459 7.22185Z" fill="currentColor"/><path fill-rule="evenodd" clip-rule="evenodd" d="M6.97066 5.34101C7.19699 5.49922 7.25221 5.81095 7.094 6.03728L2.85682 12.0988C2.69861 12.3251 2.38688 12.3803 2.16055 12.2221C1.93423 12.0639 1.87901 11.7521 2.03722 11.5258L6.27439 5.46435C6.4326 5.23802 6.74433 5.1828 6.97066 5.34101Z" fill="currentColor"/><path fill-rule="evenodd" clip-rule="evenodd" d="M10.6744 7.18616C10.4688 7.00184 10.1527 7.01909 9.96838 7.22471L9.7375 7.48196C9.645 7.5849 9.55356 7.68653 9.46305 7.787C9.439 7.80552 9.41632 7.8265 9.39534 7.84993C8.35275 9.01411 7.63471 9.8015 6.91561 10.59L6.91547 10.5902C6.19603 11.3791 5.47551 12.1692 4.42984 13.3368L5.17478 14.004C6.22553 12.8307 7.10615 11.8654 7.9885 10.8982C8.77716 10.0337 9.5672 9.16771 10.4813 8.15031L10.713 7.89222C10.8973 7.68661 10.88 7.37049 10.6744 7.18616Z" fill="currentColor"/><path fill-rule="evenodd" clip-rule="evenodd" d="M2.05447 11.5026C2.2255 11.2858 2.5399 11.2487 2.7567 11.4197L5.112 13.2778C5.3288 13.4489 5.3659 13.7633 5.19487 13.9801C5.02384 14.1969 4.70944 14.234 4.49264 14.0629L2.13733 12.2048C1.92053 12.0338 1.88343 11.7194 2.05447 11.5026Z" fill="currentColor"/><path fill-rule="evenodd" clip-rule="evenodd" d="M8.48551 3.77172L7.66449 2.52161L8.50035 1.97266L9.32136 3.22277C9.85586 4.03661 10.6399 4.65514 11.5558 4.98552L12.9627 5.493L12.6234 6.43368L11.2165 5.9262C10.097 5.5224 9.13878 4.76642 8.48551 3.77172Z" fill="currentColor"/><path fill-rule="evenodd" clip-rule="evenodd" d="M15.6497 11.825C15.6497 11.825 15.6497 11.825 15.6497 11.825L15.6353 11.8276L15.5918 11.8354C15.5535 11.8423 15.497 11.8525 15.4248 11.8658C15.2805 11.8924 15.0736 11.9312 14.8239 11.9797C14.3243 12.0768 13.6555 12.2125 12.9761 12.3674C12.6985 12.4307 12.4761 12.4794 12.2906 12.52C11.9158 12.6021 11.6911 12.6513 11.4652 12.7215C11.1456 12.8208 10.8329 12.9614 10.0854 13.3287C9.67862 13.5286 9.28346 13.8589 8.8738 14.2792C8.57587 14.5849 8.29047 14.9161 7.99355 15.2607C7.87889 15.3938 7.76252 15.5288 7.64304 15.6652C7.22544 16.1417 6.77728 16.6248 6.28531 17.005C5.7903 17.3875 5.22527 17.6862 4.5714 17.7612C4.14491 17.8101 3.69883 17.8111 3.29846 17.7561C2.91373 17.7032 2.50507 17.5898 2.21145 17.3582C1.68788 16.9452 1.33792 16.2465 1.51515 15.289C1.56388 15.0257 1.72278 14.7178 1.87834 14.4525C2.04486 14.1686 2.25059 13.8636 2.44712 13.5872C2.64454 13.3095 2.83732 13.0543 2.98042 12.8688C3.0521 12.7759 3.1116 12.7002 3.15337 12.6474L3.20209 12.5862L3.21521 12.5698L3.21971 12.5642C3.3932 12.3494 3.70845 12.3153 3.92328 12.4888C4.13811 12.6623 4.17163 12.9771 3.99816 13.1919C3.99817 13.1919 3.99815 13.1919 3.99816 13.1919L3.99459 13.1964L3.98294 13.2109L3.93742 13.2681C3.89787 13.3181 3.84094 13.3905 3.77211 13.4797C3.63421 13.6585 3.44973 13.9028 3.26211 14.1666C3.0736 14.4318 2.88652 14.7102 2.74094 14.9584C2.5844 15.2254 2.51191 15.3982 2.49845 15.471C2.38917 16.0614 2.59687 16.3885 2.83081 16.5731C2.91595 16.6403 3.11294 16.7212 3.43466 16.7654C3.74075 16.8075 4.10194 16.8085 4.45745 16.7677C4.87052 16.7203 5.26682 16.5282 5.67387 16.2137C6.08397 15.8968 6.47862 15.4767 6.89094 15.0061C6.99777 14.8842 7.10652 14.758 7.21685 14.6299C7.52074 14.2772 7.83667 13.9106 8.15766 13.5812C8.59851 13.1289 9.08735 12.7049 9.6444 12.4312C10.384 12.0677 10.7635 11.8924 11.1683 11.7666C11.4365 11.6832 11.7214 11.6208 12.1303 11.5312C12.3108 11.4916 12.5156 11.4467 12.7537 11.3924C13.4472 11.2343 14.1273 11.0964 14.6332 10.9981C14.8864 10.9489 15.0965 10.9095 15.2435 10.8824C15.3171 10.8689 15.3748 10.8584 15.4143 10.8512L15.4596 10.8431L15.4755 10.8403C15.7474 10.7922 16.007 10.9737 16.055 11.2456C16.1031 11.5175 15.9216 11.7769 15.6497 11.825Z" fill="currentColor"/></g><path d="M1.15063 1.87794C0.94979 1.6771 0.94979 1.35147 1.15063 1.15063C1.35147 0.949789 1.6771 0.949789 1.87794 1.15063L18.8494 18.1221C19.0502 18.3229 19.0502 18.6485 18.8494 18.8494C18.6485 19.0502 18.3229 19.0502 18.1221 18.8494L1.15063 1.87794Z" fill="currentColor"/></svg>