<svg width="20" height="20" viewBox="0 0 26 26" fill="none" xmlns="http://www.w3.org/2000/svg"><defs><mask id="mask-pencil-microphone-circle-filled"><rect width="26" height="26" fill="white"/><g transform="translate(3, 3)"><path fill-rule="evenodd" clip-rule="evenodd" d="M7.75 4.25C7.75 3.00736 8.75736 2 10 2C11.2426 2 12.25 3.00736 12.25 4.25V7.75C12.25 8.99264 11.2426 10 10 10C8.75736 10 7.75 8.99264 7.75 7.75V4.25Z" fill="black"/><path d="M10 17C7.51962 17 6 16.7829 6 16C6 15.2171 7.51962 15 10 15C12.4804 15 14 15.2171 14 16C14 16.7829 12.4804 17 10 17Z" fill="black"/><path d="M9.5 12.5L10.5 12.5V16H9.5L9.5 12.5Z" fill="black"/><path d="M14 7.5C14 7.22386 14.2239 7 14.5 7C14.7761 7 15 7.22386 15 7.5V9.15C15 11.5713 12.7456 13.5 10 13.5C7.25438 13.5 5 11.5713 5 9.15V7.5C5 7.22386 5.22386 7 5.5 7C5.77614 7 6 7.22386 6 7.5V9.15C6 10.9813 7.77506 12.5 10 12.5C12.2249 12.5 14 10.9813 14 9.15V7.5Z" fill="black"/></g></mask></defs><circle r="13" cx="13" cy="13" mask="url(#mask-pencil-microphone-circle-filled)" fill="currentColor"/></svg>