<svg width="20" height="20" viewBox="0 0 26 26" fill="none" xmlns="http://www.w3.org/2000/svg"><g transform="translate(3, 3)"><path fill-rule="evenodd" clip-rule="evenodd" d="M1.25 7.80225C1.25 6.42153 2.36929 5.30225 3.75 5.30225H15.75C17.1307 5.30225 18.25 6.42153 18.25 7.80225V12.8022C18.25 14.183 17.1307 15.3022 15.75 15.3022H3.75C2.36929 15.3022 1.25 14.183 1.25 12.8022V7.80225ZM3.75 6.30225C2.92157 6.30225 2.25 6.97382 2.25 7.80225V12.8022C2.25 13.6307 2.92157 14.3022 3.75 14.3022H15.75C16.5784 14.3022 17.25 13.6307 17.25 12.8022V7.80225C17.25 6.97382 16.5784 6.30225 15.75 6.30225H3.75Z" fill="currentColor"/><path d="M11.7459 10.3022C11.7459 11.4068 10.8509 12.3022 9.74674 12.3022C8.64262 12.3022 7.74756 11.4068 7.74756 10.3022C7.74756 9.19768 8.64262 8.30225 9.74674 8.30225C10.8509 8.30225 11.7459 9.19768 11.7459 10.3022Z" fill="currentColor"/><path fill-rule="evenodd" clip-rule="evenodd" d="M9.74674 11.3022C10.2982 11.3022 10.7459 10.8549 10.7459 10.3022C10.7459 9.74958 10.2982 9.30225 9.74674 9.30225C9.19529 9.30225 8.74756 9.74958 8.74756 10.3022C8.74756 10.8549 9.19529 11.3022 9.74674 11.3022ZM9.74674 12.3022C10.8509 12.3022 11.7459 11.4068 11.7459 10.3022C11.7459 9.19768 10.8509 8.30225 9.74674 8.30225C8.64262 8.30225 7.74756 9.19768 7.74756 10.3022C7.74756 11.4068 8.64262 12.3022 9.74674 12.3022Z" fill="currentColor"/><path fill-rule="evenodd" clip-rule="evenodd" d="M17.7964 10.7233C18.0611 10.8012 18.2127 11.079 18.135 11.3439C18.0572 11.6089 17.7794 11.7607 17.5145 11.6829L17.6553 11.2031C17.5145 11.6829 17.5147 11.683 17.5145 11.6829L17.5129 11.6824L17.5107 11.6818L17.5048 11.68L17.4871 11.6745C17.4726 11.6698 17.4529 11.6634 17.4283 11.6548C17.379 11.6377 17.31 11.6124 17.2236 11.5773C17.0508 11.507 16.8085 11.3975 16.5158 11.2363C15.9303 10.9138 15.1436 10.3845 14.3109 9.54933C13.4673 8.7032 12.9587 7.85217 12.66 7.20755C12.5106 6.88526 12.4135 6.61407 12.3531 6.41997C12.3228 6.32288 12.3017 6.24493 12.2878 6.18935C12.2808 6.16156 12.2756 6.13934 12.272 6.1231L12.2677 6.10325L12.2663 6.09678L12.2659 6.09443L12.2656 6.09305C12.2655 6.09285 12.2655 6.09266 12.7559 5.99553M17.7964 10.7233L17.7976 10.7237C17.7979 10.7237 17.798 10.7238 17.7976 10.7237" fill="currentColor"/><path fill-rule="evenodd" clip-rule="evenodd" d="M1.31981 9.15833C1.41701 8.89981 1.70529 8.76904 1.96371 8.86626L1.7877 9.33435C1.96371 8.86626 1.96358 8.86621 1.96371 8.86626L1.9649 8.86671L1.96668 8.86738L1.97197 8.86941L1.98936 8.87619C2.00392 8.88193 2.02437 8.89013 2.05025 8.90084C2.10201 8.92226 2.17559 8.95376 2.2675 8.9958C2.45119 9.07984 2.70879 9.20636 3.01208 9.37921C3.61719 9.72407 4.41234 10.258 5.16553 11.014C5.92609 11.7773 6.43904 12.608 6.76152 13.2443C6.92325 13.5633 7.03848 13.8363 7.1139 14.0315C7.15165 14.1291 7.17952 14.2076 7.19834 14.2629C7.20775 14.2906 7.21491 14.3125 7.21992 14.3281L7.22582 14.3468L7.22759 14.3526L7.22818 14.3545L7.2285 14.3556C7.22854 14.3557 7.22858 14.3558 6.74988 14.5L7.2285 14.3556C7.30807 14.62 7.15833 14.8992 6.89396 14.9789C6.62983 15.0584 6.35129 14.9089 6.27141 14.6449L6.27092 14.6433L6.26766 14.633C6.26447 14.623 6.25924 14.607 6.25187 14.5853C6.23713 14.542 6.21387 14.4764 6.18134 14.3922C6.11622 14.2237 6.01433 13.9818 5.86978 13.6967C5.57969 13.1243 5.12342 12.3886 4.45736 11.7201C3.78392 11.0442 3.0672 10.5618 2.5171 10.2483C2.24278 10.0919 2.01194 9.97875 1.85159 9.90539C1.77148 9.86874 1.70914 9.84211 1.66798 9.82508C1.64741 9.81657 1.63215 9.81046 1.62262 9.8067L1.61269 9.80283L1.6117 9.80244C1.61177 9.80247 1.61163 9.80242 1.6117 9.80244M1.31981 9.15833C1.22263 9.41678 1.35342 9.70515 1.6117 9.80244L1.31981 9.15833Z" fill="currentColor"/><path d="M1.15063 1.87794C0.94979 1.6771 0.94979 1.35147 1.15063 1.15063C1.35147 0.949789 1.6771 0.949789 1.87794 1.15063L18.8494 18.1221C19.0502 18.3229 19.0502 18.6485 18.8494 18.8494C18.6485 19.0502 18.3229 19.0502 18.1221 18.8494L1.15063 1.87794Z" fill="currentColor"/></g><path fill-rule="evenodd" clip-rule="evenodd" d="M13 24.5C19.3513 24.5 24.5 19.3513 24.5 13C24.5 6.64873 19.3513 1.5 13 1.5C6.64873 1.5 1.5 6.64873 1.5 13C1.5 19.3513 6.64873 24.5 13 24.5ZM13 25.5C19.9036 25.5 25.5 19.9036 25.5 13C25.5 6.09644 19.9036 0.5 13 0.5C6.09644 0.5 0.5 6.09644 0.5 13C0.5 19.9036 6.09644 25.5 13 25.5Z" fill="currentColor"/></svg>