<svg width="20" height="20" viewBox="0 0 20 20" fill="none" xmlns="http://www.w3.org/2000/svg"><g><path fill-rule="evenodd" clip-rule="evenodd" d="M2 4.5C2 3.39543 2.89543 2.5 4 2.5H15.7479C16.8525 2.5 17.7479 3.39543 17.7479 4.5V12.1513C17.7479 13.2559 16.8525 14.1513 15.7479 14.1513H10.374V16.9286C10.374 17.2047 10.1501 17.4286 9.87397 17.4286C9.59783 17.4286 9.37397 17.2047 9.37397 16.9286V14.1513H8.5C8.22386 14.1513 8 13.9274 8 13.6513C8 13.3751 8.22386 13.1513 8.5 13.1513H15.7479C16.3002 13.1513 16.7479 12.7036 16.7479 12.1513V4.5C16.7479 3.94771 16.3002 3.5 15.7479 3.5H4C3.44772 3.5 3 3.94772 3 4.5V7C3 7.27614 2.77614 7.5 2.5 7.5C2.22386 7.5 2 7.27614 2 7V4.5Z" fill="currentColor"/><path fill-rule="evenodd" clip-rule="evenodd" d="M5.68701 17.5905C5.68701 17.3143 5.91087 17.0905 6.18701 17.0905H13.561C13.8371 17.0905 14.061 17.3143 14.061 17.5905C14.061 17.8666 13.8371 18.0905 13.561 18.0905H6.18701C5.91087 18.0905 5.68701 17.8666 5.68701 17.5905Z" fill="currentColor"/><path fill-rule="evenodd" clip-rule="evenodd" d="M5.67145 8.93996C4.3582 8.242 2.7278 8.74079 2.02985 10.054C1.33189 11.3673 1.83068 12.9977 3.14392 13.6956C4.45717 14.3936 6.08757 13.8948 6.78553 12.5816C7.48348 11.2683 6.98469 9.63791 5.67145 8.93996ZM1.14681 9.58473C2.10396 7.7838 4.33983 7.09978 6.14076 8.05692C7.94169 9.01407 8.62571 11.2499 7.66856 13.0509C6.791 14.7021 4.83852 15.4143 3.13188 14.7837L1.26095 18.304C1.13135 18.5478 0.828618 18.6404 0.584775 18.5108C0.340932 18.3812 0.248317 18.0785 0.377913 17.8347L2.24885 14.3144C0.77128 13.2527 0.269248 11.2359 1.14681 9.58473Z" fill="currentColor"/></g></svg>