<svg width="20" height="20" viewBox="0 0 20 20" fill="none" xmlns="http://www.w3.org/2000/svg"><g><path fill-rule="evenodd" clip-rule="evenodd" d="M5 4.5C5 3.39543 5.89543 2.5 7 2.5H16.7816C17.8861 2.5 18.7816 3.39543 18.7816 4.5V11.7311C18.7816 12.8357 17.8861 13.7311 16.7816 13.7311H12.3908V16.0714C12.3908 16.3476 12.1669 16.5714 11.8908 16.5714C11.6146 16.5714 11.3908 16.3476 11.3908 16.0714V13.7311H10C9.72386 13.7311 9.5 13.5073 9.5 13.2311C9.5 12.955 9.72386 12.7311 10 12.7311H16.7816C17.3338 12.7311 17.7816 12.2834 17.7816 11.7311V4.5C17.7816 3.94772 17.3338 3.5 16.7816 3.5H7C6.44772 3.5 6 3.94772 6 4.5V6.75842C6 7.03456 5.77614 7.25842 5.5 7.25842C5.22386 7.25842 5 7.03456 5 6.75842V4.5Z" fill="currentColor"/><path fill-rule="evenodd" clip-rule="evenodd" d="M8.19543 16.6451C8.19543 16.369 8.41929 16.1451 8.69543 16.1451H15.0862C15.3624 16.1451 15.5862 16.369 15.5862 16.6451C15.5862 16.9213 15.3624 17.1451 15.0862 17.1451H8.69543C8.41929 17.1451 8.19543 16.9213 8.19543 16.6451Z" fill="currentColor"/><path fill-rule="evenodd" clip-rule="evenodd" d="M2.89253 12.795C3.51362 13.1444 4.40531 13.3762 5.41748 13.3762C6.42965 13.3762 7.32134 13.1444 7.94243 12.795C8.57918 12.4368 8.83496 12.0203 8.83496 11.6726C8.83496 11.325 8.57918 10.9084 7.94243 10.5503C7.32134 10.2009 6.42965 9.96906 5.41748 9.96906C4.40531 9.96906 3.51362 10.2009 2.89253 10.5503C2.25578 10.9084 2 11.325 2 11.6726C2 12.0203 2.25578 12.4368 2.89253 12.795ZM2.40227 13.6666C1.62118 13.2272 1 12.542 1 11.6726C1 10.8033 1.62118 10.118 2.40227 9.67868C3.19904 9.2305 4.26609 8.96906 5.41748 8.96906C6.56887 8.96906 7.63592 9.2305 8.43269 9.67868C9.21378 10.118 9.83496 10.8033 9.83496 11.6726C9.83496 12.542 9.21378 13.2272 8.43269 13.6666C7.63592 14.1148 6.56887 14.3762 5.41748 14.3762C4.26609 14.3762 3.19904 14.1148 2.40227 13.6666Z" fill="currentColor"/><path fill-rule="evenodd" clip-rule="evenodd" d="M5.41748 7.5C5.69362 7.5 5.91748 7.72386 5.91748 8L5.91748 9.46906C5.91748 9.7452 5.69362 9.96906 5.41748 9.96906C5.14134 9.96906 4.91748 9.7452 4.91748 9.46906L4.91748 8C4.91748 7.72386 5.14134 7.5 5.41748 7.5Z" fill="currentColor"/><path fill-rule="evenodd" clip-rule="evenodd" d="M7.47422 7.75456C7.745 7.80871 7.92061 8.07213 7.86645 8.34291L7.62161 9.56712C7.56746 9.8379 7.30404 10.0135 7.03326 9.95935C6.76248 9.90519 6.58688 9.64178 6.64103 9.371L6.88587 8.14679C6.94003 7.87601 7.20344 7.7004 7.47422 7.75456Z" fill="currentColor"/><path fill-rule="evenodd" clip-rule="evenodd" d="M3.36062 7.75456C3.08984 7.80871 2.91423 8.07213 2.96838 8.34291L3.21323 9.56712C3.26738 9.8379 3.5308 10.0135 3.80157 9.95935C4.07235 9.90519 4.24796 9.64178 4.19381 9.371L3.94896 8.14679C3.89481 7.87601 3.6314 7.7004 3.36062 7.75456Z" fill="currentColor"/><path fill-rule="evenodd" clip-rule="evenodd" d="M1.24265 8.5507C1.00586 8.69277 0.929073 8.9999 1.07115 9.23669L1.80568 10.4609C1.94775 10.6977 2.25488 10.7745 2.49167 10.6324C2.72846 10.4903 2.80524 10.1832 2.66317 9.94641L1.92864 8.7222C1.78657 8.48541 1.47944 8.40863 1.24265 8.5507Z" fill="currentColor"/><path fill-rule="evenodd" clip-rule="evenodd" d="M9.59207 8.55058C9.82886 8.69265 9.90564 8.99978 9.76357 9.23657L9.02904 10.4608C8.88697 10.6976 8.57984 10.7744 8.34305 10.6323C8.10626 10.4902 8.02947 10.1831 8.17155 9.94629L8.90608 8.72208C9.04815 8.48529 9.35528 8.4085 9.59207 8.55058Z" fill="currentColor"/><path d="M5.42004 10.4C6.1104 10.4 6.67004 10.9597 6.67004 11.65C6.67004 12.3404 6.1104 12.9 5.42004 12.9C4.72969 12.9 4.17004 12.3404 4.17004 11.65C4.17004 10.9597 4.72969 10.4 5.42004 10.4Z" fill="currentColor"/><path fill-rule="evenodd" clip-rule="evenodd" d="M4.67004 11.65C4.67004 12.0642 5.00583 12.4 5.42004 12.4C5.83426 12.4 6.17004 12.0642 6.17004 11.65C6.17004 11.2358 5.83426 10.9 5.42004 10.9C5.00583 10.9 4.67004 11.2358 4.67004 11.65ZM5.42004 13.4C4.45355 13.4 3.67004 12.6165 3.67004 11.65C3.67004 10.6835 4.45355 9.90002 5.42004 9.90002C6.38654 9.90002 7.17004 10.6835 7.17004 11.65C7.17004 12.6165 6.38654 13.4 5.42004 13.4Z" fill="currentColor"/></g></svg>