<svg width="20" height="20" viewBox="0 0 26 26" fill="none" xmlns="http://www.w3.org/2000/svg"><g transform="translate(3, 3)"><path fill-rule="evenodd" clip-rule="evenodd" d="M17.5 1.5H2.5C1.39543 1.5 0.5 2.39543 0.5 3.5V13.5C0.5 14.6046 1.39543 15.5 2.5 15.5H17.5C18.6046 15.5 19.5 14.6046 19.5 13.5V3.5C19.5 2.39543 18.6046 1.5 17.5 1.5ZM1.5 3.5C1.5 2.94772 1.94772 2.5 2.5 2.5H17.5C18.0523 2.5 18.5 2.94772 18.5 3.5V13.5C18.5 14.0523 18.0523 14.5 17.5 14.5H2.5C1.94772 14.5 1.5 14.0523 1.5 13.5V3.5Z" fill="currentColor"/><path d="M10 14C9.58579 14 9.25 13.6642 9.25 13.25C9.25 12.8358 9.58579 12.5 10 12.5C10.4142 12.5 10.75 12.8358 10.75 13.25C10.75 13.6642 10.4142 14 10 14Z" fill="currentColor"/><path fill-rule="evenodd" clip-rule="evenodd" d="M11.5 14.5H8.5C7.94772 14.5 7.5 14.9477 7.5 15.5V18C7.5 18.5523 7.94772 19 8.5 19H11.5C12.0523 19 12.5 18.5523 12.5 18V15.5C12.5 14.9477 12.0523 14.5 11.5 14.5ZM8.5 18V15.5H11.5V18H8.5Z" fill="currentColor"/><path d="M5.5 19C5.22386 19 5 18.7761 5 18.5C5 18.2239 5.22386 18 5.5 18H14.5C14.7761 18 15 18.2239 15 18.5C15 18.7761 14.7761 19 14.5 19H5.5Z" fill="currentColor"/><path fill-rule="evenodd" clip-rule="evenodd" d="M19 12H1V11H19V12Z" fill="currentColor"/><path d="M1.15063 1.87794C0.94979 1.6771 0.94979 1.35147 1.15063 1.15063C1.35147 0.949789 1.6771 0.949789 1.87794 1.15063L18.8494 18.1221C19.0502 18.3229 19.0502 18.6485 18.8494 18.8494C18.6485 19.0502 18.3229 19.0502 18.1221 18.8494L1.15063 1.87794Z" fill="currentColor"/></g><path fill-rule="evenodd" clip-rule="evenodd" d="M13 24.5C19.3513 24.5 24.5 19.3513 24.5 13C24.5 6.64873 19.3513 1.5 13 1.5C6.64873 1.5 1.5 6.64873 1.5 13C1.5 19.3513 6.64873 24.5 13 24.5ZM13 25.5C19.9036 25.5 25.5 19.9036 25.5 13C25.5 6.09644 19.9036 0.5 13 0.5C6.09644 0.5 0.5 6.09644 0.5 13C0.5 19.9036 6.09644 25.5 13 25.5Z" fill="currentColor"/></svg>