<svg width="20" height="20" viewBox="0 0 26 26" fill="none" xmlns="http://www.w3.org/2000/svg"><defs><mask id="mask-pencil-monitor-circle-filled"><rect width="26" height="26" fill="white"/><g transform="translate(3, 3)"><path fill-rule="evenodd" clip-rule="evenodd" d="M17.5 1.5H2.5C1.39543 1.5 0.5 2.39543 0.5 3.5V13.5C0.5 14.6046 1.39543 15.5 2.5 15.5H17.5C18.6046 15.5 19.5 14.6046 19.5 13.5V3.5C19.5 2.39543 18.6046 1.5 17.5 1.5ZM1.5 3.5C1.5 2.94772 1.94772 2.5 2.5 2.5H17.5C18.0523 2.5 18.5 2.94772 18.5 3.5V13.5C18.5 14.0523 18.0523 14.5 17.5 14.5H2.5C1.94772 14.5 1.5 14.0523 1.5 13.5V3.5Z" fill="black"/><path d="M10 14C9.58579 14 9.25 13.6642 9.25 13.25C9.25 12.8358 9.58579 12.5 10 12.5C10.4142 12.5 10.75 12.8358 10.75 13.25C10.75 13.6642 10.4142 14 10 14Z" fill="black"/><path fill-rule="evenodd" clip-rule="evenodd" d="M11.5 14.5H8.5C7.94772 14.5 7.5 14.9477 7.5 15.5V18C7.5 18.5523 7.94772 19 8.5 19H11.5C12.0523 19 12.5 18.5523 12.5 18V15.5C12.5 14.9477 12.0523 14.5 11.5 14.5ZM8.5 18V15.5H11.5V18H8.5Z" fill="black"/><path d="M5.5 19C5.22386 19 5 18.7761 5 18.5C5 18.2239 5.22386 18 5.5 18H14.5C14.7761 18 15 18.2239 15 18.5C15 18.7761 14.7761 19 14.5 19H5.5Z" fill="black"/><path fill-rule="evenodd" clip-rule="evenodd" d="M19 12H1V11H19V12Z" fill="black"/></g></mask></defs><circle r="13" cx="13" cy="13" mask="url(#mask-pencil-monitor-circle-filled)" fill="currentColor"/></svg>