<svg width="20" height="20" viewBox="0 0 20 20" fill="none" xmlns="http://www.w3.org/2000/svg"><path fill-rule="evenodd" clip-rule="evenodd" d="M8.27541 6.02351C8.61523 4.42476 9.69616 3.11939 11.1623 2.47407C11.6274 2.26938 11.5261 1.582 11.0218 1.52015C6.66731 0.98618 2.59701 3.87987 1.67743 8.20615C0.69968 12.8061 3.62918 17.3266 8.22123 18.3027C12.8133 19.2788 17.3282 16.3406 18.3059 11.7406C18.4502 11.0618 18.5112 10.3759 18.4899 9.69414C18.4739 9.18497 17.7958 9.02293 17.5514 9.4699C16.4991 11.3945 14.2987 12.4263 12.1244 11.9642C9.42352 11.3901 7.70001 8.73052 8.27541 6.02351ZM2.65558 8.41406C3.35102 5.14227 6.0879 2.79892 9.27325 2.49127C8.28446 3.33513 7.57862 4.49189 7.29726 5.81559C6.60713 9.0624 8.67497 12.2533 11.9165 12.9423C13.9292 13.3701 15.9599 12.7316 17.3629 11.3577C17.3519 11.4161 17.3402 11.4744 17.3278 11.5327C16.4648 15.5929 12.4806 18.1857 8.42914 17.3246C4.37773 16.4634 1.79256 12.4742 2.65558 8.41406Z" fill="currentColor"/><path d="M1.15063 1.87794C0.94979 1.6771 0.94979 1.35147 1.15063 1.15063C1.35147 0.949789 1.6771 0.949789 1.87794 1.15063L18.8494 18.1221C19.0502 18.3229 19.0502 18.6485 18.8494 18.8494C18.6485 19.0502 18.3229 19.0502 18.1221 18.8494L1.15063 1.87794Z" fill="currentColor"/></svg>