<svg width="20" height="20" viewBox="0 0 20 20" fill="none" xmlns="http://www.w3.org/2000/svg"><path fill-rule="evenodd" clip-rule="evenodd" d="M5.61589 6.65345C5.43911 6.44132 5.46777 6.12603 5.67991 5.94925L9.67991 2.61592C9.89205 2.43914 10.2073 2.4678 10.3841 2.67994C10.5609 2.89207 10.5322 3.20736 10.3201 3.38414L6.32009 6.71747C6.10796 6.89425 5.79267 6.86559 5.61589 6.65345Z" fill="currentColor"/><path fill-rule="evenodd" clip-rule="evenodd" d="M14.3841 6.65345C14.2073 6.86559 13.892 6.89425 13.6799 6.71747L9.67991 3.38414C9.46777 3.20736 9.43911 2.89207 9.61589 2.67994C9.79267 2.4678 10.108 2.43914 10.3201 2.61592L14.3201 5.94925C14.5322 6.12603 14.5609 6.44132 14.3841 6.65345Z" fill="currentColor"/><path fill-rule="evenodd" clip-rule="evenodd" d="M10 4.5C10.2761 4.5 10.5 4.72386 10.5 5V13C10.5 13.2761 10.2761 13.5 10 13.5C9.72386 13.5 9.5 13.2761 9.5 13V5C9.5 4.72386 9.72386 4.5 10 4.5Z" fill="currentColor"/><path fill-rule="evenodd" clip-rule="evenodd" d="M14.3841 13.3465C14.5609 13.5587 14.5322 13.874 14.3201 14.0507L10.3201 17.3841C10.108 17.5609 9.79268 17.5322 9.61589 17.3201C9.43911 17.1079 9.46777 16.7926 9.67991 16.6159L13.6799 13.2825C13.8921 13.1057 14.2073 13.1344 14.3841 13.3465Z" fill="currentColor"/><path fill-rule="evenodd" clip-rule="evenodd" d="M5.61589 13.3465C5.79268 13.1344 6.10796 13.1057 6.3201 13.2825L10.3201 16.6159C10.5322 16.7926 10.5609 17.1079 10.3841 17.3201C10.2073 17.5322 9.89205 17.5609 9.67991 17.3841L5.67991 14.0507C5.46777 13.874 5.43911 13.5587 5.61589 13.3465Z" fill="currentColor"/><path fill-rule="evenodd" clip-rule="evenodd" d="M10 17C9.72386 17 9.5 16.7761 9.5 16.5V3.5C9.5 3.22386 9.72386 3 10 3C10.2761 3 10.5 3.22386 10.5 3.5V16.5C10.5 16.7761 10.2761 17 10 17Z" fill="currentColor"/><path d="M1.15063 1.87794C0.94979 1.6771 0.94979 1.35147 1.15063 1.15063C1.35147 0.949789 1.6771 0.949789 1.87794 1.15063L18.8494 18.1221C19.0502 18.3229 19.0502 18.6485 18.8494 18.8494C18.6485 19.0502 18.3229 19.0502 18.1221 18.8494L1.15063 1.87794Z" fill="currentColor"/></svg>