<svg width="20" height="20" viewBox="0 0 26 26" fill="none" xmlns="http://www.w3.org/2000/svg"><g transform="translate(3, 3)"><path fill-rule="evenodd" clip-rule="evenodd" d="M15.1388 1.37578L8.13875 1.89638C7.35564 1.95462 6.75 2.60698 6.75 3.39225V4.12892C6.75038 4.1583 6.75058 4.17298 6.75115 4.18766C6.75173 4.20233 6.75268 4.21699 6.7546 4.24631C6.81943 5.0722 7.5415 5.68915 8.36739 5.62432L15.3674 5.07481C16.1479 5.01354 16.75 4.36231 16.75 3.57941V2.87165C16.7493 2.81599 16.7493 2.81597 16.7459 2.76046L16.7459 2.7604C16.6844 1.93426 15.9649 1.31434 15.1388 1.37578ZM7.75 4.12892V3.39225C7.75 3.1305 7.95188 2.91304 8.21292 2.89363L15.2129 2.37303C15.4883 2.35255 15.7281 2.55919 15.7486 2.83457C15.7492 2.84383 15.7495 2.84846 15.7497 2.8531C15.7498 2.85773 15.7499 2.86237 15.75 2.87165V3.57941C15.75 3.84037 15.5493 4.05745 15.2891 4.07787L8.28913 4.62738C8.01383 4.649 7.77314 4.44334 7.75153 4.16805C7.75026 4.1485 7.75026 4.1485 7.75 4.12892Z" fill="currentColor"/><path fill-rule="evenodd" clip-rule="evenodd" d="M1.75 16C1.75 17.4083 3.1146 18.5 4.75 18.5C6.3854 18.5 7.75 17.4083 7.75 16C7.75 14.5917 6.3854 13.5 4.75 13.5C3.1146 13.5 1.75 14.5917 1.75 16ZM6.75 16C6.75 16.8008 5.87602 17.5 4.75 17.5C3.62398 17.5 2.75 16.8008 2.75 16C2.75 15.1992 3.62398 14.5 4.75 14.5C5.87602 14.5 6.75 15.1992 6.75 16Z" fill="currentColor"/><path fill-rule="evenodd" clip-rule="evenodd" d="M11.6699 16.8046C12.2259 17.2495 12.9663 17.5 13.75 17.5C15.3854 17.5 16.75 16.4083 16.75 15C16.75 13.5917 15.3854 12.5 13.75 12.5C12.1146 12.5 10.75 13.5917 10.75 15C10.75 15.6971 11.0905 16.3411 11.6699 16.8046ZM15.75 15C15.75 15.8008 14.876 16.5 13.75 16.5C13.1896 16.5 12.6702 16.3242 12.2946 16.0238C11.9423 15.742 11.75 15.3782 11.75 15C11.75 14.1992 12.624 13.5 13.75 13.5C14.876 13.5 15.75 14.1992 15.75 15Z" fill="currentColor"/><path d="M6.75 3.5C6.75 3.22386 6.97386 3 7.25 3C7.52614 3 7.75 3.22386 7.75 3.5V16C7.75 16.2761 7.52614 16.5 7.25 16.5C6.97386 16.5 6.75 16.2761 6.75 16V3.5Z" fill="currentColor"/><path d="M15.75 3.5C15.75 3.22386 15.9739 3 16.25 3C16.5261 3 16.75 3.22386 16.75 3.5V15C16.75 15.2761 16.5261 15.5 16.25 15.5C15.9739 15.5 15.75 15.2761 15.75 15V3.5Z" fill="currentColor"/></g><path fill-rule="evenodd" clip-rule="evenodd" d="M13 24.5C19.3513 24.5 24.5 19.3513 24.5 13C24.5 6.64873 19.3513 1.5 13 1.5C6.64873 1.5 1.5 6.64873 1.5 13C1.5 19.3513 6.64873 24.5 13 24.5ZM13 25.5C19.9036 25.5 25.5 19.9036 25.5 13C25.5 6.09644 19.9036 0.5 13 0.5C6.09644 0.5 0.5 6.09644 0.5 13C0.5 19.9036 6.09644 25.5 13 25.5Z" fill="currentColor"/></svg>