<svg width="20" height="20" viewBox="0 0 20 20" fill="none" xmlns="http://www.w3.org/2000/svg"><path fill-rule="evenodd" clip-rule="evenodd" d="M3.5 14.7962L8.98141 9.99996L3.50001 5.20373L3.5 14.7962ZM9.63992 10.7525C10.0952 10.3541 10.0952 9.64579 9.63992 9.24738L4.15851 4.45115C3.51193 3.88539 2.50001 4.34457 2.50001 5.20373L2.50001 14.7962C2.50001 15.6554 3.51193 16.1145 4.15851 15.5488L9.63992 10.7525Z" fill="currentColor"/><path fill-rule="evenodd" clip-rule="evenodd" d="M10.5 14.7962L15.9814 9.99996L10.5 5.20373L10.5 14.7962ZM16.6399 10.7525C17.0952 10.3541 17.0952 9.64579 16.6399 9.24738L11.1585 4.45115C10.5119 3.88539 9.50001 4.34457 9.50001 5.20373V14.7962C9.50001 15.6554 10.5119 16.1145 11.1585 15.5488L16.6399 10.7525Z" fill="currentColor"/><path fill-rule="evenodd" clip-rule="evenodd" d="M17 4.5C17.2761 4.5 17.5 4.72386 17.5 5V15C17.5 15.2761 17.2761 15.5 17 15.5C16.7239 15.5 16.5 15.2761 16.5 15V5C16.5 4.72386 16.7239 4.5 17 4.5Z" fill="currentColor"/><path d="M1.15063 1.87794C0.94979 1.6771 0.94979 1.35147 1.15063 1.15063C1.35147 0.949789 1.6771 0.949789 1.87794 1.15063L18.8494 18.1221C19.0502 18.3229 19.0502 18.6485 18.8494 18.8494C18.6485 19.0502 18.3229 19.0502 18.1221 18.8494L1.15063 1.87794Z" fill="currentColor"/></svg>