<svg width="20" height="20" viewBox="0 0 20 20" fill="none" xmlns="http://www.w3.org/2000/svg"><path fill-rule="evenodd" clip-rule="evenodd" d="M14.722 16.7442C14.455 17.2116 13.958 17.5 13.4197 17.5L6.58032 17.5C6.04204 17.5 5.54502 17.2116 5.27796 16.7442L1.84939 10.7442C1.58587 10.2831 1.58587 9.71694 1.84939 9.25579L5.27796 3.25579C5.54502 2.78843 6.04204 2.5 6.58032 2.5L13.4197 2.5C13.958 2.5 14.455 2.78843 14.722 3.25579L18.1506 9.25579C18.4141 9.71694 18.4141 10.2831 18.1506 10.7442L14.722 16.7442ZM13.4197 16.5C13.5991 16.5 13.7648 16.4039 13.8538 16.2481L17.2824 10.2481C17.3702 10.0944 17.3702 9.90565 17.2824 9.75193L13.8538 3.75193C13.7648 3.59614 13.5991 3.5 13.4197 3.5L6.58032 3.5C6.4009 3.5 6.23522 3.59614 6.1462 3.75193L2.71763 9.75193C2.62979 9.90564 2.62979 10.0944 2.71763 10.2481L6.1462 16.2481C6.23522 16.4039 6.4009 16.5 6.58032 16.5L13.4197 16.5Z" fill="currentColor"/><path fill-rule="evenodd" clip-rule="evenodd" d="M10 7.5C8.61929 7.5 7.5 8.61929 7.5 10C7.5 11.3807 8.61929 12.5 10 12.5C11.3807 12.5 12.5 11.3807 12.5 10C12.5 8.61929 11.3807 7.5 10 7.5ZM6.5 10C6.5 8.067 8.067 6.5 10 6.5C11.933 6.5 13.5 8.067 13.5 10C13.5 11.933 11.933 13.5 10 13.5C8.067 13.5 6.5 11.933 6.5 10Z" fill="currentColor"/></svg>