<svg width="20" height="20" viewBox="0 0 20 20" fill="none" xmlns="http://www.w3.org/2000/svg"><path d="M14.5 14.5V11.25C14.5 10.9739 14.7239 10.75 15 10.75C15.2761 10.75 15.5 10.9739 15.5 11.25V15C15.5 15.2761 15.2761 15.5 15 15.5H5C4.72386 15.5 4.5 15.2761 4.5 15V5C4.5 4.72386 4.72386 4.5 5 4.5H8.75C9.02614 4.5 9.25 4.72386 9.25 5C9.25 5.27614 9.02614 5.5 8.75 5.5H5.5V14.5H14.5Z" fill="currentColor"/><path d="M10.3536 10.3536C10.1583 10.5488 9.84171 10.5488 9.64645 10.3536C9.45118 10.1583 9.45118 9.84171 9.64645 9.64645L14.6464 4.64645C14.8417 4.45118 15.1583 4.45118 15.3536 4.64645C15.5488 4.84171 15.5488 5.15829 15.3536 5.35355L10.3536 10.3536Z" fill="currentColor"/><path d="M15.5 8.5C15.5 8.77614 15.2761 9 15 9C14.7239 9 14.5 8.77614 14.5 8.5V5C14.5 4.72386 14.7239 4.5 15 4.5C15.2761 4.5 15.5 4.72386 15.5 5V8.5Z" fill="currentColor"/><path d="M11.5 5.5C11.2239 5.5 11 5.27614 11 5C11 4.72386 11.2239 4.5 11.5 4.5H15C15.2761 4.5 15.5 4.72386 15.5 5C15.5 5.27614 15.2761 5.5 15 5.5H11.5Z" fill="currentColor"/></svg>