<svg width="20" height="20" viewBox="0 0 26 26" fill="none" xmlns="http://www.w3.org/2000/svg"><defs><mask id="mask-pencil-paint-pallet-circle-filled"><rect width="26" height="26" fill="white"/><g transform="translate(3, 3)"><g><path fill-rule="evenodd" clip-rule="evenodd" d="M14.7246 13.3342C15.6954 9.71095 13.3891 5.95668 9.58956 4.93861C5.32303 3.7954 -0.725113 6.76221 0.543511 10.3505C0.926836 11.4348 1.67773 11.6922 3.22591 11.7141L3.33401 11.7156C4.43446 11.7294 4.80534 11.8155 5.01192 12.1517C5.22599 12.5002 5.22776 12.9081 5.06577 13.9399C4.99947 14.3622 4.97792 14.509 4.95296 14.7336C4.80843 16.0333 5.01967 17.0081 5.84274 17.8946C8.42662 20.6776 13.6313 17.4146 14.7246 13.3342ZM1.48632 10.0172C0.577621 7.44693 5.70337 4.93259 9.33074 5.90454C12.6082 6.78273 14.5833 9.99776 13.7587 13.0753C12.8355 16.5206 8.47174 19.2565 6.57558 17.2142C5.98161 16.5745 5.83147 15.8816 5.94683 14.8441C5.96952 14.64 5.98985 14.5015 6.05367 14.095C6.2538 12.8202 6.25136 12.2589 5.86397 11.6283C5.3993 10.8719 4.80502 10.734 3.34657 10.7156L3.24008 10.7142C2.08097 10.6978 1.67812 10.5597 1.48632 10.0172Z" fill="black"/><path d="M4.75 9.5C4.05964 9.5 3.5 8.94036 3.5 8.25C3.5 7.55964 4.05964 7 4.75 7C5.44036 7 6 7.55964 6 8.25C6 8.94036 5.44036 9.5 4.75 9.5Z" fill="black"/><path d="M8.75 9.5C8.05964 9.5 7.5 8.94036 7.5 8.25C7.5 7.55964 8.05964 7 8.75 7C9.44036 7 10 7.55964 10 8.25C10 8.94036 9.44036 9.5 8.75 9.5Z" fill="black"/><path d="M11.25 12.5C10.5596 12.5 10 11.9404 10 11.25C10 10.5596 10.5596 10 11.25 10C11.9404 10 12.5 10.5596 12.5 11.25C12.5 11.9404 11.9404 12.5 11.25 12.5Z" fill="black"/><path d="M9.75 16C9.05964 16 8.5 15.4404 8.5 14.75C8.5 14.0596 9.05964 13.5 9.75 13.5C10.4404 13.5 11 14.0596 11 14.75C11 15.4404 10.4404 16 9.75 16Z" fill="black"/><path d="M13.3707 3.60451C13.8605 3.34411 14.466 3.52923 14.7253 4.01686C14.7308 4.02727 14.7362 4.03777 14.7413 4.04836L18.8336 12.4482C18.9869 12.7628 18.8635 13.1422 18.5545 13.3065C18.2452 13.471 17.8612 13.3618 17.6847 13.0592L12.9771 4.98893C12.6993 4.5127 12.8602 3.90144 13.3364 3.62364C13.3477 3.61704 13.3592 3.61066 13.3707 3.60451Z" fill="black"/><path fill-rule="evenodd" clip-rule="evenodd" d="M11.5375 3.48434C12.0238 4.39897 12.8434 4.65522 13.6347 4.23444C14.4262 3.81362 14.6726 2.99053 14.1863 2.07592C13.6289 1.0276 12.438 0.0775719 11.6482 0.497483C10.8585 0.917395 10.9801 2.43602 11.5375 3.48434ZM12.4204 3.01486C12.2581 2.70947 12.1315 2.26269 12.1007 1.8773C12.0806 1.62643 12.1063 1.45889 12.1151 1.40204C12.1171 1.38903 12.1182 1.38181 12.1176 1.38073C12.1183 1.38172 12.1245 1.38462 12.1356 1.38985C12.1866 1.41372 12.3408 1.48594 12.5391 1.64416C12.8414 1.88525 13.141 2.24 13.3034 2.54539C13.5316 2.97464 13.4668 3.19118 13.1653 3.3515C12.8641 3.51165 12.6488 3.44435 12.4204 3.01486Z" fill="black"/></g></g></mask></defs><circle r="13" cx="13" cy="13" mask="url(#mask-pencil-paint-pallet-circle-filled)" fill="currentColor"/></svg>