<svg width="20" height="20" viewBox="0 0 26 26" fill="none" xmlns="http://www.w3.org/2000/svg"><g transform="translate(3, 3)"><path fill-rule="evenodd" clip-rule="evenodd" d="M8 14V6C8 5.44772 7.55228 5 7 5C6.44772 5 6 5.44772 6 6V14C6 14.5523 6.44772 15 7 15C7.55228 15 8 14.5523 8 14ZM7 4C5.89543 4 5 4.89543 5 6V14C5 15.1046 5.89543 16 7 16C8.10457 16 9 15.1046 9 14V6C9 4.89543 8.10457 4 7 4Z" fill="currentColor"/><path fill-rule="evenodd" clip-rule="evenodd" d="M14 14V6C14 5.44772 13.5523 5 13 5C12.4477 5 12 5.44772 12 6V14C12 14.5523 12.4477 15 13 15C13.5523 15 14 14.5523 14 14ZM13 4C11.8954 4 11 4.89543 11 6V14C11 15.1046 11.8954 16 13 16C14.1046 16 15 15.1046 15 14V6C15 4.89543 14.1046 4 13 4Z" fill="currentColor"/><path d="M1.15063 1.87794C0.94979 1.6771 0.94979 1.35147 1.15063 1.15063C1.35147 0.949789 1.6771 0.949789 1.87794 1.15063L18.8494 18.1221C19.0502 18.3229 19.0502 18.6485 18.8494 18.8494C18.6485 19.0502 18.3229 19.0502 18.1221 18.8494L1.15063 1.87794Z" fill="currentColor"/></g><path fill-rule="evenodd" clip-rule="evenodd" d="M13 24.5C19.3513 24.5 24.5 19.3513 24.5 13C24.5 6.64873 19.3513 1.5 13 1.5C6.64873 1.5 1.5 6.64873 1.5 13C1.5 19.3513 6.64873 24.5 13 24.5ZM13 25.5C19.9036 25.5 25.5 19.9036 25.5 13C25.5 6.09644 19.9036 0.5 13 0.5C6.09644 0.5 0.5 6.09644 0.5 13C0.5 19.9036 6.09644 25.5 13 25.5Z" fill="currentColor"/></svg>