<svg width="20" height="20" viewBox="0 0 26 26" fill="none" xmlns="http://www.w3.org/2000/svg"><defs><mask id="mask-pencil-pause-circle-filled"><rect width="26" height="26" fill="white"/><g transform="translate(3, 3)"><path fill-rule="evenodd" clip-rule="evenodd" d="M8 14V6C8 5.44772 7.55228 5 7 5C6.44772 5 6 5.44772 6 6V14C6 14.5523 6.44772 15 7 15C7.55228 15 8 14.5523 8 14ZM7 4C5.89543 4 5 4.89543 5 6V14C5 15.1046 5.89543 16 7 16C8.10457 16 9 15.1046 9 14V6C9 4.89543 8.10457 4 7 4Z" fill="black"/><path fill-rule="evenodd" clip-rule="evenodd" d="M14 14V6C14 5.44772 13.5523 5 13 5C12.4477 5 12 5.44772 12 6V14C12 14.5523 12.4477 15 13 15C13.5523 15 14 14.5523 14 14ZM13 4C11.8954 4 11 4.89543 11 6V14C11 15.1046 11.8954 16 13 16C14.1046 16 15 15.1046 15 14V6C15 4.89543 14.1046 4 13 4Z" fill="black"/></g></mask></defs><circle r="13" cx="13" cy="13" mask="url(#mask-pencil-pause-circle-filled)" fill="currentColor"/></svg>