<svg width="20" height="20" viewBox="0 0 26 26" fill="none" xmlns="http://www.w3.org/2000/svg"><g transform="translate(3, 3)"><path fill-rule="evenodd" clip-rule="evenodd" d="M5.00003 9C6.1046 9 7.00003 8.10457 7.00003 7C7.00003 5.89543 6.1046 5 5.00003 5C3.89546 5 3.00003 5.89543 3.00003 7C3.00003 8.10457 3.89546 9 5.00003 9ZM5.00003 10C6.65688 10 8.00003 8.65685 8.00003 7C8.00003 5.34315 6.65688 4 5.00003 4C3.34318 4 2.00003 5.34315 2.00003 7C2.00003 8.65685 3.34318 10 5.00003 10Z" fill="currentColor"/><path fill-rule="evenodd" clip-rule="evenodd" d="M3.85355 8.89645C4.04882 9.09171 4.04882 9.40829 3.85355 9.60355L3.51612 9.94098C3.13529 10.3218 2.84835 10.7861 2.67803 11.297C2.56011 11.6508 2.5 12.0212 2.5 12.3941V14.25C2.5 14.5262 2.27614 14.75 2 14.75C1.72386 14.75 1.5 14.5262 1.5 14.25V12.3941C1.5 11.9138 1.57744 11.4365 1.72935 10.9808C1.94876 10.3226 2.3184 9.72449 2.80902 9.23388L3.14645 8.89645C3.34171 8.70118 3.65829 8.70118 3.85355 8.89645Z" fill="currentColor"/><path fill-rule="evenodd" clip-rule="evenodd" d="M15.6464 8.59646C15.4512 8.79172 15.4512 9.1083 15.6464 9.30357L15.9839 9.641C16.3647 10.0218 16.6517 10.4861 16.822 10.9971C16.9399 11.3508 17 11.7213 17 12.0941V14.25C17 14.5261 17.2239 14.75 17.5 14.75C17.7761 14.75 18 14.5261 18 14.25V12.0941C18 11.6138 17.9226 11.1365 17.7707 10.6808C17.5512 10.0226 17.1816 9.4245 16.691 8.93389L16.3536 8.59646C16.1583 8.4012 15.8417 8.4012 15.6464 8.59646Z" fill="currentColor"/><path fill-rule="evenodd" clip-rule="evenodd" d="M14 9C12.8955 9 12 8.10457 12 7C12 5.89543 12.8955 5 14 5C15.1046 5 16 5.89543 16 7C16 8.10457 15.1046 9 14 9ZM14 10C12.3432 10 11 8.65685 11 7C11 5.34315 12.3432 4 14 4C15.6569 4 17 5.34315 17 7C17 8.65685 15.6569 10 14 10Z" fill="currentColor"/><path fill-rule="evenodd" clip-rule="evenodd" d="M9.50006 13.25C8.11933 13.25 7.00002 14.3693 7.00001 15.75L7 17.05C7 17.3261 6.77614 17.55 6.5 17.55C6.22385 17.55 6 17.3261 6 17.05L6.00001 15.75C6.00002 13.817 7.56704 12.25 9.50006 12.25C11.433 12.25 13 13.817 13 15.75V17.05C13 17.3261 12.7762 17.55 12.5 17.55C12.2239 17.55 12 17.3261 12 17.05V15.75C12 14.3693 10.8808 13.25 9.50006 13.25Z" fill="currentColor"/><path fill-rule="evenodd" clip-rule="evenodd" d="M9.50003 11.75C10.6046 11.75 11.5 10.8546 11.5 9.75C11.5 8.64543 10.6046 7.75 9.50003 7.75C8.39546 7.75 7.50003 8.64543 7.50003 9.75C7.50003 10.8546 8.39546 11.75 9.50003 11.75ZM9.50003 12.75C11.1569 12.75 12.5 11.4069 12.5 9.75C12.5 8.09315 11.1569 6.75 9.50003 6.75C7.84318 6.75 6.50003 8.09315 6.50003 9.75C6.50003 11.4069 7.84318 12.75 9.50003 12.75Z" fill="currentColor"/><path d="M1.15063 1.87794C0.94979 1.6771 0.94979 1.35147 1.15063 1.15063C1.35147 0.949789 1.6771 0.949789 1.87794 1.15063L18.8494 18.1221C19.0502 18.3229 19.0502 18.6485 18.8494 18.8494C18.6485 19.0502 18.3229 19.0502 18.1221 18.8494L1.15063 1.87794Z" fill="currentColor"/></g><path fill-rule="evenodd" clip-rule="evenodd" d="M13 24.5C19.3513 24.5 24.5 19.3513 24.5 13C24.5 6.64873 19.3513 1.5 13 1.5C6.64873 1.5 1.5 6.64873 1.5 13C1.5 19.3513 6.64873 24.5 13 24.5ZM13 25.5C19.9036 25.5 25.5 19.9036 25.5 13C25.5 6.09644 19.9036 0.5 13 0.5C6.09644 0.5 0.5 6.09644 0.5 13C0.5 19.9036 6.09644 25.5 13 25.5Z" fill="currentColor"/></svg>