<svg width="20" height="20" viewBox="0 0 26 26" fill="none" xmlns="http://www.w3.org/2000/svg"><defs><mask id="mask-pencil-person-checkmark-circle-filled"><rect width="26" height="26" fill="white"/><g transform="translate(3, 3)"><g><path fill-rule="evenodd" clip-rule="evenodd" d="M6.79999 3C5.41928 3 4.29999 4.11929 4.29999 5.5C4.29999 6.88071 5.41928 8 6.79999 8C8.1807 8 9.29999 6.88071 9.29999 5.5C9.29999 4.11929 8.1807 3 6.79999 3ZM3.29999 5.5C3.29999 3.567 4.86699 2 6.79999 2C8.73298 2 10.3 3.567 10.3 5.5C10.3 7.433 8.73298 9 6.79999 9C4.86699 9 3.29999 7.433 3.29999 5.5Z" fill="black"/><path fill-rule="evenodd" clip-rule="evenodd" d="M0.799988 14.5C0.799988 11.1782 3.46907 8 6.79999 8C10.1309 8 12.8 11.1782 12.8 14.5V16.5C12.8 16.7761 12.5761 17 12.3 17C12.0238 17 11.8 16.7761 11.8 16.5V14.5C11.8 11.6266 9.48016 9 6.79999 9C4.11982 9 1.79999 11.6266 1.79999 14.5V16.5C1.79999 16.7761 1.57613 17 1.29999 17C1.02385 17 0.799988 16.7761 0.799988 16.5V14.5Z" fill="black"/><path fill-rule="evenodd" clip-rule="evenodd" d="M18.1539 3.56295C18.3953 3.69706 18.4823 4.00146 18.3482 4.24285L15.5704 9.24285C15.4363 9.48424 15.1319 9.57122 14.8905 9.43711C14.6491 9.303 14.5621 8.9986 14.6962 8.75721L17.474 3.75721C17.6081 3.51582 17.9125 3.42884 18.1539 3.56295Z" fill="black"/><path fill-rule="evenodd" clip-rule="evenodd" d="M11.9651 6.46544C12.1376 6.24981 12.4522 6.21485 12.6679 6.38735L15.4456 8.60958C15.6613 8.78208 15.6962 9.09673 15.5237 9.31236C15.3512 9.52799 15.0366 9.56295 14.8209 9.39045L12.0432 7.16822C11.8275 6.99572 11.7926 6.68107 11.9651 6.46544Z" fill="black"/></g></g></mask></defs><circle r="13" cx="13" cy="13" mask="url(#mask-pencil-person-checkmark-circle-filled)" fill="currentColor"/></svg>