<svg width="20" height="20" viewBox="0 0 20 20" fill="none" xmlns="http://www.w3.org/2000/svg"><g><path fill-rule="evenodd" clip-rule="evenodd" d="M3.36087 9.97696C2.75855 10.8804 2.43714 11.942 2.43714 13.0278L2.43715 13.9999C2.43715 14.2761 2.21329 14.5 1.93715 14.5C1.661 14.5 1.43715 14.2761 1.43715 14L1.43714 13.0278C1.43714 11.7446 1.81699 10.49 2.52882 9.42226L2.63666 9.2605C2.78983 9.03073 3.10027 8.96865 3.33003 9.12182C3.5598 9.275 3.62188 9.58543 3.46871 9.8152L3.36087 9.97696Z" fill="currentColor"/><path fill-rule="evenodd" clip-rule="evenodd" d="M6.1793 8.36456C5.09007 8.36456 4.0729 8.90893 3.46871 9.81523L2.63666 9.26053C3.42632 8.07603 4.75571 7.36456 6.1793 7.36456H6.39931C6.67545 7.36456 6.89931 7.58842 6.89931 7.86456C6.89931 8.14071 6.67545 8.36456 6.39931 8.36456H6.1793Z" fill="currentColor"/><path fill-rule="evenodd" clip-rule="evenodd" d="M9.25833 9.96528C9.72854 10.6706 9.97945 11.4993 9.97945 12.347L10.9794 12.347C10.9795 11.3019 10.6701 10.2802 10.0904 9.41058L9.99033 9.26051C9.83716 9.03074 9.52672 8.96866 9.29696 9.12183C9.06719 9.27501 9.00511 9.58544 9.15828 9.81521L9.25833 9.96528Z" fill="currentColor"/><path fill-rule="evenodd" clip-rule="evenodd" d="M6.44769 8.36456C7.53692 8.36456 8.55408 8.90893 9.15828 9.81523L9.99033 9.26053C9.20066 8.07603 7.87127 7.36456 6.44769 7.36456H6.22768C5.95153 7.36456 5.72768 7.58842 5.72768 7.86456C5.72768 8.14071 5.95153 8.36456 6.22768 8.36456H6.44769Z" fill="currentColor"/><path fill-rule="evenodd" clip-rule="evenodd" d="M6.25 7.25C7.49264 7.25 8.5 6.24264 8.5 5C8.5 3.75736 7.49264 2.75 6.25 2.75C5.00736 2.75 4 3.75736 4 5C4 6.24264 5.00736 7.25 6.25 7.25ZM6.25 8.25C8.04493 8.25 9.5 6.79493 9.5 5C9.5 3.20507 8.04493 1.75 6.25 1.75C4.45507 1.75 3 3.20507 3 5C3 6.79493 4.45507 8.25 6.25 8.25Z" fill="currentColor"/><path fill-rule="evenodd" clip-rule="evenodd" d="M10.5085 13.1863C9.90619 14.0898 9.58478 15.1513 9.58479 16.2372L9.58479 17.2708C9.58479 17.547 9.36093 17.7708 9.08479 17.7708C8.80865 17.7708 8.58479 17.547 8.58479 17.2708L8.58478 16.2372C8.58478 14.9539 8.96463 13.6993 9.67646 12.6316L9.80892 12.4329C9.9621 12.2031 10.2725 12.1411 10.5023 12.2942C10.7321 12.4474 10.7941 12.7578 10.641 12.9876L10.5085 13.1863Z" fill="currentColor"/><path fill-rule="evenodd" clip-rule="evenodd" d="M13.4205 11.5C12.3036 11.5 11.2605 12.0582 10.6409 12.9876L9.8089 12.4329C10.6139 11.2253 11.9692 10.5 13.4205 10.5H13.6454C13.9216 10.5 14.1454 10.7239 14.1454 11C14.1454 11.2761 13.9216 11.5 13.6454 11.5H13.4205Z" fill="currentColor"/><path fill-rule="evenodd" clip-rule="evenodd" d="M16.6069 13.1863C17.2093 14.0898 17.5307 15.1513 17.5307 16.2372L17.5307 17.2708C17.5307 17.547 17.7545 17.7708 18.0307 17.7708C18.3068 17.7708 18.5307 17.547 18.5307 17.2708L18.5307 16.2372C18.5307 14.9539 18.1508 13.6993 17.439 12.6316L17.3065 12.4329C17.1534 12.2031 16.8429 12.1411 16.6132 12.2942C16.3834 12.4474 16.3213 12.7578 16.4745 12.9876L16.6069 13.1863Z" fill="currentColor"/><path fill-rule="evenodd" clip-rule="evenodd" d="M13.6949 11.5C14.8119 11.5 15.855 12.0582 16.4745 12.9876L17.3066 12.4329C16.5015 11.2253 15.1462 10.5 13.6949 10.5H13.4701C13.1939 10.5 12.9701 10.7239 12.9701 11C12.9701 11.2761 13.1939 11.5 13.4701 11.5H13.6949Z" fill="currentColor"/><path fill-rule="evenodd" clip-rule="evenodd" d="M13.5 10.5C14.7426 10.5 15.75 9.49264 15.75 8.25C15.75 7.00736 14.7426 6 13.5 6C12.2573 6 11.25 7.00736 11.25 8.25C11.25 9.49264 12.2573 10.5 13.5 10.5ZM13.5 11.5C15.2949 11.5 16.75 10.0449 16.75 8.25C16.75 6.45507 15.2949 5 13.5 5C11.705 5 10.25 6.45507 10.25 8.25C10.25 10.0449 11.705 11.5 13.5 11.5Z" fill="currentColor"/></g></svg>