<svg width="20" height="20" viewBox="0 0 26 26" fill="none" xmlns="http://www.w3.org/2000/svg"><g transform="translate(3, 3)"><g><path fill-rule="evenodd" clip-rule="evenodd" d="M11.95 6.75C11.95 6.47386 12.1739 6.25 12.45 6.25H17.7C17.9762 6.25 18.2 6.47386 18.2 6.75C18.2 7.02614 17.9762 7.25 17.7 7.25H12.45C12.1739 7.25 11.95 7.02614 11.95 6.75Z" fill="currentColor"/><path fill-rule="evenodd" clip-rule="evenodd" d="M15 10C14.7239 10 14.5 9.77614 14.5 9.5V4.25001C14.5 3.97386 14.7239 3.75001 15 3.75001C15.2761 3.75001 15.5 3.97386 15.5 4.25001V9.5C15.5 9.77614 15.2761 10 15 10Z" fill="currentColor"/><path fill-rule="evenodd" clip-rule="evenodd" d="M6.79999 3C5.41928 3 4.29999 4.11929 4.29999 5.5C4.29999 6.88071 5.41928 8 6.79999 8C8.1807 8 9.29999 6.88071 9.29999 5.5C9.29999 4.11929 8.1807 3 6.79999 3ZM3.29999 5.5C3.29999 3.567 4.86699 2 6.79999 2C8.73298 2 10.3 3.567 10.3 5.5C10.3 7.433 8.73298 9 6.79999 9C4.86699 9 3.29999 7.433 3.29999 5.5Z" fill="currentColor"/><path fill-rule="evenodd" clip-rule="evenodd" d="M0.799988 14.5C0.799988 11.1782 3.46907 8 6.79999 8C10.1309 8 12.8 11.1782 12.8 14.5V16.5C12.8 16.7761 12.5761 17 12.3 17C12.0238 17 11.8 16.7761 11.8 16.5V14.5C11.8 11.6266 9.48016 9 6.79999 9C4.11982 9 1.79999 11.6266 1.79999 14.5V16.5C1.79999 16.7761 1.57613 17 1.29999 17C1.02385 17 0.799988 16.7761 0.799988 16.5V14.5Z" fill="currentColor"/></g></g><path fill-rule="evenodd" clip-rule="evenodd" d="M13 24.5C19.3513 24.5 24.5 19.3513 24.5 13C24.5 6.64873 19.3513 1.5 13 1.5C6.64873 1.5 1.5 6.64873 1.5 13C1.5 19.3513 6.64873 24.5 13 24.5ZM13 25.5C19.9036 25.5 25.5 19.9036 25.5 13C25.5 6.09644 19.9036 0.5 13 0.5C6.09644 0.5 0.5 6.09644 0.5 13C0.5 19.9036 6.09644 25.5 13 25.5Z" fill="currentColor"/></svg>