<svg width="20" height="20" viewBox="0 0 20 20" fill="none" xmlns="http://www.w3.org/2000/svg"><path fill-rule="evenodd" clip-rule="evenodd" d="M10.5 2.5H5.5V1.5H10.5C12.9853 1.5 15 3.51472 15 6V7C15 9.48528 12.9853 11.5 10.5 11.5H5.5V10.5H10.5C12.433 10.5 14 8.933 14 7V6C14 4.067 12.433 2.5 10.5 2.5Z" fill="currentColor"/><path fill-rule="evenodd" clip-rule="evenodd" d="M5.5 1.5C5.77614 1.5 6 1.72386 6 2L6 17.5C6 17.7761 5.77614 18 5.5 18C5.22386 18 5 17.7761 5 17.5L5 2C5 1.72386 5.22386 1.5 5.5 1.5Z" fill="currentColor"/><path fill-rule="evenodd" clip-rule="evenodd" d="M2.00001 4.93574C2.00001 4.6596 2.22386 4.43574 2.50001 4.43574L16.5 4.43575C16.7761 4.43575 17 4.65961 17 4.93575C17 5.21189 16.7761 5.43575 16.5 5.43575L2.50001 5.43574C2.22386 5.43574 2.00001 5.21189 2.00001 4.93574Z" fill="currentColor"/><path fill-rule="evenodd" clip-rule="evenodd" d="M2.00001 7.93574C2.00001 7.6596 2.22386 7.43574 2.50001 7.43574L16.5 7.43572C16.7761 7.43572 17 7.65957 17 7.93572C17 8.21186 16.7762 8.43572 16.5 8.43572L2.50001 8.43574C2.22387 8.43574 2.00001 8.21189 2.00001 7.93574Z" fill="currentColor"/></svg>