<svg width="20" height="20" viewBox="0 0 20 20" fill="none" xmlns="http://www.w3.org/2000/svg"><path fill-rule="evenodd" clip-rule="evenodd" d="M8 8C8.55228 8 9 7.55228 9 7C9 6.44772 8.55228 6 8 6C7.44772 6 7 6.44772 7 7C7 7.55228 7.44772 8 8 8ZM8 9C9.10457 9 10 8.10457 10 7C10 5.89543 9.10457 5 8 5C6.89543 5 6 5.89543 6 7C6 8.10457 6.89543 9 8 9Z" fill="currentColor"/><path d="M7.49999 10.6777L5.59058 13.25L7.49999 13.25L9.40939 14.25H5.59058C4.76881 14.25 4.29782 13.3138 4.78763 12.654L6.69703 10.0817C7.09685 9.54308 7.90313 9.54308 8.30294 10.0817L9.25765 11.3678L8.45469 11.9639L7.49999 10.6777Z" fill="currentColor"/><path fill-rule="evenodd" clip-rule="evenodd" d="M14.2573 13.25L11.25 9.77753L8.24275 13.25L14.2573 13.25ZM12.0059 9.12287C11.6072 8.66241 10.8928 8.66241 10.4941 9.12287L7.48682 12.5953C6.92595 13.243 7.386 14.25 8.24275 14.25H14.2573C15.114 14.25 15.5741 13.243 15.0132 12.5953L12.0059 9.12287Z" fill="currentColor"/><path fill-rule="evenodd" clip-rule="evenodd" d="M17 2.5H3C2.72386 2.5 2.5 2.72386 2.5 3V17C2.5 17.2761 2.72386 17.5 3 17.5H17C17.2761 17.5 17.5 17.2761 17.5 17V3C17.5 2.72386 17.2761 2.5 17 2.5ZM3 1.5C2.17157 1.5 1.5 2.17157 1.5 3V17C1.5 17.8284 2.17157 18.5 3 18.5H17C17.8284 18.5 18.5 17.8284 18.5 17V3C18.5 2.17157 17.8284 1.5 17 1.5H3Z" fill="currentColor"/></svg>