<svg width="20" height="20" viewBox="0 0 26 26" fill="none" xmlns="http://www.w3.org/2000/svg"><defs><mask id="mask-pencil-photo-studio-circle-filled"><rect width="26" height="26" fill="white"/><g transform="translate(3, 3)"><g><path fill-rule="evenodd" clip-rule="evenodd" d="M1.40005 2.5C1.40005 1.94771 1.84777 1.5 2.40005 1.5H8.60005C9.15234 1.5 9.60005 1.94771 9.60005 2.5V6.3C9.60005 6.85228 9.15234 7.3 8.60005 7.3H2.40006C1.84777 7.3 1.40005 6.85228 1.40005 6.3V2.5ZM8.60005 2.5L2.40005 2.5V6.3H8.60005V2.5Z" fill="black"/><path fill-rule="evenodd" clip-rule="evenodd" d="M0.649994 2C0.649994 1.72386 0.873852 1.5 1.14999 1.5H9.84999C10.1261 1.5 10.35 1.72386 10.35 2C10.35 2.27614 10.1261 2.5 9.84999 2.5H1.14999C0.873852 2.5 0.649994 2.27614 0.649994 2Z" fill="black"/><path fill-rule="evenodd" clip-rule="evenodd" d="M2.39029 6.59803L1.6099 10.5L9.39009 10.5L8.60971 6.59803L9.59029 6.40192L10.3707 10.3039C10.4944 10.9226 10.0211 11.5 9.39009 11.5H1.6099C0.978852 11.5 0.505559 10.9227 0.629317 10.3039L1.40971 6.40192L2.39029 6.59803Z" fill="black"/><path fill-rule="evenodd" clip-rule="evenodd" d="M19.25 17.5C19.25 17.2239 19.0261 17 18.75 17H14.75C14.4739 17 14.25 17.2239 14.25 17.5C14.25 17.7761 14.4739 18 14.75 18H18.75C19.0261 18 19.25 17.7761 19.25 17.5Z" fill="black"/><path fill-rule="evenodd" clip-rule="evenodd" d="M13.75 7.00002H14.3543C14.4908 7.00002 14.589 7.02618 14.6561 7.06012C15.0149 7.24164 15.5796 7.56845 16.0409 8.0036C16.5138 8.44967 16.75 8.88504 16.75 9.29414C16.75 9.70324 16.5138 10.1386 16.0409 10.5847C15.5796 11.0198 15.0149 11.3466 14.6561 11.5282C14.589 11.5621 14.4908 11.5883 14.3543 11.5883H13.75C13.1977 11.5883 12.75 11.1405 12.75 10.5883V8.00002C12.75 7.44774 13.1977 7.00002 13.75 7.00002ZM15.1076 12.4204C14.8745 12.5384 14.6156 12.5883 14.3543 12.5883H13.75C12.6454 12.5883 11.75 11.6928 11.75 10.5883V8.00002C11.75 6.89545 12.6454 6.00002 13.75 6.00002H14.3543C14.6156 6.00002 14.8745 6.04989 15.1076 6.16783C15.9032 6.57036 17.75 7.67876 17.75 9.29414C17.75 10.9095 15.9032 12.0179 15.1076 12.4204Z" fill="black"/><path fill-rule="evenodd" clip-rule="evenodd" d="M17.25 8.70001C16.9739 8.70001 16.75 8.92387 16.75 9.20001V16.7647C16.75 17.0409 16.9739 17.2647 17.25 17.2647C17.5261 17.2647 17.75 17.0409 17.75 16.7647V9.20001C17.75 8.92387 17.5261 8.70001 17.25 8.70001Z" fill="black"/></g></g></mask></defs><circle r="13" cx="13" cy="13" mask="url(#mask-pencil-photo-studio-circle-filled)" fill="currentColor"/></svg>