<svg width="20" height="20" viewBox="0 0 20 20" fill="none" xmlns="http://www.w3.org/2000/svg"><g><path fill-rule="evenodd" clip-rule="evenodd" d="M15.8492 10.1924L9.48529 3.82843C7.92319 2.26633 5.39053 2.26633 3.82843 3.82843C2.26634 5.39052 2.26634 7.92318 3.82843 9.48528L10.1924 15.8492C11.7545 17.4113 14.2872 17.4113 15.8492 15.8492C17.4113 14.2871 17.4113 11.7545 15.8492 10.1924ZM4.53554 4.53553C5.70711 3.36396 7.60661 3.36396 8.77818 4.53553L15.1421 10.8995C16.3137 12.0711 16.3137 13.9706 15.1421 15.1421C13.9706 16.3137 12.0711 16.3137 10.8995 15.1421L4.53554 8.77817C3.36397 7.6066 3.36397 5.70711 4.53554 4.53553Z" fill="currentColor"/><path d="M13.0369 7.58066L12.7944 8.55081C11.5929 8.25043 10.571 8.39641 9.69302 8.98176C8.82366 9.56133 8.23929 10.6688 7.96221 12.337L6.97572 12.1731C7.29424 10.2556 8.00767 8.90348 9.13832 8.14971C10.2603 7.40173 11.5718 7.21437 13.0369 7.58066Z" fill="currentColor"/></g><path d="M1.15063 1.87794C0.94979 1.6771 0.94979 1.35147 1.15063 1.15063C1.35147 0.949789 1.6771 0.949789 1.87794 1.15063L18.8494 18.1221C19.0502 18.3229 19.0502 18.6485 18.8494 18.8494C18.6485 19.0502 18.3229 19.0502 18.1221 18.8494L1.15063 1.87794Z" fill="currentColor"/></svg>