<svg width="20" height="20" viewBox="0 0 26 26" fill="none" xmlns="http://www.w3.org/2000/svg"><g transform="translate(3, 3)"><g><path fill-rule="evenodd" clip-rule="evenodd" d="M10.77 2.93234C10.0822 2.47053 9.15027 2.6537 8.68846 3.34147L6.17991 7.0774L5.3497 6.51994L7.85825 2.78401C8.62794 1.63774 10.1811 1.33245 11.3274 2.10213L14.6482 4.33196C15.7945 5.10164 16.0998 6.65484 15.3301 7.80111L12.8216 11.537L11.9914 10.9796L14.4999 7.24366C14.9617 6.55589 14.7785 5.62397 14.0908 5.16216L10.77 2.93234Z" fill="currentColor"/><path fill-rule="evenodd" clip-rule="evenodd" d="M1.73818 8.31073C1.89212 8.08148 2.20275 8.02042 2.43201 8.17436L12.3945 14.8638C12.6237 15.0178 12.6848 15.3284 12.5309 15.5577C12.3769 15.7869 12.0663 15.848 11.837 15.694L1.87455 9.00456C1.6453 8.85063 1.58424 8.53999 1.73818 8.31073Z" fill="currentColor"/><path fill-rule="evenodd" clip-rule="evenodd" d="M5.06563 7.35878C4.64649 7.41318 4.19814 7.50764 3.90897 7.65389C3.62785 7.79607 3.29337 8.09024 3.00678 8.38399C2.86914 8.52506 2.75221 8.6559 2.66983 8.75133C2.62876 8.79891 2.59657 8.83735 2.57502 8.86343L2.55097 8.89279L2.54538 8.8997L2.54432 8.90103C2.54435 8.90099 2.54432 8.90103 2.1533 8.58941M2.1533 8.58941C1.76229 8.27779 1.76233 8.27773 1.76238 8.27768L1.76352 8.27625L1.76593 8.27325L1.77422 8.26298L1.80414 8.22645C1.82978 8.19542 1.86661 8.15146 1.91285 8.0979C2.00509 7.99103 2.13595 7.84458 2.29101 7.68565C2.58981 7.37939 3.02033 6.98271 3.45764 6.76153C3.90773 6.53389 4.50013 6.42379 4.93692 6.3671C5.16362 6.33768 5.36521 6.3207 5.51032 6.31104C5.58306 6.3062 5.64208 6.30316 5.68351 6.30132L5.73212 6.29938L5.74571 6.29893L5.74967 6.29882L5.75093 6.29878C5.751 6.29878 5.75169 6.29876 5.76481 6.79859L5.75093 6.29878C6.02697 6.29154 6.25739 6.50942 6.26464 6.78547C6.27188 7.06148 6.05404 7.29111 5.77804 7.29841L5.77616 7.29847L5.76699 7.29877L5.72787 7.30034C5.69301 7.30189 5.64139 7.30453 5.57674 7.30883C5.44708 7.31746 5.26691 7.33266 5.06563 7.35878" fill="currentColor"/><path fill-rule="evenodd" clip-rule="evenodd" d="M12.1565 12.1201C12.2647 12.5286 12.347 12.9794 12.3211 13.3024C12.2959 13.6164 12.1502 14.0373 11.9868 14.4138C11.9083 14.5946 11.8314 14.7523 11.7743 14.8647C11.7458 14.9207 11.7224 14.9651 11.7064 14.9949L11.6883 15.0283L11.684 15.0361L11.6832 15.0375C11.6833 15.0375 11.6832 15.0375 12.1197 15.2815M12.1197 15.2815C12.5561 15.5255 12.5561 15.5254 12.5562 15.5254L12.557 15.5238L12.5589 15.5204L12.5653 15.5089L12.5878 15.4673C12.6068 15.4319 12.6335 15.3811 12.6656 15.3181C12.7296 15.1922 12.8156 15.0157 12.9041 14.812C13.0744 14.4195 13.2787 13.8709 13.3179 13.3824C13.3582 12.8796 13.2359 12.2896 13.1231 11.8639C13.0645 11.6429 13.0039 11.4499 12.9579 11.3119C12.9349 11.2428 12.9154 11.187 12.9014 11.1479L12.8848 11.1022L12.8801 11.0895L12.8787 11.0857L12.8782 11.0846C12.8782 11.0845 12.878 11.0839 12.4103 11.2609L12.8782 11.0846C12.7804 10.8263 12.4916 10.6955 12.2333 10.7933C11.9751 10.891 11.845 11.1796 11.9427 11.4378L11.9434 11.4396L11.9465 11.4482L11.9599 11.485C11.9717 11.5178 11.9888 11.5666 12.0092 11.6281C12.0503 11.7514 12.1045 11.9239 12.1565 12.1201" fill="currentColor"/><path fill-rule="evenodd" clip-rule="evenodd" d="M7.41327 11.519C7.64252 11.6729 7.70358 11.9836 7.54964 12.2128L5.31982 15.5337C5.16588 15.7629 4.85524 15.824 4.62599 15.67C4.39673 15.5161 4.33568 15.2055 4.48961 14.9762L6.71943 11.6554C6.87337 11.4261 7.18401 11.3651 7.41327 11.519Z" fill="currentColor"/></g><path d="M1.15063 1.87794C0.94979 1.6771 0.94979 1.35147 1.15063 1.15063C1.35147 0.949789 1.6771 0.949789 1.87794 1.15063L18.8494 18.1221C19.0502 18.3229 19.0502 18.6485 18.8494 18.8494C18.6485 19.0502 18.3229 19.0502 18.1221 18.8494L1.15063 1.87794Z" fill="currentColor"/></g><path fill-rule="evenodd" clip-rule="evenodd" d="M13 24.5C19.3513 24.5 24.5 19.3513 24.5 13C24.5 6.64873 19.3513 1.5 13 1.5C6.64873 1.5 1.5 6.64873 1.5 13C1.5 19.3513 6.64873 24.5 13 24.5ZM13 25.5C19.9036 25.5 25.5 19.9036 25.5 13C25.5 6.09644 19.9036 0.5 13 0.5C6.09644 0.5 0.5 6.09644 0.5 13C0.5 19.9036 6.09644 25.5 13 25.5Z" fill="currentColor"/></svg>