<svg width="20" height="20" viewBox="0 0 26 26" fill="none" xmlns="http://www.w3.org/2000/svg"><g transform="translate(3, 3)"><g><path fill-rule="evenodd" clip-rule="evenodd" d="M10.1255 3.92316C6.82506 3.92316 4.14954 6.59868 4.14954 9.89911C4.14954 13.1995 6.82506 15.8751 10.1255 15.8751C13.4259 15.8751 16.1014 13.1995 16.1014 9.89911C16.1014 6.59868 13.4259 3.92316 10.1255 3.92316ZM3.14954 9.89911C3.14954 6.0464 6.27278 2.92316 10.1255 2.92316C13.9782 2.92316 17.1014 6.0464 17.1014 9.89911C17.1014 13.7518 13.9782 16.8751 10.1255 16.8751C6.27278 16.8751 3.14954 13.7518 3.14954 9.89911Z" fill="currentColor"/><path fill-rule="evenodd" clip-rule="evenodd" d="M2.30013 13.5276C1.96262 14.1949 2.01209 14.5131 2.09215 14.6303C2.15881 14.7278 2.3676 14.8676 2.92973 14.8535C3.46576 14.8401 4.18958 14.6862 5.06226 14.385C6.80065 13.7851 9.0199 12.6396 11.2965 11.0834C13.565 9.53266 15.2818 7.89425 16.3189 6.50917C16.8391 5.8144 17.1725 5.20422 17.3286 4.71711C17.4895 4.21475 17.4327 3.94508 17.3464 3.81878C17.3319 3.7977 17.2994 3.75603 17.1529 3.74096C16.9914 3.72435 16.7513 3.74926 16.4142 3.83304C15.7835 3.98978 14.973 4.30875 13.9916 4.69493C13.9236 4.7217 13.8547 4.74879 13.7851 4.77617L13.4192 3.84549C13.4977 3.81466 13.5756 3.78397 13.653 3.75348C14.6035 3.37921 15.475 3.03604 16.173 2.86256C16.5505 2.76873 16.9228 2.71202 17.2552 2.74621C17.6027 2.78194 17.9457 2.92348 18.1719 3.25446C18.5166 3.75874 18.4784 4.40581 18.2809 5.02223C18.0785 5.6539 17.6764 6.36454 17.1194 7.10852C16.0019 8.60092 14.1974 10.3117 11.8608 11.9089C9.5323 13.5006 7.23295 14.6938 5.38849 15.3303C4.46976 15.6474 3.6361 15.8362 2.95474 15.8532C2.29948 15.8696 1.63098 15.7277 1.2666 15.1946C0.847479 14.5815 1.05096 13.7817 1.40777 13.0762C1.78598 12.3284 2.43987 11.4742 3.28699 10.5825L4.01197 11.2713C3.197 12.1291 2.61625 12.9025 2.30013 13.5276Z" fill="currentColor"/></g><path d="M1.15063 1.87794C0.94979 1.6771 0.94979 1.35147 1.15063 1.15063C1.35147 0.949789 1.6771 0.949789 1.87794 1.15063L18.8494 18.1221C19.0502 18.3229 19.0502 18.6485 18.8494 18.8494C18.6485 19.0502 18.3229 19.0502 18.1221 18.8494L1.15063 1.87794Z" fill="currentColor"/></g><path fill-rule="evenodd" clip-rule="evenodd" d="M13 24.5C19.3513 24.5 24.5 19.3513 24.5 13C24.5 6.64873 19.3513 1.5 13 1.5C6.64873 1.5 1.5 6.64873 1.5 13C1.5 19.3513 6.64873 24.5 13 24.5ZM13 25.5C19.9036 25.5 25.5 19.9036 25.5 13C25.5 6.09644 19.9036 0.5 13 0.5C6.09644 0.5 0.5 6.09644 0.5 13C0.5 19.9036 6.09644 25.5 13 25.5Z" fill="currentColor"/></svg>