<svg width="20" height="20" viewBox="0 0 26 26" fill="none" xmlns="http://www.w3.org/2000/svg"><defs><mask id="mask-pencil-planet-circle-filled"><rect width="26" height="26" fill="white"/><g transform="translate(3, 3)"><path fill-rule="evenodd" clip-rule="evenodd" d="M9.5 2C5.35786 2 2 5.35786 2 9.5C2 13.6421 5.35786 17 9.5 17C13.6421 17 17 13.6421 17 9.5C17 5.35786 13.6421 2 9.5 2ZM1 9.5C1 4.80558 4.80558 1 9.5 1C14.1944 1 18 4.80558 18 9.5C18 14.1944 14.1944 18 9.5 18C4.80558 18 1 14.1944 1 9.5Z" fill="black"/><path fill-rule="evenodd" clip-rule="evenodd" d="M15.873 4.67897C16.0108 4.91824 15.9287 5.22396 15.6894 5.36183C15.0749 5.71594 14.2429 6.00001 13.2857 6.20347C13.0156 6.26088 12.7501 6.08846 12.6927 5.81835C12.6353 5.54824 12.8077 5.28273 13.0778 5.22532C13.9781 5.03396 14.6993 4.77824 15.1901 4.49539C15.4294 4.35752 15.7351 4.43971 15.873 4.67897ZM3.33872 4.82559C3.46248 4.57873 3.76292 4.47894 4.00978 4.6027C5.14053 5.16959 7.15343 5.57147 9.49998 5.57147C9.77612 5.57147 9.99998 5.79533 9.99998 6.07147C9.99998 6.34761 9.77612 6.57147 9.49998 6.57147C7.07631 6.57147 4.88781 6.16153 3.56161 5.49665C3.31475 5.37289 3.21496 5.07245 3.33872 4.82559Z" fill="black"/><path fill-rule="evenodd" clip-rule="evenodd" d="M16.8062 8.13722C16.9277 8.38522 16.8251 8.68472 16.5771 8.80616C15.0803 9.53908 12.3821 9.99996 9.36735 9.99996C6.5292 9.99996 3.98073 9.59161 2.44692 8.93817C2.19287 8.82994 2.07466 8.53625 2.18289 8.2822C2.29113 8.02815 2.58481 7.90995 2.83886 8.01818C4.19636 8.5965 6.59201 8.99996 9.36735 8.99996C12.3262 8.99996 14.8436 8.54153 16.1373 7.90805C16.3853 7.78661 16.6848 7.88921 16.8062 8.13722Z" fill="black"/><path fill-rule="evenodd" clip-rule="evenodd" d="M16.8062 11.5659C16.9277 11.8139 16.8251 12.1134 16.5771 12.2348C15.8016 12.6145 14.4782 12.9079 13.0223 13.1087C11.5476 13.3121 9.87357 13.4286 8.35718 13.4286C8.08103 13.4286 7.85718 13.2048 7.85718 12.9286C7.85718 12.6525 8.08103 12.4286 8.35718 12.4286C9.82759 12.4286 11.456 12.3153 12.8857 12.1181C14.3343 11.9183 15.5175 11.6402 16.1373 11.3367C16.3853 11.2153 16.6848 11.3179 16.8062 11.5659ZM2.18289 11.7109C2.29113 11.4568 2.58481 11.3386 2.83886 11.4468C3.31645 11.6503 3.93016 11.835 4.65517 11.988C4.92536 12.045 5.09818 12.3102 5.04118 12.5804C4.98417 12.8506 4.71893 13.0234 4.44873 12.9664C3.6814 12.8045 3.00143 12.6031 2.44692 12.3668C2.19287 12.2586 2.07466 11.9649 2.18289 11.7109Z" fill="black"/><path fill-rule="evenodd" clip-rule="evenodd" d="M6.35716 12.2857C5.84432 12.2857 5.42859 12.7014 5.42859 13.2143C5.42859 13.7271 5.84432 14.1428 6.35716 14.1428C6.87 14.1428 7.28573 13.7271 7.28573 13.2143C7.28573 12.7014 6.87 12.2857 6.35716 12.2857ZM4.42859 13.2143C4.42859 12.1492 5.29204 11.2857 6.35716 11.2857C7.42228 11.2857 8.28573 12.1492 8.28573 13.2143C8.28573 14.2794 7.42228 15.1428 6.35716 15.1428C5.29204 15.1428 4.42859 14.2794 4.42859 13.2143Z" fill="black"/></g></mask></defs><circle r="13" cx="13" cy="13" mask="url(#mask-pencil-planet-circle-filled)" fill="currentColor"/></svg>