<svg width="20" height="20" viewBox="0 0 26 26" fill="none" xmlns="http://www.w3.org/2000/svg"><g transform="translate(3, 3)"><path fill-rule="evenodd" clip-rule="evenodd" d="M5.99999 15.3211L15.0144 10.4383L5.99999 4.80427V15.3211ZM15.4907 11.3176C16.1645 10.9526 16.1942 9.99643 15.5444 9.59028L6.52999 3.95627C5.86394 3.53999 4.99999 4.01884 4.99999 4.80427V15.3211C4.99999 16.0788 5.80997 16.5613 6.47627 16.2004L15.4907 11.3176Z" fill="currentColor"/></g><path fill-rule="evenodd" clip-rule="evenodd" d="M13 24.5C19.3513 24.5 24.5 19.3513 24.5 13C24.5 6.64873 19.3513 1.5 13 1.5C6.64873 1.5 1.5 6.64873 1.5 13C1.5 19.3513 6.64873 24.5 13 24.5ZM13 25.5C19.9036 25.5 25.5 19.9036 25.5 13C25.5 6.09644 19.9036 0.5 13 0.5C6.09644 0.5 0.5 6.09644 0.5 13C0.5 19.9036 6.09644 25.5 13 25.5Z" fill="currentColor"/></svg>