<svg width="20" height="20" viewBox="0 0 26 26" fill="none" xmlns="http://www.w3.org/2000/svg"><defs><mask id="mask-pencil-power-circle-filled"><rect width="26" height="26" fill="white"/><g transform="translate(3, 3)"><g><path d="M4.47659 5.45962C4.70925 5.22366 5.08914 5.22098 5.3251 5.45364C5.56106 5.6863 5.56373 6.06619 5.33107 6.30215C4.22977 7.41907 3.60002 8.92906 3.60002 10.5422C3.60002 13.8535 6.24345 16.5344 9.50002 16.5344C12.7566 16.5344 15.4 13.8535 15.4 10.5422C15.4 8.92906 14.7703 7.41907 13.669 6.30215C13.4363 6.06619 13.439 5.6863 13.675 5.45364C13.9109 5.22098 14.2908 5.22366 14.5235 5.45962C15.8444 6.79928 16.6 8.61113 16.6 10.5422C16.6 14.5125 13.4232 17.7344 9.50002 17.7344C5.5769 17.7344 2.40002 14.5125 2.40002 10.5422C2.40002 8.61113 3.15566 6.79928 4.47659 5.45962Z" fill="black"/><path d="M8.87805 1.25002C8.87805 0.918654 9.14668 0.650024 9.47805 0.650024C9.80942 0.650024 10.0781 0.918654 10.0781 1.25002V8.33477C10.0781 8.66614 9.80942 8.93477 9.47805 8.93477C9.14668 8.93477 8.87805 8.66614 8.87805 8.33477L8.87805 1.25002Z" fill="black"/></g></g></mask></defs><circle r="13" cx="13" cy="13" mask="url(#mask-pencil-power-circle-filled)" fill="currentColor"/></svg>