<svg width="20" height="20" viewBox="0 0 26 26" fill="none" xmlns="http://www.w3.org/2000/svg"><defs><mask id="mask-pencil-previous-track-circle-filled"><rect width="26" height="26" fill="white"/><g transform="translate(3, 3)"><path fill-rule="evenodd" clip-rule="evenodd" d="M16.5 14.7962L11.0186 9.99996L16.5 5.20373L16.5 14.7962ZM10.3601 10.7525C9.90478 10.3541 9.90478 9.64579 10.3601 9.24738L15.8415 4.45115C16.4881 3.88539 17.5 4.34457 17.5 5.20373V14.7962C17.5 15.6554 16.4881 16.1145 15.8415 15.5488L10.3601 10.7525Z" fill="black"/><path fill-rule="evenodd" clip-rule="evenodd" d="M9.50003 14.7962L4.01862 9.99996L9.50002 5.20373L9.50003 14.7962ZM3.36011 10.7525C2.90478 10.3541 2.90478 9.64579 3.36011 9.24738L8.84152 4.45115C9.4881 3.88539 10.5 4.34457 10.5 5.20373V14.7962C10.5 15.6554 9.4881 16.1145 8.84152 15.5488L3.36011 10.7525Z" fill="black"/><path fill-rule="evenodd" clip-rule="evenodd" d="M3 4.5C2.72386 4.5 2.5 4.72386 2.5 5L2.5 15C2.5 15.2761 2.72386 15.5 3 15.5C3.27614 15.5 3.5 15.2761 3.5 15L3.5 5C3.5 4.72386 3.27614 4.5 3 4.5Z" fill="black"/></g></mask></defs><circle r="13" cx="13" cy="13" mask="url(#mask-pencil-previous-track-circle-filled)" fill="currentColor"/></svg>