<svg width="20" height="20" viewBox="0 0 26 26" fill="none" xmlns="http://www.w3.org/2000/svg"><defs><mask id="mask-pencil-qr-code-circle-filled"><rect width="26" height="26" fill="white"/><g transform="translate(3, 3)"><path fill-rule="evenodd" clip-rule="evenodd" d="M5.5 5.5V8.5H8.5V5.5H5.5ZM5 4.5C4.72386 4.5 4.5 4.72386 4.5 5V9C4.5 9.27614 4.72386 9.5 5 9.5H9C9.27614 9.5 9.5 9.27614 9.5 9V5C9.5 4.72386 9.27614 4.5 9 4.5H5Z" fill="black"/><path fill-rule="evenodd" clip-rule="evenodd" d="M11.5 5.5V8.5H14.5V5.5H11.5ZM11 4.5C10.7239 4.5 10.5 4.72386 10.5 5V9C10.5 9.27614 10.7239 9.5 11 9.5H15C15.2761 9.5 15.5 9.27614 15.5 9V5C15.5 4.72386 15.2761 4.5 15 4.5H11Z" fill="black"/><path fill-rule="evenodd" clip-rule="evenodd" d="M5.5 11.5V14.5H8.5V11.5H5.5ZM5 10.5C4.72386 10.5 4.5 10.7239 4.5 11V15C4.5 15.2761 4.72386 15.5 5 15.5H9C9.27614 15.5 9.5 15.2761 9.5 15V11C9.5 10.7239 9.27614 10.5 9 10.5H5Z" fill="black"/><path d="M10.5 11C10.5 10.7239 10.7239 10.5 11 10.5H15C15.2761 10.5 15.5 10.7239 15.5 11V15C15.5 15.2761 15.2761 15.5 15 15.5H11C10.7239 15.5 10.5 15.2761 10.5 15V11Z" fill="black"/><path fill-rule="evenodd" clip-rule="evenodd" d="M11.5 11.5V14.5H14.5V11.5H11.5ZM11 10.5C10.7239 10.5 10.5 10.7239 10.5 11V15C10.5 15.2761 10.7239 15.5 11 15.5H15C15.2761 15.5 15.5 15.2761 15.5 15V11C15.5 10.7239 15.2761 10.5 15 10.5H11Z" fill="black"/><path fill-rule="evenodd" clip-rule="evenodd" d="M2.5 3C2.5 2.72386 2.72386 2.5 3 2.5H6.5C6.77614 2.5 7 2.72386 7 3C7 3.27614 6.77614 3.5 6.5 3.5H3C2.72386 3.5 2.5 3.27614 2.5 3Z" fill="black"/><path fill-rule="evenodd" clip-rule="evenodd" d="M3 2.5C3.27614 2.5 3.5 2.72386 3.5 3L3.5 6.5C3.5 6.77614 3.27614 7 3 7C2.72386 7 2.5 6.77614 2.5 6.5V3C2.5 2.72386 2.72386 2.5 3 2.5Z" fill="black"/><path fill-rule="evenodd" clip-rule="evenodd" d="M3 17.5C2.72386 17.5 2.5 17.2761 2.5 17L2.5 13.5C2.5 13.2239 2.72386 13 3 13C3.27614 13 3.5 13.2239 3.5 13.5L3.5 17C3.5 17.2761 3.27614 17.5 3 17.5Z" fill="black"/><path fill-rule="evenodd" clip-rule="evenodd" d="M2.5 17C2.5 16.7239 2.72386 16.5 3 16.5H6.5C6.77614 16.5 7 16.7239 7 17C7 17.2761 6.77614 17.5 6.5 17.5H3C2.72386 17.5 2.5 17.2761 2.5 17Z" fill="black"/><path fill-rule="evenodd" clip-rule="evenodd" d="M17.5 17C17.5 17.2761 17.2761 17.5 17 17.5H13.5C13.2239 17.5 13 17.2761 13 17C13 16.7239 13.2239 16.5 13.5 16.5H17C17.2761 16.5 17.5 16.7239 17.5 17Z" fill="black"/><path fill-rule="evenodd" clip-rule="evenodd" d="M17 17.5C16.7239 17.5 16.5 17.2761 16.5 17V13.5C16.5 13.2239 16.7239 13 17 13C17.2761 13 17.5 13.2239 17.5 13.5V17C17.5 17.2761 17.2761 17.5 17 17.5Z" fill="black"/><path fill-rule="evenodd" clip-rule="evenodd" d="M17 2.5C17.2761 2.5 17.5 2.72386 17.5 3V6.5C17.5 6.77614 17.2761 7 17 7C16.7239 7 16.5 6.77614 16.5 6.5V3C16.5 2.72386 16.7239 2.5 17 2.5Z" fill="black"/><path fill-rule="evenodd" clip-rule="evenodd" d="M17.5 3C17.5 3.27614 17.2761 3.5 17 3.5L13.5 3.5C13.2239 3.5 13 3.27614 13 3C13 2.72386 13.2239 2.5 13.5 2.5L17 2.5C17.2761 2.5 17.5 2.72386 17.5 3Z" fill="black"/></g></mask></defs><circle r="13" cx="13" cy="13" mask="url(#mask-pencil-qr-code-circle-filled)" fill="currentColor"/></svg>