<svg width="20" height="20" viewBox="0 0 20 20" fill="none" xmlns="http://www.w3.org/2000/svg"><path d="M11 16.25C11 16.9404 10.4404 17.5 9.75 17.5C9.05964 17.5 8.5 16.9404 8.5 16.25C8.5 15.5596 9.05964 15 9.75 15C10.4404 15 11 15.5596 11 16.25Z" fill="currentColor"/><path fill-rule="evenodd" clip-rule="evenodd" d="M9.70985 4.0647C8.90304 4.0647 8.18569 4.30542 7.65664 4.67898C7.14684 5.03895 6.83246 5.50471 6.73519 5.98652C6.65322 6.39255 6.25762 6.65524 5.8516 6.57327C5.44558 6.4913 5.18289 6.0957 5.26486 5.68968C5.45085 4.76842 6.0266 3.9937 6.79145 3.45365C7.58737 2.89165 8.61047 2.5647 9.70985 2.5647C12.0348 2.5647 14.2179 4.099 14.2179 6.32116C14.2179 7.61324 13.4499 8.6967 12.3837 9.34959C12.0304 9.5659 11.5687 9.45489 11.3524 9.10164C11.1361 8.7484 11.2471 8.28668 11.6003 8.07037C12.3286 7.6244 12.7179 6.9766 12.7179 6.32116C12.7179 5.22247 11.536 4.0647 9.70985 4.0647Z" fill="currentColor"/><path fill-rule="evenodd" clip-rule="evenodd" d="M9.70984 9.32922C10.1241 9.32922 10.4598 9.66501 10.4598 10.0792V11.5825C10.4598 11.9967 10.1241 12.3325 9.70984 12.3325C9.29563 12.3325 8.95984 11.9967 8.95984 11.5825V10.0792C8.95984 9.66501 9.29563 9.32922 9.70984 9.32922Z" fill="currentColor"/><path fill-rule="evenodd" clip-rule="evenodd" d="M12.6383 8.32605C12.851 8.68144 12.7354 9.14202 12.38 9.35479L10.0951 10.7227C9.73971 10.9355 9.27912 10.8199 9.06636 10.4645C8.85359 10.1091 8.96921 9.64851 9.3246 9.43574L11.6095 8.0678C11.9649 7.85504 12.4255 7.97066 12.6383 8.32605Z" fill="currentColor"/><path d="M1.15063 1.87794C0.94979 1.6771 0.94979 1.35147 1.15063 1.15063C1.35147 0.949789 1.6771 0.949789 1.87794 1.15063L18.8494 18.1221C19.0502 18.3229 19.0502 18.6485 18.8494 18.8494C18.6485 19.0502 18.3229 19.0502 18.1221 18.8494L1.15063 1.87794Z" fill="currentColor"/></svg>