<svg width="20" height="20" viewBox="0 0 20 20" fill="none" xmlns="http://www.w3.org/2000/svg"><g><path fill-rule="evenodd" clip-rule="evenodd" d="M5.6041 5.4491C4.15108 6.88207 3.52197 8.83659 3.7215 10.7282C3.75046 11.0028 3.55132 11.2489 3.2767 11.2779C3.00209 11.3068 2.75598 11.1077 2.72701 10.8331C2.49706 8.65299 3.22236 6.39347 4.90193 4.7371C7.83939 1.84018 12.5771 1.88713 15.484 4.83471C18.3909 7.78229 18.372 12.5202 15.4346 15.4172C14.0186 16.8136 12.1825 17.5263 10.3367 17.5592C9.61703 17.572 8.89554 17.4815 8.19622 17.288C7.93008 17.2143 7.77405 16.9389 7.84771 16.6727C7.92137 16.4066 8.19683 16.2506 8.46297 16.3242C9.06913 16.492 9.69477 16.5704 10.3189 16.5593C11.9191 16.5308 13.5068 15.9139 14.7324 14.7052C17.2733 12.1993 17.2944 8.09451 14.772 5.53689C12.2497 2.97926 8.14507 2.94321 5.6041 5.4491Z" fill="currentColor"/><path fill-rule="evenodd" clip-rule="evenodd" d="M3.59361 11.3625C3.41007 11.5688 3.09403 11.5873 2.8877 11.4037L1.16767 9.87373C0.961344 9.6902 0.942865 9.37416 1.1264 9.16783C1.30993 8.9615 1.62597 8.94302 1.8323 9.12656L3.55233 10.6566C3.75866 10.8401 3.77714 11.1561 3.59361 11.3625Z" fill="currentColor"/><path fill-rule="evenodd" clip-rule="evenodd" d="M2.81998 11.3C2.98567 11.5209 3.29907 11.5657 3.51998 11.4L5.51998 9.90006C5.7409 9.73438 5.78567 9.42098 5.61999 9.20006C5.45431 8.97915 5.14091 8.93437 4.91999 9.10006L2.91999 10.6C2.69907 10.7657 2.6543 11.0791 2.81998 11.3Z" fill="currentColor"/><path fill-rule="evenodd" clip-rule="evenodd" d="M10 6.5C10.2761 6.5 10.5 6.72386 10.5 7V10.5C10.5 10.7761 10.2761 11 10 11C9.72386 11 9.5 10.7761 9.5 10.5V7C9.5 6.72386 9.72386 6.5 10 6.5Z" fill="currentColor"/><path fill-rule="evenodd" clip-rule="evenodd" d="M13.5 10.5C13.5 10.7761 13.2761 11 13 11H10C9.72386 11 9.5 10.7761 9.5 10.5C9.5 10.2239 9.72386 10 10 10H13C13.2761 10 13.5 10.2239 13.5 10.5Z" fill="currentColor"/></g><path d="M1.15063 1.87794C0.94979 1.6771 0.94979 1.35147 1.15063 1.15063C1.35147 0.949789 1.6771 0.949789 1.87794 1.15063L18.8494 18.1221C19.0502 18.3229 19.0502 18.6485 18.8494 18.8494C18.6485 19.0502 18.3229 19.0502 18.1221 18.8494L1.15063 1.87794Z" fill="currentColor"/></svg>