<svg width="20" height="20" viewBox="0 0 20 20" fill="none" xmlns="http://www.w3.org/2000/svg"><path fill-rule="evenodd" clip-rule="evenodd" d="M16.5 14.7962L11.0186 9.99996L16.5 5.20373L16.5 14.7962ZM10.3601 10.7525C9.90475 10.3541 9.90475 9.64579 10.3601 9.24738L15.8415 4.45115C16.4881 3.88539 17.5 4.34457 17.5 5.20373V14.7962C17.5 15.6554 16.4881 16.1145 15.8415 15.5488L10.3601 10.7525Z" fill="currentColor"/><path fill-rule="evenodd" clip-rule="evenodd" d="M9.5 14.7962L4.01859 9.99996L9.49999 5.20373L9.5 14.7962ZM3.36008 10.7525C2.90475 10.3541 2.90475 9.64579 3.36008 9.24738L8.84149 4.45115C9.48807 3.88539 10.5 4.34457 10.5 5.20373V14.7962C10.5 15.6554 9.48807 16.1145 8.84149 15.5488L3.36008 10.7525Z" fill="currentColor"/><path d="M1.15063 1.87794C0.94979 1.6771 0.94979 1.35147 1.15063 1.15063C1.35147 0.949789 1.6771 0.949789 1.87794 1.15063L18.8494 18.1221C19.0502 18.3229 19.0502 18.6485 18.8494 18.8494C18.6485 19.0502 18.3229 19.0502 18.1221 18.8494L1.15063 1.87794Z" fill="currentColor"/></svg>