<svg width="20" height="20" viewBox="0 0 20 20" fill="none" xmlns="http://www.w3.org/2000/svg"><path fill-rule="evenodd" clip-rule="evenodd" d="M5 12.5C6.38071 12.5 7.5 11.3807 7.5 10C7.5 8.61929 6.38071 7.5 5 7.5C3.61929 7.5 2.5 8.61929 2.5 10C2.5 11.3807 3.61929 12.5 5 12.5ZM5 8.5C5.82843 8.5 6.5 9.17157 6.5 10C6.5 10.8284 5.82843 11.5 5 11.5C4.17157 11.5 3.5 10.8284 3.5 10C3.5 9.17157 4.17157 8.5 5 8.5Z" fill="currentColor"/><path fill-rule="evenodd" clip-rule="evenodd" d="M14 7.5C15.3807 7.5 16.5 6.38071 16.5 5C16.5 3.61929 15.3807 2.5 14 2.5C12.6193 2.5 11.5 3.61929 11.5 5C11.5 6.38071 12.6193 7.5 14 7.5ZM14 3.5C14.8284 3.5 15.5 4.17157 15.5 5C15.5 5.82843 14.8284 6.5 14 6.5C13.1716 6.5 12.5 5.82843 12.5 5C12.5 4.17157 13.1716 3.5 14 3.5Z" fill="currentColor"/><path fill-rule="evenodd" clip-rule="evenodd" d="M14 17.5C15.3807 17.5 16.5 16.3807 16.5 15C16.5 13.6193 15.3807 12.5 14 12.5C12.6193 12.5 11.5 13.6193 11.5 15C11.5 16.3807 12.6193 17.5 14 17.5ZM14 13.5C14.8284 13.5 15.5 14.1716 15.5 15C15.5 15.8284 14.8284 16.5 14 16.5C13.1716 16.5 12.5 15.8284 12.5 15C12.5 14.1716 13.1716 13.5 14 13.5Z" fill="currentColor"/><path d="M6.75437 9.18048L6.24564 8.31955L11.7456 5.06955L12.2544 5.93048L6.75437 9.18048Z" fill="currentColor"/><path d="M12 14.8779L12.4789 14L6.97885 11L6.5 11.8779L12 14.8779Z" fill="currentColor"/></svg>