<svg width="20" height="20" viewBox="0 0 26 26" fill="none" xmlns="http://www.w3.org/2000/svg"><defs><mask id="mask-pencil-shield-checkered-circle-filled"><rect width="26" height="26" fill="white"/><g transform="translate(3, 3)"><path fill-rule="evenodd" clip-rule="evenodd" d="M11.5575 2.33219C10.5764 1.84468 9.42361 1.84467 8.44251 2.33219L4.80695 4.13872C3.70644 4.68556 2.99041 5.75123 3.00117 6.93469C3.01734 8.71142 3.20754 11.0668 3.9495 12.6225C4.77387 14.3511 6.75046 16.0792 8.31809 17.248C9.32502 17.9987 10.675 17.9987 11.6819 17.248C13.2495 16.0792 15.2261 14.3511 16.0505 12.6225C16.7924 11.0668 16.9826 8.71142 16.9988 6.93469C17.0096 5.75123 16.2936 4.68556 15.193 4.13872L11.5575 2.33219ZM7.99752 1.43665C9.25893 0.809853 10.7411 0.809853 12.0025 1.43665L15.638 3.24318C17.0399 3.93978 18.0134 5.33307 17.9988 6.94379C17.9826 8.72585 17.7986 11.2801 16.9531 13.053C16.0128 15.0247 13.85 16.8788 12.2796 18.0497C10.9181 19.0648 9.08191 19.0648 7.72036 18.0497C6.14996 16.8788 3.98723 15.0247 3.04689 13.053C2.20136 11.2801 2.01743 8.72585 2.00122 6.94379C1.98656 5.33306 2.96007 3.93978 4.36195 3.24318L7.99752 1.43665Z" fill="black"/><path d="M9.50461 1.5L12.9722 2.5L16.9352 4.86842L17.4306 7.5L16.9352 10H10.0046C9.72847 10 9.50461 9.77614 9.50461 9.5V1.5Z" fill="black"/><path d="M2.56937 9.5H9.49999C9.77613 9.5 9.99999 9.72386 9.99999 10V18.5L5.54162 16L3.56012 12.5L2.56937 9.5Z" fill="black"/></g></mask></defs><circle r="13" cx="13" cy="13" mask="url(#mask-pencil-shield-checkered-circle-filled)" fill="currentColor"/></svg>