<svg width="20" height="20" viewBox="0 0 26 26" fill="none" xmlns="http://www.w3.org/2000/svg"><g transform="translate(3, 3)"><path fill-rule="evenodd" clip-rule="evenodd" d="M3 4.75C3 4.47386 3.22386 4.25 3.5 4.25H10.5C10.7761 4.25 11 4.47386 11 4.75C11 5.02614 10.7761 5.25 10.5 5.25H3.5C3.22386 5.25 3 5.02614 3 4.75ZM14.38 4.75C14.38 4.47386 14.6039 4.25 14.88 4.25H16.5C16.7761 4.25 17 4.47386 17 4.75C17 5.02614 16.7761 5.25 16.5 5.25H14.88C14.6039 5.25 14.38 5.02614 14.38 4.75Z" fill="currentColor"/><path fill-rule="evenodd" clip-rule="evenodd" d="M12.75 6.5C13.5784 6.5 14.25 5.82843 14.25 5C14.25 4.17157 13.5784 3.5 12.75 3.5C11.9216 3.5 11.25 4.17157 11.25 5C11.25 5.82843 11.9216 6.5 12.75 6.5ZM12.75 7.5C14.1307 7.5 15.25 6.38071 15.25 5C15.25 3.61929 14.1307 2.5 12.75 2.5C11.3693 2.5 10.25 3.61929 10.25 5C10.25 6.38071 11.3693 7.5 12.75 7.5Z" fill="currentColor"/><path fill-rule="evenodd" clip-rule="evenodd" d="M3 14.75C3 14.4739 3.22386 14.25 3.5 14.25H10.5C10.7761 14.25 11 14.4739 11 14.75C11 15.0261 10.7761 15.25 10.5 15.25H3.5C3.22386 15.25 3 15.0261 3 14.75ZM14.38 14.75C14.38 14.4739 14.6039 14.25 14.88 14.25H16.5C16.7761 14.25 17 14.4739 17 14.75C17 15.0261 16.7761 15.25 16.5 15.25H14.88C14.6039 15.25 14.38 15.0261 14.38 14.75Z" fill="currentColor"/><path fill-rule="evenodd" clip-rule="evenodd" d="M12.75 16.5C13.5784 16.5 14.25 15.8284 14.25 15C14.25 14.1716 13.5784 13.5 12.75 13.5C11.9216 13.5 11.25 14.1716 11.25 15C11.25 15.8284 11.9216 16.5 12.75 16.5ZM12.75 17.5C14.1307 17.5 15.25 16.3807 15.25 15C15.25 13.6193 14.1307 12.5 12.75 12.5C11.3693 12.5 10.25 13.6193 10.25 15C10.25 16.3807 11.3693 17.5 12.75 17.5Z" fill="currentColor"/><path fill-rule="evenodd" clip-rule="evenodd" d="M3 9.75C3 9.47386 3.22386 9.25 3.5 9.25H5.63C5.90614 9.25 6.13 9.47386 6.13 9.75C6.13 10.0261 5.90614 10.25 5.63 10.25H3.5C3.22386 10.25 3 10.0261 3 9.75ZM9.5 9.75C9.5 9.47386 9.72386 9.25 10 9.25H16.5C16.7761 9.25 17 9.47386 17 9.75C17 10.0261 16.7761 10.25 16.5 10.25H10C9.72386 10.25 9.5 10.0261 9.5 9.75Z" fill="currentColor"/><path fill-rule="evenodd" clip-rule="evenodd" d="M7.75 11.5C8.57843 11.5 9.25 10.8284 9.25 10C9.25 9.17157 8.57843 8.5 7.75 8.5C6.92157 8.5 6.25 9.17157 6.25 10C6.25 10.8284 6.92157 11.5 7.75 11.5ZM7.75 12.5C9.13071 12.5 10.25 11.3807 10.25 10C10.25 8.61929 9.13071 7.5 7.75 7.5C6.36929 7.5 5.25 8.61929 5.25 10C5.25 11.3807 6.36929 12.5 7.75 12.5Z" fill="currentColor"/><path d="M1.15063 1.87794C0.94979 1.6771 0.94979 1.35147 1.15063 1.15063C1.35147 0.949789 1.6771 0.949789 1.87794 1.15063L18.8494 18.1221C19.0502 18.3229 19.0502 18.6485 18.8494 18.8494C18.6485 19.0502 18.3229 19.0502 18.1221 18.8494L1.15063 1.87794Z" fill="currentColor"/></g><path fill-rule="evenodd" clip-rule="evenodd" d="M13 24.5C19.3513 24.5 24.5 19.3513 24.5 13C24.5 6.64873 19.3513 1.5 13 1.5C6.64873 1.5 1.5 6.64873 1.5 13C1.5 19.3513 6.64873 24.5 13 24.5ZM13 25.5C19.9036 25.5 25.5 19.9036 25.5 13C25.5 6.09644 19.9036 0.5 13 0.5C6.09644 0.5 0.5 6.09644 0.5 13C0.5 19.9036 6.09644 25.5 13 25.5Z" fill="currentColor"/></svg>