<svg width="20" height="20" viewBox="0 0 20 20" fill="none" xmlns="http://www.w3.org/2000/svg"><path fill-rule="evenodd" clip-rule="evenodd" d="M4 2C4 1.17157 4.67157 0.5 5.5 0.5H14.5C15.3284 0.5 16 1.17157 16 2V18C16 18.8284 15.3284 19.5 14.5 19.5H5.5C4.67157 19.5 4 18.8284 4 18V2ZM5.5 1.5C5.22386 1.5 5 1.72386 5 2V18C5 18.2761 5.22386 18.5 5.5 18.5H14.5C14.7761 18.5 15 18.2761 15 18V2C15 1.72386 14.7761 1.5 14.5 1.5H5.5Z" fill="currentColor"/><path fill-rule="evenodd" clip-rule="evenodd" d="M7.5 3C7.5 2.44772 7.94772 2 8.5 2H11.5C12.0523 2 12.5 2.44772 12.5 3C12.5 3.55228 12.0523 4 11.5 4H8.5C7.94772 4 7.5 3.55228 7.5 3Z" fill="currentColor"/></svg>