<svg width="20" height="20" viewBox="0 0 26 26" fill="none" xmlns="http://www.w3.org/2000/svg"><defs><mask id="mask-pencil-smartphone-home-button-circle-filled"><rect width="26" height="26" fill="white"/><g transform="translate(3, 3)"><path fill-rule="evenodd" clip-rule="evenodd" d="M14.5 0.5H5.5C4.67157 0.5 4 1.17157 4 2V18C4 18.8284 4.67157 19.5 5.5 19.5H14.5C15.3284 19.5 16 18.8284 16 18V2C16 1.17157 15.3284 0.5 14.5 0.5ZM5 2C5 1.72386 5.22386 1.5 5.5 1.5H14.5C14.7761 1.5 15 1.72386 15 2V18C15 18.2761 14.7761 18.5 14.5 18.5H5.5C5.22386 18.5 5 18.2761 5 18V2Z" fill="black"/><path d="M10 18C9.44772 18 9 17.5523 9 17C9 16.4477 9.44772 16 10 16C10.5523 16 11 16.4477 11 17C11 17.5523 10.5523 18 10 18Z" fill="black"/></g></mask></defs><circle r="13" cx="13" cy="13" mask="url(#mask-pencil-smartphone-home-button-circle-filled)" fill="currentColor"/></svg>