<svg width="20" height="20" viewBox="0 0 20 20" fill="none" xmlns="http://www.w3.org/2000/svg"><path fill-rule="evenodd" clip-rule="evenodd" d="M9.67176 2.12282L5.39936 5.84091H2C1.72386 5.84091 1.5 6.06476 1.5 6.34091V11.5409C1.5 11.817 1.72386 12.0409 2 12.0409H5.29521L9.67042 15.876C9.99362 16.1593 10.5 15.9298 10.5 15.5V2.49999C10.5 2.07105 9.99534 1.84123 9.67176 2.12282ZM5.88379 6.74498L9.5 3.59795V14.3968L6.01411 11.3413C5.93704 11.1645 5.76073 11.0409 5.55556 11.0409H2.5V6.84091H5.39356C5.55132 6.89541 5.73636 6.87329 5.88379 6.74498Z" fill="currentColor"/><path d="M13.3259 11.8792C13.1165 12.0592 12.8008 12.0353 12.6208 11.8259C12.4408 11.6165 12.4647 11.3008 12.6741 11.1208C12.7139 11.0866 12.753 11.0497 12.7911 11.0102C12.9478 10.8477 13.0864 10.6438 13.1985 10.4082C13.3931 9.99922 13.5 9.51248 13.5 9.00001C13.5 8.18332 13.2271 7.44189 12.7911 6.98984C12.753 6.95036 12.7139 6.91345 12.6741 6.87921C12.4647 6.69923 12.4408 6.38354 12.6208 6.17412C12.8008 5.96469 13.1165 5.94082 13.3259 6.12081C13.3896 6.17553 13.4512 6.23386 13.5108 6.29558C14.1349 6.94261 14.5 7.93454 14.5 9.00001C14.5 9.65916 14.3609 10.2928 14.1015 10.8379C13.9442 11.1685 13.7446 11.462 13.5108 11.7044C13.4512 11.7662 13.3896 11.8245 13.3259 11.8792Z" fill="currentColor"/><path d="M1.15063 1.87794C0.94979 1.6771 0.94979 1.35147 1.15063 1.15063C1.35147 0.949789 1.6771 0.949789 1.87794 1.15063L18.8494 18.1221C19.0502 18.3229 19.0502 18.6485 18.8494 18.8494C18.6485 19.0502 18.3229 19.0502 18.1221 18.8494L1.15063 1.87794Z" fill="currentColor"/></svg>