<svg width="20" height="20" viewBox="0 0 26 26" fill="none" xmlns="http://www.w3.org/2000/svg"><defs><mask id="mask-pencil-speaker-high-circle-filled"><rect width="26" height="26" fill="white"/><g transform="translate(3, 3)"><path fill-rule="evenodd" clip-rule="evenodd" d="M9.67176 2.12282L5.39936 5.84091H2C1.72386 5.84091 1.5 6.06476 1.5 6.34091V11.5409C1.5 11.817 1.72386 12.0409 2 12.0409H5.29521L9.67042 15.876C9.99362 16.1593 10.5 15.9298 10.5 15.5V2.49999C10.5 2.07105 9.99534 1.84123 9.67176 2.12282ZM5.88379 6.74498L9.5 3.59795V14.3968L6.01411 11.3413C5.93704 11.1645 5.76073 11.0409 5.55556 11.0409H2.5V6.84091H5.39356C5.55132 6.89541 5.73636 6.87329 5.88379 6.74498Z" fill="black"/><path d="M13.3259 11.8792C13.1165 12.0592 12.8008 12.0353 12.6208 11.8259C12.4408 11.6165 12.4647 11.3008 12.6741 11.1208C12.7139 11.0866 12.753 11.0497 12.7911 11.0102C12.9478 10.8477 13.0864 10.6438 13.1985 10.4082C13.3931 9.99922 13.5 9.51248 13.5 9.00001C13.5 8.18332 13.2271 7.44189 12.7911 6.98984C12.753 6.95036 12.7139 6.91345 12.6741 6.87921C12.4647 6.69923 12.4408 6.38354 12.6208 6.17412C12.8008 5.96469 13.1165 5.94082 13.3259 6.12081C13.3896 6.17553 13.4512 6.23386 13.5108 6.29558C14.1349 6.94261 14.5 7.93454 14.5 9.00001C14.5 9.65916 14.3609 10.2928 14.1015 10.8379C13.9442 11.1685 13.7446 11.462 13.5108 11.7044C13.4512 11.7662 13.3896 11.8245 13.3259 11.8792Z" fill="black"/><path d="M14.2742 14.9181C14.0433 15.0695 13.7334 15.0051 13.5819 14.7742C13.4305 14.5433 13.4949 14.2334 13.7258 14.0819C13.8958 13.9704 14.0602 13.8507 14.2184 13.7234C14.3765 13.5961 14.5282 13.4614 14.6729 13.3196C14.8175 13.1779 14.955 13.0293 15.0848 12.8745C15.2146 12.7198 15.3366 12.5589 15.4502 12.3926C15.5638 12.2263 15.669 12.0547 15.7654 11.8784C15.8617 11.7022 15.9492 11.5215 16.0273 11.3367C16.1054 11.1523 16.1742 10.9641 16.2333 10.7727C16.2923 10.5819 16.3418 10.3881 16.3814 10.1918C16.4209 9.99639 16.4506 9.79864 16.4704 9.59904C16.4901 9.40092 16.5 9.20109 16.5 9C16.5 8.7989 16.4901 8.59907 16.4704 8.40095C16.4506 8.20135 16.4209 8.00361 16.3814 7.80821C16.3418 7.61187 16.2923 7.41805 16.2333 7.22727C16.1742 7.03585 16.1054 6.84766 16.0273 6.66326C15.9492 6.47854 15.8617 6.29778 15.7654 6.12158C15.669 5.94526 15.5638 5.77367 15.4502 5.60741C15.3366 5.44106 15.2146 5.28022 15.0848 5.12547C14.955 4.97066 14.8175 4.82212 14.6729 4.68039C14.5282 4.53864 14.3765 4.40386 14.2184 4.27658C14.0602 4.14929 13.8958 4.02963 13.7258 3.91809C13.4949 3.76664 13.4305 3.45668 13.5819 3.22577C13.7334 2.99487 14.0433 2.93045 14.2742 3.0819C14.4714 3.21123 14.662 3.34998 14.8454 3.4976C15.0288 3.64523 15.2048 3.8016 15.3727 3.96609C15.5406 4.13062 15.7003 4.30311 15.8511 4.48292C16.0019 4.66278 16.1437 4.84978 16.2759 5.04324C16.4081 5.23675 16.5306 5.43654 16.6429 5.64191C16.7551 5.84728 16.8571 6.05804 16.9483 6.27349C17.0393 6.4887 17.1196 6.70838 17.1887 6.93186C17.2576 7.15465 17.3153 7.38101 17.3616 7.6103C17.4077 7.83841 17.4424 8.06922 17.4655 8.30211C17.4885 8.53306 17.5 8.76588 17.5 9C17.5 9.23411 17.4885 9.46693 17.4655 9.69788C17.4424 9.93077 17.4077 10.1616 17.3616 10.3897C17.3153 10.619 17.2576 10.8453 17.1887 11.0681C17.1196 11.2916 17.0393 11.5113 16.9483 11.7265C16.8571 11.9419 16.7551 12.1527 16.6429 12.3581C16.5306 12.5635 16.4081 12.7632 16.2759 12.9567C16.1437 13.1502 16.0019 13.3372 15.8511 13.5171C15.7003 13.6969 15.5406 13.8694 15.3727 14.0339C15.2048 14.1984 15.0288 14.3548 14.8454 14.5024C14.662 14.65 14.4714 14.7888 14.2742 14.9181Z" fill="black"/></g></mask></defs><circle r="13" cx="13" cy="13" mask="url(#mask-pencil-speaker-high-circle-filled)" fill="currentColor"/></svg>