<svg width="20" height="20" viewBox="0 0 20 20" fill="none" xmlns="http://www.w3.org/2000/svg"><path d="M10 15.9706L5.70492 17.8855C5.00142 18.1991 4.22234 17.6331 4.30325 16.8671L4.79719 12.1905L1.64874 8.69737C1.13305 8.12523 1.43063 7.20937 2.18413 7.04961L6.78449 6.07423L9.13372 2.00044C9.5185 1.33319 10.4815 1.33319 10.8663 2.00044L13.2155 6.07423L17.8159 7.04961C18.5694 7.20937 18.8669 8.12523 18.3513 8.69737L15.2028 12.1905L15.6967 16.8671C15.7777 17.6331 14.9986 18.1991 14.2951 17.8855L10 15.9706Z" fill="currentColor"/><path d="M1.15063 1.87794C0.94979 1.6771 0.94979 1.35147 1.15063 1.15063C1.35147 0.949789 1.6771 0.949789 1.87794 1.15063L18.8494 18.1221C19.0502 18.3229 19.0502 18.6485 18.8494 18.8494C18.6485 19.0502 18.3229 19.0502 18.1221 18.8494L1.15063 1.87794Z" fill="currentColor"/></svg>