<svg width="20" height="20" viewBox="0 0 26 26" fill="none" xmlns="http://www.w3.org/2000/svg"><defs><mask id="mask-pencil-stars-circle-filled"><rect width="26" height="26" fill="white"/><g transform="translate(3, 3)"><g><path fill-rule="evenodd" clip-rule="evenodd" d="M9.00032 0.5C9.22034 0.500007 9.41451 0.643846 9.47861 0.854326L11.4073 7.18709L17.1716 9.29398C17.3665 9.36518 17.4971 9.54928 17.5 9.75668C17.5028 9.96408 17.3773 10.1517 17.1846 10.2283L11.4578 12.5028L9.47949 19.1428C9.41634 19.3547 9.22147 19.5 9.00032 19.5C8.77917 19.5 8.58429 19.3547 8.52113 19.1428L6.54237 12.5032L0.815414 10.2283C0.622651 10.1517 0.497179 9.96407 0.500048 9.75667C0.502918 9.54928 0.633534 9.36519 0.828341 9.29398L6.59289 7.18682L8.522 0.854293C8.58612 0.643818 8.78029 0.499993 9.00032 0.5ZM9.00024 2.71597L7.47688 7.71659C7.43115 7.8667 7.31761 7.98663 7.17024 8.0405L2.40326 9.78301L7.13687 11.6634C7.27917 11.7199 7.38773 11.8385 7.43146 11.9852L9.00023 17.2491L10.5687 11.9849C10.6124 11.8381 10.7209 11.7195 10.8633 11.663L15.5966 9.783L10.83 8.04077C10.6826 7.9869 10.569 7.86696 10.5233 7.71683L9.00024 2.71597Z" fill="black"/><path d="M16.75 19.12C16.65 19.12 16.56 19.04 16.55 18.94C16.37 17.12 16.23 16.54 14.56 16.38C14.46 16.37 14.38 16.28 14.38 16.18C14.38 16.08 14.46 15.99 14.56 15.98C16.27 15.82 16.37 15.38 16.55 13.56C16.55 13.46 16.65 13.38 16.75 13.38C16.85 13.38 16.94 13.46 16.95 13.56C17.13 15.38 17.24 15.82 18.94 15.98C19.04 15.99 19.12 16.08 19.12 16.18C19.12 16.28 19.04 16.37 18.94 16.38C17.26 16.54 17.13 17.12 16.95 18.95C16.95 19.05 16.86 19.13 16.75 19.13V19.12Z" fill="black"/></g></g></mask></defs><circle r="13" cx="13" cy="13" mask="url(#mask-pencil-stars-circle-filled)" fill="currentColor"/></svg>