<svg width="20" height="20" viewBox="0 0 26 26" fill="none" xmlns="http://www.w3.org/2000/svg"><g transform="translate(3, 3)"><path fill-rule="evenodd" clip-rule="evenodd" d="M10 8.5C10.8284 8.5 11.5 7.82843 11.5 7C11.5 6.17157 10.8284 5.5 10 5.5C9.17157 5.5 8.5 6.17157 8.5 7C8.5 7.82843 9.17157 8.5 10 8.5ZM10 9.5C11.3807 9.5 12.5 8.38071 12.5 7C12.5 5.61929 11.3807 4.5 10 4.5C8.61929 4.5 7.5 5.61929 7.5 7C7.5 8.38071 8.61929 9.5 10 9.5Z" fill="currentColor"/><path fill-rule="evenodd" clip-rule="evenodd" d="M5.96047 2.76282C5.36989 1.76289 6.09071 0.5 7.25202 0.5L12.748 0.5C13.9093 0.5 14.6301 1.7629 14.0395 2.76282L12.3465 5.62927L11.4855 5.12073L13.1785 2.25427C13.3754 1.92097 13.1351 1.5 12.748 1.5L7.25202 1.5C6.86491 1.5 6.62464 1.92097 6.8215 2.25427L8.5145 5.12073L7.65347 5.62927L5.96047 2.76282Z" fill="currentColor"/><path fill-rule="evenodd" clip-rule="evenodd" d="M14.0395 11.2372C14.6301 12.2371 13.9093 13.5 12.748 13.5H7.25201C6.09071 13.5 5.36988 12.2371 5.96046 11.2372L7.65346 8.37073L8.5145 8.87927L6.8215 11.7457C6.62464 12.079 6.86491 12.5 7.25201 12.5H12.748C13.1351 12.5 13.3754 12.079 13.1785 11.7457L11.4855 8.87927L12.3465 8.37073L14.0395 11.2372Z" fill="currentColor"/><path fill-rule="evenodd" clip-rule="evenodd" d="M5.84829 10.3389C4.85289 11.0214 3.5 10.3087 3.5 9.10177L3.5 4.89823C3.5 3.69129 4.85289 2.97858 5.84829 3.66114L8.65776 5.58764L8.09224 6.41236L5.28276 4.48587C4.95096 4.25835 4.5 4.49592 4.5 4.89823V9.10177C4.5 9.50408 4.95096 9.74165 5.28277 9.51413L8.09224 7.58764L8.65776 8.41237L5.84829 10.3389Z" fill="currentColor"/><path fill-rule="evenodd" clip-rule="evenodd" d="M14.1517 3.66114C15.1471 2.97858 16.5 3.69129 16.5 4.89823V9.10177C16.5 10.3087 15.1471 11.0214 14.1517 10.3389L11.3422 8.41236L11.9078 7.58764L14.7172 9.51413C15.049 9.74165 15.5 9.50408 15.5 9.10177V4.89823C15.5 4.49592 15.049 4.25835 14.7172 4.48587L11.9078 6.41236L11.3422 5.58763L14.1517 3.66114Z" fill="currentColor"/><path fill-rule="evenodd" clip-rule="evenodd" d="M14.9569 18.2031C14.8448 18.4554 14.5493 18.5691 14.2969 18.4569L10.5 16.7694V18.5C10.5 18.7761 10.2761 19 10 19C9.72385 19 9.5 18.7761 9.5 18.5V16.7694L5.70307 18.4569C5.45072 18.5691 5.15524 18.4554 5.04309 18.2031C4.93094 17.9507 5.04459 17.6552 5.29693 17.5431L9.5 15.6751V13C9.5 12.7239 9.72385 12.5 10 12.5C10.2761 12.5 10.5 12.7239 10.5 13V15.6751L14.7031 17.5431C14.9554 17.6552 15.0691 17.9507 14.9569 18.2031Z" fill="currentColor"/></g><path fill-rule="evenodd" clip-rule="evenodd" d="M13 24.5C19.3513 24.5 24.5 19.3513 24.5 13C24.5 6.64873 19.3513 1.5 13 1.5C6.64873 1.5 1.5 6.64873 1.5 13C1.5 19.3513 6.64873 24.5 13 24.5ZM13 25.5C19.9036 25.5 25.5 19.9036 25.5 13C25.5 6.09644 19.9036 0.5 13 0.5C6.09644 0.5 0.5 6.09644 0.5 13C0.5 19.9036 6.09644 25.5 13 25.5Z" fill="currentColor"/></svg>