<svg width="20" height="20" viewBox="0 0 26 26" fill="none" xmlns="http://www.w3.org/2000/svg"><g transform="translate(3, 3)"><g><path fill-rule="evenodd" clip-rule="evenodd" d="M14.1679 4.872C15.1648 4.20745 16.5 4.92203 16.5 6.12008V9.38304C16.5 10.5811 15.1648 11.2957 14.1679 10.6311L11.2227 8.66758L11.7773 7.83553L14.7226 9.79907C15.0549 10.0206 15.5 9.78239 15.5 9.38304V6.12008C15.5 5.72073 15.0549 5.48253 14.7226 5.70405L11.7773 7.66758L11.2227 6.83553L14.1679 4.872Z" fill="currentColor"/><path fill-rule="evenodd" clip-rule="evenodd" d="M13.4569 17.9546C13.3448 18.207 13.0493 18.3206 12.7969 18.2085L9 16.5209V18.2516C9 18.5277 8.77614 18.7516 8.5 18.7516C8.22385 18.7516 8 18.5277 8 18.2516L8 16.5209L4.20307 18.2085C3.95072 18.3206 3.65524 18.207 3.54309 17.9546C3.43094 17.7023 3.54459 17.4068 3.79693 17.2947L8 15.4266V11.2516C8 10.9754 8.22385 10.7516 8.5 10.7516C8.77614 10.7516 9 10.9754 9 11.2516V15.4266L13.2031 17.2947C13.4554 17.4068 13.5691 17.7023 13.4569 17.9546Z" fill="currentColor"/><path fill-rule="evenodd" clip-rule="evenodd" d="M5 5.75156C5 4.92313 5.67157 4.25156 6.5 4.25156H10.5C11.3284 4.25156 12 4.92313 12 5.75156V9.75156C12 10.58 11.3284 11.2516 10.5 11.2516H6.5C5.67157 11.2516 5 10.58 5 9.75156V5.75156ZM6.5 5.25156C6.22386 5.25156 6 5.47541 6 5.75156V9.75156C6 10.0277 6.22386 10.2516 6.5 10.2516H10.5C10.7761 10.2516 11 10.0277 11 9.75156V5.75156C11 5.47541 10.7761 5.25156 10.5 5.25156H6.5Z" fill="currentColor"/><path fill-rule="evenodd" clip-rule="evenodd" d="M11.1464 5.60511C10.9512 5.40985 10.9512 5.09327 11.1464 4.898L14.1464 1.898C14.3417 1.70274 14.6583 1.70274 14.8536 1.898C15.0488 2.09327 15.0488 2.40985 14.8536 2.60511L11.8536 5.60511C11.6583 5.80037 11.3417 5.80037 11.1464 5.60511Z" fill="currentColor"/><path fill-rule="evenodd" clip-rule="evenodd" d="M14.8536 13.6051C14.6583 13.8003 14.3417 13.8003 14.1464 13.6051L11.1464 10.6051C10.9512 10.4098 10.9512 10.0932 11.1464 9.89798C11.3417 9.70272 11.6583 9.70272 11.8535 9.89798L14.8536 12.898C15.0488 13.0932 15.0488 13.4098 14.8536 13.6051Z" fill="currentColor"/></g><path d="M1.15063 1.87794C0.94979 1.6771 0.94979 1.35147 1.15063 1.15063C1.35147 0.949789 1.6771 0.949789 1.87794 1.15063L18.8494 18.1221C19.0502 18.3229 19.0502 18.6485 18.8494 18.8494C18.6485 19.0502 18.3229 19.0502 18.1221 18.8494L1.15063 1.87794Z" fill="currentColor"/></g><path fill-rule="evenodd" clip-rule="evenodd" d="M13 24.5C19.3513 24.5 24.5 19.3513 24.5 13C24.5 6.64873 19.3513 1.5 13 1.5C6.64873 1.5 1.5 6.64873 1.5 13C1.5 19.3513 6.64873 24.5 13 24.5ZM13 25.5C19.9036 25.5 25.5 19.9036 25.5 13C25.5 6.09644 19.9036 0.5 13 0.5C6.09644 0.5 0.5 6.09644 0.5 13C0.5 19.9036 6.09644 25.5 13 25.5Z" fill="currentColor"/></svg>