<svg width="20" height="20" viewBox="0 0 26 26" fill="none" xmlns="http://www.w3.org/2000/svg"><defs><mask id="mask-pencil-sun-circle-filled"><rect width="26" height="26" fill="white"/><g transform="translate(3, 3)"><path fill-rule="evenodd" clip-rule="evenodd" d="M10 13.5C11.933 13.5 13.5 11.933 13.5 10C13.5 8.067 11.933 6.5 10 6.5C8.067 6.5 6.5 8.067 6.5 10C6.5 11.933 8.067 13.5 10 13.5ZM10 7.5C11.3807 7.5 12.5 8.61929 12.5 10C12.5 11.3807 11.3807 12.5 10 12.5C8.61929 12.5 7.5 11.3807 7.5 10C7.5 8.61929 8.61929 7.5 10 7.5Z" fill="black"/><rect x="1" y="10.5" width="1" height="3" rx="0.5" transform="rotate(-90 1 10.5)" fill="black"/><rect x="16" y="10.5" width="1" height="3" rx="0.5" transform="rotate(-90 16 10.5)" fill="black"/><rect x="14" y="14.7071" width="1" height="3" rx="0.5" transform="rotate(-45 14 14.7071)" fill="black"/><rect x="3" y="3.70709" width="1" height="3" rx="0.5" transform="rotate(-45 3 3.70709)" fill="black"/><rect x="9.5" y="16" width="1" height="3" rx="0.5" fill="black"/><rect x="9.5" y="1" width="1" height="3" rx="0.5" fill="black"/><rect x="16.1213" y="3" width="1" height="3" rx="0.5" transform="rotate(45 16.1213 3)" fill="black"/><rect x="5.12131" y="14" width="1" height="3" rx="0.5" transform="rotate(45 5.12131 14)" fill="black"/></g></mask></defs><circle r="13" cx="13" cy="13" mask="url(#mask-pencil-sun-circle-filled)" fill="currentColor"/></svg>