<svg width="20" height="20" viewBox="0 0 20 20" fill="none" xmlns="http://www.w3.org/2000/svg"><g><path fill-rule="evenodd" clip-rule="evenodd" d="M7.91156 12.0839C7.71593 11.889 7.71535 11.5724 7.91025 11.3768L11.4392 7.83469C11.6341 7.63907 11.9507 7.63848 12.1464 7.83338C12.342 8.02828 12.3426 8.34486 12.1477 8.54049L8.61866 12.0826C8.42376 12.2782 8.10718 12.2788 7.91156 12.0839Z" fill="currentColor"/><path fill-rule="evenodd" clip-rule="evenodd" d="M17.0403 3.5047C17.1031 3.16006 16.8013 2.85931 16.4569 2.92344L13.8572 3.40753C13.7576 3.42607 13.666 3.47442 13.5945 3.54618L7.20052 9.96396C7.00562 10.1596 7.00621 10.4762 7.20183 10.6711L9.32708 12.7884C9.52271 12.9833 9.83929 12.9828 10.0342 12.7871L16.4282 6.36935C16.4997 6.2976 16.5477 6.20582 16.5659 6.10616L17.0403 3.5047ZM16.2738 1.94034C17.307 1.74795 18.2126 2.65021 18.0241 3.68411L17.5496 6.28558C17.4951 6.58453 17.3511 6.85987 17.1366 7.07515L10.7426 13.4929C10.1579 14.0798 9.20816 14.0816 8.62129 13.4969L6.49604 11.3795C5.90916 10.7948 5.9074 9.84504 6.4921 9.25816L12.8861 2.84039C13.1006 2.62511 13.3754 2.48006 13.6741 2.42443L16.2738 1.94034Z" fill="currentColor"/><path fill-rule="evenodd" clip-rule="evenodd" d="M3.31078 9.61752C4.09038 8.83502 5.35671 8.83267 6.1392 9.61227L10.3897 13.847C11.1722 14.6266 11.1746 15.893 10.395 16.6755C9.61536 17.4579 8.34903 17.4603 7.56654 16.6807L3.31603 12.4459C2.53353 11.6663 2.53118 10.4 3.31078 9.61752ZM5.43341 10.3207C5.04216 9.93089 4.409 9.93206 4.0192 10.3233C3.6294 10.7146 3.63057 11.3477 4.02182 11.7375L8.27233 15.9723C8.66358 16.3621 9.29674 16.3609 9.68654 15.9697C10.0763 15.5784 10.0752 14.9452 9.68392 14.5554L5.43341 10.3207Z" fill="currentColor"/><path fill-rule="evenodd" clip-rule="evenodd" d="M5.12135 13.5334L2.29817 16.3671C2.10328 16.5627 2.10386 16.8793 2.29949 17.0742L3.00791 17.78C3.20353 17.9749 3.52011 17.9743 3.71501 17.7787L6.53818 14.945L7.2466 15.6508L4.42343 18.4845C3.83873 19.0714 2.88898 19.0731 2.30211 18.4884L1.59369 17.7826C1.00682 17.1979 1.00506 16.2482 1.58976 15.6613L4.41293 12.8276L5.12135 13.5334Z" fill="currentColor"/></g></svg>