<svg width="20" height="20" viewBox="0 0 20 20" fill="none" xmlns="http://www.w3.org/2000/svg"><g><path fill-rule="evenodd" clip-rule="evenodd" d="M12.5033 6.19911C12.5437 5.85112 12.2229 5.57058 11.8834 5.65691L10.346 6.04783C10.2479 6.07279 10.1596 6.12699 10.0929 6.20323L5.76769 11.1482C5.58589 11.356 5.60701 11.6719 5.81486 11.8537L7.16944 13.0385C7.37729 13.2203 7.69317 13.1992 7.87497 12.9914L12.2002 8.0464C12.2669 7.97015 12.3088 7.87545 12.3205 7.77483L12.5033 6.19911ZM11.637 4.68775C12.6555 4.42876 13.6177 5.27039 13.4966 6.31434L13.3138 7.89006C13.2788 8.19192 13.1529 8.47603 12.9529 8.70476L8.62767 13.6497C8.08226 14.2733 7.13463 14.3366 6.51107 13.7912L5.1565 12.6064C4.53294 12.061 4.46959 11.1134 5.01499 10.4898L9.3402 5.54487C9.54026 5.31613 9.80508 5.15356 10.0996 5.07867L11.637 4.68775Z" fill="currentColor"/><path fill-rule="evenodd" clip-rule="evenodd" d="M2.32708 11.2544C2.99796 10.4874 4.1636 10.4095 4.93061 11.0803L8.05367 13.812C8.82069 14.4829 8.89862 15.6485 8.22774 16.4155C7.55685 17.1825 6.39121 17.2605 5.6242 16.5896L2.50114 13.8579C1.73413 13.1871 1.6562 12.0214 2.32708 11.2544ZM4.27225 11.833C3.92094 11.5258 3.38706 11.5615 3.07978 11.9128C2.7725 12.2641 2.8082 12.798 3.1595 13.1052L6.28256 15.8369C6.63387 16.1442 7.16776 16.1085 7.47503 15.7572C7.78231 15.4058 7.74662 14.872 7.39531 14.5647L4.27225 11.833Z" fill="currentColor"/><path fill-rule="evenodd" clip-rule="evenodd" d="M4.20887 14.1383L2.3657 16.2456C2.1839 16.4535 2.20502 16.7693 2.41287 16.9512L2.62346 17.1353C2.83131 17.3171 3.14719 17.296 3.32899 17.0882L5.17215 14.9809L5.92485 15.6393L4.08169 17.7465C3.53628 18.3701 2.58865 18.4334 1.96509 17.888L1.75451 17.7039C1.13095 17.1584 1.0676 16.2108 1.613 15.5873L3.45617 13.48L4.20887 14.1383Z" fill="currentColor"/><path fill-rule="evenodd" clip-rule="evenodd" d="M12.8175 2.59802C11.8283 2.10063 10.6621 2.10063 9.67287 2.59802L6.53606 4.17526C5.44211 4.72533 4.73195 5.78933 4.74754 6.9668C4.76224 8.07742 4.8494 9.42838 5.11671 10.6372L5.23221 11.1347L4.25813 11.3609L4.14087 10.8559C3.85205 9.55114 3.76275 8.12237 3.74763 6.98004C3.72637 5.3741 4.69383 3.98228 6.08684 3.28185L9.22364 1.7046C10.4955 1.0651 11.9949 1.0651 13.2667 1.7046L16.4035 3.28185C17.7965 3.98228 18.764 5.37422 18.7427 6.98014C18.7206 8.65375 18.5397 10.999 17.7658 12.6411C16.913 14.4506 14.9898 16.1515 13.5418 17.2594C12.1773 18.3033 10.3131 18.3034 8.94864 17.2595C8.46296 16.8878 7.93216 16.4557 7.40893 15.9803L8.08141 15.2401C8.5795 15.6927 9.08783 16.1068 9.55629 16.4652C10.5621 17.2348 11.9283 17.2348 12.9341 16.4652C14.3753 15.3625 16.1204 13.7866 16.8612 12.2148C17.5351 10.7851 17.7207 8.63309 17.7428 6.9669C17.7584 5.78942 17.0482 4.72532 15.9543 4.17526L12.8175 2.59802Z" fill="currentColor"/></g><path d="M1.15063 1.87794C0.94979 1.6771 0.94979 1.35147 1.15063 1.15063C1.35147 0.949789 1.6771 0.949789 1.87794 1.15063L18.8494 18.1221C19.0502 18.3229 19.0502 18.6485 18.8494 18.8494C18.6485 19.0502 18.3229 19.0502 18.1221 18.8494L1.15063 1.87794Z" fill="currentColor"/></svg>