<svg width="20" height="20" viewBox="0 0 26 26" fill="none" xmlns="http://www.w3.org/2000/svg"><defs><mask id="mask-pencil-swords-circle-filled"><rect width="26" height="26" fill="white"/><g transform="translate(3, 3)"><g><path fill-rule="evenodd" clip-rule="evenodd" d="M16.6908 3.38393C16.7537 3.03929 16.4518 2.73854 16.1074 2.80267L13.6859 3.25358C13.5863 3.27212 13.4947 3.32048 13.4232 3.39223L7.33019 9.50792C7.13529 9.70355 7.13588 10.0201 7.33151 10.215L9.31111 12.1873C9.50674 12.3822 9.82332 12.3816 10.0182 12.186L16.1112 6.0703C16.1827 5.99854 16.2307 5.90676 16.2489 5.80711L16.6908 3.38393ZM15.9244 1.81957C16.9576 1.62718 17.8632 2.52943 17.6746 3.56334L17.2327 5.98652C17.1782 6.28547 17.0341 6.56081 16.8197 6.77609L10.7266 12.8918C10.1419 13.4787 9.19219 13.4804 8.60532 12.8957L6.62571 10.9234C6.03884 10.3387 6.03708 9.389 6.62178 8.80213L12.7148 2.68644C12.9293 2.47117 13.2041 2.32611 13.5028 2.27048L15.9244 1.81957Z" fill="black"/><path fill-rule="evenodd" clip-rule="evenodd" d="M7.95393 11.5699C7.75831 11.375 7.75772 11.0584 7.95262 10.8628L11.3365 7.46635C11.5314 7.27073 11.848 7.27014 12.0436 7.46504C12.2392 7.65994 12.2398 7.97652 12.0449 8.17215L8.66104 11.5686C8.46614 11.7642 8.14956 11.7648 7.95393 11.5699Z" fill="black"/><path fill-rule="evenodd" clip-rule="evenodd" d="M3.54224 9.176C4.2978 8.41763 5.52507 8.41535 6.28343 9.17091L10.3592 13.2315C11.1175 13.9871 11.1198 15.2144 10.3643 15.9727C9.6087 16.7311 8.38142 16.7334 7.62306 15.9778L3.54733 11.9172C2.78896 11.1616 2.78669 9.93436 3.54224 9.176ZM5.57764 9.87933C5.21053 9.51357 4.61641 9.51467 4.25066 9.88179C3.8849 10.2489 3.886 10.843 4.25312 11.2088L8.32885 15.2694C8.69597 15.6352 9.29008 15.6341 9.65583 15.2669C10.0216 14.8998 10.0205 14.3057 9.65337 13.94L5.57764 9.87933Z" fill="black"/><path fill-rule="evenodd" clip-rule="evenodd" d="M5.30749 12.9598L2.62942 15.6478C2.43452 15.8435 2.43511 16.1601 2.63074 16.3549L3.25176 16.9737C3.44739 17.1686 3.76397 17.168 3.95887 16.9724L6.63693 14.2843L7.34535 14.9901L4.66729 17.6782C4.08259 18.265 3.13284 18.2668 2.54597 17.6821L1.92494 17.0634C1.33807 16.4787 1.33631 15.5289 1.921 14.9421L4.59907 12.254L5.30749 12.9598Z" fill="black"/><path fill-rule="evenodd" clip-rule="evenodd" d="M3.30917 3.38393C3.24631 3.03929 3.54819 2.73854 3.89258 2.80267L6.31411 3.25358C6.41369 3.27212 6.50529 3.32048 6.57679 3.39223L9.86642 6.6941L10.5748 5.98831L7.2852 2.68644C7.07072 2.47116 6.79592 2.32611 6.49717 2.27048L4.07565 1.81957C3.04245 1.62718 2.13684 2.52943 2.32539 3.56334L2.76731 5.98652C2.82183 6.28547 2.96587 6.56081 3.18034 6.77609L6.46998 10.078L7.1784 9.37217L3.88876 6.0703C3.81727 5.99854 3.76926 5.90676 3.75108 5.80711L3.30917 3.38393Z" fill="black"/><path fill-rule="evenodd" clip-rule="evenodd" d="M10.3501 13.8569L14.4156 9.87003C14.7858 9.50703 15.3794 9.51048 15.7453 9.87775C16.1133 10.2471 16.1122 10.8448 15.7428 11.2128L11.6711 15.2694C11.304 15.6351 10.7099 15.634 10.3442 15.2669L9.63574 15.9727C10.3913 16.7311 11.6186 16.7334 12.3769 15.9778L16.4486 11.9212C17.2092 11.1634 17.2115 9.93255 16.4537 9.17196C15.7002 8.41562 14.4777 8.40852 13.7154 9.15605L9.64992 13.143L10.3501 13.8569Z" fill="black"/><path fill-rule="evenodd" clip-rule="evenodd" d="M14.6925 12.9598L17.3706 15.6478C17.5655 15.8435 17.5649 16.1601 17.3693 16.3549L16.7482 16.9737C16.5526 17.1686 16.236 17.168 16.0411 16.9724L13.3631 14.2843L12.6546 14.9901L15.3327 17.6782C15.9174 18.265 16.8672 18.2668 17.454 17.6821L18.0751 17.0634C18.6619 16.4787 18.6637 15.5289 18.079 14.9421L15.4009 12.254L14.6925 12.9598Z" fill="black"/></g></g></mask></defs><circle r="13" cx="13" cy="13" mask="url(#mask-pencil-swords-circle-filled)" fill="currentColor"/></svg>