<svg width="20" height="20" viewBox="0 0 26 26" fill="none" xmlns="http://www.w3.org/2000/svg"><g transform="translate(3, 3)"><g><path fill-rule="evenodd" clip-rule="evenodd" d="M3.20713 11.5711C2.42608 12.3521 2.42608 13.6184 3.20713 14.3995L4.62134 15.8137C5.40239 16.5947 6.66872 16.5947 7.44977 15.8137L14.4209 8.84254C14.8071 8.45636 15.0186 7.92906 15.0062 7.38305L14.9743 5.97595C14.9499 4.89756 14.0747 4.03281 12.9961 4.02134L11.6213 4.00672C11.0835 4.001 10.5661 4.2121 10.1858 4.59239L3.20713 11.5711ZM13.7138 8.13544L6.74266 15.1066C6.35214 15.4971 5.71897 15.4971 5.32845 15.1066L3.91423 13.6924C3.52371 13.3018 3.52371 12.6687 3.91423 12.2782L10.8929 5.2995C11.083 5.10936 11.3417 5.0038 11.6106 5.00666L12.9855 5.02128C13.5248 5.02702 13.9624 5.45939 13.9746 5.99859L14.0064 7.40569C14.0126 7.67869 13.9069 7.94235 13.7138 8.13544Z" fill="currentColor"/><path d="M9.52082 12.1066C9.71608 12.3019 9.71608 12.6185 9.52082 12.8137C9.32556 13.009 9.00898 13.009 8.81371 12.8137L7.3995 11.3995C7.20424 11.2042 7.20424 10.8877 7.3995 10.6924C7.59476 10.4971 7.91134 10.4971 8.10661 10.6924L9.52082 12.1066Z" fill="currentColor"/><path d="M3.56397 17.7635C3.75923 17.9587 3.75923 18.2753 3.56397 18.4706C3.36871 18.6658 3.05213 18.6658 2.85687 18.4706L0.328438 15.9421C0.133176 15.7469 0.133176 15.4303 0.328438 15.235C0.5237 15.0398 0.840283 15.0398 1.03554 15.235L3.56397 17.7635Z" fill="currentColor"/><path d="M7.35355 17.6464C7.54882 17.8417 7.54882 18.1583 7.35355 18.3535C7.15829 18.5488 6.84171 18.5488 6.64645 18.3535L0.646447 12.3535C0.451185 12.1583 0.451185 11.8417 0.646447 11.6464C0.841709 11.4512 1.15829 11.4512 1.35355 11.6464L7.35355 17.6464Z" fill="currentColor"/><path d="M11.6422 9.98527C11.8374 10.1805 11.8374 10.4971 11.6422 10.6924C11.4469 10.8876 11.1303 10.8876 10.9351 10.6924L9.52084 9.27816C9.32558 9.0829 9.32558 8.76632 9.52084 8.57106C9.7161 8.37579 10.0327 8.37579 10.2279 8.57106L11.6422 9.98527Z" fill="currentColor"/><path d="M2 17.4571L1.29289 16.75L3.75 14.2929L4.45711 15L2 17.4571Z" fill="currentColor"/><path d="M16.8536 1.35354C17.0488 1.15828 17.3654 1.15828 17.5607 1.35354C17.7559 1.5488 17.7559 1.86538 17.5607 2.06065L14.5607 5.06065C14.3654 5.25591 14.0488 5.25591 13.8536 5.06065C13.6583 4.86538 13.6583 4.5488 13.8536 4.35354L16.8536 1.35354Z" fill="currentColor"/></g></g><path fill-rule="evenodd" clip-rule="evenodd" d="M13 24.5C19.3513 24.5 24.5 19.3513 24.5 13C24.5 6.64873 19.3513 1.5 13 1.5C6.64873 1.5 1.5 6.64873 1.5 13C1.5 19.3513 6.64873 24.5 13 24.5ZM13 25.5C19.9036 25.5 25.5 19.9036 25.5 13C25.5 6.09644 19.9036 0.5 13 0.5C6.09644 0.5 0.5 6.09644 0.5 13C0.5 19.9036 6.09644 25.5 13 25.5Z" fill="currentColor"/></svg>