<svg width="20" height="20" viewBox="0 0 26 26" fill="none" xmlns="http://www.w3.org/2000/svg"><g transform="translate(3, 3)"><path fill-rule="evenodd" clip-rule="evenodd" d="M2.66811 10.0085L3.83381 9.42628V16.5C3.83381 17.8807 4.95309 19 6.33381 19H13.6685C15.0492 19 16.1685 17.8807 16.1685 16.5V9.42537L17.3347 10.0064C17.6254 10.1512 17.9749 9.9847 18.0456 9.66766L18.9902 5.43237C19.0275 5.26507 18.9765 5.09033 18.8551 4.96934L16.6068 2.72907C16.1382 2.26216 15.5037 2 14.8422 2H12.8348C12.5916 2 12.3836 2.17505 12.3422 2.41473C12.0552 4.0728 11.3015 4.82353 10.0002 4.82353C8.69911 4.82353 7.9461 4.07298 7.66021 2.41503C7.61885 2.17521 7.41084 2 7.16748 2H5.16056C4.49876 2 3.86396 2.26241 3.39532 2.7297L1.14913 4.96947C1.02787 5.09038 0.976925 5.26493 1.0141 5.43208L1.95662 9.66975C2.02721 9.98715 2.37721 10.1538 2.66811 10.0085ZM5.16056 3H6.75927C7.1952 4.84 8.2974 5.82353 10.0002 5.82353C11.7031 5.82353 12.8058 4.84005 13.2428 3H14.8422C15.2391 3 15.6198 3.1573 15.9009 3.43744L17.9542 5.4834L17.2087 8.82637L15.8915 8.17011C15.5591 8.0045 15.1685 8.24627 15.1685 8.61765V16.5C15.1685 17.3284 14.4969 18 13.6685 18H6.33381C5.50538 18 4.83381 17.3284 4.83381 16.5V8.61765C4.83381 8.24605 4.44283 8.0043 4.11039 8.17034L2.79382 8.82792L2.04995 5.48341L4.10142 3.43782C4.3826 3.15745 4.76348 3 5.16056 3Z" fill="currentColor"/><path d="M12 10.5C11.7239 10.5 11.5 10.2761 11.5 10C11.5 9.72386 11.7239 9.5 12 9.5H14C14.2761 9.5 14.5 9.72386 14.5 10C14.5 10.2761 14.2761 10.5 14 10.5H12Z" fill="currentColor"/></g><path fill-rule="evenodd" clip-rule="evenodd" d="M13 24.5C19.3513 24.5 24.5 19.3513 24.5 13C24.5 6.64873 19.3513 1.5 13 1.5C6.64873 1.5 1.5 6.64873 1.5 13C1.5 19.3513 6.64873 24.5 13 24.5ZM13 25.5C19.9036 25.5 25.5 19.9036 25.5 13C25.5 6.09644 19.9036 0.5 13 0.5C6.09644 0.5 0.5 6.09644 0.5 13C0.5 19.9036 6.09644 25.5 13 25.5Z" fill="currentColor"/></svg>