<svg width="20" height="20" viewBox="0 0 26 26" fill="none" xmlns="http://www.w3.org/2000/svg"><g transform="translate(3, 3)"><path fill-rule="evenodd" clip-rule="evenodd" d="M1.75 2C1.75 1.17157 2.42157 0.5 3.25 0.5H16.25C17.0784 0.5 17.75 1.17157 17.75 2V18C17.75 18.8284 17.0784 19.5 16.25 19.5H3.25C2.42157 19.5 1.75 18.8284 1.75 18V2ZM3.25 1.5C2.97386 1.5 2.75 1.72386 2.75 2V18C2.75 18.2761 2.97386 18.5 3.25 18.5H16.25C16.5261 18.5 16.75 18.2761 16.75 18V2C16.75 1.72386 16.5261 1.5 16.25 1.5H3.25Z" fill="currentColor"/><path fill-rule="evenodd" clip-rule="evenodd" d="M7.75 17C7.75 16.7239 7.97386 16.5 8.25 16.5H11.25C11.5261 16.5 11.75 16.7239 11.75 17C11.75 17.2761 11.5261 17.5 11.25 17.5H8.25C7.97386 17.5 7.75 17.2761 7.75 17Z" fill="currentColor"/></g><path fill-rule="evenodd" clip-rule="evenodd" d="M13 24.5C19.3513 24.5 24.5 19.3513 24.5 13C24.5 6.64873 19.3513 1.5 13 1.5C6.64873 1.5 1.5 6.64873 1.5 13C1.5 19.3513 6.64873 24.5 13 24.5ZM13 25.5C19.9036 25.5 25.5 19.9036 25.5 13C25.5 6.09644 19.9036 0.5 13 0.5C6.09644 0.5 0.5 6.09644 0.5 13C0.5 19.9036 6.09644 25.5 13 25.5Z" fill="currentColor"/></svg>