<svg width="20" height="20" viewBox="0 0 26 26" fill="none" xmlns="http://www.w3.org/2000/svg"><g transform="translate(3, 3)"><path fill-rule="evenodd" clip-rule="evenodd" d="M3.25 9V14C3.25 15.6569 4.59315 17 6.25 17H13.75C15.4069 17 16.75 15.6569 16.75 14V9C16.75 7.34315 15.4069 6 13.75 6H6.25C4.59315 6 3.25 7.34315 3.25 9ZM6.25 16C5.14543 16 4.25 15.1046 4.25 14V9C4.25 7.89543 5.14543 7 6.25 7H13.75C14.8546 7 15.75 7.89543 15.75 9V14C15.75 15.1046 14.8546 16 13.75 16H6.25Z" fill="currentColor"/><path d="M9.85957 5.68765L11.8596 3.18765C12.276 2.66707 13.0569 3.29177 12.6404 3.81235L10.6404 6.31235C10.224 6.83293 9.4431 6.20823 9.85957 5.68765Z" fill="currentColor"/><path d="M8.85957 6.31235L6.85957 3.81235C6.4431 3.29177 7.22397 2.66707 7.64044 3.18765L9.64044 5.68765C10.0569 6.20823 9.27603 6.83293 8.85957 6.31235Z" fill="currentColor"/><path d="M1.15063 1.87794C0.94979 1.6771 0.94979 1.35147 1.15063 1.15063C1.35147 0.949789 1.6771 0.949789 1.87794 1.15063L18.8494 18.1221C19.0502 18.3229 19.0502 18.6485 18.8494 18.8494C18.6485 19.0502 18.3229 19.0502 18.1221 18.8494L1.15063 1.87794Z" fill="currentColor"/></g><path fill-rule="evenodd" clip-rule="evenodd" d="M13 24.5C19.3513 24.5 24.5 19.3513 24.5 13C24.5 6.64873 19.3513 1.5 13 1.5C6.64873 1.5 1.5 6.64873 1.5 13C1.5 19.3513 6.64873 24.5 13 24.5ZM13 25.5C19.9036 25.5 25.5 19.9036 25.5 13C25.5 6.09644 19.9036 0.5 13 0.5C6.09644 0.5 0.5 6.09644 0.5 13C0.5 19.9036 6.09644 25.5 13 25.5Z" fill="currentColor"/></svg>