<svg width="20" height="20" viewBox="0 0 26 26" fill="none" xmlns="http://www.w3.org/2000/svg"><defs><mask id="mask-pencil-television-circle-filled"><rect width="26" height="26" fill="white"/><g transform="translate(3, 3)"><path fill-rule="evenodd" clip-rule="evenodd" d="M3.25 9V14C3.25 15.6569 4.59315 17 6.25 17H13.75C15.4069 17 16.75 15.6569 16.75 14V9C16.75 7.34315 15.4069 6 13.75 6H6.25C4.59315 6 3.25 7.34315 3.25 9ZM6.25 16C5.14543 16 4.25 15.1046 4.25 14V9C4.25 7.89543 5.14543 7 6.25 7H13.75C14.8546 7 15.75 7.89543 15.75 9V14C15.75 15.1046 14.8546 16 13.75 16H6.25Z" fill="black"/><path d="M9.85957 5.68765L11.8596 3.18765C12.276 2.66707 13.0569 3.29177 12.6404 3.81235L10.6404 6.31235C10.224 6.83293 9.4431 6.20823 9.85957 5.68765Z" fill="black"/><path d="M8.85957 6.31235L6.85957 3.81235C6.4431 3.29177 7.22397 2.66707 7.64044 3.18765L9.64044 5.68765C10.0569 6.20823 9.27603 6.83293 8.85957 6.31235Z" fill="black"/></g></mask></defs><circle r="13" cx="13" cy="13" mask="url(#mask-pencil-television-circle-filled)" fill="currentColor"/></svg>