<svg width="20" height="20" viewBox="0 0 26 26" fill="none" xmlns="http://www.w3.org/2000/svg"><g transform="translate(3, 3)"><path d="M5.53984 8.38328C5.99982 8.38328 6.37271 8.01018 6.37271 7.54995C6.37271 7.08971 5.99982 6.71661 5.53984 6.71661C5.07986 6.71661 4.70697 7.08971 4.70697 7.54995C4.70697 8.01018 5.07986 8.38328 5.53984 8.38328Z" fill="currentColor"/><path d="M8.03844 8.38328C8.49842 8.38328 8.87131 8.01018 8.87131 7.54995C8.87131 7.08971 8.49842 6.71661 8.03844 6.71661C7.57846 6.71661 7.20557 7.08971 7.20557 7.54995C7.20557 8.01018 7.57846 8.38328 8.03844 8.38328Z" fill="currentColor"/><path d="M10.5371 8.38328C10.9971 8.38328 11.37 8.01018 11.37 7.54995C11.37 7.08971 10.9971 6.71661 10.5371 6.71661C10.0771 6.71661 9.70422 7.08971 9.70422 7.54995C9.70422 8.01018 10.0771 8.38328 10.5371 8.38328Z" fill="currentColor"/><path d="M5.29783 13.47C4.60825 13.47 4.21848 12.6 4.0186 11.89H3.8687C2.67942 11.89 1.70001 10.92 1.70001 9.71999V5.46999C1.71001 4.26999 2.68941 3.29999 3.87869 3.29999H12.2036C13.3929 3.29999 14.3723 4.26999 14.3723 5.46999V9.71999C14.3723 10.91 13.4029 11.89 12.2036 11.89H7.77632C7.05676 12.54 5.89746 13.47 5.29783 13.47ZM3.87869 4.29999C3.23908 4.29999 2.7094 4.81999 2.7094 5.46999V9.71999C2.7094 10.36 3.21909 10.89 3.8687 10.89H4.81812L4.89807 11.29C4.99801 11.76 5.19789 12.29 5.3378 12.46C5.65761 12.33 6.50709 11.7 7.24664 11.03L7.38656 10.9H12.2036C12.8432 10.9 13.3729 10.38 13.3729 9.72999V5.46999C13.3729 4.82999 12.8532 4.29999 12.2036 4.29999H3.87869Z" fill="currentColor"/><path d="M15.2318 16.8C14.7421 16.8 13.8926 16.14 13.213 15.53H10.5446C9.53526 15.53 8.71576 14.71 8.71576 13.7C8.71576 13.42 8.93563 13.2 9.21546 13.2C9.49529 13.2 9.71515 13.42 9.71515 13.7C9.71515 14.16 10.0849 14.53 10.5446 14.53H13.6028L13.7427 14.66C14.2724 15.14 14.882 15.61 15.1618 15.75C15.2618 15.58 15.3917 15.23 15.4517 14.92L15.5316 14.52H16.3711C16.8308 14.52 17.2006 14.15 17.2006 13.69V10.29C17.2006 9.82996 16.8308 9.45996 16.3711 9.45996C16.0913 9.45996 15.8714 9.23996 15.8714 8.95996C15.8714 8.67996 16.0913 8.45996 16.3711 8.45996C17.3805 8.45996 18.2 9.27996 18.2 10.29V13.69C18.2 14.7 17.3805 15.52 16.3711 15.52H16.3311C16.1612 16.11 15.8314 16.79 15.2318 16.79V16.8Z" fill="currentColor"/></g><path fill-rule="evenodd" clip-rule="evenodd" d="M13 24.5C19.3513 24.5 24.5 19.3513 24.5 13C24.5 6.64873 19.3513 1.5 13 1.5C6.64873 1.5 1.5 6.64873 1.5 13C1.5 19.3513 6.64873 24.5 13 24.5ZM13 25.5C19.9036 25.5 25.5 19.9036 25.5 13C25.5 6.09644 19.9036 0.5 13 0.5C6.09644 0.5 0.5 6.09644 0.5 13C0.5 19.9036 6.09644 25.5 13 25.5Z" fill="currentColor"/></svg>