<svg width="20" height="20" viewBox="0 0 20 20" fill="none" xmlns="http://www.w3.org/2000/svg"><path fill-rule="evenodd" clip-rule="evenodd" d="M1.5 12.1024C1.5 13.4832 2.61929 14.6024 4 14.6024H4.24871C4.55632 15.8396 4.99016 16.5 5.70388 16.5C6.3065 16.5 7.22282 15.8804 8.64333 14.6024H16C17.3807 14.6024 18.5 13.4832 18.5 12.1024V6C18.5 4.61929 17.3807 3.5 16 3.5H4C2.61929 3.5 1.5 4.61929 1.5 6V12.1024ZM2.5 12.1024V6C2.5 5.17157 3.17157 4.5 4 4.5H16C16.8284 4.5 17.5 5.17157 17.5 6V12.1024C17.5 12.9309 16.8284 13.6024 16 13.6024H8.25749L8.11447 13.7325C6.8338 14.8965 5.96021 15.5 5.70388 15.5C5.61157 15.5 5.35398 15.0373 5.13693 14L5.05373 13.6024H4C3.17157 13.6024 2.5 12.9309 2.5 12.1024Z" fill="currentColor"/><circle cx="7" cy="9" r="1" fill="currentColor"/><circle cx="10" cy="9" r="1" fill="currentColor"/><circle cx="13" cy="9" r="1" fill="currentColor"/></svg>