<svg width="20" height="20" viewBox="0 0 20 20" fill="none" xmlns="http://www.w3.org/2000/svg"><g><path fill-rule="evenodd" clip-rule="evenodd" d="M5.70001 8.50348H3.20001L3.20001 14.0035H5.70001V8.50348ZM3.20001 7.50348C2.64773 7.50348 2.20001 7.95119 2.20001 8.50348V14.0035C2.20001 14.5558 2.64773 15.0035 3.20001 15.0035H5.70001C6.2523 15.0035 6.70001 14.5558 6.70001 14.0035V8.50348C6.70001 7.95119 6.2523 7.50348 5.70001 7.50348H3.20001Z" fill="currentColor"/><path fill-rule="evenodd" clip-rule="evenodd" d="M9.74388 2.82988C10.0431 2.87975 10.2452 3.16273 10.1953 3.46193L9.97166 4.8039C9.73897 6.19992 8.93884 7.43738 7.76126 8.22244L7.15194 7.30846C8.0769 6.69182 8.70538 5.71984 8.88815 4.6233L9.11182 3.28133C9.1617 2.98213 9.44468 2.78 9.74388 2.82988Z" fill="currentColor"/><path fill-rule="evenodd" clip-rule="evenodd" d="M11.4157 3.16434C11.0128 2.7615 10.3245 2.95214 10.1864 3.50483L9.1207 3.23842C9.46595 1.85739 11.1858 1.38102 12.1924 2.38761L12.2388 2.43403C12.4533 2.64852 12.4533 2.99627 12.2388 3.21076C12.0243 3.42525 11.6766 3.42525 11.4621 3.21076L11.4157 3.16434Z" fill="currentColor"/><path fill-rule="evenodd" clip-rule="evenodd" d="M11.9918 6.65057C11.6976 6.57699 11.5187 6.27879 11.5922 5.98452L11.7554 5.33205C11.8169 5.08583 11.8438 4.83221 11.8351 4.57857L11.8197 4.12781C11.8078 3.78028 11.674 3.44801 11.4417 3.1892L12.2593 2.45555C12.6637 2.90629 12.8968 3.48497 12.9175 4.09023L12.9329 4.54098C12.9451 4.89698 12.9074 5.25294 12.821 5.59851L12.6579 6.25097C12.5843 6.54525 12.2861 6.72415 11.9918 6.65057Z" fill="currentColor"/><path fill-rule="evenodd" clip-rule="evenodd" d="M11.8505 6.11777C11.8505 5.81444 12.0964 5.56854 12.3997 5.56854H14.0474C14.3507 5.56854 14.5966 5.81444 14.5966 6.11777C14.5966 6.4211 14.3507 6.667 14.0474 6.667H12.3997C12.0964 6.667 11.8505 6.4211 11.8505 6.11777Z" fill="currentColor"/><path fill-rule="evenodd" clip-rule="evenodd" d="M15.9407 7.83707C15.5821 7.11996 14.8492 6.66698 14.0474 6.66698L14.0474 5.56852C15.2653 5.56851 16.3786 6.25657 16.9232 7.34582L17.2848 8.06904C17.4204 8.34035 17.3105 8.67025 17.0392 8.80591C16.7679 8.94156 16.438 8.83159 16.3023 8.56029L15.9407 7.83707Z" fill="currentColor"/><path fill-rule="evenodd" clip-rule="evenodd" d="M16.0498 14.3206C15.7661 14.2132 15.6232 13.8961 15.7307 13.6125L16.3243 12.045C16.7552 10.9072 16.741 9.6486 16.2844 8.52076L17.3026 8.10858C17.863 9.49283 17.8805 11.0375 17.3515 12.4341L16.7579 14.0015C16.6505 14.2852 16.3334 14.428 16.0498 14.3206Z" fill="currentColor"/><path fill-rule="evenodd" clip-rule="evenodd" d="M13.0983 14.9261C14.0118 15.1843 14.9856 14.8045 15.483 13.9961L15.7765 13.5192C15.9355 13.2608 16.2738 13.1803 16.5321 13.3392C16.7904 13.4982 16.871 13.8365 16.712 14.0949L16.4186 14.5717C15.6636 15.7986 14.1858 16.375 12.7996 15.9832L13.0983 14.9261Z" fill="currentColor"/><path fill-rule="evenodd" clip-rule="evenodd" d="M6.91807 14.2485C6.97756 13.9511 7.26691 13.7582 7.56435 13.8177L13.0567 14.9161C13.3541 14.9756 13.547 15.265 13.4875 15.5624C13.428 15.8599 13.1387 16.0528 12.8412 15.9933L7.34893 14.8948C7.05149 14.8353 6.85859 14.546 6.91807 14.2485Z" fill="currentColor"/><path fill-rule="evenodd" clip-rule="evenodd" d="M7.46078 7.21625C7.76411 7.21625 8.01001 7.46215 8.01001 7.76548V14.3562C8.01001 14.6596 7.76411 14.9055 7.46078 14.9055C7.15745 14.9055 6.91155 14.6596 6.91155 14.3562V7.76548C6.91155 7.46215 7.15745 7.21625 7.46078 7.21625Z" fill="currentColor"/><path d="M5.45001 12.5035C5.45001 13.0558 5.0023 13.5035 4.45001 13.5035C3.89773 13.5035 3.45001 13.0558 3.45001 12.5035C3.45001 11.9512 3.89773 11.5035 4.45001 11.5035C5.0023 11.5035 5.45001 11.9512 5.45001 12.5035Z" fill="currentColor"/></g></svg>