<svg width="20" height="20" viewBox="0 0 26 26" fill="none" xmlns="http://www.w3.org/2000/svg"><g transform="translate(3, 3)"><path fill-rule="evenodd" clip-rule="evenodd" d="M14.1 10.0814H16.6L16.6 4.58136H14.1V10.0814ZM16.6 11.0814C17.1523 11.0814 17.6 10.6336 17.6 10.0814V4.58136C17.6 4.02908 17.1523 3.58136 16.6 3.58136H14.1C13.5477 3.58136 13.1 4.02908 13.1 4.58136V10.0814C13.1 10.6336 13.5477 11.0814 14.1 11.0814H16.6Z" fill="currentColor"/><path fill-rule="evenodd" clip-rule="evenodd" d="M10.0561 15.755C9.75693 15.7051 9.55481 15.4221 9.60468 15.1229L9.82836 13.7809C10.061 12.3849 10.8612 11.1475 12.0388 10.3624L12.6481 11.2764C11.7231 11.893 11.0946 12.865 10.9119 13.9615L10.6882 15.3035C10.6383 15.6027 10.3553 15.8048 10.0561 15.755Z" fill="currentColor"/><path fill-rule="evenodd" clip-rule="evenodd" d="M8.38435 15.4205C8.78719 15.8233 9.47549 15.6327 9.61366 15.08L10.6793 15.3464C10.3341 16.7274 8.61421 17.2038 7.60763 16.1972L7.5612 16.1508C7.34672 15.9363 7.34672 15.5886 7.5612 15.3741C7.77569 15.1596 8.12344 15.1596 8.33793 15.3741L8.38435 15.4205Z" fill="currentColor"/><path fill-rule="evenodd" clip-rule="evenodd" d="M7.80819 11.9343C8.10246 12.0078 8.28137 12.3061 8.20778 12.6003L8.04464 13.2528C7.98307 13.499 7.95624 13.7526 7.96493 14.0063L7.98036 14.457C7.99226 14.8046 8.12605 15.1368 8.3583 15.3956L7.54076 16.1293C7.13627 15.6786 6.90326 15.0999 6.88254 14.4946L6.86711 14.0439C6.85492 13.6879 6.89258 13.3319 6.97899 12.9863L7.14213 12.3339C7.21571 12.0396 7.51392 11.8607 7.80819 11.9343Z" fill="currentColor"/><path fill-rule="evenodd" clip-rule="evenodd" d="M7.94952 12.4671C7.94952 12.7704 7.70363 13.0163 7.40029 13.0163H5.7526C5.44927 13.0163 5.20337 12.7704 5.20337 12.4671C5.20337 12.1637 5.44927 11.9178 5.7526 11.9178H7.40029C7.70363 11.9178 7.94952 12.1637 7.94952 12.4671Z" fill="currentColor"/><path fill-rule="evenodd" clip-rule="evenodd" d="M3.85933 10.7478C4.21788 11.4649 4.95082 11.9179 5.75258 11.9179L5.75259 13.0163C4.53476 13.0163 3.42146 12.3283 2.87683 11.239L2.51522 10.5158C2.37957 10.2445 2.48954 9.91458 2.76085 9.77893C3.03216 9.64328 3.36206 9.75325 3.49772 10.0246L3.85933 10.7478Z" fill="currentColor"/><path fill-rule="evenodd" clip-rule="evenodd" d="M3.75026 4.26423C4.03393 4.37166 4.1768 4.68871 4.06936 4.97238L3.47574 6.5398C3.04479 7.67767 3.05903 8.93624 3.51559 10.0641L2.49739 10.4763C1.93703 9.09201 1.91956 7.54731 2.44848 6.15075L3.04211 4.58333C3.14954 4.29966 3.46659 4.15679 3.75026 4.26423Z" fill="currentColor"/><path fill-rule="evenodd" clip-rule="evenodd" d="M6.70172 3.65869C5.78825 3.40054 4.81445 3.78034 4.31697 4.58878L4.02352 5.06566C3.86456 5.324 3.52626 5.40456 3.26792 5.24559C3.00958 5.08662 2.92903 4.74833 3.088 4.48999L3.38144 4.01311C4.13639 2.78624 5.61421 2.20987 7.00046 2.60163L6.70172 3.65869Z" fill="currentColor"/><path fill-rule="evenodd" clip-rule="evenodd" d="M12.8819 4.33631C12.8225 4.63375 12.5331 4.82665 12.2357 4.76716L6.74336 3.6687C6.44592 3.60922 6.25302 3.31987 6.31251 3.02243C6.372 2.72499 6.66135 2.53209 6.95879 2.59157L12.4511 3.69004C12.7485 3.74952 12.9414 4.03887 12.8819 4.33631Z" fill="currentColor"/><path fill-rule="evenodd" clip-rule="evenodd" d="M12.3392 11.3686C12.0359 11.3686 11.79 11.1227 11.79 10.8194V4.2286C11.79 3.92526 12.0359 3.67937 12.3392 3.67937C12.6425 3.67937 12.8884 3.92526 12.8884 4.2286V10.8194C12.8884 11.1227 12.6425 11.3686 12.3392 11.3686Z" fill="currentColor"/><path d="M14.35 6.08136C14.35 5.52908 14.7977 5.08136 15.35 5.08136C15.9023 5.08136 16.35 5.52908 16.35 6.08136C16.35 6.63364 15.9023 7.08136 15.35 7.08136C14.7977 7.08136 14.35 6.63364 14.35 6.08136Z" fill="currentColor"/></g><path fill-rule="evenodd" clip-rule="evenodd" d="M13 24.5C19.3513 24.5 24.5 19.3513 24.5 13C24.5 6.64873 19.3513 1.5 13 1.5C6.64873 1.5 1.5 6.64873 1.5 13C1.5 19.3513 6.64873 24.5 13 24.5ZM13 25.5C19.9036 25.5 25.5 19.9036 25.5 13C25.5 6.09644 19.9036 0.5 13 0.5C6.09644 0.5 0.5 6.09644 0.5 13C0.5 19.9036 6.09644 25.5 13 25.5Z" fill="currentColor"/></svg>