<svg width="20" height="20" viewBox="0 0 26 26" fill="none" xmlns="http://www.w3.org/2000/svg"><defs><mask id="mask-pencil-times-circle-filled"><rect width="26" height="26" fill="white"/><g transform="translate(3, 3)"><path d="M6.85355 13.8536C6.65829 14.0488 6.34171 14.0488 6.14645 13.8536C5.95118 13.6583 5.95118 13.3417 6.14645 13.1464L13.1464 6.14645C13.3417 5.95118 13.6583 5.95118 13.8536 6.14645C14.0488 6.34171 14.0488 6.65829 13.8536 6.85355L6.85355 13.8536Z" fill="black"/><path d="M6.14645 6.85355C5.95118 6.65829 5.95118 6.34171 6.14645 6.14645C6.34171 5.95118 6.65829 5.95118 6.85355 6.14645L13.8536 13.1464C14.0488 13.3417 14.0488 13.6583 13.8536 13.8536C13.6583 14.0488 13.3417 14.0488 13.1464 13.8536L6.14645 6.85355Z" fill="black"/></g></mask></defs><circle r="13" cx="13" cy="13" mask="url(#mask-pencil-times-circle-filled)" fill="currentColor"/></svg>