<svg width="20" height="20" viewBox="0 0 20 20" fill="none" xmlns="http://www.w3.org/2000/svg"><path d="M6.85355 13.8536C6.65829 14.0488 6.34171 14.0488 6.14645 13.8536C5.95118 13.6583 5.95118 13.3417 6.14645 13.1464L13.1464 6.14645C13.3417 5.95118 13.6583 5.95118 13.8536 6.14645C14.0488 6.34171 14.0488 6.65829 13.8536 6.85355L6.85355 13.8536Z" fill="currentColor"/><path d="M6.14645 6.85355C5.95118 6.65829 5.95118 6.34171 6.14645 6.14645C6.34171 5.95118 6.65829 5.95118 6.85355 6.14645L13.8536 13.1464C14.0488 13.3417 14.0488 13.6583 13.8536 13.8536C13.6583 14.0488 13.3417 14.0488 13.1464 13.8536L6.14645 6.85355Z" fill="currentColor"/><path d="M1.15063 1.87794C0.94979 1.6771 0.94979 1.35147 1.15063 1.15063C1.35147 0.949789 1.6771 0.949789 1.87794 1.15063L18.8494 18.1221C19.0502 18.3229 19.0502 18.6485 18.8494 18.8494C18.6485 19.0502 18.3229 19.0502 18.1221 18.8494L1.15063 1.87794Z" fill="currentColor"/></svg>