<svg width="20" height="20" viewBox="0 0 26 26" fill="none" xmlns="http://www.w3.org/2000/svg"><defs><mask id="mask-pencil-train-circle-filled"><rect width="26" height="26" fill="white"/><g transform="translate(3, 3)"><g><path fill-rule="evenodd" clip-rule="evenodd" d="M17 4.5C17 2.567 15.433 1 13.5 1L6.5 1C4.567 1 3 2.56701 3 4.5V11.4552C3 12.9896 3.99941 14.3451 5.4652 14.7988C6.97486 15.266 8.48696 15.5 10 15.5C11.513 15.5 13.0252 15.266 14.5348 14.7988C16.0006 14.3451 17 12.9896 17 11.4552L17 4.5ZM4 11.4552V4.5C4 3.11929 5.11929 2 6.5 2L13.5 2C14.8807 2 16 3.11929 16 4.5L16 11.4552C16 12.5512 15.2862 13.5194 14.2392 13.8435C12.8242 14.2814 11.4116 14.5 10 14.5C8.58839 14.5 7.17585 14.2814 5.76086 13.8435C4.71386 13.5194 4 12.5512 4 11.4552Z" fill="black"/><path fill-rule="evenodd" clip-rule="evenodd" d="M6.5 13C7.32843 13 8 12.3284 8 11.5C8 10.6716 7.32843 10 6.5 10C5.67157 10 5 10.6716 5 11.5C5 12.3284 5.67157 13 6.5 13ZM6.5 11C6.77614 11 7 11.2239 7 11.5C7 11.7761 6.77614 12 6.5 12C6.22386 12 6 11.7761 6 11.5C6 11.2239 6.22386 11 6.5 11Z" fill="black"/><path fill-rule="evenodd" clip-rule="evenodd" d="M13.5 13C14.3284 13 15 12.3284 15 11.5C15 10.6716 14.3284 10 13.5 10C12.6716 10 12 10.6716 12 11.5C12 12.3284 12.6716 13 13.5 13ZM13.5 11C13.7761 11 14 11.2239 14 11.5C14 11.7761 13.7761 12 13.5 12C13.2239 12 13 11.7761 13 11.5C13 11.2239 13.2239 11 13.5 11Z" fill="black"/><path d="M15.5318 18.6757C15.6288 18.9342 15.917 19.0652 16.1756 18.9683C16.4341 18.8713 16.5651 18.5831 16.4682 18.3245L14.9682 14.3245C14.8712 14.066 14.583 13.935 14.3244 14.0319C14.0659 14.1289 13.9349 14.4171 14.0318 14.6757L15.5318 18.6757Z" fill="black"/><path d="M5.53183 14.3245C5.62879 14.0659 5.917 13.9349 6.17556 14.0319C6.43412 14.1288 6.56512 14.417 6.46816 14.6756L4.96816 18.6756C4.8712 18.9341 4.58299 19.0651 4.32443 18.9682C4.06587 18.8712 3.93487 18.583 4.03183 18.3245L5.53183 14.3245Z" fill="black"/><path fill-rule="evenodd" clip-rule="evenodd" d="M15 5C15 3.89543 14.1046 3 13 3H7C5.89543 3 5 3.89543 5 5V7.56491C5 8.45546 5.58882 9.23873 6.4443 9.48616C7.62792 9.82852 8.81358 10 10 10C11.1864 10 12.3721 9.82852 13.5557 9.48615C14.4112 9.23871 15 8.45545 15 7.56491L15 5ZM6 7.56491V5C6 4.44772 6.44772 4 7 4H13C13.5523 4 14 4.44772 14 5L14 7.56491C14 8.01018 13.7056 8.40181 13.2779 8.52553C12.1836 8.84204 11.0914 9 10 9C8.90857 9 7.81637 8.84204 6.72215 8.52554C6.29441 8.40182 6 8.01019 6 7.56491Z" fill="black"/><path d="M5.25 17.5C4.97386 17.5 4.75 17.2761 4.75 17C4.75 16.7239 4.97386 16.5 5.25 16.5H15.25C15.5261 16.5 15.75 16.7239 15.75 17C15.75 17.2761 15.5261 17.5 15.25 17.5H5.25Z" fill="black"/></g></g></mask></defs><circle r="13" cx="13" cy="13" mask="url(#mask-pencil-train-circle-filled)" fill="currentColor"/></svg>