<svg width="20" height="20" viewBox="0 0 26 26" fill="none" xmlns="http://www.w3.org/2000/svg"><defs><mask id="mask-pencil-tree-circle-filled"><rect width="26" height="26" fill="white"/><g transform="translate(3, 3)"><path fill-rule="evenodd" clip-rule="evenodd" d="M9.36004 1C8.5784 1 7.85977 1.3125 7.30637 1.83852C6.99585 2.13367 6.73806 2.49567 6.55313 2.90538C6.4433 3.14872 6.16285 3.26143 5.9169 3.16598C4.28092 3.04337 2.77972 4.33864 2.59549 6.19733C2.46961 7.46722 3.00164 8.63737 3.87622 9.32521C3.97464 9.40262 4.03616 9.50956 4.05809 9.62357C4.10212 9.72249 4.11448 9.83637 4.08581 9.94948C3.99599 10.3037 3.96228 10.6859 3.99674 11.081C4.13663 12.6845 5.66729 13.8078 7.0482 13.6681C7.58058 13.6142 7.95379 13.5256 8.23484 13.3626C8.48604 13.2169 8.70156 12.9893 8.87653 12.5739C8.91574 12.4257 9.02236 12.2974 9.17583 12.2365C9.23755 12.2121 9.30122 12.2008 9.36376 12.2013C9.42534 12.2011 9.48797 12.2125 9.54871 12.2366C9.70215 12.2974 9.80876 12.4256 9.84799 12.5738C10.023 12.9893 10.2385 13.2169 10.4897 13.3626C10.7707 13.5256 11.144 13.6142 11.6763 13.6681C13.0573 13.8078 14.5879 12.6845 14.7278 11.0809C14.7623 10.6859 14.7285 10.3037 14.6387 9.94946C14.61 9.83626 14.6224 9.72227 14.6666 9.62329C14.6886 9.50939 14.75 9.40257 14.8484 9.32523C15.723 8.63739 16.255 7.46724 16.1291 6.19735C15.9447 4.33651 14.4402 3.04039 12.802 3.16643C12.5563 3.26108 12.2766 3.14834 12.1669 2.90538C11.982 2.49567 11.7242 2.13367 11.4137 1.83852C10.8603 1.3125 10.1417 1 9.36004 1ZM12.9102 2.15926C12.6929 1.76828 12.4202 1.41552 12.1027 1.1137C11.3778 0.424734 10.4174 0 9.36004 0C8.30271 0 7.34226 0.424734 6.61742 1.1137C6.29993 1.41548 6.02721 1.76818 5.80993 2.1591C3.65081 2.0952 1.82538 3.82859 1.60036 6.09869C1.45063 7.60932 2.03532 9.03279 3.06222 9.94729C2.98695 10.3382 2.96396 10.7488 3.00052 11.1679C3.19075 13.3484 5.23478 14.8567 7.14886 14.663C7.72063 14.6052 8.26718 14.4998 8.73648 14.2277C8.97562 14.089 9.18341 13.9139 9.36227 13.6979C9.54114 13.9139 9.74893 14.089 9.98806 14.2277C10.4574 14.4998 11.0039 14.6052 11.5757 14.663C13.4898 14.8567 15.5338 13.3484 15.724 11.1678C15.7606 10.7488 15.7376 10.3383 15.6623 9.94735C16.6893 9.03285 17.274 7.60936 17.1242 6.09871C16.8991 3.82705 15.0713 2.09285 12.9102 2.15926Z" fill="black"/><path fill-rule="evenodd" clip-rule="evenodd" d="M12.3888 7.24275C12.5308 7.47954 12.454 7.78667 12.2173 7.92875L9.96001 9.2831V18.5C9.96001 18.7761 9.73615 19 9.46001 19C9.18387 19 8.96001 18.7761 8.96001 18.5V11.7831L6.70276 10.4287C6.46597 10.2867 6.38919 9.97954 6.53126 9.74275C6.67334 9.50596 6.98047 9.42918 7.21726 9.57125L8.96001 10.6169V5.5C8.96001 5.22386 9.18387 5 9.46001 5C9.73615 5 9.96001 5.22386 9.96001 5.5V8.1169L11.7028 7.07125C11.9395 6.92918 12.2467 7.00596 12.3888 7.24275Z" fill="black"/></g></mask></defs><circle r="13" cx="13" cy="13" mask="url(#mask-pencil-tree-circle-filled)" fill="currentColor"/></svg>