<svg width="20" height="20" viewBox="0 0 20 20" fill="none" xmlns="http://www.w3.org/2000/svg"><path fill-rule="evenodd" clip-rule="evenodd" d="M10.8662 15.4986C10.4814 16.1657 9.51864 16.1657 9.13381 15.4986L3.36522 5.49973C2.98061 4.83307 3.46175 4.00001 4.23141 4.00001H15.7686C16.5382 4.00001 17.0194 4.83307 16.6348 5.49973L10.8662 15.4986Z" fill="currentColor"/><path fill-rule="evenodd" clip-rule="evenodd" d="M3.36522 5.49973C2.98061 4.83307 3.46175 4.00001 4.23141 4.00001H15.7686C16.5382 4.00001 17.0194 4.83307 16.6348 5.49973L10.8662 15.4986C10.4814 16.1657 9.51864 16.1657 9.13381 15.4986L3.36522 5.49973ZM10 10.9967L12.3058 7.00001H7.69423L10 10.9967Z" fill="currentColor"/><path d="M1.15063 1.87794C0.94979 1.6771 0.94979 1.35147 1.15063 1.15063C1.35147 0.949789 1.6771 0.949789 1.87794 1.15063L18.8494 18.1221C19.0502 18.3229 19.0502 18.6485 18.8494 18.8494C18.6485 19.0502 18.3229 19.0502 18.1221 18.8494L1.15063 1.87794Z" fill="currentColor"/></svg>