<svg width="20" height="20" viewBox="0 0 26 26" fill="none" xmlns="http://www.w3.org/2000/svg"><defs><mask id="mask-pencil-triangle-down-circle-filled"><rect width="26" height="26" fill="white"/><g transform="translate(3, 3)"><path fill-rule="evenodd" clip-rule="evenodd" d="M10 16C9.82437 16 9.66161 15.9079 9.57125 15.7572L3.57125 5.75725C3.47857 5.60278 3.47615 5.41041 3.5649 5.25365C3.65365 5.0969 3.81986 5 4 5L16 5C16.1801 5 16.3463 5.0969 16.4351 5.25365C16.5239 5.41041 16.5214 5.60278 16.4287 5.75725L10.4287 15.7572C10.3384 15.9079 10.1756 16 10 16ZM15.1169 6L4.88309 6L10 14.5282L15.1169 6Z" fill="black"/></g></mask></defs><circle r="13" cx="13" cy="13" mask="url(#mask-pencil-triangle-down-circle-filled)" fill="currentColor"/></svg>