<svg width="20" height="20" viewBox="0 0 26 26" fill="none" xmlns="http://www.w3.org/2000/svg"><g transform="translate(3, 3)"><path fill-rule="evenodd" clip-rule="evenodd" d="M4.50138 10.8662C3.83434 10.4814 3.83434 9.51864 4.50138 9.13381L14.5003 3.36522C15.1669 2.98061 16 3.46175 16 4.23141V15.7686C16 16.5382 15.1669 17.0194 14.5003 16.6348L4.50138 10.8662Z" fill="currentColor"/><path fill-rule="evenodd" clip-rule="evenodd" d="M14.5003 3.36522C15.1669 2.98061 16 3.46175 16 4.23141V15.7686C16 16.5382 15.1669 17.0194 14.5003 16.6348L4.50138 10.8662C3.83434 10.4814 3.83434 9.51864 4.50138 9.13381L14.5003 3.36522ZM9.00332 10L13 12.3058V7.69423L9.00332 10Z" fill="currentColor"/></g><path fill-rule="evenodd" clip-rule="evenodd" d="M13 24.5C19.3513 24.5 24.5 19.3513 24.5 13C24.5 6.64873 19.3513 1.5 13 1.5C6.64873 1.5 1.5 6.64873 1.5 13C1.5 19.3513 6.64873 24.5 13 24.5ZM13 25.5C19.9036 25.5 25.5 19.9036 25.5 13C25.5 6.09644 19.9036 0.5 13 0.5C6.09644 0.5 0.5 6.09644 0.5 13C0.5 19.9036 6.09644 25.5 13 25.5Z" fill="currentColor"/></svg>