<svg width="20" height="20" viewBox="0 0 20 20" fill="none" xmlns="http://www.w3.org/2000/svg"><path fill-rule="evenodd" clip-rule="evenodd" d="M9.13381 4.50138C9.51864 3.83434 10.4814 3.83434 10.8662 4.50138L16.6348 14.5003C17.0194 15.1669 16.5382 16 15.7686 16H4.23141C3.46175 16 2.98061 15.1669 3.36522 14.5003L9.13381 4.50138Z" fill="currentColor"/><path fill-rule="evenodd" clip-rule="evenodd" d="M16.6348 14.5003C17.0194 15.1669 16.5382 16 15.7686 16H4.23141C3.46175 16 2.98061 15.1669 3.36522 14.5003L9.13381 4.50138C9.51864 3.83434 10.4814 3.83434 10.8662 4.50138L16.6348 14.5003ZM10 9.00332L7.69423 13H12.3058L10 9.00332Z" fill="currentColor"/><path d="M1.15063 1.87794C0.94979 1.6771 0.94979 1.35147 1.15063 1.15063C1.35147 0.949789 1.6771 0.949789 1.87794 1.15063L18.8494 18.1221C19.0502 18.3229 19.0502 18.6485 18.8494 18.8494C18.6485 19.0502 18.3229 19.0502 18.1221 18.8494L1.15063 1.87794Z" fill="currentColor"/></svg>