<svg width="20" height="20" viewBox="0 0 26 26" fill="none" xmlns="http://www.w3.org/2000/svg"><g transform="translate(3, 3)"><path fill-rule="evenodd" clip-rule="evenodd" d="M15.4986 9.13381C16.1657 9.51864 16.1657 10.4814 15.4986 10.8662L5.49973 16.6348C4.83307 17.0194 4.00001 16.5382 4.00001 15.7686L4.00001 4.23141C4.00001 3.46175 4.83307 2.98061 5.49973 3.36522L15.4986 9.13381Z" fill="currentColor"/><path fill-rule="evenodd" clip-rule="evenodd" d="M5.49973 16.6348C4.83307 17.0194 4.00001 16.5382 4.00001 15.7686L4.00001 4.23141C4.00001 3.46175 4.83307 2.98061 5.49973 3.36522L15.4986 9.13381C16.1657 9.51864 16.1657 10.4814 15.4986 10.8662L5.49973 16.6348ZM10.9967 10L7.00001 7.69423L7.00001 12.3058L10.9967 10Z" fill="currentColor"/></g><path fill-rule="evenodd" clip-rule="evenodd" d="M13 24.5C19.3513 24.5 24.5 19.3513 24.5 13C24.5 6.64873 19.3513 1.5 13 1.5C6.64873 1.5 1.5 6.64873 1.5 13C1.5 19.3513 6.64873 24.5 13 24.5ZM13 25.5C19.9036 25.5 25.5 19.9036 25.5 13C25.5 6.09644 19.9036 0.5 13 0.5C6.09644 0.5 0.5 6.09644 0.5 13C0.5 19.9036 6.09644 25.5 13 25.5Z" fill="currentColor"/></svg>