<svg width="20" height="20" viewBox="0 0 26 26" fill="none" xmlns="http://www.w3.org/2000/svg"><g transform="translate(3, 3)"><path fill-rule="evenodd" clip-rule="evenodd" d="M9.13381 4.50138C9.51864 3.83434 10.4814 3.83434 10.8662 4.50138L16.6348 14.5003C17.0194 15.1669 16.5382 16 15.7686 16H4.23141C3.46175 16 2.98061 15.1669 3.36522 14.5003L9.13381 4.50138Z" fill="currentColor"/><path fill-rule="evenodd" clip-rule="evenodd" d="M16.6348 14.5003C17.0194 15.1669 16.5382 16 15.7686 16H4.23141C3.46175 16 2.98061 15.1669 3.36522 14.5003L9.13381 4.50138C9.51864 3.83434 10.4814 3.83434 10.8662 4.50138L16.6348 14.5003ZM10 9.00332L7.69423 13H12.3058L10 9.00332Z" fill="currentColor"/></g><path fill-rule="evenodd" clip-rule="evenodd" d="M13 24.5C19.3513 24.5 24.5 19.3513 24.5 13C24.5 6.64873 19.3513 1.5 13 1.5C6.64873 1.5 1.5 6.64873 1.5 13C1.5 19.3513 6.64873 24.5 13 24.5ZM13 25.5C19.9036 25.5 25.5 19.9036 25.5 13C25.5 6.09644 19.9036 0.5 13 0.5C6.09644 0.5 0.5 6.09644 0.5 13C0.5 19.9036 6.09644 25.5 13 25.5Z" fill="currentColor"/></svg>