<svg width="20" height="20" viewBox="0 0 26 26" fill="none" xmlns="http://www.w3.org/2000/svg"><g transform="translate(3, 3)"><path fill-rule="evenodd" clip-rule="evenodd" d="M10.8662 15.4986C10.4814 16.1657 9.51864 16.1657 9.13381 15.4986L3.36522 5.49973C2.98061 4.83307 3.46175 4.00001 4.23141 4.00001H15.7686C16.5382 4.00001 17.0194 4.83307 16.6348 5.49973L10.8662 15.4986Z" fill="currentColor"/><path fill-rule="evenodd" clip-rule="evenodd" d="M3.36522 5.49973C2.98061 4.83307 3.46175 4.00001 4.23141 4.00001H15.7686C16.5382 4.00001 17.0194 4.83307 16.6348 5.49973L10.8662 15.4986C10.4814 16.1657 9.51864 16.1657 9.13381 15.4986L3.36522 5.49973ZM10 10.9967L12.3058 7.00001H7.69423L10 10.9967Z" fill="currentColor"/></g><path fill-rule="evenodd" clip-rule="evenodd" d="M13 24.5C19.3513 24.5 24.5 19.3513 24.5 13C24.5 6.64873 19.3513 1.5 13 1.5C6.64873 1.5 1.5 6.64873 1.5 13C1.5 19.3513 6.64873 24.5 13 24.5ZM13 25.5C19.9036 25.5 25.5 19.9036 25.5 13C25.5 6.09644 19.9036 0.5 13 0.5C6.09644 0.5 0.5 6.09644 0.5 13C0.5 19.9036 6.09644 25.5 13 25.5Z" fill="currentColor"/></svg>