<svg width="20" height="20" viewBox="0 0 20 20" fill="none" xmlns="http://www.w3.org/2000/svg"><path fill-rule="evenodd" clip-rule="evenodd" d="M4.50138 10.8662C3.83434 10.4814 3.83434 9.51864 4.50138 9.13381L14.5003 3.36522C15.1669 2.98061 16 3.46175 16 4.23141V15.7686C16 16.5382 15.1669 17.0194 14.5003 16.6348L4.50138 10.8662Z" fill="currentColor"/><path fill-rule="evenodd" clip-rule="evenodd" d="M14.5003 3.36522C15.1669 2.98061 16 3.46175 16 4.23141V15.7686C16 16.5382 15.1669 17.0194 14.5003 16.6348L4.50138 10.8662C3.83434 10.4814 3.83434 9.51864 4.50138 9.13381L14.5003 3.36522ZM9.00332 10L13 12.3058V7.69423L9.00332 10Z" fill="currentColor"/><path d="M1.15063 1.87794C0.94979 1.6771 0.94979 1.35147 1.15063 1.15063C1.35147 0.949789 1.6771 0.949789 1.87794 1.15063L18.8494 18.1221C19.0502 18.3229 19.0502 18.6485 18.8494 18.8494C18.6485 19.0502 18.3229 19.0502 18.1221 18.8494L1.15063 1.87794Z" fill="currentColor"/></svg>