<svg width="20" height="20" viewBox="0 0 20 20" fill="none" xmlns="http://www.w3.org/2000/svg"><path fill-rule="evenodd" clip-rule="evenodd" d="M5.5 16.5C5.5 17.6046 6.39543 18.5 7.5 18.5C8.60457 18.5 9.5 17.6046 9.5 16.5C9.5 15.3954 8.60457 14.5 7.5 14.5C6.39543 14.5 5.5 15.3954 5.5 16.5ZM8.5 16.5C8.5 17.0523 8.05228 17.5 7.5 17.5C6.94772 17.5 6.5 17.0523 6.5 16.5C6.5 15.9477 6.94772 15.5 7.5 15.5C8.05228 15.5 8.5 15.9477 8.5 16.5Z" fill="currentColor"/><path fill-rule="evenodd" clip-rule="evenodd" d="M14.5 16.5C14.5 17.6046 15.3954 18.5 16.5 18.5C17.6046 18.5 18.5 17.6046 18.5 16.5C18.5 15.3954 17.6046 14.5 16.5 14.5C15.3954 14.5 14.5 15.3954 14.5 16.5ZM17.5 16.5C17.5 17.0523 17.0523 17.5 16.5 17.5C15.9477 17.5 15.5 17.0523 15.5 16.5C15.5 15.9477 15.9477 15.5 16.5 15.5C17.0523 15.5 17.5 15.9477 17.5 16.5Z" fill="currentColor"/><path fill-rule="evenodd" clip-rule="evenodd" d="M17 4.5H9C7.89543 4.5 7 5.39543 7 6.5V13.5C7 14.6046 7.89543 15.5 9 15.5H17C18.1046 15.5 19 14.6046 19 13.5V6.5C19 5.39543 18.1046 4.5 17 4.5ZM8 6.5C8 5.94772 8.44772 5.5 9 5.5H17C17.5523 5.5 18 5.94772 18 6.5V13.5C18 14.0523 17.5523 14.5 17 14.5H9C8.44772 14.5 8 14.0523 8 13.5V6.5Z" fill="currentColor"/><path d="M10.25 8.5C9.97386 8.5 9.75 8.27614 9.75 8C9.75 7.72386 9.97386 7.5 10.25 7.5H15.75C16.0261 7.5 16.25 7.72386 16.25 8C16.25 8.27614 16.0261 8.5 15.75 8.5H10.25Z" fill="currentColor"/><path d="M10.25 10.5C9.97386 10.5 9.75 10.2761 9.75 10C9.75 9.72386 9.97386 9.5 10.25 9.5H15.75C16.0261 9.5 16.25 9.72386 16.25 10C16.25 10.2761 16.0261 10.5 15.75 10.5H10.25Z" fill="currentColor"/><path d="M10.25 12.5C9.97386 12.5 9.75 12.2761 9.75 12C9.75 11.7239 9.97386 11.5 10.25 11.5H15.75C16.0261 11.5 16.25 11.7239 16.25 12C16.25 12.2761 16.0261 12.5 15.75 12.5H10.25Z" fill="currentColor"/><path fill-rule="evenodd" clip-rule="evenodd" d="M6 7.5H2.71016C1.83274 7.5 1.05777 8.0719 0.79907 8.91032L0 11.5V13.5C0 14.6046 0.89543 15.5 2 15.5H6C7.10457 15.5 8 14.6046 8 13.5V9.5C8 8.39543 7.10457 7.5 6 7.5ZM1 13.5V11.6508L1.75462 9.20516C1.88397 8.78595 2.27145 8.5 2.71016 8.5H6C6.55228 8.5 7 8.94772 7 9.5V13.5C7 14.0523 6.55228 14.5 6 14.5H2C1.44772 14.5 1 14.0523 1 13.5Z" fill="currentColor"/><path fill-rule="evenodd" clip-rule="evenodd" d="M4.5 9.59998H2.79046C2.56147 9.59998 2.36175 9.75553 2.30568 9.97754L2.01522 11.1276L2 11.25V12.1C2 12.3761 2.22386 12.6 2.5 12.6H4.5C4.77614 12.6 5 12.3761 5 12.1V10.1C5 9.82383 4.77614 9.59998 4.5 9.59998ZM3 11.6V11.3122L3.17988 10.6H4V11.6H3Z" fill="currentColor"/></svg>