<svg width="20" height="20" viewBox="0 0 20 20" fill="none" xmlns="http://www.w3.org/2000/svg"><path d="M13.3481 11.641C13.5463 11.8333 13.5512 12.1498 13.359 12.3481C13.1667 12.5463 12.8502 12.5512 12.6519 12.359C12.6098 12.3181 12.5643 12.278 12.5155 12.2388C12.3132 12.0762 12.0583 11.9317 11.7634 11.8148C11.2508 11.6116 10.6411 11.5 10 11.5C8.97837 11.5 8.04893 11.7851 7.4845 12.2388C7.43571 12.278 7.39018 12.3181 7.34807 12.359C7.14982 12.5512 6.83327 12.5463 6.64104 12.3481C6.44881 12.1498 6.45369 11.8333 6.65194 11.641C6.71658 11.5784 6.78533 11.5178 6.85798 11.4594C7.61245 10.8529 8.76304 10.5 10 10.5C10.7648 10.5 11.4996 10.6344 12.132 10.8852C12.5165 11.0377 12.8584 11.2314 13.142 11.4594C13.2147 11.5178 13.2834 11.5784 13.3481 11.641Z" fill="currentColor"/><path d="M15.8564 9.03935C16.0501 9.2362 16.0475 9.55277 15.8507 9.74644C15.6538 9.9401 15.3372 9.93752 15.1436 9.74068C15.0352 9.63049 14.9185 9.52361 14.794 9.42049C14.6687 9.31677 14.5357 9.21697 14.3955 9.12153C14.2545 9.02564 14.1065 8.93426 13.9518 8.84781C13.7966 8.76102 13.6349 8.6793 13.4674 8.60299C13.2994 8.52647 13.1257 8.45549 12.947 8.39036C12.768 8.3251 12.584 8.26579 12.3958 8.21269C12.2076 8.15957 12.0153 8.11272 11.8195 8.07237C11.6241 8.03208 11.4254 7.9983 11.224 7.9712C11.0235 7.9442 10.8204 7.92385 10.6154 7.91028C10.4119 7.8968 10.2066 7.89001 10 7.89001C9.79341 7.89001 9.58811 7.8968 9.38457 7.91028C9.17957 7.92385 8.97652 7.9442 8.77596 7.9712C8.57461 7.9983 8.37593 8.03208 8.18051 8.07237C7.98474 8.11272 7.79242 8.15957 7.60416 8.21269C7.41597 8.26579 7.23203 8.3251 7.05296 8.39036C6.87425 8.45549 6.70059 8.52647 6.5326 8.60299C6.3651 8.6793 6.20342 8.76102 6.04818 8.84781C5.89354 8.93426 5.74546 9.02564 5.60453 9.12153C5.46427 9.21697 5.33126 9.31677 5.20602 9.42049C5.08151 9.52361 4.96483 9.63049 4.85642 9.74068C4.66276 9.93752 4.34618 9.9401 4.14934 9.74644C3.95249 9.55277 3.94991 9.2362 4.14358 9.03935C4.27605 8.90471 4.41777 8.77489 4.56817 8.65033C4.71784 8.52638 4.87598 8.40772 5.04197 8.29478C5.20728 8.18229 5.38025 8.07555 5.56021 7.97494C5.73958 7.87467 5.92575 7.78056 6.11806 7.69296C6.30984 7.60561 6.50756 7.52479 6.71054 7.45081C6.91304 7.37701 7.12062 7.31008 7.3326 7.25026C7.54395 7.19063 7.7595 7.13813 7.97862 7.09296C8.19677 7.04799 8.41829 7.01033 8.64256 6.98014C8.8655 6.95013 9.09101 6.92753 9.3185 6.91246C9.54404 6.89753 9.77138 6.89001 10 6.89001C10.2286 6.89001 10.456 6.89753 10.6815 6.91246C10.909 6.92753 11.1345 6.95013 11.3574 6.98014C11.5817 7.01033 11.8032 7.04799 12.0214 7.09296C12.2405 7.13813 12.4561 7.19063 12.6674 7.25026C12.8794 7.31008 13.087 7.37701 13.2895 7.45081C13.4924 7.52479 13.6902 7.60561 13.8819 7.69296C14.0742 7.78056 14.2604 7.87467 14.4398 7.97494C14.6198 8.07555 14.7927 8.18229 14.958 8.29478C15.124 8.40772 15.2822 8.52638 15.4318 8.65033C15.5822 8.77489 15.724 8.90471 15.8564 9.03935Z" fill="currentColor"/><path d="M17.8727 6.55534C18.0568 6.76117 18.0392 7.07726 17.8333 7.26135C17.6275 7.44544 17.3114 7.42782 17.1273 7.22199C16.9745 7.05117 16.8104 6.88575 16.6354 6.72638C16.4599 6.56651 16.2738 6.4129 16.0778 6.26617C15.8812 6.11905 15.6749 5.979 15.4596 5.84662C15.2439 5.71395 15.0194 5.58911 14.7869 5.47264C14.5541 5.35597 14.3135 5.24781 14.0661 5.14862C13.8184 5.04932 13.5641 4.95911 13.304 4.87839C13.044 4.79769 12.7784 4.72654 12.5082 4.66526C12.2386 4.60413 11.9646 4.55287 11.6869 4.51176C11.4104 4.47082 11.1305 4.43996 10.848 4.41938C10.5675 4.39895 10.2846 4.38867 10 4.38867C9.71539 4.38867 9.43252 4.39895 9.15205 4.41938C8.86952 4.43996 8.58964 4.47082 8.31314 4.51176C8.03545 4.55287 7.76142 4.60413 7.4918 4.66526C7.22157 4.72654 6.95603 4.79769 6.69601 4.87839C6.43591 4.95911 6.18159 5.04932 5.9339 5.14862C5.68648 5.24781 5.44592 5.35597 5.21308 5.47264C4.98063 5.58911 4.75611 5.71395 4.54037 5.84662C4.32509 5.979 4.11878 6.11905 3.92223 6.26617C3.72619 6.4129 3.54007 6.56651 3.36459 6.72638C3.18965 6.88575 3.02547 7.05117 2.87269 7.22199C2.6886 7.42782 2.3725 7.44544 2.16668 7.26135C1.96085 7.07726 1.94323 6.76117 2.12732 6.55534C2.30301 6.35891 2.4912 6.1693 2.69113 5.98715C2.89053 5.80549 3.10143 5.63143 3.323 5.46559C3.54406 5.30013 3.77553 5.14301 4.01654 4.9948C4.25708 4.84688 4.5069 4.70797 4.7651 4.57859C5.02285 4.44944 5.28873 4.3299 5.56179 4.22043C5.83442 4.11113 6.11399 4.01197 6.39958 3.92333C6.68448 3.83491 6.97514 3.75703 7.27066 3.69002C7.56501 3.62327 7.86396 3.56736 8.16667 3.52254C8.46768 3.47797 8.77219 3.4444 9.07941 3.42202C9.38405 3.39983 9.69115 3.38867 10 3.38867C10.3089 3.38867 10.616 3.39983 10.9206 3.42202C11.2278 3.4444 11.5323 3.47797 11.8333 3.52254C12.1361 3.56736 12.435 3.62327 12.7293 3.69002C13.0249 3.75703 13.3155 3.83491 13.6004 3.92333C13.886 4.01197 14.1656 4.11113 14.4382 4.22043C14.7113 4.3299 14.9772 4.44944 15.2349 4.57859C15.4931 4.70797 15.7429 4.84688 15.9835 4.9948C16.2245 5.14301 16.456 5.30013 16.677 5.46559C16.8986 5.63143 17.1095 5.80549 17.3089 5.98715C17.5088 6.1693 17.697 6.35891 17.8727 6.55534Z" fill="currentColor"/><path d="M11.75 15.25C11.75 16.2165 10.9665 17 10 17C9.0335 17 8.25 16.2165 8.25 15.25C8.25 14.2835 9.0335 13.5 10 13.5C10.9665 13.5 11.75 14.2835 11.75 15.25Z" fill="currentColor"/><path d="M1.15063 1.87794C0.94979 1.6771 0.94979 1.35147 1.15063 1.15063C1.35147 0.949789 1.6771 0.949789 1.87794 1.15063L18.8494 18.1221C19.0502 18.3229 19.0502 18.6485 18.8494 18.8494C18.6485 19.0502 18.3229 19.0502 18.1221 18.8494L1.15063 1.87794Z" fill="currentColor"/></svg>