<svg width="20" height="20" viewBox="0 0 26 26" fill="none" xmlns="http://www.w3.org/2000/svg"><g transform="translate(3, 3)"><path fill-rule="evenodd" clip-rule="evenodd" d="M9.33593 8.87037C9.13139 9.0559 8.81519 9.04049 8.62966 8.83595L3.62966 3.3237C3.44413 3.11917 3.45954 2.80296 3.66408 2.61744C3.86861 2.43191 4.18482 2.44732 4.37034 2.65185L9.37034 8.1641C9.55587 8.36864 9.54046 8.68484 9.33593 8.87037Z" fill="currentColor"/><path fill-rule="evenodd" clip-rule="evenodd" d="M8.66407 8.87037C8.86861 9.0559 9.18482 9.04049 9.37034 8.83595L14.3703 3.32371C14.5559 3.11917 14.5405 2.80296 14.3359 2.61744C14.1314 2.43191 13.8152 2.44732 13.6297 2.65185L8.62966 8.1641C8.44413 8.36864 8.45954 8.68484 8.66407 8.87037Z" fill="currentColor"/><path fill-rule="evenodd" clip-rule="evenodd" d="M3.5 8.98779C3.5 8.71165 3.72386 8.48779 4 8.48779H14C14.2761 8.48779 14.5 8.71165 14.5 8.98779C14.5 9.26394 14.2761 9.48779 14 9.48779H4C3.72386 9.48779 3.5 9.26394 3.5 8.98779Z" fill="currentColor"/><path fill-rule="evenodd" clip-rule="evenodd" d="M3.5 12.4878C3.5 12.2117 3.72386 11.9878 4 11.9878H14C14.2761 11.9878 14.5 12.2117 14.5 12.4878C14.5 12.7639 14.2761 12.9878 14 12.9878H4C3.72386 12.9878 3.5 12.7639 3.5 12.4878Z" fill="currentColor"/><path fill-rule="evenodd" clip-rule="evenodd" d="M9 8C9.27614 8 9.5 8.22386 9.5 8.5V16.9878C9.5 17.2639 9.27614 17.4878 9 17.4878C8.72386 17.4878 8.5 17.2639 8.5 16.9878V8.5C8.5 8.22386 8.72386 8 9 8Z" fill="currentColor"/></g><path fill-rule="evenodd" clip-rule="evenodd" d="M13 24.5C19.3513 24.5 24.5 19.3513 24.5 13C24.5 6.64873 19.3513 1.5 13 1.5C6.64873 1.5 1.5 6.64873 1.5 13C1.5 19.3513 6.64873 24.5 13 24.5ZM13 25.5C19.9036 25.5 25.5 19.9036 25.5 13C25.5 6.09644 19.9036 0.5 13 0.5C6.09644 0.5 0.5 6.09644 0.5 13C0.5 19.9036 6.09644 25.5 13 25.5Z" fill="currentColor"/></svg>