<svg width="20" height="20" viewBox="0 0 20 20" fill="none" xmlns="http://www.w3.org/2000/svg"><path fill-rule="evenodd" clip-rule="evenodd" d="M3.83241 2.58392C4.06217 2.43074 4.3726 2.49283 4.52578 2.72259L9.52578 10.2226C9.67896 10.4524 9.61687 10.7628 9.38711 10.916C9.15734 11.0691 8.84691 11.0071 8.69373 10.7773L3.69373 3.27729C3.54055 3.04753 3.60264 2.73709 3.83241 2.58392Z" fill="currentColor"/><path fill-rule="evenodd" clip-rule="evenodd" d="M14.3871 2.58392C14.1573 2.43074 13.8469 2.49283 13.6937 2.72259L8.69373 10.2226C8.54055 10.4524 8.60264 10.7628 8.8324 10.916C9.06217 11.0691 9.3726 11.0071 9.52578 10.7773L14.5258 3.27729C14.679 3.04753 14.6169 2.73709 14.3871 2.58392Z" fill="currentColor"/><path fill-rule="evenodd" clip-rule="evenodd" d="M4.10976 11C4.10976 10.7239 4.33361 10.5 4.60976 10.5H13.6098C13.8859 10.5 14.1098 10.7239 14.1098 11C14.1098 11.2761 13.8859 11.5 13.6098 11.5H4.60976C4.33361 11.5 4.10976 11.2761 4.10976 11Z" fill="currentColor"/><path fill-rule="evenodd" clip-rule="evenodd" d="M9.10976 10C9.3859 10 9.60976 10.2239 9.60976 10.5V17C9.60976 17.2761 9.3859 17.5 9.10976 17.5C8.83361 17.5 8.60976 17.2761 8.60976 17V10.5C8.60976 10.2239 8.83361 10 9.10976 10Z" fill="currentColor"/></svg>