<svg xmlns="http://www.w3.org/2000/svg" width="20" height="20" viewBox="0 0 20 20"><g fill="none" fill-rule="evenodd" stroke-linecap="round" stroke-linejoin="round"><path stroke="#AB92F0" stroke-width="2" d="M10 10c3.401 0 5-2.557 5-5.712a6.39 6.39 0 0 0-.38-2.186c-.253-.698-2.202 2.444-2.662 1.918-.461-.526-1.28-1.918-1.958-1.918-.678 0-1.395 1.392-1.856 1.918-.46.526-2.511-2.616-2.765-1.918A6.405 6.405 0 0 0 5 4.288C5 7.443 6.599 10 10 10zm0 1v6.5m.095.448c.71.846 3.385.157 4.886-1.103 1.501-1.26 2.143-2.967 1.433-3.813-.71-.846-2.503-.51-4.004.749-1.501 1.26-3.025 3.32-2.315 4.167z"/><path stroke="#AB92F0" stroke-width="2" d="M9.604 17.948c-.71.846-3.384.157-4.886-1.103-1.5-1.26-2.142-2.967-1.432-3.813.71-.846 2.502-.51 4.004.749 1.5 1.26 3.024 3.32 2.314 4.167z"/></g></svg>