<svg xmlns="http://www.w3.org/2000/svg" style="" width="20" height="20" viewBox="0 0 20 20"><g fill="none" fill-rule="evenodd"><rect width="18" height="14" x="2" y="5.5" fill="currentColor" opacity=".8" rx="2"/><path fill="#000" d="M3 3h14a2 2 0 0 1 2 2v10a2 2 0 0 1-2 2H3a2 2 0 0 1-2-2V5a2 2 0 0 1 2-2zm13.5 1.5h-1a.5.5 0 0 0-.5.5v1a.5.5 0 0 0 .5.5h1A.5.5 0 0 0 17 6V5a.5.5 0 0 0-.5-.5zm0 3h-1a.5.5 0 0 0-.5.5v1a.5.5 0 0 0 .5.5h1A.5.5 0 0 0 17 9V8a.5.5 0 0 0-.5-.5zm0 3h-1a.5.5 0 0 0-.5.5v1a.5.5 0 0 0 .5.5h1a.5.5 0 0 0 .5-.5v-1a.5.5 0 0 0-.5-.5zm0 3h-1a.5.5 0 0 0-.5.5v1a.5.5 0 0 0 .5.5h1a.5.5 0 0 0 .5-.5v-1a.5.5 0 0 0-.5-.5zm-12-9h-1A.5.5 0 0 0 3 5v1a.5.5 0 0 0 .5.5h1A.5.5 0 0 0 5 6V5a.5.5 0 0 0-.5-.5zm0 3h-1A.5.5 0 0 0 3 8v1a.5.5 0 0 0 .5.5h1A.5.5 0 0 0 5 9V8a.5.5 0 0 0-.5-.5zm0 3h-1a.5.5 0 0 0-.5.5v1a.5.5 0 0 0 .5.5h1A.5.5 0 0 0 5 12v-1a.5.5 0 0 0-.5-.5zm0 3h-1a.5.5 0 0 0-.5.5v1a.5.5 0 0 0 .5.5h1A.5.5 0 0 0 5 15v-1a.5.5 0 0 0-.5-.5zm2-9.5v12h7V4h-7z"/></g></svg>