<svg xmlns="http://www.w3.org/2000/svg" width="20" height="20" viewBox="0 0 20 20">
  <g fill="none" fill-rule="evenodd">
    <path fill="#AB92F0" d="M5,7 L19,7 C19.5522847,7 20,7.44771525 20,8 L20,9.58065106 L20,19 C20,19.5522847 19.5522847,20 19,20 L5,20 C4.44771525,20 4,19.5522847 4,19 L4,8 C4,7.44771525 4.44771525,7 5,7 Z" transform="matrix(-1 0 0 1 24 0)"/>
    <path stroke="#000" d="M3,5.5 C2.72385763,5.5 2.5,5.72385763 2.5,6 L2.5,17 C2.5,17.2761424 2.72385763,17.5 3,17.5 L17,17.5 C17.2761424,17.5 17.5,17.2761424 17.5,17 L17.5,6 C17.5,5.72385763 17.2761424,5.5 17,5.5 L3,5.5 Z" transform="matrix(-1 0 0 1 20 0)"/>
    <path fill="#000" d="M9.5 5.5H10.5V17.5H9.5z"/>
    <path fill="#000" d="M2 10.5H18V11.5H2z"/>
    <path stroke="#000" stroke-linecap="round" stroke-linejoin="round" d="M8.10945564,5.77221194 C8.93788276,5.77221194 9.37086249,4.15998647 9.37086249,2.95465593 C9.37086249,1.7493254 8.69928962,0.772211943 7.87086249,0.772211943 C7.04243537,0.772211943 6.37086249,1.7493254 6.37086249,2.95465593 C6.37086249,4.15998647 7.28102851,5.77221194 8.10945564,5.77221194 Z" transform="scale(-1 1) rotate(49 0 -13.999)"/>
    <path stroke="#000" stroke-linecap="round" stroke-linejoin="round" d="M12.6094556,5.77221194 C13.4378828,5.77221194 13.8708625,4.15998647 13.8708625,2.95465593 C13.8708625,1.7493254 13.1992896,0.772211943 12.3708625,0.772211943 C11.5424354,0.772211943 10.8708625,1.7493254 10.8708625,2.95465593 C10.8708625,4.15998647 11.7810285,5.77221194 12.6094556,5.77221194 Z" transform="rotate(49 12.37 3.272)"/>
  </g>
</svg>
