<svg xmlns="http://www.w3.org/2000/svg" width="20" height="20" viewBox="0 0 20 20">
  <g fill="none" fill-rule="evenodd">
    <circle cx="11.5" cy="6" r="3.5" fill="#AB92F0"/>
    <path fill="#AB92F0" d="M18,16.6875 C18,13.0976491 15.0898509,10.5 11.5,10.5 C7.91014913,10.5 5,13.0976491 5,16.6875 L5.00221574,18.4999997 C5.00265054,19.0519767 5.45023827,19.499212 6.00221543,19.499212 L17,19.5 C17.5522847,19.5 18,19.0522847 18,18.5 L18,16.6875 Z"/>
    <path stroke="#000" stroke-linecap="round" d="M10,9 C11.6568542,9 13,7.65685425 13,6 C13,4.34314575 11.6568542,3 10,3 C8.34314575,3 7,4.34314575 7,6 C7,7.65685425 8.34314575,9 10,9 Z M16,18 L16,15.5 C16,12.4023863 13.294947,10 10.0161741,10 C6.73740112,10 4,12.4023863 4,15.5 L4.00204501,18"/>
  </g>
</svg>
