<svg xmlns="http://www.w3.org/2000/svg" width="20" height="20" viewBox="0 0 20 20">
  <g fill="none" fill-rule="evenodd">
    <path fill="#AB92F0" d="M6,6 L18,6 C19.1045695,6 20,6.8954305 20,8 L20,14.1024483 C20,15.2070178 19.1045695,16.1024483 18,16.1024483 L10.4507753,16.1024483 C9.05903165,17.3674828 8.14340078,18 7.70388266,18 C7.26436454,18 6.91224586,17.3674828 6.64752663,16.1024483 L6,16.1024483 C4.8954305,16.1024483 4,15.2070178 4,14.1024483 L4,8 C4,6.8954305 4.8954305,6 6,6 Z"/>
    <path stroke="#000" stroke-linecap="round" d="M4,4 L16,4 C17.1045695,4 18,4.8954305 18,6 L18,12.1024483 C18,13.2070178 17.1045695,14.1024483 16,14.1024483 L8.45077525,14.1024483 C7.05903165,15.3674828 6.14340078,16 5.70388266,16 C5.26436454,16 4.91224586,15.3674828 4.64752663,14.1024483 L4,14.1024483 C2.8954305,14.1024483 2,13.2070178 2,12.1024483 L2,6 C2,4.8954305 2.8954305,4 4,4 Z"/>
    <circle cx="7" cy="9" r="1" fill="#000"/>
    <circle cx="10" cy="9" r="1" fill="#000"/>
    <circle cx="13" cy="9" r="1" fill="#000"/>
  </g>
</svg>
