<svg width="20" height="20" viewBox="0 0 20 20" fill="none" xmlns="http://www.w3.org/2000/svg">
<path fill-rule="evenodd" clip-rule="evenodd" d="M1.00012 7.80225C1.00012 6.14539 2.34327 4.80225 4.00012 4.80225H16.0001C17.657 4.80225 19.0001 6.14539 19.0001 7.80225V12.8022C19.0001 14.4591 17.657 15.8022 16.0001 15.8022H4.00012C2.34327 15.8022 1.00012 14.4591 1.00012 12.8022V7.80225ZM4.00012 6.80225C3.44784 6.80225 3.00012 7.24996 3.00012 7.80225V12.8022C3.00012 13.3545 3.44784 13.8022 4.00012 13.8022H16.0001C16.5524 13.8022 17.0001 13.3545 17.0001 12.8022V7.80225C17.0001 7.24996 16.5524 6.80225 16.0001 6.80225H4.00012Z" fill="#AB92F0"/>
<path fill-rule="evenodd" clip-rule="evenodd" d="M9.99687 12.3022C11.101 12.3022 11.9961 11.4068 11.9961 10.3022C11.9961 9.19768 11.101 8.30225 9.99687 8.30225C8.89275 8.30225 7.99768 9.19768 7.99768 10.3022C7.99768 11.4068 8.89275 12.3022 9.99687 12.3022Z" fill="#AB92F0"/>
<path fill-rule="evenodd" clip-rule="evenodd" d="M18.7992 11.651C18.5518 12.1449 17.9511 12.3447 17.4574 12.0973L17.9054 11.203C17.4574 12.0973 17.4575 12.0973 17.4574 12.0973L17.4546 12.0958L17.4488 12.0929L17.4289 12.0828C17.412 12.0742 17.3879 12.0618 17.3573 12.046C17.2962 12.0143 17.2092 11.9686 17.1021 11.9109C16.8886 11.7957 16.5931 11.6314 16.2643 11.4339C15.6269 11.0511 14.7881 10.4994 14.199 9.91011C13.6099 9.32077 13.1323 8.5828 12.8135 8.02717C12.6505 7.74297 12.521 7.4925 12.4318 7.31183C12.3871 7.22128 12.3522 7.14767 12.3279 7.09545C12.3157 7.06932 12.3062 7.0485 12.2994 7.03353L12.2913 7.01551L12.2888 7.00992L12.2875 7.00694C12.2874 7.0068 12.2873 7.00666 13.1911 6.60713L12.2875 7.00694C12.0643 6.50169 12.2928 5.91082 12.7979 5.68754C13.3027 5.46439 13.8926 5.69258 14.116 6.19723L14.1166 6.19851L14.1208 6.20775L14.1407 6.2511C14.1591 6.29052 14.1873 6.35006 14.2245 6.42551C14.2993 6.57683 14.4093 6.78977 14.5478 7.03121C14.8322 7.52685 15.2067 8.08911 15.613 8.49554C16.0193 8.90202 16.6802 9.35041 17.2936 9.71878C17.5902 9.89689 17.858 10.0459 18.0513 10.1501C18.1477 10.2021 18.225 10.2427 18.2774 10.2698L18.3364 10.3002L18.3504 10.3073L18.3533 10.3087C18.3532 10.3087 18.3533 10.3088 18.3533 10.3087M18.7992 11.651C19.0466 11.1572 18.8468 10.5562 18.3533 10.3087L18.7992 11.651Z" fill="#AB92F0"/>
<path fill-rule="evenodd" clip-rule="evenodd" d="M1.19428 8.95346C1.44167 8.45959 2.04241 8.25981 2.53607 8.50724L2.08813 9.40148C2.53607 8.50724 2.53597 8.50719 2.53607 8.50724L2.53893 8.50867L2.54468 8.51157L2.5646 8.52168C2.58152 8.5303 2.60564 8.54266 2.63621 8.5585C2.69732 8.59018 2.78436 8.63587 2.89137 8.69359C3.10495 8.80879 3.40037 8.97314 3.72919 9.1706C4.36662 9.55338 5.20544 10.1051 5.79453 10.6944C6.38366 11.2837 6.86118 12.0217 7.17999 12.5773C7.34306 12.8615 7.47247 13.112 7.56171 13.2927C7.60643 13.3832 7.64136 13.4568 7.66566 13.509C7.67782 13.5352 7.68734 13.556 7.69412 13.571L7.70223 13.589L7.70473 13.5946L7.70605 13.5976C7.70611 13.5977 7.70617 13.5978 6.80237 13.9974L7.70605 13.5976C7.92919 14.1028 7.70075 14.6937 7.19566 14.917C6.69086 15.1401 6.1009 14.9119 5.87747 14.4073L5.8769 14.406L5.87274 14.3967L5.85281 14.3534C5.83446 14.314 5.80624 14.2544 5.76898 14.179C5.69423 14.0277 5.58425 13.8147 5.44572 13.5733C5.16133 13.0776 4.7868 12.5154 4.38052 12.109C3.97417 11.7025 3.3133 11.2541 2.69989 10.8857C2.40329 10.7076 2.1355 10.5586 1.94223 10.4544C1.84582 10.4024 1.76853 10.3618 1.71615 10.3347L1.65716 10.3043L1.64314 10.2972L1.64025 10.2957C1.6403 10.2958 1.6402 10.2957 1.64025 10.2957M1.19428 8.95346C0.94691 9.44729 1.14669 10.0483 1.64025 10.2957L1.19428 8.95346Z" fill="#AB92F0"/>
</svg>
