<svg width="20" height="20" viewBox="0 0 20 20" fill="none" xmlns="http://www.w3.org/2000/svg">
<g clip-path="url(#clip0_2020_921)">
<path fill-rule="evenodd" clip-rule="evenodd" d="M10 17.5C14.1421 17.5 17.5 14.1421 17.5 10C17.5 5.85786 14.1421 2.5 10 2.5C5.85786 2.5 2.5 5.85786 2.5 10C2.5 14.1421 5.85786 17.5 10 17.5ZM10 19.5C15.2467 19.5 19.5 15.2467 19.5 10C19.5 4.75329 15.2467 0.5 10 0.5C4.75329 0.5 0.5 4.75329 0.5 10C0.5 15.2467 4.75329 19.5 10 19.5Z" fill="#AB92F0"/>
<path d="M8.5 7.25C8.5 7.94036 7.94036 8.5 7.25 8.5C6.55964 8.5 6 7.94036 6 7.25C6 6.55964 6.55964 6 7.25 6C7.94036 6 8.5 6.55964 8.5 7.25Z" fill="#AB92F0"/>
<path d="M14 7.25C14 7.94036 13.4404 8.5 12.75 8.5C12.0596 8.5 11.5 7.94036 11.5 7.25C11.5 6.55964 12.0596 6 12.75 6C13.4404 6 14 6.55964 14 7.25Z" fill="#AB92F0"/>
<path fill-rule="evenodd" clip-rule="evenodd" d="M14.4472 12.1055C14.9412 12.3525 15.1414 12.9532 14.8944 13.4472L14 13C14.8944 13.4472 14.8941 13.4477 14.8939 13.4483L14.8933 13.4494L14.8921 13.4518L14.8894 13.4571L14.8827 13.47C14.8777 13.4796 14.8715 13.4911 14.8642 13.5044C14.8496 13.5309 14.8303 13.5648 14.8059 13.6049C14.7573 13.685 14.6884 13.7904 14.5969 13.9125C14.414 14.1562 14.1381 14.4701 13.7497 14.7808C12.9601 15.4125 11.7429 16 9.99997 16C8.25706 16 7.03981 15.4125 6.25028 14.7808C5.86186 14.4701 5.58591 14.1562 5.4031 13.9125C5.31153 13.7904 5.24263 13.685 5.19402 13.6049C5.16968 13.5648 5.15035 13.5309 5.13572 13.5044C5.12841 13.4911 5.12226 13.4796 5.11724 13.47L5.11056 13.4571L5.10785 13.4518L5.10665 13.4494L5.10608 13.4483C5.10581 13.4477 5.10555 13.4472 5.99997 13L5.10555 13.4472C4.85856 12.9532 5.05878 12.3525 5.55276 12.1055C6.04286 11.8605 6.63797 12.0557 6.88851 12.5412C6.89036 12.5445 6.89533 12.5533 6.90359 12.5669C6.92139 12.5962 6.95405 12.6471 7.0031 12.7125C7.10154 12.8437 7.26309 13.0298 7.49967 13.2191C7.96014 13.5875 8.74289 14 9.99997 14C11.2571 14 12.0398 13.5875 12.5003 13.2191C12.7369 13.0298 12.8984 12.8437 12.9968 12.7125C13.0459 12.6471 13.0786 12.5962 13.0964 12.5669C13.1046 12.5533 13.1096 12.5445 13.1114 12.5412C13.362 12.0557 13.9571 11.8605 14.4472 12.1055Z" fill="#AB92F0"/>
</g>
<defs>
<clipPath id="clip0_2020_921">
<rect width="20" height="20" fill="white"/>
</clipPath>
</defs>
</svg>
