<svg width="20" height="20" viewBox="0 0 20 20" fill="none" xmlns="http://www.w3.org/2000/svg">
<path d="M8.63683 9.31771C8.27824 9.70192 8.27824 10.2981 8.63683 10.6823L13.269 15.6453C13.8882 16.3088 15 15.8706 15 14.963V5.03705C15 4.12943 13.8882 3.69121 13.2689 4.35473L8.63683 9.31771Z" fill="#AB92F0"/>
<path fill-rule="evenodd" clip-rule="evenodd" d="M10.7358 10L13 7.57407V12.426L10.7358 10ZM8.63683 10.6823C8.27824 10.2981 8.27824 9.70192 8.63683 9.31771L13.2689 4.35473C13.8882 3.69121 15 4.12943 15 5.03705V14.963C15 15.8706 13.8882 16.3088 13.269 15.6453L8.63683 10.6823Z" fill="#AB92F0"/>
<path d="M3.63683 9.31771C3.27824 9.70192 3.27824 10.2981 3.63683 10.6823L8.26895 15.6453C8.88824 16.3088 10 15.8706 10 14.963V5.03705C10 4.12943 8.88824 3.69121 8.26895 4.35473L3.63683 9.31771Z" fill="#AB92F0"/>
<path fill-rule="evenodd" clip-rule="evenodd" d="M5.73578 10L8 7.57407V12.426L5.73578 10ZM3.63683 10.6823C3.27824 10.2981 3.27824 9.70192 3.63683 9.31771L8.26895 4.35473C8.88824 3.69121 10 4.12943 10 5.03705V14.963C10 15.8706 8.88824 16.3088 8.26895 15.6453L3.63683 10.6823Z" fill="#AB92F0"/>
</svg>
