<svg xmlns="http://www.w3.org/2000/svg" style="" style="" style="" width="20" height="20" viewBox="0 0 20 20"><g fill="none" fill-rule="evenodd"><circle cx="11.5" cy="11.5" r="8" fill="currentColor" stroke="currentColor" opacity=".8"/><circle cx="10" cy="10" r="8" stroke="#000"/><ellipse cx="10" cy="10" stroke="#000" rx="3" ry="7.5"/><path stroke="#000" d="M4 5c.118.107.244.21.378.31C5.748 6.339 7.911 7 10.343 7c2.071 0 3.946-.48 5.304-1.256.346-.199.66-.416.933-.65M4 15c.118-.107.244-.21.378-.31C5.748 13.661 7.911 13 10.343 13c2.071 0 3.946.48 5.304 1.256.346.199.66.416.933.65"/><path stroke="#000" stroke-linecap="square" d="M2.5 10h15"/></g></svg>