<svg width="20" height="20" viewBox="0 0 26 26" fill="none" xmlns="http://www.w3.org/2000/svg"><defs><mask id="z87ff36w5gqr44bwrgyuus"><rect width="26" height="26" fill="white"/><g transform="translate(3, 3)"><g><path fill-rule="evenodd" clip-rule="evenodd" d="M0.707047 6.0792C0.588923 5.5397 0.930519 5.00658 1.47002 4.88846L16.1229 1.68021C16.6624 1.56209 17.1955 1.90369 17.3137 2.44319L17.9553 5.37377C18.0734 5.91327 17.7318 6.44639 17.1923 6.56451L2.53944 9.77275C1.99993 9.89088 1.46682 9.54928 1.3487 9.00978L0.707047 6.0792ZM2.87465 6.62829L3.08853 7.60515L15.7877 4.82467L15.5738 3.84782L2.87465 6.62829Z" fill="black"/><path fill-rule="evenodd" clip-rule="evenodd" d="M9.93472 7.69771L7.33935 5.1949L8.72766 3.75525L11.323 6.25806L9.93472 7.69771Z" fill="black"/><path fill-rule="evenodd" clip-rule="evenodd" d="M6.02725 8.55324L3.43188 6.05043L4.82019 4.61078L7.41556 7.11359L6.02725 8.55324Z" fill="black"/><path fill-rule="evenodd" clip-rule="evenodd" d="M13.8421 6.84218L11.2467 4.33937L12.635 2.89972L15.2304 5.40253L13.8421 6.84218Z" fill="black"/><path fill-rule="evenodd" clip-rule="evenodd" d="M9.83207 12.5547L11.8321 9.55471L10.168 8.44531L8.16797 11.4453L9.83207 12.5547Z" fill="black"/><path fill-rule="evenodd" clip-rule="evenodd" d="M13.8321 12.5547L15.8321 9.55471L14.168 8.44531L12.168 11.4453L13.8321 12.5547Z" fill="black"/><path fill-rule="evenodd" clip-rule="evenodd" d="M5.83207 12.5547L7.83207 9.55471L6.16797 8.44531L4.16797 11.4453L5.83207 12.5547Z" fill="black"/><path fill-rule="evenodd" clip-rule="evenodd" d="M1.5 9C1.5 8.44772 1.94772 8 2.5 8L17.5 8C18.0523 8 18.5 8.44772 18.5 9L18.5 18C18.5 18.5523 18.0523 19 17.5 19L2.5 19C1.94772 19 1.5 18.5523 1.5 18L1.5 9ZM3.5 10L3.5 17L16.5 17L16.5 10L3.5 10Z" fill="black"/><path fill-rule="evenodd" clip-rule="evenodd" d="M18 13L2 13L2 11L18 11L18 13Z" fill="black"/></g></g></mask></defs><circle r="13" cx="13" cy="13" mask="url(#z87ff36w5gqr44bwrgyuus)" fill="currentColor"/></svg>