<svg width="20" height="20" viewBox="0 0 20 20" fill="none" xmlns="http://www.w3.org/2000/svg">
<path opacity="0.8" fill-rule="evenodd" clip-rule="evenodd" d="M12 7.49228C13.4641 4.87207 18.5 5.78701 18.5 9.57245C18.5 12.1012 16.3333 14.4103 12 16.5C7.66667 14.4103 5.5 12.1012 5.5 9.57245C5.5 5.78701 10.5359 4.87207 12 7.49228Z" fill="#AB92F0"/>
<path fill-rule="evenodd" clip-rule="evenodd" d="M10.2172 15.9503C14.7048 13.7863 17 11.3401 17 8.57242C17 4.75701 12.1396 3.22618 10 5.63238C7.86037 3.22618 3 4.75701 3 8.57242C3 11.3401 5.29522 13.7863 9.78282 15.9503L10 16.0551L10.2172 15.9503ZM10.4365 6.73615C11.7451 4.39411 16 5.49881 16 8.57242C16 10.8221 14.0325 12.9584 10 14.9438C5.96748 12.9584 4 10.8221 4 8.57242C4 5.49881 8.25486 4.39411 9.56352 6.73615C9.56352 6.73615 9.78176 7.03407 10 7.03407C10.2182 7.03407 10.4365 6.73615 10.4365 6.73615Z" fill="black"/>
</svg>
