<svg width="20" height="20" viewBox="0 0 20 20" fill="none" xmlns="http://www.w3.org/2000/svg">
<g opacity="0.8">
<path fill-rule="evenodd" clip-rule="evenodd" d="M7.75 6.6C7.75 4.6491 9.2804 3 11.25 3C13.2196 3 14.75 4.6491 14.75 6.6C14.75 8.5509 13.2196 10.2 11.25 10.2C9.2804 10.2 7.75 8.5509 7.75 6.6Z" fill="#AB92F0"/>
<path fill-rule="evenodd" clip-rule="evenodd" d="M11.2635 9.06665C8.03924 9.06665 5.25 11.538 5.25 14.8333L5.2517 17.0008C5.25214 17.5522 5.69886 17.9991 6.25 18L16.25 18C16.8023 18 17.25 17.5523 17.25 17V14.8333C17.25 11.5447 14.4949 9.06665 11.2635 9.06665Z" fill="#AB92F0"/>
</g>
<path fill-rule="evenodd" clip-rule="evenodd" d="M9.5 3C8.11929 3 7 4.11929 7 5.5C7 6.88071 8.11929 8 9.5 8C10.8807 8 12 6.88071 12 5.5C12 4.11929 10.8807 3 9.5 3ZM6 5.5C6 3.567 7.567 2 9.5 2C11.433 2 13 3.567 13 5.5C13 7.433 11.433 9 9.5 9C7.567 9 6 7.433 6 5.5Z" fill="black"/>
<path fill-rule="evenodd" clip-rule="evenodd" d="M3.5 14.5C3.5 11.1782 6.16909 8 9.5 8C12.8309 8 15.5 11.1782 15.5 14.5V16.5C15.5 16.7761 15.2761 17 15 17C14.7239 17 14.5 16.7761 14.5 16.5V14.5C14.5 11.6266 12.1802 9 9.5 9C6.81983 9 4.5 11.6266 4.5 14.5V16.5C4.5 16.7761 4.27614 17 4 17C3.72386 17 3.5 16.7761 3.5 16.5V14.5Z" fill="black"/>
</svg>
