<svg width="20" height="20" viewBox="0 0 20 20" fill="none" xmlns="http://www.w3.org/2000/svg">
<g opacity="0.8">
<path fill-rule="evenodd" clip-rule="evenodd" d="M7.75 6.6C7.75 4.6491 9.2804 3 11.25 3C13.2196 3 14.75 4.6491 14.75 6.6C14.75 8.5509 13.2196 10.2 11.25 10.2C9.2804 10.2 7.75 8.5509 7.75 6.6Z" fill="#AB92F0"/>
<path fill-rule="evenodd" clip-rule="evenodd" d="M11.2635 9.06665C8.03924 9.06665 5.25 11.538 5.25 14.8333L5.2517 17.0008C5.25214 17.5522 5.69886 17.9991 6.25 18L16.25 18C16.8023 18 17.25 17.5523 17.25 17V14.8333C17.25 11.5447 14.4949 9.06665 11.2635 9.06665Z" fill="#AB92F0"/>
</g>
<circle cx="9.5" cy="5.5" r="3" stroke="black" stroke-linecap="round"/>
<path d="M15 16.5V14.5C15 11.4024 12.5055 8.5 9.5 8.5C6.49446 8.5 4 11.4024 4 14.5V16.5" stroke="black" stroke-linecap="round"/>
</svg>
