<svg width="20" height="20" viewBox="0 0 20 20" fill="none" xmlns="http://www.w3.org/2000/svg">
<g opacity="0.8">
<path d="M12.4389 11.7743L13.0208 11.1924C14.1924 10.0208 16.0919 10.0208 17.2635 11.1924L18.6777 12.6066C19.8492 13.7782 19.8492 15.6777 18.6777 16.8492L15.872 19.6549C15.5932 19.9337 15.1766 20.0227 14.8082 19.882C8.31797 17.4042 3.87437 12.9301 1.50011 6.5696C1.36316 6.20273 1.45296 5.78968 1.72986 5.51278L4.53553 2.70711C5.7071 1.53554 7.6066 1.53554 8.77817 2.70711L10.1924 4.12132C11.364 5.2929 11.364 7.19239 10.1924 8.36396L9.61167 8.94467C10.4942 9.94935 11.4366 10.8925 12.4389 11.7743Z" fill="#AB92F0"/>
</g>
<path fill-rule="evenodd" clip-rule="evenodd" d="M12.8744 9.54594L11.9632 10.4571C10.6931 9.37249 9.51512 8.19356 8.42915 6.9201L9.33883 6.01041C10.3151 5.0341 10.3151 3.45119 9.33883 2.47488L7.92462 1.06066C6.94831 0.0843525 5.36539 0.0843525 4.38908 1.06066L1.58341 3.86634C1.44496 4.00479 1.40006 4.21131 1.46854 4.39474C3.79255 10.6206 8.13044 14.9883 14.4866 17.4149C14.6707 17.4852 14.879 17.4408 15.0184 17.3014L17.8241 14.4957C18.8004 13.5194 18.8004 11.9365 17.8241 10.9602L16.4099 9.54594C15.4336 8.56963 13.8507 8.56963 12.8744 9.54594ZM17.117 11.6673C17.7028 12.2531 17.7028 13.2028 17.117 13.7886L14.542 16.3636C8.72054 14.0584 4.73058 10.0434 2.5194 4.34456L5.09619 1.76777C5.68198 1.18198 6.63172 1.18198 7.21751 1.76777L8.63172 3.18198C9.21751 3.76777 9.21751 4.71752 8.63172 5.3033L7.39779 6.53723C7.21532 6.71971 7.20169 7.01108 7.36633 7.20979C8.66924 8.78233 10.1049 10.2191 11.6731 11.5199C11.8718 11.6848 12.1633 11.6712 12.3459 11.4887L13.5815 10.2531C14.1673 9.66726 15.117 9.66726 15.7028 10.2531L17.117 11.6673Z" fill="black"/>
</svg>
