<svg width="20" height="20" viewBox="0 0 20 20" fill="none" xmlns="http://www.w3.org/2000/svg">
<g clip-path="url(#clip0)">
<path opacity="0.8" fill-rule="evenodd" clip-rule="evenodd" d="M15.5 9H16.5C17.6046 9 18.5 9.75767 18.5 10.6923V18.3077C18.5 19.2423 17.6046 20 16.5 20H8.5C7.39543 20 6.5 19.2423 6.5 18.3077L6.5 10.6923C6.5 9.75767 7.39543 9 8.5 9H9.5" fill="#AB92F0"/>
<path d="M9.99832 2.50008C9.99828 2.22394 10.2221 2.00004 10.4982 2C10.7744 1.99996 10.9983 2.22378 10.9983 2.49992L11 12.9999C11 13.2761 10.7762 13.5 10.5001 13.5C10.2239 13.5 10 13.2762 9.99999 13.0001L9.99832 2.50008Z" fill="black"/>
<path d="M10.8201 2.8841C11.0322 2.70732 11.0609 2.39203 10.8841 2.1799C10.7073 1.96776 10.392 1.93909 10.1799 2.11588L7.1799 4.61588C6.96776 4.79266 6.9391 5.10794 7.11588 5.32008C7.29266 5.53222 7.60794 5.56088 7.82008 5.3841L10.8201 2.8841Z" fill="black"/>
<path d="M10.1799 2.8841C9.96775 2.70732 9.93909 2.39203 10.1159 2.1799C10.2927 1.96776 10.6079 1.93909 10.8201 2.11588L13.8201 4.61588C14.0322 4.79266 14.0609 5.10794 13.8841 5.32008C13.7073 5.53222 13.392 5.56088 13.1799 5.3841L10.1799 2.8841Z" fill="black"/>
<path d="M13.2483 9C12.9722 9 12.7483 8.77614 12.7483 8.5C12.7483 8.22386 12.9722 8 13.2483 8L14.165 8C15.4361 8 16.4983 8.89134 16.4983 10.0385V16.9615C16.4983 18.1087 15.4361 19 14.165 19H6.83165C5.5605 19 4.49832 18.1087 4.49832 16.9615L4.49832 10.0385C4.49832 8.89134 5.5605 8 6.83165 8H7.74832C8.02446 8 8.24832 8.22386 8.24832 8.5C8.24832 8.77614 8.02446 9 7.74832 9H6.83165C6.07777 9 5.49832 9.48625 5.49832 10.0385L5.49832 16.9615C5.49832 17.5138 6.07777 18 6.83165 18H14.165C14.9189 18 15.4983 17.5138 15.4983 16.9615L15.4983 10.0385C15.4983 9.48625 14.9189 9 14.165 9H13.2483Z" fill="black"/>
</g>
<defs>
<clipPath id="clip0">
<rect width="20" height="20" fill="white"/>
</clipPath>
</defs>
</svg>
