<svg width="20" height="20" viewBox="0 0 20 20" fill="none" xmlns="http://www.w3.org/2000/svg">
<g opacity="0.8">
<path d="M19.31 12.11C19.31 12.6623 18.8623 13.11 18.31 13.11H15.81C15.2577 13.11 14.81 12.6623 14.81 12.11V6.60999C14.81 6.0577 15.2577 5.60999 15.81 5.60999H18.31C18.8623 5.60999 19.31 6.0577 19.31 6.60999V10.11V12.11Z" fill="#AB92F0"/>
<path fill-rule="evenodd" clip-rule="evenodd" d="M15.81 12.11H18.31L18.31 6.60999H15.81V12.11ZM18.31 13.11C18.8623 13.11 19.31 12.6623 19.31 12.11V6.60999C19.31 6.0577 18.8623 5.60999 18.31 5.60999H15.81C15.2577 5.60999 14.81 6.0577 14.81 6.60999V12.11C14.81 12.6623 15.2577 13.11 15.81 13.11H18.31Z" fill="#AB92F0"/>
<path fill-rule="evenodd" clip-rule="evenodd" d="M11.4148 17.5964C10.8701 17.5055 10.5021 16.9903 10.5929 16.4455L10.7965 15.2239C11.031 13.8167 11.8376 12.5693 13.0246 11.7779L14.134 13.442C13.4069 13.9267 12.9129 14.6908 12.7693 15.5527L12.5656 16.7744C12.4748 17.3191 11.9596 17.6872 11.4148 17.5964Z" fill="#AB92F0"/>
<path fill-rule="evenodd" clip-rule="evenodd" d="M10.3287 16.4452C10.4206 16.5371 10.5776 16.4936 10.6092 16.3675L12.5494 16.8525C12.1409 18.4868 10.1056 19.0506 8.91445 17.8594L8.87219 17.8171C8.48166 17.4266 8.48166 16.7934 8.87219 16.4029C9.26271 16.0124 9.89588 16.0124 10.2864 16.4029L10.3287 16.4452Z" fill="#AB92F0"/>
<path fill-rule="evenodd" clip-rule="evenodd" d="M9.57187 13.1399C10.1077 13.2739 10.4334 13.8168 10.2994 14.3526L10.1509 14.9466C10.1062 15.1255 10.0867 15.3098 10.093 15.4941L10.107 15.9045C10.1138 16.1036 10.1905 16.2939 10.3235 16.4421L8.835 17.7779C8.38837 17.2802 8.13108 16.6412 8.1082 15.9729L8.09415 15.5626C8.08146 15.1919 8.12067 14.8213 8.21064 14.4614L8.35916 13.8675C8.49313 13.3317 9.03608 13.0059 9.57187 13.1399Z" fill="#AB92F0"/>
<path fill-rule="evenodd" clip-rule="evenodd" d="M10.0793 14.11C10.0793 14.6623 9.63157 15.11 9.07928 15.11H7.57928C7.027 15.11 6.57928 14.6623 6.57928 14.11C6.57928 13.5577 7.027 13.11 7.57928 13.11H9.07928C9.63157 13.11 10.0793 13.5577 10.0793 14.11Z" fill="#AB92F0"/>
<path fill-rule="evenodd" clip-rule="evenodd" d="M6.30295 12.3212C6.54467 12.8046 7.03878 13.11 7.57928 13.11L7.5793 15.11C6.28125 15.11 5.0946 14.3766 4.51409 13.2156L4.1849 12.5572C3.93791 12.0633 4.13813 11.4626 4.63211 11.2156C5.12609 10.9686 5.72676 11.1688 5.97375 11.6628L6.30295 12.3212Z" fill="#AB92F0"/>
<path fill-rule="evenodd" clip-rule="evenodd" d="M5.9335 6.17484C6.44999 6.37045 6.71011 6.94771 6.5145 7.4642L5.97409 8.89112C5.62637 9.80925 5.63785 10.8248 6.00624 11.7348L4.15238 12.4853C3.595 11.1084 3.57763 9.5719 4.10373 8.18277L4.64415 6.75584C4.83975 6.23936 5.41702 5.97923 5.9335 6.17484Z" fill="#AB92F0"/>
<path fill-rule="evenodd" clip-rule="evenodd" d="M8.30729 6.5723C7.69091 6.39811 7.0338 6.65439 6.69812 7.19991L6.43097 7.63405C6.14153 8.10441 5.52559 8.25108 5.05523 7.96164C4.58486 7.6722 4.43819 7.05626 4.72763 6.5859L4.99477 6.15176C5.79925 4.8444 7.37402 4.23022 8.85121 4.64769L8.30729 6.5723Z" fill="#AB92F0"/>
<path fill-rule="evenodd" clip-rule="evenodd" d="M14.5599 6.8061C14.4516 7.34766 13.9247 7.69888 13.3832 7.59057L8.38319 6.59057C7.84163 6.48225 7.49041 5.95543 7.59872 5.41387C7.70704 4.87231 8.23386 4.52109 8.77542 4.6294L13.7754 5.6294C14.317 5.73772 14.6682 6.26454 14.5599 6.8061Z" fill="#AB92F0"/>
<path fill-rule="evenodd" clip-rule="evenodd" d="M13.5793 13.61C13.027 13.61 12.5793 13.1623 12.5793 12.61V6.60999C12.5793 6.0577 13.027 5.60999 13.5793 5.60999C14.1316 5.60999 14.5793 6.0577 14.5793 6.60999V12.61C14.5793 13.1623 14.1316 13.61 13.5793 13.61Z" fill="#AB92F0"/>
<path d="M13.81 12.11L10.81 17.11L8.31 14.61L5.81 12.11L5.31 9.60999L5.81 6.10999L13.31 6.60999L13.81 12.11Z" fill="#AB92F0"/>
</g>
<path fill-rule="evenodd" clip-rule="evenodd" d="M14.1 10.0814H16.6L16.6 4.58136H14.1V10.0814ZM16.6 11.0814C17.1523 11.0814 17.6 10.6336 17.6 10.0814V4.58136C17.6 4.02908 17.1523 3.58136 16.6 3.58136H14.1C13.5477 3.58136 13.1 4.02908 13.1 4.58136V10.0814C13.1 10.6336 13.5477 11.0814 14.1 11.0814H16.6Z" fill="black"/>
<path fill-rule="evenodd" clip-rule="evenodd" d="M10.0561 15.755C9.75693 15.7051 9.55481 15.4221 9.60468 15.1229L9.82836 13.7809C10.061 12.3849 10.8612 11.1475 12.0388 10.3624L12.6481 11.2764C11.7231 11.893 11.0946 12.865 10.9119 13.9615L10.6882 15.3035C10.6383 15.6027 10.3553 15.8048 10.0561 15.755Z" fill="black"/>
<path fill-rule="evenodd" clip-rule="evenodd" d="M8.38435 15.4205C8.78719 15.8233 9.47549 15.6327 9.61366 15.08L10.6793 15.3464C10.3341 16.7274 8.61421 17.2038 7.60763 16.1972L7.5612 16.1508C7.34672 15.9363 7.34672 15.5886 7.5612 15.3741C7.77569 15.1596 8.12344 15.1596 8.33793 15.3741L8.38435 15.4205Z" fill="black"/>
<path fill-rule="evenodd" clip-rule="evenodd" d="M7.80819 11.9343C8.10246 12.0078 8.28137 12.3061 8.20778 12.6003L8.04464 13.2528C7.98307 13.499 7.95624 13.7526 7.96493 14.0063L7.98036 14.457C7.99226 14.8046 8.12605 15.1368 8.3583 15.3956L7.54076 16.1293C7.13627 15.6786 6.90326 15.0999 6.88254 14.4946L6.86711 14.0439C6.85492 13.6879 6.89258 13.3319 6.97899 12.9863L7.14213 12.3339C7.21571 12.0396 7.51392 11.8607 7.80819 11.9343Z" fill="black"/>
<path fill-rule="evenodd" clip-rule="evenodd" d="M7.94952 12.4671C7.94952 12.7704 7.70363 13.0163 7.40029 13.0163H5.7526C5.44927 13.0163 5.20337 12.7704 5.20337 12.4671C5.20337 12.1637 5.44927 11.9178 5.7526 11.9178H7.40029C7.70363 11.9178 7.94952 12.1637 7.94952 12.4671Z" fill="black"/>
<path fill-rule="evenodd" clip-rule="evenodd" d="M3.85933 10.7478C4.21788 11.4649 4.95082 11.9179 5.75258 11.9179L5.75259 13.0163C4.53476 13.0163 3.42146 12.3283 2.87683 11.239L2.51522 10.5158C2.37957 10.2445 2.48954 9.91458 2.76085 9.77893C3.03216 9.64328 3.36206 9.75325 3.49772 10.0246L3.85933 10.7478Z" fill="black"/>
<path fill-rule="evenodd" clip-rule="evenodd" d="M3.75026 4.26423C4.03393 4.37166 4.1768 4.68871 4.06936 4.97238L3.47574 6.5398C3.04479 7.67767 3.05903 8.93624 3.51559 10.0641L2.49739 10.4763C1.93703 9.09201 1.91956 7.54731 2.44848 6.15075L3.04211 4.58333C3.14954 4.29966 3.46659 4.15679 3.75026 4.26423Z" fill="black"/>
<path fill-rule="evenodd" clip-rule="evenodd" d="M6.70172 3.65869C5.78825 3.40054 4.81445 3.78034 4.31697 4.58878L4.02352 5.06566C3.86456 5.324 3.52626 5.40456 3.26792 5.24559C3.00958 5.08662 2.92903 4.74833 3.088 4.48999L3.38144 4.01311C4.13639 2.78624 5.61421 2.20987 7.00046 2.60163L6.70172 3.65869Z" fill="black"/>
<path fill-rule="evenodd" clip-rule="evenodd" d="M12.8819 4.33631C12.8225 4.63375 12.5331 4.82665 12.2357 4.76716L6.74336 3.6687C6.44592 3.60922 6.25302 3.31987 6.31251 3.02243C6.372 2.72499 6.66135 2.53209 6.95879 2.59157L12.4511 3.69004C12.7485 3.74952 12.9414 4.03887 12.8819 4.33631Z" fill="black"/>
<path fill-rule="evenodd" clip-rule="evenodd" d="M12.3392 11.3686C12.0359 11.3686 11.79 11.1227 11.79 10.8194V4.2286C11.79 3.92526 12.0359 3.67937 12.3392 3.67937C12.6425 3.67937 12.8884 3.92526 12.8884 4.2286V10.8194C12.8884 11.1227 12.6425 11.3686 12.3392 11.3686Z" fill="black"/>
<path d="M14.35 6.08136C14.35 5.52908 14.7977 5.08136 15.35 5.08136C15.9023 5.08136 16.35 5.52908 16.35 6.08136C16.35 6.63364 15.9023 7.08136 15.35 7.08136C14.7977 7.08136 14.35 6.63364 14.35 6.08136Z" fill="black"/>
</svg>
