<svg width="20" height="20" viewBox="0 0 20 20" fill="none" xmlns="http://www.w3.org/2000/svg">
<g clip-path="url(#clip0_1210_544)">
<g opacity="0.8">
<path fill-rule="evenodd" clip-rule="evenodd" d="M14.8158 5.86381C16.1367 4.89339 18 5.83656 18 7.47557V9.52443C18 11.1634 16.1367 12.1066 14.8158 11.1362L12.9079 9.73446L13.8149 8.5L12.9079 7.26555L14.8158 5.86381ZM14.6056 8.5L16 9.52443V7.47557L14.6056 8.5Z" fill="#AB92F0"/>
<path d="M12.5 8.74998L16.25 6.1519V11.3481L12.5 8.74998Z" fill="#AB92F0"/>
<path fill-rule="evenodd" clip-rule="evenodd" d="M15.4138 18.9077C15.1895 19.4123 14.5986 19.6396 14.0939 19.4153L11 18.0403V19.0015C11 19.5538 10.5523 20.0015 10 20.0015C9.44773 20.0015 9.00001 19.5538 9.00001 19.0015V18.0403L5.90615 19.4153C5.40146 19.6396 4.8105 19.4123 4.5862 18.9077C4.36189 18.403 4.58919 17.812 5.09387 17.5877L9.00001 15.8517V12.0015C9.00001 11.4492 9.44773 11.0015 10 11.0015C10.5523 11.0015 11 11.4492 11 12.0015V15.8517L14.9061 17.5877C15.4108 17.812 15.6381 18.403 15.4138 18.9077Z" fill="#AB92F0"/>
<path d="M7.5 7C7.5 6.44772 7.94772 6 8.5 6H11.5C12.0523 6 12.5 6.44772 12.5 7V10C12.5 10.5523 12.0523 11 11.5 11H8.5C7.94772 11 7.5 10.5523 7.5 10V7Z" fill="#AB92F0"/>
<path fill-rule="evenodd" clip-rule="evenodd" d="M6.5 7C6.5 5.89543 7.39543 5 8.5 5H11.5C12.6046 5 13.5 5.89543 13.5 7V10C13.5 11.1046 12.6046 12 11.5 12H8.5C7.39543 12 6.5 11.1046 6.5 10V7ZM11.5 7H8.5V10H11.5V7Z" fill="#AB92F0"/>
<path fill-rule="evenodd" clip-rule="evenodd" d="M12.2929 6.70863C11.9024 6.31811 11.9024 5.68494 12.2929 5.29442L14.9863 2.601C15.3768 2.21047 16.01 2.21047 16.4005 2.601C16.7911 2.99152 16.7911 3.62469 16.4005 4.01521L13.7071 6.70863C13.3166 7.09916 12.6834 7.09916 12.2929 6.70863Z" fill="#AB92F0"/>
<path fill-rule="evenodd" clip-rule="evenodd" d="M16.2073 14.2069C15.8169 14.5975 15.1838 14.5977 14.7931 14.2073L12.2931 11.7089C11.9025 11.3185 11.9023 10.6853 12.2927 10.2947C12.6831 9.90401 13.3162 9.90382 13.7069 10.2942L16.2069 12.7927C16.5975 13.1831 16.5977 13.8163 16.2073 14.2069Z" fill="#AB92F0"/>
</g>
<path fill-rule="evenodd" clip-rule="evenodd" d="M14.1679 4.872C15.1648 4.20745 16.5 4.92203 16.5 6.12008V9.38304C16.5 10.5811 15.1648 11.2957 14.1679 10.6311L11.2227 8.66758L11.7773 7.83553L14.7226 9.79907C15.0549 10.0206 15.5 9.78239 15.5 9.38304V6.12008C15.5 5.72073 15.0549 5.48253 14.7226 5.70405L11.7773 7.66758L11.2227 6.83553L14.1679 4.872Z" fill="black"/>
<path fill-rule="evenodd" clip-rule="evenodd" d="M13.4569 17.9546C13.3448 18.207 13.0493 18.3206 12.7969 18.2085L9 16.5209V18.2516C9 18.5277 8.77614 18.7516 8.5 18.7516C8.22385 18.7516 8 18.5277 8 18.2516L8 16.5209L4.20307 18.2085C3.95072 18.3206 3.65524 18.207 3.54309 17.9546C3.43094 17.7023 3.54459 17.4068 3.79693 17.2947L8 15.4266V11.2516C8 10.9754 8.22385 10.7516 8.5 10.7516C8.77614 10.7516 9 10.9754 9 11.2516V15.4266L13.2031 17.2947C13.4554 17.4068 13.5691 17.7023 13.4569 17.9546Z" fill="black"/>
<path fill-rule="evenodd" clip-rule="evenodd" d="M5 5.75156C5 4.92313 5.67157 4.25156 6.5 4.25156H10.5C11.3284 4.25156 12 4.92313 12 5.75156V9.75156C12 10.58 11.3284 11.2516 10.5 11.2516H6.5C5.67157 11.2516 5 10.58 5 9.75156V5.75156ZM6.5 5.25156C6.22386 5.25156 6 5.47541 6 5.75156V9.75156C6 10.0277 6.22386 10.2516 6.5 10.2516H10.5C10.7761 10.2516 11 10.0277 11 9.75156V5.75156C11 5.47541 10.7761 5.25156 10.5 5.25156H6.5Z" fill="black"/>
<path fill-rule="evenodd" clip-rule="evenodd" d="M11.1464 5.60511C10.9512 5.40985 10.9512 5.09327 11.1464 4.898L14.1464 1.898C14.3417 1.70274 14.6583 1.70274 14.8536 1.898C15.0488 2.09327 15.0488 2.40985 14.8536 2.60511L11.8536 5.60511C11.6583 5.80037 11.3417 5.80037 11.1464 5.60511Z" fill="black"/>
<path fill-rule="evenodd" clip-rule="evenodd" d="M14.8536 13.6051C14.6583 13.8003 14.3417 13.8003 14.1464 13.6051L11.1464 10.6051C10.9512 10.4098 10.9512 10.0932 11.1464 9.89798C11.3417 9.70272 11.6583 9.70272 11.8535 9.89798L14.8536 12.898C15.0488 13.0932 15.0488 13.4098 14.8536 13.6051Z" fill="black"/>
</g>
<defs>
<clipPath id="clip0_1210_544">
<rect width="20" height="20" fill="white"/>
</clipPath>
</defs>
</svg>
