<svg width="20" height="20" viewBox="0 0 20 20" fill="none" xmlns="http://www.w3.org/2000/svg">
<g opacity="0.8">
<mask id="path-1-inside-1" fill="white">
<rect x="5" y="5" width="13.5" height="13.5" rx="0.5"/>
</mask>
<rect x="5" y="5" width="13.5" height="13.5" rx="0.5" fill="#AB92F0" stroke="#AB92F0" stroke-width="3" stroke-linecap="square" stroke-linejoin="round" mask="url(#path-1-inside-1)"/>
</g>
<mask id="path-2-inside-2" fill="white">
<rect x="4.5" y="4.5" width="5" height="5" rx="0.5"/>
</mask>
<rect x="4.5" y="4.5" width="5" height="5" rx="0.5" stroke="black" stroke-width="2" stroke-linecap="square" stroke-linejoin="round" mask="url(#path-2-inside-2)"/>
<mask id="path-3-inside-3" fill="white">
<rect x="10.5" y="4.5" width="5" height="5" rx="0.5"/>
</mask>
<rect x="10.5" y="4.5" width="5" height="5" rx="0.5" stroke="black" stroke-width="2" stroke-linecap="square" stroke-linejoin="round" mask="url(#path-3-inside-3)"/>
<mask id="path-4-inside-4" fill="white">
<rect x="4.5" y="10.5" width="5" height="5" rx="0.5"/>
</mask>
<rect x="4.5" y="10.5" width="5" height="5" rx="0.5" stroke="black" stroke-width="2" stroke-linecap="square" stroke-linejoin="round" mask="url(#path-4-inside-4)"/>
<mask id="path-5-inside-5" fill="white">
<rect x="10.5" y="10.5" width="5" height="5" rx="0.5"/>
</mask>
<rect x="10.5" y="10.5" width="5" height="5" rx="0.5" fill="black" stroke="black" stroke-width="2" stroke-linecap="square" stroke-linejoin="round" mask="url(#path-5-inside-5)"/>
<path d="M3 3H6.5" stroke="black" stroke-linecap="round"/>
<path d="M3 3V6.5" stroke="black" stroke-linecap="round"/>
<path d="M3 17L3 13.5" stroke="black" stroke-linecap="round"/>
<path d="M3 17H6.5" stroke="black" stroke-linecap="round"/>
<path d="M17 17H13.5" stroke="black" stroke-linecap="round"/>
<path d="M17 17V13.5" stroke="black" stroke-linecap="round"/>
<path d="M17 3V6.5" stroke="black" stroke-linecap="round"/>
<path d="M17 3L13.5 3" stroke="black" stroke-linecap="round"/>
</svg>
