<svg xmlns="http://www.w3.org/2000/svg" width="20" height="20" viewBox="0 0 20 20"><g fill="none" fill-rule="evenodd"><path stroke="#AB92F0" stroke-linecap="round" stroke-linejoin="round" stroke-width="2" d="M3.5 10l1.216-4.864A1.5 1.5 0 0 1 6.171 4h7.659a1.5 1.5 0 0 1 1.455 1.136L16.5 10a1.5 1.5 0 0 1 1.5 1.5v3a1.5 1.5 0 0 1-1.5 1.5h-13A1.5 1.5 0 0 1 2 14.5v-3A1.5 1.5 0 0 1 3.5 10z"/><circle cx="15" cy="13" r="1" fill="#AB92F0" stroke="#AB92F0" stroke-linecap="round" stroke-linejoin="round" transform="rotate(-90 15 13)"/><circle cx="5" cy="13" r="1" fill="#AB92F0" stroke="#AB92F0" stroke-linecap="round" stroke-linejoin="round" transform="rotate(-90 5 13)"/><rect width="2" height="3" x="3" y="16" fill="#AB92F0" stroke="#AB92F0" rx="1"/><rect width="2" height="3" x="15" y="16" fill="#AB92F0" stroke="#AB92F0" rx="1"/><path stroke="#AB92F0" stroke-linecap="round" stroke-linejoin="round" stroke-width="2" d="M10 2h0a1 1 0 0 1 1 1h0a1 1 0 0 1-1 1h0a1 1 0 0 1-1-1h0a1 1 0 0 1 1-1z"/><path stroke="#AB92F0" stroke-width="2" d="M7.805 6.5h4.39a1 1 0 0 1 .978.79l.429 2a1 1 0 0 1-.978 1.21H7.376a1 1 0 0 1-.978-1.21l.43-2a1 1 0 0 1 .977-.79z"/></g></svg>