<svg width="20" height="20" viewBox="0 0 26 26" fill="none" xmlns="http://www.w3.org/2000/svg"><defs><mask id="elg3yktlibwfo5kci10adq"><rect width="26" height="26" fill="white"/><g transform="translate(3, 3)"><g><path fill-rule="evenodd" clip-rule="evenodd" d="M5.50012 4C5.50012 2.89543 6.39555 2 7.50012 2H12.6001C12.7314 2 12.8574 2.05164 12.951 2.14376L17.351 6.47709C17.4464 6.57107 17.5001 6.6994 17.5001 6.83333V14C17.5001 15.1046 16.6047 16 15.5001 16H6.50012C6.22398 16 6.00012 15.7761 6.00012 15.5C6.00012 15.2239 6.22398 15 6.50012 15H15.5001C16.0524 15 16.5001 14.5523 16.5001 14V7.33333H13.6001C12.7717 7.33333 12.1001 6.66176 12.1001 5.83333V3H7.50012C6.94784 3 6.50012 3.44772 6.50012 4V6.5C6.50012 6.77614 6.27626 7 6.00012 7C5.72398 7 5.50012 6.77614 5.50012 6.5V4ZM13.1001 3.69419L15.7799 6.33333H13.6001C13.324 6.33333 13.1001 6.10948 13.1001 5.83333V3.69419Z" fill="black"/><path fill-rule="evenodd" clip-rule="evenodd" d="M7.99841 8.62841C6.88091 8.03449 5.49354 8.45894 4.89962 9.57643C4.3057 10.6939 4.73014 12.0813 5.84763 12.6752C6.96513 13.2691 8.3525 12.8447 8.94642 11.7272C9.54034 10.6097 9.1159 9.22233 7.99841 8.62841ZM4.01658 9.10712C4.86969 7.50194 6.86254 6.89227 8.46772 7.74538C10.0729 8.59849 10.6826 10.5913 9.82946 12.1965C9.05612 13.6516 7.34624 14.2886 5.83755 13.7596L4.22738 16.7892C4.09778 17.0331 3.79505 17.1257 3.55121 16.9961C3.30737 16.8665 3.21475 16.5637 3.34435 16.3199L4.95451 13.2903C3.67191 12.3358 3.24325 10.5622 4.01658 9.10712Z" fill="black"/></g></g></mask></defs><circle r="13" cx="13" cy="13" mask="url(#elg3yktlibwfo5kci10adq)" fill="currentColor"/></svg>