<svg width="20" height="20" viewBox="0 0 20 20" fill="none" xmlns="http://www.w3.org/2000/svg">
<g opacity="0.8">
<rect x="7" y="7" width="10" height="11.5" rx="1" fill="#AB92F0"/>
<path fill-rule="evenodd" clip-rule="evenodd" d="M10.0156 4.25C10.1393 3.2647 10.982 2.5 11.9998 2.5C13.0176 2.5 13.8603 3.2647 13.984 4.25H17C17.4142 4.25 17.75 4.58579 17.75 5C17.75 5.41421 17.4142 5.75 17 5.75H7C6.58579 5.75 6.25 5.41421 6.25 5C6.25 4.58579 6.58579 4.25 7 4.25H10.0156Z" fill="#AB92F0"/>
</g>
<path d="M8.5 14.999C8.5 15.2752 8.27614 15.499 8 15.499C7.72386 15.499 7.5 15.2752 7.5 14.999V8.99902C7.5 8.72288 7.72386 8.49902 8 8.49902C8.27614 8.49902 8.5 8.72288 8.5 8.99902V14.999Z" fill="black"/>
<path d="M10.5 14.999C10.5 15.2752 10.2761 15.499 10 15.499C9.72386 15.499 9.5 15.2752 9.5 14.999V8.99902C9.5 8.72288 9.72386 8.49902 10 8.49902C10.2761 8.49902 10.5 8.72288 10.5 8.99902V14.999Z" fill="black"/>
<path d="M12.5 14.999C12.5 15.2752 12.2761 15.499 12 15.499C11.7239 15.499 11.5 15.2752 11.5 14.999V8.99902C11.5 8.72288 11.7239 8.49902 12 8.49902C12.2761 8.49902 12.5 8.72288 12.5 8.99902V14.999Z" fill="black"/>
<path d="M11.5004 4.4989H11.4994H8.50072C8.50072 3.67169 9.17379 2.99951 10.0001 2.99951C10.8268 2.99951 11.4998 3.67169 11.5004 4.49792V4.4989Z" fill="black"/>
<path d="M4.5 4.99902C4.22386 4.99902 4 4.77517 4 4.49902C4 4.22288 4.22386 3.99902 4.5 3.99902H15.5C15.7761 3.99902 16 4.22288 16 4.49902C16 4.77517 15.7761 4.99902 15.5 4.99902H4.5Z" fill="black"/>
<path fill-rule="evenodd" clip-rule="evenodd" d="M14.5 5.5H5.5C5.22386 5.5 5 5.72386 5 6V17C5 17.2761 5.22386 17.5 5.5 17.5H14.5C14.7761 17.5 15 17.2761 15 17V6C15 5.72386 14.7761 5.5 14.5 5.5ZM6 16.5V6.5H14V16.5H6Z" fill="black"/>
</svg>
