<svg width="20" height="20" viewBox="0 0 20 20" fill="none" xmlns="http://www.w3.org/2000/svg">
<path opacity="0.8" fill-rule="evenodd" clip-rule="evenodd" d="M10.75 15C13.0972 15 15 13.0972 15 10.75C15 8.40279 13.0972 6.5 10.75 6.5C8.40279 6.5 6.5 8.40279 6.5 10.75C6.5 13.0972 8.40279 15 10.75 15ZM10.75 17C14.2018 17 17 14.2018 17 10.75C17 7.29822 14.2018 4.5 10.75 4.5C7.29822 4.5 4.5 7.29822 4.5 10.75C4.5 14.2018 7.29822 17 10.75 17Z" fill="#AB92F0"/>
<path fill-rule="evenodd" clip-rule="evenodd" d="M10 5C7.23858 5 5 7.23858 5 10C5 12.7614 7.23858 15 10 15C12.7614 15 15 12.7614 15 10C15 7.23858 12.7614 5 10 5ZM4 10C4 6.68629 6.68629 4 10 4C13.3137 4 16 6.68629 16 10C16 13.3137 13.3137 16 10 16C6.68629 16 4 13.3137 4 10Z" fill="black"/>
</svg>
