<svg width="20" height="20" viewBox="0 0 20 20" fill="none" xmlns="http://www.w3.org/2000/svg">
<g opacity="0.8">
<path fill-rule="evenodd" clip-rule="evenodd" d="M5 8C5 7.17157 5.67157 6.5 6.5 6.5H16.5C17.3284 6.5 18 7.17157 18 8C18 8.82843 17.3284 9.5 16.5 9.5H6.5C5.67157 9.5 5 8.82843 5 8Z" fill="#AB92F0"/>
<path fill-rule="evenodd" clip-rule="evenodd" d="M5 14C5 13.1716 5.67157 12.5 6.5 12.5H16.5C17.3284 12.5 18 13.1716 18 14C18 14.8284 17.3284 15.5 16.5 15.5H6.5C5.67157 15.5 5 14.8284 5 14Z" fill="#AB92F0"/>
</g>
<path fill-rule="evenodd" clip-rule="evenodd" d="M4.5 7C4.5 6.72386 4.72386 6.5 5 6.5H15C15.2761 6.5 15.5 6.72386 15.5 7C15.5 7.27614 15.2761 7.5 15 7.5H5C4.72386 7.5 4.5 7.27614 4.5 7Z" fill="black"/>
<path fill-rule="evenodd" clip-rule="evenodd" d="M4.5 13C4.5 12.7239 4.72386 12.5 5 12.5H15C15.2761 12.5 15.5 12.7239 15.5 13C15.5 13.2761 15.2761 13.5 15 13.5H5C4.72386 13.5 4.5 13.2761 4.5 13Z" fill="black"/>
</svg>
