<svg width="20" height="20" viewBox="0 0 20 20" fill="none" xmlns="http://www.w3.org/2000/svg">
<g opacity="0.8">
<rect x="3" y="7" width="13" height="8" rx="1" fill="#AB92F0"/>
<rect x="16.5" y="8.5" width="2" height="5" rx="0.5" fill="#AB92F0"/>
</g>
<rect x="16" y="7.5" width="2" height="5" rx="0.5" fill="black"/>
<path d="M4 7.5H6.5V12.5H4V7.5Z" fill="black"/>
<path d="M7.25 7.5H9.75V12.5H7.25V7.5Z" fill="black"/>
<rect x="10.5" y="7.5" width="2.5" height="5" fill="black"/>
<path fill-rule="evenodd" clip-rule="evenodd" d="M14 5.5H3C2.17157 5.5 1.5 6.17157 1.5 7V13C1.5 13.8284 2.17157 14.5 3 14.5H14C14.8284 14.5 15.5 13.8284 15.5 13V7C15.5 6.17157 14.8284 5.5 14 5.5ZM2.5 7C2.5 6.72386 2.72386 6.5 3 6.5H14C14.2761 6.5 14.5 6.72386 14.5 7V13C14.5 13.2761 14.2761 13.5 14 13.5H3C2.72386 13.5 2.5 13.2761 2.5 13V7Z" fill="black"/>
</svg>
