<svg width="20" height="20" viewBox="0 0 20 20" fill="none" xmlns="http://www.w3.org/2000/svg">
<g opacity="0.8">
<path d="M7.76225 7.5L8.17154 6.23204C8.50479 5.19965 9.46583 4.5 10.5507 4.5L13.4489 4.5C14.5337 4.5 15.4947 5.19965 15.828 6.23204L16.2373 7.5H17.5C18.8807 7.5 20 8.61929 20 10V16C20 17.3807 18.8807 18.5 17.5 18.5H6.5C5.11929 18.5 4 17.3807 4 16L4 10C4 8.61929 5.11929 7.5 6.5 7.5H7.76225Z" fill="#AB92F0"/>
</g>
<path fill-rule="evenodd" clip-rule="evenodd" d="M6.17154 5.23204L5.76225 6.5H4.5C3.11929 6.5 2 7.61929 2 9V15C2 16.3807 3.11929 17.5 4.5 17.5H15.5C16.8807 17.5 18 16.3807 18 15V9C18 7.61929 16.8807 6.5 15.5 6.5H14.2373L13.828 5.23204C13.4947 4.19965 12.5337 3.5 11.4489 3.5H8.55067C7.46583 3.5 6.50479 4.19965 6.17154 5.23204ZM4.5 7.5H6.49027L7.12319 5.53922C7.32314 4.91979 7.89976 4.5 8.55067 4.5H11.4489C12.0998 4.5 12.6764 4.91979 12.8763 5.53922L13.5093 7.5H15.5C16.3284 7.5 17 8.17157 17 9V15C17 15.8284 16.3284 16.5 15.5 16.5H4.5C3.67157 16.5 3 15.8284 3 15V9C3 8.17157 3.67157 7.5 4.5 7.5Z" fill="black"/>
<path fill-rule="evenodd" clip-rule="evenodd" d="M7 11.5C7 13.1569 8.34315 14.5 10 14.5C11.6569 14.5 13 13.1569 13 11.5C13 9.84315 11.6569 8.5 10 8.5C8.34315 8.5 7 9.84315 7 11.5ZM12 11.5C12 12.6046 11.1046 13.5 10 13.5C8.89543 13.5 8 12.6046 8 11.5C8 10.3954 8.89543 9.5 10 9.5C11.1046 9.5 12 10.3954 12 11.5Z" fill="black"/>
</svg>
