<svg style="" width="20" height="20" viewBox="0 0 20 20" fill="none" xmlns="http://www.w3.org/2000/svg">
<path opacity="0.8" d="M7.5 1H15.5C16.3284 1 17 1.67157 17 2.5V18.5C17 19.3284 16.3284 20 15.5 20H7.5C6.67157 20 6 19.3284 6 18.5V2.5C6 1.67157 6.67157 1 7.5 1Z" fill="currentColor"/>
<path fill-rule="evenodd" clip-rule="evenodd" d="M14.5 0.5H5.5C4.67157 0.5 4 1.17157 4 2V18C4 18.8284 4.67157 19.5 5.5 19.5H14.5C15.3284 19.5 16 18.8284 16 18V2C16 1.17157 15.3284 0.5 14.5 0.5ZM5 2C5 1.72386 5.22386 1.5 5.5 1.5H14.5C14.7761 1.5 15 1.72386 15 2V18C15 18.2761 14.7761 18.5 14.5 18.5H5.5C5.22386 18.5 5 18.2761 5 18V2Z" fill="black"/>
<path fill-rule="evenodd" clip-rule="evenodd" d="M8.5 16.5C8.5 17.3284 9.17157 18 10 18C10.8284 18 11.5 17.3284 11.5 16.5C11.5 15.6716 10.8284 15 10 15C9.17157 15 8.5 15.6716 8.5 16.5ZM10.5 16.5C10.5 16.7761 10.2761 17 10 17C9.72386 17 9.5 16.7761 9.5 16.5C9.5 16.2239 9.72386 16 10 16C10.2761 16 10.5 16.2239 10.5 16.5Z" fill="black"/>
</svg>
