<svg xmlns="http://www.w3.org/2000/svg" width="20" height="20" viewBox="0 0 20 20">
  <g fill="none" fill-rule="evenodd" stroke-linecap="round">
    <path fill="#AB92F0" stroke="#AB92F0" d="M6.5,2.5 L13.185416,2.5 C13.4655371,2.5 13.7328156,2.61749138 13.9222102,2.82388295 L18.2367942,7.52567319 C18.4060773,7.71014836 18.5,7.95141483 18.5,8.20179025 L18.5,18.5 C18.5,19.0522847 18.0522847,19.5 17.5,19.5 L6.5,19.5 C5.94771525,19.5 5.5,19.0522847 5.5,18.5 L5.5,3.5 C5.5,2.94771525 5.94771525,2.5 6.5,2.5 Z"/>
    <path stroke="#000" d="M6.5 10.5L13.5 10.5M6.5 13.5L13.5 13.5M4.5 1.5L11.185416 1.5C11.4655371 1.5 11.7328156 1.61749138 11.9222102 1.82388295L16.2367942 6.52567319C16.4060773 6.71014836 16.5 6.95141483 16.5 7.20179025L16.5 17.5C16.5 18.0522847 16.0522847 18.5 15.5 18.5L4.5 18.5C3.94771525 18.5 3.5 18.0522847 3.5 17.5L3.5 2.5C3.5 1.94771525 3.94771525 1.5 4.5 1.5z"/>
    <path stroke="#000" stroke-linejoin="round" d="M10.5 1.5L10.5 7.5 16.5 7.5"/>
  </g>
</svg>
