<svg xmlns="http://www.w3.org/2000/svg" width="20" height="20" viewBox="0 0 20 20">
  <g fill="none" fill-rule="evenodd">
    <path fill="#AB92F0" stroke="#AB92F0" stroke-linejoin="round" stroke-width="1.5" d="M11 4L11.558 4 12 5 10 5 10.373 4z"/>
    <path fill="#AB92F0" stroke="#AB92F0" stroke-linejoin="round" stroke-width="1.5" d="M11 17L11.558 17 12 18 10 18 10.373 17z" transform="rotate(-180 11 17.5)"/>
    <path fill="#AB92F0" stroke="#AB92F0" stroke-linejoin="round" stroke-width="1.5" d="M17.5 10.5L18.058 10.5 18.5 11.5 16.5 11.5 16.873 10.5z" transform="rotate(90 17.5 11)"/>
    <path fill="#AB92F0" stroke="#AB92F0" stroke-linejoin="round" stroke-width="1.5" d="M4.5 10.5L5.058 10.5 5.5 11.5 3.5 11.5 3.873 10.5z" transform="rotate(-90 4.5 11)"/>
    <path fill="#AB92F0" stroke="#AB92F0" stroke-linecap="round" stroke-linejoin="round" stroke-width="1.5" d="M15.596 5.904L16.154 5.904 16.596 6.904 14.596 6.904 14.969 5.904z" transform="rotate(45 15.596 6.404)"/>
    <path fill="#AB92F0" stroke="#AB92F0" stroke-linecap="round" stroke-linejoin="round" stroke-width="1.5" d="M6.404 15.096L6.961 15.096 7.404 16.096 5.404 16.096 5.777 15.096z" transform="rotate(-135 6.404 15.596)"/>
    <path fill="#AB92F0" stroke="#AB92F0" stroke-linecap="round" stroke-linejoin="round" stroke-width="1.5" d="M15.596 15.096L16.154 15.096 16.596 16.096 14.596 16.096 14.969 15.096z" transform="rotate(135 15.596 15.596)"/>
    <path fill="#AB92F0" stroke="#AB92F0" stroke-linecap="round" stroke-linejoin="round" stroke-width="1.5" d="M6.404 5.904L6.961 5.904 7.404 6.904 5.404 6.904 5.777 5.904z" transform="rotate(-45 6.404 6.404)"/>
    <path fill="#AB92F0" stroke="#AB92F0" stroke-width="4.5" d="M11,15 C12.1045695,15 13.1045695,14.5522847 13.8284271,13.8284271 C14.5522847,13.1045695 15,12.1045695 15,11 C15,9.8954305 14.5522847,8.8954305 13.8284271,8.17157288 C13.1045695,7.44771525 12.1045695,7 11,7 C9.8954305,7 8.8954305,7.44771525 8.17157288,8.17157288 C7.44771525,8.8954305 7,9.8954305 7,11 C7,12.1045695 7.44771525,13.1045695 8.17157288,13.8284271 C8.8954305,14.5522847 9.8954305,15 11,15 Z"/>
    <path stroke="#000" stroke-linejoin="round" d="M11.3902379,4.16920066 C11.9451339,4.30697918 12.4681991,4.52535148 12.9462904,4.81117462 L14.4613736,3.95832524 L15.1265242,4.62347584 L15.7179358,5.21488752 L14.9290061,6.78734686 C15.2164467,7.26453949 15.4365498,7.78688072 15.5761616,8.34121681 L17.25,8.80933501 L17.25,9.75 L17.25,10.5863824 L15.5807993,11.1402379 C15.4430208,11.6951339 15.2246485,12.2181991 14.9388254,12.6962904 L15.7916748,14.2113736 L15.1265242,14.8765242 L14.5351125,15.4679358 L12.9626531,14.6790061 C12.4854605,14.9664467 11.9631193,15.1865498 11.4087832,15.3261616 L10.940665,17 L10,17 L9.16361758,17 L8.60976213,15.3307993 C8.05486608,15.1930208 7.53180092,14.9746485 7.05370959,14.6888254 L5.53862643,15.5416748 L4.87347584,14.8765242 L4.28206415,14.2851125 L5.07099385,12.7126531 C4.78355329,12.2354605 4.56345022,11.7131193 4.42383837,11.1587832 L2.75,10.690665 L2.75,9.75 L2.75,8.91361758 L4.41920066,8.35976213 C4.55697918,7.80486608 4.77535148,7.28180092 5.06117462,6.80370959 L4.20832524,5.28862643 L4.87347584,4.62347584 L5.46488752,4.03206415 L7.03734686,4.82099385 C7.51453949,4.53355329 8.03688072,4.31345022 8.59121681,4.17383837 L9.05933501,2.5 L10,2.5 L10.8363824,2.5 L11.3902379,4.16920066 Z M10,11.75 C10.5522847,11.75 11.0522847,11.5261424 11.4142136,11.1642136 C11.7761424,10.8022847 12,10.3022847 12,9.75 C12,9.19771525 11.7761424,8.69771525 11.4142136,8.33578644 C11.0522847,7.97385763 10.5522847,7.75 10,7.75 C9.44771525,7.75 8.94771525,7.97385763 8.58578644,8.33578644 C8.22385763,8.69771525 8,9.19771525 8,9.75 C8,10.3022847 8.22385763,10.8022847 8.58578644,11.1642136 C8.94771525,11.5261424 9.44771525,11.75 10,11.75 Z"/>
  </g>
</svg>
