<svg xmlns="http://www.w3.org/2000/svg" width="20" height="20" viewBox="0 0 20 20">
  <g fill="none" fill-rule="evenodd">
    <rect width="10" height="11.5" x="7" y="7" fill="#AB92F0" fill-rule="nonzero" rx="1"/>
    <path fill="#AB92F0" fill-rule="nonzero" d="M13.9367402,5.00020003 L13.9359601,5.00020003 L10.0629001,5.00020003 C10.0208401,4.83664012 10.0000001,4.66883993 10.0000001,4.5007 C10.0000001,3.39750999 10.8971101,2.50000002 11.9998001,2.50000002 C13.1024902,2.50000002 13.9996002,3.39750999 13.9996002,4.5007 C13.9996002,4.66960001 13.9785101,4.83740997 13.9369302,4.99944997 L13.9367402,5.00020003 Z"/>
    <path stroke="#AB92F0" stroke-linecap="round" stroke-width="1.5" d="M7,5 L17,5"/>
    <path stroke="#000" stroke-linecap="round" d="M8 14.999L8 8.999M10 14.999L10 8.999M12 14.999L12 8.999"/>
    <path fill="#000" fill-rule="nonzero" d="M11.5004155,4.49893896 L11.4994084,4.49893896 L8.5007207,4.49893896 C8.5007207,3.67172949 9.17378589,2.99954932 10.0001104,2.99954932 C10.826801,2.99954932 11.4998357,3.67172949 11.5004155,4.4979624 L11.5004155,4.49893896 Z"/>
    <path stroke="#000" stroke-linecap="round" d="M4.5,4.499 L15.5,4.499"/>
    <path d="M5 5.5H15V17.5H5z"/>
    <path stroke="#000" stroke-linejoin="round" d="M5.5 6H14.5V17H5.5z"/>
  </g>
</svg>
