<svg width="20" height="20" viewBox="0 0 20 20" fill="none" xmlns="http://www.w3.org/2000/svg">
<g clip-path="url(#clip0_2608_1040)">
<g opacity="0.8">
<path d="M15.5815 6.31066L9.79246 3.53813C9.62202 3.45651 9.43194 3.42485 9.24425 3.44682L5.39705 3.89717C5.0546 3.93726 4.75695 4.15093 4.60945 4.46258L4.16814 5.39495C3.787 6.20021 4.56972 7.0643 5.40863 6.7644L6.35839 6.42488C6.80725 6.26441 7.30698 6.44308 7.55235 6.85176L7.90274 7.43534C8.00421 7.60433 8.15336 7.73957 8.33145 7.82406L13.6139 10.3302C14.1056 10.5634 14.6936 10.3607 14.937 9.87388L16.044 7.65977C16.294 7.15984 16.0856 6.55208 15.5815 6.31066Z" fill="#AB92F0"/>
<path fill-rule="evenodd" clip-rule="evenodd" d="M9.18947 5.46689L9.03215 5.4853C9.11706 5.59093 9.19563 5.70334 9.26702 5.82225L9.46181 6.14667L13.5862 8.10333L13.8003 7.67511L9.18947 5.46689ZM9.79246 3.53813L15.5815 6.31066C16.0856 6.55208 16.294 7.15984 16.044 7.65977L14.937 9.87388C14.6936 10.3607 14.1056 10.5634 13.6139 10.3302L8.33145 7.82406C8.15336 7.73957 8.00421 7.60433 7.90274 7.43534L7.55235 6.85176C7.30698 6.44308 6.80725 6.26441 6.35839 6.42488L5.40863 6.7644C4.56972 7.0643 3.787 6.20021 4.16814 5.39495L4.60945 4.46258C4.75695 4.15093 5.0546 3.93726 5.39705 3.89717L9.24425 3.44682C9.43194 3.42485 9.62202 3.45651 9.79246 3.53813Z" fill="#AB92F0"/>
<path fill-rule="evenodd" clip-rule="evenodd" d="M16.5245 6.16988C16.0253 5.9336 15.4291 6.14674 15.1928 6.64593L13.6005 10.0102C13.3642 10.5094 13.5773 11.1056 14.0765 11.3418L14.9804 11.7697C15.4796 12.0059 16.0758 11.7928 16.3121 11.2936L17.9044 7.92937C18.1407 7.43018 17.9275 6.83396 17.4283 6.59769L16.5245 6.16988Z" fill="#AB92F0"/>
<path fill-rule="evenodd" clip-rule="evenodd" d="M11.568 9.20242L7.60116 17.9695C7.37072 18.4788 6.76753 18.7002 6.26227 18.4611L5.38288 18.0449C4.88025 17.807 4.66825 17.2047 4.91102 16.7044L9.09238 8.08769C9.32142 7.61568 9.87631 7.40094 10.3634 7.59578L11.0283 7.86171C11.5572 8.07329 11.8028 8.68337 11.568 9.20242Z" fill="#AB92F0"/>
</g>
<path fill-rule="evenodd" clip-rule="evenodd" d="M8.68972 2.19983C8.96894 2.16715 9.25173 2.21359 9.50583 2.33386L13.314 4.13632C14.0628 4.49073 14.3825 5.38505 14.0281 6.13384L12.9586 8.39351C12.6042 9.14229 11.7098 9.462 10.961 9.10759L7.61924 7.52587C7.35157 7.39918 7.1274 7.1961 6.97496 6.94221L6.62482 6.35905C6.50213 6.15471 6.25227 6.06538 6.02784 6.14561L5.07808 6.48513C3.81972 6.93498 2.64564 5.63885 3.21735 4.43096L3.65865 3.49858C3.87991 3.03111 4.32638 2.7106 4.84005 2.65047L8.68972 2.19983ZM9.07802 3.23773C8.99332 3.19764 8.89905 3.18216 8.80598 3.19305L4.95632 3.64369C4.78509 3.66373 4.63627 3.77057 4.56252 3.92639L4.12121 4.85877C3.93064 5.2614 4.322 5.69344 4.74146 5.54349L5.69122 5.20397C6.36451 4.96328 7.1141 5.23128 7.48216 5.84429L7.83229 6.42745C7.88311 6.51208 7.95783 6.57978 8.04706 6.62201L11.3889 8.20372C11.6385 8.32186 11.9366 8.21529 12.0547 7.96569L13.1242 5.70602C13.2424 5.45643 13.1358 5.15832 12.8862 5.04018L9.07802 3.23773Z" fill="black"/>
<path fill-rule="evenodd" clip-rule="evenodd" d="M14.242 5.68197C14.5964 4.93318 15.4907 4.61348 16.2395 4.96789L17.1434 5.3957C17.8922 5.75011 18.2119 6.64443 17.8575 7.39322L16.2165 10.8601C15.8621 11.6089 14.9678 11.9286 14.219 11.5742L13.3152 11.1464C12.5664 10.792 12.2467 9.89764 12.6011 9.14885L14.242 5.68197ZM15.8117 5.87176C15.5621 5.75362 15.264 5.86019 15.1458 6.10978L13.5049 9.57666C13.3868 9.82626 13.4934 10.1244 13.743 10.2425L14.6468 10.6703C14.8964 10.7884 15.1945 10.6819 15.3127 10.4323L16.9536 6.96541C17.0717 6.71581 16.9652 6.41771 16.7156 6.29957L15.8117 5.87176Z" fill="black"/>
<path fill-rule="evenodd" clip-rule="evenodd" d="M6.65805 17.0275L10.5478 8.78647L11.4522 9.21332L7.56238 17.4544C7.2085 18.2041 6.31353 18.5246 5.56417 18.1699L4.66128 17.7426C3.91249 17.3882 3.59278 16.4938 3.94719 15.7451L7.7975 7.61024L8.70136 8.03805L4.85106 16.1729C4.73292 16.4225 4.83949 16.7206 5.08909 16.8387L5.99198 17.2661C6.24177 17.3843 6.54009 17.2775 6.65805 17.0275Z" fill="black"/>
</g>
<defs>
<clipPath id="clip0_2608_1040">
<rect width="20" height="20" fill="white"/>
</clipPath>
</defs>
</svg>
