<svg width="20" height="20" viewBox="0 0 20 20" fill="none" xmlns="http://www.w3.org/2000/svg">
<path opacity="0.8" fill-rule="evenodd" clip-rule="evenodd" d="M5.55736 12.7633C5.57351 12.6582 5.62278 12.5609 5.69802 12.4857L15.0919 3.09183C15.2871 2.89657 15.6037 2.89657 15.799 3.09183L19.4241 6.71692C19.6193 6.91219 19.6193 7.22877 19.4241 7.42403L10.0302 16.8179C9.95498 16.8931 9.85771 16.9424 9.75254 16.9585L5.46989 17.6161C5.31252 17.6402 5.15304 17.588 5.04046 17.4754C4.92787 17.3628 4.87564 17.2034 4.8998 17.046L5.55736 12.7633Z" fill="#AB92F0"/>
<path fill-rule="evenodd" clip-rule="evenodd" d="M3.94434 11.7906C3.96048 11.6854 4.00976 11.5882 4.08499 11.5129L14.1629 1.435C14.3582 1.23974 14.6748 1.23974 14.87 1.435L18.7591 5.32409C18.9544 5.51935 18.9544 5.83594 18.7591 6.0312L8.68119 16.1091C8.60595 16.1844 8.50868 16.2336 8.40351 16.2498L3.80898 16.9552C3.65161 16.9794 3.49213 16.9272 3.37955 16.8146C3.26696 16.702 3.21473 16.5425 3.23889 16.3851L3.94434 11.7906ZM4.9079 12.1042L4.33072 15.8634L8.08988 15.2862L17.6985 5.67764L14.5165 2.49566L4.9079 12.1042Z" fill="black"/>
<path fill-rule="evenodd" clip-rule="evenodd" d="M15.4718 8.17283L11.9353 4.64246L12.6418 3.93474L16.1783 7.46511L15.4718 8.17283Z" fill="black"/>
</svg>
