<svg xmlns="http://www.w3.org/2000/svg" width="20" height="20" viewBox="0 0 20 20">
  <g fill="none" fill-rule="evenodd">
    <rect width="2" height="5" x="17" y="7.5" fill="#AB92F0" rx=".5"/>
    <path fill="#AB92F0" stroke="#AB92F0" d="M4.5 8H6.5V12H4.5zM8 8H10V12H8zM11.5 8H13.5V12H11.5z"/>
    <path fill="#AB92F0" fill-rule="nonzero" d="M4,6.5 C3.44771525,6.5 3,6.94771525 3,7.5 L3,12.5 C3,13.0522847 3.44771525,13.5 4,13.5 L14,13.5 C14.5522847,13.5 15,13.0522847 15,12.5 L15,7.5 C15,6.94771525 14.5522847,6.5 14,6.5 L4,6.5 Z M4,4.5 L14,4.5 C15.6568542,4.5 17,5.84314575 17,7.5 L17,12.5 C17,14.1568542 15.6568542,15.5 14,15.5 L4,15.5 C2.34314575,15.5 1,14.1568542 1,12.5 L1,7.5 C1,5.84314575 2.34314575,4.5 4,4.5 Z"/>
  </g>
</svg>
