<svg xmlns="http://www.w3.org/2000/svg" width="20" height="20" viewBox="0 0 20 20">
  <g fill="none" fill-rule="evenodd">
    <g transform="translate(5 2)">
      <path fill="#FFF" d="M0,5 L0,1 C0,0.44771525 0.373096042,0 0.833333333,0 L0.833333333,0 L9.16666667,0 C9.62690396,-1.11022302e-16 10,0.44771525 10,1 L10,5"/>
      <path stroke="#AB92F0" stroke-linecap="round" stroke-linejoin="round" stroke-width="2" d="M0,5 L0,1 C0,0.44771525 0.373096042,0 0.833333333,0 L0.833333333,0 L9.16666667,0 C9.62690396,-1.11022302e-16 10,0.44771525 10,1 L10,5"/>
    </g>
    <rect width="17" height="10" x="1.5" y="6.5" fill="#AB92F0" stroke="#AB92F0" rx="3"/>
    <g transform="translate(5 12)">
      <path fill="#FFF" d="M0,6 L0,1.2 C0,0.5372583 0.373096042,0 0.833333333,0 L0.833333333,0 L9.16666667,0 C9.62690396,-1.33226763e-16 10,0.5372583 10,1.2 L10,6" transform="matrix(1 0 0 -1 0 6)"/>
      <path stroke="#AB92F0" stroke-linecap="round" stroke-linejoin="round" stroke-width="2" d="M0,6 L0,1.2 C0,0.5372583 0.373096042,0 0.833333333,0 L0.833333333,0 L9.16666667,0 C9.62690396,-1.33226763e-16 10,0.5372583 10,1.2 L10,6" transform="matrix(1 0 0 -1 0 6)"/>
    </g>
    <path stroke="#AB92F0" stroke-linecap="round" d="M7 15.5L13 15.5M7 13.5L13 13.5"/>
  </g>
</svg>
