<svg width="20" height="20" viewBox="0 0 20 20" fill="none" xmlns="http://www.w3.org/2000/svg">
<g clip-path="url(#clip0_2608_811)">
<g opacity="0.8">
<path d="M17.1009 10.8969C17.1009 14.4735 14.2015 17.3729 10.6249 17.3729C7.04837 17.3729 4.14899 14.4735 4.14899 10.8969C4.14899 7.32034 7.04837 4.42096 10.6249 4.42096C14.2015 4.42096 17.1009 7.32034 17.1009 10.8969Z" fill="#AB92F0"/>
<path fill-rule="evenodd" clip-rule="evenodd" d="M10.6249 15.3729C13.0969 15.3729 15.1009 13.3689 15.1009 10.8969C15.1009 8.42491 13.0969 6.42096 10.6249 6.42096C8.15294 6.42096 6.14899 8.42491 6.14899 10.8969C6.14899 13.3689 8.15294 15.3729 10.6249 15.3729ZM10.6249 17.3729C14.2015 17.3729 17.1009 14.4735 17.1009 10.8969C17.1009 7.32034 14.2015 4.42096 10.6249 4.42096C7.04837 4.42096 4.14899 7.32034 4.14899 10.8969C4.14899 14.4735 7.04837 17.3729 10.6249 17.3729Z" fill="#AB92F0"/>
<path fill-rule="evenodd" clip-rule="evenodd" d="M4.49351 12.288L4.97396 11.8782L4.32505 11.1174L3.80454 11.5613L3.78647 11.5803C2.93935 12.472 2.28547 13.3262 1.90726 14.074C1.55044 14.7795 1.34696 15.5792 1.76608 16.1924C2.13047 16.7254 2.79897 16.8674 3.45422 16.851C4.13558 16.8339 4.96924 16.6452 5.88797 16.3281C7.73243 15.6916 10.0318 14.4984 12.3603 12.9067C14.6969 11.3095 16.5014 9.59869 17.6188 8.10629C18.1759 7.36231 18.578 6.65167 18.7804 6.02C18.9779 5.40358 19.0161 4.75651 18.6714 4.25223C18.4451 3.92125 18.1022 3.77971 17.7547 3.74398C17.4223 3.70979 17.05 3.7665 16.6725 3.86033C15.9745 4.03381 15.103 4.37698 14.1525 4.75125C14.0751 4.78174 13.9971 4.81243 13.9187 4.84326L13.3656 5.07458L12.796 5.64424L13.5031 6.35135L13.9334 5.92101L14.2896 5.77195C14.3576 5.74524 14.4247 5.71882 14.4911 5.6927C15.4725 5.30651 16.283 4.98755 16.9137 4.83081C17.2507 4.74703 17.4909 4.72212 17.6524 4.73873C17.7989 4.7538 17.8314 4.79547 17.8458 4.81655C17.9322 4.94285 17.989 5.21252 17.8281 5.71488C17.672 6.20199 17.3385 6.81217 16.8183 7.50694C15.7813 8.89202 14.0645 10.5304 11.796 12.0811C9.51938 13.6373 7.30013 14.7829 5.56175 15.3828C4.68906 15.684 3.96524 15.8379 3.42921 15.8513C2.86708 15.8654 2.65829 15.7255 2.59163 15.628C2.51157 15.5109 2.46211 15.1926 2.79962 14.5253C3.11341 13.9049 3.68796 13.1383 4.49351 12.288Z" fill="#AB92F0"/>
</g>
<path fill-rule="evenodd" clip-rule="evenodd" d="M10.1255 3.92316C6.82506 3.92316 4.14954 6.59868 4.14954 9.89911C4.14954 13.1995 6.82506 15.8751 10.1255 15.8751C13.4259 15.8751 16.1014 13.1995 16.1014 9.89911C16.1014 6.59868 13.4259 3.92316 10.1255 3.92316ZM3.14954 9.89911C3.14954 6.0464 6.27278 2.92316 10.1255 2.92316C13.9782 2.92316 17.1014 6.0464 17.1014 9.89911C17.1014 13.7518 13.9782 16.8751 10.1255 16.8751C6.27278 16.8751 3.14954 13.7518 3.14954 9.89911Z" fill="black"/>
<path fill-rule="evenodd" clip-rule="evenodd" d="M2.30013 13.5276C1.96262 14.1949 2.01209 14.5131 2.09215 14.6303C2.15881 14.7278 2.3676 14.8676 2.92973 14.8535C3.46576 14.8401 4.18958 14.6862 5.06226 14.385C6.80065 13.7851 9.0199 12.6396 11.2965 11.0834C13.565 9.53266 15.2818 7.89425 16.3189 6.50917C16.8391 5.8144 17.1725 5.20422 17.3286 4.71711C17.4895 4.21475 17.4327 3.94508 17.3464 3.81878C17.3319 3.7977 17.2994 3.75603 17.1529 3.74096C16.9914 3.72435 16.7513 3.74926 16.4142 3.83304C15.7835 3.98978 14.973 4.30875 13.9916 4.69493C13.9236 4.7217 13.8547 4.74879 13.7851 4.77617L13.4192 3.84549C13.4977 3.81466 13.5756 3.78397 13.653 3.75348C14.6035 3.37921 15.475 3.03604 16.173 2.86256C16.5505 2.76873 16.9228 2.71202 17.2552 2.74621C17.6027 2.78194 17.9457 2.92348 18.1719 3.25446C18.5166 3.75874 18.4784 4.40581 18.2809 5.02223C18.0785 5.6539 17.6764 6.36454 17.1194 7.10852C16.0019 8.60092 14.1974 10.3117 11.8608 11.9089C9.5323 13.5006 7.23295 14.6938 5.38849 15.3303C4.46976 15.6474 3.6361 15.8362 2.95474 15.8532C2.29948 15.8696 1.63098 15.7277 1.2666 15.1946C0.847479 14.5815 1.05096 13.7817 1.40777 13.0762C1.78598 12.3284 2.43987 11.4742 3.28699 10.5825L4.01197 11.2713C3.197 12.1291 2.61625 12.9025 2.30013 13.5276Z" fill="black"/>
</g>
<defs>
<clipPath id="clip0_2608_811">
<rect width="20" height="20" fill="white"/>
</clipPath>
</defs>
</svg>
