<svg width="20" height="20" viewBox="0 0 20 20" fill="none" xmlns="http://www.w3.org/2000/svg">
<g opacity="0.8">
<path fill-rule="evenodd" clip-rule="evenodd" d="M11.5 15.8995L6.86475 18L7.39781 12.8702L4 9.03851L8.96471 7.96859L11.5 3.5L14.0353 7.96859L19 9.03851L15.6022 12.8702L16.1353 18L11.5 15.8995Z" fill="#AB92F0" stroke="#AB92F0" stroke-linecap="round" stroke-linejoin="round"/>
</g>
<path fill-rule="evenodd" clip-rule="evenodd" d="M5.57113 17.4554L10 15.4484L14.4289 17.4554C14.7806 17.6148 15.1725 17.3324 15.1326 16.9483L14.6223 12.0373L17.8741 8.37025C18.128 8.08399 17.9794 7.63033 17.6053 7.54973L12.8596 6.52701L10.4349 2.25327C10.2433 1.91558 9.75672 1.91558 9.56513 2.25327L7.14039 6.52701L2.39468 7.54973C2.02067 7.63033 1.87207 8.08399 2.12591 8.37025L5.37776 12.0373L4.86744 16.9483C4.82753 17.3324 5.21945 17.6148 5.57113 17.4554ZM9.79364 14.4441L5.95215 16.1849L6.39514 11.9218C6.40963 11.7824 6.36492 11.6433 6.27192 11.5384L3.44186 8.34701L7.57005 7.45737C7.70938 7.42735 7.82927 7.33929 7.8996 7.21533L10 3.51324L12.1004 7.21533C12.1708 7.33929 12.2906 7.42735 12.43 7.45737L16.5582 8.34701L13.7281 11.5384C13.6351 11.6433 13.5904 11.7824 13.6049 11.9218L14.0479 16.1849L10.2064 14.4441C10.0752 14.3846 9.9248 14.3846 9.79364 14.4441Z" fill="black"/>
</svg>
