<svg xmlns="http://www.w3.org/2000/svg" width="20" height="20" viewBox="0 0 20 20">
  <g fill="none" fill-rule="evenodd">
    <path fill="#AB92F0" d="M9 7H11V18H9z"/>
    <path stroke="#AB92F0" stroke-linecap="round" stroke-linejoin="round" stroke-width="2" d="M8.10945564,7.02221194 C8.93788276,7.02221194 9.37086249,5.40998647 9.37086249,4.20465593 C9.37086249,2.9993254 8.69928962,2.02221194 7.87086249,2.02221194 C7.04243537,2.02221194 6.37086249,2.9993254 6.37086249,4.20465593 C6.37086249,5.40998647 7.28102851,7.02221194 8.10945564,7.02221194 Z" transform="scale(-1 1) rotate(49 0 -12.749)"/>
    <path stroke="#AB92F0" stroke-linecap="round" stroke-linejoin="round" stroke-width="2" d="M12.6094556,7.02221194 C13.4378828,7.02221194 13.8708625,5.40998647 13.8708625,4.20465593 C13.8708625,2.9993254 13.1992896,2.02221194 12.3708625,2.02221194 C11.5424354,2.02221194 10.8708625,2.9993254 10.8708625,4.20465593 C10.8708625,5.40998647 11.7810285,7.02221194 12.6094556,7.02221194 Z" transform="rotate(49 12.37 4.522)"/>
    <path fill="#AB92F0" d="M9 5H11V19H9z" transform="rotate(90 10 12)"/>
    <path stroke="#AB92F0" stroke-width="2" d="M3,7 L3,18 L17,18 L17,7 L3,7 Z" transform="matrix(-1 0 0 1 20 0)"/>
  </g>
</svg>
