<svg xmlns="http://www.w3.org/2000/svg" width="20" height="20" viewBox="0 0 20 20">
  <g fill="none" fill-rule="evenodd" stroke-linecap="round" stroke-linejoin="round">
    <path stroke="#AB92F0" stroke-width="2" d="M11.0930191,1.90698092 C10.5429982,2.30209158 10.0480101,2.88073369 9.63350892,3.5988105 C8.81916909,5.009563 8.31548944,6.95849944 8.31548944,9.11123518 C8.31548944,11.2639709 8.81916909,13.2129074 9.63350892,14.6236599 C10.0480101,15.3417367 10.5429982,15.9203788 11.0930191,16.3154894" transform="rotate(-90 9.704 9.111)"/>
    <path stroke="#AB92F0" stroke-width="2" d="M10,11 L10,13.5" transform="matrix(-1 0 0 1 20 0)"/>
    <path stroke="#AB92F0" stroke-width="2" d="M6.5,11 L6,13"/>
    <path stroke="#AB92F0" stroke-width="2" d="M13.5,11 L13,13" transform="matrix(-1 0 0 1 27 0)"/>
    <path stroke="#AB92F0" stroke-width="2" d="M17.8177605,9 L15.8177605,11" transform="matrix(-1 0 0 1 33.818 0)"/>
    <path stroke="#AB92F0" stroke-width="2" d="M3.81776046,9 L2,11"/>
  </g>
</svg>
