<svg xmlns="http://www.w3.org/2000/svg" width="20" height="20" viewBox="0 0 20 20">
  <g fill="none" fill-rule="evenodd">
    <path stroke="#AB92F0" stroke-width="1.5" d="M6.45332716,3.58922868 C5.42236385,4.01565412 4.75,5.02136457 4.75,6.13703656 L4.75,10.5225332 C4.75,10.6428461 4.78061259,10.7611808 4.83895676,10.8664004 C5.02886935,11.2088943 5.46047014,11.332586 5.8029641,11.1426734 L6.02988374,11.0168466 C7.46274737,10.222325 9.2039193,10.222325 10.6367829,11.0168466 L11.0906222,11.2685001 C12.0710026,11.8121201 13.2623307,11.8121201 14.2427111,11.2685001 L14.9768289,10.8614325 C15.7625397,10.4257565 16.25,9.59807555 16.25,8.69965752 L16.25,4.6380621 C16.25,4.55387241 16.2375454,4.47014584 16.2130407,4.3896013 C16.0758195,3.93856993 15.5989467,3.68417645 15.1479153,3.82139756 L14.254887,4.09309116 C13.2030489,4.41310082 12.0727719,4.3583242 11.0568076,3.93810263 L9.57552879,3.3254184 C8.78007746,2.99640506 7.88658921,2.99640506 7.09113788,3.3254184 L6.45332716,3.58922868 Z"/>
    <rect width="1" height="15" x="4.5" y="2.5" fill="#FFF" stroke="#AB92F0" rx=".5"/>
  </g>
</svg>
