<svg xmlns="http://www.w3.org/2000/svg" width="20" height="20" viewBox="0 0 20 20">
  <g fill="none" fill-rule="evenodd" stroke-linecap="round" stroke-linejoin="round">
    <path stroke="#AB92F0" stroke-width="2" d="M10 10C13.4010082 10 15 7.44269491 15 4.2880992 15 3.51365019 14.8650819 2.77519964 14.6206319 2.10174813 14.3672176 1.40360047 12.4180569 4.54583189 11.9575001 4.01970089 11.4969432 3.49356989 10.6779258 2.10174813 10 2.10174813 9.32207418 2.10174813 8.60452759 3.49356989 8.14397075 4.01970089 7.68341391 4.54583189 5.6327824 1.40360047 5.37936812 2.10174813 5.13491807 2.77519964 5 3.51365019 5 4.2880992 5 7.44269491 6.59899176 10 10 10zM10 11L10 17.5"/>
    <path stroke="#AB92F0" stroke-width="2" d="M13.0539915,19.6032393 C14.158561,19.6032393 15.349753,17.1116939 15.349753,15.1518502 C15.349753,13.1920065 14.4543225,11.6032393 13.349753,11.6032393 C12.2451835,11.6032393 11.349753,13.1920065 11.349753,15.1518502 C11.349753,17.1116939 11.949422,19.6032393 13.0539915,19.6032393 Z" transform="rotate(50 13.35 15.603)"/>
    <path stroke="#AB92F0" stroke-width="2" d="M6.05399149,19.6032393 C7.15856099,19.6032393 8.34975299,17.1116939 8.34975299,15.1518502 C8.34975299,13.1920065 7.45432249,11.6032393 6.34975299,11.6032393 C5.24518349,11.6032393 4.34975299,13.1920065 4.34975299,15.1518502 C4.34975299,17.1116939 4.94942199,19.6032393 6.05399149,19.6032393 Z" transform="scale(-1 1) rotate(50 0 1.986)"/>
  </g>
</svg>
