<svg xmlns="http://www.w3.org/2000/svg" width="20" height="20" viewBox="0 0 20 20">
  <g fill="none" fill-rule="evenodd">
    <rect width="1" height="10" x="9.5" y="7.5" fill="#AB92F0" stroke="#AB92F0"/>
    <path stroke="#AB92F0" stroke-linecap="round" stroke-linejoin="round" stroke-width="1.5" d="M8.10945564,7.02221194 C8.93788276,7.02221194 9.37086249,5.40998647 9.37086249,4.20465593 C9.37086249,2.9993254 8.69928962,2.02221194 7.87086249,2.02221194 C7.04243537,2.02221194 6.37086249,2.9993254 6.37086249,4.20465593 C6.37086249,5.40998647 7.28102851,7.02221194 8.10945564,7.02221194 Z" transform="scale(-1 1) rotate(49 0 -12.749)"/>
    <path stroke="#AB92F0" stroke-linecap="round" stroke-linejoin="round" stroke-width="1.5" d="M12.6094556,7.02221194 C13.4378828,7.02221194 13.8708625,5.40998647 13.8708625,4.20465593 C13.8708625,2.9993254 13.1992896,2.02221194 12.3708625,2.02221194 C11.5424354,2.02221194 10.8708625,2.9993254 10.8708625,4.20465593 C10.8708625,5.40998647 11.7810285,7.02221194 12.6094556,7.02221194 Z" transform="rotate(49 12.37 4.522)"/>
    <rect width="1" height="13" x="9.5" y="5.5" fill="#AB92F0" stroke="#AB92F0" transform="rotate(90 10 12)"/>
    <path stroke="#AB92F0" stroke-width="1.5" d="M3,6.75 C2.86192881,6.75 2.75,6.86192881 2.75,7 L2.75,18 C2.75,18.1380712 2.86192881,18.25 3,18.25 L17,18.25 C17.1380712,18.25 17.25,18.1380712 17.25,18 L17.25,7 C17.25,6.86192881 17.1380712,6.75 17,6.75 L3,6.75 Z" transform="matrix(-1 0 0 1 20 0)"/>
  </g>
</svg>
