<svg xmlns="http://www.w3.org/2000/svg" width="20" height="20" viewBox="0 0 20 20">
  <g fill="none" fill-rule="evenodd">
    <circle cx="10" cy="10" r="8" stroke="#AB92F0" stroke-width="1.5"/>
    <ellipse cx="10" cy="10" stroke="#AB92F0" stroke-width="1.5" rx="3" ry="7.5"/>
    <path stroke="#AB92F0" stroke-width="1.5" d="M9.29012263,12.2901226 C9.39704207,12.1719021 9.50076608,12.0456464 9.60101705,11.9118407 C10.6276957,10.5415251 11.2901226,8.37937508 11.2901226,5.94671733 C11.2901226,3.87564952 10.8099863,2.00064952 10.0337109,0.643416474 C9.835376,0.296649553 9.61770978,-0.0163186046 9.38378095,-0.290122631" transform="rotate(90 10.29 6)"/>
    <path stroke="#AB92F0" stroke-width="1.5" d="M9.29012263,20.2901226 C9.39704207,20.1719021 9.50076608,20.0456464 9.60101705,19.9118407 C10.6276957,18.5415251 11.2901226,16.3793751 11.2901226,13.9467173 C11.2901226,11.8756495 10.8099863,10.0006495 10.0337109,8.64341647 C9.835376,8.29664955 9.61770978,7.9836814 9.38378095,7.70987737" transform="matrix(0 -1 -1 0 24.29 24.29)"/>
    <path stroke="#AB92F0" stroke-linecap="square" stroke-width="1.5" d="M2.5,10 L17.5,10"/>
  </g>
</svg>
