<svg xmlns="http://www.w3.org/2000/svg" width="20" height="20" viewBox="0 0 20 20">
  <g fill="none" fill-rule="evenodd" stroke-linecap="round" stroke-linejoin="round">
    <g stroke="#AB92F0" stroke-width="1.5" transform="rotate(-90 15.306 4.076)">
      <path d="M14.6313673,4.27364647 C12.6313673,3.79489436 11.6313673,2.71259401 11.6313673,1.02674542 C11.6313673,-0.659103165 12.6313673,-1.99459681 14.6313673,-2.97973553 L14.6313673,6.52026447" transform="rotate(90 13.131 1.77)"/>
      <rect width="7" height="2" x=".881" y="2.27" rx="1"/>
    </g>
    <path stroke="#AB92F0" stroke-width="1.5" d="M5.03178656,2.5 C4.94475161,4.24203848 5.03644982,5.43902311 5.30688118,6.09095389 C5.57731253,6.74288467 6.14168548,7.04416183 7,6.99478538"/>
    <path stroke="#AB92F0" stroke-width="1.5" d="M7.03178656,2.5 C6.94475161,4.24203848 7.03644982,5.43902311 7.30688118,6.09095389 C7.57731253,6.74288467 8.14168548,7.04416183 9,6.99478538" transform="matrix(-1 0 0 1 16 0)"/>
    <path stroke="#AB92F0" stroke-width="1.5" d="M7,2.5 L7,11.4997941"/>
    <rect width="7" height="2" x="3.5" y="14" stroke="#AB92F0" stroke-width="1.5" rx="1" transform="rotate(-90 7 15)"/>
  </g>
</svg>
