<svg xmlns="http://www.w3.org/2000/svg" width="20" height="20" viewBox="0 0 20 20">
  <g fill="none" fill-rule="evenodd">
    <path fill="#AB92F0" d="M10,2 L10,2 C11.3807119,2 12.5,3.11928813 12.5,4.5 L12.5,8.5 C12.5,9.88071187 11.3807119,11 10,11 L10,11 C8.61928813,11 7.5,9.88071187 7.5,8.5 L7.5,4.5 C7.5,3.11928813 8.61928813,2 10,2 Z"/>
    <g stroke="#AB92F0" transform="translate(6 14)">
      <ellipse cx="4" cy="3.5" fill="#FFF" rx="4" ry="1"/>
      <path stroke-linecap="square" stroke-width="2" d="M4.03571429,0.5 L4.03571429,3"/>
    </g>
    <path stroke="#AB92F0" stroke-linecap="round" stroke-linejoin="round" stroke-width="2" d="M15,8 L15,9.8 C15,12.1195959 12.7614237,14 10,14 C7.23857625,14 5,12.1195959 5,9.8 L5,8"/>
  </g>
</svg>
