<svg xmlns="http://www.w3.org/2000/svg" width="20" height="20" viewBox="0 0 20 20">
  <g fill="none" fill-rule="evenodd" stroke="#AB92F0" transform="rotate(-90 10.75 9.25)">
    <circle cx="7.5" cy="10.25" r="1" stroke-linecap="round" stroke-linejoin="round"/>
    <circle cx="7.5" cy="6.75" r="1" stroke-linecap="round" stroke-linejoin="round"/>
    <circle cx="15.5" cy="8.5" r="2.5" stroke-width="2"/>
    <rect width="3" height="4" x="1.5" y="6.5" fill="#AB92F0" rx="1.5" transform="rotate(90 3 8.5)"/>
    <g transform="translate(15 .5)">
      <path stroke-linecap="round" stroke-linejoin="round" stroke-width="2" d="M0.5,14.5 L2.5,14.5" transform="rotate(90 1.5 14.5)"/>
      <path stroke-linecap="round" stroke-linejoin="round" stroke-width="2" d="M0.5,1.5 L2.5,1.5" transform="rotate(90 1.5 1.5)"/>
      <path stroke-linecap="square" stroke-width="1.5" d="M0.25,4.25 L2.25,4.75" transform="rotate(90 1.25 4.5)"/>
      <path stroke-linecap="square" stroke-width="1.5" d="M0.25,11.25 L2.25,11.75" transform="matrix(0 1 1 0 -10.25 10.25)"/>
    </g>
    <path stroke-linecap="round" stroke-width="2" d="M9,4.5 L9,4.5 C11.209139,4.5 13,6.290861 13,8.5 L13,11 C13,11.8284271 12.3284271,12.5 11.5,12.5 L6.5,12.5 C5.67157288,12.5 5,11.8284271 5,11 L5,8.5 C5,6.290861 6.790861,4.5 9,4.5 Z" transform="rotate(90 9 8.5)"/>
  </g>
</svg>
