<svg xmlns="http://www.w3.org/2000/svg" width="20" height="20" viewBox="0 0 20 20">
  <g fill="none" fill-rule="evenodd">
    <path stroke="#AB92F0" stroke-linecap="round" stroke-linejoin="round" stroke-width="1.5" d="M8.07679614,18.5902512 C11.7400962,18.5902512 17.0087456,14.727921 15.0016938,11.8044355 C13.8744724,10.1625171 11.4881287,12.4377225 10.2877933,11.3011879 C9.08745794,10.1646533 10.2877933,7.41768377 8.07679614,6.02938739 C5.03800526,4.12131515 1.44380458,8.84123253 1.44380458,12.3098193 C1.44380458,15.778406 4.41349605,18.5902512 8.07679614,18.5902512 Z" transform="rotate(-165 8.444 12.09)"/>
    <circle cx="5.75" cy="8.75" r="1" fill="#AB92F0" stroke="#AB92F0"/>
    <circle cx="9.75" cy="8.75" r="1" fill="#AB92F0" stroke="#AB92F0"/>
    <circle cx="12.25" cy="11.75" r="1" fill="#AB92F0" stroke="#AB92F0"/>
    <circle cx="10.75" cy="15.25" r="1" fill="#AB92F0" stroke="#AB92F0"/>
    <g stroke="#AB92F0" transform="rotate(-28 8.824 -23.36)">
      <path fill="#AB92F0" d="M1.06223562,3.55204786 C1.05242653,3.55211223 1.05242653,3.55211223 1.0426225,3.55243401 C0.76764332,3.56326605 0.553509749,3.79496181 0.56434178,4.06994098 L0.932094792,13.4056254 C0.935316395,13.4874082 1.00255251,13.5520479 1.08439875,13.5520479 C1.16507071,13.5520479 1.23125435,13.4881633 1.23410533,13.4075417 L1.56431437,4.06971808 C1.56457464,4.06088481 1.56457464,4.06088481 1.5646267,4.05204786 C1.5646267,3.77590549 1.34076908,3.55204786 1.0646267,3.55204786 L1.06223562,3.55204786 Z"/>
      <path stroke-linecap="round" d="M0.999609631,3.23216072 C1.55189438,3.23216072 2,2.91368292 2,2.08525579 C2,1.25682867 1.55228475,-1.04805054e-13 1,-1.04805054e-13 C0.44771525,-1.04805054e-13 -4.4408921e-16,1.25682867 -4.4408921e-16,2.08525579 C-4.4408921e-16,2.91368292 0.447324881,3.23216072 0.999609631,3.23216072 Z"/>
    </g>
  </g>
</svg>
