<svg xmlns="http://www.w3.org/2000/svg" width="20" height="20" viewBox="0 0 20 20">
  <g fill="none" fill-rule="evenodd" stroke-linecap="round">
    <path stroke="#AB92F0" stroke-linejoin="round" stroke-width="2" d="M6,6.9628567 L11,2.5 L11,17.5 L6,13.0048729 L6,12.931822 L2,12.931822 L2,6.93182198 L6,6.93182198 L6,6.9628567 Z"/>
    <path stroke="#AB92F0" stroke-linejoin="round" stroke-width="1.5" d="M15,12.5 C15.0518443,12.4554443 15.1021966,12.4078169 15.1509273,12.3572988 C15.3460429,12.1550269 15.515164,11.9064126 15.64999,11.6230759 C15.8711225,11.1583662 16,10.6002519 16,10 C16,9.03377032 15.6660582,8.17672578 15.1509273,7.64270117 C15.1021966,7.59218309 15.0518443,7.54455569 15,7.5"/>
    <path stroke="#AB92F0" stroke-width="1.5" d="M16,15.5 C16.1838865,15.3793899 16.3613875,15.2501624 16.5319009,15.1129072 C16.7027477,14.9753836 16.8665797,14.8298009 17.0227913,14.6767522 C17.179003,14.5237034 17.3275944,14.3631888 17.4679601,14.1958013 C17.6080519,14.0287404 17.7399501,13.8548335 17.8630528,13.6746703 C17.985675,13.4952102 18.0995703,13.3095425 18.2041436,13.11825 C18.3081061,12.9280752 18.4028552,12.7323411 18.4878066,12.5316205 C18.5720354,12.332607 18.6466323,12.1286915 18.7110278,11.9204321 C18.774673,11.714599 18.8283529,11.5045227 18.8715176,11.290742 C18.9140535,11.0800758 18.9463782,10.8658125 18.9679655,10.6484676 C18.9891559,10.4351184 19,10.2188 19,10 C19,9.78120005 18.9891559,9.5648816 18.9679655,9.35153241 C18.9463782,9.13418753 18.9140535,8.91992417 18.8715176,8.70925803 C18.8283529,8.49547731 18.774673,8.28540097 18.7110278,8.07956789 C18.6466323,7.87130848 18.5720354,7.66739298 18.4878066,7.46837955 C18.4028552,7.26765893 18.3081061,7.07192485 18.2041436,6.88174998 C18.0995703,6.69045754 17.985675,6.50478984 17.8630528,6.32532972 C17.7399501,6.14516651 17.6080519,5.97125961 17.4679601,5.80419873 C17.3275944,5.63681124 17.179003,5.47629655 17.0227913,5.32324785 C16.8665797,5.17019914 16.7027477,5.02461641 16.5319009,4.88709283 C16.3613875,4.74983759 16.1838865,4.62061008 16,4.5"/>
    <path stroke="#AB92F0" stroke-width="2" d="M2,3 L19,17"/>
  </g>
</svg>
