<svg xmlns="http://www.w3.org/2000/svg" width="20" height="20" viewBox="0 0 20 20">
  <g fill="none" fill-rule="evenodd" stroke-linecap="round" stroke-linejoin="round">
    <path stroke="#AB92F0" stroke-width="2" d="M4.82884979,2 L7,2 C7.3436423,4 8.34332015,5 9.99903352,5 C11.6547469,5 12.6550691,4 13,2 L15.1715729,2 C15.7020059,2 16.2107137,2.21071368 16.5857864,2.58578644 L19,5 L18,9.5 L16,8.5 L16,17 C16,18.1045695 15.1045695,19 14,19 L6,19 C4.8954305,19 4,18.1045695 4,17 L4,8.5 L2,9.50251811 L1.00216364,5 L3.41412616,2.58629669 C3.78924031,2.21091181 4.2981668,2 4.82884979,2 Z"/>
    <path stroke="#AB92F0" stroke-width="1.5" d="M11.5,9.5 L13.5,9.5"/>
  </g>
</svg>
