<svg xmlns="http://www.w3.org/2000/svg" width="20" height="20" viewBox="0 0 20 20">
  <g fill="none" fill-rule="evenodd">
    <g transform="translate(7.437 2)">
      <path d="M4.5,2.5 L0.626,2.5 C0.417863069,1.69048335 0.735088963,0.836906617 1.42138993,0.359801631 C2.1076909,-0.117303354 3.0183091,-0.117303354 3.70461007,0.359801631 C4.39091104,0.836906617 4.70813693,1.69048335 4.5,2.5 Z"/>
      <path fill="#AB92F0" fill-rule="nonzero" d="M4.50006104,2.49993896 L4.49926758,2.49993896 L0.626220703,2.49993896 C0.58416748,2.33642578 0.563323975,2.1685791 0.563323975,2.00042725 C0.563323975,0.897216797 1.4604187,-0.000305175781 2.56311035,-0.000305175781 C3.665802,-0.000305175781 4.56289673,0.897216797 4.56289673,2.00042725 C4.56289673,2.16931152 4.54180908,2.33709717 4.50024414,2.49920654 L4.50006104,2.49993896 Z"/>
    </g>
    <path stroke="#AB92F0" stroke-linecap="round" stroke-width="2" d="M4.5,4.5 L15.5,4.5"/>
    <path fill="#AB92F0" fill-rule="nonzero" d="M14.5,18.5 L5.5,18.5 C4.94771525,18.5 4.5,18.0522847 4.5,17.5 L4.5,7 C4.5,6.44771525 4.94771525,6 5.5,6 L14.5,6 C15.0522847,6 15.5,6.44771525 15.5,7 L15.5,17.5 C15.5,18.0522847 15.0522847,18.5 14.5,18.5 Z M13,8 C12.7238576,8 12.5,8.22385763 12.5,8.5 L12.5,15.5 C12.5,15.7761424 12.7238576,16 13,16 C13.2761424,16 13.5,15.7761424 13.5,15.5 L13.5,8.5 C13.5,8.22385763 13.2761424,8 13,8 Z M10,8 C9.72385763,8 9.5,8.22385763 9.5,8.5 L9.5,15.5 C9.5,15.7761424 9.72385763,16 10,16 C10.2761424,16 10.5,15.7761424 10.5,15.5 L10.5,8.5 C10.5,8.22385763 10.2761424,8 10,8 Z M7,8 C6.72385763,8 6.5,8.22385763 6.5,8.5 L6.5,15.5 C6.5,15.7761424 6.72385763,16 7,16 C7.27614237,16 7.5,15.7761424 7.5,15.5 L7.5,8.5 C7.5,8.22385763 7.27614237,8 7,8 Z"/>
  </g>
</svg>
