<svg xmlns="http://www.w3.org/2000/svg" width="20" height="20" viewBox="0 0 20 20">
  <g fill="none" fill-rule="evenodd">
    <circle cx="7.5" cy="16.5" r="1.5" fill="#AB92F0" stroke="#AB92F0" stroke-width="1.5"/>
    <circle cx="16.5" cy="16.5" r="1.5" fill="#AB92F0" stroke="#AB92F0" stroke-width="1.5"/>
    <rect width="11.5" height="9.5" x="7.25" y="5.75" stroke="#AB92F0" stroke-width="1.5" rx="2"/>
    <path stroke="#AB92F0" stroke-linecap="round" d="M10.25 8.5L15.75 8.5M10.25 10.5L15.75 10.5M10.25 12.5L15.75 12.5"/>
    <path stroke="#AB92F0" stroke-width="1.5" d="M0.75,12.1130792 L0.75,14 C0.75,14.6903559 1.30964406,15.25 2,15.25 L6,15.25 C6.69035594,15.25 7.25,14.6903559 7.25,14 L7.25,10 C7.25,9.30964406 6.69035594,8.75 6,8.75 L2.71016207,8.75 C2.16177149,8.75 1.67741831,9.10743485 1.51572962,9.63144725 L0.75,12.1130792 Z"/>
    <polygon fill="#AB92F0" stroke="#AB92F0" stroke-linecap="round" stroke-linejoin="round" points="2.79 10.6 4.5 10.6 4.5 12.6 2.5 12.6 2.5 11.75"/>
  </g>
</svg>
