<svg xmlns="http://www.w3.org/2000/svg" width="20" height="20" viewBox="0 0 20 20">
  <g fill="none" fill-rule="evenodd" stroke="#AB92F0" transform="rotate(-90 9.5 7.5)">
    <path stroke-linecap="round" stroke-linejoin="round" stroke-width="2" d="M5,11 C5.05184434,10.9465332 5.10219655,10.8893803 5.15092731,10.8287586 C5.34604289,10.5860323 5.51516401,10.2876952 5.64999003,9.94769107 C5.8711225,9.39003944 6,8.72030229 6,8 C6,6.84052438 5.66605823,5.81207094 5.15092731,5.1712414 C5.10219655,5.11061971 5.05184434,5.05346683 5,5"/>
    <path stroke-linecap="round" stroke-width="2" d="M7.61 13.5C7.73259102 13.3793899 7.85092498 13.2501624 7.9646006 13.1129072 8.07849847 12.9753836 8.18771977 12.8298009 8.29186089 12.6767522 8.39600201 12.5237034 8.49506295 12.3631888 8.58864008 12.1958013 8.68203463 12.0287404 8.76996675 11.8548335 8.85203519 11.6746703 8.93378336 11.4952102 9.00971352 11.3095425 9.0794291 11.11825 9.14873738 10.9280752 9.21190347 10.7323411 9.2685377 10.5316205 9.32469024 10.332607 9.37442156 10.1286915 9.41735185 9.92043211 9.45978198 9.71459903 9.49556862 9.50452269 9.52434508 9.29074197 9.5527023 9.08007583 9.57425212 8.86581247 9.58864364 8.64846759 9.60277058 8.4351184 9.61 8.21879995 9.61 8 9.61 7.78120005 9.60277058 7.5648816 9.58864364 7.35153241 9.57425212 7.13418753 9.5527023 6.91992417 9.52434508 6.70925803 9.49556862 6.49547731 9.45978198 6.28540097 9.41735185 6.07956789 9.37442156 5.87130848 9.32469024 5.66739298 9.2685377 5.46837955 9.21190347 5.26765893 9.14873738 5.07192485 9.0794291 4.88174998 9.00971352 4.69045754 8.93378336 4.50478984 8.85203519 4.32532972 8.76996675 4.14516651 8.68203463 3.97125961 8.58864008 3.80419873 8.49506295 3.63681124 8.39600201 3.47629655 8.29186089 3.32324785 8.18771977 3.17019914 8.07849847 3.02461641 7.9646006 2.88709283 7.85092498 2.74983759 7.73259102 2.62061008 7.61 2.5M10.1113733 15.5C10.2952598 15.3355317 10.4727608 15.1593124 10.6432742 14.9721461 10.814121 14.784614 10.9779529 14.5860921 11.1341646 14.3773893 11.2903763 14.1686865 11.4389677 13.9498029 11.5793334 13.7215472 11.7194252 13.4937369 11.8513234 13.2565911 11.9744261 13.010914 12.0970483 12.7661957 12.2109436 12.5130124 12.3155169 12.2521591 12.4194794 11.9928298 12.5142285 11.7259196 12.5991798 11.4522097 12.6834086 11.1808278 12.7580056 10.9027612 12.8224011 10.6187711 12.8860463 10.3380896 12.9397262 10.0516218 12.9828909 9.76010269 13.0254267 9.47283068 13.0577515 9.18065337 13.0793387 8.88427399 13.1005292 8.59334328 13.1113733 8.29836357 13.1113733 8 13.1113733 7.70163643 13.1005292 7.40665672 13.0793387 7.11572601 13.0577515 6.81934663 13.0254267 6.52716932 12.9828909 6.23989731 12.9397262 5.94837816 12.8860463 5.66191041 12.8224011 5.38122894 12.7580056 5.09723884 12.6834086 4.81917224 12.5991798 4.54779029 12.5142285 4.27408035 12.4194794 4.00717025 12.3155169 3.74784089 12.2109436 3.48698755 12.0970483 3.23380433 11.9744261 2.98908598 11.8513234 2.74340888 11.7194252 2.50626311 11.5793334 2.27845282 11.4389677 2.05019714 11.2903763 1.83131348 11.1341646 1.6226107 10.9779529 1.41390792 10.814121 1.21538602 10.6432742 1.02785386 10.4727608.840687624 10.2952598.664468289 10.1113733.5"/>
    <circle cx="1.75" cy="8" r="1.25" fill="#AB92F0" stroke-width="1.5"/>
  </g>
</svg>
