<svg width="20" height="20" viewBox="0 0 20 20" fill="none" xmlns="http://www.w3.org/2000/svg">
<path fill-rule="evenodd" clip-rule="evenodd" d="M5.67499 2.5C5.67499 1.94772 6.1227 1.5 6.67499 1.5H13.3178C13.8701 1.5 14.3178 1.94772 14.3178 2.5V6.375C14.3178 6.92728 13.8701 7.375 13.3178 7.375H6.67499C6.1227 7.375 5.67499 6.92728 5.67499 6.375V2.5ZM7.67499 3.5V5.375H12.3178V3.5H7.67499Z" fill="#AB92F0"/>
<path d="M5 5V16H15V5H14V3H16C16.5523 3 17 3.44772 17 4V17C17 17.5523 16.5523 18 16 18H4C3.44772 18 3 17.5523 3 17V4C3 3.44772 3.44772 3 4 3H6V5H5Z" fill="#AB92F0"/>
<path fill-rule="evenodd" clip-rule="evenodd" d="M12.5674 8.67659C13.0221 8.98997 13.1368 9.61267 12.8234 10.0674L11.0564 12.6317C10.5674 13.3413 9.58241 13.494 8.90159 12.9656L7.38687 11.79C6.95057 11.4514 6.87138 10.8232 7.20999 10.3869C7.54861 9.95059 8.1768 9.8714 8.6131 10.21L9.7098 11.0612L11.1765 8.93262C11.4899 8.47785 12.1126 8.36322 12.5674 8.67659Z" fill="#AB92F0"/>
</svg>
