<svg width="20" height="20" viewBox="0 0 20 20" fill="none" xmlns="http://www.w3.org/2000/svg">
<path fill-rule="evenodd" clip-rule="evenodd" d="M13 7H7C4.79086 7 3 8.79086 3 11V15C3 17.2091 4.79086 19 7 19H13C15.2091 19 17 17.2091 17 15V11C17 8.79086 15.2091 7 13 7ZM5 11C5 9.89543 5.89543 9 7 9H13C14.1046 9 15 9.89543 15 11V15C15 16.1046 14.1046 17 13 17H7C5.89543 17 5 16.1046 5 15V11Z" fill="#AB92F0"/>
<path d="M8 8C8 8.55229 7.55228 9 7 9C6.44772 9 6 8.55229 6 8V4C6 1.79086 7.79086 0 10 0C12.2091 0 14 1.79086 14 4V4.5C14 5.05228 13.5523 5.5 13 5.5C12.4477 5.5 12 5.05228 12 4.5V4C12 2.89543 11.1046 2 10 2C8.89543 2 8 2.89543 8 4V8Z" fill="#AB92F0"/>
<path fill-rule="evenodd" clip-rule="evenodd" d="M8 13C8 14.1046 8.89543 15 10 15C11.1046 15 12 14.1046 12 13C12 11.8954 11.1046 11 10 11C8.89543 11 8 11.8954 8 13ZM10.5 13C10.5 13.2761 10.2761 13.5 10 13.5C9.72386 13.5 9.5 13.2761 9.5 13C9.5 12.7239 9.72386 12.5 10 12.5C10.2761 12.5 10.5 12.7239 10.5 13Z" fill="#AB92F0"/>
</svg>
