<svg width="20" height="20" viewBox="0 0 20 20" fill="none" xmlns="http://www.w3.org/2000/svg">
<g clip-path="url(#clip0_0_2439)">
<path fill-rule="evenodd" clip-rule="evenodd" d="M13.1976 1.21963L3.11967 11.2976C2.9692 11.448 2.87065 11.6426 2.83836 11.8529L2.13291 16.4474C2.03041 17.115 2.60551 17.6901 3.27309 17.5876L7.86762 16.8822C8.07795 16.8499 8.2725 16.7513 8.42297 16.6009L18.5009 6.52294C18.8914 6.13241 18.8914 5.49925 18.5009 5.10872L14.6118 1.21963C14.2213 0.82911 13.5881 0.829111 13.1976 1.21963ZM4.31657 15.404L4.76548 12.4802L13.9047 3.34095L16.3796 5.81583L7.24036 14.9551L4.31657 15.404Z" fill="#AB92F0"/>
<path d="M11.442 5.24658L12.5027 4.18592L15.7436 7.42683L14.6829 8.48749L11.442 5.24658Z" fill="#AB92F0"/>
</g>
<defs>
<clipPath id="clip0_0_2439">
<rect width="20" height="20" fill="white"/>
</clipPath>
</defs>
</svg>
