<svg width="20" height="20" viewBox="0 0 20 20" fill="none" xmlns="http://www.w3.org/2000/svg">
<path fill-rule="evenodd" clip-rule="evenodd" d="M3.5 11C3.5 10.1716 4.17157 9.5 5 9.5H15C15.8284 9.5 16.5 10.1716 16.5 11C16.5 11.8284 15.8284 12.5 15 12.5H5C4.17157 12.5 3.5 11.8284 3.5 11Z" fill="#AB92F0"/>
<path fill-rule="evenodd" clip-rule="evenodd" d="M6 1C6.55228 1 7 1.44772 7 2V7C7 7.55228 6.55228 8 6 8C5.44772 8 5 7.55228 5 7V2C5 1.44772 5.44772 1 6 1Z" fill="#AB92F0"/>
<path fill-rule="evenodd" clip-rule="evenodd" d="M6 6C6.55228 6 7 6.44772 7 7V9.5C7 10.0523 6.55228 10.5 6 10.5C5.44772 10.5 5 10.0523 5 9.5V7C5 6.44772 5.44772 6 6 6Z" fill="#AB92F0"/>
<path fill-rule="evenodd" clip-rule="evenodd" d="M14 6C14.5523 6 15 6.44772 15 7V9.5C15 10.0523 14.5523 10.5 14 10.5C13.4477 10.5 13 10.0523 13 9.5V7C13 6.44772 13.4477 6 14 6Z" fill="#AB92F0"/>
<path fill-rule="evenodd" clip-rule="evenodd" d="M14 1C14.5523 1 15 1.44772 15 2V7C15 7.55228 14.5523 8 14 8C13.4477 8 13 7.55228 13 7V2C13 1.44772 13.4477 1 14 1Z" fill="#AB92F0"/>
<path fill-rule="evenodd" clip-rule="evenodd" d="M15.8253 18.5647C15.5134 19.0205 14.8911 19.1372 14.4353 18.8253L4.93531 12.3253C4.4795 12.0134 4.36282 11.3911 4.67468 10.9353C4.98655 10.4795 5.60887 10.3628 6.06467 10.6747L15.5647 17.1747C16.0205 17.4866 16.1372 18.1089 15.8253 18.5647Z" fill="#AB92F0"/>
<path fill-rule="evenodd" clip-rule="evenodd" d="M4.1747 18.5647C4.48656 19.0205 5.10888 19.1372 5.56469 18.8253L15.0647 12.3253C15.5205 12.0134 15.6372 11.3911 15.3253 10.9353C15.0135 10.4795 14.3912 10.3628 13.9353 10.6747L4.43532 17.1747C3.97952 17.4866 3.86283 18.1089 4.1747 18.5647Z" fill="#AB92F0"/>
<path fill-rule="evenodd" clip-rule="evenodd" d="M14 4H6V2H14V4Z" fill="#AB92F0"/>
<path fill-rule="evenodd" clip-rule="evenodd" d="M14 7H6V5H14V7Z" fill="#AB92F0"/>
<path fill-rule="evenodd" clip-rule="evenodd" d="M2 8C2 7.44772 2.44772 7 3 7H5C5.55228 7 6 7.44772 6 8C6 8.55228 5.55228 9 5 9H3C2.44772 9 2 8.55228 2 8Z" fill="#AB92F0"/>
<path fill-rule="evenodd" clip-rule="evenodd" d="M14 8C14 7.44772 14.4477 7 15 7H17C17.5523 7 18 7.44772 18 8C18 8.55228 17.5523 9 17 9H15C14.4477 9 14 8.55228 14 8Z" fill="#AB92F0"/>
</svg>
