<svg xmlns="http://www.w3.org/2000/svg" width="20" height="20" viewBox="0 0 20 20"><g fill="none" fill-rule="evenodd"><path stroke="#AB92F0" stroke-linejoin="round" stroke-width="1.5" d="M10 3h.558L11 4H9l.373-1zm0 14h-.558L9 16h2l-.373 1zm7-7v.558L16 11V9l1 .373zM3 10v-.558L4 9v2l-1-.373z"/><path stroke="#AB92F0" stroke-linecap="round" stroke-linejoin="round" stroke-width="1.5" d="M14.95 5.05l.394.395-.395 1.02-1.414-1.415.971-.443zm-9.9 9.9l-.394-.394.394-1.02 1.414 1.414-.97.443zm9.9 0l-.395.394-1.02-.394 1.415-1.414.443.97zm-9.9-9.9l.394-.394 1.02.394-1.413 1.414-.444-.97z"/><path stroke="#AB92F0" stroke-width="4.5" d="M10 14a3.987 3.987 0 0 0 2.828-1.172A3.987 3.987 0 0 0 14 10a3.987 3.987 0 0 0-1.172-2.828A3.987 3.987 0 0 0 10 6a3.987 3.987 0 0 0-2.828 1.172A3.987 3.987 0 0 0 6 10c0 1.105.448 2.105 1.172 2.828A3.987 3.987 0 0 0 10 14z"/></g></svg>