<svg xmlns="http://www.w3.org/2000/svg" style="" width="20" height="20" viewBox="0 0 20 20"><path fill="none" stroke="currentColor" stroke-linecap="round" stroke-linejoin="round" stroke-width="2" d="M10.922 7.394a2.5 2.5 0 0 1 .571.5l5.303 6.32a2 2 0 1 1-3.065 2.571L8.43 10.466a2.5 2.5 0 0 1-.404-.673C6.758 9.94 5.394 9.425 4.46 8.31c-1.08-1.285-1.275-2.998-.623-4.319l1.741 2.076a1 1 0 0 0 1.409.123l.581-.488a1 1 0 0 0 .123-1.409L5.95 2.22c1.414-.412 3.066.078 4.145 1.364.946 1.126 1.213 2.58.827 3.81z"/></svg>