<svg xmlns="http://www.w3.org/2000/svg" style="" viewBox="0 0 20 20"><g fill="none" fill-rule="evenodd"><path fill="currentColor" stroke="currentColor" stroke-linecap="round" d="M8.126 8l.521-1.614A2 2 0 0 1 10.551 5h2.898a2 2 0 0 1 1.903 1.386L15.873 8H17.5a2 2 0 0 1 2 2v6a2 2 0 0 1-2 2h-11a2 2 0 0 1-2-2v-6a2 2 0 0 1 2-2h1.626z"/><path stroke="#000" stroke-linecap="round" d="M6.126 7l.521-1.614A2 2 0 0 1 8.551 4h2.898a2 2 0 0 1 1.903 1.386L13.873 7H15.5a2 2 0 0 1 2 2v6a2 2 0 0 1-2 2h-11a2 2 0 0 1-2-2V9a2 2 0 0 1 2-2h1.626z"/><circle cx="10" cy="11.5" r="2.5" stroke="#000"/></g></svg>