<svg width="20" height="20" viewBox="0 0 20 20" fill="none" xmlns="http://www.w3.org/2000/svg">
<path fill-rule="evenodd" clip-rule="evenodd" d="M1.5 3.5C1.5 2.39543 2.39543 1.5 3.5 1.5H14.0858C14.6162 1.5 15.1249 1.71071 15.5 2.08579L17.9142 4.5C18.2893 4.87507 18.5 5.38378 18.5 5.91421V16.5C18.5 17.6046 17.6046 18.5 16.5 18.5H3.5C2.39543 18.5 1.5 17.6046 1.5 16.5V3.5ZM3.5 3.5V16.5H16.5V5.91421L14.0858 3.5H3.5Z" fill="#AB92F0"/>
<path fill-rule="evenodd" clip-rule="evenodd" d="M5 11C5 9.89543 5.89543 9 7 9H13C14.1046 9 15 9.89543 15 11V18H13V11H7V18H5V11Z" fill="#AB92F0"/>
<path fill-rule="evenodd" clip-rule="evenodd" d="M5.5 5C5.5 6.10457 6.39543 7 7.5 7H11.5C12.6046 7 13.5 6.10457 13.5 5V3C13.5 2.44772 13.0523 2 12.5 2C11.9477 2 11.5 2.44772 11.5 3V5H7.5V3C7.5 2.44772 7.05228 2 6.5 2C5.94772 2 5.5 2.44772 5.5 3V5Z" fill="#AB92F0"/>
</svg>
