<svg width="20" height="20" viewBox="0 0 20 20" fill="none" xmlns="http://www.w3.org/2000/svg">
<g clip-path="url(#clip0_2608_1039)">
<path fill-rule="evenodd" clip-rule="evenodd" d="M9.10884 2.49268C10.8241 0.694179 13.6725 0.626676 15.471 2.34191C17.2695 4.05714 17.337 6.90558 15.6218 8.70408L10.2734 14.3122C9.22501 15.4114 7.48403 15.4527 6.38478 14.4043C5.2859 13.3563 5.24424 11.616 6.29173 10.5167L10.776 5.81022C11.157 5.41037 11.79 5.39507 12.1898 5.77604C12.5897 6.15701 12.605 6.78999 12.224 7.18984L7.7397 11.8963C7.45391 12.1962 7.46528 12.671 7.76509 12.957C8.06501 13.243 8.54001 13.2318 8.82604 12.9318L14.1745 7.32377C15.1274 6.3246 15.0899 4.74214 14.0907 3.78923C13.0915 2.83632 11.5091 2.87382 10.5562 3.87299L5.72507 8.93862C5.3439 9.33828 4.71092 9.35328 4.31125 8.97212C3.91158 8.59096 3.89658 7.95797 4.27775 7.5583L9.10884 2.49268Z" fill="#AB92F0"/>
<path fill-rule="evenodd" clip-rule="evenodd" d="M4.82384 15.6793C4.45201 15.3247 4.09821 14.7539 3.7877 14.0748C3.1884 12.7641 3.61965 11.1462 4.79245 9.91645L9.17583 5.32027C9.557 4.9206 9.54199 4.28762 9.14233 3.90645C8.74266 3.52529 8.10967 3.54029 7.72851 3.93996L3.34513 8.53614C1.79646 10.16 0.928412 12.631 1.96881 14.9065C2.32103 15.6768 2.80198 16.5148 3.44353 17.1267C4.07579 17.7296 4.91958 18.166 5.69459 18.4798C8.03891 19.4292 10.4905 18.4186 12.0386 16.7645L17.7301 10.6833C18.1075 10.2801 18.0866 9.64726 17.6833 9.26987C17.2801 8.89248 16.6473 8.91343 16.2699 9.31666L10.5784 15.3979C9.40469 16.652 7.7929 17.1718 6.44526 16.6261C5.7644 16.3503 5.18967 16.0282 4.82384 15.6793Z" fill="#AB92F0"/>
</g>
<defs>
<clipPath id="clip0_2608_1039">
<rect width="20" height="20" fill="white"/>
</clipPath>
</defs>
</svg>
