<svg width="20" height="20" viewBox="0 0 20 20" fill="none" xmlns="http://www.w3.org/2000/svg">
<path fill-rule="evenodd" clip-rule="evenodd" d="M17.5616 13.5712L12.2594 7.2522C12.1884 7.16762 12.1136 7.08658 12.0352 7.00933C12.2547 5.6013 11.8405 4.10669 10.8614 2.93989C9.55324 1.38087 7.50225 0.72522 5.67029 1.2589C4.97699 1.46088 4.71977 2.30861 5.18394 2.86178L6.9254 4.93718L6.34413 5.42492L4.60267 3.34953C4.1385 2.79635 3.25898 2.90246 2.93969 3.55015C2.09599 5.26161 2.38553 7.39529 3.6937 8.95431C4.65966 10.1055 6.03566 10.7711 7.44201 10.8155C7.51039 10.9169 7.58417 11.0149 7.66309 11.1089L12.9654 17.4279C14.0304 18.6972 15.9227 18.8627 17.1919 17.7977C18.4611 16.7327 18.6267 14.8404 17.5616 13.5712ZM5.22579 7.66873C4.90855 7.29067 4.6892 6.86235 4.5696 6.42156L4.81204 6.7105C5.52205 7.55665 6.78356 7.66702 7.62971 6.95701L8.21098 6.46927C9.05713 5.75927 9.1675 4.49776 8.45749 3.65161L8.21505 3.36267C8.62837 3.557 9.01209 3.84739 9.32932 4.22546C10.0339 5.06518 10.261 6.15832 9.96751 7.09453C9.83233 7.52578 10.0032 7.9941 10.3843 8.23698C10.5131 8.31907 10.6288 8.42044 10.7273 8.53778L16.0296 14.8568C16.3846 15.2799 16.3294 15.9106 15.9063 16.2656C15.4832 16.6206 14.8525 16.5654 14.4975 16.1424L9.19518 9.82335C9.09343 9.70209 9.01167 9.56568 8.95272 9.41921C8.78428 9.00068 8.35645 8.74677 7.90837 8.79941C6.94381 8.91271 5.92224 8.49873 5.22579 7.66873Z" fill="#AB92F0"/>
</svg>
