<svg width="20" height="20" viewBox="0 0 20 20" fill="none" xmlns="http://www.w3.org/2000/svg">
<path fill-rule="evenodd" clip-rule="evenodd" d="M11 5.29733C11 4.80746 10.6451 4.38971 10.1617 4.31049L2.32344 3.02599C2.21652 3.00847 2.10835 2.99966 2 2.99966C0.89543 2.99966 0 3.89509 0 4.99966V14.7366C0 15.7218 0.717527 16.5603 1.69094 16.7125L9.84547 17.988C10.452 18.0829 11 17.6139 11 17V5.29733ZM2 14.7366V4.99966L9 6.14679V15.8314L2 14.7366Z" fill="#AB92F0"/>
<path fill-rule="evenodd" clip-rule="evenodd" d="M20 4.99966C20 3.89509 19.1046 2.99966 18 2.99966C17.8917 2.99966 17.7835 3.00847 17.6766 3.02599L9.83828 4.31049C9.35486 4.38971 9 4.80746 9 5.29733V17C9 17.6139 9.54801 18.0829 10.1545 17.988L18.3091 16.7125C19.2825 16.5603 20 15.7218 20 14.7366V4.99966ZM18 14.7366L11 15.8314V6.14679L18 4.99966V14.7366Z" fill="#AB92F0"/>
</svg>
