<svg width="20" height="20" viewBox="0 0 20 20" fill="none" xmlns="http://www.w3.org/2000/svg">
<path fill-rule="evenodd" clip-rule="evenodd" d="M11 3H10C8.13616 3 6.57006 4.27477 6.12602 6H6C3.79086 6 2 7.79086 2 10C2 12.2091 3.79086 14 6 14H14C16.2091 14 18 12.2091 18 10C18 8.09985 16.6751 6.50915 14.8987 6.10135C14.4909 4.32493 12.9002 3 11 3ZM7.67644 8L8.06289 6.49852C8.28793 5.62419 9.08228 5 10 5H11C11.9367 5 12.7431 5.65018 12.9494 6.54883L13.2297 7.77025L14.4512 8.05064C15.3498 8.25694 16 9.06327 16 10C16 11.1046 15.1046 12 14 12H6C4.89543 12 4 11.1046 4 10C4 8.89543 4.89543 8 6 8H7.67644Z" fill="#AB92F0"/>
</svg>
