<svg width="20" height="20" viewBox="0 0 20 20" fill="none" xmlns="http://www.w3.org/2000/svg">
<path fill-rule="evenodd" clip-rule="evenodd" d="M1.59009 9.33104C1.95955 8.92053 2.59184 8.88726 3.00235 9.25671L6.33568 12.2567C6.74619 12.6262 6.77947 13.2585 6.41001 13.669C6.04055 14.0795 5.40826 14.1128 4.99775 13.7433L1.66442 10.7433C1.25391 10.3738 1.22063 9.74155 1.59009 9.33104Z" fill="#AB92F0"/>
<path fill-rule="evenodd" clip-rule="evenodd" d="M6.41001 6.33104C6.77947 6.74155 6.74619 7.37384 6.33568 7.7433L3.00235 10.7433C2.59184 11.1128 1.95955 11.0795 1.59009 10.669C1.22063 10.2585 1.25391 9.62617 1.66442 9.25671L4.99775 6.25671C5.40826 5.88726 6.04055 5.92053 6.41001 6.33104Z" fill="#AB92F0"/>
<path fill-rule="evenodd" clip-rule="evenodd" d="M18.41 9.33104C18.7795 9.74155 18.7462 10.3738 18.3357 10.7433L15.0023 13.7433C14.5918 14.1128 13.9595 14.0795 13.5901 13.669C13.2206 13.2585 13.2539 12.6262 13.6644 12.2567L16.9978 9.25671C17.4083 8.88726 18.0406 8.92053 18.41 9.33104Z" fill="#AB92F0"/>
<path fill-rule="evenodd" clip-rule="evenodd" d="M13.5901 6.33104C13.9595 5.92053 14.5918 5.88726 15.0023 6.25671L18.3357 9.25671C18.7462 9.62617 18.7795 10.2585 18.41 10.669C18.0406 11.0795 17.4083 11.1128 16.9978 10.7433L13.6644 7.7433C13.2539 7.37384 13.2206 6.74155 13.5901 6.33104Z" fill="#AB92F0"/>
<path fill-rule="evenodd" clip-rule="evenodd" d="M11.7631 3.53524C12.2959 3.68056 12.6101 4.2303 12.4648 4.76312L9.46477 15.7631C9.31945 16.2959 8.76971 16.6101 8.23689 16.4648C7.70406 16.3195 7.38993 15.7697 7.53524 15.2369L10.5352 4.23689C10.6806 3.70406 11.2303 3.38993 11.7631 3.53524Z" fill="#AB92F0"/>
</svg>
