<svg width="20" height="20" viewBox="0 0 20 20" fill="none" xmlns="http://www.w3.org/2000/svg">
<path fill-rule="evenodd" clip-rule="evenodd" d="M5 5V8H8V5H5ZM4 3.5C3.72386 3.5 3.5 3.72386 3.5 4V9C3.5 9.27614 3.72386 9.5 4 9.5H9C9.27614 9.5 9.5 9.27614 9.5 9V4C9.5 3.72386 9.27614 3.5 9 3.5H4Z" fill="#AB92F0"/>
<path fill-rule="evenodd" clip-rule="evenodd" d="M12 5V8H15V5H12ZM11 3.5C10.7239 3.5 10.5 3.72386 10.5 4V9C10.5 9.27614 10.7239 9.5 11 9.5H16C16.2761 9.5 16.5 9.27614 16.5 9V4C16.5 3.72386 16.2761 3.5 16 3.5H11Z" fill="#AB92F0"/>
<path fill-rule="evenodd" clip-rule="evenodd" d="M5 12V15H8V12H5ZM4 10.5C3.72386 10.5 3.5 10.7239 3.5 11V16C3.5 16.2761 3.72386 16.5 4 16.5H9C9.27614 16.5 9.5 16.2761 9.5 16V11C9.5 10.7239 9.27614 10.5 9 10.5H4Z" fill="#AB92F0"/>
<path fill-rule="evenodd" clip-rule="evenodd" d="M12 12V15H15V12H12ZM11 10.5C10.7239 10.5 10.5 10.7239 10.5 11V16C10.5 16.2761 10.7239 16.5 11 16.5H16C16.2761 16.5 16.5 16.2761 16.5 16V11C16.5 10.7239 16.2761 10.5 16 10.5H11Z" fill="#AB92F0"/>
</svg>
