<svg width="20" height="20" viewBox="0 0 20 20" fill="none" xmlns="http://www.w3.org/2000/svg">
<path fill-rule="evenodd" clip-rule="evenodd" d="M3 7.25C3 6.69772 3.44772 6.25 4 6.25H16C16.5523 6.25 17 6.69772 17 7.25C17 7.80228 16.5523 8.25 16 8.25H4C3.44772 8.25 3 7.80228 3 7.25Z" fill="#AB92F0"/>
<path fill-rule="evenodd" clip-rule="evenodd" d="M3 12.75C3 12.1977 3.44772 11.75 4 11.75H16C16.5523 11.75 17 12.1977 17 12.75C17 13.3023 16.5523 13.75 16 13.75H4C3.44772 13.75 3 13.3023 3 12.75Z" fill="#AB92F0"/>
<path fill-rule="evenodd" clip-rule="evenodd" d="M7.83305 3.00351C8.38343 3.04937 8.79242 3.53272 8.74655 4.0831L7.74655 16.0831C7.70069 16.6335 7.21734 17.0425 6.66696 16.9966C6.11658 16.9507 5.70759 16.4674 5.75346 15.917L6.75346 3.91701C6.79932 3.36663 7.28267 2.95765 7.83305 3.00351Z" fill="#AB92F0"/>
<path fill-rule="evenodd" clip-rule="evenodd" d="M13.3331 3.00351C13.8834 3.04937 14.2924 3.53272 14.2466 4.0831L13.2466 16.0831C13.2007 16.6335 12.7173 17.0425 12.167 16.9966C11.6166 16.9507 11.2076 16.4674 11.2535 15.917L12.2535 3.91701C12.2993 3.36663 12.7827 2.95765 13.3331 3.00351Z" fill="#AB92F0"/>
</svg>
