<svg width="20" height="20" viewBox="0 0 20 20" fill="none" xmlns="http://www.w3.org/2000/svg">
<path fill-rule="evenodd" clip-rule="evenodd" d="M4.82843 4.82846C2.48529 7.1716 2.48529 10.9706 4.82843 13.3137C7.17158 15.6569 10.9706 15.6569 13.3137 13.3137C15.6569 10.9706 15.6569 7.1716 13.3137 4.82846C10.9706 2.48531 7.17158 2.48531 4.82843 4.82846ZM11.8995 11.8995C10.3374 13.4616 7.80475 13.4616 6.24265 11.8995C4.68055 10.3374 4.68055 7.80477 6.24265 6.24267C7.80475 4.68057 10.3374 4.68057 11.8995 6.24267C13.4616 7.80477 13.4616 10.3374 11.8995 11.8995Z" fill="#AB92F0"/>
<path d="M11.8995 14.7279C11.3137 14.1421 11.3137 13.1924 11.8995 12.6066C12.4853 12.0208 13.435 12.0208 14.0208 12.6066L17.5563 16.1421C18.1421 16.7279 18.1421 17.6776 17.5563 18.2634C16.9706 18.8492 16.0208 18.8492 15.435 18.2634L11.8995 14.7279Z" fill="#AB92F0"/>
<path d="M7.20709 10.1642C6.65481 10.1642 6.20709 9.71647 6.20709 9.16418C6.20709 8.6119 6.65481 8.16418 7.20709 8.16418H11.2071C11.7594 8.16418 12.2071 8.6119 12.2071 9.16418C12.2071 9.71647 11.7594 10.1642 11.2071 10.1642H7.20709Z" fill="#AB92F0"/>
<path d="M8.20709 7.16418C8.20709 6.6119 8.65481 6.16418 9.20709 6.16418C9.75938 6.16418 10.2071 6.6119 10.2071 7.16418V11.1642C10.2071 11.7165 9.75938 12.1642 9.20709 12.1642C8.65481 12.1642 8.20709 11.7165 8.20709 11.1642V7.16418Z" fill="#AB92F0"/>
</svg>
