<svg width="20" height="20" viewBox="0 0 20 20" fill="none" xmlns="http://www.w3.org/2000/svg">
<path fill-rule="evenodd" clip-rule="evenodd" d="M2 8C2 7.44772 2.44772 7 3 7H13.3077C13.86 7 14.3077 7.44772 14.3077 8C14.3077 8.55228 13.86 9 13.3077 9H3C2.44772 9 2 8.55228 2 8Z" fill="#AB92F0"/>
<path fill-rule="evenodd" clip-rule="evenodd" d="M2 4C2 3.44772 2.44772 3 3 3H17C17.5523 3 18 3.44772 18 4C18 4.55228 17.5523 5 17 5H3C2.44772 5 2 4.55228 2 4Z" fill="#AB92F0"/>
<path fill-rule="evenodd" clip-rule="evenodd" d="M2 12C2 11.4477 2.44772 11 3 11H17C17.5523 11 18 11.4477 18 12C18 12.5523 17.5523 13 17 13H3C2.44772 13 2 12.5523 2 12Z" fill="#AB92F0"/>
<path fill-rule="evenodd" clip-rule="evenodd" d="M2 16C2 15.4477 2.44772 15 3 15H13.3077C13.86 15 14.3077 15.4477 14.3077 16C14.3077 16.5523 13.86 17 13.3077 17H3C2.44772 17 2 16.5523 2 16Z" fill="#AB92F0"/>
</svg>
