<svg xmlns="http://www.w3.org/2000/svg" width="20" height="20" viewBox="0 0 20 20">
  <g fill="none" fill-rule="evenodd" stroke-linecap="round" stroke-linejoin="round">
    <path fill="#AB92F0" stroke="#AB92F0" d="M1.67096059.855922485L9 2.12762147 9 13.8302914 1.33661418 12.5611484C.853960738 12.4812155.5 12.0638137.5 11.5745861L.5 1.84120035C.5 1.2889156.94771525.841200354 1.5.841200354 1.55730342.841200354 1.6145008.84612586 1.67096059.855922485zM16.3990464.843775217C16.4507631.834801589 16.5031138.83029139 16.5555556.83029139 17.0771578.83029139 17.5 1.26691337 17.5 1.80551388L17.5 11.5913205C17.5 12.070305 17.1631328 12.4783847 16.7051185 12.554237L9 13.8302914 9 2.12762147 16.3990464.843775217z" transform="translate(2 4.17)"/>
    <path stroke="#000" d="M1.16171827.343120157L9 1.62762147 9 13.3302914.845468196 12.0548359C.35876349 11.9787101-5.47768066e-15 11.5594702-4.6629367e-15 11.0668481L-4.88498131e-15 1.32995712C-4.95261668e-15.777672375.44771525.329957124 1 .329957124 1.05417365.329957124 1.10825772.334359288 1.16171827.343120157zM16.8382817.343120157C16.8917423.334359288 16.9458264.329957124 17 .329957124 17.5522847.329957124 18 .777672375 18 1.32995712L18 11.0668481C18 11.5594702 17.6412365 11.9787101 17.1545318 12.0548359L9 13.3302914 9 1.62762147 16.8382817.343120157z" transform="translate(1 3.17)"/>
  </g>
</svg>
