<svg xmlns="http://www.w3.org/2000/svg" width="20" height="20" viewBox="0 0 20 20">
  <g fill="none" fill-rule="evenodd">
    <g stroke="#AB92F0" transform="translate(-.556 -.25)">
      <path fill="#AB92F0" stroke-linecap="round" stroke-linejoin="round" d="M8.63299156,19.3404742 C12.2962916,19.3404742 17.564941,15.478144 15.5578892,12.5546585 C14.4306678,10.9127401 12.0443241,13.1879455 10.8439887,12.0514109 C9.64365336,10.9148762 10.8439887,8.16790674 8.63299156,6.77961037 C5.59420068,4.87153812 2,9.5914555 2,13.0600423 C2,16.528629 4.96969147,19.3404742 8.63299156,19.3404742 Z" transform="rotate(-165 9 12.84)"/>
      <path fill="#AB92F0" d="M17.5087897,3.70996608 C17.4989806,3.71003045 17.4989806,3.71003045 17.4891766,3.71035224 C17.2141974,3.72118427 17.0000638,3.95288003 17.0108959,4.22785921 L17.3786489,13.5635436 C17.3818705,13.6453264 17.4491066,13.7099661 17.5309528,13.7099661 C17.6116248,13.7099661 17.6778084,13.6460815 17.6806594,13.5654599 L18.0108684,4.2276363 C18.0111287,4.21880303 18.0111287,4.21880303 18.0111808,4.20996608 C18.0111808,3.93382371 17.7873231,3.70996608 17.5111808,3.70996608 L17.5087897,3.70996608 Z" transform="rotate(-28 17.51 8.71)"/>
      <path stroke-linecap="round" d="M14.1974564,4.23216072 C14.7497412,4.23216072 15.1978468,3.91368292 15.1978468,3.08525579 C15.1978468,2.25682867 14.7501315,1 14.1978468,1 C13.645562,1 13.1978468,2.25682867 13.1978468,3.08525579 C13.1978468,3.91368292 13.6451717,4.23216072 14.1974564,4.23216072 Z" transform="rotate(-28 14.198 2.616)"/>
    </g>
    <path stroke="#000" stroke-linecap="round" stroke-linejoin="round" d="M7.07679614,18.0902512 C10.7400962,18.0902512 16.0087456,14.227921 14.0016938,11.3044355 C12.8744724,9.66251709 10.4881287,11.9377225 9.28779332,10.8011879 C8.08745794,9.66465326 9.28779332,6.91768377 7.07679614,5.52938739 C4.03800526,3.62131515 0.443804577,8.34123253 0.443804577,11.8098193 C0.443804577,15.278406 3.41349605,18.0902512 7.07679614,18.0902512 Z" transform="rotate(-165 7.444 11.59)"/>
    <circle cx="4.75" cy="8.25" r="1" fill="#000" stroke="#000"/>
    <circle cx="8.75" cy="8.25" r="1" fill="#000" stroke="#000"/>
    <circle cx="11.25" cy="11.25" r="1" fill="#000" stroke="#000"/>
    <circle cx="9.75" cy="14.75" r="1" fill="#000" stroke="#000"/>
    <path fill="#000" stroke="#000" d="M15.9525943,3.45974311 C15.9427852,3.45980748 15.9427852,3.45980748 15.9329811,3.46012926 C15.658002,3.4709613 15.4438684,3.70265706 15.4547004,3.97763623 L15.8224534,13.3133206 C15.825675,13.3951034 15.8929112,13.4597431 15.9747574,13.4597431 C16.0554294,13.4597431 16.121613,13.3958585 16.124464,13.315237 L16.454673,3.97741333 C16.4549333,3.96858006 16.4549333,3.96858006 16.4549853,3.95974311 C16.4549853,3.68360074 16.2311277,3.45974311 15.9549853,3.45974311 L15.9525943,3.45974311 Z" transform="rotate(-28 15.955 8.46)"/>
    <path stroke="#000" stroke-linecap="round" d="M12.641261,3.98193775 C13.1935457,3.98193775 13.6416514,3.66345995 13.6416514,2.83503282 C13.6416514,2.0066057 13.1939361,0.749777029 12.6416514,0.749777029 C12.0893666,0.749777029 11.6416514,2.0066057 11.6416514,2.83503282 C11.6416514,3.66345995 12.0889762,3.98193775 12.641261,3.98193775 Z" transform="rotate(-28 12.642 2.366)"/>
  </g>
</svg>
