<svg width="20" height="20" viewBox="0 0 20 20" fill="none" xmlns="http://www.w3.org/2000/svg">
<g opacity="0.8">
<path d="M6 2.5C6 1.67157 6.67157 1 7.5 1H16.5C17.3284 1 18 1.67157 18 2.5V18.5C18 19.3284 17.3284 20 16.5 20H7.5C6.67157 20 6 19.3284 6 18.5V2.5Z" fill="#AB92F0"/>
</g>
<path fill-rule="evenodd" clip-rule="evenodd" d="M5.5 0.5C4.67157 0.5 4 1.17157 4 2V18C4 18.8284 4.67157 19.5 5.5 19.5H14.5C15.3284 19.5 16 18.8284 16 18V2C16 1.17157 15.3284 0.5 14.5 0.5H5.5ZM5 2C5 1.72386 5.22386 1.5 5.5 1.5H7V2.5C7 2.77614 7.22386 3 7.5 3H12.5C12.7761 3 13 2.77614 13 2.5V1.5H14.5C14.7761 1.5 15 1.72386 15 2V18C15 18.2761 14.7761 18.5 14.5 18.5H5.5C5.22386 18.5 5 18.2761 5 18V2Z" fill="black"/>
</svg>
