<svg width="20" height="20" viewBox="0 0 20 20" fill="none" xmlns="http://www.w3.org/2000/svg"><path d="M15.3598 13.2682L9.35979 8.26824C8.33549 7.41466 9.61586 5.87822 10.6402 6.7318L16.6402 11.7318C17.6645 12.5854 16.3841 14.1218 15.3598 13.2682Z" fill="currentColor"/><path d="M3.35979 11.7318L9.35979 6.7318C10.3841 5.87822 11.6645 7.41466 10.6402 8.26824L4.64016 13.2682C3.61586 14.1218 2.33549 12.5854 3.35979 11.7318Z" fill="currentColor"/><path d="M1.29289 2.70711C0.902369 2.31658 0.902369 1.68342 1.29289 1.29289C1.68342 0.902368 2.31658 0.902368 2.70711 1.29289L18.7071 17.2929C19.0976 17.6834 19.0976 18.3166 18.7071 18.7071C18.3166 19.0976 17.6834 19.0976 17.2929 18.7071L1.29289 2.70711Z" fill="currentColor"/></svg>