<svg width="20" height="20" viewBox="0 0 20 20" fill="none" xmlns="http://www.w3.org/2000/svg"><path fill-rule="evenodd" clip-rule="evenodd" d="M5.90254 12.6459C5.35252 12.5959 4.94718 12.1094 4.99718 11.5594L5.46858 6.37397C5.51858 5.82396 6.005 5.41862 6.55501 5.46862C7.10503 5.51862 7.51037 6.00503 7.46037 6.55505L6.98897 11.7405C6.93896 12.2905 6.45255 12.6959 5.90254 12.6459Z" fill="currentColor"/><path fill-rule="evenodd" clip-rule="evenodd" d="M12.6458 5.90263C12.6958 6.45264 12.2905 6.93906 11.7405 6.98906L6.55502 7.46046C6.005 7.51046 5.51859 7.10512 5.46859 6.5551C5.41858 6.00509 5.82393 5.51868 6.37394 5.46868L11.5594 4.99727C12.1094 4.94727 12.5958 5.35261 12.6458 5.90263Z" fill="currentColor"/><path fill-rule="evenodd" clip-rule="evenodd" d="M7.17156 7.17158C7.56208 6.78106 8.19524 6.78106 8.58577 7.17158L14.2426 12.8284C14.6331 13.219 14.6331 13.8521 14.2426 14.2427C13.8521 14.6332 13.2189 14.6332 12.8284 14.2427L7.17156 8.5858C6.78103 8.19527 6.78103 7.56211 7.17156 7.17158Z" fill="currentColor"/><path d="M1.29289 2.70711C0.902369 2.31658 0.902369 1.68342 1.29289 1.29289C1.68342 0.902368 2.31658 0.902368 2.70711 1.29289L18.7071 17.2929C19.0976 17.6834 19.0976 18.3166 18.7071 18.7071C18.3166 19.0976 17.6834 19.0976 17.2929 18.7071L1.29289 2.70711Z" fill="currentColor"/></svg>