<svg width="20" height="20" viewBox="0 0 20 20" fill="none" xmlns="http://www.w3.org/2000/svg"><g><path fill-rule="evenodd" clip-rule="evenodd" d="M14.5 0H5.5C4.39543 0 3.5 0.89543 3.5 2V18C3.5 19.1046 4.39543 20 5.5 20H14.5C15.6046 20 16.5 19.1046 16.5 18V2C16.5 0.89543 15.6046 0 14.5 0ZM5.5 18V2H14.5V18H5.5Z" fill="currentColor"/><path fill-rule="evenodd" clip-rule="evenodd" d="M7.5 3.5C7.5 2.94772 7.94772 2.5 8.5 2.5H11.5C12.0523 2.5 12.5 2.94772 12.5 3.5C12.5 4.05228 12.0523 4.5 11.5 4.5H8.5C7.94772 4.5 7.5 4.05228 7.5 3.5Z" fill="currentColor"/></g><path d="M1.29289 2.70711C0.902369 2.31658 0.902369 1.68342 1.29289 1.29289C1.68342 0.902368 2.31658 0.902368 2.70711 1.29289L18.7071 17.2929C19.0976 17.6834 19.0976 18.3166 18.7071 18.7071C18.3166 19.0976 17.6834 19.0976 17.2929 18.7071L1.29289 2.70711Z" fill="currentColor"/></svg>