<svg width="20" height="20" viewBox="0 0 20 20" fill="none" xmlns="http://www.w3.org/2000/svg"><path fill-rule="evenodd" clip-rule="evenodd" d="M6.17116 3C5.024 3 4.02404 3.78074 3.74581 4.89366L2.68528 9.13576C1.70458 9.47364 1 10.4045 1 11.5V14.5C1 15.8807 2.11929 17 3.5 17H16.5C17.8807 17 19 15.8807 19 14.5V11.5C19 10.4045 18.2954 9.47364 17.3147 9.13576L16.2542 4.89366C15.976 3.78074 14.976 3 13.8288 3H6.17116ZM3.5 11C3.95887 11 4.35885 10.6877 4.47014 10.2425L5.68609 5.37873C5.74174 5.15615 5.94173 5 6.17116 5H10.0007H13.8288C14.0583 5 14.2583 5.15615 14.3139 5.37873L15.5299 10.2425C15.6411 10.6877 16.0411 11 16.5 11C16.7761 11 17 11.2239 17 11.5V14.5C17 14.7761 16.7761 15 16.5 15H3.5C3.22386 15 3 14.7761 3 14.5V11.5C3 11.2239 3.22386 11 3.5 11Z" fill="currentColor"/><path d="M16.5 13C16.5 13.8284 15.8284 14.5 15 14.5C14.1716 14.5 13.5 13.8284 13.5 13C13.5 12.1716 14.1716 11.5 15 11.5C15.8284 11.5 16.5 12.1716 16.5 13Z" fill="currentColor"/><path d="M6.5 13C6.5 13.8284 5.82843 14.5 5 14.5C4.17157 14.5 3.5 13.8284 3.5 13C3.5 12.1716 4.17157 11.5 5 11.5C5.82843 11.5 6.5 12.1716 6.5 13Z" fill="currentColor"/><path d="M4 15.5C4.82843 15.5 5.5 16.1716 5.5 17V18C5.5 18.8284 4.82843 19.5 4 19.5C3.17157 19.5 2.5 18.8284 2.5 18V17C2.5 16.1716 3.17157 15.5 4 15.5Z" fill="currentColor"/><path d="M16 15.5C16.8284 15.5 17.5 16.1716 17.5 17V18C17.5 18.8284 16.8284 19.5 16 19.5C15.1716 19.5 14.5 18.8284 14.5 18V17C14.5 16.1716 15.1716 15.5 16 15.5Z" fill="currentColor"/><path d="M10 1C11.1046 1 12 1.89543 12 3C12 4.10457 11.1046 5 10 5C8.89543 5 8 4.10457 8 3C8 1.89543 8.89543 1 10 1Z" fill="currentColor"/><path fill-rule="evenodd" clip-rule="evenodd" d="M14.1503 7.08052C13.9525 6.15858 13.1377 5.5 12.1948 5.5H7.80491C6.862 5.5 6.04716 6.15858 5.8494 7.08052L5.42037 9.08052C5.3908 9.21839 5.37589 9.359 5.37589 9.5C5.37589 10.6046 6.27132 11.5 7.37589 11.5H12.6238C12.7648 11.5 12.9054 11.4851 13.0433 11.4555C14.1233 11.2238 14.811 10.1605 14.5793 9.08052L14.1503 7.08052ZM12.6238 9.5H7.37589L7.80491 7.5H12.1948L12.6238 9.5Z" fill="currentColor"/><path d="M1.29289 2.70711C0.902369 2.31658 0.902369 1.68342 1.29289 1.29289C1.68342 0.902368 2.31658 0.902368 2.70711 1.29289L18.7071 17.2929C19.0976 17.6834 19.0976 18.3166 18.7071 18.7071C18.3166 19.0976 17.6834 19.0976 17.2929 18.7071L1.29289 2.70711Z" fill="currentColor"/></svg>