<svg width="20" height="20" viewBox="0 0 20 20" fill="none" xmlns="http://www.w3.org/2000/svg"><path fill-rule="evenodd" clip-rule="evenodd" d="M10 7.00221L5.96282 14H14.0372L10 7.00221ZM10.8662 4.50138C10.4814 3.83434 9.51864 3.83434 9.13381 4.50138L3.36522 14.5003C2.98061 15.1669 3.46175 16 4.23141 16H15.7686C16.5382 16 17.0194 15.1669 16.6348 14.5003L10.8662 4.50138Z" fill="currentColor"/><path d="M1.29289 2.70711C0.902369 2.31658 0.902369 1.68342 1.29289 1.29289C1.68342 0.902368 2.31658 0.902368 2.70711 1.29289L18.7071 17.2929C19.0976 17.6834 19.0976 18.3166 18.7071 18.7071C18.3166 19.0976 17.6834 19.0976 17.2929 18.7071L1.29289 2.70711Z" fill="currentColor"/></svg>