<svg xmlns="http://www.w3.org/2000/svg" width="20" height="20" viewBox="0 0 20 20">
  <g fill="none" fill-rule="evenodd" stroke-linecap="round" stroke-linejoin="round">
    <path fill="#AB92F0" stroke="#AB92F0" d="M14.324432,9.03668239 L14.1220878,13.7084311 C15.6953914,14.8914112 16.6411957,15.6622059 16.9595008,16.0208153 C17.3741605,16.4879799 17.5590791,17.3213132 17.5142566,18.5208153 L13.0762096,16.0208153 L11.9654209,16.0208153 L7.52737392,18.5208153 C7.48255148,17.3213132 7.66747011,16.4879799 8.08212979,16.0208153 C8.40050155,15.6621308 9.34663546,14.8910882 10.9205315,13.7076877 L10.7176894,9.03640592 L4.53131044,12.5208153 C4.45958539,10.601612 4.75549297,9.26827863 5.4190332,8.52081528 C5.96788223,7.90254902 7.68238517,6.8834414 10.562542,5.46349241 L10.5208153,4.50256065 C10.5216669,1.84806374 11.1885465,0.52081528 12.521454,0.52081528 C13.8543615,0.52081528 14.5208153,1.84806374 14.5208153,4.50256065 L14.4791929,5.46354385 C17.3592868,6.88346601 19.073755,7.90255649 19.6225974,8.52081528 C20.2861376,9.26827863 20.5820452,10.601612 20.5103201,12.5208153 L14.324432,9.03668239 Z" transform="rotate(45 12.52 9.52)"/>
    <path stroke="#000" d="M13.324432,8.03668239 L13.1220878,12.7084311 C14.6953914,13.8914112 15.6411957,14.6622059 15.9595008,15.0208153 C16.3741605,15.4879799 16.5590791,16.3213132 16.5142566,17.5208153 L12.0762096,15.0208153 L10.9654209,15.0208153 L6.52737392,17.5208153 C6.48255148,16.3213132 6.66747011,15.4879799 7.08212979,15.0208153 C7.40050155,14.6621308 8.34663546,13.8910882 9.92053152,12.7076877 L9.71768943,8.03640592 L3.53131044,11.5208153 C3.45958539,9.60161196 3.75549297,8.26827863 4.4190332,7.52081528 C4.96788223,6.90254902 6.68238517,5.8834414 9.56254203,4.46349241 L9.52081528,3.50256065 C9.52166693,0.848063736 10.1885465,-0.47918472 11.521454,-0.47918472 C12.8543615,-0.47918472 13.5208153,0.848063736 13.5208153,3.50256065 L13.4791929,4.46354385 C16.3592868,5.88346601 18.073755,6.90255649 18.6225974,7.52081528 C19.2861376,8.26827863 19.5820452,9.60161196 19.5103201,11.5208153 L13.324432,8.03668239 Z" transform="rotate(45 11.52 8.52)"/>
  </g>
</svg>
