<svg xmlns="http://www.w3.org/2000/svg" width="20" height="20" viewBox="0 0 20 20">
  <g fill="none" fill-rule="evenodd">
    <path fill="#AB92F0" stroke="#AB92F0" stroke-linecap="round" stroke-linejoin="round" stroke-width="1.5" d="M5,19 L19,19"/>
    <path fill="#AB92F0" stroke="#AB92F0" stroke-linecap="round" d="M7.5,19 L7.5,19 L7.5,16.9807692 L7.5,12.6538462 L7.5,6.30769231 C7.5,5.03318904 8.3954305,4 9.5,4 L9.5,4 L14.5,4 C15.6045695,4 16.5,5.03318904 16.5,6.30769231 L16.5,12.6538462 L16.5,16.9807692 L16.5,19 L16.5,19"/>
    <path stroke="#000" stroke-linecap="round" stroke-linejoin="round" d="M2.5,18 L18.5,18"/>
    <path stroke="#000" stroke-linecap="round" d="M6,17.5 L6,17.5 L6,15.4807692 L6,11.1538462 L6,4.80769231 C6,3.53318904 6.8954305,2.5 8,2.5 L8,2.5 L13,2.5 C14.1045695,2.5 15,3.53318904 15,4.80769231 L15,11.1538462 L15,15.4807692 L15,17.5 L15,17.5"/>
    <rect width="1" height="1" x="8.5" y="5" stroke="#000" rx=".5"/>
    <rect width="1" height="1" x="11.5" y="5" stroke="#000" rx=".5"/>
    <rect width="1" height="1" x="11.5" y="8" stroke="#000" rx=".5"/>
    <rect width="1" height="1" x="11.5" y="11" stroke="#000" rx=".5"/>
    <rect width="1" height="1" x="11.5" y="14" stroke="#000" rx=".5"/>
    <rect width="1" height="1" x="8.5" y="8" stroke="#000" rx=".5"/>
    <rect width="1" height="1" x="8.5" y="14" stroke="#000" rx=".5"/>
    <rect width="1" height="1" x="8.5" y="11" stroke="#000" rx=".5"/>
  </g>
</svg>
