<svg xmlns="http://www.w3.org/2000/svg" width="20" height="20" viewBox="0 0 20 20">
  <g fill="none" fill-rule="evenodd">
    <path fill="#AB92F0" stroke="#AB92F0" stroke-width="2" d="M9.09445448,7.24925846 L8.90122697,8 L8,8 C6.34314575,8 5,9.34314575 5,11 C5,12.6568542 6.34314575,14 8,14 L16,14 C17.6568542,14 19,12.6568542 19,11 C19,9.59467119 18.02542,8.3860229 16.6749095,8.075995 L16.0642013,7.93579871 L15.924005,7.32509055 C15.6139771,5.97457996 14.4053288,5 13,5 L12,5 C10.6232623,5 9.43255428,5.93564865 9.09445448,7.24925846 Z"/>
    <path stroke="#000" d="M5.61023599,6.12462923 L5.51362223,6.5 L5,6.5 C3.06700338,6.5 1.5,8.06700338 1.5,10 C1.5,11.9329966 3.06700338,13.5 5,13.5 L13,13.5 C14.9329966,13.5 16.5,11.9329966 16.5,10 C16.5,8.36037003 15.3632182,6.95056333 13.7867812,6.58867098 L13.4814272,6.51857283 L13.411329,6.21321875 C13.0494367,4.63678179 11.63963,3.5 10,3.5 L9,3.5 C7.39375583,3.5 6.00486787,4.59137685 5.61023599,6.12462923 Z"/>
    <path stroke="#000" stroke-linecap="round" stroke-linejoin="round" d="M2.5 7.5L2.5 0M0 2L2.5 0M5 2L2.5 0" transform="rotate(180 6 8.75)"/>
  </g>
</svg>
