<svg xmlns="http://www.w3.org/2000/svg" width="20" height="20" viewBox="0 0 20 20">
  <g fill="none" fill-rule="evenodd" stroke-linecap="round" stroke-linejoin="round">
    <path stroke="#AB92F0" stroke-width="2" d="M12.0930191,3.90698092 C11.5429982,4.30209158 11.0480101,4.88073369 10.6335089,5.5988105 C9.81916909,7.009563 9.31548944,8.95849944 9.31548944,11.1112352 C9.31548944,13.2639709 9.81916909,15.2129074 10.6335089,16.6236599 C11.0480101,17.3417367 11.5429982,17.9203788 12.0930191,18.3154894" transform="rotate(-90 10.704 11.111)"/>
    <path stroke="#AB92F0" stroke-width="2" d="M11,13 L11,15.5" transform="matrix(-1 0 0 1 22 0)"/>
    <path stroke="#AB92F0" stroke-width="2" d="M7.5,13 L7,15"/>
    <path stroke="#AB92F0" stroke-width="2" d="M14.5,13 L14,15" transform="matrix(-1 0 0 1 29 0)"/>
    <path stroke="#AB92F0" stroke-width="2" d="M18.8177605,11 L16.8177605,13" transform="matrix(-1 0 0 1 35.818 0)"/>
    <path stroke="#AB92F0" stroke-width="2" d="M4.81776046,11 L3,13"/>
    <path stroke="#000" d="M11.0930191,1.90698092 C10.5429982,2.30209158 10.0480101,2.88073369 9.63350892,3.5988105 C8.81916909,5.009563 8.31548944,6.95849944 8.31548944,9.11123518 C8.31548944,11.2639709 8.81916909,13.2129074 9.63350892,14.6236599 C10.0480101,15.3417367 10.5429982,15.9203788 11.0930191,16.3154894" transform="rotate(-90 9.704 9.111)"/>
    <path stroke="#000" d="M10,11 L10,13.5" transform="matrix(-1 0 0 1 20 0)"/>
    <path stroke="#000" d="M6.5,10.5 L6,13"/>
    <path stroke="#000" d="M13.5,10.5 L13,13" transform="matrix(-1 0 0 1 27 0)"/>
    <path stroke="#000" d="M17.8177605,9 L15.8177605,11" transform="matrix(-1 0 0 1 33.818 0)"/>
    <path stroke="#000" d="M3.81776046,9 L2,11"/>
  </g>
</svg>
