<svg xmlns="http://www.w3.org/2000/svg" width="20" height="20" viewBox="0 0 20 20">
  <g fill="none" fill-rule="evenodd">
    <ellipse cx="11" cy="12" stroke="#AB92F0" stroke-width="2" rx="4.5" ry="8" transform="rotate(-90 11 12)"/>
    <path stroke="#AB92F0" stroke-linecap="round" stroke-linejoin="round" stroke-width="2" d="M11 4.5L11 7.5M15 5L14.5 7.5"/>
    <path stroke="#AB92F0" stroke-linecap="round" stroke-linejoin="round" stroke-width="2" d="M7.5,5 L7,7.5" transform="matrix(-1 0 0 1 14.5 0)"/>
    <path stroke="#AB92F0" stroke-linecap="round" stroke-linejoin="round" stroke-width="2" d="M4.5,6.5 L3,9" transform="matrix(-1 0 0 1 7.5 0)"/>
    <path stroke="#AB92F0" stroke-linecap="round" stroke-linejoin="round" stroke-width="2" d="M19,6.5 L17.5,9"/>
    <circle cx="11" cy="11.5" r="3" fill="#AB92F0" stroke="#AB92F0" stroke-width="2" transform="rotate(-90 11 11.5)"/>
    <ellipse cx="10" cy="11" stroke="#000" rx="4.5" ry="8" transform="rotate(-90 10 11)"/>
    <path stroke="#000" stroke-linecap="round" stroke-linejoin="round" d="M10 3.5L10 6.5M14 4L13.5 6.5"/>
    <path stroke="#000" stroke-linecap="round" stroke-linejoin="round" d="M6.5,4 L6,6.5" transform="matrix(-1 0 0 1 12.5 0)"/>
    <path stroke="#000" stroke-linecap="round" stroke-linejoin="round" d="M3.5,5.5 L2,8" transform="matrix(-1 0 0 1 5.5 0)"/>
    <path stroke="#000" stroke-linecap="round" stroke-linejoin="round" d="M18,5.5 L16.5,8"/>
    <circle cx="10" cy="10.5" r="2.5" fill="#000" stroke="#000" transform="rotate(-90 10 10.5)"/>
  </g>
</svg>
