<svg xmlns="http://www.w3.org/2000/svg" width="20" height="20" viewBox="0 0 20 20">
  <g fill="none" fill-rule="evenodd" stroke-linecap="round" stroke-linejoin="round">
    <g stroke="#AB92F0" transform="translate(3.5 3)">
      <path fill="#AB92F0" d="M8.5,8 C11.9010082,8 13.5,5.44269491 13.5,2.2880992 C13.5,1.51365019 13.3650819,0.775199645 13.1206319,0.101748134 C12.8672176,-0.596399529 10.9180569,2.54583189 10.4575001,2.01970089 C9.99694321,1.49356989 9.17792582,0.101748134 8.5,0.101748134 C7.82207418,0.101748134 7.10452759,1.49356989 6.64397075,2.01970089 C6.18341391,2.54583189 4.1327824,-0.596399529 3.87936812,0.101748134 C3.63491807,0.775199645 3.5,1.51365019 3.5,2.2880992 C3.5,5.44269491 5.09899176,8 8.5,8 Z"/>
      <path stroke-width="2" d="M8.5,9 L8.5,15.5"/>
      <path fill="#AB92F0" d="M11.5539915,17.6032393 C12.658561,17.6032393 13.849753,15.1116939 13.849753,13.1518502 C13.849753,11.1920065 12.9543225,9.60323932 11.849753,9.60323932 C10.7451835,9.60323932 9.84975299,11.1920065 9.84975299,13.1518502 C9.84975299,15.1116939 10.449422,17.6032393 11.5539915,17.6032393 Z" transform="rotate(50 11.85 13.603)"/>
      <path fill="#AB92F0" d="M4.55399149,17.6032393 C5.65856099,17.6032393 6.84975299,15.1116939 6.84975299,13.1518502 C6.84975299,11.1920065 5.95432249,9.60323932 4.84975299,9.60323932 C3.74518349,9.60323932 2.84975299,11.1920065 2.84975299,13.1518502 C2.84975299,15.1116939 3.44942199,17.6032393 4.55399149,17.6032393 Z" transform="scale(-1 1) rotate(50 0 3.203)"/>
    </g>
    <g stroke="#000" transform="translate(1.5 2)">
      <path d="M8.5 8C11.9010082 8 13.5 5.44269491 13.5 2.2880992 13.5 1.51365019 13.3650819.775199645 13.1206319.101748134 12.8672176-.596399529 10.9180569 2.54583189 10.4575001 2.01970089 9.99694321 1.49356989 9.17792582.101748134 8.5.101748134 7.82207418.101748134 7.10452759 1.49356989 6.64397075 2.01970089 6.18341391 2.54583189 4.1327824-.596399529 3.87936812.101748134 3.63491807.775199645 3.5 1.51365019 3.5 2.2880992 3.5 5.44269491 5.09899176 8 8.5 8zM8.5 9L8.5 15.5"/>
      <path d="M11.5539915,17.6032393 C12.658561,17.6032393 13.849753,15.1116939 13.849753,13.1518502 C13.849753,11.1920065 12.9543225,9.60323932 11.849753,9.60323932 C10.7451835,9.60323932 9.84975299,11.1920065 9.84975299,13.1518502 C9.84975299,15.1116939 10.449422,17.6032393 11.5539915,17.6032393 Z" transform="rotate(50 11.85 13.603)"/>
      <path d="M4.55399149,17.6032393 C5.65856099,17.6032393 6.84975299,15.1116939 6.84975299,13.1518502 C6.84975299,11.1920065 5.95432249,9.60323932 4.84975299,9.60323932 C3.74518349,9.60323932 2.84975299,11.1920065 2.84975299,13.1518502 C2.84975299,15.1116939 3.44942199,17.6032393 4.55399149,17.6032393 Z" transform="scale(-1 1) rotate(50 0 3.203)"/>
    </g>
  </g>
</svg>
