<svg xmlns="http://www.w3.org/2000/svg" width="20" height="20" viewBox="0 0 20 20">
  <g fill="none" fill-rule="evenodd">
    <path fill="#AB92F0" stroke="#AB92F0" d="M5,7.5 C4.72385763,7.5 4.5,7.72385763 4.5,8 L4.5,19 C4.5,19.2761424 4.72385763,19.5 5,19.5 L19,19.5 C19.2761424,19.5 19.5,19.2761424 19.5,19 L19.5,8 C19.5,7.72385763 19.2761424,7.5 19,7.5 L5,7.5 Z" transform="matrix(-1 0 0 1 24 0)"/>
    <path stroke="#000" d="M3,5.5 C2.72385763,5.5 2.5,5.72385763 2.5,6 L2.5,17 C2.5,17.2761424 2.72385763,17.5 3,17.5 L17,17.5 C17.2761424,17.5 17.5,17.2761424 17.5,17 L17.5,6 C17.5,5.72385763 17.2761424,5.5 17,5.5 L3,5.5 Z" transform="matrix(-1 0 0 1 20 0)"/>
    <rect width="1" height="11" x="9.5" y="6" fill="#000" stroke="#000"/>
    <rect width="1" height="14" x="9.5" y="4" fill="#000" stroke="#000" transform="rotate(90 10 11)"/>
    <path stroke="#000" stroke-linecap="round" stroke-linejoin="round" d="M8.10945564,5.77221194 C8.93788276,5.77221194 9.37086249,4.15998647 9.37086249,2.95465593 C9.37086249,1.7493254 8.69928962,0.772211943 7.87086249,0.772211943 C7.04243537,0.772211943 6.37086249,1.7493254 6.37086249,2.95465593 C6.37086249,4.15998647 7.28102851,5.77221194 8.10945564,5.77221194 Z" transform="scale(-1 1) rotate(49 0 -13.999)"/>
    <path stroke="#000" stroke-linecap="round" stroke-linejoin="round" d="M12.6094556,5.77221194 C13.4378828,5.77221194 13.8708625,4.15998647 13.8708625,2.95465593 C13.8708625,1.7493254 13.1992896,0.772211943 12.3708625,0.772211943 C11.5424354,0.772211943 10.8708625,1.7493254 10.8708625,2.95465593 C10.8708625,4.15998647 11.7810285,5.77221194 12.6094556,5.77221194 Z" transform="rotate(49 12.37 3.272)"/>
  </g>
</svg>
