<svg xmlns="http://www.w3.org/2000/svg" width="20" height="20" viewBox="0 0 20 20">
  <g fill="none" fill-rule="evenodd" stroke-linecap="round">
    <path fill="#AB92F0" stroke="#AB92F0" stroke-linejoin="round" d="M9.88705656,14 C12.3358517,14 14,10.6421356 14,6.5 C14,2.35786438 12.3358517,-1 9.88705656,-1 C7.43826141,-1 8.07435445,2.35786438 8.07435445,6.5 C8.07435445,10.6421356 7.43826141,14 9.88705656,14 Z" transform="rotate(-90 11 6.5)"/>
    <path fill="#AB92F0" stroke="#AB92F0" stroke-linejoin="round" d="M10.623147,25.5 C12.5056247,25.5 12.4999998,21.6155787 12.4999998,18 C12.4999998,14.3844213 12.5056247,10.5 10.623147,10.5 C8.7406694,10.5 9.79348059,13.8578644 9.79348059,18 C9.79348059,22.1421356 8.7406694,25.5 10.623147,25.5 Z" transform="matrix(0 -1 -1 0 29 29)"/>
    <path fill="#AB92F0" stroke="#AB92F0" stroke-width="2" d="M3.25,11.75 C3.82179551,11.4166667 4.43166743,11.25 5.07961578,11.25 C6.0515383,11.25 6.12484797,11.75 7.125,11.75 C8.12515203,11.75 8.11746381,11.25 9.08553628,11.25 C10.0536087,11.25 10.0429664,11.75 11,11.75 C11.9570336,11.75 11.9442642,11.25 12.9137138,11.25 C13.8831634,11.25 13.8913093,11.75 14.875,11.75 C15.8586907,11.75 15.8800684,11.25 16.8477808,11.25 C17.4929224,11.25 18.1269954,11.4166667 18.75,11.75"/>
    <path fill="#AB92F0" stroke="#AB92F0" stroke-linejoin="round" stroke-width="2" d="M4,14.25 L18,14.25"/>
    <path stroke="#000" stroke-linejoin="round" d="M8.88705656,12.25 C11.3358517,12.25 13,8.89213562 13,4.75 C13,0.607864376 11.3358517,-2.75 8.88705656,-2.75 C6.43826141,-2.75 7.07435445,0.607864376 7.07435445,4.75 C7.07435445,8.89213562 6.43826141,12.25 8.88705656,12.25 Z" transform="rotate(-90 10 4.75)"/>
    <path stroke="#000" stroke-linejoin="round" d="M9.62314705,23.75 C11.5056247,23.75 11.4999998,19.8655787 11.4999998,16.25 C11.4999998,12.6344213 11.5056247,8.75 9.62314705,8.75 C7.7406694,8.75 8.79348059,12.1078644 8.79348059,16.25 C8.79348059,20.3921356 7.7406694,23.75 9.62314705,23.75 Z" transform="matrix(0 -1 -1 0 26.25 26.25)"/>
    <path stroke="#000" d="M2.25,10 C2.82179551,9.66666667 3.43166743,9.5 4.07961578,9.5 C5.0515383,9.5 5.12484797,10 6.125,10 C7.12515203,10 7.11746381,9.5 8.08553628,9.5 C9.05360875,9.5 9.04296639,10 10,10 C10.9570336,10 10.9442642,9.5 11.9137138,9.5 C12.8831634,9.5 12.8913093,10 13.875,10 C14.8586907,10 14.8800684,9.5 15.8477808,9.5 C16.4929224,9.5 17.1269954,9.66666667 17.75,10"/>
    <path stroke="#000" stroke-linejoin="round" d="M3,12.5 L17,12.5"/>
    <circle cx="5.5" cy="5.25" r="1" fill="#000" stroke="#000" stroke-width=".2" transform="rotate(-90 5.5 5.25)"/>
    <circle cx="8" cy="4.25" r="1" fill="#000" stroke="#000" stroke-width=".2" transform="rotate(-90 8 4.25)"/>
    <circle cx="10" cy="5.75" r="1" fill="#000" stroke="#000" stroke-width=".2" transform="rotate(-90 10 5.75)"/>
    <circle cx="12" cy="4.25" r="1" fill="#000" stroke="#000" stroke-width=".2" transform="rotate(-90 12 4.25)"/>
    <circle cx="14.5" cy="5.25" r="1" fill="#000" stroke="#000" stroke-width=".2" transform="rotate(-90 14.5 5.25)"/>
  </g>
</svg>
