<svg xmlns="http://www.w3.org/2000/svg" width="20" height="20" viewBox="0 0 20 20">
  <g fill="none" fill-rule="evenodd" stroke-linecap="round" stroke-linejoin="round">
    <path fill="#AB92F0" stroke="#AB92F0" stroke-width="1.5" d="M16.25,9.13513894 C14.25,8.63118935 13.25,7.49192583 13.25,5.71734837 C13.25,3.94277091 14.25,2.53698812 16.25,1.5 L16.25,11.5"/>
    <rect width="7" height="2" x="12.75" y="14" fill="#AB92F0" stroke="#AB92F0" rx="1" transform="rotate(-90 16.25 15)"/>
    <path stroke="#AB92F0" stroke-width="1.5" d="M6.53178656,2.5 C6.44475161,4.24203848 6.53644982,5.43902311 6.80688118,6.09095389 C7.07731253,6.74288467 7.64168548,7.04416183 8.5,6.99478538"/>
    <path stroke="#AB92F0" stroke-width="1.5" d="M9.03178656,2.5 C8.94475161,4.24203848 9.03644982,5.43902311 9.30688118,6.09095389 C9.57731253,6.74288467 10.1416855,7.04416183 11,6.99478538" transform="matrix(-1 0 0 1 20 0)"/>
    <path fill="#AB92F0" stroke="#AB92F0" stroke-width="1.5" d="M8.75,2.5 L8.75,11.4997941"/>
    <rect width="7" height="2" x="5.25" y="14" fill="#AB92F0" stroke="#AB92F0" rx="1" transform="rotate(-90 8.75 15)"/>
    <path stroke="#000" d="M14.5,8.75338199 C12.5,8.27462988 11.5,7.19232954 11.5,5.50648095 C11.5,3.82063236 12.5,2.48513871 14.5,1.5 L14.5,11"/>
    <rect width="7" height="2" x="11" y="14" stroke="#000" rx="1" transform="rotate(-90 14.5 15)"/>
    <path stroke="#000" d="M5.03178656,2.5 C4.94475161,4.24203848 5.03644982,5.43902311 5.30688118,6.09095389 C5.57731253,6.74288467 6.14168548,7.04416183 7,6.99478538"/>
    <path stroke="#000" d="M7.03178656,2.5 C6.94475161,4.24203848 7.03644982,5.43902311 7.30688118,6.09095389 C7.57731253,6.74288467 8.14168548,7.04416183 9,6.99478538" transform="matrix(-1 0 0 1 16 0)"/>
    <path stroke="#000" d="M7,2.5 L7,11.4997941"/>
    <rect width="7" height="2" x="3.5" y="14" stroke="#000" rx="1" transform="rotate(-90 7 15)"/>
  </g>
</svg>
