<svg xmlns="http://www.w3.org/2000/svg" width="20" height="20" viewBox="0 0 20 20">
  <g fill="none" fill-rule="evenodd">
    <path fill="#AB92F0" stroke="#AB92F0" stroke-linecap="round" stroke-linejoin="round" d="M12.5,19 C15,19 19,12.2809841 19,8.62313025 C19,4.96527642 16.0898509,2 12.5,2 C8.91014913,2 6,4.96527642 6,8.62313025 C6,12.2809841 10,19 12.5,19 Z"/>
    <circle cx="10" cy="8" r="2.5" stroke="#000" transform="rotate(-90 10 8)"/>
    <path stroke="#000" stroke-linecap="round" stroke-linejoin="round" d="M10,18.5 C12.5,18.5 16.5,11.7809841 16.5,8.12313025 C16.5,4.46527642 13.5898509,1.5 10,1.5 C6.41014913,1.5 3.5,4.46527642 3.5,8.12313025 C3.5,11.7809841 7.5,18.5 10,18.5 Z"/>
  </g>
</svg>
