<svg xmlns="http://www.w3.org/2000/svg" width="20" height="20" viewBox="0 0 20 20">
  <g fill="none" fill-rule="evenodd">
    <rect width="11" height="9" x="6" y="10" fill="#AB92F0" stroke="#AB92F0" stroke-linecap="round" stroke-linejoin="round" rx="3"/>
    <path stroke="#AB92F0" stroke-width="1.5" d="M8.75,9.35627675 L14.25,7.6219834 C14.25,6.95694685 14.25,6.86081761 14.25,6.30770307 C14.25,4.90489564 13.0279632,3.75 11.5,3.75 C9.97203676,3.75 8.75,4.90489564 8.75,6.30770307 L8.75,9.35627675 Z"/>
    <circle cx="9.5" cy="12.5" r="1.5" stroke="#000"/>
    <rect width="11" height="9" x="4" y="8" stroke="#000" stroke-linecap="round" stroke-linejoin="round" rx="3"/>
    <path stroke="#000" d="M6.5,7.6972426 L12.5,5.80528621 C12.5,4.97002805 12.5,4.9080303 12.5,4.30770307 C12.5,2.7635668 11.1629744,1.5 9.5,1.5 C7.83702563,1.5 6.5,2.7635668 6.5,4.30770307 L6.5,7.6972426 Z"/>
  </g>
</svg>
