<svg xmlns="http://www.w3.org/2000/svg" width="20" height="20" viewBox="0 0 20 20">
  <g fill="none" fill-rule="evenodd" stroke-linecap="round" stroke-linejoin="round">
    <path fill="#AB92F0" stroke="#AB92F0" d="M10.73217,2.98847433 C9.34312564,3.98868147 8.43847433,5.62165565 8.43847433,7.46632935 C8.43847433,10.5097448 10.9009082,12.9769204 13.9384743,12.9769204 C16.4258062,12.9769204 18.5274967,11.3226136 19.2072938,9.05224711 C19.3583527,9.66763687 19.4384743,10.3109783 19.4384743,10.9730691 C19.4384743,15.3998552 15.8567523,18.9884743 11.4384743,18.9884743 C7.02019633,18.9884743 3.43847433,15.3998552 3.43847433,10.9730691 C3.43847433,6.78474672 6.64470687,3.34672208 10.73217,2.98847433 Z" transform="rotate(12 11.438 10.988)"/>
    <path stroke="#000" d="M9.28216998,1.98847433 C7.89312564,2.98868147 6.98847433,4.62165565 6.98847433,6.46632935 C6.98847433,9.50974476 9.45090821,11.9769204 12.4884743,11.9769204 C14.9758062,11.9769204 17.0774967,10.3226136 17.7572938,8.05224711 C17.9083527,8.66763687 17.9884743,9.31097827 17.9884743,9.97306912 C17.9884743,14.3998552 14.4067523,17.9884743 9.98847433,17.9884743 C5.57019633,17.9884743 1.98847433,14.3998552 1.98847433,9.97306912 C1.98847433,5.78474672 5.19470687,2.34672208 9.28216998,1.98847433 Z" transform="rotate(12 9.988 9.988)"/>
  </g>
</svg>
