<svg xmlns="http://www.w3.org/2000/svg" width="20" height="20" viewBox="0 0 20 20">
  <g fill="none" fill-rule="evenodd">
    <g fill="#AB92F0" stroke="#AB92F0" transform="translate(5 3.5)">
      <path stroke-linecap="round" stroke-linejoin="round" stroke-width="2" d="M5.68123342,0.47549601 L12.6812334,-0.00701227913 C13.2322108,-0.0449910145 13.709654,0.370876546 13.7476328,0.921853914 C13.7492105,0.944742167 13.75,0.967677935 13.75,0.990620497 L13.75,1.50064262 C13.75,2.0247724 13.3453138,2.45997236 12.8225658,2.49800625 L5.82256578,3.00730945 C5.27173706,3.04738643 4.79271335,2.63334033 4.75263637,2.08251161 C4.75087937,2.05836291 4.75,2.03415836 4.75,2.00994582 L4.75,1.47312879 C4.75,0.947532702 5.15688154,0.511639457 5.68123342,0.47549601 Z"/>
      <ellipse cx="2.75" cy="14" rx="2.5" ry="2"/>
      <path d="M11.75 15C13.1307119 15 14.25 14.1045695 14.25 13 14.25 11.8954305 13.1307119 11 11.75 11 10.3692881 11 9.25 11.8954305 9.25 13 9.25 13.5522847 9.52982203 14.0522847 9.98223305 14.4142136 10.4346441 14.7761424 11.0596441 15 11.75 15zM4.25 1.75L4.25 12.0389366 5.25 13.7346611 5.25 1.75 4.25 1.75z"/>
      <path stroke-width="2" d="M13.4803229,2.71285912 L14.4803229,2.19387063 C14.2352234,2.32107448 13.9334118,2.22550112 13.806208,1.98040157 C13.7692779,1.90924373 13.75,1.83024889 13.75,1.75007863 L13.75,12.7500641 C13.75,12.4739218 13.9738576,12.2500641 14.25,12.2500641 C14.3823307,12.2500641 14.5092649,12.3025229 14.6029866,12.3959449 L13.6029866,11.3991433 C13.6971015,11.4929571 13.75,11.6203768 13.75,11.7532626 L13.75,2.26906712 C13.75,2.45574075 13.6460115,2.62686868 13.4803229,2.71285912 Z"/>
    </g>
    <g stroke="#000" transform="translate(2 1)">
      <path stroke-linecap="round" stroke-linejoin="round" d="M6.17583325,1.39501573 L13.1758333,0.874414686 C13.7265969,0.833453522 14.2062847,1.24673011 14.2472459,1.79749379 C14.2490813,1.82217344 14.25,1.84691273 14.25,1.87166054 L14.25,2.57941623 C14.25,3.10134927 13.8485931,3.53550222 13.3282609,3.57634914 L6.32826085,4.1258605 C5.77767,4.16908277 5.29628936,3.75777928 5.25306708,3.20718843 C5.25102315,3.18115154 5.25,3.15504457 5.25,3.12892758 L5.25,2.39226159 C5.25,1.8687495 5.65376299,1.43384292 6.17583325,1.39501573 Z"/>
      <ellipse cx="2.75" cy="15" rx="2.5" ry="2"/>
      <path d="M11.75,16 C13.1307119,16 14.25,15.1045695 14.25,14 C14.25,12.8954305 13.1307119,12 11.75,12 C10.3692881,12 9.25,12.8954305 9.25,14 C9.25,14.5522847 9.52982203,15.0522847 9.98223305,15.4142136 C10.4346441,15.7761424 11.0596441,16 11.75,16 Z"/>
      <path fill="#000" stroke-width=".5" d="M5.02397518,2.463913 C5.02189424,2.45951028 5.01746109,2.45670222 5.01259135,2.45670222 C5.00563734,2.45670222 5,2.46233956 5,2.46929357 L5,13.4002251 C5,13.4266099 5.00417678,13.4528284 5.01237526,13.4779071 L5.48762474,14.931669 C5.48847752,14.9342776 5.49091087,14.9360422 5.49365534,14.9360422 C5.4971594,14.9360422 5.5,14.9332016 5.5,14.9296976 L5.5,3.52715885 C5.5,3.49021459 5.49181193,3.45372951 5.47602482,3.42032823 L5.02397518,2.463913 Z"/>
      <path fill="#000" d="M14.25,3.22322678 L14.6164987,2.82829848 C14.5370487,2.91391155 14.4032385,2.91890765 14.3176255,2.83945758 C14.2745042,2.79944042 14.25,2.74327017 14.25,2.68444141 L14.25,13.8443646 C14.25,13.7096825 14.3591814,13.6005011 14.4938636,13.6005011 C14.5998122,13.6005011 14.6936395,13.6689105 14.7260423,13.7697826 L14.25,12.2878315 L14.25,3.22322678 Z"/>
    </g>
  </g>
</svg>
