<svg xmlns="http://www.w3.org/2000/svg" width="20" height="20" viewBox="0 0 20 20">
  <g fill="none" fill-rule="evenodd">
    <path fill="#AB92F0" d="M11.5,9.5 C13.4329966,9.5 15,7.93299662 15,6 C15,4.06700338 13.4329966,2.5 11.5,2.5 C9.56700338,2.5 8,4.06700338 8,6 C8,7.93299662 9.56700338,9.5 11.5,9.5 Z M18,19.5 L18,16.6875 C18,13.2026846 15.0695259,10.5 11.5175219,10.5 C7.96551787,10.5 5,13.2026846 5,16.6875 L5.00221543,19.5"/>
    <path stroke="#000" stroke-linecap="round" d="M10,9 C11.6568542,9 13,7.65685425 13,6 C13,4.34314575 11.6568542,3 10,3 C8.34314575,3 7,4.34314575 7,6 C7,7.65685425 8.34314575,9 10,9 Z M16,18 L16,15.5 C16,12.4023863 13.294947,10 10.0161741,10 C6.73740112,10 4,12.4023863 4,15.5 L4.00204501,18"/>
  </g>
</svg>
