<svg xmlns="http://www.w3.org/2000/svg" width="20" height="20" viewBox="0 0 20 20">
  <g fill="none" fill-rule="evenodd" stroke-linecap="round" stroke-linejoin="round">
    <path fill="#AB92F0" stroke="#AB92F0" stroke-width="2" d="M7.19238816,10.9374284 C9.19528716,11.1252376 11.1952886,11.1258842 13.1923882,10.9398057 L13.1923882,9.19238816 C13.1923882,8.08781866 14.0878187,7.19238816 15.1923882,7.19238816 L17.1923882,7.19238816 C18.2969577,7.19238816 19.1923882,8.08781866 19.1923882,9.19238816 L19.1923882,9.81693954 L19.1923882,13.1602074 C13.0448328,15.9106782 7.0394009,15.8285743 1.19238816,13.1602074 L1.19238816,9.81693954 L1.19238816,9.19238816 C1.19238816,8.08781866 2.08781866,7.19238816 3.19238816,7.19238816 L5.19238816,7.19238816 C6.29695766,7.19238816 7.19238816,8.08781866 7.19238816,9.19238816 L7.19238816,10.9374287 Z" transform="rotate(45 10.192 11.192)"/>
    <path stroke="#000" d="M6.69238816,8.93742837 C8.69528716,9.12523762 10.6952886,9.1258842 12.6923882,8.93980572 L12.6923882,7.19238816 C12.6923882,6.08781866 13.5878187,5.19238816 14.6923882,5.19238816 L16.6923882,5.19238816 C17.7969577,5.19238816 18.6923882,6.08781866 18.6923882,7.19238816 L18.6923882,7.81693954 L18.6923882,11.1602074 C12.5448328,13.9106782 6.5394009,13.8285743 0.692388155,11.1602074 L0.692388155,7.81693954 L0.692388155,7.19238816 C0.692388155,6.08781866 1.58781866,5.19238816 2.69238816,5.19238816 L4.69238816,5.19238816 C5.79695766,5.19238816 6.69238816,6.08781866 6.69238816,7.19238816 L6.69238816,8.93742867 Z" transform="rotate(45 9.692 9.192)"/>
  </g>
</svg>
