<svg xmlns="http://www.w3.org/2000/svg" width="20" height="20" viewBox="0 0 20 20">
  <g fill="none" fill-rule="evenodd" stroke-linecap="round">
    <path fill="#AB92F0" stroke="#AB92F0" stroke-linejoin="round" d="M8.58933131,5 L15.4109691,5 C16.2393962,5 16.9109691,5.67157288 16.9109691,6.5 C16.9109691,6.56058453 16.9072986,6.62111342 16.8999778,6.68125402 L15.6826981,16.681254 C15.5910648,17.4340249 14.9520168,18 14.1936893,18 L9.80944643,18 C9.0512787,18 8.41231263,17.4342566 8.3204884,16.68167 L7.10037329,6.68167002 C7.00003971,5.85934121 7.58533248,5.11137555 8.40766129,5.01104197 C8.46793864,5.00368744 8.52860696,5 8.58933131,5 Z"/>
    <path stroke="#000" stroke-linejoin="round" d="M6.58933131,5 L13.4109691,5 C14.2393962,5 14.9109691,5.67157288 14.9109691,6.5 C14.9109691,6.56058453 14.9072986,6.62111342 14.8999778,6.68125402 L13.6826981,16.681254 C13.5910648,17.4340249 12.9520168,18 12.1936893,18 L7.80944643,18 C7.0512787,18 6.41231263,17.4342566 6.3204884,16.68167 L5.10037329,6.68167002 C5.00003971,5.85934121 5.58533248,5.11137555 6.40766129,5.01104197 C6.46793864,5.00368744 6.52860696,5 6.58933131,5 Z"/>
    <path stroke="#000" d="M8.5,14.5 L12.5,1.5"/>
    <path stroke="#000" stroke-linejoin="round" d="M5.5 9.5L14.5 9.5M12.5 1.5L16.5 2.5"/>
  </g>
</svg>
