<svg xmlns="http://www.w3.org/2000/svg" width="20" height="20" viewBox="0 0 20 20">
  <g fill="none" fill-rule="evenodd" stroke-linecap="round">
    <g stroke="#AB92F0" transform="translate(2 4)">
      <path fill="#AB92F0" stroke-linejoin="round" d="M4.55555556,3.86780914 L9,0 L9,13 L4.55555556,9.10422319 L4.55555556,9.04091238 L1,9.04091238 L1,3.84091238 L4.55555556,3.84091238 L4.55555556,3.86780914 Z"/>
      <path stroke-linejoin="round" stroke-width="2" d="M11,9 C11.0518443,8.95544431 11.1021966,8.90781691 11.1509273,8.85729883 C11.3460429,8.6550269 11.515164,8.40641263 11.64999,8.12307589 C11.8711225,7.6583662 12,7.10025191 12,6.5 C12,5.53377032 11.6660582,4.67672578 11.1509273,4.14270117 C11.1021966,4.09218309 11.0518443,4.04455569 11,4"/>
      <path stroke-width="2" d="M12,12 C12.1838865,11.8793899 12.3613875,11.7501624 12.5319009,11.6129072 C12.7027477,11.4753836 12.8665797,11.3298009 13.0227913,11.1767522 C13.179003,11.0237034 13.3275944,10.8631888 13.4679601,10.6958013 C13.6080519,10.5287404 13.7399501,10.3548335 13.8630528,10.1746703 C13.985675,9.99521016 14.0995703,9.80954246 14.2041436,9.61825002 C14.3081061,9.42807515 14.4028552,9.23234107 14.4878066,9.03162045 C14.5720354,8.83260702 14.6466323,8.62869152 14.7110278,8.42043211 C14.774673,8.21459903 14.8283529,8.00452269 14.8715176,7.79074197 C14.9140535,7.58007583 14.9463782,7.36581247 14.9679655,7.14846759 C14.9891559,6.9351184 15,6.71879995 15,6.5 C15,6.28120005 14.9891559,6.0648816 14.9679655,5.85153241 C14.9463782,5.63418753 14.9140535,5.41992417 14.8715176,5.20925803 C14.8283529,4.99547731 14.774673,4.78540097 14.7110278,4.57956789 C14.6466323,4.37130848 14.5720354,4.16739298 14.4878066,3.96837955 C14.4028552,3.76765893 14.3081061,3.57192485 14.2041436,3.38174998 C14.0995703,3.19045754 13.985675,3.00478984 13.8630528,2.82532972 C13.7399501,2.64516651 13.6080519,2.47125961 13.4679601,2.30419873 C13.3275944,2.13681124 13.179003,1.97629655 13.0227913,1.82324785 C12.8665797,1.67019914 12.7027477,1.52461641 12.5319009,1.38709283 C12.3613875,1.24983759 12.1838865,1.12061008 12,1"/>
      <path stroke-width="1.5" d="M0,0 L17,14"/>
    </g>
    <g stroke="#000" transform="translate(2 2.5)">
      <path stroke-linejoin="round" d="M3.55555556 3.86780914L8 0 8 13 3.55555556 9.10422319 3.55555556 9.04091238 0 9.04091238 0 3.84091238 3.55555556 3.84091238 3.55555556 3.86780914zM11 9C11.0518443 8.95544431 11.1021966 8.90781691 11.1509273 8.85729883 11.3460429 8.6550269 11.515164 8.40641263 11.64999 8.12307589 11.8711225 7.6583662 12 7.10025191 12 6.5 12 5.53377032 11.6660582 4.67672578 11.1509273 4.14270117 11.1021966 4.09218309 11.0518443 4.04455569 11 4"/>
      <path d="M12 12C12.1838865 11.8793899 12.3613875 11.7501624 12.5319009 11.6129072 12.7027477 11.4753836 12.8665797 11.3298009 13.0227913 11.1767522 13.179003 11.0237034 13.3275944 10.8631888 13.4679601 10.6958013 13.6080519 10.5287404 13.7399501 10.3548335 13.8630528 10.1746703 13.985675 9.99521016 14.0995703 9.80954246 14.2041436 9.61825002 14.3081061 9.42807515 14.4028552 9.23234107 14.4878066 9.03162045 14.5720354 8.83260702 14.6466323 8.62869152 14.7110278 8.42043211 14.774673 8.21459903 14.8283529 8.00452269 14.8715176 7.79074197 14.9140535 7.58007583 14.9463782 7.36581247 14.9679655 7.14846759 14.9891559 6.9351184 15 6.71879995 15 6.5 15 6.28120005 14.9891559 6.0648816 14.9679655 5.85153241 14.9463782 5.63418753 14.9140535 5.41992417 14.8715176 5.20925803 14.8283529 4.99547731 14.774673 4.78540097 14.7110278 4.57956789 14.6466323 4.37130848 14.5720354 4.16739298 14.4878066 3.96837955 14.4028552 3.76765893 14.3081061 3.57192485 14.2041436 3.38174998 14.0995703 3.19045754 13.985675 3.00478984 13.8630528 2.82532972 13.7399501 2.64516651 13.6080519 2.47125961 13.4679601 2.30419873 13.3275944 2.13681124 13.179003 1.97629655 13.0227913 1.82324785 12.8665797 1.67019914 12.7027477 1.52461641 12.5319009 1.38709283 12.3613875 1.24983759 12.1838865 1.12061008 12 1M0 .5L17 14.5"/>
    </g>
  </g>
</svg>
