<svg xmlns="http://www.w3.org/2000/svg" width="20" height="20" viewBox="0 0 20 20">
  <g fill="none" fill-rule="evenodd">
    <g fill="#AB92F0" stroke="#AB92F0" transform="rotate(-90 10.5 9)">
      <circle cx="9" cy="9" r="3"/>
      <rect width="1" height="3" x="8.5" stroke-linecap="round" stroke-linejoin="round" rx=".5"/>
      <rect width="1" height="3" x="8.5" y="15" stroke-linecap="round" stroke-linejoin="round" rx=".5"/>
      <rect width="1" height="3" x="3.086" y="12.914" stroke-linecap="round" stroke-linejoin="round" rx=".5" transform="rotate(45 3.586 14.414)"/>
      <rect width="1" height="3" x="14.086" y="1.914" stroke-linecap="round" stroke-linejoin="round" rx=".5" transform="rotate(45 14.586 3.414)"/>
      <rect width="1" height="3" x="1" y="7.5" stroke-linecap="round" stroke-linejoin="round" rx=".5" transform="rotate(90 1.5 9)"/>
      <rect width="1" height="3" x="16" y="7.5" stroke-linecap="round" stroke-linejoin="round" rx=".5" transform="rotate(90 16.5 9)"/>
      <rect width="1" height="3" x="14.086" y="12.914" stroke-linecap="round" stroke-linejoin="round" rx=".5" transform="rotate(135 14.586 14.414)"/>
      <rect width="1" height="3" x="3.086" y="1.914" stroke-linecap="round" stroke-linejoin="round" rx=".5" transform="rotate(135 3.586 3.414)"/>
    </g>
    <g stroke="#000" transform="rotate(-90 10 9)">
      <circle cx="9" cy="9" r="3"/>
      <rect width="1" height="3" x="8.5" fill="#000" stroke-linecap="round" stroke-linejoin="round" stroke-width=".5" rx=".5"/>
      <rect width="1" height="3" x="8.5" y="15" fill="#000" stroke-linecap="round" stroke-linejoin="round" stroke-width=".5" rx=".5"/>
      <rect width="1" height="3" x="3.086" y="12.914" fill="#000" stroke-linecap="round" stroke-linejoin="round" stroke-width=".5" rx=".5" transform="rotate(45 3.586 14.414)"/>
      <rect width="1" height="3" x="14.086" y="1.914" fill="#000" stroke-linecap="round" stroke-linejoin="round" stroke-width=".5" rx=".5" transform="rotate(45 14.586 3.414)"/>
      <rect width="1" height="3" x="1" y="7.5" fill="#000" stroke-linecap="round" stroke-linejoin="round" stroke-width=".5" rx=".5" transform="rotate(90 1.5 9)"/>
      <rect width="1" height="3" x="16" y="7.5" fill="#000" stroke-linecap="round" stroke-linejoin="round" stroke-width=".5" rx=".5" transform="rotate(90 16.5 9)"/>
      <rect width="1" height="3" x="14.086" y="12.914" fill="#000" stroke-linecap="round" stroke-linejoin="round" stroke-width=".5" rx=".5" transform="rotate(135 14.586 14.414)"/>
      <rect width="1" height="3" x="3.086" y="1.914" fill="#000" stroke-linecap="round" stroke-linejoin="round" stroke-width=".5" rx=".5" transform="rotate(135 3.586 3.414)"/>
    </g>
  </g>
</svg>
