<svg xmlns="http://www.w3.org/2000/svg" width="20" height="20" viewBox="0 0 20 20">
  <g fill="none" fill-rule="evenodd">
    <g fill="#AB92F0" stroke="#AB92F0" transform="rotate(-90 12 8.5)">
      <rect width="2" height="3" x="1.5" y=".5" rx="1" transform="rotate(90 2.5 2)"/>
      <rect width="2" height="3" x="1.5" y="12.5" rx="1" transform="rotate(90 2.5 14)"/>
      <path stroke-linecap="round" stroke-linejoin="round" d="M17,7 L17,7 C17.5522847,7 18,7.44771525 18,8 L18,8 C18,8.55228475 17.5522847,9 17,9 L17,9 L17,9 C16.4477153,9 16,8.55228475 16,8 L16,8 C16,7.44771525 16.4477153,7 17,7 Z" transform="rotate(90 17 8)"/>
      <rect width="2" height="3" x="1.5" y=".5" rx="1" transform="rotate(90 2.5 2)"/>
      <rect width="2" height="3" x="1.5" y="12.5" rx="1" transform="rotate(90 2.5 14)"/>
      <path stroke-linecap="round" stroke-linejoin="round" d="M10,1.5 L14.8638034,2.71595086 C15.5315539,2.88288848 16,3.48286315 16,4.17116461 C16,5.4476841 16,6.72420358 16,8.00072307 C16,9.27676051 16,10.5527979 16,11.8288354 C16,12.5171369 15.5315539,13.1171115 14.8638034,13.2840491 L10,14.5 C10,15.3284271 9.32842712,16 8.5,16 L5.5,16 C4.67157288,16 4,15.3284271 4,14.5 L4,1.5 C4,0.671572875 4.67157288,-1.13534658e-13 5.5,-1.13686838e-13 L8.5,-1.13686838e-13 C9.32842712,-1.13103226e-13 10,0.671572875 10,1.5 Z"/>
    </g>
    <g stroke="#000" transform="rotate(-90 10.75 8.75)">
      <path stroke-linecap="round" stroke-linejoin="round" d="M10,1.5 L14.8638034,2.71595086 C15.5315539,2.88288848 16,3.48286315 16,4.17116461 C16,5.4476841 16,6.72420358 16,8.00072307 C16,9.27676051 16,10.5527979 16,11.8288354 C16,12.5171369 15.5315539,13.1171115 14.8638034,13.2840491 L10,14.5 C10,15.3284271 9.32842712,16 8.5,16 L5.5,16 C4.67157288,16 4,15.3284271 4,14.5 L4,1.5 C4,0.671572875 4.67157288,-1.13534658e-13 5.5,-1.13686838e-13 L8.5,-1.13686838e-13 C9.32842712,-1.13103226e-13 10,0.671572875 10,1.5 Z"/>
      <circle cx="7" cy="13" r="1" stroke-linecap="round" stroke-linejoin="round"/>
      <circle cx="7" cy="3" r="1" stroke-linecap="round" stroke-linejoin="round"/>
      <rect width="2" height="3" x="1.5" y=".5" rx="1" transform="rotate(90 2.5 2)"/>
      <rect width="2" height="3" x="1.5" y="12.5" rx="1" transform="rotate(90 2.5 14)"/>
      <path d="M9.35207827,6 L14.6475738,6 C15.1081432,6 15.5091483,6.31457056 15.6188128,6.7618936 L16.1091276,8.7618936 C16.2406301,9.29829412 15.9123954,9.83973654 15.3759949,9.97123907 C15.2980673,9.99034359 15.2181237,10 15.1378885,10 L8.86176356,10 C8.30947881,10 7.86176356,9.55228475 7.86176356,9 C7.86176356,8.91976479 7.87141997,8.83982117 7.89052448,8.7618936 L8.3808392,6.7618936 C8.49050373,6.31457056 8.89150883,6 9.35207827,6 Z" transform="rotate(90 12 8)"/>
      <path stroke-linecap="round" stroke-linejoin="round" d="M17,7 L17,7 C17.5522847,7 18,7.44771525 18,8 L18,8 C18,8.55228475 17.5522847,9 17,9 L17,9 L17,9 C16.4477153,9 16,8.55228475 16,8 L16,8 C16,7.44771525 16.4477153,7 17,7 Z" transform="rotate(90 17 8)"/>
    </g>
  </g>
</svg>
