<svg xmlns="http://www.w3.org/2000/svg" width="20" height="20" viewBox="0 0 20 20">
  <g fill="none" fill-rule="evenodd">
    <g fill="#AB92F0" stroke="#AB92F0" transform="translate(5.5 3.5)">
      <path d="M0.5,10.5 C0.5,11.8807119 1.61928813,13 3,13 L10.5,13 C11.8807119,13 13,11.8807119 13,10.5 L13,5.5 C13,4.11928813 11.8807119,3 10.5,3 L3,3 C1.61928813,3 0.5,4.11928813 0.5,5.5 L0.5,10.5 Z"/>
      <path stroke-linecap="round" stroke-linejoin="round" stroke-width="1.5" d="M7 2.5L9 1.31006317e-14 7 2.5zM6 2.5L4 6.43929354e-15 6 2.5z"/>
    </g>
    <path stroke="#000" d="M3.75,14 C3.75,15.3807119 4.86928813,16.5 6.25,16.5 L13.75,16.5 C15.1307119,16.5 16.25,15.3807119 16.25,14 L16.25,9 C16.25,7.61928813 15.1307119,6.5 13.75,6.5 L6.25,6.5 C4.86928813,6.5 3.75,7.61928813 3.75,9 L3.75,14 Z"/>
    <path stroke="#000" stroke-linecap="round" stroke-linejoin="round" d="M10.25 6L12.25 3.5 10.25 6zM9.25 6L7.25 3.5 9.25 6z"/>
  </g>
</svg>
