<svg xmlns="http://www.w3.org/2000/svg" width="20" height="20" viewBox="0 0 20 20">
  <g fill="none" fill-rule="evenodd" stroke-linecap="round" stroke-linejoin="round">
    <path fill="#AB92F0" stroke="#AB92F0" d="M14.0161371,8.39988883 C14.0923573,8.64173889 14.1317475,8.89506463 14.1317475,9.15134504 L14.1317475,17.4002349 C14.1317475,18.5048044 13.236317,19.4002349 12.1317475,19.4002349 C11.027178,19.4002349 10.1317475,18.5048044 10.1317475,17.4002349 L10.1317475,9.15134504 C10.1317475,8.88647599 10.1738221,8.62476295 10.255145,8.37561268 C9.18885951,7.67518548 8.47597731,6.40278933 8.47597731,4.94933303 C8.47597731,3.27064426 9.42691965,1.83347893 10.7749723,1.24009156 L10.7749723,3.94933303 C10.7749723,4.50161778 11.2226875,4.94933303 11.7749723,4.94933303 L12.5337663,4.94933303 C13.086051,4.94933303 13.5337663,4.50161778 13.5337663,3.94933303 L13.5337663,1.24009156 C14.8818189,1.83347893 15.8327612,3.27064426 15.8327612,4.94933303 C15.8327612,6.41974306 15.1031513,7.70484437 14.0161371,8.39988883 Z" transform="rotate(-40 12.154 10.32)"/>
    <path stroke="#000" d="M12.5916289,8.14106407 C12.6678491,8.38291413 12.7072393,8.63623987 12.7072393,8.89252028 L12.7072393,17.1414101 C12.7072393,18.2459796 11.8118088,19.1414101 10.7072393,19.1414101 C9.60266977,19.1414101 8.70723927,18.2459796 8.70723927,17.1414101 L8.70723927,8.89252028 C8.70723927,8.62765122 8.74931381,8.36593819 8.83063671,8.11678792 C7.76435126,7.41636072 7.05146907,6.14396457 7.05146907,4.69050827 C7.05146907,3.01181949 8.0024114,1.57465417 9.35046404,0.981266792 L9.35046404,3.69050827 C9.35046404,4.24279302 9.79817929,4.69050827 10.350464,4.69050827 L11.109258,4.69050827 C11.6615428,4.69050827 12.109258,4.24279302 12.109258,3.69050827 L12.109258,0.981266792 C13.4573107,1.57465417 14.408253,3.01181949 14.408253,4.69050827 C14.408253,6.1609183 13.6786431,7.44601961 12.5916289,8.14106407 Z" transform="rotate(-40 10.73 10.061)"/>
  </g>
</svg>
