<svg xmlns="http://www.w3.org/2000/svg" width="20" height="20" viewBox="0 0 20 20">
  <g fill="none" fill-rule="evenodd">
    <g stroke="#AB92F0" stroke-linecap="round" transform="rotate(-90 12.75 7.75)">
      <path fill="#AB92F0" stroke-linejoin="round" d="M8.24999315,0.250006848 L15.2500068,0.250003427 C16.9068611,0.250003427 18.2500068,1.59314918 18.2500068,3.25000343 C18.2500068,3.25000457 18.2500068,3.25000571 18.2500068,3.25000685 L18.2500097,10.2052354 C18.2500082,11.5204275 17.3933775,12.6822723 16.136984,13.0711239 C14.6746537,13.5237125 13.2123234,13.7500068 11.7499932,13.7500068 C10.2876695,13.7500068 8.82534581,13.5237146 7.36302215,13.07113 L7.3630193,13.0711392 C6.10662461,12.6822891 5.24999315,11.5204433 5.24999315,10.2052505 L5.24999315,3.25000685 C5.24999315,1.5931526 6.5931389,0.250006848 8.24999315,0.250006848 Z" transform="rotate(90 11.75 7)"/>
      <path stroke-linejoin="round" stroke-width="2" d="M3.50381519,10.5105843 L2.47499377,14.5032684" transform="scale(-1 1) rotate(89.587 0 8.985)"/>
      <path stroke-linejoin="round" stroke-width="2" d="M4.49626582,0.510584302 L3.46744441,4.50326842" transform="rotate(89.587 3.996 2.01)"/>
      <path stroke-width="2" d="M-2.02876866,7.02876866 L7.97123134,7.02876866" transform="rotate(90 3 7.029)"/>
    </g>
    <g stroke="#000" transform="rotate(-90 11 8)">
      <path stroke-linecap="round" stroke-linejoin="round" d="M7.24999315,0.250006848 L14.2500068,0.250003427 C15.9068611,0.250003427 17.2500068,1.59314918 17.2500068,3.25000343 C17.2500068,3.25000457 17.2500068,3.25000571 17.2500068,3.25000685 L17.2500097,10.2052354 C17.2500082,11.5204275 16.3933775,12.6822723 15.136984,13.0711239 C13.6746537,13.5237125 12.2123234,13.7500068 10.7499932,13.7500068 C9.28766948,13.7500068 7.82534581,13.5237146 6.36302215,13.07113 L6.3630193,13.0711392 C5.10662461,12.6822891 4.24999315,11.5204433 4.24999315,10.2052505 L4.24999315,3.25000685 C4.24999315,1.5931526 5.5931389,0.250006848 7.24999315,0.250006848 Z" transform="rotate(90 10.75 7)"/>
      <circle cx="7.5" cy="3.5" r="1"/>
      <circle cx="7.5" cy="10.5" r="1"/>
      <path stroke-linecap="round" stroke-linejoin="round" d="M3.26440421,10.2554609 L1.73559579,14.2445391" transform="scale(-1 1) rotate(89.587 0 9.732)"/>
      <path stroke-linecap="round" stroke-linejoin="round" d="M3.26440421,0.255460903 L1.73559579,4.2445391" transform="rotate(89.587 2.5 2.25)"/>
      <path stroke-linecap="round" d="M9.5,4 L15.5,4 C16.3284271,4 17,4.67157288 17,5.5 L16.9999975,8.0649135 C16.9999975,8.73281626 16.5583934,9.320258 15.916792,9.50584265 C14.7778613,9.83528088 13.6389307,10 12.5,10 C11.3610738,10 10.2221476,9.83528218 9.08322146,9.50584654 L9.08321795,9.50585867 C8.44160925,9.32027265 8,8.7328246 8,8.0649145 L8,5.5 C8,4.67157288 8.67157288,4 9.5,4 Z" transform="rotate(90 12.5 7)"/>
      <path stroke-linecap="round" d="M-3.25,7.5 L6.75,7.5" transform="rotate(90 2 7.5)"/>
    </g>
  </g>
</svg>
