<svg xmlns="http://www.w3.org/2000/svg" width="20" height="20" viewBox="0 0 20 20">
  <g fill="none" fill-rule="evenodd">
    <circle cx="8" cy="17.5" r="1.5" fill="#AB92F0" stroke="#AB92F0" stroke-width="1.5"/>
    <circle cx="17" cy="17.5" r="1.5" fill="#AB92F0" stroke="#AB92F0" stroke-width="1.5"/>
    <rect width="11.5" height="9.5" x="7.75" y="6.75" fill="#AB92F0" stroke="#AB92F0" stroke-width="1.5" rx="2"/>
    <path fill="#AB92F0" stroke="#AB92F0" stroke-width="1.5" d="M1.75,13.1130792 L1.75,15 C1.75,15.6903559 2.30964406,16.25 3,16.25 L7,16.25 C7.69035594,16.25 8.25,15.6903559 8.25,15 L8.25,11 C8.25,10.3096441 7.69035594,9.75 7,9.75 L3.71016207,9.75 C3.16177149,9.75 2.67741831,10.1074349 2.51572962,10.6314472 L1.75,13.1130792 Z"/>
    <circle cx="7.5" cy="16.5" r="1.5" stroke="#000"/>
    <circle cx="16.5" cy="16.5" r="1.5" stroke="#000"/>
    <rect width="11" height="10" x="7.5" y="5" stroke="#000" rx="2"/>
    <path stroke="#000" stroke-linecap="round" d="M10.25 8L15.75 8M10.25 10L15.75 10M10.25 12L15.75 12"/>
    <path stroke="#000" d="M0.5,11.5753862 L0.5,13.5 C0.5,14.3284271 1.17157288,15 2,15 L6,15 C6.82842712,15 7.5,14.3284271 7.5,13.5 L7.5,9.5 C7.5,8.67157288 6.82842712,8 6,8 L2.71016207,8 C2.05209338,8 1.47086956,8.42892182 1.27684313,9.0577367 L0.5,11.5753862 Z"/>
    <polygon stroke="#000" stroke-linecap="round" stroke-linejoin="round" points="2.79 10.1 4.5 10.1 4.5 12.1 2.5 12.1 2.5 11.25"/>
  </g>
</svg>
