<svg xmlns="http://www.w3.org/2000/svg" width="20" height="20" viewBox="0 0 20 20">
  <g fill="none" fill-rule="evenodd" stroke-linecap="round" stroke-linejoin="round">
    <g stroke="#AB92F0" transform="rotate(-90 12.125 7.125)">
      <path stroke-width="2" d="M3,4.37654271 L3,10.8765427 C3.1077375,11.7819459 3.5698537,12.2346476 4.3863486,12.2346476 C5.20284349,12.2346476 5.61109094,11.5552279 5.61109094,10.1963886" transform="rotate(90 4.306 8.306)"/>
      <path stroke-width="2" d="M16.7345979,5.50004966 L16.7345979,7.02447909" transform="rotate(90 16.235 6.5)"/>
      <path fill="#AB92F0" d="M18.2345482,10 C18.2345482,6.08327326 15.2767527,3 11.3480656,3 C7.41937843,3 4.23454823,6.08327326 4.23454823,10 C4.23454823,10.6540546 4.61808056,10.9818567 5.23454823,11 C5.75690188,11.0153734 6.41698211,9.24132217 7.23454823,9.06607789 C7.84742314,8.93470892 8.52225039,10.1185494 9.23454823,10 C9.9067904,9.88811713 10.523058,9.01149777 11.2345482,9 C11.9235432,8.98886576 12.5593419,9.89733765 13.2345482,10 C13.9296603,10.1056889 14.6205276,8.87431709 15.2345482,9 C16.0234185,9.16147262 16.706702,10.997897 17.2345482,10.9999007 C17.8948093,11.0024069 18.2345482,10.6281709 18.2345482,10 Z" transform="rotate(90 11.235 7)"/>
    </g>
    <path stroke="#000" d="M10 10.5L10 17.1173716C10.1134691 18.0391239 10.6001697 18.5 11.4601018 18.5 12.3200339 18.5 12.75 17.808312 12.75 16.4249359M10.0000497 1.76540211L10.0000497 3.28983153"/>
    <path stroke="#000" d="M17.0000497,10.7654021 C17.0000497,6.84867537 14.0422542,3.76540211 10.113567,3.76540211 C6.18487987,3.76540211 3.00004966,6.84867537 3.00004966,10.7654021 C3.00004966,11.4194567 3.38358199,11.7472588 4.00004966,11.7654021 C4.52240332,11.7807755 5.18248355,10.0067243 6.00004966,9.83148 C6.61292457,9.70011103 7.28775182,10.8839515 8.00004966,10.7654021 C8.67229184,10.6535192 9.28855947,9.77689987 10.0000497,9.76540211 C10.6890446,9.75426787 11.3248434,10.6627398 12.0000497,10.7654021 C12.6951617,10.871091 13.3860291,9.6397192 14.0000497,9.76540211 C14.78892,9.92687473 15.4722034,11.7632991 16.0000497,11.7653028 C16.6603107,11.767809 17.0000497,11.393573 17.0000497,10.7654021 Z"/>
  </g>
</svg>
