<svg xmlns="http://www.w3.org/2000/svg" width="20" height="20" viewBox="0 0 20 20">
  <g fill="none" fill-rule="evenodd">
    <path stroke="#AB92F0" stroke-linecap="round" stroke-linejoin="round" stroke-width="2" d="M10.5,15.5 C10.5518443,15.4465332 10.6021966,15.3893803 10.6509273,15.3287586 C10.8460429,15.0860323 11.015164,14.7876952 11.14999,14.4476911 C11.3711225,13.8900394 11.5,13.2203023 11.5,12.5 C11.5,11.3405244 11.1660582,10.3120709 10.6509273,9.6712414 C10.6021966,9.61061971 10.5518443,9.55346683 10.5,9.5" transform="rotate(-90 11 12.5)"/>
    <path stroke="#AB92F0" stroke-linecap="round" stroke-width="2" d="M10,14.89 C10.122591,14.7693899 10.240925,14.6401624 10.3546006,14.5029072 C10.4684985,14.3653836 10.5777198,14.2198009 10.6818609,14.0667522 C10.786002,13.9137034 10.8850629,13.7531888 10.9786401,13.5858013 C11.0720346,13.4187404 11.1599668,13.2448335 11.2420352,13.0646703 C11.3237834,12.8852102 11.3997135,12.6995425 11.4694291,12.50825 C11.5387374,12.3180752 11.6019035,12.1223411 11.6585377,11.9216205 C11.7146902,11.722607 11.7644216,11.5186915 11.8073518,11.3104321 C11.849782,11.104599 11.8855686,10.8945227 11.9143451,10.680742 C11.9427023,10.4700758 11.9642521,10.2558125 11.9786436,10.0384676 C11.9927706,9.8251184 12,9.60879995 12,9.39 C12,9.17120005 11.9927706,8.9548816 11.9786436,8.74153241 C11.9642521,8.52418753 11.9427023,8.30992417 11.9143451,8.09925803 C11.8855686,7.88547731 11.849782,7.67540097 11.8073518,7.46956789 C11.7644216,7.26130848 11.7146902,7.05739298 11.6585377,6.85837955 C11.6019035,6.65765893 11.5387374,6.46192485 11.4694291,6.27174998 C11.3997135,6.08045754 11.3237834,5.89478984 11.2420352,5.71532972 C11.1599668,5.53516651 11.0720346,5.36125961 10.9786401,5.19419873 C10.8850629,5.02681124 10.786002,4.86629655 10.6818609,4.71324785 C10.5777198,4.56019914 10.4684985,4.41461641 10.3546006,4.27709283 C10.240925,4.13983759 10.122591,4.01061008 10,3.89" transform="rotate(-90 11 9.39)"/>
    <path stroke="#AB92F0" stroke-linecap="round" stroke-width="2" d="M9.5,13.8886267 C9.68388654,13.7241584 9.86138747,13.5479391 10.0319009,13.3607728 C10.2027477,13.1732407 10.3665797,12.9747188 10.5227913,12.766016 C10.679003,12.5573132 10.8275944,12.3384296 10.9679601,12.1101739 C11.1080519,11.8823636 11.2399501,11.6452178 11.3630528,11.3995407 C11.485675,11.1548224 11.5995703,10.9016392 11.7041436,10.6407858 C11.8081061,10.3814565 11.9028552,10.1145464 11.9878066,9.84083642 C12.0720354,9.56945447 12.1466323,9.29138787 12.2110278,9.00739778 C12.274673,8.7267163 12.3283529,8.44024856 12.3715176,8.1487294 C12.4140535,7.86145739 12.4463782,7.56928008 12.4679655,7.2729007 C12.4891559,6.98196999 12.5,6.68699028 12.5,6.38862671 C12.5,6.09026314 12.4891559,5.79528344 12.4679655,5.50435273 C12.4463782,5.20797334 12.4140535,4.91579604 12.3715176,4.62852402 C12.3283529,4.33700487 12.274673,4.05053712 12.2110278,3.76985565 C12.1466323,3.48586555 12.0720354,3.20779895 11.9878066,2.936417 C11.9028552,2.66270706 11.8081061,2.39579696 11.7041436,2.1364676 C11.5995703,1.87561426 11.485675,1.62243104 11.3630528,1.37771269 C11.2399501,1.13203559 11.1080519,0.894889823 10.9679601,0.667079528 C10.8275944,0.438823856 10.679003,0.219940195 10.5227913,0.0112374133 C10.3665797,-0.197465369 10.2027477,-0.395987271 10.0319009,-0.583519426 C9.86138747,-0.770685664 9.68388654,-0.946904999 9.5,-1.11137329" transform="rotate(-90 11 6.389)"/>
    <circle cx="11" cy="16.25" r="1.25" fill="#AB92F0" stroke="#AB92F0" stroke-width="1.5" transform="rotate(-90 11 16.25)"/>
    <path stroke="#000" stroke-linecap="round" stroke-linejoin="round" d="M9.5,14.5 C9.55184434,14.4465332 9.60219655,14.3893803 9.65092731,14.3287586 C9.84604289,14.0860323 10.015164,13.7876952 10.14999,13.4476911 C10.3711225,12.8900394 10.5,12.2203023 10.5,11.5 C10.5,10.3405244 10.1660582,9.31207094 9.65092731,8.6712414 C9.60219655,8.61061971 9.55184434,8.55346683 9.5,8.5" transform="rotate(-90 10 11.5)"/>
    <path stroke="#000" stroke-linecap="round" d="M9,13.89 C9.12259102,13.7693899 9.24092498,13.6401624 9.3546006,13.5029072 C9.46849847,13.3653836 9.57771977,13.2198009 9.68186089,13.0667522 C9.78600201,12.9137034 9.88506295,12.7531888 9.97864008,12.5858013 C10.0720346,12.4187404 10.1599668,12.2448335 10.2420352,12.0646703 C10.3237834,11.8852102 10.3997135,11.6995425 10.4694291,11.50825 C10.5387374,11.3180752 10.6019035,11.1223411 10.6585377,10.9216205 C10.7146902,10.722607 10.7644216,10.5186915 10.8073518,10.3104321 C10.849782,10.104599 10.8855686,9.89452269 10.9143451,9.68074197 C10.9427023,9.47007583 10.9642521,9.25581247 10.9786436,9.03846759 C10.9927706,8.8251184 11,8.60879995 11,8.39 C11,8.17120005 10.9927706,7.9548816 10.9786436,7.74153241 C10.9642521,7.52418753 10.9427023,7.30992417 10.9143451,7.09925803 C10.8855686,6.88547731 10.849782,6.67540097 10.8073518,6.46956789 C10.7644216,6.26130848 10.7146902,6.05739298 10.6585377,5.85837955 C10.6019035,5.65765893 10.5387374,5.46192485 10.4694291,5.27174998 C10.3997135,5.08045754 10.3237834,4.89478984 10.2420352,4.71532972 C10.1599668,4.53516651 10.0720346,4.36125961 9.97864008,4.19419873 C9.88506295,4.02681124 9.78600201,3.86629655 9.68186089,3.71324785 C9.57771977,3.56019914 9.46849847,3.41461641 9.3546006,3.27709283 C9.24092498,3.13983759 9.12259102,3.01061008 9,2.89" transform="rotate(-90 10 8.39)"/>
    <path stroke="#000" stroke-linecap="round" d="M8.5,12.8886267 C8.68388654,12.7241584 8.86138747,12.5479391 9.03190091,12.3607728 C9.2027477,12.1732407 9.36657966,11.9747188 9.52279133,11.766016 C9.67900301,11.5573132 9.82759442,11.3384296 9.96796012,11.1101739 C10.1080519,10.8823636 10.2399501,10.6452178 10.3630528,10.3995407 C10.485675,10.1548224 10.5995703,9.90163916 10.7041436,9.64078583 C10.8081061,9.38145647 10.9028552,9.11454636 10.9878066,8.84083642 C11.0720354,8.56945447 11.1466323,8.29138787 11.2110278,8.00739778 C11.274673,7.7267163 11.3283529,7.44024856 11.3715176,7.1487294 C11.4140535,6.86145739 11.4463782,6.56928008 11.4679655,6.2729007 C11.4891559,5.98196999 11.5,5.68699028 11.5,5.38862671 C11.5,5.09026314 11.4891559,4.79528344 11.4679655,4.50435273 C11.4463782,4.20797334 11.4140535,3.91579604 11.3715176,3.62852402 C11.3283529,3.33700487 11.274673,3.05053712 11.2110278,2.76985565 C11.1466323,2.48586555 11.0720354,2.20779895 10.9878066,1.936417 C10.9028552,1.66270706 10.8081061,1.39579696 10.7041436,1.1364676 C10.5995703,0.875614264 10.485675,0.622431039 10.3630528,0.377712688 C10.2399501,0.132035591 10.1080519,-0.105110177 9.96796012,-0.332920472 C9.82759442,-0.561176144 9.67900301,-0.780059805 9.52279133,-0.988762587 C9.36657966,-1.19746537 9.2027477,-1.39598727 9.03190091,-1.58351943 C8.86138747,-1.77068566 8.68388654,-1.946905 8.5,-2.11137329" transform="rotate(-90 10 5.389)"/>
    <circle cx="10" cy="15.25" r="1.25" fill="#000" stroke="#000" transform="rotate(-90 10 15.25)"/>
  </g>
</svg>
