<svg xmlns="http://www.w3.org/2000/svg" width="20" height="20" viewBox="0 0 20 20">
  <g fill="none" fill-rule="evenodd">
    <path fill="#AB92F0" stroke="#AB92F0" stroke-linecap="round" stroke-linejoin="round" d="M4.38888889,10.5 L2.5,10.5 L11,3 L19.5,10.5 L17.6111111,10.5 L17.6111111,11.4375 L17.6111111,12.375 L17.6111111,14.25 L17.6111111,18 L4.38888889,18 L4.38888889,14.25 L4.38888889,12.375 L4.38888889,11.4375 L4.38888889,10.5 Z"/>
    <path stroke="#000" stroke-linecap="round" stroke-linejoin="round" d="M2.88888889,9.5 L1,9.5 L9.5,2 L18,9.5 L16.1111111,9.5 L16.1111111,10.4375 L16.1111111,11.375 L16.1111111,13.25 L16.1111111,17 L2.88888889,17 L2.88888889,13.25 L2.88888889,11.375 L2.88888889,10.4375 L2.88888889,9.5 Z"/>
    <rect width="3.5" height="5" x="7.708" y="12" stroke="#000" rx="1"/>
  </g>
</svg>
