<svg width="20" height="20" viewBox="0 0 20 20" fill="none" xmlns="http://www.w3.org/2000/svg">
<g clip-path="url(#clip0)">
<g opacity="0.8">
<path d="M4.24266 17.7279C1.89951 15.3848 1.89951 11.5858 4.24265 9.24264L8.48529 5L11.5157 8.03046L7.27311 12.2731C6.60364 12.9426 6.60364 14.028 7.27311 14.6975V14.6975C7.94258 15.3669 9.028 15.3669 9.69747 14.6975L13.9401 10.4548L16.9706 13.4853L12.7279 17.7279C10.3848 20.0711 6.5858 20.0711 4.24266 17.7279V17.7279Z" fill="#AB92F0" stroke="#AB92F0" stroke-linecap="round" stroke-linejoin="round"/>
<path d="M18.4729 2.99999L17.2726 5.5L15.7726 5L14.7726 7.5" stroke="#AB92F0" stroke-width="2" stroke-linecap="round"/>
</g>
<path d="M3.24266 16.7279C0.899507 14.3848 0.899506 10.5858 3.24265 8.24264L7.48529 4L10.5157 7.03046L6.27311 11.2731C5.60364 11.9426 5.60364 13.028 6.27311 13.6975V13.6975C6.94258 14.3669 8.028 14.3669 8.69747 13.6975L12.9401 9.45482L15.9706 12.4853L11.7279 16.7279C9.38479 19.0711 5.5858 19.0711 3.24266 16.7279V16.7279Z" stroke="black" stroke-linecap="round" stroke-linejoin="round"/>
<line x1="4.80839" y1="6.67681" x2="7.83884" y2="9.70727" stroke="black"/>
<line x1="10.2632" y1="12.1316" x2="13.2936" y2="15.1621" stroke="black"/>
<path d="M16.4729 1.99999L15.2726 4.5L13.7726 4L12.7726 6.5" stroke="black" stroke-linecap="round"/>
</g>
<defs>
<clipPath id="clip0">
<rect width="20" height="20" fill="white"/>
</clipPath>
</defs>
</svg>
