<svg width="20" height="20" viewBox="0 0 20 20" fill="none" xmlns="http://www.w3.org/2000/svg">
<path opacity="0.8" fill-rule="evenodd" clip-rule="evenodd" d="M11 1.5C10.1716 1.5 9.5 2.17157 9.5 3L9.5 18C9.5 18.8284 10.1716 19.5 11 19.5C11.8284 19.5 12.5 18.8284 12.5 18L12.5 3C12.5 2.17157 11.8284 1.5 11 1.5Z" fill="#AB92F0"/>
<path fill-rule="evenodd" clip-rule="evenodd" d="M10 0.5C9.72386 0.5 9.5 0.723858 9.5 1L9.5 19C9.5 19.2761 9.72386 19.5 10 19.5C10.2761 19.5 10.5 19.2761 10.5 19L10.5 1C10.5 0.723858 10.2761 0.5 10 0.5Z" fill="black"/>
</svg>
