<svg width="20" height="20" viewBox="0 0 20 20" fill="none" xmlns="http://www.w3.org/2000/svg">
<g opacity="0.8">
<path fill-rule="evenodd" clip-rule="evenodd" d="M11.5 4.5C10.6716 4.5 10 5.17157 10 6V9.5H6.5C5.67157 9.5 5 10.1716 5 11C5 11.8284 5.67157 12.5 6.5 12.5H10V16C10 16.8284 10.6716 17.5 11.5 17.5C12.3284 17.5 13 16.8284 13 16V12.5H16.5C17.3284 12.5 18 11.8284 18 11C18 10.1716 17.3284 9.5 16.5 9.5H13V6C13 5.17157 12.3284 4.5 11.5 4.5Z" fill="#AB92F0"/>
</g>
<path d="M5 10.5C4.72386 10.5 4.5 10.2761 4.5 10C4.5 9.72386 4.72386 9.5 5 9.5H15C15.2761 9.5 15.5 9.72386 15.5 10C15.5 10.2761 15.2761 10.5 15 10.5H5Z" fill="black"/>
<path d="M9.5 5C9.5 4.72386 9.72386 4.5 10 4.5C10.2761 4.5 10.5 4.72386 10.5 5V15C10.5 15.2761 10.2761 15.5 10 15.5C9.72386 15.5 9.5 15.2761 9.5 15V5Z" fill="black"/>
</svg>
