<svg width="20" height="20" viewBox="0 0 20 20" fill="none" xmlns="http://www.w3.org/2000/svg">
<path opacity="0.8" fill-rule="evenodd" clip-rule="evenodd" d="M6 6.5C6 6.22386 6.22386 6 6.5 6H16.5C16.7761 6 17 6.22386 17 6.5V16.5C17 16.7761 16.7761 17 16.5 17H6.5C6.22386 17 6 16.7761 6 16.5V6.5Z" fill="#AB92F0"/>
<path fill-rule="evenodd" clip-rule="evenodd" d="M4.5 5C4.5 4.72386 4.72386 4.5 5 4.5H15C15.2761 4.5 15.5 4.72386 15.5 5V15C15.5 15.2761 15.2761 15.5 15 15.5H5C4.72386 15.5 4.5 15.2761 4.5 15V5ZM5.5 5.5V14.5H14.5V5.5H5.5Z" fill="black"/>
</svg>
