<svg width="20" height="20" viewBox="0 0 20 20" fill="none" xmlns="http://www.w3.org/2000/svg">
<path opacity="0.8" fill-rule="evenodd" clip-rule="evenodd" d="M7.98631 10.75L14.5 14.5279V6.97203L7.98631 10.75ZM5.49145 9.88494C4.82707 10.2703 4.82707 11.2297 5.49145 11.615L14.9983 17.129C15.665 17.5156 16.5 17.0346 16.5 16.2639V5.236C16.5 4.46532 15.665 3.9843 14.9983 4.37097L5.49145 9.88494Z" fill="#AB92F0"/>
<path fill-rule="evenodd" clip-rule="evenodd" d="M4 10C4 9.82437 4.09215 9.66161 4.24275 9.57125L14.2428 3.57125C14.3972 3.47857 14.5896 3.47615 14.7463 3.5649C14.9031 3.65365 15 3.81986 15 4V16C15 16.1801 14.9031 16.3463 14.7463 16.4351C14.5896 16.5239 14.3972 16.5214 14.2428 16.4287L4.24275 10.4287C4.09215 10.3384 4 10.1756 4 10ZM14 15.1169V4.88309L5.47183 10L14 15.1169Z" fill="black"/>
</svg>
