<svg width="20" height="20" viewBox="0 0 20 20" fill="none" xmlns="http://www.w3.org/2000/svg">
<g clip-path="url(#clip0_0_1482)">
<g opacity="0.8">
<path d="M12.1868 10H16C16.4644 10 16.6779 10.578 16.325 10.8799L11.3667 15.1213L6.34323 19.8636C5.95334 20.2317 5.33617 19.8112 5.53603 19.3136L8.47391 12H6C5.64104 12 5.39903 11.633 5.54043 11.303L8.54043 4.30304C8.61922 4.1192 8.79999 4 9 4H14C14.359 4 14.601 4.36703 14.4596 4.69696L12.1868 10Z" fill="#AB92F0"/>
</g>
<path fill-rule="evenodd" clip-rule="evenodd" d="M15 8.5H11.1868L13.4596 3.19696C13.601 2.86703 13.359 2.5 13 2.5H8C7.79999 2.5 7.61922 2.6192 7.54043 2.80304L4.54043 9.80304C4.39903 10.133 4.64104 10.5 5 10.5H7.47391L4.53603 17.8136C4.33617 18.3112 4.95334 18.7317 5.34323 18.3636L10.3667 13.6213L15.325 9.37993C15.6779 9.078 15.4644 8.5 15 8.5ZM10.4286 9.5H13.6465L9.69839 12.8778L6.31274 16.0734L8.67756 10.1864C8.80953 9.85784 8.56764 9.5 8.21359 9.5H5.75827L8.3297 3.5H12.2417L9.969 8.80304C9.8276 9.13297 10.0696 9.5 10.4286 9.5Z" fill="black"/>
</g>
<defs>
<clipPath id="clip0_0_1482">
<rect width="20" height="20" fill="white"/>
</clipPath>
</defs>
</svg>
