<svg width="20" height="20" viewBox="0 0 20 20" fill="none" xmlns="http://www.w3.org/2000/svg">
<g opacity="0.8">
<path d="M7.25 2.5H16.25C16.25 2.5 16.1707 5.72979 15.35 7.5C14.4395 9.46387 11.75 11.5 11.75 11.5C11.75 11.5 9.06052 9.46387 8.15 7.5C7.32927 5.72979 7.25 2.5 7.25 2.5Z" fill="#AB92F0"/>
<path fill-rule="evenodd" clip-rule="evenodd" d="M7.25 2.5C7.25 2.5 7.26563 3.13687 7.35487 4C7.46661 5.08061 7.69372 6.51586 8.15 7.5C9.06052 9.46387 11.75 11.5 11.75 11.5C11.75 11.5 14.4395 9.46387 15.35 7.5C15.8063 6.51586 16.0334 5.08061 16.1451 4C16.2344 3.13687 16.25 2.5 16.25 2.5H7.25ZM8.86345 4C8.86925 4.05229 8.87534 4.1053 8.88172 4.15894C9.00157 5.16622 9.20697 6.21362 9.51085 6.86906C9.84273 7.58487 10.5702 8.4249 11.3301 9.15422C11.4755 9.29376 11.6169 9.42439 11.75 9.54402C11.8831 9.42439 12.0245 9.29376 12.1699 9.15422C12.9298 8.4249 13.6573 7.58487 13.9891 6.86906C14.293 6.21362 14.4984 5.16622 14.6183 4.15894C14.6247 4.1053 14.6307 4.05229 14.6365 4H8.86345Z" fill="#AB92F0"/>
<path d="M16.25 18.5L7.25 18.5C7.25 18.5 7.32927 15.6291 8.15 14.0556C9.06052 12.3099 11.75 10.5 11.75 10.5C11.75 10.5 14.4395 12.3099 15.35 14.0556C16.1707 15.6291 16.25 18.5 16.25 18.5Z" fill="#AB92F0"/>
<path fill-rule="evenodd" clip-rule="evenodd" d="M16.25 18.5C16.25 18.5 16.2247 17.5822 16.0543 16.5C15.9233 15.6682 15.7067 14.7394 15.35 14.0556C14.4395 12.3099 11.75 10.5 11.75 10.5C11.75 10.5 9.06052 12.3099 8.15 14.0556C7.79332 14.7394 7.57668 15.6682 7.44573 16.5C7.27534 17.5822 7.25 18.5 7.25 18.5L16.25 18.5ZM14.0255 16.5C13.9105 15.875 13.7572 15.3264 13.5767 14.9805C13.3112 14.4714 12.6687 13.7915 11.9105 13.1447C11.8564 13.0985 11.8028 13.0535 11.75 13.0096C11.6972 13.0535 11.6436 13.0985 11.5895 13.1447C10.8313 13.7915 10.1888 14.4714 9.92328 14.9805C9.74284 15.3264 9.58946 15.875 9.47454 16.5H14.0255Z" fill="#AB92F0"/>
<path fill-rule="evenodd" clip-rule="evenodd" d="M5.75 3.00525C5.75 2.45296 6.19772 2.00525 6.75 2.00525H16.8125C17.3648 2.00525 17.8125 2.45296 17.8125 3.00525C17.8125 3.55753 17.3648 4.00525 16.8125 4.00525H6.75C6.19772 4.00525 5.75 3.55753 5.75 3.00525Z" fill="#AB92F0"/>
<path fill-rule="evenodd" clip-rule="evenodd" d="M5.75 18.0834C5.75 17.5311 6.19772 17.0834 6.75 17.0834H16.8125C17.3648 17.0834 17.8125 17.5311 17.8125 18.0834C17.8125 18.6357 17.3648 19.0834 16.8125 19.0834H6.75C6.19772 19.0834 5.75 18.6357 5.75 18.0834Z" fill="#AB92F0"/>
</g>
<path fill-rule="evenodd" clip-rule="evenodd" d="M12.9605 3H7.03949C6.74001 3 6.58929 3.22714 6.6115 3.41953C6.72626 4.4134 6.94003 5.55301 7.29767 6.28155C7.77541 7.25472 8.92594 8.34847 9.79535 9.07066C9.91836 9.17284 10.0817 9.17284 10.2047 9.07066C11.0741 8.34847 12.2246 7.25472 12.7023 6.28155C13.06 5.55301 13.2738 4.41341 13.3885 3.41953C13.4107 3.22714 13.26 3 12.9605 3ZM7.03949 2C6.1958 2 5.52133 2.69612 5.6181 3.53424C5.73417 4.53949 5.96104 5.82803 6.40001 6.72222C6.9813 7.90634 8.28767 9.11828 9.15638 9.83989C9.64981 10.2498 10.3502 10.2498 10.8436 9.83989C11.7123 9.11828 13.0187 7.90634 13.6 6.72222C14.039 5.82803 14.2658 4.53949 14.3819 3.53424C14.4787 2.69612 13.8042 2 12.9605 2H7.03949Z" fill="black"/>
<path fill-rule="evenodd" clip-rule="evenodd" d="M7.03948 17H12.9605C13.26 17 13.4107 16.7729 13.3885 16.5805C13.2737 15.5866 13.06 14.447 12.7023 13.7185C12.2246 12.7453 11.0741 11.6515 10.2046 10.9293C10.0816 10.8272 9.91835 10.8272 9.79534 10.9293C8.92592 11.6515 7.7754 12.7453 7.29766 13.7185C6.94002 14.447 6.72625 15.5866 6.61149 16.5805C6.58928 16.7729 6.74 17 7.03948 17ZM12.9605 18C13.8042 18 14.4787 17.3039 14.3819 16.4658C14.2658 15.4605 14.039 14.172 13.6 13.2778C13.0187 12.0937 11.7123 10.8817 10.8436 10.1601C10.3502 9.75023 9.64979 9.75023 9.15636 10.1601C8.28765 10.8817 6.98129 12.0937 6.39999 13.2778C5.96103 14.172 5.73416 15.4605 5.61809 16.4658C5.52132 17.3039 6.19579 18 7.03948 18H12.9605Z" fill="black"/>
<path fill-rule="evenodd" clip-rule="evenodd" d="M4 2.5C4 2.22386 4.22386 2 4.5 2H15.5C15.7761 2 16 2.22386 16 2.5C16 2.77614 15.7761 3 15.5 3H4.5C4.22386 3 4 2.77614 4 2.5Z" fill="black"/>
<path fill-rule="evenodd" clip-rule="evenodd" d="M4 17.5C4 17.2239 4.22386 17 4.5 17H15.5C15.7761 17 16 17.2239 16 17.5C16 17.7761 15.7761 18 15.5 18H4.5C4.22386 18 4 17.7761 4 17.5Z" fill="black"/>
</svg>
