<svg xmlns="http://www.w3.org/2000/svg" width="20" height="20" viewBox="0 0 20 20"><g fill="none" fill-rule="evenodd"><rect width="12" height="1" x="5" y="16.5" stroke="#AB92F0" stroke-linecap="round" stroke-linejoin="round" rx=".5"/><path fill="#AB92F0" stroke="#AB92F0" stroke-linecap="round" stroke-linejoin="round" d="M5 6.5c0 4.418 2.686 8 6 8h0c3.314 0 6-3.582 6-8"/><path stroke="#AB92F0" stroke-linecap="round" d="M5 6.5h12"/><path fill="#AB92F0" stroke="#AB92F0" d="M15 11.348c.341.098.715.152 1.107.152h0c1.598 0 2.893-.895 2.893-2s-1.295-2-2.893-2"/><path stroke="#000" stroke-linecap="round" stroke-linejoin="round" d="M3 5c0 4.418 2.686 8 6 8h0c3.314 0 6-3.582 6-8"/><path stroke="#000" stroke-linecap="round" d="M3 5h12"/><path stroke="#000" d="M14 9.848c.341.098.715.152 1.107.152h0C16.705 10 18 9.105 18 8s-1.295-2-2.893-2"/><rect width="12" height="1" x="3" y="15" fill="#000" stroke="#000" stroke-linecap="round" stroke-linejoin="round" stroke-width=".5" rx=".5"/></g></svg>