<svg width="20" height="20" viewBox="0 0 20 20" fill="none" xmlns="http://www.w3.org/2000/svg">
<path fill-rule="evenodd" clip-rule="evenodd" d="M13 2.5H7C6.44772 2.5 6 2.94772 6 3.5V7C6 7.55228 6.44772 8 7 8H13C13.5523 8 14 7.55228 14 7V3.5C14 2.94772 13.5523 2.5 13 2.5ZM8 6V4.5H12V6H8Z" fill="#AB92F0"/>
<path d="M15.5 17.5H4.5C3.94772 17.5 3.5 17.0523 3.5 16.5V4.5C3.5 3.94772 3.94772 3.5 4.5 3.5H7.5V5.5H5.5V15.5H14.5V5.5H12.5V3.5H15.5C16.0523 3.5 16.5 3.94772 16.5 4.5V16.5C16.5 17.0523 16.0523 17.5 15.5 17.5Z" fill="#AB92F0"/>
</svg>
