<svg width="20" height="20" viewBox="0 0 20 20" fill="none" xmlns="http://www.w3.org/2000/svg">
<path fill-rule="evenodd" clip-rule="evenodd" d="M5.67999 2.5C5.67999 1.94772 6.12771 1.5 6.67999 1.5H13.3228C13.8751 1.5 14.3228 1.94772 14.3228 2.5V6.375C14.3228 6.92728 13.8751 7.375 13.3228 7.375H6.67999C6.12771 7.375 5.67999 6.92728 5.67999 6.375V2.5ZM7.67999 3.5V5.375H12.3228V3.5H7.67999Z" fill="#AB92F0"/>
<path fill-rule="evenodd" clip-rule="evenodd" d="M17.1979 9.4286V3.60714C17.1979 2.99568 16.7022 2.5 16.0907 2.5H12.7693V4.71429H14.9836V8.20241C15.8188 8.43582 16.5738 8.86145 17.1979 9.4286ZM5.01928 15.7857H8.49598C8.90391 16.6773 9.54315 17.441 10.3369 18H3.91214C3.30068 18 2.80499 17.5043 2.80499 16.8929V3.60714C2.80499 2.99568 3.30068 2.5 3.91214 2.5H7.23356V4.71429H5.01928V15.7857Z" fill="#AB92F0"/>
<path fill-rule="evenodd" clip-rule="evenodd" d="M13.5 17C15.433 17 17 15.433 17 13.5C17 11.567 15.433 10 13.5 10C11.567 10 10 11.567 10 13.5C10 15.433 11.567 17 13.5 17ZM13.5 19C16.5376 19 19 16.5376 19 13.5C19 10.4624 16.5376 8 13.5 8C10.4624 8 8 10.4624 8 13.5C8 16.5376 10.4624 19 13.5 19Z" fill="#AB92F0"/>
<path fill-rule="evenodd" clip-rule="evenodd" d="M15.8703 11.7191C16.3016 12.0641 16.3715 12.6934 16.0265 13.1246L14.3755 15.1885C13.817 15.8866 12.7757 15.9443 12.1435 15.3121L11.0385 14.2071C10.648 13.8166 10.648 13.1834 11.0385 12.7929C11.429 12.4024 12.0622 12.4024 12.4527 12.7929L13.1627 13.5029L14.4648 11.8752C14.8098 11.444 15.4391 11.3741 15.8703 11.7191Z" fill="#AB92F0"/>
</svg>
