<?xml version="1.0" standalone="no"?>
<!DOCTYPE svg PUBLIC "-//W3C//DTD SVG 20010904//EN"
 "http://www.w3.org/TR/2001/REC-SVG-20010904/DTD/svg10.dtd">
<svg version="1.0" xmlns="http://www.w3.org/2000/svg"
 width="700.000000pt" height="700.000000pt" viewBox="0 0 700.000000 700.000000"
 preserveAspectRatio="xMidYMid meet">
<metadata>
Created by potrace 1.14, written by Peter Selinger 2001-2017
</metadata>
<g transform="translate(0.000000,700.000000) scale(0.100000,-0.100000)"
fill="#000000" stroke="none">
<path d="M2580 6282 c-350 -163 -480 -248 -661 -432 -157 -159 -254 -315 -318
-515 l-26 -80 1 -1795 c0 -987 4 -1820 8 -1850 63 -458 426 -828 881 -897 64
-10 2003 -10 2071 -1 386 56 732 358 844 737 24 82 24 83 36 161 4 30 8 861 9
1845 l2 1790 -25 80 c-126 410 -454 732 -976 954 -48 21 -59 21 -930 20 -793
0 -884 -2 -916 -17z m1740 -728 c183 -97 307 -212 381 -354 21 -42 23 -56 24
-232 0 -104 -3 -188 -8 -188 -4 0 -32 18 -62 40 -62 46 -214 128 -295 160 -87
35 -276 79 -364 87 -135 11 -302 6 -386 -12 -14 -3 -35 -7 -48 -9 -76 -15
-237 -70 -317 -109 -87 -42 -231 -133 -279 -176 -289 -257 -444 -528 -502
-881 -15 -92 -12 -337 6 -440 82 -463 383 -851 810 -1044 245 -110 528 -146
805 -102 175 28 412 124 553 225 37 26 72 50 77 53 12 8 13 -849 1 -902 -27
-114 -116 -210 -231 -250 -57 -20 -80 -20 -1004 -18 l-946 3 -58 29 c-96 49
-170 140 -193 236 -4 19 -8 809 -8 1755 l-1 1720 22 47 c65 141 196 263 398
370 l70 37 734 1 734 0 87 -46z m281 -1148 c59 -60 65 -69 75 -128 17 -92 11
-318 -11 -403 -38 -156 -129 -287 -273 -393 -94 -70 -257 -146 -358 -166 -423
-88 -662 -146 -844 -204 -202 -64 -200 -64 -200 -39 0 6 28 21 63 31 181 57
481 195 610 280 38 26 73 46 77 46 5 0 10 3 12 8 2 4 39 34 83 66 100 74 289
263 377 376 128 166 229 345 285 507 15 46 31 83 34 83 3 0 35 -29 70 -64z"/>
</g>
</svg>
