<svg width="20" height="20" viewBox="0 0 20 20" fill="none" xmlns="http://www.w3.org/2000/svg">
<g clip-path="url(#clip0_2608_814)">
<path fill-rule="evenodd" clip-rule="evenodd" d="M6.28989 13.0928C6.64891 13.5125 7.28016 13.5617 7.69983 13.2027C8.1195 12.8436 8.16866 12.2124 7.80964 11.7927C7.45062 11.373 6.81937 11.3239 6.3997 11.6829C5.98003 12.0419 5.93087 12.6732 6.28989 13.0928ZM8.99997 14.7224C7.74096 15.7995 5.8472 15.652 4.77013 14.393C3.69307 13.134 3.84056 11.2402 5.09956 10.1631C6.35857 9.08608 8.25233 9.23357 9.32939 10.4926C10.4065 11.7516 10.259 13.6453 8.99997 14.7224Z" fill="#AB92F0"/>
<path fill-rule="evenodd" clip-rule="evenodd" d="M10.9072 16.9489C8.42788 19.1293 4.64416 18.8606 2.49782 16.3517C0.344671 13.8349 0.67485 10.0413 3.23044 7.93424L10.3094 2.0978C11.388 1.20851 12.9895 2.14808 12.7394 3.52347L12.4769 4.9676L17.0352 1.16898C18.3386 0.0828225 20.1601 1.65574 19.2754 3.10348L16.417 7.78082L17.313 7.68127C18.7706 7.51931 19.5705 9.32994 18.4692 10.2985L10.9072 16.9489ZM4.01757 15.0516C5.43892 16.713 7.94457 16.891 9.58642 15.447L15.9573 9.84421L15.6242 9.88122C14.3849 10.0189 13.5284 8.67222 14.1786 7.60823L15.9909 4.64265L12.6987 7.38613C11.6218 8.28358 10.0119 7.34472 10.2626 5.96548L10.5272 4.51033L4.50273 9.47738C2.81037 10.8727 2.59172 13.3849 4.01757 15.0516Z" fill="#AB92F0"/>
</g>
<defs>
<clipPath id="clip0_2608_814">
<rect width="20" height="20" fill="white"/>
</clipPath>
</defs>
</svg>
