<svg width="20" height="20" viewBox="0 0 20 20" fill="none" xmlns="http://www.w3.org/2000/svg">
<path fill-rule="evenodd" clip-rule="evenodd" d="M5.70492 17.8855L10 15.9706L14.2951 17.8855C14.9986 18.1991 15.7777 17.6331 15.6967 16.8671L15.2028 12.1905L18.3513 8.69737C18.8669 8.12523 18.5694 7.20937 17.8159 7.04961L13.2155 6.07423L10.8663 2.00044C10.4815 1.33319 9.5185 1.33319 9.13372 2.00044L6.78449 6.07423L2.18413 7.04961C1.43063 7.20937 1.13305 8.12523 1.64874 8.69737L4.79719 12.1905L4.30325 16.8671C4.22234 17.6331 5.00142 18.1991 5.70492 17.8855ZM9.5928 13.9623L6.47433 15.3527L6.83295 11.9572C6.86276 11.675 6.77127 11.3934 6.58129 11.1826L4.29534 8.64644L7.63546 7.93826C7.91305 7.8794 8.15257 7.70538 8.29432 7.45957L10 4.50177L11.7057 7.45957C11.8474 7.70538 12.0869 7.8794 12.3645 7.93826L15.7047 8.64644L13.4187 11.1826C13.2287 11.3934 13.1372 11.675 13.167 11.9572L13.5257 15.3527L10.4072 13.9623C10.148 13.8468 9.85197 13.8468 9.5928 13.9623Z" fill="#AB92F0"/>
</svg>
