<svg width="20" height="20" viewBox="0 0 20 20" fill="none" xmlns="http://www.w3.org/2000/svg">
<g opacity="0.8">
<path fill-rule="evenodd" clip-rule="evenodd" d="M12 11.5475L6.96027 7.34769C5.42382 6.06732 3.50327 8.37199 5.03971 9.65236L10.9878 14.6091C11.2603 14.8652 11.6176 15.0286 12 15.0275C12.3824 15.0286 12.7397 14.8652 13.0122 14.6091L18.9603 9.65236C20.4967 8.37199 18.5762 6.06732 17.0397 7.34769L12 11.5475Z" fill="#AB92F0"/>
</g>
<path d="M15.6799 7.11597L9.6799 12.116L10.3201 12.8842L16.3201 7.88419L15.6799 7.11597Z" fill="black"/>
<path d="M16.3201 7.88412L10.3201 12.8841C9.80793 13.3109 9.16775 12.5427 9.67989 12.1159L15.6799 7.1159C16.192 6.68911 16.8322 7.45733 16.3201 7.88412Z" fill="black"/>
<path d="M3.6799 7.88419L9.6799 12.8842L10.3201 12.116L4.32009 7.11597L3.6799 7.88419Z" fill="black"/>
<path d="M4.32008 7.1159L10.3201 12.1159C10.8322 12.5427 10.192 13.3109 9.67989 12.8841L3.67989 7.88412C3.16775 7.45733 3.80793 6.68911 4.32008 7.1159Z" fill="black"/>
</svg>
