<svg width="20" height="20" viewBox="0 0 20 20" fill="none" xmlns="http://www.w3.org/2000/svg">
<g opacity="0.8">
<path fill-rule="evenodd" clip-rule="evenodd" d="M10.9878 7.39098L5.03971 12.3477C3.50327 13.6281 5.42382 15.9327 6.96027 14.6524L12 10.4526L17.0397 14.6524C18.5762 15.9327 20.4967 13.6281 18.9603 12.3477L13.0122 7.39098C12.7397 7.13485 12.3824 6.9715 12 6.97254C11.6176 6.9715 11.2603 7.13485 10.9878 7.39098Z" fill="#AB92F0"/>
</g>
<path d="M16.3201 12.116L10.3201 7.11597L9.67993 7.88419L15.6799 12.8842L16.3201 12.116Z" fill="black"/>
<path d="M15.6799 12.8841L9.67992 7.88412C9.16778 7.45733 9.80796 6.68911 10.3201 7.1159L16.3201 12.1159C16.8323 12.5427 16.1921 13.3109 15.6799 12.8841Z" fill="black"/>
<path d="M4.32012 12.8842L10.3201 7.88419L9.67993 7.11597L3.67993 12.116L4.32012 12.8842Z" fill="black"/>
<path d="M3.67992 12.1159L9.67992 7.1159C10.1921 6.68911 10.8323 7.45733 10.3201 7.88412L4.32011 12.8841C3.80796 13.3109 3.16778 12.5427 3.67992 12.1159Z" fill="black"/>
</svg>
