<svg width="20" height="20" viewBox="0 0 20 20" fill="none" xmlns="http://www.w3.org/2000/svg">
<circle opacity="0.8" cx="12" cy="10.5" r="6.5" fill="#AB92F0"/>
<path d="M5.25381 14.5962C5.05855 14.4009 5.05855 14.0843 5.25381 13.8891C5.44907 13.6938 5.76565 13.6938 5.96091 13.8891C6.98603 14.9142 8.37101 15.5 9.85 15.5C12.8876 15.5 15.35 13.0376 15.35 10C15.35 9.72386 15.5739 9.5 15.85 9.5C16.1261 9.5 16.35 9.72386 16.35 10C16.35 13.5899 13.4399 16.5 9.85 16.5C8.10306 16.5 6.4646 15.807 5.25381 14.5962Z" fill="black"/>
<path d="M13.1311 12.416C12.9014 12.5691 12.5909 12.507 12.4378 12.2772C12.2846 12.0475 12.3467 11.737 12.5765 11.5839L15.5769 9.58388C15.8066 9.43072 16.1171 9.49282 16.2702 9.72259C16.4234 9.95237 16.3613 10.2628 16.1315 10.416L13.1311 12.416Z" fill="black"/>
<path d="M18.266 12.7226C18.4192 12.9523 18.3571 13.2628 18.1273 13.4159C17.8976 13.5691 17.5871 13.507 17.434 13.2773L15.434 10.2773C15.2808 10.0475 15.3429 9.73706 15.5726 9.58388C15.8024 9.43071 16.1128 9.49279 16.266 9.72256L18.266 12.7226Z" fill="black"/>
<path d="M14.3536 5.20471C14.5488 5.39997 14.5488 5.71655 14.3536 5.91182C14.1583 6.10708 13.8417 6.10708 13.6464 5.91182C12.6213 4.8867 11.2364 4.3009 9.75736 4.3009C6.71979 4.3009 4.25736 6.76334 4.25736 9.8009C4.25736 10.077 4.0335 10.3009 3.75736 10.3009C3.48122 10.3009 3.25736 10.077 3.25736 9.8009C3.25736 6.21105 6.16751 3.3009 9.75736 3.3009C11.5043 3.3009 13.1428 3.99391 14.3536 5.20471Z" fill="black"/>
<path d="M6.47621 7.38482C6.70598 7.23166 7.01642 7.29376 7.16958 7.52353C7.32274 7.75331 7.26064 8.06374 7.03086 8.2169L4.03049 10.2169C3.80071 10.3701 3.49028 10.308 3.33712 10.0782C3.18396 9.84841 3.24606 9.53798 3.47584 9.38482L6.47621 7.38482Z" fill="black"/>
<path d="M1.34135 7.07822C1.18817 6.84846 1.25026 6.53803 1.48002 6.38485C1.70978 6.23167 2.02022 6.29376 2.1734 6.52352L4.1734 9.52352C4.32657 9.75329 4.26448 10.0637 4.03472 10.2169C3.80496 10.3701 3.49452 10.308 3.34135 10.0782L1.34135 7.07822Z" fill="black"/>
</svg>
