<svg width="20" height="20" viewBox="0 0 20 20" fill="none" xmlns="http://www.w3.org/2000/svg">
<path fill-rule="evenodd" clip-rule="evenodd" d="M9.5 3C9.5 2.44772 9.94772 2 10.5 2C14.9183 2 18.5 5.58172 18.5 10C18.5 14.4183 14.9183 18 10.5 18C6.08172 18 2.5 14.4183 2.5 10C2.5 9.44772 2.94772 9 3.5 9C4.05228 9 4.5 9.44772 4.5 10C4.5 13.3137 7.18629 16 10.5 16C13.8137 16 16.5 13.3137 16.5 10C16.5 6.68629 13.8137 4 10.5 4C9.94772 4 9.5 3.55228 9.5 3Z" fill="#AB92F0"/>
<path fill-rule="evenodd" clip-rule="evenodd" d="M6.39443 11.4472C6.64142 10.9533 6.44119 10.3526 5.94721 10.1056L3.94721 9.1056C3.45324 8.85861 2.85256 9.05883 2.60557 9.55281C2.35858 10.0468 2.55881 10.6475 3.05279 10.8945L5.05279 11.8945C5.54677 12.1414 6.14744 11.9412 6.39443 11.4472Z" fill="#AB92F0"/>
<path d="M8.5 3.5C8.5 4.05228 8.05228 4.5 7.5 4.5C6.94772 4.5 6.5 4.05228 6.5 3.5C6.5 2.94772 6.94772 2.5 7.5 2.5C8.05228 2.5 8.5 2.94772 8.5 3.5Z" fill="#AB92F0"/>
<path d="M6 5C6 5.55228 5.55228 6 5 6C4.44772 6 4 5.55228 4 5C4 4.44772 4.44772 4 5 4C5.55228 4 6 4.44772 6 5Z" fill="#AB92F0"/>
<path d="M4.5 7.5C4.5 8.05228 4.05228 8.5 3.5 8.5C2.94772 8.5 2.5 8.05228 2.5 7.5C2.5 6.94772 2.94772 6.5 3.5 6.5C4.05228 6.5 4.5 6.94772 4.5 7.5Z" fill="#AB92F0"/>
<path fill-rule="evenodd" clip-rule="evenodd" d="M4.20711 9.29284C4.59764 9.68336 4.59764 10.3165 4.20711 10.7071L2.70711 12.2071C2.31659 12.5976 1.68342 12.5976 1.2929 12.2071C0.902375 11.8165 0.902375 11.1834 1.2929 10.7928L2.7929 9.29284C3.18342 8.90232 3.81659 8.90232 4.20711 9.29284Z" fill="#AB92F0"/>
<path fill-rule="evenodd" clip-rule="evenodd" d="M10.5 6C11.0523 6 11.5 6.44772 11.5 7V10C11.5 10.5523 11.0523 11 10.5 11C9.94772 11 9.5 10.5523 9.5 10V7C9.5 6.44772 9.94772 6 10.5 6Z" fill="#AB92F0"/>
<path fill-rule="evenodd" clip-rule="evenodd" d="M14.5 10C14.5 10.5523 14.0523 11 13.5 11H10.5C9.94772 11 9.5 10.5523 9.5 10C9.5 9.44772 9.94772 9 10.5 9H13.5C14.0523 9 14.5 9.44772 14.5 10Z" fill="#AB92F0"/>
</svg>
