<svg xmlns="http://www.w3.org/2000/svg" width="20" height="20" viewBox="0 0 20 20">
  <path fill="#AB92F0" fill-rule="evenodd" d="M10,18 C5.581722,18 2,14.418278 2,10 C2,5.581722 5.581722,2 10,2 C14.418278,2 18,5.581722 18,10 C18,14.418278 14.418278,18 10,18 Z M10,8.928571 C9.44771525,8.928571 9,9.37628625 9,9.928571 L9,13.928571 C9,14.4808557 9.44771525,14.928571 10,14.928571 C10.5522847,14.928571 11,14.4808557 11,13.928571 L11,9.928571 C11,9.37628625 10.5522847,8.928571 10,8.928571 Z M10,7.5 C10.5522847,7.5 11,7.05228475 11,6.5 C11,5.94771525 10.5522847,5.5 10,5.5 C9.44771525,5.5 9,5.94771525 9,6.5 C9,7.05228475 9.44771525,7.5 10,7.5 Z"/>
</svg>
