<svg xmlns="http://www.w3.org/2000/svg" width="20" height="20" viewBox="0 0 20 20">
  <g fill="none" fill-rule="evenodd">
    <path fill="#AB92F0" d="M12,14 L12,9.25 C12,8.42157288 11.3284271,7.75 10.5,7.75 C9.67157288,7.75 9,8.42157288 9,9.25 L9,14 L6,14 C3.790861,14 2,12.209139 2,10 C2,7.790861 3.790861,6 6,6 L6.12601749,6 C6.57006028,4.27477279 8.13616057,3 10,3 L11,3 C12.9001534,3 14.4908527,4.32493061 14.898653,6.10134696 C16.6750694,6.50914727 18,8.09984657 18,10 C18,12.209139 16.209139,14 14,14 L12,14 Z"/>
    <path stroke="#AB92F0" stroke-linecap="round" stroke-linejoin="round" stroke-width="2" d="M2.5 8.5L2.5 1M2.88657986e-15 2.5L2.5.5M5 2.5L2.5.5" transform="rotate(180 6.5 9)"/>
  </g>
</svg>
