<svg xmlns="http://www.w3.org/2000/svg" width="20" height="20" viewBox="0 0 20 20">
  <g fill="none" fill-rule="evenodd">
    <path stroke="#AB92F0" stroke-width="2" d="M7.09445448,6.24925846 L6.90122697,7 L6,7 C4.34314575,7 3,8.34314575 3,10 C3,11.6568542 4.34314575,13 6,13 L14,13 C15.6568542,13 17,11.6568542 17,10 C17,8.59467119 16.02542,7.3860229 14.6749095,7.075995 L14.0642013,6.93579871 L13.924005,6.32509055 C13.6139771,4.97457996 12.4053288,4 11,4 L10,4 C8.62326227,4 7.43255428,4.93564865 7.09445448,6.24925846 Z"/>
    <path stroke="#AB92F0" stroke-linecap="round" stroke-linejoin="round" stroke-width="2" d="M2.5 7.5L2.5 0M1.2246468e-16 2L2.5 0M5 2L2.5 0" transform="rotate(180 6.5 8.75)"/>
  </g>
</svg>
