<svg xmlns="http://www.w3.org/2000/svg" width="20" height="20" viewBox="0 0 20 20">
  <path fill="#AB92F0" fill-rule="evenodd" d="M11.5,14 L11.5,10.6777013 L12.252043,11.2652617 C12.6872493,11.6052822 13.3156948,11.5281188 13.6557152,11.0929125 C13.9957357,10.6577061 13.9185723,10.0292607 13.483366,9.68924022 L11.1791242,7.88896923 C10.9911063,7.71826797 10.7493754,7.62990091 10.5056884,7.63022297 C10.2620013,7.62990091 10.0202705,7.71826797 9.83225255,7.88896923 L7.52801075,9.68924022 C7.09280443,10.0292607 7.01564103,10.6577061 7.35566148,11.0929125 C7.69568192,11.5281188 8.32412738,11.6052822 8.7593337,11.2652617 L9.5,10.6865898 L9.5,14 L6,14 C3.790861,14 2,12.209139 2,10 C2,7.790861 3.790861,6 6,6 L6.12601749,6 C6.57006028,4.27477279 8.13616057,3 10,3 L11,3 C12.9001534,3 14.4908527,4.32493061 14.898653,6.10134696 C16.6750694,6.50914727 18,8.09984657 18,10 C18,12.209139 16.209139,14 14,14 L11.5,14 Z"/>
</svg>
