<svg xmlns="http://www.w3.org/2000/svg" width="20" height="20" viewBox="0 0 20 20">
  <path fill="none" stroke="#AB92F0" stroke-linecap="round" stroke-linejoin="round" stroke-width="2" d="M12.5916289,8.14106407 C12.6678491,8.38291413 12.7072393,8.63623987 12.7072393,8.89252028 L12.7072393,17.1414101 C12.7072393,18.2459796 11.8118088,19.1414101 10.7072393,19.1414101 C9.60266977,19.1414101 8.70723927,18.2459796 8.70723927,17.1414101 L8.70723927,8.89252028 C8.70723927,8.62765122 8.74931381,8.36593819 8.83063671,8.11678792 C7.76435126,7.41636072 7.05146907,6.14396457 7.05146907,4.69050827 C7.05146907,3.01181949 8.0024114,1.57465417 9.35046404,0.981266792 L9.35046404,3.69050827 C9.35046404,4.24279302 9.79817929,4.69050827 10.350464,4.69050827 L11.109258,4.69050827 C11.6615428,4.69050827 12.109258,4.24279302 12.109258,3.69050827 L12.109258,0.981266792 C13.4573107,1.57465417 14.408253,3.01181949 14.408253,4.69050827 C14.408253,6.1609183 13.6786431,7.44601961 12.5916289,8.14106407 Z" transform="rotate(-40 10.73 10.061)"/>
</svg>
