<svg xmlns="http://www.w3.org/2000/svg" width="20" height="20" viewBox="0 0 20 20">
  <g fill="none" fill-rule="evenodd">
    <g fill="#AB92F0" stroke="#AB92F0" transform="translate(5.5 6)">
      <path stroke-linecap="round" stroke-linejoin="round" d="M6.5 0L13 7 0 7z" transform="rotate(180 6.5 3.5)"/>
      <path stroke-linecap="round" stroke-width=".5" d="M6 7H7V13H6z"/>
      <path stroke-linejoin="round" d="M10.5,14 C10.5,13.1715729 8.709139,12.5 6.5,12.5 C4.290861,12.5 2.5,13.1715729 2.5,14"/>
    </g>
    <path stroke="#000" stroke-linecap="round" d="M6,7.5 L14,7.5"/>
    <path stroke="#000" stroke-linecap="round" stroke-linejoin="round" d="M10 5L16.5 12 3.5 12z" transform="rotate(180 10 8.5)"/>
    <path fill="#000" stroke="#000" stroke-linecap="round" stroke-width=".25" d="M9.5 12H10.5V18H9.5z"/>
    <path fill="#000" stroke="#000" d="M14,20 C14,18.8954305 12.209139,18 10,18 C7.790861,18 6,18.8954305 6,20"/>
    <path stroke="#000" stroke-linecap="round" d="M13 1.08161112L17 2.08161112M9.73323561 9.57544351L12.8258071 1.08161112"/>
  </g>
</svg>
