<svg width="20" height="22" viewBox="0 0 20 22" fill="none" xmlns="http://www.w3.org/2000/svg">
<path opacity="0.8" fill-rule="evenodd" clip-rule="evenodd" d="M9.96867 3.02246C10.2196 2.28251 10.92 1.75 11.7448 1.75C12.421 1.75 13.0137 2.10805 13.3435 2.64493C13.6613 2.39743 14.0608 2.25 14.4948 2.25C15.5303 2.25 16.3698 3.08946 16.3698 4.125V5.46626C16.631 5.32818 16.9287 5.25 17.2448 5.25C18.2803 5.25 19.1198 6.08947 19.1198 7.125V13.25C19.1198 15.1027 18.7345 17.0777 17.7959 18.6077C16.8427 20.1614 15.3166 21.25 13.1198 21.25C10.5524 21.25 9.03133 20.7353 7.90278 19.6773C7.3529 19.1618 6.91857 18.5376 6.50307 17.8425C6.26964 17.4519 6.02838 17.0141 5.77357 16.5517C5.58572 16.2108 5.3905 15.8566 5.18563 15.4981L5.17875 15.486L3.32462 11.7778C2.84278 10.8141 3.28749 9.64439 4.28786 9.24424C5.17717 8.88851 6.1907 9.27386 6.61904 10.1306L7.11975 11.132L7.11975 4.625C7.11975 3.58947 7.95922 2.75 8.99475 2.75C9.35141 2.75 9.68481 2.84958 9.96867 3.02246Z" fill="#AB92F0"/>
<path d="M3.42931 14.4859C3.43216 14.4912 3.43508 14.4965 3.43809 14.5017C3.6422 14.8589 3.83672 15.2119 4.02394 15.5517L4.02397 15.5517L4.02398 15.5517C4.27878 16.0141 4.52004 16.4519 4.75347 16.8425L3.42931 14.4859ZM3.42931 14.4859C3.42646 14.4806 3.42372 14.4753 3.42108 14.4699L3.42931 14.4859ZM3.87138 14.2521L3.87037 14.2504L3.87027 14.2502L3.87138 14.2521ZM14.1202 5.29612L14.8538 4.9083C15.0295 4.81544 15.2278 4.75946 15.4396 4.7511C14.706 4.78025 14.1202 5.38422 14.1202 6.125V5.29612ZM11.1679 1.90665L11.4604 2.38274L11.9012 2.03938C12.1188 1.8699 12.3879 1.76463 12.6821 1.75141C11.9526 1.78435 11.3712 2.38563 11.3702 3.12296V2.625C11.3702 1.89657 10.8037 1.30044 10.0873 1.25303C10.5441 1.28323 10.9404 1.53632 11.1679 1.90665ZM7.95899 2.4495L8.4921 2.77418L8.69258 2.18305C8.87681 1.63982 9.39111 1.25 9.99516 1.25C9.23576 1.25 8.62016 1.86561 8.62016 2.625L8.62016 3.625C8.62016 2.86561 8.00455 2.25 7.24516 2.25C7.5075 2.25 7.75127 2.32298 7.95899 2.4495ZM4.92294 10.3556L5.87016 10.132V12.2391H5.87004L5.87027 12.2496L5.87027 12.2497L5.8702 12.2501L5.86954 12.25L5.87019 12.2502L5.87013 12.2506L5.87027 12.2502L5.87051 12.2503L5.8699 12.2497L5.86999 12.2497L5.86562 12.241L4.92294 10.3556ZM5.87047 12.2501L5.87031 12.2501L5.87045 12.2497L5.87046 12.2496L5.87046 12.2497L5.87045 12.25L5.86966 12.2503L5.87048 12.2502L5.87057 12.2501L5.87047 12.2501ZM4.46106 15.3089C4.27652 14.974 4.08282 14.6226 3.87943 14.2662C4.0982 14.6494 4.293 15.0033 4.47768 15.3389L4.48022 15.3435C4.5063 15.3909 4.5322 15.4379 4.55795 15.4847C4.52622 15.4271 4.4942 15.369 4.46188 15.3104L4.46106 15.3089Z" fill="#AB92F0" stroke="black" stroke-linecap="round"/>
</svg>
