<svg width="20" height="20" viewBox="0 0 20 20" fill="none" xmlns="http://www.w3.org/2000/svg">
<g clip-path="url(#clip0_1213_2395)">
<path opacity="0.8" fill-rule="evenodd" clip-rule="evenodd" d="M9.96867 2.02246C10.2196 1.28251 10.92 0.75 11.7448 0.75C12.421 0.75 13.0137 1.10805 13.3435 1.64493C13.6613 1.39743 14.0608 1.25 14.4948 1.25C15.5303 1.25 16.3698 2.08946 16.3698 3.125V4.46626C16.631 4.32818 16.9287 4.25 17.2448 4.25C18.2803 4.25 19.1198 5.08947 19.1198 6.125V12.25C19.1198 14.1027 18.7345 16.0777 17.7959 17.6077C16.8427 19.1614 15.3166 20.25 13.1198 20.25C10.5524 20.25 9.03133 19.7353 7.90278 18.6773C7.3529 18.1618 6.91857 17.5376 6.50307 16.8425C6.26964 16.4519 6.02838 16.0141 5.77357 15.5517C5.58572 15.2108 5.3905 14.8566 5.18563 14.4981L5.17875 14.486L3.32462 10.7778C2.84278 9.81408 3.28749 8.64439 4.28786 8.24424C5.17717 7.88851 6.1907 8.27386 6.61904 9.13056L7.11975 10.132L7.11975 3.625C7.11975 2.58947 7.95922 1.75 8.99475 1.75C9.35141 1.75 9.68481 1.84958 9.96867 2.02246Z" fill="#AB92F0"/>
<path d="M3.87027 13.2502L3.87138 13.2521L3.87037 13.2504L3.87027 13.2502ZM5.8699 11.2497L5.86999 11.2497L5.86562 11.241L4.92294 9.35559L5.87016 9.13198V11.2391H5.87004L5.87027 11.2496L5.87027 11.2497L5.8702 11.2501L5.86954 11.25L5.87019 11.2502L5.87013 11.2506L5.87027 11.2502L5.87051 11.2503L5.8699 11.2497ZM5.87047 11.2501L5.87031 11.2501L5.87045 11.2497L5.87046 11.2496L5.87046 11.2497L5.87045 11.25L5.86966 11.2503L5.87048 11.2502L5.87057 11.2501L5.87047 11.2501ZM14.1202 4.29612L14.8538 3.9083C15.0448 3.80737 15.2625 3.75 15.4952 3.75C14.7358 3.75 14.1202 4.36561 14.1202 5.125V4.29612ZM11.1679 0.906647L11.4604 1.38274L11.9012 1.03938C12.1342 0.857856 12.4264 0.75 12.7452 0.75C11.9864 0.75 11.3713 1.3645 11.3702 2.12296V1.625C11.3702 0.867407 10.7575 0.252917 10.0005 0.25001C10.4937 0.251904 10.9261 0.51307 11.1679 0.906647ZM7.95899 1.4495L8.4921 1.77418L8.69258 1.18305C8.86234 0.682495 9.31234 0.312192 9.85457 0.257099C9.16122 0.327513 8.62016 0.91307 8.62016 1.625L8.62016 2.625C8.62016 1.86561 8.00455 1.25 7.24516 1.25C7.5075 1.25 7.75127 1.32298 7.95899 1.4495ZM4.47768 14.3389L4.48022 14.3435C4.5063 14.3909 4.5322 14.4379 4.55795 14.4847C4.52622 14.4271 4.4942 14.369 4.46188 14.3104L4.46106 14.3089C4.27652 13.974 4.08283 13.6226 3.87943 13.2662C4.0982 13.6494 4.293 14.0033 4.47768 14.3389ZM3.87223 13.2536L3.87698 13.262L3.87223 13.2536Z" fill="#AB92F0" stroke="black" stroke-linecap="round"/>
</g>
<defs>
<clipPath id="clip0_1213_2395">
<rect width="20" height="20" fill="white"/>
</clipPath>
</defs>
</svg>
