<svg xmlns="http://www.w3.org/2000/svg" width="20" height="20" viewBox="0 0 20 20">
  <g fill="none" fill-rule="evenodd">
    <g transform="translate(4.5 2.5)">
      <circle cx="7" cy="15.5" r="2" fill="#AB92F0"/>
      <path fill="#AB92F0" stroke="#AB92F0" stroke-linecap="round" d="M12.5000009,11.2346939 C12.5188335,11.2431493 12.5376661,11.2516482 12.5564987,11.2601905 C13.4354712,11.6588813 14.0000009,12.5348373 14.0000009,13.5000041 C14.0000009,14.3284334 13.3284262,15.0000081 12.4999969,15.0000081 L1.50000313,15.0000081 C0.671574274,15.0000081 4.05135714e-14,14.3284339 4.04121181e-14,13.500005 C6.06031677e-07,12.5348378 0.564530234,11.6588825 1.44350073,11.2601888 C1.46233485,11.2516486 1.4811679,11.2431495 1.50000094,11.2346939 L1.50000094,8 C1.50000094,5.23857625 3.73857719,3 6.50000094,3 L7.50000094,3 C10.2614247,3 12.5000009,5.23857625 12.5000009,8 L12.5000009,9 L12.5000009,11.2346939 Z"/>
      <path stroke="#AB92F0" stroke-linecap="round" stroke-linejoin="round" stroke-width="2" d="M7.00000094,0.5 L7,3"/>
    </g>
    <g stroke="#000" stroke-linecap="round" transform="translate(2 1)">
      <path d="M6.50000094 16C6.50000094 16.8284271 7.17157382 17.5 8.00000094 17.5L8.00000094 17.5C8.82842807 17.5 9.50000094 16.8284271 9.50000094 16M13.5000009 11.2346939C13.5188335 11.2431493 13.5376661 11.2516482 13.5564987 11.2601905 14.4354712 11.6588813 15.0000009 12.5348373 15.0000009 13.5000041 15.0000009 14.3284334 14.3284262 15.0000081 13.4999969 15.0000081L2.50000313 15.0000081C1.67157427 15.0000081 1 14.3284339 1 13.500005 1.00000061 12.5348378 1.56453023 11.6588825 2.44350073 11.2601888 2.46233485 11.2516486 2.4811679 11.2431495 2.50000094 11.2346939L2.50000094 8C2.50000094 5.23857625 4.73857719 3 7.50000094 3L8.50000094 3C11.2614247 3 13.5000009 5.23857625 13.5000009 8L13.5000009 9 13.5000009 11.2346939z"/>
      <path stroke-linejoin="round" d="M8.00000094,0.5 L8,3"/>
      <path d="M0.98002234,17.5144957 L17.0225209,1.55710749" transform="rotate(89.848 9.019 9.517)"/>
    </g>
  </g>
</svg>
