<svg xmlns="http://www.w3.org/2000/svg" width="20" height="20" viewBox="0 0 20 20">
  <g fill="none" fill-rule="evenodd" stroke-linecap="round" stroke-linejoin="round">
    <g stroke="#AB92F0" stroke-width="2" transform="translate(3.5 4.754)">
      <path d="M14.4309478,12 C14.7976229,10.8949607 15,9.68326702 15,8.41250497 C15,3.23625648 11.6421356,0 7.5,0 C3.35786438,0 5.32907052e-15,3.23625648 5.32907052e-15,8.41250497 C5.32907052e-15,9.68326702 0.202377112,10.8949607 0.569052184,12"/>
      <path fill="#AB92F0" d="M1.53475251,9.26359268 L1.53475251,9.26359268 C2.63491898,9.26527698 3.52709605,10.1553261 3.53140751,11.2554854 L3.5314949,11.2777857 C3.53577611,12.3702261 2.65364878,13.2592946 1.56120836,13.2635758 C1.55761501,13.2635899 1.55402163,13.2635942 1.55042825,13.2635887 L1.55042825,13.2635887 L1.53475251,9.26359268 Z" transform="rotate(-179 2.535 11.264)"/>
      <path fill="#AB92F0" d="M11.5347525,9.26359268 L11.5347525,9.26359268 C12.634919,9.26527698 13.5270961,10.1553261 13.5314075,11.2554854 L13.5314949,11.2777857 C13.5357761,12.3702261 12.6536488,13.2592946 11.5612084,13.2635758 C11.557615,13.2635899 11.5540216,13.2635942 11.5504283,13.2635887 L11.5504283,13.2635887 L11.5347525,9.26359268 Z" transform="rotate(1 12.535 11.264)"/>
    </g>
    <g stroke="#000" transform="translate(2.5 2.754)">
      <path d="M14.4309478,12 C14.7976229,10.8949607 15,9.68326702 15,8.41250497 C15,3.23625648 11.6421356,0 7.5,0 C3.35786438,0 5.32907052e-15,3.23625648 5.32907052e-15,8.41250497 C5.32907052e-15,9.68326702 0.202377112,10.8949607 0.569052184,12"/>
      <path fill="#AB92F0" stroke-width="2" d="M1.53475251,9.26359268 L1.53475251,9.26359268 C2.63491898,9.26527698 3.52709605,10.1553261 3.53140751,11.2554854 L3.5314949,11.2777857 C3.53577611,12.3702261 2.65364878,13.2592946 1.56120836,13.2635758 C1.55761501,13.2635899 1.55402163,13.2635942 1.55042825,13.2635887 L1.55042825,13.2635887 L1.53475251,9.26359268 Z" transform="rotate(-179 2.535 11.264)"/>
      <path fill="#AB92F0" stroke-width="2" d="M11.5347525,9.26359268 L11.5347525,9.26359268 C12.634919,9.26527698 13.5270961,10.1553261 13.5314075,11.2554854 L13.5314949,11.2777857 C13.5357761,12.3702261 12.6536488,13.2592946 11.5612084,13.2635758 C11.557615,13.2635899 11.5540216,13.2635942 11.5504283,13.2635887 L11.5504283,13.2635887 L11.5347525,9.26359268 Z" transform="rotate(1 12.535 11.264)"/>
    </g>
  </g>
</svg>
