<svg xmlns="http://www.w3.org/2000/svg" width="20" height="20" viewBox="0 0 20 20">
  <g fill="none" fill-rule="evenodd" stroke-linecap="round" stroke-linejoin="round">
    <path fill="#AB92F0" stroke="#AB92F0" d="M12.25,6.83049894 L12.25,15.6388572 C12.25,15.6538129 12.2493434,15.6686152 12.2480574,15.6832368 C12.2493486,15.7099868 12.25,15.7368632 12.25,15.7638572 C12.25,16.9374623 11.0187831,17.8888572 9.5,17.8888572 C7.98121694,17.8888572 6.75,16.9374623 6.75,15.7638572 C6.75,14.5902521 7.98121694,13.6388572 9.5,13.6388572 C10.1648146,13.6388572 10.7745297,13.8211504 11.25,14.124579 L11.25,6.43383869 L11.25,2.75 C15.4166667,5.58145336 17.5,7.6457833 17.5,8.94298983 C17.5,10.2401964 16.7864852,11.2892068 15.3594557,12.090021 C15.8661227,11.145479 15.7004306,10.0964686 14.8623795,8.94298983 C14.2120378,8.0478709 13.3412446,7.34370727 12.25,6.83049894 Z"/>
    <path stroke="#000" d="M10,5.29498146 L10,15 L10,4.5 L10,1.61114277 C14.1666667,4.44259612 16.25,6.50692607 16.25,7.8041326 C16.25,9.10133914 15.5364852,10.1503495 14.1094557,10.9511638 C14.6161227,10.0066217 14.4504306,8.95761133 13.6123795,7.8041326 C12.7743284,6.65065387 11.5702019,5.81427016 10,5.29498146 Z M7.5,17 C6.11928813,17 5,16.1045695 5,15 C5,13.8954305 6.11928813,13 7.5,13 C8.88071187,13 10,13.8954305 10,15 C10,16.1045695 8.88071187,17 7.5,17 Z"/>
  </g>
</svg>
