<svg xmlns="http://www.w3.org/2000/svg" width="20" height="20" viewBox="0 0 20 20">
  <g fill="none" fill-rule="evenodd">
    <path fill="#AB92F0" d="M8.25,6.03811995 L8.25,3.80988888 C8.25,3.29385875 8.64265184,2.86256881 9.15641737,2.81427736 L18.1564174,1.96832127 C18.7062784,1.91663701 19.1939273,2.3204891 19.2456115,2.87035016 C19.2485356,2.90145868 19.25,2.93268715 19.25,2.96393278 L19.25,5.14518576 L19.25,16 C19.25,17.3807119 17.9068542,18.5 16.25,18.5 C15.4215729,18.5 14.6715729,18.220178 14.1286797,17.767767 C13.5857864,17.3153559 13.25,16.6903559 13.25,16 C13.25,14.6192881 14.5931458,13.5 16.25,13.5 C16.6006354,13.5 16.9372211,13.5501285 17.25,13.6422548 L17.25,6.24931042 L10.25,6.94381479 L10.25,17 C10.25,18.3807119 8.90685425,19.5 7.25,19.5 C6.42157288,19.5 5.67157288,19.220178 5.12867966,18.767767 C4.58578644,18.3153559 4.25,17.6903559 4.25,17 C4.25,15.6192881 5.59314575,14.5 7.25,14.5 C7.60063542,14.5 7.93722107,14.5501285 8.25,14.6422548 L8.25,6.03811995 Z"/>
    <path stroke="#000" stroke-linecap="round" stroke-linejoin="round" d="M16.25,3.57941623 C16.25,4.10134927 15.8485931,4.53550222 15.3282609,4.57634914 L8.32826085,5.1258605 C7.77767,5.16908277 7.29628936,4.75777928 7.25306708,4.20718843 C7.25102315,4.18115154 7.25,4.15504457 7.25,4.12892758 L7.25,16 L7.25,3.5 L7.25,3.39226159 C7.25,2.8687495 7.65376299,2.43384292 8.17583325,2.39501573 L15.1758333,1.87441469 C15.7265969,1.83345352 16.2062847,2.24673011 16.2472459,2.79749379 C16.2490813,2.82217344 16.25,2.84691273 16.25,2.87166054 L16.25,3.5 L16.25,15 L16.25,3.57941623 Z M4.75,18 C3.36928813,18 2.25,17.1045695 2.25,16 C2.25,14.8954305 3.36928813,14 4.75,14 C6.13071187,14 7.25,14.8954305 7.25,16 C7.25,17.1045695 6.13071187,18 4.75,18 Z M13.75,17 C13.0596441,17 12.4346441,16.7761424 11.982233,16.4142136 C11.529822,16.0522847 11.25,15.5522847 11.25,15 C11.25,13.8954305 12.3692881,13 13.75,13 C15.1307119,13 16.25,13.8954305 16.25,15 C16.25,16.1045695 15.1307119,17 13.75,17 Z"/>
  </g>
</svg>
