<svg xmlns="http://www.w3.org/2000/svg" width="20" height="20" viewBox="0 0 20 20">
  <g fill="none" fill-rule="evenodd">
    <path fill="#AB92F0" stroke="#AB92F0" stroke-linecap="round" d="M8.12626135,8 L8.64736701,6.38563011 C8.91396425,5.55971977 9.68279458,5 10.5506667,5 L13.4488637,5 C14.3167358,5 15.0855662,5.55971977 15.3521634,6.38563011 L15.8732691,8 L17.5,8 C18.6045695,8 19.5,8.8954305 19.5,10 L19.5,16 C19.5,17.1045695 18.6045695,18 17.5,18 L6.5,18 C5.3954305,18 4.5,17.1045695 4.5,16 L4.5,10 C4.5,8.8954305 5.3954305,8 6.5,8 L8.12626135,8 Z"/>
    <path stroke="#000" stroke-linecap="round" d="M6.12626135,7 L6.64736701,5.38563011 C6.91396425,4.55971977 7.68279458,4 8.55066668,4 L11.4488637,4 C12.3167358,4 13.0855662,4.55971977 13.3521634,5.38563011 L13.8732691,7 L15.5,7 C16.6045695,7 17.5,7.8954305 17.5,9 L17.5,15 C17.5,16.1045695 16.6045695,17 15.5,17 L4.5,17 C3.3954305,17 2.5,16.1045695 2.5,15 L2.5,9 C2.5,7.8954305 3.3954305,7 4.5,7 L6.12626135,7 Z"/>
    <circle cx="10" cy="11.5" r="2.5" stroke="#000"/>
  </g>
</svg>
