<svg xmlns="http://www.w3.org/2000/svg" width="20" height="20" viewBox="0 0 20 20">
  <g fill="none" fill-rule="evenodd">
    <rect width="18" height="11" x="2" y="7.5" fill="#AB92F0" rx="3"/>
    <g transform="translate(4.5 1)">
      <path fill="#FFF" d="M1,0 L10,0 C10.5522847,-1.01453063e-16 11,0.44771525 11,1 L11,5.5 L0,5.5 L0,1 C-6.76353751e-17,0.44771525 0.44771525,1.01453063e-16 1,0 Z"/>
      <path stroke="#000" stroke-linejoin="round" d="M0,5.5 L0,1.1 C0,0.492486775 0.410405646,0 0.916666667,0 L0.916666667,0 L10.0833333,0 C10.5895944,-1.22124533e-16 11,0.492486775 11,1.1 L11,5.5"/>
    </g>
    <rect width="17" height="10" x="1.5" y="6.5" stroke="#000" rx="3"/>
    <g transform="rotate(-180 8 9.5)">
      <path fill="#FFF" d="M1.5,0.46875 L10.5,0.46875 C11.0522847,0.46875 11.5,0.91646525 11.5,1.46875 L11.5,7.03125 L0.5,7.03125 L0.5,1.46875 C0.5,0.91646525 0.94771525,0.46875 1.5,0.46875 Z"/>
      <path stroke="#000" stroke-linejoin="round" d="M0.5,7.03125 L0.5,1.78125 C0.5,1.05637627 0.910405646,0.46875 1.41666667,0.46875 L1.41666667,0.46875 L10.5833333,0.46875 C11.0895944,0.46875 11.5,1.05637627 11.5,1.78125 L11.5,7.03125"/>
      <path stroke="#000" stroke-linecap="round" d="M2.5 3L9.5 3M2.5 5L9.5 5"/>
    </g>
  </g>
</svg>
