<svg width="20" height="20" viewBox="0 0 20 20" fill="none" xmlns="http://www.w3.org/2000/svg">
<path d="M17.8107 11.1077C17.8107 11.66 17.363 12.1077 16.8107 12.1077H14.3107C13.7584 12.1077 13.3107 11.66 13.3107 11.1077V5.60773C13.3107 5.05544 13.7584 4.60773 14.3107 4.60773H16.8107C17.363 4.60773 17.8107 5.05544 17.8107 5.60773V9.10773V11.1077Z" fill="#AB92F0"/>
<path fill-rule="evenodd" clip-rule="evenodd" d="M14.3107 11.1077H16.8107L16.8107 5.60773H14.3107V11.1077ZM16.8107 12.1077C17.363 12.1077 17.8107 11.66 17.8107 11.1077V5.60773C17.8107 5.05544 17.363 4.60773 16.8107 4.60773H14.3107C13.7584 4.60773 13.3107 5.05544 13.3107 5.60773V11.1077C13.3107 11.66 13.7584 12.1077 14.3107 12.1077H16.8107Z" fill="#AB92F0"/>
<path fill-rule="evenodd" clip-rule="evenodd" d="M9.91557 16.5941C9.3708 16.5033 9.00279 15.9881 9.09359 15.4433L9.29722 14.2216C9.53177 12.8144 10.3383 11.567 11.5253 10.7757L12.6347 12.4398C11.9077 12.9245 11.4137 13.6885 11.27 14.5504L11.0664 15.7721C10.9756 16.3169 10.4603 16.6849 9.91557 16.5941Z" fill="#AB92F0"/>
<path fill-rule="evenodd" clip-rule="evenodd" d="M8.8294 15.4429C8.92131 15.5348 9.07836 15.4913 9.10989 15.3652L11.0502 15.8503C10.6416 17.4846 8.60636 18.0483 7.41518 16.8571L7.37292 16.8149C6.9824 16.4243 6.9824 15.7912 7.37292 15.4006C7.76345 15.0101 8.39661 15.0101 8.78714 15.4006L8.8294 15.4429Z" fill="#AB92F0"/>
<path fill-rule="evenodd" clip-rule="evenodd" d="M8.0726 12.1376C8.60839 12.2716 8.93413 12.8146 8.80016 13.3503L8.65164 13.9443C8.6069 14.1233 8.5874 14.3076 8.59371 14.4919L8.60776 14.9022C8.61458 15.1013 8.69121 15.2916 8.82425 15.4399L7.33573 16.7756C6.8891 16.2779 6.63181 15.639 6.60893 14.9706L6.59489 14.5603C6.5822 14.1896 6.62141 13.819 6.71138 13.4592L6.8599 12.8652C6.99387 12.3294 7.53681 12.0037 8.0726 12.1376Z" fill="#AB92F0"/>
<path fill-rule="evenodd" clip-rule="evenodd" d="M8.58002 13.1077C8.58002 13.66 8.1323 14.1077 7.58002 14.1077H6.08002C5.52773 14.1077 5.08002 13.66 5.08002 13.1077C5.08002 12.5554 5.52773 12.1077 6.08002 12.1077H7.58002C8.1323 12.1077 8.58002 12.5554 8.58002 13.1077Z" fill="#AB92F0"/>
<path fill-rule="evenodd" clip-rule="evenodd" d="M4.80368 11.3189C5.0454 11.8024 5.53951 12.1078 6.08001 12.1078L6.08003 14.1078C4.78198 14.1078 3.59533 13.3744 3.01483 12.2134L2.68563 11.555C2.43864 11.061 2.63887 10.4603 3.13284 10.2133C3.62682 9.96635 4.2275 10.1666 4.47449 10.6606L4.80368 11.3189Z" fill="#AB92F0"/>
<path fill-rule="evenodd" clip-rule="evenodd" d="M4.43423 5.17258C4.95072 5.36819 5.21084 5.94545 5.01524 6.46194L4.47482 7.88886C4.1271 8.80699 4.13858 9.82251 4.50698 10.7325L2.65311 11.483C2.09574 10.1061 2.07836 8.56964 2.60446 7.18051L3.14488 5.75358C3.34049 5.2371 3.91775 4.97698 4.43423 5.17258Z" fill="#AB92F0"/>
<path fill-rule="evenodd" clip-rule="evenodd" d="M6.80803 5.57011C6.19164 5.39591 5.53454 5.65219 5.19885 6.19771L4.9317 6.63185C4.64227 7.10221 4.02632 7.24888 3.55596 6.95945C3.08559 6.67001 2.93892 6.05406 3.22836 5.5837L3.49551 5.14956C4.29998 3.84221 5.87475 3.22802 7.35194 3.64549L6.80803 5.57011Z" fill="#AB92F0"/>
<path fill-rule="evenodd" clip-rule="evenodd" d="M13.0606 5.80384C12.9523 6.3454 12.4255 6.69662 11.8839 6.58831L6.88392 5.58831C6.34236 5.48 5.99114 4.95317 6.09946 4.41161C6.20777 3.87005 6.73459 3.51883 7.27615 3.62715L12.2762 4.62715C12.8177 4.73546 13.1689 5.26228 13.0606 5.80384Z" fill="#AB92F0"/>
<path fill-rule="evenodd" clip-rule="evenodd" d="M12.08 12.6077C11.5277 12.6077 11.08 12.16 11.08 11.6077V5.60773C11.08 5.05544 11.5277 4.60773 12.08 4.60773C12.6323 4.60773 13.08 5.05544 13.08 5.60773V11.6077C13.08 12.16 12.6323 12.6077 12.08 12.6077Z" fill="#AB92F0"/>
<path d="M14.5607 7.10773C14.5607 6.55544 15.0084 6.10773 15.5607 6.10773C16.113 6.10773 16.5607 6.55544 16.5607 7.10773C16.5607 7.66001 16.113 8.10773 15.5607 8.10773C15.0084 8.10773 14.5607 7.66001 14.5607 7.10773Z" fill="white"/>
</svg>
