<svg width="20" height="20" viewBox="0 0 20 20" fill="none" xmlns="http://www.w3.org/2000/svg">
<path d="M2.5 9C2.5 8.44772 2.94772 8 3.5 8H6C6.55228 8 7 8.44772 7 9V14.5C7 15.0523 6.55228 15.5 6 15.5H3.5C2.94772 15.5 2.5 15.0523 2.5 14.5V11V9Z" fill="#AB92F0"/>
<path fill-rule="evenodd" clip-rule="evenodd" d="M6 9H3.5L3.5 14.5H6V9ZM3.5 8C2.94772 8 2.5 8.44772 2.5 9V14.5C2.5 15.0523 2.94772 15.5 3.5 15.5H6C6.55228 15.5 7 15.0523 7 14.5V9C7 8.44772 6.55228 8 6 8H3.5Z" fill="#AB92F0"/>
<path fill-rule="evenodd" clip-rule="evenodd" d="M10.3952 3.51364C10.9399 3.60444 11.3079 4.11967 11.2171 4.66444L11.0135 5.88612C10.779 7.29333 9.97242 8.5407 8.78539 9.33205L7.67599 7.66795C8.40305 7.18325 8.89707 6.41922 9.04073 5.5573L9.24436 4.33562C9.33516 3.79085 9.85039 3.42283 10.3952 3.51364Z" fill="#AB92F0"/>
<path fill-rule="evenodd" clip-rule="evenodd" d="M11.4813 4.66482C11.3894 4.5729 11.2324 4.6164 11.2008 4.74251L9.26056 4.25744C9.66913 2.62316 11.7044 2.05943 12.8955 3.2506L12.9378 3.29287C13.3283 3.68339 13.3283 4.31656 12.9378 4.70708C12.5473 5.0976 11.9141 5.0976 11.5236 4.70708L11.4813 4.66482Z" fill="#AB92F0"/>
<path fill-rule="evenodd" clip-rule="evenodd" d="M12.2381 7.97009C11.7023 7.83612 11.3766 7.29317 11.5106 6.75738L11.6591 6.1634C11.7038 5.98448 11.7233 5.80018 11.717 5.61585L11.703 5.2055C11.6962 5.00643 11.6195 4.81611 11.4865 4.66787L12.975 3.33208C13.4216 3.82978 13.6789 4.46875 13.7018 5.13708L13.7158 5.54743C13.7285 5.9181 13.6893 6.28873 13.5994 6.64855L13.4508 7.24253C13.3169 7.77832 12.7739 8.10406 12.2381 7.97009Z" fill="#AB92F0"/>
<path fill-rule="evenodd" clip-rule="evenodd" d="M11.7307 7C11.7307 6.44772 12.1784 6 12.7307 6H14.2307C14.783 6 15.2307 6.44772 15.2307 7C15.2307 7.55228 14.783 8 14.2307 8H12.7307C12.1784 8 11.7307 7.55228 11.7307 7Z" fill="#AB92F0"/>
<path fill-rule="evenodd" clip-rule="evenodd" d="M15.507 8.78878C15.2653 8.30535 14.7712 7.99997 14.2307 7.99998L14.2307 5.99998C15.5288 5.99997 16.7154 6.73335 17.2959 7.89436L17.6251 8.55275C17.8721 9.04673 17.6719 9.6474 17.1779 9.89439C16.6839 10.1414 16.0832 9.94116 15.8362 9.44718L15.507 8.78878Z" fill="#AB92F0"/>
<path fill-rule="evenodd" clip-rule="evenodd" d="M15.8765 14.9351C15.36 14.7395 15.0999 14.1623 15.2955 13.6458L15.8359 12.2189C16.1836 11.3007 16.1721 10.2852 15.8038 9.37519L17.6576 8.62473C18.215 10.0016 18.2324 11.5381 17.7063 12.9272L17.1659 14.3541C16.9702 14.8706 16.393 15.1308 15.8765 14.9351Z" fill="#AB92F0"/>
<path fill-rule="evenodd" clip-rule="evenodd" d="M13.5027 14.5377C14.1191 14.7119 14.7762 14.4556 15.1119 13.9101L15.379 13.4759C15.6685 13.0056 16.2844 12.8589 16.7548 13.1483C17.2251 13.4378 17.3718 14.0537 17.0824 14.5241L16.8152 14.9582C16.0107 16.2656 14.436 16.8798 12.9588 16.4623L13.5027 14.5377Z" fill="#AB92F0"/>
<path fill-rule="evenodd" clip-rule="evenodd" d="M7.25011 14.3039C7.35842 13.7623 7.88525 13.4111 8.42681 13.5194L13.4268 14.5194C13.9684 14.6277 14.3196 15.1546 14.2113 15.6961C14.103 16.2377 13.5761 16.5889 13.0346 16.4806L8.03458 15.4806C7.49302 15.3723 7.1418 14.8454 7.25011 14.3039Z" fill="#AB92F0"/>
<path fill-rule="evenodd" clip-rule="evenodd" d="M8.23071 7.5C8.783 7.5 9.23071 7.94772 9.23071 8.5V14.5C9.23071 15.0523 8.783 15.5 8.23071 15.5C7.67843 15.5 7.23071 15.0523 7.23071 14.5V8.5C7.23071 7.94772 7.67843 7.5 8.23071 7.5Z" fill="#AB92F0"/>
<path d="M5.75 13C5.75 13.5523 5.30228 14 4.75 14C4.19772 14 3.75 13.5523 3.75 13C3.75 12.4477 4.19772 12 4.75 12C5.30228 12 5.75 12.4477 5.75 13Z" fill="white"/>
</svg>
