<svg width="20" height="20" viewBox="0 0 20 20" fill="none" xmlns="http://www.w3.org/2000/svg">
<g clip-path="url(#clip0_1210_639)">
<g opacity="0.8">
<path fill-rule="evenodd" clip-rule="evenodd" d="M20.5 17.45C20.5 17.0358 20.1642 16.7 19.75 16.7H16.25C15.8358 16.7 15.5 17.0358 15.5 17.45C15.5 17.8642 15.8358 18.2 16.25 18.2H19.75C20.1642 18.2 20.5 17.8642 20.5 17.45Z" fill="#AB92F0"/>
<path d="M15.6044 12.5883C15.8656 12.5883 16.1245 12.5384 16.3576 12.4204C17.1532 12.0179 19 10.9095 19 9.29414C19 7.67876 17.1532 6.57036 16.3576 6.16783C16.1245 6.04989 15.8656 6.00002 15.6044 6.00002H15C13.8955 6.00002 13 6.89545 13 8.00002V10.5883C13 11.6928 13.8955 12.5883 15 12.5883H15.6044Z" fill="#AB92F0"/>
<path fill-rule="evenodd" clip-rule="evenodd" d="M15.5467 8.00002C15.86 8.1656 16.2767 8.42151 16.6048 8.73103C16.9894 9.09384 17 9.28363 17 9.29414C17 9.30464 16.9894 9.49444 16.6048 9.85725C16.2767 10.1668 15.86 10.4227 15.5467 10.5883L15 10.5883V8.00002H15.5467ZM16.3576 12.4204C16.1245 12.5384 15.8656 12.5883 15.6044 12.5883H15C13.8955 12.5883 13 11.6928 13 10.5883V8.00002C13 6.89545 13.8955 6.00002 15 6.00002H15.6044C15.8656 6.00002 16.1245 6.04989 16.3576 6.16783C17.1532 6.57036 19 7.67876 19 9.29414C19 10.9095 17.1532 12.0179 16.3576 12.4204Z" fill="#AB92F0"/>
<path fill-rule="evenodd" clip-rule="evenodd" d="M18.25 8.84998C17.8358 8.84998 17.5 9.18576 17.5 9.59998V16.7647C17.5 17.1789 17.8358 17.5147 18.25 17.5147C18.6642 17.5147 19 17.1789 19 16.7647V9.59998C19 9.18576 18.6642 8.84998 18.25 8.84998Z" fill="#AB92F0"/>
<path fill-rule="evenodd" clip-rule="evenodd" d="M4.03084 9.49998L4.7202 6.74252L2.77992 6.25745L1.93523 9.63618C1.69855 10.5829 2.41459 11.5 3.39045 11.5H10.1097C11.0855 11.5 11.8016 10.5829 11.5649 9.63618L10.7202 6.25745L8.77992 6.74252L9.46928 9.49998H4.03084Z" fill="#AB92F0"/>
<path d="M3.63898 6.9444H9.8612V10.5H3.63898V6.9444Z" fill="#AB92F0"/>
<path d="M3.75006 3H9.75006V6.5H3.75006V3Z" fill="#AB92F0"/>
<path fill-rule="evenodd" clip-rule="evenodd" d="M2.75006 2H10.7501V7.5H2.75006V2ZM4.75006 4V5.5H8.75006V4H4.75006Z" fill="#AB92F0"/>
<path fill-rule="evenodd" clip-rule="evenodd" d="M1.90002 2.20001C1.90002 1.92387 2.12388 1.70001 2.40002 1.70001H11.1C11.3762 1.70001 11.6 1.92387 11.6 2.20001C11.6 2.47615 11.3762 2.70001 11.1 2.70001H2.40002C2.12388 2.70001 1.90002 2.47615 1.90002 2.20001Z" fill="#AB92F0"/>
</g>
<path fill-rule="evenodd" clip-rule="evenodd" d="M1.40005 2.5C1.40005 1.94771 1.84777 1.5 2.40005 1.5H8.60005C9.15234 1.5 9.60005 1.94771 9.60005 2.5V6.3C9.60005 6.85228 9.15234 7.3 8.60005 7.3H2.40006C1.84777 7.3 1.40005 6.85228 1.40005 6.3V2.5ZM8.60005 2.5L2.40005 2.5V6.3H8.60005V2.5Z" fill="black"/>
<path fill-rule="evenodd" clip-rule="evenodd" d="M0.649994 2C0.649994 1.72386 0.873852 1.5 1.14999 1.5H9.84999C10.1261 1.5 10.35 1.72386 10.35 2C10.35 2.27614 10.1261 2.5 9.84999 2.5H1.14999C0.873852 2.5 0.649994 2.27614 0.649994 2Z" fill="black"/>
<path fill-rule="evenodd" clip-rule="evenodd" d="M2.39029 6.59803L1.6099 10.5L9.39009 10.5L8.60971 6.59803L9.59029 6.40192L10.3707 10.3039C10.4944 10.9226 10.0211 11.5 9.39009 11.5H1.6099C0.978852 11.5 0.505559 10.9227 0.629317 10.3039L1.40971 6.40192L2.39029 6.59803Z" fill="black"/>
<path fill-rule="evenodd" clip-rule="evenodd" d="M19.25 17.5C19.25 17.2239 19.0261 17 18.75 17H14.75C14.4739 17 14.25 17.2239 14.25 17.5C14.25 17.7761 14.4739 18 14.75 18H18.75C19.0261 18 19.25 17.7761 19.25 17.5Z" fill="black"/>
<path fill-rule="evenodd" clip-rule="evenodd" d="M13.75 7.00002H14.3543C14.4908 7.00002 14.589 7.02618 14.6561 7.06012C15.0149 7.24164 15.5796 7.56845 16.0409 8.0036C16.5138 8.44967 16.75 8.88504 16.75 9.29414C16.75 9.70324 16.5138 10.1386 16.0409 10.5847C15.5796 11.0198 15.0149 11.3466 14.6561 11.5282C14.589 11.5621 14.4908 11.5883 14.3543 11.5883H13.75C13.1977 11.5883 12.75 11.1405 12.75 10.5883V8.00002C12.75 7.44774 13.1977 7.00002 13.75 7.00002ZM15.1076 12.4204C14.8745 12.5384 14.6156 12.5883 14.3543 12.5883H13.75C12.6454 12.5883 11.75 11.6928 11.75 10.5883V8.00002C11.75 6.89545 12.6454 6.00002 13.75 6.00002H14.3543C14.6156 6.00002 14.8745 6.04989 15.1076 6.16783C15.9032 6.57036 17.75 7.67876 17.75 9.29414C17.75 10.9095 15.9032 12.0179 15.1076 12.4204Z" fill="black"/>
<path fill-rule="evenodd" clip-rule="evenodd" d="M17.25 8.70001C16.9739 8.70001 16.75 8.92387 16.75 9.20001V16.7647C16.75 17.0409 16.9739 17.2647 17.25 17.2647C17.5261 17.2647 17.75 17.0409 17.75 16.7647V9.20001C17.75 8.92387 17.5261 8.70001 17.25 8.70001Z" fill="black"/>
</g>
<defs>
<clipPath id="clip0_1210_639">
<rect width="20" height="20" fill="white"/>
</clipPath>
</defs>
</svg>
