<svg xmlns="http://www.w3.org/2000/svg" style="" style="" style="" width="20" height="20" viewBox="0 0 20 20"><g fill="none" fill-rule="evenodd"><path fill="currentColor" d="M8.126 7C8.57 5.275 10.136 4 12 4h1c1.9 0 3.49 1.325 3.899 3.101A4.002 4.002 0 0 1 16 15H8a4 4 0 1 1 0-8h.126z" opacity=".8"/><path stroke="#000" d="M5.61 6.125l-.096.375H5a3.5 3.5 0 0 0 0 7h8a3.5 3.5 0 0 0 .787-6.911l-.306-.07-.07-.306A3.501 3.501 0 0 0 10 3.5H9a3.502 3.502 0 0 0-3.39 2.625z"/><path stroke="#000" stroke-linecap="round" stroke-linejoin="round" d="M9.5 10v7.5m2.5-2l-2.5 2m-2.5-2l2.5 2"/></g></svg>