<svg xmlns="http://www.w3.org/2000/svg" style="" style="" style="" width="20" height="20" viewBox="0 0 20 20"><g fill="none" fill-rule="evenodd"><g fill="currentColor" stroke="currentColor" opacity=".8" transform="translate(3.5 4)"><path stroke-linejoin="round" stroke-width="1.5" d="M7.5 0h.558L8.5 1h-2l.373-1zm0 14h-.558L6.5 13h2l-.373 1zm7-7v.558L13.5 8V6l1 .373zM.5 7v-.558L1.5 6v2l-1-.373z"/><path stroke-linecap="round" stroke-linejoin="round" stroke-width="1.5" d="M12.45 2.05l.394.395-.395 1.02-1.414-1.415.971-.443zm-9.9 9.9l-.394-.394.394-1.02 1.414 1.414-.97.443zm9.9 0l-.395.394-1.02-.394 1.415-1.414.443.97zm-9.9-9.9l.394-.394 1.02.394-1.413 1.414-.444-.97z"/><path stroke-width="4.5" d="M7.5 11a3.987 3.987 0 0 0 2.828-1.172A3.987 3.987 0 0 0 11.5 7a3.987 3.987 0 0 0-1.172-2.828A3.987 3.987 0 0 0 7.5 3a3.987 3.987 0 0 0-2.828 1.172A3.987 3.987 0 0 0 3.5 7c0 1.105.448 2.105 1.172 2.828A3.987 3.987 0 0 0 7.5 11z"/></g><path stroke="#000" stroke-linejoin="round" d="M11.39 4.17a5.716 5.716 0 0 1 1.556.641l1.515-.853.666.665.59.592-.788 1.572c.287.478.508 1 .647 1.554l1.674.468v1.777l-1.67.554a5.716 5.716 0 0 1-.641 1.556l.853 1.515-.665.666-.592.59-1.572-.788c-.478.287-1 .508-1.554.647L10.94 17H9.164l-.554-1.67a5.716 5.716 0 0 1-1.556-.641l-1.515.853-.666-.665-.59-.592.788-1.572c-.287-.478-.508-1-.647-1.554L2.75 10.69V8.914l1.67-.554a5.716 5.716 0 0 1 .641-1.556l-.853-1.515.665-.666.592-.59 1.572.788c.478-.287 1-.508 1.554-.647L9.06 2.5h1.777l.554 1.67zM10 11.75c.552 0 1.052-.224 1.414-.586.362-.362.586-.862.586-1.414 0-.552-.224-1.052-.586-1.414A1.994 1.994 0 0 0 10 7.75c-.552 0-1.052.224-1.414.586A1.994 1.994 0 0 0 8 9.75c0 .552.224 1.052.586 1.414.362.362.862.586 1.414.586z"/></g></svg>