<svg xmlns="http://www.w3.org/2000/svg" width="253.2" height="59.6" viewBox="0 0 253.2 59.6">
  <path id="Path_31" data-name="Path 31" d="M12.64,0A12.1,12.1,0,0,1,6.28-1.76a12.9,12.9,0,0,1-4.6-4.68A12.533,12.533,0,0,1,0-12.8V-44.24a12.318,12.318,0,0,1,1.68-6.32,12.375,12.375,0,0,1,4.6-4.56,12.533,12.533,0,0,1,6.36-1.68,12.837,12.837,0,0,1,6.52,1.68,12.682,12.682,0,0,1,4.64,4.56,12.1,12.1,0,0,1,1.72,6.32V-12.8A12.521,12.521,0,0,1,23.8-6.4a12.8,12.8,0,0,1-4.64,4.68A12.605,12.605,0,0,1,12.64,0ZM67.6-56.8a12.793,12.793,0,0,1,6.72,1.88,14.14,14.14,0,0,1,4.96,5,12.861,12.861,0,0,1,1.84,6.64,13.147,13.147,0,0,1-1.84,6.8,13.6,13.6,0,0,1-4.92,4.92,13.157,13.157,0,0,1-6.76,1.8,19.061,19.061,0,0,1-5.92-1.12,14.781,14.781,0,0,0-3.6-.72,3,3,0,0,0-2.2.92,3,3,0,0,0-.92,2.2,2.661,2.661,0,0,0,.92,2.04,3.15,3.15,0,0,0,2.2.84,14.781,14.781,0,0,0,3.6-.72,19.061,19.061,0,0,1,5.92-1.12,12.53,12.53,0,0,1,6.76,1.92,14.378,14.378,0,0,1,4.92,5.12,13.574,13.574,0,0,1,1.84,6.88,12.861,12.861,0,0,1-1.84,6.64,14.14,14.14,0,0,1-4.96,5A12.793,12.793,0,0,1,67.6,0H56A25.962,25.962,0,0,1,42.08-3.96a29.66,29.66,0,0,1-10.2-10.52,27.481,27.481,0,0,1-3.8-14,27.853,27.853,0,0,1,3.8-14.28A27.863,27.863,0,0,1,42.2-53.04,27.932,27.932,0,0,1,56.4-56.8Zm42.48,0a28.77,28.77,0,0,1,14.64,3.88A28.965,28.965,0,0,1,135.36-42.4a27.973,27.973,0,0,1,3.92,14.48,27.7,27.7,0,0,1-3.92,14.48,28.851,28.851,0,0,1-10.64,10.4A29,29,0,0,1,110.08.8,28.635,28.635,0,0,1,95.56-3.04a28.942,28.942,0,0,1-10.6-10.4,27.7,27.7,0,0,1-3.92-14.48A27.758,27.758,0,0,1,85-42.4,29.47,29.47,0,0,1,95.6-52.92,28.193,28.193,0,0,1,110.08-56.8Zm0,25.36a3,3,0,0,0-2.2.92,3.2,3.2,0,0,0-.92,2.36,3.3,3.3,0,0,0,.96,2.36,2.931,2.931,0,0,0,2.16,1,3.228,3.228,0,0,0,2.36-1,3.228,3.228,0,0,0,1-2.36,3.125,3.125,0,0,0-.96-2.36A3.332,3.332,0,0,0,110.08-31.44ZM198-11.76A12.8,12.8,0,0,1,196.28-5a11.375,11.375,0,0,1-4.6,4.32A13.622,13.622,0,0,1,185.36.8a13.117,13.117,0,0,1-4.88-.92,12.2,12.2,0,0,1-4.16-2.76L162.56-16.72q-.16-.16-.24-.16-.24,0-.4.32a.9.9,0,0,0-.08.64l4.56,7.04A11.657,11.657,0,0,1,162-1.96,12.619,12.619,0,0,1,154,.8a12.75,12.75,0,0,1-6.4-1.68,12.409,12.409,0,0,1-4.68-4.64A12.669,12.669,0,0,1,141.2-12V-44a12.308,12.308,0,0,1,1.72-6.36,13.118,13.118,0,0,1,4.68-4.68A12.3,12.3,0,0,1,154-56.8a11.729,11.729,0,0,1,5.24,1.24,16.912,16.912,0,0,1,4.52,3.24l13.04,12.8a.323.323,0,0,0,.32.16.393.393,0,0,0,.36-.2.506.506,0,0,0,.04-.44l-4.72-6.88a12.174,12.174,0,0,1,4.4-7.04,12.183,12.183,0,0,1,7.92-2.88q6.08,0,9.48,3.68A12.932,12.932,0,0,1,198-44Zm53.2-32.48a11.1,11.1,0,0,1-1.44,5.68,10.088,10.088,0,0,1-4.24,3.92,21.009,21.009,0,0,0-8.96-2.56.567.567,0,0,0-.6.48.4.4,0,0,0,.36.56,18.277,18.277,0,0,1,10.88,6.6,17.988,17.988,0,0,1,3.84,11.24,17.861,17.861,0,0,1-2.36,8.96,17.822,17.822,0,0,1-7,6.76A22.584,22.584,0,0,1,230.48,0H212.96a10.935,10.935,0,0,1-6.2-1.96,15.528,15.528,0,0,1-4.72-4.96,11.279,11.279,0,0,1-1.8-5.8,12.819,12.819,0,0,1,1.2-5.72,12,12,0,0,1,3.84-4.36,17.15,17.15,0,0,0,5.2,2.32,22.315,22.315,0,0,0,5.84.8.543.543,0,0,0,.4-.16.461.461,0,0,0,.16-.32.493.493,0,0,0-.4-.56,19.144,19.144,0,0,1-6.64-2.08,16.821,16.821,0,0,1-7.08-6.68,18.052,18.052,0,0,1-2.44-9.08,17.931,17.931,0,0,1,2.36-8.92,17.468,17.468,0,0,1,7-6.76,22.87,22.87,0,0,1,11.2-2.56h17.36a12.9,12.9,0,0,1,6.48,1.68,12.9,12.9,0,0,1,4.72,4.56A11.89,11.89,0,0,1,251.2-44.24Z" transform="translate(1 57.8)" fill="#5ea7ec" stroke="#2e1111" stroke-width="2"/>
</svg>
