<svg width="20" height="20" viewBox="0 0 20 20" fill="none" xmlns="http://www.w3.org/2000/svg"><path d="M16.3201 12.116L10.3201 7.11597L9.67993 7.88419L15.6799 12.8842L16.3201 12.116Z" fill="currentColor"/><path d="M15.6799 12.8841L9.67992 7.88412C9.16778 7.45733 9.80796 6.68911 10.3201 7.1159L16.3201 12.1159C16.8323 12.5427 16.1921 13.3109 15.6799 12.8841Z" fill="currentColor"/><path d="M4.32012 12.8842L10.3201 7.88419L9.67993 7.11597L3.67993 12.116L4.32012 12.8842Z" fill="currentColor"/><path d="M3.67992 12.1159L9.67992 7.1159C10.1921 6.68911 10.8323 7.45733 10.3201 7.88412L4.32011 12.8841C3.80796 13.3109 3.16778 12.5427 3.67992 12.1159Z" fill="currentColor"/><path d="M1.15063 1.87794C0.94979 1.6771 0.94979 1.35147 1.15063 1.15063C1.35147 0.949789 1.6771 0.949789 1.87794 1.15063L18.8494 18.1221C19.0502 18.3229 19.0502 18.6485 18.8494 18.8494C18.6485 19.0502 18.3229 19.0502 18.1221 18.8494L1.15063 1.87794Z" fill="currentColor"/></svg>