<svg width="20" height="20" viewBox="0 0 20 20" fill="none" xmlns="http://www.w3.org/2000/svg"><path fill-rule="evenodd" clip-rule="evenodd" d="M6.17154 5.23204L5.76225 6.5H4.5C3.11929 6.5 2 7.61929 2 9V15C2 16.3807 3.11929 17.5 4.5 17.5H15.5C16.8807 17.5 18 16.3807 18 15V9C18 7.61929 16.8807 6.5 15.5 6.5H14.2373L13.828 5.23204C13.4947 4.19965 12.5337 3.5 11.4489 3.5H8.55067C7.46583 3.5 6.50479 4.19965 6.17154 5.23204ZM4.5 7.5H6.49027L7.12319 5.53922C7.32314 4.91979 7.89976 4.5 8.55067 4.5H11.4489C12.0998 4.5 12.6764 4.91979 12.8763 5.53922L13.5093 7.5H15.5C16.3284 7.5 17 8.17157 17 9V15C17 15.8284 16.3284 16.5 15.5 16.5H4.5C3.67157 16.5 3 15.8284 3 15V9C3 8.17157 3.67157 7.5 4.5 7.5Z" fill="currentColor"/><path fill-rule="evenodd" clip-rule="evenodd" d="M7 11.5C7 13.1569 8.34315 14.5 10 14.5C11.6569 14.5 13 13.1569 13 11.5C13 9.84315 11.6569 8.5 10 8.5C8.34315 8.5 7 9.84315 7 11.5ZM12 11.5C12 12.6046 11.1046 13.5 10 13.5C8.89543 13.5 8 12.6046 8 11.5C8 10.3954 8.89543 9.5 10 9.5C11.1046 9.5 12 10.3954 12 11.5Z" fill="currentColor"/><path d="M1.15063 1.87794C0.94979 1.6771 0.94979 1.35147 1.15063 1.15063C1.35147 0.949789 1.6771 0.949789 1.87794 1.15063L18.8494 18.1221C19.0502 18.3229 19.0502 18.6485 18.8494 18.8494C18.6485 19.0502 18.3229 19.0502 18.1221 18.8494L1.15063 1.87794Z" fill="currentColor"/></svg>