<svg width="20" height="20" viewBox="0 0 20 20" fill="none" xmlns="http://www.w3.org/2000/svg"><path fill-rule="evenodd" clip-rule="evenodd" d="M5.99999 15.3211L15.0144 10.4383L5.99999 4.80427V15.3211ZM15.4907 11.3176C16.1645 10.9526 16.1942 9.99643 15.5444 9.59028L6.52999 3.95627C5.86394 3.53999 4.99999 4.01884 4.99999 4.80427V15.3211C4.99999 16.0788 5.80997 16.5613 6.47627 16.2004L15.4907 11.3176Z" fill="currentColor"/><path d="M1.15063 1.87794C0.94979 1.6771 0.94979 1.35147 1.15063 1.15063C1.35147 0.949789 1.6771 0.949789 1.87794 1.15063L18.8494 18.1221C19.0502 18.3229 19.0502 18.6485 18.8494 18.8494C18.6485 19.0502 18.3229 19.0502 18.1221 18.8494L1.15063 1.87794Z" fill="currentColor"/></svg>