<svg width="20" height="20" viewBox="0 0 20 20" fill="none" xmlns="http://www.w3.org/2000/svg"><path fill-rule="evenodd" clip-rule="evenodd" d="M15 7H5C3.89543 7 3 7.89543 3 9V15C3 16.1046 3.89543 17 5 17H15C16.1046 17 17 16.1046 17 15V9C17 7.89543 16.1046 7 15 7ZM5 6C3.34315 6 2 7.34315 2 9V15C2 16.6569 3.34315 18 5 18H15C16.6569 18 18 16.6569 18 15V9C18 7.34315 16.6569 6 15 6H5Z" fill="currentColor"/><path d="M10 12C10 13.3807 8.88071 14.5 7.5 14.5C6.11929 14.5 5 13.3807 5 12C5 10.6193 6.11929 9.5 7.5 9.5C8.88071 9.5 10 10.6193 10 12Z" fill="currentColor"/><path fill-rule="evenodd" clip-rule="evenodd" d="M14.4472 1.47406C14.5707 1.72105 14.4706 2.02138 14.2236 2.14488L4.22361 7.1449C3.97662 7.2684 3.67629 7.16829 3.55279 6.9213C3.4293 6.67431 3.52941 6.37397 3.7764 6.25048L13.7764 1.25045C14.0234 1.12696 14.3237 1.22707 14.4472 1.47406Z" fill="currentColor"/><path fill-rule="evenodd" clip-rule="evenodd" d="M11 10.6499C11 10.4566 11.1567 10.2999 11.35 10.2999H14.65C14.8433 10.2999 15 10.4566 15 10.6499C15 10.8432 14.8433 10.9999 14.65 10.9999H11.35C11.1567 10.9999 11 10.8432 11 10.6499Z" fill="currentColor"/><path fill-rule="evenodd" clip-rule="evenodd" d="M11 12.1499C11 11.9566 11.1567 11.7999 11.35 11.7999H14.65C14.8433 11.7999 15 11.9566 15 12.1499C15 12.3432 14.8433 12.4999 14.65 12.4999H11.35C11.1567 12.4999 11 12.3432 11 12.1499Z" fill="currentColor"/><path fill-rule="evenodd" clip-rule="evenodd" d="M11 13.6499C11 13.4566 11.1567 13.2999 11.35 13.2999H14.65C14.8433 13.2999 15 13.4566 15 13.6499C15 13.8432 14.8433 13.9999 14.65 13.9999H11.35C11.1567 13.9999 11 13.8432 11 13.6499Z" fill="currentColor"/><path d="M1.15063 1.87794C0.94979 1.6771 0.94979 1.35147 1.15063 1.15063C1.35147 0.949789 1.6771 0.949789 1.87794 1.15063L18.8494 18.1221C19.0502 18.3229 19.0502 18.6485 18.8494 18.8494C18.6485 19.0502 18.3229 19.0502 18.1221 18.8494L1.15063 1.87794Z" fill="currentColor"/></svg>