<svg width="20" height="20" viewBox="0 0 26 26" fill="none" xmlns="http://www.w3.org/2000/svg"><g transform="translate(3, 3)"><path fill-rule="evenodd" clip-rule="evenodd" d="M10 5.5C6.96243 5.5 4.5 7.96243 4.5 11C4.5 14.0376 6.96243 16.5 10 16.5C13.0376 16.5 15.5 14.0376 15.5 11C15.5 7.96243 13.0376 5.5 10 5.5ZM2.5 11C2.5 6.85786 5.85786 3.5 10 3.5C14.1421 3.5 17.5 6.85786 17.5 11C17.5 15.1421 14.1421 18.5 10 18.5C5.85786 18.5 2.5 15.1421 2.5 11Z" fill="currentColor"/><path fill-rule="evenodd" clip-rule="evenodd" d="M2.79289 18.2071C3.18342 18.5976 3.81658 18.5976 4.20711 18.2071L5.70711 16.7071C6.09763 16.3166 6.09763 15.6834 5.70711 15.2929C5.31658 14.9023 4.68342 14.9023 4.29289 15.2929L2.79289 16.7929C2.40237 17.1834 2.40237 17.8166 2.79289 18.2071Z" fill="currentColor"/><path fill-rule="evenodd" clip-rule="evenodd" d="M14.2929 15.2929C14.6834 14.9024 15.3166 14.9024 15.7071 15.2929L17.2071 16.7929C17.5976 17.1834 17.5976 17.8166 17.2071 18.2071C16.8166 18.5977 16.1834 18.5977 15.7929 18.2071L14.2929 16.7071C13.9024 16.3166 13.9024 15.6834 14.2929 15.2929Z" fill="currentColor"/><path fill-rule="evenodd" clip-rule="evenodd" d="M10 7C10.5523 7 11 7.44772 11 8V11C11 11.5523 10.5523 12 10 12C9.44772 12 9 11.5523 9 11V8C9 7.44772 9.44772 7 10 7Z" fill="currentColor"/><path fill-rule="evenodd" clip-rule="evenodd" d="M14 11C14 11.5523 13.5523 12 13 12H10C9.44772 12 9 11.5523 9 11C9 10.4477 9.44772 10 10 10H13C13.5523 10 14 10.4477 14 11Z" fill="currentColor"/><path fill-rule="evenodd" clip-rule="evenodd" d="M6.33196 3.17163L2.57422 6.76042C2.57422 6.76042 2.49689 6.6895 2.38431 6.56157C2.12745 6.26968 1.68708 5.68098 1.56299 4.9606C1.45034 4.30659 1.59837 3.54403 2.3811 2.79649C3.16383 2.04896 3.93239 1.93613 4.58053 2.07874C5.29445 2.23581 5.86228 2.70277 6.14205 2.97278C6.26467 3.09112 6.33196 3.17163 6.33196 3.17163Z" fill="currentColor"/><path fill-rule="evenodd" clip-rule="evenodd" d="M13.668 3.17163L17.4258 6.76042C17.4258 6.76042 17.5031 6.6895 17.6157 6.56157C17.8726 6.26968 18.3129 5.68098 18.437 4.9606C18.5497 4.30659 18.4016 3.54403 17.6189 2.79649C16.8362 2.04896 16.0676 1.93613 15.4195 2.07874C14.7056 2.23581 14.1377 2.70277 13.858 2.97278C13.7353 3.09112 13.668 3.17163 13.668 3.17163Z" fill="currentColor"/></g><path fill-rule="evenodd" clip-rule="evenodd" d="M13 24C19.0751 24 24 19.0751 24 13C24 6.92487 19.0751 2 13 2C6.92487 2 2 6.92487 2 13C2 19.0751 6.92487 24 13 24ZM13 26C20.1797 26 26 20.1797 26 13C26 5.8203 20.1797 0 13 0C5.8203 0 0 5.8203 0 13C0 20.1797 5.8203 26 13 26Z" fill="currentColor"/></svg>