<svg width="20" height="20" viewBox="0 0 26 26" fill="none" xmlns="http://www.w3.org/2000/svg"><g transform="translate(3, 3)"><path d="M6.73177 10.6402C6.37821 10.2159 6.43553 9.58537 6.85981 9.2318C7.28409 8.87824 7.91465 8.93556 8.26822 9.35984L13.2682 15.3598C13.6218 15.7841 13.5645 16.4147 13.1402 16.7682C12.7159 17.1218 12.0853 17.0645 11.7318 16.6402L6.73177 10.6402Z" fill="currentColor"/><path d="M8.26822 10.6402C7.91465 11.0645 7.28409 11.1218 6.85981 10.7682C6.43553 10.4147 6.37821 9.78412 6.73177 9.35984L11.7318 3.35984C12.0853 2.93556 12.7159 2.87824 13.1402 3.2318C13.5645 3.58537 13.6218 4.21593 13.2682 4.64021L8.26822 10.6402Z" fill="currentColor"/></g><path fill-rule="evenodd" clip-rule="evenodd" d="M13 24C19.0751 24 24 19.0751 24 13C24 6.92487 19.0751 2 13 2C6.92487 2 2 6.92487 2 13C2 19.0751 6.92487 24 13 24ZM13 26C20.1797 26 26 20.1797 26 13C26 5.8203 20.1797 0 13 0C5.8203 0 0 5.8203 0 13C0 20.1797 5.8203 26 13 26Z" fill="currentColor"/></svg>