<svg width="20" height="20" viewBox="0 0 26 26" fill="none" xmlns="http://www.w3.org/2000/svg"><g transform="translate(3, 3)"><path fill-rule="evenodd" clip-rule="evenodd" d="M7.35412 5.90263C7.40412 5.35261 7.89053 4.94727 8.44054 4.99727L13.626 5.46868C14.176 5.51868 14.5814 6.00509 14.5314 6.5551C14.4814 7.10512 13.9949 7.51046 13.4449 7.46046L8.25947 6.98906C7.70946 6.93906 7.30411 6.45264 7.35412 5.90263Z" fill="currentColor"/><path fill-rule="evenodd" clip-rule="evenodd" d="M14.0974 12.6459C13.5474 12.6959 13.061 12.2905 13.011 11.7405L12.5396 6.55505C12.4896 6.00503 12.8949 5.51862 13.4449 5.46862C13.9949 5.41862 14.4814 5.82396 14.5314 6.37397L15.0028 11.5594C15.0528 12.1094 14.6474 12.5959 14.0974 12.6459Z" fill="currentColor"/><path fill-rule="evenodd" clip-rule="evenodd" d="M12.8284 7.17156C13.2189 7.56208 13.2189 8.19524 12.8284 8.58577L7.17153 14.2426C6.78101 14.6331 6.14784 14.6331 5.75732 14.2426C5.36679 13.8521 5.36679 13.2189 5.75732 12.8284L11.4142 7.17156C11.8047 6.78103 12.4379 6.78103 12.8284 7.17156Z" fill="currentColor"/><path d="M1.29289 2.70711C0.902369 2.31658 0.902369 1.68342 1.29289 1.29289C1.68342 0.902368 2.31658 0.902368 2.70711 1.29289L18.7071 17.2929C19.0976 17.6834 19.0976 18.3166 18.7071 18.7071C18.3166 19.0976 17.6834 19.0976 17.2929 18.7071L1.29289 2.70711Z" fill="currentColor"/></g><path fill-rule="evenodd" clip-rule="evenodd" d="M13 24C19.0751 24 24 19.0751 24 13C24 6.92487 19.0751 2 13 2C6.92487 2 2 6.92487 2 13C2 19.0751 6.92487 24 13 24ZM13 26C20.1797 26 26 20.1797 26 13C26 5.8203 20.1797 0 13 0C5.8203 0 0 5.8203 0 13C0 20.1797 5.8203 26 13 26Z" fill="currentColor"/></svg>