<svg width="20" height="20" viewBox="0 0 20 20" fill="none" xmlns="http://www.w3.org/2000/svg"><path fill-rule="evenodd" clip-rule="evenodd" d="M12.6458 14.0975C12.5958 14.6475 12.1094 15.0529 11.5594 15.0029L6.37394 14.5314C5.82393 14.4814 5.41859 13.995 5.46859 13.445C5.51859 12.895 6.005 12.4897 6.55502 12.5397L11.7405 13.0111C12.2905 13.0611 12.6958 13.5475 12.6458 14.0975Z" fill="currentColor"/><path fill-rule="evenodd" clip-rule="evenodd" d="M5.90254 7.35427C6.45255 7.30427 6.93896 7.70961 6.98897 8.25963L7.46037 13.4451C7.51037 13.9951 7.10503 14.4815 6.55501 14.5315C6.005 14.5815 5.51859 14.1762 5.46858 13.6261L4.99718 8.4407C4.94718 7.89068 5.35252 7.40427 5.90254 7.35427Z" fill="currentColor"/><path fill-rule="evenodd" clip-rule="evenodd" d="M7.17155 12.8286C6.78103 12.438 6.78103 11.8049 7.17155 11.4144L12.8284 5.7575C13.2189 5.36697 13.8521 5.36697 14.2426 5.7575C14.6331 6.14802 14.6331 6.78119 14.2426 7.17171L8.58577 12.8286C8.19524 13.2191 7.56208 13.2191 7.17155 12.8286Z" fill="currentColor"/><path d="M1.29289 2.70711C0.902369 2.31658 0.902369 1.68342 1.29289 1.29289C1.68342 0.902368 2.31658 0.902368 2.70711 1.29289L18.7071 17.2929C19.0976 17.6834 19.0976 18.3166 18.7071 18.7071C18.3166 19.0976 17.6834 19.0976 17.2929 18.7071L1.29289 2.70711Z" fill="currentColor"/></svg>