<svg width="20" height="20" viewBox="0 0 26 26" fill="none" xmlns="http://www.w3.org/2000/svg"><defs><mask id="mask-pop-arrow-down-right-circle-filled"><rect width="26" height="26" fill="white"/><g transform="translate(3, 3)"><path fill-rule="evenodd" clip-rule="evenodd" d="M14.0975 7.35427C14.6475 7.40427 15.0528 7.89068 15.0028 8.4407L14.5314 13.6261C14.4814 14.1762 13.995 14.5815 13.445 14.5315C12.895 14.4815 12.4896 13.9951 12.5396 13.4451L13.011 8.25963C13.061 7.70961 13.5474 7.30427 14.0975 7.35427Z" fill="black"/><path fill-rule="evenodd" clip-rule="evenodd" d="M7.35418 14.0975C7.30418 13.5475 7.70952 13.0611 8.25953 13.0111L13.445 12.5397C13.995 12.4897 14.4814 12.895 14.5314 13.445C14.5814 13.995 14.1761 14.4814 13.6261 14.5314L8.44061 15.0029C7.89059 15.0529 7.40418 14.6475 7.35418 14.0975Z" fill="black"/><path fill-rule="evenodd" clip-rule="evenodd" d="M12.8284 12.8285C12.4379 13.2191 11.8048 13.2191 11.4142 12.8285L5.75738 7.17168C5.36685 6.78116 5.36685 6.14799 5.75738 5.75747C6.1479 5.36695 6.78107 5.36695 7.17159 5.75747L12.8284 11.4143C13.219 11.8048 13.219 12.438 12.8284 12.8285Z" fill="black"/></g></mask></defs><circle r="13" cx="13" cy="13" mask="url(#mask-pop-arrow-down-right-circle-filled)" fill="currentColor"/></svg>