<svg width="20" height="20" viewBox="0 0 20 20" fill="none" xmlns="http://www.w3.org/2000/svg"><path fill-rule="evenodd" clip-rule="evenodd" d="M11.0264 5.23175C11.4507 4.87819 12.0813 4.93551 12.4348 5.35979L15.7682 9.35979C16.1217 9.78407 16.0644 10.4146 15.6401 10.7682C15.2159 11.1218 14.5853 11.0644 14.2317 10.6402L10.8984 6.64016C10.5448 6.21588 10.6022 5.58532 11.0264 5.23175Z" fill="currentColor"/><path fill-rule="evenodd" clip-rule="evenodd" d="M11.0264 14.7682C10.6022 14.4146 10.5448 13.7841 10.8984 13.3598L14.2317 9.35979C14.5853 8.93551 15.2159 8.87819 15.6401 9.23175C16.0644 9.58532 16.1217 10.2159 15.7682 10.6402L12.4348 14.6402C12.0813 15.0644 11.4507 15.1218 11.0264 14.7682Z" fill="currentColor"/><path fill-rule="evenodd" clip-rule="evenodd" d="M14 10C14 10.5523 13.5523 11 13 11L5 11C4.44771 11 4 10.5523 4 10C4 9.44772 4.44771 9 5 9L13 9C13.5523 9 14 9.44772 14 10Z" fill="currentColor"/></svg>