<svg width="20" height="20" viewBox="0 0 26 26" fill="none" xmlns="http://www.w3.org/2000/svg"><defs><mask id="mask-pop-arrow-down-circle-filled"><rect width="26" height="26" fill="white"/><g transform="translate(3, 3)"><path fill-rule="evenodd" clip-rule="evenodd" d="M14.7682 11.0265C15.1218 11.4507 15.0645 12.0813 14.6402 12.4349L10.6402 15.7682C10.2159 16.1218 9.58535 16.0644 9.23179 15.6402C8.87822 15.2159 8.93555 14.5853 9.35983 14.2318L13.3598 10.8984C13.7841 10.5449 14.4147 10.6022 14.7682 11.0265Z" fill="black"/><path fill-rule="evenodd" clip-rule="evenodd" d="M5.23179 11.0265C5.58535 10.6022 6.21592 10.5449 6.64019 10.8984L10.6402 14.2318C11.0645 14.5853 11.1218 15.2159 10.7682 15.6402C10.4147 16.0644 9.7841 16.1218 9.35983 15.7682L5.35983 12.4349C4.93555 12.0813 4.87822 11.4507 5.23179 11.0265Z" fill="black"/><path fill-rule="evenodd" clip-rule="evenodd" d="M10 14C9.44772 14 9 13.5523 9 13V5C9 4.44771 9.44772 4 10 4C10.5523 4 11 4.44771 11 5V13C11 13.5523 10.5523 14 10 14Z" fill="black"/></g></mask></defs><circle r="13" cx="13" cy="13" mask="url(#mask-pop-arrow-down-circle-filled)" fill="currentColor"/></svg>