<svg width="20" height="20" viewBox="0 0 20 20" fill="none" xmlns="http://www.w3.org/2000/svg"><path fill-rule="evenodd" clip-rule="evenodd" d="M10 3.86364L7.40193 5.5H12.5981L10 3.86364ZM10.2665 1.66783C10.1036 1.56527 9.89637 1.56527 9.73353 1.66783L1.9393 6.57693C1.51501 6.84416 1.70433 7.5 2.20577 7.5H17.7942C18.2957 7.5 18.485 6.84416 18.0607 6.57693L10.2665 1.66783Z" fill="currentColor"/><path fill-rule="evenodd" clip-rule="evenodd" d="M1.5 17C1.5 16.4477 1.94772 16 2.5 16H17.5C18.0523 16 18.5 16.4477 18.5 17C18.5 17.5523 18.0523 18 17.5 18H2.5C1.94772 18 1.5 17.5523 1.5 17Z" fill="currentColor"/><path fill-rule="evenodd" clip-rule="evenodd" d="M4 8.5C4.55228 8.5 5 8.94772 5 9.5V14.5C5 15.0523 4.55228 15.5 4 15.5C3.44772 15.5 3 15.0523 3 14.5L3 9.5C3 8.94772 3.44772 8.5 4 8.5Z" fill="currentColor"/><path fill-rule="evenodd" clip-rule="evenodd" d="M7 8.5C7.55228 8.5 8 8.94772 8 9.5V14.5C8 15.0523 7.55228 15.5 7 15.5C6.44772 15.5 6 15.0523 6 14.5V9.5C6 8.94772 6.44772 8.5 7 8.5Z" fill="currentColor"/><path fill-rule="evenodd" clip-rule="evenodd" d="M10 8.5C10.5523 8.5 11 8.94772 11 9.5V14.5C11 15.0523 10.5523 15.5 10 15.5C9.44772 15.5 9 15.0523 9 14.5V9.5C9 8.94772 9.44772 8.5 10 8.5Z" fill="currentColor"/><path fill-rule="evenodd" clip-rule="evenodd" d="M13 8.5C13.5523 8.5 14 8.94772 14 9.5V14.5C14 15.0523 13.5523 15.5 13 15.5C12.4477 15.5 12 15.0523 12 14.5V9.5C12 8.94772 12.4477 8.5 13 8.5Z" fill="currentColor"/><path fill-rule="evenodd" clip-rule="evenodd" d="M16 8.5C16.5523 8.5 17 8.94772 17 9.5V14.5C17 15.0523 16.5523 15.5 16 15.5C15.4477 15.5 15 15.0523 15 14.5V9.5C15 8.94772 15.4477 8.5 16 8.5Z" fill="currentColor"/></svg>