<svg width="20" height="20" viewBox="0 0 26 26" fill="none" xmlns="http://www.w3.org/2000/svg"><g transform="translate(3, 3)"><rect x="17" y="7.5" width="2" height="5" rx="0.5" fill="currentColor"/><path d="M4 7.5H7V12.5H4V7.5Z" fill="currentColor"/><path d="M7.5 7.5H10.5V12.5H7.5V7.5Z" fill="currentColor"/><path d="M11 7.5H14V12.5H11V7.5Z" fill="currentColor"/><path fill-rule="evenodd" clip-rule="evenodd" d="M14 4.5H4C2.34315 4.5 1 5.84315 1 7.5V12.5C1 14.1569 2.34315 15.5 4 15.5H14C15.6569 15.5 17 14.1569 17 12.5V7.5C17 5.84315 15.6569 4.5 14 4.5ZM3 7.5C3 6.94772 3.44772 6.5 4 6.5H14C14.5523 6.5 15 6.94772 15 7.5V12.5C15 13.0523 14.5523 13.5 14 13.5H4C3.44772 13.5 3 13.0523 3 12.5V7.5Z" fill="currentColor"/></g><path fill-rule="evenodd" clip-rule="evenodd" d="M13 24C19.0751 24 24 19.0751 24 13C24 6.92487 19.0751 2 13 2C6.92487 2 2 6.92487 2 13C2 19.0751 6.92487 24 13 24ZM13 26C20.1797 26 26 20.1797 26 13C26 5.8203 20.1797 0 13 0C5.8203 0 0 5.8203 0 13C0 20.1797 5.8203 26 13 26Z" fill="currentColor"/></svg>