<svg width="20" height="20" viewBox="0 0 26 26" fill="none" xmlns="http://www.w3.org/2000/svg"><g transform="translate(3, 3)"><path d="M7.5 17C7.5 16.4477 7.94772 16 8.5 16C9.05229 16 9.5 16.4477 9.5 17C9.5 17.2761 9.72386 17.5 10 17.5C10.2761 17.5 10.5 17.2761 10.5 17C10.5 16.4477 10.9477 16 11.5 16C12.0523 16 12.5 16.4477 12.5 17C12.5 18.3807 11.3807 19.5 10 19.5C8.61929 19.5 7.5 18.3807 7.5 17Z" fill="currentColor"/><path fill-rule="evenodd" clip-rule="evenodd" d="M18 14.5C18 13.3482 17.4284 12.2866 16.5 11.6488V9C16.5 5.68629 13.8137 3 10.5 3H9.5C6.18629 3 3.5 5.68629 3.5 9V11.6488C2.57159 12.2867 2 13.3482 2 14.5C2 15.8807 3.11929 17 4.5 17H15.5C16.8807 17 18 15.8807 18 14.5ZM14.5 12.8819L15.0904 13.147L15.1434 13.1709C15.665 13.4075 16 13.9273 16 14.5C16 14.7761 15.7761 15 15.5 15H4.5C4.22386 15 4 14.7761 4 14.5C4 13.9273 4.335 13.4075 4.85658 13.1709L4.90959 13.147L5.5 12.8819V9C5.5 6.79086 7.29086 5 9.5 5H10.5C12.7091 5 14.5 6.79086 14.5 9V12.8819Z" fill="currentColor"/><path d="M9 1.5C9 0.947715 9.44772 0.5 10 0.5C10.5523 0.5 11 0.947716 11 1.5L11 4C11 4.55229 10.5523 5 10 5C9.44771 5 9 4.55228 9 4L9 1.5Z" fill="currentColor"/><path d="M1.29289 2.70711C0.902369 2.31658 0.902369 1.68342 1.29289 1.29289C1.68342 0.902368 2.31658 0.902368 2.70711 1.29289L18.7071 17.2929C19.0976 17.6834 19.0976 18.3166 18.7071 18.7071C18.3166 19.0976 17.6834 19.0976 17.2929 18.7071L1.29289 2.70711Z" fill="currentColor"/></g><path fill-rule="evenodd" clip-rule="evenodd" d="M13 24C19.0751 24 24 19.0751 24 13C24 6.92487 19.0751 2 13 2C6.92487 2 2 6.92487 2 13C2 19.0751 6.92487 24 13 24ZM13 26C20.1797 26 26 20.1797 26 13C26 5.8203 20.1797 0 13 0C5.8203 0 0 5.8203 0 13C0 20.1797 5.8203 26 13 26Z" fill="currentColor"/></svg>