<svg width="20" height="20" viewBox="0 0 20 20" fill="none" xmlns="http://www.w3.org/2000/svg"><path d="M13.0616 3.93632C12.5103 3.97032 12.0359 3.55102 12.0019 2.99978C11.9679 2.44854 12.3872 1.97411 12.9384 1.94011C16.8273 1.70025 19 2.46051 19 4.44073C19 6.01406 18.0221 6.71355 16.1454 6.9894C15.599 7.06971 15.0909 6.69187 15.0106 6.14545C14.9303 5.59904 15.3082 5.09098 15.8546 5.01066C16.8709 4.86127 17 4.76892 17 4.44073C17 4.14373 15.9059 3.76088 13.0616 3.93632Z" fill="currentColor"/><path fill-rule="evenodd" clip-rule="evenodd" d="M15.5 20C17.9853 20 20 17.9853 20 15.5C20 13.0147 17.9853 11 15.5 11C13.0147 11 11 13.0147 11 15.5C11 17.9853 13.0147 20 15.5 20ZM15.5 13C16.8807 13 18 14.1193 18 15.5C18 16.8807 16.8807 18 15.5 18C14.1193 18 13 16.8807 13 15.5C13 14.1193 14.1193 13 15.5 13Z" fill="currentColor"/><path fill-rule="evenodd" clip-rule="evenodd" d="M4.5 20C6.98528 20 9 17.9853 9 15.5C9 13.0147 6.98528 11 4.5 11C2.01472 11 0 13.0147 0 15.5C0 17.9853 2.01472 20 4.5 20ZM4.5 13C5.88071 13 7 14.1193 7 15.5C7 16.8807 5.88071 18 4.5 18C3.11929 18 2 16.8807 2 15.5C2 14.1193 3.11929 13 4.5 13Z" fill="currentColor"/><path d="M5 6.5C4.44772 6.5 4 6.05228 4 5.5C4 4.94772 4.44772 4.5 5 4.5H9C9.55228 4.5 10 4.94772 10 5.5C10 6.05228 9.55228 6.5 9 6.5H5Z" fill="currentColor"/><path fill-rule="evenodd" clip-rule="evenodd" d="M4.49999 16.5004H9.99999C10.6363 16.5004 11.0986 15.9191 10.983 15.3153L14.8473 9.14984C15.2647 8.48384 14.786 7.61876 14 7.61876H8.45062L7.64761 5.18682C7.47444 4.66239 6.90893 4.37763 6.38449 4.55079C5.86006 4.72396 5.5753 5.28948 5.74846 5.81391L6.75471 8.86133L3.60865 15.047C3.27029 15.7123 3.75361 16.5004 4.49999 16.5004ZM7.63799 11.5364L6.1305 14.5004H8.61669L7.63799 11.5364ZM10.1744 12.8394L12.193 9.61876H9.11102L10.1744 12.8394Z" fill="currentColor"/><path d="M13.9808 2.74302L16.4808 15.3048C16.741 16.6125 14.7795 17.0029 14.5192 15.6952L12.0192 3.13339C11.759 1.8257 13.7205 1.43533 13.9808 2.74302Z" fill="currentColor"/></svg>