<svg width="20" height="20" viewBox="0 0 20 20" fill="none" xmlns="http://www.w3.org/2000/svg"><path fill-rule="evenodd" clip-rule="evenodd" d="M11.5351 10.7951L17.1065 6.54508C17.6312 6.14486 17.6312 5.35514 17.1065 4.95492L11.5351 0.704921C10.8769 0.202853 9.92857 0.672195 9.92857 1.5L9.92857 10C9.92857 10.8278 10.8769 11.2971 11.5351 10.7951ZM11.9286 3.52056L14.8512 5.75L11.9286 7.97945L11.9286 3.52056Z" fill="currentColor"/><path fill-rule="evenodd" clip-rule="evenodd" d="M11.5351 19.2951L17.1065 15.0451C17.6312 14.6449 17.6312 13.8551 17.1065 13.4549L11.5351 9.20492C10.8769 8.70285 9.92857 9.1722 9.92857 10L9.92857 18.5C9.92857 19.3278 10.8769 19.7971 11.5351 19.2951ZM11.9286 12.0206L14.8512 14.25L11.9286 16.4794L11.9286 12.0206Z" fill="currentColor"/><path d="M11.5264 9.19846C11.9692 9.52866 12.0604 10.1552 11.7302 10.5979C11.4 11.0406 10.7734 11.1318 10.3307 10.8016L3.36641 5.60719C2.9237 5.27699 2.8325 4.65043 3.1627 4.20772C3.4929 3.76502 4.11946 3.67382 4.56216 4.00402L11.5264 9.19846Z" fill="currentColor"/><path d="M11.5264 10.8015C11.9692 10.4713 12.0604 9.84478 11.7302 9.40207C11.4 8.95937 10.7734 8.86817 10.3307 9.19837L3.36641 14.3928C2.9237 14.723 2.8325 15.3496 3.1627 15.7923C3.4929 16.235 4.11946 16.3262 4.56216 15.996L11.5264 10.8015Z" fill="currentColor"/><path d="M1.29289 2.70711C0.902369 2.31658 0.902369 1.68342 1.29289 1.29289C1.68342 0.902368 2.31658 0.902368 2.70711 1.29289L18.7071 17.2929C19.0976 17.6834 19.0976 18.3166 18.7071 18.7071C18.3166 19.0976 17.6834 19.0976 17.2929 18.7071L1.29289 2.70711Z" fill="currentColor"/></svg>