<svg width="20" height="20" viewBox="0 0 26 26" fill="none" xmlns="http://www.w3.org/2000/svg"><g transform="translate(3, 3)"><path fill-rule="evenodd" clip-rule="evenodd" d="M6.24548 17.6665L10 13.4673L13.7545 17.6665C14.3665 18.3509 15.5 17.9181 15.5 17V3C15.5 2.44772 15.0523 2 14.5 2H5.5C4.94772 2 4.5 2.44772 4.5 3V17C4.5 17.9181 5.63355 18.3509 6.24548 17.6665ZM6.5 14.3812V4H13.5V14.3812L10.7455 11.3004C10.3479 10.8558 9.65206 10.8558 9.25452 11.3004L6.5 14.3812Z" fill="currentColor"/></g><path fill-rule="evenodd" clip-rule="evenodd" d="M13 24C19.0751 24 24 19.0751 24 13C24 6.92487 19.0751 2 13 2C6.92487 2 2 6.92487 2 13C2 19.0751 6.92487 24 13 24ZM13 26C20.1797 26 26 20.1797 26 13C26 5.8203 20.1797 0 13 0C5.8203 0 0 5.8203 0 13C0 20.1797 5.8203 26 13 26Z" fill="currentColor"/></svg>