<svg width="20" height="20" viewBox="0 0 20 20" fill="none" xmlns="http://www.w3.org/2000/svg"><path d="M10 13.4673L6.24548 17.6665C5.63355 18.3509 4.5 17.9181 4.5 17V3C4.5 2.44772 4.94772 2 5.5 2H14.5C15.0523 2 15.5 2.44772 15.5 3V17C15.5 17.9181 14.3665 18.3509 13.7545 17.6665L10 13.4673Z" fill="currentColor"/><path d="M1.29289 2.70711C0.902369 2.31658 0.902369 1.68342 1.29289 1.29289C1.68342 0.902368 2.31658 0.902368 2.70711 1.29289L18.7071 17.2929C19.0976 17.6834 19.0976 18.3166 18.7071 18.7071C18.3166 19.0976 17.6834 19.0976 17.2929 18.7071L1.29289 2.70711Z" fill="currentColor"/></svg>