<svg width="20" height="20" viewBox="0 0 20 20" fill="none" xmlns="http://www.w3.org/2000/svg"><path d="M2 18.5C1.44772 18.5 1 18.0523 1 17.5C1 16.9477 1.44772 16.5 2 16.5H18C18.5523 16.5 19 16.9477 19 17.5C19 18.0523 18.5523 18.5 18 18.5H2Z" fill="currentColor"/><path d="M6.5 17C6.5 17.5523 6.05228 18 5.5 18C4.94772 18 4.5 17.5523 4.5 17V4.30769C4.5 2.51017 5.80881 1 7.5 1H12.5C14.1912 1 15.5 2.51017 15.5 4.30769V17C15.5 17.5523 15.0523 18 14.5 18C13.9477 18 13.5 17.5523 13.5 17V4.30769C13.5 3.55621 13.018 3 12.5 3H7.5C6.98205 3 6.5 3.55621 6.5 4.30769V17Z" fill="currentColor"/><path d="M8 4H9C9.27614 4 9.5 4.22386 9.5 4.5V5.5C9.5 5.77614 9.27614 6 9 6H8C7.72386 6 7.5 5.77614 7.5 5.5V4.5C7.5 4.22386 7.72386 4 8 4Z" fill="currentColor"/><path d="M11 4H12C12.2761 4 12.5 4.22386 12.5 4.5V5.5C12.5 5.77614 12.2761 6 12 6H11C10.7239 6 10.5 5.77614 10.5 5.5V4.5C10.5 4.22386 10.7239 4 11 4Z" fill="currentColor"/><path d="M11 7H12C12.2761 7 12.5 7.22386 12.5 7.5V8.5C12.5 8.77614 12.2761 9 12 9H11C10.7239 9 10.5 8.77614 10.5 8.5V7.5C10.5 7.22386 10.7239 7 11 7Z" fill="currentColor"/><path d="M11 10H12C12.2761 10 12.5 10.2239 12.5 10.5V11.5C12.5 11.7761 12.2761 12 12 12H11C10.7239 12 10.5 11.7761 10.5 11.5V10.5C10.5 10.2239 10.7239 10 11 10Z" fill="currentColor"/><path d="M11 13H12C12.2761 13 12.5 13.2239 12.5 13.5V14.5C12.5 14.7761 12.2761 15 12 15H11C10.7239 15 10.5 14.7761 10.5 14.5V13.5C10.5 13.2239 10.7239 13 11 13Z" fill="currentColor"/><path d="M8 7H9C9.27614 7 9.5 7.22386 9.5 7.5V8.5C9.5 8.77614 9.27614 9 9 9H8C7.72386 9 7.5 8.77614 7.5 8.5V7.5C7.5 7.22386 7.72386 7 8 7Z" fill="currentColor"/><path d="M8 13H9C9.27614 13 9.5 13.2239 9.5 13.5V14.5C9.5 14.7761 9.27614 15 9 15H8C7.72386 15 7.5 14.7761 7.5 14.5V13.5C7.5 13.2239 7.72386 13 8 13Z" fill="currentColor"/><path d="M8 10H9C9.27614 10 9.5 10.2239 9.5 10.5V11.5C9.5 11.7761 9.27614 12 9 12H8C7.72386 12 7.5 11.7761 7.5 11.5V10.5C7.5 10.2239 7.72386 10 8 10Z" fill="currentColor"/></svg>