<svg width="20" height="20" viewBox="0 0 26 26" fill="none" xmlns="http://www.w3.org/2000/svg"><g transform="translate(3, 3)"><g><path fill-rule="evenodd" clip-rule="evenodd" d="M0 7C0 5.89543 0.895431 5 2 5H18C19.1046 5 20 5.89543 20 7V18C20 19.1046 19.1046 20 18 20H2C0.895432 20 0 19.1046 0 18V7ZM18 7H2V18H18V7Z" fill="currentColor"/><path fill-rule="evenodd" clip-rule="evenodd" d="M5.75 9.5C5.75 9.08579 6.08579 8.75 6.5 8.75H13.5C13.9142 8.75 14.25 9.08579 14.25 9.5C14.25 9.91421 13.9142 10.25 13.5 10.25H6.5C6.08579 10.25 5.75 9.91421 5.75 9.5Z" fill="currentColor"/><path fill-rule="evenodd" clip-rule="evenodd" d="M4.75 12.5C4.75 12.0858 5.08579 11.75 5.5 11.75H14.5C14.9142 11.75 15.25 12.0858 15.25 12.5C15.25 12.9142 14.9142 13.25 14.5 13.25H5.5C5.08579 13.25 4.75 12.9142 4.75 12.5Z" fill="currentColor"/><path fill-rule="evenodd" clip-rule="evenodd" d="M5.75 15.5C5.75 15.0858 6.08579 14.75 6.5 14.75H13.5C13.9142 14.75 14.25 15.0858 14.25 15.5C14.25 15.9142 13.9142 16.25 13.5 16.25H6.5C6.08579 16.25 5.75 15.9142 5.75 15.5Z" fill="currentColor"/><path fill-rule="evenodd" clip-rule="evenodd" d="M11.4142 2.82843C10.6332 2.04738 9.36686 2.04738 8.58581 2.82843L4.70711 6.70709C4.31658 7.09762 3.68342 7.09761 3.2929 6.70709C2.90237 6.31656 2.90238 5.6834 3.2929 5.29288L7.1716 1.41421C8.7337 -0.14788 11.2663 -0.147876 12.8284 1.41421L16.7071 5.29288C17.0976 5.6834 17.0976 6.31657 16.7071 6.70709C16.3166 7.09762 15.6834 7.09762 15.2929 6.70709L11.4142 2.82843Z" fill="currentColor"/></g></g><path fill-rule="evenodd" clip-rule="evenodd" d="M13 24C19.0751 24 24 19.0751 24 13C24 6.92487 19.0751 2 13 2C6.92487 2 2 6.92487 2 13C2 19.0751 6.92487 24 13 24ZM13 26C20.1797 26 26 20.1797 26 13C26 5.8203 20.1797 0 13 0C5.8203 0 0 5.8203 0 13C0 20.1797 5.8203 26 13 26Z" fill="currentColor"/></svg>