<svg width="20" height="20" viewBox="0 0 26 26" fill="none" xmlns="http://www.w3.org/2000/svg"><g transform="translate(3, 3)"><path fill-rule="evenodd" clip-rule="evenodd" d="M2 3L2 17C2 18.6569 3.34315 20 5 20H15C16.6569 20 18 18.6569 18 17V3C18 1.34315 16.6569 0 15 0H5C3.34315 0 2 1.34315 2 3ZM5 18C4.44772 18 4 17.5523 4 17L4 3C4 2.44772 4.44772 2 5 2H15C15.5523 2 16 2.44772 16 3V17C16 17.5523 15.5523 18 15 18H5Z" fill="currentColor"/><path d="M5 7.5V3.5C5 3.22386 5.22386 3 5.5 3L14.5 3C14.7761 3 15 3.22386 15 3.5V7.5C15 7.77614 14.7761 8 14.5 8H5.5C5.22386 8 5 7.77614 5 7.5Z" fill="currentColor"/><path d="M12 15.7V10.8C12 10.3582 12.3582 10 12.8 10H14.2C14.6418 10 15 10.3582 15 10.8V15.7C15 16.1418 14.6418 16.5 14.2 16.5H12.8C12.3582 16.5 12 16.1418 12 15.7Z" fill="currentColor"/><path d="M5 12V10.5C5 10.2239 5.22386 10 5.5 10H7C7.27614 10 7.5 10.2239 7.5 10.5V12C7.5 12.2761 7.27614 12.5 7 12.5H5.5C5.22386 12.5 5 12.2761 5 12Z" fill="currentColor"/><path d="M8.5 12V10.5C8.5 10.2239 8.72386 10 9 10H10.5C10.7761 10 11 10.2239 11 10.5V12C11 12.2761 10.7761 12.5 10.5 12.5H9C8.72386 12.5 8.5 12.2761 8.5 12Z" fill="currentColor"/><path d="M5 16V14.5C5 14.2239 5.22386 14 5.5 14H7C7.27614 14 7.5 14.2239 7.5 14.5V16C7.5 16.2761 7.27614 16.5 7 16.5H5.5C5.22386 16.5 5 16.2761 5 16Z" fill="currentColor"/><path d="M8.5 16V14.5C8.5 14.2239 8.72386 14 9 14H10.5C10.7761 14 11 14.2239 11 14.5V16C11 16.2761 10.7761 16.5 10.5 16.5H9C8.72386 16.5 8.5 16.2761 8.5 16Z" fill="currentColor"/></g><path fill-rule="evenodd" clip-rule="evenodd" d="M13 24C19.0751 24 24 19.0751 24 13C24 6.92487 19.0751 2 13 2C6.92487 2 2 6.92487 2 13C2 19.0751 6.92487 24 13 24ZM13 26C20.1797 26 26 20.1797 26 13C26 5.8203 20.1797 0 13 0C5.8203 0 0 5.8203 0 13C0 20.1797 5.8203 26 13 26Z" fill="currentColor"/></svg>