<svg width="20" height="20" viewBox="0 0 26 26" fill="none" xmlns="http://www.w3.org/2000/svg"><g transform="translate(3, 3)"><path fill-rule="evenodd" clip-rule="evenodd" d="M3 4H17C17.5523 4 18 4.44772 18 5V17C18 17.5523 17.5523 18 17 18H3C2.44772 18 2 17.5523 2 17V5C2 4.44772 2.44772 4 3 4ZM4 8V16H16V8H4Z" fill="currentColor"/><circle cx="6.5" cy="10.5" r="1.5" fill="currentColor"/><circle cx="5.5" cy="4.5" r="1.5" fill="currentColor"/><circle cx="14.5" cy="4.5" r="1.5" fill="currentColor"/></g><path fill-rule="evenodd" clip-rule="evenodd" d="M13 24C19.0751 24 24 19.0751 24 13C24 6.92487 19.0751 2 13 2C6.92487 2 2 6.92487 2 13C2 19.0751 6.92487 24 13 24ZM13 26C20.1797 26 26 20.1797 26 13C26 5.8203 20.1797 0 13 0C5.8203 0 0 5.8203 0 13C0 20.1797 5.8203 26 13 26Z" fill="currentColor"/></svg>