<svg width="20" height="20" viewBox="0 0 20 20" fill="none" xmlns="http://www.w3.org/2000/svg"><path fill-rule="evenodd" clip-rule="evenodd" d="M3 4H17C17.5523 4 18 4.44772 18 5V17C18 17.5523 17.5523 18 17 18H3C2.44772 18 2 17.5523 2 17V5C2 4.44772 2.44772 4 3 4ZM4 8V16H16V8H4Z" fill="currentColor"/><circle cx="6.5" cy="10.5" r="1.5" fill="currentColor"/><circle cx="5.5" cy="4.5" r="1.5" fill="currentColor"/><circle cx="14.5" cy="4.5" r="1.5" fill="currentColor"/><path d="M1.29289 2.70711C0.902369 2.31658 0.902369 1.68342 1.29289 1.29289C1.68342 0.902368 2.31658 0.902368 2.70711 1.29289L18.7071 17.2929C19.0976 17.6834 19.0976 18.3166 18.7071 18.7071C18.3166 19.0976 17.6834 19.0976 17.2929 18.7071L1.29289 2.70711Z" fill="currentColor"/></svg>