<svg width="20" height="20" viewBox="0 0 26 26" fill="none" xmlns="http://www.w3.org/2000/svg"><g transform="translate(3, 3)"><path fill-rule="evenodd" clip-rule="evenodd" d="M12.5 2H7.5C5.83333 2.66667 4.83333 3.66667 4.5 5V15C4.5 16.6569 5.84315 18 7.5 18H12.5C14.1569 18 15.5 16.6569 15.5 15V5C15.1667 3.66667 14.1667 2.66667 12.5 2ZM6.5 15V5.29379C6.68962 4.79195 7.1237 4.36779 7.91138 4H12.0886C12.8763 4.36779 13.3104 4.79195 13.5 5.29379V15C13.5 15.5523 13.0523 16 12.5 16H7.5C6.94772 16 6.5 15.5523 6.5 15Z" fill="currentColor"/><path fill-rule="evenodd" clip-rule="evenodd" d="M7 9.5C7 11.7091 8.79086 13.5 11 13.5C13.2091 13.5 15 11.7091 15 9.5C15 7.29086 13.2091 5.5 11 5.5C8.79086 5.5 7 7.29086 7 9.5ZM9.80484 10.9055C9.55673 10.9664 9.15223 11.09 8.58357 11.2782C8.56278 11.25 8.54246 11.2214 8.52264 11.1925C9.78121 10.8145 10.7946 10.2379 11.5554 9.45908C12.2367 8.7617 12.6995 8.01039 12.9365 7.20862C13.0856 7.33479 13.2223 7.47526 13.3443 7.62791C13.4677 8.46285 13.3733 9.08532 13.0855 9.51186C12.7303 10.0384 12.1353 10.3668 11.5805 10.5122C11.5089 10.5309 11.3794 10.5603 11.1777 10.6038C11.1136 10.6176 10.9312 10.6565 10.7798 10.6887C10.683 10.7093 10.5989 10.7273 10.5665 10.7342L10.4542 10.7584C10.1799 10.8176 9.9714 10.8646 9.80484 10.9055Z" fill="currentColor"/><path d="M1.29289 2.70711C0.902369 2.31658 0.902369 1.68342 1.29289 1.29289C1.68342 0.902368 2.31658 0.902368 2.70711 1.29289L18.7071 17.2929C19.0976 17.6834 19.0976 18.3166 18.7071 18.7071C18.3166 19.0976 17.6834 19.0976 17.2929 18.7071L1.29289 2.70711Z" fill="currentColor"/></g><path fill-rule="evenodd" clip-rule="evenodd" d="M13 24C19.0751 24 24 19.0751 24 13C24 6.92487 19.0751 2 13 2C6.92487 2 2 6.92487 2 13C2 19.0751 6.92487 24 13 24ZM13 26C20.1797 26 26 20.1797 26 13C26 5.8203 20.1797 0 13 0C5.8203 0 0 5.8203 0 13C0 20.1797 5.8203 26 13 26Z" fill="currentColor"/></svg>