<svg width="20" height="20" viewBox="0 0 20 20" fill="none" xmlns="http://www.w3.org/2000/svg"><path fill-rule="evenodd" clip-rule="evenodd" d="M5.65265 2.78967C4.74897 3.00861 4.04146 3.71098 3.81595 4.61304L2.68528 9.1357C1.70458 9.47358 1 10.4045 1 11.4999V14.4999C1 15.8807 2.11929 16.9999 3.5 16.9999H16.5C17.8807 16.9999 19 15.8807 19 14.4999V11.4999C19 10.4045 18.2954 9.47358 17.3147 9.1357L16.184 4.61293C15.9585 3.71099 15.2512 3.00867 14.3476 2.78962C12.9007 2.43894 11.4512 2.26331 10.0007 2.26331C8.55011 2.26331 7.10023 2.43896 5.65265 2.78967ZM3.5 10.9999C3.95887 10.9999 4.35885 10.6876 4.47014 10.2425L5.75623 5.09811C5.80133 4.9177 5.94284 4.77722 6.12357 4.73344C7.41806 4.41982 8.70992 4.26331 10.0007 4.26331C11.2914 4.26331 12.5828 4.41978 13.8765 4.73333C14.0572 4.77714 14.1986 4.91761 14.2437 5.09801L15.5299 10.2425C15.6411 10.6876 16.0411 10.9999 16.5 10.9999C16.7761 10.9999 17 11.2238 17 11.4999V14.4999C17 14.7761 16.7761 14.9999 16.5 14.9999H3.5C3.22386 14.9999 3 14.7761 3 14.4999V11.4999C3 11.2238 3.22386 10.9999 3.5 10.9999Z" fill="currentColor"/><path d="M16.5 13C16.5 13.8284 15.8284 14.5 15 14.5C14.1716 14.5 13.5 13.8284 13.5 13C13.5 12.1716 14.1716 11.5 15 11.5C15.8284 11.5 16.5 12.1716 16.5 13Z" fill="currentColor"/><path d="M6.5 13C6.5 13.8284 5.82843 14.5 5 14.5C4.17157 14.5 3.5 13.8284 3.5 13C3.5 12.1716 4.17157 11.5 5 11.5C5.82843 11.5 6.5 12.1716 6.5 13Z" fill="currentColor"/><path d="M4 15.5C4.82843 15.5 5.5 16.1716 5.5 17V18C5.5 18.8284 4.82843 19.5 4 19.5C3.17157 19.5 2.5 18.8284 2.5 18V17C2.5 16.1716 3.17157 15.5 4 15.5Z" fill="currentColor"/><path d="M16 15.5C16.8284 15.5 17.5 16.1716 17.5 17V18C17.5 18.8284 16.8284 19.5 16 19.5C15.1716 19.5 14.5 18.8284 14.5 18V17C14.5 16.1716 15.1716 15.5 16 15.5Z" fill="currentColor"/><path fill-rule="evenodd" clip-rule="evenodd" d="M12.1948 5H7.80491C6.862 5 6.04716 5.65858 5.8494 6.58052L5.42037 8.58052C5.3908 8.71839 5.37589 8.859 5.37589 9C5.37589 10.1046 6.27132 11 7.37589 11H12.6238C12.7648 11 12.9054 10.9851 13.0433 10.9555C14.1233 10.7238 14.811 9.66052 14.5793 8.58052L14.1503 6.58052C13.9525 5.65858 13.1377 5 12.1948 5ZM7.37589 9L7.80491 7H12.1948L12.6238 9H7.37589Z" fill="currentColor"/></svg>