<svg xmlns="http://www.w3.org/2000/svg" width="20" height="20" viewBox="0 0 20 20">
  <g fill="none" fill-rule="evenodd">
    <path stroke="#AB92F0" stroke-linecap="round" stroke-linejoin="round" stroke-width="2" d="M9.63168264,3.13168258 L14.7760465,4.41777035 C15.3172826,4.55307938 15.7387088,4.97758723 15.870071,5.51979479 C16.2022352,6.89082813 16.3683173,8.26169844 16.3683173,9.63240573 C16.3683173,11.0030022 16.2022621,12.3734356 15.8701516,13.743706 L15.8701202,13.7436984 C15.7387236,14.2858339 15.3173295,14.710271 14.7761535,14.845565 L9.63168267,16.1316827 C9.63168267,16.9601098 8.96010979,17.6316827 8.13168267,17.6316827 L5.13168267,17.6316827 C4.30325554,17.6316827 3.63168267,16.9601098 3.63168267,16.1316827 L3.63168267,3.13168267 C3.63168267,2.30325554 4.30325554,1.63168267 5.13168267,1.63168267 L8.13168267,1.63168267 C8.96010975,1.63168267 9.63168259,2.30325547 9.63168267,3.13168253 Z" transform="rotate(-90 10 9.632)"/>
    <circle cx="15" cy="13" r="1" stroke="#AB92F0" stroke-linecap="round" stroke-linejoin="round" transform="rotate(-90 15 13)"/>
    <circle cx="5" cy="13" r="1" stroke="#AB92F0" stroke-linecap="round" stroke-linejoin="round" transform="rotate(-90 5 13)"/>
    <rect width="2" height="3" x="3" y="16" fill="#AB92F0" stroke="#AB92F0" rx="1"/>
    <rect width="2" height="3" x="15" y="16" fill="#AB92F0" stroke="#AB92F0" rx="1"/>
    <path stroke="#AB92F0" stroke-width="1.5" d="M7.35207827,6 L12.6475738,6 C13.1081432,6 13.5091483,6.31457056 13.6188128,6.7618936 L14.1091276,8.7618936 C14.2406301,9.29829412 13.9123954,9.83973654 13.3759949,9.97123907 C13.2980673,9.99034359 13.2181237,10 13.1378885,10 L6.86176356,10 C6.30947881,10 5.86176356,9.55228475 5.86176356,9 C5.86176356,8.91976479 5.87141997,8.83982117 5.89052448,8.7618936 L6.3808392,6.7618936 C6.49050373,6.31457056 6.89150883,6 7.35207827,6 Z"/>
  </g>
</svg>
