<svg width="20" height="20" viewBox="0 0 26 26" fill="none" xmlns="http://www.w3.org/2000/svg"><g transform="translate(3, 3)"><g><path fill-rule="evenodd" clip-rule="evenodd" d="M16.5131 6L7.48727 6C7.29999 6 7.11329 6.02105 6.9307 6.06274C5.58464 6.37013 4.74263 7.71051 5.05002 9.05657L5.96345 13.0566C6.2231 14.1936 7.23443 15 8.40071 15L15.5996 15C16.7659 15 17.7772 14.1936 18.0369 13.0566L18.9503 9.05657C18.992 8.87398 19.0131 8.68729 19.0131 8.5C19.0131 7.11929 17.8938 6 16.5131 6ZM7.37596 8.01255C7.41248 8.00421 7.44982 8 7.48727 8L16.5131 8C16.7892 8 17.0131 8.22386 17.0131 8.5C17.0131 8.53746 17.0089 8.5748 17.0005 8.61131L16.0871 12.6113C16.0352 12.8387 15.8329 13 15.5996 13L8.40071 13C8.16745 13 7.96519 12.8387 7.91326 12.6113L6.99982 8.61131C6.93835 8.3421 7.10675 8.07403 7.37596 8.01255Z" fill="currentColor"/><path d="M3.49044 2L2 2C1.44772 2 1 1.55228 1 1C1 0.447715 1.44772 0 2 0L4.28977 0C4.75718 0 5.16223 0.323776 5.2652 0.779696L7.97543 12.7797C8.0971 13.3184 7.75902 13.8538 7.2203 13.9754C6.68159 14.0971 6.14624 13.759 6.02457 13.2203L3.49044 2Z" fill="currentColor"/><path d="M10 17.25C10 18.2165 9.2165 19 8.25 19C7.2835 19 6.5 18.2165 6.5 17.25C6.5 16.2835 7.2835 15.5 8.25 15.5C9.2165 15.5 10 16.2835 10 17.25Z" fill="currentColor"/><path d="M17 17.25C17 18.2165 16.2165 19 15.25 19C14.2835 19 13.5 18.2165 13.5 17.25C13.5 16.2835 14.2835 15.5 15.25 15.5C16.2165 15.5 17 16.2835 17 17.25Z" fill="currentColor"/></g></g><path fill-rule="evenodd" clip-rule="evenodd" d="M13 24C19.0751 24 24 19.0751 24 13C24 6.92487 19.0751 2 13 2C6.92487 2 2 6.92487 2 13C2 19.0751 6.92487 24 13 24ZM13 26C20.1797 26 26 20.1797 26 13C26 5.8203 20.1797 0 13 0C5.8203 0 0 5.8203 0 13C0 20.1797 5.8203 26 13 26Z" fill="currentColor"/></svg>