<svg width="20" height="20" viewBox="0 0 20 20" fill="none" xmlns="http://www.w3.org/2000/svg"><g><path d="M12.675 15.1375C12.675 15.5103 12.3727 15.8125 12 15.8125C11.6272 15.8125 11.325 15.5103 11.325 15.1375C11.325 14.7647 11.6272 14.4625 12 14.4625C12.3727 14.4625 12.675 14.7647 12.675 15.1375Z" fill="currentColor"/><path fill-rule="evenodd" clip-rule="evenodd" d="M12 14.9625C11.9033 14.9625 11.825 15.0409 11.825 15.1375C11.825 15.2342 11.9033 15.3125 12 15.3125C12.0966 15.3125 12.175 15.2342 12.175 15.1375C12.175 15.0409 12.0966 14.9625 12 14.9625ZM10.825 15.1375C10.825 14.4886 11.351 13.9625 12 13.9625C12.6489 13.9625 13.175 14.4886 13.175 15.1375C13.175 15.7865 12.6489 16.3125 12 16.3125C11.351 16.3125 10.825 15.7865 10.825 15.1375Z" fill="currentColor"/><path fill-rule="evenodd" clip-rule="evenodd" d="M5.5 3.5C5.5 1.84315 6.84315 0.5 8.5 0.5H15.5C17.1569 0.5 18.5 1.84315 18.5 3.5V16.5C18.5 18.1569 17.1569 19.5 15.5 19.5H8C6.61929 19.5 5.5 18.3807 5.5 17V16.5C5.5 15.9477 5.94772 15.5 6.5 15.5C7.05228 15.5 7.5 15.9477 7.5 16.5V17C7.5 17.2761 7.72386 17.5 8 17.5H15.5C16.0523 17.5 16.5 17.0523 16.5 16.5V3.5C16.5 2.94772 16.0523 2.5 15.5 2.5H8.5C7.94772 2.5 7.5 2.94772 7.5 3.5V5.75C7.5 6.30228 7.05228 6.75 6.5 6.75C5.94772 6.75 5.5 6.30228 5.5 5.75V3.5Z" fill="currentColor"/><path fill-rule="evenodd" clip-rule="evenodd" d="M7.34728 9.37952C6.36534 8.67069 4.9947 8.89209 4.28587 9.87403C3.57704 10.856 3.79844 12.2266 4.78038 12.9355C5.76232 13.6443 7.13297 13.4229 7.8418 12.4409C8.55063 11.459 8.32923 10.0883 7.34728 9.37952ZM2.66423 8.70343C4.01957 6.82589 6.64034 6.40255 8.51789 7.75789C10.3954 9.11322 10.8188 11.734 9.46343 13.6115C8.30981 15.2097 6.23938 15.7542 4.49083 15.0451L2.39955 17.9421C2.0763 18.3899 1.45124 18.4909 1.00344 18.1677C0.555634 17.8444 0.454667 17.2193 0.77792 16.7715L2.8692 13.8745C1.64562 12.4381 1.51061 10.3016 2.66423 8.70343Z" fill="currentColor"/></g></svg>