<svg width="20" height="20" viewBox="0 0 26 26" fill="none" xmlns="http://www.w3.org/2000/svg"><defs><mask id="x0lyoos6qxrzqxrk6y4adm"><rect width="26" height="26" fill="white"/><g transform="translate(3, 3)"><path fill-rule="evenodd" clip-rule="evenodd" d="M10.3915 11.5639C9.46558 10.9616 9.20313 9.72281 9.80535 8.79684L11.9862 5.44362C12.5884 4.51766 13.8272 4.2552 14.7532 4.85742C15.6791 5.45963 15.9416 6.69847 15.3394 7.62443L13.1586 10.9776C12.5563 11.9036 11.3175 12.1661 10.3915 11.5639ZM7.94959 11.7656C7.29026 10.523 7.30746 8.96924 8.12874 7.70644L10.3095 4.35322C11.514 2.50129 13.9916 1.97638 15.8436 3.18081C17.6955 4.38524 18.2204 6.86291 17.016 8.71484L14.8352 12.0681C13.6307 13.92 11.1531 14.4449 9.30114 13.2405C8.71201 12.8573 8.25718 12.3453 7.94959 11.7656Z" fill="black"/><path fill-rule="evenodd" clip-rule="evenodd" d="M5.44367 15.5032C4.51771 14.901 4.25526 13.6621 4.85747 12.7362L7.03828 9.38295C7.64049 8.45699 8.87933 8.19454 9.80529 8.79675C10.7313 9.39896 10.9937 10.6378 10.3915 11.5638L8.21069 14.917C7.60847 15.8429 6.36964 16.1054 5.44367 15.5032ZM3.00171 15.7049C2.34238 14.4623 2.35958 12.9086 3.18086 11.6458L5.36167 8.29255C6.5661 6.44062 9.04377 5.91571 10.8957 7.12014C12.7476 8.32457 13.2725 10.8022 12.0681 12.6542L9.8873 16.0074C8.68287 17.8593 6.2052 18.3842 4.35327 17.1798C3.76414 16.7966 3.3093 16.2846 3.00171 15.7049Z" fill="black"/></g></mask></defs><circle r="13" cx="13" cy="13" mask="url(#x0lyoos6qxrzqxrk6y4adm)" fill="currentColor"/></svg>