<svg width="20" height="20" viewBox="0 0 20 20" fill="none" xmlns="http://www.w3.org/2000/svg"><path fill-rule="evenodd" clip-rule="evenodd" d="M10.3915 11.5639C9.46552 10.9616 9.20307 9.72281 9.80528 8.79684L11.9861 5.44362C12.5883 4.51766 13.8271 4.2552 14.7531 4.85742C15.6791 5.45963 15.9415 6.69847 15.3393 7.62443L13.1585 10.9776C12.5563 11.9036 11.3175 12.1661 10.3915 11.5639ZM7.94952 11.7656C7.2902 10.523 7.3074 8.96924 8.12868 7.70644L10.3095 4.35322C11.5139 2.50129 13.9916 1.97638 15.8435 3.18081C17.6954 4.38524 18.2203 6.86291 17.0159 8.71484L14.8351 12.0681C13.6307 13.92 11.153 14.4449 9.30108 13.2405C8.71195 12.8573 8.25712 12.3453 7.94952 11.7656Z" fill="currentColor"/><path fill-rule="evenodd" clip-rule="evenodd" d="M5.44361 15.5032C4.51765 14.901 4.25519 13.6621 4.85741 12.7362L7.03822 9.38295C7.64043 8.45699 8.87927 8.19454 9.80523 8.79675C10.7312 9.39896 10.9937 10.6378 10.3914 11.5638L8.21063 14.917C7.60841 15.8429 6.36958 16.1054 5.44361 15.5032ZM3.00165 15.7049C2.34232 14.4623 2.35952 12.9086 3.1808 11.6458L5.36161 8.29255C6.56604 6.44062 9.04371 5.91571 10.8956 7.12014C12.7476 8.32457 13.2725 10.8022 12.068 12.6542L9.88724 16.0074C8.68281 17.8593 6.20514 18.3842 4.35321 17.1798C3.76408 16.7966 3.30924 16.2846 3.00165 15.7049Z" fill="currentColor"/></svg>