<svg width="20" height="20" viewBox="0 0 26 26" fill="none" xmlns="http://www.w3.org/2000/svg"><g transform="translate(3, 3)"><path d="M15.3742 5.98559L10.3742 14.9856C9.72664 16.1511 7.97832 15.1798 8.62585 14.0143L13.6258 5.01431C14.2734 3.84876 16.0217 4.82005 15.3742 5.98559Z" fill="currentColor"/><path d="M5.1247 9.71907L10.1247 13.7191C11.1659 14.552 9.91646 16.1137 8.87531 15.2808L3.87531 11.2808C2.83415 10.4479 4.08354 8.88615 5.1247 9.71907Z" fill="currentColor"/></g><path fill-rule="evenodd" clip-rule="evenodd" d="M13 24C19.0751 24 24 19.0751 24 13C24 6.92487 19.0751 2 13 2C6.92487 2 2 6.92487 2 13C2 19.0751 6.92487 24 13 24ZM13 26C20.1797 26 26 20.1797 26 13C26 5.8203 20.1797 0 13 0C5.8203 0 0 5.8203 0 13C0 20.1797 5.8203 26 13 26Z" fill="currentColor"/></svg>