<svg width="20" height="20" viewBox="0 0 26 26" fill="none" xmlns="http://www.w3.org/2000/svg"><g transform="translate(3, 3)"><path fill-rule="evenodd" clip-rule="evenodd" d="M13.0412 6.6259C13.524 6.89412 13.6979 7.50292 13.4297 7.9857L10.6519 12.9857C10.3837 13.4685 9.77491 13.6424 9.29213 13.3742C8.80934 13.106 8.6354 12.4972 8.90361 12.0144L11.6814 7.01442C11.9496 6.53163 12.5584 6.35769 13.0412 6.6259Z" fill="currentColor"/><path fill-rule="evenodd" clip-rule="evenodd" d="M6.21917 9.65305C6.56418 9.22179 7.19347 9.15187 7.62473 9.49688L10.4025 11.7191C10.8338 12.0641 10.9037 12.6934 10.5587 13.1247C10.2137 13.5559 9.58438 13.6258 9.15312 13.2808L6.37534 11.0586C5.94408 10.7136 5.87416 10.0843 6.21917 9.65305Z" fill="currentColor"/><path fill-rule="evenodd" clip-rule="evenodd" d="M11.8848 2.27776L10.4706 3.69197C10.2137 3.43503 9.79708 3.43503 9.54014 3.69197C8.63442 4.59769 7.18243 5.1556 5.90464 5.09112C5.72114 5.08186 5.5423 5.1461 5.40543 5.28296C5.27347 5.41493 5.20942 5.58516 5.21286 5.76136C5.22692 6.48152 5.0459 7.19989 4.80776 7.79126C4.56963 8.3826 4.20224 9.02611 3.6927 9.53565C3.43577 9.79259 3.43577 10.2092 3.6927 10.4661C4.58628 11.3597 5.18691 12.7674 5.21287 14.0316C5.21629 14.198 5.27984 14.3574 5.40543 14.483C5.52644 14.604 5.67812 14.667 5.83737 14.6749C6.54153 14.7097 7.24264 14.9177 7.83015 15.1784C8.41772 15.4391 9.04207 15.8192 9.54014 16.3173C9.79708 16.5742 10.2137 16.5742 10.4706 16.3173C10.9687 15.8192 11.593 15.4391 12.1806 15.1784C12.7681 14.9177 13.4692 14.7097 14.1734 14.6749C14.3326 14.667 14.4843 14.604 14.6053 14.483C14.7309 14.3574 14.7945 14.198 14.7979 14.0316C14.8238 12.7674 15.4245 11.3597 16.318 10.4661C16.575 10.2092 16.575 9.79259 16.318 9.53565C15.8085 9.02611 15.4411 8.3826 15.203 7.79126C14.9648 7.19989 14.7838 6.48153 14.7979 5.76136C14.8013 5.58516 14.7373 5.41493 14.6053 5.28296C14.4684 5.1461 14.2896 5.08186 14.1061 5.09112C12.8283 5.1556 11.3763 4.59769 10.4706 3.69197L11.8848 2.27776ZM3.21324 5.8004C3.22805 6.55872 2.8148 7.58512 2.27849 8.12144C1.2405 9.15942 1.2405 10.8423 2.27849 11.8803C2.8073 12.4091 3.19794 13.325 3.21329 14.0727C3.22688 14.7345 3.48619 15.3922 3.99122 15.8972C4.47663 16.3826 5.10308 16.641 5.73866 16.6724C6.53008 16.7115 7.56563 17.1712 8.12593 17.7315C9.16392 18.7695 10.8468 18.7695 11.8848 17.7315C12.4451 17.1712 13.4807 16.7115 14.2721 16.6724C14.9077 16.641 15.5341 16.3826 16.0195 15.8972C16.5246 15.3922 16.7839 14.7345 16.7975 14.0727C16.8128 13.325 17.2034 12.4091 17.7323 11.8803C18.7702 10.8423 18.7702 9.15942 17.7323 8.12144C17.1959 7.58512 16.7827 6.55872 16.7975 5.80041C16.8111 5.10289 16.5518 4.40102 16.0195 3.86875C15.4662 3.31547 14.7297 3.05711 14.0053 3.09366C13.2915 3.12968 12.3902 2.78311 11.8848 2.27776C10.8468 1.23977 9.16392 1.23977 8.12593 2.27776C7.62058 2.78311 6.71921 3.12968 6.00544 3.09366C5.28102 3.0571 4.5445 3.31547 3.99122 3.86875C3.45894 4.40102 3.19962 5.10288 3.21324 5.8004Z" fill="currentColor"/></g><path fill-rule="evenodd" clip-rule="evenodd" d="M13 24C19.0751 24 24 19.0751 24 13C24 6.92487 19.0751 2 13 2C6.92487 2 2 6.92487 2 13C2 19.0751 6.92487 24 13 24ZM13 26C20.1797 26 26 20.1797 26 13C26 5.8203 20.1797 0 13 0C5.8203 0 0 5.8203 0 13C0 20.1797 5.8203 26 13 26Z" fill="currentColor"/></svg>