<svg width="20" height="20" viewBox="0 0 20 20" fill="none" xmlns="http://www.w3.org/2000/svg"><g><path fill-rule="evenodd" clip-rule="evenodd" d="M10 2.5C5.85786 2.5 2.5 5.85786 2.5 10C2.5 14.1421 5.85786 17.5 10 17.5C14.1421 17.5 17.5 14.1421 17.5 10C17.5 5.85786 14.1421 2.5 10 2.5ZM0.5 10C0.5 4.75329 4.75329 0.5 10 0.5C15.2467 0.5 19.5 4.75329 19.5 10C19.5 15.2467 15.2467 19.5 10 19.5C4.75329 19.5 0.5 15.2467 0.5 10Z" fill="currentColor"/></g><path d="M1.29289 2.70711C0.902369 2.31658 0.902369 1.68342 1.29289 1.29289C1.68342 0.902368 2.31658 0.902368 2.70711 1.29289L18.7071 17.2929C19.0976 17.6834 19.0976 18.3166 18.7071 18.7071C18.3166 19.0976 17.6834 19.0976 17.2929 18.7071L1.29289 2.70711Z" fill="currentColor"/></svg>