<svg width="20" height="20" viewBox="0 0 20 20" fill="none" xmlns="http://www.w3.org/2000/svg"><g><path fill-rule="evenodd" clip-rule="evenodd" d="M0.706955 6.0792C0.588831 5.5397 0.930427 5.00658 1.46993 4.88846L16.1228 1.68021C16.6623 1.56209 17.1954 1.90369 17.3136 2.44319L17.9552 5.37377C18.0733 5.91327 17.7317 6.44639 17.1922 6.56451L2.53935 9.77275C1.99984 9.89088 1.46673 9.54928 1.3486 9.00978L0.706955 6.0792ZM2.87456 6.62829L3.08844 7.60515L15.7876 4.82467L15.5737 3.84782L2.87456 6.62829Z" fill="currentColor"/><path fill-rule="evenodd" clip-rule="evenodd" d="M9.93461 7.69771L7.33924 5.1949L8.72755 3.75525L11.3229 6.25806L9.93461 7.69771Z" fill="currentColor"/><path fill-rule="evenodd" clip-rule="evenodd" d="M6.02719 8.55324L3.43182 6.05043L4.82013 4.61078L7.4155 7.11359L6.02719 8.55324Z" fill="currentColor"/><path fill-rule="evenodd" clip-rule="evenodd" d="M13.8421 6.84218L11.2467 4.33937L12.635 2.89972L15.2304 5.40253L13.8421 6.84218Z" fill="currentColor"/><path fill-rule="evenodd" clip-rule="evenodd" d="M9.83204 12.5547L11.832 9.55471L10.1679 8.44531L8.16794 11.4453L9.83204 12.5547Z" fill="currentColor"/><path fill-rule="evenodd" clip-rule="evenodd" d="M13.832 12.5547L15.832 9.55471L14.1679 8.44531L12.1679 11.4453L13.832 12.5547Z" fill="currentColor"/><path fill-rule="evenodd" clip-rule="evenodd" d="M5.83204 12.5547L7.83204 9.55471L6.16794 8.44531L4.16794 11.4453L5.83204 12.5547Z" fill="currentColor"/><path fill-rule="evenodd" clip-rule="evenodd" d="M1.49998 9C1.49998 8.44772 1.9477 8 2.49998 8L17.5 8C18.0523 8 18.5 8.44772 18.5 9L18.5 18C18.5 18.5523 18.0523 19 17.5 19L2.49998 19C1.9477 19 1.49998 18.5523 1.49998 18L1.49998 9ZM3.49998 10L3.49998 17L16.5 17L16.5 10L3.49998 10Z" fill="currentColor"/><path fill-rule="evenodd" clip-rule="evenodd" d="M18 13L1.99998 13L1.99998 11L18 11L18 13Z" fill="currentColor"/></g></svg>