<svg width="20" height="20" viewBox="0 0 26 26" fill="none" xmlns="http://www.w3.org/2000/svg"><g transform="translate(3, 3)"><path fill-rule="evenodd" clip-rule="evenodd" d="M5.67499 2.5C5.67499 1.94772 6.1227 1.5 6.67499 1.5H13.3178C13.8701 1.5 14.3178 1.94772 14.3178 2.5V6.375C14.3178 6.92728 13.8701 7.375 13.3178 7.375H6.67499C6.1227 7.375 5.67499 6.92728 5.67499 6.375V2.5ZM7.67499 3.5V5.375H12.3178V3.5H7.67499Z" fill="currentColor"/><path d="M5 5V16H15V5H14V3H16C16.5523 3 17 3.44772 17 4V17C17 17.5523 16.5523 18 16 18H4C3.44772 18 3 17.5523 3 17V4C3 3.44772 3.44772 3 4 3H6V5H5Z" fill="currentColor"/></g><path fill-rule="evenodd" clip-rule="evenodd" d="M13 24C19.0751 24 24 19.0751 24 13C24 6.92487 19.0751 2 13 2C6.92487 2 2 6.92487 2 13C2 19.0751 6.92487 24 13 24ZM13 26C20.1797 26 26 20.1797 26 13C26 5.8203 20.1797 0 13 0C5.8203 0 0 5.8203 0 13C0 20.1797 5.8203 26 13 26Z" fill="currentColor"/></svg>