<svg width="20" height="20" viewBox="0 0 26 26" fill="none" xmlns="http://www.w3.org/2000/svg"><g transform="translate(3, 3)"><path fill-rule="evenodd" clip-rule="evenodd" d="M5.67499 2.5C5.67499 1.94772 6.1227 1.5 6.67499 1.5H13.3178C13.8701 1.5 14.3178 1.94772 14.3178 2.5V6.375C14.3178 6.92728 13.8701 7.375 13.3178 7.375H6.67499C6.1227 7.375 5.67499 6.92728 5.67499 6.375V2.5ZM7.67499 3.5V5.375H12.3178V3.5H7.67499Z" fill="currentColor"/><path d="M5 5V16H15V5H14V3H16C16.5523 3 17 3.44772 17 4V17C17 17.5523 16.5523 18 16 18H4C3.44772 18 3 17.5523 3 17V4C3 3.44772 3.44772 3 4 3H6V5H5Z" fill="currentColor"/><path fill-rule="evenodd" clip-rule="evenodd" d="M12.5674 8.67659C13.0221 8.98997 13.1368 9.61267 12.8234 10.0674L11.0564 12.6317C10.5674 13.3413 9.58241 13.494 8.90159 12.9656L7.38687 11.79C6.95057 11.4514 6.87138 10.8232 7.20999 10.3869C7.54861 9.95059 8.1768 9.8714 8.6131 10.21L9.7098 11.0612L11.1765 8.93262C11.4899 8.47785 12.1126 8.36322 12.5674 8.67659Z" fill="currentColor"/><path d="M1.29289 2.70711C0.902369 2.31658 0.902369 1.68342 1.29289 1.29289C1.68342 0.902368 2.31658 0.902368 2.70711 1.29289L18.7071 17.2929C19.0976 17.6834 19.0976 18.3166 18.7071 18.7071C18.3166 19.0976 17.6834 19.0976 17.2929 18.7071L1.29289 2.70711Z" fill="currentColor"/></g><path fill-rule="evenodd" clip-rule="evenodd" d="M13 24C19.0751 24 24 19.0751 24 13C24 6.92487 19.0751 2 13 2C6.92487 2 2 6.92487 2 13C2 19.0751 6.92487 24 13 24ZM13 26C20.1797 26 26 20.1797 26 13C26 5.8203 20.1797 0 13 0C5.8203 0 0 5.8203 0 13C0 20.1797 5.8203 26 13 26Z" fill="currentColor"/></svg>