<svg width="20" height="20" viewBox="0 0 20 20" fill="none" xmlns="http://www.w3.org/2000/svg"><rect x="6.67499" y="2.5" width="6.64286" height="3.875" stroke="currentColor" stroke-width="2" stroke-linejoin="round"/><path d="M16.0857 18H3.90713C3.29567 18 2.79999 17.5043 2.79999 16.8929V3.60714C2.79999 2.99568 3.29567 2.5 3.90713 2.5H7.22856V4.71429H5.01427V15.7857H14.9786V4.71429H12.7643V2.5H16.0857C16.6972 2.5 17.1928 2.99568 17.1928 3.60714V16.8929C17.1928 17.5043 16.6972 18 16.0857 18Z" fill="currentColor"/><path fill-rule="evenodd" clip-rule="evenodd" d="M5.67499 2.5C5.67499 1.94772 6.1227 1.5 6.67499 1.5H13.3178C13.8701 1.5 14.3178 1.94772 14.3178 2.5V6.375C14.3178 6.92728 13.8701 7.375 13.3178 7.375H6.67499C6.1227 7.375 5.67499 6.92728 5.67499 6.375V2.5ZM7.67499 3.5V5.375H12.3178V3.5H7.67499Z" fill="currentColor"/><path d="M16.0857 18H3.90713C3.29567 18 2.79999 17.5043 2.79999 16.8929V3.60714C2.79999 2.99568 3.29567 2.5 3.90713 2.5H7.22856V4.71429H5.01427V15.7857H14.9786V4.71429H12.7643V2.5H16.0857C16.6972 2.5 17.1928 2.99568 17.1928 3.60714V16.8929C17.1928 17.5043 16.6972 18 16.0857 18Z" fill="currentColor"/></svg>