<svg width="20" height="20" viewBox="0 0 20 20" fill="none" xmlns="http://www.w3.org/2000/svg">
<path d="M10.4608 12.7593C10.0415 13.1187 9.41017 13.0701 9.05074 12.6508C8.69132 12.2315 8.73988 11.6002 9.15921 11.2408L12.6592 8.24076C13.0785 7.88134 13.7098 7.9299 14.0693 8.34923C14.4287 8.76855 14.3801 9.39985 13.9608 9.75927L10.4608 12.7593Z" fill="currentColor"/>
<path d="M8.81 6C8.81 5.44772 9.25772 5 9.81 5C10.3623 5 10.81 5.44772 10.81 6V12C10.81 12.5523 10.3623 13 9.81 13C9.25772 13 8.81 12.5523 8.81 12V6Z" fill="currentColor"/>
<path fill-rule="evenodd" clip-rule="evenodd" d="M2 10C2 14.4183 5.58172 18 10 18C14.4183 18 18 14.4183 18 10C18 5.58172 14.4183 2 10 2C5.58172 2 2 5.58172 2 10ZM16 10C16 13.3137 13.3137 16 10 16C6.68629 16 4 13.3137 4 10C4 6.68629 6.68629 4 10 4C13.3137 4 16 6.68629 16 10Z" fill="currentColor"/>
</svg>
