<svg width="20" height="20" viewBox="0 0 26 26" fill="none" xmlns="http://www.w3.org/2000/svg"><g transform="translate(3, 3)"><path fill-rule="evenodd" clip-rule="evenodd" d="M11 3H10C8.13616 3 6.57006 4.27477 6.12602 6H6C3.79086 6 2 7.79086 2 10C2 12.2091 3.79086 14 6 14H14C16.2091 14 18 12.2091 18 10C18 8.09985 16.6751 6.50915 14.8987 6.10135C14.4909 4.32493 12.9002 3 11 3ZM7.67644 8L8.06289 6.49852C8.28793 5.62419 9.08228 5 10 5H11C11.9367 5 12.7431 5.65018 12.9494 6.54883L13.2297 7.77025L14.4512 8.05064C15.3498 8.25694 16 9.06327 16 10C16 11.1046 15.1046 12 14 12H6C4.89543 12 4 11.1046 4 10C4 8.89543 4.89543 8 6 8H7.67644Z" fill="currentColor"/><path d="M9.5 10C9.5 9.44771 9.94772 9 10.5 9C11.0523 9 11.5 9.44771 11.5 10L11.5 17.5C11.5 18.0523 11.0523 18.5 10.5 18.5C9.94772 18.5 9.5 18.0523 9.5 17.5V10Z" fill="currentColor"/><path d="M12.3753 14.7191C12.8065 14.3741 13.4358 14.444 13.7808 14.8753C14.1258 15.3065 14.0559 15.9358 13.6247 16.2808L11.1247 18.2808C10.6934 18.6258 10.0641 18.5559 9.71909 18.1247C9.37408 17.6934 9.44401 17.0641 9.87527 16.7191L12.3753 14.7191Z" fill="currentColor"/><path d="M7.37527 16.2808C6.94401 15.9358 6.87408 15.3065 7.21909 14.8753C7.5641 14.444 8.1934 14.3741 8.62466 14.7191L11.1247 16.7191C11.5559 17.0641 11.6258 17.6934 11.2808 18.1247C10.9358 18.5559 10.3065 18.6258 9.87527 18.2808L7.37527 16.2808Z" fill="currentColor"/></g><path fill-rule="evenodd" clip-rule="evenodd" d="M13 24C19.0751 24 24 19.0751 24 13C24 6.92487 19.0751 2 13 2C6.92487 2 2 6.92487 2 13C2 19.0751 6.92487 24 13 24ZM13 26C20.1797 26 26 20.1797 26 13C26 5.8203 20.1797 0 13 0C5.8203 0 0 5.8203 0 13C0 20.1797 5.8203 26 13 26Z" fill="currentColor"/></svg>