<svg width="20" height="20" viewBox="0 0 26 26" fill="none" xmlns="http://www.w3.org/2000/svg"><defs><mask id="mask-pop-cloud-up-circle-filled"><rect width="26" height="26" fill="white"/><g transform="translate(3, 3)"><path fill-rule="evenodd" clip-rule="evenodd" d="M11 3H10C8.13616 3 6.57006 4.27477 6.12602 6H6C3.79086 6 2 7.79086 2 10C2 12.2091 3.79086 14 6 14H14C16.2091 14 18 12.2091 18 10C18 8.09985 16.6751 6.50915 14.8987 6.10135C14.4909 4.32493 12.9002 3 11 3ZM7.67644 8L8.06289 6.49852C8.28793 5.62419 9.08228 5 10 5H11C11.9367 5 12.7431 5.65018 12.9494 6.54883L13.2297 7.77025L14.4512 8.05064C15.3498 8.25694 16 9.06327 16 10C16 11.1046 15.1046 12 14 12H6C4.89543 12 4 11.1046 4 10C4 8.89543 4.89543 8 6 8H7.67644Z" fill="black"/><path d="M11.5 16C11.5 16.5523 11.0523 17 10.5 17C9.94772 17 9.5 16.5523 9.5 16V8.5C9.5 7.94772 9.94772 7.5 10.5 7.5C11.0523 7.5 11.5 7.94772 11.5 8.5V16Z" fill="black"/><path d="M8.62473 11.2809C8.19347 11.6259 7.56418 11.556 7.21917 11.1247C6.87416 10.6935 6.94408 10.0642 7.37534 9.71917L9.87534 7.71917C10.3066 7.37416 10.9359 7.44408 11.2809 7.87534C11.6259 8.3066 11.556 8.9359 11.1247 9.28091L8.62473 11.2809Z" fill="black"/><path d="M13.6247 9.71917C14.056 10.0642 14.1259 10.6935 13.7809 11.1247C13.4359 11.556 12.8066 11.6259 12.3753 11.2809L9.87534 9.28091C9.44408 8.9359 9.37416 8.3066 9.71917 7.87534C10.0642 7.44408 10.6935 7.37416 11.1247 7.71917L13.6247 9.71917Z" fill="black"/></g></mask></defs><circle r="13" cx="13" cy="13" mask="url(#mask-pop-cloud-up-circle-filled)" fill="currentColor"/></svg>