<svg width="20" height="20" viewBox="0 0 20 20" fill="none" xmlns="http://www.w3.org/2000/svg"><g><path d="M6 8C5.72386 8 5.5 7.77614 5.5 7.5C5.5 7.22386 5.72386 7 6 7H14C14.2761 7 14.5 7.22386 14.5 7.5C14.5 7.77614 14.2761 8 14 8H6Z" fill="currentColor"/><path fill-rule="evenodd" clip-rule="evenodd" d="M2.7672 5.68045L9.2672 12.6805C9.66284 13.1065 10.3372 13.1065 10.7328 12.6805L17.2328 5.68045C17.8269 5.0406 17.3732 4 16.5 4L3.5 4C2.62683 4 2.17306 5.0406 2.7672 5.68045ZM14.2068 6L10 10.5304L5.79321 6L14.2068 6Z" fill="currentColor"/><path d="M11 11.5V18.5H9V11.5H11Z" fill="currentColor"/><path d="M14.5 20H5.5C5.5 18.5251 7.55015 17.5 10 17.5C12.4499 17.5 14.5 18.5251 14.5 20Z" fill="currentColor"/><path d="M12.8181 1.7276C12.4163 1.62714 12.1719 1.21994 12.2724 0.818093C12.3729 0.416246 12.7801 0.171926 13.1819 0.272387L17.1819 1.27239C17.5837 1.37285 17.8281 1.78005 17.7276 2.1819C17.6271 2.58374 17.2199 2.82806 16.8181 2.7276L12.8181 1.7276Z" fill="currentColor"/><path d="M11.2115 8.73717C11.0805 9.13013 10.6558 9.3425 10.2628 9.21151C9.86987 9.08052 9.6575 8.65578 9.78849 8.26283L12.2885 0.762827C12.4195 0.369869 12.8442 0.157499 13.2372 0.288485C13.6301 0.419471 13.8425 0.844211 13.7115 1.23717L11.2115 8.73717Z" fill="currentColor"/></g></svg>