<svg width="20" height="20" viewBox="0 0 20 20" fill="none" xmlns="http://www.w3.org/2000/svg"><path fill-rule="evenodd" clip-rule="evenodd" d="M16.0145 10.5781C15.1652 10.2349 13.9231 10 12.5 10V8C14.1145 8 15.6224 8.26256 16.7637 8.72369C17.3317 8.9532 17.8581 9.2516 18.2585 9.63414C18.6615 10.0191 19 10.5556 19 11.2222C19 11.8888 18.6615 12.4254 18.2585 12.8103C17.8581 13.1928 17.3317 13.4912 16.7637 13.7207C15.6224 14.1819 14.1145 14.4444 12.5 14.4444C10.8855 14.4444 9.37759 14.1819 8.23629 13.7207C7.66828 13.4912 7.14192 13.1928 6.74147 12.8103C6.33852 12.4254 6 11.8888 6 11.2222H8C8 11.2154 7.99949 11.2102 7.99892 11.2067C8.00463 11.2229 8.03022 11.2755 8.12296 11.3641C8.27915 11.5133 8.55825 11.6938 8.98553 11.8664C9.83484 12.2095 11.0769 12.4444 12.5 12.4444C13.9231 12.4444 15.1652 12.2095 16.0145 11.8664C16.4418 11.6938 16.7209 11.5133 16.877 11.3641C16.9498 11.2946 16.9812 11.2472 16.9942 11.2222C16.9812 11.1972 16.9498 11.1499 16.877 11.0803C16.7209 10.9311 16.4418 10.7507 16.0145 10.5781ZM17.0025 11.2431C17.0023 11.2431 17.0017 11.2413 17.0011 11.2377C17.0023 11.2413 17.0026 11.2431 17.0025 11.2431ZM17.0011 11.2067C17.0017 11.2031 17.0023 11.2014 17.0025 11.2014C17.0026 11.2014 17.0023 11.2032 17.0011 11.2067ZM7.99754 11.2014C7.99771 11.2014 7.99834 11.2031 7.99892 11.2067C7.99766 11.2032 7.99737 11.2014 7.99754 11.2014Z" fill="currentColor"/><path fill-rule="evenodd" clip-rule="evenodd" d="M7 10.6667C7.55228 10.6667 8 11.1145 8 11.6667V14.7652C8.00752 14.7842 8.03512 14.8358 8.12296 14.9198C8.27915 15.0689 8.55825 15.2494 8.98553 15.422C9.83484 15.7652 11.0769 16.0001 12.5 16.0001C13.9231 16.0001 15.1652 15.7652 16.0145 15.422C16.4418 15.2494 16.7209 15.0689 16.877 14.9198C16.9649 14.8358 16.9925 14.7842 17 14.7652V11.6667C17 11.1145 17.4477 10.6667 18 10.6667C18.5523 10.6667 19 11.1145 19 11.6667V14.7779C19 15.4445 18.6615 15.981 18.2585 16.3659C17.8581 16.7485 17.3317 17.0469 16.7637 17.2764C15.6224 17.7375 14.1145 18.0001 12.5 18.0001C10.8855 18.0001 9.37759 17.7375 8.23629 17.2764C7.66828 17.0469 7.14192 16.7485 6.74147 16.3659C6.33852 15.981 6 15.4445 6 14.7779V11.6667C6 11.1145 6.44772 10.6667 7 10.6667ZM17.0025 14.757C17.0026 14.757 17.0023 14.7588 17.0011 14.7624C17.0017 14.7588 17.0023 14.757 17.0025 14.757ZM7.99754 14.757C7.99771 14.757 7.99834 14.7588 7.99892 14.7624C7.99766 14.7588 7.99737 14.757 7.99754 14.757Z" fill="currentColor"/><path fill-rule="evenodd" clip-rule="evenodd" d="M9.2 16V14H11.2V16H9.2Z" fill="currentColor"/><path fill-rule="evenodd" clip-rule="evenodd" d="M13.6 16V14H15.6V16H13.6Z" fill="currentColor"/><path fill-rule="evenodd" clip-rule="evenodd" d="M2.99754 5.24308C2.99737 5.24308 2.99766 5.24129 2.99892 5.23771C2.99834 5.2413 2.99771 5.24309 2.99754 5.24308ZM3.00584 5.22222C3.01875 5.19724 3.05017 5.14986 3.12296 5.08033C3.27915 4.93114 3.55825 4.75069 3.98553 4.57805C4.83484 4.2349 6.07693 4 7.5 4C8.92307 4 10.1652 4.2349 11.0145 4.57805C11.4418 4.75069 11.7209 4.93114 11.877 5.08033C11.9498 5.14986 11.9812 5.19724 11.9942 5.22222C11.9812 5.2472 11.9498 5.29458 11.877 5.36411C11.7209 5.51331 11.4418 5.69375 11.0145 5.86639C10.1652 6.20955 8.92307 6.44444 7.5 6.44444C6.07693 6.44444 4.83484 6.20955 3.98553 5.86639C3.55825 5.69375 3.27915 5.51331 3.12296 5.36411C3.05017 5.29458 3.01875 5.2472 3.00584 5.22222ZM12.0025 5.24308C12.0023 5.24308 12.0017 5.2413 12.0011 5.23771C12.0023 5.24129 12.0026 5.24308 12.0025 5.24308ZM12.0011 5.20673C12.0017 5.20315 12.0023 5.20136 12.0025 5.20136C12.0026 5.20136 12.0023 5.20315 12.0011 5.20673ZM2.99892 5.20673C2.99766 5.20316 2.99737 5.20136 2.99754 5.20136C2.99771 5.20136 2.99834 5.20315 2.99892 5.20673ZM3.23629 2.72369C4.37759 2.26256 5.88551 2 7.5 2C9.11449 2 10.6224 2.26256 11.7637 2.72369C12.3317 2.9532 12.8581 3.2516 13.2585 3.63414C13.6615 4.01906 14 4.55562 14 5.22222C14 5.88882 13.6615 6.42539 13.2585 6.81031C12.8581 7.19284 12.3317 7.49125 11.7637 7.72075C10.6224 8.18188 9.11449 8.44444 7.5 8.44444C5.88551 8.44444 4.37759 8.18188 3.23629 7.72075C2.66828 7.49125 2.14192 7.19284 1.74147 6.81031C1.33852 6.42539 1 5.88882 1 5.22222C1 4.55562 1.33852 4.01906 1.74147 3.63414C2.14192 3.2516 2.66828 2.9532 3.23629 2.72369Z" fill="currentColor"/><path fill-rule="evenodd" clip-rule="evenodd" d="M2 4.66675C2.55228 4.66675 3 5.11446 3 5.66675V8.76523C3.00752 8.78419 3.03512 8.83583 3.12296 8.91975C3.27915 9.06895 3.55825 9.24939 3.98553 9.42203C4.83484 9.76518 6.07693 10.0001 7.5 10.0001C8.92307 10.0001 10.1652 9.76518 11.0145 9.42203C11.4418 9.24939 11.7209 9.06895 11.877 8.91975C11.9649 8.83584 11.9925 8.78419 12 8.76523V5.66675C12 5.11446 12.4477 4.66675 13 4.66675C13.5523 4.66675 14 5.11446 14 5.66675V8.77786C14 9.44446 13.6615 9.98103 13.2585 10.3659C12.8581 10.7485 12.3317 11.0469 11.7637 11.2764C10.6224 11.7375 9.11449 12.0001 7.5 12.0001C5.88551 12.0001 4.37759 11.7375 3.23629 11.2764C2.66828 11.0469 2.14192 10.7485 1.74147 10.3659C1.33852 9.98103 1 9.44446 1 8.77786V5.66675C1 5.11446 1.44772 4.66675 2 4.66675ZM12.0025 8.757C12.0026 8.757 12.0023 8.75879 12.0011 8.76237C12.0017 8.75878 12.0023 8.75699 12.0025 8.757ZM2.99754 8.757C2.99771 8.757 2.99834 8.75879 2.99892 8.76237C2.99766 8.75879 2.99737 8.757 2.99754 8.757Z" fill="currentColor"/><path fill-rule="evenodd" clip-rule="evenodd" d="M4.2 10V8H6.2V10H4.2Z" fill="currentColor"/><path fill-rule="evenodd" clip-rule="evenodd" d="M8.60001 10V8H10.6V10H8.60001Z" fill="currentColor"/><path d="M1.29289 2.70711C0.902369 2.31658 0.902369 1.68342 1.29289 1.29289C1.68342 0.902368 2.31658 0.902368 2.70711 1.29289L18.7071 17.2929C19.0976 17.6834 19.0976 18.3166 18.7071 18.7071C18.3166 19.0976 17.6834 19.0976 17.2929 18.7071L1.29289 2.70711Z" fill="currentColor"/></svg>