<svg width="20" height="20" viewBox="0 0 20 20" fill="none" xmlns="http://www.w3.org/2000/svg"><g><path fill-rule="evenodd" clip-rule="evenodd" d="M7.53559 15.2365C5.97633 15.853 3.27902 17.6075 2.80761 17.1361C2.50214 16.8306 3.13133 15.5905 3.77986 14.331L8.44112 14.331C8.23989 14.5322 7.93805 14.8341 7.53559 15.2365Z" fill="currentColor"/><path d="M15.8033 5.55458C16.1938 5.16405 16.827 5.16405 17.2175 5.55458C17.608 5.9451 17.608 6.57827 17.2175 6.96879L8.2427 15.9436C8.14598 16.0403 8.03045 16.1162 7.90325 16.1665C7.50693 16.3231 7.10374 16.5206 6.15047 17.0117C5.67929 17.2544 5.47122 17.3604 5.21668 17.4858C3.46857 18.3471 2.81156 18.5542 2.10051 17.8432C1.39079 17.1334 1.59727 16.4757 2.45235 14.7382C2.57904 14.4807 2.68634 14.2702 2.93201 13.7932C3.42303 12.8399 3.62052 12.4367 3.7772 12.0404C3.82749 11.9132 3.90334 11.7977 4.00006 11.701L12.9749 2.72615C13.3654 2.33563 13.9986 2.33563 14.3891 2.72615C14.7796 3.11667 14.7796 3.74984 14.3891 4.14036L5.55695 12.9725C5.38269 13.3873 5.16356 13.8285 4.71001 14.709C4.47005 15.1749 4.36624 15.3786 4.24682 15.6213C4.22194 15.6718 4.19798 15.721 4.17491 15.7688C4.22595 15.7441 4.27855 15.7184 4.33275 15.6917C4.57289 15.5734 4.77428 15.4708 5.23465 15.2337C6.11519 14.7801 6.55634 14.561 6.97116 14.3867L15.8033 5.55458Z" fill="currentColor"/><path d="M14.3891 4.14039C13.9986 4.53092 13.3654 4.53092 12.9749 4.14039C12.5843 3.74987 12.5843 3.1167 12.9749 2.72618C14.1464 1.55461 16.0459 1.55461 17.2175 2.72618C18.3891 3.89775 18.3891 5.79725 17.2175 6.96882C16.827 7.35934 16.1938 7.35934 15.8033 6.96882C15.4128 6.5783 15.4128 5.94513 15.8033 5.55461C16.1938 5.16408 16.1938 4.53092 15.8033 4.14039C15.4128 3.74987 14.7796 3.74987 14.3891 4.14039Z" fill="currentColor"/><path d="M9.43729 4.84541C9.04677 4.45489 9.04677 3.82172 9.43729 3.4312C9.82782 3.04067 10.461 3.04067 10.8515 3.4312L16.5084 9.08805C16.8989 9.47858 16.8989 10.1117 16.5084 10.5023C16.1178 10.8928 15.4847 10.8928 15.0941 10.5023L9.43729 4.84541Z" fill="currentColor"/></g><path d="M1.29289 2.70711C0.902369 2.31658 0.902369 1.68342 1.29289 1.29289C1.68342 0.902368 2.31658 0.902368 2.70711 1.29289L18.7071 17.2929C19.0976 17.6834 19.0976 18.3166 18.7071 18.7071C18.3166 19.0976 17.6834 19.0976 17.2929 18.7071L1.29289 2.70711Z" fill="currentColor"/></svg>