<svg width="20" height="20" viewBox="0 0 20 20" fill="none" xmlns="http://www.w3.org/2000/svg"><path d="M12.25 10C11.5596 10 11 9.44036 11 8.75C11 8.05964 11.5596 7.5 12.25 7.5C12.9404 7.5 13.5 8.05964 13.5 8.75C13.5 9.44036 12.9404 10 12.25 10Z" fill="currentColor"/><path d="M14.25 12.5C13.5596 12.5 13 11.9404 13 11.25C13 10.5596 13.5596 10 14.25 10C14.9404 10 15.5 10.5596 15.5 11.25C15.5 11.9404 14.9404 12.5 14.25 12.5Z" fill="currentColor"/><path fill-rule="evenodd" clip-rule="evenodd" d="M14.5 4H5.5C2.73858 4 0.5 6.23858 0.5 9V11C0.5 13.7614 2.73858 16 5.5 16H14.5C17.2614 16 19.5 13.7614 19.5 11V9C19.5 6.23858 17.2614 4 14.5 4ZM2.5 9C2.5 7.34315 3.84315 6 5.5 6H14.5C16.1569 6 17.5 7.34315 17.5 9V11C17.5 12.6569 16.1569 14 14.5 14H5.5C3.84315 14 2.5 12.6569 2.5 11V9Z" fill="currentColor"/><path d="M4 11C3.44772 11 3 10.5523 3 10C3 9.44772 3.44772 9 4 9H8C8.55228 9 9 9.44772 9 10C9 10.5523 8.55228 11 8 11H4Z" fill="currentColor"/><path d="M7 12C7 12.5523 6.55228 13 6 13C5.44772 13 5 12.5523 5 12V8C5 7.44772 5.44772 7 6 7C6.55228 7 7 7.44772 7 8V12Z" fill="currentColor"/></svg>