<svg width="20" height="20" viewBox="0 0 26 26" fill="none" xmlns="http://www.w3.org/2000/svg"><defs><mask id="mask-pop-contract-circle-filled"><rect width="26" height="26" fill="white"/><g transform="translate(3, 3)"><path d="M11.7071 9.70711C11.3166 10.0976 10.6834 10.0976 10.2929 9.70711C9.90237 9.31658 9.90237 8.68342 10.2929 8.29289L14.2929 4.29289C14.6834 3.90237 15.3166 3.90237 15.7071 4.29289C16.0976 4.68342 16.0976 5.31658 15.7071 5.70711L11.7071 9.70711Z" fill="black"/><path d="M11 10C10.4477 10 10 9.55228 10 9C10 8.44772 10.4477 8 11 8H15C15.5523 8 16 8.44772 16 9C16 9.55228 15.5523 10 15 10H11Z" fill="black"/><path d="M12 9C12 9.55228 11.5523 10 11 10C10.4477 10 10 9.55228 10 9V5C10 4.44772 10.4477 4 11 4C11.5523 4 12 4.44772 12 5V9Z" fill="black"/><path d="M5.70711 15.7071C5.31658 16.0976 4.68342 16.0976 4.29289 15.7071C3.90237 15.3166 3.90237 14.6834 4.29289 14.2929L8.29289 10.2929C8.68342 9.90237 9.31658 9.90237 9.70711 10.2929C10.0976 10.6834 10.0976 11.3166 9.70711 11.7071L5.70711 15.7071Z" fill="black"/><path d="M10 15C10 15.5523 9.55228 16 9 16C8.44772 16 8 15.5523 8 15V11C8 10.4477 8.44772 10 9 10C9.55228 10 10 10.4477 10 11V15Z" fill="black"/><path d="M5 12C4.44772 12 4 11.5523 4 11C4 10.4477 4.44772 10 5 10H9C9.55228 10 10 10.4477 10 11C10 11.5523 9.55228 12 9 12H5Z" fill="black"/></g></mask></defs><circle r="13" cx="13" cy="13" mask="url(#mask-pop-contract-circle-filled)" fill="currentColor"/></svg>