<svg width="20" height="20" viewBox="0 0 20 20" fill="none" xmlns="http://www.w3.org/2000/svg"><path fill-rule="evenodd" clip-rule="evenodd" d="M16 3.5H4C2.34315 3.5 1 4.84315 1 6.5V13.5C1 15.1569 2.34315 16.5 4 16.5H16C17.6569 16.5 19 15.1569 19 13.5V6.5C19 4.84315 17.6569 3.5 16 3.5ZM3 6.5C3 5.94772 3.44772 5.5 4 5.5H16C16.5523 5.5 17 5.94772 17 6.5V13.5C17 14.0523 16.5523 14.5 16 14.5H4C3.44772 14.5 3 14.0523 3 13.5V6.5Z" fill="currentColor"/><path d="M2.5 6.5H17.5C17.7761 6.5 18 6.72386 18 7V8C18 8.27614 17.7761 8.5 17.5 8.5H2.5C2.22386 8.5 2 8.27614 2 8V7C2 6.72386 2.22386 6.5 2.5 6.5Z" fill="currentColor"/><path fill-rule="evenodd" clip-rule="evenodd" d="M6 9.5H5C4.44772 9.5 4 9.94772 4 10.5V11.5C4 12.0523 4.44772 12.5 5 12.5H6C6.55228 12.5 7 12.0523 7 11.5V10.5C7 9.94772 6.55228 9.5 6 9.5ZM5 11.5V10.5H6V11.5H5Z" fill="currentColor"/></svg>