<svg width="20" height="20" viewBox="0 0 20 20" fill="none" xmlns="http://www.w3.org/2000/svg"><path fill-rule="evenodd" clip-rule="evenodd" d="M15.2666 9.92826L14.8997 10.1618C13.5228 11.0379 11.6981 10.6528 10.7929 9.29487L10 8.10556L9.20712 9.29487C8.30186 10.6528 6.47719 11.0379 5.10034 10.1618L4.73342 9.92826L5.54178 13H14.4582L15.2666 9.92826ZM3.65358 6.87047C2.88614 6.38209 1.91813 7.08891 2.14963 7.96862L3.80381 14.2545C3.91942 14.6938 4.31662 15 4.77089 15H15.2291C15.6834 15 16.0806 14.6938 16.1962 14.2545L17.8504 7.96862C18.0819 7.08891 17.1139 6.38209 16.3464 6.87047L13.8259 8.47443C13.367 8.76649 12.7587 8.6381 12.457 8.18547L10.832 5.74808C10.4362 5.15435 9.56377 5.15435 9.16795 5.74808L7.54302 8.18547C7.24127 8.6381 6.63304 8.76649 6.1741 8.47443L3.65358 6.87047Z" fill="currentColor"/><path d="M11 3.5C11 4.05228 10.5523 4.5 10 4.5C9.44772 4.5 9 4.05228 9 3.5C9 2.94772 9.44772 2.5 10 2.5C10.5523 2.5 11 2.94772 11 3.5Z" fill="currentColor"/><path d="M19 5.5C19 6.05228 18.5523 6.5 18 6.5C17.4477 6.5 17 6.05228 17 5.5C17 4.94772 17.4477 4.5 18 4.5C18.5523 4.5 19 4.94772 19 5.5Z" fill="currentColor"/><path d="M3 5.5C3 6.05228 2.55228 6.5 2 6.5C1.44772 6.5 1 6.05228 1 5.5C1 4.94772 1.44772 4.5 2 4.5C2.55228 4.5 3 4.94772 3 5.5Z" fill="currentColor"/><path fill-rule="evenodd" clip-rule="evenodd" d="M4.5 16.25C4.5 15.6977 4.94772 15.25 5.5 15.25H14.7513C15.3036 15.25 15.7513 15.6977 15.7513 16.25C15.7513 16.8023 15.3036 17.25 14.7513 17.25H5.5C4.94772 17.25 4.5 16.8023 4.5 16.25Z" fill="currentColor"/><path d="M1.29289 2.70711C0.902369 2.31658 0.902369 1.68342 1.29289 1.29289C1.68342 0.902368 2.31658 0.902368 2.70711 1.29289L18.7071 17.2929C19.0976 17.6834 19.0976 18.3166 18.7071 18.7071C18.3166 19.0976 17.6834 19.0976 17.2929 18.7071L1.29289 2.70711Z" fill="currentColor"/></svg>