<svg width="20" height="20" viewBox="0 0 20 20" fill="none" xmlns="http://www.w3.org/2000/svg"><path fill-rule="evenodd" clip-rule="evenodd" d="M15.5 4H3.5C2.94772 4 2.5 4.44772 2.5 5C2.5 9.91828 5.56129 14 9.5 14C13.4387 14 16.5 9.91828 16.5 5C16.5 4.44772 16.0523 4 15.5 4ZM9.5 12C7.04469 12 4.90411 9.43007 4.55098 6H14.449C14.0959 9.43007 11.9553 12 9.5 12Z" fill="currentColor"/><path d="M4 14.5H15C15.5523 14.5 16 14.9477 16 15.5C16 16.0523 15.5523 16.5 15 16.5H4C3.44772 16.5 3 16.0523 3 15.5C3 14.9477 3.44772 14.5 4 14.5Z" fill="currentColor"/><path d="M14.0244 10.8095L14.5756 8.88698C14.8334 8.96088 15.115 9 15.4073 9C16.5144 9 17.3 8.45687 17.3 8C17.3 7.54313 16.5144 7 15.4073 7V5C17.4953 5 19.3 6.24773 19.3 8C19.3 9.75227 17.4953 11 15.4073 11C14.9297 11 14.4625 10.9351 14.0244 10.8095Z" fill="currentColor"/><path d="M1.29289 2.70711C0.902369 2.31658 0.902369 1.68342 1.29289 1.29289C1.68342 0.902368 2.31658 0.902368 2.70711 1.29289L18.7071 17.2929C19.0976 17.6834 19.0976 18.3166 18.7071 18.7071C18.3166 19.0976 17.6834 19.0976 17.2929 18.7071L1.29289 2.70711Z" fill="currentColor"/></svg>