<svg width="20" height="20" viewBox="0 0 26 26" fill="none" xmlns="http://www.w3.org/2000/svg"><g transform="translate(3, 3)"><path fill-rule="evenodd" clip-rule="evenodd" d="M15.5 4H3.5C2.94772 4 2.5 4.44772 2.5 5C2.5 9.91828 5.56129 14 9.5 14C13.4387 14 16.5 9.91828 16.5 5C16.5 4.44772 16.0523 4 15.5 4ZM9.5 12C7.04469 12 4.90411 9.43007 4.55098 6H14.449C14.0959 9.43007 11.9553 12 9.5 12Z" fill="currentColor"/><path d="M4 14.5H15C15.5523 14.5 16 14.9477 16 15.5C16 16.0523 15.5523 16.5 15 16.5H4C3.44772 16.5 3 16.0523 3 15.5C3 14.9477 3.44772 14.5 4 14.5Z" fill="currentColor"/><path d="M14.0244 10.8095L14.5756 8.88698C14.8334 8.96088 15.115 9 15.4073 9C16.5144 9 17.3 8.45687 17.3 8C17.3 7.54313 16.5144 7 15.4073 7V5C17.4953 5 19.3 6.24773 19.3 8C19.3 9.75227 17.4953 11 15.4073 11C14.9297 11 14.4625 10.9351 14.0244 10.8095Z" fill="currentColor"/></g><path fill-rule="evenodd" clip-rule="evenodd" d="M13 24C19.0751 24 24 19.0751 24 13C24 6.92487 19.0751 2 13 2C6.92487 2 2 6.92487 2 13C2 19.0751 6.92487 24 13 24ZM13 26C20.1797 26 26 20.1797 26 13C26 5.8203 20.1797 0 13 0C5.8203 0 0 5.8203 0 13C0 20.1797 5.8203 26 13 26Z" fill="currentColor"/></svg>