<svg width="20" height="20" viewBox="0 0 20 20" fill="none" xmlns="http://www.w3.org/2000/svg">
<path d="M7.79998 6.35002C8.35998 6.35002 8.80998 5.90002 8.80998 5.34002C8.80998 4.78002 8.35998 4.33002 7.79998 4.33002C7.23998 4.33002 6.78998 4.78002 6.78998 5.34002C6.78998 5.90002 7.23998 6.35002 7.79998 6.35002Z" fill="currentColor"/>
<path fill-rule="evenodd" clip-rule="evenodd" d="M9.83002 8.55C9.83002 7.47 8.92002 6.69 7.80002 6.69C6.68002 6.69 5.77002 7.47 5.77002 8.55V9.06C5.77002 9.15 5.81002 9.24 5.87002 9.3C5.93002 9.36 6.02002 9.4 6.11002 9.4H9.49002C9.58002 9.4 9.67002 9.36 9.73002 9.3C9.79002 9.24 9.83002 9.15 9.83002 9.06V8.55Z" fill="currentColor"/>
<path fill-rule="evenodd" clip-rule="evenodd" d="M5.75 11.5C5.75 11.0858 6.08579 10.75 6.5 10.75H13.5C13.9142 10.75 14.25 11.0858 14.25 11.5C14.25 11.9142 13.9142 12.25 13.5 12.25H6.5C6.08579 12.25 5.75 11.9142 5.75 11.5Z" fill="currentColor"/>
<path fill-rule="evenodd" clip-rule="evenodd" d="M5.75 14.5C5.75 14.0858 6.08579 13.75 6.5 13.75H13.5C13.9142 13.75 14.25 14.0858 14.25 14.5C14.25 14.9142 13.9142 15.25 13.5 15.25H6.5C6.08579 15.25 5.75 14.9142 5.75 14.5Z" fill="currentColor"/>
<path fill-rule="evenodd" clip-rule="evenodd" d="M2.5 2.5C2.5 1.39772 3.39772 0.5 4.5 0.5H11.19C11.7518 0.5 12.2816 0.738166 12.655 1.13125L12.6611 1.13764L16.973 5.83972C17.332 6.22336 17.5 6.72441 17.5 7.2V17.5C17.5 18.6023 16.6023 19.5 15.5 19.5H4.5C3.39772 19.5 2.5 18.6023 2.5 17.5V2.5ZM11.189 2.5H4.5V17.5H15.5V7.2C15.5 7.19748 15.4998 7.19465 15.4993 7.19185L11.2036 2.50742C11.203 2.5069 11.2022 2.50628 11.2012 2.5056C11.1991 2.50415 11.1968 2.50283 11.1944 2.50178C11.1915 2.50054 11.1896 2.50012 11.189 2.5Z" fill="currentColor"/>
<path fill-rule="evenodd" clip-rule="evenodd" d="M11.19 0.5C11.7423 0.5 12.19 0.947715 12.19 1.5V6.2H16.5C17.0523 6.2 17.5 6.64772 17.5 7.2C17.5 7.75228 17.0523 8.2 16.5 8.2H11.19C10.6377 8.2 10.19 7.75228 10.19 7.2V1.5C10.19 0.947715 10.6377 0.5 11.19 0.5Z" fill="currentColor"/>
</svg>
