<svg width="20" height="20" viewBox="0 0 26 26" fill="none" xmlns="http://www.w3.org/2000/svg"><defs><mask id="mask-pop-database-circle-filled"><rect width="26" height="26" fill="white"/><g transform="translate(3, 3)"><path fill-rule="evenodd" clip-rule="evenodd" d="M4.20364 3.97951C4.44332 4.11901 4.81295 4.27291 5.32237 4.41696C6.47794 4.74374 8.13206 4.95901 10 4.95901C11.8679 4.95901 13.5221 4.74374 14.6776 4.41696C15.1871 4.27291 15.5567 4.11901 15.7964 3.9795C15.5567 3.84 15.1871 3.68611 14.6776 3.54205C13.5221 3.21527 11.8679 3 10 3C8.13206 3 6.47794 3.21527 5.32237 3.54205C4.81295 3.68611 4.44332 3.84 4.20364 3.97951ZM16 6.08517C15.7534 6.17994 15.4921 6.26506 15.2219 6.34149C13.8439 6.73115 11.9981 6.95901 10 6.95901C8.00194 6.95901 6.15607 6.73115 4.77814 6.34149C4.50787 6.26506 4.24662 6.17994 4 6.08517V16H2V3.97951C2 3.19384 2.5541 2.67198 2.99429 2.37768C3.47146 2.05865 4.09606 1.8104 4.77814 1.61752C6.15607 1.22786 8.00194 1 10 1C11.9981 1 13.8439 1.22786 15.2219 1.61752C15.9039 1.8104 16.5285 2.05865 17.0057 2.37768C17.4459 2.67198 18 3.19384 18 3.97951V16H16V6.08517ZM16.0413 3.80107C16.0454 3.79451 16.0483 3.79131 16.0486 3.79135C16.049 3.79139 16.047 3.79466 16.0413 3.80107ZM3.95871 3.80107C3.95304 3.79466 3.95098 3.79139 3.95136 3.79135C3.95175 3.79131 3.95459 3.79451 3.95871 3.80107Z" fill="black"/><path fill-rule="evenodd" clip-rule="evenodd" d="M3.99003 15.8582C3.92118 15.3731 3.50416 15 3 15C2.44772 15 2 15.4477 2 16C2 16.7836 2.54781 17.3082 2.99033 17.6071C3.46776 17.9296 4.09289 18.1807 4.77553 18.3757C6.15442 18.7697 8.00123 19 10 19C11.9988 19 13.8456 18.7697 15.2245 18.3757C15.9071 18.1807 16.5322 17.9296 17.0097 17.6071C17.4522 17.3082 18 16.7836 18 16C18 15.4477 17.5523 15 17 15C16.4958 15 16.0788 15.3731 16.01 15.8582C15.9861 15.8799 15.9482 15.9106 15.8901 15.9498C15.6591 16.1059 15.2591 16.2858 14.675 16.4527C13.5204 16.7826 11.8672 17 10 17C8.13278 17 6.47958 16.7826 5.32497 16.4527C4.74086 16.2858 4.34087 16.1059 4.10985 15.9498C4.05181 15.9106 4.01387 15.8799 3.99003 15.8582ZM16.0455 15.8203C16.0458 15.8203 16.0439 15.8234 16.0386 15.8296C16.0424 15.8233 16.0451 15.8202 16.0455 15.8203ZM3.96144 15.8296C3.95611 15.8234 3.95418 15.8203 3.95454 15.8203C3.95491 15.8202 3.95757 15.8233 3.96144 15.8296Z" fill="black"/><path fill-rule="evenodd" clip-rule="evenodd" d="M3.99003 9.85823C3.92118 9.37309 3.50416 9 3 9C2.44772 9 2 9.44772 2 10C2 10.7836 2.54781 11.3082 2.99033 11.6071C3.46776 11.9296 4.09289 12.1807 4.77553 12.3757C6.15442 12.7697 8.00123 13 10 13C11.9988 13 13.8456 12.7697 15.2245 12.3757C15.9071 12.1807 16.5322 11.9296 17.0097 11.6071C17.4522 11.3082 18 10.7836 18 10C18 9.44772 17.5523 9 17 9C16.4958 9 16.0788 9.37308 16.01 9.85822C15.9861 9.8799 15.9482 9.91062 15.8901 9.94984C15.6591 10.1059 15.2591 10.2858 14.675 10.4527C13.5204 10.7826 11.8672 11 10 11C8.13278 11 6.47958 10.7826 5.32497 10.4527C4.74086 10.2858 4.34087 10.1059 4.10985 9.94984C4.05181 9.91063 4.01387 9.8799 3.99003 9.85823ZM16.0455 9.82026C16.0458 9.82029 16.0439 9.82344 16.0386 9.8296C16.0424 9.8233 16.0451 9.82023 16.0455 9.82026ZM3.96144 9.8296C3.95611 9.82344 3.95418 9.82029 3.95454 9.82026C3.95491 9.82023 3.95757 9.8233 3.96144 9.8296Z" fill="black"/></g></mask></defs><circle r="13" cx="13" cy="13" mask="url(#mask-pop-database-circle-filled)" fill="currentColor"/></svg>