<svg width="20" height="20" viewBox="0 0 26 26" fill="none" xmlns="http://www.w3.org/2000/svg"><defs><mask id="mask-pop-dollar-circle-filled"><rect width="26" height="26" fill="white"/><g transform="translate(3, 3)"><path fill-rule="evenodd" clip-rule="evenodd" d="M7.89711 5.69939C7.34561 6.11301 7.09792 6.60808 7.09792 7.0707C7.09792 7.53332 7.34561 8.02839 7.89711 8.44201C8.4489 8.85586 9.25704 9.1414 10.1922 9.1414C10.7445 9.1414 11.1922 9.58911 11.1922 10.1414C11.1922 10.6937 10.7445 11.1414 10.1922 11.1414C8.86614 11.1414 7.62714 10.7395 6.69711 10.042C5.76676 9.34426 5.09792 8.30398 5.09792 7.0707C5.09792 5.83742 5.76676 4.79714 6.69711 4.09939C7.62714 3.40186 8.86614 3 10.1922 3C12.2448 3 14.1862 3.98306 14.9581 5.62083C15.1935 6.12042 14.9794 6.71628 14.4798 6.95172C13.9802 7.18715 13.3843 6.97302 13.1489 6.47343C12.7966 5.72591 11.705 5 10.1922 5C9.25704 5 8.4489 5.28554 7.89711 5.69939Z" fill="black"/><path fill-rule="evenodd" clip-rule="evenodd" d="M12.1566 14.5834C12.7081 14.1698 12.9558 13.6748 12.9558 13.2121C12.9558 12.7495 12.7081 12.2544 12.1566 11.8408C11.6048 11.427 10.7967 11.1414 9.86153 11.1414C9.30924 11.1414 8.86153 10.6937 8.86153 10.1414C8.86153 9.58915 9.30924 9.14144 9.86153 9.14144C11.1876 9.14144 12.4266 9.5433 13.3566 10.2408C14.287 10.9386 14.9558 11.9789 14.9558 13.2121C14.9558 14.4454 14.287 15.4857 13.3566 16.1834C12.4266 16.881 11.1876 17.2828 9.86153 17.2828C7.80896 17.2828 5.86748 16.2998 5.09565 14.662C4.86021 14.1624 5.07435 13.5666 5.57394 13.3311C6.07352 13.0957 6.66938 13.3098 6.90482 13.8094C7.2571 14.5569 8.34876 15.2828 9.86153 15.2828C10.7967 15.2828 11.6048 14.9973 12.1566 14.5834Z" fill="black"/><path fill-rule="evenodd" clip-rule="evenodd" d="M10 1C10.5523 1 11 1.44772 11 2V3C11 3.55228 10.5523 4 10 4C9.44772 4 9 3.55228 9 3V2C9 1.44772 9.44772 1 10 1Z" fill="black"/><path fill-rule="evenodd" clip-rule="evenodd" d="M10 16C10.5523 16 11 16.4477 11 17V18C11 18.5523 10.5523 19 10 19C9.44772 19 9 18.5523 9 18V17C9 16.4477 9.44772 16 10 16Z" fill="black"/></g></mask></defs><circle r="13" cx="13" cy="13" mask="url(#mask-pop-dollar-circle-filled)" fill="currentColor"/></svg>