<svg width="20" height="20" viewBox="0 0 26 26" fill="none" xmlns="http://www.w3.org/2000/svg"><g transform="translate(3, 3)"><path fill-rule="evenodd" clip-rule="evenodd" d="M7.70711 16.7071C7.31658 17.0976 6.68342 17.0976 6.29289 16.7071L2.29289 12.7071C1.90237 12.3166 1.90237 11.6834 2.29289 11.2929L6.29289 7.29289C6.68342 6.90237 7.31658 6.90237 7.70711 7.29289C8.09763 7.68342 8.09763 8.31658 7.70711 8.70711L4.41421 12L7.70711 15.2929C8.09763 15.6834 8.09763 16.3166 7.70711 16.7071Z" fill="currentColor"/><path fill-rule="evenodd" clip-rule="evenodd" d="M12.75 11C13.3445 11 13.916 10.7623 14.3385 10.3368C14.7613 9.91111 15 9.33228 15 8.72727L15 3C15 2.44771 15.4477 2 16 2C16.5523 2 17 2.44771 17 3L17 8.72727C17 9.85823 16.5539 10.9443 15.7577 11.7461C14.9612 12.5481 13.8794 13 12.75 13L3 13C2.44771 13 2 12.5523 2 12C2 11.4477 2.44771 11 3 11L12.75 11Z" fill="currentColor"/></g><path fill-rule="evenodd" clip-rule="evenodd" d="M13 24C19.0751 24 24 19.0751 24 13C24 6.92487 19.0751 2 13 2C6.92487 2 2 6.92487 2 13C2 19.0751 6.92487 24 13 24ZM13 26C20.1797 26 26 20.1797 26 13C26 5.8203 20.1797 0 13 0C5.8203 0 0 5.8203 0 13C0 20.1797 5.8203 26 13 26Z" fill="currentColor"/></svg>