<svg width="20" height="20" viewBox="0 0 20 20" fill="none" xmlns="http://www.w3.org/2000/svg"><g><path fill-rule="evenodd" clip-rule="evenodd" d="M9.99927 2.70211L9.64627 2.5941C9.28672 2.48409 8.90774 2.45252 8.53495 2.50153C7.09604 2.69069 6.08292 4.01049 6.27208 5.4494L6.46159 6.89101C6.65785 8.38388 7.93029 9.5 9.436 9.5H10.563C12.0687 9.5 13.3412 8.38388 13.5374 6.89101L13.7269 5.4494C13.7759 5.07661 13.7444 4.69765 13.6344 4.33811C13.2098 2.95027 11.7405 2.1694 10.3527 2.59398L9.99927 2.70211ZM8.79562 4.48447C8.88468 4.47276 8.97522 4.48031 9.06112 4.50659L9.99924 4.79362L10.9378 4.50648C11.2694 4.40504 11.6204 4.59161 11.7219 4.9232C11.7482 5.00911 11.7557 5.09965 11.744 5.18872L11.5545 6.63033C11.4891 7.12796 11.0649 7.5 10.563 7.5H9.436C8.9341 7.5 8.50995 7.12796 8.44453 6.63033L8.25502 5.18872C8.20983 4.84496 8.45187 4.52966 8.79562 4.48447Z" fill="currentColor"/><path fill-rule="evenodd" clip-rule="evenodd" d="M11.9944 8L7.76658 8C7.22684 8 6.69709 8.14562 6.23318 8.42149C4.53499 9.43138 3.28005 10.5679 2.46835 11.8311C2.20882 12.235 1.94566 12.6035 1.69984 12.9477C0.629095 14.4468 -0.112873 15.4856 1.20518 16.9893C2.82583 18.8381 6.25948 20 9.62895 20C12.9984 20 16.355 19.3152 18.5339 16.9893C20.1469 15.2674 19.4765 14.4997 18.4337 13.3053C18.0679 12.8863 17.6561 12.4148 17.2811 11.8311C16.4381 10.5193 15.1772 9.37695 13.4983 8.40423C13.0413 8.13944 12.5225 8 11.9944 8ZM15.5985 12.9123C15.791 13.2119 15.9976 13.4982 16.2256 13.7871C16.2732 13.8474 16.4181 14.0186 16.5949 14.2274C16.8774 14.5611 17.2411 14.9907 17.4184 15.2167C17.3498 15.31 17.2393 15.4458 17.0743 15.622C15.557 17.2417 13.041 18 9.62895 18C6.72121 18 3.87183 16.9973 2.70916 15.6709C2.51428 15.4486 2.49949 15.4439 2.49975 15.4404C2.49978 15.44 2.50002 15.4396 2.50019 15.4389C2.52953 15.3206 2.64581 15.0964 2.89442 14.7271C2.92791 14.6773 3.04237 14.5151 3.18785 14.309C3.45827 13.9257 3.83589 13.3906 3.99994 13.1434C4.05145 13.0658 4.10169 12.9889 4.15093 12.9123C4.78162 11.9308 5.8079 11.0013 7.25545 10.1405C7.41007 10.0485 7.58667 10 7.76658 10L11.9944 10C12.1704 10 12.3434 10.0465 12.4957 10.1347C13.9132 10.9561 14.9381 11.8845 15.5985 12.9123Z" fill="currentColor"/><path d="M5.80364 1.27854C5.64981 0.893957 5.83687 0.457479 6.22146 0.303644C6.60605 0.149809 7.04252 0.33687 7.19636 0.721458L8.19636 3.22146C8.35019 3.60605 8.16313 4.04252 7.77854 4.19636C7.39396 4.35019 6.95748 4.16313 6.80364 3.77854L5.80364 1.27854Z" fill="currentColor"/><path d="M12.8036 0.721458C12.9575 0.33687 13.394 0.149809 13.7785 0.303644C14.1631 0.457479 14.3502 0.893957 14.1964 1.27854L13.1964 3.77854C13.0425 4.16313 12.606 4.35019 12.2215 4.19636C11.8369 4.04252 11.6498 3.60605 11.8036 3.22146L12.8036 0.721458Z" fill="currentColor"/><path d="M9.5 12.5C9.5 12.2239 9.72386 12 10 12C10.2761 12 10.5 12.2239 10.5 12.5V16.5C10.5 16.7761 10.2761 17 10 17C9.72386 17 9.5 16.7761 9.5 16.5V12.5Z" fill="currentColor"/><path d="M7.05257 12.2768C7.17582 12.0297 7.47606 11.9293 7.72317 12.0526C7.97028 12.1758 8.07069 12.4761 7.94744 12.7232L6.44744 15.7306C6.32418 15.9777 6.02395 16.0781 5.77684 15.9549C5.52973 15.8316 5.42932 15.5314 5.55257 15.2843L7.05257 12.2768Z" fill="currentColor"/><path d="M12.9472 12.2764C12.8237 12.0294 12.5234 11.9293 12.2764 12.0528C12.0294 12.1763 11.9293 12.4766 12.0528 12.7236L13.5528 15.7236C13.6763 15.9706 13.9766 16.0707 14.2236 15.9472C14.4706 15.8237 14.5707 15.5234 14.4472 15.2764L12.9472 12.2764Z" fill="currentColor"/></g></svg>