<svg width="20" height="20" viewBox="0 0 20 20" fill="none" xmlns="http://www.w3.org/2000/svg"><path fill-rule="evenodd" clip-rule="evenodd" d="M15.5 6.5H7.5C6.94772 6.5 6.5 6.94772 6.5 7.5V15.5C6.5 16.0523 6.94772 16.5 7.5 16.5H15.5C16.0523 16.5 16.5 16.0523 16.5 15.5V7.5C16.5 6.94772 16.0523 6.5 15.5 6.5ZM8.5 14.5V8.5H14.5V14.5H8.5Z" fill="currentColor"/><path d="M6.5 13.5H4.5C3.94772 13.5 3.5 13.0523 3.5 12.5V4.5C3.5 3.94772 3.94772 3.5 4.5 3.5H12.5C13.0523 3.5 13.5 3.94772 13.5 4.5V6.5H11.5V5.5H5.5V11.5H6.5V13.5Z" fill="currentColor"/><path d="M1.29289 2.70711C0.902369 2.31658 0.902369 1.68342 1.29289 1.29289C1.68342 0.902368 2.31658 0.902368 2.70711 1.29289L18.7071 17.2929C19.0976 17.6834 19.0976 18.3166 18.7071 18.7071C18.3166 19.0976 17.6834 19.0976 17.2929 18.7071L1.29289 2.70711Z" fill="currentColor"/></svg>