<svg width="20" height="20" viewBox="0 0 26 26" fill="none" xmlns="http://www.w3.org/2000/svg"><defs><mask id="mask-pop-duplicate-circle-filled"><rect width="26" height="26" fill="white"/><g transform="translate(3, 3)"><path fill-rule="evenodd" clip-rule="evenodd" d="M15.5 6.5H7.5C6.94772 6.5 6.5 6.94772 6.5 7.5V15.5C6.5 16.0523 6.94772 16.5 7.5 16.5H15.5C16.0523 16.5 16.5 16.0523 16.5 15.5V7.5C16.5 6.94772 16.0523 6.5 15.5 6.5ZM8.5 14.5V8.5H14.5V14.5H8.5Z" fill="black"/><path d="M6.5 13.5H4.5C3.94772 13.5 3.5 13.0523 3.5 12.5V4.5C3.5 3.94772 3.94772 3.5 4.5 3.5H12.5C13.0523 3.5 13.5 3.94772 13.5 4.5V6.5H11.5V5.5H5.5V11.5H6.5V13.5Z" fill="black"/></g></mask></defs><circle r="13" cx="13" cy="13" mask="url(#mask-pop-duplicate-circle-filled)" fill="currentColor"/></svg>