<svg width="20" height="20" viewBox="0 0 20 20" fill="none" xmlns="http://www.w3.org/2000/svg"><g><path fill-rule="evenodd" clip-rule="evenodd" d="M10 2C5.58172 2 2 5.58172 2 10C2 14.4183 5.58172 18 10 18C14.4183 18 18 14.4183 18 10C18 5.58172 14.4183 2 10 2ZM0 10C0 4.47715 4.47715 0 10 0C15.5228 0 20 4.47715 20 10C20 15.5228 15.5228 20 10 20C4.47715 20 0 15.5228 0 10Z" fill="currentColor"/><path fill-rule="evenodd" clip-rule="evenodd" d="M10.255 3.01362L12.1339 1.8943L11.3661 0.605652L9.27011 1.85435C8.48181 2.32398 8.41048 3.40412 9.05481 3.98459L8.58626 4.26225C8.56045 4.27754 8.5321 4.28807 8.50256 4.29332L6.69369 4.6149C5.85845 4.76338 5.25 5.48955 5.25 6.33788V6.69096C5.25 7.48861 5.84903 8.14635 6.62176 8.23885C6.21725 8.34962 5.86328 8.60297 5.62795 8.95597L5.12134 9.71588C4.84785 10.1261 4.7601 10.6327 4.87968 11.111L5.27938 12.7098L5.41074 13.1039C5.75737 14.1438 6.9979 14.5694 7.90993 13.9614C7.96447 13.9251 8.03553 13.9251 8.09007 13.9614L8.86301 14.4767C8.89921 14.5008 8.92849 14.534 8.94794 14.5729L9.72361 16.1242C9.74096 16.159 9.75 16.1972 9.75 16.236V17.0229C9.75 18.261 11.0004 19.1076 12.1499 18.6478L12.5062 18.5053C13.2895 18.192 13.7377 17.3644 13.5723 16.5372L13.3357 15.3541C13.3222 15.2869 13.3433 15.2174 13.3917 15.1689L13.4215 15.1392L14.9187 14.5403C15.7764 14.1972 15.637 13.0119 14.8477 12.787L14.1973 12.1366C14.1698 12.1091 14.1491 12.0757 14.1369 12.0389L14.0841 11.8805C14.5813 12.4518 15.4148 12.6311 16.1143 12.2813L16.136 12.2705C17.1839 11.7465 17.4106 10.3499 16.5821 9.52141L16.2308 9.17014C16.2031 9.14241 16.2077 9.09625 16.2403 9.07451C16.2688 9.05547 16.3074 9.06319 16.3265 9.09174L16.5791 9.4707C16.9037 9.95755 17.4501 10.25 18.0352 10.25H18.5V8.74998H18.0352C17.9516 8.74998 17.8735 8.7082 17.8272 8.63865L17.5745 8.25969C17.096 7.54184 16.1261 7.34787 15.4082 7.82643C14.588 8.37324 14.4731 9.53375 15.1702 10.2308L15.5214 10.5821C15.6259 10.6866 15.5974 10.8628 15.4651 10.9289L15.4435 10.9397C15.3545 10.9842 15.2463 10.9527 15.1951 10.8674L14.8485 10.2897C14.2416 9.2783 12.7279 9.44446 12.355 10.5634C12.2605 10.8468 12.2605 11.1532 12.355 11.4365L12.7138 12.5132C12.7997 12.7709 12.9445 13.0051 13.1366 13.1972L13.4511 13.5118L12.8165 13.7656C12.6595 13.8284 12.5169 13.9225 12.3973 14.042L12.3311 14.1083C11.928 14.5114 11.753 15.0892 11.8648 15.6482L12.1014 16.8314C12.1251 16.9496 12.061 17.0678 11.9491 17.1125L11.5928 17.2551C11.4286 17.3207 11.25 17.1998 11.25 17.0229V16.236C11.25 15.9644 11.1867 15.6964 11.0652 15.4534L10.2896 13.9021C10.1534 13.6297 9.94846 13.3976 9.69506 13.2286L8.92212 12.7133C8.36373 12.3411 7.63627 12.3411 7.07788 12.7133C6.9888 12.7727 6.86763 12.7312 6.83377 12.6296L6.72062 12.2901L6.3349 10.7472C6.31781 10.6789 6.33035 10.6065 6.36942 10.5479L6.87602 9.78802C6.91548 9.72884 6.97827 9.68927 7.04868 9.67921L9.61109 9.31315C9.68899 9.30202 9.76758 9.32822 9.82322 9.38386L9.96001 9.52065C10.4926 10.0533 11.3063 10.1853 11.9801 9.84846L12.7826 9.44719C13.3755 9.15075 13.75 8.5448 13.75 7.88194V7.58327C14.8866 7.23253 15.0922 5.68065 14.0501 5.0554L13.5658 4.76482C12.8499 4.33528 11.9252 4.51642 11.4242 5.18432L10.7 6.14998C10.6528 6.21293 10.5787 6.24998 10.5 6.24998H8.23607C7.96439 6.24998 7.69644 6.31323 7.45344 6.43473L6.83541 6.74375C6.82721 6.74784 6.81818 6.74998 6.80902 6.74998C6.77642 6.74998 6.75 6.72356 6.75 6.69096V6.33788C6.75 6.21669 6.83692 6.11295 6.95624 6.09174L8.76511 5.77016C8.97186 5.73341 9.17031 5.65974 9.35096 5.55269L10.0375 5.14586C10.8282 4.67727 10.9007 3.59479 10.255 3.01362ZM7.46732 8.10418L9.39896 7.82823C9.94425 7.75033 10.4944 7.93371 10.8839 8.3232L11.0207 8.45999C11.0968 8.53608 11.213 8.55495 11.3093 8.50682L12.1118 8.10555C12.1965 8.0632 12.25 7.97664 12.25 7.88194V7.50377C12.25 6.94278 12.5845 6.44487 13.0852 6.22575L12.7941 6.05106C12.7373 6.017 12.664 6.03136 12.6242 6.08432L11.9 7.04998C11.5695 7.49064 11.0508 7.74998 10.5 7.74998H8.23607C8.19726 7.74998 8.15898 7.75901 8.12426 7.77637L7.50623 8.08539C7.49334 8.09184 7.48036 8.0981 7.46732 8.10418Z" fill="currentColor"/></g><path d="M1.29289 2.70711C0.902369 2.31658 0.902369 1.68342 1.29289 1.29289C1.68342 0.902368 2.31658 0.902368 2.70711 1.29289L18.7071 17.2929C19.0976 17.6834 19.0976 18.3166 18.7071 18.7071C18.3166 19.0976 17.6834 19.0976 17.2929 18.7071L1.29289 2.70711Z" fill="currentColor"/></svg>