<svg width="20" height="20" viewBox="0 0 26 26" fill="none" xmlns="http://www.w3.org/2000/svg"><g transform="translate(3, 3)"><path fill-rule="evenodd" clip-rule="evenodd" d="M15 8H11.9451L13.9191 3.39392C14.2019 2.73405 13.7179 2 13 2H8C7.59997 2 7.23843 2.2384 7.08086 2.60608L4.08086 9.60608C3.79805 10.2659 4.28208 11 5 11H6.73423L4.07207 17.6273C3.67234 18.6223 4.90667 19.4633 5.68646 18.7272L10.7099 13.9849L15.6501 9.75985C16.3559 9.156 15.9289 8 15 8ZM9.50943 8.60608C9.22663 9.26595 9.71066 10 10.4286 10H12.2929L9.37334 12.4979L7.62514 14.1477L9.14152 10.3727C9.40546 9.71569 8.92168 9 8.21359 9H6.51654L8.6594 4H11.4835L9.50943 8.60608Z" fill="currentColor"/></g><path fill-rule="evenodd" clip-rule="evenodd" d="M13 24C19.0751 24 24 19.0751 24 13C24 6.92487 19.0751 2 13 2C6.92487 2 2 6.92487 2 13C2 19.0751 6.92487 24 13 24ZM13 26C20.1797 26 26 20.1797 26 13C26 5.8203 20.1797 0 13 0C5.8203 0 0 5.8203 0 13C0 20.1797 5.8203 26 13 26Z" fill="currentColor"/></svg>