<svg width="20" height="20" viewBox="0 0 20 20" fill="none" xmlns="http://www.w3.org/2000/svg"><path fill-rule="evenodd" clip-rule="evenodd" d="M8.22648 7.23175C8.65076 6.87819 9.28132 6.93551 9.63488 7.35979L11.7182 9.85979C12.0718 10.2841 12.0145 10.9146 11.5902 11.2682C11.1659 11.6218 10.5353 11.5644 10.1818 11.1402L8.09844 8.64016C7.74488 8.21588 7.8022 7.58532 8.22648 7.23175Z" fill="currentColor"/><path fill-rule="evenodd" clip-rule="evenodd" d="M8.22642 13.7682C7.80214 13.4146 7.74482 12.7841 8.09838 12.3598L10.1817 9.85979C10.5353 9.43551 11.1658 9.37819 11.5901 9.73175C12.0144 10.0853 12.0717 10.7159 11.7182 11.1402L9.63482 13.6402C9.28126 14.0644 8.65069 14.1218 8.22642 13.7682Z" fill="currentColor"/><path fill-rule="evenodd" clip-rule="evenodd" d="M10.7 10.5C10.7 11.0523 10.2523 11.5 9.70001 11.5L3.20001 11.5C2.64773 11.5 2.20001 11.0523 2.20001 10.5C2.20001 9.94772 2.64773 9.5 3.20001 9.5L9.70001 9.5C10.2523 9.5 10.7 9.94772 10.7 10.5Z" fill="currentColor"/><path fill-rule="evenodd" clip-rule="evenodd" d="M16.25 17.5C16.25 18.0523 15.8023 18.5 15.25 18.5H6.25C5.69771 18.5 5.25 18.0523 5.25 17.5C5.25 16.9477 5.69771 16.5 6.25 16.5H15.25C15.8023 16.5 16.25 16.9477 16.25 17.5Z" fill="currentColor"/><path fill-rule="evenodd" clip-rule="evenodd" d="M16.25 3.5C16.25 4.05228 15.8023 4.5 15.25 4.5L6.25 4.5C5.69771 4.5 5.25 4.05228 5.25 3.5C5.25 2.94772 5.69771 2.5 6.25 2.5L15.25 2.5C15.8023 2.5 16.25 2.94772 16.25 3.5Z" fill="currentColor"/><path fill-rule="evenodd" clip-rule="evenodd" d="M6.25 18.5C5.69772 18.5 5.25 18.0523 5.25 17.5V13.5C5.25 12.9477 5.69772 12.5 6.25 12.5C6.80228 12.5 7.25 12.9477 7.25 13.5V17.5C7.25 18.0523 6.80228 18.5 6.25 18.5Z" fill="currentColor"/><path fill-rule="evenodd" clip-rule="evenodd" d="M6.25 8.5C5.69772 8.5 5.25 8.05228 5.25 7.5V3.5C5.25 2.94772 5.69772 2.5 6.25 2.5C6.80228 2.5 7.25 2.94772 7.25 3.5V7.5C7.25 8.05228 6.80228 8.5 6.25 8.5Z" fill="currentColor"/><path fill-rule="evenodd" clip-rule="evenodd" d="M15.6 18.5C15.0477 18.5 14.6 18.0523 14.6 17.5L14.6 3.5C14.6 2.94771 15.0477 2.5 15.6 2.5C16.1523 2.5 16.6 2.94771 16.6 3.5V17.5C16.6 18.0523 16.1523 18.5 15.6 18.5Z" fill="currentColor"/></svg>