<svg width="20" height="20" viewBox="0 0 26 26" fill="none" xmlns="http://www.w3.org/2000/svg"><defs><mask id="mask-pop-equal-circle-filled"><rect width="26" height="26" fill="white"/><g transform="translate(3, 3)"><path fill-rule="evenodd" clip-rule="evenodd" d="M4 7C4 6.44772 4.44772 6 5 6H15C15.5523 6 16 6.44772 16 7C16 7.55228 15.5523 8 15 8H5C4.44772 8 4 7.55228 4 7Z" fill="black"/><path fill-rule="evenodd" clip-rule="evenodd" d="M4 13C4 12.4477 4.44772 12 5 12H15C15.5523 12 16 12.4477 16 13C16 13.5523 15.5523 14 15 14H5C4.44772 14 4 13.5523 4 13Z" fill="black"/></g></mask></defs><circle r="13" cx="13" cy="13" mask="url(#mask-pop-equal-circle-filled)" fill="currentColor"/></svg>