<svg width="20" height="20" viewBox="0 0 26 26" fill="none" xmlns="http://www.w3.org/2000/svg"><g transform="translate(3, 3)"><path fill-rule="evenodd" clip-rule="evenodd" d="M12.4888 4C9.43078 4 7 6.21256 7 9.50001C7 12.8865 9.52747 15.5 12.4888 15.5C13.2324 15.5 13.9405 15.3388 14.5872 15.0457C15.0903 14.8177 15.6829 15.0407 15.9108 15.5437C16.1388 16.0468 15.9158 16.6394 15.4128 16.8673C14.5147 17.2744 13.5258 17.5 12.4888 17.5C8.28278 17.5 5 13.8455 5 9.50001C5 5.05547 8.37947 2 12.4888 2C13.7258 2 14.9173 2.3928 16.0631 3.17364C16.5195 3.48465 16.6374 4.10675 16.3264 4.56314C16.0153 5.01953 15.3932 5.13738 14.9369 4.82636C14.0795 4.24207 13.2742 4 12.4888 4Z" fill="currentColor"/><path fill-rule="evenodd" clip-rule="evenodd" d="M3 8C3 7.44772 3.44772 7 4 7H13C13.5523 7 14 7.44772 14 8C14 8.55228 13.5523 9 13 9H4C3.44772 9 3 8.55228 3 8Z" fill="currentColor"/><path fill-rule="evenodd" clip-rule="evenodd" d="M3 11.5C3 10.9477 3.44772 10.5 4 10.5H12C12.5523 10.5 13 10.9477 13 11.5C13 12.0523 12.5523 12.5 12 12.5H4C3.44772 12.5 3 12.0523 3 11.5Z" fill="currentColor"/></g><path fill-rule="evenodd" clip-rule="evenodd" d="M13 24C19.0751 24 24 19.0751 24 13C24 6.92487 19.0751 2 13 2C6.92487 2 2 6.92487 2 13C2 19.0751 6.92487 24 13 24ZM13 26C20.1797 26 26 20.1797 26 13C26 5.8203 20.1797 0 13 0C5.8203 0 0 5.8203 0 13C0 20.1797 5.8203 26 13 26Z" fill="currentColor"/></svg>