<svg width="20" height="20" viewBox="0 0 26 26" fill="none" xmlns="http://www.w3.org/2000/svg"><defs><mask id="mask-pop-exclamation-circle-filled"><rect width="26" height="26" fill="white"/><g transform="translate(3, 3)"><path fill-rule="evenodd" clip-rule="evenodd" d="M10 2C11.1046 2 12 2.89543 12 4V11C12 12.1046 11.1046 13 10 13C8.89543 13 8 12.1046 8 11V4C8 2.89543 8.89543 2 10 2Z" fill="black"/><path d="M12 16C12 17.1046 11.1046 18 10 18C8.89543 18 8 17.1046 8 16C8 14.8954 8.89543 14 10 14C11.1046 14 12 14.8954 12 16Z" fill="black"/></g></mask></defs><circle r="13" cx="13" cy="13" mask="url(#mask-pop-exclamation-circle-filled)" fill="currentColor"/></svg>