<svg width="20" height="20" viewBox="0 0 26 26" fill="none" xmlns="http://www.w3.org/2000/svg"><g transform="translate(3, 3)"><path fill-rule="evenodd" clip-rule="evenodd" d="M10 16.5C14.8972 16.5 19 14.1922 19 11C19 7.80784 14.8972 5.5 10 5.5C5.10282 5.5 1 7.80784 1 11C1 14.1922 5.10282 16.5 10 16.5ZM10 7.5C13.9394 7.5 17 9.2216 17 11C17 12.7784 13.9394 14.5 10 14.5C6.06062 14.5 3 12.7784 3 11C3 9.2216 6.06062 7.5 10 7.5Z" fill="currentColor"/><path d="M9 3.5C9 2.94772 9.44772 2.5 10 2.5C10.5523 2.5 11 2.94772 11 3.5L11 6.5C11 7.05228 10.5523 7.5 10 7.5C9.44772 7.5 9 7.05228 9 6.5L9 3.5Z" fill="currentColor"/><path d="M13.0194 3.80383C13.1277 3.26227 13.6546 2.91106 14.1961 3.01937C14.7377 3.12768 15.0889 3.65451 14.9806 4.19606L14.4806 6.69606C14.3723 7.23762 13.8454 7.58884 13.3039 7.48053C12.7623 7.37222 12.4111 6.84539 12.5194 6.30383L13.0194 3.80383Z" fill="currentColor"/><path d="M6.98059 3.80383C6.87227 3.26227 6.34545 2.91106 5.80389 3.01937C5.26233 3.12768 4.91111 3.65451 5.01942 4.19606L5.51942 6.69606C5.62774 7.23762 6.15456 7.58884 6.69612 7.48053C7.23768 7.37222 7.5889 6.84539 7.48059 6.30383L6.98059 3.80383Z" fill="currentColor"/><path d="M2.85749 4.98553C2.57335 4.51195 1.95909 4.35839 1.48551 4.64254C1.01193 4.92668 0.85836 5.54094 1.14251 6.01452L2.64251 8.51452C2.92666 8.98811 3.54092 9.14167 4.0145 8.85752C4.48808 8.57337 4.64164 7.95911 4.35749 7.48553L2.85749 4.98553Z" fill="currentColor"/><path d="M17.1425 4.98553C17.4267 4.51195 18.0409 4.35839 18.5145 4.64254C18.9881 4.92668 19.1416 5.54094 18.8575 6.01452L17.3575 8.51452C17.0733 8.98811 16.4591 9.14167 15.9855 8.85752C15.5119 8.57337 15.3584 7.95911 15.6425 7.48553L17.1425 4.98553Z" fill="currentColor"/><path fill-rule="evenodd" clip-rule="evenodd" d="M10 14C11.933 14 13.5 12.433 13.5 10.5C13.5 8.567 11.933 7 10 7C8.067 7 6.5 8.567 6.5 10.5C6.5 12.433 8.067 14 10 14ZM10 9C10.8284 9 11.5 9.67157 11.5 10.5C11.5 11.3284 10.8284 12 10 12C9.17157 12 8.5 11.3284 8.5 10.5C8.5 9.67157 9.17157 9 10 9Z" fill="currentColor"/></g><path fill-rule="evenodd" clip-rule="evenodd" d="M13 24C19.0751 24 24 19.0751 24 13C24 6.92487 19.0751 2 13 2C6.92487 2 2 6.92487 2 13C2 19.0751 6.92487 24 13 24ZM13 26C20.1797 26 26 20.1797 26 13C26 5.8203 20.1797 0 13 0C5.8203 0 0 5.8203 0 13C0 20.1797 5.8203 26 13 26Z" fill="currentColor"/></svg>