<svg width="20" height="20" viewBox="0 0 20 20" fill="none" xmlns="http://www.w3.org/2000/svg"><path fill-rule="evenodd" clip-rule="evenodd" d="M7.07095 12.0821C7.76993 12.4753 8.8029 12.75 9.99837 12.75C11.1938 12.75 12.2268 12.4753 12.9258 12.0821C13.6561 11.6713 13.8317 11.2603 13.8317 11.0312C13.8317 10.8022 13.6561 10.3912 12.9258 9.98038C12.2268 9.5872 11.1938 9.3125 9.99837 9.3125C8.8029 9.3125 7.76993 9.5872 7.07095 9.98038C6.34063 10.3912 6.16504 10.8022 6.16504 11.0312C6.16504 11.2603 6.34063 11.6713 7.07095 12.0821ZM6.09043 13.8253C5.07143 13.2521 4.16504 12.3037 4.16504 11.0312C4.16504 9.75876 5.07143 8.81041 6.09043 8.23723C7.14077 7.64641 8.52447 7.3125 9.99837 7.3125C11.4723 7.3125 12.856 7.64641 13.9063 8.23723C14.9253 8.81041 15.8317 9.75876 15.8317 11.0312C15.8317 12.3037 14.9253 13.2521 13.9063 13.8253C12.856 14.4161 11.4723 14.75 9.99837 14.75C8.52447 14.75 7.14077 14.4161 6.09043 13.8253Z" fill="currentColor"/><path fill-rule="evenodd" clip-rule="evenodd" d="M9.99835 5.5C10.5506 5.5 10.9984 5.94772 10.9984 6.5L10.9984 8.3125C10.9984 8.86478 10.5506 9.3125 9.99835 9.3125C9.44607 9.3125 8.99835 8.86478 8.99835 8.3125L8.99835 6.5C8.99835 5.94772 9.44607 5.5 9.99835 5.5Z" fill="currentColor"/><path fill-rule="evenodd" clip-rule="evenodd" d="M12.6112 5.82149C13.1527 5.9298 13.504 6.45663 13.3956 6.99819L13.0936 8.50861C12.9853 9.05017 12.4584 9.40138 11.9169 9.29307C11.3753 9.18476 11.0241 8.65793 11.1324 8.11637L11.4345 6.60596C11.5428 6.0644 12.0696 5.71318 12.6112 5.82149Z" fill="currentColor"/><path fill-rule="evenodd" clip-rule="evenodd" d="M7.38558 5.82149C6.84402 5.9298 6.4928 6.45663 6.60112 6.99819L6.9032 8.50861C7.01151 9.05017 7.53834 9.40138 8.0799 9.29307C8.62146 9.18476 8.97267 8.65793 8.86436 8.11637L8.56228 6.60596C8.45396 6.0644 7.92714 5.71318 7.38558 5.82149Z" fill="currentColor"/><path fill-rule="evenodd" clip-rule="evenodd" d="M4.65051 6.85079C4.17693 7.13494 4.02337 7.7492 4.30752 8.22278L5.21377 9.73319C5.49792 10.2068 6.11218 10.3603 6.58576 10.0762C7.05934 9.79204 7.2129 9.17778 6.92875 8.7042L6.0225 7.19379C5.73835 6.72021 5.12409 6.56664 4.65051 6.85079Z" fill="currentColor"/><path fill-rule="evenodd" clip-rule="evenodd" d="M15.3462 6.85079C15.8198 7.13494 15.9733 7.7492 15.6892 8.22278L14.7829 9.73319C14.4988 10.2068 13.8845 10.3603 13.4109 10.0762C12.9374 9.79204 12.7838 9.17778 13.068 8.7042L13.9742 7.19379C14.2583 6.72021 14.8726 6.56664 15.3462 6.85079Z" fill="currentColor"/><path fill-rule="evenodd" clip-rule="evenodd" d="M9.48798 10.7292C9.48798 11.0111 9.7165 11.2396 9.99839 11.2396C10.2803 11.2396 10.5088 11.0111 10.5088 10.7292C10.5088 10.4473 10.2803 10.2188 9.99839 10.2188C9.7165 10.2188 9.48798 10.4473 9.48798 10.7292ZM9.99839 13.2396C8.61193 13.2396 7.48798 12.1157 7.48798 10.7292C7.48798 9.34274 8.61193 8.21879 9.99839 8.21879C11.3849 8.21879 12.5088 9.34274 12.5088 10.7292C12.5088 12.1157 11.3849 13.2396 9.99839 13.2396Z" fill="currentColor"/><path fill-rule="evenodd" clip-rule="evenodd" d="M1.5 4C1.5 2.61929 2.61929 1.5 4 1.5H5.96154C6.51382 1.5 6.96154 1.94772 6.96154 2.5C6.96154 3.05228 6.51382 3.5 5.96154 3.5H4C3.72386 3.5 3.5 3.72386 3.5 4V6.25C3.5 6.80228 3.05228 7.25 2.5 7.25C1.94772 7.25 1.5 6.80228 1.5 6.25V4ZM12.75 2.5C12.75 1.94772 13.1977 1.5 13.75 1.5H16C17.3807 1.5 18.5 2.61929 18.5 4V6.25C18.5 6.80228 18.0523 7.25 17.5 7.25C16.9477 7.25 16.5 6.80228 16.5 6.25V4C16.5 3.72386 16.2761 3.5 16 3.5H13.75C13.1977 3.5 12.75 3.05228 12.75 2.5ZM2.5 12.4615C3.05228 12.4615 3.5 12.9093 3.5 13.4615V16C3.5 16.2761 3.72386 16.5 4 16.5H6.25C6.80228 16.5 7.25 16.9477 7.25 17.5C7.25 18.0523 6.80228 18.5 6.25 18.5H4C2.61929 18.5 1.5 17.3807 1.5 16V13.4615C1.5 12.9093 1.94772 12.4615 2.5 12.4615ZM17.5 12.75C18.0523 12.75 18.5 13.1977 18.5 13.75V16C18.5 17.3807 17.3807 18.5 16 18.5H13.75C13.1977 18.5 12.75 18.0523 12.75 17.5C12.75 16.9477 13.1977 16.5 13.75 16.5H16C16.2761 16.5 16.5 16.2761 16.5 16V13.75C16.5 13.1977 16.9477 12.75 17.5 12.75Z" fill="currentColor"/></svg>