<svg width="20" height="20" viewBox="0 0 26 26" fill="none" xmlns="http://www.w3.org/2000/svg"><g transform="translate(3, 3)"><path d="M1.68788 8.3059C1.36566 7.85735 1.46807 7.23252 1.91662 6.9103C2.36517 6.58809 2.99 6.6905 3.31221 7.13905C3.61607 7.56204 4.08478 7.96552 4.6918 8.31591C5.98518 9.0625 7.7771 9.5 9.7043 9.5C11.6315 9.5 13.4234 9.0625 14.7168 8.31591C15.3238 7.96552 15.7925 7.56204 16.0964 7.13905C16.4186 6.6905 17.0434 6.58809 17.492 6.9103C17.9405 7.23252 18.0429 7.85735 17.7207 8.3059C17.2402 8.97475 16.5568 9.56308 15.7167 10.048C14.1049 10.9784 11.9685 11.5 9.7043 11.5C7.44007 11.5 5.30367 10.9784 3.69195 10.048C2.85179 9.56308 2.16836 8.97475 1.68788 8.3059Z" fill="currentColor"/><path d="M11 11C11 10.4477 10.5523 10 10 10C9.44772 10 9 10.4477 9 11L9 13.5C9 14.0523 9.44772 14.5 10 14.5C10.5523 14.5 11 14.0523 11 13.5L11 11Z" fill="currentColor"/><path d="M5.52987 10.7575C5.66381 10.2217 6.20675 9.8959 6.74254 10.0298C7.27834 10.1638 7.6041 10.7067 7.47015 11.2425L6.97015 13.2425C6.8362 13.7783 6.29327 14.1041 5.75747 13.9701C5.22168 13.8362 4.89592 13.2933 5.02987 12.7575L5.52987 10.7575Z" fill="currentColor"/><path d="M13.9702 10.7575C13.8362 10.2217 13.2933 9.8959 12.7575 10.0298C12.2217 10.1638 11.8959 10.7067 12.0299 11.2425L12.5299 13.2425C12.6638 13.7783 13.2067 14.1041 13.7425 13.9701C14.2783 13.8362 14.6041 13.2933 14.4702 12.7575L13.9702 10.7575Z" fill="currentColor"/><path d="M16.5249 8.29289C16.1343 7.90237 15.5012 7.90237 15.1107 8.29289C14.7201 8.68342 14.7201 9.31658 15.1107 9.70711L17.1107 11.7071C17.5012 12.0976 18.1343 12.0976 18.5249 11.7071C18.9154 11.3166 18.9154 10.6834 18.5249 10.2929L16.5249 8.29289Z" fill="currentColor"/><path d="M3.07775 8.32742C3.44921 7.91872 4.08165 7.88853 4.49036 8.25999C4.89906 8.63145 4.92924 9.26389 4.55779 9.67259L2.74002 11.6726C2.36857 12.0813 1.73612 12.1115 1.32742 11.74C0.918719 11.3686 0.88853 10.7361 1.25999 10.3274L3.07775 8.32742Z" fill="currentColor"/><path d="M1.29289 2.70711C0.902369 2.31658 0.902369 1.68342 1.29289 1.29289C1.68342 0.902368 2.31658 0.902368 2.70711 1.29289L18.7071 17.2929C19.0976 17.6834 19.0976 18.3166 18.7071 18.7071C18.3166 19.0976 17.6834 19.0976 17.2929 18.7071L1.29289 2.70711Z" fill="currentColor"/></g><path fill-rule="evenodd" clip-rule="evenodd" d="M13 24C19.0751 24 24 19.0751 24 13C24 6.92487 19.0751 2 13 2C6.92487 2 2 6.92487 2 13C2 19.0751 6.92487 24 13 24ZM13 26C20.1797 26 26 20.1797 26 13C26 5.8203 20.1797 0 13 0C5.8203 0 0 5.8203 0 13C0 20.1797 5.8203 26 13 26Z" fill="currentColor"/></svg>