<svg width="20" height="20" viewBox="0 0 26 26" fill="none" xmlns="http://www.w3.org/2000/svg"><g transform="translate(3, 3)"><g><path fill-rule="evenodd" clip-rule="evenodd" d="M10 17.5C14.1421 17.5 17.5 14.1421 17.5 10C17.5 5.85786 14.1421 2.5 10 2.5C5.85786 2.5 2.5 5.85786 2.5 10C2.5 14.1421 5.85786 17.5 10 17.5ZM10 19.5C15.2467 19.5 19.5 15.2467 19.5 10C19.5 4.75329 15.2467 0.5 10 0.5C4.75329 0.5 0.5 4.75329 0.5 10C0.5 15.2467 4.75329 19.5 10 19.5Z" fill="currentColor"/><path d="M8.5 7.25C8.5 7.94036 7.94036 8.5 7.25 8.5C6.55964 8.5 6 7.94036 6 7.25C6 6.55964 6.55964 6 7.25 6C7.94036 6 8.5 6.55964 8.5 7.25Z" fill="currentColor"/><path d="M14 7.25C14 7.94036 13.4404 8.5 12.75 8.5C12.0596 8.5 11.5 7.94036 11.5 7.25C11.5 6.55964 12.0596 6 12.75 6C13.4404 6 14 6.55964 14 7.25Z" fill="currentColor"/><path fill-rule="evenodd" clip-rule="evenodd" d="M5.40885 11.5384C5.55098 11.3564 5.76906 11.25 6.00001 11.25H14C14.231 11.25 14.449 11.3564 14.5912 11.5384C14.7333 11.7205 14.7836 11.9578 14.7276 12.1819L14 12C14.7276 12.1819 14.7277 12.1816 14.7276 12.1819L14.7269 12.1847L14.7258 12.1889L14.7225 12.2016C14.7198 12.212 14.716 12.2262 14.7112 12.2438C14.7015 12.279 14.6875 12.3284 14.6688 12.3897C14.6316 12.5123 14.5758 12.6839 14.4991 12.8883C14.3467 13.2947 14.1075 13.8431 13.761 14.3975C13.0813 15.485 11.883 16.75 10 16.75C8.11699 16.75 6.91868 15.485 6.23901 14.3975C5.89251 13.8431 5.65328 13.2947 5.50088 12.8883C5.42423 12.6839 5.36839 12.5123 5.33117 12.3897C5.31254 12.3284 5.29851 12.279 5.28882 12.2438C5.28397 12.2262 5.2802 12.212 5.27747 12.2016L5.27417 12.1889L5.27309 12.1847L5.2727 12.1831C5.27263 12.1828 5.2724 12.1819 6.00001 12L5.2724 12.1819C5.21639 11.9578 5.26672 11.7205 5.40885 11.5384ZM7.06345 12.75C7.18015 13.0153 7.32832 13.3102 7.51101 13.6025C8.08133 14.515 8.88302 15.25 10 15.25C11.117 15.25 11.9187 14.515 12.489 13.6025C12.6717 13.3102 12.8199 13.0153 12.9366 12.75H7.06345Z" fill="currentColor"/></g><path d="M1.29289 2.70711C0.902369 2.31658 0.902369 1.68342 1.29289 1.29289C1.68342 0.902368 2.31658 0.902368 2.70711 1.29289L18.7071 17.2929C19.0976 17.6834 19.0976 18.3166 18.7071 18.7071C18.3166 19.0976 17.6834 19.0976 17.2929 18.7071L1.29289 2.70711Z" fill="currentColor"/></g><path fill-rule="evenodd" clip-rule="evenodd" d="M13 24C19.0751 24 24 19.0751 24 13C24 6.92487 19.0751 2 13 2C6.92487 2 2 6.92487 2 13C2 19.0751 6.92487 24 13 24ZM13 26C20.1797 26 26 20.1797 26 13C26 5.8203 20.1797 0 13 0C5.8203 0 0 5.8203 0 13C0 20.1797 5.8203 26 13 26Z" fill="currentColor"/></svg>