<svg width="20" height="20" viewBox="0 0 20 20" fill="none" xmlns="http://www.w3.org/2000/svg"><g><path fill-rule="evenodd" clip-rule="evenodd" d="M10 17.5C14.1421 17.5 17.5 14.1421 17.5 10C17.5 5.85786 14.1421 2.5 10 2.5C5.85786 2.5 2.5 5.85786 2.5 10C2.5 14.1421 5.85786 17.5 10 17.5ZM10 19.5C15.2467 19.5 19.5 15.2467 19.5 10C19.5 4.75329 15.2467 0.5 10 0.5C4.75329 0.5 0.5 4.75329 0.5 10C0.5 15.2467 4.75329 19.5 10 19.5Z" fill="currentColor"/><path d="M8.5 7.25C8.5 7.94036 7.94036 8.5 7.25 8.5C6.55964 8.5 6 7.94036 6 7.25C6 6.55964 6.55964 6 7.25 6C7.94036 6 8.5 6.55964 8.5 7.25Z" fill="currentColor"/><path d="M14 7.25C14 7.94036 13.4404 8.5 12.75 8.5C12.0596 8.5 11.5 7.94036 11.5 7.25C11.5 6.55964 12.0596 6 12.75 6C13.4404 6 14 6.55964 14 7.25Z" fill="currentColor"/><path fill-rule="evenodd" clip-rule="evenodd" d="M12.2214 14.6275C12.5577 15.0454 13.1675 15.1244 13.6 14.8C14.0418 14.4686 14.1314 13.8418 13.8 13.4L13 14C13.8 13.4 13.7996 13.3994 13.7991 13.3989L13.7983 13.3977L13.7965 13.3953L13.7926 13.3903L13.7839 13.379C13.7776 13.3711 13.7705 13.3622 13.7624 13.3524C13.7463 13.3328 13.7264 13.3097 13.7027 13.2837C13.6553 13.2316 13.5923 13.1677 13.512 13.0963C13.3512 12.9534 13.1226 12.7821 12.8143 12.6176C12.1922 12.2859 11.2792 12 10 12C8.72082 12 7.80778 12.2859 7.18566 12.6176C6.87739 12.7821 6.64882 12.9534 6.48798 13.0963C6.40774 13.1677 6.34472 13.2316 6.29728 13.2837C6.27356 13.3097 6.25374 13.3328 6.2376 13.3524C6.22953 13.3622 6.22238 13.3711 6.21612 13.379L6.2074 13.3903L6.20354 13.3953L6.20173 13.3977L6.20086 13.3989C6.20043 13.3994 6.2 13.4 7 14L6.2 13.4C5.86863 13.8418 5.95817 14.4686 6.4 14.8C6.83251 15.1244 7.44227 15.0454 7.77864 14.6275C7.784 14.6218 7.79647 14.6092 7.81671 14.5912C7.86681 14.5466 7.96636 14.4679 8.12684 14.3824C8.44222 14.2142 9.02919 14 10 14C10.9708 14 11.5578 14.2142 11.8732 14.3824C12.0336 14.4679 12.1332 14.5466 12.1833 14.5912C12.2035 14.6092 12.216 14.6218 12.2214 14.6275Z" fill="currentColor"/></g><path d="M1.29289 2.70711C0.902369 2.31658 0.902369 1.68342 1.29289 1.29289C1.68342 0.902368 2.31658 0.902368 2.70711 1.29289L18.7071 17.2929C19.0976 17.6834 19.0976 18.3166 18.7071 18.7071C18.3166 19.0976 17.6834 19.0976 17.2929 18.7071L1.29289 2.70711Z" fill="currentColor"/></svg>