<svg width="20" height="20" viewBox="0 0 26 26" fill="none" xmlns="http://www.w3.org/2000/svg"><g transform="translate(3, 3)"><path d="M11.3632 9.31771C11.7218 9.70192 11.7218 10.2981 11.3632 10.6823L6.73105 15.6453C6.11176 16.3088 5 15.8706 5 14.963L5 5.03705C5 4.12943 6.11176 3.69121 6.73105 4.35473L11.3632 9.31771Z" fill="currentColor"/><path fill-rule="evenodd" clip-rule="evenodd" d="M9.26422 10L7 7.57407L7 12.426L9.26422 10ZM11.3632 10.6823C11.7218 10.2981 11.7218 9.70192 11.3632 9.31771L6.73105 4.35473C6.11176 3.69121 5 4.12943 5 5.03705L5 14.963C5 15.8706 6.11176 16.3088 6.73105 15.6453L11.3632 10.6823Z" fill="currentColor"/><path d="M16.3632 9.31771C16.7218 9.70192 16.7218 10.2981 16.3632 10.6823L11.731 15.6453C11.1118 16.3088 10 15.8706 10 14.963V5.03705C10 4.12943 11.1118 3.69121 11.7311 4.35473L16.3632 9.31771Z" fill="currentColor"/><path fill-rule="evenodd" clip-rule="evenodd" d="M14.2642 10L12 7.57407V12.426L14.2642 10ZM16.3632 10.6823C16.7218 10.2981 16.7218 9.70192 16.3632 9.31771L11.7311 4.35473C11.1118 3.69121 10 4.12943 10 5.03705V14.963C10 15.8706 11.1118 16.3088 11.731 15.6453L16.3632 10.6823Z" fill="currentColor"/></g><path fill-rule="evenodd" clip-rule="evenodd" d="M13 24C19.0751 24 24 19.0751 24 13C24 6.92487 19.0751 2 13 2C6.92487 2 2 6.92487 2 13C2 19.0751 6.92487 24 13 24ZM13 26C20.1797 26 26 20.1797 26 13C26 5.8203 20.1797 0 13 0C5.8203 0 0 5.8203 0 13C0 20.1797 5.8203 26 13 26Z" fill="currentColor"/></svg>