<svg width="20" height="20" viewBox="0 0 26 26" fill="none" xmlns="http://www.w3.org/2000/svg"><g transform="translate(3, 3)"><g><path fill-rule="evenodd" clip-rule="evenodd" d="M5 4C5 2.61929 6.11929 1.5 7.5 1.5H12.6C12.8626 1.5 13.1146 1.60327 13.3017 1.78752L17.7017 6.12085C17.8925 6.30881 18 6.56547 18 6.83333V14C18 15.3807 16.8807 16.5 15.5 16.5H9C8.44772 16.5 8 16.0523 8 15.5C8 14.9477 8.44772 14.5 9 14.5H15.5C15.7761 14.5 16 14.2761 16 14V7.83333H13.6C12.4954 7.83333 11.6 6.9379 11.6 5.83333V3.5H7.5C7.22386 3.5 7 3.72386 7 4V5.5C7 6.05228 6.55228 6.5 6 6.5C5.44772 6.5 5 6.05228 5 5.5V4ZM13.6 4.88839L14.5595 5.83333H13.6V4.88839Z" fill="currentColor"/><path fill-rule="evenodd" clip-rule="evenodd" d="M8.04887 8.67825C6.97946 8.10989 5.6518 8.51607 5.08344 9.58547C4.51508 10.6549 4.92125 11.9825 5.99065 12.5509C7.06006 13.1193 8.38772 12.7131 8.95608 11.6437C9.52444 10.5743 9.11827 9.24661 8.04887 8.67825ZM3.31737 8.64685C4.40411 6.60207 6.94271 5.82544 8.98749 6.91218C11.0323 7.99893 11.8089 10.5375 10.7222 12.5823C9.79714 14.3228 7.82027 15.1445 5.99138 14.6803L4.31454 17.8354C4.05535 18.3231 3.44988 18.5083 2.96219 18.2491C2.47451 17.9899 2.28928 17.3845 2.54847 16.8968L4.22531 13.7417C2.81736 12.4855 2.39236 10.3873 3.31737 8.64685Z" fill="currentColor"/></g><path d="M1.29289 2.70711C0.902369 2.31658 0.902369 1.68342 1.29289 1.29289C1.68342 0.902368 2.31658 0.902368 2.70711 1.29289L18.7071 17.2929C19.0976 17.6834 19.0976 18.3166 18.7071 18.7071C18.3166 19.0976 17.6834 19.0976 17.2929 18.7071L1.29289 2.70711Z" fill="currentColor"/></g><path fill-rule="evenodd" clip-rule="evenodd" d="M13 24C19.0751 24 24 19.0751 24 13C24 6.92487 19.0751 2 13 2C6.92487 2 2 6.92487 2 13C2 19.0751 6.92487 24 13 24ZM13 26C20.1797 26 26 20.1797 26 13C26 5.8203 20.1797 0 13 0C5.8203 0 0 5.8203 0 13C0 20.1797 5.8203 26 13 26Z" fill="currentColor"/></svg>