<svg xmlns="http://www.w3.org/2000/svg" width="20" height="20" viewBox="0 0 20 20">
  <g fill="none" fill-rule="evenodd">
    <g stroke="#AB92F0" transform="translate(2 3)">
      <rect width="3" height="3" x=".5" y="1" rx="1.5"/>
      <rect width="3" height="3" x=".5" y="4" rx="1.5"/>
      <rect width="3" height="3" x=".5" y="7" rx="1.5"/>
      <rect width="3" height="3" x=".5" y="10" rx="1.5"/>
      <path stroke-linecap="square" d="M4,0.5 L4,13.5"/>
    </g>
    <g stroke="#AB92F0" transform="matrix(-1 0 0 1 18 3)">
      <rect width="3" height="3" x=".5" y="1" rx="1.5"/>
      <rect width="3" height="3" x=".5" y="4" rx="1.5"/>
      <rect width="3" height="3" x=".5" y="7" rx="1.5"/>
      <rect width="3" height="3" x=".5" y="10" rx="1.5"/>
      <path stroke-linecap="square" d="M4,0.5 L4,13.5"/>
    </g>
    <rect width="17" height="13" x="1.5" y="3.5" stroke="#AB92F0" stroke-linecap="round" stroke-width="2" rx="1.5"/>
  </g>
</svg>
