<svg width="20" height="20" viewBox="0 0 20 20" fill="none" xmlns="http://www.w3.org/2000/svg"><path fill-rule="evenodd" clip-rule="evenodd" d="M6.95969 13.1C7.45675 13.1 7.85969 13.5029 7.85969 14C7.85969 15.182 8.81794 16.1403 10 16.1403C11.1821 16.1403 12.1403 15.182 12.1403 14C12.1403 13.5029 12.5433 13.1 13.0403 13.1C13.5374 13.1 13.9403 13.5029 13.9403 14C13.9403 16.1761 12.1762 17.9403 10 17.9403C7.82383 17.9403 6.05969 16.1761 6.05969 14C6.05969 13.5029 6.46264 13.1 6.95969 13.1Z" fill="currentColor"/><path fill-rule="evenodd" clip-rule="evenodd" d="M10.0425 9.69343C10.2838 9.25893 10.8318 9.10238 11.2663 9.34377C12.748 10.1669 13.431 11.3437 13.7286 12.3214C13.8751 12.8029 13.9276 13.2318 13.9435 13.544C13.9515 13.7008 13.9503 13.8302 13.9467 13.9247C13.9449 13.9721 13.9425 14.0109 13.9402 14.0402C13.9391 14.0549 13.938 14.0673 13.9371 14.0772L13.9358 14.0901L13.9353 14.0952L13.935 14.0974L13.9349 14.0984C13.9349 14.0989 13.9348 14.0994 13.0403 14L13.9348 14.0994C13.8799 14.5934 13.435 14.9494 12.9409 14.8945C12.4493 14.8399 12.0943 14.3988 12.1451 13.9076C12.145 13.9084 12.145 13.9086 12.145 13.9085M12.1451 13.9076C12.1452 13.9067 12.1453 13.9053 12.1454 13.9032C12.146 13.8954 12.1471 13.8795 12.148 13.8561C12.1498 13.8092 12.1508 13.7335 12.1458 13.6354C12.1358 13.438 12.1019 13.1587 12.0066 12.8455C11.8205 12.234 11.3979 11.476 10.3921 10.9173C9.95761 10.6759 9.80106 10.1279 10.0425 9.69343" fill="currentColor"/><path fill-rule="evenodd" clip-rule="evenodd" d="M8.84936 10.2165C8.5047 9.8583 7.93496 9.84736 7.5768 10.192C6.69733 11.0384 6.31831 12.0064 6.16035 12.7531C6.08149 13.1258 6.05649 13.4481 6.05153 13.6819C6.04905 13.7993 6.05158 13.8956 6.05515 13.9663C6.05694 14.0018 6.05899 14.0309 6.06082 14.0533L6.06334 14.0816L6.06437 14.0918L6.06481 14.096L6.065 14.0978L6.06509 14.0986C6.06514 14.099 6.06518 14.0994 6.93883 14.0023L6.06518 14.0994C6.12007 14.5934 6.56505 14.9494 7.05907 14.8945C7.55075 14.8399 7.9057 14.3988 7.85492 13.9076M7.8548 13.9062C7.85485 13.9068 7.85489 13.9072 7.85492 13.9076C7.85495 13.908 7.85498 13.9082 7.85499 13.9084C7.85501 13.9086 7.85501 13.9086 7.85497 13.9081L7.8548 13.9062ZM7.85434 13.9021L7.85448 13.9034L7.85471 13.9056L7.8548 13.9062C7.85445 13.9018 7.85367 13.8915 7.85287 13.8757C7.85127 13.844 7.84963 13.7908 7.85113 13.72C7.85414 13.5778 7.86974 13.3697 7.92137 13.1256C8.02439 12.6386 8.26596 12.0269 8.82493 11.489C9.18309 11.1443 9.19402 10.5746 8.84936 10.2165M7.85426 13.9014C7.85426 13.9014 7.85426 13.9014 7.85426 13.9014L7.85429 13.9016C7.85428 13.9016 7.85427 13.9015 7.85426 13.9014Z" fill="currentColor"/><path fill-rule="evenodd" clip-rule="evenodd" d="M7.62979 10.1447C8.01279 9.82783 8.5801 9.88148 8.89693 10.2645L10.1407 11.768C10.4575 12.151 10.4039 12.7183 10.0209 13.0352C9.63787 13.352 9.07055 13.2983 8.75373 12.9153L7.50996 11.4118C7.19314 11.0288 7.24679 10.4615 7.62979 10.1447Z" fill="currentColor"/><path fill-rule="evenodd" clip-rule="evenodd" d="M11.3062 9.36733C11.7277 9.63077 11.8558 10.186 11.5924 10.6075L10.2104 12.8187C9.94697 13.2402 9.39171 13.3683 8.97021 13.1049C8.54871 12.8414 8.42057 12.2862 8.68401 11.8647L10.066 9.65353C10.3294 9.23203 10.8847 9.10389 11.3062 9.36733Z" fill="currentColor"/><path fill-rule="evenodd" clip-rule="evenodd" d="M3.50002 10C4.0523 10 4.50002 10.4477 4.50002 11C4.50002 14.0893 6.93695 16.5683 9.9983 16.5683C13.0603 16.5683 15.5 14.0886 15.5 11C15.5 10.4477 15.9477 10 16.5 10C17.0523 10 17.5 10.4477 17.5 11C17.5 15.1665 14.1914 18.5683 9.9983 18.5683C5.80452 18.5683 2.50002 15.1658 2.50002 11C2.50002 10.4477 2.94773 10 3.50002 10Z" fill="currentColor"/><path fill-rule="evenodd" clip-rule="evenodd" d="M6.10005 4.70003C5.65822 4.36866 5.03142 4.4582 4.70005 4.90003C3.05477 7.09374 2.50005 9.81092 2.50005 11C2.50005 11.5523 2.94776 12 3.50005 12C4.05233 12 4.50005 11.5523 4.50005 11C4.50005 10.1891 4.94533 7.90632 6.30005 6.10003C6.63142 5.6582 6.54188 5.0314 6.10005 4.70003Z" fill="currentColor"/><path fill-rule="evenodd" clip-rule="evenodd" d="M13.3599 3.73176C13.7841 3.3782 14.4147 3.43552 14.7683 3.8598C16.1403 5.50629 16.8198 7.28109 17.1577 8.63245C17.3271 9.31004 17.4125 9.88847 17.4556 10.3026C17.4772 10.51 17.4883 10.677 17.494 10.7957C17.4969 10.8551 17.4984 10.9024 17.4992 10.9368L17.4999 10.9785L17.5 10.9918L17.5 10.9965L17.5 10.9984L17.5 10.9992C17.5 10.9996 17.5 11 16.5 11L17.5 11C17.5 11.5523 17.0523 12 16.5 12C15.9487 12 15.5015 11.5538 15.5 11.0028C15.5 11.0024 15.5 11.0019 15.5 11.0012L15.4997 10.9831C15.4993 10.9647 15.4983 10.9339 15.4963 10.8918C15.4923 10.8073 15.4838 10.6775 15.4664 10.5098C15.4314 10.174 15.3605 9.68992 15.2174 9.11752C14.9302 7.96888 14.3597 6.49367 13.2318 5.14017C12.8783 4.71589 12.9356 4.08533 13.3599 3.73176Z" fill="currentColor"/><path fill-rule="evenodd" clip-rule="evenodd" d="M4.98549 4.6425C5.45907 4.35836 6.07333 4.51192 6.35748 4.9855L7.85748 7.4855C8.14163 7.95908 7.98806 8.57334 7.51448 8.85749C7.0409 9.14164 6.42664 8.98807 6.14249 8.51449L4.64249 6.01449C4.35834 5.54091 4.51191 4.92665 4.98549 4.6425Z" fill="currentColor"/><path fill-rule="evenodd" clip-rule="evenodd" d="M8.78847 1.29747C9.1765 0.904466 9.80965 0.900439 10.2027 1.28847L9.50006 2.00006C10.2027 1.28847 10.2026 1.2884 10.2027 1.28847L10.2047 1.29053L10.209 1.29474L10.2237 1.30943L10.2766 1.36264C10.3217 1.40823 10.3857 1.47358 10.4636 1.55485C10.6191 1.717 10.8322 1.94461 11.0626 2.20671C11.5016 2.70614 12.0819 3.41763 12.3973 4.05851C12.6515 4.57517 12.9153 5.23722 13.1094 5.74978C13.208 6.01026 13.2916 6.24021 13.3506 6.40524C13.3802 6.48784 13.4037 6.55442 13.4199 6.60069L13.4386 6.65441L13.4454 6.67401C13.6251 7.19623 13.3477 7.76586 12.8255 7.9456C12.3033 8.12534 11.7343 7.84773 11.5545 7.32555L11.5534 7.32221L11.5492 7.31026L11.5324 7.26194C11.5175 7.21941 11.4954 7.15701 11.4675 7.07894C11.4116 6.92264 11.3323 6.70448 11.2389 6.4579C11.049 5.95631 10.8128 5.36835 10.6028 4.94153C10.4155 4.56082 9.99576 4.02233 9.56049 3.52718C9.35373 3.29199 9.16108 3.08616 9.02012 2.93918C8.94984 2.8659 8.89291 2.80777 8.85412 2.76852L8.81027 2.7244L8.79975 2.71392L8.79755 2.71174C8.40466 2.3237 8.40047 1.69043 8.78847 1.29747Z" fill="currentColor"/><path fill-rule="evenodd" clip-rule="evenodd" d="M9.54528 1.22522C10.1141 1.30473 10.5108 1.83034 10.4313 2.39918L9.40131 2.25521C10.4313 2.39918 10.4313 2.39908 10.4313 2.39918L10.4309 2.40221L10.43 2.40836L10.4269 2.42977L10.4154 2.50696C10.4053 2.57286 10.3906 2.66682 10.3712 2.78232C10.3326 3.01275 10.2751 3.33187 10.1996 3.68687C10.0558 4.36333 9.82283 5.28933 9.48418 5.95049C9.21118 6.4835 8.82284 7.11479 8.51586 7.59505C8.35985 7.83912 8.22 8.05172 8.11903 8.20348C8.06849 8.27944 8.02755 8.34038 7.99902 8.38265L7.96586 8.43165L7.95373 8.44948C7.62981 8.92381 6.98234 9.04628 6.50801 8.72236C6.0337 8.39846 5.91176 7.75138 6.23563 7.27706L6.2377 7.27402L6.2451 7.26314L6.27493 7.21907C6.30115 7.18022 6.33953 7.1231 6.38729 7.05131C6.48293 6.90757 6.6156 6.70588 6.76328 6.47483C7.06369 6.00485 7.40736 5.44258 7.6329 5.00225C7.83406 4.60951 8.0225 3.92492 8.16509 3.25428C8.23283 2.93573 8.28483 2.64716 8.31986 2.4383C8.33732 2.33415 8.35045 2.25055 8.35909 2.19382L8.36864 2.12983L8.37085 2.11455L8.3713 2.11136C8.45089 1.54259 8.97649 1.14571 9.54528 1.22522Z" fill="currentColor"/><path fill-rule="evenodd" clip-rule="evenodd" d="M14.5145 3.6425C14.041 3.35836 13.4267 3.51192 13.1426 3.9855L11.6426 6.4855C11.3584 6.95908 11.512 7.57334 11.9856 7.85749C12.4591 8.14164 13.0734 7.98807 13.3575 7.51449L14.8575 5.01449C15.1417 4.54091 14.9881 3.92665 14.5145 3.6425Z" fill="currentColor"/></svg>