<svg width="20" height="20" viewBox="0 0 26 26" fill="none" xmlns="http://www.w3.org/2000/svg"><defs><mask id="mask-pop-flag-straight-circle-filled"><rect width="26" height="26" fill="white"/><g transform="translate(3, 3)"><path fill-rule="evenodd" clip-rule="evenodd" d="M4.5 4V10H14.6587L13.4619 8.29029C12.9196 7.51557 12.9196 6.48443 13.4619 5.70971L14.6587 4H4.5ZM3.5 2C2.94772 2 2.5 2.44772 2.5 3V11C2.5 11.5523 2.94772 12 3.5 12H16.5793C17.3884 12 17.8625 11.0893 17.3986 10.4265L15.1004 7.14337C15.0401 7.05729 15.0401 6.94271 15.1004 6.85663L17.3986 3.57346C17.8625 2.91068 17.3884 2 16.5793 2H3.5Z" fill="black"/><path fill-rule="evenodd" clip-rule="evenodd" d="M3.5 3C4.05228 3 4.5 3.44772 4.5 4L4.5 17C4.5 17.5523 4.05228 18 3.5 18C2.94772 18 2.5 17.5523 2.5 17L2.5 4C2.5 3.44772 2.94772 3 3.5 3Z" fill="black"/></g></mask></defs><circle r="13" cx="13" cy="13" mask="url(#mask-pop-flag-straight-circle-filled)" fill="currentColor"/></svg>