<svg width="20" height="20" viewBox="0 0 20 20" fill="none" xmlns="http://www.w3.org/2000/svg"><path fill-rule="evenodd" clip-rule="evenodd" d="M6.80448 2.63235L6.16667 2.89616C4.85526 3.43858 4 4.71786 4 6.13702V10.5225C4 10.7701 4.06299 11.0136 4.18304 11.2301C4.57382 11.9348 5.46192 12.1894 6.16667 11.7986L6.39359 11.6727C7.60021 11.0037 9.06646 11.0037 10.2731 11.6727L10.7269 11.9244C11.9335 12.5935 13.3998 12.5935 14.6064 11.9244L15.3405 11.5173C16.3646 10.9495 17 9.87065 17 8.69964V4.63805C17 4.47989 16.9766 4.3226 16.9306 4.17129C16.6728 3.32398 15.7769 2.84607 14.9296 3.10386L14.0366 3.37555C13.1508 3.64503 12.199 3.5989 11.3435 3.24503L9.86219 2.63235C8.88317 2.22741 7.78349 2.22741 6.80448 2.63235ZM11.6968 10.1753L11.243 9.92365C9.6212 9.02438 7.68677 8.93089 6 9.64316V6.13702C6 5.52716 6.36754 4.9774 6.93109 4.74431L7.56891 4.4805C8.05841 4.27803 8.60825 4.27803 9.09776 4.4805L10.579 5.09318C11.8624 5.62399 13.2901 5.69318 14.6187 5.28896L15 5.17296V8.69964C15 9.14374 14.759 9.55287 14.3707 9.76823L13.6365 10.1753C13.0332 10.5098 12.3001 10.5098 11.6968 10.1753Z" fill="currentColor"/><rect x="4" y="2" width="2" height="16" rx="1" fill="currentColor"/></svg>