<svg width="20" height="20" viewBox="0 0 26 26" fill="none" xmlns="http://www.w3.org/2000/svg"><g transform="translate(3, 3)"><path fill-rule="evenodd" clip-rule="evenodd" d="M16.4899 13.7135C17.9689 13.1201 19 11.6725 19 10C19 8.32751 17.9689 6.87985 16.4899 6.28652C16.4966 6.19151 16.5 6.09596 16.5 6C16.5 3.79086 14.7091 2 12.5 2C11.5711 2 10.6958 2.31953 10 2.87701C9.30417 2.31953 8.42887 2 7.5 2C5.29086 2 3.5 3.79086 3.5 6C3.5 6.09596 3.5034 6.19151 3.51015 6.28652C2.03108 6.87985 1 8.32751 1 10C1 11.6725 2.03108 13.1201 3.51015 13.7135C3.5034 13.8085 3.5 13.904 3.5 14C3.5 16.2091 5.29086 18 7.5 18C8.42887 18 9.30417 17.6805 10 17.123C10.6958 17.6805 11.5711 18 12.5 18C14.7091 18 16.5 16.2091 16.5 14C16.5 13.904 16.4966 13.8085 16.4899 13.7135ZM14.3824 6.67818C14.1626 7.28797 14.5722 7.94249 15.2167 8.01152C16.2258 8.1196 17 8.97583 17 10C17 11.0242 16.2258 11.8804 15.2167 11.9885C14.5722 12.0575 14.1626 12.712 14.3824 13.3218C14.4599 13.5369 14.5 13.765 14.5 14C14.5 15.1046 13.6046 16 12.5 16C11.8214 16 11.2019 15.6605 10.8327 15.1052C10.4371 14.5101 9.56294 14.5101 9.16727 15.1052C8.79807 15.6605 8.17862 16 7.5 16C6.39543 16 5.5 15.1046 5.5 14C5.5 13.765 5.54013 13.5369 5.61762 13.3218C5.83737 12.712 5.42783 12.0575 4.78334 11.9885C3.77418 11.8804 3 11.0242 3 10C3 8.97583 3.77418 8.1196 4.78334 8.01152C5.42783 7.94249 5.83737 7.28797 5.61762 6.67818C5.54013 6.46315 5.5 6.23504 5.5 6C5.5 4.89543 6.39543 4 7.5 4C8.17862 4 8.79807 4.3395 9.16727 4.89478C9.56294 5.48988 10.4371 5.48988 10.8327 4.89478C11.2019 4.3395 11.8214 4 12.5 4C13.6046 4 14.5 4.89543 14.5 6C14.5 6.23504 14.4599 6.46315 14.3824 6.67818Z" fill="currentColor"/><path d="M13.5 10C13.5 11.933 11.933 13.5 10 13.5C8.067 13.5 6.5 11.933 6.5 10C6.5 8.067 8.067 6.5 10 6.5C11.933 6.5 13.5 8.067 13.5 10Z" fill="currentColor"/><path d="M1.29289 2.70711C0.902369 2.31658 0.902369 1.68342 1.29289 1.29289C1.68342 0.902368 2.31658 0.902368 2.70711 1.29289L18.7071 17.2929C19.0976 17.6834 19.0976 18.3166 18.7071 18.7071C18.3166 19.0976 17.6834 19.0976 17.2929 18.7071L1.29289 2.70711Z" fill="currentColor"/></g><path fill-rule="evenodd" clip-rule="evenodd" d="M13 24C19.0751 24 24 19.0751 24 13C24 6.92487 19.0751 2 13 2C6.92487 2 2 6.92487 2 13C2 19.0751 6.92487 24 13 24ZM13 26C20.1797 26 26 20.1797 26 13C26 5.8203 20.1797 0 13 0C5.8203 0 0 5.8203 0 13C0 20.1797 5.8203 26 13 26Z" fill="currentColor"/></svg>