<svg xmlns="http://www.w3.org/2000/svg" width="20" height="20" viewBox="0 0 20 20">
  <g fill="none" fill-rule="evenodd" stroke-linecap="round">
    <path stroke="#AB92F0" stroke-linejoin="round" stroke-width="2" d="M11.0172019,12.1768451 C11.1145,11.268373 11.6173311,10.4812269 12.3411024,10 C11.6173311,9.51877312 11.1145,8.73162704 11.0172019,7.82315485 C10.6995745,7.93761687 10.3570724,8 10,8 C9.64292758,8 9.30042551,7.93761687 8.98279805,7.82315485 C8.88550005,8.73162704 8.38266886,9.51877312 7.65889756,10 C8.38266886,10.4812269 8.88550005,11.268373 8.98279805,12.1768451 C9.30042551,12.0623831 9.64292758,12 10,12 C10.3570724,12 10.6995745,12.0623831 11.0172019,12.1768451 Z M12.9827981,15.3231549 C12.8216243,16.8280356 11.5476756,18 10,18 C8.45232439,18 7.17837573,16.8280356 7.01720195,15.3231549 C6.69957449,15.4376169 6.35707242,15.5 6,15.5 C4.34314575,15.5 3,14.1568542 3,12.5 C3,11.4565146 3.53275467,10.5374608 4.34110244,10 C3.53275467,9.46253923 3,8.54348538 3,7.5 C3,5.84314575 4.34314575,4.5 6,4.5 C6.35707242,4.5 6.69957449,4.56238313 7.01720195,4.67684515 C7.17837573,3.17196436 8.45232439,2 10,2 C11.5476756,2 12.8216243,3.17196436 12.9827981,4.67684515 C13.3004255,4.56238313 13.6429276,4.5 14,4.5 C15.6568542,4.5 17,5.84314575 17,7.5 C17,8.54348538 16.4672453,9.46253923 15.6588976,10 C16.4672453,10.5374608 17,11.4565146 17,12.5 C17,14.1568542 15.6568542,15.5 14,15.5 C13.6429276,15.5 13.3004255,15.4376169 12.9827981,15.3231549 Z" transform="rotate(-90 10 10)"/>
    <circle cx="10" cy="10" r="2.5" fill="#AB92F0" stroke="#AB92F0" stroke-width="2" transform="rotate(-90 10 10)"/>
  </g>
</svg>
