<svg width="20" height="20" viewBox="0 0 26 26" fill="none" xmlns="http://www.w3.org/2000/svg"><g transform="translate(3, 3)"><path fill-rule="evenodd" clip-rule="evenodd" d="M15.5 5H10.5089L9.94408 4.01158C9.40996 3.07686 8.41593 2.5 7.33935 2.5H4.5C2.84315 2.5 1.5 3.84315 1.5 5.5V15C1.5 16.6569 2.84315 18 4.5 18H15.5C17.1569 18 18.5 16.6569 18.5 15V8C18.5 6.34315 17.1569 5 15.5 5ZM4.5 16C3.94772 16 3.5 15.5523 3.5 15V5.5C3.5 4.94772 3.94772 4.5 4.5 4.5H7.33935C7.69821 4.5 8.02956 4.69229 8.2076 5.00386L9.06033 6.49614C9.23837 6.80771 9.56971 7 9.92857 7H15.5C16.0523 7 16.5 7.44772 16.5 8V15C16.5 15.5523 16.0523 16 15.5 16H4.5Z" fill="currentColor"/><path d="M1.29289 2.70711C0.902369 2.31658 0.902369 1.68342 1.29289 1.29289C1.68342 0.902368 2.31658 0.902368 2.70711 1.29289L18.7071 17.2929C19.0976 17.6834 19.0976 18.3166 18.7071 18.7071C18.3166 19.0976 17.6834 19.0976 17.2929 18.7071L1.29289 2.70711Z" fill="currentColor"/></g><path fill-rule="evenodd" clip-rule="evenodd" d="M13 24C19.0751 24 24 19.0751 24 13C24 6.92487 19.0751 2 13 2C6.92487 2 2 6.92487 2 13C2 19.0751 6.92487 24 13 24ZM13 26C20.1797 26 26 20.1797 26 13C26 5.8203 20.1797 0 13 0C5.8203 0 0 5.8203 0 13C0 20.1797 5.8203 26 13 26Z" fill="currentColor"/></svg>