<svg width="20" height="20" viewBox="0 0 26 26" fill="none" xmlns="http://www.w3.org/2000/svg"><g transform="translate(3, 3)"><path fill-rule="evenodd" clip-rule="evenodd" d="M10 12C11.1046 12 12 11.1046 12 10C12 8.89543 11.1046 8 10 8C8.89543 8 8 8.89543 8 10C8 11.1046 8.89543 12 10 12ZM10 14C12.2091 14 14 12.2091 14 10C14 7.79086 12.2091 6 10 6C7.79086 6 6 7.79086 6 10C6 12.2091 7.79086 14 10 14Z" fill="currentColor"/><path fill-rule="evenodd" clip-rule="evenodd" d="M13.5043 2.71039C14.2743 2.3254 15.2042 2.47631 15.813 3.08503L16.915 4.18705C17.5237 4.79577 17.6746 5.72571 17.2896 6.49569L16.9048 7.26523C16.6578 7.75921 16.0572 7.95944 15.5632 7.71245C15.0692 7.46546 14.869 6.86478 15.116 6.37081L15.5008 5.60126L14.3987 4.49925L13.6292 4.88402C13.1352 5.13101 12.5345 4.93078 12.2876 4.43681C12.0406 3.94283 12.2408 3.34215 12.7348 3.09516L13.5043 2.71039Z" fill="currentColor"/><path fill-rule="evenodd" clip-rule="evenodd" d="M15.6439 5.88763C16.1577 5.68521 16.7384 5.93767 16.9408 6.45153L17.4005 7.61832C17.6029 8.13217 17.3504 8.71283 16.8366 8.91525C16.3227 9.11767 15.7421 8.86521 15.5396 8.35136L15.08 7.18456C14.8776 6.67071 15.13 6.09006 15.6439 5.88763Z" fill="currentColor"/><path fill-rule="evenodd" clip-rule="evenodd" d="M17.6325 7.32342C18.4491 7.59565 19 8.35993 19 9.22079V10.7793C19 11.6401 18.4491 12.4044 17.6325 12.6766L16.8162 12.9487C16.2923 13.1234 15.726 12.8402 15.5513 12.3163C15.3767 11.7923 15.6598 11.226 16.1838 11.0513L17 10.7793V9.22079L16.1838 8.94871C15.6598 8.77406 15.3767 8.20774 15.5513 7.6838C15.726 7.15986 16.2923 6.8767 16.8162 7.05134L17.6325 7.32342Z" fill="currentColor"/><path fill-rule="evenodd" clip-rule="evenodd" d="M16.8988 11.0828C17.4053 11.303 17.6373 11.8922 17.4171 12.3986L16.9171 13.5487C16.6969 14.0552 16.1078 14.2872 15.6013 14.067C15.0948 13.8468 14.8627 13.2577 15.0829 12.7512L15.583 11.6012C15.8032 11.0947 16.3923 10.8626 16.8988 11.0828Z" fill="currentColor"/><path fill-rule="evenodd" clip-rule="evenodd" d="M17.2896 13.5043C17.6746 14.2743 17.5236 15.2042 16.9149 15.8129L15.8129 16.915C15.2042 17.5237 14.2742 17.6746 13.5043 17.2896L12.7347 16.9048C12.2407 16.6578 12.0405 16.0572 12.2875 15.5632C12.5345 15.0692 13.1352 14.869 13.6291 15.116L14.3987 15.5007L15.5007 14.3987L15.1159 13.6292C14.8689 13.1352 15.0692 12.5345 15.5631 12.2875C16.0571 12.0405 16.6578 12.2408 16.9048 12.7347L17.2896 13.5043Z" fill="currentColor"/><path fill-rule="evenodd" clip-rule="evenodd" d="M14.1124 15.6439C14.3148 16.1577 14.0624 16.7384 13.5485 16.9408L12.3817 17.4004C11.8679 17.6029 11.2872 17.3504 11.0848 16.8366C10.8824 16.3227 11.1348 15.742 11.6487 15.5396L12.8155 15.08C13.3293 14.8776 13.91 15.13 14.1124 15.6439Z" fill="currentColor"/><path fill-rule="evenodd" clip-rule="evenodd" d="M12.6766 17.6325C12.4044 18.4491 11.6401 19 10.7792 19H9.22076C8.3599 19 7.59562 18.4491 7.3234 17.6325L7.05132 16.8162C6.87667 16.2923 7.15983 15.726 7.68378 15.5513C8.20772 15.3767 8.77404 15.6598 8.94869 16.1838L9.22076 17H10.7792L11.0513 16.1838C11.226 15.6598 11.7923 15.3767 12.3162 15.5513C12.8402 15.726 13.1233 16.2923 12.9487 16.8162L12.6766 17.6325Z" fill="currentColor"/><path fill-rule="evenodd" clip-rule="evenodd" d="M8.91711 16.8987C8.6969 17.4052 8.10779 17.6373 7.60131 17.4171L6.45125 16.917C5.94477 16.6968 5.7127 16.1077 5.93292 15.6012C6.15313 15.0948 6.74223 14.8627 7.24871 15.0829L8.39878 15.583C8.90526 15.8032 9.13733 16.3923 8.91711 16.8987Z" fill="currentColor"/><path fill-rule="evenodd" clip-rule="evenodd" d="M6.49569 17.2896C5.72571 17.6746 4.79577 17.5237 4.18705 16.915L3.08503 15.813C2.47631 15.2042 2.32541 14.2743 2.71039 13.5043L3.09517 12.7348C3.34216 12.2408 3.94283 12.0406 4.43681 12.2876C4.93079 12.5345 5.13101 13.1352 4.88402 13.6292L4.49925 14.3987L5.60126 15.5008L6.37081 15.116C6.86479 14.869 7.46546 15.0692 7.71245 15.5632C7.95944 16.0572 7.75921 16.6578 7.26523 16.9048L6.49569 17.2896Z" fill="currentColor"/><path fill-rule="evenodd" clip-rule="evenodd" d="M4.35611 14.1124C3.84226 14.3148 3.2616 14.0623 3.05918 13.5485L2.59954 12.3817C2.39712 11.8678 2.64959 11.2872 3.16344 11.0847C3.67729 10.8823 4.25794 11.1348 4.46037 11.6486L4.92 12.8154C5.12243 13.3293 4.86996 13.9099 4.35611 14.1124Z" fill="currentColor"/><path fill-rule="evenodd" clip-rule="evenodd" d="M2.36754 12.6766C1.55086 12.4044 1 11.6401 1 10.7792V9.22073C1 8.35987 1.55086 7.59559 2.36754 7.32337L3.18377 7.05129C3.70772 6.87664 4.27404 7.1598 4.44868 7.68374C4.62333 8.20769 4.34017 8.77401 3.81623 8.94866L3 9.22073L3 10.7792L3.81623 11.0513C4.34017 11.2259 4.62333 11.7923 4.44868 12.3162C4.27404 12.8401 3.70772 13.1233 3.18377 12.9487L2.36754 12.6766Z" fill="currentColor"/><path fill-rule="evenodd" clip-rule="evenodd" d="M3.10122 8.91717C2.59474 8.69695 2.36267 8.10785 2.58288 7.60137L3.08292 6.4513C3.30314 5.94482 3.89224 5.71275 4.39872 5.93297C4.9052 6.15318 5.13727 6.74229 4.91706 7.24877L4.41702 8.39883C4.19681 8.90531 3.6077 9.13738 3.10122 8.91717Z" fill="currentColor"/><path fill-rule="evenodd" clip-rule="evenodd" d="M2.71032 6.4957C2.32533 5.72573 2.47624 4.79578 3.08496 4.18706L4.18697 3.08505C4.79569 2.47633 5.72563 2.32542 6.49561 2.71041L7.26516 3.09518C7.75914 3.34217 7.95936 3.94284 7.71237 4.43682C7.46538 4.9308 6.86471 5.13103 6.37073 4.88404L5.60118 4.49926L4.49917 5.60128L4.88394 6.37082C5.13093 6.8648 4.93071 7.46547 4.43673 7.71246C3.94275 7.95945 3.34208 7.75923 3.09509 7.26525L2.71032 6.4957Z" fill="currentColor"/><path fill-rule="evenodd" clip-rule="evenodd" d="M5.88747 4.35612C5.68504 3.84227 5.93751 3.26161 6.45136 3.05919L7.61815 2.59955C8.13201 2.39713 8.71266 2.64959 8.91508 3.16344C9.11751 3.6773 8.86504 4.25795 8.35119 4.46037L7.18439 4.92001C6.67054 5.12243 6.08989 4.86997 5.88747 4.35612Z" fill="currentColor"/><path fill-rule="evenodd" clip-rule="evenodd" d="M7.32339 2.36754C7.59562 1.55086 8.35989 1 9.22076 1H10.7792C11.6401 1 12.4044 1.55086 12.6766 2.36754L12.9487 3.18377C13.1233 3.70772 12.8402 4.27404 12.3162 4.44868C11.7923 4.62333 11.226 4.34017 11.0513 3.81623L10.7792 3H9.22076L8.94868 3.81623C8.77403 4.34017 8.20771 4.62333 7.68377 4.44868C7.15983 4.27404 6.87667 3.70772 7.05131 3.18377L7.32339 2.36754Z" fill="currentColor"/><path fill-rule="evenodd" clip-rule="evenodd" d="M11.0829 3.10125C11.3031 2.59477 11.8922 2.3627 12.3987 2.58292L13.5488 3.08295C14.0552 3.30317 14.2873 3.89227 14.0671 4.39875C13.8469 4.90523 13.2578 5.1373 12.7513 4.91709L11.6012 4.41705C11.0947 4.19684 10.8627 3.60773 11.0829 3.10125Z" fill="currentColor"/><path d="M1.29289 2.70711C0.902369 2.31658 0.902369 1.68342 1.29289 1.29289C1.68342 0.902368 2.31658 0.902368 2.70711 1.29289L18.7071 17.2929C19.0976 17.6834 19.0976 18.3166 18.7071 18.7071C18.3166 19.0976 17.6834 19.0976 17.2929 18.7071L1.29289 2.70711Z" fill="currentColor"/></g><path fill-rule="evenodd" clip-rule="evenodd" d="M13 24C19.0751 24 24 19.0751 24 13C24 6.92487 19.0751 2 13 2C6.92487 2 2 6.92487 2 13C2 19.0751 6.92487 24 13 24ZM13 26C20.1797 26 26 20.1797 26 13C26 5.8203 20.1797 0 13 0C5.8203 0 0 5.8203 0 13C0 20.1797 5.8203 26 13 26Z" fill="currentColor"/></svg>