<svg width="20" height="20" viewBox="0 0 20 20" fill="none" xmlns="http://www.w3.org/2000/svg"><path fill-rule="evenodd" clip-rule="evenodd" d="M10 12C11.1046 12 12 11.1046 12 10C12 8.89543 11.1046 8 10 8C8.89543 8 8 8.89543 8 10C8 11.1046 8.89543 12 10 12ZM10 14C12.2091 14 14 12.2091 14 10C14 7.79086 12.2091 6 10 6C7.79086 6 6 7.79086 6 10C6 12.2091 7.79086 14 10 14Z" fill="currentColor"/><path fill-rule="evenodd" clip-rule="evenodd" d="M13.5043 2.71039C14.2743 2.3254 15.2042 2.47631 15.8129 3.08503L16.915 4.18705C17.5237 4.79577 17.6746 5.72571 17.2896 6.49569L16.9048 7.26523C16.6578 7.75921 16.0572 7.95944 15.5632 7.71245C15.0692 7.46546 14.869 6.86478 15.116 6.37081L15.5007 5.60126L14.3987 4.49925L13.6292 4.88402C13.1352 5.13101 12.5345 4.93078 12.2875 4.43681C12.0405 3.94283 12.2408 3.34215 12.7347 3.09516L13.5043 2.71039Z" fill="currentColor"/><path fill-rule="evenodd" clip-rule="evenodd" d="M15.6439 5.88763C16.1577 5.68521 16.7384 5.93767 16.9408 6.45153L17.4004 7.61832C17.6029 8.13217 17.3504 8.71283 16.8366 8.91525C16.3227 9.11767 15.742 8.86521 15.5396 8.35136L15.08 7.18456C14.8776 6.67071 15.13 6.09006 15.6439 5.88763Z" fill="currentColor"/><path fill-rule="evenodd" clip-rule="evenodd" d="M17.6325 7.32342C18.4491 7.59565 19 8.35993 19 9.22079V10.7793C19 11.6401 18.4491 12.4044 17.6325 12.6766L16.8162 12.9487C16.2923 13.1234 15.726 12.8402 15.5513 12.3163C15.3767 11.7923 15.6598 11.226 16.1838 11.0513L17 10.7793V9.22079L16.1838 8.94871C15.6598 8.77406 15.3767 8.20774 15.5513 7.6838C15.726 7.15986 16.2923 6.8767 16.8162 7.05134L17.6325 7.32342Z" fill="currentColor"/><path fill-rule="evenodd" clip-rule="evenodd" d="M16.8987 11.0828C17.4052 11.303 17.6373 11.8922 17.4171 12.3986L16.917 13.5487C16.6968 14.0552 16.1077 14.2872 15.6012 14.067C15.0948 13.8468 14.8627 13.2577 15.0829 12.7512L15.583 11.6012C15.8032 11.0947 16.3923 10.8626 16.8987 11.0828Z" fill="currentColor"/><path fill-rule="evenodd" clip-rule="evenodd" d="M17.2896 13.5043C17.6746 14.2743 17.5237 15.2042 16.915 15.8129L15.813 16.915C15.2042 17.5237 14.2743 17.6746 13.5043 17.2896L12.7348 16.9048C12.2408 16.6578 12.0406 16.0572 12.2876 15.5632C12.5345 15.0692 13.1352 14.869 13.6292 15.116L14.3987 15.5007L15.5008 14.3987L15.116 13.6292C14.869 13.1352 15.0692 12.5345 15.5632 12.2875C16.0572 12.0405 16.6578 12.2408 16.9048 12.7347L17.2896 13.5043Z" fill="currentColor"/><path fill-rule="evenodd" clip-rule="evenodd" d="M14.1124 15.6439C14.3148 16.1577 14.0623 16.7384 13.5485 16.9408L12.3817 17.4004C11.8678 17.6029 11.2872 17.3504 11.0847 16.8366C10.8823 16.3227 11.1348 15.742 11.6486 15.5396L12.8154 15.08C13.3293 14.8776 13.9099 15.13 14.1124 15.6439Z" fill="currentColor"/><path fill-rule="evenodd" clip-rule="evenodd" d="M12.6766 17.6325C12.4044 18.4491 11.6401 19 10.7792 19H9.22073C8.35987 19 7.59559 18.4491 7.32337 17.6325L7.05129 16.8162C6.87664 16.2923 7.1598 15.726 7.68374 15.5513C8.20769 15.3767 8.77401 15.6598 8.94866 16.1838L9.22073 17H10.7792L11.0513 16.1838C11.2259 15.6598 11.7923 15.3767 12.3162 15.5513C12.8401 15.726 13.1233 16.2923 12.9487 16.8162L12.6766 17.6325Z" fill="currentColor"/><path fill-rule="evenodd" clip-rule="evenodd" d="M8.91717 16.8987C8.69695 17.4052 8.10785 17.6373 7.60137 17.4171L6.4513 16.917C5.94482 16.6968 5.71275 16.1077 5.93297 15.6012C6.15318 15.0948 6.74229 14.8627 7.24877 15.0829L8.39883 15.583C8.90531 15.8032 9.13738 16.3923 8.91717 16.8987Z" fill="currentColor"/><path fill-rule="evenodd" clip-rule="evenodd" d="M6.4957 17.2896C5.72573 17.6746 4.79578 17.5237 4.18706 16.915L3.08505 15.813C2.47633 15.2042 2.32542 14.2743 2.71041 13.5043L3.09518 12.7348C3.34217 12.2408 3.94284 12.0406 4.43682 12.2876C4.9308 12.5345 5.13103 13.1352 4.88404 13.6292L4.49926 14.3987L5.60128 15.5008L6.37082 15.116C6.8648 14.869 7.46547 15.0692 7.71246 15.5632C7.95945 16.0572 7.75923 16.6578 7.26525 16.9048L6.4957 17.2896Z" fill="currentColor"/><path fill-rule="evenodd" clip-rule="evenodd" d="M4.35612 14.1124C3.84227 14.3148 3.26161 14.0623 3.05919 13.5485L2.59955 12.3817C2.39713 11.8678 2.64959 11.2872 3.16344 11.0847C3.6773 10.8823 4.25795 11.1348 4.46037 11.6486L4.92001 12.8154C5.12243 13.3293 4.86997 13.9099 4.35612 14.1124Z" fill="currentColor"/><path fill-rule="evenodd" clip-rule="evenodd" d="M2.36754 12.6766C1.55086 12.4044 1 11.6401 1 10.7792V9.22073C1 8.35987 1.55086 7.59559 2.36754 7.32337L3.18377 7.05129C3.70772 6.87664 4.27404 7.1598 4.44868 7.68374C4.62333 8.20769 4.34017 8.77401 3.81623 8.94866L3 9.22073L3 10.7792L3.81623 11.0513C4.34017 11.2259 4.62333 11.7923 4.44868 12.3162C4.27404 12.8401 3.70772 13.1233 3.18377 12.9487L2.36754 12.6766Z" fill="currentColor"/><path fill-rule="evenodd" clip-rule="evenodd" d="M3.10125 8.91717C2.59477 8.69695 2.3627 8.10785 2.58292 7.60137L3.08295 6.4513C3.30317 5.94482 3.89227 5.71275 4.39875 5.93297C4.90523 6.15318 5.1373 6.74229 4.91709 7.24877L4.41705 8.39883C4.19684 8.90531 3.60773 9.13738 3.10125 8.91717Z" fill="currentColor"/><path fill-rule="evenodd" clip-rule="evenodd" d="M2.71027 6.4957C2.32528 5.72573 2.47619 4.79578 3.08491 4.18706L4.18692 3.08505C4.79564 2.47633 5.72559 2.32542 6.49556 2.71041L7.26511 3.09518C7.75909 3.34217 7.95931 3.94284 7.71232 4.43682C7.46534 4.9308 6.86466 5.13103 6.37068 4.88404L5.60114 4.49926L4.49912 5.60128L4.8839 6.37082C5.13089 6.8648 4.93066 7.46547 4.43668 7.71246C3.94271 7.95945 3.34203 7.75923 3.09504 7.26525L2.71027 6.4957Z" fill="currentColor"/><path fill-rule="evenodd" clip-rule="evenodd" d="M5.88751 4.35612C5.68509 3.84227 5.93755 3.26161 6.4514 3.05919L7.6182 2.59955C8.13205 2.39713 8.71271 2.64959 8.91513 3.16344C9.11755 3.6773 8.86509 4.25795 8.35124 4.46037L7.18444 4.92001C6.67059 5.12243 6.08993 4.86997 5.88751 4.35612Z" fill="currentColor"/><path fill-rule="evenodd" clip-rule="evenodd" d="M7.32342 2.36754C7.59565 1.55086 8.35993 1 9.22079 1H10.7793C11.6401 1 12.4044 1.55086 12.6766 2.36754L12.9487 3.18377C13.1234 3.70772 12.8402 4.27404 12.3163 4.44868C11.7923 4.62333 11.226 4.34017 11.0513 3.81623L10.7793 3H9.22079L8.94871 3.81623C8.77406 4.34017 8.20774 4.62333 7.6838 4.44868C7.15986 4.27404 6.8767 3.70772 7.05134 3.18377L7.32342 2.36754Z" fill="currentColor"/><path fill-rule="evenodd" clip-rule="evenodd" d="M11.0828 3.10125C11.303 2.59477 11.8922 2.3627 12.3986 2.58292L13.5487 3.08295C14.0552 3.30317 14.2872 3.89227 14.067 4.39875C13.8468 4.90523 13.2577 5.1373 12.7512 4.91709L11.6012 4.41705C11.0947 4.19684 10.8626 3.60773 11.0828 3.10125Z" fill="currentColor"/></svg>