<svg width="20" height="20" viewBox="0 0 26 26" fill="none" xmlns="http://www.w3.org/2000/svg"><defs><mask id="mask-pop-gift-circle-filled"><rect width="26" height="26" fill="white"/><g transform="translate(3, 3)"><rect x="9" y="7" width="2" height="11" fill="black"/><path fill-rule="evenodd" clip-rule="evenodd" d="M10.3558 6.99849C11.3338 5.87341 10.5775 3.56252 9.27133 2.4271C7.99196 1.31497 6.19888 1.1107 5.22936 2.22601C4.25984 3.34132 4.71166 5.08851 5.99103 6.20065C7.47088 7.48706 9.33811 8.1692 10.3558 6.99849ZM8.85139 5.68071C8.90576 5.62028 8.96323 5.5902 8.99265 5.58096C8.96384 5.57852 8.91043 5.57208 8.84578 5.55793C8.85776 5.62324 8.85885 5.66785 8.84796 5.68427L8.85139 5.68071ZM7.30315 4.69123C7.69094 5.02833 8.19019 5.33453 8.60454 5.4859C8.69551 5.51913 8.77701 5.54289 8.84578 5.55793C8.78477 5.22531 8.44134 4.35563 7.95921 3.93652C7.41923 3.46713 6.85625 3.40299 6.73878 3.53813C6.62131 3.67326 6.76317 4.22184 7.30315 4.69123Z" fill="black"/><path fill-rule="evenodd" clip-rule="evenodd" d="M9.8859 6.99849C8.90789 5.87341 9.66423 3.56252 10.9704 2.4271C12.2497 1.31497 14.0428 1.1107 15.0123 2.22601C15.9819 3.34132 15.53 5.08851 14.2507 6.20065C12.7708 7.48706 10.9036 8.1692 9.8859 6.99849ZM11.3903 5.68071C11.3359 5.62028 11.2785 5.5902 11.249 5.58096C11.2779 5.57852 11.3313 5.57208 11.3959 5.55793C11.3839 5.62324 11.3828 5.66785 11.3937 5.68427L11.3903 5.68071ZM12.9385 4.69123C12.5508 5.02833 12.0515 5.33453 11.6372 5.4859C11.5462 5.51913 11.4647 5.54289 11.3959 5.55793C11.4569 5.22531 11.8004 4.35563 12.2825 3.93652C12.8225 3.46713 13.3854 3.40299 13.5029 3.53813C13.6204 3.67326 13.4785 4.22184 12.9385 4.69123Z" fill="black"/><rect x="17" y="11" width="2" height="14" transform="rotate(90 17 11)" fill="black"/><path fill-rule="evenodd" clip-rule="evenodd" d="M3 6H17C17.5523 6 18 6.44772 18 7V18C18 18.5523 17.5523 19 17 19H3C2.44771 19 2 18.5523 2 18V7C2 6.44772 2.44771 6 3 6ZM16 17V8H4V17H16Z" fill="black"/></g></mask></defs><circle r="13" cx="13" cy="13" mask="url(#mask-pop-gift-circle-filled)" fill="currentColor"/></svg>