<svg width="20" height="20" viewBox="0 0 26 26" fill="none" xmlns="http://www.w3.org/2000/svg"><g transform="translate(3, 3)"><path d="M2.5 8C1.94772 8 1.5 7.55228 1.5 7C1.5 6.44772 1.94772 6 2.5 6H17.5C18.0523 6 18.5 6.44772 18.5 7C18.5 7.55228 18.0523 8 17.5 8H2.5Z" fill="currentColor"/><path d="M2.5 11.25C1.94772 11.25 1.5 10.8023 1.5 10.25C1.5 9.69772 1.94772 9.25 2.5 9.25H17.5C18.0523 9.25 18.5 9.69772 18.5 10.25C18.5 10.8023 18.0523 11.25 17.5 11.25H2.5Z" fill="currentColor"/><path d="M2.5 14.5C1.94772 14.5 1.5 14.0523 1.5 13.5C1.5 12.9477 1.94772 12.5 2.5 12.5H17.5C18.0523 12.5 18.5 12.9477 18.5 13.5C18.5 14.0523 18.0523 14.5 17.5 14.5H2.5Z" fill="currentColor"/></g><path fill-rule="evenodd" clip-rule="evenodd" d="M13 24C19.0751 24 24 19.0751 24 13C24 6.92487 19.0751 2 13 2C6.92487 2 2 6.92487 2 13C2 19.0751 6.92487 24 13 24ZM13 26C20.1797 26 26 20.1797 26 13C26 5.8203 20.1797 0 13 0C5.8203 0 0 5.8203 0 13C0 20.1797 5.8203 26 13 26Z" fill="currentColor"/></svg>