<svg width="20" height="20" viewBox="0 0 26 26" fill="none" xmlns="http://www.w3.org/2000/svg"><g transform="translate(3, 3)"><path fill-rule="evenodd" clip-rule="evenodd" d="M16.3926 13.8047C17.6807 13.977 18.496 14.6978 18.496 15.9707C18.496 17.4603 17.3825 18.2975 15.5789 18.6781C14.3977 18.9273 13.0457 18.9984 10.7025 19.0035C10.5147 19.0039 10.3642 19.004 10.0282 19.004H9.99603H9.96381C9.62786 19.004 9.47739 19.0039 9.28951 19.0035C6.94638 18.9984 5.59438 18.9273 4.4132 18.6781C2.60956 18.2975 1.49603 17.4603 1.49603 15.9707C1.49603 14.6978 2.31131 13.977 3.5994 13.8047C4.34932 13.7043 4.77922 13.7271 7.01146 13.9165C8.28024 14.0242 9.10265 14.0719 9.99603 14.0719C10.8894 14.0719 11.7118 14.0242 12.9806 13.9165C15.2128 13.7271 15.6427 13.7043 16.3926 13.8047ZM10.6982 17.0035C14.762 16.9948 16.496 16.6289 16.496 15.9707C16.496 15.92 16.4979 15.8886 16.4842 15.867C16.4585 15.8264 16.378 15.8205 16.1274 15.787C15.594 15.7157 15.1646 15.7384 13.1497 15.9094C11.829 16.0214 10.9591 16.0719 9.99603 16.0719C9.03294 16.0719 8.16309 16.0214 6.84237 15.9094C4.82745 15.7384 4.39803 15.7157 3.86462 15.787C3.61407 15.8205 3.53356 15.8264 3.50786 15.867C3.49418 15.8886 3.49603 15.92 3.49603 15.9707C3.49603 16.6289 5.23006 16.9948 9.29381 17.0035C9.47977 17.0039 9.62857 17.004 9.9638 17.004L9.99603 17.004L10.0283 17.004C10.3635 17.004 10.5123 17.0039 10.6982 17.0035Z" fill="currentColor"/><path d="M2.887 10.6424C2.53219 10.8562 2.07129 10.7418 1.85756 10.387C1.64382 10.0322 1.75819 9.57129 2.113 9.35756C2.78226 8.9544 3.50608 8.75 4.27059 8.75C4.79146 8.75 5.10019 8.84247 5.56693 9.0701L5.57882 9.0759C5.86725 9.21658 5.97953 9.25 6.25 9.25C6.51337 9.25 6.60676 9.22083 6.85951 9.08709L6.87097 9.08102C7.31358 8.84682 7.62078 8.75 8.14729 8.75C8.68251 8.75 8.99072 8.84947 9.43542 9.09084C9.68104 9.22415 9.7609 9.25 10 9.25C10.2388 9.25 10.3183 9.22426 10.5589 9.09345C11.0075 8.84961 11.3161 8.75 11.852 8.75C12.3817 8.75 12.6885 8.8467 13.139 9.08311L13.1443 9.08587C13.4023 9.22123 13.4939 9.25 13.75 9.25C14.0073 9.25 14.1022 9.22045 14.3653 9.08409C14.8249 8.84597 15.1316 8.75 15.6591 8.75C16.4138 8.75 17.1516 8.95039 17.8629 9.34364C18.2254 9.54405 18.3568 10.0004 18.1564 10.3629C17.9559 10.7254 17.4996 10.8568 17.1371 10.6564C16.6426 10.3829 16.1531 10.25 15.6591 10.25C15.4117 10.25 15.3206 10.2785 15.0615 10.4128L15.0554 10.4159C14.5978 10.653 14.2866 10.75 13.75 10.75C13.2122 10.75 12.9015 10.6524 12.4474 10.4141L12.4421 10.4114C12.1876 10.2778 12.0993 10.25 11.852 10.25C11.6055 10.25 11.5232 10.2766 11.2797 10.4089C10.8341 10.6512 10.5289 10.75 10 10.75C9.47095 10.75 9.16586 10.6512 8.72379 10.4113C8.47563 10.2766 8.39322 10.25 8.14729 10.25C7.90366 10.25 7.81782 10.2771 7.57252 10.4069L7.56106 10.4129C7.11071 10.6512 6.79449 10.75 6.25 10.75C5.71275 10.75 5.39638 10.6558 4.92128 10.4241L4.9094 10.4183C4.62925 10.2817 4.5235 10.25 4.27059 10.25C3.78102 10.25 3.32443 10.3789 2.887 10.6424Z" fill="currentColor"/><path d="M3 11.25H17C18.3333 11.25 18.3333 13.25 17 13.25H3C1.66667 13.25 1.66667 11.25 3 11.25Z" fill="currentColor"/><path fill-rule="evenodd" clip-rule="evenodd" d="M16.1732 8.20945C17.6372 7.87771 18.4999 6.98233 18.4999 5.51412C18.4999 2.40364 14.7363 0.401175 9.99988 0.401175C5.26346 0.401175 1.49988 2.40364 1.49988 5.51412C1.49988 6.98233 2.3626 7.87771 3.82652 8.20945C4.75693 8.4203 5.55609 8.43314 7.98584 8.36359C8.90621 8.33724 9.41604 8.32682 9.99988 8.32682C10.5837 8.32682 11.0935 8.33724 12.0139 8.36359C14.4437 8.43314 15.2428 8.4203 16.1732 8.20945ZM9.99988 2.40118C13.7779 2.40118 16.4999 3.84946 16.4999 5.51412C16.4999 5.96226 16.3489 6.11893 15.7312 6.25891C15.0385 6.41589 14.2899 6.42792 12.0711 6.36441C11.1327 6.33755 10.6081 6.32682 9.99988 6.32682C9.39164 6.32682 8.86703 6.33755 7.92861 6.36441C5.7099 6.42792 4.96125 6.41589 4.26854 6.25891C3.65083 6.11893 3.49988 5.96226 3.49988 5.51412C3.49988 3.84946 6.22188 2.40118 9.99988 2.40118Z" fill="currentColor"/><path d="M6.1 5C6.1 5.33137 5.83137 5.6 5.5 5.6C5.16863 5.6 4.9 5.33137 4.9 5C4.9 4.66863 5.16863 4.4 5.5 4.4C5.83137 4.4 6.1 4.66863 6.1 5Z" fill="currentColor"/><path d="M8.6 4C8.6 4.33137 8.33137 4.6 8 4.6C7.66863 4.6 7.4 4.33137 7.4 4C7.4 3.66863 7.66863 3.4 8 3.4C8.33137 3.4 8.6 3.66863 8.6 4Z" fill="currentColor"/><path d="M10.6 5.5C10.6 5.83137 10.3314 6.1 9.99999 6.1C9.66862 6.1 9.39999 5.83137 9.39999 5.5C9.39999 5.16863 9.66862 4.9 9.99999 4.9C10.3314 4.9 10.6 5.16863 10.6 5.5Z" fill="currentColor"/><path d="M12.6 4C12.6 4.33137 12.3314 4.6 12 4.6C11.6686 4.6 11.4 4.33137 11.4 4C11.4 3.66863 11.6686 3.4 12 3.4C12.3314 3.4 12.6 3.66863 12.6 4Z" fill="currentColor"/><path d="M15.1 5C15.1 5.33137 14.8314 5.6 14.5 5.6C14.1686 5.6 13.9 5.33137 13.9 5C13.9 4.66863 14.1686 4.4 14.5 4.4C14.8314 4.4 15.1 4.66863 15.1 5Z" fill="currentColor"/></g><path fill-rule="evenodd" clip-rule="evenodd" d="M13 24C19.0751 24 24 19.0751 24 13C24 6.92487 19.0751 2 13 2C6.92487 2 2 6.92487 2 13C2 19.0751 6.92487 24 13 24ZM13 26C20.1797 26 26 20.1797 26 13C26 5.8203 20.1797 0 13 0C5.8203 0 0 5.8203 0 13C0 20.1797 5.8203 26 13 26Z" fill="currentColor"/></svg>