<svg width="20" height="20" viewBox="0 0 26 26" fill="none" xmlns="http://www.w3.org/2000/svg"><g transform="translate(3, 3)"><g><path fill-rule="evenodd" clip-rule="evenodd" d="M8.63157 1.70329C9.00387 1.65971 9.38092 1.72163 9.71973 1.88199L13.5279 3.68445C14.5263 4.157 14.9526 5.34942 14.48 6.34781L13.4105 8.60748C12.9379 9.60586 11.7455 10.0321 10.7471 9.55959L7.40533 7.97788C7.04844 7.80895 6.74953 7.53817 6.54628 7.19965L6.19614 6.6165L5.24638 6.95602C3.56856 7.55582 2.00312 5.82764 2.7654 4.21712L3.20671 3.28474C3.50172 2.66146 4.09701 2.23411 4.78191 2.15393L8.63157 1.70329ZM12.6723 5.49219L8.8641 3.68973L5.01444 4.14037L4.57314 5.07274L5.5229 4.73322C6.42062 4.41229 7.42007 4.76963 7.91082 5.58698L8.26095 6.17014L11.6028 7.75186L12.6723 5.49219Z" fill="currentColor"/><path fill-rule="evenodd" clip-rule="evenodd" d="M13.79 5.46814C14.2626 4.46975 15.455 4.04348 16.4534 4.51602L17.3573 4.94384C18.3556 5.41638 18.7819 6.60881 18.3094 7.60719L16.5981 11.2227C16.1256 12.2211 14.9332 12.6473 13.9348 12.1748L13.0309 11.747C12.0325 11.2744 11.6062 10.082 12.0788 9.08361L13.79 5.46814ZM16.5016 6.75157L15.5978 6.32376L13.8865 9.93923L14.7904 10.367L16.5016 6.75157Z" fill="currentColor"/><path fill-rule="evenodd" clip-rule="evenodd" d="M9.15329 8.25211L5.30298 16.3869L6.20685 16.8147L10.0572 8.67992L11.8649 9.53554L8.01458 17.6704C7.54204 18.6687 6.34961 19.095 5.35123 18.6225L4.44736 18.1947C3.44897 17.7221 3.0227 16.5297 3.49525 15.5313L7.34555 7.39648L9.15329 8.25211Z" fill="currentColor"/></g></g><path fill-rule="evenodd" clip-rule="evenodd" d="M13 24C19.0751 24 24 19.0751 24 13C24 6.92487 19.0751 2 13 2C6.92487 2 2 6.92487 2 13C2 19.0751 6.92487 24 13 24ZM13 26C20.1797 26 26 20.1797 26 13C26 5.8203 20.1797 0 13 0C5.8203 0 0 5.8203 0 13C0 20.1797 5.8203 26 13 26Z" fill="currentColor"/></svg>