<svg width="20" height="20" viewBox="0 0 20 20" fill="none" xmlns="http://www.w3.org/2000/svg"><g><path fill-rule="evenodd" clip-rule="evenodd" d="M10.0333 0.555379C10.478 0.558503 10.9091 0.70978 11.2582 0.98529L18.1211 6.40093C18.4703 6.67644 18.7176 7.06046 18.824 7.49229L19.0147 8.26577C19.1624 8.86501 19.0252 9.49889 18.6429 9.98338L16.1515 13.1406C15.7691 13.6251 15.1845 13.9059 14.5674 13.9016L13.7708 13.896C13.326 13.8929 12.895 13.7416 12.5459 13.4661L5.68296 8.05047C5.33382 7.77496 5.08647 7.39093 4.98003 6.9591L4.78936 6.18563C4.64165 5.58638 4.77887 4.95251 5.1612 4.46801L7.6526 1.31079C8.03493 0.826292 8.61953 0.545446 9.23669 0.549782L10.0333 0.555379ZM16.8822 7.97096L10.0193 2.55533L9.22264 2.54973L6.73123 5.70695L6.9219 6.48043L13.7848 11.8961L14.5814 11.9017L17.0728 8.74444L16.8822 7.97096Z" fill="currentColor"/><path fill-rule="evenodd" clip-rule="evenodd" d="M9.02777 10.061L3.76615 16.7287L4.55117 17.3482L9.81279 10.6804L11.3828 11.9194L6.12121 18.5871C5.43697 19.4542 4.17934 19.6025 3.31223 18.9182L2.52721 18.2987C1.6601 17.6145 1.51187 16.3569 2.19611 15.4898L7.45773 8.82202L9.02777 10.061Z" fill="currentColor"/><path fill-rule="evenodd" clip-rule="evenodd" d="M13.5189 4.36956L14.4481 3.19201L15.2332 3.81148L14.3039 4.98903L15.874 6.22797L16.8032 5.05043C17.4874 4.18332 17.3392 2.92569 16.4721 2.24144L15.6871 1.62197C14.82 0.937725 13.5623 1.08596 12.8781 1.95307L11.9489 3.13062L13.5189 4.36956Z" fill="currentColor"/></g></svg>