<svg width="20" height="20" viewBox="0 0 26 26" fill="none" xmlns="http://www.w3.org/2000/svg"><defs><mask id="mask-pop-hands-clapping-checkmark-circle-filled"><rect width="26" height="26" fill="white"/><g transform="translate(3, 3)"><g><path fill-rule="evenodd" clip-rule="evenodd" d="M3.93835 0.672662C4.39529 0.362467 5.01718 0.481431 5.32737 0.938375L6.53392 2.71572C6.84411 3.17266 6.72515 3.79455 6.2682 4.10475C5.81126 4.41494 5.18937 4.29598 4.87918 3.83903L3.67263 2.06169C3.36244 1.60474 3.4814 0.982856 3.93835 0.672662Z" fill="black"/><path fill-rule="evenodd" clip-rule="evenodd" d="M12.4545 0.609309C11.9626 0.358274 11.3603 0.553561 11.1093 1.0455L10.2023 2.82284C9.95126 3.31477 10.1465 3.91707 10.6385 4.16811C11.1304 4.41914 11.7327 4.22385 11.9837 3.73192L12.8907 1.95458C13.1418 1.46264 12.9465 0.860344 12.4545 0.609309Z" fill="black"/><path fill-rule="evenodd" clip-rule="evenodd" d="M8.30958 5.70238e-05C8.86186 5.69982e-05 9.30958 0.447772 9.30958 1.00006L9.30958 2.7774C9.30958 3.32969 8.86186 3.7774 8.30958 3.7774C7.75729 3.7774 7.30958 3.32969 7.30958 2.7774L7.30958 1.00006C7.30958 0.447772 7.75729 5.70495e-05 8.30958 5.70238e-05Z" fill="black"/><path fill-rule="evenodd" clip-rule="evenodd" d="M9.96616 6.92922C9.98738 6.7308 10.0406 6.53813 10.1227 6.35851C10.0943 6.33638 10.0671 6.31193 10.0415 6.28517L9.55723 5.77979C9.4617 5.6801 9.30345 5.67673 9.20376 5.77226C9.10407 5.86778 9.10069 6.02604 9.19622 6.12573L9.96616 6.92922ZM11.2217 5.3728C11.6373 5.23474 12.0787 5.25355 12.4701 5.40561C12.6159 5.17901 12.8147 4.983 13.0592 4.83797C13.9688 4.29856 15.1453 4.6659 15.5864 5.62704L16.3396 7.26832C16.3561 7.29761 16.371 7.32836 16.3838 7.36049L17.9066 11.171C18.1 11.655 18.2132 12.1592 18.2485 12.6655C18.7214 13.3225 19 14.1287 19 15C19 17.2091 17.2091 19 15 19C14.2987 19 13.6396 18.8195 13.0666 18.5025L12.5502 18.6482C12.5199 18.6567 12.4895 18.6633 12.4591 18.668C12.1418 18.7994 11.8115 18.8975 11.4736 18.9607C10.5129 19.1403 9.52054 19.0318 8.62137 18.6488L8.58719 18.6343C7.95575 18.3653 7.38537 17.9712 6.91052 17.4756L6.05638 16.5843L5.79422 16.3107L4.49967 14.9597L4.49913 14.9592L3.02675 13.4226C2.35806 12.7248 2.38168 11.617 3.07951 10.9483C3.14079 10.8896 3.20524 10.8362 3.27228 10.7881L3.08705 10.5948C2.41836 9.89698 2.44199 8.7892 3.13982 8.12051C3.23858 8.02587 3.34555 7.9451 3.45832 7.87815C3.22815 7.24611 3.37516 6.51 3.892 6.01474C4.40883 5.51949 5.15055 5.404 5.7722 5.66091C5.8439 5.55109 5.92915 5.44766 6.02791 5.35303C6.54492 4.85761 7.28694 4.74221 7.90871 4.99944C7.98073 4.88875 8.06649 4.78453 8.16595 4.68922C8.86379 4.02053 9.97157 4.04416 10.6403 4.74199L11.1245 5.24737C11.162 5.28645 11.1944 5.32853 11.2217 5.3728ZM15.0139 7.97477L16.3107 11.2197C16.0345 11.1239 15.7446 11.0576 15.4447 11.0244L14.3518 8.28954C14.3444 8.24246 14.3323 8.1954 14.3154 8.14892L13.7036 6.46587C13.6574 6.33891 13.7081 6.19707 13.8243 6.12816C13.9679 6.04305 14.1535 6.10101 14.2231 6.25266L15.0015 7.9489C15.0055 7.95764 15.0096 7.96626 15.0139 7.97477ZM12.8759 8.63857L13.8828 11.1581C12.2173 11.6416 11 13.1786 11 15C11 15.8712 11.2785 16.6774 11.7514 17.3343C11.5716 17.4001 11.3865 17.451 11.1979 17.4862C10.5281 17.6115 9.83611 17.5358 9.20913 17.2688L9.17496 17.2542C8.73003 17.0647 8.32814 16.787 7.99355 16.4378L7.13941 15.5465L6.87726 15.2729L5.58271 13.9219L4.10978 12.3848C4.01425 12.2851 4.01763 12.1269 4.11732 12.0313C4.2173 11.9355 4.3749 11.9392 4.47007 12.0381L4.47039 12.0384L5.85453 13.4829C5.89035 13.5203 5.92912 13.5532 5.97011 13.5815C6.25706 13.7799 6.65326 13.7563 6.91495 13.5055C7.21402 13.2189 7.22415 12.7442 6.93756 12.4451L5.55343 11.0006L5.5528 11L4.17009 9.55701C4.07456 9.45732 4.07793 9.29907 4.17762 9.20354C4.27727 9.10805 4.43543 9.11138 4.53097 9.21095L4.5311 9.21108L6.60671 11.3771L7.29858 12.0992C7.58516 12.3982 8.05992 12.4084 8.35899 12.1218C8.65807 11.8352 8.66819 11.3604 8.38161 11.0614L7.69005 10.3397L7.68974 10.3393L5.61413 8.17327L4.92226 7.45125C4.82673 7.35156 4.83011 7.1933 4.9298 7.09778C5.02949 7.00225 5.18775 7.00563 5.28327 7.10532L5.97514 7.82734L8.05075 9.99341L8.05106 9.99373L8.74262 10.7154C9.0292 11.0145 9.50397 11.0246 9.80304 10.738C10.1021 10.4515 10.1122 9.9767 9.82565 9.67762L9.13409 8.95593L9.13379 8.9556L7.05818 6.78953L7.058 6.78935C6.96265 6.68965 6.96609 6.53153 7.06571 6.43606C7.16541 6.34053 7.32366 6.34391 7.41919 6.4436L10.5047 9.66359C10.6706 9.90677 10.9721 10.0392 11.2781 9.97521C11.6836 9.89042 11.9435 9.49301 11.8587 9.08757L11.4631 7.19592C11.4329 7.0514 11.498 6.90366 11.625 6.82835C11.8013 6.7238 12.0293 6.79499 12.1148 6.98128L12.8634 8.61271C12.8674 8.62144 12.8716 8.63006 12.8759 8.63857ZM16.8749 13.1504C17.2336 13.3574 17.3567 13.8161 17.1497 14.1748L15.653 16.7692C15.6495 16.7753 15.6459 16.7814 15.6423 16.7875C15.5828 16.8861 15.5041 16.9663 15.4137 17.0259C15.3488 17.0688 15.2782 17.1008 15.2047 17.1216C15.0766 17.158 14.939 17.1604 14.8065 17.1249C14.7315 17.1049 14.6586 17.0729 14.5906 17.0285C14.5759 17.0189 14.5617 17.009 14.5479 16.9986L13.0565 15.9049C12.7225 15.6599 12.6503 15.1906 12.8952 14.8565C13.1402 14.5225 13.6095 14.4503 13.9435 14.6952L14.7687 15.3003L15.8504 13.4253C16.0574 13.0665 16.5161 12.9434 16.8749 13.1504Z" fill="black"/></g></g></mask></defs><circle r="13" cx="13" cy="13" mask="url(#mask-pop-hands-clapping-checkmark-circle-filled)" fill="currentColor"/></svg>