<svg width="20" height="20" viewBox="0 0 20 20" fill="none" xmlns="http://www.w3.org/2000/svg"><g><path fill-rule="evenodd" clip-rule="evenodd" d="M3.08704 10.5948C2.41835 9.897 2.44197 8.78922 3.13981 8.12053C3.83764 7.45184 4.94543 7.47546 5.61412 8.1733L8.3816 11.0614C8.66818 11.3605 8.65805 11.8352 8.35898 12.1218C8.05991 12.4084 7.58514 12.3983 7.29856 12.0992L4.53108 9.2111C4.43556 9.11141 4.2773 9.10803 4.17761 9.20356C4.07792 9.29909 4.07454 9.45734 4.17007 9.55703L6.93755 12.4451C7.22413 12.7442 7.21401 13.219 6.91494 13.5055C6.61586 13.7921 6.1411 13.782 5.85452 13.4829L3.08704 10.5948Z" fill="currentColor"/><path fill-rule="evenodd" clip-rule="evenodd" d="M3.83922 8.48913C3.17053 7.79129 3.19415 6.6835 3.89199 6.01481C4.58982 5.34612 5.69761 5.36975 6.3663 6.06758L9.13378 8.95567C9.42036 9.25474 9.41023 9.72951 9.11116 10.0161C8.81209 10.3027 8.33733 10.2925 8.05074 9.99348L5.28327 7.10539C5.18774 7.0057 5.02948 7.00232 4.92979 7.09785C4.8301 7.19338 4.82673 7.35163 4.92225 7.45132L7.68973 10.3394C7.97631 10.6385 7.96619 11.1132 7.66712 11.3998C7.36805 11.6864 6.89328 11.6763 6.6067 11.3772L3.83922 8.48913Z" fill="currentColor"/><path fill-rule="evenodd" clip-rule="evenodd" d="M5.97513 7.82738C5.30644 7.12955 5.33006 6.02176 6.0279 5.35307C6.72573 4.68438 7.83352 4.70801 8.50221 5.40584L11.618 8.65747C11.9046 8.95654 11.8945 9.4313 11.5954 9.71788C11.2964 10.0045 10.8216 9.99434 10.535 9.69527L7.41918 6.44364C7.32365 6.34395 7.16539 6.34058 7.0657 6.43611C6.96601 6.53163 6.96264 6.68989 7.05816 6.78958L9.82564 9.67767C10.1122 9.97674 10.1021 10.4515 9.80303 10.7381C9.50396 11.0247 9.02919 11.0145 8.74261 10.7155L5.97513 7.82738Z" fill="currentColor"/><path fill-rule="evenodd" clip-rule="evenodd" d="M9.9949 7.50307C9.83335 6.73055 10.181 5.94082 10.8598 5.53825C11.8022 4.9794 13.0211 5.35998 13.4781 6.35576L14.2267 7.98718C14.3995 8.36365 14.2344 8.80888 13.8579 8.98164C13.4814 9.1544 13.0362 8.98927 12.8634 8.6128L12.1148 6.98138C12.0293 6.79509 11.8012 6.72389 11.6249 6.82844C11.498 6.90375 11.4329 7.0515 11.4631 7.19602L11.8587 9.08766C11.9435 9.49311 11.6836 9.89052 11.2781 9.97531C10.8727 10.0601 10.4753 9.80015 10.3905 9.39471L9.9949 7.50307Z" fill="currentColor"/><path fill-rule="evenodd" clip-rule="evenodd" d="M4.52228 13.8993C4.82135 13.6127 5.29611 13.6229 5.58269 13.9219L7.99354 16.4378C8.32813 16.787 8.73002 17.0647 9.17494 17.2542L9.20912 17.2688C9.8361 17.5358 10.528 17.6115 11.1979 17.4863C11.4771 17.4341 11.7488 17.3476 12.0068 17.229L12.1455 17.1652C12.6195 16.9472 13.0537 16.6516 13.4304 16.2907L13.5576 16.1688C13.7193 16.0139 13.8655 15.8436 13.9943 15.6603C14.6654 14.7051 14.8088 13.4755 14.3756 12.3914L12.8529 8.58094C12.6991 8.1963 12.8863 7.75989 13.271 7.60618C13.6556 7.45247 14.092 7.63967 14.2457 8.02431L15.7685 11.8348C16.3898 13.3895 16.1841 15.1527 15.2216 16.5226C15.037 16.7854 14.8273 17.0297 14.5954 17.2519L14.4682 17.3738C13.971 17.8501 13.3979 18.2402 12.7723 18.5279L12.6336 18.5917C12.2636 18.7619 11.8739 18.8859 11.4735 18.9607C10.5129 19.1403 9.52053 19.0318 8.62136 18.6488L8.58718 18.6343C7.95574 18.3653 7.38536 17.9712 6.91051 17.4756L4.49966 14.9597C4.21308 14.6607 4.2232 14.1859 4.52228 13.8993Z" fill="currentColor"/><path fill-rule="evenodd" clip-rule="evenodd" d="M3.02674 13.4226C2.35804 12.7248 2.38167 11.617 3.0795 10.9483C3.77693 10.28 4.88434 10.3024 5.55342 11.0006L6.93755 12.4451C7.22414 12.7442 7.21401 13.2189 6.91494 13.5055C6.61587 13.7921 6.1411 13.782 5.85452 13.4829L4.47038 12.0384C4.37524 11.9392 4.21741 11.9354 4.11731 12.0313C4.01762 12.1268 4.01424 12.2851 4.10977 12.3848L6.87725 15.2729C7.16383 15.572 7.1537 16.0467 6.85463 16.3333C6.55556 16.6199 6.0808 16.6098 5.79421 16.3107L3.02674 13.4226Z" fill="currentColor"/><path fill-rule="evenodd" clip-rule="evenodd" d="M8.11318 7.16356C7.44449 6.46573 7.46811 5.35794 8.16594 4.68925C8.86378 4.02056 9.97156 4.04419 10.6403 4.74202L11.1245 5.2474C11.4111 5.54647 11.401 6.02124 11.1019 6.30782C10.8028 6.5944 10.3281 6.58428 10.0415 6.28521L9.55722 5.77982C9.46169 5.68013 9.30344 5.67676 9.20375 5.77229C9.10406 5.86781 9.10068 6.02607 9.19621 6.12576L10.5799 7.5698C10.8665 7.86888 10.8564 8.34364 10.5573 8.63022C10.2583 8.91681 9.7835 8.90668 9.49692 8.60761L8.11318 7.16356Z" fill="currentColor"/><path fill-rule="evenodd" clip-rule="evenodd" d="M12.2938 6.97841C12.0013 6.17372 12.3228 5.27475 13.0592 4.83801C13.9688 4.29859 15.1453 4.66594 15.5864 5.62707L16.3648 7.32331C16.5375 7.69978 16.3724 8.14502 15.9959 8.31778C15.6195 8.49054 15.1742 8.3254 15.0015 7.94894L14.2231 6.25269C14.1535 6.10105 13.9678 6.04309 13.8243 6.1282C13.7081 6.1971 13.6574 6.33894 13.7036 6.4659L14.3154 8.14896C14.457 8.53825 14.2561 8.96855 13.8668 9.11008C13.4775 9.2516 13.0472 9.05075 12.9057 8.66146L12.2938 6.97841Z" fill="currentColor"/><path fill-rule="evenodd" clip-rule="evenodd" d="M15.409 6.94243C15.7937 6.78872 16.2301 6.97593 16.3838 7.36057L17.9065 11.1711C18.5278 12.7257 18.3221 14.489 17.3597 15.8589C17.175 16.1217 16.9653 16.3659 16.7334 16.5881L16.6318 16.6855C16.1177 17.1781 15.525 17.5815 14.8782 17.879L14.7568 17.9348C14.4164 18.0914 14.0644 18.2211 13.7039 18.3228L12.5502 18.6483C12.1515 18.7607 11.7372 18.5287 11.6247 18.1301C11.5122 17.7314 11.7442 17.3171 12.1429 17.2046L13.2966 16.8792C13.582 16.7986 13.8606 16.696 14.13 16.5721L14.2514 16.5162C14.7466 16.2884 15.2004 15.9796 15.594 15.6025L15.6956 15.5051C15.8573 15.3501 16.0036 15.1798 16.1323 14.9966C16.8034 14.0413 16.9469 12.8118 16.5136 11.7277L14.9909 7.9172C14.8372 7.53256 15.0244 7.09614 15.409 6.94243Z" fill="currentColor"/><path fill-rule="evenodd" clip-rule="evenodd" d="M3.93833 0.672662C4.39527 0.362467 5.01716 0.481431 5.32736 0.938375L6.5339 2.71572C6.8441 3.17266 6.72513 3.79455 6.26819 4.10475C5.81124 4.41494 5.18936 4.29598 4.87916 3.83903L3.67262 2.06169C3.36242 1.60474 3.48139 0.982856 3.93833 0.672662Z" fill="currentColor"/><path fill-rule="evenodd" clip-rule="evenodd" d="M12.4545 0.609309C11.9626 0.358274 11.3603 0.553561 11.1093 1.0455L10.2023 2.82284C9.95125 3.31477 10.1465 3.91707 10.6385 4.16811C11.1304 4.41914 11.7327 4.22385 11.9837 3.73192L12.8907 1.95458C13.1418 1.46264 12.9465 0.860344 12.4545 0.609309Z" fill="currentColor"/><path fill-rule="evenodd" clip-rule="evenodd" d="M8.30956 5.70238e-05C8.86185 5.69982e-05 9.30956 0.447772 9.30956 1.00006L9.30956 2.7774C9.30956 3.32969 8.86184 3.7774 8.30956 3.7774C7.75728 3.7774 7.30956 3.32969 7.30956 2.7774L7.30956 1.00006C7.30956 0.447772 7.75728 5.70371e-05 8.30956 5.70238e-05Z" fill="currentColor"/></g></svg>