<svg width="22" height="20" viewBox="0 0 22 20" fill="none" xmlns="http://www.w3.org/2000/svg">
<path fill-rule="evenodd" clip-rule="evenodd" d="M20.5981 9.42822C21.0764 9.15208 21.2403 8.54049 20.9641 8.0622L17.9641 2.86604C17.688 2.38775 17.0764 2.22388 16.5981 2.50002L14.866 3.50002C14.3877 3.77616 14.2239 4.38775 14.5 4.86605L17.5 10.0622C17.7762 10.5405 18.3877 10.7044 18.866 10.4282L20.5981 9.42822ZM16.3571 4.08255C15.9983 4.28966 15.8754 4.74835 16.0825 5.10707C16.2896 5.46579 16.7483 5.5887 17.1071 5.38159C17.4658 5.17448 17.5887 4.71579 17.3816 4.35707C17.1745 3.99835 16.7158 3.87544 16.3571 4.08255Z" fill="currentColor"/>
<path fill-rule="evenodd" clip-rule="evenodd" d="M5.36603 2.75C4.88773 2.47386 4.27614 2.63773 4 3.11603L1 8.31218C0.723858 8.79047 0.887733 9.40206 1.36603 9.6782L3.09808 10.6782C3.57637 10.9543 4.18796 10.7905 4.4641 10.3122L7.4641 5.11603C7.74024 4.63773 7.57637 4.02614 7.09808 3.75L5.36603 2.75ZM2.85705 9.09567C3.21577 9.30278 3.67446 9.17987 3.88157 8.82115C4.08868 8.46243 3.96577 8.00374 3.60705 7.79663C3.24833 7.58953 2.78964 7.71243 2.58253 8.07115C2.37543 8.42987 2.49833 8.88856 2.85705 9.09567Z" fill="currentColor"/>
<path d="M15.9916 4.37025C16.0632 4.91782 15.6774 5.41981 15.1299 5.49153L15.1265 5.49198L15.1125 5.49386L15.0544 5.50189C15.0029 5.50914 14.9267 5.52012 14.8306 5.53474C14.6381 5.56403 14.3672 5.6077 14.0559 5.66487C13.4236 5.781 12.6627 5.94603 12.0554 6.14851C11.9206 6.19345 11.6955 6.31376 11.3854 6.54033C11.0877 6.75786 10.7614 7.03625 10.4291 7.34548C9.81276 7.91893 9.21757 8.55894 8.80481 9.02154C9.01058 9.21723 9.23896 9.37384 9.46498 9.44192C9.67663 9.50567 9.96894 9.52329 10.4 9.19998L10.428 9.17896L11.4711 8.50528C11.7397 8.33178 12.3371 8.06141 12.9703 8.40814C13.2532 8.56306 13.569 8.80874 13.846 9.04095C14.1376 9.28536 14.443 9.56359 14.7165 9.82127C14.9912 10.0801 15.2404 10.3246 15.4205 10.504L15.4628 10.5461L15.4862 10.5385C15.6668 10.4775 15.8982 10.3541 16.1517 10.1854C16.3973 10.022 16.6249 9.84227 16.7939 9.70027C16.8774 9.63013 16.9442 9.57116 16.9891 9.53074C17.0115 9.51057 17.0283 9.49515 17.0388 9.4854L17.0498 9.4752L17.0508 9.47429C17.4514 9.09438 18.0844 9.11083 18.4645 9.51138C18.8446 9.91202 18.828 10.545 18.4274 10.9251L18.426 10.9264L18.4239 10.9284L18.4177 10.9342L18.3975 10.9531C18.3806 10.9687 18.3569 10.9904 18.3272 11.0172C18.2678 11.0706 18.1837 11.1448 18.0804 11.2315C17.8759 11.4034 17.5868 11.6327 17.2597 11.8505C16.9404 12.0629 16.5431 12.2925 16.1261 12.4334C15.7364 12.5649 15.1337 12.6849 14.5528 12.3944L14.4012 12.3187L14.2831 12.1972L14.0094 11.9212C13.838 11.7506 13.6025 11.5196 13.3449 11.2769C13.0861 11.033 12.8117 10.7836 12.5612 10.5737C12.4598 10.4886 12.3695 10.4163 12.2913 10.3564L11.57 10.8223C10.6539 11.4966 9.71601 11.6063 8.88814 11.3569C8.11706 11.1247 7.54261 10.6128 7.19662 10.237C6.49949 9.47973 6.65726 8.4304 7.21352 7.80141C7.64586 7.31255 8.33428 6.56273 9.06674 5.88124C9.43281 5.54064 9.8221 5.20563 10.2054 4.92554C10.5763 4.65448 10.9976 4.39295 11.4228 4.25118C12.164 4.00407 13.0336 3.81917 13.6946 3.69777C14.03 3.63618 14.3215 3.58919 14.5297 3.5575C14.6339 3.54164 14.7177 3.52956 14.776 3.52136L14.8439 3.51197L14.8625 3.50948L14.8694 3.50857C15.417 3.43691 15.9199 3.82263 15.9916 4.37025Z" fill="currentColor"/>
<path fill-rule="evenodd" clip-rule="evenodd" d="M6.62862 4.07152C6.11583 4.27664 5.86642 4.85861 6.07153 5.37139C6.27664 5.88416 6.85859 6.13358 7.37136 5.92849L7.39747 5.91809L7.47527 5.8873C7.54293 5.86062 7.64057 5.82233 7.75944 5.77632C7.99765 5.68411 8.31898 5.56171 8.65425 5.43979C8.99171 5.31708 9.3331 5.19858 9.6144 5.11203C9.75567 5.06856 9.87075 5.03658 9.95659 5.01639C9.98632 5.00939 10.0077 5.005 10.0217 5.00232C10.0346 5.00376 10.0529 5.00609 10.0774 5.00986C10.1379 5.01915 10.2147 5.03392 10.3065 5.05432C10.4903 5.09516 10.7036 5.15177 10.9128 5.21155C11.1201 5.2708 11.314 5.33046 11.4567 5.3755C11.5277 5.39794 11.5854 5.41656 11.625 5.42944L11.6699 5.44416L11.6809 5.44781L11.6834 5.44862C12.2073 5.62321 12.774 5.34023 12.9487 4.81633C13.1233 4.29239 12.8402 3.72606 12.3163 3.55139L12.007 4.47898C12.3163 3.55139 12.3163 3.55141 12.3163 3.55139L12.3104 3.54945L12.2962 3.54474L12.2442 3.52772C12.1998 3.51324 12.1364 3.4928 12.059 3.46836C11.9047 3.41963 11.6924 3.35428 11.4623 3.28852C11.234 3.22328 10.9785 3.15487 10.7404 3.10195C10.5261 3.05433 10.2446 3 10 3C9.81329 3 9.62301 3.04026 9.49851 3.06955C9.35192 3.10404 9.18966 3.15019 9.02623 3.20047C8.69816 3.30142 8.32081 3.43292 7.97076 3.56021C7.61853 3.68829 7.28362 3.81589 7.03745 3.91118C6.91413 3.95892 6.81255 3.99875 6.74154 4.02676L6.65894 4.05945L6.62862 4.07152Z" fill="currentColor"/>
<path fill-rule="evenodd" clip-rule="evenodd" d="M5.18332 9.76989C5.18332 9.76989 5.18332 9.76989 5.18332 9.76989L5.21444 9.79894L5.30513 9.88336C5.38379 9.95645 5.49712 10.0614 5.63517 10.1885C5.91155 10.4429 6.28577 10.7846 6.67874 11.1354C7.07301 11.4873 7.48011 11.843 7.82385 12.1274C7.99611 12.27 8.14576 12.3891 8.26597 12.4788C8.34717 12.5393 8.3987 12.5741 8.42541 12.5915L11.262 13.6553C11.5987 13.7815 11.9772 13.7173 12.2534 13.4872L14.3598 11.7318C14.7841 11.3782 15.4147 11.4355 15.7682 11.8598C16.1218 12.2841 16.0645 12.9147 15.6402 13.2682L13.5337 15.0236C12.7051 15.7141 11.5697 15.9066 10.5598 15.5279L7.59973 14.4179L7.55278 14.3944C7.27173 14.2539 6.88128 13.9434 6.54875 13.6683C6.17695 13.3606 5.74859 12.986 5.34691 12.6274C4.94393 12.2677 4.56174 11.9187 4.28069 11.66C4.14003 11.5306 4.02439 11.4234 3.94377 11.3485L3.85027 11.2615L3.81734 11.2307C3.41411 10.8534 3.39249 10.2199 3.76988 9.81668C4.14727 9.41345 4.78009 9.3925 5.18332 9.76989Z" fill="currentColor"/>
<path fill-rule="evenodd" clip-rule="evenodd" d="M4.43537 14.8588C4.78945 14.435 5.42009 14.3784 5.84393 14.7325L6.80216 15.533C6.94547 15.6527 7.11945 15.7299 7.30438 15.7559L8.54087 15.9293C9.0878 16.006 9.46899 16.5116 9.39227 17.0585C9.31556 17.6054 8.80999 17.9866 8.26306 17.9099L7.02657 17.7365C6.47178 17.6586 5.94986 17.427 5.51993 17.0679L4.5617 16.2674C4.13785 15.9133 4.08129 15.2827 4.43537 14.8588Z" fill="currentColor"/>
</svg>
