<svg width="20" height="20" viewBox="0 0 26 26" fill="none" xmlns="http://www.w3.org/2000/svg"><defs><mask id="mask-pop-hand-point-open-circle-filled"><rect width="26" height="26" fill="white"/><g transform="translate(3, 3)"><g><path fill-rule="evenodd" clip-rule="evenodd" d="M7.375 0.5C6.2014 0.5 5.25 1.4514 5.25 2.625V10.2225L4.36973 9.19553C3.66233 8.37022 2.43583 8.23558 1.56622 8.88775C0.675955 9.55542 0.475845 10.8089 1.114 11.7206L3.87071 15.6589C4.67331 16.9894 5.63679 17.9652 6.83659 18.6003C8.03805 19.2364 9.41813 19.5 11 19.5C12.5596 19.5 14.2355 19.2444 15.541 18.374C16.9002 17.4679 17.75 15.9685 17.75 13.75C17.75 13.7227 17.7485 13.6958 17.7457 13.6693V10.125C17.7457 8.9514 16.7943 8 15.6207 8H15.2457C15.1599 8 15.0756 8.00617 14.9931 8.01809C14.9382 6.89428 14.0096 6 12.8722 6C12.5702 6 12.283 6.06303 12.0229 6.17665C11.6744 5.47907 10.9535 5 10.1207 5C9.90477 5 9.69635 5.03221 9.5 5.09209V2.625C9.5 1.4514 8.54861 0.5 7.375 0.5ZM16.2496 13.8268C16.247 13.8015 16.2457 13.7759 16.2457 13.75V10.125C16.2457 9.77982 15.9659 9.5 15.6207 9.5H15.2457C15.1076 9.5 14.9957 9.61193 14.9957 9.75V10.25C14.9957 10.6642 14.6599 11 14.2457 11C13.8315 11 13.4957 10.6642 13.4957 10.25V9.75V8.12353C13.4957 7.77916 13.2166 7.5 12.8722 7.5C12.5273 7.5 12.2479 7.77998 12.2487 8.12486L12.25 8.74839C12.2501 8.7762 12.2486 8.80366 12.2457 8.83069V9.35C12.2457 9.76421 11.9099 10.1 11.4957 10.1C11.0815 10.1 10.7457 9.76421 10.7457 9.35V7.125C10.7457 6.77982 10.4659 6.5 10.1207 6.5C9.77554 6.5 9.49571 6.77982 9.49571 7.125V9.75C9.49571 10.1642 9.15993 10.5 8.74571 10.5C8.3315 10.5 7.99571 10.1642 7.99571 9.75V7.125C7.99571 7.04029 8.00067 6.95674 8.01031 6.87463C8.00353 6.83409 8 6.79246 8 6.75V2.625C8 2.27982 7.72018 2 7.375 2C7.34787 2 7.32113 2.00173 7.29491 2.00508C6.98756 2.0444 6.75 2.30696 6.75 2.625V12.2449L6.74995 12.2594L6.74973 12.2704C6.74674 12.3821 6.71936 12.4876 6.67273 12.5819C6.6376 12.6532 6.59061 12.7198 6.532 12.7787C6.39615 12.9154 6.20796 13 6 13C5.87353 13 5.75436 12.9687 5.64984 12.9134C5.58542 12.8794 5.52513 12.8356 5.47131 12.782C5.45501 12.7658 5.43945 12.7488 5.42468 12.7312L3.23085 10.1717C3.03791 9.94662 2.70338 9.90989 2.4662 10.0878C2.22338 10.2699 2.1688 10.6118 2.34285 10.8604L5.11006 14.8137C5.11661 14.8228 5.12298 14.8322 5.12917 14.8418C5.13533 14.8512 5.14124 14.8608 5.14691 14.8704C5.84061 16.0246 6.62178 16.7894 7.53842 17.2747C8.46196 17.7636 9.58188 18 11 18C12.4404 18 13.7645 17.7556 14.709 17.126C15.5869 16.5406 16.2312 15.5604 16.2496 13.8268Z" fill="black"/><path fill-rule="evenodd" clip-rule="evenodd" d="M4.75 2.625C4.75 1.17525 5.92526 0 7.375 0C8.82475 0 10 1.17525 10 2.625V4.50274C10.04 4.50092 10.0803 4.5 10.1207 4.5C10.992 4.5 11.7635 4.92454 12.2406 5.57665C12.4432 5.52654 12.6548 5.5 12.8722 5.5C14.1063 5.5 15.1412 6.35194 15.4211 7.5H15.6207C17.0705 7.5 18.2457 8.67525 18.2457 10.125V13.6461C18.2486 13.6804 18.25 13.7151 18.25 13.75C18.25 16.1138 17.3339 17.7797 15.8184 18.7901C14.3926 19.7406 12.5994 20 11 20C9.36357 20 7.89676 19.7274 6.60264 19.0422L6.83659 18.6003C8.03805 19.2364 9.41813 19.5 11 19.5C12.5597 19.5 14.2355 19.2444 15.541 18.374C16.9002 17.4679 17.75 15.9685 17.75 13.75C17.75 13.7227 17.7486 13.6958 17.7457 13.6693V10.125C17.7457 8.95139 16.7943 8 15.6207 8H15.2457C15.1599 8 15.0756 8.00617 14.9931 8.0181C14.9865 7.88138 14.9668 7.74806 14.9355 7.61933C14.7092 6.68993 13.8713 6 12.8722 6C12.5702 6 12.283 6.06303 12.0229 6.17665C11.6744 5.47906 10.9535 5 10.1207 5C10.0802 5 10.04 5.00113 10 5.00337C9.827 5.01306 9.65952 5.04344 9.5 5.09209V2.625C9.5 1.4514 8.54861 0.5 7.375 0.5C6.2014 0.5 5.25 1.4514 5.25 2.625V10.2225L4.36974 9.19553C3.66233 8.37022 2.43583 8.23557 1.56623 8.88775C0.675958 9.55542 0.475848 10.8089 1.114 11.7206L3.87071 15.6589C4.67331 16.9894 5.63679 17.9652 6.83659 18.6003L6.60264 19.0422C5.31185 18.3589 4.28939 17.3163 3.45146 15.9318L0.704379 12.0073C-0.0884702 10.8747 0.16015 9.31727 1.26623 8.48775C2.34665 7.67747 3.87047 7.84476 4.74936 8.87013L4.75 2.625Z" fill="black"/></g></g></mask></defs><circle r="13" cx="13" cy="13" mask="url(#mask-pop-hand-point-open-circle-filled)" fill="currentColor"/></svg>