<svg width="20" height="20" viewBox="0 0 26 26" fill="none" xmlns="http://www.w3.org/2000/svg"><defs><mask id="mask-pop-hand-point-circle-filled"><rect width="26" height="26" fill="white"/><g transform="translate(3, 3)"><path fill-rule="evenodd" clip-rule="evenodd" d="M7.375 0.5C6.2014 0.5 5.25 1.4514 5.25 2.625V9.50974C3.04663 9.68262 1.69308 12.122 2.88492 14.0879C3.24038 14.6743 3.58758 15.2326 3.86614 15.6513C4.66966 16.9857 5.63451 17.9639 6.83659 18.6003C8.03805 19.2364 9.41813 19.5 11 19.5C12.5596 19.5 14.2355 19.2444 15.541 18.374C16.9002 17.4679 17.75 15.9685 17.75 13.75C17.75 13.7227 17.7485 13.6958 17.7457 13.6693V10.125C17.7457 8.9514 16.7943 8 15.6207 8H15.2457C15.1599 8 15.0756 8.00617 14.9931 8.01809C14.9382 6.89428 14.0096 6 12.8722 6C12.5702 6 12.283 6.06303 12.0229 6.17665C11.6744 5.47907 10.9535 5 10.1207 5C9.90477 5 9.69635 5.03221 9.5 5.09209V2.625C9.5 1.4514 8.54861 0.5 7.375 0.5ZM16.2496 13.8268C16.247 13.8015 16.2457 13.7759 16.2457 13.75V10.125C16.2457 9.77982 15.9659 9.5 15.6207 9.5H15.2457C15.1076 9.5 14.9957 9.61193 14.9957 9.75V10.25C14.9957 10.6642 14.6599 11 14.2457 11C13.8315 11 13.4957 10.6642 13.4957 10.25V9.75V8.12353C13.4957 7.77916 13.2166 7.5 12.8722 7.5C12.5273 7.5 12.2479 7.77998 12.2487 8.12486L12.25 8.74839C12.2501 8.7762 12.2486 8.80365 12.2457 8.83068V9.35C12.2457 9.76421 11.9099 10.1 11.4957 10.1C11.0815 10.1 10.7457 9.76421 10.7457 9.35V7.125C10.7457 6.77982 10.4659 6.5 10.1207 6.5C9.77554 6.5 9.49571 6.77982 9.49571 7.125V9.75C9.49571 10.1642 9.15993 10.5 8.74571 10.5C8.3315 10.5 7.99571 10.1642 7.99571 9.75V7.125C7.99571 7.04029 8.00067 6.95674 8.01031 6.87463C8.00353 6.83409 8 6.79246 8 6.75V2.625C8 2.27982 7.72018 2 7.375 2C7.02982 2 6.75 2.27982 6.75 2.625V12.25C6.75 12.6642 6.41422 13 6 13C5.58579 13 5.25 12.6642 5.25 12.25V11.0189C4.188 11.1823 3.5991 12.3726 4.16761 13.3103C4.52304 13.8966 4.85962 14.4371 5.12107 14.8295C5.12538 14.8359 5.12962 14.8424 5.13376 14.8489C5.13789 14.8555 5.14191 14.862 5.14581 14.8686C5.83978 16.0238 6.6213 16.7891 7.53842 17.2747C8.46196 17.7636 9.58188 18 11 18C12.4404 18 13.7645 17.7556 14.709 17.126C15.5869 16.5407 16.2312 15.5604 16.2496 13.8268Z" fill="black"/><path fill-rule="evenodd" clip-rule="evenodd" d="M6.60264 19.0422C5.30781 18.3567 4.28302 17.3098 3.44364 15.9189C3.16024 15.4924 2.81122 14.9308 2.45736 14.3471C1.1494 12.1897 2.46905 9.55914 4.75 9.07757V2.625C4.75 1.17525 5.92525 0 7.375 0C8.82475 0 10 1.17525 10 2.625V4.50274C10.04 4.50092 10.0803 4.5 10.1207 4.5C10.992 4.5 11.7635 4.92454 12.2406 5.57665C12.4432 5.52654 12.6548 5.5 12.8722 5.5C14.1063 5.5 15.1412 6.35194 15.4211 7.5H15.6207C17.0705 7.5 18.2457 8.67525 18.2457 10.125V13.646C18.2486 13.6804 18.25 13.7151 18.25 13.75C18.25 16.1138 17.3339 17.7797 15.8184 18.7901C14.3926 19.7406 12.5994 20 11 20C9.36357 20 7.89676 19.7274 6.60264 19.0422ZM3.86614 15.6513C4.66965 16.9857 5.63451 17.9639 6.83659 18.6003C8.03805 19.2364 9.41812 19.5 11 19.5C12.5596 19.5 14.2355 19.2444 15.541 18.374C16.9002 17.4679 17.75 15.9685 17.75 13.75C17.75 13.7227 17.7485 13.6958 17.7457 13.6693V10.125C17.7457 8.9514 16.7943 8 15.6207 8H15.2457C15.1599 8 15.0756 8.00617 14.9931 8.01809C14.9865 7.88138 14.9668 7.74806 14.9355 7.61933C14.7092 6.68993 13.8712 6 12.8722 6C12.5702 6 12.283 6.06303 12.0229 6.17665C11.6744 5.47907 10.9535 5 10.1207 5C10.0802 5 10.04 5.00113 10 5.00337C9.82699 5.01306 9.65952 5.04344 9.5 5.09209V2.625C9.5 1.4514 8.54861 0.5 7.375 0.5C6.2014 0.5 5.25 1.4514 5.25 2.625V9.50974C3.04663 9.68262 1.69308 12.122 2.88492 14.0879C3.24038 14.6743 3.58758 15.2326 3.86614 15.6513Z" fill="black"/></g></mask></defs><circle r="13" cx="13" cy="13" mask="url(#mask-pop-hand-point-circle-filled)" fill="currentColor"/></svg>