<svg width="20" height="20" viewBox="0 0 20 20" fill="none" xmlns="http://www.w3.org/2000/svg"><path fill-rule="evenodd" clip-rule="evenodd" d="M3.9383 13.9407C3.94402 13.9523 3.94995 13.9639 3.95609 13.9753C3.96216 13.9867 3.96853 13.9981 3.97495 14.0092C4.15462 14.3238 4.32925 14.6405 4.50028 14.9508L4.50277 14.9553C4.73656 15.3795 4.96496 15.7938 5.18341 16.1593C5.57624 16.8165 6.01207 17.4506 6.58352 17.9863C7.7924 19.1196 9.3843 19.6106 11.8252 19.6106C14.1053 19.6106 15.7086 18.462 16.6877 16.8661C17.6336 15.3242 18 13.3802 18 11.6062V6.0031C18 4.67689 16.9249 3.60178 15.5987 3.60178C15.5604 3.60178 15.5222 3.60268 15.4843 3.60447V3.25873C15.4843 1.93252 14.4092 0.857418 13.083 0.857418C12.7673 0.857418 12.4652 0.918563 12.1884 1.02975C11.7615 0.639087 11.1923 0.400024 10.5674 0.400024C9.77046 0.400024 9.06483 0.788251 8.62837 1.38462C8.44336 1.33898 8.25014 1.31481 8.05168 1.31481C6.72547 1.31481 5.65037 2.38992 5.65037 3.71613V7.50938C5.02547 7.10977 4.22538 7.01101 3.49107 7.30473C2.20326 7.81986 1.63077 9.32564 2.25106 10.5662L3.93743 13.9389L3.9383 13.9407ZM8.62343 3.71613C8.62343 3.40036 8.36745 3.14439 8.05168 3.14439C7.73592 3.14439 7.47994 3.40036 7.47994 3.71613V11.5913C7.48067 11.6258 7.47877 11.6602 7.47434 11.6942C7.46208 11.79 7.43007 11.8796 7.38254 11.9588C7.29184 12.1099 7.14461 12.2232 6.9701 12.2694C6.87823 12.2939 6.78409 12.2985 6.69327 12.2849C6.60392 12.2718 6.52017 12.2415 6.4455 12.1974C6.32787 12.1279 6.23277 12.0243 6.17382 11.9003L4.85565 9.26392C4.72977 9.01216 4.43191 8.89891 4.17056 9.00345C3.87657 9.12105 3.74587 9.4648 3.88748 9.74801L5.56945 13.1119C5.77573 13.4733 5.95613 13.8012 6.12446 14.1071C6.34459 14.5071 6.54409 14.8697 6.75385 15.2206C7.11278 15.8212 7.4459 16.2869 7.83484 16.6515C8.57323 17.3438 9.63069 17.781 11.8252 17.781C13.3846 17.781 14.4351 17.0392 15.1282 15.9093C15.8414 14.7469 16.1704 13.1689 16.1704 11.6062V6.0031C16.1704 5.68733 15.9144 5.43136 15.5987 5.43136C15.2829 5.43136 15.0269 5.68733 15.0269 6.0031V7.12371V9.99184C15.0269 10.3708 14.7198 10.6779 14.3408 10.6779C13.9619 10.6779 13.6548 10.3708 13.6548 9.99184V7.12371V6.0031V3.25873C13.6548 2.94297 13.3988 2.68699 13.083 2.68699C12.7673 2.68699 12.5113 2.94297 12.5113 3.25874V8.40442V9.3192C12.5113 9.69812 12.2041 10.0053 11.8252 10.0053C11.4463 10.0053 11.1391 9.69812 11.1391 9.3192V8.40442V3.25874V2.80134C11.1391 2.48558 10.8831 2.2296 10.5674 2.2296C10.2516 2.2296 9.99561 2.48558 9.99561 2.80134V3.71613V7.94702V9.7766C9.99561 10.1555 9.68843 10.4627 9.30952 10.4627C8.9306 10.4627 8.62343 10.1555 8.62343 9.7766V7.94702V3.71613Z" fill="currentColor"/></svg>