<svg width="20" height="20" viewBox="0 0 26 26" fill="none" xmlns="http://www.w3.org/2000/svg"><defs><mask id="mask-pop-headphone-circle-filled"><rect width="26" height="26" fill="white"/><g transform="translate(3, 3)"><path d="M17.8801 15.0685C17.7061 15.5927 17.1402 15.8766 16.616 15.7027C16.0918 15.5287 15.8079 14.9628 15.9818 14.4386C16.3221 13.4132 16.5 12.3064 16.5 11.166C16.5 6.71008 13.7442 3.75354 10 3.75354C6.25581 3.75354 3.5 6.71008 3.5 11.166C3.5 12.3064 3.67791 13.4132 4.01817 14.4386C4.1921 14.9628 3.90817 15.5287 3.38399 15.7027C2.85981 15.8766 2.29387 15.5927 2.11994 15.0685C1.71209 13.8394 1.5 12.5199 1.5 11.166C1.5 5.63571 5.11859 1.75354 10 1.75354C14.8814 1.75354 18.5 5.63571 18.5 11.166C18.5 12.5199 18.2879 13.8394 17.8801 15.0685Z" fill="black"/><path d="M5.97747 17.0341C4.32744 17.0028 3.01262 15.6445 3.03496 13.9943L3.03526 13.972C3.05752 12.3274 4.40876 11.0123 6.05334 11.0345C6.06146 11.0346 6.06146 11.0346 6.06957 11.0348C6.61963 11.0452 7.05794 11.498 7.0505 12.0481L6.99636 16.0478C6.98886 16.6022 6.53178 17.0446 5.97747 17.0341Z" fill="black"/><path d="M14.0888 11.0002C15.7388 11.0315 17.0536 12.3898 17.0313 14.04L17.031 14.0623C17.0087 15.7069 15.6575 17.022 14.0129 16.9998C14.0048 16.9997 14.0048 16.9997 13.9967 16.9995C13.4466 16.9891 13.0083 16.5363 13.0158 15.9862L13.0699 11.9865C13.0774 11.4321 13.5345 10.9897 14.0888 11.0002Z" fill="black"/></g></mask></defs><circle r="13" cx="13" cy="13" mask="url(#mask-pop-headphone-circle-filled)" fill="currentColor"/></svg>