<svg width="20" height="20" viewBox="0 0 26 26" fill="none" xmlns="http://www.w3.org/2000/svg"><defs><mask id="mask-pop-heart-circle-filled"><rect width="26" height="26" fill="white"/><g transform="translate(3, 3)"><path fill-rule="evenodd" clip-rule="evenodd" d="M6.03212 5.59363C4.88886 5.86646 4 6.69572 4 8.16289C4 10.1296 5.67624 12.257 10 14.3893C14.3238 12.257 16 10.1296 16 8.16289C16 6.69572 15.1111 5.86646 13.9679 5.59364C12.7503 5.30307 11.4451 5.69632 10.8011 6.55828C10.6123 6.81095 10.3154 6.95975 10 6.95974C9.68459 6.95974 9.38768 6.81094 9.1989 6.55827C8.5549 5.69631 7.24974 5.30306 6.03212 5.59363ZM10 4.54278C8.75061 3.56391 7.03541 3.29804 5.56788 3.64825C3.67781 4.0993 2 5.62083 2 8.16289C2 11.4889 4.88008 14.1786 9.57149 16.4035C9.84269 16.5322 10.1573 16.5322 10.4285 16.4035C15.1199 14.1786 18 11.4889 18 8.16289C18 5.62083 16.3222 4.09931 14.4321 3.64826C12.9646 3.29806 11.2494 3.56392 10 4.54278Z" fill="black"/></g></mask></defs><circle r="13" cx="13" cy="13" mask="url(#mask-pop-heart-circle-filled)" fill="currentColor"/></svg>