<svg width="20" height="20" viewBox="0 0 20 20" fill="none" xmlns="http://www.w3.org/2000/svg"><g><path fill-rule="evenodd" clip-rule="evenodd" d="M7.25 5.25C7.25 4.69772 7.69772 4.25 8.25 4.25H11.75C12.3023 4.25 12.75 4.69772 12.75 5.25C12.75 5.80228 12.3023 6.25 11.75 6.25H8.25C7.69772 6.25 7.25 5.80228 7.25 5.25Z" fill="currentColor"/><path fill-rule="evenodd" clip-rule="evenodd" d="M10 8C9.44772 8 9 7.55228 9 7V3.5C9 2.94772 9.44772 2.5 10 2.5C10.5523 2.5 11 2.94772 11 3.5V7C11 7.55228 10.5523 8 10 8Z" fill="currentColor"/><path fill-rule="evenodd" clip-rule="evenodd" d="M4 2C4 0.89543 4.89543 0 6 0H14C15.1046 0 16 0.89543 16 2V6.32432H18C19.1046 6.32432 20 7.21976 20 8.32432V18C20 19.1046 19.1046 20 18 20H2C0.895432 20 0 19.1046 0 18V8.32432C0 7.21975 0.895432 6.32432 2 6.32432H4V2ZM14 2L6 2V6.82432C6 7.65275 5.32843 8.32432 4.5 8.32432L2 8.32432V18L18 18V8.32432H15.5C14.6716 8.32432 14 7.65275 14 6.82432V2Z" fill="currentColor"/><path d="M3.5 10.5C3.5 9.94772 3.94772 9.5 4.5 9.5H5.5C6.05228 9.5 6.5 9.94772 6.5 10.5V11.5C6.5 12.0523 6.05228 12.5 5.5 12.5H4.5C3.94772 12.5 3.5 12.0523 3.5 11.5V10.5Z" fill="currentColor"/><path fill-rule="evenodd" clip-rule="evenodd" d="M3.25 10.5C3.25 9.80964 3.80964 9.25 4.5 9.25H5.5C6.19036 9.25 6.75 9.80964 6.75 10.5V11.5C6.75 12.1904 6.19036 12.75 5.5 12.75H4.5C3.80964 12.75 3.25 12.1904 3.25 11.5V10.5ZM4.5 9.75C4.08579 9.75 3.75 10.0858 3.75 10.5V11.5C3.75 11.9142 4.08579 12.25 4.5 12.25H5.5C5.91421 12.25 6.25 11.9142 6.25 11.5V10.5C6.25 10.0858 5.91421 9.75 5.5 9.75H4.5Z" fill="currentColor"/><path d="M8.5 10.5C8.5 9.94772 8.94772 9.5 9.5 9.5H10.5C11.0523 9.5 11.5 9.94772 11.5 10.5V11.5C11.5 12.0523 11.0523 12.5 10.5 12.5H9.5C8.94772 12.5 8.5 12.0523 8.5 11.5V10.5Z" fill="currentColor"/><path fill-rule="evenodd" clip-rule="evenodd" d="M8.25 10.5C8.25 9.80964 8.80964 9.25 9.5 9.25H10.5C11.1904 9.25 11.75 9.80964 11.75 10.5V11.5C11.75 12.1904 11.1904 12.75 10.5 12.75H9.5C8.80964 12.75 8.25 12.1904 8.25 11.5V10.5ZM9.5 9.75C9.08579 9.75 8.75 10.0858 8.75 10.5V11.5C8.75 11.9142 9.08579 12.25 9.5 12.25H10.5C10.9142 12.25 11.25 11.9142 11.25 11.5V10.5C11.25 10.0858 10.9142 9.75 10.5 9.75H9.5Z" fill="currentColor"/><path d="M13.5 10.5C13.5 9.94772 13.9477 9.5 14.5 9.5H15.5C16.0523 9.5 16.5 9.94772 16.5 10.5V11.5C16.5 12.0523 16.0523 12.5 15.5 12.5H14.5C13.9477 12.5 13.5 12.0523 13.5 11.5V10.5Z" fill="currentColor"/><path fill-rule="evenodd" clip-rule="evenodd" d="M13.25 10.5C13.25 9.80964 13.8096 9.25 14.5 9.25H15.5C16.1904 9.25 16.75 9.80964 16.75 10.5V11.5C16.75 12.1904 16.1904 12.75 15.5 12.75H14.5C13.8096 12.75 13.25 12.1904 13.25 11.5V10.5ZM14.5 9.75C14.0858 9.75 13.75 10.0858 13.75 10.5V11.5C13.75 11.9142 14.0858 12.25 14.5 12.25H15.5C15.9142 12.25 16.25 11.9142 16.25 11.5V10.5C16.25 10.0858 15.9142 9.75 15.5 9.75H14.5Z" fill="currentColor"/><path d="M3.5 15C3.5 14.4477 3.94772 14 4.5 14H5.5C6.05228 14 6.5 14.4477 6.5 15V16C6.5 16.5523 6.05228 17 5.5 17H4.5C3.94772 17 3.5 16.5523 3.5 16V15Z" fill="currentColor"/><path fill-rule="evenodd" clip-rule="evenodd" d="M3.25 15C3.25 14.3096 3.80964 13.75 4.5 13.75H5.5C6.19036 13.75 6.75 14.3096 6.75 15V16C6.75 16.6904 6.19036 17.25 5.5 17.25H4.5C3.80964 17.25 3.25 16.6904 3.25 16V15ZM4.5 14.25C4.08579 14.25 3.75 14.5858 3.75 15V16C3.75 16.4142 4.08579 16.75 4.5 16.75H5.5C5.91421 16.75 6.25 16.4142 6.25 16V15C6.25 14.5858 5.91421 14.25 5.5 14.25H4.5Z" fill="currentColor"/><path d="M8.5 15C8.5 14.4477 8.94772 14 9.5 14H10.5C11.0523 14 11.5 14.4477 11.5 15V16C11.5 16.5523 11.0523 17 10.5 17H9.5C8.94772 17 8.5 16.5523 8.5 16V15Z" fill="currentColor"/><path fill-rule="evenodd" clip-rule="evenodd" d="M8.25 15C8.25 14.3096 8.80964 13.75 9.5 13.75H10.5C11.1904 13.75 11.75 14.3096 11.75 15V16C11.75 16.6904 11.1904 17.25 10.5 17.25H9.5C8.80964 17.25 8.25 16.6904 8.25 16V15ZM9.5 14.25C9.08579 14.25 8.75 14.5858 8.75 15V16C8.75 16.4142 9.08579 16.75 9.5 16.75H10.5C10.9142 16.75 11.25 16.4142 11.25 16V15C11.25 14.5858 10.9142 14.25 10.5 14.25H9.5Z" fill="currentColor"/><path d="M13.5 15C13.5 14.4477 13.9477 14 14.5 14H15.5C16.0523 14 16.5 14.4477 16.5 15V16C16.5 16.5523 16.0523 17 15.5 17H14.5C13.9477 17 13.5 16.5523 13.5 16V15Z" fill="currentColor"/><path fill-rule="evenodd" clip-rule="evenodd" d="M13.25 15C13.25 14.3096 13.8096 13.75 14.5 13.75H15.5C16.1904 13.75 16.75 14.3096 16.75 15V16C16.75 16.6904 16.1904 17.25 15.5 17.25H14.5C13.8096 17.25 13.25 16.6904 13.25 16V15ZM14.5 14.25C14.0858 14.25 13.75 14.5858 13.75 15V16C13.75 16.4142 14.0858 16.75 14.5 16.75H15.5C15.9142 16.75 16.25 16.4142 16.25 16V15C16.25 14.5858 15.9142 14.25 15.5 14.25H14.5Z" fill="currentColor"/></g><path d="M1.29289 2.70711C0.902369 2.31658 0.902369 1.68342 1.29289 1.29289C1.68342 0.902368 2.31658 0.902368 2.70711 1.29289L18.7071 17.2929C19.0976 17.6834 19.0976 18.3166 18.7071 18.7071C18.3166 19.0976 17.6834 19.0976 17.2929 18.7071L1.29289 2.70711Z" fill="currentColor"/></svg>