<svg width="20" height="20" viewBox="0 0 26 26" fill="none" xmlns="http://www.w3.org/2000/svg"><g transform="translate(3, 3)"><g><path fill-rule="evenodd" clip-rule="evenodd" d="M1 11C0.0804861 11 -0.351616 9.86349 0.335639 9.25259L9.33564 1.25259C9.71453 0.915803 10.2855 0.915803 10.6644 1.25259L19.6644 9.25259C20.3516 9.86349 19.9195 11 19 11H18V18C18 18.5523 17.5523 19 17 19H3C2.44772 19 2 18.5523 2 18V11H1ZM7 17V12C7 11.4477 7.44772 11 8 11H12C12.5523 11 13 11.4477 13 12V17H16V10C16 9.62477 16.2067 9.29781 16.5124 9.12674L10 3.33795L3.48762 9.12674C3.79334 9.29781 4 9.62477 4 10V17H7ZM9 17V13H11V17H9Z" fill="currentColor"/></g><path d="M1.29289 2.70711C0.902369 2.31658 0.902369 1.68342 1.29289 1.29289C1.68342 0.902368 2.31658 0.902368 2.70711 1.29289L18.7071 17.2929C19.0976 17.6834 19.0976 18.3166 18.7071 18.7071C18.3166 19.0976 17.6834 19.0976 17.2929 18.7071L1.29289 2.70711Z" fill="currentColor"/></g><path fill-rule="evenodd" clip-rule="evenodd" d="M13 24C19.0751 24 24 19.0751 24 13C24 6.92487 19.0751 2 13 2C6.92487 2 2 6.92487 2 13C2 19.0751 6.92487 24 13 24ZM13 26C20.1797 26 26 20.1797 26 13C26 5.8203 20.1797 0 13 0C5.8203 0 0 5.8203 0 13C0 20.1797 5.8203 26 13 26Z" fill="currentColor"/></svg>