<svg width="20" height="20" viewBox="0 0 20 20" fill="none" xmlns="http://www.w3.org/2000/svg">
<path fill-rule="evenodd" clip-rule="evenodd" d="M10 18C5.58172 18 2 14.4183 2 10C2 5.58172 5.58172 2 10 2C14.4183 2 18 5.58172 18 10C18 14.4183 14.4183 18 10 18ZM10 8.92857C9.44772 8.92857 9 9.37629 9 9.92857V13.9286C9 14.4809 9.44772 14.9286 10 14.9286C10.5523 14.9286 11 14.4809 11 13.9286V9.92857C11 9.37629 10.5523 8.92857 10 8.92857ZM10 7.5C10.5523 7.5 11 7.05228 11 6.5C11 5.94772 10.5523 5.5 10 5.5C9.44772 5.5 9 5.94772 9 6.5C9 7.05228 9.44772 7.5 10 7.5Z" fill="currentColor"/>
</svg>
