<svg width="20" height="20" viewBox="0 0 20 20" fill="none" xmlns="http://www.w3.org/2000/svg"><path fill-rule="evenodd" clip-rule="evenodd" d="M10 7C11.1046 7 12 7.89543 12 9V16C12 17.1046 11.1046 18 10 18C8.89543 18 8 17.1046 8 16V9C8 7.89543 8.89543 7 10 7Z" fill="currentColor"/><path d="M12 4C12 5.10457 11.1046 6 10 6C8.89543 6 8 5.10457 8 4C8 2.89543 8.89543 2 10 2C11.1046 2 12 2.89543 12 4Z" fill="currentColor"/><path d="M1.29289 2.70711C0.902369 2.31658 0.902369 1.68342 1.29289 1.29289C1.68342 0.902368 2.31658 0.902368 2.70711 1.29289L18.7071 17.2929C19.0976 17.6834 19.0976 18.3166 18.7071 18.7071C18.3166 19.0976 17.6834 19.0976 17.2929 18.7071L1.29289 2.70711Z" fill="currentColor"/></svg>