<svg width="20" height="20" viewBox="0 0 26 26" fill="none" xmlns="http://www.w3.org/2000/svg"><g transform="translate(3, 3)"><path fill-rule="evenodd" clip-rule="evenodd" d="M12.7184 12.3066C12.899 12.1201 13 11.8707 13 11.6111V9.00059C14.2398 8.07058 15 6.60167 15 5C15 2.23858 12.7614 0 10 0C7.23858 0 5 2.23858 5 5C5 6.60167 5.76016 8.07058 7 9.00059V17C7 18.6569 8.34315 20 10 20C11.6569 20 13 18.6569 13 17C13 16.701 12.8662 16.4178 12.6354 16.2278L12.4094 16.0419L12.4966 15.9919C12.8079 15.8138 13 15.4826 13 15.124V14.3488C13 14.0841 12.8951 13.8302 12.7082 13.6427L12.0571 12.9897L12.7184 12.3066ZM10.9686 8.7495C10.9894 8.83017 11 8.91395 11 9V11.2063L9.93681 12.3044C9.55743 12.6963 9.56201 13.3198 9.94709 13.706L10.8616 14.6233L10.1586 15.0255C9.55121 15.373 9.47947 16.221 10.0198 16.6656L10.9156 17.4027C10.7607 17.7544 10.409 18 10 18C9.44772 18 9 17.5523 9 17V9C9 8.91395 9.01064 8.83017 9.03138 8.7495C9.14475 8.30859 8.94599 7.84676 8.54786 7.62597C7.59988 7.10025 7 6.10326 7 5C7 3.34315 8.34315 2 10 2C11.6569 2 13 3.34315 13 5C13 6.10326 12.4001 7.10025 11.4521 7.62597C11.054 7.84676 10.8553 8.30859 10.9686 8.7495Z" fill="currentColor"/><path fill-rule="evenodd" clip-rule="evenodd" d="M10 5.5C10.8284 5.5 11.5 4.82843 11.5 4C11.5 3.17157 10.8284 2.5 10 2.5C9.17157 2.5 8.5 3.17157 8.5 4C8.5 4.82843 9.17157 5.5 10 5.5ZM10 3.5C10.2761 3.5 10.5 3.72386 10.5 4C10.5 4.27614 10.2761 4.5 10 4.5C9.72386 4.5 9.5 4.27614 9.5 4C9.5 3.72386 9.72386 3.5 10 3.5Z" fill="currentColor"/><path d="M1.29289 2.70711C0.902369 2.31658 0.902369 1.68342 1.29289 1.29289C1.68342 0.902368 2.31658 0.902368 2.70711 1.29289L18.7071 17.2929C19.0976 17.6834 19.0976 18.3166 18.7071 18.7071C18.3166 19.0976 17.6834 19.0976 17.2929 18.7071L1.29289 2.70711Z" fill="currentColor"/></g><path fill-rule="evenodd" clip-rule="evenodd" d="M13 24C19.0751 24 24 19.0751 24 13C24 6.92487 19.0751 2 13 2C6.92487 2 2 6.92487 2 13C2 19.0751 6.92487 24 13 24ZM13 26C20.1797 26 26 20.1797 26 13C26 5.8203 20.1797 0 13 0C5.8203 0 0 5.8203 0 13C0 20.1797 5.8203 26 13 26Z" fill="currentColor"/></svg>