<svg xmlns="http://www.w3.org/2000/svg" width="20" height="20" viewBox="0 0 20 20">
  <g fill="none" fill-rule="evenodd">
    <path stroke="#AB92F0" stroke-linecap="round" stroke-linejoin="round" stroke-width="2" d="M11.9371177,8.50049144 C11.9781683,8.66015343 12,8.82752718 12,9 L12,9.89918926 L12,11.6110581 L10.6552502,13 L12,14.3487839 L12,15.1239866 L10.6552502,15.8934497 L12,17 C12,18.1045695 11.1045695,19 10,19 C8.8954305,19 8,18.1045695 8,17 L8,9 C8,8.82752718 8.02183168,8.66015343 8.06288232,8.50049144 C6.83268739,7.81826542 6,6.50637499 6,5 C6,2.790861 7.790861,1 10,1 C12.209139,1 14,2.790861 14,5 C14,6.50637499 13.1673126,7.81826542 11.9371177,8.50049144 Z"/>
    <circle cx="10" cy="4" r="1" stroke="#AB92F0" transform="rotate(-90 10 4)"/>
  </g>
</svg>
