<svg width="20" height="20" viewBox="0 0 26 26" fill="none" xmlns="http://www.w3.org/2000/svg"><g transform="translate(3, 3)"><g><path fill-rule="evenodd" clip-rule="evenodd" d="M0 8C0 6.34315 1.34315 5 3 5H17C18.6569 5 20 6.34315 20 8V16C20 17.6569 18.6569 19 17 19H3C1.34315 19 0 17.6569 0 16V8ZM3 7C2.44772 7 2 7.44772 2 8V16C2 16.5523 2.44772 17 3 17H17C17.5523 17 18 16.5523 18 16V8C18 7.44772 17.5523 7 17 7H3Z" fill="currentColor"/><path d="M3.5 8.75C3.5 8.61193 3.61193 8.5 3.75 8.5H4.25C4.38807 8.5 4.5 8.61193 4.5 8.75V9.25C4.5 9.38807 4.38807 9.5 4.25 9.5H3.75C3.61193 9.5 3.5 9.38807 3.5 9.25V8.75Z" fill="currentColor"/><path fill-rule="evenodd" clip-rule="evenodd" d="M2.75 8.75C2.75 8.19772 3.19772 7.75 3.75 7.75H4.25C4.80228 7.75 5.25 8.19772 5.25 8.75V9.25C5.25 9.80228 4.80228 10.25 4.25 10.25H3.75C3.19772 10.25 2.75 9.80228 2.75 9.25V8.75ZM4 9.18311C4.07591 9.1392 4.1392 9.07591 4.18311 9C4.1392 8.92409 4.07591 8.8608 4 8.81689C3.92409 8.8608 3.8608 8.92409 3.81689 9C3.8608 9.07591 3.92409 9.1392 4 9.18311Z" fill="currentColor"/><path d="M6.5 8.75C6.5 8.61193 6.61193 8.5 6.75 8.5H7.25C7.38807 8.5 7.5 8.61193 7.5 8.75V9.25C7.5 9.38807 7.38807 9.5 7.25 9.5H6.75C6.61193 9.5 6.5 9.38807 6.5 9.25V8.75Z" fill="currentColor"/><path fill-rule="evenodd" clip-rule="evenodd" d="M5.75 8.75C5.75 8.19772 6.19772 7.75 6.75 7.75H7.25C7.80228 7.75 8.25 8.19772 8.25 8.75V9.25C8.25 9.80228 7.80228 10.25 7.25 10.25H6.75C6.19772 10.25 5.75 9.80228 5.75 9.25V8.75ZM7 9.18311C7.07591 9.1392 7.1392 9.07591 7.18311 9C7.1392 8.92409 7.07591 8.8608 7 8.81689C6.92409 8.8608 6.8608 8.92409 6.81689 9C6.8608 9.07591 6.92409 9.1392 7 9.18311Z" fill="currentColor"/><path d="M9.5 8.75C9.5 8.61193 9.61193 8.5 9.75 8.5H10.25C10.3881 8.5 10.5 8.61193 10.5 8.75V9.25C10.5 9.38807 10.3881 9.5 10.25 9.5H9.75C9.61193 9.5 9.5 9.38807 9.5 9.25V8.75Z" fill="currentColor"/><path fill-rule="evenodd" clip-rule="evenodd" d="M8.75 8.75C8.75 8.19772 9.19772 7.75 9.75 7.75H10.25C10.8023 7.75 11.25 8.19772 11.25 8.75V9.25C11.25 9.80228 10.8023 10.25 10.25 10.25H9.75C9.19772 10.25 8.75 9.80228 8.75 9.25V8.75ZM10 9.18311C10.0759 9.1392 10.1392 9.07591 10.1831 9C10.1392 8.92409 10.0759 8.8608 10 8.81689C9.92409 8.8608 9.8608 8.92409 9.81689 9C9.8608 9.07591 9.92409 9.1392 10 9.18311Z" fill="currentColor"/><path d="M12.5 8.75C12.5 8.61193 12.6119 8.5 12.75 8.5H13.25C13.3881 8.5 13.5 8.61193 13.5 8.75V9.25C13.5 9.38807 13.3881 9.5 13.25 9.5H12.75C12.6119 9.5 12.5 9.38807 12.5 9.25V8.75Z" fill="currentColor"/><path fill-rule="evenodd" clip-rule="evenodd" d="M11.75 8.75C11.75 8.19772 12.1977 7.75 12.75 7.75H13.25C13.8023 7.75 14.25 8.19772 14.25 8.75V9.25C14.25 9.80228 13.8023 10.25 13.25 10.25H12.75C12.1977 10.25 11.75 9.80228 11.75 9.25V8.75ZM13 9.18311C13.0759 9.1392 13.1392 9.07591 13.1831 9C13.1392 8.92409 13.0759 8.8608 13 8.81689C12.9241 8.8608 12.8608 8.92409 12.8169 9C12.8608 9.07591 12.9241 9.1392 13 9.18311Z" fill="currentColor"/><path d="M15.5 8.75C15.5 8.61193 15.6119 8.5 15.75 8.5H16.25C16.3881 8.5 16.5 8.61193 16.5 8.75V9.25C16.5 9.38807 16.3881 9.5 16.25 9.5H15.75C15.6119 9.5 15.5 9.38807 15.5 9.25V8.75Z" fill="currentColor"/><path fill-rule="evenodd" clip-rule="evenodd" d="M14.75 8.75C14.75 8.19772 15.1977 7.75 15.75 7.75H16.25C16.8023 7.75 17.25 8.19772 17.25 8.75V9.25C17.25 9.80228 16.8023 10.25 16.25 10.25H15.75C15.1977 10.25 14.75 9.80228 14.75 9.25V8.75ZM16 9.18311C16.0759 9.1392 16.1392 9.07591 16.1831 9C16.1392 8.92409 16.0759 8.8608 16 8.81689C15.9241 8.8608 15.8608 8.92409 15.8169 9C15.8608 9.07591 15.9241 9.1392 16 9.18311Z" fill="currentColor"/><path d="M5 11.75C5 11.6119 5.11193 11.5 5.25 11.5H5.75C5.88807 11.5 6 11.6119 6 11.75V12.25C6 12.3881 5.88807 12.5 5.75 12.5H5.25C5.11193 12.5 5 12.3881 5 12.25V11.75Z" fill="currentColor"/><path fill-rule="evenodd" clip-rule="evenodd" d="M4.25 11.75C4.25 11.1977 4.69772 10.75 5.25 10.75H5.75C6.30228 10.75 6.75 11.1977 6.75 11.75V12.25C6.75 12.8023 6.30228 13.25 5.75 13.25H5.25C4.69772 13.25 4.25 12.8023 4.25 12.25V11.75ZM5.5 12.1831C5.57591 12.1392 5.6392 12.0759 5.68311 12C5.6392 11.9241 5.57591 11.8608 5.5 11.8169C5.42409 11.8608 5.3608 11.9241 5.31689 12C5.3608 12.0759 5.42409 12.1392 5.5 12.1831Z" fill="currentColor"/><path d="M8 11.75C8 11.6119 8.11193 11.5 8.25 11.5H8.75C8.88807 11.5 9 11.6119 9 11.75V12.25C9 12.3881 8.88807 12.5 8.75 12.5H8.25C8.11193 12.5 8 12.3881 8 12.25V11.75Z" fill="currentColor"/><path fill-rule="evenodd" clip-rule="evenodd" d="M7.25 11.75C7.25 11.1977 7.69772 10.75 8.25 10.75H8.75C9.30228 10.75 9.75 11.1977 9.75 11.75V12.25C9.75 12.8023 9.30228 13.25 8.75 13.25H8.25C7.69772 13.25 7.25 12.8023 7.25 12.25V11.75ZM8.5 12.1831C8.57591 12.1392 8.6392 12.0759 8.68311 12C8.6392 11.9241 8.57591 11.8608 8.5 11.8169C8.42409 11.8608 8.3608 11.9241 8.31689 12C8.3608 12.0759 8.42409 12.1392 8.5 12.1831Z" fill="currentColor"/><path d="M11 11.75C11 11.6119 11.1119 11.5 11.25 11.5H11.75C11.8881 11.5 12 11.6119 12 11.75V12.25C12 12.3881 11.8881 12.5 11.75 12.5H11.25C11.1119 12.5 11 12.3881 11 12.25V11.75Z" fill="currentColor"/><path fill-rule="evenodd" clip-rule="evenodd" d="M10.25 11.75C10.25 11.1977 10.6977 10.75 11.25 10.75H11.75C12.3023 10.75 12.75 11.1977 12.75 11.75V12.25C12.75 12.8023 12.3023 13.25 11.75 13.25H11.25C10.6977 13.25 10.25 12.8023 10.25 12.25V11.75ZM11.5 12.1831C11.5759 12.1392 11.6392 12.0759 11.6831 12C11.6392 11.9241 11.5759 11.8608 11.5 11.8169C11.4241 11.8608 11.3608 11.9241 11.3169 12C11.3608 12.0759 11.4241 12.1392 11.5 12.1831Z" fill="currentColor"/><path d="M14 11.75C14 11.6119 14.1119 11.5 14.25 11.5H14.75C14.8881 11.5 15 11.6119 15 11.75V12.25C15 12.3881 14.8881 12.5 14.75 12.5H14.25C14.1119 12.5 14 12.3881 14 12.25V11.75Z" fill="currentColor"/><path fill-rule="evenodd" clip-rule="evenodd" d="M13.25 11.75C13.25 11.1977 13.6977 10.75 14.25 10.75H14.75C15.3023 10.75 15.75 11.1977 15.75 11.75V12.25C15.75 12.8023 15.3023 13.25 14.75 13.25H14.25C13.6977 13.25 13.25 12.8023 13.25 12.25V11.75ZM14.5 12.1831C14.5759 12.1392 14.6392 12.0759 14.6831 12C14.6392 11.9241 14.5759 11.8608 14.5 11.8169C14.4241 11.8608 14.3608 11.9241 14.3169 12C14.3608 12.0759 14.4241 12.1392 14.5 12.1831Z" fill="currentColor"/><path d="M6.5 14.75C6.5 14.6119 6.61193 14.5 6.75 14.5H13.25C13.3881 14.5 13.5 14.6119 13.5 14.75V15.25C13.5 15.3881 13.3881 15.5 13.25 15.5H6.75C6.61193 15.5 6.5 15.3881 6.5 15.25V14.75Z" fill="#D9D9D9"/><path fill-rule="evenodd" clip-rule="evenodd" d="M6 14.75C6 14.3358 6.33579 14 6.75 14H13.25C13.6642 14 14 14.3358 14 14.75V15.25C14 15.6642 13.6642 16 13.25 16H6.75C6.33579 16 6 15.6642 6 15.25V14.75Z" fill="currentColor"/><path fill-rule="evenodd" clip-rule="evenodd" d="M11 -4.77243e-07C11.5523 -5.40463e-07 12 0.447715 12 1L12 2.09487C12 3.28199 11.4727 4.40778 10.5608 5.16776L8.6402 6.76822C8.21592 7.12179 7.58536 7.06446 7.23179 6.64018C6.87823 6.21591 6.93555 5.58534 7.35983 5.23178L9.28038 3.63132C9.73637 3.25133 10 2.68843 10 2.09487L10 0.999999C10 0.447715 10.4477 -7.30124e-07 11 -4.77243e-07Z" fill="currentColor"/></g></g><path fill-rule="evenodd" clip-rule="evenodd" d="M13 24C19.0751 24 24 19.0751 24 13C24 6.92487 19.0751 2 13 2C6.92487 2 2 6.92487 2 13C2 19.0751 6.92487 24 13 24ZM13 26C20.1797 26 26 20.1797 26 13C26 5.8203 20.1797 0 13 0C5.8203 0 0 5.8203 0 13C0 20.1797 5.8203 26 13 26Z" fill="currentColor"/></svg>