<svg width="20" height="20" viewBox="0 0 26 26" fill="none" xmlns="http://www.w3.org/2000/svg"><g transform="translate(3, 3)"><path fill-rule="evenodd" clip-rule="evenodd" d="M11.2703 5.50648C11.2703 7.44763 12.333 8.81357 14.2703 9.50037V11C14.2703 11.5523 14.718 12 15.2703 12C15.8225 12 16.2703 11.5523 16.2703 11V8.77387C16.2706 8.75962 16.2706 8.74541 16.2703 8.73125V1.5C16.2703 0.759224 15.4929 0.275595 14.8284 0.602925C12.5118 1.74402 11.2703 3.40205 11.2703 5.50648ZM13.2703 5.50648C13.2703 4.6856 13.5885 3.97142 14.2703 3.34478V7.31599C13.5752 6.90454 13.2703 6.31705 13.2703 5.50648Z" fill="currentColor"/><path d="M13.2703 17.5V12.5C13.2703 11.3954 14.1657 10.5 15.2703 10.5C16.3748 10.5 17.2703 11.3954 17.2703 12.5V17.5C17.2703 18.6046 16.3748 19.5 15.2703 19.5C14.1657 19.5 13.2703 18.6046 13.2703 17.5Z" fill="currentColor"/><path d="M3.28304 2.4501C3.3106 1.8985 3.7801 1.47369 4.33169 1.50125C4.88329 1.5288 5.30811 1.9983 5.28055 2.5499C5.20048 4.15251 5.28317 5.23192 5.48057 5.7078C5.57632 5.93862 5.73403 6.02281 6.19257 5.99644C6.74395 5.96472 7.21664 6.38598 7.24836 6.93735C7.28007 7.48873 6.85881 7.96142 6.30744 7.99313C5.04935 8.06551 4.07832 7.54714 3.6332 6.47411C3.28974 5.64613 3.18904 4.33157 3.28304 2.4501Z" fill="currentColor"/><path d="M10.7166 2.4501C10.6891 1.8985 10.2196 1.47369 9.66799 1.50125C9.11639 1.5288 8.69157 1.9983 8.71913 2.5499C8.7992 4.15251 8.71651 5.23192 8.51911 5.7078C8.42336 5.93862 8.26565 6.02281 7.80711 5.99644C7.25573 5.96472 6.78304 6.38598 6.75132 6.93735C6.71961 7.48873 7.14087 7.96142 7.69224 7.99313C8.95033 8.06551 9.92136 7.54714 10.3665 6.47411C10.7099 5.64613 10.8106 4.33157 10.7166 2.4501Z" fill="currentColor"/><path d="M6 2.5C6 1.94772 6.44772 1.5 7 1.5C7.55228 1.5 8 1.94772 8 2.5V11.4998C8 12.0521 7.55228 12.4998 7 12.4998C6.44772 12.4998 6 12.0521 6 11.4998L6 2.5Z" fill="currentColor"/><path d="M5 17.5V12.5C5 11.3954 5.89543 10.5 7 10.5C8.10457 10.5 9 11.3954 9 12.5V17.5C9 18.6046 8.10457 19.5 7 19.5C5.89543 19.5 5 18.6046 5 17.5Z" fill="currentColor"/><path d="M1.29289 2.70711C0.902369 2.31658 0.902369 1.68342 1.29289 1.29289C1.68342 0.902368 2.31658 0.902368 2.70711 1.29289L18.7071 17.2929C19.0976 17.6834 19.0976 18.3166 18.7071 18.7071C18.3166 19.0976 17.6834 19.0976 17.2929 18.7071L1.29289 2.70711Z" fill="currentColor"/></g><path fill-rule="evenodd" clip-rule="evenodd" d="M13 24C19.0751 24 24 19.0751 24 13C24 6.92487 19.0751 2 13 2C6.92487 2 2 6.92487 2 13C2 19.0751 6.92487 24 13 24ZM13 26C20.1797 26 26 20.1797 26 13C26 5.8203 20.1797 0 13 0C5.8203 0 0 5.8203 0 13C0 20.1797 5.8203 26 13 26Z" fill="currentColor"/></svg>