<svg width="20" height="20" viewBox="0 0 26 26" fill="none" xmlns="http://www.w3.org/2000/svg"><defs><mask id="mask-pop-label-circle-filled"><rect width="26" height="26" fill="white"/><g transform="translate(3, 3)"><g><path fill-rule="evenodd" clip-rule="evenodd" d="M4.9104 4.56427C4.89245 4.84749 4.87599 5.15955 4.86283 5.49066C4.80885 6.84914 4.81614 8.39826 4.96533 9.56897L12.2301 16.8337L17.1798 11.884L9.91508 4.61922C8.74436 4.47003 7.19524 4.46273 5.83678 4.5167C5.50568 4.52986 5.19362 4.54632 4.9104 4.56427ZM3.09386 2.74776C2.99676 2.83992 2.60479 7.31481 3.01673 10.078C3.06053 10.3718 3.206 10.6381 3.41605 10.8481L11.1694 18.6015C11.7552 19.1873 12.705 19.1873 13.2908 18.6015L18.9476 12.9446C19.5334 12.3589 19.5334 11.4091 18.9476 10.8233L11.1942 3.06994C10.9842 2.85989 10.7179 2.71442 10.4241 2.67062C7.66092 2.25868 3.18608 2.6506 3.09386 2.74776Z" fill="black"/><path d="M9.14171 7.46623C9.53223 7.85676 9.53223 8.48992 9.14171 8.88045C8.75118 9.27097 8.11802 9.27097 7.72749 8.88045C7.33697 8.48992 7.33697 7.85676 7.72749 7.46623C8.11802 7.07571 8.75118 7.07571 9.14171 7.46623Z" fill="black"/></g></g></mask></defs><circle r="13" cx="13" cy="13" mask="url(#mask-pop-label-circle-filled)" fill="currentColor"/></svg>