<svg width="20" height="20" viewBox="0 0 20 20" fill="none" xmlns="http://www.w3.org/2000/svg"><g><path d="M2.97872 2.63551C2.97881 2.63462 2.97889 2.63373 2.97897 2.63284C2.97986 2.63276 2.98075 2.63267 2.98164 2.63259C3.43843 2.59036 4.07526 2.54622 4.79712 2.51753C6.25646 2.45955 7.9903 2.46795 9.2767 2.65973C9.3352 2.66845 9.41101 2.70095 9.48715 2.77708L17.2405 10.5304C17.4358 10.7257 17.4358 11.0423 17.2405 11.2375L11.5836 16.8944C11.3884 17.0897 11.0718 17.0897 10.8765 16.8944L3.12319 9.14104C3.04705 9.06491 3.01455 8.98909 3.00583 8.9306C2.81406 7.6442 2.80567 5.91035 2.86367 4.451C2.89235 3.72913 2.9365 3.0923 2.97872 2.63551Z" stroke="currentColor" stroke-width="2" stroke-linecap="round"/><circle cx="7.4346" cy="7.17334" r="1" transform="rotate(-45 7.4346 7.17334)" fill="currentColor"/></g></svg>