<svg width="20" height="20" viewBox="0 0 26 26" fill="none" xmlns="http://www.w3.org/2000/svg"><defs><mask id="mask-pop-leaf-circle-filled"><rect width="26" height="26" fill="white"/><g transform="translate(3, 3)"><g><path fill-rule="evenodd" clip-rule="evenodd" d="M3.14823 7.84399C3.70228 9.99627 4.8679 12.1933 6.19709 13.5225C8.04856 15.374 9.78212 16.0398 11.1697 16.0928C12.5467 16.1455 13.7865 15.6034 14.7162 14.6711C15.0828 14.3035 15.3522 13.7336 15.4693 12.9563C15.5853 12.1865 15.5407 11.2815 15.354 10.325C14.655 6.74381 11.3092 3.86381 7.13668 2.84807C5.22568 2.38286 4.07246 2.5434 3.50491 3.11257C3.16523 3.45321 2.90799 4.04429 2.83359 4.91145C2.76064 5.76165 2.87315 6.77539 3.14823 7.84399ZM0.69231 4.82129C0.783216 3.76178 1.11462 2.71117 1.88761 1.93599C3.39381 0.425507 5.8061 0.597892 7.76969 1.0759C12.6066 2.25338 16.621 5.61868 17.4719 9.97778C17.6828 11.0583 17.7487 12.1512 17.5986 13.148C17.4495 14.1373 17.0761 15.1029 16.3335 15.8476C15.038 17.1469 13.1763 18.0146 11.0215 17.9322C8.87723 17.8503 6.64846 16.8364 4.55273 14.7407C2.94477 13.1328 1.65839 10.642 1.05107 8.28278C0.745472 7.09565 0.59995 5.89774 0.69231 4.82129Z" fill="black"/><path fill-rule="evenodd" clip-rule="evenodd" d="M11.1961 6.45979C11.7814 6.54578 12.1743 7.02077 12.0736 7.5207L11.6019 9.86326L13.8848 12.4771L15.4205 14.5248L17.4344 17.5456C17.7283 17.9864 17.5481 18.5472 17.032 18.7982C16.516 19.0492 15.8594 18.8954 15.5655 18.4546L13.5793 15.4754L12.3562 13.8445L8.59399 13.3477C8.00707 13.2702 7.60483 12.801 7.69556 12.2997C7.78629 11.7984 8.33563 11.4548 8.92256 11.5323L10.5659 11.7493L9.64785 10.6981L5.7549 7.36132C5.33568 7.00199 5.33688 6.42043 5.75756 6.06237C6.17824 5.7043 6.85911 5.70532 7.27832 6.06464L9.75676 8.18902L9.95406 7.2093C10.0547 6.70937 10.6108 6.3738 11.1961 6.45979Z" fill="black"/></g><defs><clipPath id="clip0_2608_818"><rect width="20" height="20" fill="white" transform="matrix(0 1 -1 0 20 0)"/></clipPath></defs></g></mask></defs><circle r="13" cx="13" cy="13" mask="url(#mask-pop-leaf-circle-filled)" fill="currentColor"/></svg>