<svg width="20" height="20" viewBox="0 0 26 26" fill="none" xmlns="http://www.w3.org/2000/svg"><g transform="translate(3, 3)"><path fill-rule="evenodd" clip-rule="evenodd" d="M15.0265 7.23175C15.4508 6.87819 16.0814 6.93551 16.4349 7.35979L18.5183 9.85979C18.8718 10.2841 18.8145 10.9146 18.3902 11.2682C17.966 11.6218 17.3354 11.5644 16.9818 11.1402L14.8985 8.64016C14.5449 8.21588 14.6023 7.58532 15.0265 7.23175Z" fill="currentColor"/><path fill-rule="evenodd" clip-rule="evenodd" d="M15.0265 13.7682C14.6022 13.4146 14.5449 12.7841 14.8984 12.3598L16.9818 9.85979C17.3353 9.43551 17.9659 9.37819 18.3902 9.73175C18.8144 10.0853 18.8718 10.7159 18.5182 11.1402L16.4349 13.6402C16.0813 14.0644 15.4507 14.1218 15.0265 13.7682Z" fill="currentColor"/><path fill-rule="evenodd" clip-rule="evenodd" d="M17.5001 10.5C17.5001 11.0523 17.0523 11.5 16.5001 11.5L10.0001 11.5C9.44778 11.5 9.00006 11.0523 9.00006 10.5C9.00006 9.94772 9.44778 9.5 10.0001 9.5L16.5001 9.5C17.0523 9.5 17.5001 9.94772 17.5001 10.5Z" fill="currentColor"/><path fill-rule="evenodd" clip-rule="evenodd" d="M3 3.5C3 2.94772 3.44772 2.5 4 2.5H13C13.5523 2.5 14 2.94772 14 3.5C14 4.05228 13.5523 4.5 13 4.5H4C3.44772 4.5 3 4.05228 3 3.5Z" fill="currentColor"/><path fill-rule="evenodd" clip-rule="evenodd" d="M3 17.5C3 16.9477 3.44772 16.5 4 16.5H13C13.5523 16.5 14 16.9477 14 17.5C14 18.0523 13.5523 18.5 13 18.5H4C3.44772 18.5 3 18.0523 3 17.5Z" fill="currentColor"/><path fill-rule="evenodd" clip-rule="evenodd" d="M13 2.5C13.5523 2.5 14 2.94772 14 3.5V7.5C14 8.05228 13.5523 8.5 13 8.5C12.4477 8.5 12 8.05228 12 7.5V3.5C12 2.94772 12.4477 2.5 13 2.5Z" fill="currentColor"/><path fill-rule="evenodd" clip-rule="evenodd" d="M13 12.5C13.5523 12.5 14 12.9477 14 13.5V17.5C14 18.0523 13.5523 18.5 13 18.5C12.4477 18.5 12 18.0523 12 17.5V13.5C12 12.9477 12.4477 12.5 13 12.5Z" fill="currentColor"/><path fill-rule="evenodd" clip-rule="evenodd" d="M4 2.5C4.55228 2.5 5 2.94772 5 3.5L5 17.5C5 18.0523 4.55228 18.5 4 18.5C3.44772 18.5 3 18.0523 3 17.5L3 3.5C3 2.94772 3.44772 2.5 4 2.5Z" fill="currentColor"/><path d="M1.29289 2.70711C0.902369 2.31658 0.902369 1.68342 1.29289 1.29289C1.68342 0.902368 2.31658 0.902368 2.70711 1.29289L18.7071 17.2929C19.0976 17.6834 19.0976 18.3166 18.7071 18.7071C18.3166 19.0976 17.6834 19.0976 17.2929 18.7071L1.29289 2.70711Z" fill="currentColor"/></g><path fill-rule="evenodd" clip-rule="evenodd" d="M13 24C19.0751 24 24 19.0751 24 13C24 6.92487 19.0751 2 13 2C6.92487 2 2 6.92487 2 13C2 19.0751 6.92487 24 13 24ZM13 26C20.1797 26 26 20.1797 26 13C26 5.8203 20.1797 0 13 0C5.8203 0 0 5.8203 0 13C0 20.1797 5.8203 26 13 26Z" fill="currentColor"/></svg>