<svg width="20" height="20" viewBox="0 0 26 26" fill="none" xmlns="http://www.w3.org/2000/svg"><defs><mask id="mask-pop-letter-circle-filled"><rect width="26" height="26" fill="white"/><g transform="translate(3, 3)"><path fill-rule="evenodd" clip-rule="evenodd" d="M17 3.5H3C2.44772 3.5 2 3.94772 2 4.5V15.5C2 16.0523 2.44772 16.5 3 16.5H17C17.5523 16.5 18 16.0523 18 15.5V4.5C18 3.94772 17.5523 3.5 17 3.5ZM4 14.5V5.5H16V14.5H4Z" fill="black"/><path fill-rule="evenodd" clip-rule="evenodd" d="M17.6484 5.26131L10.6034 11.2613C10.2279 11.5811 9.67524 11.5794 9.30177 11.2572L2.34679 5.25718C1.64501 4.65176 2.07317 3.5 3 3.5H17C17.93 3.5 18.3564 4.65833 17.6484 5.26131ZM5.69006 5.5L9.95917 9.18292L14.2835 5.5H5.69006Z" fill="black"/></g></mask></defs><circle r="13" cx="13" cy="13" mask="url(#mask-pop-letter-circle-filled)" fill="currentColor"/></svg>