<svg width="20" height="20" viewBox="0 0 20 20" fill="none" xmlns="http://www.w3.org/2000/svg"><path fill-rule="evenodd" clip-rule="evenodd" d="M17 3.5H3C2.44772 3.5 2 3.94772 2 4.5V15.5C2 16.0523 2.44772 16.5 3 16.5H17C17.5523 16.5 18 16.0523 18 15.5V4.5C18 3.94772 17.5523 3.5 17 3.5ZM4 14.5V5.5H16V14.5H4Z" fill="currentColor"/><path fill-rule="evenodd" clip-rule="evenodd" d="M17.6484 5.26131L10.6034 11.2613C10.2279 11.5811 9.67524 11.5794 9.30177 11.2572L2.34679 5.25718C1.64501 4.65176 2.07317 3.5 3 3.5H17C17.93 3.5 18.3564 4.65833 17.6484 5.26131ZM5.69006 5.5L9.95917 9.18292L14.2835 5.5H5.69006Z" fill="currentColor"/><path d="M1.29289 2.70711C0.902369 2.31658 0.902369 1.68342 1.29289 1.29289C1.68342 0.902368 2.31658 0.902368 2.70711 1.29289L18.7071 17.2929C19.0976 17.6834 19.0976 18.3166 18.7071 18.7071C18.3166 19.0976 17.6834 19.0976 17.2929 18.7071L1.29289 2.70711Z" fill="currentColor"/></svg>