<svg width="20" height="20" viewBox="0 0 20 20" fill="none" xmlns="http://www.w3.org/2000/svg"><g><path fill-rule="evenodd" clip-rule="evenodd" d="M0.807571 19.1925C0.417046 18.8019 0.417046 18.1688 0.807571 17.7782L17.7781 0.807684C18.1687 0.417159 18.8018 0.41716 19.1923 0.807684C19.5829 1.19821 19.5829 1.83137 19.1923 2.2219L2.22178 19.1925C1.83126 19.583 1.19809 19.583 0.807571 19.1925Z" fill="currentColor"/></g><path d="M1.29289 2.70711C0.902369 2.31658 0.902369 1.68342 1.29289 1.29289C1.68342 0.902368 2.31658 0.902368 2.70711 1.29289L18.7071 17.2929C19.0976 17.6834 19.0976 18.3166 18.7071 18.7071C18.3166 19.0976 17.6834 19.0976 17.2929 18.7071L1.29289 2.70711Z" fill="currentColor"/></svg>