<svg width="20" height="20" viewBox="0 0 26 26" fill="none" xmlns="http://www.w3.org/2000/svg"><g transform="translate(3, 3)"><g><path fill-rule="evenodd" clip-rule="evenodd" d="M0.807571 19.1925C0.417046 18.8019 0.417046 18.1688 0.807571 17.7782L17.7781 0.807684C18.1687 0.417159 18.8018 0.41716 19.1923 0.807684C19.5829 1.19821 19.5829 1.83137 19.1923 2.2219L2.22178 19.1925C1.83126 19.583 1.19809 19.583 0.807571 19.1925Z" fill="currentColor"/></g></g><path fill-rule="evenodd" clip-rule="evenodd" d="M13 24C19.0751 24 24 19.0751 24 13C24 6.92487 19.0751 2 13 2C6.92487 2 2 6.92487 2 13C2 19.0751 6.92487 24 13 24ZM13 26C20.1797 26 26 20.1797 26 13C26 5.8203 20.1797 0 13 0C5.8203 0 0 5.8203 0 13C0 20.1797 5.8203 26 13 26Z" fill="currentColor"/></svg>