<svg width="20" height="20" viewBox="0 0 26 26" fill="none" xmlns="http://www.w3.org/2000/svg"><g transform="translate(3, 3)"><g><path fill-rule="evenodd" clip-rule="evenodd" d="M0.807542 0.807632C1.19807 0.417107 1.83123 0.417107 2.22176 0.807632L19.1923 17.7782C19.5828 18.1687 19.5828 18.8019 19.1923 19.1924C18.8018 19.5829 18.1686 19.5829 17.7781 19.1924L0.807542 2.22185C0.417017 1.83132 0.417017 1.19816 0.807542 0.807632Z" fill="currentColor"/></g></g><path fill-rule="evenodd" clip-rule="evenodd" d="M13 24C19.0751 24 24 19.0751 24 13C24 6.92487 19.0751 2 13 2C6.92487 2 2 6.92487 2 13C2 19.0751 6.92487 24 13 24ZM13 26C20.1797 26 26 20.1797 26 13C26 5.8203 20.1797 0 13 0C5.8203 0 0 5.8203 0 13C0 20.1797 5.8203 26 13 26Z" fill="currentColor"/></svg>