<svg width="20" height="20" viewBox="0 0 20 20" fill="none" xmlns="http://www.w3.org/2000/svg"><g><path fill-rule="evenodd" clip-rule="evenodd" d="M0.807542 0.807632C1.19807 0.417107 1.83123 0.417107 2.22176 0.807632L19.1923 17.7782C19.5828 18.1687 19.5828 18.8019 19.1923 19.1924C18.8018 19.5829 18.1686 19.5829 17.7781 19.1924L0.807542 2.22185C0.417017 1.83132 0.417017 1.19816 0.807542 0.807632Z" fill="currentColor"/></g><path d="M1.29289 2.70711C0.902369 2.31658 0.902369 1.68342 1.29289 1.29289C1.68342 0.902368 2.31658 0.902368 2.70711 1.29289L18.7071 17.2929C19.0976 17.6834 19.0976 18.3166 18.7071 18.7071C18.3166 19.0976 17.6834 19.0976 17.2929 18.7071L1.29289 2.70711Z" fill="currentColor"/></svg>