<svg width="20" height="20" viewBox="0 0 20 20" fill="none" xmlns="http://www.w3.org/2000/svg"><path d="M6.5 6C6.5 6.82843 5.82843 7.5 5 7.5C4.17157 7.5 3.5 6.82843 3.5 6C3.5 5.17157 4.17157 4.5 5 4.5C5.82843 4.5 6.5 5.17157 6.5 6Z" fill="currentColor"/><path d="M6.5 10C6.5 10.8284 5.82843 11.5 5 11.5C4.17157 11.5 3.5 10.8284 3.5 10C3.5 9.17157 4.17157 8.5 5 8.5C5.82843 8.5 6.5 9.17157 6.5 10Z" fill="currentColor"/><path d="M6.5 14C6.5 14.8284 5.82843 15.5 5 15.5C4.17157 15.5 3.5 14.8284 3.5 14C3.5 13.1716 4.17157 12.5 5 12.5C5.82843 12.5 6.5 13.1716 6.5 14Z" fill="currentColor"/><path fill-rule="evenodd" clip-rule="evenodd" d="M7.5 6C7.5 5.44772 7.94772 5 8.5 5H15.5C16.0523 5 16.5 5.44772 16.5 6C16.5 6.55228 16.0523 7 15.5 7H8.5C7.94772 7 7.5 6.55228 7.5 6Z" fill="currentColor"/><path fill-rule="evenodd" clip-rule="evenodd" d="M7.5 10C7.5 9.44772 7.94772 9 8.5 9H15.5C16.0523 9 16.5 9.44772 16.5 10C16.5 10.5523 16.0523 11 15.5 11H8.5C7.94772 11 7.5 10.5523 7.5 10Z" fill="currentColor"/><path fill-rule="evenodd" clip-rule="evenodd" d="M7.5 14C7.5 13.4477 7.94772 13 8.5 13H15.5C16.0523 13 16.5 13.4477 16.5 14C16.5 14.5523 16.0523 15 15.5 15H8.5C7.94772 15 7.5 14.5523 7.5 14Z" fill="currentColor"/><path d="M1.29289 2.70711C0.902369 2.31658 0.902369 1.68342 1.29289 1.29289C1.68342 0.902368 2.31658 0.902368 2.70711 1.29289L18.7071 17.2929C19.0976 17.6834 19.0976 18.3166 18.7071 18.7071C18.3166 19.0976 17.6834 19.0976 17.2929 18.7071L1.29289 2.70711Z" fill="currentColor"/></svg>