<svg width="20" height="20" viewBox="0 0 26 26" fill="none" xmlns="http://www.w3.org/2000/svg"><g transform="translate(3, 3)"><path fill-rule="evenodd" clip-rule="evenodd" d="M8 13C8 14.1046 8.89543 15 10 15C11.1046 15 12 14.1046 12 13C12 11.8954 11.1046 11 10 11C8.89543 11 8 11.8954 8 13ZM10.5 13C10.5 13.2761 10.2761 13.5 10 13.5C9.72386 13.5 9.5 13.2761 9.5 13C9.5 12.7239 9.72386 12.5 10 12.5C10.2761 12.5 10.5 12.7239 10.5 13Z" fill="currentColor"/><path fill-rule="evenodd" clip-rule="evenodd" d="M13 7H7C4.79086 7 3 8.79086 3 11V15C3 17.2091 4.79086 19 7 19H13C15.2091 19 17 17.2091 17 15V11C17 8.79086 15.2091 7 13 7ZM5 11C5 9.89543 5.89543 9 7 9H13C14.1046 9 15 9.89543 15 11V15C15 16.1046 14.1046 17 13 17H7C5.89543 17 5 16.1046 5 15V11Z" fill="currentColor"/><path fill-rule="evenodd" clip-rule="evenodd" d="M14 4C14 1.79086 12.2091 0 10 0C7.79086 0 6 1.79086 6 4V9H14V4ZM12 4V7H8V4C8 2.89543 8.89543 2 10 2C11.1046 2 12 2.89543 12 4Z" fill="currentColor"/><path d="M1.29289 2.70711C0.902369 2.31658 0.902369 1.68342 1.29289 1.29289C1.68342 0.902368 2.31658 0.902368 2.70711 1.29289L18.7071 17.2929C19.0976 17.6834 19.0976 18.3166 18.7071 18.7071C18.3166 19.0976 17.6834 19.0976 17.2929 18.7071L1.29289 2.70711Z" fill="currentColor"/></g><path fill-rule="evenodd" clip-rule="evenodd" d="M13 24C19.0751 24 24 19.0751 24 13C24 6.92487 19.0751 2 13 2C6.92487 2 2 6.92487 2 13C2 19.0751 6.92487 24 13 24ZM13 26C20.1797 26 26 20.1797 26 13C26 5.8203 20.1797 0 13 0C5.8203 0 0 5.8203 0 13C0 20.1797 5.8203 26 13 26Z" fill="currentColor"/></svg>