<svg width="20" height="20" viewBox="0 0 26 26" fill="none" xmlns="http://www.w3.org/2000/svg"><g transform="translate(3, 3)"><path fill-rule="evenodd" clip-rule="evenodd" d="M4.82843 4.82846C2.48529 7.1716 2.48529 10.9706 4.82843 13.3137C7.17158 15.6569 10.9706 15.6569 13.3137 13.3137C15.6569 10.9706 15.6569 7.1716 13.3137 4.82846C10.9706 2.48531 7.17158 2.48531 4.82843 4.82846ZM11.8995 11.8995C10.3374 13.4616 7.80475 13.4616 6.24265 11.8995C4.68055 10.3374 4.68055 7.80477 6.24265 6.24267C7.80475 4.68057 10.3374 4.68057 11.8995 6.24267C13.4616 7.80477 13.4616 10.3374 11.8995 11.8995Z" fill="currentColor"/><path d="M11.8995 14.7279C11.3137 14.1421 11.3137 13.1924 11.8995 12.6066C12.4853 12.0208 13.435 12.0208 14.0208 12.6066L17.5563 16.1421C18.1421 16.7279 18.1421 17.6776 17.5563 18.2634C16.9706 18.8492 16.0208 18.8492 15.435 18.2634L11.8995 14.7279Z" fill="currentColor"/><path d="M6.70709 9.91418C6.15481 9.91418 5.70709 9.46647 5.70709 8.91418C5.70709 8.3619 6.15481 7.91418 6.70709 7.91418H11.1924C11.7447 7.91418 12.1924 8.3619 12.1924 8.91418C12.1924 9.46647 11.7447 9.91418 11.1924 9.91418H6.70709Z" fill="currentColor"/><path d="M1.29289 2.70711C0.902369 2.31658 0.902369 1.68342 1.29289 1.29289C1.68342 0.902368 2.31658 0.902368 2.70711 1.29289L18.7071 17.2929C19.0976 17.6834 19.0976 18.3166 18.7071 18.7071C18.3166 19.0976 17.6834 19.0976 17.2929 18.7071L1.29289 2.70711Z" fill="currentColor"/></g><path fill-rule="evenodd" clip-rule="evenodd" d="M13 24C19.0751 24 24 19.0751 24 13C24 6.92487 19.0751 2 13 2C6.92487 2 2 6.92487 2 13C2 19.0751 6.92487 24 13 24ZM13 26C20.1797 26 26 20.1797 26 13C26 5.8203 20.1797 0 13 0C5.8203 0 0 5.8203 0 13C0 20.1797 5.8203 26 13 26Z" fill="currentColor"/></svg>