<svg width="20" height="20" viewBox="0 0 26 26" fill="none" xmlns="http://www.w3.org/2000/svg"><g transform="translate(3, 3)"><g><path fill-rule="evenodd" clip-rule="evenodd" d="M4.47487 4.4749C2.32698 6.62279 2.32698 10.1052 4.47487 12.2531C6.62275 14.401 10.1052 14.401 12.253 12.2531C14.4009 10.1052 14.4009 6.62279 12.253 4.4749C10.1052 2.32702 6.62275 2.32702 4.47487 4.4749ZM10.8388 10.8389C9.47199 12.2057 7.25591 12.2057 5.88908 10.8389C4.52224 9.47203 4.52224 7.25595 5.88908 5.88912C7.25591 4.52228 9.47199 4.52228 10.8388 5.88912C12.2057 7.25595 12.2057 9.47203 10.8388 10.8389Z" fill="currentColor"/><path d="M11.1924 13.3137C10.6066 12.7279 10.6066 11.7782 11.1924 11.1924C11.7782 10.6066 12.7279 10.6066 13.3137 11.1924L16.8492 14.7279C17.435 15.3137 17.435 16.2635 16.8492 16.8492C16.2635 17.435 15.3137 17.435 14.7279 16.8492L11.1924 13.3137Z" fill="currentColor"/></g></g><path fill-rule="evenodd" clip-rule="evenodd" d="M13 24C19.0751 24 24 19.0751 24 13C24 6.92487 19.0751 2 13 2C6.92487 2 2 6.92487 2 13C2 19.0751 6.92487 24 13 24ZM13 26C20.1797 26 26 20.1797 26 13C26 5.8203 20.1797 0 13 0C5.8203 0 0 5.8203 0 13C0 20.1797 5.8203 26 13 26Z" fill="currentColor"/></svg>