<svg width="20" height="20" viewBox="0 0 26 26" fill="none" xmlns="http://www.w3.org/2000/svg"><g transform="translate(3, 3)"><g><path fill-rule="evenodd" clip-rule="evenodd" d="M7.29286 1.39339C7.68339 1.00286 8.31655 1.00286 8.70708 1.39339L12.2426 4.92892C12.6331 5.31944 12.6331 5.95261 12.2426 6.34313L7.29286 11.2929C6.90234 11.6834 6.90234 12.3166 7.29286 12.7071C7.68339 13.0976 8.31655 13.0976 8.70708 12.7071L13.6568 7.75735C14.0473 7.36682 14.6805 7.36682 15.071 7.75735L18.6066 11.2929C18.9971 11.6834 18.9971 12.3166 18.6066 12.7071L13.6568 17.6568C10.5326 20.781 5.46732 20.781 2.34312 17.6568C-0.781075 14.5326 -0.781077 9.46733 2.34312 6.34313L7.29286 1.39339ZM7.99997 3.51471L3.75733 7.75734C1.41419 10.1005 1.41419 13.8995 3.75734 16.2426C6.10048 18.5858 9.89947 18.5858 12.2426 16.2426L16.4853 12L14.3639 9.87867L10.1213 14.1213C8.94972 15.2929 7.05022 15.2929 5.87865 14.1213C4.70708 12.9497 4.70708 11.0502 5.87865 9.87867L10.1213 5.63603L7.99997 3.51471Z" fill="currentColor"/><path fill-rule="evenodd" clip-rule="evenodd" d="M7.29286 8.46446L5.17154 6.34314L6.58575 4.92892L8.70707 7.05024L7.29286 8.46446Z" fill="currentColor"/><path fill-rule="evenodd" clip-rule="evenodd" d="M13.6568 14.8284L11.5355 12.7071L12.9497 11.2929L15.071 13.4142L13.6568 14.8284Z" fill="currentColor"/><path fill-rule="evenodd" clip-rule="evenodd" d="M14.6286 6.42847C14.1158 6.22336 13.8664 5.64139 14.0715 5.1286L15.4217 1.75314L16.98 2.27258L17.7988 0.567164C18.0379 0.06929 18.6352 -0.140537 19.1331 0.0985035C19.631 0.337543 19.8408 0.93493 19.6018 1.4328L18.02 4.72741L16.5783 4.24685L15.9285 5.87139C15.7233 6.38417 15.1414 6.63359 14.6286 6.42847Z" fill="currentColor"/></g><path d="M1.29289 2.70711C0.902369 2.31658 0.902369 1.68342 1.29289 1.29289C1.68342 0.902368 2.31658 0.902368 2.70711 1.29289L18.7071 17.2929C19.0976 17.6834 19.0976 18.3166 18.7071 18.7071C18.3166 19.0976 17.6834 19.0976 17.2929 18.7071L1.29289 2.70711Z" fill="currentColor"/></g><path fill-rule="evenodd" clip-rule="evenodd" d="M13 24C19.0751 24 24 19.0751 24 13C24 6.92487 19.0751 2 13 2C6.92487 2 2 6.92487 2 13C2 19.0751 6.92487 24 13 24ZM13 26C20.1797 26 26 20.1797 26 13C26 5.8203 20.1797 0 13 0C5.8203 0 0 5.8203 0 13C0 20.1797 5.8203 26 13 26Z" fill="currentColor"/></svg>