<svg width="20" height="20" viewBox="0 0 26 26" fill="none" xmlns="http://www.w3.org/2000/svg"><g transform="translate(3, 3)"><path fill-rule="evenodd" clip-rule="evenodd" d="M10 10C11.3807 10 12.5 8.88071 12.5 7.5C12.5 6.11929 11.3807 5 10 5C8.61929 5 7.5 6.11929 7.5 7.5C7.5 8.88071 8.61929 10 10 10ZM10 7C10.2761 7 10.5 7.22386 10.5 7.5C10.5 7.77614 10.2761 8 10 8C9.72386 8 9.5 7.77614 9.5 7.5C9.5 7.22386 9.72386 7 10 7Z" fill="currentColor"/><path fill-rule="evenodd" clip-rule="evenodd" d="M5 7.28555C5 10.1987 7.80453 15 10 15C12.1955 15 15 10.1987 15 7.28555C15 4.38124 12.7774 2 10 2C7.22258 2 5 4.38124 5 7.28555ZM13 7.28555C13 9.2396 10.8035 13 10 13C9.19652 13 7 9.2396 7 7.28555C7 5.45617 8.35914 4 10 4C11.6409 4 13 5.45617 13 7.28555Z" fill="currentColor"/><path d="M13.7298 10C13.1775 10 12.7298 9.55228 12.7298 9C12.7298 8.44772 13.1775 8 13.7298 8C15.0775 8 16.2597 8.89861 16.6204 10.1971L18.0093 15.1971C18.4527 16.7935 17.5181 18.4471 15.9217 18.8906C15.6602 18.9632 15.3901 19 15.1187 19H4.88129C3.22443 19 1.88129 17.6569 1.88129 16C1.88129 15.7286 1.9181 15.4585 1.99073 15.1971L3.37962 10.1971C3.7403 8.89861 4.92255 8 6.27018 8C6.82246 8 7.27018 8.44772 7.27018 9C7.27018 9.55228 6.82246 10 6.27018 10C5.82097 10 5.42689 10.2995 5.30666 10.7324L3.91777 15.7324C3.89356 15.8195 3.88129 15.9095 3.88129 16C3.88129 16.5523 4.329 17 4.88129 17H15.1187C15.2092 17 15.2992 16.9877 15.3864 16.9635C15.9185 16.8157 16.2301 16.2645 16.0822 15.7324L14.6934 10.7324C14.5731 10.2995 14.179 10 13.7298 10Z" fill="currentColor"/></g><path fill-rule="evenodd" clip-rule="evenodd" d="M13 24C19.0751 24 24 19.0751 24 13C24 6.92487 19.0751 2 13 2C6.92487 2 2 6.92487 2 13C2 19.0751 6.92487 24 13 24ZM13 26C20.1797 26 26 20.1797 26 13C26 5.8203 20.1797 0 13 0C5.8203 0 0 5.8203 0 13C0 20.1797 5.8203 26 13 26Z" fill="currentColor"/></svg>