<svg width="20" height="20" viewBox="0 0 20 20" fill="none" xmlns="http://www.w3.org/2000/svg"><path fill-rule="evenodd" clip-rule="evenodd" d="M10 10C11.3807 10 12.5 8.88071 12.5 7.5C12.5 6.11929 11.3807 5 10 5C8.61929 5 7.5 6.11929 7.5 7.5C7.5 8.88071 8.61929 10 10 10ZM10 7C10.2761 7 10.5 7.22386 10.5 7.5C10.5 7.77614 10.2761 8 10 8C9.72386 8 9.5 7.77614 9.5 7.5C9.5 7.22386 9.72386 7 10 7Z" fill="currentColor"/><path fill-rule="evenodd" clip-rule="evenodd" d="M5 7.28555C5 10.1987 7.80453 15 10 15C12.1955 15 15 10.1987 15 7.28555C15 4.38124 12.7774 2 10 2C7.22258 2 5 4.38124 5 7.28555ZM13 7.28555C13 9.2396 10.8035 13 10 13C9.19652 13 7 9.2396 7 7.28555C7 5.45617 8.35914 4 10 4C11.6409 4 13 5.45617 13 7.28555Z" fill="currentColor"/><path d="M13.7298 10C13.1775 10 12.7298 9.55228 12.7298 9C12.7298 8.44772 13.1775 8 13.7298 8C15.0774 8 16.2597 8.89861 16.6204 10.1971L18.0093 15.1971C18.4527 16.7935 17.5181 18.4471 15.9216 18.8906C15.6602 18.9632 15.3901 19 15.1187 19H4.88128C3.22442 19 1.88128 17.6569 1.88128 16C1.88128 15.7286 1.9181 15.4585 1.99073 15.1971L3.37961 10.1971C3.7403 8.89861 4.92254 8 6.27017 8C6.82245 8 7.27017 8.44772 7.27017 9C7.27017 9.55228 6.82245 10 6.27017 10C5.82096 10 5.42688 10.2995 5.30665 10.7324L3.91776 15.7324C3.89355 15.8195 3.88128 15.9095 3.88128 16C3.88128 16.5523 4.32899 17 4.88128 17H15.1187C15.2092 17 15.2992 16.9877 15.3864 16.9635C15.9185 16.8157 16.23 16.2645 16.0822 15.7324L14.6933 10.7324C14.5731 10.2995 14.179 10 13.7298 10Z" fill="currentColor"/></svg>