<svg xmlns="http://www.w3.org/2000/svg" width="20" height="20" viewBox="0 0 20 20">
  <g fill="none" fill-rule="evenodd">
    <g transform="rotate(-90 9 6)">
      <rect width="14" height="14" x=".5"/>
      <circle cx="7.5" cy="7" r="1.5" stroke="#AB92F0" stroke-width="2"/>
      <path stroke="#AB92F0" stroke-linecap="round" stroke-linejoin="round" stroke-width="2" d="M6.5,12.5 C8.03846154,12.5 10.5,8.15240146 10.5,5.78555487 C10.5,3.41870827 8.709139,1.5 6.5,1.5 C4.290861,1.5 2.5,3.41870827 2.5,5.78555487 C2.5,8.15240146 4.96153846,12.5 6.5,12.5 Z" transform="rotate(90 6.5 7)"/>
    </g>
    <path stroke="#AB92F0" stroke-width="2" d="M13.7808613,9 L6.36363636,9 C5.46173425,9 4.67141487,9.60364266 4.43410872,10.4737652 L3.07047236,15.4737652 C3.02369956,15.6452654 3,15.822236 3,16 C3,17.1045695 3.8954305,18 5,18 L15.1444977,18 C15.3222617,18 15.4992322,17.9763004 15.6707325,17.9295276 C16.7363812,17.6388962 17.3646568,16.5394139 17.0740253,15.4737652 L15.710389,10.4737652 C15.4730828,9.60364266 14.6827634,9 13.7808613,9 Z"/>
  </g>
</svg>
