<svg width="20" height="20" viewBox="0 0 26 26" fill="none" xmlns="http://www.w3.org/2000/svg"><defs><mask id="mask-pop-megaphone-circle-filled"><rect width="26" height="26" fill="white"/><g transform="translate(3, 3)"><path fill-rule="evenodd" clip-rule="evenodd" d="M7.39996 10.0542L13 11.5815V5.6185L7.39996 7.14578V10.0542ZM5.39996 10.818C5.39996 11.269 5.70178 11.6642 6.13685 11.7828L13.7369 13.8555C14.373 14.029 15 13.5501 15 12.8908V4.30925C15 3.64988 14.373 3.171 13.7369 3.34449L6.13685 5.41722C5.70178 5.53588 5.39996 5.93104 5.39996 6.38199L5.39996 10.818Z" fill="black"/><path fill-rule="evenodd" clip-rule="evenodd" d="M5.01605 9.80002V7.4H3.96888C3.54859 8.13534 3.54744 9.0554 3.9729 9.80002H5.01605ZM6.01605 11.8C6.56834 11.8 7.01605 11.3523 7.01605 10.8L7.01605 6.4C7.01605 5.84772 6.56834 5.4 6.01605 5.4L3.25275 5.4C3.10164 5.4 2.95718 5.46215 2.85326 5.57185C1.25087 7.26348 1.25751 9.9249 2.85144 11.6245C2.95597 11.736 3.10274 11.8 3.25555 11.8H6.01605Z" fill="black"/><path fill-rule="evenodd" clip-rule="evenodd" d="M6.42422 12H5.83956L5.07426 15H5.65708L6.42422 12ZM5.83956 10C4.9254 10 4.1276 10.6198 3.90163 11.5056L2.81816 15.7528C2.65686 16.3851 3.13458 17 3.78713 17H5.65708C6.57081 17 7.36836 16.3807 7.59473 15.4955L8.36187 12.4955C8.68532 11.2306 7.7298 10 6.42422 10H5.83956Z" fill="black"/><path fill-rule="evenodd" clip-rule="evenodd" d="M19.0319 4.44523C19.3383 4.90473 19.2142 5.52561 18.7547 5.832L17.2548 6.83211C16.7953 7.1385 16.1744 7.01438 15.868 6.55488C15.5616 6.09537 15.6857 5.4745 16.1452 5.1681L17.6451 4.16799C18.1046 3.8616 18.7255 3.98572 19.0319 4.44523Z" fill="black"/><path fill-rule="evenodd" clip-rule="evenodd" d="M15.6999 8.60002C15.6999 8.04774 16.1476 7.60003 16.6999 7.60003L18.1998 7.60003C18.752 7.60003 19.1998 8.04775 19.1998 8.60004C19.1998 9.15232 18.752 9.60003 18.1998 9.60003L16.6999 9.60003C16.1476 9.60003 15.6999 9.15231 15.6999 8.60002Z" fill="black"/><path fill-rule="evenodd" clip-rule="evenodd" d="M15.9341 10.5089C16.2893 10.086 16.9201 10.0311 17.343 10.3863L18.7235 11.5457C19.1464 11.9009 19.2013 12.5317 18.8462 12.9546C18.491 13.3775 17.8602 13.4324 17.4373 13.0772L16.0568 11.9178C15.6339 11.5626 15.579 10.9318 15.9341 10.5089Z" fill="black"/></g></mask></defs><circle r="13" cx="13" cy="13" mask="url(#mask-pop-megaphone-circle-filled)" fill="currentColor"/></svg>