<svg width="20" height="20" viewBox="0 0 26 26" fill="none" xmlns="http://www.w3.org/2000/svg"><defs><mask id="mask-pop-microphone-circle-filled"><rect width="26" height="26" fill="white"/><g transform="translate(3, 3)"><path fill-rule="evenodd" clip-rule="evenodd" d="M7.5 4.5C7.5 3.11929 8.61929 2 10 2C11.3807 2 12.5 3.11929 12.5 4.5V8.5C12.5 9.88071 11.3807 11 10 11C8.61929 11 7.5 9.88071 7.5 8.5V4.5Z" fill="black"/><path d="M10 18.5C7.16602 18.5 5.5 18.2917 5.5 17.5C5.5 16.7083 7.16602 16.5 10 16.5C12.834 16.5 14.5 16.7083 14.5 17.5C14.5 18.2917 12.834 18.5 10 18.5Z" fill="black"/><path d="M9.03571 13.5H11.0357V18H9.03571V13.5Z" fill="black"/><path d="M14 8C14 7.44772 14.4477 7 15 7C15.5523 7 16 7.44772 16 8V9.8C16 12.7142 13.2789 15 10 15C6.72114 15 4 12.7142 4 9.8V8C4 7.44772 4.44772 7 5 7C5.55228 7 6 7.44772 6 8V9.8C6 11.5249 7.75601 13 10 13C12.244 13 14 11.5249 14 9.8V8Z" fill="black"/></g></mask></defs><circle r="13" cx="13" cy="13" mask="url(#mask-pop-microphone-circle-filled)" fill="currentColor"/></svg>