<svg width="20" height="20" viewBox="0 0 26 26" fill="none" xmlns="http://www.w3.org/2000/svg"><defs><mask id="mask-pop-microphone-handheld-circle-filled"><rect width="26" height="26" fill="white"/><g transform="translate(3, 3)"><g><circle cx="11.6629" cy="5.11788" r="3" transform="rotate(38.2702 11.6629 5.11788)" stroke="black" stroke-width="2"/><path d="M8.54428 5.84189L3.98186 12.4324" stroke="black" stroke-width="2" stroke-linecap="round"/><path d="M11.6847 8.31937L6.33716 14.2905" stroke="black" stroke-width="2" stroke-linecap="round"/><path d="M3.98186 12.4323L6.33715 14.2905" stroke="black" stroke-width="2" stroke-linecap="round"/><path d="M9.61729 2.86722L10.4383 4.11733C11.0322 5.02161 11.9033 5.70887 12.921 6.07596L14.3279 6.58345" stroke="black" stroke-width="1.5"/><path d="M4.7 14C4.7 14 3.66601 15.328 3.54163 16C3.39837 16.774 3.6772 17.2869 4.05595 17.5857C4.4347 17.8845 5.26724 17.9742 6.04924 17.8845C8.18314 17.6397 9.47204 14.4473 11.3997 13.5C12.8868 12.7693 12.7844 12.8683 14.3997 12.5C15.7726 12.187 17.0975 11.9527 17.0975 11.9527" stroke="black" stroke-width="2" stroke-linecap="round"/></g></g></mask></defs><circle r="13" cx="13" cy="13" mask="url(#mask-pop-microphone-handheld-circle-filled)" fill="currentColor"/></svg>