<svg width="20" height="20" viewBox="0 0 26 26" fill="none" xmlns="http://www.w3.org/2000/svg"><g transform="translate(3, 3)"><g><circle cx="11.6629" cy="5.11788" r="3" transform="rotate(38.2702 11.6629 5.11788)" stroke="currentColor" stroke-width="2"/><path d="M8.54428 5.84189L3.98186 12.4324" stroke="currentColor" stroke-width="2" stroke-linecap="round"/><path d="M11.6847 8.31937L6.33716 14.2905" stroke="currentColor" stroke-width="2" stroke-linecap="round"/><path d="M3.98186 12.4323L6.33715 14.2905" stroke="currentColor" stroke-width="2" stroke-linecap="round"/><path d="M9.61729 2.86722L10.4383 4.11733C11.0322 5.02161 11.9033 5.70887 12.921 6.07596L14.3279 6.58345" stroke="currentColor" stroke-width="1.5"/><path d="M4.7 14C4.7 14 3.66601 15.328 3.54163 16C3.39837 16.774 3.6772 17.2869 4.05595 17.5857C4.4347 17.8845 5.26724 17.9742 6.04924 17.8845C8.18314 17.6397 9.47204 14.4473 11.3997 13.5C12.8868 12.7693 12.7844 12.8683 14.3997 12.5C15.7726 12.187 17.0975 11.9527 17.0975 11.9527" stroke="currentColor" stroke-width="2" stroke-linecap="round"/></g><path d="M1.29289 2.70711C0.902369 2.31658 0.902369 1.68342 1.29289 1.29289C1.68342 0.902368 2.31658 0.902368 2.70711 1.29289L18.7071 17.2929C19.0976 17.6834 19.0976 18.3166 18.7071 18.7071C18.3166 19.0976 17.6834 19.0976 17.2929 18.7071L1.29289 2.70711Z" fill="currentColor"/></g><path fill-rule="evenodd" clip-rule="evenodd" d="M13 24C19.0751 24 24 19.0751 24 13C24 6.92487 19.0751 2 13 2C6.92487 2 2 6.92487 2 13C2 19.0751 6.92487 24 13 24ZM13 26C20.1797 26 26 20.1797 26 13C26 5.8203 20.1797 0 13 0C5.8203 0 0 5.8203 0 13C0 20.1797 5.8203 26 13 26Z" fill="currentColor"/></svg>