<svg width="20" height="20" viewBox="0 0 20 20" fill="none" xmlns="http://www.w3.org/2000/svg"><path fill-rule="evenodd" clip-rule="evenodd" d="M17.5 1H2.5C1.11929 1 0 2.11929 0 3.5V13.5C0 14.8807 1.11929 16 2.5 16H17.5C18.8807 16 20 14.8807 20 13.5V3.5C20 2.11929 18.8807 1 17.5 1ZM2 3.5C2 3.22386 2.22386 3 2.5 3H17.5C17.7761 3 18 3.22386 18 3.5V13.5C18 13.7761 17.7761 14 17.5 14H2.5C2.22386 14 2 13.7761 2 13.5V3.5Z" fill="currentColor"/><path d="M10 13.75C9.58579 13.75 9.25 13.4142 9.25 13C9.25 12.5858 9.58579 12.25 10 12.25C10.4142 12.25 10.75 12.5858 10.75 13C10.75 13.4142 10.4142 13.75 10 13.75Z" fill="currentColor"/><path fill-rule="evenodd" clip-rule="evenodd" d="M11.5 14.5H8.5C7.94772 14.5 7.5 14.9477 7.5 15.5V18C7.5 18.5523 7.94772 19 8.5 19H11.5C12.0523 19 12.5 18.5523 12.5 18V15.5C12.5 14.9477 12.0523 14.5 11.5 14.5ZM9 17.5V16H11V17.5H9Z" fill="currentColor"/><path d="M5.5 19.5C4.94772 19.5 4.5 19.0523 4.5 18.5C4.5 17.9477 4.94772 17.5 5.5 17.5H14.5C15.0523 17.5 15.5 17.9477 15.5 18.5C15.5 19.0523 15.0523 19.5 14.5 19.5H5.5Z" fill="currentColor"/><path fill-rule="evenodd" clip-rule="evenodd" d="M19 12H1V11H19V12Z" fill="currentColor"/><path d="M1.29289 2.70711C0.902369 2.31658 0.902369 1.68342 1.29289 1.29289C1.68342 0.902368 2.31658 0.902368 2.70711 1.29289L18.7071 17.2929C19.0976 17.6834 19.0976 18.3166 18.7071 18.7071C18.3166 19.0976 17.6834 19.0976 17.2929 18.7071L1.29289 2.70711Z" fill="currentColor"/></svg>