<svg width="21" height="20" viewBox="0 0 21 20" fill="none" xmlns="http://www.w3.org/2000/svg">
<path fill-rule="evenodd" clip-rule="evenodd" d="M2.5 4.5C2.5 3.11929 3.61929 2 5 2H16.7479C18.1287 2 19.2479 3.11929 19.2479 4.5V12.1513C19.2479 13.532 18.1287 14.6513 16.7479 14.6513H11.874V16.9286C11.874 17.4809 11.4263 17.9286 10.874 17.9286C10.3217 17.9286 9.87397 17.4809 9.87397 16.9286V14.4311C9.64595 14.2479 9.5 13.9666 9.5 13.6513C9.5 13.099 9.94772 12.6513 10.5 12.6513H16.7479C17.0241 12.6513 17.2479 12.4274 17.2479 12.1513V4.5C17.2479 4.22386 17.0241 4 16.7479 4H5C4.72386 4 4.5 4.22386 4.5 4.5V6C4.5 6.55228 4.05228 7 3.5 7C2.94772 7 2.5 6.55228 2.5 6V4.5Z" fill="currentColor"/>
<path fill-rule="evenodd" clip-rule="evenodd" d="M6.18701 17.5905C6.18701 17.0382 6.63473 16.5905 7.18701 16.5905H14.561C15.1133 16.5905 15.561 17.0382 15.561 17.5905C15.561 18.1427 15.1133 18.5905 14.561 18.5905H7.18701C6.63473 18.5905 6.18701 18.1427 6.18701 17.5905Z" fill="currentColor"/>
<path fill-rule="evenodd" clip-rule="evenodd" d="M6.43675 9.3815C5.36734 8.81314 4.03967 9.21931 3.47131 10.2887C2.90295 11.3581 3.30913 12.6858 4.37853 13.2541C5.44793 13.8225 6.7756 13.4163 7.34396 12.3469C7.91232 11.2775 7.50615 9.94986 6.43675 9.3815ZM1.70525 9.3501C2.79199 7.30532 5.33059 6.52869 7.37536 7.61543C9.42014 8.70218 10.1968 11.2408 9.11003 13.2855C8.18502 15.026 6.20815 15.8477 4.37926 15.3836L2.70242 18.5386C2.44322 19.0263 1.83776 19.2116 1.35007 18.9524C0.862387 18.6932 0.677157 18.0877 0.936349 17.6L2.61319 14.4449C1.20524 13.1888 0.780238 11.0906 1.70525 9.3501Z" fill="currentColor"/>
</svg>
