<svg width="20" height="20" viewBox="0 0 26 26" fill="none" xmlns="http://www.w3.org/2000/svg"><defs><mask id="mask-pop-moon-circle-filled"><rect width="26" height="26" fill="white"/><g transform="translate(3, 3)"><path fill-rule="evenodd" clip-rule="evenodd" d="M8.76447 6.1275C9.07052 4.68767 10.0433 3.51293 11.3637 2.93174C12.2938 2.52236 12.0913 1.14759 11.0826 1.02391C6.47122 0.458427 2.16189 3.52205 1.18835 8.10223C0.15323 12.9721 3.2549 17.7583 8.11727 18.7918C12.9796 19.8254 17.7599 16.7145 18.795 11.8446C18.9477 11.1264 19.0122 10.4004 18.9896 9.67855C18.9577 8.66019 17.6015 8.33612 17.1127 9.23007C16.1656 10.9622 14.1849 11.891 12.2283 11.4751C9.79778 10.9585 8.24645 8.56461 8.76447 6.1275ZM8.53309 16.8355C4.752 16.0318 2.339 12.3083 3.14464 8.51805C3.68521 5.97489 5.54698 4.0327 7.871 3.28807C7.36391 4.00107 6.99737 4.82159 6.80818 5.71168C6.06068 9.22838 8.30068 12.685 11.8125 13.4314C13.445 13.7784 15.0883 13.478 16.449 12.6805C15.176 15.7335 11.8789 17.5467 8.53309 16.8355Z" fill="black"/></g></mask></defs><circle r="13" cx="13" cy="13" mask="url(#mask-pop-moon-circle-filled)" fill="currentColor"/></svg>