<svg width="20" height="20" viewBox="0 0 20 20" fill="none" xmlns="http://www.w3.org/2000/svg"><path d="M12.75 12.5C12.75 13.0523 12.3023 13.5 11.75 13.5C11.1977 13.5 10.75 13.0523 10.75 12.5C10.75 11.9477 11.1977 11.5 11.75 11.5C12.3023 11.5 12.75 11.9477 12.75 12.5Z" fill="currentColor"/><path d="M9.25 12.5C9.25 13.0523 8.80228 13.5 8.25 13.5C7.69772 13.5 7.25 13.0523 7.25 12.5C7.25 11.9477 7.69772 11.5 8.25 11.5C8.80228 11.5 9.25 11.9477 9.25 12.5Z" fill="currentColor"/><path fill-rule="evenodd" clip-rule="evenodd" d="M10 8C11.933 8 13.5 6.433 13.5 4.5C13.5 2.567 11.933 1 10 1C8.067 1 6.5 2.567 6.5 4.5C6.5 6.433 8.067 8 10 8ZM10 3C10.8284 3 11.5 3.67157 11.5 4.5C11.5 5.32843 10.8284 6 10 6C9.17157 6 8.5 5.32843 8.5 4.5C8.5 3.67157 9.17157 3 10 3Z" fill="currentColor"/><path d="M10 14C11.1046 14 12 14.8954 12 16V17.5C12 18.6046 11.1046 19.5 10 19.5C8.89543 19.5 8 18.6046 8 17.5V16C8 14.8954 8.89543 14 10 14Z" fill="currentColor"/><path fill-rule="evenodd" clip-rule="evenodd" d="M15 11C15 8.23858 12.7614 6 10 6C7.23858 6 5 8.23858 5 11V13.5C5 14.8807 6.11929 16 7.5 16H12.5C13.8807 16 15 14.8807 15 13.5V11ZM7 11C7 9.34315 8.34315 8 10 8C11.6569 8 13 9.34315 13 11V13.5C13 13.7761 12.7761 14 12.5 14H7.5C7.22386 14 7 13.7761 7 13.5V11Z" fill="currentColor"/><path d="M15.5 4.5C14.9477 4.5 14.5 4.05228 14.5 3.5C14.5 2.94772 14.9477 2.5 15.5 2.5H17.5C18.0523 2.5 18.5 2.94772 18.5 3.5C18.5 4.05228 18.0523 4.5 17.5 4.5H15.5Z" fill="currentColor"/><path d="M2.5 4.5C1.94772 4.5 1.5 4.05228 1.5 3.5C1.5 2.94772 1.94772 2.5 2.5 2.5H4.5C5.05228 2.5 5.5 2.94772 5.5 3.5C5.5 4.05228 5.05228 4.5 4.5 4.5H2.5Z" fill="currentColor"/><path d="M3.40951 4.04579L3.88581 2.59058L8.40951 3.45438L7.9332 4.90959L3.40951 4.04579Z" fill="currentColor"/><path d="M11.5905 3.45433L12.0668 4.90955L16.5905 4.04574L16.1142 2.59053L11.5905 3.45433Z" fill="currentColor"/><path d="M1.29289 2.70711C0.902369 2.31658 0.902369 1.68342 1.29289 1.29289C1.68342 0.902368 2.31658 0.902368 2.70711 1.29289L18.7071 17.2929C19.0976 17.6834 19.0976 18.3166 18.7071 18.7071C18.3166 19.0976 17.6834 19.0976 17.2929 18.7071L1.29289 2.70711Z" fill="currentColor"/></svg>