<svg width="20" height="20" viewBox="0 0 26 26" fill="none" xmlns="http://www.w3.org/2000/svg"><g transform="translate(3, 3)"><path fill-rule="evenodd" clip-rule="evenodd" d="M13.0265 5.23175C13.4508 4.87819 14.0813 4.93551 14.4349 5.35979L17.7682 9.35979C18.1218 9.78407 18.0645 10.4146 17.6402 10.7682C17.2159 11.1218 16.5853 11.0644 16.2318 10.6402L12.8984 6.64016C12.5449 6.21588 12.6022 5.58532 13.0265 5.23175Z" fill="currentColor"/><path fill-rule="evenodd" clip-rule="evenodd" d="M13.0265 14.7682C12.6022 14.4146 12.5449 13.7841 12.8984 13.3598L16.2318 9.35979C16.5853 8.93551 17.2159 8.87819 17.6402 9.23175C18.0645 9.58532 18.1218 10.2159 17.7682 10.6402L14.4349 14.6402C14.0813 15.0644 13.4508 15.1218 13.0265 14.7682Z" fill="currentColor"/><path fill-rule="evenodd" clip-rule="evenodd" d="M16 10C16 10.5523 15.5523 11 15 11L7.00004 11C6.44775 11 6.00004 10.5523 6.00004 10C6.00004 9.44771 6.44775 9 7.00004 9L15 9C15.5523 9 16 9.44772 16 10Z" fill="currentColor"/><path fill-rule="evenodd" clip-rule="evenodd" d="M6.97351 14.7682C6.54923 15.1218 5.91867 15.0645 5.5651 14.6402L2.23177 10.6402C1.87821 10.2159 1.93553 9.58537 2.35981 9.2318C2.78409 8.87824 3.41465 8.93556 3.76821 9.35984L7.10155 13.3598C7.45511 13.7841 7.39779 14.4147 6.97351 14.7682Z" fill="currentColor"/><path fill-rule="evenodd" clip-rule="evenodd" d="M6.97351 5.2318C7.39779 5.58537 7.45511 6.21593 7.10155 6.64021L3.76821 10.6402C3.41465 11.0645 2.78409 11.1218 2.35981 10.7682C1.93553 10.4147 1.87821 9.78412 2.23177 9.35984L5.5651 5.35984C5.91867 4.93556 6.54923 4.87824 6.97351 5.2318Z" fill="currentColor"/><path fill-rule="evenodd" clip-rule="evenodd" d="M3.99995 10C3.99995 9.44772 4.44767 9 4.99995 9L13 9C13.5522 9 14 9.44772 14 10C14 10.5523 13.5522 11 13 11L4.99995 11C4.44767 11 3.99995 10.5523 3.99995 10Z" fill="currentColor"/></g><path fill-rule="evenodd" clip-rule="evenodd" d="M13 24C19.0751 24 24 19.0751 24 13C24 6.92487 19.0751 2 13 2C6.92487 2 2 6.92487 2 13C2 19.0751 6.92487 24 13 24ZM13 26C20.1797 26 26 20.1797 26 13C26 5.8203 20.1797 0 13 0C5.8203 0 0 5.8203 0 13C0 20.1797 5.8203 26 13 26Z" fill="currentColor"/></svg>