<svg width="20" height="20" viewBox="0 0 26 26" fill="none" xmlns="http://www.w3.org/2000/svg"><defs><mask id="mask-pop-move-y-circle-filled"><rect width="26" height="26" fill="white"/><g transform="translate(3, 3)"><path fill-rule="evenodd" clip-rule="evenodd" d="M5.23178 6.97353C4.87822 6.54926 4.93554 5.91869 5.35982 5.56513L9.35982 2.23179C9.78409 1.87823 10.4147 1.93555 10.7682 2.35983C11.1218 2.78411 11.0645 3.41467 10.6402 3.76824L6.64019 7.10157C6.21591 7.45513 5.58534 7.39781 5.23178 6.97353Z" fill="black"/><path fill-rule="evenodd" clip-rule="evenodd" d="M14.7682 6.97353C14.4147 7.39781 13.7841 7.45513 13.3598 7.10157L9.35982 3.76824C8.93554 3.41467 8.87822 2.78411 9.23178 2.35983C9.58534 1.93555 10.2159 1.87823 10.6402 2.23179L14.6402 5.56513C15.0645 5.91869 15.1218 6.54926 14.7682 6.97353Z" fill="black"/><path fill-rule="evenodd" clip-rule="evenodd" d="M10 4C10.5523 4 11 4.44772 11 5V13C11 13.5523 10.5523 14 10 14C9.44772 14 9 13.5523 9 13V5C9 4.44772 9.44772 4 10 4Z" fill="black"/><path fill-rule="evenodd" clip-rule="evenodd" d="M14.7682 13.0265C15.1218 13.4507 15.0645 14.0813 14.6402 14.4349L10.6402 17.7682C10.2159 18.1218 9.58534 18.0644 9.23178 17.6402C8.87822 17.2159 8.93554 16.5853 9.35982 16.2318L13.3598 12.8984C13.7841 12.5449 14.4147 12.6022 14.7682 13.0265Z" fill="black"/><path fill-rule="evenodd" clip-rule="evenodd" d="M5.23178 13.0265C5.58534 12.6022 6.21591 12.5449 6.64019 12.8984L10.6402 16.2318C11.0645 16.5853 11.1218 17.2159 10.7682 17.6402C10.4147 18.0644 9.78409 18.1218 9.35982 17.7682L5.35982 14.4349C4.93554 14.0813 4.87822 13.4507 5.23178 13.0265Z" fill="black"/><path fill-rule="evenodd" clip-rule="evenodd" d="M10 16C9.44772 16 9 15.5523 9 15V7C9 6.44771 9.44772 6 10 6C10.5523 6 11 6.44771 11 7V15C11 15.5523 10.5523 16 10 16Z" fill="black"/></g></mask></defs><circle r="13" cx="13" cy="13" mask="url(#mask-pop-move-y-circle-filled)" fill="currentColor"/></svg>