<svg width="20" height="20" viewBox="0 0 26 26" fill="none" xmlns="http://www.w3.org/2000/svg"><defs><mask id="mask-pop-music-note-double-circle-filled"><rect width="26" height="26" fill="white"/><g transform="translate(3, 3)"><path fill-rule="evenodd" clip-rule="evenodd" d="M6.75 3.80989C6.75 3.29386 7.14265 2.86257 7.65642 2.81428L16.6564 1.96832C17.2431 1.91318 17.75 2.37468 17.75 2.96393V5.14519C17.75 5.65923 17.3603 6.08955 16.8487 6.1403L7.84873 7.03323C7.26031 7.09161 6.75 6.62943 6.75 6.03812V3.80989Z" fill="black"/><ellipse cx="14.75" cy="15" rx="3" ry="2.5" fill="black"/><ellipse cx="5.75" cy="16" rx="3" ry="2.5" fill="black"/><path fill-rule="evenodd" clip-rule="evenodd" d="M15.75 5H17.75V15H15.75V5Z" fill="black"/><path fill-rule="evenodd" clip-rule="evenodd" d="M6.75 6H8.75V16H6.75V6Z" fill="black"/></g></mask></defs><circle r="13" cx="13" cy="13" mask="url(#mask-pop-music-note-double-circle-filled)" fill="currentColor"/></svg>