<svg xmlns="http://www.w3.org/2000/svg" width="20" height="20" viewBox="0 0 20 20">
  <g fill="none" fill-rule="evenodd" stroke="#AB92F0" transform="translate(3 2)">
    <path fill="#AB92F0" stroke-linecap="round" stroke-linejoin="round" stroke-width="2" d="M5.68123342,0.47549601 L12.6812334,-0.00701227913 C13.2322108,-0.0449910145 13.709654,0.370876546 13.7476328,0.921853914 C13.7492105,0.944742167 13.75,0.967677935 13.75,0.990620497 L13.75,1.50064262 C13.75,2.0247724 13.3453138,2.45997236 12.8225658,2.49800625 L5.82256578,3.00730945 C5.27173706,3.04738643 4.79271335,2.63334033 4.75263637,2.08251161 C4.75087937,2.05836291 4.75,2.03415836 4.75,2.00994582 L4.75,1.47312879 C4.75,0.947532702 5.15688154,0.511639457 5.68123342,0.47549601 Z"/>
    <ellipse cx="2.75" cy="14" fill="#AB92F0" rx="2.5" ry="2"/>
    <path fill="#AB92F0" d="M11.75,15 C13.1307119,15 14.25,14.1045695 14.25,13 C14.25,11.8954305 13.1307119,11 11.75,11 C10.3692881,11 9.25,11.8954305 9.25,13 C9.25,13.5522847 9.52982203,14.0522847 9.98223305,14.4142136 C10.4346441,14.7761424 11.0596441,15 11.75,15 Z"/>
    <path fill="#FFF" d="M4.25,1.75 L4.25,12.0389366 L5.25,13.7346611 L5.25,1.75 L4.25,1.75 Z"/>
    <path fill="#FFF" stroke-width="2" d="M13.4840781,2.47289523 L14.4840781,1.94309448 C14.2400661,2.07237224 13.9374549,1.97936173 13.8081771,1.7353497 C13.7699735,1.66324028 13.75,1.58287606 13.75,1.50127161 L13.75,12.7469884 C13.75,12.470846 13.9738576,12.2469884 14.25,12.2469884 C14.3841176,12.2469884 14.5126124,12.3008693 14.6066185,12.3965269 L13.6066185,11.3789586 C13.6985097,11.4724642 13.75,11.5983199 13.75,11.7294201 L13.75,2.03107236 C13.75,2.21622271 13.6476854,2.38621596 13.4840781,2.47289523 Z"/>
  </g>
</svg>
