<svg width="20" height="20" viewBox="0 0 26 26" fill="none" xmlns="http://www.w3.org/2000/svg"><g transform="translate(3, 3)"><path d="M9.78103 1.69759C14.1038 4.63512 16.25 6.76176 16.25 8.30413C16.25 9.79646 15.4291 11.0034 13.8541 11.8872C13.418 12.132 12.9324 11.6555 13.1688 11.2148C13.5756 10.4565 13.4416 9.60793 12.7079 8.59803C11.934 7.53285 10.8174 6.75731 9.34301 6.26969C9.13826 6.20198 9 6.01063 9 5.79498V2.11114C9 1.70978 9.44906 1.47201 9.78103 1.69759Z" fill="currentColor"/><path d="M7.75 17.75C5.97914 17.75 4.5 16.607 4.5 15.125C4.5 13.643 5.97914 12.5 7.75 12.5C9.52086 12.5 11 13.643 11 15.125C11 16.607 9.52086 17.75 7.75 17.75Z" fill="currentColor"/><path d="M10 4C10.5523 4 11 4.44772 11 5V15C11 15.5523 10.5523 16 10 16C9.44772 16 9 15.5523 9 15V5C9 4.44772 9.44772 4 10 4Z" fill="currentColor"/></g><path fill-rule="evenodd" clip-rule="evenodd" d="M13 24C19.0751 24 24 19.0751 24 13C24 6.92487 19.0751 2 13 2C6.92487 2 2 6.92487 2 13C2 19.0751 6.92487 24 13 24ZM13 26C20.1797 26 26 20.1797 26 13C26 5.8203 20.1797 0 13 0C5.8203 0 0 5.8203 0 13C0 20.1797 5.8203 26 13 26Z" fill="currentColor"/></svg>