<svg width="20" height="20" viewBox="0 0 20 20" fill="none" xmlns="http://www.w3.org/2000/svg"><path fill-rule="evenodd" clip-rule="evenodd" d="M6.75 3.80989C6.75 3.29386 7.14265 2.86257 7.65642 2.81428L16.6564 1.96832C17.2431 1.91318 17.75 2.37468 17.75 2.96393V5.14519C17.75 5.65923 17.3603 6.08955 16.8487 6.1403L7.84873 7.03323C7.26031 7.09161 6.75 6.62943 6.75 6.03812V3.80989Z" fill="currentColor"/><ellipse cx="14.75" cy="15" rx="3" ry="2.5" fill="currentColor"/><ellipse cx="5.75" cy="16" rx="3" ry="2.5" fill="currentColor"/><path fill-rule="evenodd" clip-rule="evenodd" d="M15.75 5H17.75V15H15.75V5Z" fill="currentColor"/><path fill-rule="evenodd" clip-rule="evenodd" d="M6.75 6H8.75V16H6.75V6Z" fill="currentColor"/><path d="M1.29289 2.70711C0.902369 2.31658 0.902369 1.68342 1.29289 1.29289C1.68342 0.902368 2.31658 0.902368 2.70711 1.29289L18.7071 17.2929C19.0976 17.6834 19.0976 18.3166 18.7071 18.7071C18.3166 19.0976 17.6834 19.0976 17.2929 18.7071L1.29289 2.70711Z" fill="currentColor"/></svg>