<svg xmlns="http://www.w3.org/2000/svg" width="20" height="20" viewBox="0 0 20 20">
  <g fill="none" fill-rule="evenodd" stroke="#AB92F0" transform="translate(5 3)">
    <path fill="#AB92F0" stroke-linecap="round" stroke-linejoin="round" stroke-width="1.5" d="M4.75,-0.888857232 C8.91666667,1.94259612 11,4.00692607 11,5.3041326 C11,6.60133914 10.2864852,7.65034952 8.85945573,8.45116377 C9.36612269,7.50662172 9.20043063,6.45761133 8.36237953,5.3041326 C7.52432844,4.15065387 6.32020193,3.31427016 4.75,2.79498146 L4.75,-0.888857232 Z"/>
    <path fill="#AB92F0" stroke-width="1.5" d="M2.75,14 C4.13071187,14 5.25,13.1045695 5.25,12 C5.25,10.8954305 4.13071187,10 2.75,10 C1.36928813,10 0.25,10.8954305 0.25,12 C0.25,13.1045695 1.36928813,14 2.75,14 Z"/>
    <path fill="#FFF" d="M4.5,0.5 L4.5,10.3244585 L5.5,11.74 L5.5,0.5 L4.5,0.5 Z"/>
  </g>
</svg>
