<svg width="20" height="20" viewBox="0 0 20 20" fill="none" xmlns="http://www.w3.org/2000/svg"><path d="M9.86317 9.31771C10.2218 9.70192 10.2218 10.2981 9.86317 10.6823L5.23105 15.6453C4.61176 16.3088 3.5 15.8706 3.5 14.963L3.5 5.03705C3.5 4.12943 4.61176 3.69121 5.23105 4.35473L9.86317 9.31771Z" fill="currentColor"/><path fill-rule="evenodd" clip-rule="evenodd" d="M7.76422 10L5.5 7.57407L5.5 12.426L7.76422 10ZM9.86317 10.6823C10.2218 10.2981 10.2218 9.70192 9.86317 9.31771L5.23105 4.35473C4.61176 3.69121 3.5 4.12943 3.5 5.03705L3.5 14.963C3.5 15.8706 4.61176 16.3088 5.23105 15.6453L9.86317 10.6823Z" fill="currentColor"/><path d="M14.8632 9.31771C15.2218 9.70192 15.2218 10.2981 14.8632 10.6823L10.231 15.6453C9.61176 16.3088 8.5 15.8706 8.5 14.963V5.03705C8.5 4.12943 9.61176 3.69121 10.2311 4.35473L14.8632 9.31771Z" fill="currentColor"/><path fill-rule="evenodd" clip-rule="evenodd" d="M12.7642 10L10.5 7.57407V12.426L12.7642 10ZM14.8632 10.6823C15.2218 10.2981 15.2218 9.70192 14.8632 9.31771L10.2311 4.35473C9.61176 3.69121 8.5 4.12943 8.5 5.03705V14.963C8.5 15.8706 9.61176 16.3088 10.231 15.6453L14.8632 10.6823Z" fill="currentColor"/><path fill-rule="evenodd" clip-rule="evenodd" d="M15.5 4C16.0523 4 16.5 4.44772 16.5 5V15C16.5 15.5523 16.0523 16 15.5 16C14.9477 16 14.5 15.5523 14.5 15V5C14.5 4.44772 14.9477 4 15.5 4Z" fill="currentColor"/></svg>