<svg width="20" height="20" viewBox="0 0 26 26" fill="none" xmlns="http://www.w3.org/2000/svg"><g transform="translate(3, 3)"><path fill-rule="evenodd" clip-rule="evenodd" d="M15.1562 16.9923C14.8001 17.6154 14.1374 18 13.4197 18L6.58032 18C5.86261 18 5.19992 17.6154 4.84384 16.9923L1.41527 10.9923C1.06392 10.3774 1.06392 9.62258 1.41527 9.00772L4.84384 3.00772C5.19992 2.38457 5.86261 2 6.58032 2L13.4197 2C14.1374 2 14.8001 2.38457 15.1562 3.00772L18.5847 9.00772C18.9361 9.62259 18.9361 10.3774 18.5847 10.9923L15.1562 16.9923ZM6.58032 16L13.4197 16L16.8483 10L13.4197 4L6.58032 4L3.15175 10L6.58032 16Z" fill="currentColor"/><path fill-rule="evenodd" clip-rule="evenodd" d="M10 8C8.89543 8 8 8.89543 8 10C8 11.1046 8.89543 12 10 12C11.1046 12 12 11.1046 12 10C12 8.89543 11.1046 8 10 8ZM6 10C6 7.79086 7.79086 6 10 6C12.2091 6 14 7.79086 14 10C14 12.2091 12.2091 14 10 14C7.79086 14 6 12.2091 6 10Z" fill="currentColor"/><path d="M1.29289 2.70711C0.902369 2.31658 0.902369 1.68342 1.29289 1.29289C1.68342 0.902368 2.31658 0.902368 2.70711 1.29289L18.7071 17.2929C19.0976 17.6834 19.0976 18.3166 18.7071 18.7071C18.3166 19.0976 17.6834 19.0976 17.2929 18.7071L1.29289 2.70711Z" fill="currentColor"/></g><path fill-rule="evenodd" clip-rule="evenodd" d="M13 24C19.0751 24 24 19.0751 24 13C24 6.92487 19.0751 2 13 2C6.92487 2 2 6.92487 2 13C2 19.0751 6.92487 24 13 24ZM13 26C20.1797 26 26 20.1797 26 13C26 5.8203 20.1797 0 13 0C5.8203 0 0 5.8203 0 13C0 20.1797 5.8203 26 13 26Z" fill="currentColor"/></svg>