<svg width="20" height="20" viewBox="0 0 26 26" fill="none" xmlns="http://www.w3.org/2000/svg"><g transform="translate(3, 3)"><g><path fill-rule="evenodd" clip-rule="evenodd" d="M1.68542 6.65868C0.758716 6.96758 0.779177 8.28543 1.71502 8.56541L9.20844 10.8072L11.6551 18.5165C11.948 19.4394 13.2507 19.4488 13.5569 18.5302L18.8602 2.62029C19.1208 1.83853 18.3771 1.09479 17.5953 1.35538L1.68542 6.65868ZM5.31842 7.55586L16.3304 3.8852L12.6316 14.9817L10.9548 9.69826C10.8547 9.38295 10.6052 9.13754 10.2883 9.04272L5.31842 7.55586Z" fill="currentColor"/><path d="M17.7674 1.43951L18.8105 2.51742L9.98262 11.0605L8.93948 9.98265L17.7674 1.43951Z" fill="currentColor"/></g><path d="M1.29289 2.70711C0.902369 2.31658 0.902369 1.68342 1.29289 1.29289C1.68342 0.902368 2.31658 0.902368 2.70711 1.29289L18.7071 17.2929C19.0976 17.6834 19.0976 18.3166 18.7071 18.7071C18.3166 19.0976 17.6834 19.0976 17.2929 18.7071L1.29289 2.70711Z" fill="currentColor"/></g><path fill-rule="evenodd" clip-rule="evenodd" d="M13 24C19.0751 24 24 19.0751 24 13C24 6.92487 19.0751 2 13 2C6.92487 2 2 6.92487 2 13C2 19.0751 6.92487 24 13 24ZM13 26C20.1797 26 26 20.1797 26 13C26 5.8203 20.1797 0 13 0C5.8203 0 0 5.8203 0 13C0 20.1797 5.8203 26 13 26Z" fill="currentColor"/></svg>