<svg width="20" height="20" viewBox="0 0 26 26" fill="none" xmlns="http://www.w3.org/2000/svg"><g transform="translate(3, 3)"><path fill-rule="evenodd" clip-rule="evenodd" d="M6.75 3C5.64543 3 4.75 3.89543 4.75 5V15C4.75 16.1046 5.64543 17 6.75 17C7.85457 17 8.75 16.1046 8.75 15V5C8.75 3.89543 7.85457 3 6.75 3Z" fill="currentColor"/><path fill-rule="evenodd" clip-rule="evenodd" d="M13.25 3C12.1454 3 11.25 3.89543 11.25 5V15C11.25 16.1046 12.1454 17 13.25 17C14.3546 17 15.25 16.1046 15.25 15V5C15.25 3.89543 14.3546 3 13.25 3Z" fill="currentColor"/></g><path fill-rule="evenodd" clip-rule="evenodd" d="M13 24C19.0751 24 24 19.0751 24 13C24 6.92487 19.0751 2 13 2C6.92487 2 2 6.92487 2 13C2 19.0751 6.92487 24 13 24ZM13 26C20.1797 26 26 20.1797 26 13C26 5.8203 20.1797 0 13 0C5.8203 0 0 5.8203 0 13C0 20.1797 5.8203 26 13 26Z" fill="currentColor"/></svg>