<svg width="20" height="20" viewBox="0 0 20 20" fill="none" xmlns="http://www.w3.org/2000/svg"><path fill-rule="evenodd" clip-rule="evenodd" d="M6.75 3C5.64543 3 4.75 3.89543 4.75 5V15C4.75 16.1046 5.64543 17 6.75 17C7.85457 17 8.75 16.1046 8.75 15V5C8.75 3.89543 7.85457 3 6.75 3Z" fill="currentColor"/><path fill-rule="evenodd" clip-rule="evenodd" d="M13.25 3C12.1454 3 11.25 3.89543 11.25 5V15C11.25 16.1046 12.1454 17 13.25 17C14.3546 17 15.25 16.1046 15.25 15V5C15.25 3.89543 14.3546 3 13.25 3Z" fill="currentColor"/><path d="M1.29289 2.70711C0.902369 2.31658 0.902369 1.68342 1.29289 1.29289C1.68342 0.902368 2.31658 0.902368 2.70711 1.29289L18.7071 17.2929C19.0976 17.6834 19.0976 18.3166 18.7071 18.7071C18.3166 19.0976 17.6834 19.0976 17.2929 18.7071L1.29289 2.70711Z" fill="currentColor"/></svg>