<svg width="20" height="20" viewBox="0 0 20 20" fill="none" xmlns="http://www.w3.org/2000/svg"><g><path fill-rule="evenodd" clip-rule="evenodd" d="M13.1976 1.21963L3.11967 11.2976C2.9692 11.448 2.87065 11.6426 2.83836 11.8529L2.13291 16.4474C2.03041 17.115 2.60551 17.6901 3.27309 17.5876L7.86762 16.8822C8.07795 16.8499 8.2725 16.7513 8.42297 16.6009L18.5009 6.52294C18.8914 6.13241 18.8914 5.49925 18.5009 5.10872L14.6118 1.21963C14.2213 0.82911 13.5881 0.829111 13.1976 1.21963ZM4.31657 15.404L4.76548 12.4802L13.9047 3.34095L16.3796 5.81583L7.24036 14.9551L4.31657 15.404Z" fill="currentColor"/><path d="M11.442 5.24658L12.5027 4.18592L15.7436 7.42683L14.6829 8.48749L11.442 5.24658Z" fill="currentColor"/></g><path d="M1.29289 2.70711C0.902369 2.31658 0.902369 1.68342 1.29289 1.29289C1.68342 0.902368 2.31658 0.902368 2.70711 1.29289L18.7071 17.2929C19.0976 17.6834 19.0976 18.3166 18.7071 18.7071C18.3166 19.0976 17.6834 19.0976 17.2929 18.7071L1.29289 2.70711Z" fill="currentColor"/></svg>