<svg width="20" height="20" viewBox="0 0 20 20" fill="none" xmlns="http://www.w3.org/2000/svg">
<circle cx="4" cy="7.25" r="2" stroke="currentColor" stroke-width="2"/>
<path d="M6.55005 14V12.5C6.55005 11.1193 5.43077 10 4.05007 10V10V10C2.66935 10 1.55004 11.1193 1.55003 12.5L1.55002 14" stroke="currentColor" stroke-width="2" stroke-linecap="round"/>
<circle r="2" transform="matrix(-1 0 0 1 16 7.25)" stroke="currentColor" stroke-width="2"/>
<path d="M13.45 14V12.5C13.45 11.1193 14.5692 10 15.9499 10V10V10C17.3307 10 18.45 11.1193 18.45 12.5L18.45 14" stroke="currentColor" stroke-width="2" stroke-linecap="round"/>
<path d="M13.55 17.75V16.25C13.55 14.317 11.983 12.75 10.05 12.75V12.75V12.75C8.117 12.75 6.54998 14.317 6.54996 16.25L6.54995 17.75" stroke="currentColor" stroke-width="2" stroke-linecap="round"/>
<circle cx="10" cy="10" r="2" fill="white" stroke="currentColor" stroke-width="2"/>
</svg>
