<svg width="20" height="20" viewBox="0 0 20 20" fill="none" xmlns="http://www.w3.org/2000/svg"><path fill-rule="evenodd" clip-rule="evenodd" d="M4 8.25C4.55228 8.25 5 7.80228 5 7.25C5 6.69772 4.55228 6.25 4 6.25C3.44772 6.25 3 6.69772 3 7.25C3 7.80228 3.44772 8.25 4 8.25ZM4 10.25C5.65685 10.25 7 8.90685 7 7.25C7 5.59315 5.65685 4.25 4 4.25C2.34315 4.25 1 5.59315 1 7.25C1 8.90685 2.34315 10.25 4 10.25Z" fill="currentColor"/><path fill-rule="evenodd" clip-rule="evenodd" d="M4.05007 11C3.22162 11 2.55003 11.6716 2.55003 12.5L2.55002 14C2.55001 14.5523 2.1023 15 1.55001 15C0.997727 15 0.550015 14.5523 0.550018 14L0.550027 12.5C0.550039 10.567 2.11706 9 4.05007 9C5.98305 9 7.55004 10.567 7.55004 12.5V14C7.55004 14.5523 7.10233 15 6.55004 15C5.99776 15 5.55004 14.5523 5.55004 14V12.5C5.55004 11.6716 4.87848 11 4.05007 11Z" fill="currentColor"/><path fill-rule="evenodd" clip-rule="evenodd" d="M16 8.25C15.4477 8.25 15 7.80228 15 7.25C15 6.69772 15.4477 6.25 16 6.25C16.5523 6.25 17 6.69772 17 7.25C17 7.80228 16.5523 8.25 16 8.25ZM16 10.25C14.3431 10.25 13 8.90685 13 7.25C13 5.59315 14.3431 4.25 16 4.25C17.6569 4.25 19 5.59315 19 7.25C19 8.90685 17.6569 10.25 16 10.25Z" fill="currentColor"/><path fill-rule="evenodd" clip-rule="evenodd" d="M15.9499 11C16.7784 11 17.45 11.6716 17.45 12.5L17.45 14C17.45 14.5523 17.8977 15 18.45 15C19.0023 15 19.45 14.5523 19.45 14L19.45 12.5C19.45 10.567 17.8829 9 15.9499 9C14.0169 9 12.45 10.567 12.45 12.5V14C12.45 14.5523 12.8977 15 13.45 15C14.0022 15 14.45 14.5523 14.45 14V12.5C14.45 11.6716 15.1215 11 15.9499 11Z" fill="currentColor"/><path fill-rule="evenodd" clip-rule="evenodd" d="M10.05 13.75C8.66929 13.75 7.54998 14.8693 7.54997 16.25L7.54996 17.75C7.54995 18.3023 7.10224 18.75 6.54995 18.75C5.99767 18.75 5.54995 18.3023 5.54996 17.75L5.54997 16.25C5.54998 13.7647 7.56473 11.75 10.05 11.75C12.5353 11.75 14.55 13.7647 14.55 16.25V17.75C14.55 18.3023 14.1023 18.75 13.55 18.75C12.9977 18.75 12.55 18.3023 12.55 17.75V16.25C12.55 14.8693 11.4307 13.75 10.05 13.75Z" fill="currentColor"/><path fill-rule="evenodd" clip-rule="evenodd" d="M10 11C10.5523 11 11 10.5523 11 10C11 9.44772 10.5523 9 10 9C9.44772 9 9 9.44772 9 10C9 10.5523 9.44772 11 10 11ZM10 13C11.6569 13 13 11.6569 13 10C13 8.34315 11.6569 7 10 7C8.34315 7 7 8.34315 7 10C7 11.6569 8.34315 13 10 13Z" fill="currentColor"/></svg>