<svg width="20" height="20" viewBox="0 0 20 20" fill="none" xmlns="http://www.w3.org/2000/svg"><path fill-rule="evenodd" clip-rule="evenodd" d="M6 6C6 8.20914 7.79086 10 10 10C12.2091 10 14 8.20914 14 6C14 3.79086 12.2091 2 10 2C7.79086 2 6 3.79086 6 6ZM12 6C12 7.10457 11.1046 8 10 8C8.89543 8 8 7.10457 8 6C8 4.89543 8.89543 4 10 4C11.1046 4 12 4.89543 12 6Z" fill="currentColor"/><path d="M17 18C17 18.5523 16.5523 19 16 19C15.4477 19 15 18.5523 15 18V15.5C15 13.0059 12.7945 11 10.0162 11C7.23004 11 5 13.0132 5 15.4992L5.00204 17.9992C5.0025 18.5515 4.55515 18.9995 4.00286 19C3.45058 19.0005 3.0025 18.5531 3.00205 18.0008L3 15.5C3 11.8604 6.16851 9 10.0162 9C13.859 9 17 11.8567 17 15.5V18Z" fill="currentColor"/></svg>