<svg width="20" height="20" viewBox="0 0 26 26" fill="none" xmlns="http://www.w3.org/2000/svg"><g transform="translate(3, 3)"><path fill-rule="evenodd" clip-rule="evenodd" d="M7 5C6.20818 5 5.5 5.67902 5.5 6.6C5.5 7.52098 6.20818 8.2 7 8.2C7.79182 8.2 8.5 7.52098 8.5 6.6C8.5 5.67902 7.79182 5 7 5ZM3.5 6.6C3.5 4.6491 5.0304 3 7 3C8.9696 3 10.5 4.6491 10.5 6.6C10.5 8.5509 8.9696 10.2 7 10.2C5.0304 10.2 3.5 8.5509 3.5 6.6Z" fill="currentColor"/><path fill-rule="evenodd" clip-rule="evenodd" d="M1 14.8333C1 11.538 3.78924 9.06665 7.01348 9.06665C10.2449 9.06665 13 11.5447 13 14.8333V17C13 17.5523 12.5523 18 12 18C11.4477 18 11 17.5523 11 17V14.8333C11 12.7527 9.24668 11.0667 7.01348 11.0667C4.77323 11.0667 3.00022 12.7593 3 14.8329C3 14.8328 3 14.8331 3 14.8329L3.0017 16.9992C3.00214 17.5515 2.55478 17.9995 2.00249 18C1.45021 18.0004 1.00214 17.5531 1.0017 17.0008L1 14.8333Z" fill="currentColor"/><path fill-rule="evenodd" clip-rule="evenodd" d="M18.5968 4.12584C19.0795 4.39405 19.2535 5.00286 18.9853 5.48564L16.2075 10.4856C15.9393 10.9684 15.3305 11.1424 14.8477 10.8742C14.3649 10.6059 14.191 9.99714 14.4592 9.51436L17.237 4.51436C17.5052 4.03157 18.114 3.85763 18.5968 4.12584Z" fill="currentColor"/><path fill-rule="evenodd" clip-rule="evenodd" d="M11.7747 7.15311C12.1197 6.72185 12.749 6.65193 13.1802 6.99694L15.958 9.21916C16.3893 9.56417 16.4592 10.1935 16.1142 10.6247C15.7692 11.056 15.1399 11.1259 14.7086 10.7809L11.9309 8.55868C11.4996 8.21367 11.4297 7.58437 11.7747 7.15311Z" fill="currentColor"/></g><path fill-rule="evenodd" clip-rule="evenodd" d="M13 24C19.0751 24 24 19.0751 24 13C24 6.92487 19.0751 2 13 2C6.92487 2 2 6.92487 2 13C2 19.0751 6.92487 24 13 24ZM13 26C20.1797 26 26 20.1797 26 13C26 5.8203 20.1797 0 13 0C5.8203 0 0 5.8203 0 13C0 20.1797 5.8203 26 13 26Z" fill="currentColor"/></svg>