<svg width="20" height="20" viewBox="0 0 20 20" fill="none" xmlns="http://www.w3.org/2000/svg"><g><path fill-rule="evenodd" clip-rule="evenodd" d="M4.2359 10.0547C3.69336 10.8685 3.40385 11.8247 3.40385 12.8028L3.40385 13.5C3.40385 14.0522 2.95614 14.5 2.40385 14.5C1.85157 14.5 1.40385 14.0522 1.40385 13.5L1.40385 12.8028C1.40385 11.4299 1.81023 10.0877 2.5718 8.94531L4.2359 10.0547Z" fill="currentColor"/><path fill-rule="evenodd" clip-rule="evenodd" d="M6.20663 9C5.41471 9 4.67519 9.39578 4.23591 10.0547L2.57181 8.9453C3.38202 7.72998 4.74601 7 6.20663 7H6.40386C6.95614 7 7.40386 7.44772 7.40386 8C7.40386 8.55228 6.95614 9 6.40386 9H6.20663Z" fill="currentColor"/><path fill-rule="evenodd" clip-rule="evenodd" d="M8.41797 10.0547C8.96051 10.8685 9.25002 11.8247 9.25002 12.8028L9.25002 13.5C9.25002 14.0522 9.69773 14.5 10.25 14.5C10.8023 14.5 11.25 14.0522 11.25 13.5L11.25 12.8028C11.25 11.4299 10.8436 10.0877 10.0821 8.94531L8.41797 10.0547Z" fill="currentColor"/><path fill-rule="evenodd" clip-rule="evenodd" d="M6.44724 9C7.23916 9 7.97868 9.39578 8.41796 10.0547L10.0821 8.9453C9.27185 7.72998 7.90786 7 6.44724 7H6.25001C5.69773 7 5.25001 7.44772 5.25001 8C5.25001 8.55228 5.69773 9 6.25001 9H6.44724Z" fill="currentColor"/><path fill-rule="evenodd" clip-rule="evenodd" d="M6.25 6.25C6.94036 6.25 7.5 5.69036 7.5 5C7.5 4.30964 6.94036 3.75 6.25 3.75C5.55964 3.75 5 4.30964 5 5C5 5.69036 5.55964 6.25 6.25 6.25ZM6.25 8.25C8.04493 8.25 9.5 6.79493 9.5 5C9.5 3.20507 8.04493 1.75 6.25 1.75C4.45507 1.75 3 3.20507 3 5C3 6.79493 4.45507 8.25 6.25 8.25Z" fill="currentColor"/><path fill-rule="evenodd" clip-rule="evenodd" d="M11.4859 13.3047C10.9434 14.1185 10.6538 15.0747 10.6539 16.0528L10.6539 16.75C10.6539 17.3022 10.2061 17.75 9.65385 17.75C9.10157 17.75 8.65385 17.3022 8.65385 16.75L8.65385 16.0528C8.65385 14.6799 9.06023 13.3377 9.8218 12.1953L11.4859 13.3047Z" fill="currentColor"/><path fill-rule="evenodd" clip-rule="evenodd" d="M13.4566 12.25C12.6647 12.25 11.9252 12.6458 11.4859 13.3047L9.82181 12.1953C10.632 10.98 11.996 10.25 13.4566 10.25H13.6539C14.2061 10.25 14.6539 10.6977 14.6539 11.25C14.6539 11.8023 14.2061 12.25 13.6539 12.25H13.4566Z" fill="currentColor"/><path fill-rule="evenodd" clip-rule="evenodd" d="M15.668 13.3047C16.2105 14.1185 16.5 15.0747 16.5 16.0528L16.5 16.75C16.5 17.3022 16.9477 17.75 17.5 17.75C18.0523 17.75 18.5 17.3022 18.5 16.75L18.5 16.0528C18.5 14.6799 18.0936 13.3377 17.3321 12.1953L15.668 13.3047Z" fill="currentColor"/><path fill-rule="evenodd" clip-rule="evenodd" d="M13.6972 12.25C14.4892 12.25 15.2287 12.6458 15.668 13.3047L17.3321 12.1953C16.5219 10.98 15.1579 10.25 13.6972 10.25H13.5C12.9477 10.25 12.5 10.6977 12.5 11.25C12.5 11.8023 12.9477 12.25 13.5 12.25H13.6972Z" fill="currentColor"/><path fill-rule="evenodd" clip-rule="evenodd" d="M13.5 9.5C14.1904 9.5 14.75 8.94036 14.75 8.25C14.75 7.55964 14.1904 7 13.5 7C12.8096 7 12.25 7.55964 12.25 8.25C12.25 8.94036 12.8096 9.5 13.5 9.5ZM13.5 11.5C15.2949 11.5 16.75 10.0449 16.75 8.25C16.75 6.45507 15.2949 5 13.5 5C11.7051 5 10.25 6.45507 10.25 8.25C10.25 10.0449 11.7051 11.5 13.5 11.5Z" fill="currentColor"/></g><path d="M1.29289 2.70711C0.902369 2.31658 0.902369 1.68342 1.29289 1.29289C1.68342 0.902368 2.31658 0.902368 2.70711 1.29289L18.7071 17.2929C19.0976 17.6834 19.0976 18.3166 18.7071 18.7071C18.3166 19.0976 17.6834 19.0976 17.2929 18.7071L1.29289 2.70711Z" fill="currentColor"/></svg>