<svg width="20" height="20" viewBox="0 0 26 26" fill="none" xmlns="http://www.w3.org/2000/svg"><g transform="translate(3, 3)"><path fill-rule="evenodd" clip-rule="evenodd" d="M6 6C6 8.20914 7.79086 10 10 10C12.2091 10 14 8.20914 14 6C14 3.79086 12.2091 2 10 2C7.79086 2 6 3.79086 6 6ZM12 6C12 7.10457 11.1046 8 10 8C8.89543 8 8 7.10457 8 6C8 4.89543 8.89543 4 10 4C11.1046 4 12 4.89543 12 6Z" fill="currentColor"/><path d="M17 18C17 18.5523 16.5523 19 16 19C15.4477 19 15 18.5523 15 18V15.5C15 13.0059 12.7945 11 10.0162 11C7.23004 11 5 13.0132 5 15.4992L5.00204 17.9992C5.0025 18.5515 4.55515 18.9995 4.00286 19C3.45058 19.0005 3.0025 18.5531 3.00205 18.0008L3 15.5C3 11.8604 6.16851 9 10.0162 9C13.859 9 17 11.8567 17 15.5V18Z" fill="currentColor"/><path d="M1.29289 2.70711C0.902369 2.31658 0.902369 1.68342 1.29289 1.29289C1.68342 0.902368 2.31658 0.902368 2.70711 1.29289L18.7071 17.2929C19.0976 17.6834 19.0976 18.3166 18.7071 18.7071C18.3166 19.0976 17.6834 19.0976 17.2929 18.7071L1.29289 2.70711Z" fill="currentColor"/></g><path fill-rule="evenodd" clip-rule="evenodd" d="M13 24C19.0751 24 24 19.0751 24 13C24 6.92487 19.0751 2 13 2C6.92487 2 2 6.92487 2 13C2 19.0751 6.92487 24 13 24ZM13 26C20.1797 26 26 20.1797 26 13C26 5.8203 20.1797 0 13 0C5.8203 0 0 5.8203 0 13C0 20.1797 5.8203 26 13 26Z" fill="currentColor"/></svg>