<svg width="20" height="20" viewBox="0 0 26 26" fill="none" xmlns="http://www.w3.org/2000/svg"><g transform="translate(3, 3)"><path fill-rule="evenodd" clip-rule="evenodd" d="M11 3.5H6V1.5H11C13.7614 1.5 16 3.73858 16 6.5V7.5C16 10.2614 13.7614 12.5 11 12.5H6V10.5H11C12.6569 10.5 14 9.15685 14 7.5V6.5C14 4.84315 12.6569 3.5 11 3.5Z" fill="currentColor"/><path fill-rule="evenodd" clip-rule="evenodd" d="M6 1.5C6.55228 1.5 7 1.94772 7 2.5L7 18C7 18.5523 6.55228 19 6 19C5.44772 19 5 18.5523 5 18L5 2.5C5 1.94772 5.44772 1.5 6 1.5Z" fill="currentColor"/><path fill-rule="evenodd" clip-rule="evenodd" d="M2 5.4357C2 4.88341 2.44771 4.4357 3 4.4357L17 4.4357C17.5523 4.4357 18 4.88342 18 5.4357C18 5.98799 17.5523 6.4357 17 6.4357L3 6.4357C2.44771 6.4357 2 5.98798 2 5.4357Z" fill="currentColor"/><path fill-rule="evenodd" clip-rule="evenodd" d="M2 8.4357C2 7.88341 2.44771 7.4357 3 7.4357L17 7.43567C17.5523 7.43567 18 7.88338 18 8.43567C18 8.98795 17.5523 9.43567 17 9.43567L3 9.4357C2.44772 9.4357 2 8.98798 2 8.4357Z" fill="currentColor"/></g><path fill-rule="evenodd" clip-rule="evenodd" d="M13 24C19.0751 24 24 19.0751 24 13C24 6.92487 19.0751 2 13 2C6.92487 2 2 6.92487 2 13C2 19.0751 6.92487 24 13 24ZM13 26C20.1797 26 26 20.1797 26 13C26 5.8203 20.1797 0 13 0C5.8203 0 0 5.8203 0 13C0 20.1797 5.8203 26 13 26Z" fill="currentColor"/></svg>