<svg width="20" height="20" viewBox="0 0 26 26" fill="none" xmlns="http://www.w3.org/2000/svg"><g transform="translate(3, 3)"><path fill-rule="evenodd" clip-rule="evenodd" d="M12.5208 10.1924L11.9389 10.7743C10.9366 9.8925 9.99425 8.94935 9.11168 7.94467L9.69239 7.36396C10.864 6.19239 10.864 4.2929 9.69239 3.12132L8.27818 1.70711C7.1066 0.535537 5.20711 0.535537 4.03554 1.70711L1.22986 4.51278C0.952963 4.78968 0.863168 5.20273 1.00011 5.5696C3.37438 11.9301 7.81798 16.4042 14.3082 18.882C14.6766 19.0227 15.0932 18.9337 15.372 18.6549L18.1777 15.8492C19.3492 14.6777 19.3492 12.7782 18.1777 11.6066L16.7635 10.1924C15.5919 9.02082 13.6924 9.02082 12.5208 10.1924ZM16.7635 13.0208C17.154 13.4113 17.154 14.0445 16.7635 14.435L14.4224 16.7761C8.99792 14.5464 5.24854 10.7759 3.10516 5.46592L5.44975 3.12132C5.84027 2.7308 6.47344 2.7308 6.86396 3.12132L8.27818 4.53554C8.6687 4.92606 8.6687 5.55923 8.27818 5.94975L7.04425 7.18368C6.6793 7.54863 6.65204 8.13136 6.98132 8.52879C8.30406 10.1253 9.76179 11.5841 11.3539 12.9048C11.7513 13.2344 12.3343 13.2073 12.6994 12.8422L13.935 11.6066C14.3256 11.2161 14.9587 11.2161 15.3492 11.6066L16.7635 13.0208Z" fill="currentColor"/></g><path fill-rule="evenodd" clip-rule="evenodd" d="M13 24C19.0751 24 24 19.0751 24 13C24 6.92487 19.0751 2 13 2C6.92487 2 2 6.92487 2 13C2 19.0751 6.92487 24 13 24ZM13 26C20.1797 26 26 20.1797 26 13C26 5.8203 20.1797 0 13 0C5.8203 0 0 5.8203 0 13C0 20.1797 5.8203 26 13 26Z" fill="currentColor"/></svg>