<svg width="20" height="20" viewBox="0 0 26 26" fill="none" xmlns="http://www.w3.org/2000/svg"><g transform="translate(3, 3)"><path fill-rule="evenodd" clip-rule="evenodd" d="M0.900055 2.5C0.900055 1.67157 1.57163 1 2.40005 1H8.60005C9.42848 1 10.1001 1.67157 10.1001 2.5V6.3C10.1001 7.12843 9.42848 7.8 8.60005 7.8H2.40006C1.57163 7.8 0.900055 7.12843 0.900055 6.3V2.5ZM2.90005 3V5.8H8.10005V3H2.90005Z" fill="currentColor"/><path fill-rule="evenodd" clip-rule="evenodd" d="M0.149994 2C0.149994 1.44772 0.597709 1 1.14999 1H9.84999C10.4023 1 10.85 1.44772 10.85 2C10.85 2.55228 10.4023 3 9.84999 3H1.14999C0.597709 3 0.149994 2.55228 0.149994 2Z" fill="currentColor"/><path fill-rule="evenodd" clip-rule="evenodd" d="M2.21982 10L2.88059 6.69613L0.919433 6.30389L0.139044 10.2058C-0.0465934 11.134 0.663346 12 1.60992 12H9.39011C10.3367 12 11.0466 11.134 10.861 10.2058L10.0806 6.30389L8.11943 6.69613L8.78021 10H2.21982Z" fill="currentColor"/><path fill-rule="evenodd" clip-rule="evenodd" d="M19.25 17C19.25 16.4477 18.8023 16 18.25 16H15.25C14.6977 16 14.25 16.4477 14.25 17C14.25 17.5523 14.6977 18 15.25 18H18.25C18.8023 18 19.25 17.5523 19.25 17Z" fill="currentColor"/><path fill-rule="evenodd" clip-rule="evenodd" d="M14.2967 7.99999C14.6099 8.16557 15.0266 8.42148 15.3548 8.731C15.7394 9.09381 15.75 9.2836 15.75 9.29411C15.75 9.30461 15.7394 9.49441 15.3548 9.85722C15.0266 10.1667 14.6099 10.4226 14.2967 10.5882L13.75 10.5882V7.99999H14.2967ZM15.1076 12.4204C14.8745 12.5384 14.6156 12.5882 14.3543 12.5882H13.75C12.6454 12.5882 11.75 11.6928 11.75 10.5882V7.99999C11.75 6.89542 12.6454 5.99999 13.75 5.99999H14.3543C14.6156 5.99999 14.8745 6.04986 15.1076 6.1678C15.9032 6.57033 17.75 7.67873 17.75 9.29411C17.75 10.9095 15.9032 12.0179 15.1076 12.4204Z" fill="currentColor"/><path fill-rule="evenodd" clip-rule="evenodd" d="M16.75 8.70587C16.1977 8.70587 15.75 9.15359 15.75 9.70587V16.7647C15.75 17.317 16.1977 17.7647 16.75 17.7647C17.3023 17.7647 17.75 17.317 17.75 16.7647V9.70587C17.75 9.15359 17.3023 8.70587 16.75 8.70587Z" fill="currentColor"/><path d="M1.29289 2.70711C0.902369 2.31658 0.902369 1.68342 1.29289 1.29289C1.68342 0.902368 2.31658 0.902368 2.70711 1.29289L18.7071 17.2929C19.0976 17.6834 19.0976 18.3166 18.7071 18.7071C18.3166 19.0976 17.6834 19.0976 17.2929 18.7071L1.29289 2.70711Z" fill="currentColor"/></g><path fill-rule="evenodd" clip-rule="evenodd" d="M13 24C19.0751 24 24 19.0751 24 13C24 6.92487 19.0751 2 13 2C6.92487 2 2 6.92487 2 13C2 19.0751 6.92487 24 13 24ZM13 26C20.1797 26 26 20.1797 26 13C26 5.8203 20.1797 0 13 0C5.8203 0 0 5.8203 0 13C0 20.1797 5.8203 26 13 26Z" fill="currentColor"/></svg>