<svg width="20" height="20" viewBox="0 0 26 26" fill="none" xmlns="http://www.w3.org/2000/svg"><g transform="translate(3, 3)"><path fill-rule="evenodd" clip-rule="evenodd" d="M8 9C9.10457 9 10 8.10457 10 7C10 5.89543 9.10457 5 8 5C6.89543 5 6 5.89543 6 7C6 8.10457 6.89543 9 8 9Z" fill="currentColor"/><path d="M6.69703 10.0817C7.09685 9.54308 7.90313 9.54308 8.30294 10.0817L10.2123 12.654C10.7022 13.3138 10.2312 14.25 9.40939 14.25H5.59058C4.76881 14.25 4.29782 13.3138 4.78763 12.654L6.69703 10.0817Z" fill="currentColor"/><path fill-rule="evenodd" clip-rule="evenodd" d="M7.49999 11.5166L6.58443 12.75H8.41554L7.49999 11.5166ZM8.30294 10.0817C7.90313 9.54308 7.09685 9.54308 6.69703 10.0817L4.78763 12.654C4.29782 13.3138 4.76881 14.25 5.59058 14.25H9.40939C10.2312 14.25 10.7022 13.3138 10.2123 12.654L8.30294 10.0817Z" fill="currentColor"/><path d="M10.4941 9.12287C10.8928 8.66241 11.6072 8.66241 12.0059 9.12287L15.0132 12.5953C15.5741 13.243 15.114 14.25 14.2573 14.25H8.24275C7.386 14.25 6.92595 13.243 7.48682 12.5953L10.4941 9.12287Z" fill="currentColor"/><path fill-rule="evenodd" clip-rule="evenodd" d="M11.25 10.5413L9.3372 12.75H13.1628L11.25 10.5413ZM12.0059 9.12287C11.6072 8.66241 10.8928 8.66241 10.4941 9.12287L7.48682 12.5953C6.92595 13.243 7.386 14.25 8.24275 14.25H14.2573C15.114 14.25 15.5741 13.243 15.0132 12.5953L12.0059 9.12287Z" fill="currentColor"/><path fill-rule="evenodd" clip-rule="evenodd" d="M3.5 3.5V16.5H16.5V3.5H3.5ZM3 1.5C2.17157 1.5 1.5 2.17157 1.5 3V17C1.5 17.8284 2.17157 18.5 3 18.5H17C17.8284 18.5 18.5 17.8284 18.5 17V3C18.5 2.17157 17.8284 1.5 17 1.5H3Z" fill="currentColor"/><path d="M1.29289 2.70711C0.902369 2.31658 0.902369 1.68342 1.29289 1.29289C1.68342 0.902368 2.31658 0.902368 2.70711 1.29289L18.7071 17.2929C19.0976 17.6834 19.0976 18.3166 18.7071 18.7071C18.3166 19.0976 17.6834 19.0976 17.2929 18.7071L1.29289 2.70711Z" fill="currentColor"/></g><path fill-rule="evenodd" clip-rule="evenodd" d="M13 24C19.0751 24 24 19.0751 24 13C24 6.92487 19.0751 2 13 2C6.92487 2 2 6.92487 2 13C2 19.0751 6.92487 24 13 24ZM13 26C20.1797 26 26 20.1797 26 13C26 5.8203 20.1797 0 13 0C5.8203 0 0 5.8203 0 13C0 20.1797 5.8203 26 13 26Z" fill="currentColor"/></svg>