<svg width="20" height="20" viewBox="0 0 20 20" fill="none" xmlns="http://www.w3.org/2000/svg"><path fill-rule="evenodd" clip-rule="evenodd" d="M5.69572 5.07845L5.39825 6H4.5C2.84315 6 1.5 7.34315 1.5 9V15C1.5 16.6569 2.84315 18 4.5 18H15.5C17.1569 18 18.5 16.6569 18.5 15V9C18.5 7.34315 17.1569 6 15.5 6H14.6013L14.3038 5.07845C13.9039 3.83958 12.7507 3 11.4489 3H8.55067C7.24886 3 6.09561 3.83958 5.69572 5.07845ZM4.5 8H6.85428L7.59902 5.69282C7.73232 5.27986 8.11673 5 8.55067 5H11.4489C11.8828 5 12.2672 5.27986 12.4005 5.69282L13.1453 8H15.5C16.0523 8 16.5 8.44772 16.5 9V15C16.5 15.5523 16.0523 16 15.5 16H4.5C3.94772 16 3.5 15.5523 3.5 15V9C3.5 8.44772 3.94772 8 4.5 8Z" fill="currentColor"/><path fill-rule="evenodd" clip-rule="evenodd" d="M6.5 11.5C6.5 13.433 8.067 15 10 15C11.933 15 13.5 13.433 13.5 11.5C13.5 9.567 11.933 8 10 8C8.067 8 6.5 9.567 6.5 11.5ZM11.5 11.5C11.5 12.3284 10.8284 13 10 13C9.17157 13 8.5 12.3284 8.5 11.5C8.5 10.6716 9.17157 10 10 10C10.8284 10 11.5 10.6716 11.5 11.5Z" fill="currentColor"/></svg>