<svg width="20" height="20" viewBox="0 0 26 26" fill="none" xmlns="http://www.w3.org/2000/svg"><defs><mask id="mask-pop-pill-circle-filled"><rect width="26" height="26" fill="white"/><g transform="translate(3, 3)"><path fill-rule="evenodd" clip-rule="evenodd" d="M10.5459 4.18199L16.9099 10.5459C18.6673 12.3033 18.6673 15.1525 16.9099 16.9099C15.1525 18.6673 12.3033 18.6673 10.5459 16.9099L4.18197 10.5459C2.42461 8.78859 2.42461 5.93935 4.18197 4.18199C5.93933 2.42463 8.78857 2.42463 10.5459 4.18199ZM13 9.50001C12.3333 8.83334 11.5 8.66667 10.5 9.00001C9.49999 9.33334 8.83332 10.3333 8.49999 12L11.9203 15.4437C11.9223 15.4457 11.9243 15.4477 11.9263 15.4498C12.8992 16.4227 14.4768 16.4227 15.4497 15.4498C15.4522 15.4473 15.4547 15.4448 15.4572 15.4423C16.4252 14.466 16.4186 12.8898 15.4423 11.9217L13 9.50001Z" fill="black"/></g></mask></defs><circle r="13" cx="13" cy="13" mask="url(#mask-pop-pill-circle-filled)" fill="currentColor"/></svg>