<svg width="20" height="20" viewBox="0 0 26 26" fill="none" xmlns="http://www.w3.org/2000/svg"><g transform="translate(3, 3)"><g><path fill-rule="evenodd" clip-rule="evenodd" d="M11.6847 3.90249C11.2262 3.59462 10.6049 3.71673 10.297 4.17523L7.78845 7.91114L6.12805 6.79621L8.63663 3.06031C9.56027 1.68478 11.4241 1.31846 12.7996 2.24209L16.1204 4.47194C17.496 5.39558 17.8623 7.25942 16.9386 8.63494L14.4301 12.3708L12.7697 11.2559L15.2782 7.52001C15.5861 7.0615 15.464 6.44023 15.0055 6.13235L11.6847 3.90249Z" fill="currentColor"/><path fill-rule="evenodd" clip-rule="evenodd" d="M2.51657 8.58704C2.82445 8.12853 3.44573 8.00642 3.90424 8.3143L13.8667 15.0039C14.3252 15.3117 14.4473 15.933 14.1394 16.3915C13.8315 16.85 13.2102 16.9721 12.7517 16.6643L2.78931 9.9747C2.3308 9.66682 2.20869 9.04555 2.51657 8.58704Z" fill="currentColor"/><path fill-rule="evenodd" clip-rule="evenodd" d="M6.32347 8.40973C5.91316 8.46298 5.53683 8.54961 5.32812 8.65517C5.12509 8.75785 4.83864 9.00076 4.55814 9.28824C4.42921 9.42039 4.31924 9.54342 4.2418 9.63314C4.20331 9.67773 4.17344 9.7134 4.15394 9.737L4.13282 9.76278L4.12881 9.76774C3.78456 10.1995 3.15537 10.2707 2.72353 9.92651C2.29163 9.5823 2.22055 8.95313 2.56476 8.52123L3.34678 9.14449C2.56476 8.52123 2.56468 8.52134 2.56476 8.52123L2.56662 8.51891L2.56969 8.51509L2.57933 8.50314L2.61218 8.46304C2.63987 8.42953 2.67902 8.38281 2.72784 8.32625C2.82502 8.21367 2.96285 8.05941 3.12662 7.89156C3.43152 7.57905 3.91008 7.13111 4.42548 6.87044C4.95603 6.60211 5.62045 6.48419 6.06608 6.42636C6.30548 6.39529 6.51778 6.37743 6.67062 6.36725C6.74741 6.36214 6.81012 6.35891 6.85484 6.35693L6.90819 6.3548L6.92399 6.35428L6.92902 6.35413L6.9308 6.35408L6.9318 6.35405C6.93194 6.35405 6.93207 6.35405 6.95709 7.30736L6.9318 6.35405C7.4839 6.33957 7.94348 6.77538 7.95796 7.32747C7.97244 7.87923 7.53716 8.33832 6.98554 8.35333C6.9852 8.35334 6.98487 8.35335 6.98454 8.35336L6.95831 7.3537C6.98454 8.35336 6.98542 8.35333 6.98554 8.35333L6.97791 8.35358L6.94353 8.35496C6.91196 8.35636 6.86404 8.35881 6.80344 8.36284C6.68151 8.37095 6.51204 8.38526 6.32347 8.40973Z" fill="currentColor"/><path fill-rule="evenodd" clip-rule="evenodd" d="M12.8665 12.8033C12.9725 13.2032 13.0348 13.5843 13.0161 13.8175C12.9979 14.0442 12.8814 14.4013 12.7215 14.7698C12.648 14.9391 12.5757 15.0875 12.522 15.1931C12.4953 15.2456 12.4736 15.2867 12.4591 15.3137L12.4432 15.343L12.4402 15.3486C12.1708 15.8307 12.3431 16.44 12.8251 16.7095C13.3071 16.979 13.9164 16.8066 14.1859 16.3246L13.313 15.8366C14.1859 16.3246 14.1858 16.3247 14.1859 16.3246L14.1873 16.322L14.1897 16.3177L14.1971 16.3042L14.2218 16.2586C14.2423 16.2203 14.2708 16.1664 14.3046 16.0998C14.3721 15.9673 14.4627 15.7813 14.5561 15.5662C14.73 15.1657 14.9634 14.5532 15.0097 13.9775C15.0572 13.3848 14.9149 12.7252 14.7998 12.2909C14.7379 12.0575 14.6741 11.8542 14.6257 11.7089C14.6014 11.6359 14.5806 11.5766 14.5655 11.5345L14.5473 11.4843L14.5418 11.4695L14.5401 11.4648L14.5394 11.4631L14.5391 11.4622C14.539 11.462 14.539 11.4619 13.6471 11.7996L14.5391 11.4622C14.3435 10.9457 13.7662 10.6852 13.2497 10.8807C12.7335 11.0762 12.4733 11.6528 12.6682 12.1691C12.6683 12.1694 12.6684 12.1697 12.6685 12.17L13.6038 11.816C12.6685 12.17 12.6682 12.1692 12.6682 12.1691L12.6708 12.1762L12.6826 12.2086C12.6932 12.2383 12.7091 12.2836 12.7283 12.3412C12.7669 12.4572 12.8178 12.6194 12.8665 12.8033Z" fill="currentColor"/><path fill-rule="evenodd" clip-rule="evenodd" d="M8.32794 12.4893C8.78645 12.7972 8.90856 13.4184 8.60068 13.877L6.92829 16.3676C6.62041 16.8261 5.99913 16.9482 5.54062 16.6403C5.08212 16.3324 4.96001 15.7111 5.26789 15.2526L6.94028 12.762C7.24815 12.3035 7.86943 12.1814 8.32794 12.4893Z" fill="currentColor"/></g></g><path fill-rule="evenodd" clip-rule="evenodd" d="M13 24C19.0751 24 24 19.0751 24 13C24 6.92487 19.0751 2 13 2C6.92487 2 2 6.92487 2 13C2 19.0751 6.92487 24 13 24ZM13 26C20.1797 26 26 20.1797 26 13C26 5.8203 20.1797 0 13 0C5.8203 0 0 5.8203 0 13C0 20.1797 5.8203 26 13 26Z" fill="currentColor"/></svg>