<svg width="20" height="20" viewBox="0 0 20 20" fill="none" xmlns="http://www.w3.org/2000/svg"><g><path fill-rule="evenodd" clip-rule="evenodd" d="M10.4755 4.42316C7.45118 4.42316 4.99951 6.87483 4.99951 9.89911C4.99951 12.9234 7.45118 15.3751 10.4755 15.3751C13.4998 15.3751 15.9514 12.9234 15.9514 9.89911C15.9514 6.87483 13.4998 4.42316 10.4755 4.42316ZM2.99951 9.89911C2.99951 5.77026 6.34661 2.42316 10.4755 2.42316C14.6043 2.42316 17.9514 5.77026 17.9514 9.89911C17.9514 14.028 14.6043 17.3751 10.4755 17.3751C6.34661 17.3751 2.99951 14.028 2.99951 9.89911Z" fill="currentColor"/><path fill-rule="evenodd" clip-rule="evenodd" d="M2.88812 14.3257C2.89966 14.2353 2.94268 14.0569 3.09629 13.7532C3.38135 13.1895 3.92554 12.4566 4.72443 11.6157L3.27447 10.2381C2.41128 11.1467 1.72082 12.0413 1.31157 12.8505C0.945097 13.5751 0.615146 14.6156 1.20379 15.4767C1.71705 16.2276 2.6154 16.3706 3.31722 16.353C4.07124 16.3342 4.95982 16.128 5.90157 15.803C7.79907 15.1481 10.1385 13.9311 12.493 12.3217C14.8636 10.7012 16.712 8.95422 17.8696 7.40816C18.445 6.63958 18.8815 5.87871 19.107 5.17476C19.3228 4.5013 19.4086 3.66554 18.9347 2.97227C18.6025 2.48634 18.1043 2.29486 17.6563 2.2488C17.2385 2.20583 16.8001 2.27844 16.4023 2.37729C15.6704 2.5592 14.7678 2.91477 13.8299 3.28422C13.7489 3.31611 13.6677 3.34811 13.5863 3.38012L14.318 5.24148C14.3814 5.21652 14.4441 5.19188 14.5059 5.16757C15.5066 4.77391 16.2875 4.46668 16.8847 4.31824C17.0535 4.27631 17.1817 4.25415 17.2762 4.24378C17.268 4.31875 17.2476 4.42332 17.2024 4.56451C17.0695 4.97935 16.7704 5.5393 16.2686 6.20946C15.2717 7.54089 13.5988 9.14312 11.3643 10.6706C9.11367 12.209 6.93447 13.3307 5.24913 13.9124C4.39946 14.2056 3.73056 14.3421 3.2672 14.3536C3.0735 14.3585 2.95554 14.3419 2.88812 14.3257Z" fill="currentColor"/></g></svg>