<svg width="20" height="20" viewBox="0 0 26 26" fill="none" xmlns="http://www.w3.org/2000/svg"><g transform="translate(3, 3)"><path d="M15.5444 9.59028C16.1942 9.99643 16.1645 10.9526 15.4907 11.3176L6.47627 16.2004C5.80997 16.5613 4.99999 16.0788 4.99999 15.3211V10V4.80427C4.99999 4.01884 5.86394 3.53999 6.52999 3.95627L15.5444 9.59028Z" fill="currentColor"/></g><path fill-rule="evenodd" clip-rule="evenodd" d="M13 24C19.0751 24 24 19.0751 24 13C24 6.92487 19.0751 2 13 2C6.92487 2 2 6.92487 2 13C2 19.0751 6.92487 24 13 24ZM13 26C20.1797 26 26 20.1797 26 13C26 5.8203 20.1797 0 13 0C5.8203 0 0 5.8203 0 13C0 20.1797 5.8203 26 13 26Z" fill="currentColor"/></svg>