<svg width="20" height="20" viewBox="0 0 20 20" fill="none" xmlns="http://www.w3.org/2000/svg"><path d="M5 11C4.44772 11 4 10.5523 4 10C4 9.44772 4.44772 9 5 9H15C15.5523 9 16 9.44772 16 10C16 10.5523 15.5523 11 15 11H5Z" fill="currentColor"/><path d="M9 5C9 4.44772 9.44772 4 10 4C10.5523 4 11 4.44772 11 5V15C11 15.5523 10.5523 16 10 16C9.44772 16 9 15.5523 9 15V5Z" fill="currentColor"/><path d="M1.29289 2.70711C0.902369 2.31658 0.902369 1.68342 1.29289 1.29289C1.68342 0.902368 2.31658 0.902368 2.70711 1.29289L18.7071 17.2929C19.0976 17.6834 19.0976 18.3166 18.7071 18.7071C18.3166 19.0976 17.6834 19.0976 17.2929 18.7071L1.29289 2.70711Z" fill="currentColor"/></svg>