<svg width="20" height="20" viewBox="0 0 20 20" fill="none" xmlns="http://www.w3.org/2000/svg"><path d="M4.33819 5.17875C4.72595 4.78548 5.3591 4.78103 5.75236 5.16879C6.14563 5.55656 6.15008 6.18971 5.76232 6.58297C4.64106 7.72013 4 9.25726 4 10.9008C4 14.2724 6.68947 17 10 17C13.3105 17 16 14.2724 16 10.9008C16 9.25726 15.3589 7.72013 14.2377 6.58297C13.8499 6.18971 13.8544 5.55656 14.2476 5.16879C14.6409 4.78103 15.274 4.78548 15.6618 5.17875C17.1491 6.68714 18 8.72737 18 10.9008C18 15.3708 14.4215 19 10 19C5.57855 19 2 15.3708 2 10.9008C2 8.72737 2.85088 6.68714 4.33819 5.17875Z" fill="currentColor"/><rect x="9" y="1" width="2" height="10.5" rx="1" fill="currentColor"/></svg>