<svg width="20" height="20" viewBox="0 0 20 20" fill="none" xmlns="http://www.w3.org/2000/svg"><path d="M10.1368 9.31771C9.77821 9.70192 9.77821 10.2981 10.1368 10.6823L14.7689 15.6453C15.3882 16.3088 16.5 15.8706 16.5 14.963V5.03705C16.5 4.12943 15.3882 3.69121 14.7689 4.35473L10.1368 9.31771Z" fill="currentColor"/><path fill-rule="evenodd" clip-rule="evenodd" d="M12.2357 10L14.5 7.57407V12.426L12.2357 10ZM10.1368 10.6823C9.77821 10.2981 9.77821 9.70192 10.1368 9.31771L14.7689 4.35473C15.3882 3.69121 16.5 4.12943 16.5 5.03705V14.963C16.5 15.8706 15.3882 16.3088 14.7689 15.6453L10.1368 10.6823Z" fill="currentColor"/><path d="M5.1368 9.31771C4.77821 9.70192 4.77821 10.2981 5.1368 10.6823L9.76892 15.6453C10.3882 16.3088 11.5 15.8706 11.5 14.963V5.03705C11.5 4.12943 10.3882 3.69121 9.76892 4.35473L5.1368 9.31771Z" fill="currentColor"/><path fill-rule="evenodd" clip-rule="evenodd" d="M7.23575 10L9.49997 7.57407V12.426L7.23575 10ZM5.1368 10.6823C4.77821 10.2981 4.77821 9.70192 5.1368 9.31771L9.76892 4.35473C10.3882 3.69121 11.5 4.12943 11.5 5.03705V14.963C11.5 15.8706 10.3882 16.3088 9.76892 15.6453L5.1368 10.6823Z" fill="currentColor"/><path fill-rule="evenodd" clip-rule="evenodd" d="M4.5 4C3.94772 4 3.5 4.44772 3.5 5L3.5 15C3.5 15.5523 3.94772 16 4.5 16C5.05228 16 5.5 15.5523 5.5 15L5.5 5C5.5 4.44772 5.05228 4 4.5 4Z" fill="currentColor"/><path d="M1.29289 2.70711C0.902369 2.31658 0.902369 1.68342 1.29289 1.29289C1.68342 0.902368 2.31658 0.902368 2.70711 1.29289L18.7071 17.2929C19.0976 17.6834 19.0976 18.3166 18.7071 18.7071C18.3166 19.0976 17.6834 19.0976 17.2929 18.7071L1.29289 2.70711Z" fill="currentColor"/></svg>