<svg width="20" height="20" viewBox="0 0 20 20" fill="none" xmlns="http://www.w3.org/2000/svg"><path fill-rule="evenodd" clip-rule="evenodd" d="M5 7V3C5 2.44772 5.3731 2 5.83333 2H14.1667C14.6269 2 15 2.44772 15 3V7" fill="white"/><path d="M6 3V7C6 7.55228 5.55228 8 5 8C4.44772 8 4 7.55228 4 7V3C4 1.93165 4.77637 1 5.83333 1H14.1667C15.2236 1 16 1.93165 16 3V7C16 7.55228 15.5523 8 15 8C14.4477 8 14 7.55228 14 7V3H6Z" fill="currentColor"/><path d="M4 6H16C17.6569 6 19 7.34315 19 9V14C19 15.6569 17.6569 17 16 17H4C2.34315 17 1 15.6569 1 14L1 9C1 7.34315 2.34315 6 4 6Z" fill="currentColor"/><path fill-rule="evenodd" clip-rule="evenodd" d="M5 12V16.8C5 17.4627 5.3731 18 5.83333 18H14.1667C14.6269 18 15 17.4627 15 16.8V12" fill="white"/><path d="M6 16.8V12C6 11.4477 5.55228 11 5 11C4.44772 11 4 11.4477 4 12V16.8C4 17.9536 4.72664 19 5.83333 19H14.1667C15.2734 19 16 17.9536 16 16.8V12C16 11.4477 15.5523 11 15 11C14.4477 11 14 11.4477 14 12V16.8C14 16.8775 13.9883 16.9466 13.971 17H6.02904C6.0117 16.9466 6 16.8775 6 16.8Z" fill="currentColor"/><path d="M7 16C6.72386 16 6.5 15.7761 6.5 15.5C6.5 15.2239 6.72386 15 7 15H13C13.2761 15 13.5 15.2239 13.5 15.5C13.5 15.7761 13.2761 16 13 16H7Z" fill="currentColor"/><path d="M7 14C6.72386 14 6.5 13.7761 6.5 13.5C6.5 13.2239 6.72386 13 7 13H13C13.2761 13 13.5 13.2239 13.5 13.5C13.5 13.7761 13.2761 14 13 14H7Z" fill="currentColor"/><path d="M1.29289 2.70711C0.902369 2.31658 0.902369 1.68342 1.29289 1.29289C1.68342 0.902368 2.31658 0.902368 2.70711 1.29289L18.7071 17.2929C19.0976 17.6834 19.0976 18.3166 18.7071 18.7071C18.3166 19.0976 17.6834 19.0976 17.2929 18.7071L1.29289 2.70711Z" fill="currentColor"/></svg>