<svg width="20" height="20" viewBox="0 0 20 20" fill="none" xmlns="http://www.w3.org/2000/svg"><path fill-rule="evenodd" clip-rule="evenodd" d="M6 6V8H8V6H6ZM5 4.5C4.72386 4.5 4.5 4.72386 4.5 5V9C4.5 9.27614 4.72386 9.5 5 9.5H9C9.27614 9.5 9.5 9.27614 9.5 9V5C9.5 4.72386 9.27614 4.5 9 4.5H5Z" fill="currentColor"/><path fill-rule="evenodd" clip-rule="evenodd" d="M12 6V8H14V6H12ZM11 4.5C10.7239 4.5 10.5 4.72386 10.5 5V9C10.5 9.27614 10.7239 9.5 11 9.5H15C15.2761 9.5 15.5 9.27614 15.5 9V5C15.5 4.72386 15.2761 4.5 15 4.5H11Z" fill="currentColor"/><path fill-rule="evenodd" clip-rule="evenodd" d="M6 12V14H8V12H6ZM5 10.5C4.72386 10.5 4.5 10.7239 4.5 11V15C4.5 15.2761 4.72386 15.5 5 15.5H9C9.27614 15.5 9.5 15.2761 9.5 15V11C9.5 10.7239 9.27614 10.5 9 10.5H5Z" fill="currentColor"/><path d="M10.5 11C10.5 10.7239 10.7239 10.5 11 10.5H15C15.2761 10.5 15.5 10.7239 15.5 11V15C15.5 15.2761 15.2761 15.5 15 15.5H11C10.7239 15.5 10.5 15.2761 10.5 15V11Z" fill="currentColor"/><path fill-rule="evenodd" clip-rule="evenodd" d="M2 3C2 2.44772 2.44772 2 3 2L6.5 2C7.05228 2 7.5 2.44772 7.5 3C7.5 3.55228 7.05228 4 6.5 4H3C2.44772 4 2 3.55228 2 3Z" fill="currentColor"/><path fill-rule="evenodd" clip-rule="evenodd" d="M3 2C3.55228 2 4 2.44772 4 3V6.5C4 7.05228 3.55228 7.5 3 7.5C2.44772 7.5 2 7.05228 2 6.5V3C2 2.44772 2.44772 2 3 2Z" fill="currentColor"/><path fill-rule="evenodd" clip-rule="evenodd" d="M3 18C2.44772 18 2 17.5523 2 17L2 13.5C2 12.9477 2.44772 12.5 3 12.5C3.55228 12.5 4 12.9477 4 13.5V17C4 17.5523 3.55228 18 3 18Z" fill="currentColor"/><path fill-rule="evenodd" clip-rule="evenodd" d="M2 17C2 16.4477 2.44772 16 3 16H6.5C7.05228 16 7.5 16.4477 7.5 17C7.5 17.5523 7.05228 18 6.5 18H3C2.44772 18 2 17.5523 2 17Z" fill="currentColor"/><path fill-rule="evenodd" clip-rule="evenodd" d="M18 17C18 17.5523 17.5523 18 17 18H13.5C12.9477 18 12.5 17.5523 12.5 17C12.5 16.4477 12.9477 16 13.5 16H17C17.5523 16 18 16.4477 18 17Z" fill="currentColor"/><path fill-rule="evenodd" clip-rule="evenodd" d="M17 18C16.4477 18 16 17.5523 16 17V13.5C16 12.9477 16.4477 12.5 17 12.5C17.5523 12.5 18 12.9477 18 13.5V17C18 17.5523 17.5523 18 17 18Z" fill="currentColor"/><path fill-rule="evenodd" clip-rule="evenodd" d="M17 2C17.5523 2 18 2.44772 18 3V6.5C18 7.05228 17.5523 7.5 17 7.5C16.4477 7.5 16 7.05228 16 6.5V3C16 2.44772 16.4477 2 17 2Z" fill="currentColor"/><path fill-rule="evenodd" clip-rule="evenodd" d="M18 3C18 3.55228 17.5523 4 17 4L13.5 4C12.9477 4 12.5 3.55228 12.5 3C12.5 2.44772 12.9477 2 13.5 2L17 2C17.5523 2 18 2.44772 18 3Z" fill="currentColor"/><path d="M1.29289 2.70711C0.902369 2.31658 0.902369 1.68342 1.29289 1.29289C1.68342 0.902368 2.31658 0.902368 2.70711 1.29289L18.7071 17.2929C19.0976 17.6834 19.0976 18.3166 18.7071 18.7071C18.3166 19.0976 17.6834 19.0976 17.2929 18.7071L1.29289 2.70711Z" fill="currentColor"/></svg>