<svg width="20" height="20" viewBox="0 0 20 20" fill="none" xmlns="http://www.w3.org/2000/svg">
<circle cx="10" cy="14.25" r="1" fill="currentColor"/>
<circle cx="10" cy="10" r="7" stroke="currentColor" stroke-width="2"/>
<path d="M11.5182 9.58913C12.1151 9.22363 12.5 8.64778 12.5 8C12.5 6.89543 11.3807 6 10 6C9.36598 6 8.78707 6.18882 8.34637 6.5C7.9224 6.79936 7.62632 7.21197 7.5321 7.67866" stroke="currentColor" stroke-width="2" stroke-linecap="round"/>
<path d="M10 10.5V11.5" stroke="currentColor" stroke-width="2" stroke-linecap="round"/>
<path d="M9.99999 10.5L11.52 9.58997" stroke="currentColor" stroke-width="2" stroke-linecap="round"/>
<path d="M11 14.25C11 14.8023 10.5523 15.25 10 15.25C9.44772 15.25 9 14.8023 9 14.25C9 13.6977 9.44772 13.25 10 13.25C10.5523 13.25 11 13.6977 11 14.25Z" fill="currentColor"/>
<path fill-rule="evenodd" clip-rule="evenodd" d="M10 4C6.68629 4 4 6.68629 4 10C4 13.3137 6.68629 16 10 16C13.3137 16 16 13.3137 16 10C16 6.68629 13.3137 4 10 4ZM2 10C2 5.58172 5.58172 2 10 2C14.4183 2 18 5.58172 18 10C18 14.4183 14.4183 18 10 18C5.58172 18 2 14.4183 2 10Z" fill="currentColor"/>
<path fill-rule="evenodd" clip-rule="evenodd" d="M10 7C9.56103 7 9.18597 7.13133 8.92318 7.31689C8.66923 7.49619 8.54741 7.70283 8.51234 7.87655C8.40304 8.41791 7.87558 8.76817 7.33422 8.65888C6.79286 8.54958 6.4426 8.02212 6.55189 7.48076C6.70526 6.72111 7.17558 6.10253 7.76958 5.68311C8.3882 5.24631 9.17095 5 10 5C11.7132 5 13.5 6.14645 13.5 8C13.5 9.07221 12.8626 9.93849 12.0404 10.4419C11.5694 10.7304 10.9538 10.5823 10.6654 10.1113C10.377 9.64035 10.525 9.02473 10.996 8.73631C11.3676 8.50877 11.5 8.22335 11.5 8C11.5 7.64441 11.0482 7 10 7Z" fill="currentColor"/>
<path fill-rule="evenodd" clip-rule="evenodd" d="M10 9.5C10.5523 9.5 11 9.94772 11 10.5V11.5C11 12.0523 10.5523 12.5 10 12.5C9.44772 12.5 9 12.0523 9 11.5V10.5C9 9.94772 9.44772 9.5 10 9.5Z" fill="currentColor"/>
<path fill-rule="evenodd" clip-rule="evenodd" d="M12.378 9.07633C12.6617 9.55019 12.5075 10.1643 12.0337 10.448L10.5137 11.358C10.0398 11.6417 9.42569 11.4875 9.142 11.0137C8.85831 10.5398 9.01247 9.92569 9.48632 9.64201L11.0063 8.73201C11.4802 8.44832 12.0943 8.60248 12.378 9.07633Z" fill="currentColor"/>
</svg>
