<svg width="20" height="20" viewBox="0 0 20 20" fill="none" xmlns="http://www.w3.org/2000/svg">
<path fill-rule="evenodd" clip-rule="evenodd" d="M10 18C5.58172 18 2 14.4183 2 10C2 5.58172 5.58172 2 10 2C14.4183 2 18 5.58172 18 10C18 14.4183 14.4183 18 10 18ZM11 14.25C11 14.8023 10.5523 15.25 10 15.25C9.44772 15.25 9 14.8023 9 14.25C9 13.6977 9.44772 13.25 10 13.25C10.5523 13.25 11 13.6977 11 14.25ZM8.92316 7.31689C9.18596 7.13133 9.56102 7 10 7C11.0482 7 11.5 7.64441 11.5 8C11.5 8.22335 11.3676 8.50877 10.996 8.73631C10.9823 8.74469 10.9689 8.75334 10.9557 8.76226L9.50025 9.63364C9.34172 9.72528 9.21068 9.85919 9.12253 10.02C9.03922 10.1726 8.99686 10.345 9 10.519V11.5C9 12.0523 9.44772 12.5 10 12.5C10.5523 12.5 11 12.0523 11 11.5V11.0668L12.0337 10.448C12.0567 10.4341 12.0791 10.4195 12.1006 10.4042C12.8935 9.89581 13.5 9.04587 13.5 8C13.5 6.14645 11.7132 5 10 5C9.17094 5 8.38819 5.24631 7.76957 5.68311C7.17557 6.10253 6.70525 6.72111 6.55188 7.48076C6.44259 8.02212 6.79285 8.54958 7.33421 8.65888C7.87557 8.76817 8.40303 8.41791 8.51233 7.87655C8.5474 7.70283 8.66922 7.49619 8.92316 7.31689Z" fill="currentColor"/>
</svg>
