<svg width="20" height="20" viewBox="0 0 26 26" fill="none" xmlns="http://www.w3.org/2000/svg"><defs><mask id="mask-pop-question-circle-filled"><rect width="26" height="26" fill="white"/><g transform="translate(3, 3)"><path d="M11.7387 16.2131C11.7387 17.3177 10.8433 18.2131 9.73871 18.2131C8.63414 18.2131 7.73871 17.3177 7.73871 16.2131C7.73871 15.1086 8.63414 14.2131 9.73871 14.2131C10.8433 14.2131 11.7387 15.1086 11.7387 16.2131Z" fill="black"/><path fill-rule="evenodd" clip-rule="evenodd" d="M9.70985 4.76469C9.03957 4.76469 8.46491 4.96516 8.06041 5.25078C7.66962 5.52672 7.47722 5.84831 7.42135 6.12504C7.26287 6.91001 6.49805 7.41789 5.71308 7.25941C4.9281 7.10094 4.42023 6.33612 4.5787 5.55114C4.8061 4.4248 5.50383 3.5059 6.38769 2.88181C7.30815 2.23188 8.47395 1.86469 9.70985 1.86469C12.2675 1.86469 14.9179 3.5747 14.9179 6.32114C14.9179 7.91032 13.9731 9.19709 12.7492 9.94654C12.0663 10.3647 11.1736 10.1501 10.7554 9.46718C10.3372 8.78424 10.5518 7.89159 11.2348 7.47339C11.8054 7.12399 12.0179 6.67949 12.0179 6.32114C12.0179 5.74675 11.3032 4.76469 9.70985 4.76469Z" fill="black"/><path fill-rule="evenodd" clip-rule="evenodd" d="M9.70985 8.62921C10.5107 8.62921 11.1599 9.2784 11.1599 10.0792V11.5824C11.1599 12.3833 10.5107 13.0324 9.70985 13.0324C8.90904 13.0324 8.25985 12.3833 8.25985 11.5824V10.0792C8.25985 9.2784 8.90904 8.62921 9.70985 8.62921Z" fill="black"/><path fill-rule="evenodd" clip-rule="evenodd" d="M13.2388 7.96645C13.6502 8.65354 13.4266 9.544 12.7395 9.95535L10.4546 11.3233C9.76754 11.7346 8.87708 11.5111 8.46573 10.824C8.05438 10.1369 8.27791 9.24647 8.965 8.83512L11.2499 7.46718C11.937 7.05583 12.8275 7.27936 13.2388 7.96645Z" fill="black"/></g></mask></defs><circle r="13" cx="13" cy="13" mask="url(#mask-pop-question-circle-filled)" fill="currentColor"/></svg>