<svg width="20" height="20" viewBox="0 0 20 20" fill="none" xmlns="http://www.w3.org/2000/svg"><path fill-rule="evenodd" clip-rule="evenodd" d="M11.5 6C10.1193 6 9 7.11929 9 8.5C9 9.88071 10.1193 11 11.5 11C12.8807 11 14 9.88071 14 8.5C14 7.11929 12.8807 6 11.5 6ZM7 8.5C7 6.01472 9.01472 4 11.5 4C13.9853 4 16 6.01472 16 8.5C16 10.9853 13.9853 13 11.5 13C9.01472 13 7 10.9853 7 8.5Z" fill="currentColor"/><path fill-rule="evenodd" clip-rule="evenodd" d="M2 4C2 2.61929 3.11929 1.5 4.5 1.5C5.88071 1.5 7 2.61929 7 4V7.27222C7 8.15468 7.30938 9.00921 7.87432 9.68713L9.26822 11.3598C9.62179 11.7841 9.56446 12.4147 9.14018 12.7682C8.71591 13.1218 8.08534 13.0645 7.73178 12.6402L6.33788 10.9675C5.47342 9.93015 5 8.62255 5 7.27222V4C5 3.72386 4.77614 3.5 4.5 3.5C4.22386 3.5 4 3.72386 4 4V7.75C4 8.40656 4.16162 9.05303 4.47059 9.63235L7.88235 16.0294C8.14225 16.5167 7.9579 17.1225 7.47059 17.3824C6.98328 17.6423 6.37755 17.4579 6.11765 16.9706L2.70588 10.5735C2.24243 9.70455 2 8.73484 2 7.75V4Z" fill="currentColor"/><path fill-rule="evenodd" clip-rule="evenodd" d="M7.5 12C7.5 11.4477 7.94772 11 8.5 11H11C14.3137 11 17 13.6863 17 17V19C17 19.5523 16.5523 20 16 20C15.4477 20 15 19.5523 15 19V17C15 14.7909 13.2091 13 11 13H8.5C7.94772 13 7.5 12.5523 7.5 12ZM7 15.5C7.55228 15.5 8 15.9477 8 16.5V19C8 19.5523 7.55228 20 7 20C6.44772 20 6 19.5523 6 19V16.5C6 15.9477 6.44772 15.5 7 15.5Z" fill="currentColor"/></svg>