<svg xmlns="http://www.w3.org/2000/svg" width="20" height="20" viewBox="0 0 20 20">
  <g fill="none" fill-rule="evenodd" stroke-linecap="round">
    <g stroke="#AB92F0" stroke-width="2" transform="translate(5.757 8.8)">
      <path d="M0,5.44169455 C1.08578644,6.52748098 2.58578644,7.19905386 4.24264069,7.19905386 C7.55634919,7.19905386 10.2426407,4.51276236 10.2426407,1.19905386"/>
      <path d="M7.40023239,3.39810772 L10.0930624,1" transform="rotate(8 8.747 2.2)"/>
      <path d="M12.4416684,4.04528286 L10.043613,1.35282486" transform="rotate(8 11.243 2.7)"/>
    </g>
    <g stroke="#AB92F0" stroke-width="2" transform="rotate(-180 7.075 5.5)">
      <path d="M0,5.44169455 C1.08578644,6.52748098 2.58578644,7.19905386 4.24264069,7.19905386 C7.55634919,7.19905386 10.2426407,4.51276236 10.2426407,1.19905386"/>
      <path d="M7.40023239,3.39810772 L10.0930624,1" transform="rotate(8 8.747 2.2)"/>
      <path d="M12.4416684,4.04528286 L10.043613,1.35282486" transform="rotate(8 11.243 2.7)"/>
    </g>
  </g>
</svg>
