<svg width="20" height="20" viewBox="0 0 20 20" fill="none" xmlns="http://www.w3.org/2000/svg">
<path d="M5.05022 14.9497C4.65969 14.5592 4.65969 13.9261 5.05022 13.5355C5.44074 13.145 6.07391 13.145 6.46443 13.5355C7.39671 14.4678 8.65494 15 9.99996 15C12.7614 15 15 12.7614 15 10C15 9.44772 15.4477 9 16 9C16.5522 9 17 9.44772 17 10C17 13.866 13.866 17 9.99996 17C8.11906 17 6.35385 16.2534 5.05022 14.9497Z" fill="currentColor"/>
<path d="M13.5585 12.832C13.0989 13.1384 12.478 13.0141 12.1717 12.5546C11.8654 12.0951 11.9896 11.4742 12.4491 11.1679L15.4495 9.16787C15.9091 8.86154 16.5299 8.98575 16.8363 9.4453C17.1426 9.90484 17.0184 10.5257 16.5588 10.832L13.5585 12.832Z" fill="currentColor"/>
<path d="M18.832 12.4452C19.1383 12.9048 19.0141 13.5256 18.5546 13.832C18.0951 14.1383 17.4742 14.0142 17.1679 13.5546L15.1679 10.5546C14.8615 10.0951 14.9857 9.47424 15.4452 9.16789C15.9047 8.86153 16.5256 8.98571 16.832 9.44524L18.832 12.4452Z" fill="currentColor"/>
<path d="M14.8571 4.85116C15.2477 5.24168 15.2477 5.87485 14.8571 6.26537C14.4666 6.65589 13.8334 6.65589 13.4429 6.26537C12.5106 5.33309 11.2524 4.8009 9.90738 4.8009C7.14596 4.8009 4.90738 7.03948 4.90738 9.8009C4.90738 10.3532 4.45967 10.8009 3.90738 10.8009C3.3551 10.8009 2.90738 10.3532 2.90738 9.8009C2.90738 5.93491 6.04139 2.8009 9.90738 2.8009C11.7883 2.8009 13.5535 3.54752 14.8571 4.85116Z" fill="currentColor"/>
<path d="M6.34889 6.96887C6.80844 6.66255 7.4293 6.78676 7.73563 7.2463C8.04195 7.70585 7.91775 8.32671 7.4582 8.63304L4.45782 10.633C3.99828 10.9394 3.37741 10.8152 3.07109 10.3556C2.76476 9.89606 2.88897 9.2752 3.34852 8.96887L6.34889 6.96887Z" fill="currentColor"/>
<path d="M1.07539 7.35567C0.769038 6.89614 0.893212 6.27527 1.35274 5.96892C1.81227 5.66256 2.43314 5.78674 2.73949 6.24627L4.73949 9.24627C5.04584 9.7058 4.92167 10.3267 4.46214 10.633C4.00261 10.9394 3.38174 10.8152 3.07539 10.3557L1.07539 7.35567Z" fill="currentColor"/>
</svg>
