<svg width="20" height="20" viewBox="0 0 26 26" fill="none" xmlns="http://www.w3.org/2000/svg"><g transform="translate(3, 3)"><path d="M13.9372 4.21148C14.3936 4.52244 14.5115 5.14453 14.2005 5.60095C13.8896 6.05738 13.2675 6.1753 12.8111 5.86434C11.9885 5.30394 11.0183 5 10 5C7.23858 5 5 7.23858 5 10C5 12.7614 7.23858 15 10 15C12.7614 15 15 12.7614 15 10C15 9.44772 15.4477 9 16 9C16.5523 9 17 9.44772 17 10C17 13.866 13.866 17 10 17C6.13401 17 3 13.866 3 10C3 6.13401 6.13401 3 10 3C11.4232 3 12.7852 3.42666 13.9372 4.21148Z" fill="currentColor"/><path d="M13.5385 12.5062C13.0732 12.8038 12.4548 12.6679 12.1572 12.2026C11.8596 11.7373 11.9955 11.1189 12.4608 10.8214L15.9426 8.59426C16.4079 8.29667 17.0263 8.43258 17.3239 8.89784C17.6215 9.36309 17.4855 9.98149 17.0203 10.2791L13.5385 12.5062Z" fill="currentColor"/><path d="M18.9034 12.4104C19.1284 12.9147 18.9019 13.506 18.3976 13.731C17.8932 13.956 17.3019 13.7295 17.0769 13.2252L15.5688 9.84436C15.3438 9.33999 15.5702 8.74871 16.0746 8.52371C16.579 8.29871 17.1703 8.52519 17.3953 9.02957L18.9034 12.4104Z" fill="currentColor"/><path d="M1.29289 2.70711C0.902369 2.31658 0.902369 1.68342 1.29289 1.29289C1.68342 0.902368 2.31658 0.902368 2.70711 1.29289L18.7071 17.2929C19.0976 17.6834 19.0976 18.3166 18.7071 18.7071C18.3166 19.0976 17.6834 19.0976 17.2929 18.7071L1.29289 2.70711Z" fill="currentColor"/></g><path fill-rule="evenodd" clip-rule="evenodd" d="M13 24C19.0751 24 24 19.0751 24 13C24 6.92487 19.0751 2 13 2C6.92487 2 2 6.92487 2 13C2 19.0751 6.92487 24 13 24ZM13 26C20.1797 26 26 20.1797 26 13C26 5.8203 20.1797 0 13 0C5.8203 0 0 5.8203 0 13C0 20.1797 5.8203 26 13 26Z" fill="currentColor"/></svg>