<svg width="20" height="20" viewBox="0 0 20 20" fill="none" xmlns="http://www.w3.org/2000/svg">
<path d="M8.6368 9.31771C8.27821 9.70192 8.27821 10.2981 8.6368 10.6823L13.2689 15.6453C13.8882 16.3088 15 15.8706 15 14.963V5.03705C15 4.12943 13.8882 3.69121 13.2689 4.35473L8.6368 9.31771Z" fill="currentColor"/>
<path fill-rule="evenodd" clip-rule="evenodd" d="M10.7357 10L13 7.57407V12.426L10.7357 10ZM8.6368 10.6823C8.27821 10.2981 8.27821 9.70192 8.6368 9.31771L13.2689 4.35473C13.8882 3.69121 15 4.12943 15 5.03705V14.963C15 15.8706 13.8882 16.3088 13.2689 15.6453L8.6368 10.6823Z" fill="currentColor"/>
<path d="M3.6368 9.31771C3.27821 9.70192 3.27821 10.2981 3.6368 10.6823L8.26892 15.6453C8.88821 16.3088 9.99997 15.8706 9.99997 14.963V5.03705C9.99997 4.12943 8.88821 3.69121 8.26892 4.35473L3.6368 9.31771Z" fill="currentColor"/>
<path fill-rule="evenodd" clip-rule="evenodd" d="M5.73575 10L7.99997 7.57407L7.99997 12.426L5.73575 10ZM3.6368 10.6823C3.27821 10.2981 3.27821 9.70192 3.6368 9.31771L8.26892 4.35473C8.8882 3.69121 9.99997 4.12943 9.99997 5.03705V14.963C9.99997 15.8706 8.88821 16.3088 8.26892 15.6453L3.6368 10.6823Z" fill="currentColor"/>
</svg>
