<svg width="20" height="20" viewBox="0 0 26 26" fill="none" xmlns="http://www.w3.org/2000/svg"><g transform="translate(3, 3)"><g><path fill-rule="evenodd" clip-rule="evenodd" d="M5.95519 5.80495C4.61543 7.12621 4.03442 8.92824 4.21873 10.6756C4.27667 11.2248 3.87839 11.717 3.32915 11.775C2.77991 11.8329 2.2877 11.4346 2.22977 10.8854C1.9846 8.56104 2.75801 6.14902 4.55083 4.38094C7.68655 1.28852 12.7409 1.34092 15.84 4.48348C18.9392 7.62603 18.9214 12.6806 15.7856 15.773C14.2745 17.2633 12.3143 18.0239 10.3456 18.0589C9.57816 18.0726 8.80873 17.9762 8.06284 17.7697C7.53056 17.6224 7.2185 17.0715 7.36582 16.5392C7.51315 16.0069 8.06407 15.6949 8.59634 15.8422C9.15593 15.9971 9.73363 16.0695 10.31 16.0593C11.7873 16.033 13.2509 15.4638 14.3813 14.349C16.724 12.0386 16.7461 8.25048 14.416 5.88783C12.086 3.52518 8.29791 3.49457 5.95519 5.80495Z" fill="currentColor"/><path fill-rule="evenodd" clip-rule="evenodd" d="M3.96719 11.6946C3.60013 12.1073 2.96805 12.1442 2.55539 11.7772L0.835358 10.2472C0.422704 9.88011 0.385745 9.24802 0.752808 8.83537C1.11987 8.42272 1.75196 8.38576 2.16461 8.75282L3.88464 10.2828C4.2973 10.6499 4.33426 11.282 3.96719 11.6946Z" fill="currentColor"/><path fill-rule="evenodd" clip-rule="evenodd" d="M2.41998 11.5999C2.75135 12.0418 3.37815 12.1313 3.81998 11.8L5.81998 10.3C6.26181 9.96862 6.35136 9.34182 6.01999 8.89999C5.68863 8.45816 5.06183 8.36861 4.62 8.69998L2.61999 10.1999C2.17816 10.5313 2.08861 11.1581 2.41998 11.5999Z" fill="currentColor"/><path fill-rule="evenodd" clip-rule="evenodd" d="M10 6C10.5523 6 11 6.44772 11 7V10.5C11 11.0523 10.5523 11.5 10 11.5C9.44772 11.5 9 11.0523 9 10.5V7C9 6.44772 9.44772 6 10 6Z" fill="currentColor"/><path fill-rule="evenodd" clip-rule="evenodd" d="M14 10.5C14 11.0523 13.5523 11.5 13 11.5H10C9.44772 11.5 9 11.0523 9 10.5C9 9.94772 9.44772 9.5 10 9.5H13C13.5523 9.5 14 9.94772 14 10.5Z" fill="currentColor"/></g></g><path fill-rule="evenodd" clip-rule="evenodd" d="M13 24C19.0751 24 24 19.0751 24 13C24 6.92487 19.0751 2 13 2C6.92487 2 2 6.92487 2 13C2 19.0751 6.92487 24 13 24ZM13 26C20.1797 26 26 20.1797 26 13C26 5.8203 20.1797 0 13 0C5.8203 0 0 5.8203 0 13C0 20.1797 5.8203 26 13 26Z" fill="currentColor"/></svg>