<svg width="20" height="20" viewBox="0 0 26 26" fill="none" xmlns="http://www.w3.org/2000/svg"><defs><mask id="mask-pop-ruler-circle-filled"><rect width="26" height="26" fill="white"/><g transform="translate(3, 3)"><g><path fill-rule="evenodd" clip-rule="evenodd" d="M1.25 15.3921C0.46895 14.6111 0.46895 13.3447 1.25 12.5637L12.5637 1.24998C13.3448 0.468934 14.6111 0.468935 15.3921 1.24998L18.9277 4.78552C19.7087 5.56657 19.7087 6.8329 18.9277 7.61394L7.61396 18.9277C6.83291 19.7087 5.56658 19.7087 4.78553 18.9277L1.25 15.3921ZM3.37132 13.2708L2.66421 13.9779L6.19975 17.5134L17.5135 6.19973L13.9779 2.6642L13.2708 3.3713L14.6261 4.72659C15.0166 5.11712 15.0166 5.75028 14.6261 6.14081C14.2356 6.53133 13.6024 6.53133 13.2119 6.14081L11.8566 4.78552L11.1495 5.49262L11.6798 6.02295C12.0703 6.41348 12.0703 7.04664 11.6798 7.43717C11.2893 7.82769 10.6561 7.82769 10.2656 7.43717L9.73528 6.90684L9.02817 7.61394L10.3835 8.96923C10.774 9.35976 10.774 9.99292 10.3835 10.3834C9.99294 10.774 9.35977 10.774 8.96925 10.3834L7.61396 9.02816L6.90685 9.73526L7.43718 10.2656C7.82771 10.6561 7.82771 11.2893 7.43718 11.6798C7.04666 12.0703 6.41349 12.0703 6.02297 11.6798L5.49264 11.1495L4.78553 11.8566L6.14082 13.2119C6.53134 13.6024 6.53134 14.2356 6.14082 14.6261C5.7503 15.0166 5.11713 15.0166 4.72661 14.6261L3.37132 13.2708Z" fill="black"/></g></g></mask></defs><circle r="13" cx="13" cy="13" mask="url(#mask-pop-ruler-circle-filled)" fill="currentColor"/></svg>