<svg width="20" height="20" viewBox="0 0 20 20" fill="none" xmlns="http://www.w3.org/2000/svg"><path fill-rule="evenodd" clip-rule="evenodd" d="M2 5.5C2 7.433 3.567 9 5.5 9C7.433 9 9 7.433 9 5.5C9 3.567 7.433 2 5.5 2C3.567 2 2 3.567 2 5.5ZM7 5.5C7 6.32843 6.32843 7 5.5 7C4.67157 7 4 6.32843 4 5.5C4 4.67157 4.67157 4 5.5 4C6.32843 4 7 4.67157 7 5.5Z" fill="currentColor"/><path fill-rule="evenodd" clip-rule="evenodd" d="M2 14C2 15.933 3.567 17.5 5.5 17.5C7.433 17.5 9 15.933 9 14C9 12.067 7.433 10.5 5.5 10.5C3.567 10.5 2 12.067 2 14ZM7 14C7 14.8284 6.32843 15.5 5.5 15.5C4.67157 15.5 4 14.8284 4 14C4 13.1716 4.67157 12.5 5.5 12.5C6.32843 12.5 7 13.1716 7 14Z" fill="currentColor"/><path d="M16.7071 15.2929C17.0976 15.6834 17.0976 16.3166 16.7071 16.7071C16.3166 17.0976 15.6834 17.0976 15.2929 16.7071L6.79289 8.20711C6.40237 7.81658 6.40237 7.18342 6.79289 6.79289C7.18342 6.40237 7.81658 6.40237 8.20711 6.79289L16.7071 15.2929Z" fill="currentColor"/><path d="M6.79289 11.2929C6.40237 11.6834 6.40237 12.3166 6.79289 12.7071C7.18342 13.0976 7.81658 13.0976 8.20711 12.7071L16.7071 4.20711C17.0976 3.81658 17.0976 3.18342 16.7071 2.79289C16.3166 2.40237 15.6834 2.40237 15.2929 2.79289L6.79289 11.2929Z" fill="currentColor"/></svg>