<svg width="20" height="20" viewBox="0 0 26 26" fill="none" xmlns="http://www.w3.org/2000/svg"><g transform="translate(3, 3)"><g><path fill-rule="evenodd" clip-rule="evenodd" d="M10.0001 11.3023C10.5523 11.3023 11.0001 11.75 11.0001 12.3023V16.8023C11.0001 17.3546 10.5523 17.8023 10.0001 17.8023C9.44778 17.8023 9.00006 17.3546 9.00006 16.8023V12.3023C9.00006 11.75 9.44778 11.3023 10.0001 11.3023Z" fill="currentColor"/><path fill-rule="evenodd" clip-rule="evenodd" d="M3.06716 6.29332C3.44308 7.47208 4.17433 8.63065 5.05259 9.28048C6.12358 10.0729 7.04224 10.2954 7.74067 10.2498C8.43968 10.2042 9.00476 9.88642 9.38844 9.43595C9.66744 9.10837 9.79817 8.56838 9.60436 7.83787C9.41175 7.1119 8.91347 6.29796 8.11416 5.61717C7.29956 4.92335 6.0783 4.28886 4.95115 3.98514C4.38928 3.83374 3.90554 3.77965 3.54161 3.81047C3.17273 3.84171 3.03878 3.9471 2.99595 3.99739C2.92768 4.07755 2.82036 4.29719 2.8095 4.74513C2.79908 5.17502 2.88193 5.71249 3.06716 6.29332ZM0.810092 4.69665C0.82668 4.01246 0.989987 3.2681 1.47337 2.70057C1.98219 2.10316 2.70638 1.87404 3.37283 1.8176C4.04422 1.76074 4.77298 1.86579 5.4715 2.05401C6.86512 2.42954 8.35617 3.19618 9.41098 4.09459C10.4811 5.00603 11.228 6.15864 11.5375 7.325C11.8457 8.48683 11.7353 9.76496 10.911 10.7328C10.1914 11.5777 9.13152 12.1633 7.8709 12.2456C6.6097 12.3279 5.23404 11.9027 3.86299 10.8882C2.5598 9.92399 1.62782 8.36256 1.16171 6.90099C0.925933 6.16166 0.793065 5.39888 0.810092 4.69665Z" fill="currentColor"/><path fill-rule="evenodd" clip-rule="evenodd" d="M17.084 9.12706C16.6197 10.1926 15.8681 11.1703 15.0389 11.6267C13.0503 12.721 11.7826 11.8619 11.3858 11.2282C11.2725 11.0473 11.1825 10.555 11.4416 9.84552C11.6851 9.17882 12.1877 8.48622 12.9448 8.01215C13.7518 7.50682 14.9081 7.14202 15.9363 7.03611C16.4479 6.98342 16.8734 7.00079 17.1742 7.06622C17.3696 7.10874 17.4552 7.15768 17.4843 7.17722C17.4966 7.22278 17.5337 7.38521 17.4932 7.7237C17.4464 8.11505 17.3108 8.60671 17.084 9.12706ZM19.4791 7.961C19.5483 7.38159 19.5318 6.67008 19.1774 6.10402C18.7976 5.49754 18.1456 5.23076 17.5993 5.11192C17.026 4.98722 16.3742 4.98043 15.7314 5.04664C14.4511 5.17852 12.9907 5.62369 11.8834 6.31702C10.7261 7.04162 9.94948 8.10116 9.563 9.15944C9.19213 10.175 9.12142 11.3805 9.69067 12.2896C10.659 13.8361 13.0994 14.9769 16.0032 13.3788C17.359 12.6326 18.3531 11.2213 18.9175 9.92601C19.2051 9.26593 19.4046 8.58419 19.4791 7.961Z" fill="currentColor"/><path fill-rule="evenodd" clip-rule="evenodd" d="M8.71913 10.927C8.10779 10.1628 7.40228 9.47898 6.61938 8.8918L5.9 8.35227C5.45817 8.0209 5.36863 7.3941 5.7 6.95227C6.03137 6.51044 6.65817 6.4209 7.1 6.75227L7.81938 7.2918C8.73715 7.98013 9.56421 8.78175 10.2809 9.67758C10.6259 10.1088 10.556 10.7381 10.1247 11.0831C9.69343 11.4282 9.06414 11.3582 8.71913 10.927Z" fill="currentColor"/><path fill-rule="evenodd" clip-rule="evenodd" d="M11.7071 12.7594C12.3181 12.1484 12.9965 11.6087 13.7293 11.1508L14.53 10.6503C14.9984 10.3576 15.1407 9.74065 14.848 9.27231C14.5553 8.80397 13.9384 8.6616 13.47 8.95431L12.6693 9.45478C11.8082 9.99297 11.011 10.6272 10.2929 11.3452C9.90239 11.7357 9.90239 12.3689 10.2929 12.7594C10.6834 13.1499 11.3166 13.1499 11.7071 12.7594Z" fill="currentColor"/></g><defs><clipPath id="clip0_2608_816"><rect width="20" height="20" fill="white" transform="matrix(0 1 -1 0 20 0)"/></clipPath></defs></g><path fill-rule="evenodd" clip-rule="evenodd" d="M13 24C19.0751 24 24 19.0751 24 13C24 6.92487 19.0751 2 13 2C6.92487 2 2 6.92487 2 13C2 19.0751 6.92487 24 13 24ZM13 26C20.1797 26 26 20.1797 26 13C26 5.8203 20.1797 0 13 0C5.8203 0 0 5.8203 0 13C0 20.1797 5.8203 26 13 26Z" fill="currentColor"/></svg>