<svg width="20" height="20" viewBox="0 0 20 20" fill="none" xmlns="http://www.w3.org/2000/svg"><path d="M9 3C9 2.44772 9.44772 2 10 2C10.5523 2 11 2.44772 11 3L11 13.5C11 14.0523 10.5523 14.5 10 14.5C9.44772 14.5 9 14.0523 9 13.5L9 3Z" fill="currentColor"/><path d="M10.6402 2.76826C11.0645 2.41469 11.1218 1.78413 10.7682 1.35985C10.4147 0.935575 9.7841 0.878251 9.35982 1.23181L6.35982 3.73181C5.93554 4.08538 5.87822 4.71594 6.23178 5.14022C6.58535 5.5645 7.21591 5.62182 7.64019 5.26826L10.6402 2.76826Z" fill="currentColor"/><path d="M9.35981 2.76826C8.93553 2.41469 8.87821 1.78413 9.23177 1.35985C9.58534 0.935575 10.2159 0.878251 10.6402 1.23181L13.6402 3.73181C14.0645 4.08538 14.1218 4.71594 13.7682 5.14022C13.4147 5.5645 12.7841 5.62182 12.3598 5.26826L9.35981 2.76826Z" fill="currentColor"/><path d="M13 9C12.4477 9 12 8.55228 12 8C12 7.44772 12.4477 7 13 7H14C15.6233 7 17 8.16491 17 9.69231V17.3077C17 18.8351 15.6233 20 14 20L6 20C4.37672 20 3 18.8351 3 17.3077L3 9.69231C3 8.16491 4.37672 7 6 7H7C7.55228 7 8 7.44772 8 8C8 8.55228 7.55228 9 7 9H6C5.41414 9 5 9.35043 5 9.69231L5 17.3077C5 17.6496 5.41414 18 6 18L14 18C14.5859 18 15 17.6496 15 17.3077L15 9.69231C15 9.35043 14.5859 9 14 9L13 9Z" fill="currentColor"/><path d="M1.29289 2.70711C0.902369 2.31658 0.902369 1.68342 1.29289 1.29289C1.68342 0.902368 2.31658 0.902368 2.70711 1.29289L18.7071 17.2929C19.0976 17.6834 19.0976 18.3166 18.7071 18.7071C18.3166 19.0976 17.6834 19.0976 17.2929 18.7071L1.29289 2.70711Z" fill="currentColor"/></svg>