<svg width="20" height="20" viewBox="0 0 26 26" fill="none" xmlns="http://www.w3.org/2000/svg"><g transform="translate(3, 3)"><path fill-rule="evenodd" clip-rule="evenodd" d="M5 13C6.65685 13 8 11.6569 8 10C8 8.34315 6.65685 7 5 7C3.34315 7 2 8.34315 2 10C2 11.6569 3.34315 13 5 13ZM5 9C5.55228 9 6 9.44772 6 10C6 10.5523 5.55228 11 5 11C4.44772 11 4 10.5523 4 10C4 9.44772 4.44772 9 5 9Z" fill="currentColor"/><path fill-rule="evenodd" clip-rule="evenodd" d="M14 8C15.6569 8 17 6.65685 17 5C17 3.34315 15.6569 2 14 2C12.3431 2 11 3.34315 11 5C11 6.65685 12.3431 8 14 8ZM14 4C14.5523 4 15 4.44772 15 5C15 5.55228 14.5523 6 14 6C13.4477 6 13 5.55228 13 5C13 4.44772 13.4477 4 14 4Z" fill="currentColor"/><path fill-rule="evenodd" clip-rule="evenodd" d="M14 18C15.6569 18 17 16.6569 17 15C17 13.3431 15.6569 12 14 12C12.3431 12 11 13.3431 11 15C11 16.6569 12.3431 18 14 18ZM14 14C14.5523 14 15 14.4477 15 15C15 15.5523 14.5523 16 14 16C13.4477 16 13 15.5523 13 15C13 14.4477 13.4477 14 14 14Z" fill="currentColor"/><path d="M6.23586 9.77722L5.47276 8.48583L12.2642 4.47274L13.0272 5.76413L6.23586 9.77722Z" fill="currentColor"/><path d="M12.2572 15.529L13.029 14.2428L6.74275 10.471L5.97101 11.7572L12.2572 15.529Z" fill="currentColor"/></g><path fill-rule="evenodd" clip-rule="evenodd" d="M13 24C19.0751 24 24 19.0751 24 13C24 6.92487 19.0751 2 13 2C6.92487 2 2 6.92487 2 13C2 19.0751 6.92487 24 13 24ZM13 26C20.1797 26 26 20.1797 26 13C26 5.8203 20.1797 0 13 0C5.8203 0 0 5.8203 0 13C0 20.1797 5.8203 26 13 26Z" fill="currentColor"/></svg>