<svg width="20" height="20" viewBox="0 0 26 26" fill="none" xmlns="http://www.w3.org/2000/svg"><g transform="translate(3, 3)"><path fill-rule="evenodd" clip-rule="evenodd" d="M11.335 3.02995C10.494 2.61209 9.50596 2.61209 8.66502 3.02995L5.02945 4.83648C4.07962 5.30845 3.49234 6.21031 3.50116 7.18014C3.5173 8.9542 3.71063 11.2101 4.40082 12.6573C5.1672 14.2643 7.05071 15.9294 8.61697 17.0971C9.44658 17.7157 10.5534 17.7157 11.383 17.0971C12.9493 15.9294 14.8328 14.2643 15.5992 12.6573C16.2894 11.2101 16.4827 8.9542 16.4988 7.18014C16.5077 6.21031 15.9204 5.30845 14.9706 4.83648L11.335 3.02995ZM7.77503 1.23889C9.17659 0.542441 10.8234 0.542442 12.225 1.23889L15.8605 3.04542C17.4131 3.81689 18.5154 5.37398 18.4988 7.19834C18.4825 8.98307 18.3017 11.6367 17.4044 13.5182C16.4061 15.6116 14.1503 17.5286 12.5785 18.7005C11.0396 19.8479 8.96037 19.8479 7.4215 18.7005C5.84972 17.5286 3.59391 15.6116 2.5956 13.5182C1.69828 11.6367 1.51748 8.98306 1.50124 7.19834C1.48464 5.37398 2.5869 3.81689 4.13946 3.04542L7.77503 1.23889Z" fill="currentColor"/><path fill-rule="evenodd" clip-rule="evenodd" d="M13.1402 7.75099C13.5645 8.10456 13.6218 8.73512 13.2682 9.1594L11.4693 11.3182C10.7163 12.2216 9.35017 12.2836 8.51857 11.452L9.93281 10.0378L11.7318 7.87903C12.0853 7.45475 12.7159 7.39743 13.1402 7.75099ZM7.29291 8.81203C7.68344 8.42151 8.3166 8.42152 8.70712 8.81206L9.93281 10.0378L8.51857 11.452L7.29288 10.2262C6.90236 9.83572 6.90237 9.20255 7.29291 8.81203Z" fill="currentColor"/></g><path fill-rule="evenodd" clip-rule="evenodd" d="M13 24C19.0751 24 24 19.0751 24 13C24 6.92487 19.0751 2 13 2C6.92487 2 2 6.92487 2 13C2 19.0751 6.92487 24 13 24ZM13 26C20.1797 26 26 20.1797 26 13C26 5.8203 20.1797 0 13 0C5.8203 0 0 5.8203 0 13C0 20.1797 5.8203 26 13 26Z" fill="currentColor"/></svg>