<svg width="20" height="20" viewBox="0 0 26 26" fill="none" xmlns="http://www.w3.org/2000/svg"><g transform="translate(3, 3)"><path fill-rule="evenodd" clip-rule="evenodd" d="M11.335 3.02995C10.494 2.61209 9.50595 2.61209 8.66501 3.02995L5.02944 4.83648C4.07962 5.30845 3.49233 6.21031 3.50116 7.18014C3.5173 8.9542 3.71063 11.2101 4.40081 12.6573C5.16719 14.2643 7.05071 15.9294 8.61696 17.0971C9.44657 17.7157 10.5534 17.7157 11.383 17.0971C12.9493 15.9294 14.8328 14.2643 15.5992 12.6573C16.2894 11.2101 16.4827 8.9542 16.4988 7.18014C16.5077 6.21031 15.9204 5.30845 14.9705 4.83648L11.335 3.02995ZM7.77502 1.23889C9.17659 0.542441 10.8234 0.542442 12.225 1.23889L15.8605 3.04542C17.4131 3.81689 18.5154 5.37398 18.4988 7.19834C18.4825 8.98307 18.3017 11.6367 17.4044 13.5182C16.4061 15.6116 14.1503 17.5286 12.5785 18.7005C11.0396 19.8479 8.96036 19.8479 7.42149 18.7005C5.84971 17.5286 3.59391 15.6116 2.59559 13.5182C1.69828 11.6367 1.51748 8.98306 1.50124 7.19834C1.48464 5.37398 2.58689 3.81689 4.13946 3.04542L7.77502 1.23889Z" fill="currentColor"/><path d="M1.29289 2.70711C0.902369 2.31658 0.902369 1.68342 1.29289 1.29289C1.68342 0.902368 2.31658 0.902368 2.70711 1.29289L18.7071 17.2929C19.0976 17.6834 19.0976 18.3166 18.7071 18.7071C18.3166 19.0976 17.6834 19.0976 17.2929 18.7071L1.29289 2.70711Z" fill="currentColor"/></g><path fill-rule="evenodd" clip-rule="evenodd" d="M13 24C19.0751 24 24 19.0751 24 13C24 6.92487 19.0751 2 13 2C6.92487 2 2 6.92487 2 13C2 19.0751 6.92487 24 13 24ZM13 26C20.1797 26 26 20.1797 26 13C26 5.8203 20.1797 0 13 0C5.8203 0 0 5.8203 0 13C0 20.1797 5.8203 26 13 26Z" fill="currentColor"/></svg>