<svg width="20" height="20" viewBox="0 0 20 20" fill="none" xmlns="http://www.w3.org/2000/svg"><path fill-rule="evenodd" clip-rule="evenodd" d="M11.5723 3.07066C10.7149 2.63253 9.69935 2.63253 8.84199 3.07066L5.41956 4.81958C4.48415 5.29759 3.90741 6.19462 3.91518 7.15794C3.92951 8.93507 4.11599 11.2093 4.79208 12.6672C5.52255 14.2424 7.29575 15.8734 8.80309 17.0388C9.63976 17.6857 10.7745 17.6857 11.6112 17.0388C13.1185 15.8734 14.8917 14.2424 15.6222 12.6672C16.2983 11.2093 16.4847 8.93507 16.4991 7.15794C16.5068 6.19462 15.9301 5.29759 14.9947 4.81958L11.5723 3.07066ZM7.9319 1.28972C9.36084 0.559513 11.0534 0.559514 12.4823 1.28972L15.9048 3.03864C17.435 3.82059 18.5136 5.36858 18.499 7.17406C18.4846 8.95936 18.3109 11.6232 17.4366 13.5086C16.4845 15.5617 14.3551 17.4453 12.8345 18.621C11.2774 19.825 9.13686 19.825 7.57974 18.621C6.05915 17.4453 3.92978 15.5617 2.97768 13.5086C2.10335 11.6232 1.92964 8.95936 1.91525 7.17406C1.90069 5.36858 2.97927 3.8206 4.50947 3.03864L7.9319 1.28972Z" fill="currentColor"/><path d="M9.72543 1.75L16.9509 5.11842V10.25H10.2254C9.94929 10.25 9.72543 10.0261 9.72543 9.75V1.75Z" fill="currentColor"/><path d="M2.5 9.75H9.70711C9.98326 9.75 10.2071 9.97386 10.2071 10.25V18.75L5.67352 16.7675L2.5 9.75Z" fill="currentColor"/><path d="M1.29289 2.70711C0.902369 2.31658 0.902369 1.68342 1.29289 1.29289C1.68342 0.902368 2.31658 0.902368 2.70711 1.29289L18.7071 17.2929C19.0976 17.6834 19.0976 18.3166 18.7071 18.7071C18.3166 19.0976 17.6834 19.0976 17.2929 18.7071L1.29289 2.70711Z" fill="currentColor"/></svg>