<svg width="20" height="20" viewBox="0 0 26 26" fill="none" xmlns="http://www.w3.org/2000/svg"><g transform="translate(3, 3)"><path fill-rule="evenodd" clip-rule="evenodd" d="M3 5.75C3 5.19772 3.44772 4.75 4 4.75C7.33476 4.75 10.5 6.87603 10.5 10C10.5 13.124 7.33476 15.25 4 15.25C3.44772 15.25 3 14.8023 3 14.25C3 13.6977 3.44772 13.25 4 13.25C6.74037 13.25 8.5 11.5705 8.5 10C8.5 8.42955 6.74037 6.75 4 6.75C3.44772 6.75 3 6.30228 3 5.75Z" fill="currentColor"/><path fill-rule="evenodd" clip-rule="evenodd" d="M16 5.75C16 5.19772 15.5523 4.75 15 4.75C11.6652 4.75 8.5 6.87603 8.5 10C8.5 13.124 11.6652 15.25 15 15.25C15.5523 15.25 16 14.8023 16 14.25C16 13.6977 15.5523 13.25 15 13.25C12.2596 13.25 10.5 11.5705 10.5 10C10.5 8.42955 12.2596 6.75 15 6.75C15.5523 6.75 16 6.30228 16 5.75Z" fill="currentColor"/><path fill-rule="evenodd" clip-rule="evenodd" d="M16.4594 14.7783C16.132 15.0321 15.6609 14.9723 15.4071 14.6449L13.9071 12.7094C13.6534 12.382 13.7131 11.9109 14.0405 11.6571C14.3679 11.4034 14.8391 11.4631 15.0928 11.7905L16.5928 13.7261C16.8465 14.0535 16.7868 14.5246 16.4594 14.7783Z" fill="currentColor"/><path fill-rule="evenodd" clip-rule="evenodd" d="M14.05 16.7855C13.7186 16.537 13.6515 16.0669 13.9 15.7355L15.4 13.7355C15.6485 13.4041 16.1186 13.337 16.45 13.5855C16.7814 13.834 16.8485 14.3041 16.6 14.6355L15.1 16.6355C14.8515 16.9669 14.3814 17.034 14.05 16.7855Z" fill="currentColor"/><path fill-rule="evenodd" clip-rule="evenodd" d="M16.4594 5.22161C16.132 4.96788 15.6609 5.0276 15.4071 5.35501L13.9071 7.29056C13.6534 7.61796 13.7131 8.08906 14.0405 8.34279C14.3679 8.59652 14.8391 8.5368 15.0928 8.20939L16.5928 6.27385C16.8465 5.94644 16.7868 5.47534 16.4594 5.22161Z" fill="currentColor"/><path fill-rule="evenodd" clip-rule="evenodd" d="M14.05 3.14998C13.7186 3.39851 13.6515 3.86861 13.9 4.19998L15.4 6.19998C15.6485 6.53135 16.1186 6.59851 16.45 6.34998C16.7814 6.10145 16.8485 5.63135 16.6 5.29998L15.1 3.29998C14.8515 2.96861 14.3814 2.90145 14.05 3.14998Z" fill="currentColor"/></g><path fill-rule="evenodd" clip-rule="evenodd" d="M13 24C19.0751 24 24 19.0751 24 13C24 6.92487 19.0751 2 13 2C6.92487 2 2 6.92487 2 13C2 19.0751 6.92487 24 13 24ZM13 26C20.1797 26 26 20.1797 26 13C26 5.8203 20.1797 0 13 0C5.8203 0 0 5.8203 0 13C0 20.1797 5.8203 26 13 26Z" fill="currentColor"/></svg>