<svg width="20" height="20" viewBox="0 0 20 20" fill="none" xmlns="http://www.w3.org/2000/svg"><path fill-rule="evenodd" clip-rule="evenodd" d="M2.5 4.75C2.5 4.19772 2.94772 3.75 3.5 3.75H10C10.5523 3.75 11 4.19772 11 4.75C11 5.30228 10.5523 5.75 10 5.75H3.5C2.94772 5.75 2.5 5.30228 2.5 4.75ZM13.875 4.75C13.875 4.19772 14.3227 3.75 14.875 3.75H16.5C17.0523 3.75 17.5 4.19772 17.5 4.75C17.5 5.30228 17.0523 5.75 16.5 5.75H14.875C14.3227 5.75 13.875 5.30228 13.875 4.75Z" fill="currentColor"/><path fill-rule="evenodd" clip-rule="evenodd" d="M12.75 5.75C13.1642 5.75 13.5 5.41421 13.5 5C13.5 4.58579 13.1642 4.25 12.75 4.25C12.3358 4.25 12 4.58579 12 5C12 5.41421 12.3358 5.75 12.75 5.75ZM12.75 7.75C14.2688 7.75 15.5 6.51878 15.5 5C15.5 3.48122 14.2688 2.25 12.75 2.25C11.2312 2.25 10 3.48122 10 5C10 6.51878 11.2312 7.75 12.75 7.75Z" fill="currentColor"/><path fill-rule="evenodd" clip-rule="evenodd" d="M2.5 14.75C2.5 14.1977 2.94772 13.75 3.5 13.75H10C10.5523 13.75 11 14.1977 11 14.75C11 15.3023 10.5523 15.75 10 15.75H3.5C2.94772 15.75 2.5 15.3023 2.5 14.75ZM13.875 14.75C13.875 14.1977 14.3227 13.75 14.875 13.75H16.5C17.0523 13.75 17.5 14.1977 17.5 14.75C17.5 15.3023 17.0523 15.75 16.5 15.75H14.875C14.3227 15.75 13.875 15.3023 13.875 14.75Z" fill="currentColor"/><path fill-rule="evenodd" clip-rule="evenodd" d="M12.75 15.75C13.1642 15.75 13.5 15.4142 13.5 15C13.5 14.5858 13.1642 14.25 12.75 14.25C12.3358 14.25 12 14.5858 12 15C12 15.4142 12.3358 15.75 12.75 15.75ZM12.75 17.75C14.2688 17.75 15.5 16.5188 15.5 15C15.5 13.4812 14.2688 12.25 12.75 12.25C11.2312 12.25 10 13.4812 10 15C10 16.5188 11.2312 17.75 12.75 17.75Z" fill="currentColor"/><path fill-rule="evenodd" clip-rule="evenodd" d="M2.5 9.75C2.5 9.19772 2.94772 8.75 3.5 8.75H5.125C5.67728 8.75 6.125 9.19772 6.125 9.75C6.125 10.3023 5.67728 10.75 5.125 10.75H3.5C2.94772 10.75 2.5 10.3023 2.5 9.75ZM9 9.75C9 9.19772 9.44772 8.75 10 8.75H16.5C17.0523 8.75 17.5 9.19772 17.5 9.75C17.5 10.3023 17.0523 10.75 16.5 10.75H10C9.44772 10.75 9 10.3023 9 9.75Z" fill="currentColor"/><path fill-rule="evenodd" clip-rule="evenodd" d="M7.75 10.75C8.16421 10.75 8.5 10.4142 8.5 10C8.5 9.58579 8.16421 9.25 7.75 9.25C7.33579 9.25 7 9.58579 7 10C7 10.4142 7.33579 10.75 7.75 10.75ZM7.75 12.75C9.26878 12.75 10.5 11.5188 10.5 10C10.5 8.48122 9.26878 7.25 7.75 7.25C6.23122 7.25 5 8.48122 5 10C5 11.5188 6.23122 12.75 7.75 12.75Z" fill="currentColor"/></svg>