<svg width="20" height="20" viewBox="0 0 20 20" fill="none" xmlns="http://www.w3.org/2000/svg"><path fill-rule="evenodd" clip-rule="evenodd" d="M6.25 3C6.25 2.86193 6.36193 2.75 6.5 2.75H13.5C13.6381 2.75 13.75 2.86193 13.75 3V15C13.75 15.1381 13.6381 15.25 13.5 15.25H6.5C6.36193 15.25 6.25 15.1381 6.25 15V3Z" fill="currentColor"/><path fill-rule="evenodd" clip-rule="evenodd" d="M14.5 0H5.5C4.39543 0 3.5 0.942558 3.5 2.10526V17.8947C3.5 19.0574 4.39543 20 5.5 20H14.5C15.6046 20 16.5 19.0574 16.5 17.8947V2.10526C16.5 0.942558 15.6046 0 14.5 0ZM5.5 18V2H14.5V18H5.5Z" fill="currentColor"/><path d="M10.5 16.5C10.5 16.7761 10.2761 17 10 17C9.72386 17 9.5 16.7761 9.5 16.5C9.5 16.2239 9.72386 16 10 16C10.2761 16 10.5 16.2239 10.5 16.5Z" fill="currentColor"/><path fill-rule="evenodd" clip-rule="evenodd" d="M9 16.5C9 15.9477 9.44772 15.5 10 15.5C10.5523 15.5 11 15.9477 11 16.5C11 17.0523 10.5523 17.5 10 17.5C9.44772 17.5 9 17.0523 9 16.5Z" fill="currentColor"/><path d="M1.29289 2.70711C0.902369 2.31658 0.902369 1.68342 1.29289 1.29289C1.68342 0.902368 2.31658 0.902368 2.70711 1.29289L18.7071 17.2929C19.0976 17.6834 19.0976 18.3166 18.7071 18.7071C18.3166 19.0976 17.6834 19.0976 17.2929 18.7071L1.29289 2.70711Z" fill="currentColor"/></svg>