<svg width="20" height="20" viewBox="0 0 26 26" fill="none" xmlns="http://www.w3.org/2000/svg"><defs><mask id="mask-pop-smartphone-cutout-circle-filled"><rect width="26" height="26" fill="white"/><g transform="translate(3, 3)"><g><path fill-rule="evenodd" clip-rule="evenodd" d="M14.5 0H5.5C4.39543 0 3.5 0.89543 3.5 2V18C3.5 19.1046 4.39543 20 5.5 20H14.5C15.6046 20 16.5 19.1046 16.5 18V2C16.5 0.89543 15.6046 0 14.5 0ZM5.5 18V2H14.5V18H5.5Z" fill="black"/><path fill-rule="evenodd" clip-rule="evenodd" d="M7.5 3.5C7.5 2.94772 7.94772 2.5 8.5 2.5H11.5C12.0523 2.5 12.5 2.94772 12.5 3.5C12.5 4.05228 12.0523 4.5 11.5 4.5H8.5C7.94772 4.5 7.5 4.05228 7.5 3.5Z" fill="black"/></g></g></mask></defs><circle r="13" cx="13" cy="13" mask="url(#mask-pop-smartphone-cutout-circle-filled)" fill="currentColor"/></svg>