<svg width="20" height="20" viewBox="0 0 26 26" fill="none" xmlns="http://www.w3.org/2000/svg"><defs><mask id="mask-pop-smartphone-home-button-circle-filled"><rect width="26" height="26" fill="white"/><g transform="translate(3, 3)"><g><path fill-rule="evenodd" clip-rule="evenodd" d="M14.5 0H5.5C4.39543 0 3.5 0.89543 3.5 2V18C3.5 19.1046 4.39543 20 5.5 20H14.5C15.6046 20 16.5 19.1046 16.5 18V2C16.5 0.89543 15.6046 0 14.5 0ZM5.5 18V2H14.5V18H5.5Z" fill="black"/><path d="M10 17.25C9.30964 17.25 8.75 16.6904 8.75 16C8.75 15.3096 9.30964 14.75 10 14.75C10.6904 14.75 11.25 15.3096 11.25 16C11.25 16.6904 10.6904 17.25 10 17.25Z" fill="black"/></g></g></mask></defs><circle r="13" cx="13" cy="13" mask="url(#mask-pop-smartphone-home-button-circle-filled)" fill="currentColor"/></svg>