<svg width="20" height="20" viewBox="0 0 26 26" fill="none" xmlns="http://www.w3.org/2000/svg"><defs><mask id="mask-pop-smartphone-notch-circle-filled"><rect width="26" height="26" fill="white"/><g transform="translate(3, 3)"><path fill-rule="evenodd" clip-rule="evenodd" d="M6 0H15C16.1046 0 17 0.942558 17 2.10526V17.8947C17 19.0574 16.1046 20 15 20H6C4.89543 20 4 19.0574 4 17.8947V2.10526C4 0.942558 4.89543 0 6 0ZM7 2C6.44772 2 6 2.44772 6 3V17C6 17.5523 6.44772 18 7 18H14C14.5523 18 15 17.5523 15 17V3C15 2.44772 14.5523 2 14 2H13V3.5C13 3.77614 12.7761 4 12.5 4H8.5C8.22386 4 8 3.77614 8 3.5V2H7Z" fill="black"/></g></mask></defs><circle r="13" cx="13" cy="13" mask="url(#mask-pop-smartphone-notch-circle-filled)" fill="currentColor"/></svg>