<svg width="20" height="20" viewBox="0 0 20 20" fill="none" xmlns="http://www.w3.org/2000/svg"><path fill-rule="evenodd" clip-rule="evenodd" d="M13.411 4H6.58933C6.48813 4 6.38701 4.00615 6.28655 4.0184C4.916 4.18563 3.94052 5.43224 4.10774 6.80278L5.32785 16.8028C5.48089 18.0571 6.54584 19 7.80945 19H12.1937C13.4576 19 14.5227 18.0567 14.6754 16.8021L15.8927 6.80209C15.9049 6.70186 15.911 6.60097 15.911 6.5C15.911 5.11929 14.7917 4 13.411 4ZM6.52878 6.00368C6.54887 6.00123 6.56909 6 6.58933 6H13.411C13.6871 6 13.911 6.22386 13.911 6.5C13.911 6.52019 13.9097 6.54037 13.9073 6.56042L12.69 16.5604C12.6595 16.8113 12.4465 17 12.1937 17H7.80945C7.55673 17 7.34374 16.8114 7.31313 16.5606L6.09302 6.56056C6.05957 6.28645 6.25467 6.03713 6.52878 6.00368Z" fill="currentColor"/><path d="M9.21684 14.7206C9.09502 15.1165 8.67533 15.3386 8.27944 15.2168C7.88354 15.095 7.66135 14.6753 7.78317 14.2794L11.7832 1.27944C11.905 0.88354 12.3247 0.661352 12.7206 0.783167C13.1165 0.904981 13.3386 1.32467 13.2168 1.72057L9.21684 14.7206Z" fill="currentColor"/><path d="M5.5 10.25C5.08579 10.25 4.75 9.91421 4.75 9.5C4.75 9.08579 5.08579 8.75 5.5 8.75H14.5C14.9142 8.75 15.25 9.08579 15.25 9.5C15.25 9.91421 14.9142 10.25 14.5 10.25H5.5Z" fill="currentColor"/><path d="M12.3181 2.22761C11.9163 2.12715 11.6719 1.71995 11.7724 1.3181C11.8729 0.916254 12.2801 0.671934 12.6819 0.772395L16.6819 1.7724C17.0838 1.87286 17.3281 2.28006 17.2276 2.6819C17.1272 3.08375 16.72 3.32807 16.3181 3.22761L12.3181 2.22761Z" fill="currentColor"/></svg>