<svg width="20" height="20" viewBox="0 0 26 26" fill="none" xmlns="http://www.w3.org/2000/svg"><g transform="translate(3, 3)"><path fill-rule="evenodd" clip-rule="evenodd" d="M10.2929 7.70711C9.90237 7.31658 9.90237 6.68342 10.2929 6.29289L13.2929 3.29289C13.6834 2.90237 14.3166 2.90237 14.7071 3.29289C15.0976 3.68342 15.0976 4.31658 14.7071 4.70711L11.7071 7.70711C11.3166 8.09763 10.6834 8.09763 10.2929 7.70711Z" fill="currentColor"/><path fill-rule="evenodd" clip-rule="evenodd" d="M17.7071 7.70711C17.3166 8.09763 16.6834 8.09763 16.2929 7.70711L13.2929 4.70711C12.9024 4.31658 12.9024 3.68342 13.2929 3.29289C13.6834 2.90237 14.3166 2.90237 14.7071 3.29289L17.7071 6.29289C18.0976 6.68342 18.0976 7.31658 17.7071 7.70711Z" fill="currentColor"/><path fill-rule="evenodd" clip-rule="evenodd" d="M14 5C14.5523 5 15 5.44772 15 6V14C15 14.5523 14.5523 15 14 15C13.4477 15 13 14.5523 13 14V6C13 5.44772 13.4477 5 14 5Z" fill="currentColor"/><path fill-rule="evenodd" clip-rule="evenodd" d="M9.70711 12.2929C10.0976 12.6834 10.0976 13.3166 9.70711 13.7071L6.70711 16.7071C6.31658 17.0976 5.68342 17.0976 5.29289 16.7071C4.90237 16.3166 4.90237 15.6834 5.29289 15.2929L8.29289 12.2929C8.68342 11.9024 9.31658 11.9024 9.70711 12.2929Z" fill="currentColor"/><path fill-rule="evenodd" clip-rule="evenodd" d="M2.29289 12.2929C2.68342 11.9024 3.31658 11.9024 3.70711 12.2929L6.70711 15.2929C7.09763 15.6834 7.09763 16.3166 6.70711 16.7071C6.31658 17.0976 5.68342 17.0976 5.29289 16.7071L2.29289 13.7071C1.90237 13.3166 1.90237 12.6834 2.29289 12.2929Z" fill="currentColor"/><path fill-rule="evenodd" clip-rule="evenodd" d="M6 15C5.44772 15 5 14.5523 5 14L5 6C5 5.44771 5.44772 5 6 5C6.55228 5 7 5.44771 7 6V14C7 14.5523 6.55228 15 6 15Z" fill="currentColor"/></g><path fill-rule="evenodd" clip-rule="evenodd" d="M13 24C19.0751 24 24 19.0751 24 13C24 6.92487 19.0751 2 13 2C6.92487 2 2 6.92487 2 13C2 19.0751 6.92487 24 13 24ZM13 26C20.1797 26 26 20.1797 26 13C26 5.8203 20.1797 0 13 0C5.8203 0 0 5.8203 0 13C0 20.1797 5.8203 26 13 26Z" fill="currentColor"/></svg>