<svg xmlns="http://www.w3.org/2000/svg" width="20" height="20" viewBox="0 0 20 20"><g fill="none" fill-rule="evenodd" stroke-linecap="round"><path stroke="currentColor" stroke-linejoin="round" stroke-width="2" d="M6 6.963L11 2.5v15l-5-4.495v-.073H2v-6h4v.03z"/><path stroke="currentColor" stroke-linejoin="round" stroke-width="1.5" d="M15 12.5a2.738 2.738 0 0 0 .65-.877c.221-.465.35-1.023.35-1.623 0-.966-.334-1.823-.85-2.357A2.245 2.245 0 0 0 15 7.5"/><path stroke="currentColor" stroke-width="1.5" d="M16 15.5a6.768 6.768 0 0 0 1.863-1.825 6.586 6.586 0 0 0 .848-1.755A6.458 6.458 0 0 0 19 10a6.56 6.56 0 0 0-.289-1.92 6.477 6.477 0 0 0-.848-1.755 6.649 6.649 0 0 0-1.331-1.438A6.768 6.768 0 0 0 16 4.5"/><path stroke="currentColor" stroke-width="2" d="M2 3l17 14"/></g></svg>