<svg width="20" height="20" viewBox="0 0 20 20" fill="none" xmlns="http://www.w3.org/2000/svg"><path fill-rule="evenodd" clip-rule="evenodd" d="M10.3341 1.75396L5.6534 5.93183H2C1.44772 5.93183 1 6.37954 1 6.93183V12.9318C1 13.4841 1.44772 13.9318 2 13.9318H5.53532L10.3314 18.2437C10.9751 18.8223 12 18.3655 12 17.5V2.5C12 1.63618 10.9785 1.17875 10.3341 1.75396ZM6.6659 7.70891L10 4.73298V15.2563L6.87443 12.4463C6.70368 12.1394 6.37609 11.9318 6 11.9318H3V7.93183H5.75114C6.05292 8.01082 6.39317 7.95234 6.6659 7.70891Z" fill="currentColor"/><path d="M15.4888 13.0688C15.1747 13.3388 14.7012 13.303 14.4312 12.9889C14.1612 12.6747 14.197 12.2012 14.5112 11.9312C14.545 11.9021 14.5784 11.8705 14.6111 11.8366C14.7486 11.6941 14.872 11.5127 14.9728 11.3008C15.1512 10.9258 15.25 10.4758 15.25 10C15.25 9.24552 15.0002 8.56671 14.6111 8.16341C14.5784 8.12949 14.545 8.09794 14.5112 8.06882C14.197 7.79884 14.1612 7.32532 14.4312 7.01118C14.7012 6.69703 15.1747 6.66123 15.4888 6.93121C15.5585 6.99105 15.6258 7.05473 15.6907 7.12202C16.3619 7.8178 16.75 8.87235 16.75 10C16.75 10.6958 16.6028 11.3662 16.3272 11.9454C16.1586 12.2997 15.9438 12.6156 15.6907 12.878C15.6258 12.9453 15.5585 13.009 15.4888 13.0688Z" fill="currentColor"/><path d="M1.29289 2.70711C0.902369 2.31658 0.902369 1.68342 1.29289 1.29289C1.68342 0.902368 2.31658 0.902368 2.70711 1.29289L18.7071 17.2929C19.0976 17.6834 19.0976 18.3166 18.7071 18.7071C18.3166 19.0976 17.6834 19.0976 17.2929 18.7071L1.29289 2.70711Z" fill="currentColor"/></svg>