<svg width="20" height="20" viewBox="0 0 26 26" fill="none" xmlns="http://www.w3.org/2000/svg"><defs><mask id="mask-pop-stars-circle-filled"><rect width="26" height="26" fill="white"/><g transform="translate(3, 3)"><g><path d="M6.99858 7.57089L9.0003 1L11.0016 7.57116L17 9.76359L11.0478 12.1277L9.0003 19L6.95229 12.128L1 9.76359L6.99858 7.57089Z" stroke="black" stroke-width="2" stroke-linejoin="round"/><path d="M17.0846 13.5744C17.0805 13.5322 17.0437 13.5 17 13.5C16.9563 13.5 16.9195 13.5322 16.9154 13.5744C16.7161 15.5682 16.5699 16.1515 14.5766 16.339C14.5332 16.343 14.5 16.3787 14.5 16.4211C14.5 16.4636 14.5332 16.4989 14.5766 16.5033C16.5424 16.6883 16.7126 17.3987 16.9154 19.4256C16.9195 19.4678 16.9563 19.5 17 19.5C17.0437 19.5 17.0805 19.4678 17.0846 19.4256C17.2871 17.3987 17.4573 16.6883 19.4234 16.5033C19.4668 16.4992 19.5 16.4636 19.5 16.4211C19.5 16.3787 19.4668 16.343 19.4234 16.339C17.4301 16.1512 17.2839 15.5682 17.0846 13.5744Z" fill="black" stroke="black"/><path d="M9 20C8.56 20 8.17 19.71 8.04 19.29L6.13 12.88L0.63 10.69C0.25 10.54 0 10.17 0 9.75C0 9.33 0.27 8.97 0.66 8.82L6.19 6.8L8.04 0.71C8.17 0.29 8.56 0 9 0C9.44 0 9.83 0.29 9.96 0.71L11.82 6.8L17.35 8.82C17.74 8.96 18 9.33 18.01 9.75C18.02 10.17 17.76 10.54 17.38 10.69L11.88 12.87L9.97 19.28C9.84 19.7 9.45 19.99 9.01 19.99L9 20ZM3.81 9.8L7.32 11.2C7.6 11.31 7.82 11.55 7.91 11.84L9 15.5L10.09 11.84C10.18 11.55 10.39 11.31 10.68 11.2L14.19 9.8L10.65 8.51C10.36 8.4 10.13 8.16 10.04 7.86L9 4.43L7.96 7.86C7.87 8.16 7.64 8.4 7.35 8.51L3.81 9.8Z" fill="black"/><path d="M17 20C16.7 20 16.45 19.77 16.42 19.47C16.22 17.52 16.14 17.15 14.53 17C14.22 16.96 14 16.72 14 16.42C14 16.12 14.23 15.87 14.53 15.84C16.14 15.69 16.23 15.44 16.42 13.52C16.45 13.22 16.7 13 17 13C17.3 13 17.55 13.23 17.58 13.52C17.77 15.44 17.86 15.69 19.47 15.84C19.77 15.87 20 16.12 20 16.42C20 16.72 19.78 16.97 19.48 17C17.87 17.15 17.78 17.52 17.58 19.47C17.55 19.77 17.3 19.99 17 19.99V20Z" fill="black"/></g></g></mask></defs><circle r="13" cx="13" cy="13" mask="url(#mask-pop-stars-circle-filled)" fill="currentColor"/></svg>