<svg width="20" height="20" viewBox="0 0 20 20" fill="none" xmlns="http://www.w3.org/2000/svg"><path d="M10 15.9706L5.70492 17.8855C5.00142 18.1991 4.22234 17.6331 4.30325 16.8671L4.79719 12.1905L1.64874 8.69737C1.13305 8.12523 1.43063 7.20937 2.18413 7.04961L6.78449 6.07423L9.13372 2.00044C9.5185 1.33319 10.4815 1.33319 10.8663 2.00044L13.2155 6.07423L17.8159 7.04961C18.5694 7.20937 18.8669 8.12523 18.3513 8.69737L15.2028 12.1905L15.6967 16.8671C15.7777 17.6331 14.9986 18.1991 14.2951 17.8855L10 15.9706Z" fill="currentColor"/><path d="M1.29289 2.70711C0.902369 2.31658 0.902369 1.68342 1.29289 1.29289C1.68342 0.902368 2.31658 0.902368 2.70711 1.29289L18.7071 17.2929C19.0976 17.6834 19.0976 18.3166 18.7071 18.7071C18.3166 19.0976 17.6834 19.0976 17.2929 18.7071L1.29289 2.70711Z" fill="currentColor"/></svg>