<svg width="20" height="20" viewBox="0 0 26 26" fill="none" xmlns="http://www.w3.org/2000/svg"><g transform="translate(3, 3)"><path d="M10 15.9706L5.70492 17.8855C5.00142 18.1991 4.22234 17.6331 4.30325 16.8671L4.79719 12.1905L1.64874 8.69737C1.13305 8.12523 1.43063 7.20937 2.18413 7.04961L6.78449 6.07423L9.13372 2.00044C9.5185 1.33319 10.4815 1.33319 10.8663 2.00044L13.2155 6.07423L17.8159 7.04961C18.5694 7.20937 18.8669 8.12523 18.3513 8.69737L15.2028 12.1905L15.6967 16.8671C15.7777 17.6331 14.9986 18.1991 14.2951 17.8855L10 15.9706Z" fill="currentColor"/><path d="M1.29289 2.70711C0.902369 2.31658 0.902369 1.68342 1.29289 1.29289C1.68342 0.902368 2.31658 0.902368 2.70711 1.29289L18.7071 17.2929C19.0976 17.6834 19.0976 18.3166 18.7071 18.7071C18.3166 19.0976 17.6834 19.0976 17.2929 18.7071L1.29289 2.70711Z" fill="currentColor"/></g><path fill-rule="evenodd" clip-rule="evenodd" d="M13 24C19.0751 24 24 19.0751 24 13C24 6.92487 19.0751 2 13 2C6.92487 2 2 6.92487 2 13C2 19.0751 6.92487 24 13 24ZM13 26C20.1797 26 26 20.1797 26 13C26 5.8203 20.1797 0 13 0C5.8203 0 0 5.8203 0 13C0 20.1797 5.8203 26 13 26Z" fill="currentColor"/></svg>