<svg width="20" height="20" viewBox="0 0 26 26" fill="none" xmlns="http://www.w3.org/2000/svg"><g transform="translate(3, 3)"><path fill-rule="evenodd" clip-rule="evenodd" d="M10 5.5C6.96243 5.5 4.5 7.96243 4.5 11C4.5 14.0376 6.96243 16.5 10 16.5C13.0376 16.5 15.5 14.0376 15.5 11C15.5 7.96243 13.0376 5.5 10 5.5ZM2.5 11C2.5 6.85786 5.85786 3.5 10 3.5C14.1421 3.5 17.5 6.85786 17.5 11C17.5 15.1421 14.1421 18.5 10 18.5C5.85786 18.5 2.5 15.1421 2.5 11Z" fill="currentColor"/><path fill-rule="evenodd" clip-rule="evenodd" d="M2.79289 3.79292C3.18342 3.4024 3.81658 3.4024 4.20711 3.79292L5.70711 5.29292C6.09763 5.68345 6.09763 6.31661 5.70711 6.70714C5.31658 7.09766 4.68342 7.09766 4.29289 6.70714L2.79289 5.20714C2.40237 4.81661 2.40237 4.18345 2.79289 3.79292Z" fill="currentColor"/><path fill-rule="evenodd" clip-rule="evenodd" d="M14.2929 6.70708C14.6834 7.0976 15.3166 7.0976 15.7071 6.70708L17.2071 5.20708C17.5976 4.81655 17.5976 4.18339 17.2071 3.79286C16.8166 3.40234 16.1834 3.40234 15.7929 3.79286L14.2929 5.29286C13.9024 5.68339 13.9024 6.31655 14.2929 6.70708Z" fill="currentColor"/><path fill-rule="evenodd" clip-rule="evenodd" d="M13.2809 8.37534C13.6259 8.8066 13.556 9.4359 13.1247 9.78091L10.6247 11.7809C10.1934 12.1259 9.56413 12.056 9.21912 11.6247C8.87411 11.1935 8.94404 10.5642 9.3753 10.2192L11.8753 8.21917C12.3066 7.87416 12.9359 7.94408 13.2809 8.37534Z" fill="currentColor"/><path fill-rule="evenodd" clip-rule="evenodd" d="M9 4V2H11V4H9Z" fill="currentColor"/><path fill-rule="evenodd" clip-rule="evenodd" d="M7.5 2C7.5 1.44772 7.94772 1 8.5 1H11.5C12.0523 1 12.5 1.44772 12.5 2C12.5 2.55228 12.0523 3 11.5 3H8.5C7.94772 3 7.5 2.55228 7.5 2Z" fill="currentColor"/></g><path fill-rule="evenodd" clip-rule="evenodd" d="M13 24C19.0751 24 24 19.0751 24 13C24 6.92487 19.0751 2 13 2C6.92487 2 2 6.92487 2 13C2 19.0751 6.92487 24 13 24ZM13 26C20.1797 26 26 20.1797 26 13C26 5.8203 20.1797 0 13 0C5.8203 0 0 5.8203 0 13C0 20.1797 5.8203 26 13 26Z" fill="currentColor"/></svg>