<svg width="20" height="20" viewBox="0 0 20 20" fill="none" xmlns="http://www.w3.org/2000/svg"><path fill-rule="evenodd" clip-rule="evenodd" d="M13.8906 4.45596C15.2197 3.56989 17 4.52267 17 6.12006V9.38303C17 10.9804 15.2197 11.9332 13.8906 11.0471L10.9453 9.0836L11.8333 7.75154L10.9453 6.41949L13.8906 4.45596ZM12.5528 7.75154L15 9.38303L15 6.12006L12.5528 7.75154Z" fill="currentColor"/><path fill-rule="evenodd" clip-rule="evenodd" d="M13.9138 18.1577C13.6895 18.6624 13.0986 18.8897 12.5939 18.6654L9.50001 17.2903V18.2515C9.50001 18.8038 9.05229 19.2515 8.50001 19.2515C7.94773 19.2515 7.50001 18.8038 7.50001 18.2515L7.50001 17.2903L4.40615 18.6654C3.90146 18.8897 3.3105 18.6624 3.0862 18.1577C2.86189 17.653 3.08919 17.062 3.59387 16.8377L7.50001 15.1017V11.2515C7.50001 10.6993 7.94773 10.2515 8.50001 10.2515C9.05229 10.2515 9.50001 10.6993 9.50001 11.2515V15.1017L13.4061 16.8377C13.9108 17.062 14.1381 17.653 13.9138 18.1577Z" fill="currentColor"/><path fill-rule="evenodd" clip-rule="evenodd" d="M4.5 5.75154C4.5 4.64697 5.39543 3.75154 6.5 3.75154H10.5C11.6046 3.75154 12.5 4.64697 12.5 5.75154V9.75154C12.5 10.8561 11.6046 11.7515 10.5 11.7515H6.5C5.39543 11.7515 4.5 10.8561 4.5 9.75154V5.75154ZM10.5 5.75154H6.5V9.75154H10.5V5.75154Z" fill="currentColor"/><path fill-rule="evenodd" clip-rule="evenodd" d="M10.7929 5.95865C10.4024 5.56812 10.4024 4.93496 10.7929 4.54444L13.7929 1.54444C14.1834 1.15391 14.8166 1.15391 15.2071 1.54444C15.5976 1.93496 15.5976 2.56812 15.2071 2.95865L12.2071 5.95865C11.8166 6.34917 11.1834 6.34917 10.7929 5.95865Z" fill="currentColor"/><path fill-rule="evenodd" clip-rule="evenodd" d="M15.2071 13.9586C14.8166 14.3492 14.1834 14.3492 13.7929 13.9586L10.7929 10.9586C10.4024 10.5681 10.4024 9.93495 10.7929 9.54443C11.1834 9.15391 11.8166 9.1539 12.2071 9.54443L15.2071 12.5444C15.5976 12.9349 15.5976 13.5681 15.2071 13.9586Z" fill="currentColor"/></svg>