<svg width="20" height="20" viewBox="0 0 26 26" fill="none" xmlns="http://www.w3.org/2000/svg"><g transform="translate(3, 3)"><path fill-rule="evenodd" clip-rule="evenodd" d="M10 8C10.5523 8 11 7.55228 11 7C11 6.44772 10.5523 6 10 6C9.44772 6 9 6.44772 9 7C9 7.55228 9.44772 8 10 8ZM10 10C11.6569 10 13 8.65685 13 7C13 5.34315 11.6569 4 10 4C8.34315 4 7 5.34315 7 7C7 8.65685 8.34315 10 10 10Z" fill="currentColor"/><path fill-rule="evenodd" clip-rule="evenodd" d="M6.01348 3.50774C5.23571 2.17443 6.19745 0.5 7.74103 0.5H12.259C13.8025 0.5 14.7643 2.17443 13.9865 3.50774L12.2388 6.50387L10.5112 5.49613L12.259 2.5H7.74103L9.48878 5.49613L7.76122 6.50387L6.01348 3.50774Z" fill="currentColor"/><path fill-rule="evenodd" clip-rule="evenodd" d="M13.9865 10.4923C14.7643 11.8256 13.8025 13.5 12.259 13.5H7.74104C6.19746 13.5 5.23571 11.8256 6.01348 10.4923L7.76122 7.49613L9.48878 8.50387L7.74104 11.5H12.259L10.5112 8.50387L12.2388 7.49613L13.9865 10.4923Z" fill="currentColor"/><path fill-rule="evenodd" clip-rule="evenodd" d="M6.6094 10.2956C5.28029 11.1817 3.5 10.2289 3.5 8.63148L3.5 5.36851C3.5 3.77112 5.28029 2.81834 6.6094 3.70441L9.5547 5.66795L8.66667 7L9.5547 8.33205L6.6094 10.2956ZM7.94722 7L5.5 5.36851L5.5 8.63148L7.94722 7Z" fill="currentColor"/><path fill-rule="evenodd" clip-rule="evenodd" d="M13.3906 3.70442C14.7197 2.81835 16.5 3.77113 16.5 5.36852V8.63149C16.5 10.2289 14.7197 11.1817 13.3906 10.2956L10.4453 8.33205L11.3333 7L10.4453 5.66795L13.3906 3.70442ZM12.0528 7L14.5 8.63149L14.5 5.36852L12.0528 7Z" fill="currentColor"/><path fill-rule="evenodd" clip-rule="evenodd" d="M15.4138 18.4061C15.1895 18.9108 14.5985 19.1381 14.0939 18.9138L11 17.5388V18.5C11 19.0523 10.5523 19.5 9.99999 19.5C9.44771 19.5 8.99999 19.0523 8.99999 18.5V17.5388L5.90613 18.9138C5.40145 19.1381 4.81049 18.9108 4.58618 18.4061C4.36188 17.9015 4.58917 17.3105 5.09386 17.0862L8.99999 15.3501V13C8.99999 12.4477 9.44771 12 9.99999 12C10.5523 12 11 12.4477 11 13V15.3501L14.9061 17.0862C15.4108 17.3105 15.6381 17.9015 15.4138 18.4061Z" fill="currentColor"/><path d="M1.29289 2.70711C0.902369 2.31658 0.902369 1.68342 1.29289 1.29289C1.68342 0.902368 2.31658 0.902368 2.70711 1.29289L18.7071 17.2929C19.0976 17.6834 19.0976 18.3166 18.7071 18.7071C18.3166 19.0976 17.6834 19.0976 17.2929 18.7071L1.29289 2.70711Z" fill="currentColor"/></g><path fill-rule="evenodd" clip-rule="evenodd" d="M13 24C19.0751 24 24 19.0751 24 13C24 6.92487 19.0751 2 13 2C6.92487 2 2 6.92487 2 13C2 19.0751 6.92487 24 13 24ZM13 26C20.1797 26 26 20.1797 26 13C26 5.8203 20.1797 0 13 0C5.8203 0 0 5.8203 0 13C0 20.1797 5.8203 26 13 26Z" fill="currentColor"/></svg>