<svg width="20" height="20" viewBox="0 0 20 20" fill="none" xmlns="http://www.w3.org/2000/svg"><g><path fill-rule="evenodd" clip-rule="evenodd" d="M10 14C12.2091 14 14 12.2091 14 10C14 7.79086 12.2091 6 10 6C7.79086 6 6 7.79086 6 10C6 12.2091 7.79086 14 10 14ZM10 8C11.1046 8 12 8.89543 12 10C12 11.1046 11.1046 12 10 12C8.89543 12 8 11.1046 8 10C8 8.89543 8.89543 8 10 8Z" fill="currentColor"/><path d="M0.5 10C0.5 9.44772 0.947715 9 1.5 9H3.5C4.05228 9 4.5 9.44772 4.5 10C4.5 10.5523 4.05228 11 3.5 11H1.5C0.947715 11 0.5 10.5523 0.5 10Z" fill="currentColor"/><path d="M15.5 10C15.5 9.44772 15.9477 9 16.5 9H18.5C19.0523 9 19.5 9.44772 19.5 10C19.5 10.5523 19.0523 11 18.5 11H16.5C15.9477 11 15.5 10.5523 15.5 10Z" fill="currentColor"/><path d="M14 14C14.3905 13.6095 15.0237 13.6095 15.4142 14L16.8284 15.4142C17.219 15.8047 17.219 16.4379 16.8284 16.8284C16.4379 17.2189 15.8048 17.2189 15.4142 16.8284L14 15.4142C13.6095 15.0237 13.6095 14.3905 14 14Z" fill="currentColor"/><path d="M2.99999 2.99999C3.39051 2.60946 4.02367 2.60946 4.4142 2.99999L5.82841 4.4142C6.21894 4.80472 6.21894 5.43789 5.82841 5.82841C5.43789 6.21894 4.80472 6.21894 4.4142 5.82841L2.99999 4.4142C2.60946 4.02367 2.60946 3.39051 2.99999 2.99999Z" fill="currentColor"/><path d="M10 15.5C10.5523 15.5 11 15.9477 11 16.5V18.5C11 19.0523 10.5523 19.5 10 19.5C9.44772 19.5 9 19.0523 9 18.5V16.5C9 15.9477 9.44772 15.5 10 15.5Z" fill="currentColor"/><path d="M10 0.5C10.5523 0.5 11 0.947715 11 1.5V3.5C11 4.05228 10.5523 4.5 10 4.5C9.44772 4.5 9 4.05228 9 3.5V1.5C9 0.947715 9.44772 0.5 10 0.5Z" fill="currentColor"/><path d="M16.8284 2.99999C17.2189 3.39051 17.2189 4.02367 16.8284 4.4142L15.4142 5.82841C15.0237 6.21894 14.3905 6.21894 14 5.82841C13.6095 5.43789 13.6095 4.80472 14 4.4142L15.4142 2.99999C15.8047 2.60946 16.4379 2.60946 16.8284 2.99999Z" fill="currentColor"/><path d="M5.82841 15.4142L4.4142 16.8284C4.02368 17.219 3.39051 17.219 2.99999 16.8284C2.60946 16.4379 2.60946 15.8048 2.99999 15.4142L4.4142 14C4.80472 13.6095 5.43789 13.6095 5.82841 14C6.21894 14.3905 6.21894 15.0237 5.82841 15.4142Z" fill="currentColor"/></g><path d="M1.29289 2.70711C0.902369 2.31658 0.902369 1.68342 1.29289 1.29289C1.68342 0.902368 2.31658 0.902368 2.70711 1.29289L18.7071 17.2929C19.0976 17.6834 19.0976 18.3166 18.7071 18.7071C18.3166 19.0976 17.6834 19.0976 17.2929 18.7071L1.29289 2.70711Z" fill="currentColor"/></svg>