<svg width="20" height="20" viewBox="0 0 26 26" fill="none" xmlns="http://www.w3.org/2000/svg"><defs><mask id="mask-pop-sword-shield-circle-filled"><rect width="26" height="26" fill="white"/><g transform="translate(3, 3)"><g><path fill-rule="evenodd" clip-rule="evenodd" d="M11.2686 4.45534C12.6266 4.11001 13.9096 5.23218 13.7481 6.62412L13.5653 8.19984C13.5186 8.60232 13.3508 8.98113 13.084 9.2861L8.75884 14.2311C8.03164 15.0625 6.76813 15.1469 5.93672 14.4197L4.58214 13.2349C3.75073 12.5077 3.66626 11.2442 4.39347 10.4128L8.71867 5.46785C8.98543 5.16287 9.33852 4.94611 9.7312 4.84626L11.2686 4.45534ZM11.5786 7.96938L11.7614 6.39366L10.2241 6.78457L5.89887 11.7295L7.25344 12.9143L11.5786 7.96938Z" fill="black"/><path fill-rule="evenodd" clip-rule="evenodd" d="M1.70556 11.1774C2.55824 10.2025 4.03977 10.1035 5.01463 10.9562L8.13769 13.6878C9.11255 14.5405 9.2116 16.022 8.35892 16.9969C7.50624 17.9717 6.02471 18.0708 5.04985 17.2181L1.92679 14.4864C0.951928 13.6338 0.852878 12.1522 1.70556 11.1774ZM3.6979 12.4616C3.55445 12.3361 3.33644 12.3507 3.21096 12.4941C3.08549 12.6376 3.10006 12.8556 3.24352 12.981L6.36658 15.7127C6.51003 15.8382 6.72804 15.8236 6.85352 15.6801C6.97899 15.5367 6.96442 15.3187 6.82096 15.1932L3.6979 12.4616Z" fill="black"/><path fill-rule="evenodd" clip-rule="evenodd" d="M4.34006 14.7197L2.49689 16.827L2.70747 17.0111L4.55064 14.9039L6.05604 16.2206L4.21287 18.3279C3.48567 19.1593 2.22216 19.2438 1.39075 18.5165L1.18016 18.3324C0.348752 17.6051 0.264281 16.3416 0.991488 15.5102L2.83466 13.403L4.34006 14.7197Z" fill="black"/><path fill-rule="evenodd" clip-rule="evenodd" d="M12.3477 3.29692C11.4998 2.87059 10.5002 2.87059 9.65232 3.29692L6.51552 4.87417C5.57109 5.34905 4.98959 6.24915 5.00234 7.21238C5.01684 8.30828 5.10308 9.62196 5.36028 10.7838L3.40755 11.2161C3.10819 9.86379 3.01784 8.39666 3.00251 7.23885C2.97842 5.41868 4.07453 3.86295 5.61706 3.08734L8.75387 1.51009C10.167 0.799535 11.833 0.799535 13.2461 1.51009L16.383 3.08734C17.9255 3.86296 19.0216 5.41882 18.9975 7.23896C18.9753 8.91628 18.7969 11.3582 17.9729 13.1065C17.0641 15.0347 15.0518 16.7982 13.6004 17.9087C12.0567 19.0898 9.94343 19.0899 8.39966 17.9088C7.90536 17.5306 7.36332 17.0893 6.82754 16.6025L8.17248 15.1223C8.65801 15.5634 9.1551 15.9685 9.61496 16.3203C10.4414 16.9527 11.5586 16.9527 12.3851 16.3203C13.823 15.2202 15.479 13.7069 16.1638 12.2538C16.7876 10.9303 16.9757 8.87495 16.9977 7.21248C17.0104 6.24922 16.4289 5.34903 15.4845 4.87417L12.3477 3.29692Z" fill="black"/></g></g></mask></defs><circle r="13" cx="13" cy="13" mask="url(#mask-pop-sword-shield-circle-filled)" fill="currentColor"/></svg>