<svg width="20" height="20" viewBox="0 0 26 26" fill="none" xmlns="http://www.w3.org/2000/svg"><g transform="translate(3, 3)"><g><path fill-rule="evenodd" clip-rule="evenodd" d="M16.4175 1.20875C17.7951 0.95223 19.0026 2.15524 18.7512 3.53378L18.2767 6.13524C18.204 6.53385 18.012 6.90097 17.726 7.18801L11.332 13.6058C10.5524 14.3883 9.28611 14.3906 8.50361 13.611L6.37835 11.4937C5.59586 10.7141 5.59351 9.44773 6.37311 8.66523L12.7671 2.24746C13.0531 1.96042 13.4195 1.76701 13.8178 1.69284L16.4175 1.20875ZM16.3092 5.77642L16.7836 3.17495L14.1839 3.65904L7.78994 10.0768L9.9152 12.1942L16.3092 5.77642Z" fill="currentColor"/><path fill-rule="evenodd" clip-rule="evenodd" d="M7.97033 12.0211C7.67689 11.7287 7.67601 11.2538 7.96836 10.9604L11.4974 7.41827C11.7897 7.12484 12.2646 7.12396 12.558 7.41631C12.8515 7.70865 12.8523 8.18353 12.56 8.47696L9.03098 12.0191C8.73864 12.3125 8.26376 12.3134 7.97033 12.0211Z" fill="currentColor"/><path fill-rule="evenodd" clip-rule="evenodd" d="M3.19179 9.02471C4.16628 8.04659 5.74919 8.04365 6.72731 9.01814L10.9778 13.2529C11.9559 14.2274 11.9589 15.8103 10.9844 16.7884C10.0099 17.7666 8.42698 17.7695 7.44886 16.795L3.19835 12.5602C2.22023 11.5857 2.21729 10.0028 3.19179 9.02471ZM5.31573 10.435C5.1201 10.2401 4.80352 10.2407 4.60862 10.4363C4.41372 10.6319 4.41431 10.9485 4.60993 11.1434L8.86044 15.3782C9.05607 15.5731 9.37265 15.5725 9.56755 15.3768C9.76245 15.1812 9.76186 14.8646 9.56624 14.6697L5.31573 10.435Z" fill="currentColor"/><path fill-rule="evenodd" clip-rule="evenodd" d="M5.71077 13.6463L2.8876 16.48L3.59602 17.1858L6.41919 14.3521L7.83603 15.7637L5.01286 18.5974C4.23326 19.3799 2.96693 19.3822 2.18443 18.6026L1.47601 17.8968C0.693518 17.1172 0.691168 15.8509 1.47077 15.0684L4.29394 12.2347L5.71077 13.6463Z" fill="currentColor"/></g><path d="M1.29289 2.70711C0.902369 2.31658 0.902369 1.68342 1.29289 1.29289C1.68342 0.902368 2.31658 0.902368 2.70711 1.29289L18.7071 17.2929C19.0976 17.6834 19.0976 18.3166 18.7071 18.7071C18.3166 19.0976 17.6834 19.0976 17.2929 18.7071L1.29289 2.70711Z" fill="currentColor"/></g><path fill-rule="evenodd" clip-rule="evenodd" d="M13 24C19.0751 24 24 19.0751 24 13C24 6.92487 19.0751 2 13 2C6.92487 2 2 6.92487 2 13C2 19.0751 6.92487 24 13 24ZM13 26C20.1797 26 26 20.1797 26 13C26 5.8203 20.1797 0 13 0C5.8203 0 0 5.8203 0 13C0 20.1797 5.8203 26 13 26Z" fill="currentColor"/></svg>