<svg width="20" height="20" viewBox="0 0 20 20" fill="none" xmlns="http://www.w3.org/2000/svg"><g><path fill-rule="evenodd" clip-rule="evenodd" d="M15.8328 1.32809C17.2104 1.07157 18.4179 2.27458 18.1665 3.65312L17.7246 6.0763C17.6519 6.4749 17.4598 6.84203 17.1739 7.12906L11.0808 13.2447C10.3012 14.0272 9.03491 14.0296 8.25241 13.25L6.27281 11.2777C5.49031 10.4981 5.48796 9.2318 6.26756 8.44931L12.3606 2.33362C12.6466 2.04658 13.013 1.85318 13.4113 1.779L15.8328 1.32809ZM15.757 5.71747L16.1989 3.29429L13.7774 3.74521L7.6844 9.86089L9.664 11.8332L15.757 5.71747Z" fill="currentColor"/><path fill-rule="evenodd" clip-rule="evenodd" d="M7.77744 11.747C7.48401 11.4547 7.48312 10.9798 7.77547 10.6864L11.1594 7.28992C11.4517 6.99648 11.9266 6.9956 12.22 7.28795C12.5135 7.5803 12.5143 8.05517 12.222 8.34861L8.8381 11.7451C8.54575 12.0385 8.07088 12.0394 7.77744 11.747Z" fill="currentColor"/><path fill-rule="evenodd" clip-rule="evenodd" d="M3.18802 8.82318C4.13848 7.86919 5.68233 7.86632 6.63632 8.81677L10.7121 12.8774C11.666 13.8279 11.6689 15.3717 10.7185 16.3257C9.768 17.2797 8.22414 17.2826 7.27015 16.3321L3.19442 12.2715C2.24043 11.321 2.23757 9.77716 3.18802 8.82318ZM5.22474 10.2336C5.05325 10.0628 4.77572 10.0633 4.60486 10.2348C4.434 10.4063 4.43452 10.6838 4.60601 10.8546L8.68174 14.9153C8.85323 15.0861 9.13076 15.0856 9.30162 14.9141C9.47247 14.7426 9.47196 14.4651 9.30047 14.2942L5.22474 10.2336Z" fill="currentColor"/><path fill-rule="evenodd" clip-rule="evenodd" d="M5.66169 13.3127L2.98362 16.0007L3.60465 16.6195L6.28271 13.9314L7.69955 15.343L5.02149 18.031C4.24189 18.8135 2.97556 18.8159 2.19307 18.0363L1.57204 17.4176C0.78954 16.638 0.787189 15.3716 1.56679 14.5891L4.24485 11.9011L5.66169 13.3127Z" fill="currentColor"/><path fill-rule="evenodd" clip-rule="evenodd" d="M4.16718 1.32809C2.78958 1.07157 1.5821 2.27458 1.8335 3.65312L2.27542 6.0763C2.34812 6.4749 2.54016 6.84203 2.82614 7.12906L6.11577 10.4309L7.53261 9.01935L4.24297 5.71747L3.80105 3.29429L6.22258 3.7452L9.51221 7.04708L10.929 5.63549L7.63941 2.33362C7.35344 2.04658 6.98703 1.85318 6.5887 1.779L4.16718 1.32809Z" fill="currentColor"/><path fill-rule="evenodd" clip-rule="evenodd" d="M14.7752 10.2336C14.9467 10.0628 15.2243 10.0633 15.3951 10.2348C15.566 10.4063 15.5655 10.6838 15.394 10.8546L11.3182 14.9153C11.1468 15.0861 10.8692 15.0856 10.6984 14.9141L9.28153 16.3257C10.232 17.2797 11.7758 17.2826 12.7298 16.3321L16.8056 12.2715C17.7596 11.321 17.7624 9.77716 16.812 8.82318C15.8615 7.86919 14.3177 7.86632 13.3637 8.81677L9.88536 12.2822L11.2969 13.699L14.7752 10.2336Z" fill="currentColor"/><path fill-rule="evenodd" clip-rule="evenodd" d="M14.3383 13.3127L17.0164 16.0007L16.3953 16.6195L13.7173 13.9314L12.3004 15.343L14.9785 18.031C15.7581 18.8135 17.0244 18.8159 17.8069 18.0363L18.428 17.4176C19.2105 16.638 19.2128 15.3716 18.4332 14.5891L15.7551 11.9011L14.3383 13.3127Z" fill="currentColor"/></g></svg>