<svg xmlns="http://www.w3.org/2000/svg" width="20" height="20" viewBox="0 0 20 20">
  <g fill="none" fill-rule="evenodd">
    <path stroke="#AB92F0" stroke-linecap="round" stroke-width="2" d="M9.65781085,2.44743804 L11.6578108,2.44743804 C12.486238,2.44743804 13.1578108,3.11901091 13.1578108,3.94743804 L13.1578108,13.8167524 C13.1578108,14.2201079 12.9953638,14.6064662 12.7071314,14.8886323 L11.7246351,15.8504505 C11.1465337,16.4163849 10.2237927,16.4219242 9.63893849,15.8629713 L8.62143482,14.8905296 C8.32531645,14.6075254 8.15781085,14.2157355 8.15781085,13.806129 L8.15781085,3.94743804 C8.15781085,3.11901091 8.82938372,2.44743804 9.65781085,2.44743804 Z" transform="rotate(-135 10.658 9.363)"/>
    <path stroke="#AB92F0" stroke-linecap="round" d="M8.96015511,11.2530483 L10.9601551,11.2530483" transform="rotate(-135 9.96 11.253)"/>
    <path stroke="#AB92F0" stroke-linecap="round" stroke-width="1.5" d="M1.59619408,16.2027958 L5.59619408,16.2027958" transform="rotate(-135 3.596 16.203)"/>
    <path stroke="#AB92F0" stroke-linecap="round" stroke-width="2" d="M1.63704541,13.2279221 L10.0710678,13.2279221" transform="rotate(-135 6.071 13.728)"/>
    <path stroke="#AB92F0" stroke-linecap="round" d="M11.0814755,9.13172798 L13.0814755,9.13172798" transform="rotate(-135 12.081 9.132)"/>
    <path stroke="#AB92F0" stroke-linecap="square" stroke-width="2" d="M5.01040764,13.7885822 L5.01040764,15.7885822" transform="rotate(-135 5.01 14.789)"/>
    <path stroke="#AB92F0" stroke-linecap="round" stroke-width="1.5" d="M14.0249818,2.55668921 L18.2676225,2.55668921" transform="rotate(135 16.481 2.955)"/>
  </g>
</svg>
