<svg width="20" height="20" viewBox="0 0 26 26" fill="none" xmlns="http://www.w3.org/2000/svg"><g transform="translate(3, 3)"><g><path fill-rule="evenodd" clip-rule="evenodd" d="M2.4481 10.3965L2.99999 10.1199V17C2.99999 18.6569 4.34314 20 5.99999 20H14C15.6568 20 17 18.6569 17 17V10.118L17.5528 10.3944C18.1347 10.6854 18.835 10.352 18.9762 9.71693L19.9762 5.21693C20.0503 4.88317 19.9489 4.53465 19.7071 4.29289L17.2929 1.87868C16.7303 1.31607 15.9672 1 15.1716 1H13C12.5133 1 12.0973 1.35042 12.0145 1.83004C11.7469 3.3817 11.1284 4 9.99902 4C8.86986 4 8.25211 3.38205 7.98555 1.83066C7.90309 1.35075 7.48694 1 6.99999 1H4.82884C4.03282 1 3.26943 1.31637 2.70676 1.87945L0.294793 4.29315C0.0533553 4.53476 -0.0480615 4.88289 0.0258427 5.21637L1.02368 9.71889C1.16458 10.3547 1.86593 10.6883 2.4481 10.3965ZM4.12148 3.29315C4.30904 3.10546 4.5635 3 4.82884 3H6.20588C6.77637 4.92818 8.07723 6 9.99902 6C11.9208 6 13.2221 4.92825 13.7936 3H15.1716C15.4368 3 15.6911 3.10536 15.8787 3.29289L17.9047 5.31894L17.3016 8.03279L16.4472 7.60557C15.7823 7.27312 15 7.75662 15 8.5V17C15 17.5523 14.5523 18 14 18H5.99999C5.44771 18 4.99999 17.5523 4.99999 17V8.5C4.99999 7.75618 4.21684 7.27271 3.55188 7.60602L2.69873 8.03367L2.09711 5.31898L4.12148 3.29315Z" fill="currentColor"/><path d="M11.5 10.5C10.9477 10.5 10.5 10.0523 10.5 9.5C10.5 8.94772 10.9477 8.5 11.5 8.5H13.5C14.0523 8.5 14.5 8.94772 14.5 9.5C14.5 10.0523 14.0523 10.5 13.5 10.5H11.5Z" fill="currentColor"/></g></g><path fill-rule="evenodd" clip-rule="evenodd" d="M13 24C19.0751 24 24 19.0751 24 13C24 6.92487 19.0751 2 13 2C6.92487 2 2 6.92487 2 13C2 19.0751 6.92487 24 13 24ZM13 26C20.1797 26 26 20.1797 26 13C26 5.8203 20.1797 0 13 0C5.8203 0 0 5.8203 0 13C0 20.1797 5.8203 26 13 26Z" fill="currentColor"/></svg>