<svg width="20" height="20" viewBox="0 0 20 20" fill="none" xmlns="http://www.w3.org/2000/svg"><path fill-rule="evenodd" clip-rule="evenodd" d="M1.5 2C1.5 0.895432 2.39543 0 3.5 0H16.5C17.6046 0 18.5 0.895431 18.5 2V18C18.5 19.1046 17.6046 20 16.5 20H3.5C2.39543 20 1.5 19.1046 1.5 18V2ZM16.5 2L3.5 2V18H16.5V2Z" fill="currentColor"/><path fill-rule="evenodd" clip-rule="evenodd" d="M7.75 16C7.75 15.4477 8.19772 15 8.75 15H11.25C11.8023 15 12.25 15.4477 12.25 16C12.25 16.5523 11.8023 17 11.25 17H8.75C8.19772 17 7.75 16.5523 7.75 16Z" fill="currentColor"/><path d="M1.29289 2.70711C0.902369 2.31658 0.902369 1.68342 1.29289 1.29289C1.68342 0.902368 2.31658 0.902368 2.70711 1.29289L18.7071 17.2929C19.0976 17.6834 19.0976 18.3166 18.7071 18.7071C18.3166 19.0976 17.6834 19.0976 17.2929 18.7071L1.29289 2.70711Z" fill="currentColor"/></svg>