<svg xmlns="http://www.w3.org/2000/svg" width="20" height="20" viewBox="0 0 20 20">
  <g fill="none" fill-rule="evenodd">
    <path stroke="#AB92F0" stroke-linecap="round" stroke-linejoin="round" stroke-width="2" d="M10,3.5 L14.8638034,4.71595086 C15.5315539,4.88288848 16,5.48286315 16,6.17116461 C16,7.4476841 16,8.72420358 16,10.0007231 C16,11.2767605 16,12.5527979 16,13.8288354 C16,14.5171369 15.5315539,15.1171115 14.8638034,15.2840491 L10,16.5 C10,17.3284271 9.32842712,18 8.5,18 L5.5,18 C4.67157288,18 4,17.3284271 4,16.5 L4,3.5 C4,2.67157288 4.67157288,2 5.5,2 L8.5,2 C9.32842712,2 10,2.67157288 10,3.5 Z" transform="rotate(-90 10 10)"/>
    <circle cx="15" cy="13" r="1" stroke="#AB92F0" stroke-linecap="round" stroke-linejoin="round" transform="rotate(-90 15 13)"/>
    <circle cx="5" cy="13" r="1" stroke="#AB92F0" stroke-linecap="round" stroke-linejoin="round" transform="rotate(-90 5 13)"/>
    <rect width="2" height="3" x="3" y="16" fill="#AB92F0" stroke="#AB92F0" rx="1"/>
    <rect width="2" height="3" x="15" y="16" fill="#AB92F0" stroke="#AB92F0" rx="1"/>
    <path stroke="#AB92F0" stroke-width="1.5" d="M7.35207827,6 L12.6475738,6 C13.1081432,6 13.5091483,6.31457056 13.6188128,6.7618936 L14.1091276,8.7618936 C14.2406301,9.29829412 13.9123954,9.83973654 13.3759949,9.97123907 C13.2980673,9.99034359 13.2181237,10 13.1378885,10 L6.86176356,10 C6.30947881,10 5.86176356,9.55228475 5.86176356,9 C5.86176356,8.91976479 5.87141997,8.83982117 5.89052448,8.7618936 L6.3808392,6.7618936 C6.49050373,6.31457056 6.89150883,6 7.35207827,6 Z"/>
    <path stroke="#AB92F0" stroke-linecap="round" stroke-linejoin="round" stroke-width="2" d="M10,2 L10,2 C10.5522847,2 11,2.44771525 11,3 L11,3 C11,3.55228475 10.5522847,4 10,4 L10,4 L10,4 C9.44771525,4 9,3.55228475 9,3 L9,3 C9,2.44771525 9.44771525,2 10,2 Z"/>
  </g>
</svg>
