<svg width="20" height="20" viewBox="0 0 20 20" fill="none" xmlns="http://www.w3.org/2000/svg"><path fill-rule="evenodd" clip-rule="evenodd" d="M2 8L2 15C2 16.6569 3.34315 18 5 18H15C16.6569 18 18 16.6569 18 15V8C18 6.34315 16.6569 5 15 5H5C3.34315 5 2 6.34315 2 8ZM5 16C4.44772 16 4 15.5523 4 15V8C4 7.44771 4.44772 7 5 7H15C15.5523 7 16 7.44771 16 8V15C16 15.5523 15.5523 16 15 16H5Z" fill="currentColor"/><path d="M11.2809 5.62469C10.9359 6.05596 10.3066 6.12588 9.87531 5.78087C9.44405 5.43586 9.37413 4.80657 9.71914 4.3753L11.7191 1.8753C12.0641 1.44404 12.6934 1.37412 13.1247 1.71913C13.556 2.06414 13.6259 2.69343 13.2809 3.12469L11.2809 5.62469Z" fill="currentColor"/><path d="M8.71912 5.62469C9.06413 6.05596 9.69343 6.12588 10.1247 5.78087C10.556 5.43586 10.6259 4.80657 10.2809 4.3753L8.28086 1.8753C7.93585 1.44404 7.30656 1.37412 6.8753 1.71913C6.44404 2.06414 6.37412 2.69343 6.71912 3.12469L8.71912 5.62469Z" fill="currentColor"/></svg>