<svg width="20" height="20" viewBox="0 0 26 26" fill="none" xmlns="http://www.w3.org/2000/svg"><defs><mask id="2g4zmkvq1odifve54ettnp"><rect width="26" height="26" fill="white"/><g transform="translate(3, 3)"><path fill-rule="evenodd" clip-rule="evenodd" d="M2 8L2 15C2 16.6569 3.34315 18 5 18H15C16.6569 18 18 16.6569 18 15V8C18 6.34315 16.6569 5 15 5H5C3.34315 5 2 6.34315 2 8ZM5 16C4.44772 16 4 15.5523 4 15V8C4 7.44771 4.44772 7 5 7H15C15.5523 7 16 7.44771 16 8V15C16 15.5523 15.5523 16 15 16H5Z" fill="black"/><path d="M11.2808 5.62469C10.9358 6.05596 10.3065 6.12588 9.87528 5.78087C9.44402 5.43586 9.3741 4.80657 9.71911 4.3753L11.7191 1.8753C12.0641 1.44404 12.6934 1.37412 13.1247 1.71913C13.5559 2.06414 13.6259 2.69343 13.2808 3.12469L11.2808 5.62469Z" fill="black"/><path d="M8.71916 5.62469C9.06416 6.05596 9.69346 6.12588 10.1247 5.78087C10.556 5.43586 10.6259 4.80657 10.2809 4.3753L8.28089 1.8753C7.93588 1.44404 7.30659 1.37412 6.87533 1.71913C6.44407 2.06414 6.37415 2.69343 6.71916 3.12469L8.71916 5.62469Z" fill="black"/></g></mask></defs><circle r="13" cx="13" cy="13" mask="url(#2g4zmkvq1odifve54ettnp)" fill="currentColor"/></svg>