<svg width="20" height="20" viewBox="0 0 20 20" fill="none" xmlns="http://www.w3.org/2000/svg"><path fill-rule="evenodd" clip-rule="evenodd" d="M4 8V15C4 15.5523 4.44772 16 5 16H15C15.5523 16 16 15.5523 16 15V8C16 7.44772 15.5523 7 15 7H5C4.44772 7 4 7.44771 4 8ZM2 15C2 16.6569 3.34315 18 5 18H15C16.6569 18 18 16.6569 18 15V8C18 6.34315 16.6569 5 15 5H5C3.34315 5 2 6.34315 2 8L2 15Z" fill="currentColor"/><path fill-rule="evenodd" clip-rule="evenodd" d="M9.87531 5.78087C9.44405 5.43586 9.37413 4.80657 9.71914 4.3753L11.7191 1.8753C12.0641 1.44404 12.6934 1.37412 13.1247 1.71913C13.556 2.06414 13.6259 2.69343 13.2809 3.1247L11.2809 5.62469C10.9359 6.05596 10.3066 6.12588 9.87531 5.78087Z" fill="currentColor"/><path fill-rule="evenodd" clip-rule="evenodd" d="M10.1247 5.78087C10.556 5.43586 10.6259 4.80657 10.2809 4.3753L8.28086 1.8753C7.93585 1.44404 7.30656 1.37412 6.8753 1.71913C6.44404 2.06414 6.37412 2.69343 6.71913 3.1247L8.71912 5.62469C9.06413 6.05596 9.69343 6.12588 10.1247 5.78087Z" fill="currentColor"/><path fill-rule="evenodd" clip-rule="evenodd" d="M12 11.5L8.75 13.5V9.5L12 11.5Z" fill="currentColor"/><path fill-rule="evenodd" clip-rule="evenodd" d="M12.5 11.5C12.5 11.6736 12.4099 11.8348 12.262 11.9258L9.01205 13.9258C8.85778 14.0208 8.66423 14.0248 8.5061 13.9365C8.34797 13.8481 8.25 13.6811 8.25 13.5V9.5C8.25 9.31886 8.34797 9.15188 8.5061 9.06352C8.66423 8.97516 8.85778 8.97924 9.01205 9.07417L12.262 11.0742C12.4099 11.1652 12.5 11.3264 12.5 11.5ZM9.25 10.3948V12.6052L11.046 11.5L9.25 10.3948Z" fill="currentColor"/><path d="M1.29289 2.70711C0.902369 2.31658 0.902369 1.68342 1.29289 1.29289C1.68342 0.902368 2.31658 0.902368 2.70711 1.29289L18.7071 17.2929C19.0976 17.6834 19.0976 18.3166 18.7071 18.7071C18.3166 19.0976 17.6834 19.0976 17.2929 18.7071L1.29289 2.70711Z" fill="currentColor"/></svg>