<svg width="20" height="20" viewBox="0 0 26 26" fill="none" xmlns="http://www.w3.org/2000/svg"><defs><mask id="mask-pop-text-bubble-circle-filled"><rect width="26" height="26" fill="white"/><g transform="translate(3, 3)"><circle cx="7" cy="9" r="1" fill="black"/><circle cx="10" cy="9" r="1" fill="black"/><circle cx="13" cy="9" r="1" fill="black"/><path fill-rule="evenodd" clip-rule="evenodd" d="M2 6C2 4.89543 2.89543 4 4 4H16C17.1046 4 18 4.89543 18 6V12.1024C18 13.207 17.1046 14.1024 16 14.1024H8.45078C8.45078 14.1024 6.36316 16 5.70388 16C5.04461 16 4.64753 14.1024 4.64753 14.1024H4C2.89543 14.1024 2 13.207 2 12.1024V6Z" stroke="black" stroke-width="2" stroke-linecap="round"/><circle cx="7" cy="9" r="1" fill="black"/><circle cx="10" cy="9" r="1" fill="black"/><circle cx="13" cy="9" r="1" fill="black"/><path fill-rule="evenodd" clip-rule="evenodd" d="M1 6V12.1024C1 13.7138 2.27046 15.0285 3.86436 15.0994C4.22426 16.3232 4.75773 17 5.70388 17C6.46059 17 7.38816 16.3911 8.83458 15.1024H16C17.6569 15.1024 19 13.7593 19 12.1024V6C19 4.34315 17.6569 3 16 3H4C2.34315 3 1 4.34315 1 6ZM8.06421 13.1024L7.77816 13.3625C6.91423 14.1477 6.23474 14.6664 5.90912 14.8838C5.81363 14.6587 5.71621 14.3271 5.62633 13.8976L5.45993 13.1024H4C3.44772 13.1024 3 12.6547 3 12.1024V6C3 5.44772 3.44772 5 4 5H16C16.5523 5 17 5.44772 17 6V12.1024C17 12.6547 16.5523 13.1024 16 13.1024H8.06421Z" fill="black"/></g></mask></defs><circle r="13" cx="13" cy="13" mask="url(#mask-pop-text-bubble-circle-filled)" fill="currentColor"/></svg>