<svg width="20" height="20" viewBox="0 0 20 20" fill="none" xmlns="http://www.w3.org/2000/svg">
<g clip-path="url(#clip0_1812_524)">
<path d="M5.00781 8C5.55979 8 6.00725 7.55228 6.00725 7C6.00725 6.44772 5.55979 6 5.00781 6C4.45583 6 4.00836 6.44772 4.00836 7C4.00836 7.55228 4.45583 8 5.00781 8Z" fill="currentColor"/>
<path d="M8.00616 8C8.55814 8 9.0056 7.55228 9.0056 7C9.0056 6.44772 8.55814 6 8.00616 6C7.45418 6 7.00671 6.44772 7.00671 7C7.00671 7.55228 7.45418 8 8.00616 8Z" fill="currentColor"/>
<path d="M11.0045 8C11.5564 8 12.0039 7.55228 12.0039 7C12.0039 6.44772 11.5564 6 11.0045 6C10.4525 6 10.005 6.44772 10.005 7C10.005 7.55228 10.4525 8 11.0045 8Z" fill="currentColor"/>
<path d="M4.70706 14.5C3.72767 14.5 3.17801 13.51 2.8782 12.6C1.2792 12.54 0 11.22 0 9.6V4.5C0.00999375 2.85 1.35915 1.5 3.00812 1.5H13.0019C14.6508 1.5 16 2.85 16 4.5V9.6C16 11.25 14.6508 12.6 13.0019 12.6H7.8351C5.68645 14.5 4.9569 14.5 4.70706 14.5ZM3.00812 3.5C2.45846 3.5 2.00874 3.95 2.00874 4.5V9.6C2.00874 10.15 2.45846 10.6 3.00812 10.6H4.46721L4.6371 11.39C4.70706 11.71 4.81699 12.07 4.92692 12.33C5.38663 12.04 6.13617 11.45 6.78576 10.86L7.07558 10.6H13.0119C13.5615 10.6 14.0112 10.15 14.0112 9.6V4.5C14.0112 3.95 13.5615 3.5 13.0119 3.5H3.00812Z" fill="currentColor"/>
<path fill-rule="evenodd" clip-rule="evenodd" d="M16.4009 8.70001C16.4009 8.14773 16.8486 7.70001 17.4009 7.70001C18.8332 7.70001 20 8.86825 20 10.3V14.38C20 15.7325 18.9589 16.8498 17.6363 16.9694C17.6211 17.0121 17.6051 17.0554 17.5884 17.099C17.503 17.321 17.3757 17.6063 17.1943 17.8538C17.0431 18.06 16.6636 18.5 16.0316 18.5C15.7599 18.5 15.5253 18.4117 15.3889 18.3529C15.2317 18.2851 15.0778 18.1989 14.9395 18.1136C14.6619 17.9423 14.3697 17.7259 14.1157 17.5262C13.8613 17.3263 13.6264 17.1283 13.4549 16.98H10.3948C8.96245 16.98 7.79565 15.8118 7.79565 14.38C7.79565 13.8277 8.24337 13.38 8.79565 13.38C9.34794 13.38 9.79565 13.8277 9.79565 14.38C9.79565 14.7083 10.0681 14.98 10.3948 14.98H14.22L14.506 15.2405L14.5091 15.2433L14.5212 15.2542L14.5706 15.2985C14.6142 15.3373 14.6779 15.3935 14.7561 15.4612C14.9135 15.5973 15.126 15.7765 15.3516 15.9538C15.494 16.0658 15.6346 16.1713 15.7647 16.2624C15.8019 16.1543 15.8331 16.0477 15.8571 15.9582C15.8732 15.8984 15.8852 15.8492 15.893 15.8163L15.9012 15.7803L15.9027 15.7738L15.9029 15.7726L16.0697 14.98H17.4009C17.7276 14.98 18 14.7083 18 14.38V10.3C18 9.97177 17.7276 9.70001 17.4009 9.70001C16.8486 9.70001 16.4009 9.2523 16.4009 8.70001Z" fill="currentColor"/>
</g>
<defs>
<clipPath id="clip0_1812_524">
<rect width="20" height="20" fill="white"/>
</clipPath>
</defs>
</svg>
