<svg width="20" height="20" viewBox="0 0 26 26" fill="none" xmlns="http://www.w3.org/2000/svg"><defs><mask id="mask-pop-text-bubbles-circle-filled"><rect width="26" height="26" fill="white"/><g transform="translate(3, 3)"><path d="M5.53001 8.37997C5.99001 8.37997 6.36001 8.00997 6.36001 7.54997C6.36001 7.08997 5.99001 6.71997 5.53001 6.71997C5.07001 6.71997 4.70001 7.08997 4.70001 7.54997C4.70001 8.00997 5.07001 8.37997 5.53001 8.37997Z" fill="black"/><path d="M8.03001 8.37997C8.49001 8.37997 8.86001 8.00997 8.86001 7.54997C8.86001 7.08997 8.49001 6.71997 8.03001 6.71997C7.57001 6.71997 7.20001 7.08997 7.20001 7.54997C7.20001 8.00997 7.57001 8.37997 8.03001 8.37997Z" fill="black"/><path d="M10.53 8.37997C10.99 8.37997 11.36 8.00997 11.36 7.54997C11.36 7.08997 10.99 6.71997 10.53 6.71997C10.07 6.71997 9.70001 7.08997 9.70001 7.54997C9.70001 8.00997 10.07 8.37997 10.53 8.37997Z" fill="black"/><path d="M5.28 13.97C4.42 13.97 3.92 13.22 3.63 12.38C2.26 12.27 1.19 11.12 1.19 9.71999V5.45999C1.19 3.99999 2.39 2.79999 3.86 2.79999H12.19C13.66 2.79999 14.86 3.99999 14.86 5.46999V9.71999C14.86 11.19 13.66 12.39 12.19 12.39H7.95C6.15 13.97 5.52 13.97 5.28 13.97ZM3.86 4.79999C3.5 4.79999 3.19 5.10999 3.19 5.46999V9.71999C3.19 10.08 3.49 10.38 3.85 10.38H5.2L5.37 11.17C5.41 11.35 5.47 11.56 5.53 11.74C5.9 11.48 6.43 11.06 6.89 10.64L7.18 10.38H12.19C12.55 10.38 12.86 10.07 12.86 9.70999V5.46999C12.86 5.10999 12.56 4.79999 12.19 4.79999H3.86Z" fill="black"/><path d="M15.22 17.3C14.99 17.3 14.46 17.3 13.01 16.03H10.53C9.24001 16.03 8.20001 14.98 8.20001 13.7C8.20001 13.15 8.65001 12.7 9.20001 12.7C9.75001 12.7 10.2 13.15 10.2 13.7C10.2 13.88 10.35 14.03 10.53 14.03H13.78L14.07 14.29C14.35 14.54 14.66 14.8 14.92 14.99C14.94 14.93 14.95 14.87 14.96 14.82L15.13 14.03H16.37C16.55 14.03 16.7 13.88 16.7 13.69V10.29C16.7 10.11 16.55 9.95996 16.37 9.95996C15.82 9.95996 15.37 9.50996 15.37 8.95996C15.37 8.40996 15.82 7.95996 16.37 7.95996C17.66 7.95996 18.7 9.00996 18.7 10.29V13.69C18.7 14.87 17.82 15.84 16.69 16C16.44 16.65 16 17.29 15.23 17.29L15.22 17.3Z" fill="black"/></g></mask></defs><circle r="13" cx="13" cy="13" mask="url(#mask-pop-text-bubbles-circle-filled)" fill="currentColor"/></svg>