<svg width="20" height="20" viewBox="0 0 26 26" fill="none" xmlns="http://www.w3.org/2000/svg"><g transform="translate(3, 3)"><path fill-rule="evenodd" clip-rule="evenodd" d="M16.8107 12.1077C17.363 12.1077 17.8107 11.66 17.8107 11.1077V9.10773V5.60773C17.8107 5.05544 17.363 4.60773 16.8107 4.60773H14.3107C13.7584 4.60773 13.3107 5.05544 13.3107 5.60773V11.1077C13.3107 11.66 13.7584 12.1077 14.3107 12.1077H16.8107ZM15.5607 6.10773C15.0084 6.10773 14.5607 6.55544 14.5607 7.10773C14.5607 7.66001 15.0084 8.10773 15.5607 8.10773C16.113 8.10773 16.5607 7.66001 16.5607 7.10773C16.5607 6.55544 16.113 6.10773 15.5607 6.10773Z" fill="currentColor"/><path fill-rule="evenodd" clip-rule="evenodd" d="M8.82937 15.4429C8.91585 15.5294 9.05999 15.496 9.10299 15.3867L9.29719 14.2216C9.50109 12.9982 10.1373 11.8957 11.08 11.1085L11.08 6.42753L6.88389 5.58831C6.85816 5.58316 6.83285 5.57707 6.808 5.57008L6.808 5.57011C6.19161 5.39591 5.53451 5.65219 5.19882 6.19771L4.9814 6.55105L4.47473 7.88886C4.13143 8.79532 4.13826 9.79671 4.49301 10.6978L4.80359 11.3189C5.04451 11.8008 5.53616 12.1057 6.07457 12.1077L6.07999 12.1077H7.57999C7.62215 12.1077 7.66371 12.1103 7.7045 12.1154C7.82413 12.1002 7.94855 12.1066 8.07257 12.1376C8.60836 12.2716 8.9341 12.8146 8.80013 13.3503L8.65161 13.9443C8.60687 14.1233 8.58737 14.3076 8.59368 14.4919L8.60773 14.9022C8.61429 15.0939 8.68558 15.2775 8.80962 15.4232L8.82937 15.4429ZM12.2581 4.62355L7.30993 3.63391C5.84497 3.23971 4.29234 3.85458 3.49548 5.14956L3.23993 5.56485C3.21619 5.60166 3.19466 5.64039 3.17558 5.68093C3.16162 5.71041 3.14923 5.74031 3.13837 5.77052L2.60437 7.18051C2.07955 8.56625 2.09556 10.0986 2.64896 11.4729C2.65983 11.5005 2.67201 11.5279 2.68554 11.555L3.01474 12.2134C3.59524 13.3744 4.78189 14.1078 6.07994 14.1078V14.1077H6.07999H6.60513C6.59313 14.2581 6.58968 14.4092 6.59486 14.5603L6.6089 14.9706C6.63178 15.639 6.88907 16.2779 7.3357 16.7756C7.34768 16.789 7.36007 16.802 7.37289 16.8149L7.41515 16.8571C8.60633 18.0483 10.6416 17.4846 11.0501 15.8503L11.0501 15.8503C11.0565 15.8247 11.0619 15.7986 11.0663 15.7721L11.27 14.5504C11.4129 13.6928 11.9027 12.9321 12.6239 12.447C12.8984 12.2688 13.08 11.9594 13.08 11.6077L13.08 5.62726C13.0819 5.53328 13.0705 5.44113 13.0473 5.35301C12.9721 5.06864 12.7734 4.82629 12.5004 4.70012C12.4243 4.66483 12.3431 4.63882 12.2581 4.62355Z" fill="currentColor"/><path d="M1.29289 2.70711C0.902369 2.31658 0.902369 1.68342 1.29289 1.29289C1.68342 0.902368 2.31658 0.902368 2.70711 1.29289L18.7071 17.2929C19.0976 17.6834 19.0976 18.3166 18.7071 18.7071C18.3166 19.0976 17.6834 19.0976 17.2929 18.7071L1.29289 2.70711Z" fill="currentColor"/></g><path fill-rule="evenodd" clip-rule="evenodd" d="M13 24C19.0751 24 24 19.0751 24 13C24 6.92487 19.0751 2 13 2C6.92487 2 2 6.92487 2 13C2 19.0751 6.92487 24 13 24ZM13 26C20.1797 26 26 20.1797 26 13C26 5.8203 20.1797 0 13 0C5.8203 0 0 5.8203 0 13C0 20.1797 5.8203 26 13 26Z" fill="currentColor"/></svg>