<svg width="20" height="20" viewBox="0 0 26 26" fill="none" xmlns="http://www.w3.org/2000/svg"><defs><mask id="mask-pop-ticket-circle-filled"><rect width="26" height="26" fill="white"/><g transform="translate(3, 3)"><path fill-rule="evenodd" clip-rule="evenodd" d="M1 6C1 4.89543 1.89543 4 3 4H17C18.1046 4 19 4.89543 19 6V8.64094C19 9.11068 18.7176 9.53435 18.2839 9.71502C18.0306 9.82057 18.0306 10.1794 18.2839 10.285C18.7176 10.4656 19 10.8893 19 11.3591V14C19 15.1046 18.1046 16 17 16H3C1.89543 16 1 15.1046 1 14V11.3591C1 10.8893 1.28245 10.4656 1.71606 10.285C1.96937 10.1794 1.96937 9.82057 1.71606 9.71502C1.28245 9.53435 1 9.11068 1 8.64094V6ZM17 6H3V8.16113C4.20805 9.06547 4.20805 10.9345 3 11.8389V14H17V11.8389C15.7919 10.9345 15.7919 9.06547 17 8.16113V6Z" fill="black"/><path fill-rule="evenodd" clip-rule="evenodd" d="M12.5 13C13.0523 13 13.5 13.4477 13.5 14V14.5C13.5 15.0523 13.0523 15.5 12.5 15.5C11.9477 15.5 11.5 15.0523 11.5 14.5V14C11.5 13.4477 11.9477 13 12.5 13Z" fill="black"/><path fill-rule="evenodd" clip-rule="evenodd" d="M12.5 4.5C13.0523 4.5 13.5 4.94772 13.5 5.5V6C13.5 6.55228 13.0523 7 12.5 7C11.9477 7 11.5 6.55228 11.5 6V5.5C11.5 4.94772 11.9477 4.5 12.5 4.5Z" fill="black"/><path fill-rule="evenodd" clip-rule="evenodd" d="M12.5 7.25C13.0523 7.25 13.5 7.69772 13.5 8.25V8.75C13.5 9.30228 13.0523 9.75 12.5 9.75C11.9477 9.75 11.5 9.30228 11.5 8.75V8.25C11.5 7.69772 11.9477 7.25 12.5 7.25Z" fill="black"/><path fill-rule="evenodd" clip-rule="evenodd" d="M12.5 10.25C13.0523 10.25 13.5 10.6977 13.5 11.25V11.75C13.5 12.3023 13.0523 12.75 12.5 12.75C11.9477 12.75 11.5 12.3023 11.5 11.75V11.25C11.5 10.6977 11.9477 10.25 12.5 10.25Z" fill="black"/></g></mask></defs><circle r="13" cx="13" cy="13" mask="url(#mask-pop-ticket-circle-filled)" fill="currentColor"/></svg>