<svg width="20" height="20" viewBox="0 0 20 20" fill="none" xmlns="http://www.w3.org/2000/svg">
<path d="M7.17158 14.2426C6.78105 14.6332 6.14789 14.6332 5.75736 14.2426C5.36684 13.8521 5.36684 13.2189 5.75736 12.8284L12.8284 5.75735C13.219 5.36682 13.8521 5.36682 14.2426 5.75735C14.6332 6.14787 14.6332 6.78104 14.2426 7.17156L7.17158 14.2426Z" fill="currentColor"/>
<path d="M5.75736 7.17152C5.36684 6.781 5.36684 6.14783 5.75736 5.75731C6.14789 5.36679 6.78105 5.36679 7.17158 5.75731L14.2426 12.8284C14.6332 13.2189 14.6332 13.8521 14.2426 14.2426C13.8521 14.6331 13.219 14.6331 12.8284 14.2426L5.75736 7.17152Z" fill="currentColor"/>
</svg>
