<svg width="20" height="20" viewBox="0 0 20 20" fill="none" xmlns="http://www.w3.org/2000/svg"><g><path fill-rule="evenodd" clip-rule="evenodd" d="M17.5 5C17.5 2.79086 15.7092 1 13.5 1L6.5 1C4.29086 1 2.5 2.79086 2.5 5V11.9894C2.5 13.7416 3.64042 15.2898 5.31383 15.8095C6.87197 16.2933 8.43504 16.5359 10 16.5359C11.565 16.5359 13.128 16.2933 14.6862 15.8095C16.3596 15.2898 17.5 13.7416 17.5 11.9894L17.5 5ZM4.5 11.9894V5C4.5 3.89543 5.39543 3 6.5 3L13.5 3C14.6046 3 15.5 3.89543 15.5 5L15.5 11.9894C15.5 12.8655 14.9298 13.6396 14.0931 13.8994C12.7248 14.3243 11.3615 14.5359 10 14.5359C8.63854 14.5359 7.2752 14.3243 5.90691 13.8994C5.07021 13.6396 4.5 12.8655 4.5 11.9894Z" fill="currentColor"/><path d="M8 12C8 12.8284 7.32843 13.5 6.5 13.5C5.67157 13.5 5 12.8284 5 12C5 11.1716 5.67157 10.5 6.5 10.5C7.32843 10.5 8 11.1716 8 12Z" fill="currentColor"/><path d="M15 12C15 12.8284 14.3284 13.5 13.5 13.5C12.6716 13.5 12 12.8284 12 12C12 11.1716 12.6716 10.5 13.5 10.5C14.3284 10.5 15 11.1716 15 12Z" fill="currentColor"/><path d="M4.58137 15.147C4.79717 14.6386 5.38423 14.4014 5.89261 14.6172C6.40099 14.833 6.63818 15.4201 6.42238 15.9285L4.94741 19.4033C4.73161 19.9117 4.14455 20.1489 3.63617 19.9331C3.12779 19.7173 2.8906 19.1302 3.1064 18.6218L4.58137 15.147Z" fill="currentColor"/><path d="M15.4678 14.6528C15.276 14.1349 14.7007 13.8705 14.1828 14.0623C13.6648 14.254 13.4004 14.8294 13.5922 15.3473L15.0622 19.3173C15.254 19.8352 15.8293 20.0996 16.3472 19.9078C16.8652 19.716 17.1295 19.1407 16.9378 18.6228L15.4678 14.6528Z" fill="currentColor"/><path fill-rule="evenodd" clip-rule="evenodd" d="M15 6C15 4.61929 13.8807 3.5 12.5 3.5L7.5 3.5C6.11929 3.5 5 4.61929 5 6V7.53465C5 8.75174 5.87647 9.79198 7.07592 9.99842C8.04987 10.1661 9.02477 10.25 10 10.25C10.9752 10.25 11.9502 10.1661 12.9242 9.99841C14.1236 9.79192 15 8.7517 15 7.53464L15 6ZM7 7.53465V6C7 5.72386 7.22386 5.5 7.5 5.5L12.5 5.5C12.7762 5.5 13 5.72386 13 6L13 7.53464C13 7.77805 12.8247 7.9861 12.5848 8.0274C11.7225 8.17586 10.8611 8.25 10 8.25C9.13892 8.25 8.27752 8.17586 7.4152 8.02741C7.17529 7.98611 7 7.77807 7 7.53465Z" fill="currentColor"/><path d="M4.75 18.25V16.75H15.2514V18.25H4.75Z" fill="currentColor"/></g><path d="M1.29289 2.70711C0.902369 2.31658 0.902369 1.68342 1.29289 1.29289C1.68342 0.902368 2.31658 0.902368 2.70711 1.29289L18.7071 17.2929C19.0976 17.6834 19.0976 18.3166 18.7071 18.7071C18.3166 19.0976 17.6834 19.0976 17.2929 18.7071L1.29289 2.70711Z" fill="currentColor"/></svg>