<svg xmlns="http://www.w3.org/2000/svg" width="20" height="20" viewBox="0 0 20 20">
  <g fill="none" fill-rule="evenodd">
    <path stroke="#AB92F0" stroke-linecap="round" stroke-linejoin="round" stroke-width="2" d="M6.5,1.99995581 L13.5000137,1.9999524 C15.1568679,1.9999524 16.5000137,3.34309815 16.5000137,4.9999524 C16.5000137,4.99995353 16.5000137,4.99995467 16.5000137,4.99995581 L16.5000023,11.9893314 C16.5000008,13.3034958 15.6446813,14.4646824 14.3896284,14.8543874 C12.9264189,15.3087267 11.4632095,15.5358964 10,15.5358964 C8.5367903,15.5358964 7.07358061,15.3087266 5.61037091,14.8543871 L5.61037177,14.8543844 C4.35531884,14.4646794 3.5,13.3034921 3.5,11.9893278 L3.5,4.99995581 C3.5,3.34310156 4.84314575,1.99995581 6.5,1.99995581 Z"/>
    <circle cx="6.5" cy="12" r="1" stroke="#AB92F0" transform="rotate(-90 6.5 12)"/>
    <circle cx="13.5" cy="12" r="1" stroke="#AB92F0" transform="rotate(-90 13.5 12)"/>
    <path stroke="#AB92F0" stroke-linecap="round" stroke-linejoin="round" stroke-width="2" d="M5.51439771,15.5430562 L4.01439771,19.0071598" transform="rotate(-.413 5.014 17.007)"/>
    <path stroke="#AB92F0" stroke-linecap="round" stroke-linejoin="round" stroke-width="2" d="M16.0142964,15.0053523 L14.5157036,18.9646477" transform="scale(-1 1) rotate(-.413 0 4250.242)"/>
    <path stroke="#AB92F0" stroke-linecap="round" stroke-width="1.5" d="M7,4 L13,4 C13.8284271,4 14.5,4.67157288 14.5,5.5 L14.4999975,8.0649135 C14.4999975,8.73281626 14.0583934,9.320258 13.416792,9.50584265 C12.2778613,9.83528088 11.1389307,10 10,10 C8.86107382,10 7.72214764,9.83528218 6.58322146,9.50584654 L6.58321795,9.50585867 C5.94160925,9.32027265 5.5,8.7328246 5.5,8.0649145 L5.5,5.5 C5.5,4.67157288 6.17157288,4 7,4 Z"/>
    <path stroke="#AB92F0" stroke-linecap="square" stroke-width="1.5" d="M5.5,17.5 L14.5014461,17.5"/>
  </g>
</svg>
