<svg width="20" height="20" viewBox="0 0 26 26" fill="none" xmlns="http://www.w3.org/2000/svg"><g transform="translate(3, 3)"><path d="M11.9371 4.5H11.9363H8.06322C8.02117 4.33649 8.00032 4.16864 8.00032 4.00049C8.00032 2.89728 8.89742 1.99976 10.0001 1.99976C11.1028 1.99976 11.9999 2.89728 11.9999 4.00049C11.9999 4.16937 11.9788 4.33716 11.9372 4.49927L11.9371 4.5Z" fill="currentColor"/><path d="M4.5 5.5C3.94772 5.5 3.5 5.05228 3.5 4.5C3.5 3.94772 3.94772 3.5 4.5 3.5H15.5C16.0523 3.5 16.5 3.94772 16.5 4.5C16.5 5.05228 16.0523 5.5 15.5 5.5H4.5Z" fill="currentColor"/><path fill-rule="evenodd" clip-rule="evenodd" d="M14.5 18.5C15.0523 18.5 15.5 18.0523 15.5 17.5V7C15.5 6.44772 15.0523 6 14.5 6H5.5C4.94772 6 4.5 6.44772 4.5 7V17.5C4.5 18.0523 4.94772 18.5 5.5 18.5H14.5ZM12.5 8.5C12.5 8.22386 12.7239 8 13 8C13.2761 8 13.5 8.22386 13.5 8.5V15.5C13.5 15.7761 13.2761 16 13 16C12.7239 16 12.5 15.7761 12.5 15.5V8.5ZM10 8C9.72386 8 9.5 8.22386 9.5 8.5V15.5C9.5 15.7761 9.72386 16 10 16C10.2761 16 10.5 15.7761 10.5 15.5V8.5C10.5 8.22386 10.2761 8 10 8ZM6.5 8.5C6.5 8.22386 6.72386 8 7 8C7.27614 8 7.5 8.22386 7.5 8.5V15.5C7.5 15.7761 7.27614 16 7 16C6.72386 16 6.5 15.7761 6.5 15.5V8.5Z" fill="currentColor"/></g><path fill-rule="evenodd" clip-rule="evenodd" d="M13 24C19.0751 24 24 19.0751 24 13C24 6.92487 19.0751 2 13 2C6.92487 2 2 6.92487 2 13C2 19.0751 6.92487 24 13 24ZM13 26C20.1797 26 26 20.1797 26 13C26 5.8203 20.1797 0 13 0C5.8203 0 0 5.8203 0 13C0 20.1797 5.8203 26 13 26Z" fill="currentColor"/></svg>