<svg width="20" height="20" viewBox="0 0 26 26" fill="none" xmlns="http://www.w3.org/2000/svg"><g transform="translate(3, 3)"><path fill-rule="evenodd" clip-rule="evenodd" d="M13.3575 7.4855C13.6416 7.95908 13.488 8.57334 13.0145 8.85749L11 10.0662V19C11 19.5523 10.5523 20 9.99997 20C9.44769 20 8.99997 19.5523 8.99997 19V12.5662L6.98548 11.3575C6.51189 11.0733 6.35833 10.4591 6.64248 9.9855C6.92663 9.51192 7.54089 9.35836 8.01447 9.64251L8.99997 10.2338V6C8.99997 5.44772 9.44769 5 9.99997 5C10.5523 5 11 5.44772 11 6V7.73381L11.9855 7.14251C12.4591 6.85836 13.0733 7.01192 13.3575 7.4855Z" fill="currentColor"/><path fill-rule="evenodd" clip-rule="evenodd" d="M9.90003 2C9.25623 2 8.65852 2.25638 8.19082 2.70093C7.92796 2.95078 7.70762 3.25932 7.54885 3.61108C7.32163 4.11447 6.72937 4.33835 6.22599 4.11114C5.72261 3.88392 5.49873 3.29166 5.72594 2.78828C5.98933 2.20473 6.35946 1.68233 6.81293 1.2513C7.62349 0.480853 8.70486 0 9.90003 0C11.0952 0 12.1766 0.480853 12.9871 1.2513C13.4406 1.68233 13.8107 2.20473 14.0741 2.78828C14.3013 3.29166 14.0774 3.88392 13.5741 4.11114C13.0707 4.33835 12.4784 4.11447 12.2512 3.61108C12.0924 3.25932 11.8721 2.95078 11.6092 2.70093C11.1415 2.25638 10.5438 2 9.90003 2Z" fill="currentColor"/><path fill-rule="evenodd" clip-rule="evenodd" d="M12.1833 3.29426C12.1288 2.74467 12.5294 2.248 13.0781 2.18493C15.6844 1.88532 17.9 3.90914 18.1601 6.53381C18.3358 8.30605 17.5973 9.98728 16.3059 11.0029C15.8687 11.3467 15.242 11.2741 14.9059 10.8407C14.5699 10.4074 14.6519 9.77732 15.089 9.43351C15.8197 8.85885 16.2824 7.86403 16.1732 6.76222C16.0083 5.09851 14.6512 4.01702 13.2754 4.17518C12.7267 4.23825 12.2378 3.84385 12.1833 3.29426Z" fill="currentColor"/><path fill-rule="evenodd" clip-rule="evenodd" d="M15.4166 9.35311C15.951 9.22373 16.4948 9.55471 16.6311 10.0924C16.7624 10.6104 16.8099 11.162 16.7608 11.7251C16.5459 14.1884 14.2548 15.8819 12.0791 15.6618C11.4883 15.602 10.8536 15.4884 10.2877 15.1602C9.68281 14.8095 9.25556 14.2743 8.97254 13.5601C8.76796 13.0438 9.01735 12.4647 9.52958 12.2666C10.0418 12.0685 10.6229 12.3264 10.8275 12.8427C10.9709 13.2046 11.1246 13.3457 11.2701 13.4301C11.4545 13.537 11.7395 13.6174 12.2529 13.6693C13.3722 13.7826 14.6557 12.8446 14.771 11.5237C14.8005 11.1847 14.7714 10.8596 14.6957 10.5609C14.5593 10.0232 14.8821 9.48248 15.4166 9.35311Z" fill="currentColor"/><path fill-rule="evenodd" clip-rule="evenodd" d="M7.62127 3.29426C7.67575 2.74467 7.27512 2.248 6.72645 2.18493C4.12021 1.88532 1.90462 3.90914 1.64445 6.53381C1.46879 8.30605 2.2073 9.98728 3.49868 11.0029C3.93583 11.3467 4.5626 11.2741 4.89863 10.8407C5.23465 10.4074 5.15267 9.77732 4.71553 9.43351C3.98487 8.85885 3.52216 7.86403 3.63137 6.76222C3.79628 5.09851 5.15336 4.01702 6.52918 4.17518C7.07785 4.23825 7.5668 3.84385 7.62127 3.29426Z" fill="currentColor"/><path fill-rule="evenodd" clip-rule="evenodd" d="M4.38793 9.35311C3.85346 9.22373 3.30969 9.55471 3.17339 10.0924C3.04206 10.6104 2.99457 11.162 3.04369 11.7251C3.25858 14.1884 5.54969 15.8819 7.72542 15.6618C8.31617 15.602 8.95091 15.4884 9.51683 15.1602C10.1217 14.8095 10.5489 14.2743 10.832 13.5601C11.0365 13.0438 10.7872 12.4647 10.2749 12.2666C9.7627 12.0685 9.18161 12.3264 8.97702 12.8427C8.83359 13.2046 8.67992 13.3457 8.53444 13.4301C8.35002 13.537 8.065 13.6174 7.5516 13.6693C6.43234 13.7826 5.14876 12.8446 5.03353 11.5237C5.00396 11.1847 5.03312 10.8596 5.10885 10.5609C5.24516 10.0232 4.92239 9.48248 4.38793 9.35311Z" fill="currentColor"/><path d="M1.29289 2.70711C0.902369 2.31658 0.902369 1.68342 1.29289 1.29289C1.68342 0.902368 2.31658 0.902368 2.70711 1.29289L18.7071 17.2929C19.0976 17.6834 19.0976 18.3166 18.7071 18.7071C18.3166 19.0976 17.6834 19.0976 17.2929 18.7071L1.29289 2.70711Z" fill="currentColor"/></g><path fill-rule="evenodd" clip-rule="evenodd" d="M13 24C19.0751 24 24 19.0751 24 13C24 6.92487 19.0751 2 13 2C6.92487 2 2 6.92487 2 13C2 19.0751 6.92487 24 13 24ZM13 26C20.1797 26 26 20.1797 26 13C26 5.8203 20.1797 0 13 0C5.8203 0 0 5.8203 0 13C0 20.1797 5.8203 26 13 26Z" fill="currentColor"/></svg>