<svg width="20" height="20" viewBox="0 0 26 26" fill="none" xmlns="http://www.w3.org/2000/svg"><g transform="translate(3, 3)"><path fill-rule="evenodd" clip-rule="evenodd" d="M10 7.00221L5.96282 14H14.0372L10 7.00221ZM10.8662 4.50138C10.4814 3.83434 9.51864 3.83434 9.13381 4.50138L3.36522 14.5003C2.98061 15.1669 3.46175 16 4.23141 16H15.7686C16.5382 16 17.0194 15.1669 16.6348 14.5003L10.8662 4.50138Z" fill="currentColor"/></g><path fill-rule="evenodd" clip-rule="evenodd" d="M13 24C19.0751 24 24 19.0751 24 13C24 6.92487 19.0751 2 13 2C6.92487 2 2 6.92487 2 13C2 19.0751 6.92487 24 13 24ZM13 26C20.1797 26 26 20.1797 26 13C26 5.8203 20.1797 0 13 0C5.8203 0 0 5.8203 0 13C0 20.1797 5.8203 26 13 26Z" fill="currentColor"/></svg>