<svg width="20" height="20" viewBox="0 0 26 26" fill="none" xmlns="http://www.w3.org/2000/svg"><defs><mask id="mask-pop-triangle-right-filled-circle-filled"><rect width="26" height="26" fill="white"/><g transform="translate(3, 3)"><path fill-rule="evenodd" clip-rule="evenodd" d="M15.4986 9.13381C16.1657 9.51864 16.1657 10.4814 15.4986 10.8662L5.49973 16.6348C4.83307 17.0194 4.00001 16.5382 4.00001 15.7686L4.00001 4.23141C4.00001 3.46175 4.83307 2.98061 5.49973 3.36522L15.4986 9.13381Z" fill="black"/><path fill-rule="evenodd" clip-rule="evenodd" d="M5.49973 16.6348C4.83307 17.0194 4.00001 16.5382 4.00001 15.7686L4.00001 4.23141C4.00001 3.46175 4.83307 2.98061 5.49973 3.36522L15.4986 9.13381C16.1657 9.51864 16.1657 10.4814 15.4986 10.8662L5.49973 16.6348ZM10.9967 10L7.00001 7.69423L7.00001 12.3058L10.9967 10Z" fill="black"/></g></mask></defs><circle r="13" cx="13" cy="13" mask="url(#mask-pop-triangle-right-filled-circle-filled)" fill="currentColor"/></svg>