<svg width="20" height="20" viewBox="0 0 26 26" fill="none" xmlns="http://www.w3.org/2000/svg"><g transform="translate(3, 3)"><path fill-rule="evenodd" clip-rule="evenodd" d="M9.13381 4.50138C9.51864 3.83434 10.4814 3.83434 10.8662 4.50138L16.6348 14.5003C17.0194 15.1669 16.5382 16 15.7686 16H4.23141C3.46175 16 2.98061 15.1669 3.36522 14.5003L9.13381 4.50138Z" fill="currentColor"/><path fill-rule="evenodd" clip-rule="evenodd" d="M16.6348 14.5003C17.0194 15.1669 16.5382 16 15.7686 16H4.23141C3.46175 16 2.98061 15.1669 3.36522 14.5003L9.13381 4.50138C9.51864 3.83434 10.4814 3.83434 10.8662 4.50138L16.6348 14.5003ZM10 9.00332L7.69423 13H12.3058L10 9.00332Z" fill="currentColor"/></g><path fill-rule="evenodd" clip-rule="evenodd" d="M13 24C19.0751 24 24 19.0751 24 13C24 6.92487 19.0751 2 13 2C6.92487 2 2 6.92487 2 13C2 19.0751 6.92487 24 13 24ZM13 26C20.1797 26 26 20.1797 26 13C26 5.8203 20.1797 0 13 0C5.8203 0 0 5.8203 0 13C0 20.1797 5.8203 26 13 26Z" fill="currentColor"/></svg>