<svg width="20" height="20" viewBox="0 0 20 20" fill="none" xmlns="http://www.w3.org/2000/svg"><path fill-rule="evenodd" clip-rule="evenodd" d="M15.4986 9.13381C16.1657 9.51864 16.1657 10.4814 15.4986 10.8662L5.49973 16.6348C4.83307 17.0194 4.00001 16.5382 4.00001 15.7686L4.00001 4.23141C4.00001 3.46175 4.83307 2.98061 5.49973 3.36522L15.4986 9.13381Z" fill="currentColor"/><path fill-rule="evenodd" clip-rule="evenodd" d="M5.49973 16.6348C4.83307 17.0194 4.00001 16.5382 4.00001 15.7686L4.00001 4.23141C4.00001 3.46175 4.83307 2.98061 5.49973 3.36522L15.4986 9.13381C16.1657 9.51864 16.1657 10.4814 15.4986 10.8662L5.49973 16.6348ZM10.9967 10L7.00001 7.69423L7.00001 12.3058L10.9967 10Z" fill="currentColor"/><path d="M1.29289 2.70711C0.902369 2.31658 0.902369 1.68342 1.29289 1.29289C1.68342 0.902368 2.31658 0.902368 2.70711 1.29289L18.7071 17.2929C19.0976 17.6834 19.0976 18.3166 18.7071 18.7071C18.3166 19.0976 17.6834 19.0976 17.2929 18.7071L1.29289 2.70711Z" fill="currentColor"/></svg>