<svg width="20" height="20" viewBox="0 0 20 20" fill="none" xmlns="http://www.w3.org/2000/svg"><path fill-rule="evenodd" clip-rule="evenodd" d="M7.00221 10L14 14.0372V5.96282L7.00221 10ZM4.50138 9.13381C3.83434 9.51864 3.83434 10.4814 4.50138 10.8662L14.5003 16.6348C15.1669 17.0194 16 16.5382 16 15.7686V4.23141C16 3.46175 15.1669 2.98061 14.5003 3.36522L4.50138 9.13381Z" fill="currentColor"/><path d="M1.29289 2.70711C0.902369 2.31658 0.902369 1.68342 1.29289 1.29289C1.68342 0.902368 2.31658 0.902368 2.70711 1.29289L18.7071 17.2929C19.0976 17.6834 19.0976 18.3166 18.7071 18.7071C18.3166 19.0976 17.6834 19.0976 17.2929 18.7071L1.29289 2.70711Z" fill="currentColor"/></svg>