<svg width="20" height="20" viewBox="0 0 26 26" fill="none" xmlns="http://www.w3.org/2000/svg"><g transform="translate(3, 3)"><path fill-rule="evenodd" clip-rule="evenodd" d="M10 12.9978L14.0372 6.00001H5.96282L10 12.9978ZM9.13381 15.4986C9.51864 16.1657 10.4814 16.1657 10.8662 15.4986L16.6348 5.49973C17.0194 4.83307 16.5382 4.00001 15.7686 4.00001H4.23141C3.46175 4.00001 2.98061 4.83307 3.36522 5.49973L9.13381 15.4986Z" fill="currentColor"/></g><path fill-rule="evenodd" clip-rule="evenodd" d="M13 24C19.0751 24 24 19.0751 24 13C24 6.92487 19.0751 2 13 2C6.92487 2 2 6.92487 2 13C2 19.0751 6.92487 24 13 24ZM13 26C20.1797 26 26 20.1797 26 13C26 5.8203 20.1797 0 13 0C5.8203 0 0 5.8203 0 13C0 20.1797 5.8203 26 13 26Z" fill="currentColor"/></svg>