<svg width="20" height="20" viewBox="0 0 26 26" fill="none" xmlns="http://www.w3.org/2000/svg"><defs><mask id="mask-pop-triangle-down-filled-circle-filled"><rect width="26" height="26" fill="white"/><g transform="translate(3, 3)"><path fill-rule="evenodd" clip-rule="evenodd" d="M10.8662 15.4986C10.4814 16.1657 9.51864 16.1657 9.13381 15.4986L3.36522 5.49973C2.98061 4.83307 3.46175 4.00001 4.23141 4.00001H15.7686C16.5382 4.00001 17.0194 4.83307 16.6348 5.49973L10.8662 15.4986Z" fill="black"/><path fill-rule="evenodd" clip-rule="evenodd" d="M3.36522 5.49973C2.98061 4.83307 3.46175 4.00001 4.23141 4.00001H15.7686C16.5382 4.00001 17.0194 4.83307 16.6348 5.49973L10.8662 15.4986C10.4814 16.1657 9.51864 16.1657 9.13381 15.4986L3.36522 5.49973ZM10 10.9967L12.3058 7.00001H7.69423L10 10.9967Z" fill="black"/></g></mask></defs><circle r="13" cx="13" cy="13" mask="url(#mask-pop-triangle-down-filled-circle-filled)" fill="currentColor"/></svg>