<svg width="20" height="20" viewBox="0 0 26 26" fill="none" xmlns="http://www.w3.org/2000/svg"><g transform="translate(3, 3)"><path fill-rule="evenodd" clip-rule="evenodd" d="M7.00221 10L14 14.0372V5.96282L7.00221 10ZM4.50138 9.13381C3.83434 9.51864 3.83434 10.4814 4.50138 10.8662L14.5003 16.6348C15.1669 17.0194 16 16.5382 16 15.7686V4.23141C16 3.46175 15.1669 2.98061 14.5003 3.36522L4.50138 9.13381Z" fill="currentColor"/></g><path fill-rule="evenodd" clip-rule="evenodd" d="M13 24C19.0751 24 24 19.0751 24 13C24 6.92487 19.0751 2 13 2C6.92487 2 2 6.92487 2 13C2 19.0751 6.92487 24 13 24ZM13 26C20.1797 26 26 20.1797 26 13C26 5.8203 20.1797 0 13 0C5.8203 0 0 5.8203 0 13C0 20.1797 5.8203 26 13 26Z" fill="currentColor"/></svg>