<svg width="20" height="20" viewBox="0 0 26 26" fill="none" xmlns="http://www.w3.org/2000/svg"><g transform="translate(3, 3)"><path fill-rule="evenodd" clip-rule="evenodd" d="M4.50138 10.8662C3.83434 10.4814 3.83434 9.51864 4.50138 9.13381L14.5003 3.36522C15.1669 2.98061 16 3.46175 16 4.23141V15.7686C16 16.5382 15.1669 17.0194 14.5003 16.6348L4.50138 10.8662Z" fill="currentColor"/><path fill-rule="evenodd" clip-rule="evenodd" d="M14.5003 3.36522C15.1669 2.98061 16 3.46175 16 4.23141V15.7686C16 16.5382 15.1669 17.0194 14.5003 16.6348L4.50138 10.8662C3.83434 10.4814 3.83434 9.51864 4.50138 9.13381L14.5003 3.36522ZM9.00332 10L13 12.3058V7.69423L9.00332 10Z" fill="currentColor"/><path d="M1.29289 2.70711C0.902369 2.31658 0.902369 1.68342 1.29289 1.29289C1.68342 0.902368 2.31658 0.902368 2.70711 1.29289L18.7071 17.2929C19.0976 17.6834 19.0976 18.3166 18.7071 18.7071C18.3166 19.0976 17.6834 19.0976 17.2929 18.7071L1.29289 2.70711Z" fill="currentColor"/></g><path fill-rule="evenodd" clip-rule="evenodd" d="M13 24C19.0751 24 24 19.0751 24 13C24 6.92487 19.0751 2 13 2C6.92487 2 2 6.92487 2 13C2 19.0751 6.92487 24 13 24ZM13 26C20.1797 26 26 20.1797 26 13C26 5.8203 20.1797 0 13 0C5.8203 0 0 5.8203 0 13C0 20.1797 5.8203 26 13 26Z" fill="currentColor"/></svg>