<svg width="20" height="20" viewBox="0 0 26 26" fill="none" xmlns="http://www.w3.org/2000/svg"><defs><mask id="mask-pop-triangle-up-filled-circle-filled"><rect width="26" height="26" fill="white"/><g transform="translate(3, 3)"><path fill-rule="evenodd" clip-rule="evenodd" d="M9.13381 4.50138C9.51864 3.83434 10.4814 3.83434 10.8662 4.50138L16.6348 14.5003C17.0194 15.1669 16.5382 16 15.7686 16H4.23141C3.46175 16 2.98061 15.1669 3.36522 14.5003L9.13381 4.50138Z" fill="black"/><path fill-rule="evenodd" clip-rule="evenodd" d="M16.6348 14.5003C17.0194 15.1669 16.5382 16 15.7686 16H4.23141C3.46175 16 2.98061 15.1669 3.36522 14.5003L9.13381 4.50138C9.51864 3.83434 10.4814 3.83434 10.8662 4.50138L16.6348 14.5003ZM10 9.00332L7.69423 13H12.3058L10 9.00332Z" fill="black"/></g></mask></defs><circle r="13" cx="13" cy="13" mask="url(#mask-pop-triangle-up-filled-circle-filled)" fill="currentColor"/></svg>