<svg width="20" height="20" viewBox="0 0 26 26" fill="none" xmlns="http://www.w3.org/2000/svg"><g transform="translate(3, 3)"><path fill-rule="evenodd" clip-rule="evenodd" d="M15.4986 9.13381C16.1657 9.51864 16.1657 10.4814 15.4986 10.8662L5.49973 16.6348C4.83307 17.0194 4.00001 16.5382 4.00001 15.7686L4.00001 4.23141C4.00001 3.46175 4.83307 2.98061 5.49973 3.36522L15.4986 9.13381Z" fill="currentColor"/><path fill-rule="evenodd" clip-rule="evenodd" d="M5.49973 16.6348C4.83307 17.0194 4.00001 16.5382 4.00001 15.7686L4.00001 4.23141C4.00001 3.46175 4.83307 2.98061 5.49973 3.36522L15.4986 9.13381C16.1657 9.51864 16.1657 10.4814 15.4986 10.8662L5.49973 16.6348ZM10.9967 10L7.00001 7.69423L7.00001 12.3058L10.9967 10Z" fill="currentColor"/></g><path fill-rule="evenodd" clip-rule="evenodd" d="M13 24C19.0751 24 24 19.0751 24 13C24 6.92487 19.0751 2 13 2C6.92487 2 2 6.92487 2 13C2 19.0751 6.92487 24 13 24ZM13 26C20.1797 26 26 20.1797 26 13C26 5.8203 20.1797 0 13 0C5.8203 0 0 5.8203 0 13C0 20.1797 5.8203 26 13 26Z" fill="currentColor"/></svg>