<svg width="20" height="20" viewBox="0 0 20 20" fill="none" xmlns="http://www.w3.org/2000/svg"><path fill-rule="evenodd" clip-rule="evenodd" d="M10 12.9978L14.0372 6.00001H5.96282L10 12.9978ZM9.13381 15.4986C9.51864 16.1657 10.4814 16.1657 10.8662 15.4986L16.6348 5.49973C17.0194 4.83307 16.5382 4.00001 15.7686 4.00001H4.23141C3.46175 4.00001 2.98061 4.83307 3.36522 5.49973L9.13381 15.4986Z" fill="currentColor"/><path d="M1.29289 2.70711C0.902369 2.31658 0.902369 1.68342 1.29289 1.29289C1.68342 0.902368 2.31658 0.902368 2.70711 1.29289L18.7071 17.2929C19.0976 17.6834 19.0976 18.3166 18.7071 18.7071C18.3166 19.0976 17.6834 19.0976 17.2929 18.7071L1.29289 2.70711Z" fill="currentColor"/></svg>