<svg width="20" height="20" viewBox="0 0 26 26" fill="none" xmlns="http://www.w3.org/2000/svg"><defs><mask id="mask-pop-triangle-left-filled-circle-filled"><rect width="26" height="26" fill="white"/><g transform="translate(3, 3)"><path fill-rule="evenodd" clip-rule="evenodd" d="M4.50138 10.8662C3.83434 10.4814 3.83434 9.51864 4.50138 9.13381L14.5003 3.36522C15.1669 2.98061 16 3.46175 16 4.23141V15.7686C16 16.5382 15.1669 17.0194 14.5003 16.6348L4.50138 10.8662Z" fill="black"/><path fill-rule="evenodd" clip-rule="evenodd" d="M14.5003 3.36522C15.1669 2.98061 16 3.46175 16 4.23141V15.7686C16 16.5382 15.1669 17.0194 14.5003 16.6348L4.50138 10.8662C3.83434 10.4814 3.83434 9.51864 4.50138 9.13381L14.5003 3.36522ZM9.00332 10L13 12.3058V7.69423L9.00332 10Z" fill="black"/></g></mask></defs><circle r="13" cx="13" cy="13" mask="url(#mask-pop-triangle-left-filled-circle-filled)" fill="currentColor"/></svg>