<svg width="20" height="20" viewBox="0 0 26 26" fill="none" xmlns="http://www.w3.org/2000/svg"><g transform="translate(3, 3)"><path d="M7.5 18.75C6.25736 18.75 5.25 17.7426 5.25 16.5C5.25 15.2574 6.25736 14.25 7.5 14.25C8.74264 14.25 9.75 15.2574 9.75 16.5C9.75 17.7426 8.74264 18.75 7.5 18.75Z" fill="currentColor"/><path d="M16.5 18.75C15.2574 18.75 14.25 17.7426 14.25 16.5C14.25 15.2574 15.2574 14.25 16.5 14.25C17.7426 14.25 18.75 15.2574 18.75 16.5C18.75 17.7426 17.7426 18.75 16.5 18.75Z" fill="currentColor"/><path fill-rule="evenodd" clip-rule="evenodd" d="M18 4.5H8C6.89543 4.5 6 5.39543 6 6.5V14C6 15.1046 6.89543 16 8 16H18C19.1046 16 20 15.1046 20 14V6.5C20 5.39543 19.1046 4.5 18 4.5ZM8 14V6.5H18V14H8Z" fill="currentColor"/><path d="M10.25 8.75C9.97386 8.75 9.75 8.52614 9.75 8.25C9.75 7.97386 9.97386 7.75 10.25 7.75H15.75C16.0261 7.75 16.25 7.97386 16.25 8.25C16.25 8.52614 16.0261 8.75 15.75 8.75H10.25Z" fill="currentColor"/><path d="M10.25 10.75C9.97386 10.75 9.75 10.5261 9.75 10.25C9.75 9.97386 9.97386 9.75 10.25 9.75H15.75C16.0261 9.75 16.25 9.97386 16.25 10.25C16.25 10.5261 16.0261 10.75 15.75 10.75H10.25Z" fill="currentColor"/><path d="M10.25 12.75C9.97386 12.75 9.75 12.5261 9.75 12.25C9.75 11.9739 9.97386 11.75 10.25 11.75H15.75C16.0261 11.75 16.25 11.9739 16.25 12.25C16.25 12.5261 16.0261 12.75 15.75 12.75H10.25Z" fill="currentColor"/><path fill-rule="evenodd" clip-rule="evenodd" d="M6 7.5H2.73605C1.8463 7.5 1.06354 8.08778 0.815401 8.94223L0 11.75V14C0 15.1046 0.89543 16 2 16H6C7.10457 16 8 15.1046 8 14V9.5C8 8.39543 7.10457 7.5 6 7.5ZM2 14V12.0345L2.73605 9.5H6V14H2Z" fill="currentColor"/><path d="M3.29046 10.1H5C5.27614 10.1 5.5 10.3238 5.5 10.6V12.6C5.5 12.8761 5.27614 13.1 5 13.1H3C2.72386 13.1 2.5 12.8761 2.5 12.6V11.75L2.51522 11.6276L2.80568 10.4775C2.86175 10.2555 3.06147 10.1 3.29046 10.1Z" fill="currentColor"/></g><path fill-rule="evenodd" clip-rule="evenodd" d="M13 24C19.0751 24 24 19.0751 24 13C24 6.92487 19.0751 2 13 2C6.92487 2 2 6.92487 2 13C2 19.0751 6.92487 24 13 24ZM13 26C20.1797 26 26 20.1797 26 13C26 5.8203 20.1797 0 13 0C5.8203 0 0 5.8203 0 13C0 20.1797 5.8203 26 13 26Z" fill="currentColor"/></svg>