<svg width="20" height="20" viewBox="0 0 20 20" fill="none" xmlns="http://www.w3.org/2000/svg"><path d="M11.3863 17.3581C11.515 17.3581 11.6111 17.1982 11.6111 16.3198C11.6111 15.7676 12.0588 15.3198 12.6111 15.3198C13.1634 15.3198 13.6111 15.7676 13.6111 16.3198C13.6111 18.1592 12.8907 19.3581 11.3863 19.3581C10.0411 19.3581 9.17227 18.507 9.00701 17.1182L9 17V10.5C9 9.94772 9.44772 9.5 10 9.5C10.5523 9.5 11 9.94772 11 10.5V16.9379C11.0488 17.3087 11.1119 17.3581 11.3863 17.3581Z" fill="currentColor"/><path d="M9 1.5C9 0.947715 9.44772 0.5 10 0.5C10.5523 0.5 11 0.947715 11 1.5V3C11 3.55228 10.5523 4 10 4C9.44772 4 9 3.55228 9 3L9 1.5Z" fill="currentColor"/><path fill-rule="evenodd" clip-rule="evenodd" d="M5.66803 11.2348C5.70837 11.1785 5.74282 11.1304 5.75566 11.1127C5.91724 10.8896 6.04642 10.7345 6.12513 10.6432C6.1774 10.6826 6.24691 10.737 6.34702 10.8162C7.06596 11.3853 7.47315 11.6014 8.16417 11.4864C8.56768 11.4193 8.88935 11.2531 9.3036 10.964C9.36217 10.9231 9.41133 10.888 9.50965 10.817C9.851 10.571 9.98417 10.5004 10.0162 10.4999C10.017 10.4999 10.1455 10.5685 10.4822 10.8134L10.5664 10.8745C11.0756 11.2426 11.3943 11.4194 11.8497 11.4886C12.543 11.5941 12.9334 11.3718 13.6611 10.7686C13.755 10.6908 13.8227 10.6353 13.875 10.5938C13.8792 10.5992 13.8837 10.6048 13.8882 10.6105C13.9659 10.7084 14.0873 10.8613 14.2344 11.0701C14.2391 11.0768 14.2556 11.1004 14.2783 11.1329C14.342 11.224 14.4546 11.3853 14.4962 11.4435C14.6062 11.5979 14.6973 11.7186 14.7894 11.8282C15.1433 12.2496 15.4778 12.4979 15.9962 12.4999C17.2043 12.5045 18 11.6884 18 10.5C18 6.00945 14.5737 2.5 10.1135 2.5C5.61932 2.5 2 6.04373 2 10.5C2 11.691 2.80684 12.4653 3.97058 12.4996C4.49773 12.5151 4.84171 12.2702 5.20109 11.8524C5.29327 11.7452 5.38393 11.6278 5.49488 11.4756C5.52617 11.4327 5.60443 11.3235 5.66803 11.2348ZM4.0123 10.1117C4.21305 6.95433 6.84728 4.5 10.1135 4.5C13.3213 4.5 15.7905 6.89462 15.9873 10.0869L15.8695 9.91849C15.2637 9.05819 14.8777 8.65893 14.2005 8.52031C13.7705 8.43229 13.384 8.53828 13.0099 8.76164C12.8134 8.879 12.7042 8.96398 12.3847 9.22882C12.2299 9.35714 12.1385 9.42855 12.0688 9.47431C12.0017 9.43641 11.8947 9.36694 11.7382 9.25373L11.6585 9.19592C10.9452 8.67711 10.5954 8.49025 9.98384 8.50013C9.38495 8.50981 9.02693 8.69953 8.34016 9.19458C8.2447 9.26343 8.20591 9.29119 8.15893 9.32398C8.04542 9.40321 7.96278 9.45402 7.90806 9.48298C7.83841 9.4411 7.74687 9.37356 7.58824 9.248C7.26436 8.99166 7.16224 8.91568 6.96646 8.80468C6.59508 8.59412 6.21204 8.49791 5.79041 8.58829C5.12256 8.73144 4.72218 9.13005 4.13588 9.93956C4.11944 9.96226 4.07861 10.0192 4.03366 10.0819L4.0123 10.1117Z" fill="currentColor"/></svg>