<svg width="20" height="20" viewBox="0 0 26 26" fill="none" xmlns="http://www.w3.org/2000/svg"><g transform="translate(3, 3)"><path fill-rule="evenodd" clip-rule="evenodd" d="M10 6.5C8.067 6.5 6.5 8.067 6.5 10C6.5 11.933 8.067 13.5 10 13.5C11.933 13.5 13.5 11.933 13.5 10C13.5 8.067 11.933 6.5 10 6.5ZM4.5 10C4.5 6.96243 6.96243 4.5 10 4.5C13.0376 4.5 15.5 6.96243 15.5 10C15.5 13.0376 13.0376 15.5 10 15.5C6.96243 15.5 4.5 13.0376 4.5 10Z" fill="currentColor"/><path fill-rule="evenodd" clip-rule="evenodd" d="M10 7.75C10.4142 7.75 10.75 8.08579 10.75 8.5V10C10.75 10.4142 10.4142 10.75 10 10.75C9.58579 10.75 9.25 10.4142 9.25 10V8.5C9.25 8.08579 9.58579 7.75 10 7.75Z" fill="currentColor"/><path fill-rule="evenodd" clip-rule="evenodd" d="M12.25 10C12.25 10.4142 11.9142 10.75 11.5 10.75H10C9.58579 10.75 9.25 10.4142 9.25 10C9.25 9.58579 9.58579 9.25 10 9.25H11.5C11.9142 9.25 12.25 9.58579 12.25 10Z" fill="currentColor"/><path fill-rule="evenodd" clip-rule="evenodd" d="M7.5 2.5C7.5 1.94772 7.94772 1.5 8.5 1.5H11.5C12.0523 1.5 12.5 1.94772 12.5 2.5C12.5 3.05228 12.0523 3.5 11.5 3.5H8.5C7.94772 3.5 7.5 3.05228 7.5 2.5Z" fill="currentColor"/><path fill-rule="evenodd" clip-rule="evenodd" d="M8.77472 1.53849C9.30575 1.69021 9.61325 2.2437 9.46152 2.77473L8.46152 6.27473C8.3098 6.80577 7.75631 7.11326 7.22528 6.96154C6.69424 6.80981 6.38675 6.25633 6.53847 5.72529L7.53847 2.22529C7.6902 1.69426 8.24368 1.38677 8.77472 1.53849Z" fill="currentColor"/><path fill-rule="evenodd" clip-rule="evenodd" d="M8.77472 18.4615C9.30575 18.3098 9.61325 17.7563 9.46152 17.2253L8.46152 13.7253C8.3098 13.1942 7.75631 12.8867 7.22528 13.0385C6.69424 13.1902 6.38675 13.7437 6.53847 14.2747L7.53847 17.7747C7.6902 18.3057 8.24368 18.6132 8.77472 18.4615Z" fill="currentColor"/><path fill-rule="evenodd" clip-rule="evenodd" d="M11.2253 18.4615C10.6942 18.3098 10.3868 17.7563 10.5385 17.2253L11.5385 13.7253C11.6902 13.1942 12.2437 12.8867 12.7747 13.0385C13.3058 13.1902 13.6133 13.7437 13.4615 14.2747L12.4615 17.7747C12.3098 18.3057 11.7563 18.6132 11.2253 18.4615Z" fill="currentColor"/><path fill-rule="evenodd" clip-rule="evenodd" d="M11.2253 1.53849C10.6942 1.69021 10.3868 2.2437 10.5385 2.77473L11.5385 6.27473C11.6902 6.80577 12.2437 7.11326 12.7747 6.96154C13.3058 6.80981 13.6133 6.25633 13.4615 5.72529L12.4615 2.22529C12.3098 1.69426 11.7563 1.38677 11.2253 1.53849Z" fill="currentColor"/><path fill-rule="evenodd" clip-rule="evenodd" d="M7.5 17.5C7.5 16.9477 7.94772 16.5 8.5 16.5H11.5C12.0523 16.5 12.5 16.9477 12.5 17.5C12.5 18.0523 12.0523 18.5 11.5 18.5H8.5C7.94772 18.5 7.5 18.0523 7.5 17.5Z" fill="currentColor"/><path d="M1.29289 2.70711C0.902369 2.31658 0.902369 1.68342 1.29289 1.29289C1.68342 0.902368 2.31658 0.902368 2.70711 1.29289L18.7071 17.2929C19.0976 17.6834 19.0976 18.3166 18.7071 18.7071C18.3166 19.0976 17.6834 19.0976 17.2929 18.7071L1.29289 2.70711Z" fill="currentColor"/></g><path fill-rule="evenodd" clip-rule="evenodd" d="M13 24C19.0751 24 24 19.0751 24 13C24 6.92487 19.0751 2 13 2C6.92487 2 2 6.92487 2 13C2 19.0751 6.92487 24 13 24ZM13 26C20.1797 26 26 20.1797 26 13C26 5.8203 20.1797 0 13 0C5.8203 0 0 5.8203 0 13C0 20.1797 5.8203 26 13 26Z" fill="currentColor"/></svg>