<svg width="20" height="20" viewBox="0 0 26 26" fill="none" xmlns="http://www.w3.org/2000/svg"><g transform="translate(3, 3)"><g><path fill-rule="evenodd" clip-rule="evenodd" d="M13.0246 4.40211C12.6555 4.21159 12.5566 3.96243 12.5853 3.68921C12.6118 3.43679 12.7472 3.16384 12.8793 2.89762C12.9035 2.84894 12.9275 2.80048 12.9508 2.75241C13.1688 2.30174 13.3165 1.88554 12.828 1.64128C12.4889 1.67875 12.1581 1.72751 11.8358 1.78652C11.6087 1.82811 11.3857 1.87479 11.167 1.92619C11.1525 1.92961 11.1379 1.93306 11.1234 1.93652C7.00751 2.91817 4.39166 5.57417 3.41378 7.46836C1.60656 10.969 2.97937 15.2719 6.48004 17.0792C9.98071 18.8864 14.2836 17.5136 16.0908 14.0129C17.8981 10.5122 16.5253 6.20933 13.0246 4.40211ZM10.6085 4.16232C7.66402 5.14998 5.84596 7.117 5.19094 8.38582C3.89041 10.905 4.87832 14.0015 7.3975 15.302C9.91668 16.6025 13.0132 15.6146 14.3137 13.0954C15.6142 10.5763 14.6263 7.47979 12.1071 6.17926C11.7102 5.97432 11.2914 5.65969 10.9857 5.17924C10.7717 4.84304 10.6568 4.49408 10.6085 4.16232Z" fill="currentColor"/><path fill-rule="evenodd" clip-rule="evenodd" d="M7.45759 10.1833C7.55826 9.64401 7.20519 9.1235 6.6657 9.01843C6.1236 8.91286 5.59856 9.26673 5.49298 9.80883L6.47454 9.99999C5.49298 9.80883 5.49304 9.80855 5.49298 9.80883L5.49252 9.81121L5.492 9.81394L5.49079 9.8204L5.48774 9.8373C5.48546 9.8503 5.48271 9.86677 5.47967 9.88646C5.47359 9.92578 5.46633 9.97828 5.45946 10.0419C5.44581 10.1685 5.43333 10.343 5.43583 10.5483C5.44071 10.9485 5.50303 11.521 5.77236 12.0895C6.04052 12.6555 6.43851 13.0639 6.74266 13.3205C6.89836 13.4518 7.0398 13.552 7.14544 13.6212C7.19854 13.656 7.24339 13.6835 7.27747 13.7036C7.29453 13.7137 7.30897 13.722 7.32046 13.7284L7.3355 13.7368L7.34131 13.74L7.34378 13.7413L7.3449 13.7419C7.34516 13.7421 7.34595 13.7425 7.81978 12.8619L7.34595 13.7425C7.8323 14.0042 8.4387 13.822 8.70039 13.3357C8.96081 12.8517 8.78171 12.2488 8.30067 11.9851C8.30067 11.9851 8.30067 11.9851 8.30067 11.9851C8.29955 11.9844 8.2974 11.9832 8.29432 11.9814C8.28474 11.9757 8.26641 11.9646 8.24136 11.9482C8.19069 11.915 8.11597 11.8624 8.03225 11.7918C7.85757 11.6444 7.6837 11.4525 7.57976 11.2331C7.47697 11.0162 7.43854 10.758 7.43568 10.5239C7.43432 10.4121 7.44123 10.3185 7.44794 10.2563C7.45125 10.2256 7.45441 10.2035 7.45621 10.1919L7.45759 10.1833Z" fill="currentColor"/></g><path d="M1.29289 2.70711C0.902369 2.31658 0.902369 1.68342 1.29289 1.29289C1.68342 0.902368 2.31658 0.902368 2.70711 1.29289L18.7071 17.2929C19.0976 17.6834 19.0976 18.3166 18.7071 18.7071C18.3166 19.0976 17.6834 19.0976 17.2929 18.7071L1.29289 2.70711Z" fill="currentColor"/></g><path fill-rule="evenodd" clip-rule="evenodd" d="M13 24C19.0751 24 24 19.0751 24 13C24 6.92487 19.0751 2 13 2C6.92487 2 2 6.92487 2 13C2 19.0751 6.92487 24 13 24ZM13 26C20.1797 26 26 20.1797 26 13C26 5.8203 20.1797 0 13 0C5.8203 0 0 5.8203 0 13C0 20.1797 5.8203 26 13 26Z" fill="currentColor"/></svg>