<svg xmlns="http://www.w3.org/2000/svg" width="20" height="20" viewBox="0 0 20 20"><g fill="none" fill-rule="evenodd" stroke="currentColor" transform="rotate(-90 9.5 7.5)"><path stroke-linecap="round" stroke-linejoin="round" stroke-width="2" d="M5 11c.052-.053.102-.11.15-.171.196-.243.365-.541.5-.881A5.34 5.34 0 0 0 6 8c0-1.16-.334-2.188-.85-2.829A2.264 2.264 0 0 0 5 5"/><path stroke-linecap="round" stroke-width="2" d="M7.61 13.5c.123-.12.24-.25.355-.387a6.447 6.447 0 0 0 .887-1.438 7.716 7.716 0 0 0 .417-1.143 8.776 8.776 0 0 0 .255-1.241A9.54 9.54 0 0 0 9.61 8a9.816 9.816 0 0 0-.086-1.29 9.196 9.196 0 0 0-.255-1.242 8.28 8.28 0 0 0-.417-1.143 7.097 7.097 0 0 0-.56-1.002 5.791 5.791 0 0 0-.327-.436A5.159 5.159 0 0 0 7.61 2.5m2.501 13c.184-.164.362-.34.532-.528a8.01 8.01 0 0 0 .491-.595c.156-.208.305-.427.445-.655a9.37 9.37 0 0 0 .737-1.47 10.57 10.57 0 0 0 .506-1.633 11.501 11.501 0 0 0 .257-1.735 12.173 12.173 0 0 0-.096-2.644 11.501 11.501 0 0 0-.384-1.692 10.57 10.57 0 0 0-.625-1.559 9.37 9.37 0 0 0-.395-.71 8.697 8.697 0 0 0-.445-.656 8.01 8.01 0 0 0-.49-.595A7.336 7.336 0 0 0 10.11.5"/><circle cx="1.75" cy="8" r="1.25" fill="currentColor" stroke-width="1.5"/></g></svg>