<svg width="20" height="20" viewBox="0 0 20 20" fill="none" xmlns="http://www.w3.org/2000/svg"><path d="M13.6961 11.2821C14.0926 11.6665 14.1024 12.2996 13.7179 12.6961C13.3335 13.0926 12.7004 13.1024 12.3039 12.7179C12.273 12.688 12.2391 12.6581 12.2022 12.6285C12.0406 12.4986 11.8292 12.3788 11.5791 12.2796C11.1265 12.1001 10.5793 12 10 12C9.08604 12 8.26716 12.2511 7.79777 12.6285C7.76089 12.6581 7.72699 12.688 7.69613 12.7179C7.29964 13.1024 6.66655 13.0926 6.28209 12.6961C5.89762 12.2996 5.90738 11.6665 6.30387 11.2821C6.37977 11.2085 6.46015 11.1377 6.54472 11.0697C7.39422 10.3868 8.65538 10 10 10C10.8267 10 11.6239 10.1459 12.3163 10.4204C12.7456 10.5907 13.131 10.809 13.4553 11.0697C13.5399 11.1377 13.6202 11.2085 13.6961 11.2821Z" fill="currentColor"/><path d="M16.2128 8.68869C16.6002 9.08238 16.595 9.71553 16.2013 10.1029C15.8076 10.4902 15.1745 10.485 14.7872 10.0913C14.6908 9.99338 14.5866 9.89798 14.4751 9.80557C14.362 9.71196 14.2416 9.62159 14.1142 9.53491C13.9855 9.44731 13.8498 9.36361 13.7078 9.28424C13.5647 9.20419 13.4152 9.12866 13.2601 9.05801C13.104 8.9869 12.9424 8.92084 12.7758 8.86013C12.6085 8.79914 12.4364 8.74364 12.2601 8.6939C12.0833 8.64404 11.9026 8.60002 11.7185 8.56207C11.5345 8.52413 11.3472 8.49229 11.1573 8.46673C10.968 8.44124 10.7762 8.42202 10.5824 8.40919C10.3899 8.39644 10.1956 8.39001 10 8.39001C9.80443 8.39001 9.61014 8.39644 9.4176 8.40919C9.22385 8.42202 9.03203 8.44124 8.84266 8.46673C8.65277 8.49229 8.46552 8.52413 8.28146 8.56207C8.09736 8.60002 7.91666 8.64404 7.73993 8.6939C7.56364 8.74364 7.39152 8.79914 7.22416 8.86013C7.0576 8.92084 6.89597 8.9869 6.73987 9.05801C6.58477 9.12866 6.43534 9.20419 6.29217 9.28424C6.15018 9.36361 6.01455 9.44731 5.88581 9.53491C5.75842 9.62159 5.63797 9.71196 5.52494 9.80557C5.41338 9.89798 5.30922 9.99338 5.21284 10.0913C4.82551 10.485 4.19237 10.4902 3.79868 10.1029C3.40498 9.71553 3.39983 9.08238 3.78716 8.68869C3.93166 8.54182 4.0859 8.40053 4.24924 8.26525C4.41113 8.13118 4.58183 8.0031 4.76069 7.8814C4.93819 7.76061 5.12361 7.6462 5.31623 7.53851C5.50766 7.4315 5.70608 7.3312 5.91079 7.23795C6.11446 7.14517 6.32421 7.05944 6.53934 6.98104C6.75355 6.90297 6.97295 6.83222 7.19683 6.76905C7.41971 6.70617 7.64688 6.65083 7.87767 6.60326C8.10719 6.55594 8.34013 6.51634 8.57585 6.48461C8.80999 6.45309 9.04673 6.42936 9.28546 6.41356C9.522 6.39789 9.76036 6.39001 10 6.39001C10.2396 6.39001 10.478 6.39789 10.7145 6.41356C10.9533 6.42936 11.19 6.45309 11.4241 6.48461C11.6599 6.51634 11.8928 6.55594 12.1223 6.60326C12.3531 6.65083 12.5803 6.70617 12.8032 6.76905C13.0271 6.83222 13.2464 6.90297 13.4607 6.98104C13.6758 7.05944 13.8855 7.14517 14.0892 7.23795C14.2939 7.3312 14.4923 7.4315 14.6838 7.53851C14.8764 7.6462 15.0618 7.76061 15.2393 7.8814C15.4182 8.0031 15.5889 8.13118 15.7508 8.26525C15.9141 8.40053 16.0683 8.54182 16.2128 8.68869Z" fill="currentColor"/><path d="M18.2454 6.22201C18.6136 6.63366 18.5783 7.26584 18.1667 7.63403C17.755 8.00221 17.1228 7.96697 16.7546 7.55532C16.6133 7.3973 16.4611 7.24398 16.2987 7.09599C16.1352 6.94702 15.9614 6.80363 15.7782 6.66645C15.5939 6.5285 15.4001 6.397 15.1977 6.27253C14.9944 6.14748 14.7825 6.02968 14.5629 5.91965C14.3426 5.80922 14.1147 5.70676 13.8801 5.61271C13.6448 5.51841 13.4031 5.43268 13.1558 5.35591C12.9082 5.27907 12.6552 5.21129 12.3976 5.15288C12.1404 5.09455 11.8788 5.04562 11.6136 5.00636C11.3494 4.96723 11.0818 4.93773 10.8116 4.91805C10.5433 4.89851 10.2725 4.88866 10 4.88866C9.72751 4.88866 9.45676 4.89851 9.18838 4.91805C8.91819 4.93773 8.65062 4.96723 8.38638 5.00636C8.12121 5.04562 7.85962 5.09455 7.60238 5.15288C7.34479 5.21129 7.0918 5.27907 6.84422 5.35591C6.59687 5.43268 6.35518 5.51841 6.11995 5.61271C5.88536 5.70676 5.65746 5.80922 5.43708 5.91965C5.2175 6.02968 5.00564 6.14748 4.80229 6.27253C4.59988 6.397 4.40615 6.5285 4.22185 6.66645C4.03857 6.80363 3.86484 6.94702 3.70132 7.09599C3.53888 7.24398 3.38671 7.3973 3.24538 7.55532C2.87719 7.96697 2.24501 8.00221 1.83335 7.63403C1.4217 7.26584 1.38646 6.63366 1.75464 6.22201C1.94178 6.01278 2.14198 5.81106 2.35441 5.61753C2.56577 5.42498 2.78906 5.24069 3.02339 5.06529C3.2567 4.89067 3.50075 4.725 3.75463 4.56888C4.00757 4.41334 4.27004 4.26739 4.54111 4.13157C4.81132 3.99617 5.08986 3.87094 5.37575 3.75633C5.66085 3.64203 5.95304 3.53839 6.25138 3.4458C6.54872 3.35351 6.85193 3.27227 7.1601 3.20239C7.46682 3.13284 7.77822 3.0746 8.09344 3.02793C8.40671 2.98154 8.72353 2.94661 9.04309 2.92334C9.35982 2.90027 9.67904 2.88866 10 2.88866C10.321 2.88866 10.6402 2.90027 10.9569 2.92334C11.2765 2.94661 11.5933 2.98154 11.9066 3.02793C12.2218 3.0746 12.5332 3.13284 12.8399 3.20239C13.1481 3.27227 13.4513 3.35351 13.7486 3.4458C14.047 3.53839 14.3392 3.64203 14.6243 3.75633C14.9102 3.87094 15.1887 3.99617 15.4589 4.13157C15.73 4.26739 15.9925 4.41334 16.2454 4.56888C16.4993 4.725 16.7433 4.89067 16.9766 5.06529C17.211 5.24069 17.4342 5.42498 17.6456 5.61753C17.858 5.81106 18.0582 6.01278 18.2454 6.22201Z" fill="currentColor"/><path d="M12 15.25C12 16.3546 11.1046 17.25 10 17.25C8.89543 17.25 8 16.3546 8 15.25C8 14.1454 8.89543 13.25 10 13.25C11.1046 13.25 12 14.1454 12 15.25Z" fill="currentColor"/><path d="M1.29289 2.70711C0.902369 2.31658 0.902369 1.68342 1.29289 1.29289C1.68342 0.902368 2.31658 0.902368 2.70711 1.29289L18.7071 17.2929C19.0976 17.6834 19.0976 18.3166 18.7071 18.7071C18.3166 19.0976 17.6834 19.0976 17.2929 18.7071L1.29289 2.70711Z" fill="currentColor"/></svg>