<svg width="20" height="20" viewBox="0 0 20 20" fill="none" xmlns="http://www.w3.org/2000/svg"><path fill-rule="evenodd" clip-rule="evenodd" d="M4.41876 2.18623C4.86817 1.86522 5.49272 1.96931 5.81373 2.41872L10.8137 9.41872C11.1347 9.86814 11.0307 10.4927 10.5812 10.8137C10.1318 11.1347 9.50728 11.0306 9.18627 10.5812L4.18627 3.5812C3.86526 3.13179 3.96935 2.50724 4.41876 2.18623Z" fill="currentColor"/><path fill-rule="evenodd" clip-rule="evenodd" d="M15.5812 2.18623C15.1318 1.86522 14.5073 1.96931 14.1863 2.41872L9.18627 9.41872C8.86526 9.86814 8.96935 10.4927 9.41876 10.8137C9.86817 11.1347 10.4927 11.0306 10.8137 10.5812L15.8137 3.5812C16.1347 3.13179 16.0307 2.50724 15.5812 2.18623Z" fill="currentColor"/><path fill-rule="evenodd" clip-rule="evenodd" d="M4.5 11C4.5 10.4477 4.94772 10 5.5 10H14.5C15.0523 10 15.5 10.4477 15.5 11C15.5 11.5523 15.0523 12 14.5 12H5.5C4.94772 12 4.5 11.5523 4.5 11Z" fill="currentColor"/><path fill-rule="evenodd" clip-rule="evenodd" d="M10 9C10.5523 9 11 9.44772 11 10V17C11 17.5523 10.5523 18 10 18C9.44772 18 9 17.5523 9 17V10C9 9.44772 9.44772 9 10 9Z" fill="currentColor"/></svg>