<svg width="20" height="20" viewBox="0 0 20 20" fill="none" xmlns="http://www.w3.org/2000/svg">
<g opacity="0.8">
<path fill-rule="evenodd" clip-rule="evenodd" d="M11 8C12.1046 8 13 8.89543 13 10V17C13 18.1046 12.1046 19 11 19C9.89543 19 9 18.1046 9 17V10C9 8.89543 9.89543 8 11 8Z" fill="#AB92F0"/>
<path d="M13 5C13 6.10457 12.1046 7 11 7C9.89543 7 9 6.10457 9 5C9 3.89543 9.89543 3 11 3C12.1046 3 13 3.89543 13 5Z" fill="#AB92F0"/>
</g>
<path fill-rule="evenodd" clip-rule="evenodd" d="M10.25 7.75C10.6642 7.75 11 8.08579 11 8.5V17.5C11 17.9142 10.6642 18.25 10.25 18.25C9.83579 18.25 9.5 17.9142 9.5 17.5V8.5C9.5 8.08579 9.83579 7.75 10.25 7.75Z" fill="black"/>
<path d="M11.5 4.25C11.5 4.94036 10.9404 5.5 10.25 5.5C9.55964 5.5 9 4.94036 9 4.25C9 3.55964 9.55964 3 10.25 3C10.9404 3 11.5 3.55964 11.5 4.25Z" fill="black"/>
</svg>
