<svg width="20" height="20" viewBox="0 0 26 26" fill="none" xmlns="http://www.w3.org/2000/svg"><g transform="translate(3, 3)"><path fill-rule="evenodd" clip-rule="evenodd" d="M11.8763 7.57355C11.7598 7.43472 11.6313 7.30706 11.4924 7.19194C11.7874 5.85352 11.4256 4.39003 10.4784 3.26123C9.29583 1.85191 7.44892 1.2615 5.81014 1.73891C5.46349 1.83989 5.33488 2.26376 5.56696 2.54034L7.30843 4.61574C7.48593 4.82728 7.45834 5.14266 7.2468 5.32016L6.66553 5.8079C6.45399 5.9854 6.13861 5.95781 5.96111 5.74627L4.21965 3.67087C3.98756 3.39429 3.5478 3.44734 3.38816 3.77119C2.63343 5.30217 2.89416 7.22354 4.07672 8.63287C5.01194 9.74742 6.36792 10.3571 7.72164 10.3158C7.8143 10.4826 7.92288 10.6406 8.04612 10.7875L13.3484 17.1065C14.2359 18.1642 15.8128 18.3022 16.8705 17.4146C17.9282 16.5271 18.0661 14.9503 17.1786 13.8926L11.8763 7.57355ZM4.84277 7.99008C4.10834 7.11483 3.82676 5.99906 4.02333 4.99264L5.19507 6.38906C5.72757 7.02367 6.67371 7.10645 7.30832 6.57395L7.88959 6.0862C8.5242 5.5537 8.60698 4.60757 8.07447 3.97296L6.90273 2.57653C7.928 2.55771 8.97792 3.02877 9.71235 3.90402C10.5257 4.87332 10.7896 6.14369 10.4446 7.24405C10.377 7.45967 10.4625 7.69383 10.653 7.81527C10.8248 7.92473 10.979 8.0599 11.1103 8.21634L16.4126 14.5354C16.9451 15.17 16.8623 16.1161 16.2277 16.6486C15.5931 17.1811 14.647 17.0983 14.1144 16.4637L8.81216 10.1447C8.67649 9.98302 8.56748 9.80114 8.48888 9.60585C8.40466 9.39659 8.19074 9.26963 7.96671 9.29595C6.83356 9.42906 5.6466 8.94805 4.84277 7.99008Z" fill="currentColor"/><path d="M1.15063 1.87794C0.94979 1.6771 0.94979 1.35147 1.15063 1.15063C1.35147 0.949789 1.6771 0.949789 1.87794 1.15063L18.8494 18.1221C19.0502 18.3229 19.0502 18.6485 18.8494 18.8494C18.6485 19.0502 18.3229 19.0502 18.1221 18.8494L1.15063 1.87794Z" fill="currentColor"/></g><path fill-rule="evenodd" clip-rule="evenodd" d="M13 24.5C19.3513 24.5 24.5 19.3513 24.5 13C24.5 6.64873 19.3513 1.5 13 1.5C6.64873 1.5 1.5 6.64873 1.5 13C1.5 19.3513 6.64873 24.5 13 24.5ZM13 25.5C19.9036 25.5 25.5 19.9036 25.5 13C25.5 6.09644 19.9036 0.5 13 0.5C6.09644 0.5 0.5 6.09644 0.5 13C0.5 19.9036 6.09644 25.5 13 25.5Z" fill="currentColor"/></svg>