<svg width="20" height="22" viewBox="0 0 20 22" fill="none" xmlns="http://www.w3.org/2000/svg">
<path fill-rule="evenodd" clip-rule="evenodd" d="M7.375 1.25C6.2014 1.25 5.25 2.2014 5.25 3.375V10.9725L4.36973 9.94553C3.66233 9.12022 2.43583 8.98558 1.56622 9.63775C0.675955 10.3054 0.475845 11.5589 1.114 12.4706L3.87065 16.4088C4.65813 17.7157 5.60187 18.8048 6.78006 19.5672C7.97296 20.3391 9.36656 20.75 11 20.75C12.611 20.75 14.2906 20.3491 15.5855 19.342C16.9089 18.3127 17.75 16.7107 17.75 14.5C17.75 14.4727 17.7485 14.4458 17.7457 14.4193V10.875C17.7457 9.7014 16.7943 8.75 15.6207 8.75H15.2457C15.1599 8.75 15.0756 8.75617 14.9931 8.76809C14.9382 7.64428 14.0096 6.75 12.8722 6.75C12.5702 6.75 12.283 6.81303 12.0229 6.92665C11.6744 6.22907 10.9535 5.75 10.1207 5.75C9.90477 5.75 9.69635 5.78221 9.5 5.84209V3.375C9.5 2.2014 8.54861 1.25 7.375 1.25ZM16.2496 14.5768C16.247 14.5515 16.2457 14.5259 16.2457 14.5V10.875C16.2457 10.5298 15.9659 10.25 15.6207 10.25H15.2457C15.1076 10.25 14.9957 10.3619 14.9957 10.5V11C14.9957 11.4142 14.6599 11.75 14.2457 11.75C13.8315 11.75 13.4957 11.4142 13.4957 11V10.5V8.87353C13.4957 8.52916 13.2166 8.25 12.8722 8.25C12.5273 8.25 12.2479 8.52998 12.2487 8.87486L12.25 9.49839C12.2501 9.5262 12.2486 9.55366 12.2457 9.58069V10.1C12.2457 10.5142 11.9099 10.85 11.4957 10.85C11.0815 10.85 10.7457 10.5142 10.7457 10.1V7.875C10.7457 7.52982 10.4659 7.25 10.1207 7.25C9.77554 7.25 9.49571 7.52982 9.49571 7.875V10.5C9.49571 10.9142 9.15993 11.25 8.74571 11.25C8.3315 11.25 7.99571 10.9142 7.99571 10.5V7.875C7.99571 7.79029 8.00067 7.70674 8.01031 7.62463C8.00353 7.58409 8 7.54246 8 7.5V3.375C8 3.02982 7.72018 2.75 7.375 2.75C7.34787 2.75 7.32113 2.75173 7.29491 2.75508C6.98756 2.7944 6.75 3.05696 6.75 3.375V12.9949L6.74995 13.0094L6.74973 13.0204C6.74674 13.1321 6.71936 13.2376 6.67273 13.3319C6.6376 13.4032 6.59061 13.4698 6.532 13.5287C6.39615 13.6654 6.20796 13.75 6 13.75C5.87353 13.75 5.75436 13.7187 5.64984 13.6634C5.58542 13.6294 5.52513 13.5856 5.47131 13.532C5.45501 13.5158 5.43945 13.4988 5.42468 13.4812L3.23085 10.9217C3.03791 10.6966 2.70338 10.6599 2.4662 10.8378C2.22338 11.0199 2.1688 11.3618 2.34285 11.6104L5.11006 15.5637C5.11661 15.5728 5.12298 15.5822 5.12917 15.5918C5.13534 15.6013 5.14126 15.6108 5.14695 15.6205C5.85576 16.8003 6.6567 17.7007 7.59494 18.3078C8.52705 18.9109 9.63345 19.25 11 19.25C12.3891 19.25 13.7094 18.9009 14.6645 18.158C15.5778 17.4477 16.231 16.3222 16.2496 14.5768Z" fill="#AB92F0"/>
<path fill-rule="evenodd" clip-rule="evenodd" d="M4.75 3.375C4.75 1.92525 5.92526 0.75 7.375 0.75C8.82475 0.75 10 1.92525 10 3.375V5.25274C10.04 5.25092 10.0803 5.25 10.1207 5.25C10.992 5.25 11.7635 5.67454 12.2406 6.32665C12.4432 6.27654 12.6548 6.25 12.8722 6.25C14.1063 6.25 15.1412 7.10194 15.4211 8.25H15.6207C17.0705 8.25 18.2457 9.42525 18.2457 10.875V14.3961C18.2486 14.4304 18.25 14.4651 18.25 14.5C18.25 16.8511 17.3482 18.6044 15.8924 19.7367C14.4843 20.8319 12.6848 21.25 11 21.25C9.27762 21.25 7.78828 20.8151 6.50844 19.987C5.25358 19.175 4.26401 18.0268 3.45131 16.6816L0.704379 12.7573C-0.0884702 11.6247 0.16015 10.0673 1.26623 9.23775C2.34665 8.42747 3.87047 8.59476 4.74936 9.62013L4.75 3.375ZM5.25 10.9725L4.36974 9.94553C3.66233 9.12022 2.43583 8.98558 1.56623 9.63775C0.675958 10.3054 0.475848 11.5589 1.114 12.4706L3.87066 16.4088C4.65813 17.7157 5.60187 18.8048 6.78007 19.5672C7.97296 20.339 9.36656 20.75 11 20.75C12.611 20.75 14.2906 20.3491 15.5855 19.342C16.9089 18.3127 17.75 16.7107 17.75 14.5C17.75 14.4727 17.7486 14.4458 17.7457 14.4193V10.875C17.7457 9.7014 16.7943 8.75 15.6207 8.75H15.2457C15.1599 8.75 15.0756 8.75617 14.9931 8.76809C14.9865 8.63138 14.9668 8.49806 14.9355 8.36933C14.7092 7.43993 13.8713 6.75 12.8722 6.75C12.5702 6.75 12.283 6.81303 12.0229 6.92665C11.6744 6.22907 10.9535 5.75 10.1207 5.75C10.0802 5.75 10.04 5.75113 10 5.75337C9.827 5.76306 9.65952 5.79344 9.5 5.84209V3.375C9.5 2.2014 8.54861 1.25 7.375 1.25C6.2014 1.25 5.25 2.2014 5.25 3.375V10.9725Z" fill="#AB92F0"/>
</svg>
