<svg width="20" height="20" viewBox="0 0 20 20" fill="none" xmlns="http://www.w3.org/2000/svg">
<g clip-path="url(#clip0_1213_2541)">
<path fill-rule="evenodd" clip-rule="evenodd" d="M19.3892 9.61687C19.8852 9.374 20.0904 8.77502 19.8475 8.279L17.2091 2.89026C16.9662 2.39424 16.3672 2.18901 15.8712 2.43187L14.075 3.31136C13.5789 3.55422 13.3737 4.1532 13.6166 4.64922L16.255 10.038C16.4979 10.534 17.0969 10.7392 17.5929 10.4964L19.3892 9.61687ZM15.5228 3.99427C15.1508 4.17642 14.9968 4.62566 15.179 4.99767C15.3611 5.36969 15.8104 5.5236 16.1824 5.34146C16.5544 5.15931 16.7083 4.71007 16.5262 4.33806C16.344 3.96604 15.8948 3.81212 15.5228 3.99427Z" fill="#AB92F0"/>
<path fill-rule="evenodd" clip-rule="evenodd" d="M4.02615 2.66825C3.52618 2.43362 2.93067 2.64871 2.69604 3.14868L0.146998 8.58029C-0.0876348 9.08025 0.12746 9.67576 0.627426 9.91039L2.43796 10.7601C2.93793 10.9947 3.53344 10.7796 3.76807 10.2796L6.31711 4.84804C6.55175 4.34807 6.33665 3.75256 5.83669 3.51793L4.02615 2.66825ZM2.06374 9.20365C2.43872 9.37962 2.88535 9.2183 3.06133 8.84333C3.2373 8.46835 3.07598 8.02172 2.70101 7.84575C2.32603 7.66977 1.8794 7.83109 1.70342 8.20607C1.52745 8.58104 1.68877 9.02767 2.06374 9.20365Z" fill="#AB92F0"/>
<path d="M14.1125 5.49386L14.1265 5.49198L14.1299 5.49153C14.4376 5.45123 14.6942 5.27502 14.8473 5.0312L14.9916 4.37025C14.9199 3.82263 14.417 3.43691 13.8694 3.50857L13.8625 3.50948L13.8439 3.51197L13.776 3.52136C13.7177 3.52956 13.6339 3.54164 13.5297 3.5575C13.3215 3.58919 13.03 3.63618 12.6946 3.69777C12.0336 3.81917 11.164 4.00407 10.4228 4.25118C9.99759 4.39295 9.57632 4.65448 9.20539 4.92554C8.8221 5.20563 8.43281 5.54064 8.06674 5.88124C7.33428 6.56273 6.64586 7.31255 6.21352 7.80141C5.65726 8.4304 5.49949 9.47973 6.19662 10.237C6.54261 10.6128 7.11706 11.1247 7.88814 11.3569C8.71601 11.6063 9.65388 11.4966 10.57 10.8223L11.2913 10.3564C11.3695 10.4163 11.4598 10.4886 11.5612 10.5737C11.8117 10.7836 12.0861 11.033 12.3449 11.2769C12.6025 11.5196 12.838 11.7506 13.0094 11.9212C13.0949 12.0064 13.164 12.0761 13.2115 12.1242L13.2656 12.1793L13.2792 12.1932L13.2831 12.1972L13.4012 12.3187L13.5528 12.3944C14.1337 12.6849 14.7364 12.5649 15.1261 12.4334C15.5431 12.2925 15.9404 12.0629 16.2597 11.8505C16.5868 11.6327 16.8759 11.4034 17.0804 11.2315C17.1837 11.1448 17.2678 11.0706 17.3272 11.0172C17.3569 10.9904 17.3806 10.9687 17.3975 10.9531L17.4177 10.9342L17.4239 10.9284L17.426 10.9264L17.4274 10.9251C17.828 10.545 17.8446 9.91202 17.4645 9.51138C17.0844 9.11083 16.4514 9.09438 16.0508 9.47429L16.0498 9.4752L16.0388 9.4854C16.0283 9.49515 16.0115 9.51057 15.9891 9.53074C15.9442 9.57116 15.8774 9.63013 15.7939 9.70027C15.6249 9.84227 15.3973 10.022 15.1517 10.1854C14.8982 10.3541 14.6668 10.4775 14.4862 10.5385L14.4628 10.5461L14.4205 10.504C14.2559 10.3401 14.0338 10.1219 13.7871 9.88805L13.7165 9.82127C13.443 9.56359 13.1376 9.28536 12.846 9.04095C12.569 8.80874 12.2532 8.56306 11.9703 8.40814C11.3371 8.06141 10.7397 8.33178 10.4711 8.50528L9.42803 9.17896L9.40001 9.19998C8.96894 9.52329 8.67663 9.50567 8.46498 9.44192C8.23896 9.37384 8.01058 9.21723 7.80481 9.02154C8.21757 8.55894 8.81276 7.91893 9.42909 7.34548C9.76145 7.03625 10.0877 6.75786 10.3854 6.54033C10.6955 6.31376 10.9206 6.19345 11.0554 6.14851C11.6627 5.94603 12.4236 5.781 13.0559 5.66487C13.3672 5.6077 13.6381 5.56403 13.8306 5.53474C13.9267 5.52012 14.0029 5.50914 14.0544 5.50189L14.1125 5.49386Z" fill="#AB92F0"/>
<path fill-rule="evenodd" clip-rule="evenodd" d="M5.62862 4.07152C5.11583 4.27664 4.86642 4.85861 5.07153 5.37139C5.27664 5.88416 5.85859 6.13358 6.37136 5.92849L6.39747 5.91809L6.47527 5.8873C6.54293 5.86062 6.64057 5.82233 6.75944 5.77632C6.99765 5.68411 7.31898 5.56171 7.65425 5.43979C7.99171 5.31708 8.3331 5.19858 8.6144 5.11203C8.75567 5.06856 8.87075 5.03658 8.95659 5.01639C8.98632 5.00939 9.00766 5.005 9.02167 5.00232C9.03458 5.00376 9.05295 5.00609 9.07742 5.00986C9.13786 5.01915 9.21471 5.03392 9.30649 5.05432C9.49027 5.09516 9.70356 5.15177 9.91275 5.21155C10.1201 5.2708 10.314 5.33046 10.4567 5.3755C10.5277 5.39794 10.5854 5.41656 10.625 5.42944L10.6699 5.44416L10.6809 5.44781L10.6834 5.44862C11.2073 5.62321 11.774 5.34023 11.9487 4.81633C12.1233 4.29239 11.8402 3.72606 11.3163 3.55139L11.007 4.47898C11.3163 3.55139 11.3163 3.55141 11.3163 3.55139L11.3104 3.54945L11.2962 3.54474L11.2442 3.52772C11.1998 3.51324 11.1364 3.4928 11.059 3.46836C10.9047 3.41963 10.6924 3.35428 10.4623 3.28852C10.234 3.22328 9.97849 3.15487 9.7404 3.10195C9.52612 3.05433 9.24461 3 9.00001 3C8.81329 3 8.62301 3.04026 8.49851 3.06955C8.35192 3.10404 8.18966 3.15019 8.02623 3.20047C7.69816 3.30142 7.32081 3.43292 6.97076 3.56021C6.61853 3.68829 6.28362 3.81589 6.03745 3.91118C5.91413 3.95892 5.81255 3.99875 5.74154 4.02676L5.65894 4.05945L5.62862 4.07152Z" fill="#AB92F0"/>
<path fill-rule="evenodd" clip-rule="evenodd" d="M4.18332 9.76989C4.18332 9.76989 4.18332 9.76989 4.18332 9.76989L4.21444 9.79894L4.30513 9.88336C4.38379 9.95645 4.49712 10.0614 4.63517 10.1885C4.91155 10.4429 5.28577 10.7846 5.67874 11.1354C6.07301 11.4873 6.48011 11.843 6.82385 12.1274C6.99611 12.27 7.14576 12.3891 7.26597 12.4788C7.34717 12.5393 7.3987 12.5741 7.42541 12.5915L10.262 13.6553C10.5987 13.7815 10.9772 13.7173 11.2534 13.4872L13.3598 11.7318C13.7841 11.3782 14.4147 11.4355 14.7682 11.8598C15.1218 12.2841 15.0645 12.9147 14.6402 13.2682L12.5337 15.0236C11.7051 15.7141 10.5697 15.9066 9.5598 15.5279L6.59973 14.4179L6.55278 14.3944C6.27173 14.2539 5.88128 13.9434 5.54875 13.6683C5.17695 13.3606 4.74859 12.986 4.34691 12.6274C3.94393 12.2677 3.56174 11.9187 3.28069 11.66C3.14003 11.5306 3.02439 11.4234 2.94377 11.3485L2.85027 11.2615L2.81734 11.2307C2.41411 10.8534 2.39249 10.2199 2.76988 9.81668C3.14727 9.41345 3.78009 9.3925 4.18332 9.76989Z" fill="#AB92F0"/>
<path fill-rule="evenodd" clip-rule="evenodd" d="M3.43537 14.8589C3.78945 14.4351 4.42009 14.3785 4.84393 14.7326L5.80216 15.5331C5.94547 15.6528 6.11945 15.73 6.30438 15.756L7.54087 15.9294C8.0878 16.0061 8.46899 16.5117 8.39227 17.0586C8.31556 17.6056 7.80999 17.9867 7.26306 17.91L6.02657 17.7366C5.47178 17.6588 4.94986 17.4272 4.51993 17.068L3.5617 16.2675C3.13785 15.9134 3.08129 15.2828 3.43537 14.8589Z" fill="#AB92F0"/>
</g>
<defs>
<clipPath id="clip0_1213_2541">
<rect width="20" height="20" fill="white"/>
</clipPath>
</defs>
</svg>
