<svg width="20" height="20" viewBox="0 0 20 20" fill="none" xmlns="http://www.w3.org/2000/svg">
<g clip-path="url(#clip0_1213_2440)">
<path fill-rule="evenodd" clip-rule="evenodd" d="M7.375 0.25C6.2014 0.25 5.25 1.2014 5.25 2.375V9.25974C3.04663 9.43262 1.69308 11.872 2.88492 13.8379C3.24037 14.4242 3.58755 14.9825 3.8661 15.4012C4.6545 16.7115 5.5996 17.8033 6.78006 18.5672C7.97296 19.3391 9.36656 19.75 11 19.75C12.611 19.75 14.2906 19.3491 15.5855 18.342C16.9089 17.3127 17.75 15.7107 17.75 13.5C17.75 13.4727 17.7485 13.4458 17.7457 13.4193V9.875C17.7457 8.7014 16.7943 7.75 15.6207 7.75H15.2457C15.1599 7.75 15.0756 7.75617 14.9931 7.76809C14.9382 6.64428 14.0096 5.75 12.8722 5.75C12.5702 5.75 12.283 5.81303 12.0229 5.92665C11.6744 5.22907 10.9535 4.75 10.1207 4.75C9.90477 4.75 9.69635 4.78221 9.5 4.84209V2.375C9.5 1.2014 8.54861 0.25 7.375 0.25ZM16.2496 13.5768C16.247 13.5515 16.2457 13.5259 16.2457 13.5V9.875C16.2457 9.52982 15.9659 9.25 15.6207 9.25H15.2457C15.1076 9.25 14.9957 9.36193 14.9957 9.5V10C14.9957 10.4142 14.6599 10.75 14.2457 10.75C13.8315 10.75 13.4957 10.4142 13.4957 10V9.5V7.87353C13.4957 7.52916 13.2166 7.25 12.8722 7.25C12.5273 7.25 12.2479 7.52998 12.2487 7.87486L12.25 8.49839C12.2501 8.5262 12.2486 8.55365 12.2457 8.58068V9.1C12.2457 9.51421 11.9099 9.85 11.4957 9.85C11.0815 9.85 10.7457 9.51421 10.7457 9.1V6.875C10.7457 6.52982 10.4659 6.25 10.1207 6.25C9.77554 6.25 9.49571 6.52982 9.49571 6.875V9.5C9.49571 9.91421 9.15993 10.25 8.74571 10.25C8.3315 10.25 7.99571 9.91421 7.99571 9.5V6.875C7.99571 6.79029 8.00067 6.70674 8.01031 6.62463C8.00353 6.58409 8 6.54246 8 6.5V2.375C8 2.02982 7.72018 1.75 7.375 1.75C7.02982 1.75 6.75 2.02982 6.75 2.375V12C6.75 12.4142 6.41422 12.75 6 12.75C5.58579 12.75 5.25 12.4142 5.25 12V10.7689C4.188 10.9323 3.5991 12.1226 4.16761 13.0603C4.52304 13.6466 4.85962 14.1871 5.12107 14.5795C5.12538 14.5859 5.12962 14.5924 5.13376 14.5989C5.1379 14.6055 5.14193 14.612 5.14584 14.6187C5.85493 15.7994 6.65621 16.7004 7.59494 17.3078C8.52705 17.9109 9.63345 18.25 11 18.25C12.3891 18.25 13.7094 17.9009 14.6645 17.158C15.5778 16.4477 16.231 15.3222 16.2496 13.5768Z" fill="#AB92F0"/>
<path fill-rule="evenodd" clip-rule="evenodd" d="M4.75 2.375C4.75 0.925253 5.92525 -0.25 7.375 -0.25C8.82475 -0.25 10 0.925253 10 2.375V4.25274C10.04 4.25092 10.0803 4.25 10.1207 4.25C10.992 4.25 11.7635 4.67454 12.2406 5.32665C12.4432 5.27654 12.6548 5.25 12.8722 5.25C14.1063 5.25 15.1412 6.10194 15.4211 7.25H15.6207C17.0705 7.25 18.2457 8.42525 18.2457 9.875V13.396C18.2486 13.4304 18.25 13.4651 18.25 13.5C18.25 15.8511 17.3482 17.6044 15.8924 18.7367C14.4843 19.8319 12.6848 20.25 11 20.25C9.27762 20.25 7.78828 19.8151 6.50844 18.987C5.24959 18.1724 4.25771 17.0195 3.44355 15.6688C3.16017 15.2423 2.81118 14.6808 2.45736 14.0971C1.1494 11.9397 2.46905 9.30914 4.75 8.82757V2.375ZM5.25 9.25974V2.375C5.25 1.2014 6.2014 0.25 7.375 0.25C8.54861 0.25 9.5 1.2014 9.5 2.375V4.84209C9.65952 4.79344 9.82699 4.76306 10 4.75337C10.04 4.75113 10.0802 4.75 10.1207 4.75C10.9535 4.75 11.6744 5.22907 12.0229 5.92665C12.283 5.81303 12.5702 5.75 12.8722 5.75C13.8713 5.75 14.7092 6.43993 14.9355 7.36933C14.9668 7.49806 14.9865 7.63138 14.9931 7.76809C15.0756 7.75617 15.1599 7.75 15.2457 7.75H15.6207C16.7943 7.75 17.7457 8.7014 17.7457 9.875V13.4193C17.7485 13.4458 17.75 13.4727 17.75 13.5C17.75 15.7107 16.9089 17.3127 15.5855 18.342C14.2906 19.3491 12.611 19.75 11 19.75C9.36656 19.75 7.97295 19.3391 6.78006 18.5672C5.5996 17.8033 4.6545 16.7115 3.8661 15.4012C3.58755 14.9825 3.24037 14.4242 2.88492 13.8379C1.69308 11.872 3.04663 9.43262 5.25 9.25974Z" fill="#AB92F0"/>
</g>
<defs>
<clipPath id="clip0_1213_2440">
<rect width="20" height="20" fill="white"/>
</clipPath>
</defs>
</svg>
