<svg width="20" height="20" viewBox="0 0 20 20" fill="none" xmlns="http://www.w3.org/2000/svg">
<g clip-path="url(#clip0_1213_2486)">
<path fill-rule="evenodd" clip-rule="evenodd" d="M7.375 0.25C6.2014 0.25 5.25 1.2014 5.25 2.375V9.9725L4.36973 8.94553C3.66233 8.12022 2.43583 7.98558 1.56622 8.63775C0.675955 9.30542 0.475845 10.5589 1.114 11.4706L3.87065 15.4088C4.65813 16.7157 5.60187 17.8048 6.78006 18.5672C7.97296 19.3391 9.36656 19.75 11 19.75C12.611 19.75 14.2906 19.3491 15.5855 18.342C16.9089 17.3127 17.75 15.7107 17.75 13.5C17.75 13.4727 17.7485 13.4458 17.7457 13.4193V9.875C17.7457 8.7014 16.7943 7.75 15.6207 7.75H15.2457C15.1599 7.75 15.0756 7.75617 14.9931 7.76809C14.9382 6.64428 14.0096 5.75 12.8722 5.75C12.5702 5.75 12.283 5.81303 12.0229 5.92665C11.6744 5.22907 10.9535 4.75 10.1207 4.75C9.90477 4.75 9.69635 4.78221 9.5 4.84209V2.375C9.5 1.2014 8.54861 0.25 7.375 0.25ZM16.2496 13.5768C16.247 13.5515 16.2457 13.5259 16.2457 13.5V9.875C16.2457 9.52982 15.9659 9.25 15.6207 9.25H15.2457C15.1076 9.25 14.9957 9.36193 14.9957 9.5V10C14.9957 10.4142 14.6599 10.75 14.2457 10.75C13.8315 10.75 13.4957 10.4142 13.4957 10V9.5V7.87353C13.4957 7.52916 13.2166 7.25 12.8722 7.25C12.5273 7.25 12.2479 7.52998 12.2487 7.87486L12.25 8.49839C12.2501 8.5262 12.2486 8.55366 12.2457 8.58069V9.1C12.2457 9.51421 11.9099 9.85 11.4957 9.85C11.0815 9.85 10.7457 9.51421 10.7457 9.1V6.875C10.7457 6.52982 10.4659 6.25 10.1207 6.25C9.77554 6.25 9.49571 6.52982 9.49571 6.875V9.5C9.49571 9.91421 9.15993 10.25 8.74571 10.25C8.3315 10.25 7.99571 9.91421 7.99571 9.5V6.875C7.99571 6.79029 8.00067 6.70674 8.01031 6.62463C8.00353 6.58409 8 6.54246 8 6.5V2.375C8 2.02982 7.72018 1.75 7.375 1.75C7.34787 1.75 7.32113 1.75173 7.29491 1.75508C6.98756 1.7944 6.75 2.05696 6.75 2.375V11.9949L6.74995 12.0094L6.74973 12.0204C6.74674 12.1321 6.71936 12.2376 6.67273 12.3319C6.6376 12.4032 6.59061 12.4698 6.532 12.5287C6.39615 12.6654 6.20796 12.75 6 12.75C5.87353 12.75 5.75436 12.7187 5.64984 12.6634C5.58542 12.6294 5.52513 12.5856 5.47131 12.532C5.45501 12.5158 5.43945 12.4988 5.42468 12.4812L3.23085 9.92172C3.03791 9.69662 2.70338 9.65989 2.4662 9.83777C2.22338 10.0199 2.1688 10.3618 2.34285 10.6104L5.11006 14.5637C5.11661 14.5728 5.12298 14.5822 5.12917 14.5918C5.13534 14.6013 5.14126 14.6108 5.14695 14.6205C5.85576 15.8003 6.6567 16.7007 7.59494 17.3078C8.52705 17.9109 9.63345 18.25 11 18.25C12.3891 18.25 13.7094 17.9009 14.6645 17.158C15.5778 16.4477 16.231 15.3222 16.2496 13.5768Z" fill="#AB92F0"/>
<path fill-rule="evenodd" clip-rule="evenodd" d="M4.75 2.375C4.75 0.925253 5.92526 -0.25 7.375 -0.25C8.82475 -0.25 10 0.925253 10 2.375V4.25274C10.04 4.25092 10.0803 4.25 10.1207 4.25C10.992 4.25 11.7635 4.67454 12.2406 5.32665C12.4432 5.27654 12.6548 5.25 12.8722 5.25C14.1063 5.25 15.1412 6.10194 15.4211 7.25H15.6207C17.0705 7.25 18.2457 8.42525 18.2457 9.875V13.3961C18.2486 13.4304 18.25 13.4651 18.25 13.5C18.25 15.8511 17.3482 17.6044 15.8924 18.7367C14.4843 19.8319 12.6848 20.25 11 20.25C9.27762 20.25 7.78828 19.8151 6.50844 18.987C5.25358 18.175 4.26401 17.0268 3.45131 15.6816L0.704379 11.7573C-0.0884702 10.6247 0.16015 9.06727 1.26623 8.23775C2.34665 7.42747 3.87047 7.59476 4.74936 8.62013L4.75 2.375ZM5.25 9.9725L4.36974 8.94553C3.66233 8.12022 2.43583 7.98558 1.56623 8.63775C0.675958 9.30542 0.475848 10.5589 1.114 11.4706L3.87066 15.4088C4.65813 16.7157 5.60187 17.8048 6.78007 18.5672C7.97296 19.339 9.36656 19.75 11 19.75C12.611 19.75 14.2906 19.3491 15.5855 18.342C16.9089 17.3127 17.75 15.7107 17.75 13.5C17.75 13.4727 17.7486 13.4458 17.7457 13.4193V9.875C17.7457 8.7014 16.7943 7.75 15.6207 7.75H15.2457C15.1599 7.75 15.0756 7.75617 14.9931 7.76809C14.9865 7.63138 14.9668 7.49806 14.9355 7.36933C14.7092 6.43993 13.8713 5.75 12.8722 5.75C12.5702 5.75 12.283 5.81303 12.0229 5.92665C11.6744 5.22907 10.9535 4.75 10.1207 4.75C10.0802 4.75 10.04 4.75113 10 4.75337C9.827 4.76306 9.65952 4.79344 9.5 4.84209V2.375C9.5 1.2014 8.54861 0.25 7.375 0.25C6.2014 0.25 5.25 1.2014 5.25 2.375V9.9725Z" fill="#AB92F0"/>
</g>
<defs>
<clipPath id="clip0_1213_2486">
<rect width="20" height="20" fill="white"/>
</clipPath>
</defs>
</svg>
