<svg xmlns="http://www.w3.org/2000/svg" width="20" height="20" viewBox="0 0 20 20">
  <g fill="none" fill-rule="evenodd" stroke="#AB92F0" stroke-linecap="round" stroke-width="2" transform="translate(3 1)">
    <path d="M5.50000094 16C5.50000094 16.8284271 6.17157382 17.5 7.00000094 17.5L7.00000094 17.5C7.82842807 17.5 8.50000094 16.8284271 8.50000094 16M12.5000009 11.2346939C12.5188335 11.2431493 12.5376661 11.2516482 12.5564987 11.2601905 13.4354712 11.6588813 14.0000009 12.5348373 14.0000009 13.5000041 14.0000009 14.3284334 13.3284262 15.0000081 12.4999969 15.0000081L1.50000313 15.0000081C.671574274 15.0000081 4.22899282e-14 14.3284339 4.21884749e-14 13.500005 6.06031679e-7 12.5348378.564530234 11.6588825 1.44350073 11.2601888 1.46233485 11.2516486 1.4811679 11.2431495 1.50000094 11.2346939L1.50000094 8C1.50000094 5.23857625 3.73857719 3 6.50000094 3L7.50000094 3C10.2614247 3 12.5000009 5.23857625 12.5000009 8L12.5000009 9 12.5000009 11.2346939z"/>
    <path stroke-linejoin="round" d="M7.00000094,0.5 L7,3"/>
  </g>
</svg>
