<svg xmlns="http://www.w3.org/2000/svg" width="20" height="20" viewBox="0 0 20 20">
  <g fill="none" fill-rule="evenodd" stroke-linecap="round" stroke-linejoin="round">
    <path stroke="#AB92F0" stroke-width="2" d="M16.9309478,14.7535551 C17.2976229,13.6485158 17.5,12.4368221 17.5,11.1660601 C17.5,5.9898116 14.1421356,2.75355512 10,2.75355512 C5.85786438,2.75355512 2.5,5.9898116 2.5,11.1660601 C2.5,12.4368221 2.70237711,13.6485158 3.06905218,14.7535551"/>
    <path stroke="#AB92F0" stroke-width="2" d="M4.03475251,12.0171478 L4.03475251,12.0171478 C5.13491898,12.0188321 6.02709605,12.9088812 6.03140751,14.0090405 L6.0314949,14.0313408 C6.03577611,15.1237812 5.15364878,16.0128497 4.06120836,16.0171309 C4.05761501,16.017145 4.05402163,16.0171493 4.05042825,16.0171438 L4.05042825,16.0171438 L4.03475251,12.0171478 Z" transform="rotate(-179 5.035 14.017)"/>
    <path stroke="#AB92F0" stroke-width="2" d="M14.0347525,12.0171478 L14.0347525,12.0171478 C15.134919,12.0188321 16.0270961,12.9088812 16.0314075,14.0090405 L16.0314949,14.0313408 C16.0357761,15.1237812 15.1536488,16.0128497 14.0612084,16.0171309 C14.057615,16.017145 14.0540216,16.0171493 14.0504283,16.0171438 L14.0504283,16.0171438 L14.0347525,12.0171478 Z" transform="rotate(1 15.035 14.017)"/>
  </g>
</svg>
