<svg xmlns="http://www.w3.org/2000/svg" width="20" height="20" viewBox="0 0 20 20">
  <path fill="#AB92F0" fill-rule="evenodd" stroke="#AB92F0" stroke-linecap="round" stroke-linejoin="round" d="M6.25,4.19164171 L6.25,13 C6.25,13.0149556 6.24934338,13.0297579 6.24805739,13.0443796 C6.24934863,13.0711296 6.25,13.098006 6.25,13.125 C6.25,14.2986051 5.01878306,15.25 3.5,15.25 C1.98121694,15.25 0.75,14.2986051 0.75,13.125 C0.75,11.9513949 1.98121694,11 3.5,11 C4.16481459,11 4.77452973,11.1822932 5.25,11.4857217 L5.25,3.79498146 L5.25,0.111142768 C9.41666667,2.94259612 11.5,5.00692607 11.5,6.3041326 C11.5,7.60133914 10.7864852,8.65034952 9.35945573,9.45116377 C9.86612269,8.50662172 9.70043063,7.45761133 8.86237953,6.3041326 C8.21203776,5.40901367 7.34124458,4.70485004 6.25,4.19164171 Z" transform="translate(4.25 2)"/>
</svg>
