<svg xmlns="http://www.w3.org/2000/svg" width="20" height="20" viewBox="0 0 20 20">
  <path fill="#AB92F0" fill-rule="evenodd" d="M4.75,5.03811995 L4.75,2.80988888 C4.75,2.29385875 5.14265184,1.86256881 5.65641737,1.81427736 L14.6564174,0.968321267 C15.2062784,0.916637011 15.6939273,1.3204891 15.7456115,1.87035016 C15.7485356,1.90145868 15.75,1.93268715 15.75,1.96393278 L15.75,4.14518576 L15.75,14 C15.75,15.3807119 14.4068542,16.5 12.75,16.5 C11.9215729,16.5 11.1715729,16.220178 10.6286797,15.767767 C10.0857864,15.3153559 9.75,14.6903559 9.75,14 C9.75,12.6192881 11.0931458,11.5 12.75,11.5 C13.1006354,11.5 13.4372211,11.5501285 13.75,11.6422548 L13.75,5.24931042 L6.75,5.94381479 L6.75,15 C6.75,16.3807119 5.40685425,17.5 3.75,17.5 C2.92157288,17.5 2.17157288,17.220178 1.62867966,16.767767 C1.08578644,16.3153559 0.75,15.6903559 0.75,15 C0.75,13.6192881 2.09314575,12.5 3.75,12.5 C4.10063542,12.5 4.43722107,12.5501285 4.75,12.6422548 L4.75,5.03811995 Z" transform="translate(2 1)"/>
</svg>
