<svg width="20" height="20" viewBox="0 0 20 20" fill="none" xmlns="http://www.w3.org/2000/svg">
<path opacity="0.8" d="M2 6.5C2 5.94772 2.44772 5.5 3 5.5H19C19.5523 5.5 20 5.94772 20 6.5V18.5C20 19.0523 19.5523 19.5 19 19.5H3C2.44772 19.5 2 19.0523 2 18.5V6.5Z" fill="#AB92F0"/>
<path fill-rule="evenodd" clip-rule="evenodd" d="M2 3C1.44772 3 1 3.44772 1 4V16C1 16.5523 1.44772 17 2 17H18C18.5523 17 19 16.5523 19 16V4C19 3.44772 18.5523 3 18 3H2ZM15.5 4.5H16.5C16.7761 4.5 17 4.72386 17 5V6C17 6.27614 16.7761 6.5 16.5 6.5H15.5C15.2239 6.5 15 6.27614 15 6V5C15 4.72386 15.2239 4.5 15.5 4.5ZM16.5 7.5H15.5C15.2239 7.5 15 7.72386 15 8V9C15 9.27614 15.2239 9.5 15.5 9.5H16.5C16.7761 9.5 17 9.27614 17 9V8C17 7.72386 16.7761 7.5 16.5 7.5ZM15.5 10.5H16.5C16.7761 10.5 17 10.7239 17 11V12C17 12.2761 16.7761 12.5 16.5 12.5H15.5C15.2239 12.5 15 12.2761 15 12V11C15 10.7239 15.2239 10.5 15.5 10.5ZM16.5 13.5H15.5C15.2239 13.5 15 13.7239 15 14V15C15 15.2761 15.2239 15.5 15.5 15.5H16.5C16.7761 15.5 17 15.2761 17 15V14C17 13.7239 16.7761 13.5 16.5 13.5ZM3.5 4.5H4.5C4.77614 4.5 5 4.72386 5 5V6C5 6.27614 4.77614 6.5 4.5 6.5H3.5C3.22386 6.5 3 6.27614 3 6V5C3 4.72386 3.22386 4.5 3.5 4.5ZM4.5 7.5H3.5C3.22386 7.5 3 7.72386 3 8V9C3 9.27614 3.22386 9.5 3.5 9.5H4.5C4.77614 9.5 5 9.27614 5 9V8C5 7.72386 4.77614 7.5 4.5 7.5ZM3.5 10.5H4.5C4.77614 10.5 5 10.7239 5 11V12C5 12.2761 4.77614 12.5 4.5 12.5H3.5C3.22386 12.5 3 12.2761 3 12V11C3 10.7239 3.22386 10.5 3.5 10.5ZM4.5 13.5H3.5C3.22386 13.5 3 13.7239 3 14V15C3 15.2761 3.22386 15.5 3.5 15.5H4.5C4.77614 15.5 5 15.2761 5 15V14C5 13.7239 4.77614 13.5 4.5 13.5ZM6.5 16V4H13.5V16H6.5Z" fill="black"/>
</svg>
