<svg width="20" height="20" viewBox="0 0 20 20" fill="none" xmlns="http://www.w3.org/2000/svg">
<g clip-path="url(#clip0_1232_1629)">
<g opacity="0.8">
<path d="M14.6424 8.05915C13.2741 9.79355 10.7589 10.0904 9.02448 8.72208C7.29008 7.35381 6.99328 4.83861 8.36155 3.10421C9.72982 1.36981 12.245 1.07301 13.9794 2.44128C15.7138 3.80955 16.0106 6.32476 14.6424 8.05915Z" fill="#AB92F0"/>
<path fill-rule="evenodd" clip-rule="evenodd" d="M10.2632 7.15188C11.1304 7.83602 12.388 7.68762 13.0722 6.82042C13.7563 5.95322 13.6079 4.69561 12.7407 4.01148C11.8735 3.32734 10.6159 3.47575 9.93175 4.34295C9.24761 5.21014 9.39602 6.46775 10.2632 7.15188ZM9.02448 8.72208C10.7589 10.0904 13.2741 9.79355 14.6424 8.05915C16.0106 6.32476 15.7138 3.80955 13.9794 2.44128C12.245 1.07301 9.72982 1.36981 8.36155 3.10421C6.99328 4.83861 7.29008 7.35381 9.02448 8.72208Z" fill="#AB92F0"/>
<path fill-rule="evenodd" clip-rule="evenodd" d="M8.95252 5.48349C9.40662 5.79785 9.5199 6.4208 9.20554 6.87489L4.64315 13.4654C4.32879 13.9195 3.70584 14.0328 3.25175 13.7184C2.79766 13.404 2.68438 12.7811 2.99873 12.327L7.56113 5.73651C7.87548 5.28242 8.49843 5.16914 8.95252 5.48349Z" fill="#AB92F0"/>
<path fill-rule="evenodd" clip-rule="evenodd" d="M12.1909 8.03822C11.7794 7.66977 11.1472 7.70461 10.7788 8.11602L5.4313 14.0871C5.06285 14.4986 5.09768 15.1308 5.5091 15.4992C5.92052 15.8677 6.55272 15.8328 6.92117 15.4214L12.2687 9.45029C12.6371 9.03888 12.6023 8.40667 12.1909 8.03822Z" fill="#AB92F0"/>
<path fill-rule="evenodd" clip-rule="evenodd" d="M3.03583 12.2768C3.3779 11.8432 4.0067 11.769 4.4403 12.1111L6.7956 13.9692C7.2292 14.3113 7.3034 14.9401 6.96133 15.3737C6.61927 15.8073 5.99046 15.8815 5.55686 15.5394L3.20156 13.6813C2.76796 13.3392 2.69376 12.7104 3.03583 12.2768Z" fill="#AB92F0"/>
<path fill-rule="evenodd" clip-rule="evenodd" d="M17.1107 13.4012C17.1107 13.4012 17.1107 13.4012 17.1107 13.4012L17.0971 13.4037L17.0544 13.4113C17.0167 13.4181 16.9609 13.4283 16.8894 13.4414C16.7464 13.4678 16.5411 13.5063 16.2932 13.5544C15.7967 13.6509 15.1335 13.7854 14.4611 13.9388C14.1613 14.0071 13.9301 14.0577 13.7431 14.0986C13.3886 14.1762 13.1926 14.2191 12.9876 14.2828C12.7106 14.3689 12.4312 14.4921 11.6799 14.8613C11.3482 15.0243 10.9999 15.3077 10.6058 15.7121C10.3192 16.0061 10.0488 16.3199 9.75601 16.6597C9.63936 16.7951 9.51917 16.9346 9.39301 17.0786C8.97277 17.5581 8.49785 18.0727 7.96494 18.4845C7.42595 18.901 6.77656 19.253 6.0023 19.3418C5.54031 19.3948 5.05178 19.3968 4.60428 19.3353C4.18803 19.2781 3.67354 19.1485 3.27568 18.8346C2.60731 18.3074 2.18622 17.4229 2.39742 16.2818C2.45648 15.9627 2.60172 15.6462 2.72787 15.4047C2.86362 15.1449 3.02424 14.8852 3.17145 14.6617C3.32006 14.4361 3.46325 14.2351 3.56883 14.0909C3.62187 14.0185 3.66604 13.9596 3.69744 13.9182L3.73463 13.8694L3.74524 13.8557L3.74839 13.8516L3.7494 13.8503C3.74947 13.8502 3.75004 13.8495 4.53908 14.4638L3.75004 13.8495C4.08934 13.4137 4.71765 13.3355 5.15343 13.6748C5.58909 14.014 5.66737 14.6421 5.32836 15.0779C5.32839 15.0778 5.32834 15.0779 5.32836 15.0779M17.1107 13.4012C17.6545 13.3051 18.0175 12.7863 17.9213 12.2424C17.8252 11.6986 17.3063 11.3356 16.7625 11.4318L16.7456 11.4348L16.6995 11.4431C16.6594 11.4503 16.601 11.4609 16.5268 11.4746C16.3785 11.5019 16.1668 11.5416 15.9118 11.5911C15.4027 11.69 14.7169 11.8291 14.0165 11.9888C13.7959 12.0391 13.5999 12.0821 13.4226 12.1209C12.9997 12.2136 12.6835 12.2829 12.3938 12.373C11.9463 12.5121 11.5334 12.7048 10.7978 13.0663C10.1656 13.377 9.62995 13.8478 9.17351 14.3161C8.84085 14.6575 8.50932 15.0422 8.2026 15.3982C8.09458 15.5236 7.98963 15.6454 7.8888 15.7605C7.47912 16.228 7.11123 16.6167 6.74207 16.9019C6.379 17.1825 6.06706 17.3213 5.77438 17.3548C5.45437 17.3915 5.13563 17.3895 4.87667 17.3539C4.64855 17.3226 4.54343 17.2759 4.51816 17.2647C4.51129 17.2616 4.51033 17.2612 4.51441 17.2644C4.45132 17.2147 4.40552 17.1554 4.37755 17.0813C4.35036 17.0094 4.32158 16.8751 4.36401 16.6458C4.36397 16.6461 4.36392 16.6462 4.36401 16.6458C4.36488 16.6423 4.37187 16.6135 4.39491 16.5558C4.41921 16.4949 4.45419 16.4195 4.50049 16.3309C4.5936 16.1527 4.71479 15.9545 4.84163 15.7619C4.96707 15.5715 5.09015 15.3986 5.18233 15.2727C5.22816 15.2101 5.26575 15.16 5.29138 15.1262L5.32024 15.0884L5.32699 15.0796L5.32836 15.0779" fill="#AB92F0"/>
<path d="M9.15289 7.06152L10.7231 8.30026L6.38752 13.796L4.81732 12.5572L9.15289 7.06152Z" fill="#AB92F0"/>
</g>
<path fill-rule="evenodd" clip-rule="evenodd" d="M8.47396 6.43675C9.623 7.34323 11.2893 7.14659 12.1958 5.99756C13.1023 4.84852 12.9056 3.18219 11.7566 2.27571C10.6076 1.36923 8.94125 1.56587 8.03477 2.71491C7.12829 3.86394 7.32492 5.53027 8.47396 6.43675ZM7.85459 7.22185C9.43723 8.47039 11.7324 8.19956 12.9809 6.61692C14.2294 5.03429 13.9586 2.73916 12.376 1.49061C10.7933 0.242066 8.49821 0.5129 7.24967 2.09554C6.00112 3.67817 6.27195 5.9733 7.85459 7.22185Z" fill="black"/>
<path fill-rule="evenodd" clip-rule="evenodd" d="M6.97066 5.34101C7.19699 5.49922 7.25221 5.81095 7.094 6.03728L2.85682 12.0988C2.69861 12.3251 2.38688 12.3803 2.16055 12.2221C1.93423 12.0639 1.87901 11.7521 2.03722 11.5258L6.27439 5.46435C6.4326 5.23802 6.74433 5.1828 6.97066 5.34101Z" fill="black"/>
<path fill-rule="evenodd" clip-rule="evenodd" d="M10.6744 7.18616C10.4688 7.00184 10.1527 7.01909 9.96838 7.22471L9.7375 7.48196C9.645 7.5849 9.55356 7.68653 9.46305 7.787C9.439 7.80552 9.41632 7.8265 9.39534 7.84993C8.35275 9.01411 7.63471 9.8015 6.91561 10.59L6.91547 10.5902C6.19603 11.3791 5.47551 12.1692 4.42984 13.3368L5.17478 14.004C6.22553 12.8307 7.10615 11.8654 7.9885 10.8982C8.77716 10.0337 9.5672 9.16771 10.4813 8.15031L10.713 7.89222C10.8973 7.68661 10.88 7.37049 10.6744 7.18616Z" fill="black"/>
<path fill-rule="evenodd" clip-rule="evenodd" d="M2.05447 11.5026C2.2255 11.2858 2.5399 11.2487 2.7567 11.4197L5.112 13.2778C5.3288 13.4489 5.3659 13.7633 5.19487 13.9801C5.02384 14.1969 4.70944 14.234 4.49264 14.0629L2.13733 12.2048C1.92053 12.0338 1.88343 11.7194 2.05447 11.5026Z" fill="black"/>
<path fill-rule="evenodd" clip-rule="evenodd" d="M8.48551 3.77172L7.66449 2.52161L8.50035 1.97266L9.32136 3.22277C9.85586 4.03661 10.6399 4.65514 11.5558 4.98552L12.9627 5.493L12.6234 6.43368L11.2165 5.9262C10.097 5.5224 9.13878 4.76642 8.48551 3.77172Z" fill="black"/>
<path fill-rule="evenodd" clip-rule="evenodd" d="M15.6497 11.825C15.6497 11.825 15.6497 11.825 15.6497 11.825L15.6353 11.8276L15.5918 11.8354C15.5535 11.8423 15.497 11.8525 15.4248 11.8658C15.2805 11.8924 15.0736 11.9312 14.8239 11.9797C14.3243 12.0768 13.6555 12.2125 12.9761 12.3674C12.6985 12.4307 12.4761 12.4794 12.2906 12.52C11.9158 12.6021 11.6911 12.6513 11.4652 12.7215C11.1456 12.8208 10.8329 12.9614 10.0854 13.3287C9.67862 13.5286 9.28346 13.8589 8.8738 14.2792C8.57587 14.5849 8.29047 14.9161 7.99355 15.2607C7.87889 15.3938 7.76252 15.5288 7.64304 15.6652C7.22544 16.1417 6.77728 16.6248 6.28531 17.005C5.7903 17.3875 5.22527 17.6862 4.5714 17.7612C4.14491 17.8101 3.69883 17.8111 3.29846 17.7561C2.91373 17.7032 2.50507 17.5898 2.21145 17.3582C1.68788 16.9452 1.33792 16.2465 1.51515 15.289C1.56388 15.0257 1.72278 14.7178 1.87834 14.4525C2.04486 14.1686 2.25059 13.8636 2.44712 13.5872C2.64454 13.3095 2.83732 13.0543 2.98042 12.8688C3.0521 12.7759 3.1116 12.7002 3.15337 12.6474L3.20209 12.5862L3.21521 12.5698L3.21971 12.5642C3.3932 12.3494 3.70845 12.3153 3.92328 12.4888C4.13811 12.6623 4.17163 12.9771 3.99816 13.1919C3.99817 13.1919 3.99815 13.1919 3.99816 13.1919L3.99459 13.1964L3.98294 13.2109L3.93742 13.2681C3.89787 13.3181 3.84094 13.3905 3.77211 13.4797C3.63421 13.6585 3.44973 13.9028 3.26211 14.1666C3.0736 14.4318 2.88652 14.7102 2.74094 14.9584C2.5844 15.2254 2.51191 15.3982 2.49845 15.471C2.38917 16.0614 2.59687 16.3885 2.83081 16.5731C2.91595 16.6403 3.11294 16.7212 3.43466 16.7654C3.74075 16.8075 4.10194 16.8085 4.45745 16.7677C4.87052 16.7203 5.26682 16.5282 5.67387 16.2137C6.08397 15.8968 6.47862 15.4767 6.89094 15.0061C6.99777 14.8842 7.10652 14.758 7.21685 14.6299C7.52074 14.2772 7.83667 13.9106 8.15766 13.5812C8.59851 13.1289 9.08735 12.7049 9.6444 12.4312C10.384 12.0677 10.7635 11.8924 11.1683 11.7666C11.4365 11.6832 11.7214 11.6208 12.1303 11.5312C12.3108 11.4916 12.5156 11.4467 12.7537 11.3924C13.4472 11.2343 14.1273 11.0964 14.6332 10.9981C14.8864 10.9489 15.0965 10.9095 15.2435 10.8824C15.3171 10.8689 15.3748 10.8584 15.4143 10.8512L15.4596 10.8431L15.4755 10.8403C15.7474 10.7922 16.007 10.9737 16.055 11.2456C16.1031 11.5175 15.9216 11.7769 15.6497 11.825Z" fill="black"/>
</g>
<defs>
<clipPath id="clip0_1232_1629">
<rect width="20" height="20" fill="white"/>
</clipPath>
</defs>
</svg>
