<svg xmlns="http://www.w3.org/2000/svg" width="20" height="20" viewBox="0 0 20 20">
  <g fill="none" fill-rule="evenodd">
    <g stroke="#AB92F0" transform="rotate(135 10.167 7.747)">
      <path fill="#AB92F0" stroke-linecap="round" d="M10.67022,-2.07242065 L12.67022,-2.07242065 C13.4986472,-2.07242065 14.17022,-1.40084777 14.17022,-0.572420647 L14.17022,9.29689375 C14.17022,9.70024919 14.007773,10.0866075 13.7195406,10.3687736 L12.7370442,11.3305918 C12.1589429,11.8965262 11.2362019,11.9020656 10.6513477,11.3431126 L9.63384402,10.3706709 C9.33772564,10.0876667 9.17022004,9.69587679 9.17022004,9.28627028 L9.17022004,-0.572420647 C9.17022004,-1.40084777 9.84179292,-2.07242065 10.67022,-2.07242065 Z" transform="rotate(90 11.67 4.843)"/>
      <path fill="#FFF" stroke-linecap="round" d="M12.5,4 L14.5,4" transform="rotate(90 13.5 4)"/>
      <path fill="#FFF" stroke-linecap="round" stroke-width="1.5" d="M19.5,5 L23.5,5" transform="rotate(90 21.5 5)"/>
      <path fill="#FFF" stroke-linecap="round" stroke-width="1.5" d="M13.5659776,4.5 L22,4.5" transform="rotate(90 18 5)"/>
      <path fill="#FFF" stroke-linecap="round" d="M9.5,4 L11.5,4" transform="rotate(90 10.5 4)"/>
      <path fill="#FFF" stroke-linecap="square" stroke-width="1.5" d="M19.5,4 L19.5,6" transform="rotate(90 19.5 5)"/>
      <path fill="#FFF" stroke-linecap="round" stroke-width="1.5" d="M0.564971157,4.85786438 L4.80761184,4.85786438"/>
    </g>
    <path stroke="#000" stroke-linecap="round" d="M8.15781085,2.94743804 L10.1578108,2.94743804 C10.986238,2.94743804 11.6578108,3.61901091 11.6578108,4.44743804 L11.6578108,14.3167524 C11.6578108,14.7201079 11.4953638,15.1064662 11.2071314,15.3886323 L10.2246351,16.3504505 C9.6465337,16.9163849 8.72379273,16.9219242 8.13893849,16.3629713 L7.12143482,15.3905296 C6.82531645,15.1075254 6.65781085,14.7157355 6.65781085,14.306129 L6.65781085,4.44743804 C6.65781085,3.61901091 7.32938372,2.94743804 8.15781085,2.94743804 Z" transform="rotate(-135 9.158 9.863)"/>
    <path stroke="#000" stroke-linecap="round" d="M7.46015511,11.7530483 L9.46015511,11.7530483" transform="rotate(-135 8.46 11.753)"/>
    <path stroke="#000" stroke-linecap="round" d="M0.158326209,16.8527957 L3.73406231,16.8527953" transform="rotate(-135 1.946 16.853)"/>
    <path stroke="#000" stroke-linecap="round" d="M-0.242640687,15 L8.24264069,15" transform="rotate(-135 4 15)"/>
    <path stroke="#000" stroke-linecap="round" d="M9.58147545,9.63172798 L11.5814755,9.63172798" transform="rotate(-135 10.581 9.632)"/>
    <path stroke="#000" stroke-linecap="square" d="M2.875,14.6375631 L2.875,17.1124369" transform="rotate(-135 2.875 15.875)"/>
    <path stroke="#000" stroke-linecap="round" d="M12.5249818,3.05668921 L16.7676225,3.05668921" transform="rotate(135 14.981 3.455)"/>
  </g>
</svg>
