<svg xmlns="http://www.w3.org/2000/svg" width="20" height="20" viewBox="0 0 20 20">
  <g fill="none" fill-rule="evenodd" stroke-linecap="round" stroke-linejoin="round">
    <path fill="#AB92F0" stroke="#AB92F0" d="M6.15837964,3.5 L8.16530421,3.5 C8.48989429,5.38235294 9.43414798,6.32352941 10.9980653,6.32352941 C12.5619826,6.32352941 13.5068448,5.38235294 13.8326521,3.5 L15.839999,3.5 C16.3691893,3.5 16.8768099,3.70973028 17.2516743,4.08325274 L19.5,6.32352941 L18.555442,10.5588235 L16.6663261,9.61764706 L16.6663261,17.5 C16.6663261,18.6045695 15.7708956,19.5 14.6663261,19.5 L7.33163026,19.5 C6.22706076,19.5 5.33163026,18.6045695 5.33163026,17.5 L5.33163026,9.61764706 L3.4425143,10.5611935 L2.5,6.32352941 L4.74619335,4.08376207 C5.12110006,3.70992791 5.62893936,3.5 6.15837964,3.5 Z"/>
    <path stroke="#000" d="M5.16054328 2.5L7.16746785 2.5C7.49205793 4.38235294 8.43631162 5.32352941 10.0002289 5.32352941 11.5641462 5.32352941 12.5090085 4.38235294 12.8348157 2.5L14.8421627 2.5C15.371353 2.5 15.8789735 2.70973028 16.253838 3.08325274L18.5021636 5.32352941 17.5576057 9.55882353 15.6684897 8.61764706 15.6684897 16.5C15.6684897 17.6045695 14.7730592 18.5 13.6684897 18.5L6.3337939 18.5C5.2292244 18.5 4.3337939 17.6045695 4.3337939 16.5L4.3337939 8.61764706 2.44467794 9.56119351 1.50216364 5.32352941 3.74835699 3.08376207C4.1232637 2.70992791 4.631103 2.5 5.16054328 2.5zM12 10L14 10"/>
  </g>
</svg>
