<svg xmlns="http://www.w3.org/2000/svg" style="" width="20" height="20" viewBox="0 0 20 20"><g fill="none" fill-rule="evenodd"><path stroke="currentColor" stroke-linecap="round" stroke-linejoin="round" stroke-width="2" d="M10.48 5.907C6.943 4.959.854 7.326 2.036 10.669c.664 1.878 3.558.298 4.423 1.706.866 1.409-1.005 3.751.772 5.665 2.441 2.63 7.134-1 8.032-4.35.898-3.35-1.243-6.835-4.781-7.783z"/><circle cx="6" cy="8.75" r="1" fill="currentColor" stroke="currentColor"/><circle cx="9.75" cy="8.75" r="1" fill="currentColor" stroke="currentColor"/><circle cx="12.25" cy="11.75" r="1" fill="currentColor" stroke="currentColor"/><circle cx="10.75" cy="15.25" r="1" fill="currentColor" stroke="currentColor"/><g stroke="currentColor" transform="rotate(-28 8.824 -23.36)"><path fill="currentColor" d="M1.062 3.552h-.02a.498.498 0 0 0-.478.518l.368 9.336c.003.081.07.146.152.146a.15.15 0 0 0 .15-.144l.33-9.338v-.018a.5.5 0 0 0-.5-.5h-.002z"/><path stroke-linecap="round" d="M1 3.232c.552 0 1-.318 1-1.147C2 1.257 1.552 0 1 0S0 1.257 0 2.085c0 .829.447 1.147 1 1.147z"/></g></g></svg>