<svg width="22" height="20" viewBox="0 0 22 20" fill="none" xmlns="http://www.w3.org/2000/svg">
<path fill-rule="evenodd" clip-rule="evenodd" d="M2 11C1.08049 11 0.648384 9.86349 1.33564 9.25259L10.3356 1.25259C10.7145 0.915803 11.2855 0.915803 11.6644 1.25259L20.6644 9.25259C21.3516 9.86349 20.9195 11 20 11H19V18C19 18.5523 18.5523 19 18 19H4C3.44772 19 3 18.5523 3 18V11H2ZM8 17V12C8 11.4477 8.44772 11 9 11H13C13.5523 11 14 11.4477 14 12V17H17V10C17 9.62477 17.2067 9.29781 17.5124 9.12674L11 3.33795L4.48762 9.12674C4.79334 9.29781 5 9.62477 5 10V17H8ZM10 17V13H12V17H10Z" fill="#AB92F0"/>
</svg>
