<svg width="20" height="20" viewBox="0 0 20 20" fill="none" xmlns="http://www.w3.org/2000/svg">
<path fill-rule="evenodd" clip-rule="evenodd" d="M3 3C3 2.17157 3.67157 1.5 4.5 1.5H15.5C16.3284 1.5 17 2.17157 17 3V10C17 10.8284 16.3284 11.5 15.5 11.5H4.5C3.67157 11.5 3 10.8284 3 10V3ZM5 3.5V9.5H15V3.5H5Z" fill="#AB92F0"/>
<path fill-rule="evenodd" clip-rule="evenodd" d="M1.75 2.5C1.75 1.94772 2.19772 1.5 2.75 1.5H17.25C17.8023 1.5 18.25 1.94772 18.25 2.5C18.25 3.05228 17.8023 3.5 17.25 3.5H2.75C2.19772 3.5 1.75 3.05228 1.75 2.5Z" fill="#AB92F0"/>
<path fill-rule="evenodd" clip-rule="evenodd" d="M3.7198 16.5L4.98058 10.1961L3.01942 9.80389L1.63903 16.7058C1.45339 17.634 2.16333 18.5 3.1099 18.5H16.8901C17.8367 18.5 18.5466 17.634 18.361 16.7058L16.9806 9.80389L15.0194 10.1961L16.2802 16.5H3.7198Z" fill="#AB92F0"/>
</svg>
