<svg width="20" height="20" viewBox="0 0 20 20" fill="none" xmlns="http://www.w3.org/2000/svg">
<path fill-rule="evenodd" clip-rule="evenodd" d="M3.5 11V15C3.5 15.5523 3.94772 16 4.5 16H15.5C16.0523 16 16.5 15.5523 16.5 15V11H18.5V15C18.5 16.6569 17.1569 18 15.5 18H4.5C2.84315 18 1.5 16.6569 1.5 15V11H3.5Z" fill="#AB92F0"/>
<path fill-rule="evenodd" clip-rule="evenodd" d="M1 7C1 5.89543 1.89543 5 3 5H17C18.1046 5 19 5.89543 19 7V10C19 11.6569 17.6569 13 16 13H4C2.34315 13 1 11.6569 1 10V7ZM17 7H3V10C3 10.5523 3.44772 11 4 11H16C16.5523 11 17 10.5523 17 10V7Z" fill="#AB92F0"/>
<path fill-rule="evenodd" clip-rule="evenodd" d="M7 4.74621V6.5H5V4.74621C5 4.50093 5.03008 4.25657 5.08957 4.0186L5.15113 3.77239C5.485 2.43689 6.68495 1.5 8.06155 1.5H11.9384C13.3151 1.5 14.515 2.43689 14.8489 3.77239L14.9104 4.0186C14.9699 4.25657 15 4.50093 15 4.74621V6.5H13V4.74621C13 4.66445 12.99 4.583 12.9701 4.50368L12.9086 4.25746C12.7973 3.8123 12.3973 3.5 11.9384 3.5L8.06155 3.5C7.60268 3.5 7.2027 3.8123 7.09141 4.25746L7.02986 4.50368C7.01003 4.583 7 4.66445 7 4.74621Z" fill="#AB92F0"/>
<path d="M7.866 11.5C7.4811 12.1667 6.51885 12.1667 6.13395 11.5L5.26793 10C4.88302 9.33333 5.36415 8.5 6.13395 8.5H7.866C8.6358 8.5 9.11693 9.33333 8.73203 10L7.866 11.5Z" fill="#AB92F0"/>
<path fill-rule="evenodd" clip-rule="evenodd" d="M7 10.75C7.55228 10.75 8 11.1977 8 11.75V13.5C8 14.0523 7.55228 14.5 7 14.5C6.44772 14.5 6 14.0523 6 13.5V11.75C6 11.1977 6.44772 10.75 7 10.75Z" fill="#AB92F0"/>
<path d="M13.866 11.5C13.4811 12.1667 12.5189 12.1667 12.1339 11.5L11.2679 10C10.883 9.33333 11.3641 8.5 12.134 8.5H13.866C14.6358 8.5 15.1169 9.33333 14.732 10L13.866 11.5Z" fill="#AB92F0"/>
<path fill-rule="evenodd" clip-rule="evenodd" d="M13 10.75C13.5523 10.75 14 11.1977 14 11.75V13.5C14 14.0523 13.5523 14.5 13 14.5C12.4477 14.5 12 14.0523 12 13.5V11.75C12 11.1977 12.4477 10.75 13 10.75Z" fill="#AB92F0"/>
</svg>
