<svg style="" width="20" height="20" viewBox="0 0 20 20" fill="none" xmlns="http://www.w3.org/2000/svg">
<path fill-rule="evenodd" clip-rule="evenodd" d="M16 4H4C2.34315 4 1 5.34315 1 7V14C1 15.6569 2.34315 17 4 17H16C17.6569 17 19 15.6569 19 14V7C19 5.34315 17.6569 4 16 4ZM3 7C3 6.44772 3.44772 6 4 6H16C16.5523 6 17 6.44772 17 7V14C17 14.5523 16.5523 15 16 15H4C3.44772 15 3 14.5523 3 14V7Z" fill="currentColor"/>
<path d="M2.5 7H17.5C17.7761 7 18 7.22386 18 7.5V8.5C18 8.77614 17.7761 9 17.5 9H2.5C2.22386 9 2 8.77614 2 8.5V7.5C2 7.22386 2.22386 7 2.5 7Z" fill="currentColor"/>
<path fill-rule="evenodd" clip-rule="evenodd" d="M6 10H5C4.44772 10 4 10.4477 4 11V12C4 12.5523 4.44772 13 5 13H6C6.55228 13 7 12.5523 7 12V11C7 10.4477 6.55228 10 6 10ZM5 12V11H6V12H5Z" fill="currentColor"/>
</svg>
