<svg width="20" height="20" viewBox="0 0 20 20" fill="none" xmlns="http://www.w3.org/2000/svg">
<g clip-path="url(#clip0)">
<path d="M3.05026 16.9498C0.316587 14.2161 0.316585 9.78392 3.05026 7.05025L8 2.10051L11.5355 5.63604L6.58579 10.5858C5.80474 11.3668 5.80474 12.6332 6.58579 13.4142V13.4142C7.36684 14.1953 8.63316 14.1953 9.41421 13.4142L14.364 8.46447L17.8995 12L12.9498 16.9497C10.2161 19.6834 5.78393 19.6834 3.05026 16.9498V16.9498Z" stroke="#AB92F0" stroke-width="2" stroke-linecap="round" stroke-linejoin="round"/>
<line x1="5.87868" y1="5.63605" x2="8" y2="7.75737" stroke="#AB92F0" stroke-width="2"/>
<line x1="12.2426" y1="12" x2="14.3639" y2="14.1213" stroke="#AB92F0" stroke-width="2"/>
<path d="M18.7003 0.999988L17.5 3.5L16 3L15 5.5" stroke="#AB92F0" stroke-width="2" stroke-linecap="round"/>
</g>
<defs>
<clipPath id="clip0">
<rect width="20" height="20" fill="white"/>
</clipPath>
</defs>
</svg>
