<svg width="20" height="20" viewBox="0 0 20 20" fill="none" xmlns="http://www.w3.org/2000/svg">
<g clip-path="url(#clip0_1210_796)">
<path fill-rule="evenodd" clip-rule="evenodd" d="M11.6847 3.90256C11.2262 3.59468 10.6049 3.71679 10.297 4.17529L7.78845 7.9112L6.12805 6.79628L8.63663 3.06037C9.56027 1.68484 11.4241 1.31852 12.7996 2.24215L16.1204 4.472C17.496 5.39564 17.8623 7.25948 16.9386 8.635L14.4301 12.3709L12.7697 11.256L15.2782 7.52007C15.5861 7.06157 15.464 6.44029 15.0055 6.13241L11.6847 3.90256Z" fill="#AB92F0"/>
<path fill-rule="evenodd" clip-rule="evenodd" d="M2.51657 8.58705C2.82445 8.12855 3.44573 8.00644 3.90424 8.31431L13.8667 15.0039C14.3252 15.3118 14.4473 15.933 14.1394 16.3915C13.8315 16.85 13.2102 16.9722 12.7517 16.6643L2.78931 9.97472C2.3308 9.66684 2.20869 9.04556 2.51657 8.58705Z" fill="#AB92F0"/>
<path fill-rule="evenodd" clip-rule="evenodd" d="M6.32347 8.40978C5.91316 8.46302 5.53683 8.54966 5.32812 8.65521C5.12509 8.7579 4.83864 9.0008 4.55814 9.28829C4.42921 9.42044 4.31924 9.54347 4.2418 9.63318C4.20331 9.67777 4.17344 9.71344 4.15394 9.73705L4.13282 9.76283L4.12881 9.76778C3.78456 10.1995 3.15537 10.2707 2.72353 9.92655C2.29163 9.58234 2.22055 8.95318 2.56476 8.52128L3.34678 9.14453C2.56476 8.52128 2.56468 8.52139 2.56476 8.52128L2.56662 8.51895L2.56969 8.51513L2.57933 8.50319L2.61218 8.46308C2.63987 8.42958 2.67902 8.38286 2.72784 8.3263C2.82502 8.21372 2.96285 8.05946 3.12662 7.89161C3.43152 7.57909 3.91008 7.13116 4.42548 6.87049C4.95603 6.60216 5.62045 6.48424 6.06608 6.42641C6.30548 6.39534 6.51778 6.37747 6.67062 6.3673C6.74741 6.36219 6.81012 6.35896 6.85484 6.35697L6.90819 6.35484L6.92399 6.35432L6.92902 6.35417L6.9308 6.35413L6.9318 6.3541C6.93194 6.35409 6.93207 6.35409 6.95709 7.30741L6.9318 6.3541C7.4839 6.33961 7.94348 6.77542 7.95796 7.32752C7.97244 7.87928 7.53716 8.33836 6.98554 8.35338C6.9852 8.35339 6.98487 8.35339 6.98454 8.3534L6.95831 7.35375C6.98454 8.3534 6.98542 8.35338 6.98554 8.35338L6.97791 8.35363L6.94353 8.35501C6.91196 8.35641 6.86404 8.35885 6.80344 8.36288C6.68151 8.371 6.51204 8.3853 6.32347 8.40978Z" fill="#AB92F0"/>
<path fill-rule="evenodd" clip-rule="evenodd" d="M12.8665 12.8033C12.9725 13.2033 13.0348 13.5844 13.0161 13.8175C12.9979 14.0443 12.8814 14.4014 12.7215 14.7698C12.648 14.9392 12.5757 15.0875 12.522 15.1932C12.4953 15.2457 12.4736 15.2868 12.4591 15.3138L12.4432 15.3431L12.4402 15.3487C12.1708 15.8307 12.3431 16.4401 12.8251 16.7095C13.3071 16.979 13.9164 16.8067 14.1859 16.3246L13.313 15.8367C14.1859 16.3246 14.1858 16.3247 14.1859 16.3246L14.1873 16.322L14.1897 16.3177L14.1971 16.3043L14.2218 16.2587C14.2423 16.2204 14.2708 16.1665 14.3046 16.0999C14.3721 15.9673 14.4627 15.7814 14.5561 15.5663C14.73 15.1657 14.9634 14.5533 15.0097 13.9775C15.0572 13.3849 14.9149 12.7253 14.7998 12.2909C14.7379 12.0576 14.6741 11.8543 14.6257 11.709C14.6014 11.636 14.5806 11.5767 14.5655 11.5345L14.5473 11.4844L14.5418 11.4695L14.5401 11.4648L14.5394 11.4632L14.5391 11.4622C14.539 11.4621 14.539 11.462 13.6471 11.7996L14.5391 11.4622C14.3435 10.9457 13.7662 10.6853 13.2497 10.8808C12.7335 11.0762 12.4733 11.6529 12.6682 12.1692C12.6683 12.1695 12.6684 12.1698 12.6685 12.1701L13.6038 11.816C12.6685 12.1701 12.6682 12.1693 12.6682 12.1692L12.6708 12.1763L12.6826 12.2086C12.6932 12.2384 12.7091 12.2837 12.7283 12.3413C12.7669 12.4572 12.8178 12.6195 12.8665 12.8033Z" fill="#AB92F0"/>
<path fill-rule="evenodd" clip-rule="evenodd" d="M8.32794 12.4893C8.78645 12.7972 8.90856 13.4185 8.60068 13.877L6.92829 16.3676C6.62041 16.8261 5.99913 16.9482 5.54062 16.6403C5.08212 16.3324 4.96001 15.7112 5.26789 15.2526L6.94028 12.762C7.24815 12.3035 7.86943 12.1814 8.32794 12.4893Z" fill="#AB92F0"/>
</g>
<defs>
<clipPath id="clip0_1210_796">
<rect width="20" height="20" fill="white"/>
</clipPath>
</defs>
</svg>
