<svg width="20" height="20" viewBox="0 0 20 20" fill="none" xmlns="http://www.w3.org/2000/svg">
<path fill-rule="evenodd" clip-rule="evenodd" d="M4.35354 10.7175C3.37723 11.6938 3.37723 13.2767 4.35354 14.253L5.76776 15.6673C6.74407 16.6436 8.32698 16.6436 9.30329 15.6673L16.2744 8.69611C16.7572 8.21339 17.0215 7.55425 17.006 6.87175L16.9742 5.46465C16.9436 4.11666 15.8497 3.03572 14.5014 3.02138L13.1266 3.00676C12.4543 2.99961 11.8076 3.2635 11.3322 3.73885L4.35354 10.7175ZM14.8602 7.2819L7.88908 14.253C7.69381 14.4483 7.37723 14.4483 7.18197 14.253L5.76776 12.8388C5.57249 12.6436 5.57249 12.327 5.76776 12.1317L12.7464 5.15307C12.8415 5.058 12.9708 5.00522 13.1053 5.00665L14.4801 5.02127C14.7498 5.02414 14.9686 5.24033 14.9747 5.50992L15.0065 6.91703C15.0096 7.05353 14.9568 7.18536 14.8602 7.2819Z" fill="#AB92F0"/>
<path d="M11.0208 11.6066C11.2161 11.8019 11.2161 12.1185 11.0208 12.3137C10.8256 12.509 10.509 12.509 10.3137 12.3137L8.8995 10.8995C8.70424 10.7042 8.70424 10.3877 8.8995 10.1924C9.09476 9.99713 9.41134 9.99713 9.60661 10.1924L11.0208 11.6066Z" fill="#AB92F0"/>
<path d="M5.71751 16.9099C6.10804 17.3004 6.10804 17.9336 5.71751 18.3241C5.32699 18.7146 4.69382 18.7146 4.3033 18.3241L1.47487 15.4957C1.08435 15.1052 1.08435 14.472 1.47487 14.0815C1.8654 13.6909 2.49856 13.6909 2.88909 14.0815L5.71751 16.9099Z" fill="#AB92F0"/>
<path d="M9.38505 16.6709C9.77558 17.0614 9.77558 17.6945 9.38505 18.0851C8.99453 18.4756 8.36137 18.4756 7.97084 18.0851L2.00709 12.1213C1.61656 11.7308 1.61656 11.0976 2.00709 10.7071C2.39761 10.3166 3.03078 10.3166 3.4213 10.7071L9.38505 16.6709Z" fill="#AB92F0"/>
<path d="M13.1421 9.48528C13.3374 9.68055 13.3374 9.99713 13.1421 10.1924C12.9469 10.3877 12.6303 10.3877 12.435 10.1924L11.0208 8.77818C10.8255 8.58292 10.8255 8.26633 11.0208 8.07107C11.2161 7.87581 11.5327 7.87581 11.7279 8.07107L13.1421 9.48528Z" fill="#AB92F0"/>
<path d="M5 16.4142L3.58578 15L5 13.5858L6.41421 15L5 16.4142Z" fill="#AB92F0"/>
<path d="M17.9703 0.970326C18.2632 0.677433 18.7381 0.677433 19.031 0.970326C19.3239 1.26322 19.3239 1.73809 19.031 2.03099L16.031 5.03099C15.7381 5.32388 15.2632 5.32388 14.9703 5.03099C14.6774 4.73809 14.6774 4.26322 14.9703 3.97033L17.9703 0.970326Z" fill="#AB92F0"/>
</svg>
