<svg width="20" height="20" viewBox="0 0 20 20" fill="none" xmlns="http://www.w3.org/2000/svg">
<path d="M5.70711 15.7071C5.31658 16.0976 4.68342 16.0976 4.29289 15.7071C3.90237 15.3166 3.90237 14.6834 4.29289 14.2929L8.29289 10.2929C8.68342 9.90237 9.31658 9.90237 9.70711 10.2929C10.0976 10.6834 10.0976 11.3166 9.70711 11.7071L5.70711 15.7071Z" fill="#AB92F0"/>
<path d="M5 16C4.44772 16 4 15.5523 4 15C4 14.4477 4.44772 14 5 14H9C9.55228 14 10 14.4477 10 15C10 15.5523 9.55228 16 9 16H5Z" fill="#AB92F0"/>
<path d="M6 15C6 15.5523 5.55228 16 5 16C4.44772 16 4 15.5523 4 15V11C4 10.4477 4.44772 10 5 10C5.55228 10 6 10.4477 6 11V15Z" fill="#AB92F0"/>
<path d="M11.7071 9.70711C11.3166 10.0976 10.6834 10.0976 10.2929 9.70711C9.90237 9.31658 9.90237 8.68342 10.2929 8.29289L14.2929 4.29289C14.6834 3.90237 15.3166 3.90237 15.7071 4.29289C16.0976 4.68342 16.0976 5.31658 15.7071 5.70711L11.7071 9.70711Z" fill="#AB92F0"/>
<path d="M16 9C16 9.55228 15.5523 10 15 10C14.4477 10 14 9.55228 14 9V5C14 4.44772 14.4477 4 15 4C15.5523 4 16 4.44772 16 5V9Z" fill="#AB92F0"/>
<path d="M11 6C10.4477 6 10 5.55228 10 5C10 4.44772 10.4477 4 11 4H15C15.5523 4 16 4.44772 16 5C16 5.55228 15.5523 6 15 6H11Z" fill="#AB92F0"/>
</svg>
