<svg width="20" height="20" viewBox="0 0 20 20" fill="none" xmlns="http://www.w3.org/2000/svg">
<path d="M6.5 11.25C6.08579 11.25 5.75 10.9142 5.75 10.5C5.75 10.0858 6.08579 9.75 6.5 9.75H13.5C13.9142 9.75 14.25 10.0858 14.25 10.5C14.25 10.9142 13.9142 11.25 13.5 11.25H6.5Z" fill="#AB92F0"/>
<path d="M6.5 14.25C6.08579 14.25 5.75 13.9142 5.75 13.5C5.75 13.0858 6.08579 12.75 6.5 12.75H13.5C13.9142 12.75 14.25 13.0858 14.25 13.5C14.25 13.9142 13.9142 14.25 13.5 14.25H6.5Z" fill="#AB92F0"/>
<path fill-rule="evenodd" clip-rule="evenodd" d="M11.1854 0.5H4.5C3.39543 0.5 2.5 1.39543 2.5 2.5V17.5C2.5 18.6046 3.39543 19.5 4.5 19.5H15.5C16.6046 19.5 17.5 18.6046 17.5 17.5V7.20179C17.5 6.70104 17.3122 6.21851 16.9736 5.84956L12.659 1.14777C12.2802 0.734983 11.7457 0.5 11.1854 0.5ZM4.5 17.5V2.5H11.1854L15.5 7.20179V17.5H4.5Z" fill="#AB92F0"/>
<path d="M11.5 6.5H16.5C17.0523 6.5 17.5 6.94772 17.5 7.5C17.5 8.05228 17.0523 8.5 16.5 8.5H10.5C9.94772 8.5 9.5 8.05228 9.5 7.5V1.5C9.5 0.947715 9.94772 0.5 10.5 0.5C11.0523 0.5 11.5 0.947715 11.5 1.5V6.5Z" fill="#AB92F0"/>
</svg>
