<svg width="20" height="20" viewBox="0 0 20 20" fill="none" xmlns="http://www.w3.org/2000/svg">
<g opacity="0.8">
<path d="M16.5683 11.0578C17.2115 11.4651 17.1819 12.4132 16.5144 12.7794L8.48103 17.1873C7.8146 17.553 6.99999 17.0708 6.99999 16.3106V11.5V6.81668C6.99999 6.02863 7.86909 5.55023 8.53491 5.97178L16.5683 11.0578Z" fill="#AB92F0"/>
<path fill-rule="evenodd" clip-rule="evenodd" d="M14.0667 11.8412L8.99999 8.63337V14.6213L14.0667 11.8412ZM16.5144 12.7794C17.1819 12.4132 17.2115 11.4651 16.5683 11.0578L8.53491 5.97178C7.86909 5.55023 6.99999 6.02863 6.99999 6.81668V16.3106C6.99999 17.0708 7.8146 17.553 8.48103 17.1873L16.5144 12.7794Z" fill="#AB92F0"/>
</g>
<path fill-rule="evenodd" clip-rule="evenodd" d="M5.99999 15.3211L15.0144 10.4383L5.99999 4.80427V15.3211ZM15.4907 11.3176C16.1645 10.9526 16.1942 9.99643 15.5444 9.59028L6.52999 3.95627C5.86394 3.53999 4.99999 4.01884 4.99999 4.80427V15.3211C4.99999 16.0788 5.80997 16.5613 6.47627 16.2004L15.4907 11.3176Z" fill="black"/>
</svg>
