<svg width="20" height="20" viewBox="0 0 20 20" fill="none" xmlns="http://www.w3.org/2000/svg">
<g opacity="0.8">
<path d="M11 5.78986L18.3136 4.52084C18.3935 4.50697 18.4745 4.5 18.5556 4.5C19.357 4.5 20 5.164 20 5.97522V15.761C20 16.4819 19.489 17.1009 18.7868 17.2172L11.0817 18.4933C11.0203 18.5035 10.9599 18.502 10.9028 18.4907L3.25492 17.2241C2.53094 17.1042 2 16.4781 2 15.7443V6.01091C2 5.18248 2.67157 4.51091 3.5 4.51091C3.58596 4.51091 3.67175 4.5183 3.75644 4.53299L11 5.78986Z" fill="#AB92F0"/>
</g>
<path fill-rule="evenodd" clip-rule="evenodd" d="M10.0809 4.30391L2.24258 3.01941C2.16239 3.00627 2.08126 2.99966 2 2.99966C1.17157 2.99966 0.5 3.67124 0.5 4.49966V14.2366C0.5 14.9755 1.03815 15.6043 1.7682 15.7185L9.92273 16.994C10.226 17.0414 10.5 16.8069 10.5 16.5V4.79733C10.5 4.5524 10.3226 4.34352 10.0809 4.30391ZM2.08086 4.00625L9.5 5.22206V15.9157L1.92273 14.7305C1.67938 14.6925 1.5 14.4829 1.5 14.2366V4.49966C1.5 4.22352 1.72386 3.99966 2 3.99966C2.02709 3.99966 2.05413 4.00187 2.08086 4.00625Z" fill="black"/>
<path fill-rule="evenodd" clip-rule="evenodd" d="M18 2.99966C17.9187 2.99966 17.8376 3.00627 17.7574 3.01941L9.91914 4.30391C9.67743 4.34352 9.5 4.5524 9.5 4.79733V16.5C9.5 16.8069 9.774 17.0414 10.0773 16.994L18.2318 15.7185C18.9619 15.6043 19.5 14.9755 19.5 14.2366V4.49966C19.5 3.67124 18.8284 2.99966 18 2.99966ZM18.0773 14.7305L10.5 15.9157V5.22206L17.9191 4.00625C17.9459 4.00187 17.9729 3.99966 18 3.99966C18.2761 3.99966 18.5 4.22352 18.5 4.49966V14.2366C18.5 14.4829 18.3206 14.6925 18.0773 14.7305Z" fill="black"/>
</svg>
