<svg width="20" height="20" viewBox="0 0 20 20" fill="none" xmlns="http://www.w3.org/2000/svg">
<g opacity="0.8">
<path fill-rule="evenodd" clip-rule="evenodd" d="M13.3215 7.38391C14.8993 8.08318 16 9.66305 16 11.5V14C16 15.1046 15.1046 16 14 16H13.4146C13.4699 16.1564 13.5 16.3247 13.5 16.5V18.5C13.5 19.3284 12.8284 20 12 20H11C10.1716 20 9.5 19.3284 9.5 18.5V16.5C9.5 16.3247 9.53008 16.1564 9.58535 16H9C7.89543 16 7 15.1046 7 14L7 11.5C7 9.66305 8.10067 8.08318 9.67849 7.38391C8.96207 6.83567 8.5 5.9718 8.5 5C8.5 3.34315 9.84315 2 11.5 2C13.1569 2 14.5 3.34315 14.5 5C14.5 5.9718 14.0379 6.83567 13.3215 7.38391Z" fill="#AB92F0"/>
</g>
<path d="M12.75 12C12.75 12.5523 12.3023 13 11.75 13C11.1977 13 10.75 12.5523 10.75 12C10.75 11.4477 11.1977 11 11.75 11C12.3023 11 12.75 11.4477 12.75 12Z" fill="black"/>
<path d="M9.25 12C9.25 12.5523 8.80228 13 8.25 13C7.69772 13 7.25 12.5523 7.25 12C7.25 11.4477 7.69772 11 8.25 11C8.80228 11 9.25 11.4477 9.25 12Z" fill="black"/>
<path fill-rule="evenodd" clip-rule="evenodd" d="M10 7C11.6569 7 13 5.65685 13 4C13 2.34315 11.6569 1 10 1C8.34315 1 7 2.34315 7 4C7 5.65685 8.34315 7 10 7ZM10 2C11.1046 2 12 2.89543 12 4C12 5.10457 11.1046 6 10 6C8.89543 6 8 5.10457 8 4C8 2.89543 8.89543 2 10 2Z" fill="black"/>
<path fill-rule="evenodd" clip-rule="evenodd" d="M10.5 14H9.5C8.67157 14 8 14.6716 8 15.5V17.5C8 18.3284 8.67157 19 9.5 19H10.5C11.3284 19 12 18.3284 12 17.5V15.5C12 14.6716 11.3284 14 10.5 14ZM9 15.5C9 15.2239 9.22386 15 9.5 15H10.5C10.7761 15 11 15.2239 11 15.5V17.5C11 17.7761 10.7761 18 10.5 18H9.5C9.22386 18 9 17.7761 9 17.5V15.5Z" fill="black"/>
<path d="M15.5 3.75C15.0858 3.75 14.75 3.41421 14.75 3C14.75 2.58579 15.0858 2.25 15.5 2.25H17.5C17.9142 2.25 18.25 2.58579 18.25 3C18.25 3.41421 17.9142 3.75 17.5 3.75H15.5Z" fill="black"/>
<path d="M2.5 3.75C2.08579 3.75 1.75 3.41421 1.75 3C1.75 2.58579 2.08579 2.25 2.5 2.25H4.5C4.91421 2.25 5.25 2.58579 5.25 3C5.25 3.41421 4.91421 3.75 4.5 3.75H2.5Z" fill="black"/>
<path d="M4.10634 3.36382L4.40831 2.39368L8.10634 3.13621L7.80437 4.10635L4.10634 3.36382Z" fill="black"/>
<path d="M11.8937 3.13618L12.1956 4.10632L15.8937 3.36379L15.5917 2.39365L11.8937 3.13618Z" fill="black"/>
<path fill-rule="evenodd" clip-rule="evenodd" d="M14.5 10.5C14.5 8.01472 12.4853 6 10 6C7.51472 6 5.5 8.01472 5.5 10.5V13C5.5 14.1046 6.39543 15 7.5 15H12.5C13.6046 15 14.5 14.1046 14.5 13V10.5ZM6.5 10.5C6.5 8.567 8.067 7 10 7C11.933 7 13.5 8.567 13.5 10.5V13C13.5 13.5523 13.0523 14 12.5 14H7.5C6.94772 14 6.5 13.5523 6.5 13V10.5Z" fill="black"/>
</svg>
