<svg xmlns="http://www.w3.org/2000/svg" style="" width="20" height="20" viewBox="0 0 20 20"><g fill="none" fill-rule="evenodd"><path fill="currentColor" d="M12.5 5.022a5.5 5.5 0 0 1 5 5.478v2.925A2.96 2.96 0 0 1 19 16a2 2 0 0 1-2 2h-3.5a2 2 0 0 1-4 0H6a2 2 0 0 1-2-2 2.96 2.96 0 0 1 1.5-2.575V10.5a5.5 5.5 0 0 1 5-5.478V3a1 1 0 0 1 2 0v2.022z" opacity=".8"/><g stroke="#000" stroke-linecap="round" transform="translate(3 1)"><path d="M5.5 16A1.5 1.5 0 0 0 7 17.5h0A1.5 1.5 0 0 0 8.5 16m4-4.765l.056.025A2.46 2.46 0 0 1 14 13.5a1.5 1.5 0 0 1-1.5 1.5h-11A1.5 1.5 0 0 1 0 13.5a2.46 2.46 0 0 1 1.5-2.265V8a5 5 0 0 1 5-5h1a5 5 0 0 1 5 5v3.235z"/><path stroke-linejoin="round" d="M7 .5V3"/></g></g></svg>