<svg xmlns="http://www.w3.org/2000/svg" style="" width="20" height="20" viewBox="0 0 20 20"><g fill="none" fill-rule="evenodd" stroke-linecap="round" stroke-linejoin="round"><g stroke="currentColor" opacity=".8" transform="translate(3 4)"><path fill="currentColor" d="M3.556 3.868L8 0v13L3.556 9.104v-.063H0v-5.2h3.556v.027z"/><path stroke-width="2" d="M10 9a2.738 2.738 0 0 0 .65-.877C10.871 7.658 11 7.1 11 6.5c0-.966-.334-1.823-.85-2.357A2.245 2.245 0 0 0 10 4"/></g><path stroke="#000" d="M5.556 6.368L10 2.5v13l-4.444-3.896v-.063H2v-5.2h3.556v.027zM13 11.5a2.738 2.738 0 0 0 .65-.877C13.871 10.158 14 9.6 14 9c0-.966-.334-1.823-.85-2.357A2.245 2.245 0 0 0 13 6.5"/></g></svg>