<svg xmlns="http://www.w3.org/2000/svg" style="" style="" style="" width="20" height="20" viewBox="0 0 20 20"><g fill="none" fill-rule="evenodd" stroke-linecap="round"><g stroke="currentColor" opacity=".8" transform="translate(3 4)"><path fill="currentColor" stroke-linejoin="round" d="M3.556 3.868L8 0v13L3.556 9.104v-.063H0v-5.2h3.556v.027z"/><path stroke-linejoin="round" stroke-width="2" d="M10 9a2.738 2.738 0 0 0 .65-.877C10.871 7.658 11 7.1 11 6.5c0-.966-.334-1.823-.85-2.357A2.245 2.245 0 0 0 10 4"/><path stroke-width="2" d="M11 12a6.768 6.768 0 0 0 1.863-1.825 6.586 6.586 0 0 0 .848-1.755A6.458 6.458 0 0 0 14 6.5a6.56 6.56 0 0 0-.289-1.92 6.477 6.477 0 0 0-.848-1.755 6.649 6.649 0 0 0-1.331-1.438A6.768 6.768 0 0 0 11 1"/></g><g stroke="#000" transform="translate(2 2.5)"><path stroke-linejoin="round" d="M3.556 3.868L8 0v13L3.556 9.104v-.063H0v-5.2h3.556v.027zM11 9a2.738 2.738 0 0 0 .65-.877C11.871 7.658 12 7.1 12 6.5c0-.966-.334-1.823-.85-2.357A2.245 2.245 0 0 0 11 4"/><path d="M12 12a6.768 6.768 0 0 0 1.863-1.825 6.586 6.586 0 0 0 .848-1.755A6.458 6.458 0 0 0 15 6.5a6.56 6.56 0 0 0-.289-1.92 6.477 6.477 0 0 0-.848-1.755 6.649 6.649 0 0 0-1.331-1.438A6.768 6.768 0 0 0 12 1"/></g></g></svg>