<svg width="20" height="20" viewBox="0 0 20 20" fill="none" xmlns="http://www.w3.org/2000/svg">
<path opacity="0.8" d="M20 10.75C20 15.5825 16.0825 19.5 11.25 19.5C6.41751 19.5 2.5 15.5825 2.5 10.75C2.5 5.91751 6.41751 2 11.25 2C16.0825 2 20 5.91751 20 10.75Z" fill="#AB92F0"/>
<path fill-rule="evenodd" clip-rule="evenodd" d="M9.75 17.5C14.0302 17.5 17.5 14.0302 17.5 9.75C17.5 5.46979 14.0302 2 9.75 2C5.46979 2 2 5.46979 2 9.75C2 14.0302 5.46979 17.5 9.75 17.5ZM9.75 18.5C14.5825 18.5 18.5 14.5825 18.5 9.75C18.5 4.91751 14.5825 1 9.75 1C4.91751 1 1 4.91751 1 9.75C1 14.5825 4.91751 18.5 9.75 18.5Z" fill="black"/>
<path fill-rule="evenodd" clip-rule="evenodd" d="M6.74647 11.7633C6.61649 11.4906 6.29052 11.3736 6.01658 11.502C5.74154 11.6309 5.62309 11.9584 5.75202 12.2335L6.25002 12C5.75202 12.2335 5.75188 12.2332 5.75202 12.2335L5.75259 12.2347L5.75325 12.2361L5.75486 12.2394L5.75918 12.2483C5.76256 12.2552 5.76696 12.264 5.77239 12.2745C5.78326 12.2956 5.79831 12.3238 5.8178 12.358C5.85675 12.4265 5.91364 12.5195 5.99053 12.6289C6.14406 12.8472 6.37931 13.1334 6.71332 13.4184C7.38859 13.9946 8.45006 14.55 10 14.55C11.55 14.55 12.6114 13.9946 13.2867 13.4184C13.6207 13.1334 13.856 12.8472 14.0095 12.6289C14.0864 12.5195 14.1433 12.4265 14.1822 12.358C14.2017 12.3238 14.2168 12.2956 14.2276 12.2745C14.2331 12.264 14.2375 12.2552 14.2409 12.2483L14.2452 12.2394L14.2468 12.2361L14.2475 12.2347C14.2476 12.2344 14.248 12.2335 13.75 12L14.248 12.2335C14.3769 11.9584 14.2585 11.6309 13.9835 11.502C13.7095 11.3736 13.3836 11.4906 13.2536 11.7633L13.25 11.7704C13.2457 11.7786 13.2379 11.7934 13.2263 11.8139C13.2029 11.8548 13.1646 11.918 13.1097 11.9962C12.9995 12.1528 12.8246 12.3667 12.5727 12.5816C12.0761 13.0054 11.2626 13.45 10 13.45C8.73748 13.45 7.92395 13.0054 7.42735 12.5816C7.17541 12.3667 7.00051 12.1528 6.89037 11.9962C6.83543 11.918 6.7971 11.8548 6.77379 11.8139C6.76215 11.7934 6.75432 11.7786 6.75008 11.7704L6.74647 11.7633Z" fill="black"/>
<path d="M8.5 7.25C8.5 7.94036 7.94036 8.5 7.25 8.5C6.55964 8.5 6 7.94036 6 7.25C6 6.55964 6.55964 6 7.25 6C7.94036 6 8.5 6.55964 8.5 7.25Z" fill="black"/>
<path d="M14 7.25C14 7.94036 13.4404 8.5 12.75 8.5C12.0596 8.5 11.5 7.94036 11.5 7.25C11.5 6.55964 12.0596 6 12.75 6C13.4404 6 14 6.55964 14 7.25Z" fill="black"/>
</svg>
