<svg width="20" height="20" viewBox="0 0 20 20" fill="none" xmlns="http://www.w3.org/2000/svg">
<g clip-path="url(#clip0_303_4955)">
<g opacity="0.8">
<path fill-rule="evenodd" clip-rule="evenodd" d="M12.95 7.75C12.95 7.19772 13.3977 6.75 13.95 6.75H19.2C19.7523 6.75 20.2 7.19772 20.2 7.75C20.2 8.30228 19.7523 8.75 19.2 8.75H13.95C13.3977 8.75 12.95 8.30228 12.95 7.75Z" fill="#AB92F0"/>
<path fill-rule="evenodd" clip-rule="evenodd" d="M16.5 11.5C15.9477 11.5 15.5 11.0523 15.5 10.5V5.25001C15.5 4.69772 15.9477 4.25001 16.5 4.25001C17.0523 4.25001 17.5 4.69772 17.5 5.25001V10.5C17.5 11.0523 17.0523 11.5 16.5 11.5Z" fill="#AB92F0"/>
<path d="M11 6.6C11 8.03594 9.88071 9.2 8.5 9.2C7.11929 9.2 6 8.03594 6 6.6C6 5.16406 7.11929 4 8.5 4C9.88071 4 11 5.16406 11 6.6Z" fill="#AB92F0"/>
<path fill-rule="evenodd" clip-rule="evenodd" d="M8.5 5C7.70818 5 7 5.67902 7 6.6C7 7.52098 7.70818 8.2 8.5 8.2C9.29182 8.2 10 7.52098 10 6.6C10 5.67902 9.29182 5 8.5 5ZM5 6.6C5 4.6491 6.5304 3 8.5 3C10.4696 3 12 4.6491 12 6.6C12 8.5509 10.4696 10.2 8.5 10.2C6.5304 10.2 5 8.5509 5 6.6Z" fill="#AB92F0"/>
<path fill-rule="evenodd" clip-rule="evenodd" d="M13.5 17V14.8333C13.5 12.1487 11.2458 10.0667 8.51348 10.0667C5.78117 10.0667 3.5 12.1487 3.5 14.8333L3.5017 17" fill="#AB92F0"/>
<path fill-rule="evenodd" clip-rule="evenodd" d="M2.5 14.8333C2.5 11.538 5.28924 9.06665 8.51348 9.06665C11.7449 9.06665 14.5 11.5447 14.5 14.8333V17C14.5 17.5523 14.0523 18 13.5 18C12.9477 18 12.5 17.5523 12.5 17V14.8333C12.5 12.7527 10.7467 11.0667 8.51348 11.0667C6.27323 11.0667 4.50022 12.7593 4.5 14.8329C4.5 14.8328 4.5 14.8331 4.5 14.8329L4.5017 16.9992C4.50214 17.5515 4.05478 17.9995 3.50249 18C2.95021 18.0004 2.50214 17.5531 2.5017 17.0008L2.5 14.8333Z" fill="#AB92F0"/>
<path fill-rule="evenodd" clip-rule="evenodd" d="M13.5 18H3.5V17H13.5V18Z" fill="#AB92F0"/>
</g>
<path fill-rule="evenodd" clip-rule="evenodd" d="M11.95 6.75C11.95 6.47386 12.1739 6.25 12.45 6.25H17.7C17.9762 6.25 18.2 6.47386 18.2 6.75C18.2 7.02614 17.9762 7.25 17.7 7.25H12.45C12.1739 7.25 11.95 7.02614 11.95 6.75Z" fill="black"/>
<path fill-rule="evenodd" clip-rule="evenodd" d="M15 10C14.7239 10 14.5 9.77614 14.5 9.5V4.25001C14.5 3.97386 14.7239 3.75001 15 3.75001C15.2761 3.75001 15.5 3.97386 15.5 4.25001V9.5C15.5 9.77614 15.2761 10 15 10Z" fill="black"/>
<path fill-rule="evenodd" clip-rule="evenodd" d="M6.79999 3C5.41928 3 4.29999 4.11929 4.29999 5.5C4.29999 6.88071 5.41928 8 6.79999 8C8.1807 8 9.29999 6.88071 9.29999 5.5C9.29999 4.11929 8.1807 3 6.79999 3ZM3.29999 5.5C3.29999 3.567 4.86699 2 6.79999 2C8.73298 2 10.3 3.567 10.3 5.5C10.3 7.433 8.73298 9 6.79999 9C4.86699 9 3.29999 7.433 3.29999 5.5Z" fill="black"/>
<path fill-rule="evenodd" clip-rule="evenodd" d="M0.799988 14.5C0.799988 11.1782 3.46907 8 6.79999 8C10.1309 8 12.8 11.1782 12.8 14.5V16.5C12.8 16.7761 12.5761 17 12.3 17C12.0238 17 11.8 16.7761 11.8 16.5V14.5C11.8 11.6266 9.48016 9 6.79999 9C4.11982 9 1.79999 11.6266 1.79999 14.5V16.5C1.79999 16.7761 1.57613 17 1.29999 17C1.02385 17 0.799988 16.7761 0.799988 16.5V14.5Z" fill="black"/>
</g>
<defs>
<clipPath id="clip0_303_4955">
<rect width="20" height="20" fill="white"/>
</clipPath>
</defs>
</svg>
