<svg width="20" height="20" viewBox="0 0 20 20" fill="none" xmlns="http://www.w3.org/2000/svg">
<g clip-path="url(#clip0_303_4958)">
<g opacity="0.8">
<path d="M3.75 9.75C3.75 9.19772 4.19772 8.75 4.75 8.75H7.25C7.80228 8.75 8.25 9.19772 8.25 9.75V15.25C8.25 15.8023 7.80228 16.25 7.25 16.25H4.75C4.19772 16.25 3.75 15.8023 3.75 15.25V11.75V9.75Z" fill="#AB92F0"/>
<path fill-rule="evenodd" clip-rule="evenodd" d="M7.25 9.75H4.75L4.75 15.25H7.25V9.75ZM4.75 8.75C4.19772 8.75 3.75 9.19772 3.75 9.75V15.25C3.75 15.8023 4.19772 16.25 4.75 16.25H7.25C7.80228 16.25 8.25 15.8023 8.25 15.25V9.75C8.25 9.19772 7.80228 8.75 7.25 8.75H4.75Z" fill="#AB92F0"/>
<path fill-rule="evenodd" clip-rule="evenodd" d="M11.6452 4.26364C12.19 4.35444 12.558 4.86967 12.4672 5.41444L12.2635 6.63612C12.029 8.04333 11.2225 9.2907 10.0354 10.0821L8.92602 8.41795C9.65308 7.93325 10.1471 7.16922 10.2908 6.3073L10.4944 5.08562C10.5852 4.54085 11.1004 4.17283 11.6452 4.26364Z" fill="#AB92F0"/>
<path fill-rule="evenodd" clip-rule="evenodd" d="M12.7314 5.41482C12.6394 5.3229 12.4824 5.3664 12.4509 5.49251L10.5106 5.00744C10.9192 3.37316 12.9544 2.80943 14.1456 4.0006L14.1878 4.04287C14.5784 4.43339 14.5784 5.06656 14.1878 5.45708C13.7973 5.8476 13.1641 5.8476 12.7736 5.45708L12.7314 5.41482Z" fill="#AB92F0"/>
<path fill-rule="evenodd" clip-rule="evenodd" d="M13.4882 8.72009C12.9524 8.58612 12.6266 8.04317 12.7606 7.50738L12.9091 6.9134C12.9539 6.73448 12.9734 6.55018 12.967 6.36585L12.953 5.9555C12.9462 5.75643 12.8695 5.56611 12.7365 5.41787L14.225 4.08208C14.6717 4.57978 14.9289 5.21875 14.9518 5.88708L14.9659 6.29743C14.9786 6.6681 14.9394 7.03873 14.8494 7.39855L14.7009 7.99253C14.5669 8.52832 14.0239 8.85406 13.4882 8.72009Z" fill="#AB92F0"/>
<path fill-rule="evenodd" clip-rule="evenodd" d="M12.9807 7.75C12.9807 7.19772 13.4284 6.75 13.9807 6.75H15.4807C16.033 6.75 16.4807 7.19772 16.4807 7.75C16.4807 8.30228 16.033 8.75 15.4807 8.75H13.9807C13.4284 8.75 12.9807 8.30228 12.9807 7.75Z" fill="#AB92F0"/>
<path fill-rule="evenodd" clip-rule="evenodd" d="M16.7571 9.53878C16.5154 9.05535 16.0213 8.74997 15.4808 8.74998L15.4808 6.74998C16.7788 6.74997 17.9655 7.48335 18.546 8.64436L18.8752 9.30275C19.1221 9.79673 18.9219 10.3974 18.4279 10.6444C17.934 10.8914 17.3333 10.6912 17.0863 10.1972L16.7571 9.53878Z" fill="#AB92F0"/>
<path fill-rule="evenodd" clip-rule="evenodd" d="M17.1266 15.6851C16.6101 15.4895 16.3499 14.9123 16.5456 14.3958L17.086 12.9689C17.4337 12.0507 17.4222 11.0352 17.0538 10.1252L18.9077 9.37473C19.4651 10.7516 19.4824 12.2881 18.9563 13.6772L18.4159 15.1041C18.2203 15.6206 17.643 15.8808 17.1266 15.6851Z" fill="#AB92F0"/>
<path fill-rule="evenodd" clip-rule="evenodd" d="M14.7527 15.2877C15.3691 15.4619 16.0262 15.2056 16.3619 14.6601L16.629 14.2259C16.9185 13.7556 17.5344 13.6089 18.0048 13.8983C18.4751 14.1878 18.6218 14.8037 18.3324 15.2741L18.0652 15.7082C17.2607 17.0156 15.686 17.6298 14.2088 17.2123L14.7527 15.2877Z" fill="#AB92F0"/>
<path fill-rule="evenodd" clip-rule="evenodd" d="M8.50014 15.0539C8.60845 14.5123 9.13528 14.1611 9.67684 14.2694L14.6768 15.2694C15.2184 15.3777 15.5696 15.9046 15.4613 16.4461C15.353 16.9877 14.8262 17.3389 14.2846 17.2306L9.28461 16.2306C8.74305 16.1223 8.39183 15.5954 8.50014 15.0539Z" fill="#AB92F0"/>
<path fill-rule="evenodd" clip-rule="evenodd" d="M9.48071 8.25C10.033 8.25 10.4807 8.69772 10.4807 9.25V15.25C10.4807 15.8023 10.033 16.25 9.48071 16.25C8.92843 16.25 8.48071 15.8023 8.48071 15.25V9.25C8.48071 8.69772 8.92843 8.25 9.48071 8.25Z" fill="#AB92F0"/>
<path d="M9.25 9.75L12.25 4.75L14.75 7.25L17.25 9.75L17.75 12.25L17.25 15.75L9.75 15.25L9.25 9.75Z" fill="#AB92F0"/>
</g>
<path fill-rule="evenodd" clip-rule="evenodd" d="M5.70001 8.50348H3.20001L3.20001 14.0035H5.70001V8.50348ZM3.20001 7.50348C2.64773 7.50348 2.20001 7.95119 2.20001 8.50348V14.0035C2.20001 14.5558 2.64773 15.0035 3.20001 15.0035H5.70001C6.2523 15.0035 6.70001 14.5558 6.70001 14.0035V8.50348C6.70001 7.95119 6.2523 7.50348 5.70001 7.50348H3.20001Z" fill="black"/>
<path fill-rule="evenodd" clip-rule="evenodd" d="M9.74388 2.82988C10.0431 2.87975 10.2452 3.16273 10.1953 3.46193L9.97166 4.8039C9.73897 6.19992 8.93884 7.43738 7.76126 8.22244L7.15194 7.30846C8.0769 6.69182 8.70538 5.71984 8.88815 4.6233L9.11182 3.28133C9.1617 2.98213 9.44468 2.78 9.74388 2.82988Z" fill="black"/>
<path fill-rule="evenodd" clip-rule="evenodd" d="M11.4157 3.16434C11.0128 2.7615 10.3245 2.95214 10.1864 3.50483L9.1207 3.23842C9.46595 1.85739 11.1858 1.38102 12.1924 2.38761L12.2388 2.43403C12.4533 2.64852 12.4533 2.99627 12.2388 3.21076C12.0243 3.42525 11.6766 3.42525 11.4621 3.21076L11.4157 3.16434Z" fill="black"/>
<path fill-rule="evenodd" clip-rule="evenodd" d="M11.9918 6.65057C11.6976 6.57699 11.5187 6.27879 11.5922 5.98452L11.7554 5.33205C11.8169 5.08583 11.8438 4.83221 11.8351 4.57857L11.8197 4.12781C11.8078 3.78028 11.674 3.44801 11.4417 3.1892L12.2593 2.45555C12.6637 2.90629 12.8968 3.48497 12.9175 4.09023L12.9329 4.54098C12.9451 4.89698 12.9074 5.25294 12.821 5.59851L12.6579 6.25097C12.5843 6.54525 12.2861 6.72415 11.9918 6.65057Z" fill="black"/>
<path fill-rule="evenodd" clip-rule="evenodd" d="M11.8505 6.11777C11.8505 5.81444 12.0964 5.56854 12.3997 5.56854H14.0474C14.3507 5.56854 14.5966 5.81444 14.5966 6.11777C14.5966 6.4211 14.3507 6.667 14.0474 6.667H12.3997C12.0964 6.667 11.8505 6.4211 11.8505 6.11777Z" fill="black"/>
<path fill-rule="evenodd" clip-rule="evenodd" d="M15.9407 7.83707C15.5821 7.11996 14.8492 6.66698 14.0474 6.66698L14.0474 5.56852C15.2653 5.56851 16.3786 6.25657 16.9232 7.34582L17.2848 8.06904C17.4204 8.34035 17.3105 8.67025 17.0392 8.80591C16.7679 8.94156 16.438 8.83159 16.3023 8.56029L15.9407 7.83707Z" fill="black"/>
<path fill-rule="evenodd" clip-rule="evenodd" d="M16.0498 14.3206C15.7661 14.2132 15.6232 13.8961 15.7307 13.6125L16.3243 12.045C16.7552 10.9072 16.741 9.6486 16.2844 8.52076L17.3026 8.10858C17.863 9.49283 17.8805 11.0375 17.3515 12.4341L16.7579 14.0015C16.6505 14.2852 16.3334 14.428 16.0498 14.3206Z" fill="black"/>
<path fill-rule="evenodd" clip-rule="evenodd" d="M13.0983 14.9261C14.0118 15.1843 14.9856 14.8045 15.483 13.9961L15.7765 13.5192C15.9355 13.2608 16.2738 13.1803 16.5321 13.3392C16.7904 13.4982 16.871 13.8365 16.712 14.0949L16.4186 14.5717C15.6636 15.7986 14.1858 16.375 12.7996 15.9832L13.0983 14.9261Z" fill="black"/>
<path fill-rule="evenodd" clip-rule="evenodd" d="M6.91807 14.2485C6.97756 13.9511 7.26691 13.7582 7.56435 13.8177L13.0567 14.9161C13.3541 14.9756 13.547 15.265 13.4875 15.5624C13.428 15.8599 13.1387 16.0528 12.8412 15.9933L7.34893 14.8948C7.05149 14.8353 6.85859 14.546 6.91807 14.2485Z" fill="black"/>
<path fill-rule="evenodd" clip-rule="evenodd" d="M7.46078 7.21625C7.76411 7.21625 8.01001 7.46215 8.01001 7.76548V14.3562C8.01001 14.6596 7.76411 14.9055 7.46078 14.9055C7.15745 14.9055 6.91155 14.6596 6.91155 14.3562V7.76548C6.91155 7.46215 7.15745 7.21625 7.46078 7.21625Z" fill="black"/>
<path d="M5.45001 12.5035C5.45001 13.0558 5.0023 13.5035 4.45001 13.5035C3.89773 13.5035 3.45001 13.0558 3.45001 12.5035C3.45001 11.9512 3.89773 11.5035 4.45001 11.5035C5.0023 11.5035 5.45001 11.9512 5.45001 12.5035Z" fill="black"/>
</g>
<defs>
<clipPath id="clip0_303_4958">
<rect width="20" height="20" fill="white"/>
</clipPath>
</defs>
</svg>
