<svg width="20" height="20" viewBox="0 0 20 20" fill="none" xmlns="http://www.w3.org/2000/svg">
<g clip-path="url(#clip0_2522_864)">
<path fill-rule="evenodd" clip-rule="evenodd" d="M8.70242 2.91814L9.82919 0.664612L11.1708 1.33543L10.0441 3.58896C9.99003 3.69703 10.021 3.82827 10.1177 3.90077L10.4595 4.15716C10.4645 4.16086 10.4676 4.16224 10.4688 4.16274C10.4702 4.16329 10.4713 4.16358 10.4726 4.16374C10.4756 4.16411 10.4813 4.16396 10.4885 4.16122C10.4957 4.15849 10.5 4.15476 10.502 4.15252C10.5029 4.15153 10.5035 4.15054 10.5042 4.14922C10.5048 4.14801 10.5062 4.14492 10.5074 4.13888C10.7349 3.00119 12.0963 2.52065 12.9876 3.2634L13.9513 4.06648C14.8499 4.81535 14.775 6.21808 13.8017 6.86695L13.5824 7.01312C13.555 7.03143 13.5314 7.05499 13.5131 7.08246L12.792 8.16412C12.7646 8.20519 12.75 8.25344 12.75 8.3028V8.58581C12.75 9.04994 12.5656 9.49506 12.2374 9.82325L12.0303 10.0304C11.4714 10.5892 10.5715 10.5992 10.0004 10.0602L9.9948 10.0659C9.99361 10.0671 9.99337 10.0676 9.99329 10.0678L9.99328 10.0678C9.99319 10.068 9.99308 10.0683 9.99297 10.0687C9.99284 10.0692 9.99272 10.0698 9.99267 10.0706C9.99257 10.0719 9.99275 10.0729 9.99289 10.0734C9.99293 10.0735 9.99305 10.0741 9.99412 10.0755L11.0704 11.5105C11.8223 12.3095 10.9619 13.5926 9.92728 13.1787L8.79526 12.7259C8.67791 12.679 8.56812 12.615 8.46942 12.536L6.13062 10.665C6.01543 10.5728 5.91235 10.4665 5.82384 10.3485L4.68559 8.8308C4.3694 8.40922 4.26003 7.8676 4.38784 7.35636L4.69398 6.13182C4.70672 6.08084 4.70308 6.02713 4.68356 5.97834L3.80365 3.77857L5.19636 3.22148L6.07627 5.42125C6.2129 5.76281 6.23841 6.13874 6.14919 6.49562L5.84305 7.72016C5.8248 7.7932 5.84042 7.87057 5.88559 7.9308L7.02384 9.44846C7.03648 9.46532 7.05121 9.48051 7.06766 9.49367L8.66521 10.7717C8.36261 10.1962 8.46146 9.47791 8.93414 9.00523L8.96968 8.96969C9.52857 8.4108 10.4285 8.40084 10.9996 8.9398L11.1768 8.76258C11.2237 8.7157 11.25 8.65211 11.25 8.58581V8.3028C11.25 7.9573 11.3523 7.61954 11.5439 7.33207L12.265 6.25041C12.3932 6.05817 12.5582 5.89321 12.7504 5.76504L12.9696 5.61888C13.1087 5.52618 13.1194 5.32579 12.991 5.21881L12.0273 4.41573C12.0222 4.41145 12.019 4.40988 12.0178 4.40936C12.0171 4.40901 12.0164 4.40876 12.0157 4.40857C12.0152 4.40845 12.0148 4.40836 12.0143 4.40829C12.0115 4.40783 12.0056 4.40772 11.9979 4.41044C11.9902 4.41316 11.9856 4.41699 11.9837 4.4191C11.9829 4.42 11.9823 4.42089 11.9816 4.42214C11.9811 4.42326 11.9796 4.4265 11.9783 4.43305C11.7575 5.53707 10.4602 6.03269 9.55953 5.35716L9.21767 5.10076C8.54107 4.59331 8.32419 3.6746 8.70242 2.91814Z" fill="#AB92F0"/>
<path fill-rule="evenodd" clip-rule="evenodd" d="M12.592 13.4491C12.4763 13.4161 12.3535 13.4701 12.2997 13.5777L11.8944 14.3882C11.8592 14.4585 11.8592 14.5414 11.8944 14.6118L12.47 15.7629C12.6935 16.21 12.7152 16.7313 12.5296 17.1955L11.6964 19.2785L10.3036 18.7214L11.1369 16.6384C11.1634 16.5721 11.1603 16.4976 11.1284 16.4337L10.5528 15.2826C10.3065 14.7899 10.3065 14.21 10.5528 13.7173L10.958 12.9069C11.3346 12.1536 12.1943 11.7755 13.004 12.0068L13.6326 12.1864C13.9998 12.2913 14.3227 12.5135 14.5518 12.8191L15.0574 13.4931C15.0645 13.5026 15.0722 13.5115 15.0806 13.5199L15.3846 13.8239C16.0246 14.4639 16.071 15.4863 15.4915 16.1817L13.5762 18.4801L12.4238 17.5198L14.3392 15.2214C14.422 15.1221 14.4154 14.976 14.3239 14.8846L14.0199 14.5806C13.9614 14.522 13.9071 14.4594 13.8574 14.3931L13.3518 13.7191C13.3191 13.6754 13.273 13.6437 13.2205 13.6287L12.592 13.4491Z" fill="#AB92F0"/>
<path fill-rule="evenodd" clip-rule="evenodd" d="M10 2C5.58172 2 2 5.58172 2 10C2 14.4183 5.58172 18 10 18C14.4183 18 18 14.4183 18 10C18 5.58172 14.4183 2 10 2ZM0 10C0 4.47715 4.47715 0 10 0C15.5228 0 20 4.47715 20 10C20 15.5228 15.5228 20 10 20C4.47715 20 0 15.5228 0 10Z" fill="#AB92F0"/>
</g>
<defs>
<clipPath id="clip0_2522_864">
<rect width="20" height="20" fill="white"/>
</clipPath>
</defs>
</svg>
