<svg width="20" height="20" viewBox="0 0 20 20" fill="none" xmlns="http://www.w3.org/2000/svg">
<g clip-path="url(#clip0_2522_866)">
<path fill-rule="evenodd" clip-rule="evenodd" d="M10 2C5.58172 2 2 5.58172 2 10C2 14.4183 5.58172 18 10 18C14.4183 18 18 14.4183 18 10C18 5.58172 14.4183 2 10 2ZM0 10C0 4.47715 4.47715 0 10 0C15.5228 0 20 4.47715 20 10C20 15.5228 15.5228 20 10 20C4.47715 20 0 15.5228 0 10Z" fill="#AB92F0"/>
<path fill-rule="evenodd" clip-rule="evenodd" d="M12.2621 2.70132L11.8292 1.83543L13.1708 1.16461L13.6038 2.0305C13.6843 2.19143 13.7382 2.36427 13.7637 2.54239L13.9251 3.67222C14.0784 4.74556 13.0477 5.44044 12.1764 5.17569L12.5447 5.91242C12.7144 6.25181 12.7424 6.64471 12.6224 7.00468C12.2588 8.09554 10.8236 8.33223 10.1282 7.42079L10.0528 7.5715C10.0271 7.62292 10.0479 7.68546 10.0994 7.71117L10.1958 7.75939C10.3606 7.84179 10.511 7.95036 10.641 8.08029C11.0677 8.50701 11.2412 9.12782 11.0943 9.7151L10.6297 11.5737C10.3174 12.823 8.67076 13.1082 7.95645 12.0368C7.84898 11.8755 7.77413 11.6948 7.73614 11.5049L7.26809 9.16461L7.11136 8.53771L6.94585 9.03424C6.37319 10.7522 3.88783 10.5756 3.56388 8.79389L3.35156 7.62612C3.33749 7.5487 3.28778 7.48243 3.2174 7.44724L1.66461 6.67084L2.33543 5.3292L3.88822 6.10559C4.38089 6.35193 4.72883 6.81585 4.82737 7.35779L5.03969 8.52556C5.05463 8.60771 5.08733 8.64866 5.11676 8.67325C5.1519 8.70262 5.20452 8.72571 5.26793 8.73021C5.33135 8.73472 5.3867 8.71931 5.42564 8.69521C5.45826 8.67502 5.49642 8.63911 5.52283 8.5599L5.77684 7.79785C5.79583 7.74088 5.81884 7.68533 5.8457 7.63161L6.39462 6.53378C6.84563 5.63175 8.18318 5.92312 8.24761 6.89805L8.73196 8.83543L9.19246 11.1379L9.63912 9.3513C9.65769 9.27702 9.63578 9.19643 9.58029 9.14095C9.56401 9.12467 9.54515 9.11111 9.52499 9.10103L9.42854 9.05281C8.63615 8.65661 8.31497 7.69307 8.71117 6.90068L8.81624 6.69054C9.23753 5.84796 10.3011 5.64635 10.9998 6.17653L10.4504 5.07781C10.2685 4.71408 10.2685 4.28596 10.4504 3.92224C10.8214 3.18029 11.759 2.99649 12.3802 3.46439L12.2788 2.75452C12.2761 2.73601 12.2705 2.71805 12.2621 2.70132Z" fill="#AB92F0"/>
<path fill-rule="evenodd" clip-rule="evenodd" d="M18.6013 14.9077L16.4486 15.2014C16.0997 15.249 15.7445 15.1902 15.4295 15.0327L15.2608 14.9483C15.1758 14.9058 15.0741 14.9152 14.9983 14.9725L14.1227 15.6341C13.9788 15.7429 13.8193 15.8285 13.65 15.8882L14.0971 15.8137C14.4619 15.7529 14.8366 15.8092 15.1674 15.9746L15.8766 16.3292L15.2058 17.6708L14.4966 17.3163C14.4494 17.2926 14.3958 17.2846 14.3437 17.2933L12.8301 17.5455C11.7438 17.7266 10.8551 16.6866 11.2034 15.6418C11.3645 15.1583 11.7658 14.7938 12.2624 14.6796L13.1236 14.4816C13.158 14.4737 13.1902 14.4586 13.2183 14.4374L14.0939 13.7757C14.6246 13.3748 15.3367 13.3092 15.9316 13.6067L16.1003 13.691C16.1453 13.7135 16.196 13.7219 16.2459 13.7151L18.3986 13.4215L18.6013 14.9077Z" fill="#AB92F0"/>
<path fill-rule="evenodd" clip-rule="evenodd" d="M16.0009 4.34343L16.2337 2.76613L14.7497 2.54719L14.5086 4.18131C14.4999 4.24072 14.47 4.295 14.4245 4.3342L13.4788 5.14909C13.0796 5.49314 12.9337 6.04771 13.112 6.54368C13.5058 7.63891 15.0412 7.67428 15.4855 6.5996L16.2023 6.19608C16.3538 6.11084 16.4916 6.00352 16.6115 5.87766L17.279 5.17633L16.1925 4.14213L16.0009 4.34343Z" fill="#AB92F0"/>
<path fill-rule="evenodd" clip-rule="evenodd" d="M12.0339 10.2736C11.7439 10.1532 11.5174 9.87781 11.5174 9.49487C11.5174 9.09085 11.7539 8.82004 12.0507 8.70785L12.1545 8.2663C12.3382 7.48525 13.3875 7.34058 13.7757 8.04279C13.8486 8.17467 13.8861 8.32285 13.8851 8.47297C14.5485 8.95363 14.4164 10.1029 13.5055 10.3239L12.8391 10.4856C12.5422 10.5577 12.2426 10.469 12.0339 10.2736ZM12.8665 9.07154C12.8659 9.07257 12.8653 9.0736 12.8647 9.07463C12.8665 9.07504 12.8683 9.07545 12.8702 9.07584C12.8689 9.0744 12.8677 9.07297 12.8665 9.07154Z" fill="#AB92F0"/>
<path fill-rule="evenodd" clip-rule="evenodd" d="M10.5587 12.3865C10.5485 12.3915 10.5384 12.3967 10.5284 12.4021C9.62481 12.8887 9.94524 14.2885 11.0024 14.2885C11.2093 14.2886 11.4017 14.2259 11.5614 14.1184C11.7194 14.1896 11.8841 14.2075 12.0388 14.1824C12.2702 14.2739 12.5384 14.2673 12.7749 14.1429L13.304 13.8647C13.7855 13.6116 14.087 13.1124 14.087 12.5684C14.087 11.5953 13.1557 10.8928 12.2201 11.1601L11.596 11.3384C11.082 11.4853 10.6951 11.8891 10.5587 12.3865Z" fill="#AB92F0"/>
<path fill-rule="evenodd" clip-rule="evenodd" d="M14.0266 11.455C14.0266 10.6692 14.9005 10.1987 15.5565 10.6313L15.8566 10.8292L16.0793 10.8001C16.9202 10.6901 17.5566 11.5442 17.2108 12.3186C17.1105 12.5432 16.9368 12.727 16.7184 12.84L16.5927 12.9049C16.1604 13.1285 15.6462 13.1266 15.2155 12.9001L15.138 12.8593C14.9924 12.7827 14.8589 12.6849 14.7422 12.569L14.4389 12.268C14.1846 12.1044 14.0266 11.8209 14.0266 11.5123L14.0266 11.455Z" fill="#AB92F0"/>
</g>
<defs>
<clipPath id="clip0_2522_866">
<rect width="20" height="20" fill="white"/>
</clipPath>
</defs>
</svg>
