<svg width="20" height="20" viewBox="0 0 20 20" fill="none" xmlns="http://www.w3.org/2000/svg">
<path fill-rule="evenodd" clip-rule="evenodd" d="M10 3C6.13401 3 3 6.13401 3 10C3 13.866 6.13401 17 10 17C13.866 17 17 13.866 17 10C17 6.13401 13.866 3 10 3ZM1 10C1 5.02944 5.02944 1 10 1C14.9706 1 19 5.02944 19 10C19 14.9706 14.9706 19 10 19C5.02944 19 1 14.9706 1 10Z" fill="#AB92F0"/>
<path fill-rule="evenodd" clip-rule="evenodd" d="M16.8062 4.9293C17.0819 5.40782 16.9175 6.01928 16.439 6.29502C15.7627 6.68475 14.8753 6.983 13.8896 7.1925C13.3494 7.30733 12.8184 6.96248 12.7036 6.42226C12.5888 5.88205 12.9336 5.35103 13.4738 5.23621C14.3456 5.0509 15.0114 4.80935 15.4405 4.56213C15.919 4.28639 16.5304 4.45078 16.8062 4.9293ZM3.39173 5.10147C3.63925 4.60775 4.24014 4.40817 4.73385 4.65569C5.76688 5.17359 7.69198 5.57143 9.99997 5.57143C10.5522 5.57143 11 6.01915 11 6.57143C11 7.12372 10.5522 7.57143 9.99997 7.57143C7.53773 7.57143 5.26144 7.15746 3.83751 6.44359C3.3438 6.19607 3.14421 5.59518 3.39173 5.10147Z" fill="#AB92F0"/>
<path fill-rule="evenodd" clip-rule="evenodd" d="M17.7553 8.41738C17.9982 8.91339 17.793 9.51238 17.297 9.75527C15.6986 10.5379 12.9101 11 9.86736 11C6.9978 11 4.37293 10.5892 2.75096 9.89822C2.24286 9.68175 2.00644 9.09438 2.22291 8.58629C2.43937 8.07819 3.02674 7.84177 3.53484 8.05823C4.80418 8.599 7.12342 9.00002 9.86736 9.00002C12.7983 9.00002 15.2253 8.54281 16.4174 7.95905C16.9134 7.71617 17.5124 7.92137 17.7553 8.41738Z" fill="#AB92F0"/>
<path fill-rule="evenodd" clip-rule="evenodd" d="M17.7553 11.846C17.9982 12.342 17.793 12.941 17.297 13.1839C16.4436 13.6017 15.0502 13.9027 13.5907 14.104C12.0934 14.3105 10.3966 14.4286 8.85718 14.4286C8.3049 14.4286 7.85718 13.9809 7.85718 13.4286C7.85718 12.8763 8.3049 12.4286 8.85718 12.4286C10.3046 12.4286 11.9101 12.3169 13.3174 12.1228C14.7623 11.9235 15.8755 11.653 16.4174 11.3876C16.9134 11.1448 17.5124 11.35 17.7553 11.846ZM2.22291 12.0149C2.43937 11.5068 3.02674 11.2704 3.53484 11.4868C3.97396 11.6739 4.55454 11.8502 5.25839 11.9987C5.79878 12.1127 6.14443 12.6432 6.03042 13.1836C5.9164 13.724 5.38591 14.0697 4.84552 13.9556C4.05703 13.7893 3.34393 13.5794 2.75096 13.3268C2.24286 13.1103 2.00644 12.523 2.22291 12.0149Z" fill="#AB92F0"/>
<path fill-rule="evenodd" clip-rule="evenodd" d="M6.85716 13.2857C6.62047 13.2857 6.42859 13.4776 6.42859 13.7143C6.42859 13.951 6.62047 14.1428 6.85716 14.1428C7.09385 14.1428 7.28573 13.951 7.28573 13.7143C7.28573 13.4776 7.09385 13.2857 6.85716 13.2857ZM4.42859 13.7143C4.42859 12.373 5.5159 11.2857 6.85716 11.2857C8.19842 11.2857 9.28573 12.373 9.28573 13.7143C9.28573 15.0555 8.19842 16.1428 6.85716 16.1428C5.5159 16.1428 4.42859 15.0555 4.42859 13.7143Z" fill="#AB92F0"/>
</svg>
