<svg xmlns="http://www.w3.org/2000/svg" style="" style="" style="" width="20" height="20" viewBox="0 0 20 20"><path fill="currentColor" fill-rule="evenodd" d="M6.75 6.038V3.81a1 1 0 0 1 .906-.996l9-.846a1 1 0 0 1 1.094.996V15c0 1.38-1.343 2.5-3 2.5-.828 0-1.578-.28-2.121-.732-.543-.453-.879-1.078-.879-1.768 0-1.38 1.343-2.5 3-2.5.35 0 .687.05 1 .142V6.25l-7 .695V16c0 1.38-1.343 2.5-3 2.5-.828 0-1.578-.28-2.121-.732-.543-.453-.879-1.078-.879-1.768 0-1.38 1.343-2.5 3-2.5.35 0 .687.05 1 .142V6.038z"/></svg>