<svg width="20" height="20" viewBox="0 0 20 20" fill="none" xmlns="http://www.w3.org/2000/svg">
<g opacity="0.8">
<path fill-rule="evenodd" clip-rule="evenodd" d="M18.2094 4.97167C17.882 4.71794 17.4109 4.77766 17.1571 5.10507L15.6571 7.04062C15.4034 7.36802 15.4631 7.83912 15.7905 8.09285C16.1179 8.34658 16.5891 8.28686 16.8428 7.95945L18.3428 6.02391C18.5965 5.6965 18.5368 5.2254 18.2094 4.97167Z" fill="#AB92F0"/>
<path fill-rule="evenodd" clip-rule="evenodd" d="M18.2094 17.0929C17.882 17.3466 17.4109 17.2869 17.1571 16.9595L15.6571 15.024C15.4034 14.6966 15.4631 14.2255 15.7905 13.9717C16.1179 13.718 16.5891 13.7777 16.8428 14.1051L18.3428 16.0407C18.5965 16.3681 18.5368 16.8392 18.2094 17.0929Z" fill="#AB92F0"/>
<path fill-rule="evenodd" clip-rule="evenodd" d="M15.8 2.90004C15.4686 3.14857 15.4015 3.61867 15.65 3.95004L17.15 5.95004C17.3985 6.28141 17.8686 6.34857 18.2 6.10004C18.5314 5.85152 18.5985 5.38141 18.35 5.05004L16.85 3.05004C16.6015 2.71867 16.1314 2.65152 15.8 2.90004Z" fill="#AB92F0"/>
<path fill-rule="evenodd" clip-rule="evenodd" d="M15.8 19.1001C15.4686 18.8515 15.4015 18.3814 15.65 18.0501L17.15 16.0501C17.3985 15.7187 17.8686 15.6515 18.2 15.9001C18.5314 16.1486 18.5985 16.6187 18.35 16.9501L16.85 18.9501C16.6015 19.2814 16.1314 19.3486 15.8 19.1001Z" fill="#AB92F0"/>
<path fill-rule="evenodd" clip-rule="evenodd" d="M2.75 5.68005C2.75 5.12777 3.19772 4.68005 3.75 4.68005C7.56153 4.68005 10.91 7.37639 10.91 10.999C10.91 14.6216 7.56153 17.3179 3.75 17.3179C3.19772 17.3179 2.75 16.8702 2.75 16.3179C2.75 15.7656 3.19772 15.3179 3.75 15.3179C6.74262 15.3179 8.91 13.2515 8.91 10.999C8.91 8.74646 6.74262 6.68005 3.75 6.68005C3.19772 6.68005 2.75 6.23234 2.75 5.68005Z" fill="#AB92F0"/>
<path fill-rule="evenodd" clip-rule="evenodd" d="M17.07 5.68005C17.07 5.12777 16.6223 4.68005 16.07 4.68005C12.2585 4.68005 8.91001 7.37639 8.91001 10.999C8.91001 14.6216 12.2585 17.3179 16.07 17.3179C16.6223 17.3179 17.07 16.8702 17.07 16.3179C17.07 15.7656 16.6223 15.3179 16.07 15.3179C13.0774 15.3179 10.91 13.2515 10.91 10.999C10.91 8.74646 13.0774 6.68005 16.07 6.68005C16.6223 6.68005 17.07 6.23234 17.07 5.68005Z" fill="#AB92F0"/>
</g>
<path fill-rule="evenodd" clip-rule="evenodd" d="M17.5563 4.16926C17.338 4.00011 17.0239 4.03993 16.8548 4.2582L15.3548 6.19374C15.1856 6.41201 15.2254 6.72608 15.4437 6.89524C15.662 7.06439 15.976 7.02457 16.1452 6.8063L17.6452 4.87076C17.8143 4.65249 17.7745 4.33842 17.5563 4.16926Z" fill="black"/>
<path fill-rule="evenodd" clip-rule="evenodd" d="M17.5563 15.8952C17.338 16.0643 17.0239 16.0245 16.8548 15.8063L15.3548 13.8707C15.1856 13.6524 15.2254 13.3384 15.4437 13.1692C15.662 13.0001 15.976 13.0399 16.1452 13.2581L17.6452 15.1937C17.8143 15.412 17.7745 15.726 17.5563 15.8952Z" fill="black"/>
<path fill-rule="evenodd" clip-rule="evenodd" d="M15.45 2.10003C15.2291 2.26571 15.1843 2.57912 15.35 2.80003L16.85 4.80003C17.0157 5.02094 17.3291 5.06571 17.55 4.90003C17.7709 4.73434 17.8157 4.42094 17.65 4.20003L16.15 2.20003C15.9843 1.97912 15.6709 1.93434 15.45 2.10003Z" fill="black"/>
<path fill-rule="evenodd" clip-rule="evenodd" d="M15.45 17.9C15.2291 17.7343 15.1843 17.4209 15.35 17.2L16.85 15.2C17.0157 14.9791 17.3291 14.9343 17.55 15.1C17.7709 15.2657 17.8157 15.5791 17.65 15.8L16.15 17.8C15.9843 18.0209 15.6709 18.0657 15.45 17.9Z" fill="black"/>
<path fill-rule="evenodd" clip-rule="evenodd" d="M2.75 4.68005C2.75 4.40391 2.97386 4.18005 3.25 4.18005C6.8568 4.18005 9.91 6.7189 9.91 9.99899C9.91 13.2791 6.8568 15.8179 3.25 15.8179C2.97386 15.8179 2.75 15.5941 2.75 15.3179C2.75 15.0418 2.97386 14.8179 3.25 14.8179C6.44735 14.8179 8.91 12.594 8.91 9.99899C8.91 7.40394 6.44735 5.18005 3.25 5.18005C2.97386 5.18005 2.75 4.9562 2.75 4.68005Z" fill="black"/>
<path fill-rule="evenodd" clip-rule="evenodd" d="M17.25 4.68005C17.25 4.40391 17.0261 4.18005 16.75 4.18005H15.57C11.9632 4.18005 8.91001 6.7189 8.91001 9.99899C8.91001 13.2791 11.9632 15.8179 15.57 15.8179H16.75C17.0261 15.8179 17.25 15.5941 17.25 15.3179C17.25 15.0418 17.0261 14.8179 16.75 14.8179H15.57C12.3727 14.8179 9.91001 12.594 9.91001 9.99899C9.91001 7.40394 12.3727 5.18005 15.57 5.18005H16.75C17.0261 5.18005 17.25 4.9562 17.25 4.68005Z" fill="black"/>
</svg>
