<svg xmlns="http://www.w3.org/2000/svg" width="20" height="20" viewBox="0 0 20 20">
  <g fill="none" fill-rule="evenodd">
    <circle cx="10" cy="10" r="3" fill="#AB92F0" stroke="#AB92F0" transform="rotate(-90 10 10)"/>
    <path fill="#AB92F0" fill-rule="nonzero" d="M2.5,8 C3.05228475,8 3.5,8.44771525 3.5,9 L3.5,11 C3.5,11.5522847 3.05228475,12 2.5,12 C1.94771525,12 1.5,11.5522847 1.5,11 L1.5,9 C1.5,8.44771525 1.94771525,8 2.5,8 Z" transform="rotate(-90 2.5 10)"/>
    <path fill="#AB92F0" fill-rule="nonzero" d="M17.5,8 C18.0522847,8 18.5,8.44771525 18.5,9 L18.5,11 C18.5,11.5522847 18.0522847,12 17.5,12 C16.9477153,12 16.5,11.5522847 16.5,11 L16.5,9 C16.5,8.44771525 16.9477153,8 17.5,8 Z" transform="rotate(-90 17.5 10)"/>
    <path fill="#AB92F0" fill-rule="nonzero" d="M15.4142136 14L16.8284271 15.4142136C17.2189514 15.8047379 17.2189514 16.4379028 16.8284271 16.8284271 16.4379028 17.2189514 15.8047379 17.2189514 15.4142136 16.8284271L14 15.4142136C13.6094757 15.0236893 13.6094757 14.3905243 14 14 14.3905243 13.6094757 15.0236893 13.6094757 15.4142136 14zM3 3C3.39052429 2.60947571 4.02368927 2.60947571 4.41421356 3L5.82842712 4.41421356C6.21895142 4.80473785 6.21895142 5.43790283 5.82842712 5.82842712 5.43790283 6.21895142 4.80473785 6.21895142 4.41421356 5.82842712L3 4.41421356C2.60947571 4.02368927 2.60947571 3.39052429 3 3zM10 15.5C10.5522847 15.5 11 15.9477153 11 16.5L11 18.5C11 19.0522847 10.5522847 19.5 10 19.5 9.44771525 19.5 9 19.0522847 9 18.5L9 16.5C9 15.9477153 9.44771525 15.5 10 15.5zM10 .5C10.5522847.5 11 .94771525 11 1.5L11 3.5C11 4.05228475 10.5522847 4.5 10 4.5 9.44771525 4.5 9 4.05228475 9 3.5L9 1.5C9 .94771525 9.44771525.5 10 .5zM16.8284271 3C17.2189514 3.39052429 17.2189514 4.02368927 16.8284271 4.41421356L15.4142136 5.82842712C15.0236893 6.21895142 14.3905243 6.21895142 14 5.82842712 13.6094757 5.43790283 13.6094757 4.80473785 14 4.41421356L15.4142136 3C15.8047379 2.60947571 16.4379028 2.60947571 16.8284271 3zM5.82842712 14C6.21895142 14.3905243 6.21895142 15.0236893 5.82842712 15.4142136L4.41421356 16.8284271C4.02368927 17.2189514 3.39052429 17.2189514 3 16.8284271 2.60947571 16.4379028 2.60947571 15.8047379 3 15.4142136L4.41421356 14C4.80473785 13.6094757 5.43790283 13.6094757 5.82842712 14z"/>
  </g>
</svg>
