<svg xmlns="http://www.w3.org/2000/svg" width="155.2" height="59.6" viewBox="0 0 155.2 59.6">
  <path id="Path_30" data-name="Path 30" d="M13.28.8A13.408,13.408,0,0,1,6.56-.92a12.744,12.744,0,0,1-4.8-4.72A12.806,12.806,0,0,1,0-12.24v-31.6a12.448,12.448,0,0,1,1.76-6.48,13.144,13.144,0,0,1,4.8-4.72,13.17,13.17,0,0,1,6.72-1.76H29.04a22.257,22.257,0,0,1,11.44,3.04,22.516,22.516,0,0,1,8.24,8.28A22.471,22.471,0,0,1,51.76-34,22.233,22.233,0,0,1,48.6-22.44a22.579,22.579,0,0,1-8.52,8.32A22.321,22.321,0,0,1,28.4-11.28l-1.44-7.84q-.08-.4-.4-.4-.4,0-.4.56v6.72A12.514,12.514,0,0,1,24.4-5.8,13.565,13.565,0,0,1,19.68-1,12.1,12.1,0,0,1,13.28.8ZM27.36-36.96a3.41,3.41,0,0,0-1.2.16v5.52a2.289,2.289,0,0,0,1.2.4,3,3,0,0,0,2.2-.92,3,3,0,0,0,.92-2.2,2.748,2.748,0,0,0-.92-2.12A3.15,3.15,0,0,0,27.36-36.96ZM53.2-43.92a13.148,13.148,0,0,1,1.64-6.48,12.118,12.118,0,0,1,4.6-4.68,12.972,12.972,0,0,1,6.64-1.72H86.96A11.774,11.774,0,0,1,93.4-55a12.689,12.689,0,0,1,4.44,4.76A12.938,12.938,0,0,1,99.44-44a12.2,12.2,0,0,1-1.6,6.16,12.087,12.087,0,0,1-4.6,4.52,14.267,14.267,0,0,1-6.92,1.8.354.354,0,0,0-.4.4.723.723,0,0,0,.4.64q1.6.16,2.32.16a12.562,12.562,0,0,0,9.6-3.92,13.376,13.376,0,0,1,1.2,5.6,11.979,11.979,0,0,1-3.32,8.8,14.475,14.475,0,0,1-9,4q-.4,0-.4.48t.4.48a16.865,16.865,0,0,0,1.92.08q6,0,9.36-4a8.4,8.4,0,0,1,.92,2.44,18.974,18.974,0,0,1,.28,3.72,13.276,13.276,0,0,1-1.4,5.68A12.6,12.6,0,0,1,93.96-2a11.853,11.853,0,0,1-7,2H65.92a12.455,12.455,0,0,1-6.44-1.72,12.586,12.586,0,0,1-4.6-4.64,12.384,12.384,0,0,1-1.68-6.28ZM114.72.8A13.408,13.408,0,0,1,108-.92a12.744,12.744,0,0,1-4.8-4.72,12.806,12.806,0,0,1-1.76-6.6v-31.6a12.448,12.448,0,0,1,1.76-6.48,13.144,13.144,0,0,1,4.8-4.72,13.17,13.17,0,0,1,6.72-1.76h15.76a22.257,22.257,0,0,1,11.44,3.04,22.516,22.516,0,0,1,8.24,8.28A22.471,22.471,0,0,1,153.2-34a22.233,22.233,0,0,1-3.16,11.56,22.579,22.579,0,0,1-8.52,8.32,22.321,22.321,0,0,1-11.68,2.84l-1.44-7.84q-.08-.4-.4-.4-.4,0-.4.56v6.72a12.514,12.514,0,0,1-1.76,6.44A13.565,13.565,0,0,1,121.12-1,12.1,12.1,0,0,1,114.72.8ZM128.8-36.96a3.41,3.41,0,0,0-1.2.16v5.52a2.289,2.289,0,0,0,1.2.4,3,3,0,0,0,2.2-.92,3,3,0,0,0,.92-2.2,2.748,2.748,0,0,0-.92-2.12A3.15,3.15,0,0,0,128.8-36.96Z" transform="translate(1 57.8)" fill="#fd453e" stroke="#2e1111" stroke-width="2"/>
</svg>
