<svg xmlns="http://www.w3.org/2000/svg" width="20" height="20" viewBox="0 0 20 20"><g fill="none" fill-rule="evenodd" stroke-linecap="round" stroke-linejoin="round"><path fill="#AB92F0" stroke="#AB92F0" d="M14.138 10.454l-3.446 3.16c.276 1.95.4 3.163.371 3.642-.037.623-.495 1.343-1.375 2.16l-1.37-4.906-.786-.786-4.906-1.37c.816-.88 1.536-1.338 2.16-1.376.479-.028 1.693.096 3.643.372l3.16-3.447-6.839-1.91C6.056 4.585 7.208 3.85 8.206 3.792c.825-.05 2.758.443 5.8 1.475l.649-.709c1.878-1.876 3.288-2.343 4.23-1.4.943.942.475 2.352-1.402 4.229l-.708.65c1.032 3.04 1.524 4.973 1.475 5.798-.06.998-.793 2.15-2.201 3.457l-1.91-6.838z"/><path stroke="#000" d="M13.138 9.454l-3.446 3.16c.276 1.95.4 3.163.371 3.642-.037.623-.495 1.343-1.375 2.16l-1.37-4.906-.786-.786-4.906-1.37c.816-.88 1.536-1.338 2.16-1.376.479-.028 1.693.096 3.643.372l3.16-3.447-6.839-1.91C5.056 3.585 6.208 2.85 7.206 2.792c.825-.05 2.758.443 5.8 1.475l.649-.709c1.878-1.876 3.288-2.343 4.23-1.4.943.942.475 2.352-1.402 4.229l-.708.65c1.032 3.04 1.524 4.973 1.475 5.798-.06.998-.793 2.15-2.201 3.457l-1.91-6.838z"/></g></svg>