<svg width="20" height="20" viewBox="0 0 26 26" fill="none" xmlns="http://www.w3.org/2000/svg"><path opacity="0.2" fill-rule="evenodd" clip-rule="evenodd" d="M13.5 26C20.4036 26 26 20.4036 26 13.5C26 6.59644 20.4036 1 13.5 1C6.59644 1 1 6.59644 1 13.5C1 20.4036 6.59644 26 13.5 26ZM13.5 24C19.299 24 24 19.299 24 13.5C24 7.70101 19.299 3 13.5 3C7.70101 3 3 7.70101 3 13.5C3 19.299 7.70101 24 13.5 24Z" fill="currentColor"/><g transform="translate(3, 3)"><g opacity="0.2"><path fill-rule="evenodd" clip-rule="evenodd" d="M11.4526 11L15.6523 5.96027C16.9327 4.42382 14.628 2.50327 13.3477 4.03971L8.39095 9.98776C8.13482 10.2603 7.97147 10.6176 7.97251 11C7.97147 11.3824 8.13482 11.7397 8.39095 12.0122L13.3477 17.9603C14.628 19.4967 16.9327 17.5762 15.6523 16.0397L11.4526 11Z" fill="currentColor"/></g><path d="M12.3841 15.6799L7.38412 9.67993L6.6159 10.3201L11.6159 16.3201L12.3841 15.6799Z" fill="currentColor"/><path d="M11.6159 16.32L6.61591 10.32C6.18912 9.8079 6.95734 9.16772 7.38413 9.67986L12.3841 15.6799C12.8109 16.192 12.0427 16.8322 11.6159 16.32Z" fill="currentColor"/><path d="M11.6159 3.67993L6.6159 9.67993L7.38412 10.3201L12.3841 4.32012L11.6159 3.67993Z" fill="currentColor"/><path d="M12.3841 4.32005L7.38413 10.32C6.95734 10.8322 6.18912 10.192 6.61591 9.67986L11.6159 3.67986C12.0427 3.16772 12.8109 3.8079 12.3841 4.32005Z" fill="currentColor"/></g><path fill-rule="evenodd" clip-rule="evenodd" d="M13 24.5C19.3513 24.5 24.5 19.3513 24.5 13C24.5 6.64873 19.3513 1.5 13 1.5C6.64873 1.5 1.5 6.64873 1.5 13C1.5 19.3513 6.64873 24.5 13 24.5ZM13 25.5C19.9036 25.5 25.5 19.9036 25.5 13C25.5 6.09644 19.9036 0.5 13 0.5C6.09644 0.5 0.5 6.09644 0.5 13C0.5 19.9036 6.09644 25.5 13 25.5Z" fill="currentColor"/></svg>