<svg width="20" height="20" viewBox="0 0 26 26" fill="none" xmlns="http://www.w3.org/2000/svg"><path opacity="0.2" fill-rule="evenodd" clip-rule="evenodd" d="M13.5 26C20.4036 26 26 20.4036 26 13.5C26 6.59644 20.4036 1 13.5 1C6.59644 1 1 6.59644 1 13.5C1 20.4036 6.59644 26 13.5 26ZM13.5 24C19.299 24 24 19.299 24 13.5C24 7.70101 19.299 3 13.5 3C7.70101 3 3 7.70101 3 13.5C3 19.299 7.70101 24 13.5 24Z" fill="currentColor"/><g transform="translate(3, 3)"><g opacity="0.2"><path fill-rule="evenodd" clip-rule="evenodd" d="M12 11.5475L6.96027 7.34769C5.42382 6.06732 3.50327 8.37199 5.03971 9.65236L10.9878 14.6091C11.2603 14.8652 11.6176 15.0286 12 15.0275C12.3824 15.0286 12.7397 14.8652 13.0122 14.6091L18.9603 9.65236C20.4967 8.37199 18.5762 6.06732 17.0397 7.34769L12 11.5475Z" fill="currentColor"/></g><path d="M15.6799 7.11597L9.6799 12.116L10.3201 12.8842L16.3201 7.88419L15.6799 7.11597Z" fill="currentColor"/><path d="M16.3201 7.88412L10.3201 12.8841C9.80793 13.3109 9.16775 12.5427 9.67989 12.1159L15.6799 7.1159C16.192 6.68911 16.8322 7.45733 16.3201 7.88412Z" fill="currentColor"/><path d="M3.6799 7.88419L9.6799 12.8842L10.3201 12.116L4.32009 7.11597L3.6799 7.88419Z" fill="currentColor"/><path d="M4.32008 7.1159L10.3201 12.1159C10.8322 12.5427 10.192 13.3109 9.67989 12.8841L3.67989 7.88412C3.16775 7.45733 3.80793 6.68911 4.32008 7.1159Z" fill="currentColor"/><path d="M1.15063 1.87794C0.94979 1.6771 0.94979 1.35147 1.15063 1.15063C1.35147 0.949789 1.6771 0.949789 1.87794 1.15063L18.8494 18.1221C19.0502 18.3229 19.0502 18.6485 18.8494 18.8494C18.6485 19.0502 18.3229 19.0502 18.1221 18.8494L1.15063 1.87794Z" fill="currentColor"/></g><path fill-rule="evenodd" clip-rule="evenodd" d="M13 24.5C19.3513 24.5 24.5 19.3513 24.5 13C24.5 6.64873 19.3513 1.5 13 1.5C6.64873 1.5 1.5 6.64873 1.5 13C1.5 19.3513 6.64873 24.5 13 24.5ZM13 25.5C19.9036 25.5 25.5 19.9036 25.5 13C25.5 6.09644 19.9036 0.5 13 0.5C6.09644 0.5 0.5 6.09644 0.5 13C0.5 19.9036 6.09644 25.5 13 25.5Z" fill="currentColor"/></svg>