<svg width="20" height="20" viewBox="0 0 26 26" fill="none" xmlns="http://www.w3.org/2000/svg"><path opacity="0.2" fill-rule="evenodd" clip-rule="evenodd" d="M13.5 26C20.4036 26 26 20.4036 26 13.5C26 6.59644 20.4036 1 13.5 1C6.59644 1 1 6.59644 1 13.5C1 20.4036 6.59644 26 13.5 26ZM13.5 24C19.299 24 24 19.299 24 13.5C24 7.70101 19.299 3 13.5 3C7.70101 3 3 7.70101 3 13.5C3 19.299 7.70101 24 13.5 24Z" fill="currentColor"/><g transform="translate(3, 3)"><g opacity="0.2"><path fill-rule="evenodd" clip-rule="evenodd" d="M10.9878 7.39098L5.03971 12.3477C3.50327 13.6281 5.42382 15.9327 6.96027 14.6524L12 10.4526L17.0397 14.6524C18.5762 15.9327 20.4967 13.6281 18.9603 12.3477L13.0122 7.39098C12.7397 7.13485 12.3824 6.9715 12 6.97254C11.6176 6.9715 11.2603 7.13485 10.9878 7.39098Z" fill="currentColor"/></g><path d="M16.3201 12.116L10.3201 7.11597L9.67993 7.88419L15.6799 12.8842L16.3201 12.116Z" fill="currentColor"/><path d="M15.6799 12.8841L9.67992 7.88412C9.16778 7.45733 9.80796 6.68911 10.3201 7.1159L16.3201 12.1159C16.8323 12.5427 16.1921 13.3109 15.6799 12.8841Z" fill="currentColor"/><path d="M4.32012 12.8842L10.3201 7.88419L9.67993 7.11597L3.67993 12.116L4.32012 12.8842Z" fill="currentColor"/><path d="M3.67992 12.1159L9.67992 7.1159C10.1921 6.68911 10.8323 7.45733 10.3201 7.88412L4.32011 12.8841C3.80796 13.3109 3.16778 12.5427 3.67992 12.1159Z" fill="currentColor"/></g><path fill-rule="evenodd" clip-rule="evenodd" d="M13 24.5C19.3513 24.5 24.5 19.3513 24.5 13C24.5 6.64873 19.3513 1.5 13 1.5C6.64873 1.5 1.5 6.64873 1.5 13C1.5 19.3513 6.64873 24.5 13 24.5ZM13 25.5C19.9036 25.5 25.5 19.9036 25.5 13C25.5 6.09644 19.9036 0.5 13 0.5C6.09644 0.5 0.5 6.09644 0.5 13C0.5 19.9036 6.09644 25.5 13 25.5Z" fill="currentColor"/></svg>