<svg width="20" height="20" viewBox="0 0 20 20" fill="none" xmlns="http://www.w3.org/2000/svg"><g opacity="0.2"><path fill-rule="evenodd" clip-rule="evenodd" d="M6.84766 9.79361C6.31731 9.1572 6.4033 8.21135 7.03972 7.681L11.0397 4.34767C11.6761 3.81733 12.622 3.90331 13.1523 4.53973C13.6827 5.17614 13.5967 6.12199 12.9603 6.65234L8.96027 9.98567C8.32385 10.516 7.37801 10.43 6.84766 9.79361Z" fill="currentColor"/><path fill-rule="evenodd" clip-rule="evenodd" d="M17.1523 9.79361C16.622 10.43 15.6761 10.516 15.0397 9.98567L11.0397 6.65234C10.4033 6.12199 10.3173 5.17614 10.8477 4.53973C11.378 3.90331 12.3239 3.81733 12.9603 4.34767L16.9603 7.681C17.5967 8.21135 17.6827 9.1572 17.1523 9.79361Z" fill="currentColor"/><path fill-rule="evenodd" clip-rule="evenodd" d="M12 6C12.8284 6 13.5 6.67157 13.5 7.5V15.5C13.5 16.3284 12.8284 17 12 17C11.1716 17 10.5 16.3284 10.5 15.5V7.5C10.5 6.67157 11.1716 6 12 6Z" fill="currentColor"/></g><path fill-rule="evenodd" clip-rule="evenodd" d="M5.61589 8.65345C5.43911 8.44132 5.46777 8.12603 5.67991 7.94925L9.67991 4.61592C9.89205 4.43914 10.2073 4.4678 10.3841 4.67994C10.5609 4.89207 10.5322 5.20736 10.3201 5.38414L6.32009 8.71747C6.10796 8.89425 5.79267 8.86559 5.61589 8.65345Z" fill="currentColor"/><path fill-rule="evenodd" clip-rule="evenodd" d="M14.3841 8.65345C14.2073 8.86559 13.892 8.89425 13.6799 8.71747L9.67991 5.38414C9.46777 5.20736 9.43911 4.89207 9.61589 4.67994C9.79267 4.4678 10.108 4.43914 10.3201 4.61592L14.3201 7.94925C14.5322 8.12603 14.5609 8.44132 14.3841 8.65345Z" fill="currentColor"/><path fill-rule="evenodd" clip-rule="evenodd" d="M10 5C10.2761 5 10.5 5.22386 10.5 5.5V15C10.5 15.2761 10.2761 15.5 10 15.5C9.72386 15.5 9.5 15.2761 9.5 15V5.5C9.5 5.22386 9.72386 5 10 5Z" fill="currentColor"/><path d="M1.15063 1.87794C0.94979 1.6771 0.94979 1.35147 1.15063 1.15063C1.35147 0.949789 1.6771 0.949789 1.87794 1.15063L18.8494 18.1221C19.0502 18.3229 19.0502 18.6485 18.8494 18.8494C18.6485 19.0502 18.3229 19.0502 18.1221 18.8494L1.15063 1.87794Z" fill="currentColor"/></svg>