<svg width="20" height="20" viewBox="0 0 26 26" fill="none" xmlns="http://www.w3.org/2000/svg"><path opacity="0.2" fill-rule="evenodd" clip-rule="evenodd" d="M13.5 26C20.4036 26 26 20.4036 26 13.5C26 6.59644 20.4036 1 13.5 1C6.59644 1 1 6.59644 1 13.5C1 20.4036 6.59644 26 13.5 26ZM13.5 24C19.299 24 24 19.299 24 13.5C24 7.70101 19.299 3 13.5 3C7.70101 3 3 7.70101 3 13.5C3 19.299 7.70101 24 13.5 24Z" fill="currentColor"/><g transform="translate(3, 3)"><g><g opacity="0.2"><path fill-rule="evenodd" clip-rule="evenodd" d="M15.1438 14.1427C15.0688 14.9678 14.3392 15.5758 13.5142 15.5008L8.32874 15.0294C7.50371 14.9544 6.8957 14.2247 6.9707 13.3997C7.0457 12.5747 7.77532 11.9667 8.60034 12.0417L13.7858 12.5131C14.6108 12.5881 15.2188 13.3177 15.1438 14.1427Z" fill="currentColor"/><path fill-rule="evenodd" clip-rule="evenodd" d="M7.85733 6.85629C8.68235 6.78129 9.41197 7.3893 9.48697 8.21433L9.95838 13.3998C10.0334 14.2248 9.42537 14.9544 8.60034 15.0294C7.77532 15.1044 7.0457 14.4964 6.9707 13.6714L6.49929 8.48594C6.42429 7.66091 7.0323 6.9313 7.85733 6.85629Z" fill="currentColor"/><path fill-rule="evenodd" clip-rule="evenodd" d="M8.81808 13.182C8.23229 12.5962 8.23229 11.6465 8.81808 11.0607L14.4749 5.40382C15.0607 4.81804 16.0105 4.81804 16.5963 5.40382C17.182 5.98961 17.182 6.93936 16.5963 7.52514L10.9394 13.182C10.3536 13.7678 9.40386 13.7678 8.81808 13.182Z" fill="currentColor"/></g><path fill-rule="evenodd" clip-rule="evenodd" d="M12.1479 14.0523C12.1229 14.3273 11.8797 14.5299 11.6047 14.5049L6.41927 14.0335C6.14427 14.0085 5.94159 13.7653 5.96659 13.4903C5.9916 13.2153 6.2348 13.0126 6.50981 13.0376L11.6953 13.509C11.9703 13.534 12.1729 13.7772 12.1479 14.0523Z" fill="currentColor"/><path fill-rule="evenodd" clip-rule="evenodd" d="M5.94787 7.85224C6.22287 7.82724 6.46608 8.02991 6.49108 8.30492L6.96248 13.4904C6.98749 13.7654 6.78481 14.0086 6.50981 14.0336C6.2348 14.0586 5.99159 13.8559 5.96659 13.5809L5.49519 8.39546C5.47019 8.12045 5.67286 7.87725 5.94787 7.85224Z" fill="currentColor"/><path fill-rule="evenodd" clip-rule="evenodd" d="M6.64639 13.3535C6.45113 13.1583 6.45114 12.8417 6.64641 12.6464L13.182 6.11105C13.3773 5.91579 13.6939 5.91579 13.8892 6.11106C14.0844 6.30632 14.0844 6.62291 13.8891 6.81817L7.3535 13.3536C7.15823 13.5488 6.84165 13.5488 6.64639 13.3535Z" fill="currentColor"/></g></g><path fill-rule="evenodd" clip-rule="evenodd" d="M13 24.5C19.3513 24.5 24.5 19.3513 24.5 13C24.5 6.64873 19.3513 1.5 13 1.5C6.64873 1.5 1.5 6.64873 1.5 13C1.5 19.3513 6.64873 24.5 13 24.5ZM13 25.5C19.9036 25.5 25.5 19.9036 25.5 13C25.5 6.09644 19.9036 0.5 13 0.5C6.09644 0.5 0.5 6.09644 0.5 13C0.5 19.9036 6.09644 25.5 13 25.5Z" fill="currentColor"/></svg>