<svg width="20" height="20" viewBox="0 0 20 20" fill="none" xmlns="http://www.w3.org/2000/svg"><g><g opacity="0.2"><path fill-rule="evenodd" clip-rule="evenodd" d="M8.85617 6.35739C8.93117 5.53236 9.66079 4.92435 10.4858 4.99935L15.6713 5.47076C16.4963 5.54576 17.1043 6.27538 17.0293 7.1004C16.9543 7.92543 16.2247 8.53344 15.3997 8.45844L10.2142 7.98703C9.38918 7.91203 8.78117 7.18241 8.85617 6.35739Z" fill="currentColor"/><path fill-rule="evenodd" clip-rule="evenodd" d="M16.1427 13.6438C15.3176 13.7188 14.588 13.1108 14.513 12.2858L14.0416 7.10034C13.9666 6.27532 14.5746 5.5457 15.3997 5.4707C16.2247 5.3957 16.9543 6.00371 17.0293 6.82874L17.5007 12.0142C17.5757 12.8392 16.9677 13.5688 16.1427 13.6438Z" fill="currentColor"/><path fill-rule="evenodd" clip-rule="evenodd" d="M15.1819 7.31812C15.7677 7.90391 15.7677 8.85366 15.1819 9.43944L9.52507 15.0963C8.93928 15.6821 7.98954 15.6821 7.40375 15.0963C6.81796 14.5105 6.81796 13.5608 7.40375 12.975L13.0606 7.31812C13.6464 6.73234 14.5961 6.73234 15.1819 7.31812Z" fill="currentColor"/></g><path fill-rule="evenodd" clip-rule="evenodd" d="M7.85206 5.9519C7.87706 5.67689 8.12027 5.47422 8.39528 5.49922L13.5807 5.97062C13.8557 5.99562 14.0584 6.23883 14.0334 6.51384C14.0084 6.78884 13.7652 6.99152 13.4902 6.96651L8.30474 6.49511C8.02973 6.47011 7.82706 6.2269 7.85206 5.9519Z" fill="currentColor"/><path fill-rule="evenodd" clip-rule="evenodd" d="M14.0521 12.1519C13.7771 12.1769 13.5339 11.9742 13.5089 11.6992L13.0375 6.51378C13.0125 6.23877 13.2152 5.99556 13.4902 5.97056C13.7652 5.94556 14.0084 6.14823 14.0334 6.42324L14.5048 11.6087C14.5298 11.8837 14.3271 12.1269 14.0521 12.1519Z" fill="currentColor"/><path fill-rule="evenodd" clip-rule="evenodd" d="M13.3535 6.65047C13.5488 6.84574 13.5488 7.16232 13.3535 7.35758L6.81796 13.8932C6.6227 14.0884 6.30612 14.0884 6.11085 13.8932C5.91559 13.6979 5.91559 13.3813 6.11085 13.1861L12.6464 6.65047C12.8417 6.45521 13.1583 6.45521 13.3535 6.65047Z" fill="currentColor"/></g></svg>