<svg width="20" height="20" viewBox="0 0 26 26" fill="none" xmlns="http://www.w3.org/2000/svg"><path opacity="0.2" fill-rule="evenodd" clip-rule="evenodd" d="M13.5 26C20.4036 26 26 20.4036 26 13.5C26 6.59644 20.4036 1 13.5 1C6.59644 1 1 6.59644 1 13.5C1 20.4036 6.59644 26 13.5 26ZM13.5 24C19.299 24 24 19.299 24 13.5C24 7.70101 19.299 3 13.5 3C7.70101 3 3 7.70101 3 13.5C3 19.299 7.70101 24 13.5 24Z" fill="currentColor"/><g transform="translate(3, 3)"><g opacity="0.2"><path fill-rule="evenodd" clip-rule="evenodd" d="M12.2064 5.84775C12.8428 5.31741 13.7886 5.40339 14.319 6.03981L17.6523 10.0398C18.1826 10.6762 18.0967 11.6221 17.4602 12.1524C16.8238 12.6828 15.878 12.5968 15.3476 11.9604L12.0143 7.96036C11.484 7.32395 11.5699 6.3781 12.2064 5.84775Z" fill="currentColor"/><path fill-rule="evenodd" clip-rule="evenodd" d="M12.2064 16.1524C11.5699 15.6221 11.484 14.6762 12.0143 14.0398L15.3476 10.0398C15.878 9.40339 16.8238 9.31741 17.4602 9.84775C18.0967 10.3781 18.1826 11.3239 17.6523 11.9604L14.319 15.9604C13.7886 16.5968 12.8428 16.6828 12.2064 16.1524Z" fill="currentColor"/><path fill-rule="evenodd" clip-rule="evenodd" d="M16 11C16 11.8284 15.3284 12.5 14.5 12.5L6.5 12.5C5.67157 12.5 5 11.8284 5 11C5 10.1716 5.67157 9.5 6.5 9.5L14.5 9.5C15.3284 9.5 16 10.1716 16 11Z" fill="currentColor"/></g><path fill-rule="evenodd" clip-rule="evenodd" d="M11.3465 5.61588C11.5587 5.4391 11.874 5.46776 12.0507 5.6799L15.3841 9.6799C15.5608 9.89203 15.5322 10.2073 15.32 10.3841C15.1079 10.5609 14.7926 10.5322 14.6158 10.3201L11.2825 6.32008C11.1057 6.10794 11.1344 5.79266 11.3465 5.61588Z" fill="currentColor"/><path fill-rule="evenodd" clip-rule="evenodd" d="M11.3465 14.3841C11.1344 14.2073 11.1057 13.892 11.2825 13.6799L14.6158 9.6799C14.7926 9.46776 15.1079 9.4391 15.32 9.61588C15.5322 9.79266 15.5608 10.1079 15.3841 10.3201L12.0507 14.3201C11.874 14.5322 11.5587 14.5609 11.3465 14.3841Z" fill="currentColor"/><path fill-rule="evenodd" clip-rule="evenodd" d="M15.5 10C15.5 10.2761 15.2761 10.5 15 10.5L5 10.5C4.72386 10.5 4.5 10.2761 4.5 10C4.5 9.72386 4.72386 9.5 5 9.5L15 9.5C15.2761 9.5 15.5 9.72386 15.5 10Z" fill="currentColor"/></g><path fill-rule="evenodd" clip-rule="evenodd" d="M13 24.5C19.3513 24.5 24.5 19.3513 24.5 13C24.5 6.64873 19.3513 1.5 13 1.5C6.64873 1.5 1.5 6.64873 1.5 13C1.5 19.3513 6.64873 24.5 13 24.5ZM13 25.5C19.9036 25.5 25.5 19.9036 25.5 13C25.5 6.09644 19.9036 0.5 13 0.5C6.09644 0.5 0.5 6.09644 0.5 13C0.5 19.9036 6.09644 25.5 13 25.5Z" fill="currentColor"/></svg>