<svg width="20" height="20" viewBox="0 0 20 20" fill="none" xmlns="http://www.w3.org/2000/svg"><g opacity="0.2"><path fill-rule="evenodd" clip-rule="evenodd" d="M11.2936 15.6524C10.6572 16.1827 9.71134 16.0967 9.18099 15.4603L5.84766 11.4603C5.31731 10.8239 5.4033 9.87805 6.03971 9.34771C6.67613 8.81736 7.62197 8.90335 8.15232 9.53976L11.4857 13.5398C12.016 14.1762 11.93 15.122 11.2936 15.6524Z" fill="currentColor"/><path fill-rule="evenodd" clip-rule="evenodd" d="M11.2936 5.34771C11.93 5.87805 12.016 6.8239 11.4857 7.46031L8.15232 11.4603C7.62197 12.0967 6.67613 12.1827 6.03971 11.6524C5.4033 11.122 5.31731 10.1762 5.84766 9.53976L9.18099 5.53976C9.71134 4.90335 10.6572 4.81736 11.2936 5.34771Z" fill="currentColor"/><path fill-rule="evenodd" clip-rule="evenodd" d="M7.49995 10.5001C7.49995 9.67169 8.17153 9.00012 8.99995 9.00012L17 9.00012C17.8284 9.00012 18.5 9.67169 18.5 10.5001C18.5 11.3285 17.8284 12.0001 17 12.0001L8.99995 12.0001C8.17153 12.0001 7.49995 11.3285 7.49995 10.5001Z" fill="currentColor"/></g><path fill-rule="evenodd" clip-rule="evenodd" d="M8.65342 14.3841C8.44128 14.5609 8.126 14.5322 7.94922 14.3201L4.61589 10.3201C4.43911 10.108 4.46777 9.79268 4.67991 9.6159C4.89204 9.43912 5.20733 9.46778 5.38411 9.67992L8.71744 13.6799C8.89422 13.8921 8.86556 14.2073 8.65342 14.3841Z" fill="currentColor"/><path fill-rule="evenodd" clip-rule="evenodd" d="M8.65342 5.6159C8.86556 5.79268 8.89422 6.10797 8.71744 6.3201L5.38411 10.3201C5.20733 10.5322 4.89204 10.5609 4.67991 10.3841C4.46777 10.2073 4.43911 9.89206 4.61589 9.67992L7.94922 5.67992C8.126 5.46778 8.44128 5.43912 8.65342 5.6159Z" fill="currentColor"/><path fill-rule="evenodd" clip-rule="evenodd" d="M4.99995 10C4.99995 9.72386 5.22381 9.5 5.49995 9.5L15 9.5C15.2761 9.5 15.5 9.72386 15.5 10C15.5 10.2761 15.2761 10.5 15 10.5L5.49995 10.5C5.22381 10.5 4.99995 10.2761 4.99995 10Z" fill="currentColor"/></svg>