<svg width="20" height="20" viewBox="0 0 26 26" fill="none" xmlns="http://www.w3.org/2000/svg"><path opacity="0.2" d="M26 14C26 20.6274 20.6274 26 14 26C7.37258 26 2 20.6274 2 14C2 7.37258 7.37258 2 14 2C20.6274 2 26 7.37258 26 14Z" fill="currentColor"/><g transform="translate(3, 3)"><path fill-rule="evenodd" clip-rule="evenodd" d="M5.61589 8.65345C5.43911 8.44132 5.46777 8.12603 5.67991 7.94925L9.67991 4.61592C9.89205 4.43914 10.2073 4.4678 10.3841 4.67994C10.5609 4.89207 10.5322 5.20736 10.3201 5.38414L6.32009 8.71747C6.10796 8.89425 5.79267 8.86559 5.61589 8.65345Z" fill="currentColor"/><path fill-rule="evenodd" clip-rule="evenodd" d="M14.3841 8.65345C14.2073 8.86559 13.892 8.89425 13.6799 8.71747L9.67991 5.38414C9.46777 5.20736 9.43911 4.89207 9.61589 4.67994C9.79267 4.4678 10.108 4.43914 10.3201 4.61592L14.3201 7.94925C14.5322 8.12603 14.5609 8.44132 14.3841 8.65345Z" fill="currentColor"/><path fill-rule="evenodd" clip-rule="evenodd" d="M10 5C10.2761 5 10.5 5.22386 10.5 5.5V15C10.5 15.2761 10.2761 15.5 10 15.5C9.72386 15.5 9.5 15.2761 9.5 15V5.5C9.5 5.22386 9.72386 5 10 5Z" fill="currentColor"/></g><path fill-rule="evenodd" clip-rule="evenodd" d="M13 24.5C19.3513 24.5 24.5 19.3513 24.5 13C24.5 6.64873 19.3513 1.5 13 1.5C6.64873 1.5 1.5 6.64873 1.5 13C1.5 19.3513 6.64873 24.5 13 24.5ZM13 25.5C19.9036 25.5 25.5 19.9036 25.5 13C25.5 6.09644 19.9036 0.5 13 0.5C6.09644 0.5 0.5 6.09644 0.5 13C0.5 19.9036 6.09644 25.5 13 25.5Z" fill="currentColor"/></svg>