<svg width="20" height="20" viewBox="0 0 26 26" fill="none" xmlns="http://www.w3.org/2000/svg"><path opacity="0.2" fill-rule="evenodd" clip-rule="evenodd" d="M13.5 26C20.4036 26 26 20.4036 26 13.5C26 6.59644 20.4036 1 13.5 1C6.59644 1 1 6.59644 1 13.5C1 20.4036 6.59644 26 13.5 26ZM13.5 24C19.299 24 24 19.299 24 13.5C24 7.70101 19.299 3 13.5 3C7.70101 3 3 7.70101 3 13.5C3 19.299 7.70101 24 13.5 24Z" fill="currentColor"/><g transform="translate(3, 3)"><g opacity="0.2"><path fill-rule="evenodd" clip-rule="evenodd" d="M11.2936 15.6524C10.6572 16.1827 9.71134 16.0967 9.18099 15.4603L5.84766 11.4603C5.31731 10.8239 5.4033 9.87805 6.03971 9.34771C6.67613 8.81736 7.62197 8.90335 8.15232 9.53976L11.4857 13.5398C12.016 14.1762 11.93 15.122 11.2936 15.6524Z" fill="currentColor"/><path fill-rule="evenodd" clip-rule="evenodd" d="M11.2936 5.34771C11.93 5.87805 12.016 6.8239 11.4857 7.46031L8.15232 11.4603C7.62197 12.0967 6.67613 12.1827 6.03971 11.6524C5.4033 11.122 5.31731 10.1762 5.84766 9.53976L9.18099 5.53976C9.71134 4.90335 10.6572 4.81736 11.2936 5.34771Z" fill="currentColor"/><path fill-rule="evenodd" clip-rule="evenodd" d="M7.49995 10.5001C7.49995 9.67169 8.17153 9.00012 8.99995 9.00012L17 9.00012C17.8284 9.00012 18.5 9.67169 18.5 10.5001C18.5 11.3285 17.8284 12.0001 17 12.0001L8.99995 12.0001C8.17153 12.0001 7.49995 11.3285 7.49995 10.5001Z" fill="currentColor"/></g><path fill-rule="evenodd" clip-rule="evenodd" d="M8.65342 14.3841C8.44128 14.5609 8.126 14.5322 7.94922 14.3201L4.61589 10.3201C4.43911 10.108 4.46777 9.79268 4.67991 9.6159C4.89204 9.43912 5.20733 9.46778 5.38411 9.67992L8.71744 13.6799C8.89422 13.8921 8.86556 14.2073 8.65342 14.3841Z" fill="currentColor"/><path fill-rule="evenodd" clip-rule="evenodd" d="M8.65342 5.6159C8.86556 5.79268 8.89422 6.10797 8.71744 6.3201L5.38411 10.3201C5.20733 10.5322 4.89204 10.5609 4.67991 10.3841C4.46777 10.2073 4.43911 9.89206 4.61589 9.67992L7.94922 5.67992C8.126 5.46778 8.44128 5.43912 8.65342 5.6159Z" fill="currentColor"/><path fill-rule="evenodd" clip-rule="evenodd" d="M4.99995 10C4.99995 9.72386 5.22381 9.5 5.49995 9.5L15 9.5C15.2761 9.5 15.5 9.72386 15.5 10C15.5 10.2761 15.2761 10.5 15 10.5L5.49995 10.5C5.22381 10.5 4.99995 10.2761 4.99995 10Z" fill="currentColor"/><path d="M1.15063 1.87794C0.94979 1.6771 0.94979 1.35147 1.15063 1.15063C1.35147 0.949789 1.6771 0.949789 1.87794 1.15063L18.8494 18.1221C19.0502 18.3229 19.0502 18.6485 18.8494 18.8494C18.6485 19.0502 18.3229 19.0502 18.1221 18.8494L1.15063 1.87794Z" fill="currentColor"/></g><path fill-rule="evenodd" clip-rule="evenodd" d="M13 24.5C19.3513 24.5 24.5 19.3513 24.5 13C24.5 6.64873 19.3513 1.5 13 1.5C6.64873 1.5 1.5 6.64873 1.5 13C1.5 19.3513 6.64873 24.5 13 24.5ZM13 25.5C19.9036 25.5 25.5 19.9036 25.5 13C25.5 6.09644 19.9036 0.5 13 0.5C6.09644 0.5 0.5 6.09644 0.5 13C0.5 19.9036 6.09644 25.5 13 25.5Z" fill="currentColor"/></svg>