<svg width="20" height="20" viewBox="0 0 20 20" fill="none" xmlns="http://www.w3.org/2000/svg"><g opacity="0.2"><path d="M9.98353 2.1678C10.1464 2.06524 10.3536 2.06524 10.5165 2.1678L18.3107 7.0769C18.735 7.34413 18.5457 7.99997 18.0442 7.99997H2.45577C1.95433 7.99997 1.76501 7.34413 2.1893 7.0769L9.98353 2.1678Z" fill="currentColor"/><path fill-rule="evenodd" clip-rule="evenodd" d="M10.25 4.36361L7.65193 5.99997H12.8481L10.25 4.36361ZM10.5165 2.1678C10.3536 2.06524 10.1464 2.06524 9.98353 2.1678L2.1893 7.0769C1.76501 7.34413 1.95433 7.99997 2.45577 7.99997H18.0442C18.5457 7.99997 18.735 7.34413 18.3107 7.0769L10.5165 2.1678Z" fill="currentColor"/><path fill-rule="evenodd" clip-rule="evenodd" d="M1.75 17.5C1.75 16.9477 2.19772 16.5 2.75 16.5H17.75C18.3023 16.5 18.75 16.9477 18.75 17.5C18.75 18.0523 18.3023 18.5 17.75 18.5H2.75C2.19772 18.5 1.75 18.0523 1.75 17.5Z" fill="currentColor"/><path fill-rule="evenodd" clip-rule="evenodd" d="M4.25 9C4.80228 9 5.25 9.44772 5.25 10V15C5.25 15.5523 4.80228 16 4.25 16C3.69772 16 3.25 15.5523 3.25 15L3.25 10C3.25 9.44772 3.69772 9 4.25 9Z" fill="currentColor"/><path fill-rule="evenodd" clip-rule="evenodd" d="M7.25 9C7.80228 9 8.25 9.44772 8.25 10V15C8.25 15.5523 7.80228 16 7.25 16C6.69772 16 6.25 15.5523 6.25 15V10C6.25 9.44772 6.69772 9 7.25 9Z" fill="currentColor"/><path fill-rule="evenodd" clip-rule="evenodd" d="M10.25 9C10.8023 9 11.25 9.44772 11.25 10V15C11.25 15.5523 10.8023 16 10.25 16C9.69772 16 9.25 15.5523 9.25 15V10C9.25 9.44772 9.69772 9 10.25 9Z" fill="currentColor"/><path fill-rule="evenodd" clip-rule="evenodd" d="M13.25 9C13.8023 9 14.25 9.44772 14.25 10V15C14.25 15.5523 13.8023 16 13.25 16C12.6977 16 12.25 15.5523 12.25 15V10C12.25 9.44772 12.6977 9 13.25 9Z" fill="currentColor"/><path fill-rule="evenodd" clip-rule="evenodd" d="M16.25 9C16.8023 9 17.25 9.44772 17.25 10V15C17.25 15.5523 16.8023 16 16.25 16C15.6977 16 15.25 15.5523 15.25 15V10C15.25 9.44772 15.6977 9 16.25 9Z" fill="currentColor"/></g><path fill-rule="evenodd" clip-rule="evenodd" d="M10 2.68179L3.93782 6.49997H16.0622L10 2.68179ZM10.2665 1.6678C10.1036 1.56524 9.89637 1.56524 9.73353 1.6678L1.9393 6.5769C1.51501 6.84413 1.70433 7.49997 2.20577 7.49997H17.7942C18.2957 7.49997 18.485 6.84413 18.0607 6.5769L10.2665 1.6678Z" fill="currentColor"/><path fill-rule="evenodd" clip-rule="evenodd" d="M2 17C2 16.7239 2.22386 16.5 2.5 16.5H17.5C17.7761 16.5 18 16.7239 18 17C18 17.2761 17.7761 17.5 17.5 17.5H2.5C2.22386 17.5 2 17.2761 2 17Z" fill="currentColor"/><path fill-rule="evenodd" clip-rule="evenodd" d="M3.5 8.5C3.77614 8.5 4 8.72386 4 9V15C4 15.2761 3.77614 15.5 3.5 15.5C3.22386 15.5 3 15.2761 3 15L3 9C3 8.72386 3.22386 8.5 3.5 8.5Z" fill="currentColor"/><path fill-rule="evenodd" clip-rule="evenodd" d="M6.5 8.5C6.77614 8.5 7 8.72386 7 9V15C7 15.2761 6.77614 15.5 6.5 15.5C6.22386 15.5 6 15.2761 6 15V9C6 8.72386 6.22386 8.5 6.5 8.5Z" fill="currentColor"/><path fill-rule="evenodd" clip-rule="evenodd" d="M9.5 8.5C9.77614 8.5 10 8.72386 10 9V15C10 15.2761 9.77614 15.5 9.5 15.5C9.22386 15.5 9 15.2761 9 15V9C9 8.72386 9.22386 8.5 9.5 8.5Z" fill="currentColor"/><path fill-rule="evenodd" clip-rule="evenodd" d="M12.5 8.5C12.7761 8.5 13 8.72386 13 9V15C13 15.2761 12.7761 15.5 12.5 15.5C12.2239 15.5 12 15.2761 12 15V9C12 8.72386 12.2239 8.5 12.5 8.5Z" fill="currentColor"/><path fill-rule="evenodd" clip-rule="evenodd" d="M15.5 8.5C15.7761 8.5 16 8.72386 16 9V15C16 15.2761 15.7761 15.5 15.5 15.5C15.2239 15.5 15 15.2761 15 15V9C15 8.72386 15.2239 8.5 15.5 8.5Z" fill="currentColor"/><path d="M1.15063 1.87794C0.94979 1.6771 0.94979 1.35147 1.15063 1.15063C1.35147 0.949789 1.6771 0.949789 1.87794 1.15063L18.8494 18.1221C19.0502 18.3229 19.0502 18.6485 18.8494 18.8494C18.6485 19.0502 18.3229 19.0502 18.1221 18.8494L1.15063 1.87794Z" fill="currentColor"/></svg>