<svg width="20" height="20" viewBox="0 0 26 26" fill="none" xmlns="http://www.w3.org/2000/svg"><path opacity="0.2" fill-rule="evenodd" clip-rule="evenodd" d="M13.5 26C20.4036 26 26 20.4036 26 13.5C26 6.59644 20.4036 1 13.5 1C6.59644 1 1 6.59644 1 13.5C1 20.4036 6.59644 26 13.5 26ZM13.5 24C19.299 24 24 19.299 24 13.5C24 7.70101 19.299 3 13.5 3C7.70101 3 3 7.70101 3 13.5C3 19.299 7.70101 24 13.5 24Z" fill="currentColor"/><g transform="translate(3, 3)"><g opacity="0.2"><rect x="3" y="7" width="13" height="8" rx="1" fill="currentColor"/><rect x="16.5" y="8.5" width="2" height="5" rx="0.5" fill="currentColor"/></g><rect x="16" y="7.5" width="2" height="5" rx="0.5" fill="currentColor"/><path d="M4 7.5H6.5V12.5H4V7.5Z" fill="currentColor"/><path d="M7.25 7.5H9.75V12.5H7.25V7.5Z" fill="currentColor"/><rect x="10.5" y="7.5" width="2.5" height="5" fill="currentColor"/><path fill-rule="evenodd" clip-rule="evenodd" d="M14 5.5H3C2.17157 5.5 1.5 6.17157 1.5 7V13C1.5 13.8284 2.17157 14.5 3 14.5H14C14.8284 14.5 15.5 13.8284 15.5 13V7C15.5 6.17157 14.8284 5.5 14 5.5ZM2.5 7C2.5 6.72386 2.72386 6.5 3 6.5H14C14.2761 6.5 14.5 6.72386 14.5 7V13C14.5 13.2761 14.2761 13.5 14 13.5H3C2.72386 13.5 2.5 13.2761 2.5 13V7Z" fill="currentColor"/><path d="M1.15063 1.87794C0.94979 1.6771 0.94979 1.35147 1.15063 1.15063C1.35147 0.949789 1.6771 0.949789 1.87794 1.15063L18.8494 18.1221C19.0502 18.3229 19.0502 18.6485 18.8494 18.8494C18.6485 19.0502 18.3229 19.0502 18.1221 18.8494L1.15063 1.87794Z" fill="currentColor"/></g><path fill-rule="evenodd" clip-rule="evenodd" d="M13 24.5C19.3513 24.5 24.5 19.3513 24.5 13C24.5 6.64873 19.3513 1.5 13 1.5C6.64873 1.5 1.5 6.64873 1.5 13C1.5 19.3513 6.64873 24.5 13 24.5ZM13 25.5C19.9036 25.5 25.5 19.9036 25.5 13C25.5 6.09644 19.9036 0.5 13 0.5C6.09644 0.5 0.5 6.09644 0.5 13C0.5 19.9036 6.09644 25.5 13 25.5Z" fill="currentColor"/></svg>