<svg xmlns="http://www.w3.org/2000/svg" width="20" height="20" viewBox="0 0 20 20">
  <g fill="none" fill-rule="evenodd">
    <g transform="translate(4.5 2.5)">
      <circle cx="7" cy="15.5" r="2" fill="#AB92F0"/>
      <path fill="#AB92F0" stroke="#AB92F0" stroke-linecap="round" d="M12.5000009,11.2346939 C12.5188335,11.2431493 12.5376661,11.2516482 12.5564987,11.2601905 C13.4354712,11.6588813 14.0000009,12.5348373 14.0000009,13.5000041 C14.0000009,14.3284334 13.3284262,15.0000081 12.4999969,15.0000081 L1.50000313,15.0000081 C0.671574274,15.0000081 4.05135714e-14,14.3284339 4.04121181e-14,13.500005 C6.06031677e-07,12.5348378 0.564530234,11.6588825 1.44350073,11.2601888 C1.46233485,11.2516486 1.4811679,11.2431495 1.50000094,11.2346939 L1.50000094,8 C1.50000094,5.23857625 3.73857719,3 6.50000094,3 L7.50000094,3 C10.2614247,3 12.5000009,5.23857625 12.5000009,8 L12.5000009,9 L12.5000009,11.2346939 Z"/>
      <path stroke="#AB92F0" stroke-linecap="round" stroke-linejoin="round" stroke-width="2" d="M7.00000094,0.5 L7,3"/>
      <path stroke="#AB92F0" stroke-linecap="round" stroke-width="2" d="M0.984008352,14.5198204 L14.0185385,1.55444249" transform="rotate(89.848 7.519 8.519)"/>
    </g>
    <g stroke="#000" stroke-linecap="round" transform="translate(3 1)">
      <path d="M5.50000094 16C5.50000094 16.8284271 6.17157382 17.5 7.00000094 17.5L7.00000094 17.5C7.82842807 17.5 8.50000094 16.8284271 8.50000094 16M12.5000009 11.2346939C12.5188335 11.2431493 12.5376661 11.2516482 12.5564987 11.2601905 13.4354712 11.6588813 14.0000009 12.5348373 14.0000009 13.5000041 14.0000009 14.3284334 13.3284262 15.0000081 12.4999969 15.0000081L1.50000313 15.0000081C.671574274 15.0000081 4.05135714e-14 14.3284339 4.04121181e-14 13.500005 6.06031677e-7 12.5348378.564530234 11.6588825 1.44350073 11.2601888 1.46233485 11.2516486 1.4811679 11.2431495 1.50000094 11.2346939L1.50000094 8C1.50000094 5.23857625 3.73857719 3 6.50000094 3L7.50000094 3C10.2614247 3 12.5000009 5.23857625 12.5000009 8L12.5000009 9 12.5000009 11.2346939z"/>
      <path stroke-linejoin="round" d="M7.00000094,0.5 L7,3"/>
      <path d="M0.984008352,15.5198204 L14.0185385,2.55444249" transform="rotate(89.848 7.519 9.519)"/>
    </g>
  </g>
</svg>
