<svg width="20" height="20" viewBox="0 0 26 26" fill="none" xmlns="http://www.w3.org/2000/svg"><path opacity="0.2" fill-rule="evenodd" clip-rule="evenodd" d="M13.5 26C20.4036 26 26 20.4036 26 13.5C26 6.59644 20.4036 1 13.5 1C6.59644 1 1 6.59644 1 13.5C1 20.4036 6.59644 26 13.5 26ZM13.5 24C19.299 24 24 19.299 24 13.5C24 7.70101 19.299 3 13.5 3C7.70101 3 3 7.70101 3 13.5C3 19.299 7.70101 24 13.5 24Z" fill="currentColor"/><g transform="translate(3, 3)"><path opacity="0.2" fill-rule="evenodd" clip-rule="evenodd" d="M12.5 5.02242C15.3033 5.27504 17.5 7.63098 17.5 10.5V13.4254C18.4211 13.9472 19 14.9279 19 16C19 17.1046 18.1046 18 17 18H13.5C13.5 19.1046 12.6046 20 11.5 20C10.3954 20 9.5 19.1046 9.5 18H6C4.89543 18 4 17.1046 4 16C4 14.9279 4.5789 13.9472 5.5 13.4254V10.5C5.5 7.63098 7.69675 5.27504 10.5 5.02242L10.5 3C10.5 2.44771 10.9477 2 11.5 2C12.0523 2 12.5 2.44772 12.5 3L12.5 5.02242Z" fill="currentColor"/><path d="M8 17C8 16.7239 8.22386 16.5 8.5 16.5C8.77614 16.5 9 16.7239 9 17C9 17.5523 9.44772 18 10 18C10.5523 18 11 17.5523 11 17C11 16.7239 11.2239 16.5 11.5 16.5C11.7761 16.5 12 16.7239 12 17C12 18.1046 11.1046 19 10 19C8.89543 19 8 18.1046 8 17Z" fill="currentColor"/><path fill-rule="evenodd" clip-rule="evenodd" d="M17.5 14.5C17.5 13.4279 16.9211 12.4472 16 11.9254V9C16 5.96243 13.5376 3.5 10.5 3.5H9.5C6.46243 3.5 4 5.96243 4 9V11.9254C3.0789 12.4472 2.5 13.4279 2.5 14.5C2.5 15.6046 3.39543 16.5 4.5 16.5H15.5C16.6046 16.5 17.5 15.6046 17.5 14.5ZM15 12.5583L15.2952 12.6908L15.35 12.7155C16.0502 13.0332 16.5 13.7311 16.5 14.5C16.5 15.0523 16.0523 15.5 15.5 15.5H4.5C3.94772 15.5 3.5 15.0523 3.5 14.5C3.5 13.7311 3.94976 13.0332 4.65004 12.7155L4.7048 12.6908L5 12.5583V9C5 6.51472 7.01472 4.5 9.5 4.5H10.5C12.9853 4.5 15 6.51472 15 9V12.5583Z" fill="currentColor"/><path d="M9.5 1.5C9.5 1.22386 9.72386 1 10 1C10.2761 1 10.5 1.22386 10.5 1.5L10.5 4C10.5 4.27614 10.2761 4.5 10 4.5C9.72386 4.5 9.5 4.27614 9.5 4L9.5 1.5Z" fill="currentColor"/><path d="M1.15063 1.87794C0.94979 1.6771 0.94979 1.35147 1.15063 1.15063C1.35147 0.949789 1.6771 0.949789 1.87794 1.15063L18.8494 18.1221C19.0502 18.3229 19.0502 18.6485 18.8494 18.8494C18.6485 19.0502 18.3229 19.0502 18.1221 18.8494L1.15063 1.87794Z" fill="currentColor"/></g><path fill-rule="evenodd" clip-rule="evenodd" d="M13 24.5C19.3513 24.5 24.5 19.3513 24.5 13C24.5 6.64873 19.3513 1.5 13 1.5C6.64873 1.5 1.5 6.64873 1.5 13C1.5 19.3513 6.64873 24.5 13 24.5ZM13 25.5C19.9036 25.5 25.5 19.9036 25.5 13C25.5 6.09644 19.9036 0.5 13 0.5C6.09644 0.5 0.5 6.09644 0.5 13C0.5 19.9036 6.09644 25.5 13 25.5Z" fill="currentColor"/></svg>