<svg width="20" height="20" viewBox="0 0 20 20" fill="none" xmlns="http://www.w3.org/2000/svg"><g opacity="0.2"><path fill-rule="evenodd" clip-rule="evenodd" d="M5 20C7.03981 20 8.723 18.4732 8.96905 16.5H10.7105C11.0479 16.5 11.2884 16.1727 11.1877 15.8507L11.1519 15.7363L14.3662 10.323L14.8118 12.1794C13.1829 12.6855 12 14.2046 12 16C12 18.2091 13.7909 20 16 20C18.2091 20 20 18.2091 20 16C20 13.8966 18.3765 12.1724 16.3142 12.0122L14.4395 4.20066C15.5947 4.15838 16.4782 4.21094 17.078 4.35228C17.6121 4.47813 17.75 4.59459 17.75 4.67811C17.75 5.18897 17.51 5.34761 16.5749 5.25375C16.1628 5.21238 15.7951 5.51295 15.7537 5.9251C15.7124 6.33724 16.013 6.70488 16.4251 6.74625C18.1567 6.92006 19.25 6.19744 19.25 4.67811C19.25 2.97369 17.2603 2.49573 13.5094 2.74763C13.4582 2.74825 13.407 2.7537 13.3567 2.76375C13.3302 2.76887 13.3042 2.77537 13.2788 2.78317C12.9408 2.88486 12.6683 3.19872 12.7654 3.65171C12.768 3.66423 12.7709 3.67662 12.774 3.68888L13.9571 8.61839H8.92533L8.34087 6.75H9.5C9.91421 6.75 10.25 6.41421 10.25 6C10.25 5.58579 9.91421 5.25 9.5 5.25H5.5C5.08579 5.25 4.75 5.58579 4.75 6C4.75 6.41421 5.08579 6.75 5.5 6.75H7.29308L8.12324 9.40383L6.69192 12.3744C6.17806 12.1342 5.6047 12 5 12C2.79086 12 1 13.7909 1 16C1 18.2091 2.79086 20 5 20Z" fill="currentColor"/></g><path fill-rule="evenodd" clip-rule="evenodd" d="M15.5 18.5C17.7091 18.5 19.5 16.7091 19.5 14.5C19.5 12.2909 17.7091 10.5 15.5 10.5C13.2909 10.5 11.5 12.2909 11.5 14.5C11.5 16.7091 13.2909 18.5 15.5 18.5ZM15.5 11.5C17.1569 11.5 18.5 12.8431 18.5 14.5C18.5 16.1569 17.1569 17.5 15.5 17.5C13.8431 17.5 12.5 16.1569 12.5 14.5C12.5 12.8431 13.8431 11.5 15.5 11.5Z" fill="currentColor"/><path fill-rule="evenodd" clip-rule="evenodd" d="M4.5 18.5C6.70914 18.5 8.5 16.7091 8.5 14.5C8.5 12.2909 6.70914 10.5 4.5 10.5C2.29086 10.5 0.5 12.2909 0.5 14.5C0.5 16.7091 2.29086 18.5 4.5 18.5ZM4.5 11.5C6.15685 11.5 7.5 12.8431 7.5 14.5C7.5 16.1569 6.15685 17.5 4.5 17.5C2.84315 17.5 1.5 16.1569 1.5 14.5C1.5 12.8431 2.84315 11.5 4.5 11.5Z" fill="currentColor"/><path d="M5 5C4.72386 5 4.5 4.77614 4.5 4.5C4.5 4.22386 4.72386 4 5 4H9C9.27614 4 9.5 4.22386 9.5 4.5C9.5 4.77614 9.27614 5 9 5H5Z" fill="currentColor"/><path fill-rule="evenodd" clip-rule="evenodd" d="M10.4748 14.3433L10.4404 14.2392L14.4237 7.88405C14.6324 7.55105 14.393 7.11852 14 7.11852L8.08918 7.11852L7.17283 4.34335C7.08625 4.08113 6.80349 3.93875 6.54127 4.02534C6.27905 4.11192 6.13667 4.39468 6.22326 4.65689L7.29481 7.9021L4.05433 14.2735C3.88515 14.6061 4.12681 15.0001 4.5 15.0001H10C10.3407 15.0001 10.5816 14.6669 10.4748 14.3433ZM5.31525 14.0001H9.30835L7.73645 9.23962L5.31525 14.0001ZM8.41937 8.11852L10.0332 13.006L13.0965 8.11852H8.41937Z" fill="currentColor"/><path d="M13.5441 2.99899C13.2689 3.02279 13.0266 2.81906 13.0028 2.54394C12.979 2.26883 13.1828 2.02651 13.4579 2.00271C17.1126 1.68654 19.001 2.0642 19.001 3.50085C19.001 4.76632 18.0928 5.44744 16.5178 5.50056C16.2418 5.50987 16.0106 5.29369 16.0013 5.0177C15.9919 4.74172 16.2081 4.51044 16.4841 4.50113C17.5758 4.46431 18.001 4.14544 18.001 3.50085C18.001 3.02744 16.556 2.73843 13.5441 2.99899Z" fill="currentColor"/><path d="M13.9932 2.41771L15.9932 14.4177C16.1028 15.0753 15.1164 15.2397 15.0068 14.5821L13.0068 2.58211C12.8972 1.92451 13.8836 1.76011 13.9932 2.41771Z" fill="currentColor"/></svg>