<svg xmlns="http://www.w3.org/2000/svg" width="20" height="20" viewBox="0 0 20 20"><g fill="none" fill-rule="evenodd" stroke-linecap="round" stroke-linejoin="round"><g stroke="currentColor" transform="rotate(-90 10.5 9)"><path stroke-width="1.5" d="M16 12c.23 3.333-.163 5-1.178 5s-1.456-.667-1.322-2"/><circle cx="3.5" cy="14.5" r="3.5" fill="currentColor"/><circle cx="3.5" cy="3.5" r="3.5" fill="currentColor"/><path stroke-width="1.5" d="M13.5 4v4"/><path fill="currentColor" d="M13.5 6.082l-10 3.129V4l6.882 3.316V13L4 9.211"/><path stroke-width="1.5" d="M16 12L3.5 15 16 12z"/></g><g stroke="#000" transform="rotate(-90 9.5 8.5)"><circle cx="3.5" cy="14.5" r="3.5"/><circle cx="3.5" cy="3.5" r="3.5"/><path d="M13.5 4v4m0-2.302L3.5 9V3.5L10.382 7v6L4 9m11.5 3.5c.288 3.333-.045 5-1 5s-1.455-.667-1.5-2m2.5-3l-12 2 12-2z"/></g></g></svg>