<svg width="20" height="20" viewBox="0 0 26 26" fill="none" xmlns="http://www.w3.org/2000/svg"><path opacity="0.2" d="M26 14C26 20.6274 20.6274 26 14 26C7.37258 26 2 20.6274 2 14C2 7.37258 7.37258 2 14 2C20.6274 2 26 7.37258 26 14Z" fill="currentColor"/><g transform="translate(3, 3)"><g><path fill-rule="evenodd" clip-rule="evenodd" d="M11.2318 10.3975L16.8033 6.14748C17.0656 5.94737 17.0656 5.55251 16.8033 5.3524L11.2318 1.1024C10.9027 0.851366 10.4286 1.08604 10.4286 1.49994L10.4286 9.99994C10.4286 10.4138 10.9027 10.6485 11.2318 10.3975ZM11.4286 8.98966L11.4286 2.51022L15.6756 5.74994L11.4286 8.98966Z" fill="currentColor"/><path fill-rule="evenodd" clip-rule="evenodd" d="M11.2318 18.8975L16.8033 14.6475C17.0656 14.4474 17.0656 14.0525 16.8033 13.8524L11.2318 9.6024C10.9027 9.35137 10.4286 9.58604 10.4286 9.99994L10.4286 18.4999C10.4286 18.9138 10.9027 19.1485 11.2318 18.8975ZM11.4286 11.0102L15.6756 14.2499L11.4286 17.4897L11.4286 11.0102Z" fill="currentColor"/><path d="M11.2275 9.5991C11.4489 9.7642 11.4945 10.0775 11.3294 10.2988C11.1643 10.5202 10.851 10.5658 10.6296 10.4007L3.66535 5.20624C3.44399 5.04114 3.39839 4.72786 3.56349 4.50651C3.72859 4.28516 4.04187 4.23956 4.26323 4.40466L11.2275 9.5991Z" fill="currentColor"/><path d="M11.2275 10.4008C11.4489 10.2357 11.4945 9.9224 11.3294 9.70104C11.1643 9.47969 10.851 9.43409 10.6296 9.59919L3.66535 14.7936C3.44399 14.9587 3.39839 15.272 3.56349 15.4934C3.72859 15.7147 4.04187 15.7603 4.26323 15.5952L11.2275 10.4008Z" fill="currentColor"/></g></g><path fill-rule="evenodd" clip-rule="evenodd" d="M13 24.5C19.3513 24.5 24.5 19.3513 24.5 13C24.5 6.64873 19.3513 1.5 13 1.5C6.64873 1.5 1.5 6.64873 1.5 13C1.5 19.3513 6.64873 24.5 13 24.5ZM13 25.5C19.9036 25.5 25.5 19.9036 25.5 13C25.5 6.09644 19.9036 0.5 13 0.5C6.09644 0.5 0.5 6.09644 0.5 13C0.5 19.9036 6.09644 25.5 13 25.5Z" fill="currentColor"/></svg>