<svg xmlns="http://www.w3.org/2000/svg" width="20" height="20" viewBox="0 0 20 20">
  <g fill="none" fill-rule="evenodd" stroke-linecap="round" stroke-linejoin="round">
    <g stroke="#AB92F0" transform="rotate(-90 12 7.5)">
      <polygon fill="#AB92F0" points="13.5 8 18 14 9 14" transform="rotate(180 13.5 11)"/>
      <polygon fill="#AB92F0" points="4.5 8 9 14 0 14" transform="rotate(180 4.5 11)"/>
      <path stroke-width="1.5" d="M16,7 L8.5,1.5" transform="rotate(90 12 4)"/>
      <path stroke-width="1.5" d="M10,7 L2.5,1.5" transform="matrix(0 1 1 0 2 -2)"/>
    </g>
    <g stroke="#000" transform="translate(3.5 1.5)">
      <polygon points="10.214 1.464 14.464 7.036 5.964 7.036" transform="rotate(90 10.214 4.25)"/>
      <polygon points="10.214 9.964 14.464 15.536 5.964 15.536" transform="rotate(90 10.214 12.75)"/>
      <path d="M7.42857143,8.5 L0.464285714,3.30555556"/>
      <path d="M7.42857143,14.1666667 L0.464285714,8.97222222" transform="matrix(1 0 0 -1 0 22.667)"/>
    </g>
  </g>
</svg>
