<svg width="20" height="20" viewBox="0 0 26 26" fill="none" xmlns="http://www.w3.org/2000/svg"><path opacity="0.2" d="M26 14C26 20.6274 20.6274 26 14 26C7.37258 26 2 20.6274 2 14C2 7.37258 7.37258 2 14 2C20.6274 2 26 7.37258 26 14Z" fill="currentColor"/><g transform="translate(3, 3)"><path fill-rule="evenodd" clip-rule="evenodd" d="M5.35472 17.3524L10 12.6764L14.6453 17.3524C14.9598 17.669 15.5 17.4462 15.5 17V3C15.5 2.72386 15.2761 2.5 15 2.5H5C4.72386 2.5 4.5 2.72386 4.5 3V17C4.5 17.4462 5.04021 17.669 5.35472 17.3524ZM5.5 15.7872V3.5H14.5V15.7872L10.3547 11.6146C10.1592 11.4178 9.84081 11.4178 9.64528 11.6146L5.5 15.7872Z" fill="currentColor"/></g><path fill-rule="evenodd" clip-rule="evenodd" d="M13 24.5C19.3513 24.5 24.5 19.3513 24.5 13C24.5 6.64873 19.3513 1.5 13 1.5C6.64873 1.5 1.5 6.64873 1.5 13C1.5 19.3513 6.64873 24.5 13 24.5ZM13 25.5C19.9036 25.5 25.5 19.9036 25.5 13C25.5 6.09644 19.9036 0.5 13 0.5C6.09644 0.5 0.5 6.09644 0.5 13C0.5 19.9036 6.09644 25.5 13 25.5Z" fill="currentColor"/></svg>