<svg width="20" height="20" viewBox="0 0 20 20" fill="none" xmlns="http://www.w3.org/2000/svg"><g opacity="0.2"><path d="M12 14.6764L7.35472 19.3524C7.04021 19.669 6.5 19.4462 6.5 19V5C6.5 4.72386 6.72386 4.5 7 4.5H17C17.2761 4.5 17.5 4.72386 17.5 5V19C17.5 19.4462 16.9598 19.669 16.6453 19.3524L12 14.6764Z" fill="currentColor"/></g><path fill-rule="evenodd" clip-rule="evenodd" d="M5.35472 17.3524L10 12.6764L14.6453 17.3524C14.9598 17.669 15.5 17.4462 15.5 17V3C15.5 2.72386 15.2761 2.5 15 2.5H5C4.72386 2.5 4.5 2.72386 4.5 3V17C4.5 17.4462 5.04021 17.669 5.35472 17.3524ZM5.5 15.7872V3.5H14.5V15.7872L10.3547 11.6146C10.1592 11.4178 9.84081 11.4178 9.64528 11.6146L5.5 15.7872Z" fill="currentColor"/></svg>