<svg width="20" height="20" viewBox="0 0 26 26" fill="none" xmlns="http://www.w3.org/2000/svg"><path opacity="0.2" fill-rule="evenodd" clip-rule="evenodd" d="M13.5 26C20.4036 26 26 20.4036 26 13.5C26 6.59644 20.4036 1 13.5 1C6.59644 1 1 6.59644 1 13.5C1 20.4036 6.59644 26 13.5 26ZM13.5 24C19.299 24 24 19.299 24 13.5C24 7.70101 19.299 3 13.5 3C7.70101 3 3 7.70101 3 13.5C3 19.299 7.70101 24 13.5 24Z" fill="currentColor"/><g transform="translate(3, 3)"><path opacity="0.2" fill-rule="evenodd" clip-rule="evenodd" d="M4.75 4C4.75 3.30964 5.30964 2.75 6 2.75H16C16.6904 2.75 17.25 3.30964 17.25 4V18C17.25 18.5063 16.9446 18.9626 16.4765 19.1556C16.0083 19.3486 15.4701 19.2402 15.1132 18.881L11 14.7406L6.88679 18.881C6.52994 19.2402 5.99165 19.3486 5.52355 19.1556C5.05544 18.9626 4.75 18.5063 4.75 18V4ZM7.25 5.25V14.9681L10.1132 12.086C10.3479 11.8498 10.6671 11.717 11 11.717C11.3329 11.717 11.6521 11.8498 11.8868 12.086L14.75 14.9681V5.25H7.25Z" fill="currentColor"/><path fill-rule="evenodd" clip-rule="evenodd" d="M4.5 3C4.5 2.72386 4.72386 2.5 5 2.5H15C15.2761 2.5 15.5 2.72386 15.5 3V17C15.5 17.2025 15.3778 17.3851 15.1906 17.4623C15.0033 17.5395 14.788 17.4961 14.6453 17.3524L10 12.6764L5.35472 17.3524C5.21198 17.4961 4.99666 17.5395 4.80942 17.4623C4.62218 17.3851 4.5 17.2025 4.5 17V3ZM5.5 3.5V15.7872L9.64528 11.6146C9.73915 11.5201 9.86682 11.467 10 11.467C10.1332 11.467 10.2609 11.5201 10.3547 11.6146L14.5 15.7872V3.5H5.5Z" fill="currentColor"/></g><path fill-rule="evenodd" clip-rule="evenodd" d="M13 24.5C19.3513 24.5 24.5 19.3513 24.5 13C24.5 6.64873 19.3513 1.5 13 1.5C6.64873 1.5 1.5 6.64873 1.5 13C1.5 19.3513 6.64873 24.5 13 24.5ZM13 25.5C19.9036 25.5 25.5 19.9036 25.5 13C25.5 6.09644 19.9036 0.5 13 0.5C6.09644 0.5 0.5 6.09644 0.5 13C0.5 19.9036 6.09644 25.5 13 25.5Z" fill="currentColor"/></svg>