<svg width="20" height="20" viewBox="0 0 26 26" fill="none" xmlns="http://www.w3.org/2000/svg"><path opacity="0.2" fill-rule="evenodd" clip-rule="evenodd" d="M13.5 26C20.4036 26 26 20.4036 26 13.5C26 6.59644 20.4036 1 13.5 1C6.59644 1 1 6.59644 1 13.5C1 20.4036 6.59644 26 13.5 26ZM13.5 24C19.299 24 24 19.299 24 13.5C24 7.70101 19.299 3 13.5 3C7.70101 3 3 7.70101 3 13.5C3 19.299 7.70101 24 13.5 24Z" fill="currentColor"/><g transform="translate(3, 3)"><g><g opacity="0.2"><path d="M6.4906 17.5H17.2094C18.3139 17.5 19.2094 16.6046 19.2094 15.5V13.5C19.2094 12.3954 18.3139 11.5 17.2094 11.5H6.4906C5.38603 11.5 4.4906 12.3954 4.4906 13.5V15.5C4.4906 16.6046 5.38603 17.5 6.4906 17.5Z" fill="currentColor"/><path fill-rule="evenodd" clip-rule="evenodd" d="M6.4906 12.5C5.93832 12.5 5.4906 12.9477 5.4906 13.5V15.5C5.4906 16.0523 5.93832 16.5 6.4906 16.5H17.2094C17.7616 16.5 18.2094 16.0523 18.2094 15.5V13.5C18.2094 12.9477 17.7616 12.5 17.2094 12.5H6.4906ZM3.4906 13.5C3.4906 11.8431 4.83375 10.5 6.4906 10.5H17.2094C18.8662 10.5 20.2094 11.8431 20.2094 13.5V15.5C20.2094 17.1569 18.8662 18.5 17.2094 18.5H6.4906C4.83375 18.5 3.4906 17.1569 3.4906 15.5V13.5Z" fill="currentColor"/><path d="M4 7.5C4 6.94772 4.44772 6.5 5 6.5H18.7C19.2523 6.5 19.7 6.94772 19.7 7.5V10.5C19.7 11.6046 18.8046 12.5 17.7 12.5H6C4.89543 12.5 4 11.6046 4 10.5V7.5Z" fill="currentColor"/><path fill-rule="evenodd" clip-rule="evenodd" d="M3 7.5C3 6.39543 3.89543 5.5 5 5.5H18.7C19.8046 5.5 20.7 6.39543 20.7 7.5V10.5C20.7 12.1569 19.3569 13.5 17.7 13.5H6C4.34315 13.5 3 12.1569 3 10.5V7.5ZM18.7 7.5H5V10.5C5 11.0523 5.44772 11.5 6 11.5H17.7C18.2523 11.5 18.7 11.0523 18.7 10.5V7.5Z" fill="currentColor"/><path fill-rule="evenodd" clip-rule="evenodd" d="M8.92499 5.24173V7H6.92499V5.24173C6.92499 5.00088 6.95399 4.7609 7.01138 4.52698L7.07067 4.28525C7.39983 2.94349 8.60274 2 9.98429 2H13.7157C15.0972 2 16.3002 2.94349 16.6293 4.28525L16.6886 4.52698C16.746 4.7609 16.775 5.00088 16.775 5.24173V7H14.775V5.24173C14.775 5.16144 14.7653 5.08145 14.7462 5.00348L14.6869 4.76175C14.5772 4.3145 14.1762 4 13.7157 4H9.98429C9.52377 4 9.1228 4.3145 9.01308 4.76175L8.95378 5.00348C8.93466 5.08145 8.92499 5.16144 8.92499 5.24173Z" fill="currentColor"/></g><path fill-rule="evenodd" clip-rule="evenodd" d="M3 11.5V15C3 15.8284 3.67157 16.5 4.5 16.5H15.5C16.3284 16.5 17 15.8284 17 15V11.5H18V15C18 16.3807 16.8807 17.5 15.5 17.5H4.5C3.11929 17.5 2 16.3807 2 15V11.5H3Z" fill="currentColor"/><path fill-rule="evenodd" clip-rule="evenodd" d="M1.5 7C1.5 6.17157 2.17157 5.5 3 5.5H17C17.8284 5.5 18.5 6.17157 18.5 7V10C18.5 11.3807 17.3807 12.5 16 12.5H4C2.61929 12.5 1.5 11.3807 1.5 10V7ZM3 6.5C2.72386 6.5 2.5 6.72386 2.5 7V10C2.5 10.8284 3.17157 11.5 4 11.5H16C16.8284 11.5 17.5 10.8284 17.5 10V7C17.5 6.72386 17.2761 6.5 17 6.5H3Z" fill="currentColor"/><path fill-rule="evenodd" clip-rule="evenodd" d="M6.5 4.74621V6.5H5.5V4.74621C5.5 4.54181 5.52507 4.33817 5.57464 4.13987L5.6362 3.89366C5.91443 2.78074 6.91438 2 8.06155 2H11.9384C13.0856 2 14.0856 2.78074 14.3638 3.89366L14.4254 4.13987C14.4749 4.33817 14.5 4.54181 14.5 4.74621V6.5H13.5V4.74621C13.5 4.62357 13.485 4.50139 13.4552 4.38241L13.3937 4.1362C13.2267 3.46845 12.6267 3 11.9384 3L8.06155 3C7.37325 3 6.77328 3.46845 6.60634 4.1362L6.54479 4.38241C6.51504 4.50139 6.5 4.62357 6.5 4.74621Z" fill="currentColor"/><path d="M7.866 11.5C7.4811 12.1667 6.51885 12.1667 6.13395 11.5L5.26793 10C4.88302 9.33333 5.36415 8.5 6.13395 8.5H7.866C8.6358 8.5 9.11693 9.33333 8.73203 10L7.866 11.5Z" fill="currentColor"/><path fill-rule="evenodd" clip-rule="evenodd" d="M7 11C7.41421 11 7.75 11.3358 7.75 11.75V13.5C7.75 13.9142 7.41421 14.25 7 14.25C6.58579 14.25 6.25 13.9142 6.25 13.5V11.75C6.25 11.3358 6.58579 11 7 11Z" fill="currentColor"/><path d="M13.866 11.5C13.4811 12.1667 12.5189 12.1667 12.1339 11.5L11.2679 10C10.883 9.33333 11.3641 8.5 12.134 8.5H13.866C14.6358 8.5 15.1169 9.33333 14.732 10L13.866 11.5Z" fill="currentColor"/><path fill-rule="evenodd" clip-rule="evenodd" d="M13 11C13.4142 11 13.75 11.3358 13.75 11.75V13.5C13.75 13.9142 13.4142 14.25 13 14.25C12.5858 14.25 12.25 13.9142 12.25 13.5V11.75C12.25 11.3358 12.5858 11 13 11Z" fill="currentColor"/></g><path d="M1.15063 1.87794C0.94979 1.6771 0.94979 1.35147 1.15063 1.15063C1.35147 0.949789 1.6771 0.949789 1.87794 1.15063L18.8494 18.1221C19.0502 18.3229 19.0502 18.6485 18.8494 18.8494C18.6485 19.0502 18.3229 19.0502 18.1221 18.8494L1.15063 1.87794Z" fill="currentColor"/></g><path fill-rule="evenodd" clip-rule="evenodd" d="M13 24.5C19.3513 24.5 24.5 19.3513 24.5 13C24.5 6.64873 19.3513 1.5 13 1.5C6.64873 1.5 1.5 6.64873 1.5 13C1.5 19.3513 6.64873 24.5 13 24.5ZM13 25.5C19.9036 25.5 25.5 19.9036 25.5 13C25.5 6.09644 19.9036 0.5 13 0.5C6.09644 0.5 0.5 6.09644 0.5 13C0.5 19.9036 6.09644 25.5 13 25.5Z" fill="currentColor"/></svg>