<svg width="20" height="20" viewBox="0 0 20 20" fill="none" xmlns="http://www.w3.org/2000/svg"><g><g opacity="0.2"><path d="M2 8C2 7.44772 2.44772 7 3 7H19C19.5523 7 20 7.44772 20 8V19C20 19.5523 19.5523 20 19 20H3C2.44772 20 2 19.5523 2 19V8Z" fill="currentColor"/><path fill-rule="evenodd" clip-rule="evenodd" d="M4 9V18H18V9H4ZM3 7C2.44772 7 2 7.44772 2 8V19C2 19.5523 2.44772 20 3 20H19C19.5523 20 20 19.5523 20 19V8C20 7.44772 19.5523 7 19 7H3Z" fill="currentColor"/><path fill-rule="evenodd" clip-rule="evenodd" d="M12.4142 3.82843C11.6332 3.04738 10.3669 3.04738 9.58581 3.82843L5.70711 7.70709C5.31658 8.09762 4.68342 8.09761 4.2929 7.70709C3.90237 7.31656 3.90238 6.6834 4.2929 6.29288L8.1716 2.41421C9.7337 0.85212 12.2663 0.852124 13.8284 2.41421L17.7071 6.29288C18.0976 6.6834 18.0976 7.31657 17.7071 7.70709C17.3166 8.09762 16.6834 8.09762 16.2929 7.70709L12.4142 3.82843Z" fill="currentColor"/></g><path fill-rule="evenodd" clip-rule="evenodd" d="M18 6.9231H2V17.9231H18V6.9231ZM2 5.9231C1.44772 5.9231 1 6.37081 1 6.9231V17.9231C1 18.4754 1.44772 18.9231 2 18.9231H18C18.5523 18.9231 19 18.4754 19 17.9231V6.9231C19 6.37081 18.5523 5.9231 18 5.9231H2Z" fill="currentColor"/><path fill-rule="evenodd" clip-rule="evenodd" d="M6 9.4231C6 9.14695 6.22386 8.9231 6.5 8.9231H13.5C13.7761 8.9231 14 9.14695 14 9.4231C14 9.69924 13.7761 9.9231 13.5 9.9231H6.5C6.22386 9.9231 6 9.69924 6 9.4231Z" fill="currentColor"/><path fill-rule="evenodd" clip-rule="evenodd" d="M5 12.4231C5 12.147 5.22386 11.9231 5.5 11.9231H14.5C14.7761 11.9231 15 12.147 15 12.4231C15 12.6992 14.7761 12.9231 14.5 12.9231H5.5C5.22386 12.9231 5 12.6992 5 12.4231Z" fill="currentColor"/><path fill-rule="evenodd" clip-rule="evenodd" d="M6 15.4231C6 15.147 6.22386 14.9231 6.5 14.9231H13.5C13.7761 14.9231 14 15.147 14 15.4231C14 15.6992 13.7761 15.9231 13.5 15.9231H6.5C6.22386 15.9231 6 15.6992 6 15.4231Z" fill="currentColor"/><path fill-rule="evenodd" clip-rule="evenodd" d="M11.7678 2.39794C10.7914 1.42163 9.20854 1.42163 8.23223 2.39794L4.35353 6.27661C4.15827 6.47187 3.84168 6.47187 3.64642 6.2766C3.45116 6.08134 3.45116 5.76476 3.64643 5.5695L7.52512 1.69083C8.89196 0.324001 11.108 0.324004 12.4749 1.69083L16.3535 5.5695C16.5488 5.76476 16.5488 6.08134 16.3535 6.2766C16.1583 6.47187 15.8417 6.47187 15.6464 6.27661L11.7678 2.39794Z" fill="currentColor"/></g><path d="M1.15063 1.87794C0.94979 1.6771 0.94979 1.35147 1.15063 1.15063C1.35147 0.949789 1.6771 0.949789 1.87794 1.15063L18.8494 18.1221C19.0502 18.3229 19.0502 18.6485 18.8494 18.8494C18.6485 19.0502 18.3229 19.0502 18.1221 18.8494L1.15063 1.87794Z" fill="currentColor"/></svg>