<svg width="20" height="20" viewBox="0 0 20 20" fill="none" xmlns="http://www.w3.org/2000/svg"><path opacity="0.2" fill-rule="evenodd" clip-rule="evenodd" d="M4 18.1053L4 3.89474C4 2.8483 4.86558 2 5.93333 2H16.5667C17.6344 2 18.5 2.8483 18.5 3.89474V18.1053C18.5 19.1517 17.6344 20 16.5667 20H5.93333C4.86558 20 4 19.1517 4 18.1053Z" fill="currentColor"/><path fill-rule="evenodd" clip-rule="evenodd" d="M2.5 3V17C2.5 18.3807 3.61929 19.5 5 19.5H15C16.3807 19.5 17.5 18.3807 17.5 17V3C17.5 1.61929 16.3807 0.5 15 0.5H5C3.61929 0.5 2.5 1.61929 2.5 3ZM5 18.5C4.17157 18.5 3.5 17.8284 3.5 17V3C3.5 2.17157 4.17157 1.5 5 1.5H15C15.8284 1.5 16.5 2.17157 16.5 3V17C16.5 17.8284 15.8284 18.5 15 18.5H5Z" fill="currentColor"/><path d="M5 7.5V3.5C5 3.22386 5.22386 3 5.5 3H14.5C14.7761 3 15 3.22386 15 3.5V7.5C15 7.77614 14.7761 8 14.5 8H5.5C5.22386 8 5 7.77614 5 7.5Z" fill="currentColor"/><path d="M12 15.7V10.8C12 10.3582 12.3582 10 12.8 10H14.2C14.6418 10 15 10.3582 15 10.8V15.7C15 16.1418 14.6418 16.5 14.2 16.5H12.8C12.3582 16.5 12 16.1418 12 15.7Z" fill="currentColor"/><path d="M5 12V10.5C5 10.2239 5.22386 10 5.5 10H7C7.27614 10 7.5 10.2239 7.5 10.5V12C7.5 12.2761 7.27614 12.5 7 12.5H5.5C5.22386 12.5 5 12.2761 5 12Z" fill="currentColor"/><path d="M8.5 12V10.5C8.5 10.2239 8.72386 10 9 10H10.5C10.7761 10 11 10.2239 11 10.5V12C11 12.2761 10.7761 12.5 10.5 12.5H9C8.72386 12.5 8.5 12.2761 8.5 12Z" fill="currentColor"/><path d="M5 16V14.5C5 14.2239 5.22386 14 5.5 14H7C7.27614 14 7.5 14.2239 7.5 14.5V16C7.5 16.2761 7.27614 16.5 7 16.5H5.5C5.22386 16.5 5 16.2761 5 16Z" fill="currentColor"/><path d="M8.5 16V14.5C8.5 14.2239 8.72386 14 9 14H10.5C10.7761 14 11 14.2239 11 14.5V16C11 16.2761 10.7761 16.5 10.5 16.5H9C8.72386 16.5 8.5 16.2761 8.5 16Z" fill="currentColor"/></svg>