<svg xmlns="http://www.w3.org/2000/svg" width="20" height="20" viewBox="0 0 20 20">
  <g fill="none" fill-rule="evenodd">
    <path fill="#AB92F0" d="M4,18.1052632 L4,3.89473684 C4,2.84830258 4.86558282,2 5.93333333,2 L16.5666667,2 C17.6344172,2 18.5,2.84830258 18.5,3.89473684 L18.5,18.1052632 C18.5,19.1516974 17.6344172,20 16.5666667,20 L5.93333333,20 C4.86558282,20 4,19.1516974 4,18.1052632 Z"/>
    <path stroke="#000" stroke-linecap="round" stroke-linejoin="round" d="M3,17 L3,3 C3,1.8954305 3.8954305,1 5,1 L15,1 C16.1045695,1 17,1.8954305 17,3 L17,17 C17,18.1045695 16.1045695,19 15,19 L5,19 C3.8954305,19 3,18.1045695 3,17 Z"/>
    <polygon fill="#000" stroke="#000" stroke-linecap="round" stroke-linejoin="round" points="5.5 7.5 5.5 3.5 14.5 3.5 14.5 7.5"/>
    <path fill="#000" stroke="#000" stroke-linecap="round" d="M12.5,15.7 L12.5,10.8 C12.5,10.6343146 12.6343146,10.5 12.8,10.5 L14.2,10.5 C14.3656854,10.5 14.5,10.6343146 14.5,10.8 L14.5,15.7 C14.5,15.8656854 14.3656854,16 14.2,16 L12.8,16 C12.6343146,16 12.5,15.8656854 12.5,15.7 Z"/>
    <path fill="#000" stroke="#000" d="M5.5 12L7 12 7 10.5 5.5 10.5 5.5 12zM9 12L10.5 12 10.5 10.5 9 10.5 9 12zM5.5 16L7 16 7 14.5 5.5 14.5 5.5 16zM9 16L10.5 16 10.5 14.5 9 14.5 9 16z"/>
  </g>
</svg>
