<svg width="20" height="20" viewBox="0 0 26 26" fill="none" xmlns="http://www.w3.org/2000/svg"><path opacity="0.2" d="M26 14C26 20.6274 20.6274 26 14 26C7.37258 26 2 20.6274 2 14C2 7.37258 7.37258 2 14 2C20.6274 2 26 7.37258 26 14Z" fill="currentColor"/><g transform="translate(3, 3)"><path fill-rule="evenodd" clip-rule="evenodd" d="M16.5 4.5H3.5C3.22386 4.5 3 4.72386 3 5V16C3 16.2761 3.22386 16.5 3.5 16.5H16.5C16.7761 16.5 17 16.2761 17 16V5C17 4.72386 16.7761 4.5 16.5 4.5ZM4 15.5V5.5H16V15.5H4Z" fill="currentColor"/><path fill-rule="evenodd" clip-rule="evenodd" d="M16.5 4.5H3.5C3.22386 4.5 3 4.72386 3 5V8C3 8.27614 3.22386 8.5 3.5 8.5H16.5C16.7761 8.5 17 8.27614 17 8V5C17 4.72386 16.7761 4.5 16.5 4.5ZM4 7.5V5.5H16V7.5H4Z" fill="currentColor"/><path d="M5.5 5.5H6.5C6.77614 5.5 7 5.27614 7 5V4C7 3.72386 6.77614 3.5 6.5 3.5H5.5C5.22386 3.5 5 3.72386 5 4V5C5 5.27614 5.22386 5.5 5.5 5.5Z" fill="currentColor"/><path d="M13.5 5.5H14.5C14.7761 5.5 15 5.27614 15 5V4C15 3.72386 14.7761 3.5 14.5 3.5H13.5C13.2239 3.5 13 3.72386 13 4V5C13 5.27614 13.2239 5.5 13.5 5.5Z" fill="currentColor"/><path d="M6 11.5C5.44772 11.5 5 11.0523 5 10.5C5 9.94772 5.44772 9.5 6 9.5C6.55228 9.5 7 9.94772 7 10.5C7 11.0523 6.55228 11.5 6 11.5Z" fill="currentColor"/></g><path fill-rule="evenodd" clip-rule="evenodd" d="M13 24.5C19.3513 24.5 24.5 19.3513 24.5 13C24.5 6.64873 19.3513 1.5 13 1.5C6.64873 1.5 1.5 6.64873 1.5 13C1.5 19.3513 6.64873 24.5 13 24.5ZM13 25.5C19.9036 25.5 25.5 19.9036 25.5 13C25.5 6.09644 19.9036 0.5 13 0.5C6.09644 0.5 0.5 6.09644 0.5 13C0.5 19.9036 6.09644 25.5 13 25.5Z" fill="currentColor"/></svg>