<svg width="20" height="20" viewBox="0 0 26 26" fill="none" xmlns="http://www.w3.org/2000/svg"><path opacity="0.2" fill-rule="evenodd" clip-rule="evenodd" d="M13.5 26C20.4036 26 26 20.4036 26 13.5C26 6.59644 20.4036 1 13.5 1C6.59644 1 1 6.59644 1 13.5C1 20.4036 6.59644 26 13.5 26ZM13.5 24C19.299 24 24 19.299 24 13.5C24 7.70101 19.299 3 13.5 3C7.70101 3 3 7.70101 3 13.5C3 19.299 7.70101 24 13.5 24Z" fill="currentColor"/><g transform="translate(3, 3)"><g opacity="0.2"><path fill-rule="evenodd" clip-rule="evenodd" d="M13 6.5H7C5.61929 6.5 4.5 7.61929 4.5 9V14C4.5 15.3807 5.61929 16.5 7 16.5H13C14.3807 16.5 15.5 15.3807 15.5 14V13.9759L17.8477 15.541C18.1799 15.7625 18.625 15.5243 18.625 15.125V8.125C18.625 7.72565 18.1799 7.48746 17.8477 7.70897L15.5 9.27408V9C15.5 7.61929 14.3807 6.5 13 6.5Z" fill="currentColor"/></g><path fill-rule="evenodd" clip-rule="evenodd" d="M11 4.5H5C3.61929 4.5 2.5 5.61929 2.5 7V12C2.5 13.3807 3.61929 14.5 5 14.5H11C12.3807 14.5 13.5 13.3807 13.5 12V7C13.5 5.61929 12.3807 4.5 11 4.5ZM3.5 7C3.5 6.17157 4.17157 5.5 5 5.5H11C11.8284 5.5 12.5 6.17157 12.5 7V12C12.5 12.8284 11.8284 13.5 11 13.5H5C4.17157 13.5 3.5 12.8284 3.5 12V7Z" fill="currentColor"/><path fill-rule="evenodd" clip-rule="evenodd" d="M15.7275 5.58078L12.7507 7.5157C12.6104 7.60692 12.525 7.76231 12.5232 7.92968L12.4958 10.542C12.494 10.7131 12.5799 10.8732 12.7233 10.9665L15.7275 12.9192C16.0601 13.1354 16.5 12.8967 16.5 12.5V6C16.5 5.60328 16.0601 5.36457 15.7275 5.58078ZM15.5 11.5787L13.4987 10.2778L13.5204 8.20811L15.5 6.92134V11.5787Z" fill="currentColor"/><path d="M1.15063 1.87794C0.94979 1.6771 0.94979 1.35147 1.15063 1.15063C1.35147 0.949789 1.6771 0.949789 1.87794 1.15063L18.8494 18.1221C19.0502 18.3229 19.0502 18.6485 18.8494 18.8494C18.6485 19.0502 18.3229 19.0502 18.1221 18.8494L1.15063 1.87794Z" fill="currentColor"/></g><path fill-rule="evenodd" clip-rule="evenodd" d="M13 24.5C19.3513 24.5 24.5 19.3513 24.5 13C24.5 6.64873 19.3513 1.5 13 1.5C6.64873 1.5 1.5 6.64873 1.5 13C1.5 19.3513 6.64873 24.5 13 24.5ZM13 25.5C19.9036 25.5 25.5 19.9036 25.5 13C25.5 6.09644 19.9036 0.5 13 0.5C6.09644 0.5 0.5 6.09644 0.5 13C0.5 19.9036 6.09644 25.5 13 25.5Z" fill="currentColor"/></svg>