<svg width="20" height="20" viewBox="0 0 20 20" fill="none" xmlns="http://www.w3.org/2000/svg"><g opacity="0.2"><path fill-rule="evenodd" clip-rule="evenodd" d="M13 6.5H7C5.61929 6.5 4.5 7.61929 4.5 9V14C4.5 15.3807 5.61929 16.5 7 16.5H13C14.3807 16.5 15.5 15.3807 15.5 14V13.9759L17.8477 15.541C18.1799 15.7625 18.625 15.5243 18.625 15.125V8.125C18.625 7.72565 18.1799 7.48746 17.8477 7.70897L15.5 9.27408V9C15.5 7.61929 14.3807 6.5 13 6.5Z" fill="currentColor"/></g><path fill-rule="evenodd" clip-rule="evenodd" d="M11 4.5H5C3.61929 4.5 2.5 5.61929 2.5 7V12C2.5 13.3807 3.61929 14.5 5 14.5H11C12.3807 14.5 13.5 13.3807 13.5 12V7C13.5 5.61929 12.3807 4.5 11 4.5ZM3.5 7C3.5 6.17157 4.17157 5.5 5 5.5H11C11.8284 5.5 12.5 6.17157 12.5 7V12C12.5 12.8284 11.8284 13.5 11 13.5H5C4.17157 13.5 3.5 12.8284 3.5 12V7Z" fill="currentColor"/><path fill-rule="evenodd" clip-rule="evenodd" d="M15.7275 5.58078L12.7507 7.5157C12.6104 7.60692 12.525 7.76231 12.5232 7.92968L12.4958 10.542C12.494 10.7131 12.5799 10.8732 12.7233 10.9665L15.7275 12.9192C16.0601 13.1354 16.5 12.8967 16.5 12.5V6C16.5 5.60328 16.0601 5.36457 15.7275 5.58078ZM15.5 11.5787L13.4987 10.2778L13.5204 8.20811L15.5 6.92134V11.5787Z" fill="currentColor"/></svg>