<svg width="20" height="20" viewBox="0 0 20 20" fill="none" xmlns="http://www.w3.org/2000/svg"><g opacity="0.2"><path fill-rule="evenodd" clip-rule="evenodd" d="M7.27323 4.00237C6.54965 4.17438 5.98127 4.73371 5.79768 5.45445L4.60127 10.1512C3.68774 10.336 3 11.1434 3 12.1115V15C3 15.8061 3.4769 16.5008 4.16395 16.8174C4.05913 17.0222 4 17.2542 4 17.5V18.5C4 19.3284 4.67157 20 5.5 20C6.32843 20 7 19.3284 7 18.5V17.5C7 17.3247 6.96992 17.1564 6.91465 17H16.0854C16.0301 17.1564 16 17.3247 16 17.5V18.5C16 19.3284 16.6716 20 17.5 20C18.3284 20 19 19.3284 19 18.5V17.5C19 17.2542 18.9409 17.0222 18.836 16.8174C19.5231 16.5008 20 15.8061 20 15V12.1115C20 11.1434 19.3123 10.336 18.3987 10.1512L17.2023 5.45433C17.0187 4.73367 16.4504 4.17437 15.7269 4.00229C14.3193 3.66752 12.9103 3.5 11.5007 3.5C10.0911 3.5 8.68164 3.66755 7.27323 4.00237Z" fill="currentColor"/></g><path fill-rule="evenodd" clip-rule="evenodd" d="M4.29768 3.95445L3.10127 8.65122C2.18774 8.83604 1.5 9.64344 1.5 10.6115V13.5C1.5 14.6046 2.39543 15.5 3.5 15.5L16.5 15.5C17.6046 15.5 18.5 14.6046 18.5 13.5V10.6115C18.5 9.64344 17.8123 8.83604 16.8987 8.65122L15.7023 3.95433C15.5187 3.23367 14.9504 2.67437 14.2269 2.50229C12.8193 2.16752 11.4103 2 10.0007 2C8.59105 2 7.18164 2.16755 5.77323 2.50237C5.04965 2.67438 4.48127 3.23371 4.29768 3.95445ZM3.5 9.61147C3.72861 9.61147 3.9281 9.45643 3.98453 9.2349L5.26673 4.2013C5.35853 3.84093 5.64272 3.56126 6.00452 3.47525C7.33767 3.15832 8.66949 3 10.0007 3C11.3318 3 12.6632 3.15829 13.9955 3.47515C14.3573 3.56119 14.6414 3.84085 14.7332 4.20118L16.0155 9.2349C16.0719 9.45643 16.2714 9.61147 16.5 9.61147C17.0523 9.61147 17.5 10.0592 17.5 10.6115V13.5C17.5 14.0523 17.0523 14.5 16.5 14.5H3.5C2.94772 14.5 2.5 14.0523 2.5 13.5V10.6115C2.5 10.0592 2.94772 9.61147 3.5 9.61147Z" fill="currentColor"/><path fill-rule="evenodd" clip-rule="evenodd" d="M5.5 16C5.5 15.1716 4.82843 14.5 4 14.5C3.17157 14.5 2.5 15.1716 2.5 16V17C2.5 17.8284 3.17157 18.5 4 18.5C4.82843 18.5 5.5 17.8284 5.5 17V16ZM3.5 16C3.5 15.7239 3.72386 15.5 4 15.5C4.27614 15.5 4.5 15.7239 4.5 16V17C4.5 17.2761 4.27614 17.5 4 17.5C3.72386 17.5 3.5 17.2761 3.5 17V16Z" fill="currentColor"/><path fill-rule="evenodd" clip-rule="evenodd" d="M17.5 16C17.5 15.1716 16.8284 14.5 16 14.5C15.1716 14.5 14.5 15.1716 14.5 16V17C14.5 17.8284 15.1716 18.5 16 18.5C16.8284 18.5 17.5 17.8284 17.5 17V16ZM15.5 16C15.5 15.7239 15.7239 15.5 16 15.5C16.2761 15.5 16.5 15.7239 16.5 16V17C16.5 17.2761 16.2761 17.5 16 17.5C15.7239 17.5 15.5 17.2761 15.5 17V16Z" fill="currentColor"/><path fill-rule="evenodd" clip-rule="evenodd" d="M15 13.5C15.8284 13.5 16.5 12.8284 16.5 12C16.5 11.1716 15.8284 10.5 15 10.5C14.1716 10.5 13.5 11.1716 13.5 12C13.5 12.8284 14.1716 13.5 15 13.5ZM15 11.5C15.2761 11.5 15.5 11.7239 15.5 12C15.5 12.2761 15.2761 12.5 15 12.5C14.7239 12.5 14.5 12.2761 14.5 12C14.5 11.7239 14.7239 11.5 15 11.5Z" fill="currentColor"/><path fill-rule="evenodd" clip-rule="evenodd" d="M5 13.5C5.82843 13.5 6.5 12.8284 6.5 12C6.5 11.1716 5.82843 10.5 5 10.5C4.17157 10.5 3.5 11.1716 3.5 12C3.5 12.8284 4.17157 13.5 5 13.5ZM5 11.5C5.27614 11.5 5.5 11.7239 5.5 12C5.5 12.2761 5.27614 12.5 5 12.5C4.72386 12.5 4.5 12.2761 4.5 12C4.5 11.7239 4.72386 11.5 5 11.5Z" fill="currentColor"/><path fill-rule="evenodd" clip-rule="evenodd" d="M12.6476 4.5H7.35208C6.66122 4.5 6.05972 4.97186 5.89522 5.64284L5.4049 7.64284C5.37625 7.75973 5.36176 7.87965 5.36176 8C5.36176 8.82843 6.03334 9.5 6.86176 9.5H13.1379C13.2582 9.5 13.3782 9.48552 13.495 9.45686C14.2996 9.2596 14.792 8.44744 14.5947 7.64284L14.1044 5.64284C13.9399 4.97186 13.3384 4.5 12.6476 4.5ZM6.86646 5.88095C6.92129 5.65729 7.12179 5.5 7.35208 5.5H12.6476C12.8779 5.5 13.0784 5.65729 13.1332 5.88095L13.6235 7.88095C13.6893 8.14915 13.5251 8.41987 13.2569 8.48562C13.218 8.49517 13.178 8.5 13.1379 8.5H6.86176C6.58562 8.5 6.36176 8.27614 6.36176 8C6.36176 7.95988 6.36659 7.91991 6.37614 7.88095L6.86646 5.88095Z" fill="currentColor"/><path d="M1.15063 1.87794C0.94979 1.6771 0.94979 1.35147 1.15063 1.15063C1.35147 0.949789 1.6771 0.949789 1.87794 1.15063L18.8494 18.1221C19.0502 18.3229 19.0502 18.6485 18.8494 18.8494C18.6485 19.0502 18.3229 19.0502 18.1221 18.8494L1.15063 1.87794Z" fill="currentColor"/></svg>