<svg xmlns="http://www.w3.org/2000/svg" width="20" height="20" viewBox="0 0 20 20">
  <g fill="none" fill-rule="evenodd">
    <g stroke="#AB92F0" transform="translate(3.8 1.7)">
      <circle cx="5.45" cy="15.05" r="1.25" fill="#AB92F0" transform="rotate(-90 5.45 15.05)"/>
      <circle cx="12.45" cy="15.05" r="1.25" fill="#AB92F0" transform="rotate(-90 12.45 15.05)"/>
      <polyline stroke-linecap="round" stroke-linejoin="round" stroke-width="1.5" points=".4 .3 2.003 .3 3.9 7.8"/>
      <path fill="#AB92F0" stroke-linecap="round" stroke-linejoin="round" d="M5.2057438,6.3 L13.1945868,6.3 C14.0260035,6.3 14.7,6.9802946 14.7,7.81948052 C14.7,7.93331249 14.687327,8.04678398 14.6622194,8.15775917 L13.8791777,11.6187981 C13.7228275,12.309865 13.1138391,12.8 12.411545,12.8 L5.98878554,12.8 C5.28649146,12.8 4.67750309,12.309865 4.52115288,11.6187981 L3.73811115,8.15775917 C3.55301463,7.33963388 4.06004578,6.52495977 4.87059691,6.33813363 C4.9805447,6.31279147 5.09296568,6.3 5.2057438,6.3 Z"/>
    </g>
    <polyline stroke="#000" stroke-linecap="round" stroke-linejoin="round" points="2.5 2 4.103 2 6 9.6"/>
    <path stroke="#000" stroke-linecap="round" stroke-linejoin="round" d="M7.5057438,8 L15.4945868,8 C16.3260035,8 17,8.6802946 17,9.51948052 C17,9.63331249 16.987327,9.74678398 16.9622194,9.85775917 L16.1791777,13.3187981 C16.0228275,14.009865 15.4138391,14.5 14.711545,14.5 L8.28878554,14.5 C7.58649146,14.5 6.97750309,14.009865 6.82115288,13.3187981 L6.03811115,9.85775917 C5.85301463,9.03963388 6.36004578,8.22495977 7.17059691,8.03813363 C7.2805447,8.01279147 7.39296568,8 7.5057438,8 Z"/>
    <circle cx="15.25" cy="16.75" r="1.25" fill="#000" stroke="#000" transform="rotate(-90 15.25 16.75)"/>
    <circle cx="8.25" cy="16.75" r="1.25" fill="#000" stroke="#000" transform="rotate(-90 8.25 16.75)"/>
  </g>
</svg>
