<svg width="20" height="20" viewBox="0 0 20 20" fill="none" xmlns="http://www.w3.org/2000/svg"><g opacity="0.2"><path fill-rule="evenodd" clip-rule="evenodd" d="M5.21893 2.75H4.2C3.78579 2.75 3.45 2.41421 3.45 2C3.45 1.58579 3.78579 1.25 4.2 1.25H5.80284C6.14621 1.25 6.44573 1.48319 6.52994 1.81608L8.03184 7.7535C8.19308 7.66344 8.36948 7.59443 8.5583 7.55091C8.70507 7.51708 8.85517 7.5 9.00574 7.5H16.9946C18.1032 7.5 19 8.40519 19 9.51948C19 9.67043 18.9832 9.82091 18.9499 9.96809L18.1669 13.4291C17.9591 14.3474 17.1482 15 16.2115 15H9.78879C8.85212 15 8.04122 14.3474 7.83348 13.4291L7.05044 9.96809C7.0395 9.91977 7.03039 9.87144 7.02305 9.8232C7.00217 9.77935 6.98527 9.73281 6.9729 9.68392L5.21893 2.75ZM9.25 18.5C10.2165 18.5 11 17.7165 11 16.75C11 15.7835 10.2165 15 9.25 15C8.2835 15 7.5 15.7835 7.5 16.75C7.5 17.7165 8.2835 18.5 9.25 18.5ZM16.25 18.5C17.2165 18.5 18 17.7165 18 16.75C18 15.7835 17.2165 15 16.25 15C15.2835 15 14.5 15.7835 14.5 16.75C14.5 17.7165 15.2835 18.5 16.25 18.5Z" fill="currentColor"/></g><path d="M3.71231 2.5L2.5 2.5C2.22386 2.5 2 2.27614 2 2C2 1.72386 2.22386 1.5 2.5 1.5L4.10284 1.5C4.33234 1.5 4.53237 1.65624 4.58795 1.8789L6.48511 9.4789C6.55199 9.74682 6.38902 10.0182 6.1211 10.0851C5.85318 10.152 5.58177 9.98902 5.51489 9.7211L3.71231 2.5Z" fill="currentColor"/><path fill-rule="evenodd" clip-rule="evenodd" d="M15.4946 7.5H7.50575C7.35517 7.5 7.20507 7.51708 7.0583 7.55091C5.97851 7.79979 5.30478 8.88231 5.55044 9.96809L6.33348 13.4291C6.54122 14.3474 7.35212 15 8.28879 15H14.7115C15.6482 15 16.4591 14.3474 16.6669 13.4291L17.4499 9.96809C17.4832 9.82091 17.5 9.67043 17.5 9.51948C17.5 8.40519 16.6032 7.5 15.4946 7.5ZM7.2829 8.52536C7.35602 8.5085 7.43077 8.5 7.50575 8.5H15.4946C16.0488 8.5 16.5 8.9554 16.5 9.51948C16.5 9.5962 16.4915 9.67266 16.4745 9.74743L15.6915 13.2085C15.5865 13.6724 15.1795 14 14.7115 14H8.28879C7.82086 14 7.41379 13.6724 7.30883 13.2085L6.52579 9.74743C6.40125 9.19696 6.74158 8.65013 7.2829 8.52536Z" fill="currentColor"/><path d="M17 16.75C17 17.7165 16.2165 18.5 15.25 18.5C14.2835 18.5 13.5 17.7165 13.5 16.75C13.5 15.7835 14.2835 15 15.25 15C16.2165 15 17 15.7835 17 16.75Z" fill="currentColor"/><path d="M10 16.75C10 17.7165 9.2165 18.5 8.25 18.5C7.2835 18.5 6.5 17.7165 6.5 16.75C6.5 15.7835 7.2835 15 8.25 15C9.2165 15 10 15.7835 10 16.75Z" fill="currentColor"/></svg>