<svg width="20" height="20" viewBox="0 0 20 20" fill="none" xmlns="http://www.w3.org/2000/svg"><g><g opacity="0.2"><path d="M17.0001 2.5H10.0001C8.89555 2.5 8.00012 3.39543 8.00012 4.5V17.5V18C8.00012 18.8284 8.67169 19.5 9.50012 19.5H17.0001C18.1047 19.5 19.0001 18.6046 19.0001 17.5V4.5C19.0001 3.39543 18.1047 2.5 17.0001 2.5Z" fill="currentColor"/><path fill-rule="evenodd" clip-rule="evenodd" d="M7.00012 4.5C7.00012 2.84315 8.34327 1.5 10.0001 1.5H17.0001C18.657 1.5 20.0001 2.84315 20.0001 4.5V17.5C20.0001 19.1569 18.657 20.5 17.0001 20.5H9.50012C8.11941 20.5 7.00012 19.3807 7.00012 18V4.5ZM10.0001 3.5C9.44784 3.5 9.00012 3.94772 9.00012 4.5V18C9.00012 18.2761 9.22398 18.5 9.50012 18.5H17.0001C17.5524 18.5 18.0001 18.0523 18.0001 17.5V4.5C18.0001 3.94772 17.5524 3.5 17.0001 3.5H10.0001Z" fill="currentColor"/><path d="M10.1528 14.0262C9.12072 15.456 7.12502 15.7784 5.69527 14.7463C4.26553 13.7142 3.94316 11.7185 4.97524 10.2887C6.00733 8.85899 8.00303 8.53662 9.43278 9.5687C10.8625 10.6008 11.1849 12.5965 10.1528 14.0262Z" fill="currentColor"/><path fill-rule="evenodd" clip-rule="evenodd" d="M8.84741 10.3795C7.86546 9.67069 6.49482 9.89209 5.78599 10.874C5.07716 11.856 5.29856 13.2266 6.2805 13.9355C7.26245 14.6443 8.63309 14.4229 9.34192 13.4409C10.0508 12.459 9.82935 11.0883 8.84741 10.3795ZM4.16436 9.70343C5.51969 7.82589 8.14046 7.40255 10.018 8.75789C11.8956 10.1132 12.3189 12.734 10.9636 14.6115C9.80993 16.2097 7.7395 16.7542 5.99095 16.0451L3.89967 18.9421C3.57642 19.3899 2.95136 19.4909 2.50356 19.1677C2.05576 18.8444 1.95479 18.2193 2.27804 17.7715L4.36932 14.8745C3.14575 13.4381 3.01073 11.3016 4.16436 9.70343Z" fill="currentColor"/></g><path d="M12.675 15.1375C12.675 15.5103 12.3727 15.8125 12 15.8125C11.6272 15.8125 11.325 15.5103 11.325 15.1375C11.325 14.7647 11.6272 14.4625 12 14.4625C12.3727 14.4625 12.675 14.7647 12.675 15.1375Z" fill="currentColor"/><path fill-rule="evenodd" clip-rule="evenodd" d="M12 14.9625C11.9033 14.9625 11.825 15.0409 11.825 15.1375C11.825 15.2342 11.9033 15.3125 12 15.3125C12.0966 15.3125 12.175 15.2342 12.175 15.1375C12.175 15.0409 12.0966 14.9625 12 14.9625ZM10.825 15.1375C10.825 14.4886 11.351 13.9625 12 13.9625C12.6489 13.9625 13.175 14.4886 13.175 15.1375C13.175 15.7865 12.6489 16.3125 12 16.3125C11.351 16.3125 10.825 15.7865 10.825 15.1375Z" fill="currentColor"/><path fill-rule="evenodd" clip-rule="evenodd" d="M6 3.5C6 2.11929 7.11929 1 8.5 1H15.5C16.8807 1 18 2.11929 18 3.5V16.5C18 17.8807 16.8807 19 15.5 19H8C6.89543 19 6 18.1046 6 17V16C6 15.7239 6.22386 15.5 6.5 15.5C6.77614 15.5 7 15.7239 7 16V17C7 17.5523 7.44772 18 8 18H15.5C16.3284 18 17 17.3284 17 16.5V3.5C17 2.67157 16.3284 2 15.5 2H8.5C7.67157 2 7 2.67157 7 3.5V6.5C7 6.77614 6.77614 7 6.5 7C6.22386 7 6 6.77614 6 6.5V3.5Z" fill="currentColor"/><path fill-rule="evenodd" clip-rule="evenodd" d="M7.64009 8.97417C6.43425 8.10371 4.75107 8.3756 3.88062 9.58144C3.01016 10.7873 3.28204 12.4705 4.48789 13.3409C5.69373 14.2114 7.37691 13.9395 8.24736 12.7336C9.11782 11.5278 8.84594 9.84463 7.64009 8.97417ZM3.0698 8.99614C4.26351 7.3425 6.57175 6.96965 8.22539 8.16336C9.87904 9.35706 10.2519 11.6653 9.05818 13.3189C7.96373 14.8351 5.93238 15.2746 4.32764 14.4172L1.9943 17.6495C1.83268 17.8735 1.52014 17.9239 1.29624 17.7623C1.07234 17.6007 1.02186 17.2881 1.18348 17.0642L3.51682 13.8319C2.19777 12.5787 1.97534 10.5123 3.0698 8.99614Z" fill="currentColor"/></g></svg>