<svg width="20" height="20" viewBox="0 0 26 26" fill="none" xmlns="http://www.w3.org/2000/svg"><path opacity="0.8" d="M26 14C26 20.6274 20.6274 26 14 26C7.37258 26 2 20.6274 2 14C2 7.37258 7.37258 2 14 2C20.6274 2 26 7.37258 26 14Z" fill="currentColor"/><g transform="translate(3, 3)"><g><path fill-rule="evenodd" clip-rule="evenodd" d="M10.3463 11.9022C8.9574 10.9988 8.56372 9.14059 9.46704 7.75164L11.6479 4.39842C12.5512 3.00947 14.4094 2.61579 15.7984 3.51911C17.1873 4.42244 17.581 6.28069 16.6777 7.66963L14.4969 11.0229C13.5935 12.4118 11.7353 12.8055 10.3463 11.9022ZM9.03687 12.0954C7.82801 10.7827 7.61107 8.7712 8.62874 7.20644L10.8095 3.85322C12.014 2.00129 14.4916 1.47638 16.3436 2.68081C18.1955 3.88524 18.7204 6.36291 17.516 8.21484L15.3352 11.5681C14.1307 13.42 11.6531 13.9449 9.80114 12.7405C9.51398 12.5537 9.25872 12.3363 9.03687 12.0954Z" fill="black"/><path fill-rule="evenodd" clip-rule="evenodd" d="M5.39847 15.8415C4.00952 14.9382 3.61584 13.0799 4.51917 11.691L6.69998 8.33775C7.6033 6.9488 9.46155 6.55512 10.8505 7.45845C12.2394 8.36177 12.6331 10.22 11.7298 11.609L9.54899 14.9622C8.64567 16.3511 6.78742 16.7448 5.39847 15.8415ZM4.089 16.0347C2.88013 14.722 2.66319 12.7105 3.68086 11.1458L5.86167 7.79255C7.0661 5.94062 9.54377 5.41571 11.3957 6.62014C13.2476 7.82457 13.7725 10.3022 12.5681 12.1542L10.3873 15.5074C9.18287 17.3593 6.7052 17.8842 4.85327 16.6798C4.5661 16.493 4.31085 16.2756 4.089 16.0347Z" fill="black"/></g></g><path fill-rule="evenodd" clip-rule="evenodd" d="M13 24.5C19.3513 24.5 24.5 19.3513 24.5 13C24.5 6.64873 19.3513 1.5 13 1.5C6.64873 1.5 1.5 6.64873 1.5 13C1.5 19.3513 6.64873 24.5 13 24.5ZM13 25.5C19.9036 25.5 25.5 19.9036 25.5 13C25.5 6.09644 19.9036 0.5 13 0.5C6.09644 0.5 0.5 6.09644 0.5 13C0.5 19.9036 6.09644 25.5 13 25.5Z" fill="black"/></svg>