<svg width="20" height="20" viewBox="0 0 20 20" fill="none" xmlns="http://www.w3.org/2000/svg"><g><g opacity="0.8"><path d="M12.3097 5.35322C13.5141 3.50129 15.9918 2.97638 17.8437 4.18081V4.18081C19.6956 5.38524 20.2205 7.86291 19.0161 9.71484L16.8353 13.0681C15.6309 14.92 13.1532 15.4449 11.3013 14.2405V14.2405C9.44934 13.036 8.92443 10.5584 10.1289 8.70644L12.3097 5.35322Z" fill="currentColor"/><path fill-rule="evenodd" clip-rule="evenodd" d="M12.3917 12.5639C11.4657 11.9616 11.2033 10.7228 11.8055 9.79684L13.9863 6.44362C14.5885 5.51766 15.8273 5.2552 16.7533 5.85742C17.6793 6.45963 17.9417 7.69847 17.3395 8.62443L15.1587 11.9776C14.5565 12.9036 13.3176 13.1661 12.3917 12.5639ZM9.94971 12.7656C9.29038 11.523 9.30758 9.96924 10.1289 8.70644L12.3097 5.35322C13.5141 3.50129 15.9918 2.97638 17.8437 4.18081C19.6956 5.38524 20.2205 7.86291 19.0161 9.71484L16.8353 13.0681C15.6309 14.92 13.1532 15.4449 11.3013 14.2405C10.7121 13.8573 10.2573 13.3453 9.94971 12.7656Z" fill="currentColor"/><path d="M7.36179 9.29255C8.56622 7.44062 11.0439 6.91571 12.8958 8.12014V8.12014C14.7478 9.32457 15.2727 11.8022 14.0682 13.6542L11.8874 17.0074C10.683 18.8593 8.20532 19.3842 6.35339 18.1798V18.1798C4.50146 16.9754 3.97656 14.4977 5.18098 12.6458L7.36179 9.29255Z" fill="currentColor"/><path fill-rule="evenodd" clip-rule="evenodd" d="M7.4438 16.5032C6.51783 15.901 6.25538 14.6621 6.85759 13.7362L9.0384 10.383C9.64062 9.45699 10.8794 9.19454 11.8054 9.79675C12.7314 10.399 12.9938 11.6378 12.3916 12.5638L10.2108 15.917C9.6086 16.8429 8.36976 17.1054 7.4438 16.5032ZM5.00183 16.7049C4.3425 15.4623 4.3597 13.9086 5.18098 12.6458L7.36179 9.29255C8.56622 7.44062 11.0439 6.91571 12.8958 8.12014C14.7478 9.32457 15.2727 11.8022 14.0682 13.6542L11.8874 17.0074C10.683 18.8593 8.20532 19.3842 6.35339 18.1798C5.76426 17.7966 5.30943 17.2846 5.00183 16.7049Z" fill="currentColor"/></g><path fill-rule="evenodd" clip-rule="evenodd" d="M10.3463 11.9022C8.9574 10.9988 8.56372 9.14059 9.46704 7.75164L11.6479 4.39842C12.5512 3.00947 14.4094 2.61579 15.7984 3.51911C17.1873 4.42244 17.581 6.28069 16.6777 7.66963L14.4969 11.0229C13.5935 12.4118 11.7353 12.8055 10.3463 11.9022ZM9.03687 12.0954C7.82801 10.7827 7.61107 8.7712 8.62874 7.20644L10.8095 3.85322C12.014 2.00129 14.4916 1.47638 16.3436 2.68081C18.1955 3.88524 18.7204 6.36291 17.516 8.21484L15.3352 11.5681C14.1307 13.42 11.6531 13.9449 9.80114 12.7405C9.51398 12.5537 9.25872 12.3363 9.03687 12.0954Z" fill="black"/><path fill-rule="evenodd" clip-rule="evenodd" d="M5.39847 15.8415C4.00952 14.9382 3.61584 13.0799 4.51917 11.691L6.69998 8.33775C7.6033 6.9488 9.46155 6.55512 10.8505 7.45845C12.2394 8.36177 12.6331 10.22 11.7298 11.609L9.54899 14.9622C8.64567 16.3511 6.78742 16.7448 5.39847 15.8415ZM4.089 16.0347C2.88013 14.722 2.66319 12.7105 3.68086 11.1458L5.86167 7.79255C7.0661 5.94062 9.54377 5.41571 11.3957 6.62014C13.2476 7.82457 13.7725 10.3022 12.5681 12.1542L10.3873 15.5074C9.18287 17.3593 6.7052 17.8842 4.85327 16.6798C4.5661 16.493 4.31085 16.2756 4.089 16.0347Z" fill="black"/></g></svg>