<svg width="20" height="20" viewBox="0 0 20 20" fill="none" xmlns="http://www.w3.org/2000/svg"><g><g opacity="0.2"><path d="M12.3096 5.35322C13.514 3.50129 15.9917 2.97638 17.8436 4.18081C19.6956 5.38524 20.2205 7.86291 19.016 9.71484L16.8352 13.0681C15.6308 14.92 13.1531 15.4449 11.3012 14.2405C9.44928 13.036 8.92437 10.5584 10.1288 8.70644L12.3096 5.35322Z" fill="currentColor"/><path fill-rule="evenodd" clip-rule="evenodd" d="M12.3916 12.5639C11.4656 11.9616 11.2032 10.7228 11.8054 9.79684L13.9862 6.44362C14.5884 5.51766 15.8273 5.2552 16.7532 5.85742C17.6792 6.45963 17.9416 7.69847 17.3394 8.62443L15.1586 11.9776C14.5564 12.9036 13.3176 13.1661 12.3916 12.5639ZM9.94965 12.7656C9.29032 11.523 9.30752 9.96924 10.1288 8.70644L12.3096 5.35322C13.514 3.50129 15.9917 2.97638 17.8436 4.18081C19.6956 5.38524 20.2205 7.86291 19.016 9.71484L16.8352 13.0681C15.6308 14.92 13.1531 15.4449 11.3012 14.2405C10.7121 13.8573 10.2572 13.3453 9.94965 12.7656Z" fill="currentColor"/><path d="M7.36173 9.29255C8.56616 7.44062 11.0438 6.91571 12.8958 8.12014C14.7477 9.32457 15.2726 11.8022 14.0682 13.6542L11.8874 17.0074C10.6829 18.8593 8.20526 19.3842 6.35333 18.1798C4.5014 16.9754 3.97649 14.4977 5.18092 12.6458L7.36173 9.29255Z" fill="currentColor"/><path fill-rule="evenodd" clip-rule="evenodd" d="M7.44373 16.5032C6.51777 15.901 6.25532 14.6621 6.85753 13.7362L9.03834 10.383C9.64055 9.45699 10.8794 9.19454 11.8054 9.79675C12.7313 10.399 12.9938 11.6378 12.3916 12.5638L10.2107 15.917C9.60853 16.8429 8.3697 17.1054 7.44373 16.5032ZM5.00177 16.7049C4.34244 15.4623 4.35964 13.9086 5.18092 12.6458L7.36173 9.29255C8.56616 7.44062 11.0438 6.91571 12.8958 8.12014C14.7477 9.32457 15.2726 11.8022 14.0682 13.6542L11.8874 17.0074C10.6829 18.8593 8.20526 19.3842 6.35333 18.1798C5.7642 17.7966 5.30936 17.2846 5.00177 16.7049Z" fill="currentColor"/></g><path fill-rule="evenodd" clip-rule="evenodd" d="M10.3463 11.9022C8.95734 10.9988 8.56366 9.14059 9.46698 7.75164L11.6478 4.39842C12.5511 3.00947 14.4094 2.61579 15.7983 3.51911C17.1873 4.42244 17.5809 6.28069 16.6776 7.66963L14.4968 11.0229C13.5935 12.4118 11.7352 12.8055 10.3463 11.9022ZM9.03681 12.0954C7.82795 10.7827 7.61101 8.7712 8.62868 7.20644L10.8095 3.85322C12.0139 2.00129 14.4916 1.47638 16.3435 2.68081C18.1954 3.88524 18.7203 6.36291 17.5159 8.21484L15.3351 11.5681C14.1307 13.42 11.653 13.9449 9.80108 12.7405C9.51392 12.5537 9.25866 12.3363 9.03681 12.0954Z" fill="currentColor"/><path fill-rule="evenodd" clip-rule="evenodd" d="M5.39841 15.8415C4.00946 14.9382 3.61578 13.0799 4.5191 11.691L6.69991 8.33775C7.60324 6.9488 9.46149 6.55512 10.8504 7.45845C12.2394 8.36177 12.6331 10.22 11.7297 11.609L9.54893 14.9622C8.64561 16.3511 6.78736 16.7448 5.39841 15.8415ZM4.08894 16.0347C2.88007 14.722 2.66313 12.7105 3.6808 11.1458L5.86161 7.79255C7.06604 5.94062 9.54371 5.41571 11.3956 6.62014C13.2476 7.82457 13.7725 10.3022 12.568 12.1542L10.3872 15.5074C9.18281 17.3593 6.70514 17.8842 4.85321 16.6798C4.56604 16.493 4.31078 16.2756 4.08894 16.0347Z" fill="currentColor"/></g><path d="M1.15063 1.87794C0.94979 1.6771 0.94979 1.35147 1.15063 1.15063C1.35147 0.949789 1.6771 0.949789 1.87794 1.15063L18.8494 18.1221C19.0502 18.3229 19.0502 18.6485 18.8494 18.8494C18.6485 19.0502 18.3229 19.0502 18.1221 18.8494L1.15063 1.87794Z" fill="currentColor"/></svg>