<svg width="20" height="20" viewBox="0 0 26 26" fill="none" xmlns="http://www.w3.org/2000/svg"><path opacity="0.2" d="M26 14C26 20.6274 20.6274 26 14 26C7.37258 26 2 20.6274 2 14C2 7.37258 7.37258 2 14 2C20.6274 2 26 7.37258 26 14Z" fill="currentColor"/><g transform="translate(3, 3)"><path d="M14.9371 5.74286L9.93708 14.7429C9.61332 15.3256 8.73916 14.84 9.06292 14.2572L14.0629 5.25721C14.3867 4.67444 15.2608 5.16009 14.9371 5.74286Z" fill="currentColor"/><path d="M4.81235 10.1097L9.81235 14.1097C10.3329 14.5261 9.70823 15.307 9.18765 14.8905L4.18765 10.8905C3.66707 10.4741 4.29177 9.6932 4.81235 10.1097Z" fill="currentColor"/></g><path fill-rule="evenodd" clip-rule="evenodd" d="M13 24.5C19.3513 24.5 24.5 19.3513 24.5 13C24.5 6.64873 19.3513 1.5 13 1.5C6.64873 1.5 1.5 6.64873 1.5 13C1.5 19.3513 6.64873 24.5 13 24.5ZM13 25.5C19.9036 25.5 25.5 19.9036 25.5 13C25.5 6.09644 19.9036 0.5 13 0.5C6.09644 0.5 0.5 6.09644 0.5 13C0.5 19.9036 6.09644 25.5 13 25.5Z" fill="currentColor"/></svg>