<svg width="20" height="20" viewBox="0 0 20 20" fill="none" xmlns="http://www.w3.org/2000/svg"><path opacity="0.2" fill-rule="evenodd" clip-rule="evenodd" d="M3.27849 9.12144C3.8148 8.58512 4.22805 7.55872 4.21324 6.8004C4.19962 6.10288 4.45894 5.40102 4.99122 4.86875C5.5445 4.31547 6.28102 4.0571 7.00544 4.09366C7.71921 4.12968 8.62058 3.78311 9.12593 3.27776C10.1639 2.23977 11.8468 2.23977 12.8848 3.27776C13.3902 3.78311 14.2915 4.12968 15.0053 4.09366C15.7297 4.0571 16.4662 4.31547 17.0195 4.86875C17.5521 5.40134 17.8114 6.10373 17.7975 6.80166C17.7823 7.55922 18.1964 8.58567 18.7322 9.12145C19.7702 10.1594 19.7672 11.8453 18.7256 12.887C18.1978 13.4148 17.8123 14.3246 17.7975 15.0709C17.7843 15.7333 17.525 16.3917 17.0195 16.8972C16.5341 17.3826 15.9077 17.641 15.2721 17.6724C14.4807 17.7115 13.4451 18.1712 12.8848 18.7315C11.8468 19.7695 10.1639 19.7695 9.12593 18.7315C8.56563 18.1712 7.53008 17.7115 6.73866 17.6724C6.10308 17.641 5.47663 17.3826 4.99122 16.8972C4.48619 16.3922 4.22688 15.7345 4.21329 15.0727C4.19794 14.325 3.8073 13.4091 3.27849 12.8803C2.2405 11.8423 2.2405 10.1594 3.27849 9.12144Z" fill="currentColor"/><path fill-rule="evenodd" clip-rule="evenodd" d="M4.19832 4.07659C3.86621 4.40871 3.70452 4.84476 3.71305 5.28161C3.72378 5.83127 3.58347 6.41355 3.38015 6.91845C3.17683 7.42333 2.87444 7.94043 2.4856 8.32927C1.83813 8.97674 1.83813 10.0265 2.4856 10.6739C3.19679 11.3851 3.69243 12.5469 3.71308 13.5529C3.72158 13.967 3.88301 14.3755 4.19832 14.6908C4.50153 14.994 4.8906 15.1547 5.28802 15.1744C5.83795 15.2015 6.41688 15.3679 6.92456 15.5932C7.43227 15.8185 7.94393 16.136 8.33304 16.5251C8.9805 17.1726 10.0302 17.1726 10.6777 16.5251C11.0668 16.136 11.5785 15.8185 12.0862 15.5932C12.5939 15.3679 13.1728 15.2015 13.7227 15.1744C14.1201 15.1547 14.5092 14.994 14.8124 14.6908C15.128 14.3752 15.2895 13.9662 15.2977 13.5517C15.3176 12.5487 15.8068 11.3922 16.5185 10.6806C17.172 10.0271 17.1702 8.97439 16.5251 8.32929C16.1366 7.94082 15.8342 7.42398 15.6308 6.91932C15.4274 6.41473 15.2867 5.8323 15.2977 5.2824C15.3064 4.84528 15.1447 4.40891 14.8124 4.07659C14.4673 3.73151 14.0097 3.57021 13.5557 3.59312C12.5599 3.64337 11.3832 3.19113 10.6777 2.4856C10.0302 1.83813 8.9805 1.83813 8.33304 2.4856C7.6275 3.19113 6.45082 3.64337 5.45504 3.59312C5.00108 3.57021 4.5434 3.73151 4.19832 4.07659ZM2.71324 5.30114C2.72805 6.05945 2.3148 7.08586 1.77849 7.62217C0.740504 8.66015 0.740504 10.3431 1.77849 11.381C2.3073 11.9099 2.69794 12.8257 2.71329 13.5734C2.72688 14.2352 2.98619 14.8929 3.49122 15.3979C3.97663 15.8833 4.60308 16.1417 5.23866 16.1731C6.03008 16.2123 7.06563 16.672 7.62593 17.2323C8.66392 18.2702 10.3468 18.2702 11.3848 17.2323C11.9451 16.672 12.9807 16.2123 13.7721 16.1731C14.4077 16.1417 15.0341 15.8833 15.5195 15.3979C16.025 14.8924 16.2843 14.234 16.2975 13.5716C16.3123 12.8253 16.6978 11.9155 17.2256 11.3877C18.2672 10.3461 18.2702 8.66017 17.2322 7.62218C16.6964 7.0864 16.2823 6.05995 16.2975 5.3024C16.3114 4.60446 16.0521 3.90208 15.5195 3.36948C14.9662 2.8162 14.2297 2.55784 13.5053 2.59439C12.7915 2.63041 11.8902 2.28384 11.3848 1.77849C10.3468 0.740503 8.66392 0.740503 7.62593 1.77849C7.12058 2.28384 6.21921 2.63041 5.50544 2.59439C4.78102 2.55784 4.0445 2.8162 3.49122 3.36948C2.95894 3.90176 2.69962 4.60361 2.71324 5.30114Z" fill="currentColor"/><path fill-rule="evenodd" clip-rule="evenodd" d="M12.2983 6.56362C12.5397 6.69773 12.6266 7.00213 12.4925 7.24352L9.71476 12.2435C9.58065 12.4849 9.27625 12.5719 9.03486 12.4378C8.79347 12.3037 8.70649 11.9993 8.8406 11.7579L11.6184 6.75788C11.7525 6.51649 12.0569 6.42952 12.2983 6.56362Z" fill="currentColor"/><path fill-rule="evenodd" clip-rule="evenodd" d="M6.10958 9.46611C6.28209 9.25048 6.59673 9.21552 6.81237 9.38803L9.59014 11.6102C9.80577 11.7828 9.84074 12.0974 9.66823 12.313C9.49573 12.5287 9.18108 12.5636 8.96545 12.3911L6.18767 10.1689C5.97204 9.99639 5.93708 9.68174 6.10958 9.46611Z" fill="currentColor"/><path d="M1.15063 1.87794C0.94979 1.6771 0.94979 1.35147 1.15063 1.15063C1.35147 0.949789 1.6771 0.949789 1.87794 1.15063L18.8494 18.1221C19.0502 18.3229 19.0502 18.6485 18.8494 18.8494C18.6485 19.0502 18.3229 19.0502 18.1221 18.8494L1.15063 1.87794Z" fill="currentColor"/></svg>