<svg width="20" height="20" viewBox="0 0 26 26" fill="none" xmlns="http://www.w3.org/2000/svg"><path opacity="0.2" fill-rule="evenodd" clip-rule="evenodd" d="M13.5 26C20.4036 26 26 20.4036 26 13.5C26 6.59644 20.4036 1 13.5 1C6.59644 1 1 6.59644 1 13.5C1 20.4036 6.59644 26 13.5 26ZM13.5 24C19.299 24 24 19.299 24 13.5C24 7.70101 19.299 3 13.5 3C7.70101 3 3 7.70101 3 13.5C3 19.299 7.70101 24 13.5 24Z" fill="currentColor"/><g transform="translate(3, 3)"><g opacity="0.2"><path fill-rule="evenodd" clip-rule="evenodd" d="M12.8699 17.1228L17.8112 8.22845C18.7825 6.48013 16.1601 5.0232 15.1888 6.77152L11.0509 14.2197L7.43705 11.3287C5.87531 10.0793 4.00122 12.4219 5.56296 13.6713L10.4686 17.5958C10.524 17.6454 10.5829 17.6914 10.6446 17.7332C11.0317 18.0105 11.4337 18.0749 11.7947 17.9963C12.1586 17.9321 12.5062 17.7201 12.7591 17.3167C12.8004 17.2546 12.8375 17.1897 12.8699 17.1228Z" fill="currentColor"/></g><path d="M14.9371 5.74286L9.93708 14.7429C9.61332 15.3256 8.73916 14.84 9.06292 14.2572L14.0629 5.25721C14.3867 4.67444 15.2608 5.16009 14.9371 5.74286Z" fill="currentColor"/><path d="M4.81235 10.1097L9.81235 14.1097C10.3329 14.5261 9.70823 15.307 9.18765 14.8905L4.18765 10.8905C3.66707 10.4741 4.29177 9.6932 4.81235 10.1097Z" fill="currentColor"/><path d="M1.15063 1.87794C0.94979 1.6771 0.94979 1.35147 1.15063 1.15063C1.35147 0.949789 1.6771 0.949789 1.87794 1.15063L18.8494 18.1221C19.0502 18.3229 19.0502 18.6485 18.8494 18.8494C18.6485 19.0502 18.3229 19.0502 18.1221 18.8494L1.15063 1.87794Z" fill="currentColor"/></g><path fill-rule="evenodd" clip-rule="evenodd" d="M13 24.5C19.3513 24.5 24.5 19.3513 24.5 13C24.5 6.64873 19.3513 1.5 13 1.5C6.64873 1.5 1.5 6.64873 1.5 13C1.5 19.3513 6.64873 24.5 13 24.5ZM13 25.5C19.9036 25.5 25.5 19.9036 25.5 13C25.5 6.09644 19.9036 0.5 13 0.5C6.09644 0.5 0.5 6.09644 0.5 13C0.5 19.9036 6.09644 25.5 13 25.5Z" fill="currentColor"/></svg>