<svg width="20" height="20" viewBox="0 0 20 20" fill="none" xmlns="http://www.w3.org/2000/svg"><g opacity="0.2"><path fill-rule="evenodd" clip-rule="evenodd" d="M13.5412 7.12664C14.024 7.39485 14.1979 8.00365 13.9297 8.48644L11.1519 13.4864C10.8837 13.9692 10.2749 14.1432 9.79213 13.8749C9.30934 13.6067 9.1354 12.9979 9.40361 12.5151L12.1814 7.51515C12.4496 7.03237 13.0584 6.85842 13.5412 7.12664Z" fill="currentColor"/><path fill-rule="evenodd" clip-rule="evenodd" d="M6.71917 10.1538C7.06418 9.72252 7.69347 9.6526 8.12473 9.99761L10.9025 12.2198C11.3338 12.5648 11.4037 13.1941 11.0587 13.6254C10.7137 14.0567 10.0844 14.1266 9.65312 13.7816L6.87534 11.5593C6.44408 11.2143 6.37416 10.585 6.71917 10.1538Z" fill="currentColor"/><path fill-rule="evenodd" clip-rule="evenodd" d="M12.7277 3.43489L11.4706 4.69197C11.2137 4.43503 10.7971 4.43503 10.5401 4.69197C9.63442 5.59769 8.18243 6.1556 6.90464 6.09112C6.72114 6.08186 6.5423 6.1461 6.40543 6.28296C6.27347 6.41493 6.20942 6.58516 6.21286 6.76136C6.22692 7.48152 6.0459 8.19989 5.80776 8.79126C5.56963 9.3826 5.20224 10.0261 4.6927 10.5356C4.43577 10.7926 4.43577 11.2092 4.6927 11.4661C5.58628 12.3597 6.18691 13.7674 6.21287 15.0316C6.21629 15.198 6.27984 15.3574 6.40543 15.483C6.52644 15.604 6.67812 15.667 6.83737 15.6749C7.54153 15.7097 8.24264 15.9177 8.83015 16.1784C9.41772 16.4391 10.0421 16.8192 10.5401 17.3173C10.7971 17.5742 11.2137 17.5742 11.4706 17.3173C11.9687 16.8192 12.593 16.4391 13.1806 16.1784C13.7681 15.9177 14.4692 15.7097 15.1734 15.6749C15.3326 15.667 15.4843 15.604 15.6053 15.483C15.7309 15.3574 15.7945 15.198 15.7979 15.0316C15.8238 13.7674 16.4245 12.3597 17.318 11.4661C17.575 11.2092 17.575 10.7926 17.318 10.5356C16.8085 10.0261 16.4411 9.3826 16.203 8.79126C15.9648 8.19989 15.7838 7.48153 15.7979 6.76136C15.8013 6.58516 15.7373 6.41493 15.6053 6.28296C15.4684 6.1461 15.2896 6.08186 15.1061 6.09112C13.8283 6.1556 12.3763 5.59769 11.4706 4.69197L12.7277 3.43489ZM4.21324 6.8004C4.22805 7.55872 3.8148 8.58512 3.27849 9.12144C2.2405 10.1594 2.2405 11.8423 3.27849 12.8803C3.8073 13.4091 4.19794 14.325 4.21329 15.0727C4.22688 15.7345 4.48619 16.3922 4.99122 16.8972C5.47663 17.3826 6.10308 17.641 6.73866 17.6724C7.53008 17.7115 8.56563 18.1712 9.12593 18.7315C10.1639 19.7695 11.8468 19.7695 12.8848 18.7315C13.4451 18.1712 14.4807 17.7115 15.2721 17.6724C15.9077 17.641 16.5341 17.3826 17.0195 16.8972C17.5246 16.3922 17.7839 15.7345 17.7975 15.0727C17.8128 14.325 18.2034 13.4091 18.7323 12.8803C19.7702 11.8423 19.7702 10.1594 18.7323 9.12144C18.1959 8.58512 17.7827 7.55872 17.7975 6.80041C17.8111 6.10289 17.5518 5.40102 17.0195 4.86875C16.4662 4.31547 15.7297 4.05711 15.0053 4.09366C14.2915 4.12968 13.3902 3.78311 12.8848 3.27776C11.8468 2.23977 10.1639 2.23977 9.12593 3.27776C8.62058 3.78311 7.71921 4.12968 7.00544 4.09366C6.28102 4.0571 5.5445 4.31547 4.99122 4.86875C4.45894 5.40102 4.19962 6.10288 4.21324 6.8004Z" fill="currentColor"/></g><path fill-rule="evenodd" clip-rule="evenodd" d="M12.2983 6.56362C12.5397 6.69773 12.6266 7.00213 12.4925 7.24352L9.71476 12.2435C9.58065 12.4849 9.27625 12.5719 9.03486 12.4378C8.79347 12.3037 8.70649 11.9993 8.8406 11.7579L11.6184 6.75788C11.7525 6.51649 12.0569 6.42952 12.2983 6.56362Z" fill="currentColor"/><path fill-rule="evenodd" clip-rule="evenodd" d="M6.10958 9.46611C6.28209 9.25048 6.59673 9.21552 6.81237 9.38803L9.59014 11.6102C9.80577 11.7828 9.84074 12.0974 9.66823 12.313C9.49573 12.5287 9.18108 12.5636 8.96545 12.3911L6.18767 10.1689C5.97204 9.99639 5.93708 9.68174 6.10958 9.46611Z" fill="currentColor"/><path fill-rule="evenodd" clip-rule="evenodd" d="M4.19832 4.07659C3.86621 4.40871 3.70452 4.84476 3.71305 5.28161C3.72378 5.83127 3.58347 6.41355 3.38015 6.91845C3.17683 7.42333 2.87444 7.94043 2.4856 8.32927C1.83813 8.97674 1.83813 10.0265 2.4856 10.6739C3.19679 11.3851 3.69243 12.5469 3.71308 13.5529C3.72158 13.967 3.88301 14.3755 4.19832 14.6908C4.50153 14.994 4.8906 15.1547 5.28802 15.1744C5.83795 15.2015 6.41688 15.3679 6.92456 15.5932C7.43227 15.8185 7.94393 16.136 8.33304 16.5251C8.9805 17.1726 10.0302 17.1726 10.6777 16.5251C11.0668 16.136 11.5785 15.8185 12.0862 15.5932C12.5939 15.3679 13.1728 15.2015 13.7227 15.1744C14.1201 15.1547 14.5092 14.994 14.8124 14.6908C15.1277 14.3755 15.2892 13.967 15.2977 13.5529C15.3183 12.5469 15.814 11.3851 16.5251 10.6739C17.1726 10.0265 17.1726 8.97674 16.5251 8.32927C16.1363 7.94043 15.8339 7.42333 15.6306 6.91845C15.4273 6.41355 15.287 5.83128 15.2977 5.28162C15.3062 4.84476 15.1445 4.40871 14.8124 4.07659C14.4673 3.73151 14.0097 3.57021 13.5557 3.59312C12.5599 3.64337 11.3832 3.19113 10.6777 2.4856C10.0302 1.83813 8.9805 1.83813 8.33304 2.4856C7.6275 3.19113 6.45082 3.64337 5.45504 3.59312C5.00108 3.57021 4.5434 3.73151 4.19832 4.07659ZM2.71324 5.30114C2.72805 6.05945 2.3148 7.08586 1.77849 7.62217C0.740504 8.66015 0.740504 10.3431 1.77849 11.381C2.3073 11.9099 2.69794 12.8257 2.71329 13.5734C2.72688 14.2352 2.98619 14.8929 3.49122 15.3979C3.97663 15.8833 4.60308 16.1417 5.23866 16.1731C6.03008 16.2123 7.06563 16.672 7.62593 17.2323C8.66392 18.2702 10.3468 18.2702 11.3848 17.2323C11.9451 16.672 12.9807 16.2123 13.7721 16.1731C14.4077 16.1417 15.0341 15.8833 15.5195 15.3979C16.0246 14.8929 16.2839 14.2352 16.2975 13.5734C16.3128 12.8257 16.7034 11.9099 17.2323 11.381C18.2702 10.3431 18.2702 8.66015 17.2323 7.62217C16.6959 7.08586 16.2827 6.05945 16.2975 5.30114C16.3111 4.60362 16.0518 3.90176 15.5195 3.36948C14.9662 2.8162 14.2297 2.55784 13.5053 2.59439C12.7915 2.63041 11.8902 2.28384 11.3848 1.77849C10.3468 0.740503 8.66392 0.740503 7.62593 1.77849C7.12058 2.28384 6.21921 2.63041 5.50544 2.59439C4.78102 2.55784 4.0445 2.8162 3.49122 3.36948C2.95894 3.90176 2.69962 4.60361 2.71324 5.30114Z" fill="currentColor"/></svg>