<svg width="20" height="20" viewBox="0 0 26 26" fill="none" xmlns="http://www.w3.org/2000/svg"><path opacity="0.8" fill-rule="evenodd" clip-rule="evenodd" d="M13.5 26C20.4036 26 26 20.4036 26 13.5C26 6.59644 20.4036 1 13.5 1C6.59644 1 1 6.59644 1 13.5C1 20.4036 6.59644 26 13.5 26ZM13.5 24C19.299 24 24 19.299 24 13.5C24 7.70101 19.299 3 13.5 3C7.70101 3 3 7.70101 3 13.5C3 19.299 7.70101 24 13.5 24Z" fill="currentColor"/><g transform="translate(3, 3)"><g><g opacity="0.8"><path d="M3.15637 6.13739L16.9727 3.11232L17.5777 5.87558L3.76139 8.90065L3.15637 6.13739Z" fill="currentColor"/><path fill-rule="evenodd" clip-rule="evenodd" d="M2.17946 6.35125C2.06133 5.81174 2.40293 5.27863 2.94244 5.16051L16.7587 2.13543C17.2982 2.01731 17.8314 2.3589 17.9495 2.89841L18.5545 5.66167C18.6726 6.20117 18.331 6.73429 17.7915 6.85241L3.97522 9.87749C3.43571 9.99561 2.9026 9.65401 2.78447 9.11451L2.17946 6.35125ZM4.34706 6.90034L4.52431 7.70988L16.3869 5.11258L16.2096 4.30303L4.34706 6.90034Z" fill="currentColor"/><path d="M3.9259 9.09311L18.0695 9.09311L18.0695 17.5793L3.9259 17.5793L3.9259 9.09311Z" fill="currentColor"/><path fill-rule="evenodd" clip-rule="evenodd" d="M2.9259 9.09311C2.9259 8.54082 3.37362 8.09311 3.9259 8.09311L18.0695 8.09311C18.6218 8.09311 19.0695 8.54082 19.0695 9.09311L19.0695 17.5793C19.0695 18.1316 18.6218 18.5793 18.0695 18.5793L3.9259 18.5793C3.37362 18.5793 2.9259 18.1316 2.9259 17.5793L2.9259 9.09311ZM4.9259 10.0931L4.9259 16.5793L17.0695 16.5793L17.0695 10.0931L4.9259 10.0931Z" fill="currentColor"/></g><path fill-rule="evenodd" clip-rule="evenodd" d="M0.768196 4.97226C0.709134 4.7025 0.879932 4.43595 1.14968 4.37688L15.8026 1.16864C16.0723 1.10958 16.3389 1.28038 16.3979 1.55013L17.0396 4.48071C17.0987 4.75046 16.9279 5.01702 16.6581 5.07608L2.00522 8.28432C1.73546 8.34338 1.46891 8.17259 1.40985 7.90283L0.768196 4.97226ZM1.852 5.2468L2.27976 7.20052L15.9558 4.20616L15.528 2.25244L1.852 5.2468Z" fill="black"/><path fill-rule="evenodd" clip-rule="evenodd" d="M9.85446 6.33781L7.25909 3.835L7.95324 3.11518L10.5486 5.61799L9.85446 6.33781Z" fill="black"/><path fill-rule="evenodd" clip-rule="evenodd" d="M5.94699 7.19334L3.35162 4.69053L4.04577 3.97071L6.64114 6.47352L5.94699 7.19334Z" fill="black"/><path fill-rule="evenodd" clip-rule="evenodd" d="M13.7619 5.48228L11.1666 2.97947L11.8607 2.25965L14.4561 4.76246L13.7619 5.48228Z" fill="black"/><path fill-rule="evenodd" clip-rule="evenodd" d="M8.98879 11.2774L10.9888 8.27736L10.1567 7.72266L8.15674 10.7227L8.98879 11.2774Z" fill="black"/><path fill-rule="evenodd" clip-rule="evenodd" d="M12.9888 11.2774L14.9888 8.27736L14.1567 7.72266L12.1567 10.7227L12.9888 11.2774Z" fill="black"/><path fill-rule="evenodd" clip-rule="evenodd" d="M4.98879 11.2774L6.98879 8.27736L6.15674 7.72266L4.15674 10.7227L4.98879 11.2774Z" fill="black"/><path fill-rule="evenodd" clip-rule="evenodd" d="M1.57275 8C1.57275 7.72386 1.79661 7.5 2.07275 7.5L17.0728 7.5C17.3489 7.5 17.5728 7.72386 17.5728 8L17.5728 17C17.5728 17.2761 17.3489 17.5 17.0728 17.5L2.07275 17.5C1.79661 17.5 1.57275 17.2761 1.57275 17L1.57275 8ZM2.57275 8.5L2.57275 16.5L16.5728 16.5L16.5728 8.5L2.57275 8.5Z" fill="black"/><path fill-rule="evenodd" clip-rule="evenodd" d="M17.5728 11.5L1.57275 11.5L1.57275 10.5L17.5728 10.5L17.5728 11.5Z" fill="black"/></g><path d="M1.15063 1.87794C0.94979 1.6771 0.94979 1.35147 1.15063 1.15063C1.35147 0.949789 1.6771 0.949789 1.87794 1.15063L18.8494 18.1221C19.0502 18.3229 19.0502 18.6485 18.8494 18.8494C18.6485 19.0502 18.3229 19.0502 18.1221 18.8494L1.15063 1.87794Z" fill="black"/></g><path fill-rule="evenodd" clip-rule="evenodd" d="M13 24.5C19.3513 24.5 24.5 19.3513 24.5 13C24.5 6.64873 19.3513 1.5 13 1.5C6.64873 1.5 1.5 6.64873 1.5 13C1.5 19.3513 6.64873 24.5 13 24.5ZM13 25.5C19.9036 25.5 25.5 19.9036 25.5 13C25.5 6.09644 19.9036 0.5 13 0.5C6.09644 0.5 0.5 6.09644 0.5 13C0.5 19.9036 6.09644 25.5 13 25.5Z" fill="black"/></svg>