<svg width="20" height="20" viewBox="0 0 20 20" fill="none" xmlns="http://www.w3.org/2000/svg"><g><g opacity="0.2"><path d="M3.15623 6.13739L16.9725 3.11232L17.5776 5.87558L3.76125 8.90065L3.15623 6.13739Z" fill="currentColor"/><path fill-rule="evenodd" clip-rule="evenodd" d="M2.17938 6.35125C2.06126 5.81174 2.40285 5.27863 2.94236 5.16051L16.7587 2.13543C17.2982 2.01731 17.8313 2.3589 17.9494 2.89841L18.5544 5.66167C18.6725 6.20117 18.3309 6.73429 17.7914 6.85241L3.97514 9.87749C3.43564 9.99561 2.90252 9.65401 2.7844 9.11451L2.17938 6.35125ZM4.34698 6.90034L4.52423 7.70988L16.3868 5.11258L16.2096 4.30303L4.34698 6.90034Z" fill="currentColor"/><path d="M3.92581 9.09311L18.0694 9.09311L18.0694 17.5793L3.92581 17.5793L3.92581 9.09311Z" fill="currentColor"/><path fill-rule="evenodd" clip-rule="evenodd" d="M2.92581 9.09311C2.92581 8.54082 3.37353 8.09311 3.92581 8.09311L18.0694 8.09311C18.6217 8.09311 19.0694 8.54082 19.0694 9.09311L19.0694 17.5793C19.0694 18.1316 18.6217 18.5793 18.0694 18.5793L3.92581 18.5793C3.37353 18.5793 2.92581 18.1316 2.92581 17.5793L2.92581 9.09311ZM4.92581 10.0931L4.92581 16.5793L17.0694 16.5793L17.0694 10.0931L4.92581 10.0931Z" fill="currentColor"/></g><path fill-rule="evenodd" clip-rule="evenodd" d="M0.76809 4.97226C0.709027 4.7025 0.879825 4.43595 1.14958 4.37688L15.8025 1.16864C16.0722 1.10958 16.3388 1.28038 16.3978 1.55013L17.0395 4.48071C17.0985 4.75046 16.9278 5.01702 16.658 5.07608L2.00511 8.28432C1.73536 8.34338 1.4688 8.17259 1.40974 7.90283L0.76809 4.97226ZM1.85189 5.2468L2.27966 7.20052L15.9557 4.20616L15.5279 2.25244L1.85189 5.2468Z" fill="currentColor"/><path fill-rule="evenodd" clip-rule="evenodd" d="M9.85438 6.33781L7.25901 3.835L7.95317 3.11518L10.5485 5.61799L9.85438 6.33781Z" fill="currentColor"/><path fill-rule="evenodd" clip-rule="evenodd" d="M5.94696 7.19334L3.35159 4.69053L4.04574 3.97071L6.64111 6.47352L5.94696 7.19334Z" fill="currentColor"/><path fill-rule="evenodd" clip-rule="evenodd" d="M13.7618 5.48228L11.1665 2.97947L11.8606 2.25965L14.456 4.76246L13.7618 5.48228Z" fill="currentColor"/><path fill-rule="evenodd" clip-rule="evenodd" d="M8.9887 11.2774L10.9887 8.27736L10.1566 7.72266L8.15665 10.7227L8.9887 11.2774Z" fill="currentColor"/><path fill-rule="evenodd" clip-rule="evenodd" d="M12.9887 11.2774L14.9887 8.27736L14.1566 7.72266L12.1566 10.7227L12.9887 11.2774Z" fill="currentColor"/><path fill-rule="evenodd" clip-rule="evenodd" d="M4.9887 11.2774L6.9887 8.27736L6.15665 7.72266L4.15665 10.7227L4.9887 11.2774Z" fill="currentColor"/><path fill-rule="evenodd" clip-rule="evenodd" d="M1.57268 8C1.57268 7.72386 1.79654 7.5 2.07268 7.5L17.0727 7.5C17.3488 7.5 17.5727 7.72386 17.5727 8L17.5727 17C17.5727 17.2761 17.3488 17.5 17.0727 17.5L2.07268 17.5C1.79654 17.5 1.57268 17.2761 1.57268 17L1.57268 8ZM2.57268 8.5L2.57268 16.5L16.5727 16.5L16.5727 8.5L2.57268 8.5Z" fill="currentColor"/><path fill-rule="evenodd" clip-rule="evenodd" d="M17.5727 11.5L1.57268 11.5L1.57268 10.5L17.5727 10.5L17.5727 11.5Z" fill="currentColor"/></g><path d="M1.15063 1.87794C0.94979 1.6771 0.94979 1.35147 1.15063 1.15063C1.35147 0.949789 1.6771 0.949789 1.87794 1.15063L18.8494 18.1221C19.0502 18.3229 19.0502 18.6485 18.8494 18.8494C18.6485 19.0502 18.3229 19.0502 18.1221 18.8494L1.15063 1.87794Z" fill="currentColor"/></svg>