<svg width="20" height="20" viewBox="0 0 20 20" fill="none" xmlns="http://www.w3.org/2000/svg"><g opacity="0.2"><path fill-rule="evenodd" clip-rule="evenodd" d="M8 4.35106C8 3.88103 8.41441 3.5 8.92562 3.5H15.0744C15.5856 3.5 16 3.88103 16 4.35106V7.64894C16 8.11897 15.5856 8.5 15.0744 8.5H8.92562C8.41441 8.5 8 8.11897 8 7.64894V4.35106Z" fill="currentColor"/><path d="M6.46154 19H17.0385C17.5695 19 18 18.5523 18 18V6C18 5.44772 17.5695 5 17.0385 5H14.1538H9.34615H6.46154C5.9305 5 5.5 5.44772 5.5 6V18C5.5 18.5523 5.9305 19 6.46154 19Z" fill="currentColor"/></g><path fill-rule="evenodd" clip-rule="evenodd" d="M6.17499 2.5C6.17499 2.22386 6.39885 2 6.67499 2H13.3178C13.594 2 13.8178 2.22386 13.8178 2.5V6.375C13.8178 6.65114 13.594 6.875 13.3178 6.875H6.67499C6.39885 6.875 6.17499 6.65114 6.17499 6.375V2.5ZM7.17499 3V5.875H12.8178V3H7.17499Z" fill="currentColor"/><path d="M4.5 5L4.5 17H15.5V5H13.5V4H15.5C16.0523 4 16.5 4.44772 16.5 5V17C16.5 17.5523 16.0523 18 15.5 18H4.5C3.94772 18 3.5 17.5523 3.5 17V5C3.5 4.44772 3.94772 4 4.5 4H6.5V5H4.5Z" fill="currentColor"/></svg>