<svg style="" width="20" height="20" viewBox="0 0 20 20" fill="none" xmlns="http://www.w3.org/2000/svg">
<g opacity="0.8">
<path d="M14.75 5.23333H17C17.2761 5.23333 17.5 5.45719 17.5 5.73333V17C17.5 17.2761 17.2761 17.5 17 17.5H6C5.72386 17.5 5.5 17.2761 5.5 17V5.73333C5.5 5.45719 5.72386 5.23333 6 5.23333H8.25V4C8.25 3.72386 8.47386 3.5 8.75 3.5H14.25C14.5261 3.5 14.75 3.72386 14.75 4V5.23333Z" fill="currentColor"/>
</g>
<path fill-rule="evenodd" clip-rule="evenodd" d="M13 2.25H6C5.72386 2.25 5.5 2.47386 5.5 2.75V5.75C5.5 6.02614 5.72386 6.25 6 6.25H13C13.2761 6.25 13.5 6.02614 13.5 5.75V2.75C13.5 2.47386 13.2761 2.25 13 2.25ZM6.5 5.25V3.25H12.5V5.25H6.5Z" fill="black"/>
<path d="M14.5 4.5H12.9926V3.5H15C15.2761 3.5 15.5 3.72386 15.5 4V16C15.5 16.2761 15.2761 16.5 15 16.5H4C3.72386 16.5 3.5 16.2761 3.5 16V4C3.5 3.72386 3.72386 3.5 4 3.5H6.01025V4.5H4.5V15.5H14.5V4.5Z" fill="black"/>
</svg>
