<svg width="20" height="20" viewBox="0 0 20 20" fill="none" xmlns="http://www.w3.org/2000/svg"><g opacity="0.2"><path d="M18.75 11C18.75 14.866 15.616 18 11.75 18C7.88401 18 4.75 14.866 4.75 11C4.75 7.13401 7.88401 4 11.75 4C15.616 4 18.75 7.13401 18.75 11Z" fill="currentColor"/></g><path fill-rule="evenodd" clip-rule="evenodd" d="M10 16C13.3137 16 16 13.3137 16 10C16 6.68629 13.3137 4 10 4C6.68629 4 4 6.68629 4 10C4 13.3137 6.68629 16 10 16ZM10 17C13.866 17 17 13.866 17 10C17 6.13401 13.866 3 10 3C6.13401 3 3 6.13401 3 10C3 13.866 6.13401 17 10 17Z" fill="currentColor"/><path fill-rule="evenodd" clip-rule="evenodd" d="M10 6.5C10.2761 6.5 10.5 6.72386 10.5 7V10C10.5 10.2761 10.2761 10.5 10 10.5C9.72386 10.5 9.5 10.2761 9.5 10V7C9.5 6.72386 9.72386 6.5 10 6.5Z" fill="currentColor"/><path fill-rule="evenodd" clip-rule="evenodd" d="M13.5 10C13.5 10.2761 13.2761 10.5 13 10.5H10C9.72386 10.5 9.5 10.2761 9.5 10C9.5 9.72386 9.72386 9.5 10 9.5H13C13.2761 9.5 13.5 9.72386 13.5 10Z" fill="currentColor"/></svg>