<svg width="20" height="20" viewBox="0 0 26 26" fill="none" xmlns="http://www.w3.org/2000/svg"><path opacity="0.2" d="M26 14C26 20.6274 20.6274 26 14 26C7.37258 26 2 20.6274 2 14C2 7.37258 7.37258 2 14 2C20.6274 2 26 7.37258 26 14Z" fill="currentColor"/><g transform="translate(3, 3)"><path fill-rule="evenodd" clip-rule="evenodd" d="M11 3H10C8.13616 3 6.57006 4.27477 6.12602 6H6C3.79086 6 2 7.79086 2 10C2 12.2091 3.79086 14 6 14H14C16.2091 14 18 12.2091 18 10C18 8.09985 16.6751 6.50915 14.8987 6.10135C14.4909 4.32493 12.9002 3 11 3ZM6.90123 7L7.09445 6.24926C7.43255 4.93565 8.62326 4 10 4H11C12.4053 4 13.614 4.97458 13.924 6.32509L14.0642 6.9358L14.6749 7.07599C16.0254 7.38602 17 8.59467 17 10C17 11.6569 15.6569 13 14 13H6C4.34315 13 3 11.6569 3 10C3 8.34315 4.34315 7 6 7H6.90123Z" fill="currentColor"/><path d="M11 16.5C11 16.7761 10.7761 17 10.5 17C10.2239 17 10 16.7761 10 16.5V9C10 8.72386 10.2239 8.5 10.5 8.5C10.7761 8.5 11 8.72386 11 9V16.5Z" fill="currentColor"/><path d="M8.31237 11.3905C8.09674 11.563 7.78209 11.528 7.60958 11.3124C7.43708 11.0967 7.47204 10.7821 7.68767 10.6096L10.1877 8.60958C10.4033 8.43708 10.7179 8.47204 10.8905 8.68767C11.063 8.9033 11.028 9.21795 10.8124 9.39045L8.31237 11.3905Z" fill="currentColor"/><path d="M13.3124 10.6096C13.528 10.7821 13.563 11.0967 13.3905 11.3124C13.2179 11.528 12.9033 11.563 12.6877 11.3905L10.1877 9.39045C9.97204 9.21795 9.93708 8.9033 10.1096 8.68767C10.2821 8.47204 10.5967 8.43708 10.8124 8.60958L13.3124 10.6096Z" fill="currentColor"/></g><path fill-rule="evenodd" clip-rule="evenodd" d="M13 24.5C19.3513 24.5 24.5 19.3513 24.5 13C24.5 6.64873 19.3513 1.5 13 1.5C6.64873 1.5 1.5 6.64873 1.5 13C1.5 19.3513 6.64873 24.5 13 24.5ZM13 25.5C19.9036 25.5 25.5 19.9036 25.5 13C25.5 6.09644 19.9036 0.5 13 0.5C6.09644 0.5 0.5 6.09644 0.5 13C0.5 19.9036 6.09644 25.5 13 25.5Z" fill="currentColor"/></svg>