<svg width="20" height="20" viewBox="0 0 26 26" fill="none" xmlns="http://www.w3.org/2000/svg"><path opacity="0.2" fill-rule="evenodd" clip-rule="evenodd" d="M13.5 26C20.4036 26 26 20.4036 26 13.5C26 6.59644 20.4036 1 13.5 1C6.59644 1 1 6.59644 1 13.5C1 20.4036 6.59644 26 13.5 26ZM13.5 24C19.299 24 24 19.299 24 13.5C24 7.70101 19.299 3 13.5 3C7.70101 3 3 7.70101 3 13.5C3 19.299 7.70101 24 13.5 24Z" fill="currentColor"/><g transform="translate(3, 3)"><g opacity="0.2"><path fill-rule="evenodd" clip-rule="evenodd" d="M13 4H12C10.1362 4 8.57006 5.27477 8.12602 7H8C5.79086 7 4 8.79086 4 11C4 13.2091 5.79086 15 8 15H16C18.2091 15 20 13.2091 20 11C20 9.09985 18.6751 7.50915 16.8987 7.10135C16.4909 5.32493 14.9002 4 13 4Z" fill="currentColor"/></g><path fill-rule="evenodd" clip-rule="evenodd" d="M11 3H10C8.13616 3 6.57006 4.27477 6.12602 6H6C3.79086 6 2 7.79086 2 10C2 12.2091 3.79086 14 6 14H14C16.2091 14 18 12.2091 18 10C18 8.09985 16.6751 6.50915 14.8987 6.10135C14.4909 4.32493 12.9002 3 11 3ZM6.90123 7L7.09445 6.24926C7.43255 4.93565 8.62326 4 10 4H11C12.4053 4 13.614 4.97458 13.924 6.32509L14.0642 6.9358L14.6749 7.07599C16.0254 7.38602 17 8.59467 17 10C17 11.6569 15.6569 13 14 13H6C4.34315 13 3 11.6569 3 10C3 8.34315 4.34315 7 6 7H6.90123Z" fill="currentColor"/></g><path fill-rule="evenodd" clip-rule="evenodd" d="M13 24.5C19.3513 24.5 24.5 19.3513 24.5 13C24.5 6.64873 19.3513 1.5 13 1.5C6.64873 1.5 1.5 6.64873 1.5 13C1.5 19.3513 6.64873 24.5 13 24.5ZM13 25.5C19.9036 25.5 25.5 19.9036 25.5 13C25.5 6.09644 19.9036 0.5 13 0.5C6.09644 0.5 0.5 6.09644 0.5 13C0.5 19.9036 6.09644 25.5 13 25.5Z" fill="currentColor"/></svg>