<svg width="20" height="20" viewBox="0 0 20 20" fill="none" xmlns="http://www.w3.org/2000/svg">
<g opacity="0.8">
<path fill-rule="evenodd" clip-rule="evenodd" d="M13 4H12C10.1362 4 8.57006 5.27477 8.12602 7H8C5.79086 7 4 8.79086 4 11C4 13.2091 5.79086 15 8 15H16C18.2091 15 20 13.2091 20 11C20 9.09985 18.6751 7.50915 16.8987 7.10135C16.4909 5.32493 14.9002 4 13 4Z" fill="currentColor"/>
</g>
<path fill-rule="evenodd" clip-rule="evenodd" d="M10 3H9C7.13616 3 5.57006 4.27477 5.12602 6H5C2.79086 6 1 7.79086 1 10C1 12.2091 2.79086 14 5 14H13C15.2091 14 17 12.2091 17 10C17 8.09985 15.6751 6.50915 13.8987 6.10135C13.4909 4.32493 11.9002 3 10 3ZM5.90123 7L6.09445 6.24926C6.43255 4.93565 7.62326 4 9 4H10C11.4053 4 12.614 4.97458 12.924 6.32509L13.0642 6.9358L13.6749 7.07599C15.0254 7.38602 16 8.59467 16 10C16 11.6569 14.6569 13 13 13H5C3.34315 13 2 11.6569 2 10C2 8.34315 3.34315 7 5 7H5.90123Z" fill="black"/>
<path d="M10 16.5C10 16.7761 9.77614 17 9.5 17C9.22386 17 9 16.7761 9 16.5V9C9 8.72386 9.22386 8.5 9.5 8.5C9.77614 8.5 10 8.72386 10 9V16.5Z" fill="black"/>
<path d="M7.31234 11.3905C7.0967 11.563 6.78206 11.528 6.60955 11.3124C6.43705 11.0967 6.47201 10.7821 6.68764 10.6096L9.18764 8.60958C9.40327 8.43708 9.71792 8.47204 9.89042 8.68767C10.0629 8.9033 10.028 9.21795 9.81234 9.39045L7.31234 11.3905Z" fill="black"/>
<path d="M12.3123 10.6096C12.528 10.7821 12.5629 11.0967 12.3904 11.3124C12.2179 11.528 11.9033 11.563 11.6876 11.3905L9.18764 9.39045C8.97201 9.21795 8.93705 8.9033 9.10955 8.68767C9.28206 8.47204 9.5967 8.43708 9.81234 8.60958L12.3123 10.6096Z" fill="black"/>
</svg>
