<svg width="20" height="20" viewBox="0 0 26 26" fill="none" xmlns="http://www.w3.org/2000/svg"><path opacity="0.2" fill-rule="evenodd" clip-rule="evenodd" d="M13.5 26C20.4036 26 26 20.4036 26 13.5C26 6.59644 20.4036 1 13.5 1C6.59644 1 1 6.59644 1 13.5C1 20.4036 6.59644 26 13.5 26ZM13.5 24C19.299 24 24 19.299 24 13.5C24 7.70101 19.299 3 13.5 3C7.70101 3 3 7.70101 3 13.5C3 19.299 7.70101 24 13.5 24Z" fill="currentColor"/><g transform="translate(3, 3)"><g><g opacity="0.2"><path fill-rule="evenodd" clip-rule="evenodd" d="M12.75 18.0241V12.9271L18.8664 6.34023C19.1635 6.0203 18.9366 5.5 18.5 5.5H5.5C5.06342 5.5 4.83653 6.0203 5.1336 6.34023L11.25 12.9271V18.0241C9.1328 18.1626 7.5 18.8897 7.5 20H16.5C16.5 18.8897 14.8672 18.1626 12.75 18.0241Z" fill="currentColor"/></g><path d="M6 8C5.72386 8 5.5 7.77614 5.5 7.5C5.5 7.22386 5.72386 7 6 7H14C14.2761 7 14.5 7.22386 14.5 7.5C14.5 7.77614 14.2761 8 14 8H6Z" fill="currentColor"/><path fill-rule="evenodd" clip-rule="evenodd" d="M3.13361 5.34023L9.63361 12.3402C9.83142 12.5533 10.1686 12.5533 10.3664 12.3402L16.8664 5.34023C17.1635 5.0203 16.9366 4.5 16.5 4.5L3.5 4.5C3.06342 4.5 2.83653 5.0203 3.13361 5.34023ZM4.64661 5.5L15.3534 5.5L10 11.2652L4.64661 5.5Z" fill="currentColor"/><path d="M9.5 11.875H10.5L10.625 12V18L10.5 18.125H9.5L9.375 18V12L9.5 11.875Z" fill="currentColor"/><path d="M14.5 20H5.5C5.5 18.5251 7.55015 17.5 10 17.5C12.4499 17.5 14.5 18.5251 14.5 20Z" fill="currentColor"/><path d="M12.8787 1.56669C12.6108 1.49971 12.448 1.22825 12.5149 0.960348C12.5819 0.69245 12.8534 0.52957 13.1213 0.596544L17.1213 1.59654C17.3892 1.66352 17.552 1.93499 17.4851 2.20288C17.4181 2.47078 17.1466 2.63366 16.8787 2.56669L12.8787 1.56669Z" fill="currentColor"/><path d="M10.2031 9.74651C10.1086 10.006 9.82165 10.1398 9.56217 10.0453C9.3027 9.9508 9.16893 9.66387 9.26341 9.40439L12.356 0.910556C12.4505 0.651077 12.7374 0.517316 12.9969 0.611791C13.2563 0.706266 13.3901 0.993202 13.2956 1.25268L10.2031 9.74651Z" fill="currentColor"/></g></g><path fill-rule="evenodd" clip-rule="evenodd" d="M13 24.5C19.3513 24.5 24.5 19.3513 24.5 13C24.5 6.64873 19.3513 1.5 13 1.5C6.64873 1.5 1.5 6.64873 1.5 13C1.5 19.3513 6.64873 24.5 13 24.5ZM13 25.5C19.9036 25.5 25.5 19.9036 25.5 13C25.5 6.09644 19.9036 0.5 13 0.5C6.09644 0.5 0.5 6.09644 0.5 13C0.5 19.9036 6.09644 25.5 13 25.5Z" fill="currentColor"/></svg>