<svg width="20" height="20" viewBox="0 0 20 20" fill="none" xmlns="http://www.w3.org/2000/svg"><g opacity="0.2"><path fill-rule="evenodd" clip-rule="evenodd" d="M2.58997 10.331C2.95943 9.92053 3.59172 9.88726 4.00223 10.2567L7.33556 13.2567C7.74607 13.6262 7.77935 14.2585 7.40989 14.669C7.04043 15.0795 6.40814 15.1128 5.99763 14.7433L2.6643 11.7433C2.25379 11.3738 2.22051 10.7416 2.58997 10.331Z" fill="currentColor"/><path fill-rule="evenodd" clip-rule="evenodd" d="M7.40989 7.33104C7.77935 7.74155 7.74607 8.37384 7.33556 8.7433L4.00223 11.7433C3.59172 12.1128 2.95943 12.0795 2.58997 11.669C2.22051 11.2585 2.25379 10.6262 2.6643 10.2567L5.99763 7.25671C6.40814 6.88726 7.04043 6.92053 7.40989 7.33104Z" fill="currentColor"/><path fill-rule="evenodd" clip-rule="evenodd" d="M19.4099 10.331C19.7793 10.7416 19.7461 11.3738 19.3356 11.7433L16.0022 14.7433C15.5917 15.1128 14.9594 15.0795 14.59 14.669C14.2205 14.2585 14.2538 13.6262 14.6643 13.2567L17.9976 10.2567C18.4081 9.88726 19.0404 9.92053 19.4099 10.331Z" fill="currentColor"/><path fill-rule="evenodd" clip-rule="evenodd" d="M14.59 7.33104C14.9594 6.92053 15.5917 6.88726 16.0022 7.25671L19.3356 10.2567C19.7461 10.6262 19.7793 11.2585 19.4099 11.669C19.0404 12.0795 18.4081 12.1128 17.9976 11.7433L14.6643 8.7433C14.2538 8.37384 14.2205 7.74155 14.59 7.33104Z" fill="currentColor"/><path fill-rule="evenodd" clip-rule="evenodd" d="M12.763 4.53524C13.2958 4.68056 13.61 5.2303 13.4646 5.76312L10.4646 16.7631C10.3193 17.2959 9.76959 17.6101 9.23677 17.4648C8.70394 17.3195 8.38981 16.7697 8.53512 16.2369L11.5351 5.23689C11.6804 4.70406 12.2302 4.38993 12.763 4.53524Z" fill="currentColor"/></g><path fill-rule="evenodd" clip-rule="evenodd" d="M1.96173 9.66552C2.14646 9.46027 2.46261 9.44363 2.66786 9.62836L6.00119 12.6284C6.20645 12.8131 6.22309 13.1292 6.03836 13.3345C5.85363 13.5397 5.53748 13.5564 5.33223 13.3717L1.9989 10.3717C1.79364 10.1869 1.777 9.87078 1.96173 9.66552Z" fill="currentColor"/><path fill-rule="evenodd" clip-rule="evenodd" d="M6.03836 6.66552C6.22309 6.87078 6.20645 7.18692 6.00119 7.37165L2.66786 10.3717C2.46261 10.5564 2.14646 10.5397 1.96173 10.3345C1.777 10.1292 1.79364 9.81309 1.9989 9.62836L5.33223 6.62836C5.53748 6.44363 5.85363 6.46027 6.03836 6.66552Z" fill="currentColor"/><path fill-rule="evenodd" clip-rule="evenodd" d="M18.0384 9.66552C18.2231 9.87078 18.2064 10.1869 18.0012 10.3717L14.6679 13.3717C14.4626 13.5564 14.1465 13.5397 13.9617 13.3345C13.777 13.1292 13.7936 12.8131 13.9989 12.6284L17.3322 9.62836C17.5375 9.44363 17.8536 9.46027 18.0384 9.66552Z" fill="currentColor"/><path fill-rule="evenodd" clip-rule="evenodd" d="M13.9617 6.66552C14.1465 6.46027 14.4626 6.44363 14.6679 6.62836L18.0012 9.62836C18.2064 9.81309 18.2231 10.1292 18.0384 10.3345C17.8536 10.5397 17.5375 10.5564 17.3322 10.3717L13.9989 7.37165C13.7936 7.18692 13.777 6.87078 13.9617 6.66552Z" fill="currentColor"/><path fill-rule="evenodd" clip-rule="evenodd" d="M11.6316 4.01762C11.898 4.09028 12.055 4.36515 11.9824 4.63156L8.98239 15.6316C8.90973 15.898 8.63486 16.055 8.36844 15.9824C8.10203 15.9097 7.94496 15.6349 8.01762 15.3684L11.0176 4.36844C11.0903 4.10203 11.3651 3.94496 11.6316 4.01762Z" fill="currentColor"/></svg>