<svg width="20" height="20" viewBox="0 0 26 26" fill="none" xmlns="http://www.w3.org/2000/svg"><path opacity="0.2" d="M26 14C26 20.6274 20.6274 26 14 26C7.37258 26 2 20.6274 2 14C2 7.37258 7.37258 2 14 2C20.6274 2 26 7.37258 26 14Z" fill="currentColor"/><g transform="translate(3, 3)"><path fill-rule="evenodd" clip-rule="evenodd" d="M1.96173 9.66552C2.14646 9.46027 2.46261 9.44363 2.66786 9.62836L6.00119 12.6284C6.20645 12.8131 6.22309 13.1292 6.03836 13.3345C5.85363 13.5397 5.53748 13.5564 5.33223 13.3717L1.9989 10.3717C1.79364 10.1869 1.777 9.87078 1.96173 9.66552Z" fill="currentColor"/><path fill-rule="evenodd" clip-rule="evenodd" d="M6.03836 6.66552C6.22309 6.87078 6.20645 7.18692 6.00119 7.37165L2.66786 10.3717C2.46261 10.5564 2.14646 10.5397 1.96173 10.3345C1.777 10.1292 1.79364 9.81309 1.9989 9.62836L5.33223 6.62836C5.53748 6.44363 5.85363 6.46027 6.03836 6.66552Z" fill="currentColor"/><path fill-rule="evenodd" clip-rule="evenodd" d="M18.0384 9.66552C18.2231 9.87078 18.2064 10.1869 18.0012 10.3717L14.6679 13.3717C14.4626 13.5564 14.1465 13.5397 13.9617 13.3345C13.777 13.1292 13.7936 12.8131 13.9989 12.6284L17.3322 9.62836C17.5375 9.44363 17.8536 9.46027 18.0384 9.66552Z" fill="currentColor"/><path fill-rule="evenodd" clip-rule="evenodd" d="M13.9617 6.66552C14.1465 6.46027 14.4626 6.44363 14.6679 6.62836L18.0012 9.62836C18.2064 9.81309 18.2231 10.1292 18.0384 10.3345C17.8536 10.5397 17.5375 10.5564 17.3322 10.3717L13.9989 7.37165C13.7936 7.18692 13.777 6.87078 13.9617 6.66552Z" fill="currentColor"/><path fill-rule="evenodd" clip-rule="evenodd" d="M11.6316 4.01762C11.898 4.09028 12.055 4.36515 11.9824 4.63156L8.98239 15.6316C8.90973 15.898 8.63486 16.055 8.36844 15.9824C8.10203 15.9097 7.94496 15.6349 8.01762 15.3684L11.0176 4.36844C11.0903 4.10203 11.3651 3.94496 11.6316 4.01762Z" fill="currentColor"/></g><path fill-rule="evenodd" clip-rule="evenodd" d="M13 24.5C19.3513 24.5 24.5 19.3513 24.5 13C24.5 6.64873 19.3513 1.5 13 1.5C6.64873 1.5 1.5 6.64873 1.5 13C1.5 19.3513 6.64873 24.5 13 24.5ZM13 25.5C19.9036 25.5 25.5 19.9036 25.5 13C25.5 6.09644 19.9036 0.5 13 0.5C6.09644 0.5 0.5 6.09644 0.5 13C0.5 19.9036 6.09644 25.5 13 25.5Z" fill="currentColor"/></svg>