<svg width="20" height="20" viewBox="0 0 26 26" fill="none" xmlns="http://www.w3.org/2000/svg"><path opacity="0.2" fill-rule="evenodd" clip-rule="evenodd" d="M13.5 26C20.4036 26 26 20.4036 26 13.5C26 6.59644 20.4036 1 13.5 1C6.59644 1 1 6.59644 1 13.5C1 20.4036 6.59644 26 13.5 26ZM13.5 24C19.299 24 24 19.299 24 13.5C24 7.70101 19.299 3 13.5 3C7.70101 3 3 7.70101 3 13.5C3 19.299 7.70101 24 13.5 24Z" fill="currentColor"/><g transform="translate(3, 3)"><g opacity="0.2"><path d="M13 14.4444C16.0376 14.4444 18.5 13.4495 18.5 12.2222C18.5 10.9949 16.0376 10 13 10L7.5 12.2222C7.5 13.4495 9.96243 14.4444 13 14.4444Z" fill="currentColor"/><path fill-rule="evenodd" clip-rule="evenodd" d="M15.1952 12.2222C14.6739 12.1077 14.0575 12.0276 13.3741 12.0059L12.3353 12.4256C12.5498 12.4379 12.7717 12.4444 13 12.4444C13.8332 12.4444 14.5803 12.3574 15.1952 12.2222ZM9.03113 13.7607C8.47738 13.5275 8.04826 13.2457 7.78703 12.9326C7.60089 12.7096 7.5 12.4707 7.5 12.2222L13 10C16.0376 10 18.5 10.9949 18.5 12.2222C18.5 13.4495 16.0376 14.4444 13 14.4444C11.4402 14.4444 10.0321 14.1821 9.03113 13.7607Z" fill="currentColor"/><path d="M13 18.0001C16.0376 18.0001 18.5 17.0052 18.5 15.7779V12H7.5V15.7779C7.5 17.0052 9.96243 18.0001 13 18.0001Z" fill="currentColor"/><path fill-rule="evenodd" clip-rule="evenodd" d="M16.5 15.3238C16.4142 15.3727 16.2964 15.4316 16.1399 15.4948C15.4365 15.779 14.3274 16.0001 13 16.0001C11.6726 16.0001 10.5635 15.779 9.86015 15.4948C9.70359 15.4316 9.58579 15.3727 9.5 15.3238V14H16.5V15.3238ZM18.5 12V15.7779C18.5 17.0052 16.0376 18.0001 13 18.0001C9.96243 18.0001 7.5 17.0052 7.5 15.7779V12H18.5Z" fill="currentColor"/><path d="M13.5 6.22222C13.5 7.44952 11.0376 8.44444 8 8.44444C4.96243 8.44444 2.5 7.44952 2.5 6.22222C2.5 4.99492 4.96243 4 8 4C11.0376 4 13.5 4.99492 13.5 6.22222Z" fill="currentColor"/><path fill-rule="evenodd" clip-rule="evenodd" d="M10.1952 6.22222C9.58035 6.0871 8.83316 6 8 6C7.16684 6 6.41965 6.08709 5.80482 6.22222C6.41965 6.35735 7.16684 6.44444 8 6.44444C8.83316 6.44444 9.58035 6.35735 10.1952 6.22222ZM8 8.44444C11.0376 8.44444 13.5 7.44952 13.5 6.22222C13.5 4.99492 11.0376 4 8 4C4.96243 4 2.5 4.99492 2.5 6.22222C2.5 7.44952 4.96243 8.44444 8 8.44444Z" fill="currentColor"/><path d="M8 12.0001C11.0376 12.0001 13.5 11.0052 13.5 9.77786V6.5H2.5V9.77786C2.5 11.0052 4.96243 12.0001 8 12.0001Z" fill="currentColor"/><path fill-rule="evenodd" clip-rule="evenodd" d="M11.5 9.3238C11.4142 9.37272 11.2964 9.43159 11.1399 9.49485C10.4365 9.77902 9.32736 10.0001 8 10.0001C6.67264 10.0001 5.56347 9.77902 4.86015 9.49485C4.70359 9.43159 4.58579 9.37272 4.5 9.3238V8.5H11.5V9.3238ZM13.5 6.5V9.77786C13.5 11.0052 11.0376 12.0001 8 12.0001C4.96243 12.0001 2.5 11.0052 2.5 9.77786V6.5H13.5Z" fill="currentColor"/></g><path fill-rule="evenodd" clip-rule="evenodd" d="M15.7018 10.1145C14.7795 9.74181 13.4709 9.5 12 9.5V8.5C13.5666 8.5 15.0081 8.75565 16.0764 9.18728C16.6092 9.40257 17.0738 9.67149 17.4132 9.99568C17.7538 10.3211 18 10.7355 18 11.2222C18 11.7089 17.7538 12.1234 17.4132 12.4488C17.0738 12.773 16.6092 13.0419 16.0764 13.2572C15.0081 13.6888 13.5666 13.9444 12 13.9444C10.4334 13.9444 8.9919 13.6888 7.9236 13.2572C7.39077 13.0419 6.92623 12.773 6.58684 12.4488C6.24621 12.1234 6 11.7089 6 11.2222H7C7 11.3492 7.06159 11.5193 7.27759 11.7257C7.49484 11.9332 7.83575 12.1431 8.29822 12.33C9.22053 12.7026 10.5291 12.9444 12 12.9444C13.4709 12.9444 14.7795 12.7026 15.7018 12.33C16.1642 12.1431 16.5052 11.9332 16.7224 11.7257C16.9384 11.5193 17 11.3492 17 11.2222C17 11.0953 16.9384 10.9251 16.7224 10.7188C16.5052 10.5113 16.1642 10.3013 15.7018 10.1145Z" fill="currentColor"/><path fill-rule="evenodd" clip-rule="evenodd" d="M6.5 11.1667C6.77614 11.1667 7 11.3906 7 11.6667V14.7779C7 14.9048 7.06159 15.075 7.27759 15.2813C7.49484 15.4888 7.83575 15.6988 8.29822 15.8856C9.22053 16.2583 10.5291 16.5001 12 16.5001C13.4709 16.5001 14.7795 16.2583 15.7018 15.8856C16.1642 15.6988 16.5052 15.4888 16.7224 15.2813C16.9384 15.075 17 14.9048 17 14.7779V11.6667C17 11.3906 17.2239 11.1667 17.5 11.1667C17.7761 11.1667 18 11.3906 18 11.6667V14.7779C18 15.2646 17.7538 15.679 17.4132 16.0044C17.0738 16.3286 16.6092 16.5975 16.0764 16.8128C15.0081 17.2444 13.5666 17.5001 12 17.5001C10.4334 17.5001 8.9919 17.2444 7.9236 16.8128C7.39077 16.5975 6.92623 16.3286 6.58684 16.0044C6.24621 15.679 6 15.2646 6 14.7779V11.6667C6 11.3906 6.22386 11.1667 6.5 11.1667Z" fill="currentColor"/><path fill-rule="evenodd" clip-rule="evenodd" d="M8.7 16.7264V13H9.7V16.7264H8.7Z" fill="currentColor"/><path fill-rule="evenodd" clip-rule="evenodd" d="M13.1 16.5V13.5H14.1V16.5H13.1Z" fill="currentColor"/><path fill-rule="evenodd" clip-rule="evenodd" d="M2.27759 4.71878C2.06159 4.92512 2 5.09528 2 5.22222C2 5.34916 2.06159 5.51933 2.27759 5.72566C2.49484 5.93319 2.83575 6.14313 3.29822 6.32998C4.22053 6.70263 5.52907 6.94444 7 6.94444C8.47093 6.94444 9.77947 6.70263 10.7018 6.32998C11.1642 6.14313 11.5052 5.93319 11.7224 5.72566C11.9384 5.51933 12 5.34916 12 5.22222C12 5.09528 11.9384 4.92512 11.7224 4.71878C11.5052 4.51125 11.1642 4.30132 10.7018 4.11446C9.77947 3.74181 8.47093 3.5 7 3.5C5.52907 3.5 4.22053 3.74181 3.29822 4.11446C2.83575 4.30132 2.49484 4.51125 2.27759 4.71878ZM2.9236 3.18728C3.9919 2.75565 5.43336 2.5 7 2.5C8.56664 2.5 10.0081 2.75565 11.0764 3.18728C11.6092 3.40257 12.0738 3.67149 12.4132 3.99568C12.7538 4.32108 13 4.73551 13 5.22222C13 5.70893 12.7538 6.12337 12.4132 6.44876C12.0738 6.77296 11.6092 7.04187 11.0764 7.25716C10.0081 7.6888 8.56664 7.94444 7 7.94444C5.43336 7.94444 3.9919 7.6888 2.9236 7.25716C2.39077 7.04187 1.92623 6.77296 1.58684 6.44876C1.24621 6.12337 1 5.70893 1 5.22222C1 4.73551 1.24621 4.32108 1.58684 3.99568C1.92623 3.67149 2.39077 3.40257 2.9236 3.18728Z" fill="currentColor"/><path fill-rule="evenodd" clip-rule="evenodd" d="M1.5 5.16675C1.77614 5.16675 2 5.39061 2 5.66675V8.77786C2 8.9048 2.06159 9.07497 2.27759 9.2813C2.49484 9.48883 2.83575 9.69876 3.29822 9.88562C4.22053 10.2583 5.52907 10.5001 7 10.5001C8.47093 10.5001 9.77947 10.2583 10.7018 9.88562C11.1642 9.69876 11.5052 9.48883 11.7224 9.2813C11.9384 9.07497 12 8.9048 12 8.77786V5.66675C12 5.39061 12.2239 5.16675 12.5 5.16675C12.7761 5.16675 13 5.39061 13 5.66675V8.77786C13 9.26457 12.7538 9.67901 12.4132 10.0044C12.0738 10.3286 11.6092 10.5975 11.0764 10.8128C10.0081 11.2444 8.56664 11.5001 7 11.5001C5.43336 11.5001 3.9919 11.2444 2.9236 10.8128C2.39077 10.5975 1.92623 10.3286 1.58684 10.0044C1.24621 9.67901 1 9.26457 1 8.77786V5.66675C1 5.39061 1.22386 5.16675 1.5 5.16675Z" fill="currentColor"/><path fill-rule="evenodd" clip-rule="evenodd" d="M3.7 10.5V7.11316H4.7V10.5H3.7Z" fill="currentColor"/><path fill-rule="evenodd" clip-rule="evenodd" d="M8.10001 10.5V7.5H9.10001V10.5H8.10001Z" fill="currentColor"/><path d="M1.15063 1.87794C0.94979 1.6771 0.94979 1.35147 1.15063 1.15063C1.35147 0.949789 1.6771 0.949789 1.87794 1.15063L18.8494 18.1221C19.0502 18.3229 19.0502 18.6485 18.8494 18.8494C18.6485 19.0502 18.3229 19.0502 18.1221 18.8494L1.15063 1.87794Z" fill="currentColor"/></g><path fill-rule="evenodd" clip-rule="evenodd" d="M13 24.5C19.3513 24.5 24.5 19.3513 24.5 13C24.5 6.64873 19.3513 1.5 13 1.5C6.64873 1.5 1.5 6.64873 1.5 13C1.5 19.3513 6.64873 24.5 13 24.5ZM13 25.5C19.9036 25.5 25.5 19.9036 25.5 13C25.5 6.09644 19.9036 0.5 13 0.5C6.09644 0.5 0.5 6.09644 0.5 13C0.5 19.9036 6.09644 25.5 13 25.5Z" fill="currentColor"/></svg>