<svg width="20" height="20" viewBox="0 0 20 20" fill="none" xmlns="http://www.w3.org/2000/svg"><path opacity="0.2" d="M17.9277 3.76777C18.904 4.74409 18.7457 6.48529 17.5741 7.65686L8.5993 16.6317C8.50258 16.7284 8.39036 16.8076 8.26957 16.8642C7.89322 17.0409 7.50717 17.2555 6.59242 17.7851C6.13998 18.047 5.94028 18.1616 5.69635 18.2979C4.0227 19.2327 3.40315 19.4773 2.81066 18.8848C2.21914 18.2933 2.46327 17.6732 3.39241 16.0084C3.52989 15.762 3.64568 15.5603 3.91037 15.103C4.43991 14.1883 4.65454 13.8022 4.8312 13.4259C4.88789 13.3051 4.96705 13.1929 5.06377 13.0961L14.0386 4.12133C15.2102 2.94976 16.9514 2.79146 17.9277 3.76777Z" fill="currentColor"/><path fill-rule="evenodd" clip-rule="evenodd" d="M16.3241 6.71747C17.3004 5.74116 17.3004 4.15825 16.3241 3.18194C15.3478 2.20563 13.7649 2.20563 12.7886 3.18194L3.81377 12.1568L3.70234 12.3265C3.5371 12.7444 3.33627 13.1544 2.83666 14.1244C1.58211 16.56 1.38155 17.0592 1.91421 17.5918C2.44688 18.1245 2.94604 17.9239 5.38167 16.6694C6.35163 16.1698 6.76162 15.969 7.17958 15.8037L7.3493 15.6923L16.3241 6.71747ZM15.617 3.88905C16.2028 4.47483 16.2028 5.42458 15.617 6.01037L6.71449 14.9129C6.28793 15.087 5.85619 15.3001 4.92376 15.7804C3.97451 16.2693 3.57256 16.4667 3.15836 16.6331C2.98657 16.7021 2.84067 16.7521 2.72339 16.7827C2.75395 16.6654 2.80392 16.5195 2.87295 16.3477C3.03937 15.9335 3.23672 15.5315 3.72566 14.5823C4.20594 13.6499 4.41909 13.2181 4.59317 12.7916L13.4957 3.88905C14.0815 3.30326 15.0312 3.30326 15.617 3.88905Z" fill="currentColor"/><path d="M9.85103 3.82413C9.65577 3.62887 9.65577 3.31229 9.85103 3.11703C10.0463 2.92177 10.3629 2.92177 10.5581 3.11703L16.215 8.77388C16.4103 8.96914 16.4103 9.28573 16.215 9.48099C16.0197 9.67625 15.7031 9.67625 15.5079 9.48099L9.85103 3.82413Z" fill="currentColor"/></svg>