<svg width="20" height="20" viewBox="0 0 20 20" fill="none" xmlns="http://www.w3.org/2000/svg"><g><g opacity="0.2"><path d="M10.6955 4.1169L3.61652 9.95334C1.49254 11.7045 1.21813 14.8574 3.00763 16.9492C4.79147 19.0344 7.93616 19.2577 9.99675 17.4455L17.5588 10.7951C17.9259 10.4722 17.6592 9.8687 17.1734 9.92268L15.2637 10.1349C14.8506 10.1808 14.5651 9.73187 14.7818 9.37721L18.172 3.82957C18.4669 3.34699 17.8598 2.82267 17.4253 3.18473L11.8085 7.86545C11.4495 8.16459 10.9129 7.85164 10.9964 7.39189L11.5055 4.59212C11.5888 4.13366 11.055 3.82047 10.6955 4.1169Z" fill="currentColor"/><path fill-rule="evenodd" clip-rule="evenodd" d="M9.04877 8.06669L4.88881 11.4965C3.62806 12.5359 3.46518 14.4074 4.52738 15.6491C5.58623 16.8868 7.45284 17.0193 8.67596 15.9436L13.6339 11.5834C13.0669 11.1192 12.7144 10.415 12.7032 9.6701C11.2384 10.5045 9.40995 9.6141 9.04877 8.06669ZM3.61652 9.95334C1.49254 11.7045 1.21813 14.8574 3.00763 16.9492C4.79147 19.0344 7.93616 19.2577 9.99675 17.4455L17.5588 10.7951C17.9259 10.4722 17.6592 9.8687 17.1734 9.92268L15.2637 10.1349C14.8506 10.1808 14.5651 9.73187 14.7818 9.37721L18.172 3.82957C18.4669 3.34699 17.8598 2.82267 17.4253 3.18473L11.8085 7.86545C11.4495 8.16459 10.9129 7.85164 10.9964 7.39189L11.5055 4.59212C11.5888 4.13366 11.055 3.82047 10.6955 4.1169L3.61652 9.95334Z" fill="currentColor"/></g><path fill-rule="evenodd" clip-rule="evenodd" d="M5.65992 13.4179C6.19845 14.0474 7.14533 14.1211 7.77483 13.5826C8.40433 13.0441 8.47808 12.0972 7.93955 11.4677C7.40101 10.8382 6.45413 10.7644 5.82463 11.303C5.19513 11.8415 5.12138 12.7884 5.65992 13.4179ZM8.4249 14.3425C7.37573 15.24 5.79759 15.1171 4.90004 14.068C4.00248 13.0188 4.12539 11.4407 5.17456 10.5431C6.22373 9.64554 7.80187 9.76845 8.69942 10.8176C9.59698 11.8668 9.47407 13.4449 8.4249 14.3425Z" fill="currentColor"/><path fill-rule="evenodd" clip-rule="evenodd" d="M10.327 16.5734C8.05702 18.5697 4.59282 18.3237 2.62772 16.0267C0.656399 13.7224 0.958696 10.2491 3.29848 8.32004L10.3774 2.4836C11.0965 1.89074 12.1642 2.51712 11.9975 3.43405L11.4884 6.23382L17.1052 1.55311C17.9742 0.829 19.1885 1.87762 18.5987 2.84278L15.2085 8.39042L17.1182 8.17823C18.0899 8.07025 18.6232 9.27734 17.889 9.92303L10.327 16.5734ZM3.3876 15.3766C4.9902 17.2499 7.81536 17.4506 9.66659 15.8225L17.2286 9.17211L15.3189 9.3843C14.4927 9.4761 13.9217 8.5783 14.3552 7.86897L17.7454 2.32133L12.1286 7.00204C11.4106 7.60034 10.3374 6.97443 10.5045 6.05494L11.0136 3.25517L3.93462 9.09161C2.02646 10.6649 1.77992 13.4974 3.3876 15.3766Z" fill="currentColor"/></g></svg>