<svg width="20" height="20" viewBox="0 0 20 20" fill="none" xmlns="http://www.w3.org/2000/svg"><g opacity="0.2"><path d="M13 5.5H17C17.2761 5.5 17.5 5.72386 17.5 6V10C17.5 10.2761 17.2761 10.5 17 10.5H13C12.7239 10.5 12.5 10.2761 12.5 10V6C12.5 5.72386 12.7239 5.5 13 5.5Z" fill="currentColor"/><path d="M7 11H11C11.5523 11 12 11.4477 12 12V16C12 16.5523 11.5523 17 11 17H7C6.44772 17 6 16.5523 6 16V12C6 11.4477 6.44772 11 7 11Z" fill="currentColor"/></g><path d="M5.35355 15.3536C5.15829 15.5488 4.84171 15.5488 4.64645 15.3536C4.45118 15.1583 4.45118 14.8417 4.64645 14.6464L8.64645 10.6464C8.84171 10.4512 9.15829 10.4512 9.35355 10.6464C9.54882 10.8417 9.54882 11.1583 9.35355 11.3536L5.35355 15.3536Z" fill="currentColor"/><path d="M9.5 15C9.5 15.2761 9.27614 15.5 9 15.5C8.72386 15.5 8.5 15.2761 8.5 15V11C8.5 10.7239 8.72386 10.5 9 10.5C9.27614 10.5 9.5 10.7239 9.5 11V15Z" fill="currentColor"/><path d="M5 11.5C4.72386 11.5 4.5 11.2761 4.5 11C4.5 10.7239 4.72386 10.5 5 10.5H9C9.27614 10.5 9.5 10.7239 9.5 11C9.5 11.2761 9.27614 11.5 9 11.5H5Z" fill="currentColor"/><path d="M11.3536 9.35355C11.1583 9.54882 10.8417 9.54882 10.6464 9.35355C10.4512 9.15829 10.4512 8.84171 10.6464 8.64645L14.6464 4.64645C14.8417 4.45118 15.1583 4.45118 15.3536 4.64645C15.5488 4.84171 15.5488 5.15829 15.3536 5.35355L11.3536 9.35355Z" fill="currentColor"/><path d="M11 9.5C10.7239 9.5 10.5 9.27614 10.5 9C10.5 8.72386 10.7239 8.5 11 8.5H15C15.2761 8.5 15.5 8.72386 15.5 9C15.5 9.27614 15.2761 9.5 15 9.5H11Z" fill="currentColor"/><path d="M11.5 9C11.5 9.27614 11.2761 9.5 11 9.5C10.7239 9.5 10.5 9.27614 10.5 9V5C10.5 4.72386 10.7239 4.5 11 4.5C11.2761 4.5 11.5 4.72386 11.5 5V9Z" fill="currentColor"/></svg>