<svg width="20" height="20" viewBox="0 0 20 20" fill="none" xmlns="http://www.w3.org/2000/svg"><g opacity="0.2"><path d="M5.5 6H17.5C18.8807 6 20 7.11929 20 8.5V15.5C20 16.8807 18.8807 18 17.5 18H5.5C4.11929 18 3 16.8807 3 15.5V8.5C3 7.11929 4.11929 6 5.5 6Z" fill="currentColor"/></g><path fill-rule="evenodd" clip-rule="evenodd" d="M16 4H4C2.61929 4 1.5 5.11929 1.5 6.5V13.5C1.5 14.8807 2.61929 16 4 16H16C17.3807 16 18.5 14.8807 18.5 13.5V6.5C18.5 5.11929 17.3807 4 16 4ZM2.5 6.5C2.5 5.67157 3.17157 5 4 5H16C16.8284 5 17.5 5.67157 17.5 6.5V13.5C17.5 14.3284 16.8284 15 16 15H4C3.17157 15 2.5 14.3284 2.5 13.5V6.5Z" fill="currentColor"/><path fill-rule="evenodd" clip-rule="evenodd" d="M2.5 6.5H17.5C17.7761 6.5 18 6.72386 18 7V8C18 8.27614 17.7761 8.5 17.5 8.5H2.5C2.22386 8.5 2 8.27614 2 8V7C2 6.72386 2.22386 6.5 2.5 6.5Z" fill="currentColor"/><path fill-rule="evenodd" clip-rule="evenodd" d="M6 9.5H5C4.44772 9.5 4 9.94772 4 10.5V11.5C4 12.0523 4.44772 12.5 5 12.5H6C6.55228 12.5 7 12.0523 7 11.5V10.5C7 9.94772 6.55228 9.5 6 9.5ZM5 11.5V10.5H6V11.5H5Z" fill="currentColor"/></svg>