<svg width="20" height="20" viewBox="0 0 26 26" fill="none" xmlns="http://www.w3.org/2000/svg"><path opacity="0.2" d="M26 14C26 20.6274 20.6274 26 14 26C7.37258 26 2 20.6274 2 14C2 7.37258 7.37258 2 14 2C20.6274 2 26 7.37258 26 14Z" fill="currentColor"/><g transform="translate(3, 3)"><path fill-rule="evenodd" clip-rule="evenodd" d="M16 4H4C2.61929 4 1.5 5.11929 1.5 6.5V13.5C1.5 14.8807 2.61929 16 4 16H16C17.3807 16 18.5 14.8807 18.5 13.5V6.5C18.5 5.11929 17.3807 4 16 4ZM2.5 6.5C2.5 5.67157 3.17157 5 4 5H16C16.8284 5 17.5 5.67157 17.5 6.5V13.5C17.5 14.3284 16.8284 15 16 15H4C3.17157 15 2.5 14.3284 2.5 13.5V6.5Z" fill="currentColor"/><path fill-rule="evenodd" clip-rule="evenodd" d="M2.5 6.5H17.5C17.7761 6.5 18 6.72386 18 7V8C18 8.27614 17.7761 8.5 17.5 8.5H2.5C2.22386 8.5 2 8.27614 2 8V7C2 6.72386 2.22386 6.5 2.5 6.5Z" fill="currentColor"/><path fill-rule="evenodd" clip-rule="evenodd" d="M6 9.5H5C4.44772 9.5 4 9.94772 4 10.5V11.5C4 12.0523 4.44772 12.5 5 12.5H6C6.55228 12.5 7 12.0523 7 11.5V10.5C7 9.94772 6.55228 9.5 6 9.5ZM5 11.5V10.5H6V11.5H5Z" fill="currentColor"/></g><path fill-rule="evenodd" clip-rule="evenodd" d="M13 24.5C19.3513 24.5 24.5 19.3513 24.5 13C24.5 6.64873 19.3513 1.5 13 1.5C6.64873 1.5 1.5 6.64873 1.5 13C1.5 19.3513 6.64873 24.5 13 24.5ZM13 25.5C19.9036 25.5 25.5 19.9036 25.5 13C25.5 6.09644 19.9036 0.5 13 0.5C6.09644 0.5 0.5 6.09644 0.5 13C0.5 19.9036 6.09644 25.5 13 25.5Z" fill="currentColor"/></svg>