<svg width="20" height="20" viewBox="0 0 26 26" fill="none" xmlns="http://www.w3.org/2000/svg"><path opacity="0.2" fill-rule="evenodd" clip-rule="evenodd" d="M13.5 26C20.4036 26 26 20.4036 26 13.5C26 6.59644 20.4036 1 13.5 1C6.59644 1 1 6.59644 1 13.5C1 20.4036 6.59644 26 13.5 26ZM13.5 24C19.299 24 24 19.299 24 13.5C24 7.70101 19.299 3 13.5 3C7.70101 3 3 7.70101 3 13.5C3 19.299 7.70101 24 13.5 24Z" fill="currentColor"/><g transform="translate(3, 3)"><g opacity="0.2"><path d="M5.5 16H16.5C17.0523 16 17.5 16.4477 17.5 17C17.5 17.5523 17.0523 18 16.5 18H5.5C4.94772 18 4.5 17.5523 4.5 17C4.5 16.4477 4.94772 16 5.5 16Z" fill="currentColor"/><path d="M17.4778 7.20915C18.6708 7.59201 19.5 8.46066 19.5 9.5C19.5 10.9284 17.9501 12 16.1073 12C16.0589 12 16.0107 11.9993 15.9627 11.9978C14.7459 13.8773 12.9524 15 11 15C7.37379 15 4.5 11.1683 4.5 6.5C4.5 6.22386 4.72386 6 5 6H17C17.2761 6 17.5 6.22386 17.5 6.5C17.5 6.7377 17.4926 6.97422 17.4778 7.20915Z" fill="currentColor"/></g><path fill-rule="evenodd" clip-rule="evenodd" d="M15 4.5H3C2.72386 4.5 2.5 4.72386 2.5 5C2.5 9.66828 5.37379 13.5 9 13.5C12.6262 13.5 15.5 9.66828 15.5 5C15.5 4.72386 15.2761 4.5 15 4.5ZM14.4879 5.5C14.2977 9.43156 11.8802 12.5 9 12.5C6.11981 12.5 3.70234 9.43156 3.51206 5.5H14.4879Z" fill="currentColor"/><path d="M13.8622 10.3289L14.1378 9.36761C14.4407 9.45444 14.7687 9.5 15.1073 9.5C16.4597 9.5 17.5 8.78072 17.5 8C17.5 7.21928 16.4597 6.5 15.1073 6.5V5.5C16.9501 5.5 18.5 6.57158 18.5 8C18.5 9.42842 16.9501 10.5 15.1073 10.5C14.676 10.5 14.2552 10.4416 13.8622 10.3289Z" fill="currentColor"/><path d="M3.5 14.75H14.5C14.9142 14.75 15.25 15.0858 15.25 15.5C15.25 15.9142 14.9142 16.25 14.5 16.25H3.5C3.08579 16.25 2.75 15.9142 2.75 15.5C2.75 15.0858 3.08579 14.75 3.5 14.75Z" fill="currentColor"/></g><path fill-rule="evenodd" clip-rule="evenodd" d="M13 24.5C19.3513 24.5 24.5 19.3513 24.5 13C24.5 6.64873 19.3513 1.5 13 1.5C6.64873 1.5 1.5 6.64873 1.5 13C1.5 19.3513 6.64873 24.5 13 24.5ZM13 25.5C19.9036 25.5 25.5 19.9036 25.5 13C25.5 6.09644 19.9036 0.5 13 0.5C6.09644 0.5 0.5 6.09644 0.5 13C0.5 19.9036 6.09644 25.5 13 25.5Z" fill="currentColor"/></svg>