<svg width="20" height="20" viewBox="0 0 26 26" fill="none" xmlns="http://www.w3.org/2000/svg"><path opacity="0.2" fill-rule="evenodd" clip-rule="evenodd" d="M13.5 26C20.4036 26 26 20.4036 26 13.5C26 6.59644 20.4036 1 13.5 1C6.59644 1 1 6.59644 1 13.5C1 20.4036 6.59644 26 13.5 26ZM13.5 24C19.299 24 24 19.299 24 13.5C24 7.70101 19.299 3 13.5 3C7.70101 3 3 7.70101 3 13.5C3 19.299 7.70101 24 13.5 24Z" fill="currentColor"/><g transform="translate(3, 3)"><g opacity="0.2"><path d="M6.5 2L13.1854 2C13.6056 2 14.0065 2.17624 14.2906 2.48582L18.6052 7.18761C18.8591 7.46433 19 7.82623 19 8.20179V18.5C19 19.3284 18.3284 20 17.5 20H6.5C5.67157 20 5 19.3284 5 18.5V3.5C5 2.67157 5.67157 2 6.5 2Z" fill="currentColor"/></g><path d="M6.5 12.5C6.22386 12.5 6 12.2761 6 12C6 11.7239 6.22386 11.5 6.5 11.5H13.5C13.7761 11.5 14 11.7239 14 12C14 12.2761 13.7761 12.5 13.5 12.5H6.5Z" fill="currentColor"/><path d="M6.5 15C6.22386 15 6 14.7761 6 14.5C6 14.2239 6.22386 14 6.5 14H13.5C13.7761 14 14 14.2239 14 14.5C14 14.7761 13.7761 15 13.5 15H6.5Z" fill="currentColor"/><path fill-rule="evenodd" clip-rule="evenodd" d="M11.1854 1H4.5C3.67157 1 3 1.67157 3 2.5V17.5C3 18.3284 3.67157 19 4.5 19H15.5C16.3284 19 17 18.3284 17 17.5V7.20179C17 6.82623 16.8591 6.46433 16.6052 6.18761L12.2906 1.48582C12.0065 1.17624 11.6056 1 11.1854 1ZM4 2.5C4 2.22386 4.22386 2 4.5 2H11.1854C11.3255 2 11.4591 2.05875 11.5538 2.16194L15.8684 6.86373C15.953 6.95597 16 7.0766 16 7.20179V17.5C16 17.7761 15.7761 18 15.5 18H4.5C4.22386 18 4 17.7761 4 17.5V2.5Z" fill="currentColor"/><path d="M11.5 2.09998V6.79998H16.2" stroke="currentColor" stroke-linecap="round" stroke-linejoin="round"/><path d="M8.13421 6.13317C8.72327 6.13317 9.2008 5.65565 9.2008 5.06659C9.2008 4.47753 8.72327 4 8.13421 4C7.54515 4 7.06763 4.47753 7.06763 5.06659C7.06763 5.65565 7.54515 6.13317 8.13421 6.13317Z" fill="currentColor"/><path fill-rule="evenodd" clip-rule="evenodd" d="M10.2663 8.4443C10.2663 7.30981 9.3114 6.48889 8.13317 6.48889C6.95495 6.48889 6 7.30981 6 8.4443L6.00071 8.9776C6.00071 9.07189 6.03817 9.16232 6.10484 9.22899C6.17152 9.29567 6.26195 9.33312 6.35624 9.33312H9.91082C10.0051 9.33312 10.0955 9.29567 10.1622 9.22899C10.2289 9.16232 10.2663 9.07189 10.2663 8.9776V8.4443Z" fill="currentColor"/><path d="M1.15063 1.87794C0.94979 1.6771 0.94979 1.35147 1.15063 1.15063C1.35147 0.949789 1.6771 0.949789 1.87794 1.15063L18.8494 18.1221C19.0502 18.3229 19.0502 18.6485 18.8494 18.8494C18.6485 19.0502 18.3229 19.0502 18.1221 18.8494L1.15063 1.87794Z" fill="currentColor"/></g><path fill-rule="evenodd" clip-rule="evenodd" d="M13 24.5C19.3513 24.5 24.5 19.3513 24.5 13C24.5 6.64873 19.3513 1.5 13 1.5C6.64873 1.5 1.5 6.64873 1.5 13C1.5 19.3513 6.64873 24.5 13 24.5ZM13 25.5C19.9036 25.5 25.5 19.9036 25.5 13C25.5 6.09644 19.9036 0.5 13 0.5C6.09644 0.5 0.5 6.09644 0.5 13C0.5 19.9036 6.09644 25.5 13 25.5Z" fill="currentColor"/></svg>