<svg width="20" height="20" viewBox="0 0 20 20" fill="none" xmlns="http://www.w3.org/2000/svg"><g opacity="0.2"><path d="M6.5 12.5C5.67157 12.5 5 11.8284 5 11C5 10.1716 5.67157 9.5 6.5 9.5H16.5C17.3284 9.5 18 10.1716 18 11C18 11.8284 17.3284 12.5 16.5 12.5H6.5Z" fill="currentColor"/><circle cx="11" cy="7" r="2" fill="currentColor"/><circle cx="11" cy="15" r="2" fill="currentColor"/></g><path d="M5 10.5C4.72386 10.5 4.5 10.2761 4.5 10C4.5 9.72386 4.72386 9.5 5 9.5H15C15.2761 9.5 15.5 9.72386 15.5 10C15.5 10.2761 15.2761 10.5 15 10.5H5Z" fill="currentColor"/><path fill-rule="evenodd" clip-rule="evenodd" d="M8.5 6C8.5 6.82843 9.17157 7.5 10 7.5C10.8284 7.5 11.5 6.82843 11.5 6C11.5 5.17157 10.8284 4.5 10 4.5C9.17157 4.5 8.5 5.17157 8.5 6ZM10.5 6C10.5 6.27614 10.2761 6.5 10 6.5C9.72386 6.5 9.5 6.27614 9.5 6C9.5 5.72386 9.72386 5.5 10 5.5C10.2761 5.5 10.5 5.72386 10.5 6Z" fill="currentColor"/><path fill-rule="evenodd" clip-rule="evenodd" d="M8.5 14C8.5 14.8284 9.17157 15.5 10 15.5C10.8284 15.5 11.5 14.8284 11.5 14C11.5 13.1716 10.8284 12.5 10 12.5C9.17157 12.5 8.5 13.1716 8.5 14ZM10.5 14C10.5 14.2761 10.2761 14.5 10 14.5C9.72386 14.5 9.5 14.2761 9.5 14C9.5 13.7239 9.72386 13.5 10 13.5C10.2761 13.5 10.5 13.7239 10.5 14Z" fill="currentColor"/></svg>