<svg width="20" height="20" viewBox="0 0 26 26" fill="none" xmlns="http://www.w3.org/2000/svg"><path opacity="0.2" fill-rule="evenodd" clip-rule="evenodd" d="M13.5 26C20.4036 26 26 20.4036 26 13.5C26 6.59644 20.4036 1 13.5 1C6.59644 1 1 6.59644 1 13.5C1 20.4036 6.59644 26 13.5 26ZM13.5 24C19.299 24 24 19.299 24 13.5C24 7.70101 19.299 3 13.5 3C7.70101 3 3 7.70101 3 13.5C3 19.299 7.70101 24 13.5 24Z" fill="currentColor"/><g transform="translate(3, 3)"><g opacity="0.2"><path fill-rule="evenodd" clip-rule="evenodd" d="M8.39711 5.69939C7.84562 6.11301 7.59793 6.60808 7.59793 7.0707C7.59793 7.53332 7.84562 8.02839 8.39711 8.44201C8.94891 8.85586 9.75704 9.1414 10.6922 9.1414C11.2445 9.1414 11.6922 9.58911 11.6922 10.1414C11.6922 10.6937 11.2445 11.1414 10.6922 11.1414C9.36615 11.1414 8.12715 10.7395 7.19711 10.042C6.26677 9.34426 5.59793 8.30398 5.59793 7.0707C5.59793 5.83742 6.26677 4.79714 7.19711 4.09939C8.12715 3.40186 9.36615 3 10.6922 3C12.7448 3 14.6862 3.98306 15.4581 5.62083C15.6935 6.12042 15.4794 6.71628 14.9798 6.95172C14.4802 7.18715 13.8843 6.97302 13.6489 6.47343C13.2966 5.72591 12.205 5 10.6922 5C9.75704 5 8.94891 5.28554 8.39711 5.69939Z" fill="currentColor"/><path fill-rule="evenodd" clip-rule="evenodd" d="M12.6566 14.5834C13.2081 14.1698 13.4558 13.6748 13.4558 13.2121C13.4558 12.7495 13.2081 12.2544 12.6566 11.8408C12.1048 11.427 11.2967 11.1414 10.3615 11.1414C9.80925 11.1414 9.36154 10.6937 9.36154 10.1414C9.36154 9.58915 9.80925 9.14144 10.3615 9.14144C11.6876 9.14144 12.9266 9.5433 13.8566 10.2408C14.787 10.9386 15.4558 11.9789 15.4558 13.2121C15.4558 14.4454 14.787 15.4857 13.8566 16.1834C12.9266 16.881 11.6876 17.2828 10.3615 17.2828C8.30896 17.2828 6.36749 16.2998 5.59566 14.662C5.36022 14.1624 5.57436 13.5666 6.07394 13.3311C6.57353 13.0957 7.16939 13.3098 7.40483 13.8094C7.75711 14.5569 8.84877 15.2828 10.3615 15.2828C11.2967 15.2828 12.1048 14.9973 12.6566 14.5834Z" fill="currentColor"/><path fill-rule="evenodd" clip-rule="evenodd" d="M10.5 1C11.0523 1 11.5 1.44772 11.5 2V3C11.5 3.55228 11.0523 4 10.5 4C9.94772 4 9.50001 3.55228 9.50001 3V2C9.50001 1.44772 9.94772 1 10.5 1Z" fill="currentColor"/><path fill-rule="evenodd" clip-rule="evenodd" d="M10.5 16C11.0523 16 11.5 16.4477 11.5 17V18C11.5 18.5523 11.0523 19 10.5 19C9.94772 19 9.50001 18.5523 9.50001 18V17C9.50001 16.4477 9.94772 16 10.5 16Z" fill="currentColor"/></g><path fill-rule="evenodd" clip-rule="evenodd" d="M7.09711 5.29939C6.4509 5.78404 6.09792 6.41541 6.09792 7.0707C6.09792 7.72599 6.4509 8.35736 7.09711 8.84201C7.74346 9.32678 8.65931 9.6414 9.69219 9.6414C9.96833 9.6414 10.1922 9.86526 10.1922 10.1414C10.1922 10.4175 9.96833 10.6414 9.69219 10.6414C8.46386 10.6414 7.33258 10.2686 6.49711 9.64201C5.66148 9.01529 5.09792 8.11131 5.09792 7.0707C5.09792 6.03009 5.66148 5.12611 6.49711 4.49939C7.33258 3.87278 8.46386 3.5 9.69219 3.5C11.6098 3.5 13.3388 4.41877 14.0058 5.83398C14.1235 6.08378 14.0164 6.38171 13.7666 6.49942C13.5168 6.61714 13.2189 6.51008 13.1012 6.26028C12.644 5.29019 11.3399 4.5 9.69219 4.5C8.65931 4.5 7.74346 4.81462 7.09711 5.29939Z" fill="currentColor"/><path fill-rule="evenodd" clip-rule="evenodd" d="M11.9566 14.9834C12.6028 14.4988 12.9558 13.8674 12.9558 13.2121C12.9558 12.5569 12.6028 11.9255 11.9566 11.4408C11.3103 10.9561 10.3944 10.6414 9.36154 10.6414C9.08539 10.6414 8.86154 10.4176 8.86154 10.1414C8.86154 9.86529 9.08539 9.64144 9.36154 9.64144C10.5899 9.64144 11.7211 10.0142 12.5566 10.6408C13.3922 11.2675 13.9558 12.1715 13.9558 13.2121C13.9558 14.2528 13.3922 15.1567 12.5566 15.7834C11.7211 16.4101 10.5899 16.7828 9.36154 16.7828C7.44392 16.7828 5.71489 15.8641 5.04795 14.4489C4.93023 14.1991 5.0373 13.9011 5.28709 13.7834C5.53689 13.6657 5.83482 13.7728 5.95253 14.0226C6.4097 14.9926 7.71382 15.7828 9.36154 15.7828C10.3944 15.7828 11.3103 15.4682 11.9566 14.9834Z" fill="currentColor"/><path fill-rule="evenodd" clip-rule="evenodd" d="M9 1C9.27614 1 9.5 1.22386 9.5 1.5V3.5C9.5 3.77614 9.27614 4 9 4C8.72386 4 8.5 3.77614 8.5 3.5V1.5C8.5 1.22386 8.72386 1 9 1Z" fill="currentColor"/><path fill-rule="evenodd" clip-rule="evenodd" d="M9 16C9.27614 16 9.5 16.2239 9.5 16.5V18.5C9.5 18.7761 9.27614 19 9 19C8.72386 19 8.5 18.7761 8.5 18.5V16.5C8.5 16.2239 8.72386 16 9 16Z" fill="currentColor"/><path d="M1.15063 1.87794C0.94979 1.6771 0.94979 1.35147 1.15063 1.15063C1.35147 0.949789 1.6771 0.949789 1.87794 1.15063L18.8494 18.1221C19.0502 18.3229 19.0502 18.6485 18.8494 18.8494C18.6485 19.0502 18.3229 19.0502 18.1221 18.8494L1.15063 1.87794Z" fill="currentColor"/></g><path fill-rule="evenodd" clip-rule="evenodd" d="M13 24.5C19.3513 24.5 24.5 19.3513 24.5 13C24.5 6.64873 19.3513 1.5 13 1.5C6.64873 1.5 1.5 6.64873 1.5 13C1.5 19.3513 6.64873 24.5 13 24.5ZM13 25.5C19.9036 25.5 25.5 19.9036 25.5 13C25.5 6.09644 19.9036 0.5 13 0.5C6.09644 0.5 0.5 6.09644 0.5 13C0.5 19.9036 6.09644 25.5 13 25.5Z" fill="currentColor"/></svg>