<svg width="20" height="20" viewBox="0 0 26 26" fill="none" xmlns="http://www.w3.org/2000/svg"><path opacity="0.2" d="M26 14C26 20.6274 20.6274 26 14 26C7.37258 26 2 20.6274 2 14C2 7.37258 7.37258 2 14 2C20.6274 2 26 7.37258 26 14Z" fill="currentColor"/><g transform="translate(3, 3)"><path fill-rule="evenodd" clip-rule="evenodd" d="M7.09711 5.29939C6.4509 5.78404 6.09792 6.41541 6.09792 7.0707C6.09792 7.72599 6.4509 8.35736 7.09711 8.84201C7.74346 9.32678 8.65931 9.6414 9.69219 9.6414C9.96833 9.6414 10.1922 9.86526 10.1922 10.1414C10.1922 10.4175 9.96833 10.6414 9.69219 10.6414C8.46386 10.6414 7.33258 10.2686 6.49711 9.64201C5.66148 9.01529 5.09792 8.11131 5.09792 7.0707C5.09792 6.03009 5.66148 5.12611 6.49711 4.49939C7.33258 3.87278 8.46386 3.5 9.69219 3.5C11.6098 3.5 13.3388 4.41877 14.0058 5.83398C14.1235 6.08378 14.0164 6.38171 13.7666 6.49942C13.5168 6.61714 13.2189 6.51008 13.1012 6.26028C12.644 5.29019 11.3399 4.5 9.69219 4.5C8.65931 4.5 7.74346 4.81462 7.09711 5.29939Z" fill="currentColor"/><path fill-rule="evenodd" clip-rule="evenodd" d="M11.9566 14.9834C12.6028 14.4988 12.9558 13.8674 12.9558 13.2121C12.9558 12.5569 12.6028 11.9255 11.9566 11.4408C11.3103 10.9561 10.3944 10.6414 9.36154 10.6414C9.08539 10.6414 8.86154 10.4176 8.86154 10.1414C8.86154 9.86529 9.08539 9.64144 9.36154 9.64144C10.5899 9.64144 11.7211 10.0142 12.5566 10.6408C13.3922 11.2675 13.9558 12.1715 13.9558 13.2121C13.9558 14.2528 13.3922 15.1567 12.5566 15.7834C11.7211 16.4101 10.5899 16.7828 9.36154 16.7828C7.44392 16.7828 5.71489 15.8641 5.04795 14.4489C4.93023 14.1991 5.0373 13.9011 5.28709 13.7834C5.53689 13.6657 5.83482 13.7728 5.95253 14.0226C6.4097 14.9926 7.71382 15.7828 9.36154 15.7828C10.3944 15.7828 11.3103 15.4682 11.9566 14.9834Z" fill="currentColor"/><path fill-rule="evenodd" clip-rule="evenodd" d="M9 1C9.27614 1 9.5 1.22386 9.5 1.5V3.5C9.5 3.77614 9.27614 4 9 4C8.72386 4 8.5 3.77614 8.5 3.5V1.5C8.5 1.22386 8.72386 1 9 1Z" fill="currentColor"/><path fill-rule="evenodd" clip-rule="evenodd" d="M9 16C9.27614 16 9.5 16.2239 9.5 16.5V18.5C9.5 18.7761 9.27614 19 9 19C8.72386 19 8.5 18.7761 8.5 18.5V16.5C8.5 16.2239 8.72386 16 9 16Z" fill="currentColor"/></g><path fill-rule="evenodd" clip-rule="evenodd" d="M13 24.5C19.3513 24.5 24.5 19.3513 24.5 13C24.5 6.64873 19.3513 1.5 13 1.5C6.64873 1.5 1.5 6.64873 1.5 13C1.5 19.3513 6.64873 24.5 13 24.5ZM13 25.5C19.9036 25.5 25.5 19.9036 25.5 13C25.5 6.09644 19.9036 0.5 13 0.5C6.09644 0.5 0.5 6.09644 0.5 13C0.5 19.9036 6.09644 25.5 13 25.5Z" fill="currentColor"/></svg>