<svg width="20" height="20" viewBox="0 0 26 26" fill="none" xmlns="http://www.w3.org/2000/svg"><path opacity="0.2" fill-rule="evenodd" clip-rule="evenodd" d="M13.5 26C20.4036 26 26 20.4036 26 13.5C26 6.59644 20.4036 1 13.5 1C6.59644 1 1 6.59644 1 13.5C1 20.4036 6.59644 26 13.5 26ZM13.5 24C19.299 24 24 19.299 24 13.5C24 7.70101 19.299 3 13.5 3C7.70101 3 3 7.70101 3 13.5C3 19.299 7.70101 24 13.5 24Z" fill="currentColor"/><g transform="translate(3, 3)"><g opacity="0.2"><path d="M6.5 13C5.67157 13 5 12.3284 5 11.5C5 10.6716 5.67157 10 6.5 10H17.5C18.3284 10 19 10.6716 19 11.5C19 12.3284 18.3284 13 17.5 13H6.5Z" fill="currentColor"/></g><path d="M14 10.25C14 9.55964 14.5596 9 15.25 9C15.5814 9 15.8993 9.13173 16.1335 9.36618C16.3678 9.60063 16.4993 9.91857 16.499 10.25C16.4993 10.5814 16.3678 10.8994 16.1335 11.1338C15.8993 11.3683 15.5814 11.5 15.25 11.5C14.9185 11.5 14.6005 11.3683 14.3661 11.1339C14.1317 10.8995 14 10.5815 14 10.25H14Z" fill="currentColor"/><path d="M9 10.25C9 9.55964 9.55964 9 10.25 9C10.9404 9 11.5 9.55964 11.5 10.25C11.5 10.9404 10.9404 11.5 10.25 11.5C9.55964 11.5 9 10.9404 9 10.25H9Z" fill="currentColor"/><path d="M4 10.25C3.99973 9.9184 4.13135 9.6003 4.36582 9.36582C4.6003 9.13135 4.9184 8.99973 5.25 9C5.94036 9 6.5 9.55964 6.5 10.25C6.5 10.9404 5.94036 11.5 5.25 11.5C4.9184 11.5003 4.6003 11.3687 4.36582 11.1342C4.13135 10.8997 3.99973 10.5816 4 10.25H4Z" fill="currentColor"/><path d="M1.15063 1.87794C0.94979 1.6771 0.94979 1.35147 1.15063 1.15063C1.35147 0.949789 1.6771 0.949789 1.87794 1.15063L18.8494 18.1221C19.0502 18.3229 19.0502 18.6485 18.8494 18.8494C18.6485 19.0502 18.3229 19.0502 18.1221 18.8494L1.15063 1.87794Z" fill="currentColor"/></g><path fill-rule="evenodd" clip-rule="evenodd" d="M13 24.5C19.3513 24.5 24.5 19.3513 24.5 13C24.5 6.64873 19.3513 1.5 13 1.5C6.64873 1.5 1.5 6.64873 1.5 13C1.5 19.3513 6.64873 24.5 13 24.5ZM13 25.5C19.9036 25.5 25.5 19.9036 25.5 13C25.5 6.09644 19.9036 0.5 13 0.5C6.09644 0.5 0.5 6.09644 0.5 13C0.5 19.9036 6.09644 25.5 13 25.5Z" fill="currentColor"/></svg>