<svg xmlns="http://www.w3.org/2000/svg" width="20" height="20" viewBox="0 0 20 20">
  <g fill="none" fill-rule="evenodd">
    <path stroke="#AB92F0" stroke-linecap="round" stroke-linejoin="round" stroke-width="3" d="M6.5,11.5 L17.5,11.5"/>
    <path fill="#000" fill-rule="nonzero" d="M14 10.25C14 9.55964406 14.5596441 9 15.25 9 15.5814287 8.99999989 15.8992684 9.13172785 16.1335301 9.36617711 16.3677918 9.60062638 16.4992654 9.91857138 16.499 10.25 16.4992654 10.5814286 16.3677918 10.8993736 16.1335301 11.1338229 15.8992684 11.3682722 15.5814287 11.5000001 15.25 11.5 14.9184794 11.5 14.600537 11.3683039 14.3661165 11.1338835 14.1316961 10.899463 14 10.5815206 14 10.25L14 10.25zM9 10.25C9 9.55964406 9.55964406 9 10.25 9 10.9403559 9 11.5 9.55964406 11.5 10.25 11.5 10.9403559 10.9403559 11.5 10.25 11.5 9.55964406 11.5 9 10.9403559 9 10.25L9 10.25zM4 10.25C3.9997344 9.91839804 4.13134516 9.6003013 4.36582323 9.36582323 4.6003013 9.13134516 4.91839804 8.9997344 5.25 9 5.94035594 9 6.5 9.55964406 6.5 10.25 6.5 10.9403559 5.94035594 11.5 5.25 11.5 4.91839804 11.5002656 4.6003013 11.3686548 4.36582323 11.1341768 4.13134516 10.8996987 3.9997344 10.581602 4 10.25L4 10.25z"/>
  </g>
</svg>
