<svg xmlns="http://www.w3.org/2000/svg" width="20" height="20" viewBox="0 0 20 20">
  <g fill="none" fill-rule="evenodd">
    <path stroke="#AB92F0" stroke-linecap="round" stroke-linejoin="round" stroke-width="3" d="M7,12 L18,12" transform="rotate(90 12.5 12)"/>
    <path fill="#000" fill-rule="nonzero" d="M9 15.25C9 14.5596441 9.55964406 14 10.25 14 10.5814287 13.9999999 10.8992684 14.1317278 11.1335301 14.3661771 11.3677918 14.6006264 11.4992654 14.9185714 11.499 15.25 11.4992654 15.5814286 11.3677918 15.8993736 11.1335301 16.1338229 10.8992684 16.3682722 10.5814287 16.5000001 10.25 16.5 9.91847939 16.5 9.600537 16.3683039 9.36611652 16.1338835 9.13169605 15.899463 9 15.5815206 9 15.25L9 15.25zM9 10.25C9 9.55964406 9.55964406 9 10.25 9 10.9403559 9 11.5 9.55964406 11.5 10.25 11.5 10.9403559 10.9403559 11.5 10.25 11.5 9.55964406 11.5 9 10.9403559 9 10.25L9 10.25zM9.0000004 5.2500004C8.9997348 4.91839844 9.13134556 4.6003017 9.36582363 4.36582363 9.6003017 4.13134556 9.91839844 3.9997348 10.2500004 4.0000004 10.9403563 4.0000004 11.5000004 4.55964446 11.5000004 5.2500004 11.5000004 5.94035634 10.9403563 6.5000004 10.2500004 6.5000004 9.91839844 6.500266 9.6003017 6.36865524 9.36582363 6.13417717 9.13134556 5.8996991 8.9997348 5.58160237 9.0000004 5.2500004L9.0000004 5.2500004z"/>
  </g>
</svg>
