<svg width="20" height="20" viewBox="0 0 26 26" fill="none" xmlns="http://www.w3.org/2000/svg"><path opacity="0.2" d="M26 14C26 20.6274 20.6274 26 14 26C7.37258 26 2 20.6274 2 14C2 7.37258 7.37258 2 14 2C20.6274 2 26 7.37258 26 14Z" fill="currentColor"/><g transform="translate(3, 3)"><path d="M9 15.25C9 14.5596 9.55964 14 10.25 14C10.5814 14 10.8993 14.1317 11.1335 14.3662C11.3678 14.6006 11.4993 14.9186 11.499 15.25C11.4993 15.5814 11.3678 15.8994 11.1335 16.1338C10.8993 16.3683 10.5814 16.5 10.25 16.5C9.91848 16.5 9.60054 16.3683 9.36612 16.1339C9.1317 15.8995 9 15.5815 9 15.25H9Z" fill="currentColor"/><path d="M9 10.25C9 9.55964 9.55964 9 10.25 9C10.9404 9 11.5 9.55964 11.5 10.25C11.5 10.9404 10.9404 11.5 10.25 11.5C9.55964 11.5 9 10.9404 9 10.25H9Z" fill="currentColor"/><path d="M9 5.25C8.99973 4.9184 9.13135 4.6003 9.36582 4.36582C9.6003 4.13135 9.9184 3.99973 10.25 4C10.9404 4 11.5 4.55964 11.5 5.25C11.5 5.94036 10.9404 6.5 10.25 6.5C9.9184 6.50027 9.6003 6.36866 9.36582 6.13418C9.13135 5.8997 8.99973 5.5816 9 5.25H9Z" fill="currentColor"/></g><path fill-rule="evenodd" clip-rule="evenodd" d="M13 24.5C19.3513 24.5 24.5 19.3513 24.5 13C24.5 6.64873 19.3513 1.5 13 1.5C6.64873 1.5 1.5 6.64873 1.5 13C1.5 19.3513 6.64873 24.5 13 24.5ZM13 25.5C19.9036 25.5 25.5 19.9036 25.5 13C25.5 6.09644 19.9036 0.5 13 0.5C6.09644 0.5 0.5 6.09644 0.5 13C0.5 19.9036 6.09644 25.5 13 25.5Z" fill="currentColor"/></svg>