<svg width="20" height="20" viewBox="0 0 20 20" fill="none" xmlns="http://www.w3.org/2000/svg"><g opacity="0.2"><path fill-rule="evenodd" clip-rule="evenodd" d="M11.4393 9.56066C10.8536 8.97487 10.8536 8.02513 11.4393 7.43934L14.4393 4.43934C15.0251 3.85355 15.9749 3.85355 16.5607 4.43934C17.1464 5.02513 17.1464 5.97487 16.5607 6.56066L13.5607 9.56066C12.9749 10.1464 12.0251 10.1464 11.4393 9.56066Z" fill="currentColor"/><path fill-rule="evenodd" clip-rule="evenodd" d="M19.5607 9.56066C18.9749 10.1464 18.0251 10.1464 17.4393 9.56066L14.4393 6.56066C13.8536 5.97487 13.8536 5.02513 14.4393 4.43934C15.0251 3.85355 15.9749 3.85355 16.5607 4.43934L19.5607 7.43934C20.1464 8.02513 20.1464 8.97487 19.5607 9.56066Z" fill="currentColor"/><path fill-rule="evenodd" clip-rule="evenodd" d="M15.5 6C16.3284 6 17 6.67157 17 7.5V15.5C17 16.3284 16.3284 17 15.5 17C14.6716 17 14 16.3284 14 15.5V7.5C14 6.67157 14.6716 6 15.5 6Z" fill="currentColor"/><path fill-rule="evenodd" clip-rule="evenodd" d="M11.5607 13.4393C12.1464 14.0251 12.1464 14.9749 11.5607 15.5607L8.56066 18.5607C7.97487 19.1464 7.02513 19.1464 6.43934 18.5607C5.85355 17.9749 5.85355 17.0251 6.43934 16.4393L9.43934 13.4393C10.0251 12.8536 10.9749 12.8536 11.5607 13.4393Z" fill="currentColor"/><path fill-rule="evenodd" clip-rule="evenodd" d="M3.43934 13.4393C4.02513 12.8536 4.97487 12.8536 5.56066 13.4393L8.56066 16.4393C9.14645 17.0251 9.14645 17.9749 8.56066 18.5607C7.97487 19.1464 7.02513 19.1464 6.43934 18.5607L3.43934 15.5607C2.85355 14.9749 2.85355 14.0251 3.43934 13.4393Z" fill="currentColor"/><path fill-rule="evenodd" clip-rule="evenodd" d="M7.5 17C6.67157 17 6 16.3284 6 15.5L6 7.5C6 6.67157 6.67157 6 7.5 6C8.32843 6 9 6.67157 9 7.5V15.5C9 16.3284 8.32843 17 7.5 17Z" fill="currentColor"/></g><path fill-rule="evenodd" clip-rule="evenodd" d="M10.6464 7.35355C10.4512 7.15829 10.4512 6.84171 10.6464 6.64645L13.6464 3.64645C13.8417 3.45118 14.1583 3.45118 14.3536 3.64645C14.5488 3.84171 14.5488 4.15829 14.3536 4.35355L11.3536 7.35355C11.1583 7.54882 10.8417 7.54882 10.6464 7.35355Z" fill="currentColor"/><path fill-rule="evenodd" clip-rule="evenodd" d="M17.3536 7.35355C17.1583 7.54882 16.8417 7.54882 16.6464 7.35355L13.6464 4.35355C13.4512 4.15829 13.4512 3.84171 13.6464 3.64645C13.8417 3.45118 14.1583 3.45118 14.3536 3.64645L17.3536 6.64645C17.5488 6.84171 17.5488 7.15829 17.3536 7.35355Z" fill="currentColor"/><path fill-rule="evenodd" clip-rule="evenodd" d="M14 4C14.2761 4 14.5 4.22386 14.5 4.5V14C14.5 14.2761 14.2761 14.5 14 14.5C13.7239 14.5 13.5 14.2761 13.5 14V4.5C13.5 4.22386 13.7239 4 14 4Z" fill="currentColor"/><path fill-rule="evenodd" clip-rule="evenodd" d="M9.35355 12.6464C9.54882 12.8417 9.54882 13.1583 9.35355 13.3536L6.35355 16.3536C6.15829 16.5488 5.84171 16.5488 5.64645 16.3536C5.45118 16.1583 5.45118 15.8417 5.64645 15.6464L8.64645 12.6464C8.84171 12.4512 9.15829 12.4512 9.35355 12.6464Z" fill="currentColor"/><path fill-rule="evenodd" clip-rule="evenodd" d="M2.64645 12.6464C2.84171 12.4512 3.15829 12.4512 3.35355 12.6464L6.35355 15.6464C6.54882 15.8417 6.54882 16.1583 6.35355 16.3536C6.15829 16.5488 5.84171 16.5488 5.64645 16.3536L2.64645 13.3536C2.45118 13.1583 2.45118 12.8417 2.64645 12.6464Z" fill="currentColor"/><path fill-rule="evenodd" clip-rule="evenodd" d="M6 16C5.72386 16 5.5 15.7761 5.5 15.5L5.5 6C5.5 5.72386 5.72386 5.5 6 5.5C6.27614 5.5 6.5 5.72386 6.5 6L6.5 15.5C6.5 15.7761 6.27614 16 6 16Z" fill="currentColor"/></svg>