<svg width="20" height="20" viewBox="0 0 26 26" fill="none" xmlns="http://www.w3.org/2000/svg"><path opacity="0.2" d="M26 14C26 20.6274 20.6274 26 14 26C7.37258 26 2 20.6274 2 14C2 7.37258 7.37258 2 14 2C20.6274 2 26 7.37258 26 14Z" fill="currentColor"/><g transform="translate(3, 3)"><path fill-rule="evenodd" clip-rule="evenodd" d="M7.35355 16.3536C7.15829 16.5488 6.84171 16.5488 6.64645 16.3536L2.64645 12.3536C2.45118 12.1583 2.45118 11.8417 2.64645 11.6464L6.64645 7.64645C6.84171 7.45118 7.15829 7.45118 7.35355 7.64645C7.54882 7.84171 7.54882 8.15829 7.35355 8.35355L3.70711 12L7.35355 15.6464C7.54882 15.8417 7.54882 16.1583 7.35355 16.3536Z" fill="currentColor"/><path fill-rule="evenodd" clip-rule="evenodd" d="M12.75 11.5C13.4782 11.5 14.1773 11.2087 14.6933 10.6891C15.2094 10.1694 15.5 9.46377 15.5 8.72727L15.5 3C15.5 2.72386 15.7239 2.5 16 2.5C16.2761 2.5 16.5 2.72386 16.5 3L16.5 8.72727C16.5 9.72674 16.1058 10.686 15.4029 11.3938C14.6999 12.1017 13.7457 12.5 12.75 12.5L3 12.5C2.72386 12.5 2.5 12.2761 2.5 12C2.5 11.7239 2.72386 11.5 3 11.5L12.75 11.5Z" fill="currentColor"/></g><path fill-rule="evenodd" clip-rule="evenodd" d="M13 24.5C19.3513 24.5 24.5 19.3513 24.5 13C24.5 6.64873 19.3513 1.5 13 1.5C6.64873 1.5 1.5 6.64873 1.5 13C1.5 19.3513 6.64873 24.5 13 24.5ZM13 25.5C19.9036 25.5 25.5 19.9036 25.5 13C25.5 6.09644 19.9036 0.5 13 0.5C6.09644 0.5 0.5 6.09644 0.5 13C0.5 19.9036 6.09644 25.5 13 25.5Z" fill="currentColor"/></svg>