<svg width="20" height="20" viewBox="0 0 20 20" fill="none" xmlns="http://www.w3.org/2000/svg"><g opacity="0.2"><path fill-rule="evenodd" clip-rule="evenodd" d="M8.70711 17.7071C8.31658 18.0976 7.68342 18.0976 7.29289 17.7071L3.29289 13.7071C2.90237 13.3166 2.90237 12.6834 3.29289 12.2929L7.29289 8.29289C7.68342 7.90237 8.31658 7.90237 8.70711 8.29289C9.09763 8.68342 9.09763 9.31658 8.70711 9.70711L5.41421 13L8.70711 16.2929C9.09763 16.6834 9.09763 17.3166 8.70711 17.7071Z" fill="currentColor"/><path fill-rule="evenodd" clip-rule="evenodd" d="M13.75 12C14.3445 12 14.916 11.7623 15.3385 11.3368C15.7613 10.9111 16 10.3323 16 9.72727L16 4C16 3.44771 16.4477 3 17 3C17.5523 3 18 3.44771 18 4L18 9.72727C18 10.8582 17.5539 11.9443 16.7577 12.7461C15.9612 13.5481 14.8794 14 13.75 14L4 14C3.44771 14 3 13.5523 3 13C3 12.4477 3.44771 12 4 12L13.75 12Z" fill="currentColor"/></g><path fill-rule="evenodd" clip-rule="evenodd" d="M7.35355 16.3536C7.15829 16.5488 6.84171 16.5488 6.64645 16.3536L2.64645 12.3536C2.45118 12.1583 2.45118 11.8417 2.64645 11.6464L6.64645 7.64645C6.84171 7.45118 7.15829 7.45118 7.35355 7.64645C7.54882 7.84171 7.54882 8.15829 7.35355 8.35355L3.70711 12L7.35355 15.6464C7.54882 15.8417 7.54882 16.1583 7.35355 16.3536Z" fill="currentColor"/><path fill-rule="evenodd" clip-rule="evenodd" d="M12.75 11.5C13.4782 11.5 14.1773 11.2087 14.6933 10.6891C15.2094 10.1694 15.5 9.46377 15.5 8.72727L15.5 3C15.5 2.72386 15.7239 2.5 16 2.5C16.2761 2.5 16.5 2.72386 16.5 3L16.5 8.72727C16.5 9.72674 16.1058 10.686 15.4029 11.3938C14.6999 12.1017 13.7457 12.5 12.75 12.5L3 12.5C2.72386 12.5 2.5 12.2761 2.5 12C2.5 11.7239 2.72386 11.5 3 11.5L12.75 11.5Z" fill="currentColor"/></svg>