<svg xmlns="http://www.w3.org/2000/svg" width="20" height="20" viewBox="0 0 20 20">
  <g fill="none" fill-rule="evenodd">
    <g stroke="#AB92F0" transform="translate(2 1)">
      <path fill="#AB92F0" d="M8.75986776,3.62072787 C8.51949674,3.54194302 8.26472235,3.51707192 8.01365264,3.54788229 C7.06952691,3.66374197 6.39808461,4.52302994 6.51394429,5.46715567 L6.62863397,6.40174716 C6.77565146,7.59977388 7.79310313,8.5 9.00011686,8.5 C10.2071306,8.5 11.2245823,7.59977388 11.3715998,6.40174716 L11.4862894,5.46715567 C11.5170989,5.21609321 11.4922328,4.96132622 11.4134582,4.72095953 C11.1172106,3.81701282 10.1442609,3.32437536 9.24031416,3.62062295 L8.99991746,3.6994074 L8.75986776,3.62072787 Z"/>
      <path fill="#AB92F0" d="M6.90443587,8.5 C6.46515265,8.5 6.03362746,8.6157478 5.65331386,8.83558983 C4.1214841,9.7210511 2.99952208,10.7069278 2.28127488,11.7884754 C2.2383833,11.8530622 2.19449935,11.9180369 2.14939109,11.9837982 C1.92683213,12.3082566 1.21276172,13.2763193 1.10707473,13.428223 C0.789580851,13.8845563 0.614925064,14.2103849 0.540230601,14.5018343 C0.424734666,14.9524865 0.550993079,15.3662079 1.03861648,15.9044653 C2.43858185,17.449801 5.52291337,18.5 8.64847593,18.5 C12.2320298,18.5 14.9755909,17.699921 16.7255048,15.8923794 C17.5538238,15.0367824 17.6512694,14.5971943 17.3248243,14.0646693 C17.1544698,13.7867725 16.0623464,12.5641818 15.9977744,12.4850269 C15.8080459,12.2524499 15.6382011,12.0246597 15.481353,11.7884754 C14.7340189,10.6631284 13.6081316,9.6734196 12.0967972,8.82190655 C11.7222238,8.61086513 11.2995547,8.49998907 10.8696215,8.49998907 L6.90443725,8.5 Z"/>
      <path stroke-linecap="round" stroke-linejoin="round" stroke-width="1.5" d="M5.75.5L7 3.5M12.248722.5L11 3.5"/>
    </g>
    <path stroke="#000" d="M9.75986776,3.62072787 C9.51949674,3.54194302 9.26472235,3.51707192 9.01365264,3.54788229 C8.06952691,3.66374197 7.39808461,4.52302994 7.51394429,5.46715567 L7.62863397,6.40174716 C7.77565146,7.59977388 8.79310313,8.5 10.0001169,8.5 C11.2071306,8.5 12.2245823,7.59977388 12.3715998,6.40174716 L12.4862894,5.46715567 C12.5170989,5.21609321 12.4922328,4.96132622 12.4134582,4.72095953 C12.1172106,3.81701282 11.1442609,3.32437536 10.2403142,3.62062295 L9.99991746,3.6994074 L9.75986776,3.62072787 Z"/>
    <path stroke="#000" d="M7.90443587,8.5 C7.46515265,8.5 7.03362746,8.6157478 6.65331386,8.83558983 C5.1214841,9.7210511 3.99952208,10.7069278 3.28127488,11.7884754 C3.2383833,11.8530622 3.19449935,11.9180369 3.14939109,11.9837982 C2.92683213,12.3082566 2.21276172,13.2763193 2.10707473,13.428223 C1.78958085,13.8845563 1.61492506,14.2103849 1.5402306,14.5018343 C1.42473467,14.9524865 1.55099308,15.3662079 2.03861648,15.9044653 C3.43858185,17.449801 6.52291337,18.5 9.64847593,18.5 C13.2320298,18.5 15.9755909,17.699921 17.7255048,15.8923794 C18.5538238,15.0367824 18.6512694,14.5971943 18.3248243,14.0646693 C18.1544698,13.7867725 17.0623464,12.5641818 16.9977744,12.4850269 C16.8080459,12.2524499 16.6382011,12.0246597 16.481353,11.7884754 C15.7340189,10.6631284 14.6081316,9.6734196 13.0967972,8.82190655 C12.7222238,8.61086513 12.2995547,8.49998907 11.8696215,8.49998907 L7.90443725,8.5 Z"/>
    <path stroke="#000" stroke-linecap="round" stroke-linejoin="round" d="M7 1L8 3.5M13 1L12 3.5M10 11.5L10 15.5"/>
    <path stroke="#000" stroke-linecap="round" stroke-linejoin="round" d="M7.48858436,11.492452 L5.51141564,14.507548" transform="rotate(.435 6.5 13)"/>
    <path stroke="#000" stroke-linecap="round" stroke-linejoin="round" d="M14.4885844,11.492452 L12.5114156,14.507548" transform="scale(-1 1) rotate(.435 0 -3543.69)"/>
  </g>
</svg>
