<svg width="20" height="20" viewBox="0 0 26 26" fill="none" xmlns="http://www.w3.org/2000/svg"><path opacity="0.2" fill-rule="evenodd" clip-rule="evenodd" d="M13.5 26C20.4036 26 26 20.4036 26 13.5C26 6.59644 20.4036 1 13.5 1C6.59644 1 1 6.59644 1 13.5C1 20.4036 6.59644 26 13.5 26ZM13.5 24C19.299 24 24 19.299 24 13.5C24 7.70101 19.299 3 13.5 3C7.70101 3 3 7.70101 3 13.5C3 19.299 7.70101 24 13.5 24Z" fill="currentColor"/><g transform="translate(3, 3)"><g opacity="0.2"><path d="M15 9H17C17.5523 9 18 9.44772 18 10V17C18 17.5523 17.5523 18 17 18H10C9.44772 18 9 17.5523 9 17V15H7C6.44772 15 6 14.5523 6 14V7C6 6.44772 6.44772 6 7 6H14C14.5523 6 15 6.44772 15 7V9Z" fill="currentColor"/></g><path fill-rule="evenodd" clip-rule="evenodd" d="M15 7.5H8C7.72386 7.5 7.5 7.72386 7.5 8V15C7.5 15.2761 7.72386 15.5 8 15.5H15C15.2761 15.5 15.5 15.2761 15.5 15V8C15.5 7.72386 15.2761 7.5 15 7.5ZM8.5 14.5V8.5H14.5V14.5H8.5Z" fill="currentColor"/><path d="M5.5 11.5H8.5V12.5H5C4.72386 12.5 4.5 12.2761 4.5 12V5C4.5 4.72386 4.72386 4.5 5 4.5H12C12.2761 4.5 12.5 4.72386 12.5 5V8.5H11.5V5.5H5.5V11.5Z" fill="currentColor"/></g><path fill-rule="evenodd" clip-rule="evenodd" d="M13 24.5C19.3513 24.5 24.5 19.3513 24.5 13C24.5 6.64873 19.3513 1.5 13 1.5C6.64873 1.5 1.5 6.64873 1.5 13C1.5 19.3513 6.64873 24.5 13 24.5ZM13 25.5C19.9036 25.5 25.5 19.9036 25.5 13C25.5 6.09644 19.9036 0.5 13 0.5C6.09644 0.5 0.5 6.09644 0.5 13C0.5 19.9036 6.09644 25.5 13 25.5Z" fill="currentColor"/></svg>