<svg width="20" height="20" viewBox="0 0 26 26" fill="none" xmlns="http://www.w3.org/2000/svg"><path opacity="0.2" d="M26 14C26 20.6274 20.6274 26 14 26C7.37258 26 2 20.6274 2 14C2 7.37258 7.37258 2 14 2C20.6274 2 26 7.37258 26 14Z" fill="currentColor"/><g transform="translate(3, 3)"><g><path fill-rule="evenodd" clip-rule="evenodd" d="M10 1.5C5.30558 1.5 1.5 5.30558 1.5 10C1.5 14.6944 5.30558 18.5 10 18.5C14.6944 18.5 18.5 14.6944 18.5 10C18.5 5.30558 14.6944 1.5 10 1.5ZM0.5 10C0.5 4.75329 4.75329 0.5 10 0.5C15.2467 0.5 19.5 4.75329 19.5 10C19.5 15.2467 15.2467 19.5 10 19.5C4.75329 19.5 0.5 15.2467 0.5 10Z" fill="currentColor"/><path fill-rule="evenodd" clip-rule="evenodd" d="M12.4858 2.58947L12.0528 1.72358L12.9472 1.27637L13.3802 2.14226C13.4486 2.27915 13.4946 2.42618 13.5162 2.57769L13.6776 3.70753C13.8378 4.8289 12.4152 5.44435 11.7076 4.55982L11.6387 4.47376C11.632 4.46535 11.6266 4.46236 11.6225 4.46074C11.6173 4.45866 11.6101 4.45734 11.6016 4.45824C11.5931 4.45914 11.5862 4.46196 11.5816 4.46508C11.5779 4.46751 11.5733 4.47157 11.5684 4.4812C11.5625 4.49302 11.5625 4.50693 11.5684 4.51874L12.3212 6.02418C12.4612 6.30426 12.4842 6.6285 12.3852 6.92558C12.084 7.82913 10.892 8.02258 10.3205 7.26063L10.2882 7.21759C10.1951 7.09336 10.0037 7.11061 9.93429 7.24951L9.82922 7.45965C9.74176 7.63457 9.81265 7.84727 9.98757 7.93473L10.084 7.98295C10.2247 8.0533 10.3532 8.14603 10.4642 8.25702C10.829 8.62186 10.9773 9.15264 10.8518 9.65442L10.3872 11.513C10.1275 12.5518 8.75839 12.7889 8.16448 11.898C8.07512 11.764 8.01289 11.6137 7.98129 11.4558L7.51208 9.1097L7.17612 7.76585L6.96375 8.19058L6.96271 8.19309L6.70869 8.95514C6.21784 10.4277 4.08753 10.2763 3.80986 8.74912L3.59754 7.58135C3.56939 7.42651 3.46998 7.29396 3.32921 7.22358L1.77643 6.44719L2.22364 5.55276L3.77643 6.32915C4.19872 6.5403 4.49695 6.93795 4.58141 7.40247L4.79373 8.57024C4.88629 9.07929 5.59639 9.12976 5.76001 8.63891L6.01403 7.87686C6.02928 7.83111 6.04775 7.7865 6.06932 7.74337L6.61824 6.64553C6.95696 5.9681 7.96709 6.19447 7.99925 6.93528L8.48799 8.89025L8.96187 11.2597C8.96785 11.2895 8.97962 11.318 8.99653 11.3433C9.10889 11.5119 9.36789 11.467 9.41702 11.2705L9.88167 9.41188C9.92161 9.2521 9.87444 9.08148 9.75708 8.96413C9.72186 8.9289 9.68107 8.89951 9.63681 8.87738L9.54036 8.82915C8.87146 8.4947 8.60034 7.68133 8.93479 7.01243L9.03986 6.80229C9.44176 5.9985 10.549 5.89865 11.0882 6.61759L11.1205 6.66063C11.208 6.77725 11.3904 6.74764 11.4365 6.60935C11.4517 6.56388 11.4482 6.51426 11.4267 6.47139L10.674 4.96596C10.5273 4.67261 10.5273 4.32733 10.674 4.03399C11.0141 3.35385 11.9446 3.25527 12.4196 3.84906L12.4885 3.93513C12.5137 3.96671 12.5346 3.97445 12.5486 3.97743C12.5672 3.98139 12.5932 3.98012 12.621 3.9681C12.6488 3.95607 12.6675 3.93798 12.6773 3.92176C12.6847 3.90952 12.6934 3.88898 12.6877 3.84895L12.5263 2.71912C12.5198 2.67401 12.5061 2.63023 12.4858 2.58947Z" fill="currentColor"/><path fill-rule="evenodd" clip-rule="evenodd" d="M14.2447 13.9752C14.6995 13.6315 15.3099 13.5753 15.8198 13.8303L15.9837 13.9123C16.0752 13.958 16.1785 13.9746 16.2797 13.9598L17.6776 13.7553C17.9509 13.7153 18.2048 13.9044 18.2447 14.1776C18.2847 14.4509 18.0956 14.7048 17.8224 14.7447L16.4245 14.9493C16.1209 14.9937 15.811 14.9439 15.5365 14.8067L15.3726 14.7247C15.2026 14.6397 14.9992 14.6585 14.8475 14.773L13.9719 15.4347C13.8033 15.5621 13.6097 15.6524 13.4037 15.6998L12.5425 15.8978C12.4706 15.9143 12.4125 15.9671 12.3892 16.037C12.3388 16.1882 12.4674 16.3387 12.6246 16.3125L14.1382 16.0603C14.4509 16.0082 14.7721 16.0565 15.0556 16.1982L15.7648 16.5528L15.3176 17.4472L14.6084 17.0927C14.5139 17.0454 14.4069 17.0293 14.3026 17.0467L12.789 17.2989C11.8885 17.449 11.1518 16.5869 11.4405 15.7208C11.5741 15.3201 11.9068 15.0179 12.3184 14.9232L13.1797 14.7252C13.2483 14.7094 13.3129 14.6793 13.3691 14.6369L14.2447 13.9752Z" fill="currentColor"/><path fill-rule="evenodd" clip-rule="evenodd" d="M14.2949 6.09598C14.2878 6.10208 14.2852 6.11192 14.2883 6.12072C14.291 6.12816 14.2932 6.13103 14.2935 6.13139L14.2935 6.13139L14.2942 6.13208C14.2952 6.13274 14.3002 6.13546 14.3091 6.13566C14.318 6.13586 14.3231 6.13337 14.3241 6.13275L14.3248 6.1321C14.3251 6.13177 14.3275 6.12901 14.3305 6.12167L14.356 6.05951C14.3596 6.05088 14.3632 6.0423 14.367 6.03379L14.2949 6.09598ZM15.167 5.34441L15.2405 5.28109C15.5135 5.04585 15.6927 4.72021 15.7453 4.36371L15.9864 2.72959L14.9971 2.58364L14.756 4.21776C14.7384 4.33659 14.6787 4.44514 14.5877 4.52355L13.6421 5.33843C13.3212 5.6149 13.204 6.06052 13.3473 6.45906C13.664 7.33981 14.8994 7.36759 15.2553 6.50196L15.2809 6.43981C15.285 6.42973 15.2925 6.42135 15.302 6.416L16.0797 5.97819C16.2095 5.90512 16.3277 5.81314 16.4304 5.70525L17.098 5.00392L16.3737 4.31446L15.7061 5.01579C15.6718 5.05175 15.6324 5.08241 15.5892 5.10677L15.167 5.34441Z" fill="currentColor"/><path fill-rule="evenodd" clip-rule="evenodd" d="M12.2534 8.91011C11.9959 8.95719 11.7674 9.1617 11.7674 9.49489C11.7674 9.78259 11.949 9.98405 12.1727 10.0587C12.3221 10.2207 12.5523 10.298 12.7802 10.2427L13.4466 10.081C14.1845 9.90194 14.2498 8.92134 13.6273 8.60912L13.6338 8.50729C13.6415 8.38778 13.6148 8.26857 13.5569 8.16376C13.2794 7.66174 12.5292 7.76517 12.3979 8.32355L12.2639 8.89361L12.2534 8.91011Z" fill="currentColor"/><path fill-rule="evenodd" clip-rule="evenodd" d="M10.7739 12.5682C10.7304 12.5822 10.6879 12.6002 10.647 12.6222C9.96748 12.9881 10.2101 14.0385 11.0024 14.0385C11.2074 14.0385 11.3933 13.9566 11.5291 13.8236L11.6406 13.8793C11.7818 13.9499 11.932 13.9586 12.0666 13.9203C12.2456 14.0153 12.4666 14.0225 12.6586 13.9216L13.1876 13.6434C13.587 13.4335 13.837 13.0195 13.837 12.5684C13.837 11.7614 13.0647 11.1788 12.2888 11.4005L11.6647 11.5788C11.197 11.7124 10.8555 12.1013 10.7739 12.5682ZM11.7908 12.8364L11.7552 12.8186L11.7552 12.7845C11.7552 12.6711 11.8303 12.5715 11.9394 12.5403L12.5635 12.362C12.7006 12.3228 12.837 12.4258 12.837 12.5684C12.837 12.6481 12.7928 12.7212 12.7223 12.7583L12.474 12.8889C12.2761 12.7205 11.9989 12.7164 11.7908 12.8364Z" fill="currentColor"/><path fill-rule="evenodd" clip-rule="evenodd" d="M14.2766 11.455C14.2766 10.8683 14.9291 10.517 15.4189 10.84L15.7967 11.0892L16.1117 11.048C16.7589 10.9633 17.2487 11.6206 16.9825 12.2166C16.9053 12.3894 16.7717 12.5309 16.6035 12.6179L16.4779 12.6828C16.1182 12.8688 15.6903 12.8673 15.3319 12.6788L15.2544 12.638C15.1307 12.573 15.0174 12.4899 14.9183 12.3915L14.5947 12.0704C14.3992 11.9547 14.2766 11.7432 14.2766 11.5122L14.2766 11.455Z" fill="currentColor"/></g></g><path fill-rule="evenodd" clip-rule="evenodd" d="M13 24.5C19.3513 24.5 24.5 19.3513 24.5 13C24.5 6.64873 19.3513 1.5 13 1.5C6.64873 1.5 1.5 6.64873 1.5 13C1.5 19.3513 6.64873 24.5 13 24.5ZM13 25.5C19.9036 25.5 25.5 19.9036 25.5 13C25.5 6.09644 19.9036 0.5 13 0.5C6.09644 0.5 0.5 6.09644 0.5 13C0.5 19.9036 6.09644 25.5 13 25.5Z" fill="currentColor"/></svg>