<svg width="20" height="20" viewBox="0 0 20 20" fill="none" xmlns="http://www.w3.org/2000/svg"><g><path opacity="0.2" d="M20 11C20 15.9706 15.9706 20 11 20C6.02944 20 2 15.9706 2 11C2 6.02944 6.02944 2 11 2C15.9706 2 20 6.02944 20 11Z" fill="currentColor"/><path fill-rule="evenodd" clip-rule="evenodd" d="M8.92602 3.0299L10.0528 0.776367L10.9472 1.22358L9.82045 3.47711C9.71238 3.69324 9.77435 3.95573 9.96766 4.10072L10.3095 4.35711C10.4745 4.48084 10.7121 4.39007 10.7525 4.18786C10.9429 3.23604 12.0819 2.834 12.8275 3.45541L13.7912 4.25849C14.5615 4.90038 14.4973 6.10271 13.663 6.65889L13.4438 6.80506C13.3888 6.84168 13.3417 6.88881 13.3051 6.94373L12.584 8.0254C12.5292 8.10753 12.5 8.20404 12.5 8.30275V8.58576C12.5 8.98359 12.342 9.36512 12.0607 9.64642L11.8536 9.85353C11.3821 10.3249 10.6179 10.3249 10.1464 9.85353C10.0656 9.77265 9.93443 9.77265 9.85355 9.85353L9.81802 9.88906C9.72746 9.97962 9.71727 10.123 9.79411 10.2255L10.7584 11.5111C10.8049 11.5732 10.8653 11.6236 10.9348 11.6583L11.5917 11.9868C11.8419 12.1119 12 12.3677 12 12.6475C12 13.17 11.4722 13.5274 10.987 13.3333L8.95189 12.5192C8.81505 12.4645 8.68702 12.3899 8.57194 12.2978L6.28679 10.4697C6.18805 10.3907 6.0997 10.2996 6.02383 10.1984L4.88558 8.68075C4.61457 8.3194 4.52082 7.85515 4.63037 7.41695L4.9365 6.19241C4.962 6.09044 4.95471 5.98303 4.91567 5.88544L4.10728 3.86448C4.03641 3.6873 4 3.49822 4 3.30739V2.99997H5V3.30739C5 3.371 5.01214 3.43403 5.03576 3.49309L5.84415 5.51405C5.96125 5.80682 5.98312 6.12904 5.90665 6.43494L5.60051 7.65948C5.56399 7.80555 5.59524 7.9603 5.68558 8.08075L6.82383 9.59841C6.84912 9.63213 6.87857 9.66251 6.91148 9.68884L9.19663 11.517C9.23499 11.5477 9.27767 11.5725 9.32328 11.5908L9.67302 11.7307L8.99411 10.8255C8.61868 10.3249 8.66846 9.62441 9.11091 9.18195L9.14645 9.14642C9.61785 8.67502 10.3821 8.67502 10.8536 9.14642C10.9344 9.2273 11.0656 9.2273 11.1464 9.14642L11.3536 8.93931C11.4473 8.84554 11.5 8.71837 11.5 8.58576V8.30275C11.5 8.00661 11.5877 7.7171 11.7519 7.4707L12.473 6.38903C12.5829 6.22426 12.7243 6.08286 12.8891 5.97301L13.1083 5.82684C13.3864 5.64145 13.4078 5.24067 13.1511 5.02671L12.1874 4.22363C12.0241 4.08759 11.7748 4.17561 11.7331 4.38398C11.5484 5.30763 10.4631 5.72228 9.70952 5.15711L9.36766 4.90072C8.78772 4.46576 8.60182 3.67829 8.92602 3.0299Z" fill="currentColor"/><path fill-rule="evenodd" clip-rule="evenodd" d="M12.6606 13.2088C12.4293 13.1427 12.1837 13.2507 12.0761 13.4659L11.6708 14.2764C11.6004 14.4172 11.6004 14.5828 11.6708 14.7236L12.2464 15.8747C12.438 16.258 12.4566 16.7048 12.2975 17.1026L11.4642 19.1857L10.5358 18.8143L11.369 16.7313C11.422 16.5986 11.4158 16.4497 11.352 16.3219L10.7764 15.1708C10.5653 14.7485 10.5653 14.2515 10.7764 13.8292L11.1816 13.0187C11.5044 12.3731 12.2413 12.0489 12.9354 12.2472L13.5639 12.4268C13.8787 12.5168 14.1554 12.7072 14.3518 12.9691L14.8574 13.6431C14.8716 13.6621 14.8871 13.68 14.9038 13.6967L15.2078 14.0007C15.7564 14.5493 15.7961 15.4257 15.2995 16.0216L13.6159 18.042C13.541 18.1318 13.5 18.2451 13.5 18.362V18.5H12.5V18.362C12.5 18.0111 12.623 17.6713 12.8477 17.4018L14.5313 15.3815C14.6968 15.1828 14.6836 14.8907 14.5007 14.7078L14.1967 14.4038C14.1465 14.3536 14.1 14.2999 14.0574 14.2431L13.5518 13.5691C13.4864 13.4818 13.3941 13.4183 13.2892 13.3883L12.6606 13.2088Z" fill="currentColor"/><path fill-rule="evenodd" clip-rule="evenodd" d="M10 1.5C5.30558 1.5 1.5 5.30558 1.5 10C1.5 14.6944 5.30558 18.5 10 18.5C14.6944 18.5 18.5 14.6944 18.5 10C18.5 5.30558 14.6944 1.5 10 1.5ZM0.5 10C0.5 4.75329 4.75329 0.5 10 0.5C15.2467 0.5 19.5 4.75329 19.5 10C19.5 15.2467 15.2467 19.5 10 19.5C4.75329 19.5 0.5 15.2467 0.5 10Z" fill="currentColor"/></g><path d="M1.15063 1.87794C0.94979 1.6771 0.94979 1.35147 1.15063 1.15063C1.35147 0.949789 1.6771 0.949789 1.87794 1.15063L18.8494 18.1221C19.0502 18.3229 19.0502 18.6485 18.8494 18.8494C18.6485 19.0502 18.3229 19.0502 18.1221 18.8494L1.15063 1.87794Z" fill="currentColor"/></svg>