<svg width="20" height="20" viewBox="0 0 26 26" fill="none" xmlns="http://www.w3.org/2000/svg"><path opacity="0.2" fill-rule="evenodd" clip-rule="evenodd" d="M13.5 26C20.4036 26 26 20.4036 26 13.5C26 6.59644 20.4036 1 13.5 1C6.59644 1 1 6.59644 1 13.5C1 20.4036 6.59644 26 13.5 26ZM13.5 24C19.299 24 24 19.299 24 13.5C24 7.70101 19.299 3 13.5 3C7.70101 3 3 7.70101 3 13.5C3 19.299 7.70101 24 13.5 24Z" fill="currentColor"/><g transform="translate(3, 3)"><g opacity="0.2"><path d="M8.24994 5C8.24994 4.44772 8.69765 4 9.24994 4H17.2499C17.8022 4 18.2499 4.44772 18.2499 5V18C18.2499 18.5523 17.8022 19 17.2499 19H9.24994C8.69765 19 8.24994 18.5523 8.24994 18V5Z" fill="currentColor"/></g><path fill-rule="evenodd" clip-rule="evenodd" d="M8.54656 7.11588C8.7587 6.93909 9.07398 6.96776 9.25076 7.1799L11.3341 9.6799C11.5109 9.89203 11.4822 10.2073 11.2701 10.3841C11.0579 10.5609 10.7427 10.5322 10.5659 10.3201L8.48254 7.82008C8.30576 7.60794 8.33442 7.29266 8.54656 7.11588Z" fill="currentColor"/><path fill-rule="evenodd" clip-rule="evenodd" d="M8.5465 12.8841C8.33436 12.7073 8.3057 12.392 8.48248 12.1799L10.5658 9.6799C10.7426 9.46776 11.0579 9.43909 11.27 9.61588C11.4822 9.79266 11.5108 10.1079 11.334 10.3201L9.2507 12.8201C9.07392 13.0322 8.75864 13.0609 8.5465 12.8841Z" fill="currentColor"/><path fill-rule="evenodd" clip-rule="evenodd" d="M11 10C11 10.2761 10.7761 10.5 10.5 10.5L3 10.5C2.72386 10.5 2.5 10.2761 2.5 10C2.5 9.72386 2.72386 9.5 3 9.5L10.5 9.5C10.7761 9.5 11 9.72386 11 10Z" fill="currentColor"/><path fill-rule="evenodd" clip-rule="evenodd" d="M15.9999 17C15.9999 17.2761 15.7761 17.5 15.4999 17.5H6.29994C6.0238 17.5 5.79994 17.2761 5.79994 17C5.79994 16.7239 6.0238 16.5 6.29994 16.5H15.4999C15.7761 16.5 15.9999 16.7239 15.9999 17Z" fill="currentColor"/><path fill-rule="evenodd" clip-rule="evenodd" d="M15.9999 3C15.9999 3.27614 15.7761 3.5 15.4999 3.5L6.3262 3.5C6.05005 3.5 5.8262 3.27614 5.8262 3C5.8262 2.72386 6.05005 2.5 6.3262 2.5L15.4999 2.5C15.7761 2.5 15.9999 2.72386 15.9999 3Z" fill="currentColor"/><path fill-rule="evenodd" clip-rule="evenodd" d="M6.24994 17.5C5.9738 17.5 5.74994 17.2761 5.74994 17V13C5.74994 12.7239 5.9738 12.5 6.24994 12.5C6.52608 12.5 6.74994 12.7239 6.74994 13V17C6.74994 17.2761 6.52608 17.5 6.24994 17.5Z" fill="currentColor"/><path fill-rule="evenodd" clip-rule="evenodd" d="M6.24994 7.5C5.9738 7.5 5.74994 7.27614 5.74994 7V3C5.74994 2.72386 5.9738 2.5 6.24994 2.5C6.52608 2.5 6.74994 2.72386 6.74994 3V7C6.74994 7.27614 6.52608 7.5 6.24994 7.5Z" fill="currentColor"/><path fill-rule="evenodd" clip-rule="evenodd" d="M15.5999 17.5C15.3238 17.5 15.0999 17.2761 15.0999 17V3C15.0999 2.72386 15.3238 2.5 15.5999 2.5C15.8761 2.5 16.0999 2.72386 16.0999 3V17C16.0999 17.2761 15.8761 17.5 15.5999 17.5Z" fill="currentColor"/><path d="M1.15063 1.87794C0.94979 1.6771 0.94979 1.35147 1.15063 1.15063C1.35147 0.949789 1.6771 0.949789 1.87794 1.15063L18.8494 18.1221C19.0502 18.3229 19.0502 18.6485 18.8494 18.8494C18.6485 19.0502 18.3229 19.0502 18.1221 18.8494L1.15063 1.87794Z" fill="currentColor"/></g><path fill-rule="evenodd" clip-rule="evenodd" d="M13 24.5C19.3513 24.5 24.5 19.3513 24.5 13C24.5 6.64873 19.3513 1.5 13 1.5C6.64873 1.5 1.5 6.64873 1.5 13C1.5 19.3513 6.64873 24.5 13 24.5ZM13 25.5C19.9036 25.5 25.5 19.9036 25.5 13C25.5 6.09644 19.9036 0.5 13 0.5C6.09644 0.5 0.5 6.09644 0.5 13C0.5 19.9036 6.09644 25.5 13 25.5Z" fill="currentColor"/></svg>