<svg width="20" height="20" viewBox="0 0 26 26" fill="none" xmlns="http://www.w3.org/2000/svg"><path opacity="0.2" fill-rule="evenodd" clip-rule="evenodd" d="M13.5 26C20.4036 26 26 20.4036 26 13.5C26 6.59644 20.4036 1 13.5 1C6.59644 1 1 6.59644 1 13.5C1 20.4036 6.59644 26 13.5 26ZM13.5 24C19.299 24 24 19.299 24 13.5C24 7.70101 19.299 3 13.5 3C7.70101 3 3 7.70101 3 13.5C3 19.299 7.70101 24 13.5 24Z" fill="currentColor"/><g transform="translate(3, 3)"><g opacity="0.2"><path fill-rule="evenodd" clip-rule="evenodd" d="M12.9888 4.5C9.93078 4.5 7.5 6.71256 7.5 10C7.5 13.3865 10.0275 16 12.9888 16C13.7324 16 14.4405 15.8388 15.0872 15.5457C15.5903 15.3177 16.1829 15.5407 16.4108 16.0437C16.6388 16.5468 16.4158 17.1394 15.9128 17.3673C15.0147 17.7744 14.0258 18 12.9888 18C8.78278 18 5.5 14.3455 5.5 10C5.5 5.55547 8.87947 2.5 12.9888 2.5C14.2258 2.5 15.4173 2.8928 16.5631 3.67364C17.0195 3.98465 17.1374 4.60675 16.8264 5.06314C16.5153 5.51953 15.8932 5.63738 15.4369 5.32636C14.5795 4.74207 13.7742 4.5 12.9888 4.5Z" fill="currentColor"/><path fill-rule="evenodd" clip-rule="evenodd" d="M3.5 8.5C3.5 7.94772 3.94772 7.5 4.5 7.5H13.5C14.0523 7.5 14.5 7.94772 14.5 8.5C14.5 9.05228 14.0523 9.5 13.5 9.5H4.5C3.94772 9.5 3.5 9.05228 3.5 8.5Z" fill="currentColor"/><path fill-rule="evenodd" clip-rule="evenodd" d="M3.5 12C3.5 11.4477 3.94772 11 4.5 11H12.5C13.0523 11 13.5 11.4477 13.5 12C13.5 12.5523 13.0523 13 12.5 13H4.5C3.94772 13 3.5 12.5523 3.5 12Z" fill="currentColor"/></g><path fill-rule="evenodd" clip-rule="evenodd" d="M11.9888 3C8.66795 3 6 5.42329 6 9.00001C6 12.6262 8.7163 15.5 11.9888 15.5C12.8058 15.5 13.584 15.3227 14.2936 15.0011C14.5451 14.8871 14.8414 14.9986 14.9554 15.2501C15.0694 15.5016 14.9579 15.7979 14.7064 15.9119C13.8711 16.2905 12.9525 16.5 11.9888 16.5C8.09395 16.5 5 13.1058 5 9.00001C5 4.84474 8.1423 2 11.9888 2C13.1129 2 14.2079 2.35512 15.2816 3.08682C15.5098 3.24233 15.5687 3.55338 15.4132 3.78157C15.2577 4.00976 14.9466 4.06869 14.7184 3.91318C13.7889 3.27975 12.8871 3 11.9888 3Z" fill="currentColor"/><path fill-rule="evenodd" clip-rule="evenodd" d="M3 7.5C3 7.22386 3.22386 7 3.5 7H12.5C12.7761 7 13 7.22386 13 7.5C13 7.77614 12.7761 8 12.5 8H3.5C3.22386 8 3 7.77614 3 7.5Z" fill="currentColor"/><path fill-rule="evenodd" clip-rule="evenodd" d="M3 11C3 10.7239 3.22386 10.5 3.5 10.5H11.5C11.7761 10.5 12 10.7239 12 11C12 11.2761 11.7761 11.5 11.5 11.5H3.5C3.22386 11.5 3 11.2761 3 11Z" fill="currentColor"/><path d="M1.15063 1.87794C0.94979 1.6771 0.94979 1.35147 1.15063 1.15063C1.35147 0.949789 1.6771 0.949789 1.87794 1.15063L18.8494 18.1221C19.0502 18.3229 19.0502 18.6485 18.8494 18.8494C18.6485 19.0502 18.3229 19.0502 18.1221 18.8494L1.15063 1.87794Z" fill="currentColor"/></g><path fill-rule="evenodd" clip-rule="evenodd" d="M13 24.5C19.3513 24.5 24.5 19.3513 24.5 13C24.5 6.64873 19.3513 1.5 13 1.5C6.64873 1.5 1.5 6.64873 1.5 13C1.5 19.3513 6.64873 24.5 13 24.5ZM13 25.5C19.9036 25.5 25.5 19.9036 25.5 13C25.5 6.09644 19.9036 0.5 13 0.5C6.09644 0.5 0.5 6.09644 0.5 13C0.5 19.9036 6.09644 25.5 13 25.5Z" fill="currentColor"/></svg>