<svg width="20" height="20" viewBox="0 0 20 20" fill="none" xmlns="http://www.w3.org/2000/svg"><g opacity="0.2"><path fill-rule="evenodd" clip-rule="evenodd" d="M11 3C12.1046 3 13 3.89543 13 5V12C13 13.1046 12.1046 14 11 14C9.89543 14 9 13.1046 9 12V5C9 3.89543 9.89543 3 11 3Z" fill="currentColor"/><path d="M13 17C13 18.1046 12.1046 19 11 19C9.89543 19 9 18.1046 9 17C9 15.8954 9.89543 15 11 15C12.1046 15 13 15.8954 13 17Z" fill="currentColor"/></g><path fill-rule="evenodd" clip-rule="evenodd" d="M10.25 2.25C10.6642 2.25 11 2.58579 11 3V12C11 12.4142 10.6642 12.75 10.25 12.75C9.83579 12.75 9.5 12.4142 9.5 12V3C9.5 2.58579 9.83579 2.25 10.25 2.25Z" fill="currentColor"/><path d="M11.5 16.25C11.5 16.9404 10.9404 17.5 10.25 17.5C9.55964 17.5 9 16.9404 9 16.25C9 15.5596 9.55964 15 10.25 15C10.9404 15 11.5 15.5596 11.5 16.25Z" fill="currentColor"/><path d="M1.15063 1.87794C0.94979 1.6771 0.94979 1.35147 1.15063 1.15063C1.35147 0.949789 1.6771 0.949789 1.87794 1.15063L18.8494 18.1221C19.0502 18.3229 19.0502 18.6485 18.8494 18.8494C18.6485 19.0502 18.3229 19.0502 18.1221 18.8494L1.15063 1.87794Z" fill="currentColor"/></svg>