<svg width="20" height="20" viewBox="0 0 26 26" fill="none" xmlns="http://www.w3.org/2000/svg"><path opacity="0.2" fill-rule="evenodd" clip-rule="evenodd" d="M13.5 26C20.4036 26 26 20.4036 26 13.5C26 6.59644 20.4036 1 13.5 1C6.59644 1 1 6.59644 1 13.5C1 20.4036 6.59644 26 13.5 26ZM13.5 24C19.299 24 24 19.299 24 13.5C24 7.70101 19.299 3 13.5 3C7.70101 3 3 7.70101 3 13.5C3 19.299 7.70101 24 13.5 24Z" fill="currentColor"/><g transform="translate(3, 3)"><g opacity="0.2"><path fill-rule="evenodd" clip-rule="evenodd" d="M11 3C12.1046 3 13 3.89543 13 5V12C13 13.1046 12.1046 14 11 14C9.89543 14 9 13.1046 9 12V5C9 3.89543 9.89543 3 11 3Z" fill="currentColor"/><path d="M13 17C13 18.1046 12.1046 19 11 19C9.89543 19 9 18.1046 9 17C9 15.8954 9.89543 15 11 15C12.1046 15 13 15.8954 13 17Z" fill="currentColor"/></g><path fill-rule="evenodd" clip-rule="evenodd" d="M10.25 2.25C10.6642 2.25 11 2.58579 11 3V12C11 12.4142 10.6642 12.75 10.25 12.75C9.83579 12.75 9.5 12.4142 9.5 12V3C9.5 2.58579 9.83579 2.25 10.25 2.25Z" fill="currentColor"/><path d="M11.5 16.25C11.5 16.9404 10.9404 17.5 10.25 17.5C9.55964 17.5 9 16.9404 9 16.25C9 15.5596 9.55964 15 10.25 15C10.9404 15 11.5 15.5596 11.5 16.25Z" fill="currentColor"/></g><path fill-rule="evenodd" clip-rule="evenodd" d="M13 24.5C19.3513 24.5 24.5 19.3513 24.5 13C24.5 6.64873 19.3513 1.5 13 1.5C6.64873 1.5 1.5 6.64873 1.5 13C1.5 19.3513 6.64873 24.5 13 24.5ZM13 25.5C19.9036 25.5 25.5 19.9036 25.5 13C25.5 6.09644 19.9036 0.5 13 0.5C6.09644 0.5 0.5 6.09644 0.5 13C0.5 19.9036 6.09644 25.5 13 25.5Z" fill="currentColor"/></svg>