<svg width="20" height="20" viewBox="0 0 20 20" fill="none" xmlns="http://www.w3.org/2000/svg"><g><g opacity="0.2"><path d="M11.6983 8.8125C14.3677 8.8125 16.5317 10.0297 16.5317 11.5312C16.5317 13.0328 14.3677 14.25 11.6983 14.25C9.02895 14.25 6.86499 13.0328 6.86499 11.5312C6.86499 10.0297 9.02895 8.8125 11.6983 8.8125Z" fill="currentColor"/><path fill-rule="evenodd" clip-rule="evenodd" d="M8.7709 12.5821C9.46988 12.9753 10.5029 13.25 11.6983 13.25C12.8938 13.25 13.9268 12.9753 14.6257 12.5821C15.3561 12.1713 15.5317 11.7603 15.5317 11.5312C15.5317 11.3022 15.3561 10.8912 14.6257 10.4804C13.9268 10.0872 12.8938 9.8125 11.6983 9.8125C10.5029 9.8125 9.46988 10.0872 8.7709 10.4804C8.04058 10.8912 7.86499 11.3022 7.86499 11.5312C7.86499 11.7603 8.04058 12.1713 8.7709 12.5821ZM7.79038 14.3253C6.77138 13.7521 5.86499 12.8037 5.86499 11.5312C5.86499 10.2588 6.77138 9.31041 7.79038 8.73723C8.84072 8.14641 10.2244 7.8125 11.6983 7.8125C13.1722 7.8125 14.5559 8.14641 15.6063 8.73723C16.6253 9.31041 17.5317 10.2588 17.5317 11.5312C17.5317 12.8037 16.6253 13.7521 15.6063 14.3253C14.5559 14.9161 13.1722 15.25 11.6983 15.25C10.2244 15.25 8.84072 14.9161 7.79038 14.3253Z" fill="currentColor"/><path fill-rule="evenodd" clip-rule="evenodd" d="M3.19995 4.5C3.19995 3.11929 4.31924 2 5.69995 2H7.66149C8.21377 2 8.66149 2.44772 8.66149 3C8.66149 3.55228 8.21377 4 7.66149 4H5.69995C5.42381 4 5.19995 4.22386 5.19995 4.5V6.75C5.19995 7.30228 4.75224 7.75 4.19995 7.75C3.64767 7.75 3.19995 7.30228 3.19995 6.75V4.5ZM14.45 3C14.45 2.44772 14.8977 2 15.45 2H17.7C19.0807 2 20.2 3.11929 20.2 4.5V6.75C20.2 7.30228 19.7522 7.75 19.2 7.75C18.6477 7.75 18.2 7.30228 18.2 6.75V4.5C18.2 4.22386 17.9761 4 17.7 4H15.45C14.8977 4 14.45 3.55228 14.45 3ZM4.19995 12.9615C4.75224 12.9615 5.19995 13.4093 5.19995 13.9615V16.5C5.19995 16.7761 5.42381 17 5.69995 17H7.94995C8.50224 17 8.94995 17.4477 8.94995 18C8.94995 18.5523 8.50224 19 7.94995 19H5.69995C4.31924 19 3.19995 17.8807 3.19995 16.5V13.9615C3.19995 13.4093 3.64767 12.9615 4.19995 12.9615ZM19.2 13.25C19.7522 13.25 20.2 13.6977 20.2 14.25V16.5C20.2 17.8807 19.0807 19 17.7 19H15.45C14.8977 19 14.45 18.5523 14.45 18C14.45 17.4477 14.8977 17 15.45 17H17.7C17.9761 17 18.2 16.7761 18.2 16.5V14.25C18.2 13.6977 18.6477 13.25 19.2 13.25Z" fill="currentColor"/></g><path fill-rule="evenodd" clip-rule="evenodd" d="M6.82582 12.5179C7.61264 12.9605 8.73329 13.25 9.99837 13.25C11.2635 13.25 12.3841 12.9605 13.1709 12.5179C13.9734 12.0665 14.3317 11.5211 14.3317 11.0312C14.3317 10.5414 13.9734 9.99599 13.1709 9.54459C12.3841 9.102 11.2635 8.8125 9.99837 8.8125C8.73329 8.8125 7.61264 9.102 6.82582 9.54459C6.02333 9.99599 5.66504 10.5414 5.66504 11.0312C5.66504 11.5211 6.02333 12.0665 6.82582 12.5179ZM6.33556 13.3895C5.38873 12.8569 4.66504 12.0429 4.66504 11.0312C4.66504 10.0196 5.38873 9.20561 6.33556 8.67302C7.29806 8.13161 8.59408 7.8125 9.99837 7.8125C11.4027 7.8125 12.6987 8.13161 13.6612 8.67302C14.608 9.20561 15.3317 10.0196 15.3317 11.0312C15.3317 12.0429 14.608 12.8569 13.6612 13.3895C12.6987 13.9309 11.4027 14.25 9.99837 14.25C8.59408 14.25 7.29806 13.9309 6.33556 13.3895Z" fill="currentColor"/><path fill-rule="evenodd" clip-rule="evenodd" d="M9.99835 6C10.2745 6 10.4984 6.22386 10.4984 6.5L10.4984 8.3125C10.4984 8.58864 10.2745 8.8125 9.99835 8.8125C9.72221 8.8125 9.49835 8.58864 9.49835 8.3125L9.49835 6.5C9.49835 6.22386 9.72221 6 9.99835 6Z" fill="currentColor"/><path fill-rule="evenodd" clip-rule="evenodd" d="M12.5131 6.31181C12.7839 6.36596 12.9595 6.62938 12.9053 6.90016L12.6032 8.41057C12.5491 8.68135 12.2857 8.85696 12.0149 8.80281C11.7441 8.74865 11.5685 8.48524 11.6227 8.21446L11.9247 6.70404C11.9789 6.43326 12.2423 6.25765 12.5131 6.31181Z" fill="currentColor"/><path fill-rule="evenodd" clip-rule="evenodd" d="M7.48367 6.31181C7.21289 6.36596 7.03729 6.62938 7.09144 6.90016L7.39352 8.41057C7.44768 8.68135 7.71109 8.85696 7.98187 8.80281C8.25265 8.74865 8.42826 8.48524 8.37411 8.21446L8.07202 6.70404C8.01787 6.43326 7.75445 6.25765 7.48367 6.31181Z" fill="currentColor"/><path fill-rule="evenodd" clip-rule="evenodd" d="M4.90778 7.27958C4.67099 7.42166 4.5942 7.72879 4.73628 7.96558L5.64253 9.47599C5.7846 9.71278 6.09173 9.78956 6.32852 9.64749C6.56531 9.50542 6.6421 9.19829 6.50002 8.9615L5.59377 7.45108C5.4517 7.21429 5.14457 7.13751 4.90778 7.27958Z" fill="currentColor"/><path fill-rule="evenodd" clip-rule="evenodd" d="M15.0889 7.27958C15.3257 7.42166 15.4025 7.72879 15.2604 7.96558L14.3542 9.47599C14.2121 9.71278 13.905 9.78956 13.6682 9.64749C13.4314 9.50542 13.3546 9.19829 13.4967 8.9615L14.4029 7.45108C14.545 7.21429 14.8521 7.13751 15.0889 7.27958Z" fill="currentColor"/><path fill-rule="evenodd" clip-rule="evenodd" d="M8.98798 10.7292C8.98798 11.2872 9.44035 11.7396 9.99839 11.7396C10.5564 11.7396 11.0088 11.2872 11.0088 10.7292C11.0088 10.1712 10.5564 9.71879 9.99839 9.71879C9.44035 9.71879 8.98798 10.1712 8.98798 10.7292ZM9.99839 12.7396C8.88807 12.7396 7.98798 11.8395 7.98798 10.7292C7.98798 9.61889 8.88807 8.71879 9.99839 8.71879C11.1087 8.71879 12.0088 9.61889 12.0088 10.7292C12.0088 11.8395 11.1087 12.7396 9.99839 12.7396Z" fill="currentColor"/><path fill-rule="evenodd" clip-rule="evenodd" d="M2 4C2 2.89543 2.89543 2 4 2H5.96154C6.23768 2 6.46154 2.22386 6.46154 2.5C6.46154 2.77614 6.23768 3 5.96154 3H4C3.44772 3 3 3.44772 3 4V6.25C3 6.52614 2.77614 6.75 2.5 6.75C2.22386 6.75 2 6.52614 2 6.25V4ZM13.25 2.5C13.25 2.22386 13.4739 2 13.75 2H16C17.1046 2 18 2.89543 18 4V6.25C18 6.52614 17.7761 6.75 17.5 6.75C17.2239 6.75 17 6.52614 17 6.25V4C17 3.44772 16.5523 3 16 3H13.75C13.4739 3 13.25 2.77614 13.25 2.5ZM2.5 12.9615C2.77614 12.9615 3 13.1854 3 13.4615V16C3 16.5523 3.44772 17 4 17H6.25C6.52614 17 6.75 17.2239 6.75 17.5C6.75 17.7761 6.52614 18 6.25 18H4C2.89543 18 2 17.1046 2 16V13.4615C2 13.1854 2.22386 12.9615 2.5 12.9615ZM17.5 13.25C17.7761 13.25 18 13.4739 18 13.75V16C18 17.1046 17.1046 18 16 18H13.75C13.4739 18 13.25 17.7761 13.25 17.5C13.25 17.2239 13.4739 17 13.75 17H16C16.5523 17 17 16.5523 17 16V13.75C17 13.4739 17.2239 13.25 17.5 13.25Z" fill="currentColor"/></g><path d="M1.15063 1.87794C0.94979 1.6771 0.94979 1.35147 1.15063 1.15063C1.35147 0.949789 1.6771 0.949789 1.87794 1.15063L18.8494 18.1221C19.0502 18.3229 19.0502 18.6485 18.8494 18.8494C18.6485 19.0502 18.3229 19.0502 18.1221 18.8494L1.15063 1.87794Z" fill="currentColor"/></svg>