<svg width="20" height="20" viewBox="0 0 20 20" fill="none" xmlns="http://www.w3.org/2000/svg"><g><g opacity="0.2"><path fill-rule="evenodd" clip-rule="evenodd" d="M10 4.5C10 3.94772 10.4477 3.5 11 3.5C11.5523 3.5 12 3.94772 12 4.5V6.53241C12.5605 6.56898 13.107 6.63604 13.6339 6.73128L14.0194 4.80388C14.1277 4.26232 14.6546 3.91111 15.1961 4.01942C15.7377 4.12773 16.0889 4.65456 15.9806 5.19612L15.5722 7.23826C16.0865 7.41912 16.569 7.63048 17.0123 7.86926L18.1425 5.9855C18.4267 5.51192 19.0409 5.35836 19.5145 5.64251C19.9881 5.92666 20.1416 6.54092 19.8575 7.0145L18.6414 9.04137C19.5002 9.87952 20 10.8859 20 12C20 15.1922 15.8972 17.5 11 17.5C6.10282 17.5 2 15.1922 2 12C2 10.8859 2.49976 9.87952 3.35863 9.04137L2.14251 7.0145C1.85836 6.54092 2.01192 5.92666 2.4855 5.64251C2.95908 5.35836 3.57334 5.51192 3.85749 5.9855L4.98774 7.86926C5.43104 7.63048 5.91346 7.41912 6.42785 7.23826L6.01942 5.19612C5.91111 4.65456 6.26232 4.12773 6.80388 4.01942C7.34544 3.91111 7.87227 4.26232 7.98058 4.80388L8.36606 6.73128C8.89302 6.63604 9.43946 6.56898 10 6.53241V4.5ZM7.99945 8.85479C5.61085 9.44952 4 10.7098 4 12C4 13.7784 7.06062 15.5 11 15.5C14.9394 15.5 18 13.7784 18 12C18 10.7098 16.3891 9.44952 14.0005 8.85479C14.6226 9.55985 15 10.4859 15 11.5C15 13.7091 13.2091 15.5 11 15.5C8.79086 15.5 7 13.7091 7 11.5C7 10.4859 7.37742 9.55985 7.99945 8.85479Z" fill="currentColor"/></g><path fill-rule="evenodd" clip-rule="evenodd" d="M10 16C14.6577 16 18.5 13.8387 18.5 11C18.5 8.16128 14.6577 6 10 6C5.34227 6 1.5 8.16128 1.5 11C1.5 13.8387 5.34227 16 10 16ZM10 7C14.1788 7 17.5 8.86816 17.5 11C17.5 13.1318 14.1788 15 10 15C5.82117 15 2.5 13.1318 2.5 11C2.5 8.86816 5.82117 7 10 7Z" fill="currentColor"/><path d="M9.5 3.5C9.5 3.22386 9.72386 3 10 3C10.2761 3 10.5 3.22386 10.5 3.5L10.5 6.5C10.5 6.77614 10.2761 7 10 7C9.72386 7 9.5 6.77614 9.5 6.5L9.5 3.5Z" fill="currentColor"/><path d="M13.5097 3.90192C13.5639 3.63114 13.8273 3.45553 14.0981 3.50968C14.3688 3.56384 14.5445 3.82725 14.4903 4.09803L13.9903 6.59803C13.9361 6.86881 13.6727 7.04442 13.4019 6.99026C13.1312 6.93611 12.9556 6.6727 13.0097 6.40192L13.5097 3.90192Z" fill="currentColor"/><path d="M6.49029 3.90192C6.43613 3.63114 6.17272 3.45553 5.90194 3.50968C5.63116 3.56384 5.45555 3.82725 5.5097 4.09803L6.0097 6.59803C6.06386 6.86881 6.32727 7.04442 6.59805 6.99026C6.86883 6.93611 7.04444 6.6727 6.99029 6.40192L6.49029 3.90192Z" fill="currentColor"/><path d="M2.42875 5.24271C2.28667 5.00592 1.97954 4.92913 1.74275 5.07121C1.50596 5.21328 1.42918 5.52041 1.57125 5.7572L3.07125 8.2572C3.21333 8.49399 3.52046 8.57077 3.75725 8.4287C3.99404 8.28663 4.07082 7.9795 3.92875 7.74271L2.42875 5.24271Z" fill="currentColor"/><path d="M17.5713 5.24271C17.7133 5.00592 18.0205 4.92913 18.2572 5.07121C18.494 5.21328 18.5708 5.52041 18.4287 5.7572L16.9287 8.2572C16.7867 8.49399 16.4795 8.57077 16.2428 8.4287C16.006 8.28663 15.9292 7.9795 16.0713 7.74271L17.5713 5.24271Z" fill="currentColor"/><path d="M13 10.5C13 12.1569 11.6569 13.5 10 13.5C8.34315 13.5 7 12.1569 7 10.5C7 8.84315 8.34315 7.5 10 7.5C11.6569 7.5 13 8.84315 13 10.5Z" fill="currentColor"/></g><path d="M1.15063 1.87794C0.94979 1.6771 0.94979 1.35147 1.15063 1.15063C1.35147 0.949789 1.6771 0.949789 1.87794 1.15063L18.8494 18.1221C19.0502 18.3229 19.0502 18.6485 18.8494 18.8494C18.6485 19.0502 18.3229 19.0502 18.1221 18.8494L1.15063 1.87794Z" fill="currentColor"/></svg>