<svg width="20" height="20" viewBox="0 0 20 20" fill="none" xmlns="http://www.w3.org/2000/svg"><g><g opacity="0.2"><path fill-rule="evenodd" clip-rule="evenodd" d="M2.91662 8.91032C2.46807 9.23254 2.36566 9.85737 2.68788 10.3059C2.88621 10.582 3.11912 10.8444 3.38335 11.0914L2.25999 12.3274C1.88853 12.7361 1.91872 13.3685 2.32742 13.74C2.73612 14.1115 3.36857 14.0813 3.74002 13.6726L5.04237 12.2397C5.49676 12.4749 5.9873 12.6798 6.50619 12.8521L6.02986 14.7574C5.89592 15.2932 6.22168 15.8362 6.75747 15.9701C7.29327 16.1041 7.8362 15.7783 7.97015 15.2425L8.45007 13.3228C8.95377 13.4037 9.47216 13.4577 10 13.4831V15.5C10 16.0523 10.4477 16.5 11 16.5C11.5523 16.5 12 16.0523 12 15.5V13.4424C12.5215 13.3956 13.0314 13.3207 13.5246 13.2193L13.5301 13.2425L14.0301 15.2425C14.1641 15.7783 14.707 16.1041 15.2428 15.9701C15.7786 15.8362 16.1043 15.2932 15.9704 14.7574L15.4704 12.7574C15.4619 12.7234 15.4517 12.6902 15.44 12.6579C15.8733 12.4883 16.283 12.2945 16.664 12.0782L18.2929 13.7071C18.6834 14.0976 19.3166 14.0976 19.7071 13.7071C20.0976 13.3166 20.0976 12.6834 19.7071 12.2929L18.2666 10.8523C18.4334 10.6769 18.5851 10.4946 18.7207 10.3059C19.0429 9.85737 18.9405 9.23254 18.492 8.91032C18.0434 8.5881 17.4186 8.69052 17.0964 9.13906C16.7925 9.56205 16.3238 9.96553 15.7168 10.3159C14.4234 11.0625 12.6315 11.5 10.7043 11.5C8.7771 11.5 6.98518 11.0625 5.6918 10.3159C5.08478 9.96553 4.61607 9.56205 4.31221 9.13906C3.99 8.69052 3.36517 8.5881 2.91662 8.91032Z" fill="currentColor"/></g><path d="M2.09394 8.01418C1.93283 7.78991 1.98404 7.4775 2.20831 7.31639C2.43258 7.15528 2.745 7.20648 2.90611 7.43076C3.25412 7.91522 3.77651 8.36491 4.44182 8.74895C5.81478 9.54147 7.69282 10 9.70428 10C11.7157 10 13.5938 9.54147 14.9667 8.74895C15.632 8.36491 16.1544 7.91522 16.5024 7.43076C16.6636 7.20648 16.976 7.15528 17.2002 7.31639C17.4245 7.4775 17.4757 7.78991 17.3146 8.01418C16.8783 8.62157 16.2485 9.16369 15.4667 9.61501C13.9345 10.4994 11.8842 11 9.70428 11C7.52431 11 5.47403 10.4994 3.94189 9.61501C3.16002 9.16369 2.53026 8.62157 2.09394 8.01418Z" fill="currentColor"/><path d="M10.5 11C10.5 10.7239 10.2761 10.5 10 10.5C9.72386 10.5 9.5 10.7239 9.5 11L9.5 13.5C9.5 13.7761 9.72386 14 10 14C10.2761 14 10.5 13.7761 10.5 13.5L10.5 11Z" fill="currentColor"/><path d="M6.00971 10.4019C6.06387 10.1311 6.32728 9.95553 6.59806 10.0097C6.86884 10.0638 7.04445 10.3273 6.9903 10.598L6.4903 13.098C6.43614 13.3688 6.17273 13.5444 5.90195 13.4903C5.63117 13.4361 5.45556 13.1727 5.50971 12.9019L6.00971 10.4019Z" fill="currentColor"/><path d="M13.9904 10.4019C13.9362 10.1311 13.6728 9.95553 13.402 10.0097C13.1313 10.0638 12.9557 10.3273 13.0098 10.598L13.5098 13.098C13.564 13.3688 13.8274 13.5444 14.0982 13.4903C14.3689 13.4361 14.5445 13.1727 14.4904 12.9019L13.9904 10.4019Z" fill="currentColor"/><path d="M16.3536 8.64645C16.1583 8.45118 15.8417 8.45118 15.6464 8.64645C15.4512 8.84171 15.4512 9.15829 15.6464 9.35355L17.6464 11.3536C17.8417 11.5488 18.1583 11.5488 18.3536 11.3536C18.5488 11.1583 18.5488 10.8417 18.3536 10.6464L16.3536 8.64645Z" fill="currentColor"/><path d="M3.44776 8.66371C3.63349 8.45936 3.94971 8.44426 4.15406 8.62999C4.35841 8.81572 4.3735 9.13195 4.18777 9.3363L2.37001 11.3363C2.18428 11.5406 1.86806 11.5557 1.66371 11.37C1.45936 11.1843 1.44426 10.8681 1.62999 10.6637L3.44776 8.66371Z" fill="currentColor"/></g><path d="M1.15063 1.87794C0.94979 1.6771 0.94979 1.35147 1.15063 1.15063C1.35147 0.949789 1.6771 0.949789 1.87794 1.15063L18.8494 18.1221C19.0502 18.3229 19.0502 18.6485 18.8494 18.8494C18.6485 19.0502 18.3229 19.0502 18.1221 18.8494L1.15063 1.87794Z" fill="currentColor"/></svg>