<svg xmlns="http://www.w3.org/2000/svg" width="20" height="20" viewBox="0 0 20 20"><g fill="none" fill-rule="evenodd"><ellipse cx="11" cy="12" stroke="#AB92F0" stroke-width="2" rx="4.5" ry="8" transform="rotate(-90 11 12)"/><path stroke="#AB92F0" stroke-linecap="round" stroke-linejoin="round" stroke-width="2" d="M11 4.5v3M15 5l-.5 2.5M7 5l.5 2.5M3 6.5L4.5 9M19 6.5L17.5 9"/><circle cx="11" cy="11.5" r="3" fill="#AB92F0" stroke="#AB92F0" stroke-width="2" transform="rotate(-90 11 11.5)"/><ellipse cx="10" cy="11" stroke="#000" rx="4.5" ry="8" transform="rotate(-90 10 11)"/><path stroke="#000" stroke-linecap="round" stroke-linejoin="round" d="M10 3.5v3M14 4l-.5 2.5M6 4l.5 2.5M2 5.5L3.5 8M18 5.5L16.5 8"/><circle cx="10" cy="10.5" r="2.5" fill="#000" stroke="#000" transform="rotate(-90 10 10.5)"/></g></svg>