<svg width="20" height="20" viewBox="0 0 20 20" fill="none" xmlns="http://www.w3.org/2000/svg"><path opacity="0.2" d="M20 10.75C20 15.5825 16.0825 19.5 11.25 19.5C6.41751 19.5 2.5 15.5825 2.5 10.75C2.5 5.91751 6.41751 2 11.25 2C16.0825 2 20 5.91751 20 10.75Z" fill="currentColor"/><path fill-rule="evenodd" clip-rule="evenodd" d="M9.75 17.5C14.0302 17.5 17.5 14.0302 17.5 9.75C17.5 5.46979 14.0302 2 9.75 2C5.46979 2 2 5.46979 2 9.75C2 14.0302 5.46979 17.5 9.75 17.5ZM9.75 18.5C14.5825 18.5 18.5 14.5825 18.5 9.75C18.5 4.91751 14.5825 1 9.75 1C4.91751 1 1 4.91751 1 9.75C1 14.5825 4.91751 18.5 9.75 18.5Z" fill="currentColor"/><path d="M8.5 7.25C8.5 7.94036 7.94036 8.5 7.25 8.5C6.55964 8.5 6 7.94036 6 7.25C6 6.55964 6.55964 6 7.25 6C7.94036 6 8.5 6.55964 8.5 7.25Z" fill="currentColor"/><path d="M14 7.25C14 7.94036 13.4404 8.5 12.75 8.5C12.0596 8.5 11.5 7.94036 11.5 7.25C11.5 6.55964 12.0596 6 12.75 6C13.4404 6 14 6.55964 14 7.25Z" fill="currentColor"/><path fill-rule="evenodd" clip-rule="evenodd" d="M12.3426 13.7898C12.5004 14.0119 12.8079 14.067 13.0333 13.912C13.2608 13.7556 13.3185 13.4443 13.162 13.2167L12.75 13.5C13.162 13.2167 13.1618 13.2165 13.1616 13.2162L13.1612 13.2156L13.1603 13.2143L13.1584 13.2115L13.1536 13.2048L13.1406 13.1872C13.1304 13.1737 13.117 13.1566 13.1003 13.1366C13.0669 13.0966 13.0201 13.0446 12.9584 12.9848C12.835 12.8652 12.6526 12.7149 12.3999 12.5678C11.8909 12.2717 11.1162 12 10 12C8.88386 12 8.10908 12.2717 7.60013 12.5678C7.34744 12.7149 7.16498 12.8652 7.04159 12.9848C6.97996 13.0446 6.93317 13.0966 6.89975 13.1366C6.88304 13.1566 6.86967 13.1737 6.85944 13.1872L6.84643 13.2048L6.84165 13.2115L6.83968 13.2143L6.8388 13.2156L6.83839 13.2162C6.83819 13.2165 6.83799 13.2167 7.25001 13.5L6.83799 13.2167C6.68155 13.4443 6.7392 13.7556 6.96675 13.912C7.19211 14.067 7.49959 14.0119 7.65746 13.7898C7.65875 13.7881 7.66204 13.7839 7.66741 13.7775C7.67965 13.7628 7.70268 13.7367 7.73774 13.7027C7.80771 13.6349 7.92603 13.5352 8.10302 13.4322C8.45344 13.2283 9.05367 13 10 13C10.9464 13 11.5466 13.2283 11.897 13.4322C12.074 13.5352 12.1923 13.6349 12.2623 13.7027C12.2973 13.7367 12.3204 13.7628 12.3326 13.7775C12.338 13.7839 12.3413 13.7881 12.3426 13.7898Z" fill="currentColor"/><path d="M1.15063 1.87794C0.94979 1.6771 0.94979 1.35147 1.15063 1.15063C1.35147 0.949789 1.6771 0.949789 1.87794 1.15063L18.8494 18.1221C19.0502 18.3229 19.0502 18.6485 18.8494 18.8494C18.6485 19.0502 18.3229 19.0502 18.1221 18.8494L1.15063 1.87794Z" fill="currentColor"/></svg>