<svg width="20" height="20" viewBox="0 0 26 26" fill="none" xmlns="http://www.w3.org/2000/svg"><path opacity="0.2" fill-rule="evenodd" clip-rule="evenodd" d="M13.5 26C20.4036 26 26 20.4036 26 13.5C26 6.59644 20.4036 1 13.5 1C6.59644 1 1 6.59644 1 13.5C1 20.4036 6.59644 26 13.5 26ZM13.5 24C19.299 24 24 19.299 24 13.5C24 7.70101 19.299 3 13.5 3C7.70101 3 3 7.70101 3 13.5C3 19.299 7.70101 24 13.5 24Z" fill="currentColor"/><g transform="translate(3, 3)"><path opacity="0.2" d="M20 10.75C20 15.5825 16.0825 19.5 11.25 19.5C6.41751 19.5 2.5 15.5825 2.5 10.75C2.5 5.91751 6.41751 2 11.25 2C16.0825 2 20 5.91751 20 10.75Z" fill="currentColor"/><path fill-rule="evenodd" clip-rule="evenodd" d="M9.75 17.5C14.0302 17.5 17.5 14.0302 17.5 9.75C17.5 5.46979 14.0302 2 9.75 2C5.46979 2 2 5.46979 2 9.75C2 14.0302 5.46979 17.5 9.75 17.5ZM9.75 18.5C14.5825 18.5 18.5 14.5825 18.5 9.75C18.5 4.91751 14.5825 1 9.75 1C4.91751 1 1 4.91751 1 9.75C1 14.5825 4.91751 18.5 9.75 18.5Z" fill="currentColor"/><path fill-rule="evenodd" clip-rule="evenodd" d="M5.85591 11.6923C5.95066 11.5709 6.09605 11.5 6.25001 11.5H13.75C13.904 11.5 14.0494 11.5709 14.1441 11.6923C14.2389 11.8137 14.2724 11.9719 14.2351 12.1213L13.75 12C14.2351 12.1213 14.2351 12.1211 14.2351 12.1213L14.2346 12.1233L14.2337 12.1267L14.2309 12.1375L14.2209 12.1747C14.2123 12.2061 14.1996 12.2506 14.1827 12.3064C14.1489 12.4177 14.0979 12.5744 14.0277 12.7615C13.8881 13.134 13.6693 13.635 13.3537 14.14C12.7313 15.1358 11.6616 16.25 10 16.25C8.33842 16.25 7.26871 15.1358 6.64633 14.14C6.33069 13.635 6.11196 13.134 5.97228 12.7615C5.90213 12.5744 5.85115 12.4177 5.81735 12.3064C5.80043 12.2506 5.78777 12.2061 5.77913 12.1747L5.76913 12.1375L5.76632 12.1267L5.76545 12.1233L5.76515 12.1221C5.7651 12.1219 5.76494 12.1213 6.25001 12L5.76515 12.1221C5.72781 11.9727 5.76116 11.8137 5.85591 11.6923ZM6.9429 12.5C7.06688 12.8178 7.2478 13.2156 7.49433 13.61C8.04382 14.4892 8.84911 15.25 10 15.25C11.1509 15.25 11.9562 14.4892 12.5057 13.61C12.7522 13.2156 12.9331 12.8178 13.0571 12.5H6.9429Z" fill="currentColor"/><path d="M8.5 7.25C8.5 7.94036 7.94036 8.5 7.25 8.5C6.55964 8.5 6 7.94036 6 7.25C6 6.55964 6.55964 6 7.25 6C7.94036 6 8.5 6.55964 8.5 7.25Z" fill="currentColor"/><path d="M14 7.25C14 7.94036 13.4404 8.5 12.75 8.5C12.0596 8.5 11.5 7.94036 11.5 7.25C11.5 6.55964 12.0596 6 12.75 6C13.4404 6 14 6.55964 14 7.25Z" fill="currentColor"/></g><path fill-rule="evenodd" clip-rule="evenodd" d="M13 24.5C19.3513 24.5 24.5 19.3513 24.5 13C24.5 6.64873 19.3513 1.5 13 1.5C6.64873 1.5 1.5 6.64873 1.5 13C1.5 19.3513 6.64873 24.5 13 24.5ZM13 25.5C19.9036 25.5 25.5 19.9036 25.5 13C25.5 6.09644 19.9036 0.5 13 0.5C6.09644 0.5 0.5 6.09644 0.5 13C0.5 19.9036 6.09644 25.5 13 25.5Z" fill="currentColor"/></svg>