<svg width="20" height="20" viewBox="0 0 26 26" fill="none" xmlns="http://www.w3.org/2000/svg"><path opacity="0.2" fill-rule="evenodd" clip-rule="evenodd" d="M13.5 26C20.4036 26 26 20.4036 26 13.5C26 6.59644 20.4036 1 13.5 1C6.59644 1 1 6.59644 1 13.5C1 20.4036 6.59644 26 13.5 26ZM13.5 24C19.299 24 24 19.299 24 13.5C24 7.70101 19.299 3 13.5 3C7.70101 3 3 7.70101 3 13.5C3 19.299 7.70101 24 13.5 24Z" fill="currentColor"/><g transform="translate(3, 3)"><g opacity="0.2"><path d="M11.6399 10.7474C12.0952 11.1458 12.0952 11.8541 11.6399 12.2525L6.15851 17.0488C5.51193 17.6145 4.50001 17.1553 4.50001 16.2962L4.50001 6.70373C4.50001 5.84457 5.51193 5.38539 6.15851 5.95115L11.6399 10.7474Z" fill="currentColor"/><path fill-rule="evenodd" clip-rule="evenodd" d="M11.9692 12.6288L6.48776 17.4251C5.51789 18.2737 4.00001 17.5849 4.00001 16.2962V6.70372C4.00001 5.41499 5.51789 4.72622 6.48776 5.57486L11.9692 10.3711C12.6522 10.9687 12.6522 12.0312 11.9692 12.6288ZM11.6399 12.2525C12.0952 11.8541 12.0952 11.1458 11.6399 10.7474L6.15851 5.95115C5.51193 5.38539 4.50001 5.84457 4.50001 6.70372L4.50001 16.2962C4.50001 17.1553 5.51193 17.6145 6.15851 17.0488L11.6399 12.2525Z" fill="currentColor"/><path d="M18.6399 10.7474C19.0952 11.1458 19.0952 11.8541 18.6399 12.2525L13.1585 17.0488C12.5119 17.6145 11.5 17.1553 11.5 16.2962V6.70373C11.5 5.84457 12.5119 5.38539 13.1585 5.95115L18.6399 10.7474Z" fill="currentColor"/><path fill-rule="evenodd" clip-rule="evenodd" d="M18.9692 12.6288L13.4878 17.4251C12.5179 18.2737 11 17.5849 11 16.2962V6.70372C11 5.41499 12.5179 4.72622 13.4878 5.57486L18.9692 10.3711C19.6522 10.9687 19.6522 12.0312 18.9692 12.6288ZM18.6399 12.2525C19.0952 11.8541 19.0952 11.1458 18.6399 10.7474L13.1585 5.95115C12.5119 5.38539 11.5 5.84457 11.5 6.70372V16.2962C11.5 17.1553 12.5119 17.6145 13.1585 17.0488L18.6399 12.2525Z" fill="currentColor"/></g><path fill-rule="evenodd" clip-rule="evenodd" d="M3.5 14.7962L8.98141 9.99996L3.50001 5.20373L3.5 14.7962ZM9.63992 10.7525C10.0952 10.3541 10.0952 9.64579 9.63992 9.24738L4.15851 4.45115C3.51193 3.88539 2.50001 4.34457 2.50001 5.20373L2.50001 14.7962C2.50001 15.6554 3.51193 16.1145 4.15851 15.5488L9.63992 10.7525Z" fill="currentColor"/><path fill-rule="evenodd" clip-rule="evenodd" d="M10.5 14.7962L15.9814 9.99996L10.5 5.20373L10.5 14.7962ZM16.6399 10.7525C17.0952 10.3541 17.0952 9.64579 16.6399 9.24738L11.1585 4.45115C10.5119 3.88539 9.50001 4.34457 9.50001 5.20373V14.7962C9.50001 15.6554 10.5119 16.1145 11.1585 15.5488L16.6399 10.7525Z" fill="currentColor"/></g><path fill-rule="evenodd" clip-rule="evenodd" d="M13 24.5C19.3513 24.5 24.5 19.3513 24.5 13C24.5 6.64873 19.3513 1.5 13 1.5C6.64873 1.5 1.5 6.64873 1.5 13C1.5 19.3513 6.64873 24.5 13 24.5ZM13 25.5C19.9036 25.5 25.5 19.9036 25.5 13C25.5 6.09644 19.9036 0.5 13 0.5C6.09644 0.5 0.5 6.09644 0.5 13C0.5 19.9036 6.09644 25.5 13 25.5Z" fill="currentColor"/></svg>