<svg width="20" height="20" viewBox="0 0 20 20" fill="none" xmlns="http://www.w3.org/2000/svg"><g opacity="0.8"><path d="M11.8071 9.31684C12.1657 9.70105 12.1657 10.2973 11.8071 10.6815L5.63107 17.2986C5.01179 17.9621 3.90002 17.5239 3.90002 16.6163V3.38202C3.90002 2.4744 5.01179 2.03618 5.63107 2.6997L11.8071 9.31684Z" fill="currentColor"/><path d="M18.9632 9.31684C19.3218 9.70105 19.3218 10.2973 18.9632 10.6815L12.7872 17.2986C12.1679 17.9621 11.0561 17.5239 11.0561 16.6163V3.38202C11.0561 2.4744 12.1679 2.03618 12.7872 2.6997L18.9632 9.31684Z" fill="currentColor"/></g><path fill-rule="evenodd" clip-rule="evenodd" d="M3.40002 16.6163L9.57602 9.99916L3.40002 3.38202L3.40002 16.6163ZM10.3071 10.6815C10.6657 10.2973 10.6657 9.70105 10.3071 9.31684L4.13107 2.6997C3.51179 2.03618 2.40002 2.4744 2.40002 3.38202V16.6163C2.40002 17.5239 3.51179 17.9621 4.13107 17.2986L10.3071 10.6815Z" fill="black"/><path fill-rule="evenodd" clip-rule="evenodd" d="M10.5561 16.6163L16.7321 9.99916L10.5561 3.38202V16.6163ZM17.4632 10.6815C17.8218 10.2973 17.8218 9.70105 17.4632 9.31684L11.2872 2.6997C10.6679 2.03618 9.55614 2.4744 9.55614 3.38202V16.6163C9.55614 17.5239 10.6679 17.9621 11.2872 17.2986L17.4632 10.6815Z" fill="black"/></svg>