<svg width="20" height="20" viewBox="0 0 26 26" fill="none" xmlns="http://www.w3.org/2000/svg"><path opacity="0.2" d="M26 14C26 20.6274 20.6274 26 14 26C7.37258 26 2 20.6274 2 14C2 7.37258 7.37258 2 14 2C20.6274 2 26 7.37258 26 14Z" fill="currentColor"/><g transform="translate(3, 3)"><path d="M6.5 12C6.22386 12 6 11.7761 6 11.5C6 11.2239 6.22386 11 6.5 11H13.5C13.7761 11 14 11.2239 14 11.5C14 11.7761 13.7761 12 13.5 12H6.5Z" fill="currentColor"/><path d="M6.5 15C6.22386 15 6 14.7761 6 14.5C6 14.2239 6.22386 14 6.5 14H13.5C13.7761 14 14 14.2239 14 14.5C14 14.7761 13.7761 15 13.5 15H6.5Z" fill="currentColor"/><path fill-rule="evenodd" clip-rule="evenodd" d="M11.1854 1H4.5C3.67157 1 3 1.67157 3 2.5V17.5C3 18.3284 3.67157 19 4.5 19H15.5C16.3284 19 17 18.3284 17 17.5V7.20179C17 6.82623 16.8591 6.46433 16.6052 6.18761L12.2906 1.48582C12.0065 1.17624 11.6056 1 11.1854 1ZM4 2.5C4 2.22386 4.22386 2 4.5 2H11.1854C11.3255 2 11.4591 2.05875 11.5538 2.16194L15.8684 6.86373C15.953 6.95597 16 7.0766 16 7.20179V17.5C16 17.7761 15.7761 18 15.5 18H4.5C4.22386 18 4 17.7761 4 17.5V2.5Z" fill="currentColor"/><path d="M11 7H16.5C16.7761 7 17 7.22386 17 7.5C17 7.77614 16.7761 8 16.5 8H10.5C10.2239 8 10 7.77614 10 7.5V1.5C10 1.22386 10.2239 1 10.5 1C10.7761 1 11 1.22386 11 1.5V7Z" fill="currentColor"/></g><path fill-rule="evenodd" clip-rule="evenodd" d="M13 24.5C19.3513 24.5 24.5 19.3513 24.5 13C24.5 6.64873 19.3513 1.5 13 1.5C6.64873 1.5 1.5 6.64873 1.5 13C1.5 19.3513 6.64873 24.5 13 24.5ZM13 25.5C19.9036 25.5 25.5 19.9036 25.5 13C25.5 6.09644 19.9036 0.5 13 0.5C6.09644 0.5 0.5 6.09644 0.5 13C0.5 19.9036 6.09644 25.5 13 25.5Z" fill="currentColor"/></svg>