<svg xmlns="http://www.w3.org/2000/svg" width="20" height="20" viewBox="0 0 20 20"><g fill="none" fill-rule="evenodd" stroke-linecap="round"><path fill="#AB92F0" stroke="#AB92F0" d="M6.5 2.5h6.685a1 1 0 0 1 .737.324l4.315 4.702a1 1 0 0 1 .263.676V18.5a1 1 0 0 1-1 1h-11a1 1 0 0 1-1-1v-15a1 1 0 0 1 1-1z"/><path stroke="#000" d="M6.5 10.5h7m-7 3h7m-9-12h6.685a1 1 0 0 1 .737.324l4.315 4.702a1 1 0 0 1 .263.676V17.5a1 1 0 0 1-1 1h-11a1 1 0 0 1-1-1v-15a1 1 0 0 1 1-1z"/><path stroke="#000" stroke-linejoin="round" d="M10.5 1.5v6h6"/></g></svg>