<svg xmlns="http://www.w3.org/2000/svg" width="20" height="20" viewBox="0 0 20 20">
  <g fill="none" fill-rule="evenodd">
    <rect width="17" height="13" x="2.5" y="6" fill="#AB92F0" stroke="#AB92F0" stroke-linecap="round" rx="1.5"/>
    <g stroke="#000" transform="translate(1 3)">
      <rect width="3" height="3" x="1.5" y="1" rx="1.5"/>
      <rect width="3" height="3" x="1.5" y="4" rx="1.5"/>
      <rect width="3" height="3" x="1.5" y="7" rx="1.5"/>
      <rect width="3" height="3" x="1.5" y="10" rx="1.5"/>
      <path stroke-linecap="square" d="M5 .5L5 13.5M1 2.5L1 12.5"/>
    </g>
    <g stroke="#000" transform="matrix(-1 0 0 1 19 3)">
      <rect width="3" height="3" x="1.5" y="1" rx="1.5"/>
      <rect width="3" height="3" x="1.5" y="4" rx="1.5"/>
      <rect width="3" height="3" x="1.5" y="7" rx="1.5"/>
      <rect width="3" height="3" x="1.5" y="10" rx="1.5"/>
      <path stroke-linecap="square" d="M5 .5L5 13.5M1 1.5L1 12.5"/>
    </g>
    <rect width="17" height="13" x="1.5" y="3.5" stroke="#000" stroke-linecap="round" rx="1.5"/>
  </g>
</svg>
