<svg width="20" height="20" viewBox="0 0 20 20" fill="none" xmlns="http://www.w3.org/2000/svg"><g opacity="0.2"><path d="M11.4983 18.5682C15.1259 18.5682 18 15.6275 18 11.9999C18 11.9999 18 8.58436 15.5899 5.60936C15.5466 5.55587 15.463 5.56162 15.4276 5.62065L14.1104 7.81588C14.0667 7.88874 13.9573 7.87759 13.9289 7.79753C13.768 7.34554 13.3622 6.2361 13 5.49992C12.5886 4.66393 11.5112 3.52205 11.1333 3.13474C11.0771 3.07709 10.9804 3.10661 10.9651 3.18569C10.8538 3.76019 10.4859 5.52807 10 6.49992C9.5233 7.45332 8.8291 8.5106 8.58709 8.87131C8.54654 8.93174 8.45745 8.92901 8.42001 8.86661L7.07652 6.62745C7.03998 6.56655 6.95334 6.56224 6.91172 6.61979C5.48032 8.59873 5 11.0198 5 11.9999C5 15.6275 7.87072 18.5682 11.4983 18.5682Z" fill="currentColor"/><path fill-rule="evenodd" clip-rule="evenodd" d="M10.4742 3.0906C10.5652 2.62114 11.1491 2.43493 11.4912 2.78558C11.6848 2.98397 12.058 3.37607 12.4371 3.82761C12.8094 4.27117 13.2148 4.80401 13.4486 5.27919C13.677 5.74335 13.9193 6.34339 14.1104 6.8442L14.9988 5.36342C15.2134 5.00572 15.7173 4.97233 15.9784 5.29464C17.2421 6.85452 17.8708 8.52547 18.1843 9.80095C18.3413 10.4396 18.4201 10.9827 18.4597 11.3687C18.4796 11.5618 18.4896 11.716 18.4947 11.8237C18.4973 11.8775 18.4986 11.9197 18.4993 11.9494L18.4999 11.9844L18.5 11.9947L18.5 11.9979L18.5 11.9991C18.5 11.9993 18.5 11.9999 18 11.9999L18.5 11.9991C18.5 15.8961 15.4086 19.0682 11.4983 19.0682C7.58761 19.0682 4.5 15.8966 4.5 11.9999C4.5 10.9258 5.00727 8.39961 6.50659 6.32677C6.76183 5.97389 7.28706 6.00654 7.50526 6.37022L8.51965 8.06086C8.82795 7.57793 9.24023 6.90145 9.55279 6.27633C10.0026 5.37675 10.3601 3.67949 10.4742 3.0906Z" fill="currentColor"/></g><path fill-rule="evenodd" clip-rule="evenodd" d="M13.0896 14.0235C13.1138 13.7295 13.2436 11.2132 10.713 9.74544C10.4354 9.58442 10.0764 9.67043 9.90418 9.94599L8.93994 11.4887L8.13804 10.5193C7.96202 10.3066 7.64685 10.2768 7.43407 10.4528C7.42359 10.4614 7.41308 10.4709 7.4035 10.4802C5.88882 11.9378 5.98835 13.7752 6.00911 14.0237C6.02193 15.968 7.60202 17.5402 9.54934 17.5402C11.4967 17.5402 13.0769 15.9679 13.0896 14.0235ZM7.73685 11.6033C7.71579 11.6308 7.69532 11.6583 7.67543 11.6859C6.90622 12.7533 7.00068 13.8897 7.00616 13.9465C7.0079 13.9645 7.00899 13.9839 7.00902 14.0046C7.01154 15.4054 8.14791 16.5402 9.54933 16.5402C10.9507 16.5402 12.0871 15.4054 12.0896 14.0046C12.0897 13.9907 12.0901 13.9713 12.0925 13.9468C12.0988 13.8818 12.2555 12.0938 10.6188 10.8781C10.5922 10.8584 10.5651 10.8388 10.5376 10.8193L9.494 12.489C9.27704 12.8362 8.78381 12.8689 8.52288 12.5535L7.73685 11.6033Z" fill="currentColor"/><path fill-rule="evenodd" clip-rule="evenodd" d="M8.97424 2.0906C9.06519 1.62114 9.64907 1.43493 9.9912 1.78558C10.1848 1.98397 10.558 2.37607 10.9371 2.82761C11.3094 3.27117 11.7148 3.80401 11.9486 4.27919C12.177 4.74335 12.4193 5.34339 12.6104 5.8442L13.4988 4.36342C13.7134 4.00572 14.2173 3.97233 14.4784 4.29464C15.7421 5.85452 16.3708 7.52547 16.6843 8.80095C16.8413 9.43964 16.9201 9.98272 16.9597 10.3687C16.9796 10.5618 16.9896 10.716 16.9947 10.8237C16.9973 10.8775 16.9986 10.9197 16.9993 10.9494L16.9999 10.9844L17 10.9947L17 10.9979L17 10.9991C17 14.8961 13.9086 18.0682 9.99829 18.0682C6.08761 18.0682 3 14.8966 3 10.9999C3 9.92577 3.50727 7.39961 5.00659 5.32677C5.26183 4.97389 5.78706 5.00654 6.00526 5.37022L7.01965 7.06086C7.32795 6.57793 7.74023 5.90145 8.05279 5.27633C8.50258 4.37675 8.86014 2.67949 8.97424 2.0906ZM9.79656 3.04028C9.61597 3.84062 9.31785 4.98227 8.94721 5.72355C8.45525 6.70748 7.74565 7.7872 7.50229 8.14991C7.25501 8.51847 6.71483 8.49648 6.49127 8.12387L5.47303 6.42681C4.37601 8.20011 4 10.193 4 10.9999C4 14.3584 6.65383 17.0682 9.99829 17.0682C13.3429 17.0682 15.9997 14.3584 16 11.0005C16 11.0003 16 11.0007 16 11.0005L16 10.9957L15.9995 10.9723C15.999 10.9505 15.998 10.9164 15.9959 10.8711C15.9915 10.7803 15.9828 10.6444 15.965 10.4709C15.9293 10.1234 15.8575 9.62669 15.7132 9.03962C15.4553 7.99022 14.9686 6.66353 14.0523 5.38456L13.0392 7.07314C12.7767 7.51065 12.127 7.44063 11.9578 6.96516C11.7962 6.51107 11.3991 5.42747 11.0514 4.72069C10.8738 4.35987 10.5348 3.90378 10.1712 3.47057C10.0434 3.31838 9.91598 3.17296 9.79656 3.04028Z" fill="currentColor"/></svg>