<svg width="20" height="20" viewBox="0 0 26 26" fill="none" xmlns="http://www.w3.org/2000/svg"><path opacity="0.2" d="M26 14C26 20.6274 20.6274 26 14 26C7.37258 26 2 20.6274 2 14C2 7.37258 7.37258 2 14 2C20.6274 2 26 7.37258 26 14Z" fill="currentColor"/><g transform="translate(3, 3)"><path fill-rule="evenodd" clip-rule="evenodd" d="M13.0896 14.0235C13.1138 13.7295 13.2436 11.2132 10.713 9.74544C10.4354 9.58442 10.0764 9.67043 9.90418 9.94599L8.93994 11.4887L8.13804 10.5193C7.96202 10.3066 7.64685 10.2768 7.43407 10.4528C7.42359 10.4614 7.41308 10.4709 7.4035 10.4802C5.88882 11.9378 5.98835 13.7752 6.00911 14.0237C6.02193 15.968 7.60202 17.5402 9.54934 17.5402C11.4967 17.5402 13.0769 15.9679 13.0896 14.0235ZM7.73685 11.6033C7.71579 11.6308 7.69532 11.6583 7.67543 11.6859C6.90622 12.7533 7.00068 13.8897 7.00616 13.9465C7.0079 13.9645 7.00899 13.9839 7.00902 14.0046C7.01154 15.4054 8.14791 16.5402 9.54933 16.5402C10.9507 16.5402 12.0871 15.4054 12.0896 14.0046C12.0897 13.9907 12.0901 13.9713 12.0925 13.9468C12.0988 13.8818 12.2555 12.0938 10.6188 10.8781C10.5922 10.8584 10.5651 10.8388 10.5376 10.8193L9.494 12.489C9.27704 12.8362 8.78381 12.8689 8.52288 12.5535L7.73685 11.6033Z" fill="currentColor"/><path fill-rule="evenodd" clip-rule="evenodd" d="M8.97424 2.0906C9.06519 1.62114 9.64907 1.43493 9.9912 1.78558C10.1848 1.98397 10.558 2.37607 10.9371 2.82761C11.3094 3.27117 11.7148 3.80401 11.9486 4.27919C12.177 4.74335 12.4193 5.34339 12.6104 5.8442L13.4988 4.36342C13.7134 4.00572 14.2173 3.97233 14.4784 4.29464C15.7421 5.85452 16.3708 7.52547 16.6843 8.80095C16.8413 9.43964 16.9201 9.98272 16.9597 10.3687C16.9796 10.5618 16.9896 10.716 16.9947 10.8237C16.9973 10.8775 16.9986 10.9197 16.9993 10.9494L16.9999 10.9844L17 10.9947L17 10.9979L17 10.9991C17 14.8961 13.9086 18.0682 9.99829 18.0682C6.08761 18.0682 3 14.8966 3 10.9999C3 9.92577 3.50727 7.39961 5.00659 5.32677C5.26183 4.97389 5.78706 5.00654 6.00526 5.37022L7.01965 7.06086C7.32795 6.57793 7.74023 5.90145 8.05279 5.27633C8.50258 4.37675 8.86014 2.67949 8.97424 2.0906ZM9.79656 3.04028C9.61597 3.84062 9.31785 4.98227 8.94721 5.72355C8.45525 6.70748 7.74565 7.7872 7.50229 8.14991C7.25501 8.51847 6.71483 8.49648 6.49127 8.12387L5.47303 6.42681C4.37601 8.20011 4 10.193 4 10.9999C4 14.3584 6.65383 17.0682 9.99829 17.0682C13.3429 17.0682 15.9997 14.3584 16 11.0005C16 11.0003 16 11.0007 16 11.0005L16 10.9957L15.9995 10.9723C15.999 10.9505 15.998 10.9164 15.9959 10.8711C15.9915 10.7803 15.9828 10.6444 15.965 10.4709C15.9293 10.1234 15.8575 9.62669 15.7132 9.03962C15.4553 7.99022 14.9686 6.66353 14.0523 5.38456L13.0392 7.07314C12.7767 7.51065 12.127 7.44063 11.9578 6.96516C11.7962 6.51107 11.3991 5.42747 11.0514 4.72069C10.8738 4.35987 10.5348 3.90378 10.1712 3.47057C10.0434 3.31838 9.91598 3.17296 9.79656 3.04028Z" fill="currentColor"/></g><path fill-rule="evenodd" clip-rule="evenodd" d="M13 24.5C19.3513 24.5 24.5 19.3513 24.5 13C24.5 6.64873 19.3513 1.5 13 1.5C6.64873 1.5 1.5 6.64873 1.5 13C1.5 19.3513 6.64873 24.5 13 24.5ZM13 25.5C19.9036 25.5 25.5 19.9036 25.5 13C25.5 6.09644 19.9036 0.5 13 0.5C6.09644 0.5 0.5 6.09644 0.5 13C0.5 19.9036 6.09644 25.5 13 25.5Z" fill="currentColor"/></svg>