<svg xmlns="http://www.w3.org/2000/svg" width="20" height="20" viewBox="0 0 20 20">
  <g fill="none" fill-rule="evenodd">
    <path fill="#AB92F0" stroke="#AB92F0" d="M8.35777366,5.35821022 C7.23332938,5.82330111 6.5,6.92020277 6.5,8.13703656 L6.5,12.5225332 C6.5,12.6852638 6.5414054,12.8453186 6.62031946,12.9876346 C6.87718784,13.4508786 7.46095428,13.6181791 7.92419829,13.3613107 L8.15111793,13.2354839 C9.50856768,12.4827793 11.158099,12.4827793 12.5155487,13.2354839 L12.969388,13.4871374 C14.0251823,14.0725744 15.3081511,14.0725744 16.3639453,13.4871374 L17.0980631,13.0800698 C17.963239,12.6003305 18.5,11.6889396 18.5,10.6996575 L18.5,6.6380621 C18.5,6.52921585 18.4838978,6.42096836 18.4522164,6.31683483 C18.2748075,5.73371034 17.6582733,5.40481288 17.0751488,5.58222181 L16.1821205,5.85391541 C15.1856423,6.15708245 14.1148536,6.10518881 13.1523611,5.70708417 L11.6710823,5.09439994 C10.8144424,4.74007788 9.85222428,4.74007788 8.99558438,5.09439994 L8.35777366,5.35821022 Z"/>
    <rect width="1" height="15" x="6.5" y="4.5" fill="#AB92F0" stroke="#AB92F0" rx=".5"/>
    <path stroke="#000" d="M6.35777366,3.35821022 C5.23332938,3.82330111 4.5,4.92020277 4.5,6.13703656 L4.5,10.5225332 C4.5,10.6852638 4.5414054,10.8453186 4.62031946,10.9876346 C4.87718784,11.4508786 5.46095428,11.6181791 5.92419829,11.3613107 L6.15111793,11.2354839 C7.50856768,10.4827793 9.15809899,10.4827793 10.5155487,11.2354839 L10.969388,11.4871374 C12.0251823,12.0725744 13.3081511,12.0725744 14.3639453,11.4871374 L15.0980631,11.0800698 C15.963239,10.6003305 16.5,9.68893964 16.5,8.69965752 L16.5,4.6380621 C16.5,4.52921585 16.4838978,4.42096836 16.4522164,4.31683483 C16.2748075,3.73371034 15.6582733,3.40481288 15.0751488,3.58222181 L14.1821205,3.85391541 C13.1856423,4.15708245 12.1148536,4.10518881 11.1523611,3.70708417 L9.67108229,3.09439994 C8.81444239,2.74007788 7.85222428,2.74007788 6.99558438,3.09439994 L6.35777366,3.35821022 Z"/>
    <rect width="1" height="15" x="4.5" y="2.5" fill="#FFF" stroke="#000" rx=".5"/>
  </g>
</svg>
