<svg width="20" height="20" viewBox="0 0 20 20" fill="none" xmlns="http://www.w3.org/2000/svg"><g opacity="0.2"><path d="M4 4.5C4 3.94772 4.44772 3.5 5 3.5H18.0793C18.8884 3.5 19.3625 4.41068 18.8986 5.07346L16.6004 8.35663C16.5401 8.44271 16.5401 8.55729 16.6004 8.64337L18.8986 11.9265C19.3625 12.5893 18.8884 13.5 18.0793 13.5H5C4.44772 13.5 4 13.0523 4 12.5V4.5Z" fill="currentColor"/><path fill-rule="evenodd" clip-rule="evenodd" d="M5 4.5C5.55228 4.5 6 4.94772 6 5.5L6 18.5C6 19.0523 5.55228 19.5 5 19.5C4.44772 19.5 4 19.0523 4 18.5L4 5.5C4 4.94772 4.44772 4.5 5 4.5Z" fill="currentColor"/></g><path fill-rule="evenodd" clip-rule="evenodd" d="M16.5793 3L3.5 3V11H16.5793L14.2811 7.71683C13.9798 7.28643 13.9798 6.71357 14.2811 6.28317L16.5793 3ZM3.5 2C2.94772 2 2.5 2.44772 2.5 3V11C2.5 11.5523 2.94772 12 3.5 12H16.5793C17.3884 12 17.8625 11.0893 17.3986 10.4265L15.1004 7.14337C15.0401 7.05729 15.0401 6.94271 15.1004 6.85663L17.3986 3.57346C17.8625 2.91068 17.3884 2 16.5793 2H3.5Z" fill="currentColor"/><path fill-rule="evenodd" clip-rule="evenodd" d="M3 3C3.27614 3 3.5 3.22386 3.5 3.5L3.5 17.5C3.5 17.7761 3.27614 18 3 18C2.72386 18 2.5 17.7761 2.5 17.5L2.5 3.5C2.5 3.22386 2.72386 3 3 3Z" fill="currentColor"/><path d="M1.15063 1.87794C0.94979 1.6771 0.94979 1.35147 1.15063 1.15063C1.35147 0.949789 1.6771 0.949789 1.87794 1.15063L18.8494 18.1221C19.0502 18.3229 19.0502 18.6485 18.8494 18.8494C18.6485 19.0502 18.3229 19.0502 18.1221 18.8494L1.15063 1.87794Z" fill="currentColor"/></svg>