<svg width="20" height="20" viewBox="0 0 26 26" fill="none" xmlns="http://www.w3.org/2000/svg"><path opacity="0.2" fill-rule="evenodd" clip-rule="evenodd" d="M13.5 26C20.4036 26 26 20.4036 26 13.5C26 6.59644 20.4036 1 13.5 1C6.59644 1 1 6.59644 1 13.5C1 20.4036 6.59644 26 13.5 26ZM13.5 24C19.299 24 24 19.299 24 13.5C24 7.70101 19.299 3 13.5 3C7.70101 3 3 7.70101 3 13.5C3 19.299 7.70101 24 13.5 24Z" fill="currentColor"/><g transform="translate(3, 3)"><g opacity="0.2"><path d="M7.99957 4.97042L8.95446 4.57383C9.89482 4.22847 10.9329 4.24798 11.8622 4.63236L13.3435 5.24505C14.199 5.59892 15.1508 5.64505 16.0366 5.37556L16.9296 5.10387C17.7769 4.84609 18.6728 5.32399 18.9306 6.1713C18.9766 6.32261 19 6.4799 19 6.63806V10.6997C19 11.8707 18.3646 12.9495 17.3405 13.5173L16.6064 13.9244C15.3998 14.5935 13.9335 14.5935 12.7269 13.9244L12.2731 13.6728C11.0665 13.0037 9.60021 13.0037 8.39359 13.6728L8.16667 13.7986C8.1121 13.8288 8.05644 13.8552 8 13.8778V19C8 19.5523 7.55228 20 7 20C6.44772 20 6 19.5523 6 19V5C6 4.44772 6.44772 4 7 4C7.81074 4 7.99957 4.97042 7.99957 4.97042Z" fill="currentColor"/></g><path fill-rule="evenodd" clip-rule="evenodd" d="M6.80448 2.63238L6.16667 2.89619C4.85526 3.43861 4 4.7179 4 6.13705V10.5225C4 10.7701 4.06299 11.0136 4.18304 11.2301C4.57382 11.9349 5.46192 12.1894 6.16667 11.7986L6.39359 11.6728C7.60021 11.0037 9.06646 11.0037 10.2731 11.6728L10.7269 11.9244C11.9335 12.5935 13.3998 12.5935 14.6064 11.9244L15.3405 11.5174C16.3646 10.9495 17 9.87068 17 8.69967V4.63808C17 4.47992 16.9766 4.32263 16.9306 4.17132C16.6728 3.32401 15.7769 2.8461 14.9296 3.10389L14.0366 3.37558C13.1508 3.64506 12.199 3.59893 11.3435 3.24506L9.86219 2.63238C8.88317 2.22744 7.78349 2.22744 6.80448 2.63238ZM5 6.13705C5 5.12254 5.6114 4.20802 6.54888 3.82026L7.18669 3.55645C7.92095 3.25275 8.74571 3.25275 9.47998 3.55645L10.9613 4.16914C12.0307 4.61148 13.2205 4.66914 14.3277 4.33228L15.2207 4.06059C15.5396 3.96356 15.8768 4.14345 15.9739 4.46238C15.9912 4.51934 16 4.57854 16 4.63808V8.69967C16 9.50723 15.5618 10.2512 14.8556 10.6428L14.1215 11.0499C13.2165 11.5517 12.1168 11.5517 11.2119 11.0499L10.758 10.7982C9.24974 9.96189 7.41693 9.96189 5.90865 10.7982L5.68173 10.9241C5.45999 11.047 5.18055 10.9669 5.05759 10.7452C5.01982 10.6771 5 10.6004 5 10.5225V6.13705Z" fill="currentColor"/><path fill-rule="evenodd" clip-rule="evenodd" d="M5 2C5.55228 2 6 2.44772 6 3V17C6 17.5523 5.55228 18 5 18C4.44772 18 4 17.5523 4 17V3C4 2.44772 4.44772 2 5 2Z" fill="currentColor"/><path d="M1.15063 1.87794C0.94979 1.6771 0.94979 1.35147 1.15063 1.15063C1.35147 0.949789 1.6771 0.949789 1.87794 1.15063L18.8494 18.1221C19.0502 18.3229 19.0502 18.6485 18.8494 18.8494C18.6485 19.0502 18.3229 19.0502 18.1221 18.8494L1.15063 1.87794Z" fill="currentColor"/></g><path fill-rule="evenodd" clip-rule="evenodd" d="M13 24.5C19.3513 24.5 24.5 19.3513 24.5 13C24.5 6.64873 19.3513 1.5 13 1.5C6.64873 1.5 1.5 6.64873 1.5 13C1.5 19.3513 6.64873 24.5 13 24.5ZM13 25.5C19.9036 25.5 25.5 19.9036 25.5 13C25.5 6.09644 19.9036 0.5 13 0.5C6.09644 0.5 0.5 6.09644 0.5 13C0.5 19.9036 6.09644 25.5 13 25.5Z" fill="currentColor"/></svg>