<svg width="20" height="20" viewBox="0 0 26 26" fill="none" xmlns="http://www.w3.org/2000/svg"><path opacity="0.2" fill-rule="evenodd" clip-rule="evenodd" d="M13.5 26C20.4036 26 26 20.4036 26 13.5C26 6.59644 20.4036 1 13.5 1C6.59644 1 1 6.59644 1 13.5C1 20.4036 6.59644 26 13.5 26ZM13.5 24C19.299 24 24 19.299 24 13.5C24 7.70101 19.299 3 13.5 3C7.70101 3 3 7.70101 3 13.5C3 19.299 7.70101 24 13.5 24Z" fill="currentColor"/><g transform="translate(3, 3)"><g opacity="0.2"><path d="M4.75 18.5H17.75C18.3023 18.5 18.75 18.0523 18.75 17.5V11V6.91421C18.75 6.649 18.6446 6.39464 18.4571 6.20711L16.0429 3.79289C15.8554 3.60536 15.601 3.5 15.3358 3.5H11.25H4.75C4.19772 3.5 3.75 3.94772 3.75 4.5V17.5C3.75 18.0523 4.19772 18.5 4.75 18.5Z" fill="currentColor"/><path fill-rule="evenodd" clip-rule="evenodd" d="M16.75 16.5V7.32843L14.9216 5.5H5.75V16.5H16.75ZM17.75 18.5H4.75C4.19772 18.5 3.75 18.0523 3.75 17.5V4.5C3.75 3.94772 4.19772 3.5 4.75 3.5H15.3358C15.601 3.5 15.8554 3.60536 16.0429 3.79289L18.4571 6.20711C18.6446 6.39464 18.75 6.649 18.75 6.91421V17.5C18.75 18.0523 18.3023 18.5 17.75 18.5Z" fill="currentColor"/></g><path fill-rule="evenodd" clip-rule="evenodd" d="M3.5 2.75C3.22386 2.75 3 2.97386 3 3.25V16.25C3 16.5261 3.22386 16.75 3.5 16.75H16.5C16.7761 16.75 17 16.5261 17 16.25V5.66421C17 5.53161 16.9473 5.40443 16.8536 5.31066L14.4393 2.89645C14.3456 2.80268 14.2184 2.75 14.0858 2.75H3.5ZM2 3.25C2 2.42157 2.67157 1.75 3.5 1.75H14.0858C14.4836 1.75 14.8651 1.90804 15.1464 2.18934L17.5607 4.60355C17.842 4.88486 18 5.26639 18 5.66421V16.25C18 17.0784 17.3284 17.75 16.5 17.75H3.5C2.67157 17.75 2 17.0784 2 16.25V3.25Z" fill="currentColor"/><path fill-rule="evenodd" clip-rule="evenodd" d="M5.5 10.75C5.5 9.92157 6.17157 9.25 7 9.25H13C13.8284 9.25 14.5 9.92157 14.5 10.75V17.75H13.5V10.75C13.5 10.4739 13.2761 10.25 13 10.25H7C6.72386 10.25 6.5 10.4739 6.5 10.75V17.75H5.5V10.75Z" fill="currentColor"/><path fill-rule="evenodd" clip-rule="evenodd" d="M6 4.75C6 5.57843 6.67157 6.25 7.5 6.25H11.5C12.3284 6.25 13 5.57843 13 4.75V2.75C13 2.47386 12.7761 2.25 12.5 2.25C12.2239 2.25 12 2.47386 12 2.75V4.75C12 5.02614 11.7761 5.25 11.5 5.25H7.5C7.22386 5.25 7 5.02614 7 4.75V2.75C7 2.47386 6.77614 2.25 6.5 2.25C6.22386 2.25 6 2.47386 6 2.75V4.75Z" fill="currentColor"/></g><path fill-rule="evenodd" clip-rule="evenodd" d="M13 24.5C19.3513 24.5 24.5 19.3513 24.5 13C24.5 6.64873 19.3513 1.5 13 1.5C6.64873 1.5 1.5 6.64873 1.5 13C1.5 19.3513 6.64873 24.5 13 24.5ZM13 25.5C19.9036 25.5 25.5 19.9036 25.5 13C25.5 6.09644 19.9036 0.5 13 0.5C6.09644 0.5 0.5 6.09644 0.5 13C0.5 19.9036 6.09644 25.5 13 25.5Z" fill="currentColor"/></svg>