<svg width="20" height="20" viewBox="0 0 26 26" fill="none" xmlns="http://www.w3.org/2000/svg"><path opacity="0.2" fill-rule="evenodd" clip-rule="evenodd" d="M13.5 26C20.4036 26 26 20.4036 26 13.5C26 6.59644 20.4036 1 13.5 1C6.59644 1 1 6.59644 1 13.5C1 20.4036 6.59644 26 13.5 26ZM13.5 24C19.299 24 24 19.299 24 13.5C24 7.70101 19.299 3 13.5 3C7.70101 3 3 7.70101 3 13.5C3 19.299 7.70101 24 13.5 24Z" fill="currentColor"/><g transform="translate(3, 3)"><g opacity="0.2"><path fill-rule="evenodd" clip-rule="evenodd" d="M17.1559 7.80414C18.7548 7.97683 20 9.34178 20 11C20 12.6582 18.7548 14.0232 17.1559 14.1959C17.2775 14.5362 17.3438 14.9031 17.3438 15.2857C17.3438 17.0609 15.9167 18.5 14.1562 18.5C13.0475 18.5 12.0711 17.9292 11.5 17.0631C10.9289 17.9292 9.95245 18.5 8.84375 18.5C7.08334 18.5 5.65625 17.0609 5.65625 15.2857C5.65625 14.9031 5.72253 14.5362 5.84415 14.1959C4.24521 14.0232 3 12.6582 3 11C3 9.34178 4.24521 7.97683 5.84415 7.80414C5.72253 7.46383 5.65625 7.09686 5.65625 6.71429C5.65625 4.93909 7.08334 3.5 8.84375 3.5C9.95245 3.5 10.9289 4.07081 11.5 4.9369C12.0711 4.07081 13.0475 3.5 14.1563 3.5C15.9167 3.5 17.3438 4.93909 17.3438 6.71429C17.3438 7.09686 17.2775 7.46383 17.1559 7.80414Z" fill="currentColor"/></g><path d="M13 10C13 11.6569 11.6569 13 10 13C8.34315 13 7 11.6569 7 10C7 8.34315 8.34315 7 10 7C11.6569 7 13 8.34315 13 10Z" fill="currentColor"/><path fill-rule="evenodd" clip-rule="evenodd" d="M15.9436 13.3714C17.4272 12.9576 18.5 11.5957 18.5 10C18.5 8.40432 17.4272 7.04239 15.9436 6.62862C15.981 6.42276 16 6.21259 16 6C16 4.067 14.433 2.5 12.5 2.5C11.541 2.5 10.6476 2.889 10 3.55019C9.35243 2.889 8.45901 2.5 7.5 2.5C5.567 2.5 4 4.067 4 6C4 6.21259 4.01902 6.42276 4.05638 6.62862C2.57281 7.04239 1.5 8.40432 1.5 10C1.5 11.5957 2.57281 12.9576 4.05638 13.3714C4.01902 13.5772 4 13.7874 4 14C4 15.933 5.567 17.5 7.5 17.5C8.45901 17.5 9.35243 17.111 10 16.4498C10.6476 17.111 11.541 17.5 12.5 17.5C14.433 17.5 16 15.933 16 14C16 13.7874 15.981 13.5772 15.9436 13.3714ZM14.8528 6.84769C14.7429 7.15259 14.9477 7.47985 15.2699 7.51436C16.5325 7.64958 17.5 8.71964 17.5 10C17.5 11.2804 16.5325 12.3504 15.2699 12.4856C14.9477 12.5202 14.7429 12.8474 14.8528 13.1523C14.9498 13.4215 15 13.707 15 14C15 15.3807 13.8807 16.5 12.5 16.5C11.6522 16.5 10.8773 16.0753 10.4164 15.3821C10.2185 15.0845 9.78147 15.0845 9.58363 15.3821C9.1227 16.0753 8.3478 16.5 7.5 16.5C6.11929 16.5 5 15.3807 5 14C5 13.707 5.05022 13.4215 5.14723 13.1523C5.25711 12.8474 5.05234 12.5202 4.73009 12.4856C3.46751 12.3504 2.5 11.2804 2.5 10C2.5 8.71964 3.46751 7.64958 4.73009 7.51436C5.05234 7.47985 5.25711 7.15259 5.14723 6.84769C5.05022 6.57848 5 6.29304 5 6C5 4.61929 6.11929 3.5 7.5 3.5C8.3478 3.5 9.1227 3.9247 9.58363 4.61794C9.78147 4.91549 10.2185 4.91549 10.4164 4.61794C10.8773 3.9247 11.6522 3.5 12.5 3.5C13.8807 3.5 15 4.61929 15 6C15 6.29304 14.9498 6.57848 14.8528 6.84769Z" fill="currentColor"/></g><path fill-rule="evenodd" clip-rule="evenodd" d="M13 24.5C19.3513 24.5 24.5 19.3513 24.5 13C24.5 6.64873 19.3513 1.5 13 1.5C6.64873 1.5 1.5 6.64873 1.5 13C1.5 19.3513 6.64873 24.5 13 24.5ZM13 25.5C19.9036 25.5 25.5 19.9036 25.5 13C25.5 6.09644 19.9036 0.5 13 0.5C6.09644 0.5 0.5 6.09644 0.5 13C0.5 19.9036 6.09644 25.5 13 25.5Z" fill="currentColor"/></svg>