<svg xmlns="http://www.w3.org/2000/svg" width="20" height="20" viewBox="0 0 20 20">
  <g fill="none" fill-rule="evenodd" stroke-linecap="round" stroke-linejoin="round">
    <g fill="#AB92F0" stroke="#AB92F0" transform="rotate(-90 10.5 7.5)">
      <circle cx="7" cy="9" r="2.5"/>
      <path d="M8.01720195,10.6768451 C8.11449995,9.76837296 8.61733114,8.98122688 9.34110244,8.5 C8.61733114,8.01877312 8.11449995,7.23162704 8.01720195,6.32315485 C7.69957449,6.43761687 7.35707242,6.5 7,6.5 C6.64292758,6.5 6.30042551,6.43761687 5.98279805,6.32315485 C5.88550005,7.23162704 5.38266886,8.01877312 4.65889756,8.5 C5.38266886,8.98122688 5.88550005,9.76837296 5.98279805,10.6768451 C6.30042551,10.5623831 6.64292758,10.5 7,10.5 C7.35707242,10.5 7.69957449,10.5623831 8.01720195,10.6768451 Z M9.98279805,13.8231549 C9.82162427,15.3280356 8.54767561,16.5 7,16.5 C5.45232439,16.5 4.17837573,15.3280356 4.01720195,13.8231549 C3.69957449,13.9376169 3.35707242,14 3,14 C1.34314575,14 0,12.6568542 0,11 C0,9.95651462 0.532754668,9.03746077 1.34110244,8.5 C0.532754668,7.96253923 0,7.04348538 0,6 C0,4.34314575 1.34314575,3 3,3 C3.35707242,3 3.69957449,3.06238313 4.01720195,3.17684515 C4.17837573,1.67196436 5.45232439,0.5 7,0.5 C8.54767561,0.5 9.82162427,1.67196436 9.98279805,3.17684515 C10.3004255,3.06238313 10.6429276,3 11,3 C12.6568542,3 14,4.34314575 14,6 C14,7.04348538 13.4672453,7.96253923 12.6588976,8.5 C13.4672453,9.03746077 14,9.95651462 14,11 C14,12.6568542 12.6568542,14 11,14 C10.6429276,14 10.3004255,13.9376169 9.98279805,13.8231549 Z"/>
    </g>
    <circle cx="10" cy="10" r="2.5" fill="#000" stroke="#000" transform="rotate(-90 10 10)"/>
    <path stroke="#000" d="M11.0172019,12.1768451 C11.1145,11.268373 11.6173311,10.4812269 12.3411024,10 C11.6173311,9.51877312 11.1145,8.73162704 11.0172019,7.82315485 C10.6995745,7.93761687 10.3570724,8 10,8 C9.64292758,8 9.30042551,7.93761687 8.98279805,7.82315485 C8.88550005,8.73162704 8.38266886,9.51877312 7.65889756,10 C8.38266886,10.4812269 8.88550005,11.268373 8.98279805,12.1768451 C9.30042551,12.0623831 9.64292758,12 10,12 C10.3570724,12 10.6995745,12.0623831 11.0172019,12.1768451 Z M12.9827981,15.3231549 C12.8216243,16.8280356 11.5476756,18 10,18 C8.45232439,18 7.17837573,16.8280356 7.01720195,15.3231549 C6.69957449,15.4376169 6.35707242,15.5 6,15.5 C4.34314575,15.5 3,14.1568542 3,12.5 C3,11.4565146 3.53275467,10.5374608 4.34110244,10 C3.53275467,9.46253923 3,8.54348538 3,7.5 C3,5.84314575 4.34314575,4.5 6,4.5 C6.35707242,4.5 6.69957449,4.56238313 7.01720195,4.67684515 C7.17837573,3.17196436 8.45232439,2 10,2 C11.5476756,2 12.8216243,3.17196436 12.9827981,4.67684515 C13.3004255,4.56238313 13.6429276,4.5 14,4.5 C15.6568542,4.5 17,5.84314575 17,7.5 C17,8.54348538 16.4672453,9.46253923 15.6588976,10 C16.4672453,10.5374608 17,11.4565146 17,12.5 C17,14.1568542 15.6568542,15.5 14,15.5 C13.6429276,15.5 13.3004255,15.4376169 12.9827981,15.3231549 Z" transform="rotate(-90 10 10)"/>
  </g>
</svg>
