<svg width="20" height="20" viewBox="0 0 20 20" fill="none" xmlns="http://www.w3.org/2000/svg"><g><g opacity="0.2"><path fill-rule="evenodd" clip-rule="evenodd" d="M14.9577 3.70271L14.8853 3.78196C14.5511 4.14683 14.3446 4.35528 14.1748 4.49015C13.9784 4.23554 13.6887 3.84808 13.6936 3.8544C13.4051 3.48043 13.165 3.20924 12.9195 3.00194C12.619 2.74817 12.3212 2.60174 12 2.60174C11.8313 2.60174 11.6672 2.64406 11.5086 2.72103C11.122 2.90864 10.798 3.26211 10.3638 3.86885C10.3094 3.94496 10.1721 4.14131 10.0899 4.25879L10.0269 4.34878C9.98779 4.40411 9.95266 4.45293 9.92077 4.4962L9.90489 4.48417C9.72623 4.3472 9.51116 4.13846 9.15613 3.76687L9.08747 3.69487C8.55371 3.13443 8.40866 2.98816 8.18558 2.80638C8.00393 2.65837 7.84702 2.56272 7.67667 2.52097C7.34592 2.43991 7.0295 2.60022 6.90938 2.93114C6.64016 3.67283 6.5 4.46989 6.5 5.28809C6.5 8.66894 8.19597 11.074 11.1655 11.4489C11.0609 11.6069 11 11.7963 11 12V15.7721C10.6014 15.2998 10.1289 14.8326 9.61094 14.398C7.92618 12.9843 5.83957 12.594 4.90256 13.7107C3.96555 14.8274 4.71224 16.8145 6.397 18.2282C8.00906 19.5809 10.6602 20.2761 11.7674 19.4728C11.8328 19.4884 11.9007 19.4975 11.9704 19.4996C13.0994 20.2603 15.7087 19.5655 17.3025 18.2282C18.9873 16.8145 19.734 14.8274 18.797 13.7107C17.8599 12.594 15.7733 12.9843 14.0886 14.398C13.6953 14.7279 13.3284 15.0766 13 15.4321V12C13 11.7963 12.9391 11.6069 12.8346 11.4489C15.804 11.074 17.5 8.66894 17.5 5.28809C17.5 4.46989 17.3599 3.67283 17.0906 2.93114C16.9711 2.60183 16.6556 2.43776 16.3239 2.52196C16.1538 2.56515 16.0002 2.66253 15.8231 2.8129C15.6085 2.99518 15.4743 3.13653 14.9577 3.70271Z" fill="currentColor"/></g><path fill-rule="evenodd" clip-rule="evenodd" d="M12.9577 2.70271L12.8853 2.78196C12.5511 3.14683 12.3446 3.35528 12.1748 3.49015C11.9784 3.23554 11.6887 2.84808 11.6936 2.8544C11.4051 2.48043 11.165 2.20924 10.9195 2.00194C10.619 1.74817 10.3212 1.60174 10 1.60174C9.83135 1.60174 9.66724 1.64406 9.50862 1.72103C9.12201 1.90864 8.798 2.26211 8.36383 2.86885C8.30938 2.94494 8.17213 3.14122 8.08998 3.2587C8.05753 3.3051 8.03368 3.33921 8.02692 3.34878C7.98778 3.40411 7.95265 3.45293 7.92076 3.4962L7.90489 3.48417C7.72623 3.3472 7.51115 3.13846 7.15613 2.76687L7.08746 2.69487C6.55371 2.13443 6.40865 1.98816 6.18557 1.80638C6.00392 1.65837 5.84702 1.56272 5.67667 1.52097C5.34592 1.43991 5.02949 1.60022 4.90937 1.93114C4.64015 2.67283 4.5 3.46989 4.5 4.28809C4.5 7.97398 6.51581 10.5 10 10.5C13.4842 10.5 15.5 7.97398 15.5 4.28809C15.5 3.46989 15.3598 2.67283 15.0906 1.93114C14.9711 1.60183 14.6556 1.43776 14.3239 1.52196C14.1538 1.56515 14.0002 1.66253 13.8231 1.8129C13.6085 1.99518 13.4742 2.13653 12.9577 2.70271ZM5.5 4.28809C5.5 3.74768 5.57105 3.21929 5.70851 2.71616C5.84152 2.83956 6.01414 3.01788 6.36332 3.38453L6.43309 3.45768C6.82398 3.86681 7.06306 4.09885 7.29648 4.27779C7.7511 4.62631 8.16971 4.74941 8.52019 4.34902C8.61368 4.24222 8.71072 4.11375 8.84336 3.92621C8.85158 3.91458 8.87876 3.87571 8.91467 3.82437C8.9976 3.70578 9.12709 3.52063 9.17706 3.45079C9.51365 2.98042 9.76183 2.70968 9.94521 2.62069C9.97484 2.60631 9.99258 2.60174 10 2.60174C10.0387 2.60174 10.1373 2.65022 10.2743 2.76597C10.4531 2.91693 10.6532 3.14297 10.9018 3.46524C10.8697 3.42366 11.4473 4.19598 11.5813 4.34902C11.9329 4.75066 12.3526 4.62516 12.7943 4.27514C13.0202 4.09616 13.2515 3.86269 13.6227 3.45736L13.6965 3.37669C14.0099 3.03318 14.1737 2.85605 14.2965 2.73475C14.4307 3.2323 14.5 3.75433 14.5 4.28809C14.5 7.46499 12.876 9.49999 10 9.49999C7.12397 9.49999 5.5 7.46499 5.5 4.28809Z" fill="currentColor"/><path d="M9.5 11C9.5 10.7239 9.72386 10.5 10 10.5C10.2761 10.5 10.5 10.7239 10.5 11V17.5C10.5 17.7761 10.2761 18 10 18C9.72386 18 9.5 17.7761 9.5 17.5V11Z" fill="currentColor"/><path fill-rule="evenodd" clip-rule="evenodd" d="M12.0886 13.398C10.114 15.0548 8.80192 17.1841 9.71244 18.2692C10.6408 19.3756 13.571 18.6811 15.3025 17.2282C16.9873 15.8145 17.734 13.8274 16.797 12.7107C15.8599 11.594 13.7733 11.9843 12.0886 13.398ZM14.6597 16.4622C13.2968 17.6058 10.9315 18.1663 10.4785 17.6264C10.115 17.1932 11.1789 15.4667 12.7314 14.164C14.0493 13.0582 15.5479 12.7779 16.0309 13.3535C16.5139 13.9291 15.9776 15.3563 14.6597 16.4622Z" fill="currentColor"/><path fill-rule="evenodd" clip-rule="evenodd" d="M7.61094 13.398C9.58547 15.0548 10.8976 17.1841 9.98706 18.2692C9.05874 19.3756 6.1285 18.6811 4.397 17.2282C2.71224 15.8145 1.96554 13.8274 2.90255 12.7107C3.83956 11.594 5.92617 11.9843 7.61094 13.398ZM5.03979 16.4622C6.40267 17.6058 8.768 18.1663 9.22102 17.6264C9.58452 17.1932 8.52056 15.4667 6.96815 14.164C5.65026 13.0582 4.15159 12.7779 3.6686 13.3535C3.1856 13.9291 3.72189 15.3563 5.03979 16.4622Z" fill="currentColor"/></g></svg>