<svg width="20" height="20" viewBox="0 0 26 26" fill="none" xmlns="http://www.w3.org/2000/svg"><path opacity="0.2" fill-rule="evenodd" clip-rule="evenodd" d="M13.5 26C20.4036 26 26 20.4036 26 13.5C26 6.59644 20.4036 1 13.5 1C6.59644 1 1 6.59644 1 13.5C1 20.4036 6.59644 26 13.5 26ZM13.5 24C19.299 24 24 19.299 24 13.5C24 7.70101 19.299 3 13.5 3C7.70101 3 3 7.70101 3 13.5C3 19.299 7.70101 24 13.5 24Z" fill="currentColor"/><g transform="translate(3, 3)"><g><g opacity="0.2"><path fill-rule="evenodd" clip-rule="evenodd" d="M5.25 11.5C5.25 10.6716 5.92157 10 6.75 10H16.75C17.5784 10 18.25 10.6716 18.25 11.5C18.25 12.3284 17.5784 13 16.75 13H6.75C5.92157 13 5.25 12.3284 5.25 11.5Z" fill="currentColor"/><path fill-rule="evenodd" clip-rule="evenodd" d="M7.75 1.5C8.30228 1.5 8.75 1.94772 8.75 2.5V7.5C8.75 8.05228 8.30228 8.5 7.75 8.5C7.19772 8.5 6.75 8.05228 6.75 7.5V2.5C6.75 1.94772 7.19772 1.5 7.75 1.5Z" fill="currentColor"/><path fill-rule="evenodd" clip-rule="evenodd" d="M7.75 6.5C8.30228 6.5 8.75 6.94772 8.75 7.5V10C8.75 10.5523 8.30228 11 7.75 11C7.19772 11 6.75 10.5523 6.75 10V7.5C6.75 6.94772 7.19772 6.5 7.75 6.5Z" fill="currentColor"/><path fill-rule="evenodd" clip-rule="evenodd" d="M15.75 6.5C16.3023 6.5 16.75 6.94772 16.75 7.5V10C16.75 10.5523 16.3023 11 15.75 11C15.1977 11 14.75 10.5523 14.75 10V7.5C14.75 6.94772 15.1977 6.5 15.75 6.5Z" fill="currentColor"/><path fill-rule="evenodd" clip-rule="evenodd" d="M15.75 1.5C16.3023 1.5 16.75 1.94772 16.75 2.5V7.5C16.75 8.05228 16.3023 8.5 15.75 8.5C15.1977 8.5 14.75 8.05228 14.75 7.5V2.5C14.75 1.94772 15.1977 1.5 15.75 1.5Z" fill="currentColor"/><path fill-rule="evenodd" clip-rule="evenodd" d="M17.5753 19.0647C17.2634 19.5205 16.6411 19.6372 16.1853 19.3253L6.68531 12.8253C6.2295 12.5135 6.11282 11.8911 6.42468 11.4353C6.73655 10.9795 7.35887 10.8628 7.81467 11.1747L17.3147 17.6747C17.7705 17.9866 17.8872 18.6089 17.5753 19.0647Z" fill="currentColor"/><path fill-rule="evenodd" clip-rule="evenodd" d="M5.9247 19.0647C6.23656 19.5205 6.85888 19.6372 7.31469 19.3253L16.8147 12.8253C17.2705 12.5135 17.3872 11.8911 17.0753 11.4353C16.7635 10.9795 16.1412 10.8628 15.6853 11.1747L6.18532 17.6747C5.72952 17.9866 5.61283 18.6089 5.9247 19.0647Z" fill="currentColor"/><path fill-rule="evenodd" clip-rule="evenodd" d="M15.75 5H7.75V3H15.75V5Z" fill="currentColor"/><path fill-rule="evenodd" clip-rule="evenodd" d="M15.75 7.5H7.75V5.5H15.75V7.5Z" fill="currentColor"/><path fill-rule="evenodd" clip-rule="evenodd" d="M3.75 8.5C3.75 7.94772 4.19772 7.5 4.75 7.5H6.75C7.30228 7.5 7.75 7.94772 7.75 8.5C7.75 9.05228 7.30228 9.5 6.75 9.5H4.75C4.19772 9.5 3.75 9.05228 3.75 8.5Z" fill="currentColor"/><path fill-rule="evenodd" clip-rule="evenodd" d="M15.75 8.5C15.75 7.94772 16.1977 7.5 16.75 7.5H18.75C19.3023 7.5 19.75 7.94772 19.75 8.5C19.75 9.05228 19.3023 9.5 18.75 9.5H16.75C16.1977 9.5 15.75 9.05228 15.75 8.5Z" fill="currentColor"/><path d="M7.75 7.5H15.75V10.5H7.75V7.5Z" fill="currentColor"/><path d="M7.75 3.5H15.75V6.5H7.75V3.5Z" fill="currentColor"/></g><path fill-rule="evenodd" clip-rule="evenodd" d="M4 11C4 10.4477 4.44772 10 5 10H15C15.5523 10 16 10.4477 16 11C16 11.5523 15.5523 12 15 12H5C4.44772 12 4 11.5523 4 11Z" fill="currentColor"/><path fill-rule="evenodd" clip-rule="evenodd" d="M6 1.5C6.27614 1.5 6.5 1.72386 6.5 2V7C6.5 7.27614 6.27614 7.5 6 7.5C5.72386 7.5 5.5 7.27614 5.5 7V2C5.5 1.72386 5.72386 1.5 6 1.5Z" fill="currentColor"/><path fill-rule="evenodd" clip-rule="evenodd" d="M6 6.5C6.27614 6.5 6.5 6.72386 6.5 7V10.5C6.5 10.7761 6.27614 11 6 11C5.72386 11 5.5 10.7761 5.5 10.5V7C5.5 6.72386 5.72386 6.5 6 6.5Z" fill="currentColor"/><path fill-rule="evenodd" clip-rule="evenodd" d="M14 6.5C14.2761 6.5 14.5 6.72386 14.5 7V10.5C14.5 10.7761 14.2761 11 14 11C13.7239 11 13.5 10.7761 13.5 10.5V7C13.5 6.72386 13.7239 6.5 14 6.5Z" fill="currentColor"/><path fill-rule="evenodd" clip-rule="evenodd" d="M14 1.5C14.2761 1.5 14.5 1.72386 14.5 2V7C14.5 7.27614 14.2761 7.5 14 7.5C13.7239 7.5 13.5 7.27614 13.5 7V2C13.5 1.72386 13.7239 1.5 14 1.5Z" fill="currentColor"/><path fill-rule="evenodd" clip-rule="evenodd" d="M15.4126 18.2824C15.2567 18.5103 14.9456 18.5686 14.7177 18.4127L5.21764 11.9127C4.98973 11.7567 4.93139 11.4456 5.08732 11.2177C5.24326 10.9898 5.55442 10.9314 5.78232 11.0874L15.2823 17.5874C15.5102 17.7433 15.5686 18.0545 15.4126 18.2824Z" fill="currentColor"/><path fill-rule="evenodd" clip-rule="evenodd" d="M4.58735 18.2824C4.74328 18.5103 5.05444 18.5686 5.28234 18.4127L14.7824 11.9127C15.0103 11.7567 15.0686 11.4456 14.9127 11.2177C14.7567 10.9898 14.4456 10.9314 14.2177 11.0874L4.71766 17.5874C4.48976 17.7433 4.43142 18.0545 4.58735 18.2824Z" fill="currentColor"/><path fill-rule="evenodd" clip-rule="evenodd" d="M14 4H6V3H14V4Z" fill="currentColor"/><path fill-rule="evenodd" clip-rule="evenodd" d="M14 7H6V6H14V7Z" fill="currentColor"/><path fill-rule="evenodd" clip-rule="evenodd" d="M2.5 8C2.5 7.72386 2.72386 7.5 3 7.5H6C6.27614 7.5 6.5 7.72386 6.5 8C6.5 8.27614 6.27614 8.5 6 8.5H3C2.72386 8.5 2.5 8.27614 2.5 8Z" fill="currentColor"/><path fill-rule="evenodd" clip-rule="evenodd" d="M13.5 8C13.5 7.72386 13.7239 7.5 14 7.5H17C17.2761 7.5 17.5 7.72386 17.5 8C17.5 8.27614 17.2761 8.5 17 8.5H14C13.7239 8.5 13.5 8.27614 13.5 8Z" fill="currentColor"/></g><path d="M1.15063 1.87794C0.94979 1.6771 0.94979 1.35147 1.15063 1.15063C1.35147 0.949789 1.6771 0.949789 1.87794 1.15063L18.8494 18.1221C19.0502 18.3229 19.0502 18.6485 18.8494 18.8494C18.6485 19.0502 18.3229 19.0502 18.1221 18.8494L1.15063 1.87794Z" fill="currentColor"/></g><path fill-rule="evenodd" clip-rule="evenodd" d="M13 24.5C19.3513 24.5 24.5 19.3513 24.5 13C24.5 6.64873 19.3513 1.5 13 1.5C6.64873 1.5 1.5 6.64873 1.5 13C1.5 19.3513 6.64873 24.5 13 24.5ZM13 25.5C19.9036 25.5 25.5 19.9036 25.5 13C25.5 6.09644 19.9036 0.5 13 0.5C6.09644 0.5 0.5 6.09644 0.5 13C0.5 19.9036 6.09644 25.5 13 25.5Z" fill="currentColor"/></svg>