<svg width="20" height="20" viewBox="0 0 26 26" fill="none" xmlns="http://www.w3.org/2000/svg"><path opacity="0.2" fill-rule="evenodd" clip-rule="evenodd" d="M13.5 26C20.4036 26 26 20.4036 26 13.5C26 6.59644 20.4036 1 13.5 1C6.59644 1 1 6.59644 1 13.5C1 20.4036 6.59644 26 13.5 26ZM13.5 24C19.299 24 24 19.299 24 13.5C24 7.70101 19.299 3 13.5 3C7.70101 3 3 7.70101 3 13.5C3 19.299 7.70101 24 13.5 24Z" fill="currentColor"/><g transform="translate(3, 3)"><g opacity="0.2"><path fill-rule="evenodd" clip-rule="evenodd" d="M11.5576 3.5C11.8544 3.5 12.1234 3.67509 12.2435 3.94656L12.6859 4.94656C12.7301 5.04661 12.7507 5.14918 12.7508 5.24917C13.1878 5.37648 13.6082 5.55097 14.0052 5.7689C14.0662 5.70819 14.1393 5.65664 14.2239 5.61799L15.1947 5.17456C15.4796 5.04445 15.8152 5.10501 16.0367 5.32643L16.8744 6.16414C17.0843 6.37405 17.1506 6.68801 17.0436 6.96489L16.6493 7.98483C16.6099 8.08694 16.5518 8.17404 16.4812 8.24487C16.6991 8.64186 16.8736 9.06226 17.0009 9.49925C17.0869 9.49944 17.175 9.5147 17.2621 9.54718L18.2621 9.92007C18.5555 10.0295 18.7501 10.3097 18.7501 10.6228V11.8075C18.7501 12.1044 18.575 12.3733 18.3035 12.4934L17.3035 12.9358C17.2035 12.9801 17.1009 13.0006 17.0009 13.0008C16.8736 13.4377 16.6991 13.8581 16.4812 14.2551C16.5419 14.3161 16.5934 14.3892 16.6321 14.4739L17.0755 15.4446C17.2056 15.7295 17.1451 16.0652 16.9237 16.2866L16.0859 17.1243C15.876 17.3342 15.5621 17.4005 15.2852 17.2935L14.2653 16.8992C14.1632 16.8598 14.0761 16.8017 14.0052 16.7311C13.6082 16.949 13.1878 17.1235 12.7508 17.2508C12.7506 17.3368 12.7354 17.4249 12.7029 17.512L12.33 18.512C12.2206 18.8054 11.9404 19 11.6273 19H10.4426C10.1457 19 9.87681 18.8249 9.7567 18.5534L9.31429 17.5534C9.27004 17.4534 9.24948 17.3509 9.24933 17.2509C8.81231 17.1236 8.39188 16.9491 7.99487 16.7312C7.93391 16.7918 7.8608 16.8434 7.77622 16.882L6.80544 17.3254C6.52061 17.4555 6.18492 17.395 5.9635 17.1736L5.12579 16.3359C4.91588 16.126 4.84954 15.812 4.95657 15.5351L5.35084 14.5152C5.3903 14.4131 5.4483 14.3261 5.5189 14.2552C5.30095 13.8582 5.12646 13.4378 4.99914 13.0008C4.91317 13.0005 4.82511 12.9853 4.73804 12.9528L3.73804 12.5799C3.44464 12.4705 3.25008 12.1903 3.25008 11.8772V10.6925C3.25008 10.3956 3.42517 10.1267 3.69664 10.0066L4.69664 9.56421C4.79666 9.51996 4.89918 9.49941 4.99914 9.49924C5.12646 9.06222 5.30096 8.64178 5.5189 8.24476C5.45822 8.1838 5.40671 8.1107 5.36808 8.02614L4.92464 7.05536C4.79454 6.77053 4.85509 6.43484 5.07651 6.21341L5.91422 5.37571C6.12413 5.1658 6.43809 5.09945 6.71497 5.20649L7.73491 5.60076C7.83698 5.64022 7.92405 5.69822 7.99487 5.76884C8.39188 5.55091 8.81232 5.37642 9.24933 5.24912C9.24953 5.16313 9.26479 5.07504 9.29727 4.98796L9.67016 3.98796C9.77957 3.69455 10.0597 3.5 10.3729 3.5H11.5576Z" fill="currentColor"/></g><path fill-rule="evenodd" clip-rule="evenodd" d="M8.23223 11.7678C8.69772 12.2333 9.32837 12.5 10 12.5C10.6716 12.5 11.3023 12.2333 11.7678 11.7678C12.2333 11.3023 12.5 10.6716 12.5 10C12.5 9.32837 12.2333 8.69772 11.7678 8.23223C11.3023 7.76674 10.6716 7.5 10 7.5C9.32837 7.5 8.69772 7.76674 8.23223 8.23223C7.76674 8.69772 7.5 9.32837 7.5 10C7.5 10.6716 7.76674 11.3023 8.23223 11.7678ZM11.0607 11.0607C10.7808 11.3405 10.4037 11.5 10 11.5C9.59632 11.5 9.21915 11.3405 8.93934 11.0607C8.65953 10.7808 8.5 10.4037 8.5 10C8.5 9.59632 8.65953 9.21915 8.93934 8.93934C9.21915 8.65953 9.59632 8.5 10 8.5C10.4037 8.5 10.7808 8.65953 11.0607 8.93934C11.3405 9.21915 11.5 9.59632 11.5 10C11.5 10.4037 11.3405 10.7808 11.0607 11.0607Z" fill="currentColor"/><path fill-rule="evenodd" clip-rule="evenodd" d="M14.2161 3.77261L12.9469 4.48706C12.5759 4.28836 12.1853 4.1275 11.7804 4.00738L11.3109 2.59254C11.2431 2.38803 11.0519 2.25 10.8364 2.25H9.05934C8.83506 2.25 8.63822 2.39934 8.57781 2.61533L8.18566 4.01755C7.78153 4.13997 7.39185 4.30304 7.02195 4.50387L5.68911 3.83516C5.49652 3.73853 5.26369 3.77615 5.11133 3.92851L3.85477 5.18507C3.69618 5.34366 3.6626 5.58845 3.77261 5.78389L4.48706 7.05311C4.28836 7.42412 4.1275 7.81472 4.00738 8.2196L2.59254 8.68906C2.38803 8.75692 2.25 8.94815 2.25 9.16362V10.9407C2.25 11.1649 2.39934 11.3618 2.61533 11.4222L4.01755 11.8143C4.13997 12.2185 4.30304 12.6081 4.50387 12.9781L3.83516 14.3109C3.73853 14.5035 3.77615 14.7363 3.92851 14.8887L5.18507 16.1452C5.34366 16.3038 5.58845 16.3374 5.78389 16.2274L7.05311 15.5129C7.42412 15.7116 7.81472 15.8725 8.2196 15.9926L8.68906 17.4075C8.75692 17.612 8.94815 17.75 9.16362 17.75H10.9407C11.1649 17.75 11.3618 17.6007 11.4222 17.3847L11.8143 15.9824C12.2185 15.86 12.6081 15.697 12.9781 15.4961L14.3109 16.1648C14.5035 16.2615 14.7363 16.2238 14.8887 16.0715L16.1452 14.8149C16.3038 14.6563 16.3374 14.4116 16.2274 14.2161L15.5129 12.9469C15.7116 12.5759 15.8725 12.1853 15.9926 11.7804L17.4075 11.3109C17.612 11.2431 17.75 11.0519 17.75 10.8364V9.05934C17.75 8.83506 17.6007 8.63822 17.3847 8.57781L15.9824 8.18566C15.86 7.78153 15.697 7.39185 15.4961 7.02195L16.1648 5.68911C16.2615 5.49652 16.2238 5.26369 16.0715 5.11133L14.8149 3.85477C14.6563 3.69618 14.4116 3.6626 14.2161 3.77261ZM13.1916 5.49689L14.3761 4.83012L15.1092 5.56325L14.4821 6.81313C14.4052 6.96642 14.4122 7.14843 14.5007 7.29534C14.7659 7.73564 14.9652 8.21281 15.0913 8.71333C15.1351 8.88728 15.2687 9.02443 15.4415 9.07274L16.75 9.43869V10.4755L15.4233 10.9157C15.2606 10.9697 15.1369 11.1033 15.0955 11.2697C14.9711 11.7707 14.7734 12.2486 14.5097 12.6897C14.4176 12.8437 14.4151 13.0352 14.5031 13.1916L15.1699 14.3761L14.4368 15.1092L13.1869 14.4821C13.0336 14.4052 12.8516 14.4122 12.7047 14.5007C12.2644 14.7659 11.7872 14.9652 11.2867 15.0913C11.1127 15.1351 10.9756 15.2687 10.9273 15.4415L10.5613 16.75H9.52452L9.08432 15.4233C9.03032 15.2606 8.89668 15.1369 8.73025 15.0955C8.22926 14.9711 7.75144 14.7734 7.31028 14.5097C7.15629 14.4176 6.96478 14.4151 6.80844 14.5031L5.62394 15.1699L4.89081 14.4368L5.5179 13.1869C5.59481 13.0336 5.58779 12.8516 5.49929 12.7047C5.23408 12.2644 5.03476 11.7872 4.9087 11.2867C4.86489 11.1127 4.73126 10.9756 4.5585 10.9273L3.25 10.5613V9.52452L4.57666 9.08432C4.73942 9.03032 4.86314 8.89668 4.90447 8.73025C5.02886 8.22926 5.22658 7.75144 5.49033 7.31028C5.58239 7.15629 5.58489 6.96478 5.49689 6.80844L4.83012 5.62394L5.56325 4.89081L6.81313 5.5179C6.96642 5.59481 7.14843 5.58779 7.29534 5.49929C7.73564 5.23408 8.21281 5.03476 8.71333 4.9087C8.88728 4.86489 9.02443 4.73126 9.07274 4.5585L9.43869 3.25H10.4755L10.9157 4.57666C10.9697 4.73942 11.1033 4.86314 11.2697 4.90447C11.7707 5.02886 12.2486 5.22658 12.6897 5.49033C12.8437 5.58239 13.0352 5.58489 13.1916 5.49689Z" fill="currentColor"/><path d="M1.15063 1.87794C0.94979 1.6771 0.94979 1.35147 1.15063 1.15063C1.35147 0.949789 1.6771 0.949789 1.87794 1.15063L18.8494 18.1221C19.0502 18.3229 19.0502 18.6485 18.8494 18.8494C18.6485 19.0502 18.3229 19.0502 18.1221 18.8494L1.15063 1.87794Z" fill="currentColor"/></g><path fill-rule="evenodd" clip-rule="evenodd" d="M13 24.5C19.3513 24.5 24.5 19.3513 24.5 13C24.5 6.64873 19.3513 1.5 13 1.5C6.64873 1.5 1.5 6.64873 1.5 13C1.5 19.3513 6.64873 24.5 13 24.5ZM13 25.5C19.9036 25.5 25.5 19.9036 25.5 13C25.5 6.09644 19.9036 0.5 13 0.5C6.09644 0.5 0.5 6.09644 0.5 13C0.5 19.9036 6.09644 25.5 13 25.5Z" fill="currentColor"/></svg>