<svg width="20" height="20" viewBox="0 0 20 20" fill="none" xmlns="http://www.w3.org/2000/svg">
<g opacity="0.8">
<path fill-rule="evenodd" clip-rule="evenodd" d="M11.5576 3.25C11.8544 3.25 12.1233 3.42509 12.2434 3.69656L12.6859 4.69656C12.7301 4.79661 12.7507 4.89918 12.7508 4.99917C13.1878 5.12648 13.6082 5.30097 14.0052 5.5189C14.0662 5.45819 14.1393 5.40664 14.2239 5.36799L15.1947 4.92456C15.4795 4.79445 15.8152 4.85501 16.0366 5.07643L16.8744 5.91414C17.0843 6.12405 17.1506 6.43801 17.0436 6.71489L16.6493 7.73483C16.6098 7.83694 16.5518 7.92404 16.4811 7.99487C16.6991 8.39186 16.8735 8.81226 17.0008 9.24925C17.0869 9.24944 17.175 9.2647 17.2621 9.29718L18.2621 9.67007C18.5555 9.77948 18.7501 10.0597 18.7501 10.3728V11.5575C18.7501 11.8544 18.575 12.1233 18.3035 12.2434L17.3035 12.6858C17.2034 12.7301 17.1008 12.7506 17.0008 12.7508C16.8735 13.1877 16.6991 13.6081 16.4811 14.0051C16.5419 14.0661 16.5934 14.1392 16.6321 14.2239L17.0755 15.1946C17.2056 15.4795 17.1451 15.8152 16.9236 16.0366L16.0859 16.8743C15.876 17.0842 15.5621 17.1505 15.2852 17.0435L14.2652 16.6492C14.1631 16.6098 14.076 16.5517 14.0052 16.4811C13.6082 16.699 13.1878 16.8735 12.7508 17.0008C12.7506 17.0868 12.7354 17.1749 12.7029 17.262L12.33 18.262C12.2206 18.5554 11.9404 18.75 11.6273 18.75H10.4426C10.1457 18.75 9.87678 18.5749 9.75668 18.3034L9.31427 17.3034C9.27001 17.2034 9.24946 17.1009 9.2493 17.0009C8.81229 16.8736 8.39186 16.6991 7.99485 16.4812C7.93388 16.5418 7.86078 16.5934 7.7762 16.632L6.80542 17.0754C6.52059 17.2055 6.1849 17.145 5.96348 16.9236L5.12577 16.0859C4.91586 15.876 4.84951 15.562 4.95655 15.2851L5.35082 14.2652C5.39027 14.1631 5.44827 14.0761 5.51888 14.0052C5.30093 13.6082 5.12644 13.1878 4.99912 12.7508C4.91315 12.7505 4.82508 12.7353 4.73802 12.7028L3.73802 12.3299C3.44461 12.2205 3.25006 11.9403 3.25006 11.6272V10.4425C3.25006 10.1456 3.42515 9.87672 3.69662 9.75662L4.69662 9.31421C4.79664 9.26996 4.89916 9.24941 4.99912 9.24924C5.12643 8.81222 5.30093 8.39178 5.51888 7.99476C5.4582 7.9338 5.40668 7.8607 5.36806 7.77614L4.92462 6.80536C4.79452 6.52053 4.85507 6.18484 5.07649 5.96341L5.9142 5.12571C6.12411 4.9158 6.43807 4.84945 6.71495 4.95649L7.73489 5.35076C7.83696 5.39022 7.92403 5.44822 7.99485 5.51884C8.39186 5.30091 8.81229 5.12642 9.24931 4.99912C9.24951 4.91313 9.26477 4.82504 9.29724 4.73796L9.67013 3.73796C9.77954 3.44455 10.0597 3.25 10.3729 3.25H11.5576Z" fill="currentColor"/>
</g>
<path fill-rule="evenodd" clip-rule="evenodd" d="M8.23223 11.5178C8.69772 11.9833 9.32837 12.25 10 12.25C10.6716 12.25 11.3023 11.9833 11.7678 11.5178C12.2333 11.0523 12.5 10.4216 12.5 9.75C12.5 9.07837 12.2333 8.44772 11.7678 7.98223C11.3023 7.51674 10.6716 7.25 10 7.25C9.32837 7.25 8.69772 7.51674 8.23223 7.98223C7.76674 8.44772 7.5 9.07837 7.5 9.75C7.5 10.4216 7.76674 11.0523 8.23223 11.5178ZM11.0607 10.8107C10.7808 11.0905 10.4037 11.25 10 11.25C9.59632 11.25 9.21915 11.0905 8.93934 10.8107C8.65953 10.5308 8.5 10.1537 8.5 9.75C8.5 9.34632 8.65953 8.96915 8.93934 8.68934C9.21915 8.40953 9.59632 8.25 10 8.25C10.4037 8.25 10.7808 8.40953 11.0607 8.68934C11.3405 8.96915 11.5 9.34632 11.5 9.75C11.5 10.1537 11.3405 10.5308 11.0607 10.8107Z" fill="black"/>
<path fill-rule="evenodd" clip-rule="evenodd" d="M14.2161 3.52261L12.9469 4.23706C12.5759 4.03836 12.1853 3.8775 11.7804 3.75738L11.3109 2.34254C11.2431 2.13803 11.0519 2 10.8364 2H9.05934C8.83506 2 8.63822 2.14934 8.57781 2.36533L8.18566 3.76755C7.78153 3.88997 7.39185 4.05304 7.02195 4.25387L5.68911 3.58516C5.49652 3.48853 5.26369 3.52615 5.11133 3.67851L3.85477 4.93507C3.69618 5.09366 3.6626 5.33845 3.77261 5.53389L4.48706 6.80311C4.28836 7.17412 4.1275 7.56472 4.00738 7.9696L2.59254 8.43906C2.38803 8.50692 2.25 8.69815 2.25 8.91362V10.6907C2.25 10.9149 2.39934 11.1118 2.61533 11.1722L4.01755 11.5643C4.13997 11.9685 4.30304 12.3581 4.50387 12.7281L3.83516 14.0609C3.73853 14.2535 3.77615 14.4863 3.92851 14.6387L5.18507 15.8952C5.34366 16.0538 5.58845 16.0874 5.78389 15.9774L7.05311 15.2629C7.42412 15.4616 7.81472 15.6225 8.2196 15.7426L8.68906 17.1575C8.75692 17.362 8.94815 17.5 9.16362 17.5H10.9407C11.1649 17.5 11.3618 17.3507 11.4222 17.1347L11.8143 15.7324C12.2185 15.61 12.6081 15.447 12.9781 15.2461L14.3109 15.9148C14.5035 16.0115 14.7363 15.9738 14.8887 15.8215L16.1452 14.5649C16.3038 14.4063 16.3374 14.1616 16.2274 13.9661L15.5129 12.6969C15.7116 12.3259 15.8725 11.9353 15.9926 11.5304L17.4075 11.0609C17.612 10.9931 17.75 10.8019 17.75 10.5864V8.80934C17.75 8.58506 17.6007 8.38822 17.3847 8.32781L15.9824 7.93566C15.86 7.53153 15.697 7.14185 15.4961 6.77195L16.1648 5.43911C16.2615 5.24652 16.2238 5.01369 16.0715 4.86133L14.8149 3.60477C14.6563 3.44618 14.4116 3.4126 14.2161 3.52261ZM13.1916 5.24689L14.3761 4.58012L15.1092 5.31325L14.4821 6.56313C14.4052 6.71642 14.4122 6.89843 14.5007 7.04534C14.7659 7.48564 14.9652 7.96281 15.0913 8.46333C15.1351 8.63728 15.2687 8.77443 15.4415 8.82274L16.75 9.18869V10.2255L15.4233 10.6657C15.2606 10.7197 15.1369 10.8533 15.0955 11.0197C14.9711 11.5207 14.7734 11.9986 14.5097 12.4397C14.4176 12.5937 14.4151 12.7852 14.5031 12.9416L15.1699 14.1261L14.4368 14.8592L13.1869 14.2321C13.0336 14.1552 12.8516 14.1622 12.7047 14.2507C12.2644 14.5159 11.7872 14.7152 11.2867 14.8413C11.1127 14.8851 10.9756 15.0187 10.9273 15.1915L10.5613 16.5H9.52452L9.08432 15.1733C9.03032 15.0106 8.89668 14.8869 8.73025 14.8455C8.22926 14.7211 7.75144 14.5234 7.31028 14.2597C7.15629 14.1676 6.96478 14.1651 6.80844 14.2531L5.62394 14.9199L4.89081 14.1868L5.5179 12.9369C5.59481 12.7836 5.58779 12.6016 5.49929 12.4547C5.23408 12.0144 5.03476 11.5372 4.9087 11.0367C4.86489 10.8627 4.73126 10.7256 4.5585 10.6773L3.25 10.3113V9.27452L4.57666 8.83432C4.73942 8.78032 4.86314 8.64668 4.90447 8.48025C5.02886 7.97926 5.22658 7.50144 5.49033 7.06028C5.58239 6.90629 5.58489 6.71478 5.49689 6.55844L4.83012 5.37394L5.56325 4.64081L6.81313 5.2679C6.96642 5.34481 7.14843 5.33779 7.29534 5.24929C7.73564 4.98408 8.21281 4.78476 8.71333 4.6587C8.88728 4.61489 9.02443 4.48126 9.07274 4.3085L9.43869 3H10.4755L10.9157 4.32666C10.9697 4.48942 11.1033 4.61314 11.2697 4.65447C11.7707 4.77886 12.2486 4.97658 12.6897 5.24033C12.8437 5.33239 13.0352 5.33489 13.1916 5.24689Z" fill="black"/>
</svg>
