<svg width="20" height="20" viewBox="0 0 26 26" fill="none" xmlns="http://www.w3.org/2000/svg"><path opacity="0.2" fill-rule="evenodd" clip-rule="evenodd" d="M13.5 26C20.4036 26 26 20.4036 26 13.5C26 6.59644 20.4036 1 13.5 1C6.59644 1 1 6.59644 1 13.5C1 20.4036 6.59644 26 13.5 26ZM13.5 24C19.299 24 24 19.299 24 13.5C24 7.70101 19.299 3 13.5 3C7.70101 3 3 7.70101 3 13.5C3 19.299 7.70101 24 13.5 24Z" fill="currentColor"/><g transform="translate(3, 3)"><g opacity="0.2"><path d="M3.5 8C2.94772 8 2.5 7.55228 2.5 7C2.5 6.44772 2.94772 6 3.5 6H17.9231C18.4754 6 18.9231 6.44772 18.9231 7C18.9231 7.55228 18.4754 8 17.9231 8H3.5Z" fill="currentColor"/><path d="M3.5 11.75C2.94772 11.75 2.5 11.3023 2.5 10.75C2.5 10.1977 2.94772 9.75 3.5 9.75H17.9231C18.4754 9.75 18.9231 10.1977 18.9231 10.75C18.9231 11.3023 18.4754 11.75 17.9231 11.75H3.5Z" fill="currentColor"/><path d="M3.5 15C2.94772 15 2.5 14.5523 2.5 14C2.5 13.4477 2.94772 13 3.5 13H17.9231C18.4754 13 18.9231 13.4477 18.9231 14C18.9231 14.5523 18.4754 15 17.9231 15H3.5Z" fill="currentColor"/></g><path d="M2.5 7C2.22386 7 2 6.77614 2 6.5C2 6.22386 2.22386 6 2.5 6H17.5C17.7761 6 18 6.22386 18 6.5C18 6.77614 17.7761 7 17.5 7H2.5Z" fill="currentColor"/><path d="M2.5 10.25C2.22386 10.25 2 10.0261 2 9.75C2 9.47386 2.22386 9.25 2.5 9.25H17.5C17.7761 9.25 18 9.47386 18 9.75C18 10.0261 17.7761 10.25 17.5 10.25H2.5Z" fill="currentColor"/><path d="M2.5 13.5C2.22386 13.5 2 13.2761 2 13C2 12.7239 2.22386 12.5 2.5 12.5H17.5C17.7761 12.5 18 12.7239 18 13C18 13.2761 17.7761 13.5 17.5 13.5H2.5Z" fill="currentColor"/><path d="M1.15063 1.87794C0.94979 1.6771 0.94979 1.35147 1.15063 1.15063C1.35147 0.949789 1.6771 0.949789 1.87794 1.15063L18.8494 18.1221C19.0502 18.3229 19.0502 18.6485 18.8494 18.8494C18.6485 19.0502 18.3229 19.0502 18.1221 18.8494L1.15063 1.87794Z" fill="currentColor"/></g><path fill-rule="evenodd" clip-rule="evenodd" d="M13 24.5C19.3513 24.5 24.5 19.3513 24.5 13C24.5 6.64873 19.3513 1.5 13 1.5C6.64873 1.5 1.5 6.64873 1.5 13C1.5 19.3513 6.64873 24.5 13 24.5ZM13 25.5C19.9036 25.5 25.5 19.9036 25.5 13C25.5 6.09644 19.9036 0.5 13 0.5C6.09644 0.5 0.5 6.09644 0.5 13C0.5 19.9036 6.09644 25.5 13 25.5Z" fill="currentColor"/></svg>