<svg width="20" height="20" viewBox="0 0 26 26" fill="none" xmlns="http://www.w3.org/2000/svg"><path opacity="0.2" fill-rule="evenodd" clip-rule="evenodd" d="M13.5 26C20.4036 26 26 20.4036 26 13.5C26 6.59644 20.4036 1 13.5 1C6.59644 1 1 6.59644 1 13.5C1 20.4036 6.59644 26 13.5 26ZM13.5 24C19.299 24 24 19.299 24 13.5C24 7.70101 19.299 3 13.5 3C7.70101 3 3 7.70101 3 13.5C3 19.299 7.70101 24 13.5 24Z" fill="currentColor"/><g transform="translate(3, 3)"><g opacity="0.2"><path d="M5 5.5C5 5.22386 5.22386 5 5.5 5H17.5C17.7761 5 18 5.22386 18 5.5V17.5C18 17.7761 17.7761 18 17.5 18H5.5C5.22386 18 5 17.7761 5 17.5V5.5Z" fill="currentColor"/><path fill-rule="evenodd" clip-rule="evenodd" d="M6.5 6.5V16.5H16.5V6.5H6.5ZM5.5 5C5.22386 5 5 5.22386 5 5.5V17.5C5 17.7761 5.22386 18 5.5 18H17.5C17.7761 18 18 17.7761 18 17.5V5.5C18 5.22386 17.7761 5 17.5 5H5.5Z" fill="currentColor"/></g><path fill-rule="evenodd" clip-rule="evenodd" d="M4.5 4.5V8.5H8.5V4.5H4.5ZM4 3.5C3.72386 3.5 3.5 3.72386 3.5 4V9C3.5 9.27614 3.72386 9.5 4 9.5H9C9.27614 9.5 9.5 9.27614 9.5 9V4C9.5 3.72386 9.27614 3.5 9 3.5H4Z" fill="currentColor"/><path fill-rule="evenodd" clip-rule="evenodd" d="M11.5 4.5V8.5H15.5V4.5H11.5ZM11 3.5C10.7239 3.5 10.5 3.72386 10.5 4V9C10.5 9.27614 10.7239 9.5 11 9.5H16C16.2761 9.5 16.5 9.27614 16.5 9V4C16.5 3.72386 16.2761 3.5 16 3.5H11Z" fill="currentColor"/><path fill-rule="evenodd" clip-rule="evenodd" d="M4.5 11.5V15.5H8.5V11.5H4.5ZM4 10.5C3.72386 10.5 3.5 10.7239 3.5 11V16C3.5 16.2761 3.72386 16.5 4 16.5H9C9.27614 16.5 9.5 16.2761 9.5 16V11C9.5 10.7239 9.27614 10.5 9 10.5H4Z" fill="currentColor"/><path fill-rule="evenodd" clip-rule="evenodd" d="M11.5 11.5V15.5H15.5V11.5H11.5ZM11 10.5C10.7239 10.5 10.5 10.7239 10.5 11V16C10.5 16.2761 10.7239 16.5 11 16.5H16C16.2761 16.5 16.5 16.2761 16.5 16V11C16.5 10.7239 16.2761 10.5 16 10.5H11Z" fill="currentColor"/><path d="M1.15063 1.87794C0.94979 1.6771 0.94979 1.35147 1.15063 1.15063C1.35147 0.949789 1.6771 0.949789 1.87794 1.15063L18.8494 18.1221C19.0502 18.3229 19.0502 18.6485 18.8494 18.8494C18.6485 19.0502 18.3229 19.0502 18.1221 18.8494L1.15063 1.87794Z" fill="currentColor"/></g><path fill-rule="evenodd" clip-rule="evenodd" d="M13 24.5C19.3513 24.5 24.5 19.3513 24.5 13C24.5 6.64873 19.3513 1.5 13 1.5C6.64873 1.5 1.5 6.64873 1.5 13C1.5 19.3513 6.64873 24.5 13 24.5ZM13 25.5C19.9036 25.5 25.5 19.9036 25.5 13C25.5 6.09644 19.9036 0.5 13 0.5C6.09644 0.5 0.5 6.09644 0.5 13C0.5 19.9036 6.09644 25.5 13 25.5Z" fill="currentColor"/></svg>