<svg width="20" height="20" viewBox="0 0 26 26" fill="none" xmlns="http://www.w3.org/2000/svg"><path opacity="0.2" d="M26 14C26 20.6274 20.6274 26 14 26C7.37258 26 2 20.6274 2 14C2 7.37258 7.37258 2 14 2C20.6274 2 26 7.37258 26 14Z" fill="currentColor"/><g transform="translate(3, 3)"><g><path fill-rule="evenodd" clip-rule="evenodd" d="M3.67144 18.2043C2.61135 18.0734 1.99673 17.5718 1.99673 16.6236C1.99673 14.6571 4.04811 14.2576 9.29138 14.2472C9.47874 14.2468 9.62876 14.2467 9.96451 14.2467H9.99673H10.029C10.3647 14.2467 10.5147 14.2468 10.7021 14.2472C15.9454 14.2576 17.9967 14.6571 17.9967 16.6236C17.9967 17.5718 17.3821 18.0734 16.322 18.2043C15.6303 18.2897 15.2006 18.2687 13.0268 18.0985C11.744 17.998 10.9089 17.9533 9.99673 17.9533C9.08459 17.9533 8.24942 17.998 6.96666 18.0985C4.79286 18.2687 4.36314 18.2897 3.67144 18.2043ZM9.29336 15.2472C4.87383 15.2559 2.99673 15.6216 2.99673 16.6236C2.99673 16.985 3.18209 17.1363 3.794 17.2118C4.38562 17.2849 4.81523 17.2639 6.88859 17.1015C8.19533 16.9992 9.05242 16.9533 9.99673 16.9533C10.9411 16.9533 11.7981 16.9992 13.1049 17.1015C15.1782 17.2639 15.6078 17.2849 16.1995 17.2118C16.8114 17.1363 16.9967 16.985 16.9967 16.6236C16.9967 15.6216 15.1196 15.2559 10.7001 15.2472C10.5136 15.2468 10.3644 15.2467 10.029 15.2467H9.99673H9.96451C9.62909 15.2467 9.47984 15.2468 9.29336 15.2472Z" fill="currentColor"/><path fill-rule="evenodd" clip-rule="evenodd" d="M16.0629 8.07065C17.3152 7.78685 18 7.07615 18 5.86295C18 3.11393 14.4968 1.25001 10 1.25001C5.5032 1.25001 2.00002 3.11393 2.00002 5.86295C2.00002 7.07615 2.68479 7.78685 3.93716 8.07065C4.80815 8.26803 5.59468 8.28067 7.97167 8.21263C8.89655 8.18615 9.41008 8.17566 10 8.17566C10.59 8.17566 11.1035 8.18615 12.0284 8.21263C14.4053 8.28067 15.1919 8.26803 16.0629 8.07065ZM10 2.25001C14.0176 2.25001 17 3.83684 17 5.86295C17 6.56612 16.6711 6.90746 15.8419 7.09538C15.0897 7.26583 14.3284 7.27806 12.057 7.21304C11.1231 7.18631 10.6021 7.17566 10 7.17566C9.39788 7.17566 8.87696 7.18631 7.94306 7.21304C5.67158 7.27806 4.91031 7.26583 4.15817 7.09538C3.32891 6.90746 3.00002 6.56612 3.00002 5.86295C3.00002 3.83684 5.98241 2.25001 10 2.25001Z" fill="currentColor"/><path d="M2.50181 10.432C2.26325 10.571 1.95711 10.4904 1.81804 10.2518C1.67896 10.0132 1.75962 9.70711 1.99818 9.56804C2.64599 9.19039 3.34268 9 4.07961 9C4.566 9 4.84614 9.0812 5.29285 9.29203L5.30514 9.29783C5.63877 9.45531 5.7939 9.5 6.125 9.5C6.45151 9.5 6.59066 9.45793 6.8894 9.30496L6.90124 9.29889C7.32109 9.0839 7.59617 9 8.08553 9C8.58266 9 8.85797 9.08598 9.27941 9.30735C9.57128 9.46065 9.69687 9.5 10 9.5C10.3028 9.5 10.4281 9.46073 10.7149 9.30988L10.7194 9.30749C11.1403 9.0861 11.4159 9 11.9137 9C12.4065 9 12.6817 9.08395 13.11 9.30142L13.1154 9.30418C13.4193 9.45849 13.5559 9.5 13.875 9.5C14.1949 9.5 14.3343 9.45796 14.6432 9.30305L14.6495 9.29991C15.0811 9.08347 15.3568 9 15.8478 9C16.5773 9 17.292 9.18786 17.9859 9.55914C18.2294 9.68941 18.3211 9.9924 18.1909 10.2359C18.0606 10.4794 17.7576 10.5711 17.5141 10.4409C16.962 10.1455 16.4086 10 15.8478 10C15.5379 10 15.4025 10.041 15.0978 10.1938L15.0915 10.197C14.6556 10.4155 14.3755 10.5 13.875 10.5C13.3738 10.5 13.0946 10.4152 12.6626 10.1958L12.6572 10.1931C12.3569 10.0406 12.2239 10 11.9137 10C11.6031 10 11.4747 10.0401 11.185 10.1925L11.1804 10.1949C10.7626 10.4147 10.4904 10.5 10 10.5C9.50938 10.5 9.23718 10.4147 8.81845 10.1948L8.8144 10.1927C8.52393 10.0401 8.39559 10 8.08553 10C7.77908 10 7.64802 10.04 7.35703 10.189L7.34519 10.195C6.91739 10.4141 6.63328 10.5 6.125 10.5C5.62146 10.5 5.33365 10.4171 4.8783 10.2022L4.86602 10.1964C4.54096 10.0429 4.39279 10 4.07961 10C3.52065 10 2.99759 10.1429 2.50181 10.432Z" fill="currentColor"/><path d="M3 13C2.72386 13 2.5 12.7761 2.5 12.5C2.5 12.2239 2.72386 12 3 12H17C17.2761 12 17.5 12.2239 17.5 12.5C17.5 12.7761 17.2761 13 17 13H3Z" fill="currentColor"/><path d="M6.09999 5.24999C6.09999 5.58136 5.83136 5.84999 5.49999 5.84999C5.16862 5.84999 4.89999 5.58136 4.89999 5.24999C4.89999 4.91862 5.16862 4.64999 5.49999 4.64999C5.83136 4.64999 6.09999 4.91862 6.09999 5.24999Z" fill="currentColor"/><path d="M8.59999 4.24999C8.59999 4.58136 8.33136 4.84999 7.99999 4.84999C7.66862 4.84999 7.39999 4.58136 7.39999 4.24999C7.39999 3.91862 7.66862 3.64999 7.99999 3.64999C8.33136 3.64999 8.59999 3.91862 8.59999 4.24999Z" fill="currentColor"/><path d="M10.6 5.74999C10.6 6.08136 10.3314 6.34999 9.99999 6.34999C9.66862 6.34999 9.39999 6.08136 9.39999 5.74999C9.39999 5.41862 9.66862 5.14999 9.99999 5.14999C10.3314 5.14999 10.6 5.41862 10.6 5.74999Z" fill="currentColor"/><path d="M12.6 4.24999C12.6 4.58136 12.3314 4.84999 12 4.84999C11.6686 4.84999 11.4 4.58136 11.4 4.24999C11.4 3.91862 11.6686 3.64999 12 3.64999C12.3314 3.64999 12.6 3.91862 12.6 4.24999Z" fill="currentColor"/><path d="M15.1 5.24999C15.1 5.58136 14.8314 5.84999 14.5 5.84999C14.1686 5.84999 13.9 5.58136 13.9 5.24999C13.9 4.91862 14.1686 4.64999 14.5 4.64999C14.8314 4.64999 15.1 4.91862 15.1 5.24999Z" fill="currentColor"/></g></g><path fill-rule="evenodd" clip-rule="evenodd" d="M13 24.5C19.3513 24.5 24.5 19.3513 24.5 13C24.5 6.64873 19.3513 1.5 13 1.5C6.64873 1.5 1.5 6.64873 1.5 13C1.5 19.3513 6.64873 24.5 13 24.5ZM13 25.5C19.9036 25.5 25.5 19.9036 25.5 13C25.5 6.09644 19.9036 0.5 13 0.5C6.09644 0.5 0.5 6.09644 0.5 13C0.5 19.9036 6.09644 25.5 13 25.5Z" fill="currentColor"/></svg>