<svg width="20" height="20" viewBox="0 0 26 26" fill="none" xmlns="http://www.w3.org/2000/svg"><path opacity="0.2" fill-rule="evenodd" clip-rule="evenodd" d="M13.5 26C20.4036 26 26 20.4036 26 13.5C26 6.59644 20.4036 1 13.5 1C6.59644 1 1 6.59644 1 13.5C1 20.4036 6.59644 26 13.5 26ZM13.5 24C19.299 24 24 19.299 24 13.5C24 7.70101 19.299 3 13.5 3C7.70101 3 3 7.70101 3 13.5C3 19.299 7.70101 24 13.5 24Z" fill="currentColor"/><g transform="translate(3, 3)"><g><g opacity="0.2"><path d="M19 7.61295C19 8.82615 18.3152 9.53685 17.0629 9.82065C16.1919 10.018 15.4053 10.0307 13.0284 9.96263C12.1035 9.93615 11.59 9.92566 11 9.92566C10.4101 9.92566 9.89655 9.93615 8.97167 9.96263C6.59468 10.0307 5.80815 10.018 4.93716 9.82065C3.68479 9.53685 3.00002 8.82615 3.00002 7.61295C3.00002 4.86393 6.5032 3.00001 11 3.00001C15.4968 3.00001 19 4.86393 19 7.61295Z" fill="currentColor"/><path d="M2.99673 18.3736C2.99673 19.3218 3.61135 19.8234 4.67144 19.9543C5.36314 20.0397 5.79286 20.0187 7.96666 19.8485C9.24942 19.748 10.0846 19.7033 10.9967 19.7033C11.9089 19.7033 12.744 19.748 14.0268 19.8485C16.2006 20.0187 16.6303 20.0397 17.322 19.9543C18.3821 19.8234 18.9967 19.3218 18.9967 18.3736C18.9967 16.4071 16.9454 16.0076 11.7021 15.9972C11.5147 15.9968 11.3647 15.9967 11.029 15.9967H10.9967H10.9645C10.6288 15.9967 10.4787 15.9968 10.2914 15.9972C5.04811 16.0076 2.99673 16.4071 2.99673 18.3736Z" fill="currentColor"/><path d="M3.75362 12.6139C3.2765 12.8921 2.66422 12.7308 2.38608 12.2536C2.10793 11.7765 2.26924 11.1642 2.74637 10.8861C3.47019 10.4641 4.2537 10.25 5.07961 10.25C5.6526 10.25 5.99872 10.3503 6.50625 10.5899L6.51855 10.5957C6.79134 10.7244 6.88012 10.75 7.125 10.75C7.36062 10.75 7.42729 10.7298 7.6615 10.6099L7.67334 10.6038C8.15762 10.3559 8.50471 10.25 9.08553 10.25C9.6762 10.25 10.025 10.3589 10.5119 10.6147L10.516 10.6168C10.7383 10.7336 10.7906 10.75 11 10.75C11.209 10.75 11.2609 10.7338 11.4821 10.6174L11.4866 10.615C11.9731 10.3591 12.3224 10.25 12.9137 10.25C13.4978 10.25 13.844 10.3556 14.3363 10.6056C14.5816 10.7302 14.6469 10.75 14.875 10.75C15.1046 10.75 15.1737 10.7292 15.4191 10.6061L15.4254 10.603C15.9204 10.3547 16.2663 10.25 16.8478 10.25C17.6616 10.25 18.4569 10.4591 19.2218 10.8683C19.7087 11.1288 19.8923 11.7348 19.6317 12.2218C19.3712 12.7087 18.7652 12.8923 18.2782 12.6317C17.7971 12.3743 17.3242 12.25 16.8478 12.25C16.6285 12.25 16.5632 12.2698 16.3219 12.3908C15.8163 12.6443 15.4658 12.75 14.875 12.75C14.2827 12.75 13.9323 12.6435 13.4363 12.3916L13.4308 12.3889C13.1945 12.2689 13.1326 12.25 12.9137 12.25C12.6967 12.25 12.6419 12.2671 12.4178 12.385L12.4132 12.3874C11.9299 12.6417 11.5843 12.75 11 12.75C10.4156 12.75 10.0701 12.6418 9.58594 12.3874L9.58189 12.3853C9.35691 12.2671 9.30206 12.25 9.08553 12.25C8.87053 12.25 8.81148 12.268 8.58493 12.384L8.57308 12.3901C8.08075 12.6422 7.72416 12.75 7.125 12.75C6.53523 12.75 6.18108 12.648 5.66488 12.4043L5.65261 12.3985C5.38837 12.2738 5.30618 12.25 5.07961 12.25C4.60962 12.25 4.17339 12.3692 3.75362 12.6139Z" fill="currentColor"/><path d="M3.99999 15.25C3.44771 15.25 2.99999 14.8023 2.99999 14.25C2.99999 13.6977 3.44771 13.25 3.99999 13.25H18C18.5523 13.25 19 13.6977 19 14.25C19 14.8023 18.5523 15.25 18 15.25H3.99999Z" fill="currentColor"/></g><path fill-rule="evenodd" clip-rule="evenodd" d="M3.67144 18.2043C2.61135 18.0734 1.99673 17.5718 1.99673 16.6236C1.99673 14.6571 4.04811 14.2576 9.29138 14.2472C9.47874 14.2468 9.62876 14.2467 9.96451 14.2467H9.99673H10.029C10.3647 14.2467 10.5147 14.2468 10.7021 14.2472C15.9454 14.2576 17.9967 14.6571 17.9967 16.6236C17.9967 17.5718 17.3821 18.0734 16.322 18.2043C15.6303 18.2897 15.2006 18.2687 13.0268 18.0985C11.744 17.998 10.9089 17.9533 9.99673 17.9533C9.08459 17.9533 8.24942 17.998 6.96666 18.0985C4.79286 18.2687 4.36314 18.2897 3.67144 18.2043ZM9.29336 15.2472C4.87383 15.2559 2.99673 15.6216 2.99673 16.6236C2.99673 16.985 3.18209 17.1363 3.794 17.2118C4.38562 17.2849 4.81523 17.2639 6.88859 17.1015C8.19533 16.9992 9.05242 16.9533 9.99673 16.9533C10.9411 16.9533 11.7981 16.9992 13.1049 17.1015C15.1782 17.2639 15.6078 17.2849 16.1995 17.2118C16.8114 17.1363 16.9967 16.985 16.9967 16.6236C16.9967 15.6216 15.1196 15.2559 10.7001 15.2472C10.5136 15.2468 10.3644 15.2467 10.029 15.2467H9.99673H9.96451C9.62909 15.2467 9.47984 15.2468 9.29336 15.2472Z" fill="currentColor"/><path fill-rule="evenodd" clip-rule="evenodd" d="M16.0629 8.07065C17.3152 7.78685 18 7.07615 18 5.86295C18 3.11393 14.4968 1.25001 10 1.25001C5.5032 1.25001 2.00002 3.11393 2.00002 5.86295C2.00002 7.07615 2.68479 7.78685 3.93716 8.07065C4.80815 8.26803 5.59468 8.28067 7.97167 8.21263C8.89655 8.18615 9.41008 8.17566 10 8.17566C10.59 8.17566 11.1035 8.18615 12.0284 8.21263C14.4053 8.28067 15.1919 8.26803 16.0629 8.07065ZM10 2.25001C14.0176 2.25001 17 3.83684 17 5.86295C17 6.56612 16.6711 6.90746 15.8419 7.09538C15.0897 7.26583 14.3284 7.27806 12.057 7.21304C11.1231 7.18631 10.6021 7.17566 10 7.17566C9.39788 7.17566 8.87696 7.18631 7.94306 7.21304C5.67158 7.27806 4.91031 7.26583 4.15817 7.09538C3.32891 6.90746 3.00002 6.56612 3.00002 5.86295C3.00002 3.83684 5.98241 2.25001 10 2.25001Z" fill="currentColor"/><path d="M2.50181 10.432C2.26325 10.571 1.95711 10.4904 1.81804 10.2518C1.67896 10.0132 1.75962 9.70711 1.99818 9.56804C2.64599 9.19039 3.34268 9 4.07961 9C4.566 9 4.84614 9.0812 5.29285 9.29203L5.30514 9.29783C5.63877 9.45531 5.7939 9.5 6.125 9.5C6.45151 9.5 6.59066 9.45793 6.8894 9.30496L6.90124 9.29889C7.32109 9.0839 7.59617 9 8.08553 9C8.58266 9 8.85797 9.08598 9.27941 9.30735C9.57128 9.46065 9.69687 9.5 10 9.5C10.3028 9.5 10.4281 9.46073 10.7149 9.30988L10.7194 9.30749C11.1403 9.0861 11.4159 9 11.9137 9C12.4065 9 12.6817 9.08395 13.11 9.30142L13.1154 9.30418C13.4193 9.45849 13.5559 9.5 13.875 9.5C14.1949 9.5 14.3343 9.45796 14.6432 9.30305L14.6495 9.29991C15.0811 9.08347 15.3568 9 15.8478 9C16.5773 9 17.292 9.18786 17.9859 9.55914C18.2294 9.68941 18.3211 9.9924 18.1909 10.2359C18.0606 10.4794 17.7576 10.5711 17.5141 10.4409C16.962 10.1455 16.4086 10 15.8478 10C15.5379 10 15.4025 10.041 15.0978 10.1938L15.0915 10.197C14.6556 10.4155 14.3755 10.5 13.875 10.5C13.3738 10.5 13.0946 10.4152 12.6626 10.1958L12.6572 10.1931C12.3569 10.0406 12.2239 10 11.9137 10C11.6031 10 11.4747 10.0401 11.185 10.1925L11.1804 10.1949C10.7626 10.4147 10.4904 10.5 10 10.5C9.50938 10.5 9.23718 10.4147 8.81845 10.1948L8.8144 10.1927C8.52393 10.0401 8.39559 10 8.08553 10C7.77908 10 7.64802 10.04 7.35703 10.189L7.34519 10.195C6.91739 10.4141 6.63328 10.5 6.125 10.5C5.62146 10.5 5.33365 10.4171 4.8783 10.2022L4.86602 10.1964C4.54096 10.0429 4.39279 10 4.07961 10C3.52065 10 2.99759 10.1429 2.50181 10.432Z" fill="currentColor"/><path d="M3 13C2.72386 13 2.5 12.7761 2.5 12.5C2.5 12.2239 2.72386 12 3 12H17C17.2761 12 17.5 12.2239 17.5 12.5C17.5 12.7761 17.2761 13 17 13H3Z" fill="currentColor"/><path d="M6.09999 5.24999C6.09999 5.58136 5.83136 5.84999 5.49999 5.84999C5.16862 5.84999 4.89999 5.58136 4.89999 5.24999C4.89999 4.91862 5.16862 4.64999 5.49999 4.64999C5.83136 4.64999 6.09999 4.91862 6.09999 5.24999Z" fill="currentColor"/><path d="M8.59999 4.24999C8.59999 4.58136 8.33136 4.84999 7.99999 4.84999C7.66862 4.84999 7.39999 4.58136 7.39999 4.24999C7.39999 3.91862 7.66862 3.64999 7.99999 3.64999C8.33136 3.64999 8.59999 3.91862 8.59999 4.24999Z" fill="currentColor"/><path d="M10.6 5.74999C10.6 6.08136 10.3314 6.34999 9.99999 6.34999C9.66862 6.34999 9.39999 6.08136 9.39999 5.74999C9.39999 5.41862 9.66862 5.14999 9.99999 5.14999C10.3314 5.14999 10.6 5.41862 10.6 5.74999Z" fill="currentColor"/><path d="M12.6 4.24999C12.6 4.58136 12.3314 4.84999 12 4.84999C11.6686 4.84999 11.4 4.58136 11.4 4.24999C11.4 3.91862 11.6686 3.64999 12 3.64999C12.3314 3.64999 12.6 3.91862 12.6 4.24999Z" fill="currentColor"/><path d="M15.1 5.24999C15.1 5.58136 14.8314 5.84999 14.5 5.84999C14.1686 5.84999 13.9 5.58136 13.9 5.24999C13.9 4.91862 14.1686 4.64999 14.5 4.64999C14.8314 4.64999 15.1 4.91862 15.1 5.24999Z" fill="currentColor"/></g><path d="M1.15063 1.87794C0.94979 1.6771 0.94979 1.35147 1.15063 1.15063C1.35147 0.949789 1.6771 0.949789 1.87794 1.15063L18.8494 18.1221C19.0502 18.3229 19.0502 18.6485 18.8494 18.8494C18.6485 19.0502 18.3229 19.0502 18.1221 18.8494L1.15063 1.87794Z" fill="currentColor"/></g><path fill-rule="evenodd" clip-rule="evenodd" d="M13 24.5C19.3513 24.5 24.5 19.3513 24.5 13C24.5 6.64873 19.3513 1.5 13 1.5C6.64873 1.5 1.5 6.64873 1.5 13C1.5 19.3513 6.64873 24.5 13 24.5ZM13 25.5C19.9036 25.5 25.5 19.9036 25.5 13C25.5 6.09644 19.9036 0.5 13 0.5C6.09644 0.5 0.5 6.09644 0.5 13C0.5 19.9036 6.09644 25.5 13 25.5Z" fill="currentColor"/></svg>