<svg width="20" height="20" viewBox="0 0 20 20" fill="none" xmlns="http://www.w3.org/2000/svg"><g><g opacity="0.2"><path d="M18.7516 7.686L11.8887 2.27036C11.7141 2.13261 11.4986 2.05697 11.2763 2.0554L10.4797 2.04981C10.1711 2.04764 9.87878 2.18806 9.68762 2.43031L7.19621 5.58753C7.00505 5.82978 6.93643 6.14672 7.01029 6.44634L7.20096 7.21982C7.25418 7.43573 7.37785 7.62774 7.55242 7.7655L14.4153 13.1811C14.5899 13.3189 14.8054 13.3945 15.0278 13.3961L15.8244 13.4017C16.133 13.4039 16.4253 13.2634 16.6164 13.0212L19.1079 9.86396C19.299 9.62171 19.3676 9.30478 19.2938 9.00515L19.1031 8.23168C19.0499 8.01576 18.9262 7.82375 18.7516 7.686Z" fill="currentColor"/><path fill-rule="evenodd" clip-rule="evenodd" d="M10.9412 4.07033L9.08275 6.42539L15.3629 11.3812L17.2213 9.0261L10.9412 4.07033ZM11.8887 2.27036L18.7516 7.686C18.9262 7.82375 19.0499 8.01576 19.1031 8.23168L19.2938 9.00515C19.3676 9.30478 19.299 9.62171 19.1079 9.86396L16.6164 13.0212C16.4253 13.2634 16.133 13.4039 15.8244 13.4017L15.0278 13.3961C14.8054 13.3945 14.5899 13.3189 14.4153 13.1811L7.55242 7.7655C7.37785 7.62774 7.25418 7.43573 7.20096 7.21982L7.01029 6.44634C6.93643 6.14672 7.00505 5.82978 7.19621 5.58753L9.68762 2.43031C9.87878 2.18806 10.1711 2.04764 10.4797 2.04981L11.2763 2.0554C11.4986 2.05697 11.7141 2.13261 11.8887 2.27036Z" fill="currentColor"/><path d="M6.58617 18.4677L12.2416 11.3009C12.5837 10.8673 12.5096 10.2385 12.0761 9.89641L11.6836 9.58668L11.291 9.27694C10.8575 8.93482 10.2287 9.00894 9.88656 9.44249L4.23111 16.6093C3.88899 17.0429 3.96311 17.6717 4.39666 18.0138L5.18168 18.6333C5.61524 18.9754 6.24405 18.9013 6.58617 18.4677Z" fill="currentColor"/><path d="M17.2682 4.93109L16.5239 5.87429C16.1818 6.30785 15.5529 6.38197 15.1194 6.03984L14.3344 5.42038C13.9008 5.07825 13.8267 4.44944 14.1688 4.01588L14.9131 3.07268C15.2552 2.63913 15.884 2.56501 16.3176 2.90713L17.1026 3.5266C17.5362 3.86873 17.6103 4.49754 17.2682 4.93109Z" fill="currentColor"/><path fill-rule="evenodd" clip-rule="evenodd" d="M15.4834 4.28795C15.4803 4.42225 15.5042 4.55645 15.554 4.68189C15.6876 4.70121 15.8237 4.69324 15.9536 4.65903C15.9567 4.52472 15.9328 4.39052 15.8829 4.26509C15.7494 4.24577 15.6133 4.25373 15.4834 4.28795ZM14.9538 4.63535L14.955 4.6339C14.9546 4.63439 14.9542 4.63487 14.9538 4.63535ZM16.5239 5.87429L17.2682 4.93109C17.6103 4.49754 17.5362 3.86873 17.1026 3.5266L16.3176 2.90713C15.884 2.56501 15.2552 2.63913 14.9131 3.07268L14.1688 4.01588C13.8267 4.44944 13.9008 5.07825 14.3344 5.42038L15.1194 6.03984C15.5529 6.38197 16.1818 6.30785 16.5239 5.87429Z" fill="currentColor"/></g><path fill-rule="evenodd" clip-rule="evenodd" d="M10.2798 1.05539C10.6133 1.05774 10.9366 1.17119 11.1984 1.37783L18.0614 6.79346C18.3232 7.00009 18.5087 7.28811 18.5886 7.61198L18.7792 8.38546C18.89 8.83489 18.7871 9.3103 18.5004 9.67367L16.0089 12.8309C15.7222 13.1943 15.2838 13.4049 14.8209 13.4016L14.0243 13.3961C13.6907 13.3937 13.3675 13.2803 13.1056 13.0736L6.24268 7.65798C5.98083 7.45135 5.79532 7.16333 5.71548 6.83946L5.52482 6.06598C5.41403 5.61655 5.51695 5.14114 5.80369 4.77777L8.2951 1.62055C8.58185 1.25718 9.0203 1.04654 9.48317 1.0498L10.2798 1.05539ZM10.579 2.16284C10.4917 2.09397 10.3839 2.05615 10.2728 2.05537L9.47615 2.04977C9.32185 2.04869 9.1757 2.1189 9.08012 2.24002L6.58871 5.39724C6.49313 5.51836 6.45883 5.67683 6.49576 5.82664L6.68642 6.60012C6.71303 6.70808 6.77487 6.80409 6.86215 6.87296L13.7251 12.2886C13.8124 12.3575 13.9201 12.3953 14.0313 12.3961L14.8279 12.4017C14.9822 12.4028 15.1283 12.3325 15.2239 12.2114L17.7153 9.0542C17.8109 8.93308 17.8452 8.77461 17.8083 8.6248L17.6176 7.85132C17.591 7.74337 17.5292 7.64736 17.4419 7.57848L10.579 2.16284Z" fill="currentColor"/><path fill-rule="evenodd" clip-rule="evenodd" d="M8.88524 9.75131L3.62362 16.4191C3.45256 16.6358 3.48962 16.9502 3.7064 17.1213L4.49142 17.7408C4.70819 17.9118 5.0226 17.8748 5.19366 17.658L10.4553 10.9902L11.2403 11.6097L5.97868 18.2775C5.46549 18.9278 4.52228 19.039 3.87194 18.5258L3.08692 17.9063C2.43659 17.3931 2.32541 16.4499 2.8386 15.7996L8.10022 9.13184L8.88524 9.75131Z" fill="currentColor"/><path fill-rule="evenodd" clip-rule="evenodd" d="M13.3764 4.0599L14.3056 2.88236C14.4767 2.66558 14.7911 2.62852 15.0079 2.79958L15.7929 3.41905C16.0097 3.59012 16.0467 3.90452 15.8757 4.1213L14.9464 5.29884L15.7315 5.91831L16.6607 4.74077C17.1739 4.09044 17.0627 3.14722 16.4124 2.63403L15.6273 2.01456C14.977 1.50138 14.0338 1.61255 13.5206 2.26289L12.5914 3.44043L13.3764 4.0599Z" fill="currentColor"/></g><path d="M1.15063 1.87794C0.94979 1.6771 0.94979 1.35147 1.15063 1.15063C1.35147 0.949789 1.6771 0.949789 1.87794 1.15063L18.8494 18.1221C19.0502 18.3229 19.0502 18.6485 18.8494 18.8494C18.6485 19.0502 18.3229 19.0502 18.1221 18.8494L1.15063 1.87794Z" fill="currentColor"/></svg>