<svg width="20" height="20" viewBox="0 0 20 20" fill="none" xmlns="http://www.w3.org/2000/svg"><g><g opacity="0.2"><path fill-rule="evenodd" clip-rule="evenodd" d="M4.16519 4.11513C3.66162 3.88833 3.06954 4.11269 2.84274 4.61626L0.760672 9.23902C0.533868 9.74259 0.75823 10.3347 1.2618 10.5615L2.66139 11.1918C3.16496 11.4186 3.75704 11.1943 3.98384 10.6907L6.06591 6.06795C6.29271 5.56439 6.06835 4.9723 5.56479 4.7455L4.16519 4.11513ZM2.41525 9.86925C2.74902 10.0196 3.14146 9.87087 3.29179 9.5371C3.44212 9.20333 3.29341 8.81089 2.95964 8.66056C2.62587 8.51024 2.23343 8.65895 2.0831 8.99272C1.93277 9.32649 2.08148 9.71893 2.41525 9.86925Z" fill="currentColor"/><path fill-rule="evenodd" clip-rule="evenodd" d="M19.0649 10.6873C19.5813 10.4916 19.8414 9.91433 19.6457 9.39787L17.8494 4.65673C17.6538 4.14027 17.0765 3.88021 16.56 4.07588L15.1246 4.61972C14.6081 4.81539 14.3481 5.39269 14.5437 5.90915L16.34 10.6503C16.5357 11.1668 17.113 11.4268 17.6294 11.2311L19.0649 10.6873ZM16.2337 5.38078C15.8914 5.51047 15.719 5.89311 15.8487 6.23543C15.9784 6.57775 16.3611 6.75011 16.7034 6.62042C17.0457 6.49073 17.2181 6.10809 17.0884 5.76577C16.9587 5.42345 16.576 5.25109 16.2337 5.38078Z" fill="currentColor"/><path fill-rule="evenodd" clip-rule="evenodd" d="M15.0817 5.68929C15.0817 5.68929 15.0817 5.68929 15.0817 5.68929L15.0744 5.68992L15.0514 5.69197L14.9613 5.70026C14.8827 5.70764 14.7685 5.7187 14.6273 5.73335C14.3445 5.76266 13.9543 5.80623 13.524 5.86323C12.6496 5.97906 11.6573 6.14456 11.0521 6.34634C10.8534 6.41258 10.5897 6.5618 10.2756 6.7909C9.96763 7.01554 9.63722 7.2976 9.30751 7.60387C8.64825 8.21627 8.01615 8.90259 7.60709 9.36458C7.46305 9.52725 7.4883 9.69877 7.57009 9.78676C7.82872 10.065 8.17019 10.3408 8.55403 10.4538C8.90555 10.5573 9.34247 10.5408 9.87501 10.1414L9.88902 10.1309L10.8836 9.48854C11.0929 9.35341 11.4802 9.1946 11.8735 9.41256C12.3113 9.65516 12.9667 10.2409 13.4709 10.7162C13.7329 10.9632 13.9709 11.1967 14.1432 11.3683C14.2262 11.451 14.2941 11.5195 14.3425 11.5684C14.4048 11.5777 14.5141 11.5727 14.6903 11.5132C14.9219 11.435 15.1862 11.2898 15.4483 11.1154C15.7065 10.9436 15.9424 10.757 16.1152 10.6119C16.2011 10.5397 16.2702 10.4787 16.3173 10.4363C16.3409 10.4152 16.3588 10.3987 16.3706 10.3878L16.3834 10.3758L16.3862 10.3732C16.3862 10.3733 16.3862 10.3732 16.3862 10.3732M13.7076 12.3492L13.7667 12.4099L13.8425 12.4478C14.2389 12.646 14.6741 12.5741 15.0102 12.4606C15.36 12.3425 15.7073 12.1442 16.0023 11.9479C16.3013 11.749 16.568 11.5376 16.7585 11.3775C16.8543 11.297 16.9321 11.2285 16.9864 11.1796C17.0136 11.1551 17.035 11.1355 17.0499 11.1216L17.0674 11.1053L17.0724 11.1007L17.0739 11.0992C17.074 11.0992 17.0747 11.0984 16.7306 10.7357L17.0747 11.0984C17.2751 10.9084 17.2834 10.5919 17.0933 10.3916C16.9033 10.1913 16.5865 10.1833 16.3862 10.3732M13.7076 12.3492L13.7033 12.3448L13.6896 12.3308L13.636 12.2762C13.5893 12.2288 13.5214 12.1604 13.4375 12.0769C13.2696 11.9097 13.0385 11.6829 12.7849 11.4438C12.2872 10.9747 11.7584 10.512 11.4426 10.3187C11.4375 10.3215 11.4321 10.3248 11.4262 10.3286L10.4604 10.9523C9.68828 11.5254 8.93107 11.6073 8.27162 11.4131C7.64035 11.2273 7.15111 10.8048 6.83765 10.4676C6.34126 9.93359 6.43947 9.17479 6.85839 8.70167C7.27706 8.22882 7.93353 7.5153 8.62692 6.8712C8.97354 6.54923 9.33549 6.23888 9.68629 5.98299C10.031 5.73157 10.3925 5.51214 10.7358 5.39767C11.4424 5.16209 12.5226 4.98715 13.3927 4.87189C13.8347 4.81334 14.2347 4.76869 14.5241 4.73868C14.669 4.72366 14.7864 4.71228 14.8678 4.70463L14.962 4.69597L14.987 4.69376L14.9953 4.69303C15.2704 4.66938 15.5134 4.87318 15.537 5.14831C15.5607 5.42343 15.3568 5.66563 15.0817 5.68929" fill="currentColor"/><path fill-rule="evenodd" clip-rule="evenodd" d="M5.50811 6.62356L5.31114 6.16399L5.11424 5.70439L5.15332 5.68769L5.26311 5.641C5.35778 5.60084 5.49342 5.54353 5.65765 5.47478C5.98593 5.33736 6.42933 5.15388 6.88859 4.97017C7.34682 4.78688 7.82542 4.60153 8.22264 4.46133C8.42073 4.39142 8.60439 4.33067 8.75802 4.28677C8.89066 4.24887 9.06144 4.20483 9.20222 4.20483C9.33017 4.20483 9.46498 4.23412 9.5752 4.26352C9.69432 4.29528 9.82524 4.33856 9.95828 4.38693C10.2248 4.48385 10.5256 4.61072 10.8037 4.73431C11.0831 4.85851 11.3461 4.98231 11.5389 5.07485C11.6355 5.12119 11.7147 5.15986 11.7701 5.18703L11.8343 5.21873L11.8514 5.22724L11.8572 5.23013C12.1042 5.35362 12.2049 5.65422 12.0814 5.90121C11.9579 6.14819 11.6576 6.24831 11.4106 6.12483C11.4106 6.12483 11.4106 6.12483 11.4106 6.12483L11.4057 6.12239L11.3901 6.11463L11.3292 6.08458C11.2762 6.05856 11.1997 6.02123 11.1062 5.97637C10.919 5.88651 10.6653 5.76712 10.3975 5.64813C10.1284 5.52853 9.85161 5.41221 9.61654 5.32673C9.49878 5.28391 9.39791 5.25118 9.31754 5.22975C9.25177 5.21221 9.21687 5.20699 9.2056 5.20546C9.20425 5.20581 9.2015 5.20637 9.19723 5.20723C9.17778 5.21115 9.12677 5.22143 9.03274 5.24829C8.90709 5.2842 8.74496 5.33744 8.55546 5.40432C8.1775 5.53772 7.71373 5.71715 7.25998 5.89865C6.80727 6.07973 6.3691 6.26104 6.04379 6.39722C5.88123 6.46527 5.74708 6.52195 5.65366 6.56158L5.54566 6.60751L5.50811 6.62356ZM4.85157 6.36095C4.74279 6.10714 4.86043 5.81317 5.11424 5.70439L5.31114 6.16399L5.50811 6.62356C5.2543 6.73233 4.96034 6.61477 4.85157 6.36095Z" fill="currentColor"/><path fill-rule="evenodd" clip-rule="evenodd" d="M3.00227 10.1979C3.19198 9.99722 3.50844 9.98834 3.7091 10.1781L3.3656 10.5414L3.0221 10.9047C2.82144 10.715 2.81256 10.3985 3.00227 10.1979ZM7.46371 13.4897L10.1175 14.4849C10.6683 14.6914 11.2889 14.557 11.7049 14.1411L13.7125 12.1334C13.9078 11.9381 14.2244 11.9381 14.4196 12.1334C14.6149 12.3286 14.6149 12.6452 14.4196 12.8405L12.412 14.8482C11.7187 15.5414 10.6843 15.7654 9.76638 15.4212L7.05655 14.405L7.03308 14.3933C6.90825 14.3309 6.75551 14.2212 6.60811 14.1079C6.45077 13.9869 6.2656 13.835 6.06588 13.6658C5.66593 13.3268 5.19397 12.9065 4.74448 12.4987C4.29436 12.0904 3.86391 11.692 3.54619 11.3959C3.38726 11.2478 3.2564 11.1251 3.1652 11.0395L3.05957 10.9401L3.0221 10.9047L3.3656 10.5414L3.7091 10.1781L3.74551 10.2124L3.84993 10.3107C3.94028 10.3956 4.07015 10.5173 4.22795 10.6643C4.54367 10.9585 4.97064 11.3537 5.41638 11.7581C5.86276 12.163 6.32512 12.5746 6.71243 12.9029C6.90634 13.0672 7.07803 13.2078 7.21759 13.3151C7.34492 13.413 7.42489 13.4669 7.46371 13.4897Z" fill="currentColor"/><path fill-rule="evenodd" clip-rule="evenodd" d="M3.76823 15.2505C4.12231 14.8267 4.75294 14.7701 5.17679 15.1242L6.09698 15.8929C6.2403 16.0127 6.41427 16.0899 6.5992 16.1158L7.78662 16.2824C8.33355 16.3591 8.71473 16.8646 8.63802 17.4116C8.5613 17.9585 8.05574 18.3397 7.50881 18.263L6.32139 18.0964C5.7666 18.0186 5.24468 17.787 4.81475 17.4278L3.89455 16.6591C3.47071 16.305 3.41415 15.6744 3.76823 15.2505Z" fill="currentColor"/><path d="M4.9484 6.12365L7.38033 5.15088H9.81226L14.5525 5.67752L15.5252 8.10945L16.498 10.5414L14.5525 12.0005L11.1478 14.9189L7.38033 14.0706L5.31114 12.4869L3.3656 10.5414L4.9484 6.12365Z" fill="currentColor"/></g><path fill-rule="evenodd" clip-rule="evenodd" d="M3.64645 2.49062C3.14289 2.26382 2.5508 2.48818 2.324 2.99174L0.160666 7.79495C-0.0661367 8.29851 0.158225 8.8906 0.661791 9.1174L2.15161 9.7884C2.65517 10.0152 3.24725 9.79085 3.47406 9.28728L5.63739 4.48407C5.8642 3.98051 5.63983 3.38843 5.13627 3.16162L3.64645 2.49062ZM1.87305 8.4174C2.21617 8.57194 2.61959 8.41907 2.77413 8.07596C2.92866 7.73284 2.77579 7.32942 2.43268 7.17488C2.08956 7.02035 1.68614 7.17322 1.5316 7.51633C1.37707 7.85944 1.52994 8.26287 1.87305 8.4174Z" fill="currentColor"/><path fill-rule="evenodd" clip-rule="evenodd" d="M19.0149 9.24833C19.5313 9.05266 19.7914 8.47537 19.5957 7.95891L17.7294 3.03271C17.5337 2.51625 16.9564 2.25619 16.4399 2.45186L14.912 3.03076C14.3955 3.22643 14.1354 3.80372 14.3311 4.32018L16.1975 9.24638C16.3932 9.76285 16.9705 10.0229 17.4869 9.82723L19.0149 9.24833ZM16.0783 3.8033C15.7264 3.93663 15.5492 4.32998 15.6826 4.68187C15.8159 5.03377 16.2092 5.21096 16.5611 5.07764C16.913 4.94432 17.0902 4.55097 16.9569 4.19907C16.8236 3.84717 16.4302 3.66998 16.0783 3.8033Z" fill="currentColor"/><path fill-rule="evenodd" clip-rule="evenodd" d="M14.8853 4.10706L14.8928 4.1064C15.1679 4.08274 15.3718 3.84054 15.3482 3.56542C15.3245 3.29029 15.0816 3.08649 14.8064 3.11014L14.7979 3.11089L14.7723 3.11316L14.6755 3.12206C14.5918 3.12992 14.4711 3.14161 14.3223 3.15705C14.0248 3.18789 13.6138 3.23377 13.1596 3.29394C12.2651 3.41244 11.1559 3.59214 10.4309 3.83384C10.0783 3.9514 9.7061 4.17763 9.35039 4.43757C8.9885 4.70202 8.61496 5.02288 8.25733 5.35563C7.54188 6.02129 6.86562 6.75752 6.43806 7.24098C6.01929 7.7145 5.92211 8.47183 6.41447 9.00663C6.73356 9.35323 7.23466 9.79141 7.88235 9.9865C8.55883 10.1903 9.33854 10.1108 10.1355 9.51917L11.1349 8.87365C11.1414 8.86946 11.1474 8.86588 11.1528 8.86284C11.2956 8.94962 11.4953 9.1001 11.7324 9.29883C11.9932 9.5174 12.2754 9.774 12.5378 10.0213C12.7997 10.268 13.0386 10.5024 13.2122 10.6753C13.2989 10.7616 13.3691 10.8324 13.4174 10.8814L13.4729 10.9378L13.4871 10.9523L13.4915 10.9569L13.5506 11.0177L13.6264 11.0555C14.0289 11.2568 14.4719 11.1842 14.8161 11.068C15.174 10.9471 15.5299 10.744 15.8327 10.5425C16.1394 10.3384 16.4132 10.1214 16.6088 9.95704C16.7071 9.87443 16.7869 9.80408 16.8427 9.75389C16.8706 9.72878 16.8925 9.70864 16.9078 9.69447L16.9258 9.67779L16.9308 9.67301L16.9324 9.67156C16.9324 9.67156 16.8442 9.3627 16.5 9L16.2285 9.33984L16 10L13.4915 10.9569L14 10.5L13.7317 9.78269C13.5833 9.63691 13.4093 9.46844 13.2236 9.2935C12.9538 9.03928 12.6561 8.76826 12.3748 8.53246C12.1008 8.30276 11.8168 8.08463 11.5801 7.95503C11.1864 7.73944 10.8005 7.89918 10.5924 8.03362L9.56402 8.6978L9.55001 8.70831C8.9953 9.12434 8.53874 9.13984 8.17077 9.029C7.76988 8.90824 7.41547 8.61749 7.15016 8.32932C7.06735 8.23936 7.04335 8.06606 7.18715 7.90345C7.60515 7.43081 8.2571 6.72173 8.9385 6.08775C9.27928 5.77068 9.62132 5.47814 9.9404 5.24496C10.2657 5.00727 10.5398 4.85166 10.7472 4.78251C11.3708 4.57462 12.3921 4.40434 13.2909 4.28528C13.7334 4.22666 14.1347 4.18186 14.4254 4.15171C14.5707 4.13665 14.6881 4.12528 14.769 4.11769L14.8616 4.10916L14.8853 4.10706Z" fill="currentColor"/><path d="M14.1274 10.1771C14.0773 10.1263 14.0057 10.0542 13.9178 9.96663C13.862 9.91108 13.7995 9.84925 13.7317 9.78269L14 10.5L13.4915 10.9569L16 10L16.2285 9.33984L16.5 9L16.2447 8.94558L16.2418 8.94828L16.2285 8.96065C16.2164 8.97187 16.1979 8.98886 16.1736 9.01068C16.1251 9.05436 16.0539 9.11711 15.9655 9.19142C15.7876 9.34087 15.5447 9.53301 15.2787 9.70998C15.0088 9.88959 14.7359 10.0396 14.4962 10.1205C14.31 10.1834 14.194 10.1881 14.1274 10.1771Z" fill="currentColor"/><path fill-rule="evenodd" clip-rule="evenodd" d="M5.04698 5.06784L4.85 4.60828L4.65311 4.14868L4.69326 4.13152L4.80609 4.08353C4.9034 4.04225 5.04281 3.98334 5.21162 3.91268C5.54904 3.77144 6.00478 3.58285 6.47681 3.39404C6.9478 3.20564 7.43958 3.01518 7.84765 2.87116C8.05117 2.79933 8.23967 2.73698 8.39721 2.69197C8.53376 2.65295 8.70752 2.60828 8.85 2.60828C8.97965 2.60828 9.1168 2.63799 9.22981 2.66813C9.35173 2.70064 9.48589 2.74498 9.62244 2.79463C9.89597 2.8941 10.2048 3.02437 10.4906 3.15137C10.7777 3.27897 11.048 3.40618 11.2461 3.50126C11.3453 3.54888 11.4267 3.58861 11.4835 3.61653L11.5495 3.64909L11.5671 3.65784L11.5731 3.66079C11.8201 3.78429 11.9207 4.08489 11.7972 4.33188C11.6737 4.57887 11.3734 4.67898 11.1264 4.5555C11.1264 4.5555 11.1264 4.5555 11.1264 4.5555L11.1214 4.55298L11.1053 4.545L11.0426 4.51408C10.9881 4.48732 10.9094 4.44892 10.8133 4.40279C10.6208 4.31037 10.3598 4.18758 10.0844 4.06518C9.80769 3.94218 9.52279 3.82246 9.28069 3.73442C9.15943 3.69033 9.05531 3.65654 8.97215 3.63436C8.90071 3.61531 8.8638 3.61012 8.85301 3.60875C8.8519 3.60908 8.84911 3.60964 8.84447 3.61056C8.82468 3.61449 8.7713 3.6251 8.67193 3.65349C8.54237 3.69051 8.3754 3.74535 8.18047 3.81415C7.79167 3.95137 7.3147 4.13591 6.8482 4.32251C6.38273 4.5087 5.93221 4.69512 5.59776 4.83512C5.43063 4.90508 5.2927 4.96336 5.19664 5.00411L5.0856 5.05134L5.04698 5.06784ZM4.39043 4.80524C4.28165 4.55142 4.39929 4.25745 4.65311 4.14868L4.85 4.60828L5.04698 5.06784C4.79316 5.17662 4.49921 5.05905 4.39043 4.80524Z" fill="currentColor"/><path fill-rule="evenodd" clip-rule="evenodd" d="M2.48668 8.76478C2.67639 8.56412 2.99285 8.55524 3.19351 8.74495L2.85001 9.10828L2.50651 9.47161C2.30585 9.2819 2.29697 8.96544 2.48668 8.76478ZM7.05681 12.1518L9.81974 13.1879C10.3705 13.3945 10.9912 13.26 11.4071 12.8441L13.4965 10.7547C13.6917 10.5595 14.0083 10.5595 14.2036 10.7547C14.3988 10.95 14.3988 11.2666 14.2036 11.4618L12.1142 13.5512C11.421 14.2444 10.3866 14.4685 9.46862 14.1243L6.64987 13.0672L6.6264 13.0555C6.49941 12.992 6.34336 12.88 6.19181 12.7635C6.03031 12.6393 5.84014 12.4834 5.63491 12.3094C5.22395 11.9611 4.73892 11.5292 4.27689 11.11C3.81423 10.6903 3.37178 10.2808 3.04519 9.97647C2.88183 9.82424 2.74732 9.69817 2.65358 9.6101L2.54501 9.50794L2.50651 9.47161L2.85001 9.10828L3.19351 8.74495L3.23095 8.78028L3.33831 8.8813C3.4312 8.96858 3.56472 9.09371 3.72695 9.2449C4.05154 9.54738 4.4905 9.95362 4.94879 10.3694C5.4077 10.7857 5.88314 11.209 6.28147 11.5466C6.48088 11.7156 6.65757 11.8602 6.80129 11.9707C6.93302 12.072 7.01616 12.1281 7.05681 12.1518Z" fill="currentColor"/><path fill-rule="evenodd" clip-rule="evenodd" d="M3.66911 14.2878C3.84615 14.0759 4.16147 14.0476 4.37339 14.2246L5.33162 15.0251C5.54659 15.2047 5.80754 15.3205 6.08494 15.3594L7.32143 15.5329C7.5949 15.5712 7.78549 15.824 7.74713 16.0975C7.70878 16.3709 7.45599 16.5615 7.18253 16.5232L5.94603 16.3497C5.48371 16.2849 5.04878 16.0919 4.6905 15.7926L3.73227 14.9921C3.52035 14.815 3.49207 14.4997 3.66911 14.2878Z" fill="currentColor"/></g><path d="M1.15063 1.87794C0.94979 1.6771 0.94979 1.35147 1.15063 1.15063C1.35147 0.949789 1.6771 0.949789 1.87794 1.15063L18.8494 18.1221C19.0502 18.3229 19.0502 18.6485 18.8494 18.8494C18.6485 19.0502 18.3229 19.0502 18.1221 18.8494L1.15063 1.87794Z" fill="currentColor"/></svg>