<svg width="20" height="20" viewBox="0 0 26 26" fill="none" xmlns="http://www.w3.org/2000/svg"><path opacity="0.2" fill-rule="evenodd" clip-rule="evenodd" d="M13.5 26C20.4036 26 26 20.4036 26 13.5C26 6.59644 20.4036 1 13.5 1C6.59644 1 1 6.59644 1 13.5C1 20.4036 6.59644 26 13.5 26ZM13.5 24C19.299 24 24 19.299 24 13.5C24 7.70101 19.299 3 13.5 3C7.70101 3 3 7.70101 3 13.5C3 19.299 7.70101 24 13.5 24Z" fill="currentColor"/><g transform="translate(3, 3)"><path opacity="0.2" fill-rule="evenodd" clip-rule="evenodd" d="M9.90006 2.2164C10.1451 1.51541 10.7933 1 11.5791 1C12.2196 1 12.7688 1.34254 13.0826 1.8489C13.3774 1.62214 13.7443 1.48649 14.1474 1.48649C15.1519 1.48649 15.9316 2.3288 15.9316 3.32432V4.59114C16.1668 4.47248 16.4324 4.40541 16.7158 4.40541C17.7203 4.40541 18.5 5.24772 18.5 6.24324V12.2027C18.5 14.0039 18.1407 15.9252 17.2634 17.4149C16.3725 18.9277 14.938 20 12.8632 20C10.4562 20 9.02301 19.4964 7.96086 18.4591C7.44517 17.9554 7.03872 17.3466 6.65071 16.6703C6.43266 16.2902 6.20719 15.864 5.96913 15.414C5.79368 15.0823 5.61139 14.7377 5.42019 14.3891L5.41367 14.3772L3.68193 10.769C3.23617 9.84028 3.63797 8.69449 4.59576 8.29537C5.45714 7.93642 6.42362 8.33255 6.82497 9.16879L7.22649 10.0054L7.22649 3.81081C7.22649 2.81528 8.00621 1.97297 9.01068 1.97297C9.33726 1.97297 9.64007 2.06201 9.90006 2.2164Z" fill="currentColor"/><path d="M15.6081 3.55758C15.2178 3.55758 14.8498 3.69099 14.5599 3.91334V2.25684C14.5599 1.28962 13.7682 0.511402 12.8092 0.511402C12.3408 0.511402 11.9059 0.700399 11.5937 1.00057C11.3149 0.411345 10.7127 0 10.0102 0C9.16272 0 8.46019 0.600342 8.29292 1.4008C7.99184 1.16733 7.6127 1.0228 7.20011 1.0228C6.22995 1.0228 5.44937 1.81214 5.44937 2.76824V10.0613L4.63533 8.43814C4.3454 7.84892 3.75439 7.49316 3.09646 7.49316C2.87344 7.49316 2.66157 7.53763 2.46085 7.61545C2.0148 7.79333 1.65796 8.14909 1.49069 8.59379C1.32342 9.03848 1.34573 9.53877 1.5576 9.97235L3.431 13.7078V13.73L3.46445 13.7523C3.68748 14.1414 3.8882 14.4971 4.06662 14.8307C4.3231 15.2976 4.55727 15.709 4.79145 16.1092C5.2821 16.9319 5.717 17.4989 6.1965 17.9436C7.36737 19.0331 8.91739 19.5 11.4041 19.5C13.389 19.5 14.9836 18.5995 16.043 16.8874C16.9016 15.4977 17.37 13.5966 17.37 11.5177V5.30302C17.37 4.3358 16.5783 3.55758 15.6193 3.55758H15.6081ZM16.2437 11.5288C16.2437 13.2631 15.8757 15.0197 15.084 16.3093C14.3146 17.5656 13.1437 18.3883 11.4041 18.3883C8.962 18.3883 7.77997 17.8991 6.95478 17.132C6.51988 16.7318 6.15189 16.2092 5.75045 15.5422C5.51628 15.1531 5.29325 14.7528 5.04792 14.3082C4.85835 13.9635 4.65763 13.6078 4.42346 13.1964L2.55006 9.46095C2.39394 9.14966 2.5389 8.76055 2.86229 8.63826C2.94035 8.6049 3.00726 8.59379 3.08531 8.59379C3.30834 8.59379 3.52021 8.71608 3.62057 8.92731L5.09253 11.8623C5.15944 11.9957 5.2598 12.118 5.39361 12.1958C5.47167 12.2403 5.57203 12.2737 5.67239 12.2959C5.70585 12.2959 5.75045 12.2959 5.7839 12.2959C5.85081 12.2959 5.91772 12.2959 5.98463 12.2737C6.1742 12.2181 6.34146 12.0958 6.44182 11.929C6.49758 11.8401 6.53103 11.74 6.54219 11.64C6.54219 11.6066 6.54219 11.5621 6.54219 11.5288V2.76824C6.54219 2.41249 6.83212 2.13455 7.1778 2.13455C7.52349 2.13455 7.81342 2.4236 7.81342 2.76824V9.50542C7.81342 9.92788 8.15911 10.2725 8.58285 10.2725C9.0066 10.2725 9.35229 9.92788 9.35229 9.50542V1.74544C9.35229 1.38968 9.64222 1.11174 9.98791 1.11174C10.3336 1.11174 10.6235 1.4008 10.6235 1.74544V8.99401C10.6235 9.41648 10.9692 9.76112 11.393 9.76112C11.8167 9.76112 12.1624 9.41648 12.1624 8.99401V2.25684C12.1624 1.90108 12.4523 1.62315 12.798 1.62315C13.1437 1.62315 13.4336 1.9122 13.4336 2.25684V9.73888C13.4336 10.1613 13.7793 10.506 14.2031 10.506C14.6268 10.506 14.9725 10.1613 14.9725 9.73888V5.30302C14.9725 4.94726 15.2624 4.66933 15.6081 4.66933C15.9538 4.66933 16.2437 4.95838 16.2437 5.30302V11.5288Z" fill="currentColor"/><path d="M1.15063 1.87794C0.94979 1.6771 0.94979 1.35147 1.15063 1.15063C1.35147 0.949789 1.6771 0.949789 1.87794 1.15063L18.8494 18.1221C19.0502 18.3229 19.0502 18.6485 18.8494 18.8494C18.6485 19.0502 18.3229 19.0502 18.1221 18.8494L1.15063 1.87794Z" fill="currentColor"/></g><path fill-rule="evenodd" clip-rule="evenodd" d="M13 24.5C19.3513 24.5 24.5 19.3513 24.5 13C24.5 6.64873 19.3513 1.5 13 1.5C6.64873 1.5 1.5 6.64873 1.5 13C1.5 19.3513 6.64873 24.5 13 24.5ZM13 25.5C19.9036 25.5 25.5 19.9036 25.5 13C25.5 6.09644 19.9036 0.5 13 0.5C6.09644 0.5 0.5 6.09644 0.5 13C0.5 19.9036 6.09644 25.5 13 25.5Z" fill="currentColor"/></svg>