<svg width="20" height="20" viewBox="0 0 20 20" fill="none" xmlns="http://www.w3.org/2000/svg"><g><g opacity="0.2"><path fill-rule="evenodd" clip-rule="evenodd" d="M12.7887 5.70274C12.7757 5.60016 12.7308 5.50073 12.6537 5.42034L12.1695 4.91496C11.5963 4.31681 10.6468 4.29656 10.0486 4.86973C9.90701 5.00544 9.79778 5.16225 9.72116 5.3305C9.15529 4.99002 8.41031 5.05468 7.91059 5.53353C7.76971 5.66853 7.66089 5.82441 7.58432 5.99166C7.01857 5.65181 6.27413 5.71666 5.77468 6.19525C5.27523 6.67384 5.1787 7.41484 5.49413 7.99457C5.32377 8.06393 5.16339 8.16601 5.0225 8.30101C4.42436 8.87417 4.40411 9.82371 4.97727 10.4218L5.38222 10.8444C5.23107 10.9128 5.08876 11.0075 4.9622 11.1288C4.36406 11.702 4.3438 12.6515 4.91697 13.2496L8.80074 17.3027C9.25221 17.7738 9.79451 18.1486 10.3949 18.4043L10.429 18.4188C11.2828 18.7824 12.2251 18.8855 13.1373 18.715C13.4691 18.6529 13.7931 18.5554 14.1037 18.4242C14.1331 18.4214 14.1626 18.4159 14.192 18.4076L15.3457 18.0821C15.6937 17.9839 16.0335 17.8587 16.362 17.7076L16.4834 17.6518C17.105 17.3659 17.6746 16.9783 18.1686 16.5049L18.2702 16.4076C18.4904 16.1966 18.6895 15.9646 18.8648 15.7151C19.7787 14.4143 19.9741 12.74 19.3841 11.2638L17.8614 7.45326C17.8516 7.4288 17.8401 7.40554 17.8271 7.38355L17.0689 5.73131C16.6897 4.90509 15.6784 4.58931 14.8965 5.053C14.6205 5.21666 14.4123 5.45584 14.2861 5.73089C13.8375 5.48222 13.2775 5.45383 12.7887 5.70274Z" fill="currentColor"/><path fill-rule="evenodd" clip-rule="evenodd" d="M5.13757 0.672662C5.59451 0.362467 6.2164 0.481431 6.52659 0.938375L7.73314 2.71572C8.04333 3.17266 7.92437 3.79455 7.46742 4.10475C7.01048 4.41494 6.38859 4.29598 6.07839 3.83903L4.87185 2.06169C4.56166 1.60474 4.68062 0.982856 5.13757 0.672662Z" fill="currentColor"/><path fill-rule="evenodd" clip-rule="evenodd" d="M13.6538 0.609309C13.1618 0.358274 12.5595 0.553561 12.3085 1.0455L11.4015 2.82284C11.1505 3.31477 11.3458 3.91707 11.8377 4.16811C12.3296 4.41914 12.9319 4.22385 13.183 3.73192L14.09 1.95458C14.341 1.46264 14.1457 0.860344 13.6538 0.609309Z" fill="currentColor"/><path fill-rule="evenodd" clip-rule="evenodd" d="M9.50879 5.70238e-05C10.0611 5.69982e-05 10.5088 0.447772 10.5088 1.00006L10.5088 2.7774C10.5088 3.32969 10.0611 3.7774 9.50879 3.7774C8.95651 3.7774 8.50879 3.32969 8.50879 2.7774L8.50879 1.00006C8.50879 0.447772 8.95651 5.70371e-05 9.50879 5.70238e-05Z" fill="currentColor"/></g><path fill-rule="evenodd" clip-rule="evenodd" d="M3.26756 10.4219C2.69439 9.82376 2.71464 8.87423 3.31279 8.30106C3.91093 7.7279 4.86046 7.74815 5.43362 8.34629L8.2011 11.2344C8.39216 11.4338 8.38541 11.7503 8.18603 11.9413C7.98664 12.1324 7.67013 12.1256 7.47908 11.9263L4.7116 9.03816C4.52055 8.83878 4.20404 8.83203 4.00465 9.02309C3.80527 9.21414 3.79852 9.53065 3.98958 9.73003L6.75706 12.6181C6.94811 12.8175 6.94136 13.134 6.74198 13.3251C6.5426 13.5161 6.22609 13.5094 6.03503 13.31L3.26756 10.4219Z" fill="currentColor"/><path fill-rule="evenodd" clip-rule="evenodd" d="M4.01974 8.31619C3.44657 7.71805 3.46682 6.76851 4.06497 6.19535C4.66311 5.62219 5.61264 5.64244 6.18581 6.24058L8.95328 9.12867C9.14434 9.32805 9.13759 9.64456 8.93821 9.83562C8.73883 10.0267 8.42232 10.0199 8.23126 9.82054L5.46378 6.93245C5.27273 6.73307 4.95622 6.72632 4.75684 6.91737C4.55746 7.10843 4.55071 7.42494 4.74176 7.62432L7.50924 10.5124C7.70029 10.7118 7.69354 11.0283 7.49416 11.2194C7.29478 11.4104 6.97827 11.4037 6.78722 11.2043L4.01974 8.31619Z" fill="currentColor"/><path fill-rule="evenodd" clip-rule="evenodd" d="M6.15565 7.65445C5.58248 7.0563 5.60273 6.10677 6.20088 5.53361C6.79902 4.96044 7.74855 4.98069 8.32172 5.57884L11.4375 8.83046C11.6286 9.02984 11.6219 9.34635 11.4225 9.53741C11.2231 9.72846 10.9066 9.72171 10.7155 9.52233L7.59969 6.27071C7.40864 6.07133 7.09213 6.06458 6.89275 6.25563C6.69337 6.44668 6.68662 6.76319 6.87767 6.96258L9.64515 9.85067C9.8362 10.05 9.82945 10.3666 9.63007 10.5576C9.43069 10.7487 9.11418 10.7419 8.92313 10.5425L6.15565 7.65445Z" fill="currentColor"/><path fill-rule="evenodd" clip-rule="evenodd" d="M10.2396 7.45182C10.1 6.78397 10.4005 6.10124 10.9874 5.75321C11.8021 5.27007 12.8558 5.59909 13.2509 6.45995L13.9995 8.09138C14.1147 8.34235 14.0046 8.63918 13.7536 8.75435C13.5027 8.86953 13.2058 8.75944 13.0907 8.50846L12.342 6.87704C12.1946 6.55583 11.8014 6.43307 11.4974 6.61334C11.2785 6.74319 11.1663 6.99793 11.2184 7.24712L11.614 9.13876C11.6706 9.40906 11.4973 9.674 11.227 9.73053C10.9567 9.78705 10.6917 9.61376 10.6352 9.34346L10.2396 7.45182Z" fill="currentColor"/><path fill-rule="evenodd" clip-rule="evenodd" d="M4.69526 14.0798C4.89464 13.8888 5.21115 13.8955 5.4022 14.0949L7.81305 16.6108C8.17101 16.9844 8.60098 17.2815 9.077 17.4843L9.11117 17.4988C9.78352 17.7852 10.5255 17.8663 11.2439 17.732C11.5433 17.6761 11.8346 17.5834 12.1113 17.4561L12.25 17.3923C12.7492 17.1627 13.2066 16.8514 13.6033 16.4713L13.7305 16.3494C13.9039 16.1832 14.0608 16.0006 14.1988 15.8041C14.9185 14.7797 15.0723 13.4612 14.6078 12.2987L13.085 8.4882C12.9825 8.23177 13.1073 7.94083 13.3638 7.83836C13.6202 7.73588 13.9111 7.86069 14.0136 8.11711L15.5364 11.9276C16.1263 13.4038 15.931 15.0781 15.0171 16.3789C14.8418 16.6285 14.6426 16.8604 14.4224 17.0714L14.2952 17.1933C13.8182 17.6504 13.2682 18.0247 12.6679 18.3008L12.5292 18.3646C12.1778 18.5263 11.8078 18.6439 11.4276 18.715C10.5154 18.8855 9.57314 18.7825 8.71933 18.4188L8.68515 18.4043C8.0848 18.1486 7.5425 17.7739 7.09103 17.3027L4.68018 14.7868C4.48912 14.5874 4.49587 14.2709 4.69526 14.0798Z" fill="currentColor"/><path fill-rule="evenodd" clip-rule="evenodd" d="M3.20725 13.2497C2.63409 12.6515 2.65434 11.702 3.25248 11.1288C3.85035 10.5559 4.7995 10.5752 5.37292 11.1736L6.75706 12.6181C6.94811 12.8175 6.94136 13.134 6.74198 13.325C6.5426 13.5161 6.22609 13.5093 6.03504 13.31L4.6509 11.8655C4.4601 11.6664 4.144 11.6595 3.94435 11.8508C3.74497 12.0419 3.73822 12.3584 3.92928 12.5578L6.69675 15.4459C6.88781 15.6453 6.88106 15.9618 6.68168 16.1528C6.4823 16.3439 6.16579 16.3371 5.97473 16.1378L3.20725 13.2497Z" fill="currentColor"/><path fill-rule="evenodd" clip-rule="evenodd" d="M8.29369 6.99075C7.72053 6.39261 7.74078 5.44307 8.33892 4.86991C8.93707 4.29675 9.8866 4.317 10.4598 4.91514L10.944 5.42052C11.1351 5.6199 11.1283 5.93641 10.929 6.12747C10.7296 6.31852 10.4131 6.31177 10.222 6.11239L9.73774 5.60701C9.54668 5.40763 9.23017 5.40088 9.03079 5.59193C8.83141 5.78299 8.82466 6.0995 9.01572 6.29888L10.3995 7.74292C10.5905 7.94231 10.5838 8.25882 10.3844 8.44987C10.185 8.64092 9.86849 8.63417 9.67743 8.43479L8.29369 6.99075Z" fill="currentColor"/><path fill-rule="evenodd" clip-rule="evenodd" d="M12.5288 6.89303C12.2773 6.20129 12.5537 5.42851 13.1867 5.05307C13.9686 4.58938 14.98 4.90516 15.3591 5.73138L16.1376 7.42762C16.2527 7.6786 16.1426 7.97542 15.8917 8.0906C15.6407 8.20577 15.3439 8.09568 15.2287 7.8447L14.4503 6.14846C14.3188 5.8619 13.968 5.75238 13.6968 5.9132C13.4772 6.04341 13.3814 6.31144 13.4686 6.55136L14.0805 8.23441C14.1748 8.49394 14.0409 8.78081 13.7814 8.87516C13.5219 8.96951 13.235 8.8356 13.1407 8.57608L12.5288 6.89303Z" fill="currentColor"/><path fill-rule="evenodd" clip-rule="evenodd" d="M15.5018 7.1746C15.7582 7.07213 16.0492 7.19693 16.1516 7.45336L17.6744 11.2639C18.2643 12.7401 18.069 14.4144 17.1551 15.7152C16.9798 15.9647 16.7806 16.1966 16.5604 16.4076L16.4588 16.505C15.9648 16.9784 15.3953 17.366 14.7737 17.6519L14.6523 17.7077L14.4434 17.2535L14.6523 17.7077C14.3238 17.8588 13.984 17.984 13.636 18.0822L12.4823 18.4077C12.2165 18.4827 11.9403 18.328 11.8653 18.0622C11.7904 17.7965 11.945 17.5202 12.2108 17.4452L13.3645 17.1198C13.6624 17.0357 13.9533 16.9286 14.2345 16.7992L14.3559 16.7434C14.8764 16.504 15.3533 16.1794 15.767 15.783L15.8686 15.6856C16.042 15.5195 16.1988 15.3368 16.3369 15.1403C17.0566 14.116 17.2104 12.7975 16.7458 11.6349L15.223 7.82444C15.1206 7.56802 15.2454 7.27707 15.5018 7.1746Z" fill="currentColor"/><path fill-rule="evenodd" clip-rule="evenodd" d="M4.21918 1.08639C4.44765 0.931294 4.7586 0.990776 4.91369 1.21925L6.12024 2.99659C6.27533 3.22506 6.21585 3.53601 5.98738 3.69111C5.75891 3.8462 5.44796 3.78672 5.29287 3.55825L4.08632 1.78091C3.93123 1.55243 3.99071 1.24149 4.21918 1.08639Z" fill="currentColor"/><path fill-rule="evenodd" clip-rule="evenodd" d="M12.2273 1.05465C11.9813 0.929137 11.6802 1.02678 11.5546 1.27275L10.6477 3.05009C10.5221 3.29606 10.6198 3.59721 10.8658 3.72272C11.1117 3.84824 11.4129 3.7506 11.5384 3.50463L12.4454 1.72729C12.5709 1.48132 12.4732 1.18017 12.2273 1.05465Z" fill="currentColor"/><path fill-rule="evenodd" clip-rule="evenodd" d="M8.30957 0.50009C8.58572 0.50009 8.80957 0.723947 8.80957 1.00009L8.80957 2.77743C8.80957 3.05358 8.58572 3.27743 8.30957 3.27743C8.03343 3.27743 7.80957 3.05358 7.80957 2.77743L7.80957 1.00009C7.80957 0.723947 8.03343 0.50009 8.30957 0.50009Z" fill="currentColor"/></g></svg>