<svg width="20" height="22" viewBox="0 0 20 22" fill="none" xmlns="http://www.w3.org/2000/svg">
<path opacity="0.8" fill-rule="evenodd" clip-rule="evenodd" d="M9.96867 3.02246C10.2196 2.28251 10.92 1.75 11.7448 1.75C12.421 1.75 13.0137 2.10805 13.3435 2.64493C13.6613 2.39743 14.0608 2.25 14.4948 2.25C15.5303 2.25 16.3698 3.08946 16.3698 4.125V5.46626C16.631 5.32818 16.9287 5.25 17.2448 5.25C18.2803 5.25 19.1198 6.08947 19.1198 7.125V13.25C19.1198 15.1027 18.7345 17.0777 17.7959 18.6077C16.8427 20.1614 15.3166 21.25 13.1198 21.25C10.5524 21.25 9.03133 20.7353 7.90278 19.6773C7.3529 19.1618 6.91857 18.5376 6.50307 17.8425C6.26964 17.4519 6.02838 17.0141 5.77357 16.5517C5.58572 16.2108 5.3905 15.8566 5.18563 15.4981L5.17875 15.486L3.32462 11.7778C2.84278 10.8141 3.28749 9.64439 4.28786 9.24424C5.17717 8.88851 6.1907 9.27386 6.61904 10.1306L7.11975 11.132L7.11975 4.625C7.11975 3.58947 7.95922 2.75 8.99475 2.75C9.35141 2.75 9.68481 2.84958 9.96867 3.02246Z" fill="currentColor"/>
<path d="M3.87027 14.2502L3.87138 14.2521L3.87037 14.2504L3.87027 14.2502ZM5.8699 12.2497L5.86999 12.2497L5.86562 12.241L4.92294 10.3556L5.87016 10.132V12.2391H5.87004L5.87027 12.2496L5.87027 12.2497L5.8702 12.2501L5.86954 12.25L5.87019 12.2502L5.87013 12.2506L5.87027 12.2502L5.87051 12.2503L5.8699 12.2497ZM5.87047 12.2501L5.87031 12.2501L5.87045 12.2497L5.87046 12.2496L5.87046 12.2497L5.87045 12.25L5.86966 12.2503L5.87048 12.2502L5.87057 12.2501L5.87047 12.2501ZM14.1202 5.29612L14.8538 4.9083C15.0448 4.80737 15.2625 4.75 15.4952 4.75C14.7358 4.75 14.1202 5.36561 14.1202 6.125V5.29612ZM11.1679 1.90665L11.4604 2.38274L11.9012 2.03938C12.1342 1.85786 12.4264 1.75 12.7452 1.75C11.9864 1.75 11.3713 2.3645 11.3702 3.12296V2.625C11.3702 1.86741 10.7575 1.25292 10.0005 1.25001C10.4937 1.2519 10.9261 1.51307 11.1679 1.90665ZM7.95899 2.4495L8.4921 2.77418L8.69258 2.18305C8.86234 1.6825 9.31234 1.31219 9.85457 1.2571C9.16122 1.32751 8.62016 1.91307 8.62016 2.625L8.62016 3.625C8.62016 2.86561 8.00455 2.25 7.24516 2.25C7.5075 2.25 7.75127 2.32298 7.95899 2.4495ZM4.47768 15.3389L4.48022 15.3435C4.5063 15.3909 4.5322 15.4379 4.55795 15.4847C4.52622 15.4271 4.4942 15.369 4.46188 15.3104L4.46106 15.3089C4.27652 14.974 4.08283 14.6226 3.87943 14.2662C4.0982 14.6494 4.293 15.0033 4.47768 15.3389ZM3.87223 14.2536L3.87698 14.262L3.87223 14.2536Z" fill="currentColor" stroke="black" stroke-linecap="round"/>
</svg>
