<svg width="20" height="20" viewBox="0 0 20 20" fill="none" xmlns="http://www.w3.org/2000/svg"><g opacity="0.2"><path fill-rule="evenodd" clip-rule="evenodd" d="M6.52395 2.375C6.52395 1.33947 7.36341 0.5 8.39895 0.5C9.43448 0.5 10.2739 1.33947 10.2739 2.375V6.5C10.2739 6.77614 10.0501 7 9.77395 7C9.49781 7 9.27395 6.77614 9.27395 6.5V2.375C9.27395 1.89175 8.8822 1.5 8.39895 1.5C7.9157 1.5 7.52395 1.89175 7.52395 2.375V12C7.52395 12.2761 7.30009 12.5 7.02395 12.5C6.74781 12.5 6.52395 12.2761 6.52395 12V2.375Z" fill="currentColor"/><path fill-rule="evenodd" clip-rule="evenodd" d="M4.44461 9.75896C4.16593 9.43383 3.68274 9.38079 3.34015 9.63771C2.98942 9.90075 2.91059 10.3946 3.16199 10.7537L5.93357 14.7132C6.09193 14.9394 6.0369 15.2512 5.81068 15.4096C5.58445 15.5679 5.27269 15.5129 5.11433 15.2867L2.34275 11.3272C1.78195 10.526 1.95781 9.42445 2.74017 8.8377C3.50437 8.26457 4.58221 8.3829 5.20387 9.10817L7.40358 11.6745C7.58329 11.8842 7.55901 12.1998 7.34935 12.3795C7.13969 12.5592 6.82404 12.535 6.64432 12.3253L4.44461 9.75896Z" fill="currentColor"/><path fill-rule="evenodd" clip-rule="evenodd" d="M9.26967 6.875C9.26967 5.83947 10.1091 5 11.1447 5C12.1802 5 13.0197 5.83947 13.0197 6.875V9.1C13.0197 9.37614 12.7958 9.6 12.5197 9.6C12.2435 9.6 12.0197 9.37614 12.0197 9.1V6.875C12.0197 6.39175 11.6279 6 11.1447 6C10.6614 6 10.2697 6.39175 10.2697 6.875V9.5C10.2697 9.77614 10.0458 10 9.76967 10C9.49353 10 9.26967 9.77614 9.26967 9.5V6.875Z" fill="currentColor"/><path fill-rule="evenodd" clip-rule="evenodd" d="M15.7697 7.87353C15.7697 6.83881 14.9309 6 13.8961 6C12.8599 6 12.0204 6.84126 12.0226 7.87754L12.024 8.50107C12.0245 8.77721 12.2489 9.00059 12.525 9C12.8012 8.99941 13.0245 8.77507 13.024 8.49893L13.0226 7.8754C13.0216 7.39223 13.413 7 13.8961 7C14.3786 7 14.7697 7.39109 14.7697 7.87353V10C14.7697 10.2761 14.9935 10.5 15.2697 10.5C15.5458 10.5 15.7697 10.2761 15.7697 10V7.87353Z" fill="currentColor"/><path fill-rule="evenodd" clip-rule="evenodd" d="M18.5197 9.875C18.5197 8.83947 17.6802 8 16.6447 8H16.2697C15.4412 8 14.7697 8.67157 14.7697 9.5H15.7697C15.7697 9.22386 15.9935 9 16.2697 9H16.6447C17.1279 9 17.5197 9.39175 17.5197 9.875V13.5C17.5197 13.7761 17.7435 14 18.0197 14C18.2958 14 18.5197 13.7761 18.5197 13.5V9.875Z" fill="currentColor"/><path fill-rule="evenodd" clip-rule="evenodd" d="M18.0239 13C18.3001 13 18.5239 13.2239 18.5239 13.5C18.5239 15.6405 17.7132 17.1668 16.4559 18.1447C15.2177 19.1077 13.5979 19.5 12.0239 19.5C10.435 19.5 9.08925 19.101 7.93982 18.3573C6.79561 17.6169 5.87203 16.552 5.0952 15.2572C4.95313 15.0205 5.02991 14.7133 5.2667 14.5713C5.50349 14.4292 5.81062 14.506 5.95269 14.7428C6.67587 15.948 7.50229 16.8831 8.48307 17.5177C9.45865 18.149 10.6129 18.5 12.0239 18.5C13.45 18.5 14.8302 18.1423 15.842 17.3553C16.8347 16.5832 17.5239 15.3595 17.5239 13.5C17.5239 13.2239 17.7478 13 18.0239 13Z" fill="currentColor"/><path d="M7.02395 7L7.52395 1L9.52395 1.5L10.0239 6.5L11.0239 5.5L12.0239 6L13.0239 7H15.0239V8.5L17.5239 9L18.0239 14L16.5239 17.5L11.5239 19L7.02395 17L2.52395 10L4.02395 9L7.02395 12V7Z" fill="currentColor"/></g><path fill-rule="evenodd" clip-rule="evenodd" d="M5.09698 2.375C5.09698 1.33947 5.93644 0.5 6.97198 0.5C8.00751 0.5 8.84698 1.33947 8.84698 2.375V6.5C8.84698 6.77614 8.62312 7 8.34698 7C8.07083 7 7.84698 6.77614 7.84698 6.5V2.375C7.84698 1.89175 7.45523 1.5 6.97198 1.5C6.48873 1.5 6.09698 1.89175 6.09698 2.375V12C6.09698 12.2761 5.87312 12.5 5.59698 12.5C5.32083 12.5 5.09698 12.2761 5.09698 12V2.375Z" fill="currentColor"/><path fill-rule="evenodd" clip-rule="evenodd" d="M3.01764 9.75896C2.73895 9.43383 2.25577 9.38079 1.91318 9.63771C1.56245 9.90075 1.48362 10.3946 1.73502 10.7537L4.5066 14.7132C4.66495 14.9394 4.60993 15.2512 4.38371 15.4096C4.15748 15.5679 3.84572 15.5129 3.68736 15.2867L0.915784 11.3272C0.354983 10.526 0.530837 9.42445 1.3132 8.8377C2.0774 8.26457 3.15524 8.3829 3.7769 9.10817L5.97661 11.6745C6.15632 11.8842 6.13204 12.1998 5.92238 12.3795C5.71271 12.5592 5.39706 12.535 5.21735 12.3253L3.01764 9.75896Z" fill="currentColor"/><path fill-rule="evenodd" clip-rule="evenodd" d="M7.84269 6.875C7.84269 5.83947 8.68216 5 9.71769 5C10.7532 5 11.5927 5.83947 11.5927 6.875V9.1C11.5927 9.37614 11.3688 9.6 11.0927 9.6C10.8165 9.6 10.5927 9.37614 10.5927 9.1V6.875C10.5927 6.39175 10.2009 6 9.71769 6C9.23444 6 8.84269 6.39175 8.84269 6.875V9.5C8.84269 9.77614 8.61883 10 8.34269 10C8.06655 10 7.84269 9.77614 7.84269 9.5V6.875Z" fill="currentColor"/><path fill-rule="evenodd" clip-rule="evenodd" d="M14.3427 7.87353C14.3427 6.83881 13.5039 6 12.4692 6C11.4329 6 10.5934 6.84126 10.5956 7.87754L10.597 8.50107C10.5976 8.77721 10.8219 9.00059 11.0981 9C11.3742 8.99941 11.5976 8.77507 11.597 8.49893L11.5956 7.8754C11.5946 7.39223 11.986 7 12.4692 7C12.9516 7 13.3427 7.39109 13.3427 7.87353V10C13.3427 10.2761 13.5666 10.5 13.8427 10.5C14.1188 10.5 14.3427 10.2761 14.3427 10V7.87353Z" fill="currentColor"/><path fill-rule="evenodd" clip-rule="evenodd" d="M17.0927 9.875C17.0927 8.83947 16.2532 8 15.2177 8H14.8427C14.0143 8 13.3427 8.67157 13.3427 9.5H14.3427C14.3427 9.22386 14.5666 9 14.8427 9H15.2177C15.7009 9 16.0927 9.39175 16.0927 9.875V13.5C16.0927 13.7761 16.3166 14 16.5927 14C16.8688 14 17.0927 13.7761 17.0927 13.5V9.875Z" fill="currentColor"/><path fill-rule="evenodd" clip-rule="evenodd" d="M16.597 13C16.8731 13 17.097 13.2239 17.097 13.5C17.097 15.6405 16.2862 17.1668 15.0289 18.1447C13.7907 19.1077 12.1709 19.5 10.597 19.5C9.00801 19.5 7.66228 19.101 6.51285 18.3573C5.36864 17.6169 4.44506 16.552 3.66823 15.2572C3.52616 15.0205 3.60294 14.7133 3.83973 14.5713C4.07652 14.4292 4.38365 14.506 4.52572 14.7428C5.24889 15.948 6.07532 16.8831 7.0561 17.5177C8.03167 18.149 9.18594 18.5 10.597 18.5C12.023 18.5 13.4032 18.1423 14.415 17.3553C15.4077 16.5832 16.097 15.3595 16.097 13.5C16.097 13.2239 16.3208 13 16.597 13Z" fill="currentColor"/><path d="M1.15063 1.87794C0.94979 1.6771 0.94979 1.35147 1.15063 1.15063C1.35147 0.949789 1.6771 0.949789 1.87794 1.15063L18.8494 18.1221C19.0502 18.3229 19.0502 18.6485 18.8494 18.8494C18.6485 19.0502 18.3229 19.0502 18.1221 18.8494L1.15063 1.87794Z" fill="currentColor"/></svg>