<svg width="20" height="20" viewBox="0 0 26 26" fill="none" xmlns="http://www.w3.org/2000/svg"><path opacity="0.2" fill-rule="evenodd" clip-rule="evenodd" d="M13.5 26C20.4036 26 26 20.4036 26 13.5C26 6.59644 20.4036 1 13.5 1C6.59644 1 1 6.59644 1 13.5C1 20.4036 6.59644 26 13.5 26ZM13.5 24C19.299 24 24 19.299 24 13.5C24 7.70101 19.299 3 13.5 3C7.70101 3 3 7.70101 3 13.5C3 19.299 7.70101 24 13.5 24Z" fill="currentColor"/><g transform="translate(3, 3)"><g opacity="0.2"><path d="M6.65084 11.85V9.84998M12.1466 8.94998V6.72498C12.1466 5.96558 11.5309 5.34998 10.7716 5.34998C10.0122 5.34998 9.39655 5.96558 9.39655 6.72498M9.39655 9.34998V6.72498M9.39655 6.72498L9.40084 6.34998V2.22498C9.40084 1.46558 8.78523 0.849976 8.02584 0.849976C7.26645 0.849976 6.65084 1.46558 6.65084 2.22498V9.84998M12.1508 8.34998L12.1495 7.72645C12.1479 6.96672 12.7633 6.34998 13.523 6.34998C14.2816 6.34998 14.8966 6.96492 14.8966 7.7235V9.84998M17.6466 13.35V9.72498C17.6466 8.96558 17.0309 8.34998 16.2716 8.34998H15.8966C15.3443 8.34998 14.8966 8.79769 14.8966 9.34998M17.6508 13.35C17.6508 17.35 14.6508 18.85 11.6508 18.85C8.65084 18.85 6.65084 17.35 5.15084 14.85C4.87981 14.4434 4.53532 13.89 4.1771 13.2991C3.2531 11.775 4.3685 9.84998 6.15084 9.84998H6.65084" stroke="currentColor" stroke-linecap="round"/><path d="M6.65084 1.84998L8.15084 0.849976L9.15084 1.84998V5.59998H10.6508L11.6508 5.84998L12.6508 6.84998H14.1508L14.6508 8.34998H16.6508L17.1508 8.84998L17.6508 12.35L16.6508 16.85L11.6508 19.35L6.65084 16.85L3.65084 11.85L5.15084 10.35L6.65084 9.34998V5.59998V1.84998Z" fill="currentColor"/></g><path fill-rule="evenodd" clip-rule="evenodd" d="M4.65084 2.02502C4.65084 0.989491 5.4903 0.150024 6.52584 0.150024C7.56137 0.150024 8.40084 0.989491 8.40084 2.02502V4.86402C8.66101 4.72735 8.95724 4.65002 9.27155 4.65002C10.0967 4.65002 10.7973 5.18299 11.048 5.92344C11.332 5.74999 11.6658 5.65002 12.023 5.65002C13.0577 5.65002 13.8965 6.48883 13.8965 7.52355V7.73538C14.0529 7.6801 14.2212 7.65002 14.3965 7.65002H14.7715C15.8071 7.65002 16.6465 8.48949 16.6465 9.52502V13.0842C16.6494 13.1058 16.6508 13.1277 16.6508 13.15C16.6508 15.2905 15.8401 16.8168 14.5828 17.7947C13.3446 18.7578 11.7248 19.15 10.1508 19.15C8.56187 19.15 7.21614 18.7511 6.06671 18.0073C4.92551 17.2689 4.00378 16.2076 3.22823 14.9175C2.95216 14.5028 2.60588 13.9461 2.24954 13.3584C1.11734 11.4908 2.49081 9.15002 4.65084 9.15002L4.65084 2.02502ZM4.03217 14.4087C4.02962 14.4062 4.0273 14.4034 4.02526 14.4004C3.75973 14.0021 3.41926 13.4553 3.0619 12.8658C2.32541 11.651 3.20816 10.1 4.65083 10.1H4.70083L4.70083 11.65C4.70083 11.8985 4.90231 12.1 5.15083 12.1C5.39936 12.1 5.60083 11.8985 5.60083 11.65V2.02498C5.60083 1.51411 6.01497 1.09998 6.52583 1.09998C7.0367 1.09998 7.45083 1.51411 7.45083 2.02498L7.44655 9.14998C7.44656 9.39849 7.64803 9.59998 7.89655 9.59998C8.14507 9.59998 8.34655 9.3985 8.34655 9.14998V6.52781L8.34685 6.50123C8.35971 6.00178 8.76886 5.59998 9.27155 5.59998C9.78241 5.59998 10.1965 6.01411 10.1965 6.52498V8.74998C10.1965 8.9985 10.398 9.19998 10.6465 9.19998C10.8951 9.19998 11.0965 8.9985 11.0965 8.74998V8.20918C11.0991 8.1895 11.1009 8.16946 11.1008 8.14901L11.0995 7.52548C11.0984 7.01466 11.5122 6.59998 12.023 6.59998C12.5331 6.59998 12.9465 7.01345 12.9465 7.5235V9.64998C12.9465 9.8985 13.148 10.1 13.3965 10.1C13.6451 10.1 13.8465 9.8985 13.8465 9.64998V9.14998C13.8465 8.84622 14.0928 8.59998 14.3965 8.59998H14.7715C15.2824 8.59998 15.6965 9.01411 15.6965 9.52498V13.15C15.6965 13.1694 15.6978 13.1886 15.7002 13.2074L15.701 13.2141C15.6853 15.0519 14.9939 16.2714 13.9996 17.0448C12.9765 17.8405 11.5843 18.2 10.1508 18.2C8.7309 18.2 7.56706 17.8465 6.5828 17.2097C5.59384 16.5698 4.76256 15.6282 4.03671 14.4185C4.03481 14.4153 4.0333 14.412 4.03217 14.4087Z" fill="currentColor"/><path d="M1.15063 1.87794C0.94979 1.6771 0.94979 1.35147 1.15063 1.15063C1.35147 0.949789 1.6771 0.949789 1.87794 1.15063L18.8494 18.1221C19.0502 18.3229 19.0502 18.6485 18.8494 18.8494C18.6485 19.0502 18.3229 19.0502 18.1221 18.8494L1.15063 1.87794Z" fill="currentColor"/></g><path fill-rule="evenodd" clip-rule="evenodd" d="M13 24.5C19.3513 24.5 24.5 19.3513 24.5 13C24.5 6.64873 19.3513 1.5 13 1.5C6.64873 1.5 1.5 6.64873 1.5 13C1.5 19.3513 6.64873 24.5 13 24.5ZM13 25.5C19.9036 25.5 25.5 19.9036 25.5 13C25.5 6.09644 19.9036 0.5 13 0.5C6.09644 0.5 0.5 6.09644 0.5 13C0.5 19.9036 6.09644 25.5 13 25.5Z" fill="currentColor"/></svg>