<svg width="20" height="20" viewBox="0 0 20 20" fill="none" xmlns="http://www.w3.org/2000/svg">
<g clip-path="url(#clip0_1213_2579)">
<g opacity="0.8">
<path fill-rule="evenodd" clip-rule="evenodd" d="M4.24646 3.91896C3.74289 3.69216 3.15081 3.91652 2.92401 4.42009L0.760673 9.22329C0.533869 9.72686 0.758231 10.3189 1.2618 10.5457L2.75161 11.2167C3.25518 11.4436 3.84726 11.2192 4.07406 10.7156L6.2374 5.91242C6.4642 5.40885 6.23984 4.81677 5.73627 4.58997L4.24646 3.91896ZM2.47306 9.84575C2.81617 10.0003 3.2196 9.84741 3.37413 9.5043C3.52867 9.16119 3.3758 8.75776 3.03268 8.60323C2.68957 8.44869 2.28615 8.60156 2.13161 8.94468C1.97707 9.28779 2.12995 9.69121 2.47306 9.84575Z" fill="currentColor"/>
<path fill-rule="evenodd" clip-rule="evenodd" d="M19.6149 10.6767C20.1313 10.481 20.3914 9.90371 20.1957 9.38725L18.3294 4.46105C18.1337 3.94459 17.5564 3.68454 17.0399 3.88021L15.512 4.4591C14.9955 4.65477 14.7355 5.23207 14.9311 5.74853L16.7975 10.6747C16.9932 11.1912 17.5705 11.4512 18.0869 11.2556L19.6149 10.6767ZM16.6783 5.23165C16.3264 5.36497 16.1492 5.75832 16.2826 6.11022C16.4159 6.46212 16.8092 6.63931 17.1611 6.50599C17.513 6.37266 17.6902 5.97931 17.5569 5.62742C17.4236 5.27552 17.0302 5.09833 16.6783 5.23165Z" fill="currentColor"/>
<path d="M15.4853 5.5354L15.4617 5.53751L15.369 5.54603C15.2881 5.55362 15.1707 5.565 15.0254 5.58006C14.7347 5.6102 14.3334 5.65501 13.8909 5.71362C12.9921 5.83269 11.9708 6.00296 11.3472 6.21085C11.1398 6.28 10.8657 6.43562 10.5404 6.67331C10.2213 6.90648 9.87929 7.19903 9.53851 7.51609C8.85711 8.15008 8.20515 8.85915 7.78716 9.3318C7.64335 9.4944 7.66735 9.66771 7.75017 9.75767C8.01547 10.0458 8.36988 10.3366 8.77077 10.4573C9.13874 10.5682 9.59531 10.5527 10.15 10.1367L10.164 10.1261L11.1924 9.46197C11.4005 9.32753 11.7864 9.16779 12.1801 9.38337C12.4168 9.51298 12.7008 9.73111 12.9748 9.9608C13.2561 10.1966 13.5538 10.4676 13.8236 10.7218C14.094 10.9766 14.3398 11.2178 14.5178 11.395C14.6057 11.4825 14.6773 11.5547 14.7274 11.6055C14.794 11.6164 14.9101 11.6117 15.0962 11.5489C15.3359 11.4679 15.6088 11.3179 15.8787 11.1383C16.1447 10.9614 16.3876 10.7692 16.5655 10.6198C16.654 10.5455 16.7251 10.4827 16.7736 10.439C16.7979 10.4172 16.8164 10.4002 16.8285 10.389L17.5078 11.1228C17.4925 11.137 17.4706 11.1571 17.4427 11.1822C17.3869 11.2324 17.3071 11.3028 17.2088 11.3854C17.0132 11.5498 16.7394 11.7667 16.4327 11.9709C16.1299 12.1723 15.774 12.3754 15.4161 12.4963C15.0719 12.6125 14.6289 12.6851 14.2264 12.4839L14.1506 12.446L14.0916 12.3853L14.0174 12.3097C13.9691 12.2607 13.8989 12.1899 13.8122 12.1036C13.6386 11.9307 13.3997 11.6964 13.1378 11.4497C12.8754 11.2023 12.5932 10.9457 12.3324 10.7272C12.0953 10.5284 11.8956 10.378 11.7528 10.2912C11.7474 10.2942 11.7414 10.2978 11.7349 10.302L10.7355 10.9475C9.93854 11.5391 9.15884 11.6186 8.48235 11.4148C7.83467 11.2198 7.33357 10.7816 7.01447 10.435C6.52211 9.90018 6.6193 9.14285 7.03807 8.66932C7.46563 8.18587 8.14189 7.44963 8.85733 6.78397C9.21497 6.45122 9.58851 6.13036 9.9504 5.86591C10.3061 5.60598 10.6783 5.37975 11.0309 5.26219C11.7559 5.02048 12.8651 4.84078 13.7596 4.72228C14.2138 4.66212 14.6248 4.61623 14.9223 4.58539C15.0712 4.56996 15.1918 4.55827 15.2755 4.55041L15.3723 4.54151L15.3979 4.53923L15.4064 4.53849C15.6816 4.51484 15.9245 4.71864 15.9482 4.99377C15.9718 5.26889 15.7679 5.51109 15.4928 5.53475L15.4853 5.5354Z" fill="currentColor"/>
<path fill-rule="evenodd" clip-rule="evenodd" d="M5.64698 6.49619L5.45001 6.03662L5.25311 5.57702L5.29327 5.55987L5.4061 5.51188C5.50341 5.4706 5.64282 5.41169 5.81163 5.34103C6.14905 5.19978 6.60478 5.01119 7.07681 4.82238C7.54781 4.63399 8.03959 4.44353 8.44766 4.2995C8.65118 4.22767 8.83967 4.16532 8.99722 4.12031C9.13377 4.0813 9.30752 4.03662 9.45001 4.03662C9.57966 4.03662 9.71681 4.06634 9.82982 4.09647C9.95173 4.12898 10.0859 4.17332 10.2224 4.22297C10.496 4.32244 10.8048 4.45271 11.0906 4.57972C11.3777 4.70731 11.648 4.83452 11.8461 4.92961C11.9453 4.97723 12.0267 5.01696 12.0835 5.04488L12.1495 5.07744L12.1671 5.08618L12.1731 5.08914C12.4201 5.21263 12.5207 5.51324 12.3972 5.76023C12.2737 6.00721 11.9734 6.10732 11.7264 5.98385C11.7264 5.98384 11.7264 5.98385 11.7264 5.98385L11.7214 5.98132L11.7053 5.97334L11.6426 5.94243C11.5881 5.91566 11.5094 5.87727 11.4133 5.83113C11.2208 5.73872 10.9598 5.61593 10.6844 5.49353C10.4077 5.37053 10.1228 5.2508 9.8807 5.16277C9.75944 5.11867 9.65531 5.08488 9.57215 5.06271C9.50072 5.04366 9.4638 5.03846 9.45302 5.03709C9.45191 5.03743 9.44912 5.03798 9.44448 5.0389C9.42469 5.04284 9.3713 5.05345 9.27194 5.08184C9.14237 5.11886 8.9754 5.1737 8.78048 5.24249C8.39168 5.37972 7.91471 5.56426 7.4482 5.75086C6.98273 5.93705 6.53222 6.12346 6.19776 6.26347C6.03063 6.33343 5.8927 6.39171 5.79665 6.43246L5.68561 6.47969L5.64698 6.49619ZM4.99044 6.23358C4.88166 5.97977 4.9993 5.6858 5.25311 5.57702L5.45001 6.03662L5.64698 6.49619C5.39317 6.60496 5.09921 6.4874 4.99044 6.23358Z" fill="currentColor"/>
<path fill-rule="evenodd" clip-rule="evenodd" d="M3.08669 10.1931C3.2764 9.99246 3.59285 9.98358 3.79351 10.1733L3.45001 10.5366L3.10651 10.9C2.90585 10.7102 2.89698 10.3938 3.08669 10.1931ZM7.65682 13.5802L10.4197 14.6163C10.9705 14.8228 11.5912 14.6884 12.0071 14.2724L14.0965 12.1831C14.2917 11.9878 14.6083 11.9878 14.8036 12.1831C14.9988 12.3783 14.9988 12.6949 14.8036 12.8902L12.7142 14.9795C12.021 15.6728 10.9866 15.8968 10.0686 15.5526L7.24988 14.4956L7.22641 14.4838C7.09942 14.4203 6.94336 14.3083 6.79182 14.1918C6.63032 14.0677 6.44015 13.9117 6.23492 13.7378C5.82395 13.3895 5.33892 12.9575 4.87689 12.5384C4.41423 12.1186 3.97178 11.7092 3.64519 11.4048C3.48184 11.2526 3.34732 11.1265 3.25358 11.0384L3.14502 10.9363L3.10651 10.9L3.45001 10.5366L3.79351 10.1733L3.83095 10.2086L3.93831 10.3096C4.03121 10.3969 4.16472 10.5221 4.32695 10.6732C4.65154 10.9757 5.09051 11.382 5.54879 11.7977C6.00771 12.214 6.48315 12.6373 6.88147 12.9749C7.08089 13.1439 7.25757 13.2886 7.40129 13.399C7.53303 13.5003 7.61616 13.5564 7.65682 13.5802Z" fill="currentColor"/>
<path fill-rule="evenodd" clip-rule="evenodd" d="M3.88539 15.3956C4.23947 14.9717 4.8701 14.9152 5.29395 15.2692L6.25217 16.0697C6.39549 16.1895 6.56946 16.2667 6.75439 16.2926L7.99088 16.466C8.53781 16.5427 8.919 17.0483 8.84228 17.5952C8.76557 18.1422 8.26 18.5234 7.71307 18.4466L6.47658 18.2732C5.92179 18.1954 5.39987 17.9638 4.96994 17.6046L4.01171 16.8041C3.58786 16.45 3.53131 15.8194 3.88539 15.3956Z" fill="currentColor"/>
<path d="M5.07712 5.99524L7.57712 4.99524H10.0771L14.95 5.53662L15.95 8.03662L16.95 10.5366L14.95 12.0366L11.45 15.0366L7.57712 14.1647L5.45001 12.5366L3.45001 10.5366L5.07712 5.99524Z" fill="currentColor"/>
</g>
<path fill-rule="evenodd" clip-rule="evenodd" d="M3.64645 2.49062C3.14289 2.26382 2.5508 2.48818 2.324 2.99174L0.160666 7.79495C-0.0661367 8.29851 0.158225 8.8906 0.661791 9.1174L2.15161 9.7884C2.65517 10.0152 3.24725 9.79085 3.47406 9.28728L5.63739 4.48407C5.8642 3.98051 5.63983 3.38843 5.13627 3.16162L3.64645 2.49062ZM1.87305 8.4174C2.21617 8.57194 2.61959 8.41907 2.77413 8.07596C2.92866 7.73284 2.77579 7.32942 2.43268 7.17488C2.08956 7.02035 1.68614 7.17322 1.5316 7.51633C1.37707 7.85944 1.52994 8.26287 1.87305 8.4174Z" fill="black"/>
<path fill-rule="evenodd" clip-rule="evenodd" d="M19.0149 9.24833C19.5313 9.05266 19.7914 8.47537 19.5957 7.95891L17.7294 3.03271C17.5337 2.51625 16.9564 2.25619 16.4399 2.45186L14.912 3.03076C14.3955 3.22643 14.1354 3.80372 14.3311 4.32018L16.1975 9.24638C16.3932 9.76285 16.9705 10.0229 17.4869 9.82723L19.0149 9.24833ZM16.0783 3.8033C15.7264 3.93663 15.5492 4.32998 15.6826 4.68187C15.8159 5.03377 16.2092 5.21096 16.5611 5.07764C16.913 4.94432 17.0902 4.55097 16.9569 4.19907C16.8236 3.84717 16.4302 3.66998 16.0783 3.8033Z" fill="black"/>
<path d="M14.8853 4.10706L14.8616 4.10916L14.769 4.11769C14.6881 4.12528 14.5707 4.13665 14.4254 4.15171C14.1347 4.18186 13.7334 4.22666 13.2909 4.28528C12.3921 4.40434 11.3708 4.57462 10.7472 4.78251C10.5398 4.85166 10.2657 5.00727 9.9404 5.24496C9.62132 5.47814 9.27928 5.77068 8.9385 6.08775C8.2571 6.72173 7.60515 7.43081 7.18715 7.90345C7.04335 8.06606 7.06735 8.23936 7.15016 8.32932C7.41547 8.61749 7.76988 8.90824 8.17077 9.029C8.53874 9.13984 8.9953 9.12434 9.55001 8.70831L9.56402 8.6978L10.5924 8.03362C10.8005 7.89918 11.1864 7.73944 11.5801 7.95503C11.8168 8.08463 12.1008 8.30276 12.3748 8.53246C12.6561 8.76826 12.9538 9.03928 13.2236 9.2935C13.494 9.5483 13.7398 9.78941 13.9178 9.96663C14.0057 10.0542 14.0773 10.1263 14.1274 10.1771C14.194 10.1881 14.31 10.1834 14.4962 10.1205C14.7359 10.0396 15.0088 9.88959 15.2787 9.70998C15.5447 9.53301 15.7876 9.34087 15.9655 9.19142C16.0539 9.11711 16.1251 9.05436 16.1736 9.01068C16.1979 8.98886 16.2285 8.96065 16.2285 8.96065L16.9078 9.69447C16.8925 9.70864 16.8706 9.72878 16.8427 9.75389C16.7869 9.80408 16.7071 9.87443 16.6088 9.95704C16.4132 10.1214 16.1394 10.3384 15.8327 10.5425C15.5299 10.744 15.174 10.9471 14.8161 11.068C14.4719 11.1842 14.0289 11.2568 13.6264 11.0555L13.5506 11.0177L13.4915 10.9569L13.2122 10.6753C13.0386 10.5024 12.7997 10.268 12.5378 10.0213C12.2754 9.774 11.9932 9.5174 11.7324 9.29883C11.4953 9.1001 11.2956 8.94962 11.1528 8.86284C11.1474 8.86588 11.1414 8.86946 11.1349 8.87365L10.1355 9.51917C9.33854 10.1108 8.55883 10.1903 7.88235 9.9865C7.23466 9.79141 6.73356 9.35323 6.41447 9.00663C5.92211 8.47183 6.01929 7.7145 6.43806 7.24098C6.86562 6.75752 7.54188 6.02129 8.25733 5.35563C8.61496 5.02288 8.9885 4.70202 9.35039 4.43757C9.7061 4.17763 10.0783 3.9514 10.4309 3.83384C11.1559 3.59214 12.2651 3.41244 13.1596 3.29394C13.6138 3.23377 14.0248 3.18789 14.3223 3.15705C14.4711 3.14161 14.5918 3.12992 14.6755 3.12206L14.7723 3.11316L14.7979 3.11089L14.8064 3.11014C15.0816 3.08649 15.3245 3.29029 15.3482 3.56542C15.3718 3.84054 15.1679 4.08274 14.8928 4.1064L14.8853 4.10706Z" fill="black" stroke="black" stroke-width="0.1" stroke-linecap="round"/>
<path fill-rule="evenodd" clip-rule="evenodd" d="M5.04698 5.06784L4.85 4.60828L4.65311 4.14868L4.69326 4.13152L4.80609 4.08353C4.9034 4.04225 5.04281 3.98334 5.21162 3.91268C5.54904 3.77144 6.00478 3.58285 6.47681 3.39404C6.9478 3.20564 7.43958 3.01518 7.84765 2.87116C8.05117 2.79933 8.23967 2.73698 8.39721 2.69197C8.53376 2.65295 8.70752 2.60828 8.85 2.60828C8.97965 2.60828 9.1168 2.63799 9.22981 2.66813C9.35173 2.70064 9.48589 2.74498 9.62244 2.79463C9.89597 2.8941 10.2048 3.02437 10.4906 3.15137C10.7777 3.27897 11.048 3.40618 11.2461 3.50126C11.3453 3.54888 11.4267 3.58861 11.4835 3.61653L11.5495 3.64909L11.5671 3.65784L11.5731 3.66079C11.8201 3.78429 11.9207 4.08489 11.7972 4.33188C11.6737 4.57887 11.3734 4.67898 11.1264 4.5555C11.1264 4.5555 11.1264 4.5555 11.1264 4.5555L11.1214 4.55298L11.1053 4.545L11.0426 4.51408C10.9881 4.48732 10.9094 4.44892 10.8133 4.40279C10.6208 4.31037 10.3598 4.18758 10.0844 4.06518C9.80769 3.94218 9.52279 3.82246 9.28069 3.73442C9.15943 3.69033 9.05531 3.65654 8.97215 3.63436C8.90071 3.61531 8.8638 3.61012 8.85301 3.60875C8.8519 3.60908 8.84911 3.60964 8.84447 3.61056C8.82468 3.61449 8.7713 3.6251 8.67193 3.65349C8.54237 3.69051 8.3754 3.74535 8.18047 3.81415C7.79167 3.95137 7.3147 4.13591 6.8482 4.32251C6.38273 4.5087 5.93221 4.69512 5.59776 4.83512C5.43063 4.90508 5.2927 4.96336 5.19664 5.00411L5.0856 5.05134L5.04698 5.06784ZM4.39043 4.80524C4.28165 4.55142 4.39929 4.25745 4.65311 4.14868L4.85 4.60828L5.04698 5.06784C4.79316 5.17662 4.49921 5.05905 4.39043 4.80524Z" fill="black"/>
<path fill-rule="evenodd" clip-rule="evenodd" d="M2.48668 8.76478C2.67639 8.56412 2.99285 8.55524 3.19351 8.74495L2.85001 9.10828L2.50651 9.47161C2.30585 9.2819 2.29697 8.96544 2.48668 8.76478ZM7.05681 12.1518L9.81974 13.1879C10.3705 13.3945 10.9912 13.26 11.4071 12.8441L13.4965 10.7547C13.6917 10.5595 14.0083 10.5595 14.2036 10.7547C14.3988 10.95 14.3988 11.2666 14.2036 11.4618L12.1142 13.5512C11.421 14.2444 10.3866 14.4685 9.46862 14.1243L6.64987 13.0672L6.6264 13.0555C6.49941 12.992 6.34336 12.88 6.19181 12.7635C6.03031 12.6393 5.84014 12.4834 5.63491 12.3094C5.22395 11.9611 4.73892 11.5292 4.27689 11.11C3.81423 10.6903 3.37178 10.2808 3.04519 9.97647C2.88183 9.82424 2.74732 9.69817 2.65358 9.6101L2.54501 9.50794L2.50651 9.47161L2.85001 9.10828L3.19351 8.74495L3.23095 8.78028L3.33831 8.8813C3.4312 8.96858 3.56472 9.09371 3.72695 9.2449C4.05154 9.54738 4.4905 9.95362 4.94879 10.3694C5.4077 10.7857 5.88314 11.209 6.28147 11.5466C6.48088 11.7156 6.65757 11.8602 6.80129 11.9707C6.93302 12.072 7.01616 12.1281 7.05681 12.1518Z" fill="black"/>
<path fill-rule="evenodd" clip-rule="evenodd" d="M3.66911 14.2878C3.84615 14.0759 4.16147 14.0476 4.37339 14.2246L5.33162 15.0251C5.54659 15.2047 5.80754 15.3205 6.08494 15.3594L7.32143 15.5329C7.5949 15.5712 7.78549 15.824 7.74713 16.0975C7.70878 16.3709 7.45599 16.5615 7.18253 16.5232L5.94603 16.3497C5.48371 16.2849 5.04878 16.0919 4.6905 15.7926L3.73227 14.9921C3.52035 14.815 3.49207 14.4997 3.66911 14.2878Z" fill="black"/>
</g>
<defs>
<clipPath id="clip0_1213_2579">
<rect width="20" height="20" fill="white"/>
</clipPath>
</defs>
</svg>
