<svg width="20" height="20" viewBox="0 0 20 20" fill="none" xmlns="http://www.w3.org/2000/svg"><g opacity="0.2"><path fill-rule="evenodd" clip-rule="evenodd" d="M4.45551 13.2674C4.17944 12.8528 3.83317 12.2961 3.47683 11.7083C2.34539 9.84202 3.71629 7.5031 5.87384 7.5V5.375C5.87384 4.33947 6.71331 3.5 7.74884 3.5C8.06743 3.5 8.36745 3.57946 8.63019 3.71963C8.70917 2.75679 9.51563 2 10.4988 2C11.3236 2 12.024 2.53251 12.2749 3.27246C12.5588 3.09958 12.8922 3 13.2488 3C14.2844 3 15.1238 3.83947 15.1238 4.875V5.08535C15.2802 5.03008 15.4485 5 15.6238 5H15.9988C17.0344 5 17.8738 5.83947 17.8738 6.875V11.4342C17.8767 11.4557 17.8781 11.4777 17.8781 11.5C17.8781 13.6357 17.0723 15.2742 15.8353 16.3737C14.6076 17.4651 12.9847 18 11.3781 18C8.11453 18 5.98476 15.8126 4.45551 13.2674ZM7.74884 4.5C8.23209 4.5 8.62384 4.89175 8.62384 5.375V7.5C8.62384 7.77614 8.8477 8 9.12384 8C9.39999 8 9.62384 7.77614 9.62384 7.5V3.875C9.62384 3.39175 10.0156 3 10.4988 3C10.9821 3 11.3738 3.39175 11.3738 3.875V7C11.3738 7.27614 11.5977 7.5 11.8738 7.5C12.15 7.5 12.3738 7.27614 12.3738 7V4.875C12.3738 4.39175 12.7656 4 13.2488 4C13.7321 4 14.1238 4.39175 14.1238 4.875V7.5C14.1238 7.77614 14.3477 8 14.6238 8C14.9 8 15.1238 7.77614 15.1238 7.5V6.5C15.1238 6.22386 15.3477 6 15.6238 6H15.9988C16.4821 6 16.8738 6.39175 16.8738 6.875V11.5C16.8738 11.5216 16.8752 11.5428 16.8779 11.5637C16.8622 13.3954 16.1724 14.7361 15.171 15.6263C14.1487 16.5349 12.7716 17 11.3781 17C8.64722 17 6.77874 15.1948 5.3087 12.7458C5.30609 12.7414 5.30341 12.737 5.30064 12.7326C5.29787 12.7282 5.29503 12.7239 5.29214 12.7196C5.02751 12.3225 4.68831 11.7777 4.33196 11.1899C3.61689 10.0104 4.47174 8.50308 5.87384 8.5V10C5.87384 10.2761 6.0977 10.5 6.37384 10.5C6.64999 10.5 6.87384 10.2761 6.87384 10V5.375C6.87384 4.89175 7.26559 4.5 7.74884 4.5Z" fill="currentColor"/><path d="M17.3179 11.75C17.3179 14.7875 13.8032 17.2164 11.3179 17.2164C8.83259 17.2164 3.81787 13.7875 3.81787 10.75C3.81787 8.8145 4.05081 8.77036 6.31787 8.25002C6.78845 8.14201 6.52625 4.47509 7.31787 4.25005C8.81787 3.8236 10.1993 2.92416 10.8179 2.75C11.8179 3.25 13.0219 3.8092 13.3179 3.75C14.9828 3.41703 14.3179 6.25 16.3179 5.75C17.7368 6.62761 17.3179 9.83627 17.3179 11.75Z" fill="currentColor"/></g><path fill-rule="evenodd" clip-rule="evenodd" d="M7.18289 3.71963C7.26187 2.75679 8.06833 2 9.05155 2C9.8763 2 10.5767 2.53251 10.8276 3.27246C11.1115 3.09958 11.4449 3 11.8015 3C12.8371 3 13.6765 3.83947 13.6765 4.875V5.08535C13.8329 5.03008 14.0012 5 14.1765 5H14.5515C15.5871 5 16.4265 5.83947 16.4265 6.875V11.4342C16.4294 11.4557 16.4308 11.4777 16.4308 11.5C16.4308 13.6357 15.625 15.2742 14.388 16.3737C13.1603 17.4651 11.5374 18 9.93084 18C6.66724 18 4.53747 15.8126 3.00822 13.2674C2.73214 12.8528 2.38587 12.2961 2.02954 11.7083C0.898091 9.84202 2.269 7.5031 4.42655 7.5V5.375C4.42655 4.33947 5.26601 3.5 6.30155 3.5C6.62013 3.5 6.92016 3.57946 7.18289 3.71963ZM7.17655 5.375C7.17655 4.89175 6.7848 4.5 6.30155 4.5C5.8183 4.5 5.42655 4.89175 5.42655 5.375V10C5.42655 10.2761 5.20269 10.5 4.92655 10.5C4.6504 10.5 4.42655 10.2761 4.42655 10V8.5C3.02444 8.50308 2.16959 10.0104 2.88466 11.1899C3.24192 11.7792 3.58194 12.3253 3.84686 12.7226L3.85346 12.7325L3.85959 12.7428C5.3299 15.1933 7.1988 17 9.93084 17C11.3243 17 12.7014 16.5349 13.7237 15.6263C14.7251 14.7361 15.4149 13.3954 15.4306 11.5637C15.4279 11.5428 15.4265 11.5216 15.4265 11.5V6.875C15.4265 6.39175 15.0348 6 14.5515 6H14.1765C13.9004 6 13.6765 6.22386 13.6765 6.5V7.5C13.6765 7.77614 13.4527 8 13.1765 8C12.9004 8 12.6765 7.77614 12.6765 7.5V4.875C12.6765 4.39175 12.2848 4 11.8015 4C11.3183 4 10.9265 4.39175 10.9265 4.875V7C10.9265 7.27614 10.7027 7.5 10.4265 7.5C10.1504 7.5 9.92655 7.27614 9.92655 7V3.875C9.92655 3.39175 9.5348 3 9.05155 3C8.5683 3 8.17655 3.39175 8.17655 3.875V7.5C8.17655 7.77614 7.95269 8 7.67655 8C7.4004 8 7.17655 7.77614 7.17655 7.5V5.375Z" fill="currentColor"/><path d="M1.15063 1.87794C0.94979 1.6771 0.94979 1.35147 1.15063 1.15063C1.35147 0.949789 1.6771 0.949789 1.87794 1.15063L18.8494 18.1221C19.0502 18.3229 19.0502 18.6485 18.8494 18.8494C18.6485 19.0502 18.3229 19.0502 18.1221 18.8494L1.15063 1.87794Z" fill="currentColor"/></svg>