<svg width="20" height="20" viewBox="0 0 26 26" fill="none" xmlns="http://www.w3.org/2000/svg"><path opacity="0.2" d="M26 14C26 20.6274 20.6274 26 14 26C7.37258 26 2 20.6274 2 14C2 7.37258 7.37258 2 14 2C20.6274 2 26 7.37258 26 14Z" fill="currentColor"/><g transform="translate(3, 3)"><path fill-rule="evenodd" clip-rule="evenodd" d="M5.09698 2.375C5.09698 1.33947 5.93644 0.5 6.97198 0.5C8.00751 0.5 8.84698 1.33947 8.84698 2.375V6.5C8.84698 6.77614 8.62312 7 8.34698 7C8.07083 7 7.84698 6.77614 7.84698 6.5V2.375C7.84698 1.89175 7.45523 1.5 6.97198 1.5C6.48873 1.5 6.09698 1.89175 6.09698 2.375V12C6.09698 12.2761 5.87312 12.5 5.59698 12.5C5.32083 12.5 5.09698 12.2761 5.09698 12V2.375Z" fill="currentColor"/><path fill-rule="evenodd" clip-rule="evenodd" d="M3.01764 9.75896C2.73895 9.43383 2.25577 9.38079 1.91318 9.63771C1.56245 9.90075 1.48362 10.3946 1.73502 10.7537L4.5066 14.7132C4.66495 14.9394 4.60993 15.2512 4.38371 15.4096C4.15748 15.5679 3.84572 15.5129 3.68736 15.2867L0.915784 11.3272C0.354983 10.526 0.530837 9.42445 1.3132 8.8377C2.0774 8.26457 3.15524 8.3829 3.7769 9.10817L5.97661 11.6745C6.15632 11.8842 6.13204 12.1998 5.92238 12.3795C5.71271 12.5592 5.39706 12.535 5.21735 12.3253L3.01764 9.75896Z" fill="currentColor"/><path fill-rule="evenodd" clip-rule="evenodd" d="M7.84269 6.875C7.84269 5.83947 8.68216 5 9.71769 5C10.7532 5 11.5927 5.83947 11.5927 6.875V9.1C11.5927 9.37614 11.3688 9.6 11.0927 9.6C10.8165 9.6 10.5927 9.37614 10.5927 9.1V6.875C10.5927 6.39175 10.2009 6 9.71769 6C9.23444 6 8.84269 6.39175 8.84269 6.875V9.5C8.84269 9.77614 8.61883 10 8.34269 10C8.06655 10 7.84269 9.77614 7.84269 9.5V6.875Z" fill="currentColor"/><path fill-rule="evenodd" clip-rule="evenodd" d="M14.3427 7.87353C14.3427 6.83881 13.5039 6 12.4692 6C11.4329 6 10.5934 6.84126 10.5956 7.87754L10.597 8.50107C10.5976 8.77721 10.8219 9.00059 11.0981 9C11.3742 8.99941 11.5976 8.77507 11.597 8.49893L11.5956 7.8754C11.5946 7.39223 11.986 7 12.4692 7C12.9516 7 13.3427 7.39109 13.3427 7.87353V10C13.3427 10.2761 13.5666 10.5 13.8427 10.5C14.1188 10.5 14.3427 10.2761 14.3427 10V7.87353Z" fill="currentColor"/><path fill-rule="evenodd" clip-rule="evenodd" d="M17.0927 9.875C17.0927 8.83947 16.2532 8 15.2177 8H14.8427C14.0143 8 13.3427 8.67157 13.3427 9.5H14.3427C14.3427 9.22386 14.5666 9 14.8427 9H15.2177C15.7009 9 16.0927 9.39175 16.0927 9.875V13.5C16.0927 13.7761 16.3166 14 16.5927 14C16.8688 14 17.0927 13.7761 17.0927 13.5V9.875Z" fill="currentColor"/><path fill-rule="evenodd" clip-rule="evenodd" d="M16.597 13C16.8731 13 17.097 13.2239 17.097 13.5C17.097 15.6405 16.2862 17.1668 15.0289 18.1447C13.7907 19.1077 12.1709 19.5 10.597 19.5C9.00801 19.5 7.66228 19.101 6.51285 18.3573C5.36864 17.6169 4.44506 16.552 3.66823 15.2572C3.52616 15.0205 3.60294 14.7133 3.83973 14.5713C4.07652 14.4292 4.38365 14.506 4.52572 14.7428C5.24889 15.948 6.07532 16.8831 7.0561 17.5177C8.03167 18.149 9.18594 18.5 10.597 18.5C12.023 18.5 13.4032 18.1423 14.415 17.3553C15.4077 16.5832 16.097 15.3595 16.097 13.5C16.097 13.2239 16.3208 13 16.597 13Z" fill="currentColor"/></g><path fill-rule="evenodd" clip-rule="evenodd" d="M13 24.5C19.3513 24.5 24.5 19.3513 24.5 13C24.5 6.64873 19.3513 1.5 13 1.5C6.64873 1.5 1.5 6.64873 1.5 13C1.5 19.3513 6.64873 24.5 13 24.5ZM13 25.5C19.9036 25.5 25.5 19.9036 25.5 13C25.5 6.09644 19.9036 0.5 13 0.5C6.09644 0.5 0.5 6.09644 0.5 13C0.5 19.9036 6.09644 25.5 13 25.5Z" fill="currentColor"/></svg>