<svg width="20" height="20" viewBox="0 0 26 26" fill="none" xmlns="http://www.w3.org/2000/svg"><path opacity="0.2" fill-rule="evenodd" clip-rule="evenodd" d="M13.5 26C20.4036 26 26 20.4036 26 13.5C26 6.59644 20.4036 1 13.5 1C6.59644 1 1 6.59644 1 13.5C1 20.4036 6.59644 26 13.5 26ZM13.5 24C19.299 24 24 19.299 24 13.5C24 7.70101 19.299 3 13.5 3C7.70101 3 3 7.70101 3 13.5C3 19.299 7.70101 24 13.5 24Z" fill="currentColor"/><g transform="translate(3, 3)"><g><g opacity="0.2"><path fill-rule="evenodd" clip-rule="evenodd" d="M12.079 6.70274C12.0659 6.60016 12.0211 6.50073 11.944 6.42034L11.4598 5.91496C10.8866 5.31681 9.93706 5.29656 9.33892 5.86973C9.19729 6.00544 9.08807 6.16225 9.01144 6.3305C8.44557 5.99002 7.7006 6.05468 7.20088 6.53353C7.05999 6.66853 6.95117 6.82441 6.87461 6.99166C6.30885 6.65181 5.56441 6.71666 5.06496 7.19525C4.56552 7.67384 4.46899 8.41484 4.78441 8.99457C4.61405 9.06393 4.45367 9.16601 4.31279 9.30101C3.71464 9.87417 3.69439 10.8237 4.26756 11.4218L4.67251 11.8444C4.52135 11.9128 4.37905 12.0075 4.25248 12.1288C3.65434 12.702 3.63409 13.6515 4.20725 14.2496L8.09102 18.3027C8.5425 18.7738 9.08479 19.1486 9.68515 19.4043L9.71933 19.4188C10.5731 19.7824 11.5154 19.8855 12.4276 19.715C12.7594 19.6529 13.0834 19.5554 13.394 19.4242C13.4234 19.4214 13.4529 19.4159 13.4823 19.4076L14.636 19.0821C14.984 18.9839 15.3238 18.8587 15.6523 18.7076L15.7737 18.6518C16.3953 18.3659 16.9648 17.9783 17.4588 17.5049L17.5605 17.4076C17.7806 17.1966 17.9798 16.9646 18.1551 16.7151C19.069 15.4143 19.2643 13.74 18.6744 12.2638L17.1517 8.45326C17.1419 8.4288 17.1304 8.40554 17.1174 8.38355L16.3592 6.73131C15.98 5.90509 14.9686 5.58931 14.1867 6.053C13.9108 6.21666 13.7026 6.45584 13.5764 6.73089C13.1278 6.48222 12.5678 6.45383 12.079 6.70274Z" fill="currentColor"/><path d="M20 16C20 18.2091 18.2091 20 16 20C13.7909 20 12 18.2091 12 16C12 13.7909 13.7909 12 16 12C18.2091 12 20 13.7909 20 16Z" fill="currentColor"/><path fill-rule="evenodd" clip-rule="evenodd" d="M3.93835 0.672662C4.39529 0.362467 5.01718 0.481431 5.32737 0.938375L6.53392 2.71572C6.84411 3.17266 6.72515 3.79455 6.2682 4.10475C5.81126 4.41494 5.18937 4.29598 4.87918 3.83903L3.67263 2.06169C3.36244 1.60474 3.4814 0.982856 3.93835 0.672662Z" fill="currentColor"/><path fill-rule="evenodd" clip-rule="evenodd" d="M12.4545 0.609309C11.9626 0.358274 11.3603 0.553561 11.1093 1.0455L10.2023 2.82284C9.95126 3.31477 10.1465 3.91707 10.6385 4.16811C11.1304 4.41914 11.7327 4.22385 11.9837 3.73192L12.8907 1.95458C13.1418 1.46264 12.9465 0.860344 12.4545 0.609309Z" fill="currentColor"/><path fill-rule="evenodd" clip-rule="evenodd" d="M8.30958 5.70238e-05C8.86186 5.69982e-05 9.30958 0.447772 9.30958 1.00006L9.30958 2.7774C9.30958 3.32969 8.86186 3.7774 8.30958 3.7774C7.75729 3.7774 7.30958 3.32969 7.30958 2.7774L7.30958 1.00006C7.30958 0.447772 7.75729 5.70371e-05 8.30958 5.70238e-05Z" fill="currentColor"/></g><path fill-rule="evenodd" clip-rule="evenodd" d="M2.26756 10.4219C1.69439 9.82376 1.71464 8.87423 2.31279 8.30106C2.91093 7.7279 3.86046 7.74815 4.43362 8.34629L7.2011 11.2344C7.39216 11.4338 7.38541 11.7503 7.18603 11.9413C6.98664 12.1324 6.67013 12.1256 6.47908 11.9263L3.7116 9.03816C3.52055 8.83878 3.20404 8.83203 3.00465 9.02309C2.80527 9.21414 2.79852 9.53065 2.98958 9.73003L5.75706 12.6181C5.94811 12.8175 5.94136 13.134 5.74198 13.3251C5.5426 13.5161 5.22609 13.5094 5.03503 13.31L2.26756 10.4219Z" fill="currentColor"/><path fill-rule="evenodd" clip-rule="evenodd" d="M3.01974 8.31619C2.44657 7.71805 2.46682 6.76851 3.06497 6.19535C3.66311 5.62219 4.61264 5.64244 5.18581 6.24058L7.95328 9.12867C8.14434 9.32805 8.13759 9.64456 7.93821 9.83562C7.73883 10.0267 7.42232 10.0199 7.23126 9.82054L4.46378 6.93245C4.27273 6.73307 3.95622 6.72632 3.75684 6.91737C3.55746 7.10843 3.55071 7.42494 3.74176 7.62432L6.50924 10.5124C6.70029 10.7118 6.69354 11.0283 6.49416 11.2194C6.29478 11.4104 5.97827 11.4037 5.78722 11.2043L3.01974 8.31619Z" fill="currentColor"/><path fill-rule="evenodd" clip-rule="evenodd" d="M5.15565 7.65445C4.58248 7.0563 4.60273 6.10677 5.20088 5.53361C5.79902 4.96044 6.74855 4.98069 7.32172 5.57884L10.4375 8.83046C10.6286 9.02984 10.6219 9.34635 10.4225 9.53741C10.2231 9.72846 9.90658 9.72171 9.71552 9.52233L6.59969 6.27071C6.40864 6.07133 6.09213 6.06458 5.89275 6.25563C5.69337 6.44668 5.68662 6.76319 5.87767 6.96258L8.64515 9.85067C8.8362 10.05 8.82945 10.3666 8.63007 10.5576C8.43069 10.7487 8.11418 10.7419 7.92313 10.5425L5.15565 7.65445Z" fill="currentColor"/><path fill-rule="evenodd" clip-rule="evenodd" d="M9.23962 7.45182C9.09995 6.78397 9.4005 6.10124 9.98736 5.75321C10.8021 5.27007 11.8558 5.59909 12.2509 6.45995L12.9995 8.09138C13.1147 8.34235 13.0046 8.63918 12.7536 8.75435C12.5027 8.86953 12.2058 8.75944 12.0907 8.50846L11.342 6.87704C11.1946 6.55583 10.8014 6.43307 10.4974 6.61334C10.2785 6.74319 10.1663 6.99793 10.2184 7.24712L10.614 9.13876C10.6706 9.40906 10.4973 9.674 10.227 9.73053C9.95667 9.78705 9.69173 9.61376 9.63521 9.34346L9.23962 7.45182Z" fill="currentColor"/><path fill-rule="evenodd" clip-rule="evenodd" d="M3.69526 14.0798C3.89464 13.8888 4.21115 13.8955 4.4022 14.0949L6.81305 16.6108C7.17101 16.9844 7.60098 17.2815 8.077 17.4843L8.11117 17.4988C8.78352 17.7852 9.52553 17.8663 10.2439 17.732C10.5433 17.6761 10.8346 17.5834 11.1113 17.4561L11.25 17.3923C11.7492 17.1627 12.2066 16.8514 12.6033 16.4713L12.7305 16.3494C12.9039 16.1832 13.0608 16.0006 13.1988 15.8041C13.9185 14.7797 14.0723 13.4612 13.6078 12.2987L12.085 8.4882C11.9825 8.23177 12.1073 7.94083 12.3638 7.83836C12.6202 7.73588 12.9111 7.86069 13.0136 8.11711L14.5364 11.9276C15.1263 13.4038 14.931 15.0781 14.0171 16.3789C13.8418 16.6285 13.6426 16.8604 13.4224 17.0714L13.2952 17.1933C12.8182 17.6504 12.2682 18.0247 11.6679 18.3008L11.5292 18.3646C11.1778 18.5263 10.8078 18.6439 10.4276 18.715C9.51541 18.8855 8.57314 18.7825 7.71933 18.4188L7.68515 18.4043C7.0848 18.1486 6.5425 17.7739 6.09103 17.3027L3.68018 14.7868C3.48912 14.5874 3.49587 14.2709 3.69526 14.0798Z" fill="currentColor"/><path fill-rule="evenodd" clip-rule="evenodd" d="M2.20725 13.2497C1.63409 12.6515 1.65434 11.702 2.25248 11.1288C2.85035 10.5559 3.7995 10.5752 4.37292 11.1736L5.75706 12.6181C5.94811 12.8175 5.94136 13.134 5.74198 13.325C5.5426 13.5161 5.22609 13.5093 5.03504 13.31L3.6509 11.8655C3.4601 11.6664 3.144 11.6595 2.94435 11.8508C2.74497 12.0419 2.73822 12.3584 2.92928 12.5578L5.69675 15.4459C5.88781 15.6453 5.88106 15.9618 5.68168 16.1528C5.4823 16.3439 5.16579 16.3371 4.97473 16.1378L2.20725 13.2497Z" fill="currentColor"/><path fill-rule="evenodd" clip-rule="evenodd" d="M7.29369 6.99075C6.72053 6.39261 6.74078 5.44307 7.33892 4.86991C7.93707 4.29675 8.8866 4.317 9.45976 4.91514L9.94404 5.42052C10.1351 5.6199 10.1283 5.93641 9.92896 6.12747C9.72958 6.31852 9.41307 6.31177 9.22201 6.11239L8.73774 5.60701C8.54668 5.40763 8.23017 5.40088 8.03079 5.59193C7.83141 5.78299 7.82466 6.0995 8.01572 6.29888L9.39946 7.74292C9.59051 7.94231 9.58376 8.25882 9.38438 8.44987C9.185 8.64092 8.86849 8.63417 8.67743 8.43479L7.29369 6.99075Z" fill="currentColor"/><path fill-rule="evenodd" clip-rule="evenodd" d="M11.5288 6.89303C11.2773 6.20129 11.5537 5.42851 12.1867 5.05307C12.9686 4.58938 13.98 4.90516 14.3591 5.73138L15.1376 7.42762C15.2527 7.6786 15.1426 7.97542 14.8917 8.0906C14.6407 8.20577 14.3439 8.09568 14.2287 7.8447L13.4503 6.14846C13.3188 5.8619 12.968 5.75238 12.6968 5.9132C12.4772 6.04341 12.3814 6.31144 12.4686 6.55136L13.0805 8.23441C13.1748 8.49394 13.0409 8.78081 12.7814 8.87516C12.5219 8.96951 12.235 8.8356 12.1407 8.57608L11.5288 6.89303Z" fill="currentColor"/><path fill-rule="evenodd" clip-rule="evenodd" d="M14.5018 7.1746C14.7582 7.07213 15.0492 7.19693 15.1516 7.45336L16.6744 11.2639C17.2643 12.7401 17.069 14.4144 16.1551 15.7152C15.9798 15.9647 15.7806 16.1966 15.5604 16.4076L15.4588 16.505C14.9648 16.9784 14.3953 17.366 13.7737 17.6519L13.6523 17.7077L13.4434 17.2535L13.6523 17.7077C13.3238 17.8588 12.984 17.984 12.636 18.0822L11.4823 18.4077C11.2165 18.4827 10.9403 18.328 10.8653 18.0622C10.7904 17.7965 10.945 17.5202 11.2108 17.4452L12.3645 17.1198C12.6624 17.0357 12.9533 16.9286 13.2345 16.7992L13.3559 16.7434C13.8764 16.504 14.3533 16.1794 14.767 15.783L14.8686 15.6856C15.042 15.5195 15.1988 15.3368 15.3369 15.1403C16.0566 14.116 16.2104 12.7975 15.7458 11.6349L14.223 7.82444C14.1206 7.56802 14.2454 7.27707 14.5018 7.1746Z" fill="currentColor"/><path fill-rule="evenodd" clip-rule="evenodd" d="M3.21918 1.08639C3.44765 0.931294 3.7586 0.990776 3.91369 1.21925L5.12024 2.99659C5.27533 3.22506 5.21585 3.53601 4.98738 3.69111C4.75891 3.8462 4.44796 3.78672 4.29287 3.55825L3.08632 1.78091C2.93123 1.55243 2.99071 1.24149 3.21918 1.08639Z" fill="currentColor"/><path fill-rule="evenodd" clip-rule="evenodd" d="M11.2273 1.05465C10.9813 0.929137 10.6802 1.02678 10.5546 1.27275L9.64766 3.05009C9.52214 3.29606 9.61978 3.59721 9.86575 3.72272C10.1117 3.84824 10.4129 3.7506 10.5384 3.50463L11.4454 1.72729C11.5709 1.48132 11.4732 1.18017 11.2273 1.05465Z" fill="currentColor"/><path fill-rule="evenodd" clip-rule="evenodd" d="M7.30957 0.50009C7.58572 0.50009 7.80957 0.723947 7.80957 1.00009L7.80957 2.77743C7.80957 3.05358 7.58572 3.27743 7.30957 3.27743C7.03343 3.27743 6.80957 3.05358 6.80957 2.77743L6.80957 1.00009C6.80957 0.723947 7.03343 0.50009 7.30957 0.50009Z" fill="currentColor"/><path d="M18 15C18 17.2091 16.2091 19 14 19C11.7909 19 10 17.2091 10 15C10 12.7909 11.7909 11 14 11C16.2091 11 18 12.7909 18 15Z" fill="currentColor"/><path fill-rule="evenodd" clip-rule="evenodd" d="M14 18C15.6569 18 17 16.6569 17 15C17 13.3431 15.6569 12 14 12C12.3431 12 11 13.3431 11 15C11 16.6569 12.3431 18 14 18ZM14 19C16.2091 19 18 17.2091 18 15C18 12.7909 16.2091 11 14 11C11.7909 11 10 12.7909 10 15C10 17.2091 11.7909 19 14 19Z" fill="currentColor"/><path fill-rule="evenodd" clip-rule="evenodd" d="M15.7499 13.367C15.9891 13.505 16.0712 13.8108 15.9332 14.05L14.4332 16.65C14.2952 16.8892 13.9894 16.9713 13.7502 16.8333C13.511 16.6953 13.429 16.3895 13.567 16.1503L15.067 13.5503C15.205 13.3111 15.5107 13.229 15.7499 13.367Z" fill="currentColor"/><path fill-rule="evenodd" clip-rule="evenodd" d="M12.0968 15.0044C12.2601 14.7817 12.573 14.7336 12.7957 14.8969L14.2957 15.9969C14.5184 16.1602 14.5665 16.4731 14.4032 16.6958C14.2399 16.9185 13.927 16.9666 13.7043 16.8033L12.2043 15.7033C11.9816 15.54 11.9335 15.2271 12.0968 15.0044Z" fill="currentColor"/></g><path d="M1.15063 1.87794C0.94979 1.6771 0.94979 1.35147 1.15063 1.15063C1.35147 0.949789 1.6771 0.949789 1.87794 1.15063L18.8494 18.1221C19.0502 18.3229 19.0502 18.6485 18.8494 18.8494C18.6485 19.0502 18.3229 19.0502 18.1221 18.8494L1.15063 1.87794Z" fill="currentColor"/></g><path fill-rule="evenodd" clip-rule="evenodd" d="M13 24.5C19.3513 24.5 24.5 19.3513 24.5 13C24.5 6.64873 19.3513 1.5 13 1.5C6.64873 1.5 1.5 6.64873 1.5 13C1.5 19.3513 6.64873 24.5 13 24.5ZM13 25.5C19.9036 25.5 25.5 19.9036 25.5 13C25.5 6.09644 19.9036 0.5 13 0.5C6.09644 0.5 0.5 6.09644 0.5 13C0.5 19.9036 6.09644 25.5 13 25.5Z" fill="currentColor"/></svg>