<svg width="20" height="20" viewBox="0 0 20 20" fill="none" xmlns="http://www.w3.org/2000/svg"><g opacity="0.2"><path fill-rule="evenodd" clip-rule="evenodd" d="M18.8801 17.0685C18.7061 17.5927 18.1402 17.8766 17.616 17.7027C17.5878 17.6933 17.5602 17.6828 17.5334 17.6712C16.9918 18.4839 16.0621 19.014 15.0129 18.9998L14.9967 18.9995C14.4466 18.989 14.0083 18.5362 14.0158 17.9861L14.0699 13.9865C14.0774 13.4321 14.5345 12.9897 15.0888 13.0002C16.0593 13.0186 16.9138 13.4961 17.4485 14.222C17.4827 13.8743 17.5 13.5218 17.5 13.166C17.5 8.71008 14.7442 5.75354 11 5.75354C7.25581 5.75354 4.5 8.71008 4.5 13.166C4.5 13.5555 4.52075 13.941 4.56163 14.3208C5.10693 13.5321 6.02251 13.0206 7.05335 13.0345L7.06957 13.0348C7.61963 13.0452 8.05794 13.498 8.0505 14.0481L7.99636 18.0478C7.98886 18.6021 7.53178 19.0446 6.97747 19.0341C5.93738 19.0143 5.03048 18.4673 4.50772 17.6523C4.46816 17.6716 4.42688 17.6884 4.38399 17.7027C3.85981 17.8766 3.29387 17.5927 3.11994 17.0685C2.71209 15.8394 2.5 14.5199 2.5 13.166C2.5 7.63571 6.11859 3.75354 11 3.75354C15.8814 3.75354 19.5 7.63571 19.5 13.166C19.5 14.5199 19.2879 15.8394 18.8801 17.0685Z" fill="currentColor"/></g><path d="M17.4055 14.911C17.3185 15.1731 17.0356 15.3151 16.7735 15.2281C16.5114 15.1411 16.3694 14.8582 16.4564 14.5961C16.8135 13.5197 17 12.3598 17 11.166C17 6.44149 14.0285 3.25354 10 3.25354C5.9715 3.25354 3 6.44149 3 11.166C3 12.3598 3.18645 13.5197 3.54361 14.5961C3.63058 14.8582 3.48861 15.1411 3.22652 15.2281C2.96443 15.3151 2.68146 15.1731 2.5945 14.911C2.20355 13.7328 2 12.4665 2 11.166C2 5.9043 5.40289 2.25354 10 2.25354C14.5971 2.25354 18 5.9043 18 11.166C18 12.4665 17.7965 13.7328 17.4055 14.911Z" fill="currentColor"/><path d="M5.97747 17.034C4.32744 17.0027 3.01262 15.6444 3.03496 13.9942L3.03526 13.9719C3.05752 12.3274 4.40876 11.0122 6.05334 11.0345C6.06146 11.0346 6.06146 11.0346 6.06957 11.0347C6.61963 11.0452 7.05794 11.498 7.0505 12.0481L6.99636 16.0477C6.98886 16.6021 6.53178 17.0446 5.97747 17.034Z" fill="currentColor"/><path d="M14.0888 11.0001C15.7388 11.0315 17.0536 12.3898 17.0313 14.0399L17.031 14.0622C17.0087 15.7068 15.6575 17.022 14.0129 16.9997C14.0048 16.9996 14.0048 16.9996 13.9967 16.9994C13.4466 16.989 13.0083 16.5362 13.0158 15.9861L13.0699 11.9864C13.0774 11.4321 13.5345 10.9896 14.0888 11.0001Z" fill="currentColor"/><path d="M1.15063 1.87794C0.94979 1.6771 0.94979 1.35147 1.15063 1.15063C1.35147 0.949789 1.6771 0.949789 1.87794 1.15063L18.8494 18.1221C19.0502 18.3229 19.0502 18.6485 18.8494 18.8494C18.6485 19.0502 18.3229 19.0502 18.1221 18.8494L1.15063 1.87794Z" fill="currentColor"/></svg>