<svg width="20" height="20" viewBox="0 0 26 26" fill="none" xmlns="http://www.w3.org/2000/svg"><path opacity="0.2" d="M26 14C26 20.6274 20.6274 26 14 26C7.37258 26 2 20.6274 2 14C2 7.37258 7.37258 2 14 2C20.6274 2 26 7.37258 26 14Z" fill="currentColor"/><g transform="translate(3, 3)"><g><path fill-rule="evenodd" clip-rule="evenodd" d="M7.25 5.25C7.25 4.69772 7.69772 4.25 8.25 4.25H11.75C12.3023 4.25 12.75 4.69772 12.75 5.25C12.75 5.80228 12.3023 6.25 11.75 6.25H8.25C7.69772 6.25 7.25 5.80228 7.25 5.25Z" fill="currentColor"/><path fill-rule="evenodd" clip-rule="evenodd" d="M10 8C9.44772 8 9 7.55228 9 7V3.5C9 2.94772 9.44772 2.5 10 2.5C10.5523 2.5 11 2.94772 11 3.5V7C11 7.55228 10.5523 8 10 8Z" fill="currentColor"/><path fill-rule="evenodd" clip-rule="evenodd" d="M6 1.5C5.72386 1.5 5.5 1.72386 5.5 2V6.82432C5.5 7.37661 5.05228 7.82432 4.5 7.82432H2C1.72386 7.82432 1.5 8.04818 1.5 8.32432V18C1.5 18.2761 1.72386 18.5 2 18.5H18C18.2761 18.5 18.5 18.2761 18.5 18V8.32432C18.5 8.04818 18.2761 7.82432 18 7.82432H15.5C14.9477 7.82432 14.5 7.37661 14.5 6.82432V2C14.5 1.72386 14.2761 1.5 14 1.5H6ZM4.5 2C4.5 1.17157 5.17157 0.5 6 0.5H14C14.8284 0.5 15.5 1.17157 15.5 2V6.82432H18C18.8284 6.82432 19.5 7.4959 19.5 8.32432V18C19.5 18.8284 18.8284 19.5 18 19.5H2C1.17157 19.5 0.5 18.8284 0.5 18V8.32432C0.5 7.4959 1.17157 6.82432 2 6.82432H4.5V2Z" fill="currentColor"/><path d="M3.5 10.5C3.5 9.94772 3.94772 9.5 4.5 9.5H5.5C6.05228 9.5 6.5 9.94772 6.5 10.5V11.5C6.5 12.0523 6.05228 12.5 5.5 12.5H4.5C3.94772 12.5 3.5 12.0523 3.5 11.5V10.5Z" fill="currentColor"/><path fill-rule="evenodd" clip-rule="evenodd" d="M3.25 10.5C3.25 9.80964 3.80964 9.25 4.5 9.25H5.5C6.19036 9.25 6.75 9.80964 6.75 10.5V11.5C6.75 12.1904 6.19036 12.75 5.5 12.75H4.5C3.80964 12.75 3.25 12.1904 3.25 11.5V10.5ZM4.5 9.75C4.08579 9.75 3.75 10.0858 3.75 10.5V11.5C3.75 11.9142 4.08579 12.25 4.5 12.25H5.5C5.91421 12.25 6.25 11.9142 6.25 11.5V10.5C6.25 10.0858 5.91421 9.75 5.5 9.75H4.5Z" fill="currentColor"/><path d="M8.5 10.5C8.5 9.94772 8.94772 9.5 9.5 9.5H10.5C11.0523 9.5 11.5 9.94772 11.5 10.5V11.5C11.5 12.0523 11.0523 12.5 10.5 12.5H9.5C8.94772 12.5 8.5 12.0523 8.5 11.5V10.5Z" fill="currentColor"/><path fill-rule="evenodd" clip-rule="evenodd" d="M8.25 10.5C8.25 9.80964 8.80964 9.25 9.5 9.25H10.5C11.1904 9.25 11.75 9.80964 11.75 10.5V11.5C11.75 12.1904 11.1904 12.75 10.5 12.75H9.5C8.80964 12.75 8.25 12.1904 8.25 11.5V10.5ZM9.5 9.75C9.08579 9.75 8.75 10.0858 8.75 10.5V11.5C8.75 11.9142 9.08579 12.25 9.5 12.25H10.5C10.9142 12.25 11.25 11.9142 11.25 11.5V10.5C11.25 10.0858 10.9142 9.75 10.5 9.75H9.5Z" fill="currentColor"/><path d="M13.5 10.5C13.5 9.94772 13.9477 9.5 14.5 9.5H15.5C16.0523 9.5 16.5 9.94772 16.5 10.5V11.5C16.5 12.0523 16.0523 12.5 15.5 12.5H14.5C13.9477 12.5 13.5 12.0523 13.5 11.5V10.5Z" fill="currentColor"/><path fill-rule="evenodd" clip-rule="evenodd" d="M13.25 10.5C13.25 9.80964 13.8096 9.25 14.5 9.25H15.5C16.1904 9.25 16.75 9.80964 16.75 10.5V11.5C16.75 12.1904 16.1904 12.75 15.5 12.75H14.5C13.8096 12.75 13.25 12.1904 13.25 11.5V10.5ZM14.5 9.75C14.0858 9.75 13.75 10.0858 13.75 10.5V11.5C13.75 11.9142 14.0858 12.25 14.5 12.25H15.5C15.9142 12.25 16.25 11.9142 16.25 11.5V10.5C16.25 10.0858 15.9142 9.75 15.5 9.75H14.5Z" fill="currentColor"/><path d="M3.5 15C3.5 14.4477 3.94772 14 4.5 14H5.5C6.05228 14 6.5 14.4477 6.5 15V16C6.5 16.5523 6.05228 17 5.5 17H4.5C3.94772 17 3.5 16.5523 3.5 16V15Z" fill="currentColor"/><path fill-rule="evenodd" clip-rule="evenodd" d="M3.25 15C3.25 14.3096 3.80964 13.75 4.5 13.75H5.5C6.19036 13.75 6.75 14.3096 6.75 15V16C6.75 16.6904 6.19036 17.25 5.5 17.25H4.5C3.80964 17.25 3.25 16.6904 3.25 16V15ZM4.5 14.25C4.08579 14.25 3.75 14.5858 3.75 15V16C3.75 16.4142 4.08579 16.75 4.5 16.75H5.5C5.91421 16.75 6.25 16.4142 6.25 16V15C6.25 14.5858 5.91421 14.25 5.5 14.25H4.5Z" fill="currentColor"/><path d="M8.5 15C8.5 14.4477 8.94772 14 9.5 14H10.5C11.0523 14 11.5 14.4477 11.5 15V16C11.5 16.5523 11.0523 17 10.5 17H9.5C8.94772 17 8.5 16.5523 8.5 16V15Z" fill="currentColor"/><path fill-rule="evenodd" clip-rule="evenodd" d="M8.25 15C8.25 14.3096 8.80964 13.75 9.5 13.75H10.5C11.1904 13.75 11.75 14.3096 11.75 15V16C11.75 16.6904 11.1904 17.25 10.5 17.25H9.5C8.80964 17.25 8.25 16.6904 8.25 16V15ZM9.5 14.25C9.08579 14.25 8.75 14.5858 8.75 15V16C8.75 16.4142 9.08579 16.75 9.5 16.75H10.5C10.9142 16.75 11.25 16.4142 11.25 16V15C11.25 14.5858 10.9142 14.25 10.5 14.25H9.5Z" fill="currentColor"/><path d="M13.5 15C13.5 14.4477 13.9477 14 14.5 14H15.5C16.0523 14 16.5 14.4477 16.5 15V16C16.5 16.5523 16.0523 17 15.5 17H14.5C13.9477 17 13.5 16.5523 13.5 16V15Z" fill="currentColor"/><path fill-rule="evenodd" clip-rule="evenodd" d="M13.25 15C13.25 14.3096 13.8096 13.75 14.5 13.75H15.5C16.1904 13.75 16.75 14.3096 16.75 15V16C16.75 16.6904 16.1904 17.25 15.5 17.25H14.5C13.8096 17.25 13.25 16.6904 13.25 16V15ZM14.5 14.25C14.0858 14.25 13.75 14.5858 13.75 15V16C13.75 16.4142 14.0858 16.75 14.5 16.75H15.5C15.9142 16.75 16.25 16.4142 16.25 16V15C16.25 14.5858 15.9142 14.25 15.5 14.25H14.5Z" fill="currentColor"/></g></g><path fill-rule="evenodd" clip-rule="evenodd" d="M13 24.5C19.3513 24.5 24.5 19.3513 24.5 13C24.5 6.64873 19.3513 1.5 13 1.5C6.64873 1.5 1.5 6.64873 1.5 13C1.5 19.3513 6.64873 24.5 13 24.5ZM13 25.5C19.9036 25.5 25.5 19.9036 25.5 13C25.5 6.09644 19.9036 0.5 13 0.5C6.09644 0.5 0.5 6.09644 0.5 13C0.5 19.9036 6.09644 25.5 13 25.5Z" fill="currentColor"/></svg>