<svg width="20" height="20" viewBox="0 0 20 20" fill="none" xmlns="http://www.w3.org/2000/svg"><path opacity="0.8" fill-rule="evenodd" clip-rule="evenodd" d="M3 7.5C3 6.11929 4.11929 5 5.5 5H17.5C18.8807 5 20 6.11929 20 7.5V14.5C20 15.8807 18.8807 17 17.5 17H5.5C4.11929 17 3 15.8807 3 14.5V7.5Z" fill="currentColor"/><path fill-rule="evenodd" clip-rule="evenodd" d="M4 4C3.17157 4 2.5 4.67157 2.5 5.5V12.5C2.5 13.3284 3.17157 14 4 14H16C16.8284 14 17.5 13.3284 17.5 12.5V5.5C17.5 4.67157 16.8284 4 16 4H4ZM1.5 5.5C1.5 4.11929 2.61929 3 4 3H16C17.3807 3 18.5 4.11929 18.5 5.5V12.5C18.5 13.8807 17.3807 15 16 15H4C2.61929 15 1.5 13.8807 1.5 12.5V5.5Z" fill="black"/><path fill-rule="evenodd" clip-rule="evenodd" d="M9.18182 6.81818C9.18182 6.54203 9.40568 6.31818 9.68182 6.31818H12.4091C12.6852 6.31818 12.9091 6.54203 12.9091 6.81818C12.9091 7.09432 12.6852 7.31818 12.4091 7.31818H9.68182C9.40568 7.31818 9.18182 7.09432 9.18182 6.81818Z" fill="black"/><path fill-rule="evenodd" clip-rule="evenodd" d="M9.18182 10.9091C9.18182 10.6329 9.40568 10.4091 9.68182 10.4091L15.1364 10.4091C15.4125 10.4091 15.6364 10.6329 15.6364 10.9091C15.6364 11.1852 15.4125 11.4091 15.1364 11.4091L9.68182 11.4091C9.40568 11.4091 9.18182 11.1852 9.18182 10.9091Z" fill="black"/><path fill-rule="evenodd" clip-rule="evenodd" d="M9.18182 8.18182C9.18182 7.90568 9.40568 7.68182 9.68182 7.68182H15.1364C15.4125 7.68182 15.6364 7.90568 15.6364 8.18182C15.6364 8.45797 15.4125 8.68182 15.1364 8.68182H9.68182C9.40568 8.68182 9.18182 8.45797 9.18182 8.18182ZM9.18182 9.54546C9.18182 9.26932 9.40568 9.04546 9.68182 9.04546H15.1364C15.4125 9.04546 15.6364 9.26932 15.6364 9.54546C15.6364 9.8216 15.4125 10.0455 15.1364 10.0455H9.68182C9.40568 10.0455 9.18182 9.8216 9.18182 9.54546Z" fill="black"/><path d="M7.77271 8.18181C7.77271 8.93493 7.16219 9.54545 6.40908 9.54545C5.65596 9.54545 5.04544 8.93493 5.04544 8.18181C5.04544 7.4287 5.65596 6.81818 6.40908 6.81818C7.16219 6.81818 7.77271 7.4287 7.77271 8.18181Z" fill="black"/><path d="M8.04546 10.7755C8.04546 11.4635 7.31284 11.3984 6.4091 11.3984C5.50536 11.3984 4.77274 11.4635 4.77274 10.7755C4.77274 10.0874 5.50536 9.2182 6.4091 9.2182C7.31284 9.2182 8.04546 10.0874 8.04546 10.7755Z" fill="black"/></svg>