<svg width="20" height="20" viewBox="0 0 26 26" fill="none" xmlns="http://www.w3.org/2000/svg"><path opacity="0.2" fill-rule="evenodd" clip-rule="evenodd" d="M13.5 26C20.4036 26 26 20.4036 26 13.5C26 6.59644 20.4036 1 13.5 1C6.59644 1 1 6.59644 1 13.5C1 20.4036 6.59644 26 13.5 26ZM13.5 24C19.299 24 24 19.299 24 13.5C24 7.70101 19.299 3 13.5 3C7.70101 3 3 7.70101 3 13.5C3 19.299 7.70101 24 13.5 24Z" fill="currentColor"/><g transform="translate(3, 3)"><path opacity="0.2" fill-rule="evenodd" clip-rule="evenodd" d="M3 8.5C3 7.11929 4.11929 6 5.5 6H17.5C18.8807 6 20 7.11929 20 8.5V15.5C20 16.8807 18.8807 18 17.5 18H5.5C4.11929 18 3 16.8807 3 15.5V8.5Z" fill="currentColor"/><path fill-rule="evenodd" clip-rule="evenodd" d="M4 5C3.17157 5 2.5 5.67157 2.5 6.5V13.5C2.5 14.3284 3.17157 15 4 15H16C16.8284 15 17.5 14.3284 17.5 13.5V6.5C17.5 5.67157 16.8284 5 16 5H4ZM1.5 6.5C1.5 5.11929 2.61929 4 4 4H16C17.3807 4 18.5 5.11929 18.5 6.5V13.5C18.5 14.8807 17.3807 16 16 16H4C2.61929 16 1.5 14.8807 1.5 13.5V6.5Z" fill="currentColor"/><path fill-rule="evenodd" clip-rule="evenodd" d="M9.18182 7.81818C9.18182 7.54203 9.40568 7.31818 9.68182 7.31818H12.4091C12.6852 7.31818 12.9091 7.54203 12.9091 7.81818C12.9091 8.09432 12.6852 8.31818 12.4091 8.31818H9.68182C9.40568 8.31818 9.18182 8.09432 9.18182 7.81818Z" fill="currentColor"/><path fill-rule="evenodd" clip-rule="evenodd" d="M9.18182 11.9091C9.18182 11.6329 9.40568 11.4091 9.68182 11.4091L15.1364 11.4091C15.4125 11.4091 15.6364 11.6329 15.6364 11.9091C15.6364 12.1852 15.4125 12.4091 15.1364 12.4091L9.68182 12.4091C9.40568 12.4091 9.18182 12.1852 9.18182 11.9091Z" fill="currentColor"/><path fill-rule="evenodd" clip-rule="evenodd" d="M9.18182 9.18182C9.18182 8.90568 9.40568 8.68182 9.68182 8.68182H15.1364C15.4125 8.68182 15.6364 8.90568 15.6364 9.18182C15.6364 9.45797 15.4125 9.68182 15.1364 9.68182H9.68182C9.40568 9.68182 9.18182 9.45797 9.18182 9.18182ZM9.18182 10.5455C9.18182 10.2693 9.40568 10.0455 9.68182 10.0455H15.1364C15.4125 10.0455 15.6364 10.2693 15.6364 10.5455C15.6364 10.8216 15.4125 11.0455 15.1364 11.0455H9.68182C9.40568 11.0455 9.18182 10.8216 9.18182 10.5455Z" fill="currentColor"/><path d="M7.77268 9.18181C7.77268 9.93493 7.16216 10.5454 6.40905 10.5454C5.65593 10.5454 5.04541 9.93493 5.04541 9.18181C5.04541 8.4287 5.65593 7.81818 6.40905 7.81818C7.16216 7.81818 7.77268 8.4287 7.77268 9.18181Z" fill="currentColor"/><path d="M8.04543 11.7755C8.04543 12.4635 7.31281 12.3984 6.40907 12.3984C5.50533 12.3984 4.77271 12.4635 4.77271 11.7755C4.77271 11.0874 5.50533 10.2182 6.40907 10.2182C7.31281 10.2182 8.04543 11.0874 8.04543 11.7755Z" fill="currentColor"/><path d="M1.15063 1.87794C0.94979 1.6771 0.94979 1.35147 1.15063 1.15063C1.35147 0.949789 1.6771 0.949789 1.87794 1.15063L18.8494 18.1221C19.0502 18.3229 19.0502 18.6485 18.8494 18.8494C18.6485 19.0502 18.3229 19.0502 18.1221 18.8494L1.15063 1.87794Z" fill="currentColor"/></g><path fill-rule="evenodd" clip-rule="evenodd" d="M13 24.5C19.3513 24.5 24.5 19.3513 24.5 13C24.5 6.64873 19.3513 1.5 13 1.5C6.64873 1.5 1.5 6.64873 1.5 13C1.5 19.3513 6.64873 24.5 13 24.5ZM13 25.5C19.9036 25.5 25.5 19.9036 25.5 13C25.5 6.09644 19.9036 0.5 13 0.5C6.09644 0.5 0.5 6.09644 0.5 13C0.5 19.9036 6.09644 25.5 13 25.5Z" fill="currentColor"/></svg>