<svg width="20" height="20" viewBox="0 0 26 26" fill="none" xmlns="http://www.w3.org/2000/svg"><path opacity="0.2" fill-rule="evenodd" clip-rule="evenodd" d="M13.5 26C20.4036 26 26 20.4036 26 13.5C26 6.59644 20.4036 1 13.5 1C6.59644 1 1 6.59644 1 13.5C1 20.4036 6.59644 26 13.5 26ZM13.5 24C19.299 24 24 19.299 24 13.5C24 7.70101 19.299 3 13.5 3C7.70101 3 3 7.70101 3 13.5C3 19.299 7.70101 24 13.5 24Z" fill="currentColor"/><g transform="translate(3, 3)"><g opacity="0.2"><path fill-rule="evenodd" clip-rule="evenodd" d="M11 8C12.1046 8 13 8.89543 13 10V17C13 18.1046 12.1046 19 11 19C9.89543 19 9 18.1046 9 17V10C9 8.89543 9.89543 8 11 8Z" fill="currentColor"/><path d="M13 5C13 6.10457 12.1046 7 11 7C9.89543 7 9 6.10457 9 5C9 3.89543 9.89543 3 11 3C12.1046 3 13 3.89543 13 5Z" fill="currentColor"/></g><path fill-rule="evenodd" clip-rule="evenodd" d="M10.25 7.75C10.6642 7.75 11 8.08579 11 8.5V17.5C11 17.9142 10.6642 18.25 10.25 18.25C9.83579 18.25 9.5 17.9142 9.5 17.5V8.5C9.5 8.08579 9.83579 7.75 10.25 7.75Z" fill="currentColor"/><path d="M11.5 4.25C11.5 4.94036 10.9404 5.5 10.25 5.5C9.55964 5.5 9 4.94036 9 4.25C9 3.55964 9.55964 3 10.25 3C10.9404 3 11.5 3.55964 11.5 4.25Z" fill="currentColor"/><path d="M1.15063 1.87794C0.94979 1.6771 0.94979 1.35147 1.15063 1.15063C1.35147 0.949789 1.6771 0.949789 1.87794 1.15063L18.8494 18.1221C19.0502 18.3229 19.0502 18.6485 18.8494 18.8494C18.6485 19.0502 18.3229 19.0502 18.1221 18.8494L1.15063 1.87794Z" fill="currentColor"/></g><path fill-rule="evenodd" clip-rule="evenodd" d="M13 24.5C19.3513 24.5 24.5 19.3513 24.5 13C24.5 6.64873 19.3513 1.5 13 1.5C6.64873 1.5 1.5 6.64873 1.5 13C1.5 19.3513 6.64873 24.5 13 24.5ZM13 25.5C19.9036 25.5 25.5 19.9036 25.5 13C25.5 6.09644 19.9036 0.5 13 0.5C6.09644 0.5 0.5 6.09644 0.5 13C0.5 19.9036 6.09644 25.5 13 25.5Z" fill="currentColor"/></svg>