<svg width="20" height="20" viewBox="0 0 20 20" fill="none" xmlns="http://www.w3.org/2000/svg"><g opacity="0.2"><path d="M11.5 20C6.80558 20 3 16.1944 3 11.5C3 6.80558 6.80558 3 11.5 3C16.1944 3 20 6.80558 20 11.5C20 16.1944 16.1944 20 11.5 20Z" fill="currentColor"/></g><path fill-rule="evenodd" clip-rule="evenodd" d="M1.5 10C1.5 14.6944 5.30558 18.5 10 18.5C14.6944 18.5 18.5 14.6944 18.5 10C18.5 5.30558 14.6944 1.5 10 1.5C5.30558 1.5 1.5 5.30558 1.5 10ZM17.5 10C17.5 14.1421 14.1421 17.5 10 17.5C5.85786 17.5 2.5 14.1421 2.5 10C2.5 5.85786 5.85786 2.5 10 2.5C14.1421 2.5 17.5 5.85786 17.5 10Z" fill="currentColor"/><path fill-rule="evenodd" clip-rule="evenodd" d="M6.5 10C6.5 14.3955 7.94179 18 10 18C12.0582 18 13.5 14.3955 13.5 10C13.5 5.60448 12.0582 2 10 2C7.94179 2 6.5 5.60448 6.5 10ZM12.5 10C12.5 13.8887 11.2555 17 10 17C8.7445 17 7.5 13.8887 7.5 10C7.5 6.11125 8.7445 3 10 3C11.2555 3 12.5 6.11125 12.5 10Z" fill="currentColor"/><path d="M3.7345 5.31155L4.40527 4.56989C4.51174 4.66618 4.6261 4.76016 4.74797 4.85146C6.06562 5.83869 8.14634 6.44072 10.4133 6.44072C12.3459 6.44072 14.1501 6.00426 15.4683 5.25028C15.7894 5.06668 16.0765 4.8668 16.3253 4.65423L16.9749 5.41453C16.6772 5.66892 16.3387 5.9045 15.9648 6.11833C14.4882 6.96291 12.5131 7.44072 10.4133 7.44072C7.94222 7.44072 5.65143 6.77791 4.14836 5.65176C4.0022 5.54226 3.8641 5.42876 3.7345 5.31155Z" fill="currentColor"/><path d="M3.7345 14.6991L4.40527 15.4407C4.51174 15.3444 4.6261 15.2505 4.74797 15.1592C6.06562 14.1719 8.14634 13.5699 10.4133 13.5699C12.3459 13.5699 14.1501 14.0064 15.4683 14.7603C15.7894 14.9439 16.0765 15.1438 16.3253 15.3564L16.9749 14.5961C16.6772 14.3417 16.3387 14.1061 15.9648 13.8923C14.4882 13.0477 12.5131 12.5699 10.4133 12.5699C7.94222 12.5699 5.65143 13.2327 4.14836 14.3589C4.0022 14.4684 3.8641 14.5819 3.7345 14.6991Z" fill="currentColor"/><path d="M2 10.5V9.5H18V10.5H2Z" fill="currentColor"/></svg>