<svg width="20" height="20" viewBox="0 0 26 26" fill="none" xmlns="http://www.w3.org/2000/svg"><path opacity="0.2" fill-rule="evenodd" clip-rule="evenodd" d="M13.5 26C20.4036 26 26 20.4036 26 13.5C26 6.59644 20.4036 1 13.5 1C6.59644 1 1 6.59644 1 13.5C1 20.4036 6.59644 26 13.5 26ZM13.5 24C19.299 24 24 19.299 24 13.5C24 7.70101 19.299 3 13.5 3C7.70101 3 3 7.70101 3 13.5C3 19.299 7.70101 24 13.5 24Z" fill="currentColor"/><g transform="translate(3, 3)"><g opacity="0.2"><path d="M1.75 8.9C1.75 7.79543 2.64543 6.9 3.75 6.9H17.75C18.8546 6.9 19.75 7.79543 19.75 8.9V16.9C19.75 18.0046 18.8546 18.9 17.75 18.9H3.75C2.64543 18.9 1.75 18.0046 1.75 16.9V8.9Z" fill="currentColor"/><path fill-rule="evenodd" clip-rule="evenodd" d="M17.75 8.9H3.75L3.75 16.9H17.75V8.9ZM3.75 6.9C2.64543 6.9 1.75 7.79543 1.75 8.9V16.9C1.75 18.0046 2.64543 18.9 3.75 18.9H17.75C18.8546 18.9 19.75 18.0046 19.75 16.9V8.9C19.75 7.79543 18.8546 6.9 17.75 6.9H3.75Z" fill="currentColor"/><path fill-rule="evenodd" clip-rule="evenodd" d="M11.75 0.900001C12.3023 0.900001 12.75 1.34772 12.75 1.9L12.75 2.99488C12.75 4.182 12.2227 5.30779 11.3108 6.06776L9.3902 7.66822C8.96592 8.02179 8.33536 7.96446 7.98179 7.54019C7.62823 7.11591 7.68555 6.48534 8.10983 6.13178L10.0304 4.53132C10.4864 4.15133 10.75 3.58844 10.75 2.99488L10.75 1.9C10.75 1.34772 11.1977 0.900001 11.75 0.900001Z" fill="currentColor"/></g><path fill-rule="evenodd" clip-rule="evenodd" d="M0.25 8C0.25 6.61929 1.36929 5.5 2.75 5.5H16.75C18.1307 5.5 19.25 6.61929 19.25 8V16C19.25 17.3807 18.1307 18.5 16.75 18.5H2.75C1.36929 18.5 0.25 17.3807 0.25 16V8ZM2.75 6.5C1.92157 6.5 1.25 7.17157 1.25 8V16C1.25 16.8284 1.92157 17.5 2.75 17.5H16.75C17.5784 17.5 18.25 16.8284 18.25 16V8C18.25 7.17157 17.5784 6.5 16.75 6.5H2.75Z" fill="currentColor"/><path d="M3.25 8.75C3.25 8.61193 3.36193 8.5 3.5 8.5H4C4.13807 8.5 4.25 8.61193 4.25 8.75V9.25C4.25 9.38807 4.13807 9.5 4 9.5H3.5C3.36193 9.5 3.25 9.38807 3.25 9.25V8.75Z" fill="currentColor"/><path fill-rule="evenodd" clip-rule="evenodd" d="M2.5 8.75C2.5 8.19772 2.94772 7.75 3.5 7.75H4C4.55228 7.75 5 8.19772 5 8.75V9.25C5 9.80228 4.55228 10.25 4 10.25H3.5C2.94772 10.25 2.5 9.80228 2.5 9.25V8.75ZM3.75 9.18311C3.82591 9.1392 3.8892 9.07591 3.93311 9C3.8892 8.92409 3.82591 8.8608 3.75 8.81689C3.67409 8.8608 3.6108 8.92409 3.56689 9C3.6108 9.07591 3.67409 9.1392 3.75 9.18311Z" fill="currentColor"/><path d="M6.25 8.75C6.25 8.61193 6.36193 8.5 6.5 8.5H7C7.13807 8.5 7.25 8.61193 7.25 8.75V9.25C7.25 9.38807 7.13807 9.5 7 9.5H6.5C6.36193 9.5 6.25 9.38807 6.25 9.25V8.75Z" fill="currentColor"/><path fill-rule="evenodd" clip-rule="evenodd" d="M5.5 8.75C5.5 8.19772 5.94772 7.75 6.5 7.75H7C7.55228 7.75 8 8.19772 8 8.75V9.25C8 9.80228 7.55228 10.25 7 10.25H6.5C5.94772 10.25 5.5 9.80228 5.5 9.25V8.75ZM6.75 9.18311C6.82591 9.1392 6.8892 9.07591 6.93311 9C6.8892 8.92409 6.82591 8.8608 6.75 8.81689C6.67409 8.8608 6.6108 8.92409 6.56689 9C6.6108 9.07591 6.67409 9.1392 6.75 9.18311Z" fill="currentColor"/><path d="M9.25 8.75C9.25 8.61193 9.36193 8.5 9.5 8.5H10C10.1381 8.5 10.25 8.61193 10.25 8.75V9.25C10.25 9.38807 10.1381 9.5 10 9.5H9.5C9.36193 9.5 9.25 9.38807 9.25 9.25V8.75Z" fill="currentColor"/><path fill-rule="evenodd" clip-rule="evenodd" d="M8.5 8.75C8.5 8.19772 8.94772 7.75 9.5 7.75H10C10.5523 7.75 11 8.19772 11 8.75V9.25C11 9.80228 10.5523 10.25 10 10.25H9.5C8.94772 10.25 8.5 9.80228 8.5 9.25V8.75ZM9.75 9.18311C9.82591 9.1392 9.8892 9.07591 9.93311 9C9.8892 8.92409 9.82591 8.8608 9.75 8.81689C9.67409 8.8608 9.6108 8.92409 9.56689 9C9.6108 9.07591 9.67409 9.1392 9.75 9.18311Z" fill="currentColor"/><path d="M12.25 8.75C12.25 8.61193 12.3619 8.5 12.5 8.5H13C13.1381 8.5 13.25 8.61193 13.25 8.75V9.25C13.25 9.38807 13.1381 9.5 13 9.5H12.5C12.3619 9.5 12.25 9.38807 12.25 9.25V8.75Z" fill="currentColor"/><path fill-rule="evenodd" clip-rule="evenodd" d="M11.5 8.75C11.5 8.19772 11.9477 7.75 12.5 7.75H13C13.5523 7.75 14 8.19772 14 8.75V9.25C14 9.80228 13.5523 10.25 13 10.25H12.5C11.9477 10.25 11.5 9.80228 11.5 9.25V8.75ZM12.75 9.18311C12.8259 9.1392 12.8892 9.07591 12.9331 9C12.8892 8.92409 12.8259 8.8608 12.75 8.81689C12.6741 8.8608 12.6108 8.92409 12.5669 9C12.6108 9.07591 12.6741 9.1392 12.75 9.18311Z" fill="currentColor"/><path d="M15.25 8.75C15.25 8.61193 15.3619 8.5 15.5 8.5H16C16.1381 8.5 16.25 8.61193 16.25 8.75V9.25C16.25 9.38807 16.1381 9.5 16 9.5H15.5C15.3619 9.5 15.25 9.38807 15.25 9.25V8.75Z" fill="currentColor"/><path fill-rule="evenodd" clip-rule="evenodd" d="M14.5 8.75C14.5 8.19772 14.9477 7.75 15.5 7.75H16C16.5523 7.75 17 8.19772 17 8.75V9.25C17 9.80228 16.5523 10.25 16 10.25H15.5C14.9477 10.25 14.5 9.80228 14.5 9.25V8.75ZM15.75 9.18311C15.8259 9.1392 15.8892 9.07591 15.9331 9C15.8892 8.92409 15.8259 8.8608 15.75 8.81689C15.6741 8.8608 15.6108 8.92409 15.5669 9C15.6108 9.07591 15.6741 9.1392 15.75 9.18311Z" fill="currentColor"/><path d="M4.75 11.75C4.75 11.6119 4.86193 11.5 5 11.5H5.5C5.63807 11.5 5.75 11.6119 5.75 11.75V12.25C5.75 12.3881 5.63807 12.5 5.5 12.5H5C4.86193 12.5 4.75 12.3881 4.75 12.25V11.75Z" fill="currentColor"/><path fill-rule="evenodd" clip-rule="evenodd" d="M4 11.75C4 11.1977 4.44772 10.75 5 10.75H5.5C6.05228 10.75 6.5 11.1977 6.5 11.75V12.25C6.5 12.8023 6.05228 13.25 5.5 13.25H5C4.44772 13.25 4 12.8023 4 12.25V11.75ZM5.25 12.1831C5.32591 12.1392 5.3892 12.0759 5.43311 12C5.3892 11.9241 5.32591 11.8608 5.25 11.8169C5.17409 11.8608 5.1108 11.9241 5.06689 12C5.1108 12.0759 5.17409 12.1392 5.25 12.1831Z" fill="currentColor"/><path d="M7.75 11.75C7.75 11.6119 7.86193 11.5 8 11.5H8.5C8.63807 11.5 8.75 11.6119 8.75 11.75V12.25C8.75 12.3881 8.63807 12.5 8.5 12.5H8C7.86193 12.5 7.75 12.3881 7.75 12.25V11.75Z" fill="currentColor"/><path fill-rule="evenodd" clip-rule="evenodd" d="M7 11.75C7 11.1977 7.44772 10.75 8 10.75H8.5C9.05228 10.75 9.5 11.1977 9.5 11.75V12.25C9.5 12.8023 9.05228 13.25 8.5 13.25H8C7.44772 13.25 7 12.8023 7 12.25V11.75ZM8.25 12.1831C8.32591 12.1392 8.3892 12.0759 8.43311 12C8.3892 11.9241 8.32591 11.8608 8.25 11.8169C8.17409 11.8608 8.1108 11.9241 8.06689 12C8.1108 12.0759 8.17409 12.1392 8.25 12.1831Z" fill="currentColor"/><path d="M10.75 11.75C10.75 11.6119 10.8619 11.5 11 11.5H11.5C11.6381 11.5 11.75 11.6119 11.75 11.75V12.25C11.75 12.3881 11.6381 12.5 11.5 12.5H11C10.8619 12.5 10.75 12.3881 10.75 12.25V11.75Z" fill="currentColor"/><path fill-rule="evenodd" clip-rule="evenodd" d="M10 11.75C10 11.1977 10.4477 10.75 11 10.75H11.5C12.0523 10.75 12.5 11.1977 12.5 11.75V12.25C12.5 12.8023 12.0523 13.25 11.5 13.25H11C10.4477 13.25 10 12.8023 10 12.25V11.75ZM11.25 12.1831C11.3259 12.1392 11.3892 12.0759 11.4331 12C11.3892 11.9241 11.3259 11.8608 11.25 11.8169C11.1741 11.8608 11.1108 11.9241 11.0669 12C11.1108 12.0759 11.1741 12.1392 11.25 12.1831Z" fill="currentColor"/><path d="M13.75 11.75C13.75 11.6119 13.8619 11.5 14 11.5H14.5C14.6381 11.5 14.75 11.6119 14.75 11.75V12.25C14.75 12.3881 14.6381 12.5 14.5 12.5H14C13.8619 12.5 13.75 12.3881 13.75 12.25V11.75Z" fill="currentColor"/><path fill-rule="evenodd" clip-rule="evenodd" d="M13 11.75C13 11.1977 13.4477 10.75 14 10.75H14.5C15.0523 10.75 15.5 11.1977 15.5 11.75V12.25C15.5 12.8023 15.0523 13.25 14.5 13.25H14C13.4477 13.25 13 12.8023 13 12.25V11.75ZM14.25 12.1831C14.3259 12.1392 14.3892 12.0759 14.4331 12C14.3892 11.9241 14.3259 11.8608 14.25 11.8169C14.1741 11.8608 14.1108 11.9241 14.0669 12C14.1108 12.0759 14.1741 12.1392 14.25 12.1831Z" fill="currentColor"/><path d="M6.25 14.75C6.25 14.6119 6.36193 14.5 6.5 14.5H13C13.1381 14.5 13.25 14.6119 13.25 14.75V15.25C13.25 15.3881 13.1381 15.5 13 15.5H6.5C6.36193 15.5 6.25 15.3881 6.25 15.25V14.75Z" fill="#D9D9D9"/><path fill-rule="evenodd" clip-rule="evenodd" d="M5.75 14.75C5.75 14.3358 6.08579 14 6.5 14H13C13.4142 14 13.75 14.3358 13.75 14.75V15.25C13.75 15.6642 13.4142 16 13 16H6.5C6.08579 16 5.75 15.6642 5.75 15.25V14.75Z" fill="currentColor"/><path fill-rule="evenodd" clip-rule="evenodd" d="M10.75 0.499999C11.0262 0.499999 11.25 0.723857 11.25 0.999999L11.25 2.09487C11.25 3.1336 10.7886 4.11867 9.99065 4.78365L8.0701 6.38411C7.85796 6.56089 7.54268 6.53223 7.3659 6.32009C7.18911 6.10795 7.21778 5.79267 7.42991 5.61589L9.35047 4.01543C9.92045 3.54044 10.25 2.83682 10.25 2.09487L10.25 0.999999C10.25 0.723857 10.4739 0.499999 10.75 0.499999Z" fill="currentColor"/></g><path fill-rule="evenodd" clip-rule="evenodd" d="M13 24.5C19.3513 24.5 24.5 19.3513 24.5 13C24.5 6.64873 19.3513 1.5 13 1.5C6.64873 1.5 1.5 6.64873 1.5 13C1.5 19.3513 6.64873 24.5 13 24.5ZM13 25.5C19.9036 25.5 25.5 19.9036 25.5 13C25.5 6.09644 19.9036 0.5 13 0.5C6.09644 0.5 0.5 6.09644 0.5 13C0.5 19.9036 6.09644 25.5 13 25.5Z" fill="currentColor"/></svg>