<svg width="20" height="20" viewBox="0 0 26 26" fill="none" xmlns="http://www.w3.org/2000/svg"><path opacity="0.2" d="M26 14C26 20.6274 20.6274 26 14 26C7.37258 26 2 20.6274 2 14C2 7.37258 7.37258 2 14 2C20.6274 2 26 7.37258 26 14Z" fill="currentColor"/><g transform="translate(3, 3)"><g><path fill-rule="evenodd" clip-rule="evenodd" d="M3.47416 3.4741C3.47408 3.47499 3.474 3.47588 3.47392 3.47677C3.43169 3.93356 3.38755 4.5704 3.35886 5.29226C3.30087 6.75161 3.30926 8.48547 3.50104 9.77187C3.50976 9.83036 3.54226 9.90618 3.61839 9.98232L11.3718 17.7357C11.567 17.931 11.8836 17.931 12.0789 17.7357L17.7357 12.0788C17.931 11.8836 17.931 11.567 17.7357 11.3717L9.98235 3.61836C9.90622 3.54222 9.8304 3.50972 9.77191 3.501C8.4855 3.30922 6.75166 3.30081 5.29232 3.3588C4.57045 3.38748 3.93363 3.43163 3.47683 3.47385C3.47594 3.47393 3.47505 3.47402 3.47416 3.4741ZM2.5891 2.58906C2.492 2.68123 2.10003 7.15612 2.51197 9.91932C2.55577 10.2131 2.70123 10.4794 2.91129 10.6894L10.6647 18.4428C11.2505 19.0286 12.2002 19.0286 12.786 18.4428L18.4428 12.786C19.0286 12.2002 19.0286 11.2504 18.4428 10.6646L10.6895 2.91125C10.4794 2.7012 10.2132 2.55573 9.91935 2.51193C7.15616 2.09999 2.68132 2.4919 2.5891 2.58906Z" fill="currentColor"/><path fill-rule="evenodd" clip-rule="evenodd" d="M7.57624 7.6611C7.38098 7.85636 7.38098 8.17294 7.57624 8.3682C7.7715 8.56346 8.08808 8.56346 8.28335 8.3682C8.47861 8.17294 8.47861 7.85636 8.28335 7.6611C8.08808 7.46583 7.7715 7.46583 7.57624 7.6611ZM6.86913 9.07531C6.28335 8.48952 6.28335 7.53977 6.86913 6.95399C7.45492 6.3682 8.40467 6.3682 8.99045 6.95399C9.57624 7.53977 9.57624 8.48952 8.99045 9.07531C8.40467 9.6611 7.45492 9.66109 6.86913 9.07531Z" fill="currentColor"/></g></g><path fill-rule="evenodd" clip-rule="evenodd" d="M13 24.5C19.3513 24.5 24.5 19.3513 24.5 13C24.5 6.64873 19.3513 1.5 13 1.5C6.64873 1.5 1.5 6.64873 1.5 13C1.5 19.3513 6.64873 24.5 13 24.5ZM13 25.5C19.9036 25.5 25.5 19.9036 25.5 13C25.5 6.09644 19.9036 0.5 13 0.5C6.09644 0.5 0.5 6.09644 0.5 13C0.5 19.9036 6.09644 25.5 13 25.5Z" fill="currentColor"/></svg>