<svg width="20" height="20" viewBox="0 0 20 20" fill="none" xmlns="http://www.w3.org/2000/svg"><g><g opacity="0.2"><path d="M4.13879 12.5707C3.90587 12.3378 3.75279 12.035 3.72768 11.7066C3.52248 9.02333 4.18686 4.69588 4.28699 4.60022C4.38271 4.50003 8.7101 3.8357 11.3933 4.04091C11.7218 4.06603 12.0245 4.2191 12.2574 4.45203L19.182 11.3766C19.7678 11.9624 19.7678 12.9121 19.182 13.4979L13.1847 19.4952C12.5989 20.081 11.6491 20.081 11.0634 19.4952L4.13879 12.5707Z" fill="currentColor"/><path fill-rule="evenodd" clip-rule="evenodd" d="M6.01085 6.32405C5.96778 6.64273 5.92325 7.00566 5.88148 7.39589C5.74208 8.69845 5.64736 10.1802 5.70625 11.3097L12.124 17.7275L17.4142 12.4372L10.9965 6.01948C9.86696 5.96059 8.38522 6.05529 7.08267 6.19469C6.69245 6.23645 6.32952 6.28098 6.01085 6.32405ZM4.28699 4.60022C4.18686 4.69588 3.52248 9.02333 3.72768 11.7066C3.75279 12.035 3.90587 12.3378 4.13879 12.5707L11.0634 19.4952C11.6491 20.081 12.5989 20.081 13.1847 19.4952L19.182 13.4979C19.7678 12.9121 19.7678 11.9624 19.182 11.3766L12.2574 4.45203C12.0245 4.2191 11.7218 4.06603 11.3933 4.04091C8.7101 3.8357 4.38271 4.50003 4.28699 4.60022Z" fill="currentColor"/></g><path fill-rule="evenodd" clip-rule="evenodd" d="M3.47416 3.4741C3.47408 3.47499 3.474 3.47588 3.47392 3.47677C3.43169 3.93356 3.38755 4.5704 3.35886 5.29226C3.30087 6.75161 3.30926 8.48547 3.50104 9.77187C3.50976 9.83036 3.54226 9.90618 3.61839 9.98232L11.3718 17.7357C11.567 17.931 11.8836 17.931 12.0789 17.7357L17.7357 12.0788C17.931 11.8836 17.931 11.567 17.7357 11.3717L9.98235 3.61836C9.90622 3.54222 9.8304 3.50972 9.77191 3.501C8.4855 3.30922 6.75166 3.30081 5.29232 3.3588C4.57045 3.38748 3.93363 3.43163 3.47683 3.47385C3.47594 3.47393 3.47505 3.47402 3.47416 3.4741ZM2.5891 2.58906C2.492 2.68123 2.10003 7.15612 2.51197 9.91932C2.55577 10.2131 2.70123 10.4794 2.91129 10.6894L10.6647 18.4428C11.2505 19.0286 12.2002 19.0286 12.786 18.4428L18.4428 12.786C19.0286 12.2002 19.0286 11.2504 18.4428 10.6646L10.6895 2.91125C10.4794 2.7012 10.2132 2.55573 9.91935 2.51193C7.15616 2.09999 2.68132 2.4919 2.5891 2.58906Z" fill="currentColor"/><path fill-rule="evenodd" clip-rule="evenodd" d="M7.57624 7.6611C7.38098 7.85636 7.38098 8.17294 7.57624 8.3682C7.7715 8.56346 8.08808 8.56346 8.28335 8.3682C8.47861 8.17294 8.47861 7.85636 8.28335 7.6611C8.08808 7.46583 7.7715 7.46583 7.57624 7.6611ZM6.86913 9.07531C6.28335 8.48952 6.28335 7.53977 6.86913 6.95399C7.45492 6.3682 8.40467 6.3682 8.99045 6.95399C9.57624 7.53977 9.57624 8.48952 8.99045 9.07531C8.40467 9.6611 7.45492 9.66109 6.86913 9.07531Z" fill="currentColor"/></g></svg>