<svg width="20" height="20" viewBox="0 0 20 20" fill="none" xmlns="http://www.w3.org/2000/svg"><g><g opacity="0.2"><path d="M8.44773 2.96197C12.9525 4.05858 16.6326 7.18122 17.4075 11.1514C17.8051 13.1884 17.6286 15.1471 16.5194 16.2593C14.2941 18.491 10.3167 19.0788 6.36946 15.1316C3.4323 12.1945 1.46548 5.75591 3.69081 3.52426C4.72768 2.48444 6.51044 2.49036 8.44773 2.96197Z" fill="currentColor"/><path fill-rule="evenodd" clip-rule="evenodd" d="M15.3992 13.8605C15.4981 13.2041 15.4642 12.3931 15.2896 11.4985C14.6665 8.30636 11.6551 5.66901 7.81472 4.73413C6.97742 4.5303 6.33618 4.47066 5.89149 4.50849C5.49142 4.54253 5.36945 4.63932 5.30811 4.70084C5.18508 4.82421 4.96493 5.18553 4.89878 5.95651C4.83554 6.69359 4.93154 7.61525 5.19137 8.62457C5.71878 10.6734 6.82401 12.7236 8.01382 13.9134C9.74317 15.6427 11.2291 16.1346 12.2383 16.1731C13.2265 16.2109 14.1553 15.8317 14.9021 15.0828C15.0806 14.9038 15.2981 14.5318 15.3992 13.8605ZM17.4075 11.1514C16.6326 7.18122 12.9525 4.05858 8.44773 2.96197C6.51044 2.49036 4.72768 2.48444 3.69081 3.52426C1.46548 5.75591 3.4323 12.1945 6.36946 15.1316C10.3167 19.0788 14.2941 18.491 16.5194 16.2593C17.6286 15.1471 17.8051 13.1884 17.4075 11.1514Z" fill="currentColor"/><path fill-rule="evenodd" clip-rule="evenodd" d="M12.1907 7.45973C12.776 7.54572 13.1689 8.02071 13.0682 8.52064L12.5964 10.8632L14.8793 13.477L16.4151 15.5247L18.429 18.5455C18.7228 18.9863 18.5427 19.5471 18.0266 19.7982C17.5105 20.0492 16.8539 19.8953 16.56 19.4545L14.5739 16.4753L13.3507 14.8444L9.58856 14.3477C9.00164 14.2702 8.59939 13.8009 8.69012 13.2996C8.78085 12.7983 9.3302 12.4547 9.91712 12.5322L11.5605 12.7492L10.6424 11.6981L6.74946 8.36126C6.33025 8.00193 6.33144 7.42037 6.75213 7.06231C7.17281 6.70424 7.85368 6.70526 8.27289 7.06458L10.7513 9.18896L10.9486 8.20924C11.0493 7.70931 11.6054 7.37374 12.1907 7.45973Z" fill="currentColor"/></g><path fill-rule="evenodd" clip-rule="evenodd" d="M2.624 7.95368C3.19136 10.1577 4.38717 12.4282 5.78605 13.8271C7.69859 15.7396 9.55595 16.4924 11.1327 16.5527C12.7042 16.6127 14.0994 15.9893 15.1206 14.9652C15.5812 14.5033 15.8766 13.8346 16.0017 13.0042C16.1262 12.1777 16.0763 11.2257 15.8835 10.2382C15.1465 6.46252 11.6336 3.4612 7.29498 2.40502C5.37084 1.93661 3.90285 2.01392 3.10063 2.81841C2.65263 3.26769 2.37685 3.97365 2.29832 4.8889C2.22052 5.79567 2.34128 6.85545 2.624 7.95368ZM1.22768 4.84382C1.31446 3.8324 1.62733 2.89667 2.29198 2.23012C3.56352 0.954972 5.66105 1.04413 7.61149 1.51893C12.2823 2.65598 16.1296 5.89995 16.9424 10.0646C17.1473 11.1141 17.2079 12.16 17.0663 13.1001C16.9253 14.0364 16.5778 14.9031 15.9293 15.5535C14.7251 16.761 13.019 17.5473 11.0586 17.4724C9.10351 17.3977 6.99854 16.4708 4.96387 14.4362C3.4256 12.8979 2.16941 10.4805 1.57541 8.17308C1.27744 7.01557 1.14018 5.86371 1.22768 4.84382Z" fill="currentColor"/><path fill-rule="evenodd" clip-rule="evenodd" d="M11.105 6.91237C11.3977 6.95536 11.5941 7.19285 11.5438 7.44282L11.0329 9.97975L13.4424 12.7385L14.9603 14.7624L16.9672 17.7728C17.1141 17.9932 17.0241 18.2736 16.766 18.3991C16.508 18.5246 16.1797 18.4477 16.0327 18.2273L14.0397 15.2377L12.6781 13.4222L8.67617 12.8938C8.3827 12.8551 8.18158 12.6205 8.22695 12.3698C8.27231 12.1191 8.54699 11.9474 8.84045 11.9861L11.7829 12.3746L10.0559 10.3972L6.13578 7.03712C5.92618 6.85746 5.92677 6.56668 6.13711 6.38764C6.34745 6.20861 6.68789 6.20912 6.89749 6.38878L10.1103 9.14263L10.484 7.28712C10.5343 7.03715 10.8124 6.86937 11.105 6.91237Z" fill="currentColor"/></g><defs><clipPath id="clip0_2608_819"><rect width="20" height="20" fill="white" transform="matrix(0 1 -1 0 20 0)"/></clipPath></defs><path d="M1.15063 1.87794C0.94979 1.6771 0.94979 1.35147 1.15063 1.15063C1.35147 0.949789 1.6771 0.949789 1.87794 1.15063L18.8494 18.1221C19.0502 18.3229 19.0502 18.6485 18.8494 18.8494C18.6485 19.0502 18.3229 19.0502 18.1221 18.8494L1.15063 1.87794Z" fill="currentColor"/></svg>