<svg width="20" height="20" viewBox="0 0 20 20" fill="none" xmlns="http://www.w3.org/2000/svg">
<g opacity="0.8">
<path d="M5.53 6.3125C5.25 6.3125 5.03 6.5325 5.03 6.8125V8.3625L4.61 8.6825C4.23 8.9725 4 9.4325 4 9.9125V18.9325C4 19.0625 4.05 19.1925 4.14 19.2725C4.24 19.3725 4.37 19.4325 4.5 19.4325H19.43C19.57 19.4325 19.69 19.3825 19.78 19.2925C19.88 19.1925 19.93 19.0625 19.93 18.9325V9.9025C19.93 9.4325 19.7 8.9725 19.32 8.6825L18.9 8.3525V6.8025C18.9 6.6825 18.84 6.5525 18.74 6.4425C18.66 6.3525 18.53 6.3025 18.4 6.3025H16.2L12.88 3.7925C12.37 3.4025 11.57 3.4025 11.05 3.7925L7.73 6.3125H5.53Z" fill="currentColor"/>
</g>
<path d="M3.53 4.8125C3.25 4.8125 3.03 5.0325 3.03 5.3125V6.8625L2.61 7.1825C2.23 7.4725 2 7.9325 2 8.4125V17.4325C2 17.5625 2.05 17.6925 2.14 17.7725C2.24 17.8725 2.37 17.9325 2.5 17.9325H17.43C17.57 17.9325 17.69 17.8825 17.78 17.7925C17.88 17.6925 17.93 17.5625 17.93 17.4325V8.4025C17.93 7.9325 17.7 7.4725 17.32 7.1825L16.9 6.8525V5.3025C16.9 5.1825 16.84 5.0525 16.74 4.9425C16.66 4.8525 16.53 4.8025 16.4 4.8025H14.2L10.88 2.2925C10.37 1.9025 9.57 1.9025 9.05 2.2925L5.73 4.8125H3.53ZM16.94 16.9325H3V10.4425L9.06 15.0525C9.58 15.4425 10.37 15.4425 10.89 15.0525L16.94 10.4425V16.9325V16.9325ZM9.97 14.3525C9.86 14.3525 9.75 14.3225 9.65 14.2525L4.03 9.9725V5.8125H15.91V9.9725L10.29 14.2425C10.21 14.3125 10.09 14.3525 9.98 14.3525H9.97ZM12.54 4.8125H7.39L9.64 3.0825C9.81 2.9425 10.08 2.9325 10.27 3.0825L12.53 4.8125H12.54Z" fill="black"/>
<path d="M13.34 8.05238H6.59003C6.36003 8.05238 6.16003 7.86238 6.16003 7.62238C6.16003 7.38238 6.35003 7.19238 6.59003 7.19238H13.34C13.57 7.19238 13.77 7.38238 13.77 7.62238C13.77 7.86238 13.58 8.05238 13.34 8.05238Z" fill="black"/>
<path d="M11.62 11.4924H8.31C8.08 11.4924 7.88 11.3024 7.88 11.0624C7.88 10.8224 8.07 10.6324 8.31 10.6324H11.62C11.85 10.6324 12.05 10.8224 12.05 11.0624C12.05 11.3024 11.86 11.4924 11.62 11.4924Z" fill="black"/>
<path d="M13.34 9.77248H6.59003C6.36003 9.77248 6.16003 9.58248 6.16003 9.34248C6.16003 9.10248 6.35003 8.91248 6.59003 8.91248H13.34C13.57 8.91248 13.77 9.10248 13.77 9.34248C13.77 9.58248 13.58 9.77248 13.34 9.77248Z" fill="black"/>
</svg>
