<svg width="20" height="20" viewBox="0 0 20 20" fill="none" xmlns="http://www.w3.org/2000/svg"><g opacity="0.2"><path fill-rule="evenodd" clip-rule="evenodd" d="M10.9453 3.16795C11.2812 2.94402 11.7188 2.94402 12.0547 3.16795L16.3028 6H18C18.5523 6 19 6.44772 19 7V9C19.5523 9 20 9.44772 20 10V19C20 19.5523 19.5523 20 19 20H4C3.44772 20 3 19.5523 3 19V10C3 9.44772 3.44772 9 4 9V7C4 6.44772 4.44772 6 5 6H6.69722L10.9453 3.16795Z" fill="currentColor"/></g><path fill-rule="evenodd" clip-rule="evenodd" d="M2.5 8C2.77614 8 3 8.22386 3 8.5V17H17V8.5C17 8.22386 17.2239 8 17.5 8C17.7761 8 18 8.22386 18 8.5V17.5C18 17.7761 17.7761 18 17.5 18H2.5C2.22386 18 2 17.7761 2 17.5V8.5C2 8.22386 2.22386 8 2.5 8Z" fill="currentColor"/><path fill-rule="evenodd" clip-rule="evenodd" d="M3 5.5C3 5.22386 3.22386 5 3.5 5H16.5C16.7761 5 17 5.22386 17 5.5V10.17C17 10.3372 16.9164 10.4934 16.7772 10.5861L10.2772 14.9161C10.1093 15.028 9.89068 15.028 9.7228 14.9161L3.2228 10.5861C3.08361 10.4934 3 10.3372 3 10.17V5.5ZM4 6V9.90229L10 13.8992L16 9.90229V6H4Z" fill="currentColor"/><path fill-rule="evenodd" clip-rule="evenodd" d="M9.72266 2.08397C9.89061 1.97201 10.1094 1.97201 10.2774 2.08397L14.7774 5.08397L14.2227 5.91603L10 3.10093L5.77736 5.91603L5.22266 5.08397L9.72266 2.08397Z" fill="currentColor"/><path fill-rule="evenodd" clip-rule="evenodd" d="M16.8535 7.14642L17.8535 8.14642L17.1464 8.85353L16.1464 7.85353L16.8535 7.14642Z" fill="currentColor"/><path fill-rule="evenodd" clip-rule="evenodd" d="M3.85353 7.85353L2.85353 8.85353L2.14642 8.14642L3.14642 7.14642L3.85353 7.85353Z" fill="currentColor"/><path fill-rule="evenodd" clip-rule="evenodd" d="M6.75 8C6.75 7.86193 6.86193 7.75 7 7.75H13C13.1381 7.75 13.25 7.86193 13.25 8C13.25 8.13807 13.1381 8.25 13 8.25H7C6.86193 8.25 6.75 8.13807 6.75 8Z" fill="currentColor"/><path fill-rule="evenodd" clip-rule="evenodd" d="M7.25 10C7.25 9.86193 7.36193 9.75 7.5 9.75H12.5C12.6381 9.75 12.75 9.86193 12.75 10C12.75 10.1381 12.6381 10.25 12.5 10.25H7.5C7.36193 10.25 7.25 10.1381 7.25 10Z" fill="currentColor"/></svg>