<svg width="20" height="20" viewBox="0 0 20 20" fill="none" xmlns="http://www.w3.org/2000/svg"><rect opacity="0.2" x="4.5" y="5.5" width="15" height="12" rx="1.5" fill="currentColor"/><path fill-rule="evenodd" clip-rule="evenodd" d="M17 4H3C2.72386 4 2.5 4.22386 2.5 4.5V15.5C2.5 15.7761 2.72386 16 3 16H17C17.2761 16 17.5 15.7761 17.5 15.5V4.5C17.5 4.22386 17.2761 4 17 4ZM3.5 15V5H16.5V15H3.5Z" fill="currentColor"/><path fill-rule="evenodd" clip-rule="evenodd" d="M17.3242 4.88066L10.2792 10.8807C10.0914 11.0406 9.81512 11.0397 9.62838 10.8786L2.6734 4.87859C2.32251 4.57588 2.53659 4 3 4H17C17.465 4 17.6782 4.57917 17.3242 4.88066ZM15.6418 5H4.34504L9.95708 9.84146L15.6418 5Z" fill="currentColor"/><path d="M1.15063 1.87794C0.94979 1.6771 0.94979 1.35147 1.15063 1.15063C1.35147 0.949789 1.6771 0.949789 1.87794 1.15063L18.8494 18.1221C19.0502 18.3229 19.0502 18.6485 18.8494 18.8494C18.6485 19.0502 18.3229 19.0502 18.1221 18.8494L1.15063 1.87794Z" fill="currentColor"/></svg>