<svg width="20" height="20" viewBox="0 0 26 26" fill="none" xmlns="http://www.w3.org/2000/svg"><path opacity="0.2" d="M26 14C26 20.6274 20.6274 26 14 26C7.37258 26 2 20.6274 2 14C2 7.37258 7.37258 2 14 2C20.6274 2 26 7.37258 26 14Z" fill="currentColor"/><g transform="translate(3, 3)"><path fill-rule="evenodd" clip-rule="evenodd" d="M17 4H3C2.72386 4 2.5 4.22386 2.5 4.5V15.5C2.5 15.7761 2.72386 16 3 16H17C17.2761 16 17.5 15.7761 17.5 15.5V4.5C17.5 4.22386 17.2761 4 17 4ZM3.5 15V5H16.5V15H3.5Z" fill="currentColor"/><path fill-rule="evenodd" clip-rule="evenodd" d="M17.3242 4.88066L10.2792 10.8807C10.0914 11.0406 9.81512 11.0397 9.62838 10.8786L2.6734 4.87859C2.32251 4.57588 2.53659 4 3 4H17C17.465 4 17.6782 4.57917 17.3242 4.88066ZM15.6418 5H4.34504L9.95708 9.84146L15.6418 5Z" fill="currentColor"/></g><path fill-rule="evenodd" clip-rule="evenodd" d="M13 24.5C19.3513 24.5 24.5 19.3513 24.5 13C24.5 6.64873 19.3513 1.5 13 1.5C6.64873 1.5 1.5 6.64873 1.5 13C1.5 19.3513 6.64873 24.5 13 24.5ZM13 25.5C19.9036 25.5 25.5 19.9036 25.5 13C25.5 6.09644 19.9036 0.5 13 0.5C6.09644 0.5 0.5 6.09644 0.5 13C0.5 19.9036 6.09644 25.5 13 25.5Z" fill="currentColor"/></svg>