<svg width="20" height="20" viewBox="0 0 26 26" fill="none" xmlns="http://www.w3.org/2000/svg"><path opacity="0.2" fill-rule="evenodd" clip-rule="evenodd" d="M13.5 26C20.4036 26 26 20.4036 26 13.5C26 6.59644 20.4036 1 13.5 1C6.59644 1 1 6.59644 1 13.5C1 20.4036 6.59644 26 13.5 26ZM13.5 24C19.299 24 24 19.299 24 13.5C24 7.70101 19.299 3 13.5 3C7.70101 3 3 7.70101 3 13.5C3 19.299 7.70101 24 13.5 24Z" fill="currentColor"/><g transform="translate(3, 3)"><g><path opacity="0.2" fill-rule="evenodd" clip-rule="evenodd" d="M1.60047 1.60052C2.18626 1.01473 3.13601 1.01473 3.72179 1.60052L19.2781 17.1569C19.8639 17.7427 19.8639 18.6924 19.2781 19.2782C18.6924 19.864 17.7426 19.864 17.1568 19.2782L1.60047 3.72184C1.01469 3.13605 1.01469 2.1863 1.60047 1.60052Z" fill="currentColor"/><path fill-rule="evenodd" clip-rule="evenodd" d="M0.454003 0.454017C0.649265 0.258755 0.965847 0.258755 1.16111 0.454017L19.5459 18.8388C19.7411 19.0341 19.7411 19.3506 19.5459 19.5459C19.3506 19.7412 19.034 19.7412 18.8388 19.5459L0.454003 1.16112C0.258741 0.965862 0.258741 0.649279 0.454003 0.454017Z" fill="currentColor"/></g><path d="M1.15063 1.87794C0.94979 1.6771 0.94979 1.35147 1.15063 1.15063C1.35147 0.949789 1.6771 0.949789 1.87794 1.15063L18.8494 18.1221C19.0502 18.3229 19.0502 18.6485 18.8494 18.8494C18.6485 19.0502 18.3229 19.0502 18.1221 18.8494L1.15063 1.87794Z" fill="currentColor"/></g><path fill-rule="evenodd" clip-rule="evenodd" d="M13 24.5C19.3513 24.5 24.5 19.3513 24.5 13C24.5 6.64873 19.3513 1.5 13 1.5C6.64873 1.5 1.5 6.64873 1.5 13C1.5 19.3513 6.64873 24.5 13 24.5ZM13 25.5C19.9036 25.5 25.5 19.9036 25.5 13C25.5 6.09644 19.9036 0.5 13 0.5C6.09644 0.5 0.5 6.09644 0.5 13C0.5 19.9036 6.09644 25.5 13 25.5Z" fill="currentColor"/></svg>