<svg width="20" height="20" viewBox="0 0 20 20" fill="none" xmlns="http://www.w3.org/2000/svg"><path opacity="0.2" fill-rule="evenodd" clip-rule="evenodd" d="M1.5 11C1.5 10.1716 2.17157 9.5 3 9.5H18C18.8284 9.5 19.5 10.1716 19.5 11C19.5 11.8284 18.8284 12.5 18 12.5H3C2.17157 12.5 1.5 11.8284 1.5 11Z" fill="currentColor"/><path fill-rule="evenodd" clip-rule="evenodd" d="M0.5 10C0.5 9.72386 0.723858 9.5 1 9.5H19C19.2761 9.5 19.5 9.72386 19.5 10C19.5 10.2761 19.2761 10.5 19 10.5H1C0.723858 10.5 0.5 10.2761 0.5 10Z" fill="currentColor"/><path d="M1.15063 1.87794C0.94979 1.6771 0.94979 1.35147 1.15063 1.15063C1.35147 0.949789 1.6771 0.949789 1.87794 1.15063L18.8494 18.1221C19.0502 18.3229 19.0502 18.6485 18.8494 18.8494C18.6485 19.0502 18.3229 19.0502 18.1221 18.8494L1.15063 1.87794Z" fill="currentColor"/></svg>