<svg width="20" height="20" viewBox="0 0 20 20" fill="none" xmlns="http://www.w3.org/2000/svg"><g><path opacity="0.2" fill-rule="evenodd" clip-rule="evenodd" d="M1.60052 19.2781C1.01473 18.6923 1.01473 17.7426 1.60052 17.1568L17.1569 1.60046C17.7427 1.01467 18.6924 1.01467 19.2782 1.60046C19.864 2.18625 19.864 3.13599 19.2782 3.72178L3.72184 19.2781C3.13605 19.8639 2.1863 19.8639 1.60052 19.2781Z" fill="currentColor"/><path fill-rule="evenodd" clip-rule="evenodd" d="M0.454017 19.5459C0.258755 19.3506 0.258755 19.034 0.454017 18.8388L18.8388 0.453992C19.0341 0.25873 19.3506 0.25873 19.5459 0.453992C19.7412 0.649255 19.7412 0.965837 19.5459 1.1611L1.16112 19.5459C0.965862 19.7411 0.649279 19.7411 0.454017 19.5459Z" fill="currentColor"/></g><path d="M1.15063 1.87794C0.94979 1.6771 0.94979 1.35147 1.15063 1.15063C1.35147 0.949789 1.6771 0.949789 1.87794 1.15063L18.8494 18.1221C19.0502 18.3229 19.0502 18.6485 18.8494 18.8494C18.6485 19.0502 18.3229 19.0502 18.1221 18.8494L1.15063 1.87794Z" fill="currentColor"/></svg>