<svg width="20" height="20" viewBox="0 0 26 26" fill="none" xmlns="http://www.w3.org/2000/svg"><path opacity="0.2" fill-rule="evenodd" clip-rule="evenodd" d="M13.5 26C20.4036 26 26 20.4036 26 13.5C26 6.59644 20.4036 1 13.5 1C6.59644 1 1 6.59644 1 13.5C1 20.4036 6.59644 26 13.5 26ZM13.5 24C19.299 24 24 19.299 24 13.5C24 7.70101 19.299 3 13.5 3C7.70101 3 3 7.70101 3 13.5C3 19.299 7.70101 24 13.5 24Z" fill="currentColor"/><g transform="translate(3, 3)"><path opacity="0.2" fill-rule="evenodd" clip-rule="evenodd" d="M11 1.5C10.1716 1.5 9.5 2.17157 9.5 3L9.5 18C9.5 18.8284 10.1716 19.5 11 19.5C11.8284 19.5 12.5 18.8284 12.5 18L12.5 3C12.5 2.17157 11.8284 1.5 11 1.5Z" fill="currentColor"/><path fill-rule="evenodd" clip-rule="evenodd" d="M10 0.5C9.72386 0.5 9.5 0.723858 9.5 1L9.5 19C9.5 19.2761 9.72386 19.5 10 19.5C10.2761 19.5 10.5 19.2761 10.5 19L10.5 1C10.5 0.723858 10.2761 0.5 10 0.5Z" fill="currentColor"/></g><path fill-rule="evenodd" clip-rule="evenodd" d="M13 24.5C19.3513 24.5 24.5 19.3513 24.5 13C24.5 6.64873 19.3513 1.5 13 1.5C6.64873 1.5 1.5 6.64873 1.5 13C1.5 19.3513 6.64873 24.5 13 24.5ZM13 25.5C19.9036 25.5 25.5 19.9036 25.5 13C25.5 6.09644 19.9036 0.5 13 0.5C6.09644 0.5 0.5 6.09644 0.5 13C0.5 19.9036 6.09644 25.5 13 25.5Z" fill="currentColor"/></svg>