<svg width="20" height="20" viewBox="0 0 26 26" fill="none" xmlns="http://www.w3.org/2000/svg"><path opacity="0.2" fill-rule="evenodd" clip-rule="evenodd" d="M13.5 26C20.4036 26 26 20.4036 26 13.5C26 6.59644 20.4036 1 13.5 1C6.59644 1 1 6.59644 1 13.5C1 20.4036 6.59644 26 13.5 26ZM13.5 24C19.299 24 24 19.299 24 13.5C24 7.70101 19.299 3 13.5 3C7.70101 3 3 7.70101 3 13.5C3 19.299 7.70101 24 13.5 24Z" fill="currentColor"/><g transform="translate(3, 3)"><g><path opacity="0.2" fill-rule="evenodd" clip-rule="evenodd" d="M1.60052 19.2781C1.01473 18.6923 1.01473 17.7426 1.60052 17.1568L17.1569 1.60046C17.7427 1.01467 18.6924 1.01467 19.2782 1.60046C19.864 2.18625 19.864 3.13599 19.2782 3.72178L3.72184 19.2781C3.13605 19.8639 2.1863 19.8639 1.60052 19.2781Z" fill="currentColor"/><path fill-rule="evenodd" clip-rule="evenodd" d="M0.454017 19.5459C0.258755 19.3506 0.258755 19.034 0.454017 18.8388L18.8388 0.453992C19.0341 0.25873 19.3506 0.25873 19.5459 0.453992C19.7412 0.649255 19.7412 0.965837 19.5459 1.1611L1.16112 19.5459C0.965862 19.7411 0.649279 19.7411 0.454017 19.5459Z" fill="currentColor"/></g></g><path fill-rule="evenodd" clip-rule="evenodd" d="M13 24.5C19.3513 24.5 24.5 19.3513 24.5 13C24.5 6.64873 19.3513 1.5 13 1.5C6.64873 1.5 1.5 6.64873 1.5 13C1.5 19.3513 6.64873 24.5 13 24.5ZM13 25.5C19.9036 25.5 25.5 19.9036 25.5 13C25.5 6.09644 19.9036 0.5 13 0.5C6.09644 0.5 0.5 6.09644 0.5 13C0.5 19.9036 6.09644 25.5 13 25.5Z" fill="currentColor"/></svg>