<svg width="20" height="20" viewBox="0 0 20 20" fill="none" xmlns="http://www.w3.org/2000/svg"><g><path opacity="0.2" fill-rule="evenodd" clip-rule="evenodd" d="M1.60047 1.60052C2.18626 1.01473 3.13601 1.01473 3.72179 1.60052L19.2781 17.1569C19.8639 17.7427 19.8639 18.6924 19.2781 19.2782C18.6924 19.864 17.7426 19.864 17.1568 19.2782L1.60047 3.72184C1.01469 3.13605 1.01469 2.1863 1.60047 1.60052Z" fill="currentColor"/><path fill-rule="evenodd" clip-rule="evenodd" d="M0.454003 0.454017C0.649265 0.258755 0.965847 0.258755 1.16111 0.454017L19.5459 18.8388C19.7411 19.0341 19.7411 19.3506 19.5459 19.5459C19.3506 19.7412 19.034 19.7412 18.8388 19.5459L0.454003 1.16112C0.258741 0.965862 0.258741 0.649279 0.454003 0.454017Z" fill="currentColor"/></g></svg>