<svg width="20" height="20" viewBox="0 0 26 26" fill="none" xmlns="http://www.w3.org/2000/svg"><path opacity="0.2" fill-rule="evenodd" clip-rule="evenodd" d="M13.5 26C20.4036 26 26 20.4036 26 13.5C26 6.59644 20.4036 1 13.5 1C6.59644 1 1 6.59644 1 13.5C1 20.4036 6.59644 26 13.5 26ZM13.5 24C19.299 24 24 19.299 24 13.5C24 7.70101 19.299 3 13.5 3C7.70101 3 3 7.70101 3 13.5C3 19.299 7.70101 24 13.5 24Z" fill="currentColor"/><g transform="translate(3, 3)"><g opacity="0.2"><path d="M7.5 7.25C7.5 8.07843 6.82843 8.75 6 8.75C5.17157 8.75 4.5 8.07843 4.5 7.25C4.5 6.42157 5.17157 5.75 6 5.75C6.82843 5.75 7.5 6.42157 7.5 7.25Z" fill="currentColor"/><path d="M7.5 11.25C7.5 12.0784 6.82843 12.75 6 12.75C5.17157 12.75 4.5 12.0784 4.5 11.25C4.5 10.4216 5.17157 9.75 6 9.75C6.82843 9.75 7.5 10.4216 7.5 11.25Z" fill="currentColor"/><path d="M7.5 15.25C7.5 16.0784 6.82843 16.75 6 16.75C5.17157 16.75 4.5 16.0784 4.5 15.25C4.5 14.4216 5.17157 13.75 6 13.75C6.82843 13.75 7.5 14.4216 7.5 15.25Z" fill="currentColor"/><path fill-rule="evenodd" clip-rule="evenodd" d="M8.5 7.25C8.5 6.69772 8.94772 6.25 9.5 6.25H16.5C17.0523 6.25 17.5 6.69772 17.5 7.25C17.5 7.80228 17.0523 8.25 16.5 8.25H9.5C8.94772 8.25 8.5 7.80228 8.5 7.25Z" fill="currentColor"/><path fill-rule="evenodd" clip-rule="evenodd" d="M8.5 11.25C8.5 10.6977 8.94772 10.25 9.5 10.25H16.5C17.0523 10.25 17.5 10.6977 17.5 11.25C17.5 11.8023 17.0523 12.25 16.5 12.25H9.5C8.94772 12.25 8.5 11.8023 8.5 11.25Z" fill="currentColor"/><path fill-rule="evenodd" clip-rule="evenodd" d="M8.5 15.25C8.5 14.6977 8.94772 14.25 9.5 14.25H16.5C17.0523 14.25 17.5 14.6977 17.5 15.25C17.5 15.8023 17.0523 16.25 16.5 16.25H9.5C8.94772 16.25 8.5 15.8023 8.5 15.25Z" fill="currentColor"/></g><path d="M6.5 6C6.5 6.82843 5.82843 7.5 5 7.5C4.17157 7.5 3.5 6.82843 3.5 6C3.5 5.17157 4.17157 4.5 5 4.5C5.82843 4.5 6.5 5.17157 6.5 6Z" fill="currentColor"/><path d="M6.5 10C6.5 10.8284 5.82843 11.5 5 11.5C4.17157 11.5 3.5 10.8284 3.5 10C3.5 9.17157 4.17157 8.5 5 8.5C5.82843 8.5 6.5 9.17157 6.5 10Z" fill="currentColor"/><path d="M6.5 14C6.5 14.8284 5.82843 15.5 5 15.5C4.17157 15.5 3.5 14.8284 3.5 14C3.5 13.1716 4.17157 12.5 5 12.5C5.82843 12.5 6.5 13.1716 6.5 14Z" fill="currentColor"/><path fill-rule="evenodd" clip-rule="evenodd" d="M7.5 6.5C7.5 6.22386 7.72386 6 8 6H16C16.2761 6 16.5 6.22386 16.5 6.5C16.5 6.77614 16.2761 7 16 7H8C7.72386 7 7.5 6.77614 7.5 6.5Z" fill="currentColor"/><path fill-rule="evenodd" clip-rule="evenodd" d="M7.5 10.5C7.5 10.2239 7.72386 10 8 10H16C16.2761 10 16.5 10.2239 16.5 10.5C16.5 10.7761 16.2761 11 16 11H8C7.72386 11 7.5 10.7761 7.5 10.5Z" fill="currentColor"/><path fill-rule="evenodd" clip-rule="evenodd" d="M7.5 14.5C7.5 14.2239 7.72386 14 8 14H16C16.2761 14 16.5 14.2239 16.5 14.5C16.5 14.7761 16.2761 15 16 15H8C7.72386 15 7.5 14.7761 7.5 14.5Z" fill="currentColor"/><path d="M1.15063 1.87794C0.94979 1.6771 0.94979 1.35147 1.15063 1.15063C1.35147 0.949789 1.6771 0.949789 1.87794 1.15063L18.8494 18.1221C19.0502 18.3229 19.0502 18.6485 18.8494 18.8494C18.6485 19.0502 18.3229 19.0502 18.1221 18.8494L1.15063 1.87794Z" fill="currentColor"/></g><path fill-rule="evenodd" clip-rule="evenodd" d="M13 24.5C19.3513 24.5 24.5 19.3513 24.5 13C24.5 6.64873 19.3513 1.5 13 1.5C6.64873 1.5 1.5 6.64873 1.5 13C1.5 19.3513 6.64873 24.5 13 24.5ZM13 25.5C19.9036 25.5 25.5 19.9036 25.5 13C25.5 6.09644 19.9036 0.5 13 0.5C6.09644 0.5 0.5 6.09644 0.5 13C0.5 19.9036 6.09644 25.5 13 25.5Z" fill="currentColor"/></svg>