<svg xmlns="http://www.w3.org/2000/svg" width="20" height="20" viewBox="0 0 20 20"><g fill="none" fill-rule="evenodd"><path fill="currentColor" stroke="currentColor" stroke-linecap="round" stroke-linejoin="round" d="M12.5 19C15 19 19 12.281 19 8.623 19 4.965 16.09 2 12.5 2S6 4.965 6 8.623C6 12.281 10 19 12.5 19z"/><path stroke="#000" stroke-linecap="round" stroke-linejoin="round" d="M2 2l16.5 16.5"/><circle cx="10" cy="8" r="2.5" stroke="#000" transform="rotate(-90 10 8)"/><path stroke="#000" stroke-linecap="round" stroke-linejoin="round" d="M10 18.5c2.5 0 6.5-6.719 6.5-10.377C16.5 4.465 13.59 1.5 10 1.5S3.5 4.465 3.5 8.123c0 3.658 4 10.377 6.5 10.377z"/></g></svg>