<svg width="20" height="20" viewBox="0 0 26 26" fill="none" xmlns="http://www.w3.org/2000/svg"><path opacity="0.2" fill-rule="evenodd" clip-rule="evenodd" d="M13.5 26C20.4036 26 26 20.4036 26 13.5C26 6.59644 20.4036 1 13.5 1C6.59644 1 1 6.59644 1 13.5C1 20.4036 6.59644 26 13.5 26ZM13.5 24C19.299 24 24 19.299 24 13.5C24 7.70101 19.299 3 13.5 3C7.70101 3 3 7.70101 3 13.5C3 19.299 7.70101 24 13.5 24Z" fill="currentColor"/><g transform="translate(3, 3)"><g opacity="0.2"><path fill-rule="evenodd" clip-rule="evenodd" d="M9.5 9.5H14C15.933 9.5 17.5 11.067 17.5 13V16C17.5 17.933 15.933 19.5 14 19.5H9C7.067 19.5 5.5 17.933 5.5 16V13C5.5 11.4145 6.55426 10.0752 8 9.64494V6.75C8 4.6928 9.55173 3 11.5 3C13.4483 3 15 4.6928 15 6.75V7C15 7.41421 14.6642 7.75 14.25 7.75C13.8358 7.75 13.5 7.41421 13.5 7V6.75C13.5 5.49349 12.5893 4.5 11.5 4.5C10.4107 4.5 9.5 5.49349 9.5 6.75V9.5Z" fill="currentColor"/></g><path fill-rule="evenodd" clip-rule="evenodd" d="M7.5 12.5C7.5 13.6046 8.39543 14.5 9.5 14.5C10.6046 14.5 11.5 13.6046 11.5 12.5C11.5 11.3954 10.6046 10.5 9.5 10.5C8.39543 10.5 7.5 11.3954 7.5 12.5ZM10.5 12.5C10.5 13.0523 10.0523 13.5 9.5 13.5C8.94772 13.5 8.5 13.0523 8.5 12.5C8.5 11.9477 8.94772 11.5 9.5 11.5C10.0523 11.5 10.5 11.9477 10.5 12.5Z" fill="currentColor"/><path fill-rule="evenodd" clip-rule="evenodd" d="M12 7.5H7C5.067 7.5 3.5 9.067 3.5 11V14C3.5 15.933 5.067 17.5 7 17.5H12C13.933 17.5 15.5 15.933 15.5 14V11C15.5 9.067 13.933 7.5 12 7.5ZM4.5 11C4.5 9.61929 5.61929 8.5 7 8.5H12C13.3807 8.5 14.5 9.61929 14.5 11V14C14.5 15.3807 13.3807 16.5 12 16.5H7C5.61929 16.5 4.5 15.3807 4.5 14V11Z" fill="currentColor"/><path d="M7 8C7 8.27614 6.77614 8.5 6.5 8.5C6.22386 8.5 6 8.27614 6 8V4.5C6 2.567 7.567 1 9.5 1C11.433 1 13 2.567 13 4.5V5.5C13 5.77614 12.7761 6 12.5 6C12.2239 6 12 5.77614 12 5.5V4.5C12 3.11929 10.8807 2 9.5 2C8.11929 2 7 3.11929 7 4.5V8Z" fill="currentColor"/></g><path fill-rule="evenodd" clip-rule="evenodd" d="M13 24.5C19.3513 24.5 24.5 19.3513 24.5 13C24.5 6.64873 19.3513 1.5 13 1.5C6.64873 1.5 1.5 6.64873 1.5 13C1.5 19.3513 6.64873 24.5 13 24.5ZM13 25.5C19.9036 25.5 25.5 19.9036 25.5 13C25.5 6.09644 19.9036 0.5 13 0.5C6.09644 0.5 0.5 6.09644 0.5 13C0.5 19.9036 6.09644 25.5 13 25.5Z" fill="currentColor"/></svg>