<svg width="20" height="20" viewBox="0 0 26 26" fill="none" xmlns="http://www.w3.org/2000/svg"><path opacity="0.2" d="M26 14C26 20.6274 20.6274 26 14 26C7.37258 26 2 20.6274 2 14C2 7.37258 7.37258 2 14 2C20.6274 2 26 7.37258 26 14Z" fill="currentColor"/><g transform="translate(3, 3)"><path fill-rule="evenodd" clip-rule="evenodd" d="M4.82845 4.82838C2.87583 6.781 2.87583 9.94683 4.82845 11.8994C6.78107 13.8521 9.9469 13.8521 11.8995 11.8994C13.8521 9.94683 13.8521 6.781 11.8995 4.82838C9.9469 2.87576 6.78107 2.87576 4.82845 4.82838ZM11.1924 11.1923C9.63031 12.7544 7.09765 12.7544 5.53556 11.1923C3.97346 9.63024 3.97346 7.09758 5.53556 5.53549C7.09765 3.97339 9.63031 3.97339 11.1924 5.53549C12.7545 7.09758 12.7545 9.63024 11.1924 11.1923Z" fill="currentColor"/><path d="M11.1924 12.6274C10.8019 12.2369 10.8019 11.6037 11.1924 11.2132C11.5829 10.8227 12.2161 10.8227 12.6066 11.2132L15.435 14.0416C15.8256 14.4321 15.8256 15.0653 15.435 15.4558C15.0445 15.8463 14.4114 15.8463 14.0208 15.4558L11.1924 12.6274Z" fill="currentColor"/></g><path fill-rule="evenodd" clip-rule="evenodd" d="M13 24.5C19.3513 24.5 24.5 19.3513 24.5 13C24.5 6.64873 19.3513 1.5 13 1.5C6.64873 1.5 1.5 6.64873 1.5 13C1.5 19.3513 6.64873 24.5 13 24.5ZM13 25.5C19.9036 25.5 25.5 19.9036 25.5 13C25.5 6.09644 19.9036 0.5 13 0.5C6.09644 0.5 0.5 6.09644 0.5 13C0.5 19.9036 6.09644 25.5 13 25.5Z" fill="currentColor"/></svg>