<svg width="20" height="20" viewBox="0 0 26 26" fill="none" xmlns="http://www.w3.org/2000/svg"><path opacity="0.2" fill-rule="evenodd" clip-rule="evenodd" d="M13.5 26C20.4036 26 26 20.4036 26 13.5C26 6.59644 20.4036 1 13.5 1C6.59644 1 1 6.59644 1 13.5C1 20.4036 6.59644 26 13.5 26ZM13.5 24C19.299 24 24 19.299 24 13.5C24 7.70101 19.299 3 13.5 3C7.70101 3 3 7.70101 3 13.5C3 19.299 7.70101 24 13.5 24Z" fill="currentColor"/><g transform="translate(3, 3)"><g><g opacity="0.2"><path fill-rule="evenodd" clip-rule="evenodd" d="M8.13174 4.64646C8.327 4.4512 8.64358 4.4512 8.83884 4.64646L11.8693 7.67692C12.0646 7.87218 12.0646 8.18876 11.8693 8.38403L7.62666 12.6267C7.15245 13.1009 7.15245 13.8697 7.62666 14.3439C8.10087 14.8181 8.86971 14.8181 9.34392 14.3439L13.5866 10.1013C13.7818 9.90602 14.0984 9.90602 14.2937 10.1013L17.3241 13.1317C17.5194 13.327 17.5194 13.6436 17.3241 13.8388L13.0815 18.0815C10.5431 20.6199 6.42751 20.6199 3.8891 18.0815C1.35069 15.5431 1.35069 11.4275 3.8891 8.8891L8.13174 4.64646Z" fill="currentColor"/><path fill-rule="evenodd" clip-rule="evenodd" d="M14.4012 8.4285C13.8884 8.22339 13.639 7.64142 13.8441 7.12864L15.1943 3.75317L16.7526 4.27261L17.5714 2.56719C17.8105 2.06932 18.4079 1.85949 18.9057 2.09853C19.4036 2.33757 19.6134 2.93496 19.3744 3.43283L17.7926 6.72744L16.3509 6.24688L15.7011 7.87142C15.496 8.3842 14.914 8.63362 14.4012 8.4285Z" fill="currentColor"/></g><path fill-rule="evenodd" clip-rule="evenodd" d="M7.13174 3.64646C7.327 3.4512 7.64358 3.4512 7.83884 3.64646L10.8693 6.67692C11.0646 6.87218 11.0646 7.18876 10.8693 7.38403L6.62666 11.6267C6.15245 12.1009 6.15245 12.8697 6.62666 13.3439C7.10087 13.8181 7.86971 13.8181 8.34392 13.3439L12.5866 9.10128C12.7818 8.90602 13.0984 8.90602 13.2937 9.10128L16.3241 12.1317C16.5194 12.327 16.5194 12.6436 16.3241 12.8388L12.0815 17.0815C9.54308 19.6199 5.42751 19.6199 2.8891 17.0815C0.350692 14.5431 0.350691 10.4275 2.8891 7.8891L7.13174 3.64646ZM7.48529 4.70712L3.59621 8.59621C1.44832 10.7441 1.44832 14.2265 3.59621 16.3744C5.74409 18.5223 9.2265 18.5223 11.3744 16.3744L15.2635 12.4853L12.9401 10.1619L9.05103 14.051C8.1863 14.9158 6.78429 14.9158 5.91955 14.051C5.05482 13.1863 5.05482 11.7843 5.91955 10.9196L9.80864 7.03047L7.48529 4.70712Z" fill="currentColor"/><path fill-rule="evenodd" clip-rule="evenodd" d="M7.48531 10.0608L4.45485 7.03038L5.16196 6.32327L8.19241 9.35373L7.48531 10.0608Z" fill="currentColor"/><path fill-rule="evenodd" clip-rule="evenodd" d="M12.9401 15.5157L9.90965 12.4852L10.6168 11.7781L13.6472 14.8086L12.9401 15.5157Z" fill="currentColor"/><path fill-rule="evenodd" clip-rule="evenodd" d="M12.5869 6.96424C12.3305 6.86169 12.2058 6.5707 12.3083 6.31431L13.4834 3.37658L15.0126 3.88629L16.0221 1.78358C16.1417 1.53465 16.4404 1.42973 16.6893 1.54925C16.9382 1.66877 17.0431 1.96746 16.9236 2.2164L15.5326 5.11371L14.0617 4.62343L13.2368 6.6857C13.1343 6.94209 12.8433 7.0668 12.5869 6.96424Z" fill="currentColor"/></g><path d="M1.15063 1.87794C0.94979 1.6771 0.94979 1.35147 1.15063 1.15063C1.35147 0.949789 1.6771 0.949789 1.87794 1.15063L18.8494 18.1221C19.0502 18.3229 19.0502 18.6485 18.8494 18.8494C18.6485 19.0502 18.3229 19.0502 18.1221 18.8494L1.15063 1.87794Z" fill="currentColor"/></g><path fill-rule="evenodd" clip-rule="evenodd" d="M13 24.5C19.3513 24.5 24.5 19.3513 24.5 13C24.5 6.64873 19.3513 1.5 13 1.5C6.64873 1.5 1.5 6.64873 1.5 13C1.5 19.3513 6.64873 24.5 13 24.5ZM13 25.5C19.9036 25.5 25.5 19.9036 25.5 13C25.5 6.09644 19.9036 0.5 13 0.5C6.09644 0.5 0.5 6.09644 0.5 13C0.5 19.9036 6.09644 25.5 13 25.5Z" fill="currentColor"/></svg>