<svg xmlns="http://www.w3.org/2000/svg" width="20" height="20" viewBox="0 0 20 20">
  <g fill="none" fill-rule="evenodd">
    <g fill="#AB92F0" transform="translate(5 3.5)">
      <path d="M10.5842423,6 C11.4949341,6.27800255 12.2400973,6.9982648 12.5489278,7.9595424 L13.8501266,12.0097037 C14.3619078,13.6026934 13.520677,15.3205941 11.971185,15.8467422 C11.6722135,15.9482614 11.3593802,16 11.0445232,16 L2.95467646,16 C1.32285371,16 0,14.6400108 0,12.962379 C0,12.6386832 0.0503258005,12.317068 0.149073,12.0097037 L1.45027185,7.9595424 C1.75771998,7.00256758 2.49760341,6.28445533 3.40273821,6.00375967 L10.5842423,6 Z"/>
      <path stroke="#AB92F0" stroke-linecap="round" stroke-linejoin="round" d="M7,11 C8.53846154,11 11,6.65240146 11,4.28555487 C11,1.91870827 9.209139,0 7,0 C4.790861,0 3,1.91870827 3,4.28555487 C3,6.65240146 5.46153846,11 7,11 Z"/>
    </g>
    <g stroke="#000" transform="rotate(-90 9.25 3.75)">
      <circle cx="6.5" cy="4.5" r="1.5"/>
      <path stroke-linecap="round" stroke-linejoin="round" d="M5.5,10 C7.03846154,10 9.5,5.65240146 9.5,3.28555487 C9.5,0.918708269 7.709139,-1 5.5,-1 C3.290861,-1 1.5,0.918708269 1.5,3.28555487 C1.5,5.65240146 3.96153846,10 5.5,10 Z" transform="rotate(90 5.5 4.5)"/>
    </g>
    <path stroke="#000" d="M13.5061289,8.50004096 L6.48228283,8.5037181 C5.752982,8.75415836 5.17238708,9.34652378 4.92630799,10.1124789 L3.62510915,14.1626402 C3.54225173,14.4205454 3.5,14.690562 3.5,14.962379 C3.5,16.3669189 4.60214147,17.5 5.95467646,17.5 L14.0445232,17.5 C14.3046615,17.5 14.5631875,17.4572432 14.8104197,17.3732926 C16.0991441,16.9356912 16.8031256,15.4980712 16.3740905,14.1626402 L15.0728916,10.1124789 C14.8255552,9.34261018 14.2403225,8.74825718 13.5061289,8.50004096 Z"/>
  </g>
</svg>
