<svg width="20" height="20" viewBox="0 0 20 20" fill="none" xmlns="http://www.w3.org/2000/svg"><g opacity="0.2"><path d="M6.13685 11.7828C5.70178 11.6641 5.39996 11.269 5.39996 10.818L5.39996 6.38197C5.39996 5.93102 5.70178 5.53586 6.13685 5.41721L13.7369 3.34447C14.373 3.17098 15 3.64987 15 4.30924V12.8908C15 13.5501 14.373 14.029 13.7369 13.8555L6.13685 11.7828Z" fill="currentColor"/><path fill-rule="evenodd" clip-rule="evenodd" d="M7.39996 10.0542L13 11.5815V5.61849L7.39996 7.14577V10.0542ZM5.39996 10.818C5.39996 11.269 5.70178 11.6641 6.13685 11.7828L13.7369 13.8555C14.373 14.029 15 13.5501 15 12.8908V4.30924C15 3.64987 14.373 3.17098 13.7369 3.34447L6.13685 5.41721C5.70178 5.53586 5.39996 5.93102 5.39996 6.38197L5.39996 10.818Z" fill="currentColor"/><path d="M7.01605 10.8C7.01605 11.3523 6.56834 11.8 6.01605 11.8H3.25555C3.10274 11.8 2.95597 11.736 2.85144 11.6245C1.25751 9.9249 1.25087 7.26348 2.85326 5.57185C2.95718 5.46215 3.10164 5.4 3.25275 5.4L6.01605 5.4C6.56834 5.4 7.01605 5.84772 7.01605 6.4L7.01605 8.58402V10.8Z" fill="currentColor"/><path fill-rule="evenodd" clip-rule="evenodd" d="M5.01605 9.80002V7.4H3.96888C3.54859 8.13534 3.54744 9.0554 3.9729 9.80002H5.01605ZM6.01605 11.8C6.56834 11.8 7.01605 11.3523 7.01605 10.8L7.01605 6.4C7.01605 5.84772 6.56834 5.4 6.01605 5.4L3.25275 5.4C3.10164 5.4 2.95718 5.46215 2.85326 5.57185C1.25087 7.26348 1.25751 9.9249 2.85144 11.6245C2.95597 11.736 3.10274 11.8 3.25555 11.8H6.01605Z" fill="currentColor"/><path d="M3.90163 11.5056C4.1276 10.6198 4.9254 10 5.83956 10H6.42422C7.7298 10 8.68532 11.2306 8.36187 12.4955L7.59473 15.4955C7.36836 16.3807 6.57081 17 5.65708 17H3.78713C3.13458 17 2.65686 16.3851 2.81816 15.7528L3.90163 11.5056Z" fill="currentColor"/><path fill-rule="evenodd" clip-rule="evenodd" d="M6.42422 12H5.83956L5.07426 15H5.65708L6.42422 12ZM5.83956 10C4.9254 10 4.1276 10.6198 3.90163 11.5056L2.81816 15.7528C2.65686 16.3851 3.13458 17 3.78713 17H5.65708C6.57081 17 7.36836 16.3807 7.59473 15.4955L8.36187 12.4955C8.68532 11.2306 7.7298 10 6.42422 10H5.83956Z" fill="currentColor"/><path fill-rule="evenodd" clip-rule="evenodd" d="M19.0319 4.44521C19.3383 4.90472 19.2142 5.5256 18.7547 5.83199L17.2548 6.8321C16.7953 7.13849 16.1744 7.01437 15.868 6.55486C15.5616 6.09536 15.6857 5.47448 16.1452 5.16809L17.6451 4.16798C18.1046 3.86159 18.7255 3.98571 19.0319 4.44521Z" fill="currentColor"/><path fill-rule="evenodd" clip-rule="evenodd" d="M15.6999 8.60002C15.6999 8.04774 16.1476 7.60003 16.6999 7.60003L18.1998 7.60003C18.752 7.60003 19.1998 8.04775 19.1998 8.60004C19.1998 9.15232 18.752 9.60003 18.1998 9.60003L16.6999 9.60003C16.1476 9.60003 15.6999 9.15231 15.6999 8.60002Z" fill="currentColor"/><path fill-rule="evenodd" clip-rule="evenodd" d="M15.9341 10.5089C16.2893 10.086 16.9201 10.0311 17.343 10.3863L18.7235 11.5457C19.1464 11.9009 19.2013 12.5316 18.8462 12.9546C18.491 13.3775 17.8602 13.4324 17.4373 13.0772L16.0568 11.9178C15.6339 11.5626 15.579 10.9318 15.9341 10.5089Z" fill="currentColor"/></g><path fill-rule="evenodd" clip-rule="evenodd" d="M6.39996 4.88197V9.31803L14 11.3908L14 2.80924L6.39996 4.88197ZM5.39996 9.31803C5.39996 9.76898 5.70178 10.1641 6.13685 10.2828L13.7369 12.3555C14.373 12.529 15 12.0501 15 11.3908V2.80924C15 2.14987 14.373 1.67098 13.7369 1.84447L6.13685 3.91721C5.70178 4.03586 5.39996 4.43102 5.39996 4.88197L5.39996 9.31803Z" fill="currentColor"/><path fill-rule="evenodd" clip-rule="evenodd" d="M3.45615 9.30002L5.5 9.30002L5.5 4.9H3.45342C2.38628 6.15981 2.38715 8.02833 3.45615 9.30002ZM5.5 10.3C6.05228 10.3 6.5 9.8523 6.5 9.30002L6.5 4.9C6.5 4.34772 6.05228 3.9 5.5 3.9H3.25275C3.10164 3.9 2.95718 3.96215 2.85326 4.07185C1.25087 5.76348 1.25751 8.4249 2.85144 10.1245C2.95597 10.236 3.10274 10.3 3.25555 10.3H5.5Z" fill="currentColor"/><path fill-rule="evenodd" clip-rule="evenodd" d="M7.26894 10.8694L4.75817 10.5904L3.78077 14.5L6.4174 14.5L7.26894 10.8694ZM4.8686 9.59651C4.37113 9.54123 3.90942 9.86227 3.78802 10.3479L2.81062 14.2575C2.65284 14.8886 3.13019 15.5 3.78077 15.5H6.4174C6.88171 15.5 7.28495 15.1804 7.39098 14.7283L8.24252 11.0977C8.37945 10.5139 7.97535 9.9417 7.37938 9.87548L4.8686 9.59651Z" fill="currentColor"/><path fill-rule="evenodd" clip-rule="evenodd" d="M18.616 3.2226C18.7692 3.45235 18.7071 3.76279 18.4773 3.91598L16.9774 4.9161C16.7477 5.06929 16.4373 5.00723 16.2841 4.77748C16.1309 4.54773 16.1929 4.23729 16.4227 4.08409L17.9226 3.08398C18.1523 2.93078 18.4628 2.99285 18.616 3.2226Z" fill="currentColor"/><path fill-rule="evenodd" clip-rule="evenodd" d="M16.2 7.10003C16.2 6.82389 16.4238 6.60003 16.7 6.60003L18.1999 6.60004C18.476 6.60004 18.6999 6.8239 18.6999 7.10004C18.6999 7.37618 18.476 7.60004 18.1999 7.60004L16.7 7.60003C16.4238 7.60003 16.2 7.37617 16.2 7.10003Z" fill="currentColor"/><path fill-rule="evenodd" clip-rule="evenodd" d="M16.3171 9.33046C16.4947 9.119 16.8101 9.09155 17.0216 9.26914L18.402 10.4285C18.6135 10.6061 18.6409 10.9215 18.4634 11.133C18.2858 11.3444 17.9704 11.3719 17.7589 11.1943L16.3784 10.0349C16.167 9.85731 16.1395 9.54192 16.3171 9.33046Z" fill="currentColor"/></svg>