<svg width="20" height="20" viewBox="0 0 26 26" fill="none" xmlns="http://www.w3.org/2000/svg"><path opacity="0.2" d="M26 14C26 20.6274 20.6274 26 14 26C7.37258 26 2 20.6274 2 14C2 7.37258 7.37258 2 14 2C20.6274 2 26 7.37258 26 14Z" fill="currentColor"/><g transform="translate(3, 3)"><path fill-rule="evenodd" clip-rule="evenodd" d="M6.39996 4.88197V9.31803L14 11.3908L14 2.80924L6.39996 4.88197ZM5.39996 9.31803C5.39996 9.76898 5.70178 10.1641 6.13685 10.2828L13.7369 12.3555C14.373 12.529 15 12.0501 15 11.3908V2.80924C15 2.14987 14.373 1.67098 13.7369 1.84447L6.13685 3.91721C5.70178 4.03586 5.39996 4.43102 5.39996 4.88197L5.39996 9.31803Z" fill="currentColor"/><path fill-rule="evenodd" clip-rule="evenodd" d="M3.45615 9.30002L5.5 9.30002L5.5 4.9H3.45342C2.38628 6.15981 2.38715 8.02833 3.45615 9.30002ZM5.5 10.3C6.05228 10.3 6.5 9.8523 6.5 9.30002L6.5 4.9C6.5 4.34772 6.05228 3.9 5.5 3.9H3.25275C3.10164 3.9 2.95718 3.96215 2.85326 4.07185C1.25087 5.76348 1.25751 8.4249 2.85144 10.1245C2.95597 10.236 3.10274 10.3 3.25555 10.3H5.5Z" fill="currentColor"/><path fill-rule="evenodd" clip-rule="evenodd" d="M7.26894 10.8694L4.75817 10.5904L3.78077 14.5L6.4174 14.5L7.26894 10.8694ZM4.8686 9.59651C4.37113 9.54123 3.90942 9.86227 3.78802 10.3479L2.81062 14.2575C2.65284 14.8886 3.13019 15.5 3.78077 15.5H6.4174C6.88171 15.5 7.28495 15.1804 7.39098 14.7283L8.24252 11.0977C8.37945 10.5139 7.97535 9.9417 7.37938 9.87548L4.8686 9.59651Z" fill="currentColor"/><path fill-rule="evenodd" clip-rule="evenodd" d="M18.616 3.2226C18.7692 3.45235 18.7071 3.76279 18.4773 3.91598L16.9774 4.9161C16.7477 5.06929 16.4373 5.00723 16.2841 4.77748C16.1309 4.54773 16.1929 4.23729 16.4227 4.08409L17.9226 3.08398C18.1523 2.93078 18.4628 2.99285 18.616 3.2226Z" fill="currentColor"/><path fill-rule="evenodd" clip-rule="evenodd" d="M16.2 7.10003C16.2 6.82389 16.4238 6.60003 16.7 6.60003L18.1999 6.60004C18.476 6.60004 18.6999 6.8239 18.6999 7.10004C18.6999 7.37618 18.476 7.60004 18.1999 7.60004L16.7 7.60003C16.4238 7.60003 16.2 7.37617 16.2 7.10003Z" fill="currentColor"/><path fill-rule="evenodd" clip-rule="evenodd" d="M16.3171 9.33046C16.4947 9.119 16.8101 9.09155 17.0216 9.26914L18.402 10.4285C18.6135 10.6061 18.6409 10.9215 18.4634 11.133C18.2858 11.3444 17.9704 11.3719 17.7589 11.1943L16.3784 10.0349C16.167 9.85731 16.1395 9.54192 16.3171 9.33046Z" fill="currentColor"/></g><path fill-rule="evenodd" clip-rule="evenodd" d="M13 24.5C19.3513 24.5 24.5 19.3513 24.5 13C24.5 6.64873 19.3513 1.5 13 1.5C6.64873 1.5 1.5 6.64873 1.5 13C1.5 19.3513 6.64873 24.5 13 24.5ZM13 25.5C19.9036 25.5 25.5 19.9036 25.5 13C25.5 6.09644 19.9036 0.5 13 0.5C6.09644 0.5 0.5 6.09644 0.5 13C0.5 19.9036 6.09644 25.5 13 25.5Z" fill="currentColor"/></svg>