<svg width="20" height="20" viewBox="0 0 26 26" fill="none" xmlns="http://www.w3.org/2000/svg"><path opacity="0.2" d="M26 14C26 20.6274 20.6274 26 14 26C7.37258 26 2 20.6274 2 14C2 7.37258 7.37258 2 14 2C20.6274 2 26 7.37258 26 14Z" fill="currentColor"/><g transform="translate(3, 3)"><path fill-rule="evenodd" clip-rule="evenodd" d="M2 8.5C2 8.22386 2.22386 8 2.5 8H13.8077C14.0838 8 14.3077 8.22386 14.3077 8.5C14.3077 8.77614 14.0838 9 13.8077 9H2.5C2.22386 9 2 8.77614 2 8.5Z" fill="currentColor"/><path fill-rule="evenodd" clip-rule="evenodd" d="M2 4.5C2 4.22386 2.22386 4 2.5 4H17.5C17.7761 4 18 4.22386 18 4.5C18 4.77614 17.7761 5 17.5 5H2.5C2.22386 5 2 4.77614 2 4.5Z" fill="currentColor"/><path fill-rule="evenodd" clip-rule="evenodd" d="M2 12.5C2 12.2239 2.22386 12 2.5 12H17.5C17.7761 12 18 12.2239 18 12.5C18 12.7761 17.7761 13 17.5 13H2.5C2.22386 13 2 12.7761 2 12.5Z" fill="currentColor"/><path fill-rule="evenodd" clip-rule="evenodd" d="M2 16.5C2 16.2239 2.22386 16 2.5 16H13.8077C14.0838 16 14.3077 16.2239 14.3077 16.5C14.3077 16.7761 14.0838 17 13.8077 17H2.5C2.22386 17 2 16.7761 2 16.5Z" fill="currentColor"/></g><path fill-rule="evenodd" clip-rule="evenodd" d="M13 24.5C19.3513 24.5 24.5 19.3513 24.5 13C24.5 6.64873 19.3513 1.5 13 1.5C6.64873 1.5 1.5 6.64873 1.5 13C1.5 19.3513 6.64873 24.5 13 24.5ZM13 25.5C19.9036 25.5 25.5 19.9036 25.5 13C25.5 6.09644 19.9036 0.5 13 0.5C6.09644 0.5 0.5 6.09644 0.5 13C0.5 19.9036 6.09644 25.5 13 25.5Z" fill="currentColor"/></svg>