<svg width="20" height="20" viewBox="0 0 20 20" fill="none" xmlns="http://www.w3.org/2000/svg"><g opacity="0.2"><path fill-rule="evenodd" clip-rule="evenodd" d="M2.5 9.19995C2.5 8.64767 2.94772 8.19995 3.5 8.19995H13.8077C14.36 8.19995 14.8077 8.64767 14.8077 9.19995C14.8077 9.75224 14.36 10.2 13.8077 10.2H3.5C2.94772 10.2 2.5 9.75224 2.5 9.19995Z" fill="currentColor"/><path fill-rule="evenodd" clip-rule="evenodd" d="M2.5 5.19995C2.5 4.64767 2.94772 4.19995 3.5 4.19995H17.5C18.0523 4.19995 18.5 4.64767 18.5 5.19995C18.5 5.75224 18.0523 6.19995 17.5 6.19995H3.5C2.94772 6.19995 2.5 5.75224 2.5 5.19995Z" fill="currentColor"/><path fill-rule="evenodd" clip-rule="evenodd" d="M2.5 13.2C2.5 12.6477 2.94772 12.2 3.5 12.2H17.5C18.0523 12.2 18.5 12.6477 18.5 13.2C18.5 13.7522 18.0523 14.2 17.5 14.2H3.5C2.94772 14.2 2.5 13.7522 2.5 13.2Z" fill="currentColor"/><path fill-rule="evenodd" clip-rule="evenodd" d="M2.5 17.2C2.5 16.6477 2.94772 16.2 3.5 16.2H13.8077C14.36 16.2 14.8077 16.6477 14.8077 17.2C14.8077 17.7522 14.36 18.2 13.8077 18.2H3.5C2.94772 18.2 2.5 17.7522 2.5 17.2Z" fill="currentColor"/></g><path fill-rule="evenodd" clip-rule="evenodd" d="M2 8.5C2 8.22386 2.22386 8 2.5 8H13.8077C14.0838 8 14.3077 8.22386 14.3077 8.5C14.3077 8.77614 14.0838 9 13.8077 9H2.5C2.22386 9 2 8.77614 2 8.5Z" fill="currentColor"/><path fill-rule="evenodd" clip-rule="evenodd" d="M2 4.5C2 4.22386 2.22386 4 2.5 4H17.5C17.7761 4 18 4.22386 18 4.5C18 4.77614 17.7761 5 17.5 5H2.5C2.22386 5 2 4.77614 2 4.5Z" fill="currentColor"/><path fill-rule="evenodd" clip-rule="evenodd" d="M2 12.5C2 12.2239 2.22386 12 2.5 12H17.5C17.7761 12 18 12.2239 18 12.5C18 12.7761 17.7761 13 17.5 13H2.5C2.22386 13 2 12.7761 2 12.5Z" fill="currentColor"/><path fill-rule="evenodd" clip-rule="evenodd" d="M2 16.5C2 16.2239 2.22386 16 2.5 16H13.8077C14.0838 16 14.3077 16.2239 14.3077 16.5C14.3077 16.7761 14.0838 17 13.8077 17H2.5C2.22386 17 2 16.7761 2 16.5Z" fill="currentColor"/><path d="M1.15063 1.87794C0.94979 1.6771 0.94979 1.35147 1.15063 1.15063C1.35147 0.949789 1.6771 0.949789 1.87794 1.15063L18.8494 18.1221C19.0502 18.3229 19.0502 18.6485 18.8494 18.8494C18.6485 19.0502 18.3229 19.0502 18.1221 18.8494L1.15063 1.87794Z" fill="currentColor"/></svg>