<svg xmlns="http://www.w3.org/2000/svg" width="20" height="20" viewBox="0 0 20 20">
  <g fill="none" fill-rule="evenodd">
    <g transform="translate(6.5 2.5)">
      <path fill="#AB92F0" d="M5,0 L5,0 C6.38071187,-2.53632657e-16 7.5,1.11928813 7.5,2.5 L7.5,6.5 C7.5,7.88071187 6.38071187,9 5,9 L5,9 C3.61928813,9 2.5,7.88071187 2.5,6.5 L2.5,2.5 C2.5,1.11928813 3.61928813,2.53632657e-16 5,0 Z"/>
      <g stroke="#AB92F0" transform="translate(1 12)">
        <ellipse cx="4" cy="3.5" fill="#FFF" rx="4" ry="1"/>
        <path stroke-linecap="square" stroke-width="2" d="M4.03571429,0.5 L4.03571429,3"/>
      </g>
      <path stroke="#AB92F0" stroke-linecap="round" stroke-linejoin="round" stroke-width="2" d="M10,6 L10,7.8 C10,10.1195959 7.76142375,12 5,12 C2.23857625,12 0,10.1195959 0,7.8 L0,6"/>
    </g>
    <g transform="translate(5.5 2)">
      <path fill="#000" d="M4.5,0 L4.5,0 C5.74264069,-2.28269391e-16 6.75,1.00735931 6.75,2.25 L6.75,5.75 C6.75,6.99264069 5.74264069,8 4.5,8 L4.5,8 C3.25735931,8 2.25,6.99264069 2.25,5.75 L2.25,2.25 C2.25,1.00735931 3.25735931,2.28269391e-16 4.5,0 Z"/>
      <g stroke="#000" transform="translate(.9 10.8)">
        <ellipse cx="3.6" cy="3.2" fill="#FFF" rx="3.5" ry="1"/>
        <path stroke-linecap="square" d="M3.6,0.2 L3.6,2.7"/>
      </g>
      <path stroke="#000" stroke-linecap="round" stroke-linejoin="round" d="M9,5.5 L9,7.15 C9,9.27629629 6.98528137,11 4.5,11 C2.01471863,11 0,9.27629629 0,7.15 L0,5.5"/>
    </g>
  </g>
</svg>
