<svg width="20" height="20" viewBox="0 0 26 26" fill="none" xmlns="http://www.w3.org/2000/svg"><path opacity="0.2" fill-rule="evenodd" clip-rule="evenodd" d="M13.5 26C20.4036 26 26 20.4036 26 13.5C26 6.59644 20.4036 1 13.5 1C6.59644 1 1 6.59644 1 13.5C1 20.4036 6.59644 26 13.5 26ZM13.5 24C19.299 24 24 19.299 24 13.5C24 7.70101 19.299 3 13.5 3C7.70101 3 3 7.70101 3 13.5C3 19.299 7.70101 24 13.5 24Z" fill="currentColor"/><g transform="translate(3, 3)"><g opacity="0.2"><path fill-rule="evenodd" clip-rule="evenodd" d="M11.5 2.5C10.1193 2.5 9 3.61929 9 5V9C9 10.3807 10.1193 11.5 11.5 11.5C12.8807 11.5 14 10.3807 14 9V5C14 3.61929 12.8807 2.5 11.5 2.5ZM7 18C7 18.7917 8.66602 19 11.5 19C14.334 19 16 18.7917 16 18C16 17.3102 14.7355 17.0633 12.5357 17.0112V15.4228C15.3326 15.0011 17.5 12.9009 17.5 10.3V8.5C17.5 7.94772 17.0523 7.5 16.5 7.5C15.9477 7.5 15.5 7.94772 15.5 8.5V10.3C15.5 12.0249 13.744 13.5 11.5 13.5C9.25601 13.5 7.5 12.0249 7.5 10.3V8.5C7.5 7.94772 7.05228 7.5 6.5 7.5C5.94772 7.5 5.5 7.94772 5.5 8.5V10.3C5.5 12.923 7.70437 15.0368 10.5357 15.4332V17.0095C8.29194 17.058 7 17.3028 7 18Z" fill="currentColor"/></g><path fill-rule="evenodd" clip-rule="evenodd" d="M7.75 4.25C7.75 3.00736 8.75736 2 10 2C11.2426 2 12.25 3.00736 12.25 4.25V7.75C12.25 8.99264 11.2426 10 10 10C8.75736 10 7.75 8.99264 7.75 7.75V4.25Z" fill="currentColor"/><path d="M10 17C7.51962 17 6 16.7829 6 16C6 15.2171 7.51962 15 10 15C12.4804 15 14 15.2171 14 16C14 16.7829 12.4804 17 10 17Z" fill="currentColor"/><path d="M9.5 12.5L10.5 12.5V16H9.5L9.5 12.5Z" fill="currentColor"/><path d="M14 7.5C14 7.22386 14.2239 7 14.5 7C14.7761 7 15 7.22386 15 7.5V9.15C15 11.5713 12.7456 13.5 10 13.5C7.25438 13.5 5 11.5713 5 9.15V7.5C5 7.22386 5.22386 7 5.5 7C5.77614 7 6 7.22386 6 7.5V9.15C6 10.9813 7.77506 12.5 10 12.5C12.2249 12.5 14 10.9813 14 9.15V7.5Z" fill="currentColor"/></g><path fill-rule="evenodd" clip-rule="evenodd" d="M13 24.5C19.3513 24.5 24.5 19.3513 24.5 13C24.5 6.64873 19.3513 1.5 13 1.5C6.64873 1.5 1.5 6.64873 1.5 13C1.5 19.3513 6.64873 24.5 13 24.5ZM13 25.5C19.9036 25.5 25.5 19.9036 25.5 13C25.5 6.09644 19.9036 0.5 13 0.5C6.09644 0.5 0.5 6.09644 0.5 13C0.5 19.9036 6.09644 25.5 13 25.5Z" fill="currentColor"/></svg>