<svg width="20" height="20" viewBox="0 0 26 26" fill="none" xmlns="http://www.w3.org/2000/svg"><path opacity="0.2" d="M26 14C26 20.6274 20.6274 26 14 26C7.37258 26 2 20.6274 2 14C2 7.37258 7.37258 2 14 2C20.6274 2 26 7.37258 26 14Z" fill="currentColor"/><g transform="translate(3, 3)"><path fill-rule="evenodd" clip-rule="evenodd" d="M7.75 4.25C7.75 3.00736 8.75736 2 10 2C11.2426 2 12.25 3.00736 12.25 4.25V7.75C12.25 8.99264 11.2426 10 10 10C8.75736 10 7.75 8.99264 7.75 7.75V4.25Z" fill="currentColor"/><path d="M10 17C7.51962 17 6 16.7829 6 16C6 15.2171 7.51962 15 10 15C12.4804 15 14 15.2171 14 16C14 16.7829 12.4804 17 10 17Z" fill="currentColor"/><path d="M9.5 12.5L10.5 12.5V16H9.5L9.5 12.5Z" fill="currentColor"/><path d="M14 7.5C14 7.22386 14.2239 7 14.5 7C14.7761 7 15 7.22386 15 7.5V9.15C15 11.5713 12.7456 13.5 10 13.5C7.25438 13.5 5 11.5713 5 9.15V7.5C5 7.22386 5.22386 7 5.5 7C5.77614 7 6 7.22386 6 7.5V9.15C6 10.9813 7.77506 12.5 10 12.5C12.2249 12.5 14 10.9813 14 9.15V7.5Z" fill="currentColor"/></g><path fill-rule="evenodd" clip-rule="evenodd" d="M13 24.5C19.3513 24.5 24.5 19.3513 24.5 13C24.5 6.64873 19.3513 1.5 13 1.5C6.64873 1.5 1.5 6.64873 1.5 13C1.5 19.3513 6.64873 24.5 13 24.5ZM13 25.5C19.9036 25.5 25.5 19.9036 25.5 13C25.5 6.09644 19.9036 0.5 13 0.5C6.09644 0.5 0.5 6.09644 0.5 13C0.5 19.9036 6.09644 25.5 13 25.5Z" fill="currentColor"/></svg>