<svg width="20" height="20" viewBox="0 0 26 26" fill="none" xmlns="http://www.w3.org/2000/svg"><path opacity="0.8" fill-rule="evenodd" clip-rule="evenodd" d="M13.5 26C20.4036 26 26 20.4036 26 13.5C26 6.59644 20.4036 1 13.5 1C6.59644 1 1 6.59644 1 13.5C1 20.4036 6.59644 26 13.5 26ZM13.5 24C19.299 24 24 19.299 24 13.5C24 7.70101 19.299 3 13.5 3C7.70101 3 3 7.70101 3 13.5C3 19.299 7.70101 24 13.5 24Z" fill="currentColor"/><g transform="translate(3, 3)"><g><circle cx="11.502" cy="5.58168" r="3" transform="rotate(38.27 11.502 5.58168)" fill="currentColor" stroke="currentColor" stroke-width="2"/><path d="M8.38333 6.30569L3.82094 12.8962" stroke="currentColor" stroke-width="2" stroke-linecap="round"/><path d="M11.5237 8.78317L6.17623 14.7543" stroke="currentColor" stroke-width="2" stroke-linecap="round"/><path d="M3.82094 12.8962L6.17624 14.7543" stroke="currentColor" stroke-width="2" stroke-linecap="round"/><path d="M4.53907 14.4638C4.53907 14.4638 3.50509 15.7918 3.38071 16.4638C3.23745 17.2378 3.51628 17.7507 3.89504 18.0495C4.27379 18.3483 5.10633 18.438 5.88833 18.3483C8.02223 18.1036 9.31112 14.9111 11.2388 13.9638C12.7258 13.2331 12.6234 13.3321 14.2388 12.9638C15.6116 12.6507 16.9366 12.4165 16.9366 12.4165" stroke="currentColor" stroke-width="2" stroke-linecap="round"/><rect x="9.15289" y="7.06152" width="2" height="7" transform="rotate(38.27 9.15289 7.06152)" fill="currentColor"/><circle cx="10.1153" cy="4.35623" r="3.15" transform="rotate(38.27 10.1153 4.35623)" stroke="black"/><path d="M2.44701 11.8123L6.68419 5.75082" stroke="black" stroke-linecap="round"/><path d="M9.76781 8.1835C7.67948 10.5154 6.89064 11.3385 4.80232 13.6704C6.77736 11.465 8.19487 9.94696 10.1094 7.81614C10.1857 7.73125 10.2628 7.64539 10.3407 7.55847" stroke="black" stroke-linecap="round"/><path d="M2.44702 11.8123L4.80232 13.6704" stroke="black" stroke-linecap="round"/><path d="M8.08241 2.24713L8.90343 3.49724C9.49731 4.40152 10.3685 5.08877 11.3861 5.45586L12.793 5.96334" stroke="black"/><path d="M3.60913 12.8778C3.60913 12.8778 2.13117 14.7079 2.00679 15.3799C1.86354 16.1539 2.14237 16.6668 2.52112 16.9656C2.89988 17.2644 3.73242 17.3541 4.51442 17.2644C6.64831 17.0197 7.9372 13.8272 9.86491 12.8799C11.3519 12.1492 11.2495 12.2483 12.8649 11.8799C14.2377 11.5669 15.5627 11.3326 15.5627 11.3326" stroke="black" stroke-linecap="round"/></g></g><path fill-rule="evenodd" clip-rule="evenodd" d="M13 24.5C19.3513 24.5 24.5 19.3513 24.5 13C24.5 6.64873 19.3513 1.5 13 1.5C6.64873 1.5 1.5 6.64873 1.5 13C1.5 19.3513 6.64873 24.5 13 24.5ZM13 25.5C19.9036 25.5 25.5 19.9036 25.5 13C25.5 6.09644 19.9036 0.5 13 0.5C6.09644 0.5 0.5 6.09644 0.5 13C0.5 19.9036 6.09644 25.5 13 25.5Z" fill="black"/></svg>