<svg width="20" height="20" viewBox="0 0 26 26" fill="none" xmlns="http://www.w3.org/2000/svg"><path opacity="0.2" fill-rule="evenodd" clip-rule="evenodd" d="M13.5 26C20.4036 26 26 20.4036 26 13.5C26 6.59644 20.4036 1 13.5 1C6.59644 1 1 6.59644 1 13.5C1 20.4036 6.59644 26 13.5 26ZM13.5 24C19.299 24 24 19.299 24 13.5C24 7.70101 19.299 3 13.5 3C7.70101 3 3 7.70101 3 13.5C3 19.299 7.70101 24 13.5 24Z" fill="currentColor"/><g transform="translate(3, 3)"><g><g opacity="0.2"><path d="M18.2816 3.75H8.5C7.67157 3.75 7 4.42157 7 5.25V12.4811C7 13.3096 7.67157 13.9811 8.5 13.9811H13.3908H18.2816C19.11 13.9811 19.7816 13.3096 19.7816 12.4811V5.25C19.7816 4.42157 19.11 3.75 18.2816 3.75Z" fill="currentColor"/><path fill-rule="evenodd" clip-rule="evenodd" d="M6 5.25C6 3.86928 7.11929 2.75 8.5 2.75H18.2816C19.6623 2.75 20.7816 3.86929 20.7816 5.25V12.4811C20.7816 13.8618 19.6623 14.9811 18.2816 14.9811H14.3908V16.8214C14.3908 17.3737 13.9431 17.8214 13.3908 17.8214C12.8385 17.8214 12.3908 17.3737 12.3908 16.8214V14.9811H8.5C7.11929 14.9811 6 13.8618 6 12.4811V5.25ZM8.5 4.75C8.22386 4.75 8 4.97386 8 5.25V12.4811C8 12.7573 8.22386 12.9811 8.5 12.9811H18.2816C18.5577 12.9811 18.7816 12.7573 18.7816 12.4811V5.25C18.7816 4.97386 18.5577 4.75 18.2816 4.75H8.5Z" fill="currentColor"/><path fill-rule="evenodd" clip-rule="evenodd" d="M9.19543 17.3951C9.19543 16.8429 9.64315 16.3951 10.1954 16.3951H16.5862C17.1385 16.3951 17.5862 16.8429 17.5862 17.3951C17.5862 17.9474 17.1385 18.3951 16.5862 18.3951H10.1954C9.64315 18.3951 9.19543 17.9474 9.19543 17.3951Z" fill="currentColor"/><path d="M6.91748 10.2191C9.08105 10.2191 10.835 11.2056 10.835 12.4226C10.835 13.6396 9.08105 14.6262 6.91748 14.6262C4.75392 14.6262 3 13.6396 3 12.4226C3 11.2056 4.75392 10.2191 6.91748 10.2191Z" fill="currentColor"/><path fill-rule="evenodd" clip-rule="evenodd" d="M4.63766 13.1092C5.17091 13.4092 5.97491 13.6262 6.91748 13.6262C7.86005 13.6262 8.66405 13.4092 9.1973 13.1092C9.76189 12.7916 9.83496 12.5094 9.83496 12.4226C9.83496 12.3359 9.76189 12.0536 9.1973 11.736C8.66405 11.4361 7.86005 11.2191 6.91748 11.2191C5.97491 11.2191 5.17091 11.4361 4.63766 11.736C4.07308 12.0536 4 12.3359 4 12.4226C4 12.5094 4.07308 12.7916 4.63766 13.1092ZM3.65714 14.8524C2.80388 14.3724 2 13.5529 2 12.4226C2 11.2924 2.80388 10.4729 3.65714 9.99289C4.54175 9.4953 5.69648 9.21906 6.91748 9.21906C8.13848 9.21906 9.29321 9.4953 10.1778 9.99289C11.0311 10.4729 11.835 11.2924 11.835 12.4226C11.835 13.5529 11.0311 14.3724 10.1778 14.8524C9.29321 15.35 8.13848 15.6262 6.91748 15.6262C5.69648 15.6262 4.54175 15.35 3.65714 14.8524Z" fill="currentColor"/><path fill-rule="evenodd" clip-rule="evenodd" d="M6.91746 7.84998C7.41451 7.84998 7.81746 8.25292 7.81746 8.74998L7.81746 10.219C7.81746 10.7161 7.41451 11.119 6.91746 11.119C6.4204 11.119 6.01746 10.7161 6.01746 10.219L6.01746 8.74998C6.01746 8.25292 6.4204 7.84998 6.91746 7.84998Z" fill="currentColor"/><path fill-rule="evenodd" clip-rule="evenodd" d="M9.05272 8.11238C9.54013 8.20986 9.85622 8.684 9.75874 9.1714L9.5139 10.3956C9.41642 10.883 8.94227 11.1991 8.45487 11.1016C7.96747 11.0042 7.65137 10.53 7.74885 10.0426L7.99369 8.8184C8.09118 8.33099 8.56532 8.0149 9.05272 8.11238Z" fill="currentColor"/><path fill-rule="evenodd" clip-rule="evenodd" d="M4.78224 8.11238C4.29484 8.20986 3.97874 8.684 4.07622 9.1714L4.32106 10.3956C4.41854 10.883 4.89269 11.1991 5.38009 11.1016C5.86749 11.0042 6.18359 10.53 6.08611 10.0426L5.84127 8.8184C5.74379 8.33099 5.26964 8.0149 4.78224 8.11238Z" fill="currentColor"/><path fill-rule="evenodd" clip-rule="evenodd" d="M2.53693 8.95762C2.11071 9.21335 1.9725 9.76618 2.22824 10.1924L2.96276 11.4166C3.2185 11.8428 3.77133 11.981 4.19755 11.7253C4.62378 11.4696 4.76198 10.9167 4.50625 10.4905L3.77172 9.26631C3.51599 8.84009 2.96316 8.70188 2.53693 8.95762Z" fill="currentColor"/><path fill-rule="evenodd" clip-rule="evenodd" d="M11.2979 8.95762C11.7241 9.21335 11.8623 9.76618 11.6066 10.1924L10.8721 11.4166C10.6163 11.8428 10.0635 11.981 9.63729 11.7253C9.21106 11.4696 9.07285 10.9167 9.32859 10.4905L10.0631 9.26631C10.3188 8.84009 10.8717 8.70188 11.2979 8.95762Z" fill="currentColor"/><path d="M6.91504 11.63C7.32925 11.63 7.66504 11.9658 7.66504 12.38C7.66504 12.7942 7.32925 13.13 6.91504 13.13C6.50083 13.13 6.16504 12.7942 6.16504 12.38C6.16504 11.9658 6.50083 11.63 6.91504 11.63Z" fill="currentColor"/><path fill-rule="evenodd" clip-rule="evenodd" d="M7.16504 12.38C7.16504 12.2419 7.05311 12.13 6.91504 12.13C6.77697 12.13 6.66504 12.2419 6.66504 12.38C6.66504 12.5181 6.77697 12.63 6.91504 12.63C7.05311 12.63 7.16504 12.5181 7.16504 12.38ZM6.91504 14.13C5.94854 14.13 5.16504 13.3465 5.16504 12.38C5.16504 11.4135 5.94854 10.63 6.91504 10.63C7.88154 10.63 8.66504 11.4135 8.66504 12.38C8.66504 13.3465 7.88154 14.13 6.91504 14.13Z" fill="currentColor"/></g><path fill-rule="evenodd" clip-rule="evenodd" d="M5 4.5C5 3.39543 5.89543 2.5 7 2.5H16.7816C17.8861 2.5 18.7816 3.39543 18.7816 4.5V11.7311C18.7816 12.8357 17.8861 13.7311 16.7816 13.7311H12.3908V16.0714C12.3908 16.3476 12.1669 16.5714 11.8908 16.5714C11.6146 16.5714 11.3908 16.3476 11.3908 16.0714V13.7311H10C9.72386 13.7311 9.5 13.5073 9.5 13.2311C9.5 12.955 9.72386 12.7311 10 12.7311H16.7816C17.3338 12.7311 17.7816 12.2834 17.7816 11.7311V4.5C17.7816 3.94772 17.3338 3.5 16.7816 3.5H7C6.44772 3.5 6 3.94772 6 4.5V6.75842C6 7.03456 5.77614 7.25842 5.5 7.25842C5.22386 7.25842 5 7.03456 5 6.75842V4.5Z" fill="currentColor"/><path fill-rule="evenodd" clip-rule="evenodd" d="M8.19543 16.6451C8.19543 16.369 8.41929 16.1451 8.69543 16.1451H15.0862C15.3624 16.1451 15.5862 16.369 15.5862 16.6451C15.5862 16.9213 15.3624 17.1451 15.0862 17.1451H8.69543C8.41929 17.1451 8.19543 16.9213 8.19543 16.6451Z" fill="currentColor"/><path fill-rule="evenodd" clip-rule="evenodd" d="M2.89253 12.795C3.51362 13.1444 4.40531 13.3762 5.41748 13.3762C6.42965 13.3762 7.32134 13.1444 7.94243 12.795C8.57918 12.4368 8.83496 12.0203 8.83496 11.6726C8.83496 11.325 8.57918 10.9084 7.94243 10.5503C7.32134 10.2009 6.42965 9.96906 5.41748 9.96906C4.40531 9.96906 3.51362 10.2009 2.89253 10.5503C2.25578 10.9084 2 11.325 2 11.6726C2 12.0203 2.25578 12.4368 2.89253 12.795ZM2.40227 13.6666C1.62118 13.2272 1 12.542 1 11.6726C1 10.8033 1.62118 10.118 2.40227 9.67868C3.19904 9.2305 4.26609 8.96906 5.41748 8.96906C6.56887 8.96906 7.63592 9.2305 8.43269 9.67868C9.21378 10.118 9.83496 10.8033 9.83496 11.6726C9.83496 12.542 9.21378 13.2272 8.43269 13.6666C7.63592 14.1148 6.56887 14.3762 5.41748 14.3762C4.26609 14.3762 3.19904 14.1148 2.40227 13.6666Z" fill="currentColor"/><path fill-rule="evenodd" clip-rule="evenodd" d="M5.41748 7.5C5.69362 7.5 5.91748 7.72386 5.91748 8L5.91748 9.46906C5.91748 9.7452 5.69362 9.96906 5.41748 9.96906C5.14134 9.96906 4.91748 9.7452 4.91748 9.46906L4.91748 8C4.91748 7.72386 5.14134 7.5 5.41748 7.5Z" fill="currentColor"/><path fill-rule="evenodd" clip-rule="evenodd" d="M7.47422 7.75456C7.745 7.80871 7.92061 8.07213 7.86645 8.34291L7.62161 9.56712C7.56746 9.8379 7.30404 10.0135 7.03326 9.95935C6.76248 9.90519 6.58688 9.64178 6.64103 9.371L6.88587 8.14679C6.94003 7.87601 7.20344 7.7004 7.47422 7.75456Z" fill="currentColor"/><path fill-rule="evenodd" clip-rule="evenodd" d="M3.36062 7.75456C3.08984 7.80871 2.91423 8.07213 2.96838 8.34291L3.21323 9.56712C3.26738 9.8379 3.5308 10.0135 3.80157 9.95935C4.07235 9.90519 4.24796 9.64178 4.19381 9.371L3.94896 8.14679C3.89481 7.87601 3.6314 7.7004 3.36062 7.75456Z" fill="currentColor"/><path fill-rule="evenodd" clip-rule="evenodd" d="M1.24265 8.5507C1.00586 8.69277 0.929073 8.9999 1.07115 9.23669L1.80568 10.4609C1.94775 10.6977 2.25488 10.7745 2.49167 10.6324C2.72846 10.4903 2.80524 10.1832 2.66317 9.94641L1.92864 8.7222C1.78657 8.48541 1.47944 8.40863 1.24265 8.5507Z" fill="currentColor"/><path fill-rule="evenodd" clip-rule="evenodd" d="M9.59207 8.55058C9.82886 8.69265 9.90564 8.99978 9.76357 9.23657L9.02904 10.4608C8.88697 10.6976 8.57984 10.7744 8.34305 10.6323C8.10626 10.4902 8.02947 10.1831 8.17155 9.94629L8.90608 8.72208C9.04815 8.48529 9.35528 8.4085 9.59207 8.55058Z" fill="currentColor"/><path d="M5.42004 10.4C6.1104 10.4 6.67004 10.9597 6.67004 11.65C6.67004 12.3404 6.1104 12.9 5.42004 12.9C4.72969 12.9 4.17004 12.3404 4.17004 11.65C4.17004 10.9597 4.72969 10.4 5.42004 10.4Z" fill="currentColor"/><path fill-rule="evenodd" clip-rule="evenodd" d="M4.67004 11.65C4.67004 12.0642 5.00583 12.4 5.42004 12.4C5.83426 12.4 6.17004 12.0642 6.17004 11.65C6.17004 11.2358 5.83426 10.9 5.42004 10.9C5.00583 10.9 4.67004 11.2358 4.67004 11.65ZM5.42004 13.4C4.45355 13.4 3.67004 12.6165 3.67004 11.65C3.67004 10.6835 4.45355 9.90002 5.42004 9.90002C6.38654 9.90002 7.17004 10.6835 7.17004 11.65C7.17004 12.6165 6.38654 13.4 5.42004 13.4Z" fill="currentColor"/></g></g><path fill-rule="evenodd" clip-rule="evenodd" d="M13 24.5C19.3513 24.5 24.5 19.3513 24.5 13C24.5 6.64873 19.3513 1.5 13 1.5C6.64873 1.5 1.5 6.64873 1.5 13C1.5 19.3513 6.64873 24.5 13 24.5ZM13 25.5C19.9036 25.5 25.5 19.9036 25.5 13C25.5 6.09644 19.9036 0.5 13 0.5C6.09644 0.5 0.5 6.09644 0.5 13C0.5 19.9036 6.09644 25.5 13 25.5Z" fill="currentColor"/></svg>