<svg width="20" height="20" viewBox="0 0 26 26" fill="none" xmlns="http://www.w3.org/2000/svg"><path opacity="0.2" fill-rule="evenodd" clip-rule="evenodd" d="M13.5 26C20.4036 26 26 20.4036 26 13.5C26 6.59644 20.4036 1 13.5 1C6.59644 1 1 6.59644 1 13.5C1 20.4036 6.59644 26 13.5 26ZM13.5 24C19.299 24 24 19.299 24 13.5C24 7.70101 19.299 3 13.5 3C7.70101 3 3 7.70101 3 13.5C3 19.299 7.70101 24 13.5 24Z" fill="currentColor"/><g transform="translate(3, 3)"><g opacity="0.2"><path fill-rule="evenodd" clip-rule="evenodd" d="M2 4.5C2 3.67157 2.67157 3 3.5 3H18.5C19.3284 3 20 3.67157 20 4.5V14.5C20 15.3284 19.3284 16 18.5 16H13.5V18.5C13.5 18.5863 13.4891 18.6701 13.4685 18.75H15.5C15.7761 18.75 16 18.9739 16 19.25C16 19.5261 15.7761 19.75 15.5 19.75H6.5C6.22386 19.75 6 19.5261 6 19.25C6 18.9739 6.22386 18.75 6.5 18.75H8.5315C8.51094 18.6701 8.5 18.5863 8.5 18.5V16H3.5C2.67157 16 2 15.3284 2 14.5V4.5Z" fill="currentColor"/></g><path fill-rule="evenodd" clip-rule="evenodd" d="M17.5 1.5H2.5C1.39543 1.5 0.5 2.39543 0.5 3.5V13.5C0.5 14.6046 1.39543 15.5 2.5 15.5H17.5C18.6046 15.5 19.5 14.6046 19.5 13.5V3.5C19.5 2.39543 18.6046 1.5 17.5 1.5ZM1.5 3.5C1.5 2.94772 1.94772 2.5 2.5 2.5H17.5C18.0523 2.5 18.5 2.94772 18.5 3.5V13.5C18.5 14.0523 18.0523 14.5 17.5 14.5H2.5C1.94772 14.5 1.5 14.0523 1.5 13.5V3.5Z" fill="currentColor"/><path d="M10 14C9.58579 14 9.25 13.6642 9.25 13.25C9.25 12.8358 9.58579 12.5 10 12.5C10.4142 12.5 10.75 12.8358 10.75 13.25C10.75 13.6642 10.4142 14 10 14Z" fill="currentColor"/><path fill-rule="evenodd" clip-rule="evenodd" d="M11.5 14.5H8.5C7.94772 14.5 7.5 14.9477 7.5 15.5V18C7.5 18.5523 7.94772 19 8.5 19H11.5C12.0523 19 12.5 18.5523 12.5 18V15.5C12.5 14.9477 12.0523 14.5 11.5 14.5ZM8.5 18V15.5H11.5V18H8.5Z" fill="currentColor"/><path d="M5.5 19C5.22386 19 5 18.7761 5 18.5C5 18.2239 5.22386 18 5.5 18H14.5C14.7761 18 15 18.2239 15 18.5C15 18.7761 14.7761 19 14.5 19H5.5Z" fill="currentColor"/><path fill-rule="evenodd" clip-rule="evenodd" d="M19 12H1V11H19V12Z" fill="currentColor"/></g><path fill-rule="evenodd" clip-rule="evenodd" d="M13 24.5C19.3513 24.5 24.5 19.3513 24.5 13C24.5 6.64873 19.3513 1.5 13 1.5C6.64873 1.5 1.5 6.64873 1.5 13C1.5 19.3513 6.64873 24.5 13 24.5ZM13 25.5C19.9036 25.5 25.5 19.9036 25.5 13C25.5 6.09644 19.9036 0.5 13 0.5C6.09644 0.5 0.5 6.09644 0.5 13C0.5 19.9036 6.09644 25.5 13 25.5Z" fill="currentColor"/></svg>