<svg width="20" height="20" viewBox="0 0 20 20" fill="none" xmlns="http://www.w3.org/2000/svg"><g opacity="0.2"><path fill-rule="evenodd" clip-rule="evenodd" d="M2 4.5C2 3.67157 2.67157 3 3.5 3H18.5C19.3284 3 20 3.67157 20 4.5V14.5C20 15.3284 19.3284 16 18.5 16H13.5V18.5C13.5 18.5863 13.4891 18.6701 13.4685 18.75H15.5C15.7761 18.75 16 18.9739 16 19.25C16 19.5261 15.7761 19.75 15.5 19.75H6.5C6.22386 19.75 6 19.5261 6 19.25C6 18.9739 6.22386 18.75 6.5 18.75H8.5315C8.51094 18.6701 8.5 18.5863 8.5 18.5V16H3.5C2.67157 16 2 15.3284 2 14.5V4.5Z" fill="currentColor"/></g><path fill-rule="evenodd" clip-rule="evenodd" d="M17.5 1.5H2.5C1.39543 1.5 0.5 2.39543 0.5 3.5V13.5C0.5 14.6046 1.39543 15.5 2.5 15.5H17.5C18.6046 15.5 19.5 14.6046 19.5 13.5V3.5C19.5 2.39543 18.6046 1.5 17.5 1.5ZM1.5 3.5C1.5 2.94772 1.94772 2.5 2.5 2.5H17.5C18.0523 2.5 18.5 2.94772 18.5 3.5V13.5C18.5 14.0523 18.0523 14.5 17.5 14.5H2.5C1.94772 14.5 1.5 14.0523 1.5 13.5V3.5Z" fill="currentColor"/><path d="M10 14C9.58579 14 9.25 13.6642 9.25 13.25C9.25 12.8358 9.58579 12.5 10 12.5C10.4142 12.5 10.75 12.8358 10.75 13.25C10.75 13.6642 10.4142 14 10 14Z" fill="currentColor"/><path fill-rule="evenodd" clip-rule="evenodd" d="M11.5 14.5H8.5C7.94772 14.5 7.5 14.9477 7.5 15.5V18C7.5 18.5523 7.94772 19 8.5 19H11.5C12.0523 19 12.5 18.5523 12.5 18V15.5C12.5 14.9477 12.0523 14.5 11.5 14.5ZM8.5 18V15.5H11.5V18H8.5Z" fill="currentColor"/><path d="M5.5 19C5.22386 19 5 18.7761 5 18.5C5 18.2239 5.22386 18 5.5 18H14.5C14.7761 18 15 18.2239 15 18.5C15 18.7761 14.7761 19 14.5 19H5.5Z" fill="currentColor"/><path fill-rule="evenodd" clip-rule="evenodd" d="M19 12H1V11H19V12Z" fill="currentColor"/></svg>