<svg xmlns="http://www.w3.org/2000/svg" style="" width="20" height="20" viewBox="0 0 20 20"><g fill="none" fill-rule="evenodd"><g fill="currentColor" stroke="currentColor" opacity=".8" transform="rotate(-90 11.75 8.75)"><circle cx="15.5" cy="8.5" r="2.5"/><rect width="3" height="4" x="1.5" y="6.5" rx="1.5" transform="rotate(90 3 8.5)"/><g transform="translate(15 .5)"><path stroke-linecap="round" stroke-linejoin="round" stroke-width="1.5" d="M1.5 13.5v2m0-15v2"/><path stroke-linecap="square" d="M1.5 3.5l-.5 2m0 5l.5 2"/></g><path stroke-linecap="round" d="M13 8.5h0a4 4 0 0 1-4 4H6.5A1.5 1.5 0 0 1 5 11V6a1.5 1.5 0 0 1 1.5-1.5H9a4 4 0 0 1 4 4z"/></g><g stroke="#000" transform="rotate(-90 10.5 9)"><circle cx="7.5" cy="10.25" r="1" stroke-linecap="round" stroke-linejoin="round"/><circle cx="7.5" cy="6.75" r="1" stroke-linecap="round" stroke-linejoin="round"/><circle cx="15.5" cy="8.5" r="2.5"/><rect width="3" height="4" x="1.5" y="6.5" rx="1.5" transform="rotate(90 3 8.5)"/><g transform="translate(15 .5)"><path stroke-linecap="round" stroke-linejoin="round" stroke-width="1.5" d="M1.5 13.5v2m0-15v2"/><path stroke-linecap="square" d="M1.5 3.5l-.5 2m0 5l.5 2"/></g><path stroke-linecap="round" d="M13 8.5h0a4 4 0 0 1-4 4H6.5A1.5 1.5 0 0 1 5 11V6a1.5 1.5 0 0 1 1.5-1.5H9a4 4 0 0 1 4 4z"/></g></g></svg>