<svg width="20" height="20" viewBox="0 0 26 26" fill="none" xmlns="http://www.w3.org/2000/svg"><path opacity="0.2" d="M26 14C26 20.6274 20.6274 26 14 26C7.37258 26 2 20.6274 2 14C2 7.37258 7.37258 2 14 2C20.6274 2 26 7.37258 26 14Z" fill="currentColor"/><g transform="translate(3, 3)"><path d="M12.75 12C12.75 12.5523 12.3023 13 11.75 13C11.1977 13 10.75 12.5523 10.75 12C10.75 11.4477 11.1977 11 11.75 11C12.3023 11 12.75 11.4477 12.75 12Z" fill="currentColor"/><path d="M9.25 12C9.25 12.5523 8.80228 13 8.25 13C7.69772 13 7.25 12.5523 7.25 12C7.25 11.4477 7.69772 11 8.25 11C8.80228 11 9.25 11.4477 9.25 12Z" fill="currentColor"/><path fill-rule="evenodd" clip-rule="evenodd" d="M10 7C11.6569 7 13 5.65685 13 4C13 2.34315 11.6569 1 10 1C8.34315 1 7 2.34315 7 4C7 5.65685 8.34315 7 10 7ZM10 2C11.1046 2 12 2.89543 12 4C12 5.10457 11.1046 6 10 6C8.89543 6 8 5.10457 8 4C8 2.89543 8.89543 2 10 2Z" fill="currentColor"/><path fill-rule="evenodd" clip-rule="evenodd" d="M10.5 14H9.5C8.67157 14 8 14.6716 8 15.5V17.5C8 18.3284 8.67157 19 9.5 19H10.5C11.3284 19 12 18.3284 12 17.5V15.5C12 14.6716 11.3284 14 10.5 14ZM9 15.5C9 15.2239 9.22386 15 9.5 15H10.5C10.7761 15 11 15.2239 11 15.5V17.5C11 17.7761 10.7761 18 10.5 18H9.5C9.22386 18 9 17.7761 9 17.5V15.5Z" fill="currentColor"/><path d="M15.5 3.75C15.0858 3.75 14.75 3.41421 14.75 3C14.75 2.58579 15.0858 2.25 15.5 2.25H17.5C17.9142 2.25 18.25 2.58579 18.25 3C18.25 3.41421 17.9142 3.75 17.5 3.75H15.5Z" fill="currentColor"/><path d="M2.5 3.75C2.08579 3.75 1.75 3.41421 1.75 3C1.75 2.58579 2.08579 2.25 2.5 2.25H4.5C4.91421 2.25 5.25 2.58579 5.25 3C5.25 3.41421 4.91421 3.75 4.5 3.75H2.5Z" fill="currentColor"/><path d="M4.10634 3.36382L4.40831 2.39368L8.10634 3.13621L7.80437 4.10635L4.10634 3.36382Z" fill="currentColor"/><path d="M11.8937 3.13618L12.1956 4.10632L15.8937 3.36379L15.5917 2.39365L11.8937 3.13618Z" fill="currentColor"/><path fill-rule="evenodd" clip-rule="evenodd" d="M14.5 10.5C14.5 8.01472 12.4853 6 10 6C7.51472 6 5.5 8.01472 5.5 10.5V13C5.5 14.1046 6.39543 15 7.5 15H12.5C13.6046 15 14.5 14.1046 14.5 13V10.5ZM6.5 10.5C6.5 8.567 8.067 7 10 7C11.933 7 13.5 8.567 13.5 10.5V13C13.5 13.5523 13.0523 14 12.5 14H7.5C6.94772 14 6.5 13.5523 6.5 13V10.5Z" fill="currentColor"/></g><path fill-rule="evenodd" clip-rule="evenodd" d="M13 24.5C19.3513 24.5 24.5 19.3513 24.5 13C24.5 6.64873 19.3513 1.5 13 1.5C6.64873 1.5 1.5 6.64873 1.5 13C1.5 19.3513 6.64873 24.5 13 24.5ZM13 25.5C19.9036 25.5 25.5 19.9036 25.5 13C25.5 6.09644 19.9036 0.5 13 0.5C6.09644 0.5 0.5 6.09644 0.5 13C0.5 19.9036 6.09644 25.5 13 25.5Z" fill="currentColor"/></svg>