<svg width="20" height="20" viewBox="0 0 20 20" fill="none" xmlns="http://www.w3.org/2000/svg"><g><g opacity="0.2"><path fill-rule="evenodd" clip-rule="evenodd" d="M14.7064 6.34775C15.3428 5.81741 16.2886 5.90339 16.819 6.53981L20.1523 10.5398C20.6827 11.1762 20.5967 12.1221 19.9603 12.6524C19.3239 13.1828 18.378 13.0968 17.8477 12.4604L14.5143 8.46036C13.984 7.82395 14.07 6.8781 14.7064 6.34775Z" fill="currentColor"/><path fill-rule="evenodd" clip-rule="evenodd" d="M14.7064 16.6524C14.07 16.1221 13.984 15.1762 14.5143 14.5398L17.8477 10.5398C18.378 9.90339 19.3239 9.81741 19.9603 10.3478C20.5967 10.8781 20.6827 11.8239 20.1523 12.4604L16.819 16.4604C16.2886 17.0968 15.3428 17.1828 14.7064 16.6524Z" fill="currentColor"/><path fill-rule="evenodd" clip-rule="evenodd" d="M18.5 11.5C18.5 12.3284 17.8285 13 17 13L9.00004 13C8.17161 13 7.50004 12.3284 7.50004 11.5C7.50004 10.6716 8.17161 10 9.00004 10L17 10C17.8285 10 18.5 10.6716 18.5 11.5Z" fill="currentColor"/><path fill-rule="evenodd" clip-rule="evenodd" d="M9.29361 16.6524C8.6572 17.1827 7.71135 17.0967 7.181 16.4603L3.84767 12.4603C3.31733 11.8239 3.40331 10.8781 4.03973 10.3477C4.67614 9.81736 5.62199 9.90335 6.15234 10.5398L9.48567 14.5398C10.016 15.1762 9.93003 16.122 9.29361 16.6524Z" fill="currentColor"/><path fill-rule="evenodd" clip-rule="evenodd" d="M9.29361 6.34771C9.93003 6.87805 10.016 7.8239 9.48567 8.46031L6.15233 12.4603C5.62199 13.0967 4.67614 13.1827 4.03973 12.6524C3.40331 12.122 3.31732 11.1762 3.84767 10.5398L7.181 6.53976C7.71135 5.90335 8.6572 5.81736 9.29361 6.34771Z" fill="currentColor"/><path fill-rule="evenodd" clip-rule="evenodd" d="M5.49996 11.5001C5.49996 10.6717 6.17153 10.0001 6.99996 10.0001L15 10.0001C15.8284 10.0001 16.5 10.6717 16.5 11.5001C16.5 12.3285 15.8284 13.0001 15 13.0001L6.99996 13.0001C6.17153 13.0001 5.49996 12.3285 5.49996 11.5001Z" fill="currentColor"/></g><path fill-rule="evenodd" clip-rule="evenodd" d="M13.3466 5.61588C13.5587 5.4391 13.874 5.46776 14.0508 5.6799L17.3841 9.6799C17.5609 9.89203 17.5322 10.2073 17.3201 10.3841C17.1079 10.5609 16.7927 10.5322 16.6159 10.3201L13.2826 6.32008C13.1058 6.10794 13.1344 5.79266 13.3466 5.61588Z" fill="currentColor"/><path fill-rule="evenodd" clip-rule="evenodd" d="M13.3466 14.3841C13.1344 14.2073 13.1058 13.892 13.2826 13.6799L16.6159 9.6799C16.7927 9.46776 17.1079 9.4391 17.3201 9.61588C17.5322 9.79266 17.5609 10.1079 17.3841 10.3201L14.0508 14.3201C13.874 14.5322 13.5587 14.5609 13.3466 14.3841Z" fill="currentColor"/><path fill-rule="evenodd" clip-rule="evenodd" d="M3.50004 9.5L16.5 9.5C16.7762 9.5 17 9.72386 17 10C17 10.2761 16.7762 10.5 16.5 10.5L3.50004 10.5C3.2239 10.5 3.00004 10.2761 3.00004 10C3.00004 9.72386 3.2239 9.5 3.50004 9.5Z" fill="currentColor"/><path fill-rule="evenodd" clip-rule="evenodd" d="M6.65342 14.3841C6.44128 14.5609 6.126 14.5322 5.94922 14.3201L2.61589 10.3201C2.43911 10.108 2.46777 9.79268 2.67991 9.6159C2.89204 9.43912 3.20733 9.46778 3.38411 9.67992L6.71744 13.6799C6.89422 13.8921 6.86556 14.2073 6.65342 14.3841Z" fill="currentColor"/><path fill-rule="evenodd" clip-rule="evenodd" d="M6.65342 5.6159C6.86556 5.79268 6.89422 6.10797 6.71744 6.3201L3.38411 10.3201C3.20733 10.5322 2.89204 10.5609 2.67991 10.3841C2.46777 10.2073 2.4391 9.89206 2.61589 9.67992L5.94922 5.67992C6.126 5.46778 6.44128 5.43912 6.65342 5.6159Z" fill="currentColor"/><path fill-rule="evenodd" clip-rule="evenodd" d="M4.49995 10C4.49995 9.72386 4.72381 9.5 4.99995 9.5L13 9.5C13.2761 9.5 13.5 9.72386 13.5 10C13.5 10.2761 13.2761 10.5 13 10.5L4.99995 10.5C4.72381 10.5 4.49995 10.2761 4.49995 10Z" fill="currentColor"/></g></svg>