<svg width="20" height="20" viewBox="0 0 26 26" fill="none" xmlns="http://www.w3.org/2000/svg"><path opacity="0.2" fill-rule="evenodd" clip-rule="evenodd" d="M13.5 26C20.4036 26 26 20.4036 26 13.5C26 6.59644 20.4036 1 13.5 1C6.59644 1 1 6.59644 1 13.5C1 20.4036 6.59644 26 13.5 26ZM13.5 24C19.299 24 24 19.299 24 13.5C24 7.70101 19.299 3 13.5 3C7.70101 3 3 7.70101 3 13.5C3 19.299 7.70101 24 13.5 24Z" fill="currentColor"/><g transform="translate(3, 3)"><g opacity="0.2"><path fill-rule="evenodd" clip-rule="evenodd" d="M6.34767 8.29361C5.81732 7.6572 5.90331 6.71135 6.53972 6.181L10.5397 2.84767C11.1761 2.31733 12.122 2.40331 12.6523 3.03973C13.1827 3.67614 13.0967 4.62199 12.4603 5.15234L8.46028 8.48567C7.82386 9.01601 6.87801 8.93003 6.34767 8.29361Z" fill="currentColor"/><path fill-rule="evenodd" clip-rule="evenodd" d="M16.6523 8.29361C16.122 8.93003 15.1761 9.01601 14.5397 8.48567L10.5397 5.15234C9.90331 4.62199 9.81732 3.67614 10.3477 3.03973C10.878 2.40331 11.8239 2.31733 12.4603 2.84767L16.4603 6.181C17.0967 6.71135 17.1827 7.6572 16.6523 8.29361Z" fill="currentColor"/><path fill-rule="evenodd" clip-rule="evenodd" d="M11.5 4.5C12.3284 4.5 13 5.17157 13 6V14C13 14.8284 12.3284 15.5 11.5 15.5C10.6716 15.5 10 14.8284 10 14V6C10 5.17157 10.6716 4.5 11.5 4.5Z" fill="currentColor"/><path fill-rule="evenodd" clip-rule="evenodd" d="M16.6523 13.7065C17.1827 14.3429 17.0967 15.2888 16.4603 15.8191L12.4603 19.1525C11.8239 19.6828 10.878 19.5968 10.3477 18.9604C9.81732 18.324 9.90331 17.3781 10.5397 16.8478L14.5397 13.5145C15.1761 12.9841 16.122 13.0701 16.6523 13.7065Z" fill="currentColor"/><path fill-rule="evenodd" clip-rule="evenodd" d="M6.34767 13.7065C6.87801 13.0701 7.82386 12.9841 8.46028 13.5145L12.4603 16.8478C13.0967 17.3781 13.1827 18.324 12.6523 18.9604C12.122 19.5968 11.1761 19.6828 10.5397 19.1525L6.53972 15.8191C5.90331 15.2888 5.81732 14.3429 6.34767 13.7065Z" fill="currentColor"/><path fill-rule="evenodd" clip-rule="evenodd" d="M11.5 17.5001C10.6716 17.5001 10 16.8285 10 16.0001V8.00012C10 7.17169 10.6716 6.50012 11.5 6.50012C12.3284 6.50012 13 7.17169 13 8.00012V16.0001C13 16.8285 12.3284 17.5001 11.5 17.5001Z" fill="currentColor"/></g><path fill-rule="evenodd" clip-rule="evenodd" d="M5.61589 6.65345C5.43911 6.44132 5.46777 6.12603 5.67991 5.94925L9.67991 2.61592C9.89205 2.43914 10.2073 2.4678 10.3841 2.67994C10.5609 2.89207 10.5322 3.20736 10.3201 3.38414L6.32009 6.71747C6.10796 6.89425 5.79267 6.86559 5.61589 6.65345Z" fill="currentColor"/><path fill-rule="evenodd" clip-rule="evenodd" d="M14.3841 6.65345C14.2073 6.86559 13.892 6.89425 13.6799 6.71747L9.67991 3.38414C9.46777 3.20736 9.43911 2.89207 9.61589 2.67994C9.79267 2.4678 10.108 2.43914 10.3201 2.61592L14.3201 5.94925C14.5322 6.12603 14.5609 6.44132 14.3841 6.65345Z" fill="currentColor"/><path fill-rule="evenodd" clip-rule="evenodd" d="M10 4.5C10.2761 4.5 10.5 4.72386 10.5 5V13C10.5 13.2761 10.2761 13.5 10 13.5C9.72386 13.5 9.5 13.2761 9.5 13V5C9.5 4.72386 9.72386 4.5 10 4.5Z" fill="currentColor"/><path fill-rule="evenodd" clip-rule="evenodd" d="M14.3841 13.3465C14.5609 13.5587 14.5322 13.874 14.3201 14.0507L10.3201 17.3841C10.108 17.5609 9.79268 17.5322 9.61589 17.3201C9.43911 17.1079 9.46777 16.7926 9.67991 16.6159L13.6799 13.2825C13.8921 13.1057 14.2073 13.1344 14.3841 13.3465Z" fill="currentColor"/><path fill-rule="evenodd" clip-rule="evenodd" d="M5.61589 13.3465C5.79268 13.1344 6.10796 13.1057 6.3201 13.2825L10.3201 16.6159C10.5322 16.7926 10.5609 17.1079 10.3841 17.3201C10.2073 17.5322 9.89205 17.5609 9.67991 17.3841L5.67991 14.0507C5.46777 13.874 5.43911 13.5587 5.61589 13.3465Z" fill="currentColor"/><path fill-rule="evenodd" clip-rule="evenodd" d="M10 17C9.72386 17 9.5 16.7761 9.5 16.5V3.5C9.5 3.22386 9.72386 3 10 3C10.2761 3 10.5 3.22386 10.5 3.5V16.5C10.5 16.7761 10.2761 17 10 17Z" fill="currentColor"/></g><path fill-rule="evenodd" clip-rule="evenodd" d="M13 24.5C19.3513 24.5 24.5 19.3513 24.5 13C24.5 6.64873 19.3513 1.5 13 1.5C6.64873 1.5 1.5 6.64873 1.5 13C1.5 19.3513 6.64873 24.5 13 24.5ZM13 25.5C19.9036 25.5 25.5 19.9036 25.5 13C25.5 6.09644 19.9036 0.5 13 0.5C6.09644 0.5 0.5 6.09644 0.5 13C0.5 19.9036 6.09644 25.5 13 25.5Z" fill="currentColor"/></svg>