<svg width="20" height="20" viewBox="0 0 26 26" fill="none" xmlns="http://www.w3.org/2000/svg"><path opacity="0.2" d="M26 14C26 20.6274 20.6274 26 14 26C7.37258 26 2 20.6274 2 14C2 7.37258 7.37258 2 14 2C20.6274 2 26 7.37258 26 14Z" fill="currentColor"/><g transform="translate(3, 3)"><g><path fill-rule="evenodd" clip-rule="evenodd" d="M13.3466 5.61588C13.5587 5.4391 13.874 5.46776 14.0508 5.6799L17.3841 9.6799C17.5609 9.89203 17.5322 10.2073 17.3201 10.3841C17.1079 10.5609 16.7927 10.5322 16.6159 10.3201L13.2826 6.32008C13.1058 6.10794 13.1344 5.79266 13.3466 5.61588Z" fill="currentColor"/><path fill-rule="evenodd" clip-rule="evenodd" d="M13.3466 14.3841C13.1344 14.2073 13.1058 13.892 13.2826 13.6799L16.6159 9.6799C16.7927 9.46776 17.1079 9.4391 17.3201 9.61588C17.5322 9.79266 17.5609 10.1079 17.3841 10.3201L14.0508 14.3201C13.874 14.5322 13.5587 14.5609 13.3466 14.3841Z" fill="currentColor"/><path fill-rule="evenodd" clip-rule="evenodd" d="M3.50004 9.5L16.5 9.5C16.7762 9.5 17 9.72386 17 10C17 10.2761 16.7762 10.5 16.5 10.5L3.50004 10.5C3.2239 10.5 3.00004 10.2761 3.00004 10C3.00004 9.72386 3.2239 9.5 3.50004 9.5Z" fill="currentColor"/><path fill-rule="evenodd" clip-rule="evenodd" d="M6.65342 14.3841C6.44128 14.5609 6.126 14.5322 5.94922 14.3201L2.61589 10.3201C2.43911 10.108 2.46777 9.79268 2.67991 9.6159C2.89204 9.43912 3.20733 9.46778 3.38411 9.67992L6.71744 13.6799C6.89422 13.8921 6.86556 14.2073 6.65342 14.3841Z" fill="currentColor"/><path fill-rule="evenodd" clip-rule="evenodd" d="M6.65342 5.6159C6.86556 5.79268 6.89422 6.10797 6.71744 6.3201L3.38411 10.3201C3.20733 10.5322 2.89204 10.5609 2.67991 10.3841C2.46777 10.2073 2.4391 9.89206 2.61589 9.67992L5.94922 5.67992C6.126 5.46778 6.44128 5.43912 6.65342 5.6159Z" fill="currentColor"/><path fill-rule="evenodd" clip-rule="evenodd" d="M4.49995 10C4.49995 9.72386 4.72381 9.5 4.99995 9.5L13 9.5C13.2761 9.5 13.5 9.72386 13.5 10C13.5 10.2761 13.2761 10.5 13 10.5L4.99995 10.5C4.72381 10.5 4.49995 10.2761 4.49995 10Z" fill="currentColor"/></g></g><path fill-rule="evenodd" clip-rule="evenodd" d="M13 24.5C19.3513 24.5 24.5 19.3513 24.5 13C24.5 6.64873 19.3513 1.5 13 1.5C6.64873 1.5 1.5 6.64873 1.5 13C1.5 19.3513 6.64873 24.5 13 24.5ZM13 25.5C19.9036 25.5 25.5 19.9036 25.5 13C25.5 6.09644 19.9036 0.5 13 0.5C6.09644 0.5 0.5 6.09644 0.5 13C0.5 19.9036 6.09644 25.5 13 25.5Z" fill="currentColor"/></svg>