<svg width="20" height="20" viewBox="0 0 20 20" fill="none" xmlns="http://www.w3.org/2000/svg"><g opacity="0.2"><path fill-rule="evenodd" clip-rule="evenodd" d="M11.531 2.33645C15.8538 5.27397 18 7.40061 18 8.94299C18 10.4353 17.1791 11.6422 15.6041 12.5261C15.168 12.7708 14.6824 12.2944 14.9188 11.8537C15.3256 11.0953 15.1916 10.2468 14.4579 9.23688C14.0063 8.6153 13.438 8.09236 12.75 7.66769V15.6389C12.75 15.6558 12.7496 15.6726 12.7487 15.6893C12.7496 15.7141 12.75 15.7389 12.75 15.7639C12.75 17.2459 11.2709 18.3889 9.5 18.3889C7.72914 18.3889 6.25 17.2459 6.25 15.7639C6.25 14.2818 7.72914 13.1389 9.5 13.1389C9.94085 13.1389 10.3636 13.2097 10.75 13.339V6.43384V5.63886V2.75C10.75 2.34864 11.1991 2.11086 11.531 2.33645Z" fill="currentColor"/></g><path fill-rule="evenodd" clip-rule="evenodd" d="M16.75 7.80413C16.75 6.26176 14.6038 4.13512 10.281 1.19759C9.94906 0.972008 9.5 1.20978 9.5 1.61114V5.29498C9.5 5.51063 9.63826 5.70198 9.84301 5.76969C11.3174 6.25731 12.434 7.03285 13.2079 8.09803C13.9416 9.10793 14.0756 9.95646 13.6688 10.7148C13.4324 11.1555 13.918 11.632 14.3541 11.3872C15.9291 10.5034 16.75 9.29646 16.75 7.80413ZM10.5 4.94056V2.56389C13.9918 5.01467 15.75 6.82274 15.75 7.80413C15.75 8.5504 15.4721 9.19993 14.8955 9.76443C14.8758 9.04 14.5787 8.28357 14.0169 7.51024C13.1776 6.35503 12.0012 5.49802 10.5 4.94056Z" fill="currentColor"/><path d="M9.5 4.5C9.5 4.22386 9.72386 4 10 4C10.2761 4 10.5 4.22386 10.5 4.5V15C10.5 15.2761 10.2761 15.5 10 15.5C9.72386 15.5 9.5 15.2761 9.5 15V4.5Z" fill="currentColor"/><path fill-rule="evenodd" clip-rule="evenodd" d="M4.5 15C4.5 16.4083 5.8646 17.5 7.5 17.5C9.1354 17.5 10.5 16.4083 10.5 15C10.5 13.5917 9.1354 12.5 7.5 12.5C5.8646 12.5 4.5 13.5917 4.5 15ZM9.5 15C9.5 15.8008 8.62602 16.5 7.5 16.5C6.37398 16.5 5.5 15.8008 5.5 15C5.5 14.1992 6.37398 13.5 7.5 13.5C8.62602 13.5 9.5 14.1992 9.5 15Z" fill="currentColor"/></svg>