<svg xmlns="http://www.w3.org/2000/svg" width="20" height="20" viewBox="0 0 20 20">
  <g fill="none" fill-rule="evenodd">
    <g fill="#AB92F0" stroke="#AB92F0" transform="translate(8 4)">
      <path stroke-linecap="round" stroke-linejoin="round" stroke-width="1.5" d="M4.5,-0.388857232 C8.5,2.44259612 10.5,4.50692607 10.5,5.8041326 C10.5,7.10133914 9.81502583,8.15034952 8.4450775,8.95116377 C8.93147778,8.00662172 8.7724134,6.95761133 7.96788435,5.8041326 C7.1633553,4.65065387 6.00739385,3.81427016 4.5,3.29498146 L4.5,-0.388857232 Z"/>
      <path stroke-width="1.5" d="M2.5,15 C3.88071187,15 5,14.1045695 5,13 C5,11.8954305 3.88071187,11 2.5,11 C1.11928813,11 0,11.8954305 0,13 C0,14.1045695 1.11928813,15 2.5,15 Z"/>
      <path d="M4.25,1.5 L4.25,11.3244585 L5.25,12.74 L5.25,1.5 L4.25,1.5 Z"/>
    </g>
    <g stroke="#000" transform="translate(5 2)">
      <path stroke-linecap="round" stroke-linejoin="round" d="M5,-0.388857232 C9.16666667,2.44259612 11.25,4.50692607 11.25,5.8041326 C11.25,7.10133914 10.5364852,8.15034952 9.10945573,8.95116377 C9.61612269,8.00662172 9.45043063,6.95761133 8.61237953,5.8041326 C7.77432844,4.65065387 6.57020193,3.81427016 5,3.29498146 L5,-0.388857232 Z"/>
      <path d="M2.5,15 C3.88071187,15 5,14.1045695 5,13 C5,11.8954305 3.88071187,11 2.5,11 C1.11928813,11 0,11.8954305 0,13 C0,14.1045695 1.11928813,15 2.5,15 Z"/>
      <path fill="#000" d="M5,6.55655392 L5,13.057538 C5,12.9233722 5.10876285,12.8146093 5.24292862,12.8146093 C5.34646544,12.8146093 5.43862425,12.880232 5.47249254,12.9780727 L5,11.6131078 L5,6.55655392 Z"/>
    </g>
  </g>
</svg>
