<svg width="20" height="20" viewBox="0 0 20 20" fill="none" xmlns="http://www.w3.org/2000/svg"><g opacity="0.2"><path d="M11.6399 10.7474C12.0952 11.1458 12.0952 11.8541 11.6399 12.2525L6.15851 17.0488C5.51193 17.6145 4.50001 17.1553 4.50001 16.2962L4.50001 6.70373C4.50001 5.84457 5.51193 5.38539 6.15851 5.95115L11.6399 10.7474Z" fill="currentColor"/><path fill-rule="evenodd" clip-rule="evenodd" d="M11.9692 12.6288L6.48776 17.4251C5.51789 18.2737 4.00001 17.5849 4.00001 16.2962V6.70372C4.00001 5.41499 5.51789 4.72622 6.48776 5.57486L11.9692 10.3711C12.6522 10.9687 12.6522 12.0312 11.9692 12.6288ZM11.6399 12.2525C12.0952 11.8541 12.0952 11.1458 11.6399 10.7474L6.15851 5.95115C5.51193 5.38539 4.50001 5.84457 4.50001 6.70372L4.50001 16.2962C4.50001 17.1553 5.51193 17.6145 6.15851 17.0488L11.6399 12.2525Z" fill="currentColor"/><path d="M18.6399 10.7474C19.0952 11.1458 19.0952 11.8541 18.6399 12.2525L13.1585 17.0488C12.5119 17.6145 11.5 17.1553 11.5 16.2962V6.70373C11.5 5.84457 12.5119 5.38539 13.1585 5.95115L18.6399 10.7474Z" fill="currentColor"/><path fill-rule="evenodd" clip-rule="evenodd" d="M18.9692 12.6288L13.4878 17.4251C12.5179 18.2737 11 17.5849 11 16.2962V6.70372C11 5.41499 12.5179 4.72622 13.4878 5.57486L18.9692 10.3711C19.6522 10.9687 19.6522 12.0312 18.9692 12.6288ZM18.6399 12.2525C19.0952 11.8541 19.0952 11.1458 18.6399 10.7474L13.1585 5.95115C12.5119 5.38539 11.5 5.84457 11.5 6.70372V16.2962C11.5 17.1553 12.5119 17.6145 13.1585 17.0488L18.6399 12.2525Z" fill="currentColor"/><path fill-rule="evenodd" clip-rule="evenodd" d="M19 5.5C19.5523 5.5 20 5.94772 20 6.5V16.5C20 17.0523 19.5523 17.5 19 17.5C18.4477 17.5 18 17.0523 18 16.5V6.5C18 5.94772 18.4477 5.5 19 5.5Z" fill="currentColor"/></g><path fill-rule="evenodd" clip-rule="evenodd" d="M3.5 14.7962L8.98141 9.99996L3.50001 5.20373L3.5 14.7962ZM9.63992 10.7525C10.0952 10.3541 10.0952 9.64579 9.63992 9.24738L4.15851 4.45115C3.51193 3.88539 2.50001 4.34457 2.50001 5.20373L2.50001 14.7962C2.50001 15.6554 3.51193 16.1145 4.15851 15.5488L9.63992 10.7525Z" fill="currentColor"/><path fill-rule="evenodd" clip-rule="evenodd" d="M10.5 14.7962L15.9814 9.99996L10.5 5.20373L10.5 14.7962ZM16.6399 10.7525C17.0952 10.3541 17.0952 9.64579 16.6399 9.24738L11.1585 4.45115C10.5119 3.88539 9.50001 4.34457 9.50001 5.20373V14.7962C9.50001 15.6554 10.5119 16.1145 11.1585 15.5488L16.6399 10.7525Z" fill="currentColor"/><path fill-rule="evenodd" clip-rule="evenodd" d="M17 4.5C17.2761 4.5 17.5 4.72386 17.5 5V15C17.5 15.2761 17.2761 15.5 17 15.5C16.7239 15.5 16.5 15.2761 16.5 15V5C16.5 4.72386 16.7239 4.5 17 4.5Z" fill="currentColor"/><path d="M1.15063 1.87794C0.94979 1.6771 0.94979 1.35147 1.15063 1.15063C1.35147 0.949789 1.6771 0.949789 1.87794 1.15063L18.8494 18.1221C19.0502 18.3229 19.0502 18.6485 18.8494 18.8494C18.6485 19.0502 18.3229 19.0502 18.1221 18.8494L1.15063 1.87794Z" fill="currentColor"/></svg>