<svg width="20" height="20" viewBox="0 0 20 20" fill="none" xmlns="http://www.w3.org/2000/svg"><g opacity="0.2"><path fill-rule="evenodd" clip-rule="evenodd" d="M5 11.5C5 7.35786 8.35786 4 12.5 4C16.6421 4 20 7.35786 20 11.5C20 15.6421 16.6421 19 12.5 19C8.35786 19 5 15.6421 5 11.5Z" fill="currentColor"/></g><path fill-rule="evenodd" clip-rule="evenodd" d="M10 3.5C6.41015 3.5 3.5 6.41015 3.5 10C3.5 13.5899 6.41015 16.5 10 16.5C13.5899 16.5 16.5 13.5899 16.5 10C16.5 6.41015 13.5899 3.5 10 3.5ZM2.5 10C2.5 5.85786 5.85786 2.5 10 2.5C14.1421 2.5 17.5 5.85786 17.5 10C17.5 14.1421 14.1421 17.5 10 17.5C5.85786 17.5 2.5 14.1421 2.5 10Z" fill="currentColor"/><path fill-rule="evenodd" clip-rule="evenodd" d="M15.3036 4.6965C15.4989 4.89176 15.4989 5.20834 15.3036 5.4036L5.4036 15.3036C5.20834 15.4989 4.89176 15.4989 4.6965 15.3036C4.50123 15.1083 4.50123 14.7918 4.6965 14.5965L14.5965 4.6965C14.7918 4.50123 15.1083 4.50123 15.3036 4.6965Z" fill="currentColor"/></svg>