<svg width="20" height="20" viewBox="0 0 26 26" fill="none" xmlns="http://www.w3.org/2000/svg"><path opacity="0.2" fill-rule="evenodd" clip-rule="evenodd" d="M13.5 26C20.4036 26 26 20.4036 26 13.5C26 6.59644 20.4036 1 13.5 1C6.59644 1 1 6.59644 1 13.5C1 20.4036 6.59644 26 13.5 26ZM13.5 24C19.299 24 24 19.299 24 13.5C24 7.70101 19.299 3 13.5 3C7.70101 3 3 7.70101 3 13.5C3 19.299 7.70101 24 13.5 24Z" fill="currentColor"/><g transform="translate(3, 3)"><g opacity="0.2"><path fill-rule="evenodd" clip-rule="evenodd" d="M5 11.5C5 7.35786 8.35786 4 12.5 4C16.6421 4 20 7.35786 20 11.5C20 15.6421 16.6421 19 12.5 19C8.35786 19 5 15.6421 5 11.5Z" fill="currentColor"/></g><path fill-rule="evenodd" clip-rule="evenodd" d="M10 3.5C6.41015 3.5 3.5 6.41015 3.5 10C3.5 13.5899 6.41015 16.5 10 16.5C13.5899 16.5 16.5 13.5899 16.5 10C16.5 6.41015 13.5899 3.5 10 3.5ZM2.5 10C2.5 5.85786 5.85786 2.5 10 2.5C14.1421 2.5 17.5 5.85786 17.5 10C17.5 14.1421 14.1421 17.5 10 17.5C5.85786 17.5 2.5 14.1421 2.5 10Z" fill="currentColor"/><path fill-rule="evenodd" clip-rule="evenodd" d="M15.3036 4.6965C15.4989 4.89176 15.4989 5.20834 15.3036 5.4036L5.4036 15.3036C5.20834 15.4989 4.89176 15.4989 4.6965 15.3036C4.50123 15.1083 4.50123 14.7918 4.6965 14.5965L14.5965 4.6965C14.7918 4.50123 15.1083 4.50123 15.3036 4.6965Z" fill="currentColor"/></g><path fill-rule="evenodd" clip-rule="evenodd" d="M13 24.5C19.3513 24.5 24.5 19.3513 24.5 13C24.5 6.64873 19.3513 1.5 13 1.5C6.64873 1.5 1.5 6.64873 1.5 13C1.5 19.3513 6.64873 24.5 13 24.5ZM13 25.5C19.9036 25.5 25.5 19.9036 25.5 13C25.5 6.09644 19.9036 0.5 13 0.5C6.09644 0.5 0.5 6.09644 0.5 13C0.5 19.9036 6.09644 25.5 13 25.5Z" fill="currentColor"/></svg>