<svg width="20" height="20" viewBox="0 0 26 26" fill="none" xmlns="http://www.w3.org/2000/svg"><path opacity="0.2" fill-rule="evenodd" clip-rule="evenodd" d="M13.5 26C20.4036 26 26 20.4036 26 13.5C26 6.59644 20.4036 1 13.5 1C6.59644 1 1 6.59644 1 13.5C1 20.4036 6.59644 26 13.5 26ZM13.5 24C19.299 24 24 19.299 24 13.5C24 7.70101 19.299 3 13.5 3C7.70101 3 3 7.70101 3 13.5C3 19.299 7.70101 24 13.5 24Z" fill="currentColor"/><g transform="translate(3, 3)"><g opacity="0.2"><path d="M7.58032 4L14.4197 4C14.7785 4 15.1099 4.19229 15.2879 4.50386L18.7165 10.5039C18.8922 10.8113 18.8922 11.1887 18.7165 11.4961L15.2879 17.4961C15.1099 17.8077 14.7785 18 14.4197 18L7.58032 18C7.22147 18 6.89012 17.8077 6.71208 17.4961L3.28351 11.4961C3.10783 11.1887 3.10783 10.8113 3.28351 10.5039L6.71208 4.50386C6.89012 4.19229 7.22147 4 7.58032 4Z" fill="currentColor"/><path fill-rule="evenodd" clip-rule="evenodd" d="M8.16065 6L5.3035 11L8.16065 16L13.8394 16L16.6965 11L13.8394 6L8.16065 6ZM14.4197 4L7.58032 4C7.22147 4 6.89012 4.19229 6.71208 4.50386L3.28351 10.5039C3.10783 10.8113 3.10783 11.1887 3.28351 11.4961L6.71208 17.4961C6.89012 17.8077 7.22147 18 7.58032 18L14.4197 18C14.7785 18 15.1099 17.8077 15.2879 17.4961L18.7165 11.4961C18.8922 11.1887 18.8922 10.8113 18.7165 10.5039L15.2879 4.50386C15.1099 4.19229 14.7785 4 14.4197 4Z" fill="currentColor"/></g><path fill-rule="evenodd" clip-rule="evenodd" d="M14.722 16.7442C14.455 17.2116 13.958 17.5 13.4197 17.5L6.58032 17.5C6.04204 17.5 5.54502 17.2116 5.27796 16.7442L1.84939 10.7442C1.58587 10.2831 1.58587 9.71694 1.84939 9.25579L5.27796 3.25579C5.54502 2.78843 6.04204 2.5 6.58032 2.5L13.4197 2.5C13.958 2.5 14.455 2.78843 14.722 3.25579L18.1506 9.25579C18.4141 9.71694 18.4141 10.2831 18.1506 10.7442L14.722 16.7442ZM13.4197 16.5C13.5991 16.5 13.7648 16.4039 13.8538 16.2481L17.2824 10.2481C17.3702 10.0944 17.3702 9.90565 17.2824 9.75193L13.8538 3.75193C13.7648 3.59614 13.5991 3.5 13.4197 3.5L6.58032 3.5C6.4009 3.5 6.23522 3.59614 6.1462 3.75193L2.71763 9.75193C2.62979 9.90564 2.62979 10.0944 2.71763 10.2481L6.1462 16.2481C6.23522 16.4039 6.4009 16.5 6.58032 16.5L13.4197 16.5Z" fill="currentColor"/><path fill-rule="evenodd" clip-rule="evenodd" d="M10 7.5C8.61929 7.5 7.5 8.61929 7.5 10C7.5 11.3807 8.61929 12.5 10 12.5C11.3807 12.5 12.5 11.3807 12.5 10C12.5 8.61929 11.3807 7.5 10 7.5ZM6.5 10C6.5 8.067 8.067 6.5 10 6.5C11.933 6.5 13.5 8.067 13.5 10C13.5 11.933 11.933 13.5 10 13.5C8.067 13.5 6.5 11.933 6.5 10Z" fill="currentColor"/></g><path fill-rule="evenodd" clip-rule="evenodd" d="M13 24.5C19.3513 24.5 24.5 19.3513 24.5 13C24.5 6.64873 19.3513 1.5 13 1.5C6.64873 1.5 1.5 6.64873 1.5 13C1.5 19.3513 6.64873 24.5 13 24.5ZM13 25.5C19.9036 25.5 25.5 19.9036 25.5 13C25.5 6.09644 19.9036 0.5 13 0.5C6.09644 0.5 0.5 6.09644 0.5 13C0.5 19.9036 6.09644 25.5 13 25.5Z" fill="currentColor"/></svg>