<svg width="20" height="20" viewBox="0 0 26 26" fill="none" xmlns="http://www.w3.org/2000/svg"><path opacity="0.2" fill-rule="evenodd" clip-rule="evenodd" d="M13.5 26C20.4036 26 26 20.4036 26 13.5C26 6.59644 20.4036 1 13.5 1C6.59644 1 1 6.59644 1 13.5C1 20.4036 6.59644 26 13.5 26ZM13.5 24C19.299 24 24 19.299 24 13.5C24 7.70101 19.299 3 13.5 3C7.70101 3 3 7.70101 3 13.5C3 19.299 7.70101 24 13.5 24Z" fill="currentColor"/><g transform="translate(3, 3)"><rect opacity="0.2" x="7" y="6" width="11" height="11" rx="1" fill="currentColor"/><path d="M14.5 14.5V11.25C14.5 10.9739 14.7239 10.75 15 10.75C15.2761 10.75 15.5 10.9739 15.5 11.25V15C15.5 15.2761 15.2761 15.5 15 15.5H5C4.72386 15.5 4.5 15.2761 4.5 15V5C4.5 4.72386 4.72386 4.5 5 4.5H8.75C9.02614 4.5 9.25 4.72386 9.25 5C9.25 5.27614 9.02614 5.5 8.75 5.5H5.5V14.5H14.5Z" fill="currentColor"/><path d="M10.3536 10.3536C10.1583 10.5488 9.84171 10.5488 9.64645 10.3536C9.45118 10.1583 9.45118 9.84171 9.64645 9.64645L14.6464 4.64645C14.8417 4.45118 15.1583 4.45118 15.3536 4.64645C15.5488 4.84171 15.5488 5.15829 15.3536 5.35355L10.3536 10.3536Z" fill="currentColor"/><path d="M15.5 8.5C15.5 8.77614 15.2761 9 15 9C14.7239 9 14.5 8.77614 14.5 8.5V5C14.5 4.72386 14.7239 4.5 15 4.5C15.2761 4.5 15.5 4.72386 15.5 5V8.5Z" fill="currentColor"/><path d="M11.5 5.5C11.2239 5.5 11 5.27614 11 5C11 4.72386 11.2239 4.5 11.5 4.5H15C15.2761 4.5 15.5 4.72386 15.5 5C15.5 5.27614 15.2761 5.5 15 5.5H11.5Z" fill="currentColor"/><path d="M1.15063 1.87794C0.94979 1.6771 0.94979 1.35147 1.15063 1.15063C1.35147 0.949789 1.6771 0.949789 1.87794 1.15063L18.8494 18.1221C19.0502 18.3229 19.0502 18.6485 18.8494 18.8494C18.6485 19.0502 18.3229 19.0502 18.1221 18.8494L1.15063 1.87794Z" fill="currentColor"/></g><path fill-rule="evenodd" clip-rule="evenodd" d="M13 24.5C19.3513 24.5 24.5 19.3513 24.5 13C24.5 6.64873 19.3513 1.5 13 1.5C6.64873 1.5 1.5 6.64873 1.5 13C1.5 19.3513 6.64873 24.5 13 24.5ZM13 25.5C19.9036 25.5 25.5 19.9036 25.5 13C25.5 6.09644 19.9036 0.5 13 0.5C6.09644 0.5 0.5 6.09644 0.5 13C0.5 19.9036 6.09644 25.5 13 25.5Z" fill="currentColor"/></svg>