<svg xmlns="http://www.w3.org/2000/svg" style="" style="" style="" width="20" height="20" viewBox="0 0 20 20"><g fill="none" fill-rule="evenodd"><g stroke="currentColor" opacity=".8" transform="translate(-.556 -.25)"><path fill="currentColor" stroke-linecap="round" stroke-linejoin="round" d="M11.037 6.657c-3.539-.948-9.627 1.419-8.445 4.762.663 1.878 3.557.298 4.423 1.706.865 1.409-1.006 3.752.77 5.665 2.442 2.63 7.136-1 8.033-4.35.898-3.35-1.243-6.835-4.781-7.783z"/><path fill="currentColor" d="M15.162 4.296l-.017.01a.498.498 0 0 0-.18.681l4.708 8.07c.041.071.13.097.203.058a.15.15 0 0 0 .064-.198l-4.092-8.4-.008-.015a.5.5 0 0 0-.676-.207l-.002.001z"/><path stroke-linecap="round" d="M14.956 4.043c.488-.26.734-.75.345-1.482S13.927.93 13.44 1.189c-.487.26-.293 1.58.096 2.31.39.732.934.803 1.421.544z"/></g><path stroke="#000" stroke-linecap="round" stroke-linejoin="round" d="M9.48 5.407c-3.538-.948-9.627 1.419-8.445 4.762.664 1.878 3.558.298 4.423 1.706.866 1.409-1.005 3.751.772 5.665 2.441 2.63 7.134-1 8.032-4.35.898-3.35-1.243-6.835-4.781-7.783z"/><circle cx="4.75" cy="8.25" r="1" fill="#000" stroke="#000"/><circle cx="8.75" cy="8.25" r="1" fill="#000" stroke="#000"/><circle cx="11.25" cy="11.25" r="1" fill="#000" stroke="#000"/><circle cx="9.75" cy="14.75" r="1" fill="#000" stroke="#000"/><path fill="#000" stroke="#000" d="M13.605 4.046l-.017.01a.498.498 0 0 0-.179.681l4.708 8.07c.04.071.13.096.203.058a.15.15 0 0 0 .064-.198l-4.092-8.4-.008-.015a.5.5 0 0 0-.676-.207l-.003.001z"/><path stroke="#000" stroke-linecap="round" d="M13.4 3.793c.488-.26.734-.75.345-1.482-.39-.732-1.374-1.631-1.862-1.372-.488.26-.293 1.58.096 2.31.389.732.933.803 1.421.544z"/></g></svg>