<svg width="20" height="20" viewBox="0 0 26 26" fill="none" xmlns="http://www.w3.org/2000/svg"><path opacity="0.2" fill-rule="evenodd" clip-rule="evenodd" d="M13.5 26C20.4036 26 26 20.4036 26 13.5C26 6.59644 20.4036 1 13.5 1C6.59644 1 1 6.59644 1 13.5C1 20.4036 6.59644 26 13.5 26ZM13.5 24C19.299 24 24 19.299 24 13.5C24 7.70101 19.299 3 13.5 3C7.70101 3 3 7.70101 3 13.5C3 19.299 7.70101 24 13.5 24Z" fill="currentColor"/><g transform="translate(3, 3)"><g><g opacity="0.2"><path d="M10.5896 5.93864C14.3891 6.95671 16.6954 10.711 15.7246 14.3342C14.6313 18.4146 9.42662 21.6777 6.84274 18.8947C6.01967 18.0082 5.80843 17.0333 5.95296 15.7336C5.97792 15.5091 5.99947 15.3622 6.06577 14.9399C6.22776 13.9081 6.22599 13.5002 6.01192 13.1518C5.80534 12.8155 5.43446 12.7294 4.33401 12.7156C4.28019 12.7149 4.28019 12.7149 4.22591 12.7142C2.67773 12.6922 1.92684 12.4348 1.54351 11.3506C0.274887 7.76224 6.32303 4.79543 10.5896 5.93864Z" fill="currentColor"/><path fill-rule="evenodd" clip-rule="evenodd" d="M13.8426 4.43006C13.3311 4.40927 12.8607 4.09221 12.5375 3.48435C11.9801 2.43603 11.8585 0.917407 12.6482 0.497495C13.438 0.0775839 14.6289 1.02762 15.1863 2.07593C15.4869 2.64121 15.5076 3.17152 15.2927 3.59351C15.4711 3.68323 15.6244 3.82716 15.7253 4.01687C15.7308 4.02728 15.7362 4.03778 15.7413 4.04837L19.8336 12.4482C19.9869 12.7628 19.8635 13.1423 19.5545 13.3065C19.2452 13.471 18.8612 13.3618 18.6847 13.0592L13.9771 4.98894C13.8746 4.81319 13.8318 4.61905 13.8426 4.43006Z" fill="currentColor"/></g><path fill-rule="evenodd" clip-rule="evenodd" d="M14.7246 13.3342C15.6954 9.71095 13.3891 5.95668 9.58956 4.93861C5.32303 3.7954 -0.725113 6.76221 0.543511 10.3505C0.926836 11.4348 1.67773 11.6922 3.22591 11.7141L3.33401 11.7156C4.43446 11.7294 4.80534 11.8155 5.01192 12.1517C5.22599 12.5002 5.22776 12.9081 5.06577 13.9399C4.99947 14.3622 4.97792 14.509 4.95296 14.7336C4.80843 16.0333 5.01967 17.0081 5.84274 17.8946C8.42662 20.6776 13.6313 17.4146 14.7246 13.3342ZM1.48632 10.0172C0.577621 7.44693 5.70337 4.93259 9.33074 5.90454C12.6082 6.78273 14.5833 9.99776 13.7587 13.0753C12.8355 16.5206 8.47174 19.2565 6.57558 17.2142C5.98161 16.5745 5.83147 15.8816 5.94683 14.8441C5.96952 14.64 5.98985 14.5015 6.05367 14.095C6.2538 12.8202 6.25136 12.2589 5.86397 11.6283C5.3993 10.8719 4.80502 10.734 3.34657 10.7156L3.24008 10.7142C2.08097 10.6978 1.67812 10.5597 1.48632 10.0172Z" fill="currentColor"/><path d="M4.75 9.5C4.05964 9.5 3.5 8.94036 3.5 8.25C3.5 7.55964 4.05964 7 4.75 7C5.44036 7 6 7.55964 6 8.25C6 8.94036 5.44036 9.5 4.75 9.5Z" fill="currentColor"/><path d="M8.75 9.5C8.05964 9.5 7.5 8.94036 7.5 8.25C7.5 7.55964 8.05964 7 8.75 7C9.44036 7 10 7.55964 10 8.25C10 8.94036 9.44036 9.5 8.75 9.5Z" fill="currentColor"/><path d="M11.25 12.5C10.5596 12.5 10 11.9404 10 11.25C10 10.5596 10.5596 10 11.25 10C11.9404 10 12.5 10.5596 12.5 11.25C12.5 11.9404 11.9404 12.5 11.25 12.5Z" fill="currentColor"/><path d="M9.75 16C9.05964 16 8.5 15.4404 8.5 14.75C8.5 14.0596 9.05964 13.5 9.75 13.5C10.4404 13.5 11 14.0596 11 14.75C11 15.4404 10.4404 16 9.75 16Z" fill="currentColor"/><path d="M13.3707 3.60451C13.8605 3.34411 14.466 3.52923 14.7253 4.01686C14.7308 4.02727 14.7362 4.03777 14.7413 4.04836L18.8336 12.4482C18.9869 12.7628 18.8635 13.1422 18.5545 13.3065C18.2452 13.471 17.8612 13.3618 17.6847 13.0592L12.9771 4.98893C12.6993 4.5127 12.8602 3.90144 13.3364 3.62364C13.3477 3.61704 13.3592 3.61066 13.3707 3.60451Z" fill="currentColor"/><path fill-rule="evenodd" clip-rule="evenodd" d="M11.5375 3.48434C12.0238 4.39897 12.8434 4.65522 13.6347 4.23444C14.4262 3.81362 14.6726 2.99053 14.1863 2.07592C13.6289 1.0276 12.438 0.0775719 11.6482 0.497483C10.8585 0.917395 10.9801 2.43602 11.5375 3.48434ZM12.4204 3.01486C12.2581 2.70947 12.1315 2.26269 12.1007 1.8773C12.0806 1.62643 12.1063 1.45889 12.1151 1.40204C12.1171 1.38903 12.1182 1.38181 12.1176 1.38073C12.1183 1.38172 12.1245 1.38462 12.1356 1.38985C12.1866 1.41372 12.3408 1.48594 12.5391 1.64416C12.8414 1.88525 13.141 2.24 13.3034 2.54539C13.5316 2.97464 13.4668 3.19118 13.1653 3.3515C12.8641 3.51165 12.6488 3.44435 12.4204 3.01486Z" fill="currentColor"/></g></g><path fill-rule="evenodd" clip-rule="evenodd" d="M13 24.5C19.3513 24.5 24.5 19.3513 24.5 13C24.5 6.64873 19.3513 1.5 13 1.5C6.64873 1.5 1.5 6.64873 1.5 13C1.5 19.3513 6.64873 24.5 13 24.5ZM13 25.5C19.9036 25.5 25.5 19.9036 25.5 13C25.5 6.09644 19.9036 0.5 13 0.5C6.09644 0.5 0.5 6.09644 0.5 13C0.5 19.9036 6.09644 25.5 13 25.5Z" fill="currentColor"/></svg>