<svg width="20" height="20" viewBox="0 0 20 20" fill="none" xmlns="http://www.w3.org/2000/svg"><g><g opacity="0.2"><path d="M1.87428 9.45439C1.40175 9.33081 1.36853 8.67265 1.82621 8.50212L17.5413 2.6468C17.9274 2.50295 18.3121 2.86161 18.1955 3.2568L13.4507 19.3421C13.3137 19.8065 12.6626 19.8245 12.5001 19.3684L9.69715 11.5002L1.87428 9.45439Z" fill="currentColor"/></g><path fill-rule="evenodd" clip-rule="evenodd" d="M0.874275 7.45439L8.69715 9.50024L11.5001 17.3684C11.6626 17.8245 12.3137 17.8065 12.4507 17.3421L17.1955 1.2568C17.3121 0.861613 16.9274 0.502948 16.5413 0.646803L0.82621 6.50212C0.368533 6.67265 0.401753 7.33081 0.874275 7.45439ZM2.65726 6.88705L15.9534 1.93302L11.9263 15.5851L9.55044 8.91561C9.49494 8.7598 9.36597 8.64152 9.20594 8.59967L2.65726 6.88705Z" fill="currentColor"/><path d="M16 1.29291L16.7071 2.00001L9 9.70712L8.29289 9.00001L16 1.29291Z" fill="currentColor"/></g><path d="M1.15063 1.87794C0.94979 1.6771 0.94979 1.35147 1.15063 1.15063C1.35147 0.949789 1.6771 0.949789 1.87794 1.15063L18.8494 18.1221C19.0502 18.3229 19.0502 18.6485 18.8494 18.8494C18.6485 19.0502 18.3229 19.0502 18.1221 18.8494L1.15063 1.87794Z" fill="currentColor"/></svg>