<svg width="20" height="20" viewBox="0 0 26 26" fill="none" xmlns="http://www.w3.org/2000/svg"><path opacity="0.2" fill-rule="evenodd" clip-rule="evenodd" d="M13.5 26C20.4036 26 26 20.4036 26 13.5C26 6.59644 20.4036 1 13.5 1C6.59644 1 1 6.59644 1 13.5C1 20.4036 6.59644 26 13.5 26ZM13.5 24C19.299 24 24 19.299 24 13.5C24 7.70101 19.299 3 13.5 3C7.70101 3 3 7.70101 3 13.5C3 19.299 7.70101 24 13.5 24Z" fill="currentColor"/><g transform="translate(3, 3)"><g><g opacity="0.2"><path fill-rule="evenodd" clip-rule="evenodd" d="M9.60887 3.49268C11.3241 1.69418 14.1725 1.62668 15.971 3.34191C17.7695 5.05714 17.837 7.90558 16.1218 9.70408L10.7734 15.3122C9.72504 16.4114 7.98406 16.4527 6.88481 15.4043C5.78593 14.3563 5.74427 12.616 6.79176 11.5167L11.276 6.81022C11.657 6.41037 12.29 6.39507 12.6898 6.77604C13.0897 7.15701 13.105 7.78999 12.724 8.18984L8.23973 12.8963C7.95394 13.1962 7.96531 13.671 8.26512 13.957C8.56504 14.243 9.04004 14.2318 9.32607 13.9318L14.6745 8.32377C15.6274 7.3246 15.5899 5.74214 14.5907 4.78923C13.5916 3.83632 12.0091 3.87382 11.0562 4.87299L6.2251 9.93862C5.84394 10.3383 5.21095 10.3533 4.81128 9.97212C4.41161 9.59096 4.39661 8.95797 4.77778 8.5583L9.60887 3.49268Z" fill="currentColor"/><path fill-rule="evenodd" clip-rule="evenodd" d="M5.32387 16.6793C4.95204 16.3247 4.59824 15.7539 4.28773 15.0748C3.68843 13.7641 4.11968 12.1462 5.29248 10.9164L9.67586 6.32027C10.057 5.9206 10.042 5.28762 9.64236 4.90645C9.24269 4.52529 8.6097 4.54029 8.22854 4.93996L3.84516 9.53614C2.29649 11.16 1.42844 13.631 2.46884 15.9065C2.82106 16.6768 3.30201 17.5148 3.94356 18.1267C4.57582 18.7296 5.41961 19.166 6.19462 19.4798C8.53894 20.4292 10.9906 19.4186 12.5387 17.7645L18.2301 11.6833C18.6075 11.2801 18.5866 10.6473 18.1834 10.2699C17.7801 9.89248 17.1473 9.91343 16.7699 10.3167L11.0784 16.3979C9.90472 17.652 8.29293 18.1718 6.94529 17.6261C6.26443 17.3503 5.6897 17.0282 5.32387 16.6793Z" fill="currentColor"/></g><path fill-rule="evenodd" clip-rule="evenodd" d="M9.45532 3.18773C10.98 1.58907 13.5119 1.52906 15.1106 3.05371C16.7093 4.57836 16.7693 7.11031 15.2446 8.70898L9.89618 14.3171C9.03841 15.2165 7.61393 15.2502 6.71451 14.3925C5.81539 13.535 5.78131 12.1111 6.63837 11.2115L11.1227 6.5051C11.3131 6.30518 11.6296 6.29752 11.8296 6.48801C12.0295 6.6785 12.0371 6.99499 11.8466 7.19491L7.36236 11.9014C6.88615 12.4012 6.90508 13.1923 7.40466 13.6688C7.90441 14.1454 8.69591 14.1266 9.17252 13.6269L14.5209 8.01882C15.6644 6.81982 15.6194 4.92086 14.4204 3.77737C13.2214 2.63389 11.3225 2.67889 10.179 3.87789L5.34789 8.94351C5.15731 9.14335 4.84081 9.15085 4.64098 8.96027C4.44115 8.76969 4.43365 8.45319 4.62423 8.25336L9.45532 3.18773Z" fill="currentColor"/><path fill-rule="evenodd" clip-rule="evenodd" d="M4.46344 16.3912C4.02418 15.9722 3.6386 15.3347 3.31766 14.6327C2.60809 13.0808 3.14853 11.2496 4.4153 9.92138L8.79868 5.3252C8.98926 5.12536 8.98176 4.80887 8.78193 4.61829C8.5821 4.42771 8.2656 4.43521 8.07502 4.63504L3.69164 9.23122C2.23694 10.7565 1.47809 13.0143 2.40821 15.0486C2.75001 15.7961 3.19917 16.5673 3.77329 17.1148C4.33895 17.6543 5.11546 18.0621 5.86694 18.3664C7.96209 19.2148 10.2038 18.327 11.6583 16.7729L17.3497 10.6917C17.5384 10.49 17.528 10.1736 17.3263 9.98493C17.1247 9.79624 16.8083 9.80672 16.6196 10.0083L10.9281 16.0895C9.66084 17.4436 7.83909 18.0861 6.24227 17.4395C5.53788 17.1543 4.89589 16.8036 4.46344 16.3912Z" fill="currentColor"/></g></g><path fill-rule="evenodd" clip-rule="evenodd" d="M13 24.5C19.3513 24.5 24.5 19.3513 24.5 13C24.5 6.64873 19.3513 1.5 13 1.5C6.64873 1.5 1.5 6.64873 1.5 13C1.5 19.3513 6.64873 24.5 13 24.5ZM13 25.5C19.9036 25.5 25.5 19.9036 25.5 13C25.5 6.09644 19.9036 0.5 13 0.5C6.09644 0.5 0.5 6.09644 0.5 13C0.5 19.9036 6.09644 25.5 13 25.5Z" fill="currentColor"/></svg>