<svg width="20" height="20" viewBox="0 0 26 26" fill="none" xmlns="http://www.w3.org/2000/svg"><path opacity="0.2" fill-rule="evenodd" clip-rule="evenodd" d="M13.5 26C20.4036 26 26 20.4036 26 13.5C26 6.59644 20.4036 1 13.5 1C6.59644 1 1 6.59644 1 13.5C1 20.4036 6.59644 26 13.5 26ZM13.5 24C19.299 24 24 19.299 24 13.5C24 7.70101 19.299 3 13.5 3C7.70101 3 3 7.70101 3 13.5C3 19.299 7.70101 24 13.5 24Z" fill="currentColor"/><g transform="translate(3, 3)"><g><g opacity="0.2"><path d="M1.87428 9.45439C1.40175 9.33081 1.36853 8.67265 1.82621 8.50212L17.5413 2.6468C17.9274 2.50295 18.3121 2.86161 18.1955 3.2568L13.4507 19.3421C13.3137 19.8065 12.6626 19.8245 12.5001 19.3684L9.69715 11.5002L1.87428 9.45439Z" fill="currentColor"/></g><path fill-rule="evenodd" clip-rule="evenodd" d="M0.874275 7.45439L8.69715 9.50024L11.5001 17.3684C11.6626 17.8245 12.3137 17.8065 12.4507 17.3421L17.1955 1.2568C17.3121 0.861613 16.9274 0.502948 16.5413 0.646803L0.82621 6.50212C0.368533 6.67265 0.401753 7.33081 0.874275 7.45439ZM2.65726 6.88705L15.9534 1.93302L11.9263 15.5851L9.55044 8.91561C9.49494 8.7598 9.36597 8.64152 9.20594 8.59967L2.65726 6.88705Z" fill="currentColor"/><path d="M16 1.29291L16.7071 2.00001L9 9.70712L8.29289 9.00001L16 1.29291Z" fill="currentColor"/></g></g><path fill-rule="evenodd" clip-rule="evenodd" d="M13 24.5C19.3513 24.5 24.5 19.3513 24.5 13C24.5 6.64873 19.3513 1.5 13 1.5C6.64873 1.5 1.5 6.64873 1.5 13C1.5 19.3513 6.64873 24.5 13 24.5ZM13 25.5C19.9036 25.5 25.5 19.9036 25.5 13C25.5 6.09644 19.9036 0.5 13 0.5C6.09644 0.5 0.5 6.09644 0.5 13C0.5 19.9036 6.09644 25.5 13 25.5Z" fill="currentColor"/></svg>