<svg width="20" height="20" viewBox="0 0 20 20" fill="none" xmlns="http://www.w3.org/2000/svg"><g opacity="0.2"><path d="M7 7C7 5.89543 7.89543 5 9 5C10.1046 5 11 5.89543 11 7V15C11 16.1046 10.1046 17 9 17C7.89543 17 7 16.1046 7 15V7Z" fill="currentColor"/><path fill-rule="evenodd" clip-rule="evenodd" d="M11.5 7V15C11.5 16.3807 10.3807 17.5 9 17.5C7.61929 17.5 6.5 16.3807 6.5 15V7C6.5 5.61929 7.61929 4.5 9 4.5C10.3807 4.5 11.5 5.61929 11.5 7ZM9 5C7.89543 5 7 5.89543 7 7V15C7 16.1046 7.89543 17 9 17C10.1046 17 11 16.1046 11 15V7C11 5.89543 10.1046 5 9 5Z" fill="currentColor"/><path d="M13 7C13 5.89543 13.8954 5 15 5C16.1046 5 17 5.89543 17 7V15C17 16.1046 16.1046 17 15 17C13.8954 17 13 16.1046 13 15V7Z" fill="currentColor"/><path fill-rule="evenodd" clip-rule="evenodd" d="M17.5 7V15C17.5 16.3807 16.3807 17.5 15 17.5C13.6193 17.5 12.5 16.3807 12.5 15V7C12.5 5.61929 13.6193 4.5 15 4.5C16.3807 4.5 17.5 5.61929 17.5 7ZM15 5C13.8954 5 13 5.89543 13 7V15C13 16.1046 13.8954 17 15 17C16.1046 17 17 16.1046 17 15V7C17 5.89543 16.1046 5 15 5Z" fill="currentColor"/></g><path fill-rule="evenodd" clip-rule="evenodd" d="M8 14V6C8 5.44772 7.55228 5 7 5C6.44772 5 6 5.44772 6 6V14C6 14.5523 6.44772 15 7 15C7.55228 15 8 14.5523 8 14ZM7 4C5.89543 4 5 4.89543 5 6V14C5 15.1046 5.89543 16 7 16C8.10457 16 9 15.1046 9 14V6C9 4.89543 8.10457 4 7 4Z" fill="currentColor"/><path fill-rule="evenodd" clip-rule="evenodd" d="M14 14V6C14 5.44772 13.5523 5 13 5C12.4477 5 12 5.44772 12 6V14C12 14.5523 12.4477 15 13 15C13.5523 15 14 14.5523 14 14ZM13 4C11.8954 4 11 4.89543 11 6V14C11 15.1046 11.8954 16 13 16C14.1046 16 15 15.1046 15 14V6C15 4.89543 14.1046 4 13 4Z" fill="currentColor"/><path d="M1.15063 1.87794C0.94979 1.6771 0.94979 1.35147 1.15063 1.15063C1.35147 0.949789 1.6771 0.949789 1.87794 1.15063L18.8494 18.1221C19.0502 18.3229 19.0502 18.6485 18.8494 18.8494C18.6485 19.0502 18.3229 19.0502 18.1221 18.8494L1.15063 1.87794Z" fill="currentColor"/></svg>