<svg width="20" height="20" viewBox="0 0 26 26" fill="none" xmlns="http://www.w3.org/2000/svg"><path opacity="0.2" fill-rule="evenodd" clip-rule="evenodd" d="M13.5 26C20.4036 26 26 20.4036 26 13.5C26 6.59644 20.4036 1 13.5 1C6.59644 1 1 6.59644 1 13.5C1 20.4036 6.59644 26 13.5 26ZM13.5 24C19.299 24 24 19.299 24 13.5C24 7.70101 19.299 3 13.5 3C7.70101 3 3 7.70101 3 13.5C3 19.299 7.70101 24 13.5 24Z" fill="currentColor"/><g transform="translate(3, 3)"><path opacity="0.2" fill-rule="evenodd" clip-rule="evenodd" d="M5.55736 12.7633C5.57351 12.6582 5.62278 12.5609 5.69802 12.4857L15.0919 3.09183C15.2871 2.89657 15.6037 2.89657 15.799 3.09183L19.4241 6.71692C19.6193 6.91219 19.6193 7.22877 19.4241 7.42403L10.0302 16.8179C9.95498 16.8931 9.85771 16.9424 9.75254 16.9585L5.46989 17.6161C5.31252 17.6402 5.15304 17.588 5.04046 17.4754C4.92787 17.3628 4.87564 17.2034 4.8998 17.046L5.55736 12.7633Z" fill="currentColor"/><path fill-rule="evenodd" clip-rule="evenodd" d="M3.94434 11.7906C3.96048 11.6854 4.00976 11.5882 4.08499 11.5129L14.1629 1.435C14.3582 1.23974 14.6748 1.23974 14.87 1.435L18.7591 5.32409C18.9544 5.51935 18.9544 5.83594 18.7591 6.0312L8.68119 16.1091C8.60595 16.1844 8.50868 16.2336 8.40351 16.2498L3.80898 16.9552C3.65161 16.9794 3.49213 16.9272 3.37955 16.8146C3.26696 16.702 3.21473 16.5425 3.23889 16.3851L3.94434 11.7906ZM4.9079 12.1042L4.33072 15.8634L8.08988 15.2862L17.6985 5.67764L14.5165 2.49566L4.9079 12.1042Z" fill="currentColor"/><path fill-rule="evenodd" clip-rule="evenodd" d="M15.4718 8.17283L11.9353 4.64246L12.6418 3.93474L16.1783 7.46511L15.4718 8.17283Z" fill="currentColor"/></g><path fill-rule="evenodd" clip-rule="evenodd" d="M13 24.5C19.3513 24.5 24.5 19.3513 24.5 13C24.5 6.64873 19.3513 1.5 13 1.5C6.64873 1.5 1.5 6.64873 1.5 13C1.5 19.3513 6.64873 24.5 13 24.5ZM13 25.5C19.9036 25.5 25.5 19.9036 25.5 13C25.5 6.09644 19.9036 0.5 13 0.5C6.09644 0.5 0.5 6.09644 0.5 13C0.5 19.9036 6.09644 25.5 13 25.5Z" fill="currentColor"/></svg>