<svg width="20" height="20" viewBox="0 0 26 26" fill="none" xmlns="http://www.w3.org/2000/svg"><path opacity="0.2" fill-rule="evenodd" clip-rule="evenodd" d="M13.5 26C20.4036 26 26 20.4036 26 13.5C26 6.59644 20.4036 1 13.5 1C6.59644 1 1 6.59644 1 13.5C1 20.4036 6.59644 26 13.5 26ZM13.5 24C19.299 24 24 19.299 24 13.5C24 7.70101 19.299 3 13.5 3C7.70101 3 3 7.70101 3 13.5C3 19.299 7.70101 24 13.5 24Z" fill="currentColor"/><g transform="translate(3, 3)"><g opacity="0.2"><path d="M9.75 7.75C9.75 9.40685 8.40685 10.75 6.75 10.75C5.09315 10.75 3.75 9.40685 3.75 7.75C3.75 6.09315 5.09315 4.75 6.75 4.75C8.40685 4.75 9.75 6.09315 9.75 7.75Z" fill="currentColor"/><path fill-rule="evenodd" clip-rule="evenodd" d="M6.75 8.75C7.30228 8.75 7.75 8.30228 7.75 7.75C7.75 7.19772 7.30228 6.75 6.75 6.75C6.19772 6.75 5.75 7.19772 5.75 7.75C5.75 8.30228 6.19772 8.75 6.75 8.75ZM6.75 10.75C8.40685 10.75 9.75 9.40685 9.75 7.75C9.75 6.09315 8.40685 4.75 6.75 4.75C5.09315 4.75 3.75 6.09315 3.75 7.75C3.75 9.40685 5.09315 10.75 6.75 10.75Z" fill="currentColor"/><path fill-rule="evenodd" clip-rule="evenodd" d="M6.80007 11.5C5.97162 11.5 5.30003 12.1716 5.30003 13L5.30002 14.5C5.30001 15.0523 4.8523 15.5 4.30001 15.5C3.74773 15.5 3.30001 15.0523 3.30002 14.5L3.30003 13C3.30004 11.067 4.86706 9.5 6.80007 9.5C8.73305 9.5 10.3 11.067 10.3 13V13.5C10.3 14.0523 9.85233 14.5 9.30004 14.5C8.74776 14.5 8.30004 14.0523 8.30004 13.5V13C8.30004 12.1716 7.62848 11.5 6.80007 11.5Z" fill="currentColor"/><path d="M12.75 7.75C12.75 9.40685 14.0931 10.75 15.75 10.75C17.4069 10.75 18.75 9.40685 18.75 7.75C18.75 6.09315 17.4069 4.75 15.75 4.75C14.0931 4.75 12.75 6.09315 12.75 7.75Z" fill="currentColor"/><path fill-rule="evenodd" clip-rule="evenodd" d="M15.75 8.75C15.1977 8.75 14.75 8.30228 14.75 7.75C14.75 7.19772 15.1977 6.75 15.75 6.75C16.3023 6.75 16.75 7.19772 16.75 7.75C16.75 8.30228 16.3023 8.75 15.75 8.75ZM15.75 10.75C14.0931 10.75 12.75 9.40685 12.75 7.75C12.75 6.09315 14.0931 4.75 15.75 4.75C17.4069 4.75 18.75 6.09315 18.75 7.75C18.75 9.40685 17.4069 10.75 15.75 10.75Z" fill="currentColor"/><path fill-rule="evenodd" clip-rule="evenodd" d="M15.6999 11.5C16.5284 11.5 17.2 12.1716 17.2 13L17.2 14.5C17.2 15.0523 17.6477 15.5 18.2 15.5C18.7523 15.5 19.2 15.0523 19.2 14.5L19.2 13C19.2 11.067 17.6329 9.5 15.6999 9.5C13.7669 9.5 12.2 11.067 12.2 13V13.5C12.2 14.0523 12.6477 14.5 13.2 14.5C13.7522 14.5 14.2 14.0523 14.2 13.5V13C14.2 12.1716 14.8715 11.5 15.6999 11.5Z" fill="currentColor"/><path fill-rule="evenodd" clip-rule="evenodd" d="M11.3001 14.25C10.4716 14.25 9.80003 14.9216 9.80003 15.75L9.80002 17.25C9.80001 17.8023 9.3523 18.25 8.80001 18.25C8.24773 18.25 7.80001 17.8023 7.80002 17.25L7.80003 15.75C7.80004 13.817 9.36706 12.25 11.3001 12.25C13.2331 12.25 14.8 13.817 14.8 15.75V17.25C14.8 17.8023 14.3523 18.25 13.8 18.25C13.2478 18.25 12.8 17.8023 12.8 17.25V15.75C12.8 14.9216 12.1285 14.25 11.3001 14.25Z" fill="currentColor"/><path d="M14.25 10.5C14.25 12.1569 12.9069 13.5 11.25 13.5C9.59315 13.5 8.25 12.1569 8.25 10.5C8.25 8.84315 9.59315 7.5 11.25 7.5C12.9069 7.5 14.25 8.84315 14.25 10.5Z" fill="currentColor"/><path fill-rule="evenodd" clip-rule="evenodd" d="M11.25 11.5C11.8023 11.5 12.25 11.0523 12.25 10.5C12.25 9.94772 11.8023 9.5 11.25 9.5C10.6977 9.5 10.25 9.94772 10.25 10.5C10.25 11.0523 10.6977 11.5 11.25 11.5ZM11.25 13.5C12.9069 13.5 14.25 12.1569 14.25 10.5C14.25 8.84315 12.9069 7.5 11.25 7.5C9.59315 7.5 8.25 8.84315 8.25 10.5C8.25 12.1569 9.59315 13.5 11.25 13.5Z" fill="currentColor"/><path d="M4.25 11.5H9.25V15.5H4.25V11.5Z" fill="currentColor"/><path d="M13.25 11.5H18.25V15.5H13.25V11.5Z" fill="currentColor"/><path d="M9.25 13.5H13.25L13.75 18.25H8.75L9.25 13.5Z" fill="currentColor"/></g><path fill-rule="evenodd" clip-rule="evenodd" d="M5.00003 9C6.1046 9 7.00003 8.10457 7.00003 7C7.00003 5.89543 6.1046 5 5.00003 5C3.89546 5 3.00003 5.89543 3.00003 7C3.00003 8.10457 3.89546 9 5.00003 9ZM5.00003 10C6.65688 10 8.00003 8.65685 8.00003 7C8.00003 5.34315 6.65688 4 5.00003 4C3.34318 4 2.00003 5.34315 2.00003 7C2.00003 8.65685 3.34318 10 5.00003 10Z" fill="currentColor"/><path fill-rule="evenodd" clip-rule="evenodd" d="M3.85355 8.89645C4.04882 9.09171 4.04882 9.40829 3.85355 9.60355L3.51612 9.94098C3.13529 10.3218 2.84835 10.7861 2.67803 11.297C2.56011 11.6508 2.5 12.0212 2.5 12.3941V14.25C2.5 14.5262 2.27614 14.75 2 14.75C1.72386 14.75 1.5 14.5262 1.5 14.25V12.3941C1.5 11.9138 1.57744 11.4365 1.72935 10.9808C1.94876 10.3226 2.3184 9.72449 2.80902 9.23388L3.14645 8.89645C3.34171 8.70118 3.65829 8.70118 3.85355 8.89645Z" fill="currentColor"/><path fill-rule="evenodd" clip-rule="evenodd" d="M15.6464 8.59646C15.4512 8.79172 15.4512 9.1083 15.6464 9.30357L15.9839 9.641C16.3647 10.0218 16.6517 10.4861 16.822 10.9971C16.9399 11.3508 17 11.7213 17 12.0941V14.25C17 14.5261 17.2239 14.75 17.5 14.75C17.7761 14.75 18 14.5261 18 14.25V12.0941C18 11.6138 17.9226 11.1365 17.7707 10.6808C17.5512 10.0226 17.1816 9.4245 16.691 8.93389L16.3536 8.59646C16.1583 8.4012 15.8417 8.4012 15.6464 8.59646Z" fill="currentColor"/><path fill-rule="evenodd" clip-rule="evenodd" d="M14 9C12.8955 9 12 8.10457 12 7C12 5.89543 12.8955 5 14 5C15.1046 5 16 5.89543 16 7C16 8.10457 15.1046 9 14 9ZM14 10C12.3432 10 11 8.65685 11 7C11 5.34315 12.3432 4 14 4C15.6569 4 17 5.34315 17 7C17 8.65685 15.6569 10 14 10Z" fill="currentColor"/><path fill-rule="evenodd" clip-rule="evenodd" d="M9.50006 13.25C8.11933 13.25 7.00002 14.3693 7.00001 15.75L7 17.05C7 17.3261 6.77614 17.55 6.5 17.55C6.22385 17.55 6 17.3261 6 17.05L6.00001 15.75C6.00002 13.817 7.56704 12.25 9.50006 12.25C11.433 12.25 13 13.817 13 15.75V17.05C13 17.3261 12.7762 17.55 12.5 17.55C12.2239 17.55 12 17.3261 12 17.05V15.75C12 14.3693 10.8808 13.25 9.50006 13.25Z" fill="currentColor"/><path fill-rule="evenodd" clip-rule="evenodd" d="M9.50003 11.75C10.6046 11.75 11.5 10.8546 11.5 9.75C11.5 8.64543 10.6046 7.75 9.50003 7.75C8.39546 7.75 7.50003 8.64543 7.50003 9.75C7.50003 10.8546 8.39546 11.75 9.50003 11.75ZM9.50003 12.75C11.1569 12.75 12.5 11.4069 12.5 9.75C12.5 8.09315 11.1569 6.75 9.50003 6.75C7.84318 6.75 6.50003 8.09315 6.50003 9.75C6.50003 11.4069 7.84318 12.75 9.50003 12.75Z" fill="currentColor"/><path d="M1.15063 1.87794C0.94979 1.6771 0.94979 1.35147 1.15063 1.15063C1.35147 0.949789 1.6771 0.949789 1.87794 1.15063L18.8494 18.1221C19.0502 18.3229 19.0502 18.6485 18.8494 18.8494C18.6485 19.0502 18.3229 19.0502 18.1221 18.8494L1.15063 1.87794Z" fill="currentColor"/></g><path fill-rule="evenodd" clip-rule="evenodd" d="M13 24.5C19.3513 24.5 24.5 19.3513 24.5 13C24.5 6.64873 19.3513 1.5 13 1.5C6.64873 1.5 1.5 6.64873 1.5 13C1.5 19.3513 6.64873 24.5 13 24.5ZM13 25.5C19.9036 25.5 25.5 19.9036 25.5 13C25.5 6.09644 19.9036 0.5 13 0.5C6.09644 0.5 0.5 6.09644 0.5 13C0.5 19.9036 6.09644 25.5 13 25.5Z" fill="currentColor"/></svg>