<svg width="20" height="20" viewBox="0 0 26 26" fill="none" xmlns="http://www.w3.org/2000/svg"><path opacity="0.2" fill-rule="evenodd" clip-rule="evenodd" d="M13.5 26C20.4036 26 26 20.4036 26 13.5C26 6.59644 20.4036 1 13.5 1C6.59644 1 1 6.59644 1 13.5C1 20.4036 6.59644 26 13.5 26ZM13.5 24C19.299 24 24 19.299 24 13.5C24 7.70101 19.299 3 13.5 3C7.70101 3 3 7.70101 3 13.5C3 19.299 7.70101 24 13.5 24Z" fill="currentColor"/><g transform="translate(3, 3)"><g><g opacity="0.2"><path fill-rule="evenodd" clip-rule="evenodd" d="M6.12268 10.8047C5.58014 11.6185 5.29063 12.5747 5.29063 13.5528L5.29063 14.25C5.29063 14.8022 4.84292 15.25 4.29063 15.25C3.73835 15.25 3.29063 14.8022 3.29063 14.25L3.29063 13.5528C3.29063 12.1799 3.69701 10.8377 4.45858 9.69531L6.12268 10.8047Z" fill="currentColor"/><path fill-rule="evenodd" clip-rule="evenodd" d="M8.09341 9.75C7.30149 9.75 6.56197 10.1458 6.12269 10.8047L4.45859 9.6953C5.2688 8.47998 6.63279 7.75 8.09341 7.75H8.29064C8.84292 7.75 9.29064 8.19772 9.29064 8.75C9.29064 9.30228 8.84292 9.75 8.29064 9.75H8.09341Z" fill="currentColor"/><path fill-rule="evenodd" clip-rule="evenodd" d="M10.3048 10.8047C10.8473 11.6185 11.1368 12.5747 11.1368 13.5528L11.1368 14.25C11.1368 14.8022 11.5845 15.25 12.1368 15.25C12.6891 15.25 13.1368 14.8022 13.1368 14.25L13.1368 13.5528C13.1368 12.1799 12.7304 10.8377 11.9689 9.69531L10.3048 10.8047Z" fill="currentColor"/><path fill-rule="evenodd" clip-rule="evenodd" d="M8.33402 9.75C9.12594 9.75 9.86546 10.1458 10.3047 10.8047L11.9688 9.6953C11.1586 8.47998 9.79464 7.75 8.33402 7.75H8.13679C7.58451 7.75 7.13679 8.19772 7.13679 8.75C7.13679 9.30228 7.58451 9.75 8.13679 9.75H8.33402Z" fill="currentColor"/><path fill-rule="evenodd" clip-rule="evenodd" d="M3.88678 14.75C3.88678 14.4739 4.11064 14.25 4.38678 14.25H11.3868C11.6629 14.25 11.8868 14.4739 11.8868 14.75C11.8868 15.0261 11.6629 15.25 11.3868 15.25H4.38678C4.11064 15.25 3.88678 15.0261 3.88678 14.75Z" fill="currentColor"/><path d="M11.3868 5.75C11.3868 7.54493 9.93171 9 8.13678 9C6.34185 9 4.88678 7.54493 4.88678 5.75C4.88678 3.95507 6.34185 2.5 8.13678 2.5C9.93171 2.5 11.3868 3.95507 11.3868 5.75Z" fill="currentColor"/><path fill-rule="evenodd" clip-rule="evenodd" d="M8.13678 7C8.82714 7 9.38678 6.44036 9.38678 5.75C9.38678 5.05964 8.82714 4.5 8.13678 4.5C7.44642 4.5 6.88678 5.05964 6.88678 5.75C6.88678 6.44036 7.44642 7 8.13678 7ZM8.13678 9C9.9317 9 11.3868 7.54493 11.3868 5.75C11.3868 3.95507 9.9317 2.5 8.13678 2.5C6.34185 2.5 4.88678 3.95507 4.88678 5.75C4.88678 7.54493 6.34185 9 8.13678 9Z" fill="currentColor"/><path d="M4.88678 9.75H11.3868V14.75H4.88678V9.75Z" fill="currentColor"/><path fill-rule="evenodd" clip-rule="evenodd" d="M13.3727 14.0547C12.8301 14.8685 12.5406 15.8247 12.5406 16.8028L12.5406 17.5C12.5406 18.0522 12.0929 18.5 11.5406 18.5C10.9883 18.5 10.5406 18.0522 10.5406 17.5L10.5406 16.8028C10.5406 15.4299 10.947 14.0877 11.7086 12.9453L13.3727 14.0547Z" fill="currentColor"/><path fill-rule="evenodd" clip-rule="evenodd" d="M15.3434 13C14.5515 13 13.812 13.3958 13.3727 14.0547L11.7086 12.9453C12.5188 11.73 13.8828 11 15.3434 11H15.5406C16.0929 11 16.5406 11.4477 16.5406 12C16.5406 12.5523 16.0929 13 15.5406 13H15.3434Z" fill="currentColor"/><path fill-rule="evenodd" clip-rule="evenodd" d="M17.5548 14.0547C18.0973 14.8685 18.3868 15.8247 18.3868 16.8028L18.3868 17.5C18.3868 18.0522 18.8345 18.5 19.3868 18.5C19.9391 18.5 20.3868 18.0522 20.3868 17.5L20.3868 16.8028C20.3868 15.4299 19.9804 14.0877 19.2189 12.9453L17.5548 14.0547Z" fill="currentColor"/><path fill-rule="evenodd" clip-rule="evenodd" d="M15.584 13C16.3759 13 17.1155 13.3958 17.5547 14.0547L19.2188 12.9453C18.4086 11.73 17.0446 11 15.584 11H15.3868C14.8345 11 14.3868 11.4477 14.3868 12C14.3868 12.5523 14.8345 13 15.3868 13H15.584Z" fill="currentColor"/><path fill-rule="evenodd" clip-rule="evenodd" d="M10.8868 18C10.8868 17.7239 11.1106 17.5 11.3868 17.5H19.3868C19.6629 17.5 19.8868 17.7239 19.8868 18C19.8868 18.2761 19.6629 18.5 19.3868 18.5H11.3868C11.1106 18.5 10.8868 18.2761 10.8868 18Z" fill="currentColor"/><path d="M18.6368 9C18.6368 10.7949 17.1817 12.25 15.3868 12.25C13.5919 12.25 12.1368 10.7949 12.1368 9C12.1368 7.20507 13.5919 5.75 15.3868 5.75C17.1817 5.75 18.6368 7.20507 18.6368 9Z" fill="currentColor"/><path fill-rule="evenodd" clip-rule="evenodd" d="M15.3868 10.25C16.0771 10.25 16.6368 9.69036 16.6368 9C16.6368 8.30964 16.0771 7.75 15.3868 7.75C14.6964 7.75 14.1368 8.30964 14.1368 9C14.1368 9.69036 14.6964 10.25 15.3868 10.25ZM15.3868 12.25C17.1817 12.25 18.6368 10.7949 18.6368 9C18.6368 7.20507 17.1817 5.75 15.3868 5.75C13.5919 5.75 12.1368 7.20507 12.1368 9C12.1368 10.7949 13.5919 12.25 15.3868 12.25Z" fill="currentColor"/><path d="M11.8868 12.75H18.3868V17.75H11.8868V12.75Z" fill="currentColor"/></g><path fill-rule="evenodd" clip-rule="evenodd" d="M3.36087 9.97696C2.75855 10.8804 2.43714 11.942 2.43714 13.0278L2.43715 13.9999C2.43715 14.2761 2.21329 14.5 1.93715 14.5C1.661 14.5 1.43715 14.2761 1.43715 14L1.43714 13.0278C1.43714 11.7446 1.81699 10.49 2.52882 9.42226L2.63666 9.2605C2.78983 9.03073 3.10027 8.96865 3.33003 9.12182C3.5598 9.275 3.62188 9.58543 3.46871 9.8152L3.36087 9.97696Z" fill="currentColor"/><path fill-rule="evenodd" clip-rule="evenodd" d="M6.1793 8.36456C5.09007 8.36456 4.0729 8.90893 3.46871 9.81523L2.63666 9.26053C3.42632 8.07603 4.75571 7.36456 6.1793 7.36456H6.39931C6.67545 7.36456 6.89931 7.58842 6.89931 7.86456C6.89931 8.14071 6.67545 8.36456 6.39931 8.36456H6.1793Z" fill="currentColor"/><path fill-rule="evenodd" clip-rule="evenodd" d="M9.25833 9.96528C9.72854 10.6706 9.97945 11.4993 9.97945 12.347L10.9794 12.347C10.9795 11.3019 10.6701 10.2802 10.0904 9.41058L9.99033 9.26051C9.83716 9.03074 9.52672 8.96866 9.29696 9.12183C9.06719 9.27501 9.00511 9.58544 9.15828 9.81521L9.25833 9.96528Z" fill="currentColor"/><path fill-rule="evenodd" clip-rule="evenodd" d="M6.44769 8.36456C7.53692 8.36456 8.55408 8.90893 9.15828 9.81523L9.99033 9.26053C9.20066 8.07603 7.87127 7.36456 6.44769 7.36456H6.22768C5.95153 7.36456 5.72768 7.58842 5.72768 7.86456C5.72768 8.14071 5.95153 8.36456 6.22768 8.36456H6.44769Z" fill="currentColor"/><path fill-rule="evenodd" clip-rule="evenodd" d="M6.25 7.25C7.49264 7.25 8.5 6.24264 8.5 5C8.5 3.75736 7.49264 2.75 6.25 2.75C5.00736 2.75 4 3.75736 4 5C4 6.24264 5.00736 7.25 6.25 7.25ZM6.25 8.25C8.04493 8.25 9.5 6.79493 9.5 5C9.5 3.20507 8.04493 1.75 6.25 1.75C4.45507 1.75 3 3.20507 3 5C3 6.79493 4.45507 8.25 6.25 8.25Z" fill="currentColor"/><path fill-rule="evenodd" clip-rule="evenodd" d="M10.5085 13.1863C9.90619 14.0898 9.58478 15.1513 9.58479 16.2372L9.58479 17.2708C9.58479 17.547 9.36093 17.7708 9.08479 17.7708C8.80865 17.7708 8.58479 17.547 8.58479 17.2708L8.58478 16.2372C8.58478 14.9539 8.96463 13.6993 9.67646 12.6316L9.80892 12.4329C9.9621 12.2031 10.2725 12.1411 10.5023 12.2942C10.7321 12.4474 10.7941 12.7578 10.641 12.9876L10.5085 13.1863Z" fill="currentColor"/><path fill-rule="evenodd" clip-rule="evenodd" d="M13.4205 11.5C12.3036 11.5 11.2605 12.0582 10.6409 12.9876L9.8089 12.4329C10.6139 11.2253 11.9692 10.5 13.4205 10.5H13.6454C13.9216 10.5 14.1454 10.7239 14.1454 11C14.1454 11.2761 13.9216 11.5 13.6454 11.5H13.4205Z" fill="currentColor"/><path fill-rule="evenodd" clip-rule="evenodd" d="M16.6069 13.1863C17.2093 14.0898 17.5307 15.1513 17.5307 16.2372L17.5307 17.2708C17.5307 17.547 17.7545 17.7708 18.0307 17.7708C18.3068 17.7708 18.5307 17.547 18.5307 17.2708L18.5307 16.2372C18.5307 14.9539 18.1508 13.6993 17.439 12.6316L17.3065 12.4329C17.1534 12.2031 16.8429 12.1411 16.6132 12.2942C16.3834 12.4474 16.3213 12.7578 16.4745 12.9876L16.6069 13.1863Z" fill="currentColor"/><path fill-rule="evenodd" clip-rule="evenodd" d="M13.6949 11.5C14.8119 11.5 15.855 12.0582 16.4745 12.9876L17.3066 12.4329C16.5015 11.2253 15.1462 10.5 13.6949 10.5H13.4701C13.1939 10.5 12.9701 10.7239 12.9701 11C12.9701 11.2761 13.1939 11.5 13.4701 11.5H13.6949Z" fill="currentColor"/><path fill-rule="evenodd" clip-rule="evenodd" d="M13.5 10.5C14.7426 10.5 15.75 9.49264 15.75 8.25C15.75 7.00736 14.7426 6 13.5 6C12.2573 6 11.25 7.00736 11.25 8.25C11.25 9.49264 12.2573 10.5 13.5 10.5ZM13.5 11.5C15.2949 11.5 16.75 10.0449 16.75 8.25C16.75 6.45507 15.2949 5 13.5 5C11.705 5 10.25 6.45507 10.25 8.25C10.25 10.0449 11.705 11.5 13.5 11.5Z" fill="currentColor"/></g></g><path fill-rule="evenodd" clip-rule="evenodd" d="M13 24.5C19.3513 24.5 24.5 19.3513 24.5 13C24.5 6.64873 19.3513 1.5 13 1.5C6.64873 1.5 1.5 6.64873 1.5 13C1.5 19.3513 6.64873 24.5 13 24.5ZM13 25.5C19.9036 25.5 25.5 19.9036 25.5 13C25.5 6.09644 19.9036 0.5 13 0.5C6.09644 0.5 0.5 6.09644 0.5 13C0.5 19.9036 6.09644 25.5 13 25.5Z" fill="currentColor"/></svg>