<svg width="20" height="20" viewBox="0 0 26 26" fill="none" xmlns="http://www.w3.org/2000/svg"><path opacity="0.2" fill-rule="evenodd" clip-rule="evenodd" d="M13.5 26C20.4036 26 26 20.4036 26 13.5C26 6.59644 20.4036 1 13.5 1C6.59644 1 1 6.59644 1 13.5C1 20.4036 6.59644 26 13.5 26ZM13.5 24C19.299 24 24 19.299 24 13.5C24 7.70101 19.299 3 13.5 3C7.70101 3 3 7.70101 3 13.5C3 19.299 7.70101 24 13.5 24Z" fill="currentColor"/><g transform="translate(3, 3)"><g opacity="0.2"><path fill-rule="evenodd" clip-rule="evenodd" d="M7.75 6.6C7.75 4.6491 9.2804 3 11.25 3C13.2196 3 14.75 4.6491 14.75 6.6C14.75 8.5509 13.2196 10.2 11.25 10.2C9.2804 10.2 7.75 8.5509 7.75 6.6Z" fill="currentColor"/><path fill-rule="evenodd" clip-rule="evenodd" d="M11.2635 9.06665C8.03924 9.06665 5.25 11.538 5.25 14.8333L5.2517 17.0008C5.25214 17.5522 5.69886 17.9991 6.25 18L16.25 18C16.8023 18 17.25 17.5523 17.25 17V14.8333C17.25 11.5447 14.4949 9.06665 11.2635 9.06665Z" fill="currentColor"/></g><circle cx="9.5" cy="5.5" r="3" stroke="currentColor" stroke-linecap="round"/><path d="M15 16.5V14.5C15 11.4024 12.5055 8.5 9.5 8.5C6.49446 8.5 4 11.4024 4 14.5V16.5" stroke="currentColor" stroke-linecap="round"/></g><path fill-rule="evenodd" clip-rule="evenodd" d="M13 24.5C19.3513 24.5 24.5 19.3513 24.5 13C24.5 6.64873 19.3513 1.5 13 1.5C6.64873 1.5 1.5 6.64873 1.5 13C1.5 19.3513 6.64873 24.5 13 24.5ZM13 25.5C19.9036 25.5 25.5 19.9036 25.5 13C25.5 6.09644 19.9036 0.5 13 0.5C6.09644 0.5 0.5 6.09644 0.5 13C0.5 19.9036 6.09644 25.5 13 25.5Z" fill="currentColor"/></svg>