<svg width="20" height="20" viewBox="0 0 20 20" fill="none" xmlns="http://www.w3.org/2000/svg">
<g opacity="0.8">
<path fill-rule="evenodd" clip-rule="evenodd" d="M12.45 7.75C12.45 7.19772 12.8977 6.75 13.45 6.75H18.7C19.2523 6.75 19.7 7.19772 19.7 7.75C19.7 8.30228 19.2523 8.75 18.7 8.75H13.45C12.8977 8.75 12.45 8.30228 12.45 7.75Z" fill="currentColor"/>
<path fill-rule="evenodd" clip-rule="evenodd" d="M16 11.5C15.4477 11.5 15 11.0523 15 10.5V5.25001C15 4.69772 15.4477 4.25001 16 4.25001C16.5523 4.25001 17 4.69772 17 5.25001V10.5C17 11.0523 16.5523 11.5 16 11.5Z" fill="currentColor"/>
<path d="M10.5 6.6C10.5 8.03594 9.38071 9.2 8 9.2C6.61929 9.2 5.5 8.03594 5.5 6.6C5.5 5.16406 6.61929 4 8 4C9.38071 4 10.5 5.16406 10.5 6.6Z" fill="currentColor"/>
<path fill-rule="evenodd" clip-rule="evenodd" d="M8 5C7.20818 5 6.5 5.67902 6.5 6.6C6.5 7.52098 7.20818 8.2 8 8.2C8.79182 8.2 9.5 7.52098 9.5 6.6C9.5 5.67902 8.79182 5 8 5ZM4.5 6.6C4.5 4.6491 6.0304 3 8 3C9.9696 3 11.5 4.6491 11.5 6.6C11.5 8.5509 9.9696 10.2 8 10.2C6.0304 10.2 4.5 8.5509 4.5 6.6Z" fill="currentColor"/>
<path fill-rule="evenodd" clip-rule="evenodd" d="M13 17V14.8333C13 12.1487 10.7458 10.0667 8.01348 10.0667C5.28117 10.0667 3 12.1487 3 14.8333L3.0017 17" fill="currentColor"/>
<path fill-rule="evenodd" clip-rule="evenodd" d="M2 14.8333C2 11.538 4.78924 9.06665 8.01348 9.06665C11.2449 9.06665 14 11.5447 14 14.8333V17C14 17.5523 13.5523 18 13 18C12.4477 18 12 17.5523 12 17V14.8333C12 12.7527 10.2467 11.0667 8.01348 11.0667C5.77323 11.0667 4.00022 12.7593 4 14.8329C4 14.8331 4 14.8328 4 14.8329L4.0017 16.9992C4.00214 17.5515 3.55478 17.9995 3.00249 18C2.45021 18.0004 2.00214 17.5531 2.0017 17.0008L2 14.8333Z" fill="currentColor"/>
<path fill-rule="evenodd" clip-rule="evenodd" d="M13 18H3V17H13V18Z" fill="currentColor"/>
</g>
<path fill-rule="evenodd" clip-rule="evenodd" d="M11.95 6.75C11.95 6.47386 12.1739 6.25 12.45 6.25H17.7C17.9762 6.25 18.2 6.47386 18.2 6.75C18.2 7.02614 17.9762 7.25 17.7 7.25H12.45C12.1739 7.25 11.95 7.02614 11.95 6.75Z" fill="black"/>
<path fill-rule="evenodd" clip-rule="evenodd" d="M15 10C14.7239 10 14.5 9.77614 14.5 9.5V4.25001C14.5 3.97386 14.7239 3.75001 15 3.75001C15.2761 3.75001 15.5 3.97386 15.5 4.25001V9.5C15.5 9.77614 15.2761 10 15 10Z" fill="black"/>
<path fill-rule="evenodd" clip-rule="evenodd" d="M6.79999 3C5.41928 3 4.29999 4.11929 4.29999 5.5C4.29999 6.88071 5.41928 8 6.79999 8C8.1807 8 9.29999 6.88071 9.29999 5.5C9.29999 4.11929 8.1807 3 6.79999 3ZM3.29999 5.5C3.29999 3.567 4.86699 2 6.79999 2C8.73298 2 10.3 3.567 10.3 5.5C10.3 7.433 8.73298 9 6.79999 9C4.86699 9 3.29999 7.433 3.29999 5.5Z" fill="black"/>
<path fill-rule="evenodd" clip-rule="evenodd" d="M0.799988 14.5C0.799988 11.1782 3.46907 8 6.79999 8C10.1309 8 12.8 11.1782 12.8 14.5V16.5C12.8 16.7761 12.5761 17 12.3 17C12.0238 17 11.8 16.7761 11.8 16.5V14.5C11.8 11.6266 9.48016 9 6.79999 9C4.11982 9 1.79999 11.6266 1.79999 14.5V16.5C1.79999 16.7761 1.57613 17 1.29999 17C1.02385 17 0.799988 16.7761 0.799988 16.5V14.5Z" fill="black"/>
</svg>
