<svg width="20" height="20" viewBox="0 0 26 26" fill="none" xmlns="http://www.w3.org/2000/svg"><path opacity="0.2" d="M26 14C26 20.6274 20.6274 26 14 26C7.37258 26 2 20.6274 2 14C2 7.37258 7.37258 2 14 2C20.6274 2 26 7.37258 26 14Z" fill="currentColor"/><g transform="translate(3, 3)"><circle cx="9.5" cy="5.5" r="3" stroke="currentColor" stroke-linecap="round"/><path d="M15 16.5V14.5C15 11.4024 12.5055 8.5 9.5 8.5C6.49446 8.5 4 11.4024 4 14.5V16.5" stroke="currentColor" stroke-linecap="round"/></g><path fill-rule="evenodd" clip-rule="evenodd" d="M13 24.5C19.3513 24.5 24.5 19.3513 24.5 13C24.5 6.64873 19.3513 1.5 13 1.5C6.64873 1.5 1.5 6.64873 1.5 13C1.5 19.3513 6.64873 24.5 13 24.5ZM13 25.5C19.9036 25.5 25.5 19.9036 25.5 13C25.5 6.09644 19.9036 0.5 13 0.5C6.09644 0.5 0.5 6.09644 0.5 13C0.5 19.9036 6.09644 25.5 13 25.5Z" fill="currentColor"/></svg>