<svg width="21" height="20" viewBox="0 0 21 20" fill="none" xmlns="http://www.w3.org/2000/svg">
<g opacity="0.8">
<path d="M10.5 6.6C10.5 8.03594 9.38071 9.2 8 9.2C6.61929 9.2 5.5 8.03594 5.5 6.6C5.5 5.16406 6.61929 4 8 4C9.38071 4 10.5 5.16406 10.5 6.6Z" fill="currentColor"/>
<path fill-rule="evenodd" clip-rule="evenodd" d="M8 5C7.20818 5 6.5 5.67902 6.5 6.6C6.5 7.52098 7.20818 8.2 8 8.2C8.79182 8.2 9.5 7.52098 9.5 6.6C9.5 5.67902 8.79182 5 8 5ZM4.5 6.6C4.5 4.6491 6.0304 3 8 3C9.9696 3 11.5 4.6491 11.5 6.6C11.5 8.5509 9.9696 10.2 8 10.2C6.0304 10.2 4.5 8.5509 4.5 6.6Z" fill="currentColor"/>
<path fill-rule="evenodd" clip-rule="evenodd" d="M13 17V14.8333C13 12.1487 10.7458 10.0667 8.01348 10.0667C5.28117 10.0667 3 12.1487 3 14.8333L3.0017 17" fill="currentColor"/>
<path fill-rule="evenodd" clip-rule="evenodd" d="M2 14.8333C2 11.538 4.78924 9.06665 8.01348 9.06665C11.2449 9.06665 14 11.5447 14 14.8333V17C14 17.5523 13.5523 18 13 18C12.4477 18 12 17.5523 12 17V14.8333C12 12.7527 10.2467 11.0667 8.01348 11.0667C5.77323 11.0667 4.00022 12.7593 4 14.8329C4 14.8331 4 14.8328 4 14.8329L4.0017 16.9992C4.00214 17.5515 3.55478 17.9995 3.00249 18C2.45021 18.0004 2.00214 17.5531 2.0017 17.0008L2 14.8333Z" fill="currentColor"/>
<path fill-rule="evenodd" clip-rule="evenodd" d="M19.5968 4.12584C20.0795 4.39405 20.2535 5.00286 19.9853 5.48564L17.2075 10.4856C16.9393 10.9684 16.3305 11.1424 15.8477 10.8742C15.3649 10.6059 15.191 9.99714 15.4592 9.51436L18.237 4.51436C18.5052 4.03157 19.114 3.85763 19.5968 4.12584Z" fill="currentColor"/>
<path fill-rule="evenodd" clip-rule="evenodd" d="M12.7747 7.15311C13.1197 6.72185 13.749 6.65193 14.1802 6.99694L16.958 9.21916C17.3893 9.56417 17.4592 10.1935 17.1142 10.6247C16.7692 11.056 16.1399 11.1259 15.7086 10.7809L12.9309 8.55868C12.4996 8.21367 12.4297 7.58437 12.7747 7.15311Z" fill="currentColor"/>
<path fill-rule="evenodd" clip-rule="evenodd" d="M13 18H3V17H13V18Z" fill="currentColor"/>
</g>
<path fill-rule="evenodd" clip-rule="evenodd" d="M6.79999 3C5.41928 3 4.29999 4.11929 4.29999 5.5C4.29999 6.88071 5.41928 8 6.79999 8C8.1807 8 9.29999 6.88071 9.29999 5.5C9.29999 4.11929 8.1807 3 6.79999 3ZM3.29999 5.5C3.29999 3.567 4.86699 2 6.79999 2C8.73298 2 10.3 3.567 10.3 5.5C10.3 7.433 8.73298 9 6.79999 9C4.86699 9 3.29999 7.433 3.29999 5.5Z" fill="black"/>
<path fill-rule="evenodd" clip-rule="evenodd" d="M0.799988 14.5C0.799988 11.1782 3.46907 8 6.79999 8C10.1309 8 12.8 11.1782 12.8 14.5V16.5C12.8 16.7761 12.5761 17 12.3 17C12.0238 17 11.8 16.7761 11.8 16.5V14.5C11.8 11.6266 9.48016 9 6.79999 9C4.11982 9 1.79999 11.6266 1.79999 14.5V16.5C1.79999 16.7761 1.57613 17 1.29999 17C1.02385 17 0.799988 16.7761 0.799988 16.5V14.5Z" fill="black"/>
<path fill-rule="evenodd" clip-rule="evenodd" d="M18.1539 3.56295C18.3953 3.69706 18.4823 4.00146 18.3482 4.24285L15.5704 9.24285C15.4363 9.48424 15.1319 9.57122 14.8905 9.43711C14.6491 9.303 14.5621 8.9986 14.6962 8.75721L17.474 3.75721C17.6081 3.51582 17.9125 3.42884 18.1539 3.56295Z" fill="black"/>
<path fill-rule="evenodd" clip-rule="evenodd" d="M11.9651 6.46544C12.1376 6.24981 12.4522 6.21485 12.6679 6.38735L15.4456 8.60958C15.6613 8.78208 15.6962 9.09673 15.5237 9.31236C15.3512 9.52799 15.0366 9.56295 14.8209 9.39045L12.0432 7.16822C11.8275 6.99572 11.7926 6.68107 11.9651 6.46544Z" fill="black"/>
</svg>
