<svg width="20" height="20" viewBox="0 0 20 20" fill="none" xmlns="http://www.w3.org/2000/svg"><g><g opacity="0.2"><path d="M11 6.6C11 8.03594 9.88071 9.2 8.5 9.2C7.11929 9.2 6 8.03594 6 6.6C6 5.16406 7.11929 4 8.5 4C9.88071 4 11 5.16406 11 6.6Z" fill="currentColor"/><path fill-rule="evenodd" clip-rule="evenodd" d="M8.5 5C7.70818 5 7 5.67902 7 6.6C7 7.52098 7.70818 8.2 8.5 8.2C9.29182 8.2 10 7.52098 10 6.6C10 5.67902 9.29182 5 8.5 5ZM5 6.6C5 4.6491 6.5304 3 8.5 3C10.4696 3 12 4.6491 12 6.6C12 8.5509 10.4696 10.2 8.5 10.2C6.5304 10.2 5 8.5509 5 6.6Z" fill="currentColor"/><path fill-rule="evenodd" clip-rule="evenodd" d="M13.5 17V14.8333C13.5 12.1487 11.2458 10.0667 8.51348 10.0667C5.78117 10.0667 3.5 12.1487 3.5 14.8333L3.5017 17" fill="currentColor"/><path fill-rule="evenodd" clip-rule="evenodd" d="M2.5 14.8333C2.5 11.538 5.28924 9.06665 8.51348 9.06665C11.7449 9.06665 14.5 11.5447 14.5 14.8333V17C14.5 17.5523 14.0523 18 13.5 18C12.9477 18 12.5 17.5523 12.5 17V14.8333C12.5 12.7527 10.7467 11.0667 8.51348 11.0667C6.27323 11.0667 4.50022 12.7593 4.5 14.8329C4.5 14.8328 4.5 14.8331 4.5 14.8329L4.5017 16.9992C4.50214 17.5515 4.05478 17.9995 3.50249 18C2.95021 18.0004 2.50214 17.5531 2.5017 17.0008L2.5 14.8333Z" fill="currentColor"/><path fill-rule="evenodd" clip-rule="evenodd" d="M20.0968 4.12584C20.5795 4.39405 20.7535 5.00286 20.4853 5.48564L17.7075 10.4856C17.4393 10.9684 16.8305 11.1424 16.3477 10.8742C15.8649 10.6059 15.691 9.99714 15.9592 9.51436L18.737 4.51436C19.0052 4.03157 19.614 3.85763 20.0968 4.12584Z" fill="currentColor"/><path fill-rule="evenodd" clip-rule="evenodd" d="M13.2747 7.15311C13.6197 6.72185 14.249 6.65193 14.6802 6.99694L17.458 9.21916C17.8893 9.56417 17.9592 10.1935 17.6142 10.6247C17.2692 11.056 16.6399 11.1259 16.2086 10.7809L13.4309 8.55868C12.9996 8.21367 12.9297 7.58437 13.2747 7.15311Z" fill="currentColor"/><path fill-rule="evenodd" clip-rule="evenodd" d="M13.5 18H3.5V17H13.5V18Z" fill="currentColor"/></g><path fill-rule="evenodd" clip-rule="evenodd" d="M6.79999 3C5.41928 3 4.29999 4.11929 4.29999 5.5C4.29999 6.88071 5.41928 8 6.79999 8C8.1807 8 9.29999 6.88071 9.29999 5.5C9.29999 4.11929 8.1807 3 6.79999 3ZM3.29999 5.5C3.29999 3.567 4.86699 2 6.79999 2C8.73298 2 10.3 3.567 10.3 5.5C10.3 7.433 8.73298 9 6.79999 9C4.86699 9 3.29999 7.433 3.29999 5.5Z" fill="currentColor"/><path fill-rule="evenodd" clip-rule="evenodd" d="M0.799988 14.5C0.799988 11.1782 3.46907 8 6.79999 8C10.1309 8 12.8 11.1782 12.8 14.5V16.5C12.8 16.7761 12.5761 17 12.3 17C12.0238 17 11.8 16.7761 11.8 16.5V14.5C11.8 11.6266 9.48016 9 6.79999 9C4.11982 9 1.79999 11.6266 1.79999 14.5V16.5C1.79999 16.7761 1.57613 17 1.29999 17C1.02385 17 0.799988 16.7761 0.799988 16.5V14.5Z" fill="currentColor"/><path fill-rule="evenodd" clip-rule="evenodd" d="M18.1539 3.56295C18.3953 3.69706 18.4823 4.00146 18.3482 4.24285L15.5704 9.24285C15.4363 9.48424 15.1319 9.57122 14.8905 9.43711C14.6491 9.303 14.5621 8.9986 14.6962 8.75721L17.474 3.75721C17.6081 3.51582 17.9125 3.42884 18.1539 3.56295Z" fill="currentColor"/><path fill-rule="evenodd" clip-rule="evenodd" d="M11.9651 6.46544C12.1376 6.24981 12.4522 6.21485 12.6679 6.38735L15.4456 8.60958C15.6613 8.78208 15.6962 9.09673 15.5237 9.31236C15.3512 9.52799 15.0366 9.56295 14.8209 9.39045L12.0432 7.16822C11.8275 6.99572 11.7926 6.68107 11.9651 6.46544Z" fill="currentColor"/></g></svg>