<svg width="20" height="20" viewBox="0 0 20 20" fill="none" xmlns="http://www.w3.org/2000/svg"><g opacity="0.2"><path fill-rule="evenodd" clip-rule="evenodd" d="M11.5 4H6.50002V2H11.5C14.2614 2 16.5 4.23858 16.5 7V8C16.5 10.7614 14.2614 13 11.5 13H6.50002V11H11.5C13.1569 11 14.5 9.65685 14.5 8V7C14.5 5.34315 13.1569 4 11.5 4Z" fill="currentColor"/><path fill-rule="evenodd" clip-rule="evenodd" d="M6.50002 2C7.0523 2 7.50002 2.44772 7.50002 3L7.50002 18.5C7.50002 19.0523 7.0523 19.5 6.50002 19.5C5.94773 19.5 5.50002 19.0523 5.50002 18.5L5.50002 3C5.50002 2.44772 5.94773 2 6.50002 2Z" fill="currentColor"/><path fill-rule="evenodd" clip-rule="evenodd" d="M2.50001 5.9357C2.50001 5.38341 2.94773 4.9357 3.50001 4.9357L17.5 4.9357C18.0523 4.9357 18.5 5.38342 18.5 5.9357C18.5 6.48799 18.0523 6.9357 17.5 6.9357L3.50001 6.9357C2.94773 6.9357 2.50001 6.48798 2.50001 5.9357Z" fill="currentColor"/><path fill-rule="evenodd" clip-rule="evenodd" d="M2.50001 8.9357C2.50001 8.38341 2.94773 7.9357 3.50001 7.9357L17.5 7.93567C18.0523 7.93567 18.5 8.38338 18.5 8.93567C18.5 9.48795 18.0523 9.93567 17.5 9.93567L3.50002 9.9357C2.94773 9.9357 2.50001 9.48798 2.50001 8.9357Z" fill="currentColor"/></g><path fill-rule="evenodd" clip-rule="evenodd" d="M10.5 2.5H5.5V1.5H10.5C12.9853 1.5 15 3.51472 15 6V7C15 9.48528 12.9853 11.5 10.5 11.5H5.5V10.5H10.5C12.433 10.5 14 8.933 14 7V6C14 4.067 12.433 2.5 10.5 2.5Z" fill="currentColor"/><path fill-rule="evenodd" clip-rule="evenodd" d="M5.5 1.5C5.77614 1.5 6 1.72386 6 2L6 17.5C6 17.7761 5.77614 18 5.5 18C5.22386 18 5 17.7761 5 17.5L5 2C5 1.72386 5.22386 1.5 5.5 1.5Z" fill="currentColor"/><path fill-rule="evenodd" clip-rule="evenodd" d="M2.00001 4.93574C2.00001 4.6596 2.22386 4.43574 2.50001 4.43574L16.5 4.43575C16.7761 4.43575 17 4.65961 17 4.93575C17 5.21189 16.7761 5.43575 16.5 5.43575L2.50001 5.43574C2.22386 5.43574 2.00001 5.21189 2.00001 4.93574Z" fill="currentColor"/><path fill-rule="evenodd" clip-rule="evenodd" d="M2.00001 7.93574C2.00001 7.6596 2.22386 7.43574 2.50001 7.43574L16.5 7.43572C16.7761 7.43572 17 7.65957 17 7.93572C17 8.21186 16.7762 8.43572 16.5 8.43572L2.50001 8.43574C2.22387 8.43574 2.00001 8.21189 2.00001 7.93574Z" fill="currentColor"/></svg>