<svg width="20" height="20" viewBox="0 0 26 26" fill="none" xmlns="http://www.w3.org/2000/svg"><path opacity="0.2" fill-rule="evenodd" clip-rule="evenodd" d="M13.5 26C20.4036 26 26 20.4036 26 13.5C26 6.59644 20.4036 1 13.5 1C6.59644 1 1 6.59644 1 13.5C1 20.4036 6.59644 26 13.5 26ZM13.5 24C19.299 24 24 19.299 24 13.5C24 7.70101 19.299 3 13.5 3C7.70101 3 3 7.70101 3 13.5C3 19.299 7.70101 24 13.5 24Z" fill="currentColor"/><g transform="translate(3, 3)"><g opacity="0.2"><path d="M12.4389 11.7743L13.0208 11.1924C14.1924 10.0208 16.0919 10.0208 17.2635 11.1924L18.6777 12.6066C19.8492 13.7782 19.8492 15.6777 18.6777 16.8492L15.872 19.6549C15.5932 19.9337 15.1766 20.0227 14.8082 19.882C8.31798 17.4042 3.87438 12.9301 1.50011 6.5696C1.36317 6.20273 1.45296 5.78968 1.72986 5.51278L4.53554 2.70711C5.70711 1.53554 7.6066 1.53554 8.77818 2.70711L10.1924 4.12132C11.364 5.2929 11.364 7.19239 10.1924 8.36396L9.61168 8.94467C10.4943 9.94935 11.4366 10.8925 12.4389 11.7743Z" fill="currentColor"/></g><path fill-rule="evenodd" clip-rule="evenodd" d="M12.8744 9.54594L11.9632 10.4571C10.6931 9.37249 9.51513 8.19356 8.42915 6.9201L9.33884 6.01041C10.3151 5.0341 10.3151 3.45119 9.33884 2.47488L7.92462 1.06066C6.94831 0.0843525 5.3654 0.0843525 4.38909 1.06066L1.58342 3.86634C1.44497 4.00479 1.40007 4.21131 1.46854 4.39474C3.79256 10.6206 8.13045 14.9883 14.4866 17.4149C14.6707 17.4852 14.879 17.4408 15.0184 17.3014L17.8241 14.4957C18.8004 13.5194 18.8004 11.9365 17.8241 10.9602L16.4099 9.54594C15.4336 8.56963 13.8507 8.56963 12.8744 9.54594ZM17.117 11.6673C17.7028 12.2531 17.7028 13.2028 17.117 13.7886L14.542 16.3636C8.72055 14.0584 4.73059 10.0434 2.5194 4.34456L5.0962 1.76777C5.68198 1.18198 6.63173 1.18198 7.21752 1.76777L8.63173 3.18198C9.21752 3.76777 9.21752 4.71752 8.63173 5.3033L7.3978 6.53723C7.21533 6.71971 7.2017 7.01108 7.36634 7.20979C8.66925 8.78233 10.105 10.2191 11.6731 11.5199C11.8718 11.6848 12.1633 11.6712 12.3459 11.4887L13.5815 10.2531C14.1673 9.66726 15.117 9.66726 15.7028 10.2531L17.117 11.6673Z" fill="currentColor"/><path d="M1.15063 1.87794C0.94979 1.6771 0.94979 1.35147 1.15063 1.15063C1.35147 0.949789 1.6771 0.949789 1.87794 1.15063L18.8494 18.1221C19.0502 18.3229 19.0502 18.6485 18.8494 18.8494C18.6485 19.0502 18.3229 19.0502 18.1221 18.8494L1.15063 1.87794Z" fill="currentColor"/></g><path fill-rule="evenodd" clip-rule="evenodd" d="M13 24.5C19.3513 24.5 24.5 19.3513 24.5 13C24.5 6.64873 19.3513 1.5 13 1.5C6.64873 1.5 1.5 6.64873 1.5 13C1.5 19.3513 6.64873 24.5 13 24.5ZM13 25.5C19.9036 25.5 25.5 19.9036 25.5 13C25.5 6.09644 19.9036 0.5 13 0.5C6.09644 0.5 0.5 6.09644 0.5 13C0.5 19.9036 6.09644 25.5 13 25.5Z" fill="currentColor"/></svg>