<svg width="20" height="20" viewBox="0 0 20 20" fill="none" xmlns="http://www.w3.org/2000/svg"><g opacity="0.2"><path fill-rule="evenodd" clip-rule="evenodd" d="M4.5 3C3.67157 3 3 3.67157 3 4.5V18.5C3 19.3284 3.67157 20 4.5 20H18.5C19.3284 20 20 19.3284 20 18.5V4.5C20 3.67157 19.3284 3 18.5 3H4.5ZM9 9C10.1046 9 11 8.10457 11 7C11 5.89543 10.1046 5 9 5C7.89543 5 7 5.89543 7 7C7 8.10457 7.89543 9 9 9ZM13.0059 10.1229C12.6071 9.66241 11.8928 9.66241 11.4941 10.1229L9.93098 11.9278L9.30294 11.0817C8.90313 10.5431 8.09685 10.5431 7.69703 11.0817L5.78763 13.654C5.29782 14.3138 5.76881 15.25 6.59058 15.25H9.24274H10.4094H15.2572C16.114 15.25 16.574 14.243 16.0132 13.5953L13.0059 10.1229Z" fill="currentColor"/><path fill-rule="evenodd" clip-rule="evenodd" d="M5 5V7V11.3595L6.09112 9.88962C6.11131 9.86243 6.13183 9.8357 6.1527 9.80943C5.43994 9.08712 5 8.09494 5 7C5 6.27143 5.19479 5.58835 5.53513 5H5ZM4.5 3C3.67157 3 3 3.67157 3 4.5V18.5C3 19.3284 3.67157 20 4.5 20H18.5C19.3284 20 20 19.3284 20 18.5V4.5C20 3.67157 19.3284 3 18.5 3H4.5ZM12.4649 5H18V13.0213C17.8832 12.7655 17.726 12.5181 17.525 12.286L14.5178 8.81357C14.0782 8.30595 13.5107 7.98487 12.9094 7.85032C12.9688 7.57629 13 7.29179 13 7C13 6.27143 12.8052 5.58835 12.4649 5ZM11.7322 9.9215C12.136 9.67686 12.6778 9.74399 13.0059 10.1229L16.0132 13.5953C16.574 14.243 16.114 15.25 15.2572 15.25H6.59058C5.76881 15.25 5.29782 14.3138 5.78763 13.654L7.69703 11.0817C7.76442 10.9909 7.84335 10.9154 7.92994 10.8553C8.09672 10.7394 8.2919 10.6802 8.48767 10.6778C8.66484 10.6757 8.84249 10.72 9 10.8108C9.08313 10.8588 9.16065 10.9197 9.22953 10.9935C9.25526 11.0211 9.27978 11.0505 9.30294 11.0817L9.93098 11.9278L11.4941 10.1229C11.5647 10.0413 11.6453 9.97417 11.7322 9.9215ZM10.1439 8.64082C10.2562 8.56237 10.3601 8.47269 10.4539 8.3734C10.7924 8.01514 11 7.53181 11 7C11 5.89543 10.1046 5 9 5C7.89543 5 7 5.89543 7 7C7 7.73303 7.39435 8.37395 7.98248 8.72218C8.28058 8.89869 8.62846 9 9 9C9.22116 9 9.43394 8.9641 9.63282 8.89781C9.81646 8.83661 9.98825 8.7495 10.1439 8.64082ZM18 15.4654C17.5505 16.479 16.5557 17.25 15.2572 17.25H6.59058C5.98881 17.25 5.44975 17.0827 5 16.8009V18H18V15.4654Z" fill="currentColor"/></g><path fill-rule="evenodd" clip-rule="evenodd" d="M8 8C8.55228 8 9 7.55228 9 7C9 6.44772 8.55228 6 8 6C7.44772 6 7 6.44772 7 7C7 7.55228 7.44772 8 8 8ZM8 9C9.10457 9 10 8.10457 10 7C10 5.89543 9.10457 5 8 5C6.89543 5 6 5.89543 6 7C6 8.10457 6.89543 9 8 9Z" fill="currentColor"/><path d="M7.49999 10.6777L5.59058 13.25L7.49999 13.25L9.40939 14.25H5.59058C4.76881 14.25 4.29782 13.3138 4.78763 12.654L6.69703 10.0817C7.09685 9.54308 7.90313 9.54308 8.30294 10.0817L9.25765 11.3678L8.45469 11.9639L7.49999 10.6777Z" fill="currentColor"/><path fill-rule="evenodd" clip-rule="evenodd" d="M14.2573 13.25L11.25 9.77753L8.24275 13.25L14.2573 13.25ZM12.0059 9.12287C11.6072 8.66241 10.8928 8.66241 10.4941 9.12287L7.48682 12.5953C6.92595 13.243 7.386 14.25 8.24275 14.25H14.2573C15.114 14.25 15.5741 13.243 15.0132 12.5953L12.0059 9.12287Z" fill="currentColor"/><path fill-rule="evenodd" clip-rule="evenodd" d="M17 2.5H3C2.72386 2.5 2.5 2.72386 2.5 3V17C2.5 17.2761 2.72386 17.5 3 17.5H17C17.2761 17.5 17.5 17.2761 17.5 17V3C17.5 2.72386 17.2761 2.5 17 2.5ZM3 1.5C2.17157 1.5 1.5 2.17157 1.5 3V17C1.5 17.8284 2.17157 18.5 3 18.5H17C17.8284 18.5 18.5 17.8284 18.5 17V3C18.5 2.17157 17.8284 1.5 17 1.5H3Z" fill="currentColor"/><path d="M1.15063 1.87794C0.94979 1.6771 0.94979 1.35147 1.15063 1.15063C1.35147 0.949789 1.6771 0.949789 1.87794 1.15063L18.8494 18.1221C19.0502 18.3229 19.0502 18.6485 18.8494 18.8494C18.6485 19.0502 18.3229 19.0502 18.1221 18.8494L1.15063 1.87794Z" fill="currentColor"/></svg>