<svg width="20" height="20" viewBox="0 0 26 26" fill="none" xmlns="http://www.w3.org/2000/svg"><path opacity="0.2" d="M26 14C26 20.6274 20.6274 26 14 26C7.37258 26 2 20.6274 2 14C2 7.37258 7.37258 2 14 2C20.6274 2 26 7.37258 26 14Z" fill="currentColor"/><g transform="translate(3, 3)"><path fill-rule="evenodd" clip-rule="evenodd" d="M6.17154 5.23204L5.76225 6.5H4.5C3.11929 6.5 2 7.61929 2 9V15C2 16.3807 3.11929 17.5 4.5 17.5H15.5C16.8807 17.5 18 16.3807 18 15V9C18 7.61929 16.8807 6.5 15.5 6.5H14.2373L13.828 5.23204C13.4947 4.19965 12.5337 3.5 11.4489 3.5H8.55067C7.46583 3.5 6.50479 4.19965 6.17154 5.23204ZM4.5 7.5H6.49027L7.12319 5.53922C7.32314 4.91979 7.89976 4.5 8.55067 4.5H11.4489C12.0998 4.5 12.6764 4.91979 12.8763 5.53922L13.5093 7.5H15.5C16.3284 7.5 17 8.17157 17 9V15C17 15.8284 16.3284 16.5 15.5 16.5H4.5C3.67157 16.5 3 15.8284 3 15V9C3 8.17157 3.67157 7.5 4.5 7.5Z" fill="currentColor"/><path fill-rule="evenodd" clip-rule="evenodd" d="M7 11.5C7 13.1569 8.34315 14.5 10 14.5C11.6569 14.5 13 13.1569 13 11.5C13 9.84315 11.6569 8.5 10 8.5C8.34315 8.5 7 9.84315 7 11.5ZM12 11.5C12 12.6046 11.1046 13.5 10 13.5C8.89543 13.5 8 12.6046 8 11.5C8 10.3954 8.89543 9.5 10 9.5C11.1046 9.5 12 10.3954 12 11.5Z" fill="currentColor"/></g><path fill-rule="evenodd" clip-rule="evenodd" d="M13 24.5C19.3513 24.5 24.5 19.3513 24.5 13C24.5 6.64873 19.3513 1.5 13 1.5C6.64873 1.5 1.5 6.64873 1.5 13C1.5 19.3513 6.64873 24.5 13 24.5ZM13 25.5C19.9036 25.5 25.5 19.9036 25.5 13C25.5 6.09644 19.9036 0.5 13 0.5C6.09644 0.5 0.5 6.09644 0.5 13C0.5 19.9036 6.09644 25.5 13 25.5Z" fill="currentColor"/></svg>