<svg width="20" height="20" viewBox="0 0 26 26" fill="none" xmlns="http://www.w3.org/2000/svg"><path opacity="0.2" fill-rule="evenodd" clip-rule="evenodd" d="M13.5 26C20.4036 26 26 20.4036 26 13.5C26 6.59644 20.4036 1 13.5 1C6.59644 1 1 6.59644 1 13.5C1 20.4036 6.59644 26 13.5 26ZM13.5 24C19.299 24 24 19.299 24 13.5C24 7.70101 19.299 3 13.5 3C7.70101 3 3 7.70101 3 13.5C3 19.299 7.70101 24 13.5 24Z" fill="currentColor"/><g transform="translate(3, 3)"><g><g opacity="0.2"><path fill-rule="evenodd" clip-rule="evenodd" d="M11.9956 4.85219C11.5371 4.54432 10.9159 4.66643 10.608 5.12494L8.09943 8.86087L6.43902 7.74596L8.94757 4.01003C9.87119 2.6345 11.735 2.26815 13.1106 3.19178L16.4314 5.4216C17.8069 6.34522 18.1733 8.20905 17.2496 9.58458L14.7411 13.3205L13.0807 12.2056L15.5892 8.46967C15.8971 8.01116 15.775 7.38988 15.3165 7.08201L11.9956 4.85219Z" fill="currentColor"/><path fill-rule="evenodd" clip-rule="evenodd" d="M2.82749 9.53675C3.13537 9.07824 3.75665 8.95612 4.21516 9.264L14.1776 15.9535C14.6361 16.2613 14.7583 16.8826 14.4504 17.3411C14.1425 17.7996 13.5212 17.9218 13.0627 17.6139L3.10024 10.9244C2.64173 10.6165 2.51962 9.99526 2.82749 9.53675Z" fill="currentColor"/><path fill-rule="evenodd" clip-rule="evenodd" d="M6.63439 9.35952C6.22408 9.41277 5.84774 9.4994 5.63903 9.60496C5.43601 9.70765 5.14956 9.95056 4.86907 10.238C4.74014 10.3702 4.63017 10.4932 4.55273 10.5829C4.51423 10.6275 4.48437 10.6632 4.46487 10.6868L4.44374 10.7126L4.43973 10.7175C4.09549 11.1493 3.4663 11.2205 3.03446 10.8763C2.60256 10.5321 2.53147 9.90296 2.87568 9.47106L3.65771 10.0943C2.87568 9.47106 2.8756 9.47116 2.87568 9.47106L2.87754 9.46873L2.8806 9.46491L2.89025 9.45296L2.9231 9.41286C2.95078 9.37935 2.98994 9.33263 3.03876 9.27607C3.13594 9.16349 3.27376 9.00923 3.43753 8.84138C3.74243 8.52886 4.22098 8.08092 4.73638 7.82025C5.26693 7.55191 5.93135 7.43399 6.37697 7.37615C6.61637 7.34508 6.82867 7.32721 6.98152 7.31704C7.0583 7.31193 7.12102 7.3087 7.16574 7.30671L7.21909 7.30458L7.23488 7.30406L7.23991 7.30391L7.24169 7.30386L7.2427 7.30383C7.24284 7.30383 7.24297 7.30383 7.26796 8.25587L7.2427 7.30383C7.7948 7.28934 8.25438 7.72515 8.26887 8.27724C8.28335 8.829 7.84807 9.28809 7.29645 9.30311C7.29612 9.30312 7.29578 9.30313 7.29545 9.30314L7.26921 8.30348C7.29545 9.30314 7.29633 9.30311 7.29645 9.30311L7.28883 9.30336L7.25445 9.30474C7.22288 9.30614 7.17495 9.30859 7.11435 9.31262C6.99242 9.32074 6.82296 9.33504 6.63439 9.35952Z" fill="currentColor"/><path fill-rule="evenodd" clip-rule="evenodd" d="M13.1775 13.753C13.2835 14.1529 13.3457 14.534 13.327 14.7672C13.3088 14.994 13.1924 15.351 13.0325 15.7195C12.9589 15.8888 12.8867 16.0372 12.833 16.1428C12.8062 16.1953 12.7845 16.2365 12.7701 16.2635L12.7542 16.2928L12.7511 16.2984C12.4818 16.7804 12.654 17.3897 13.136 17.6592C13.6181 17.9287 14.2274 17.7563 14.4969 17.2743L13.624 16.7863C14.4969 17.2743 14.4968 17.2744 14.4969 17.2743L14.4983 17.2717L14.5007 17.2674L14.5081 17.2539L14.5328 17.2084C14.5533 17.1701 14.5817 17.1161 14.6156 17.0495C14.683 16.917 14.7737 16.731 14.867 16.5159C15.0409 16.1154 15.2744 15.5029 15.3206 14.9272C15.3682 14.3346 15.2259 13.6749 15.1107 13.2406C15.0489 13.0072 14.9851 12.8039 14.9366 12.6586C14.9123 12.5856 14.8916 12.5263 14.8765 12.4842L14.8582 12.434L14.8527 12.4192L14.851 12.4145L14.8504 12.4128L14.85 12.4119C14.8499 12.4117 14.8499 12.4116 13.9592 12.7488L14.85 12.4119C14.6544 11.8954 14.0771 11.6349 13.5606 11.8305C13.0444 12.0259 12.7842 12.6025 12.9791 13.1188C12.9792 13.1191 12.9793 13.1194 12.9795 13.1198L13.9147 12.7657C12.9795 13.1198 12.9791 13.1189 12.9791 13.1188L12.9818 13.126L12.9935 13.1583C13.0041 13.1881 13.02 13.2333 13.0392 13.291C13.0779 13.4069 13.1288 13.5692 13.1775 13.753Z" fill="currentColor"/><path fill-rule="evenodd" clip-rule="evenodd" d="M8.63891 13.439C9.09742 13.7469 9.21953 14.3682 8.91166 14.8267L7.23929 17.3173C6.93142 17.7758 6.31014 17.8979 5.85163 17.59C5.39312 17.2822 5.27101 16.6609 5.57888 16.2024L7.25125 13.7118C7.55912 13.2532 8.1804 13.1311 8.63891 13.439Z" fill="currentColor"/><path fill-rule="evenodd" clip-rule="evenodd" d="M16.9769 8.19691L10.3352 3.73726L6.99048 8.71851L6.16027 8.16105L4.48791 10.6517L5.31811 11.2091L11.9598 15.6688L12.79 16.2262L14.4623 13.7356L13.6321 13.1781L16.9769 8.19691Z" fill="currentColor"/></g><path fill-rule="evenodd" clip-rule="evenodd" d="M10.77 2.93234C10.0822 2.47053 9.15027 2.6537 8.68846 3.34147L6.17991 7.0774L5.3497 6.51994L7.85825 2.78401C8.62794 1.63774 10.1811 1.33245 11.3274 2.10213L14.6482 4.33196C15.7945 5.10164 16.0998 6.65484 15.3301 7.80111L12.8216 11.537L11.9914 10.9796L14.4999 7.24366C14.9617 6.55589 14.7785 5.62397 14.0908 5.16216L10.77 2.93234Z" fill="currentColor"/><path fill-rule="evenodd" clip-rule="evenodd" d="M1.73818 8.31073C1.89212 8.08148 2.20275 8.02042 2.43201 8.17436L12.3945 14.8638C12.6237 15.0178 12.6848 15.3284 12.5309 15.5577C12.3769 15.7869 12.0663 15.848 11.837 15.694L1.87455 9.00456C1.6453 8.85063 1.58424 8.53999 1.73818 8.31073Z" fill="currentColor"/><path fill-rule="evenodd" clip-rule="evenodd" d="M5.06563 7.35878C4.64649 7.41318 4.19814 7.50764 3.90897 7.65389C3.62785 7.79607 3.29337 8.09024 3.00678 8.38399C2.86914 8.52506 2.75221 8.6559 2.66983 8.75133C2.62876 8.79891 2.59657 8.83735 2.57502 8.86343L2.55097 8.89279L2.54538 8.8997L2.54432 8.90103C2.54435 8.90099 2.54432 8.90103 2.1533 8.58941M2.1533 8.58941C1.76229 8.27779 1.76233 8.27773 1.76238 8.27768L1.76352 8.27625L1.76593 8.27325L1.77422 8.26298L1.80414 8.22645C1.82978 8.19542 1.86661 8.15146 1.91285 8.0979C2.00509 7.99103 2.13595 7.84458 2.29101 7.68565C2.58981 7.37939 3.02033 6.98271 3.45764 6.76153C3.90773 6.53389 4.50013 6.42379 4.93692 6.3671C5.16362 6.33768 5.36521 6.3207 5.51032 6.31104C5.58306 6.3062 5.64208 6.30316 5.68351 6.30132L5.73212 6.29938L5.74571 6.29893L5.74967 6.29882L5.75093 6.29878C5.751 6.29878 5.75169 6.29876 5.76481 6.79859L5.75093 6.29878C6.02697 6.29154 6.25739 6.50942 6.26464 6.78547C6.27188 7.06148 6.05404 7.29111 5.77804 7.29841L5.77616 7.29847L5.76699 7.29877L5.72787 7.30034C5.69301 7.30189 5.64139 7.30453 5.57674 7.30883C5.44708 7.31746 5.26691 7.33266 5.06563 7.35878" fill="currentColor"/><path fill-rule="evenodd" clip-rule="evenodd" d="M12.1565 12.1201C12.2647 12.5286 12.347 12.9794 12.3211 13.3024C12.2959 13.6164 12.1502 14.0373 11.9868 14.4138C11.9083 14.5946 11.8314 14.7523 11.7743 14.8647C11.7458 14.9207 11.7224 14.9651 11.7064 14.9949L11.6883 15.0283L11.684 15.0361L11.6832 15.0375C11.6833 15.0375 11.6832 15.0375 12.1197 15.2815M12.1197 15.2815C12.5561 15.5255 12.5561 15.5254 12.5562 15.5254L12.557 15.5238L12.5589 15.5204L12.5653 15.5089L12.5878 15.4673C12.6068 15.4319 12.6335 15.3811 12.6656 15.3181C12.7296 15.1922 12.8156 15.0157 12.9041 14.812C13.0744 14.4195 13.2787 13.8709 13.3179 13.3824C13.3582 12.8796 13.2359 12.2896 13.1231 11.8639C13.0645 11.6429 13.0039 11.4499 12.9579 11.3119C12.9349 11.2428 12.9154 11.187 12.9014 11.1479L12.8848 11.1022L12.8801 11.0895L12.8787 11.0857L12.8782 11.0846C12.8782 11.0845 12.878 11.0839 12.4103 11.2609L12.8782 11.0846C12.7804 10.8263 12.4916 10.6955 12.2333 10.7933C11.9751 10.891 11.845 11.1796 11.9427 11.4378L11.9434 11.4396L11.9465 11.4482L11.9599 11.485C11.9717 11.5178 11.9888 11.5666 12.0092 11.6281C12.0503 11.7514 12.1045 11.9239 12.1565 12.1201" fill="currentColor"/><path fill-rule="evenodd" clip-rule="evenodd" d="M7.41327 11.519C7.64252 11.6729 7.70358 11.9836 7.54964 12.2128L5.31982 15.5337C5.16588 15.7629 4.85524 15.824 4.62599 15.67C4.39673 15.5161 4.33568 15.2055 4.48961 14.9762L6.71943 11.6554C6.87337 11.4261 7.18401 11.3651 7.41327 11.519Z" fill="currentColor"/></g><path d="M1.15063 1.87794C0.94979 1.6771 0.94979 1.35147 1.15063 1.15063C1.35147 0.949789 1.6771 0.949789 1.87794 1.15063L18.8494 18.1221C19.0502 18.3229 19.0502 18.6485 18.8494 18.8494C18.6485 19.0502 18.3229 19.0502 18.1221 18.8494L1.15063 1.87794Z" fill="currentColor"/></g><path fill-rule="evenodd" clip-rule="evenodd" d="M13 24.5C19.3513 24.5 24.5 19.3513 24.5 13C24.5 6.64873 19.3513 1.5 13 1.5C6.64873 1.5 1.5 6.64873 1.5 13C1.5 19.3513 6.64873 24.5 13 24.5ZM13 25.5C19.9036 25.5 25.5 19.9036 25.5 13C25.5 6.09644 19.9036 0.5 13 0.5C6.09644 0.5 0.5 6.09644 0.5 13C0.5 19.9036 6.09644 25.5 13 25.5Z" fill="currentColor"/></svg>