<svg width="20" height="20" viewBox="0 0 26 26" fill="none" xmlns="http://www.w3.org/2000/svg"><path opacity="0.2" fill-rule="evenodd" clip-rule="evenodd" d="M13.5 26C20.4036 26 26 20.4036 26 13.5C26 6.59644 20.4036 1 13.5 1C6.59644 1 1 6.59644 1 13.5C1 20.4036 6.59644 26 13.5 26ZM13.5 24C19.299 24 24 19.299 24 13.5C24 7.70101 19.299 3 13.5 3C7.70101 3 3 7.70101 3 13.5C3 19.299 7.70101 24 13.5 24Z" fill="currentColor"/><g transform="translate(3, 3)"><g opacity="0.2"><path d="M12.5 19.5C9.72259 19.5 5.5 12.6249 5.5 8.62313C5.5 4.69121 8.63188 1.5 12.5 1.5C16.3681 1.5 19.5 4.69121 19.5 8.62313C19.5 12.6249 15.2774 19.5 12.5 19.5Z" fill="currentColor"/></g><path fill-rule="evenodd" clip-rule="evenodd" d="M10 11C11.6569 11 13 9.65685 13 8C13 6.34315 11.6569 5 10 5C8.34315 5 7 6.34315 7 8C7 9.65685 8.34315 11 10 11ZM10 6C11.1046 6 12 6.89543 12 8C12 9.10457 11.1046 10 10 10C8.89543 10 8 9.10457 8 8C8 6.89543 8.89543 6 10 6Z" fill="currentColor"/><path fill-rule="evenodd" clip-rule="evenodd" d="M3 8.12313C3 12.1249 7.22259 19 10 19C12.7774 19 17 12.1249 17 8.12313C17 4.19121 13.8681 1 10 1C6.13188 1 3 4.19121 3 8.12313ZM16 8.12313C16 11.6434 12.0959 18 10 18C7.90411 18 4 11.6434 4 8.12313C4 4.73934 6.68841 2 10 2C13.3116 2 16 4.73934 16 8.12313Z" fill="currentColor"/><path d="M1.15063 1.87794C0.94979 1.6771 0.94979 1.35147 1.15063 1.15063C1.35147 0.949789 1.6771 0.949789 1.87794 1.15063L18.8494 18.1221C19.0502 18.3229 19.0502 18.6485 18.8494 18.8494C18.6485 19.0502 18.3229 19.0502 18.1221 18.8494L1.15063 1.87794Z" fill="currentColor"/></g><path fill-rule="evenodd" clip-rule="evenodd" d="M13 24.5C19.3513 24.5 24.5 19.3513 24.5 13C24.5 6.64873 19.3513 1.5 13 1.5C6.64873 1.5 1.5 6.64873 1.5 13C1.5 19.3513 6.64873 24.5 13 24.5ZM13 25.5C19.9036 25.5 25.5 19.9036 25.5 13C25.5 6.09644 19.9036 0.5 13 0.5C6.09644 0.5 0.5 6.09644 0.5 13C0.5 19.9036 6.09644 25.5 13 25.5Z" fill="currentColor"/></svg>