<svg width="20" height="20" viewBox="0 0 26 26" fill="none" xmlns="http://www.w3.org/2000/svg"><path opacity="0.2" fill-rule="evenodd" clip-rule="evenodd" d="M13.5 26C20.4036 26 26 20.4036 26 13.5C26 6.59644 20.4036 1 13.5 1C6.59644 1 1 6.59644 1 13.5C1 20.4036 6.59644 26 13.5 26ZM13.5 24C19.299 24 24 19.299 24 13.5C24 7.70101 19.299 3 13.5 3C7.70101 3 3 7.70101 3 13.5C3 19.299 7.70101 24 13.5 24Z" fill="currentColor"/><g transform="translate(3, 3)"><g opacity="0.2"><path d="M16.5683 11.0578C17.2115 11.4651 17.1819 12.4132 16.5144 12.7794L8.48103 17.1873C7.8146 17.553 6.99999 17.0708 6.99999 16.3106V11.5V6.81668C6.99999 6.02863 7.86909 5.55023 8.53491 5.97178L16.5683 11.0578Z" fill="currentColor"/><path fill-rule="evenodd" clip-rule="evenodd" d="M14.0667 11.8412L8.99999 8.63337V14.6213L14.0667 11.8412ZM16.5144 12.7794C17.1819 12.4132 17.2115 11.4651 16.5683 11.0578L8.53491 5.97178C7.86909 5.55023 6.99999 6.02863 6.99999 6.81668V16.3106C6.99999 17.0708 7.8146 17.553 8.48103 17.1873L16.5144 12.7794Z" fill="currentColor"/></g><path fill-rule="evenodd" clip-rule="evenodd" d="M5.99999 15.3211L15.0144 10.4383L5.99999 4.80427V15.3211ZM15.4907 11.3176C16.1645 10.9526 16.1942 9.99643 15.5444 9.59028L6.52999 3.95627C5.86394 3.53999 4.99999 4.01884 4.99999 4.80427V15.3211C4.99999 16.0788 5.80997 16.5613 6.47627 16.2004L15.4907 11.3176Z" fill="currentColor"/><path d="M1.15063 1.87794C0.94979 1.6771 0.94979 1.35147 1.15063 1.15063C1.35147 0.949789 1.6771 0.949789 1.87794 1.15063L18.8494 18.1221C19.0502 18.3229 19.0502 18.6485 18.8494 18.8494C18.6485 19.0502 18.3229 19.0502 18.1221 18.8494L1.15063 1.87794Z" fill="currentColor"/></g><path fill-rule="evenodd" clip-rule="evenodd" d="M13 24.5C19.3513 24.5 24.5 19.3513 24.5 13C24.5 6.64873 19.3513 1.5 13 1.5C6.64873 1.5 1.5 6.64873 1.5 13C1.5 19.3513 6.64873 24.5 13 24.5ZM13 25.5C19.9036 25.5 25.5 19.9036 25.5 13C25.5 6.09644 19.9036 0.5 13 0.5C6.09644 0.5 0.5 6.09644 0.5 13C0.5 19.9036 6.09644 25.5 13 25.5Z" fill="currentColor"/></svg>