<svg width="20" height="20" viewBox="0 0 20 20" fill="none" xmlns="http://www.w3.org/2000/svg"><g opacity="0.2"><path d="M11.8601 10.7474C11.4048 11.1458 11.4048 11.8541 11.8601 12.2525L17.3415 17.0488C17.9881 17.6145 19 17.1553 19 16.2962V6.70373C19 5.84457 17.9881 5.38539 17.3415 5.95115L11.8601 10.7474Z" fill="currentColor"/><path fill-rule="evenodd" clip-rule="evenodd" d="M11.5309 12.6288L17.0123 17.4251C17.9821 18.2737 19.5 17.5849 19.5 16.2962V6.70372C19.5 5.41499 17.9821 4.72622 17.0123 5.57486L11.5309 10.3711C10.8479 10.9687 10.8479 12.0312 11.5309 12.6288ZM11.8601 12.2525C11.4048 11.8541 11.4048 11.1458 11.8601 10.7474L17.3415 5.95115C17.9881 5.38539 19 5.84457 19 6.70372V16.2962C19 17.1553 17.9881 17.6145 17.3415 17.0488L11.8601 12.2525Z" fill="currentColor"/><path d="M4.86011 10.7474C4.40478 11.1458 4.40478 11.8541 4.86011 12.2525L10.3415 17.0488C10.9881 17.6145 12 17.1553 12 16.2962V6.70373C12 5.84457 10.9881 5.38539 10.3415 5.95115L4.86011 10.7474Z" fill="currentColor"/><path fill-rule="evenodd" clip-rule="evenodd" d="M4.53086 12.6288L10.0123 17.4251C10.9821 18.2737 12.5 17.5849 12.5 16.2962V6.70372C12.5 5.41499 10.9821 4.72622 10.0123 5.57486L4.53086 10.3711C3.84787 10.9687 3.84787 12.0312 4.53086 12.6288ZM4.86011 12.2525C4.40478 11.8541 4.40478 11.1458 4.86011 10.7474L10.3415 5.95115C10.9881 5.38539 12 5.84457 12 6.70372V16.2962C12 17.1553 10.9881 17.6145 10.3415 17.0488L4.86011 12.2525Z" fill="currentColor"/><path fill-rule="evenodd" clip-rule="evenodd" d="M4.5 5.5C3.94772 5.5 3.5 5.94772 3.5 6.5L3.5 16.5C3.5 17.0523 3.94772 17.5 4.5 17.5C5.05228 17.5 5.5 17.0523 5.5 16.5L5.5 6.5C5.5 5.94772 5.05228 5.5 4.5 5.5Z" fill="currentColor"/></g><path fill-rule="evenodd" clip-rule="evenodd" d="M16.5 14.7962L11.0186 9.99996L16.5 5.20373L16.5 14.7962ZM10.3601 10.7525C9.90478 10.3541 9.90478 9.64579 10.3601 9.24738L15.8415 4.45115C16.4881 3.88539 17.5 4.34457 17.5 5.20373V14.7962C17.5 15.6554 16.4881 16.1145 15.8415 15.5488L10.3601 10.7525Z" fill="currentColor"/><path fill-rule="evenodd" clip-rule="evenodd" d="M9.50003 14.7962L4.01862 9.99996L9.50002 5.20373L9.50003 14.7962ZM3.36011 10.7525C2.90478 10.3541 2.90478 9.64579 3.36011 9.24738L8.84152 4.45115C9.4881 3.88539 10.5 4.34457 10.5 5.20373V14.7962C10.5 15.6554 9.4881 16.1145 8.84152 15.5488L3.36011 10.7525Z" fill="currentColor"/><path fill-rule="evenodd" clip-rule="evenodd" d="M3 4.5C2.72386 4.5 2.5 4.72386 2.5 5L2.5 15C2.5 15.2761 2.72386 15.5 3 15.5C3.27614 15.5 3.5 15.2761 3.5 15L3.5 5C3.5 4.72386 3.27614 4.5 3 4.5Z" fill="currentColor"/><path d="M1.15063 1.87794C0.94979 1.6771 0.94979 1.35147 1.15063 1.15063C1.35147 0.949789 1.6771 0.949789 1.87794 1.15063L18.8494 18.1221C19.0502 18.3229 19.0502 18.6485 18.8494 18.8494C18.6485 19.0502 18.3229 19.0502 18.1221 18.8494L1.15063 1.87794Z" fill="currentColor"/></svg>