<svg width="20" height="20" viewBox="0 0 26 26" fill="none" xmlns="http://www.w3.org/2000/svg"><path opacity="0.2" d="M26 14C26 20.6274 20.6274 26 14 26C7.37258 26 2 20.6274 2 14C2 7.37258 7.37258 2 14 2C20.6274 2 26 7.37258 26 14Z" fill="currentColor"/><g transform="translate(3, 3)"><path fill-rule="evenodd" clip-rule="evenodd" d="M16.5 14.7962L11.0186 9.99996L16.5 5.20373L16.5 14.7962ZM10.3601 10.7525C9.90478 10.3541 9.90478 9.64579 10.3601 9.24738L15.8415 4.45115C16.4881 3.88539 17.5 4.34457 17.5 5.20373V14.7962C17.5 15.6554 16.4881 16.1145 15.8415 15.5488L10.3601 10.7525Z" fill="currentColor"/><path fill-rule="evenodd" clip-rule="evenodd" d="M9.50003 14.7962L4.01862 9.99996L9.50002 5.20373L9.50003 14.7962ZM3.36011 10.7525C2.90478 10.3541 2.90478 9.64579 3.36011 9.24738L8.84152 4.45115C9.4881 3.88539 10.5 4.34457 10.5 5.20373V14.7962C10.5 15.6554 9.4881 16.1145 8.84152 15.5488L3.36011 10.7525Z" fill="currentColor"/><path fill-rule="evenodd" clip-rule="evenodd" d="M3 4.5C2.72386 4.5 2.5 4.72386 2.5 5L2.5 15C2.5 15.2761 2.72386 15.5 3 15.5C3.27614 15.5 3.5 15.2761 3.5 15L3.5 5C3.5 4.72386 3.27614 4.5 3 4.5Z" fill="currentColor"/></g><path fill-rule="evenodd" clip-rule="evenodd" d="M13 24.5C19.3513 24.5 24.5 19.3513 24.5 13C24.5 6.64873 19.3513 1.5 13 1.5C6.64873 1.5 1.5 6.64873 1.5 13C1.5 19.3513 6.64873 24.5 13 24.5ZM13 25.5C19.9036 25.5 25.5 19.9036 25.5 13C25.5 6.09644 19.9036 0.5 13 0.5C6.09644 0.5 0.5 6.09644 0.5 13C0.5 19.9036 6.09644 25.5 13 25.5Z" fill="currentColor"/></svg>