<svg width="20" height="20" viewBox="0 0 20 20" fill="none" xmlns="http://www.w3.org/2000/svg"><g opacity="0.8"><path d="M10.9513 10.3048C10.5764 10.6925 10.5764 11.3076 10.9513 11.6952L16.7812 17.7229C17.4062 18.3691 18.5 17.9267 18.5 17.0277V4.97235C18.5 4.07338 17.4062 3.63095 16.7812 4.27713L10.9513 10.3048Z" fill="currentColor"/><path fill-rule="evenodd" clip-rule="evenodd" d="M13.0613 11L16.5 7.44467V14.5554L13.0613 11ZM10.9513 11.6952C10.5764 11.3076 10.5764 10.6925 10.9513 10.3048L16.7812 4.27713C17.4062 3.63095 18.5 4.07338 18.5 4.97235V17.0277C18.5 17.9267 17.4062 18.3691 16.7812 17.7229L10.9513 11.6952Z" fill="currentColor"/><path d="M4.73902 10.3048C4.36409 10.6925 4.36409 11.3076 4.73902 11.6952L10.5689 17.7229C11.1939 18.3691 12.2877 17.9267 12.2877 17.0277V4.97235C12.2877 4.07338 11.1939 3.63095 10.5689 4.27713L4.73902 10.3048Z" fill="currentColor"/><path fill-rule="evenodd" clip-rule="evenodd" d="M6.84903 11L10.2877 7.44467V14.5554L6.84903 11ZM4.73902 11.6952C4.36409 11.3076 4.36409 10.6925 4.73902 10.3048L10.5689 4.27713C11.1939 3.63095 12.2877 4.07338 12.2877 4.97235V17.0277C12.2877 17.9267 11.1939 18.3691 10.5689 17.7229L4.73902 11.6952Z" fill="currentColor"/><path fill-rule="evenodd" clip-rule="evenodd" d="M4.25208 3.73688C3.69979 3.73688 3.25208 4.18459 3.25208 4.73688L3.25208 17.2632C3.25208 17.8155 3.69979 18.2632 4.25208 18.2632C4.80436 18.2632 5.25208 17.8155 5.25208 17.2632L5.25208 4.73688C5.25208 4.18459 4.80436 3.73688 4.25208 3.73688Z" fill="currentColor"/></g><path fill-rule="evenodd" clip-rule="evenodd" d="M16.9234 15.6694L11.2974 9.50002L16.9234 3.33069V15.6694ZM10.5585 10.1738C10.2104 9.79207 10.2104 9.20796 10.5585 8.8262L16.1845 2.65687C16.7999 1.98205 17.9234 2.41741 17.9234 3.33069V15.6694C17.9234 16.5826 16.7999 17.018 16.1845 16.3432L10.5585 10.1738Z" fill="black"/><path fill-rule="evenodd" clip-rule="evenodd" d="M10.2876 15.6694L4.66168 9.50002L10.2876 3.33069V15.6694ZM3.92278 10.1738C3.57465 9.79207 3.57465 9.20796 3.92278 8.8262L9.54873 2.65687C10.1641 1.98205 11.2876 2.41741 11.2876 3.33069V15.6694C11.2876 16.5826 10.1641 17.018 9.54873 16.3432L3.92278 10.1738Z" fill="black"/><path fill-rule="evenodd" clip-rule="evenodd" d="M3.67542 2.98688C3.39927 2.98688 3.17542 3.21074 3.17542 3.48688L3.17542 16.0132C3.17542 16.2893 3.39927 16.5132 3.67542 16.5132C3.95156 16.5132 4.17542 16.2893 4.17542 16.0132L4.17542 3.48688C4.17542 3.21074 3.95156 2.98688 3.67542 2.98688Z" fill="black"/></svg>