<svg width="20" height="20" viewBox="0 0 26 26" fill="none" xmlns="http://www.w3.org/2000/svg"><path opacity="0.2" fill-rule="evenodd" clip-rule="evenodd" d="M13.5 26C20.4036 26 26 20.4036 26 13.5C26 6.59644 20.4036 1 13.5 1C6.59644 1 1 6.59644 1 13.5C1 20.4036 6.59644 26 13.5 26ZM13.5 24C19.299 24 24 19.299 24 13.5C24 7.70101 19.299 3 13.5 3C7.70101 3 3 7.70101 3 13.5C3 19.299 7.70101 24 13.5 24Z" fill="currentColor"/><g transform="translate(3, 3)"><rect opacity="0.2" x="2" y="7.5" width="18" height="11" rx="3" fill="currentColor"/><path d="M4.5 2C4.5 1.44772 4.94772 1 5.5 1H14.5C15.0523 1 15.5 1.44772 15.5 2V6.5H4.5V2Z" fill="white"/><path d="M5 6.5H4V2.1C4 1.23445 4.61204 0.5 5.41667 0.5H14.5833C15.388 0.5 16 1.23445 16 2.1V6.5H15V2.1C15 1.75052 14.7912 1.5 14.5833 1.5H5.41667C5.20877 1.5 5 1.75052 5 2.1V6.5Z" fill="currentColor"/><path fill-rule="evenodd" clip-rule="evenodd" d="M16 6H4C2.34315 6 1 7.34315 1 9V14C1 15.6569 2.34315 17 4 17H16C17.6569 17 19 15.6569 19 14V9C19 7.34315 17.6569 6 16 6ZM2 9C2 7.89543 2.89543 7 4 7H16C17.1046 7 18 7.89543 18 9V14C18 15.1046 17.1046 16 16 16H4C2.89543 16 2 15.1046 2 14V9Z" fill="currentColor"/><path d="M15.5 17.5313C15.5 18.0835 15.0523 18.5312 14.5 18.5312H5.5C4.94771 18.5312 4.5 18.0835 4.5 17.5312V11.9687L15.5 11.9688V17.5313Z" fill="white"/><path d="M15 11.9688H16V17.2188C16 18.1894 15.412 19.0312 14.5833 19.0312H5.41667C4.58798 19.0312 4 18.1894 4 17.2188V11.9687H5V17.2188C5 17.6979 5.23283 18.0312 5.41667 18.0312H14.5833C14.7672 18.0312 15 17.6979 15 17.2188V11.9688Z" fill="currentColor"/><path d="M13.5 15.5C13.7761 15.5 14 15.7239 14 16C14 16.2761 13.7761 16.5 13.5 16.5H6.5C6.22386 16.5 6 16.2761 6 16C6 15.7239 6.22386 15.5 6.5 15.5H13.5Z" fill="currentColor"/><path d="M13.5 13.5C13.7761 13.5 14 13.7239 14 14C14 14.2761 13.7761 14.5 13.5 14.5L6.5 14.5C6.22386 14.5 6 14.2761 6 14C6 13.7239 6.22386 13.5 6.5 13.5H13.5Z" fill="currentColor"/><path d="M1.15063 1.87794C0.94979 1.6771 0.94979 1.35147 1.15063 1.15063C1.35147 0.949789 1.6771 0.949789 1.87794 1.15063L18.8494 18.1221C19.0502 18.3229 19.0502 18.6485 18.8494 18.8494C18.6485 19.0502 18.3229 19.0502 18.1221 18.8494L1.15063 1.87794Z" fill="currentColor"/></g><path fill-rule="evenodd" clip-rule="evenodd" d="M13 24.5C19.3513 24.5 24.5 19.3513 24.5 13C24.5 6.64873 19.3513 1.5 13 1.5C6.64873 1.5 1.5 6.64873 1.5 13C1.5 19.3513 6.64873 24.5 13 24.5ZM13 25.5C19.9036 25.5 25.5 19.9036 25.5 13C25.5 6.09644 19.9036 0.5 13 0.5C6.09644 0.5 0.5 6.09644 0.5 13C0.5 19.9036 6.09644 25.5 13 25.5Z" fill="currentColor"/></svg>