<svg width="20" height="20" viewBox="0 0 26 26" fill="none" xmlns="http://www.w3.org/2000/svg"><path opacity="0.2" fill-rule="evenodd" clip-rule="evenodd" d="M13.5 26C20.4036 26 26 20.4036 26 13.5C26 6.59644 20.4036 1 13.5 1C6.59644 1 1 6.59644 1 13.5C1 20.4036 6.59644 26 13.5 26ZM13.5 24C19.299 24 24 19.299 24 13.5C24 7.70101 19.299 3 13.5 3C7.70101 3 3 7.70101 3 13.5C3 19.299 7.70101 24 13.5 24Z" fill="currentColor"/><g transform="translate(3, 3)"><g opacity="0.2"><path d="M12.7387 17.2131C12.7387 18.3177 11.8433 19.2131 10.7387 19.2131C9.63414 19.2131 8.73871 18.3177 8.73871 17.2131C8.73871 16.1086 9.63414 15.2131 10.7387 15.2131C11.8433 15.2131 12.7387 16.1086 12.7387 17.2131Z" fill="currentColor"/><path fill-rule="evenodd" clip-rule="evenodd" d="M10.7098 5.76469C10.0396 5.76469 9.46491 5.96516 9.06041 6.25078C8.66962 6.52672 8.47722 6.84831 8.42135 7.12504C8.26287 7.91001 7.49805 8.41789 6.71308 8.25941C5.9281 8.10094 5.42023 7.33612 5.5787 6.55114C5.8061 5.4248 6.50383 4.5059 7.38769 3.88181C8.30815 3.23188 9.47395 2.86469 10.7098 2.86469C13.2675 2.86469 15.9179 4.5747 15.9179 7.32114C15.9179 8.91032 14.9731 10.1971 13.7492 10.9465C13.0663 11.3647 12.1736 11.1501 11.7554 10.4672C11.3372 9.78424 11.5518 8.89159 12.2348 8.47339C12.8054 8.12399 13.0179 7.67949 13.0179 7.32114C13.0179 6.74675 12.3032 5.76469 10.7098 5.76469Z" fill="currentColor"/><path fill-rule="evenodd" clip-rule="evenodd" d="M10.7099 9.62921C11.5107 9.62921 12.1599 10.2784 12.1599 11.0792V12.5824C12.1599 13.3833 11.5107 14.0324 10.7099 14.0324C9.90904 14.0324 9.25985 13.3833 9.25985 12.5824V11.0792C9.25985 10.2784 9.90904 9.62921 10.7099 9.62921Z" fill="currentColor"/><path fill-rule="evenodd" clip-rule="evenodd" d="M14.2388 8.96645C14.6502 9.65354 14.4266 10.544 13.7395 10.9554L11.4546 12.3233C10.7675 12.7346 9.87708 12.5111 9.46573 11.824C9.05438 11.1369 9.27791 10.2465 9.965 9.83512L12.2499 8.46718C12.937 8.05583 13.8275 8.27936 14.2388 8.96645Z" fill="currentColor"/></g><path d="M11 16.25C11 16.9404 10.4404 17.5 9.75 17.5C9.05964 17.5 8.5 16.9404 8.5 16.25C8.5 15.5596 9.05964 15 9.75 15C10.4404 15 11 15.5596 11 16.25Z" fill="currentColor"/><path fill-rule="evenodd" clip-rule="evenodd" d="M9.70985 4.0647C8.90304 4.0647 8.18569 4.30542 7.65664 4.67898C7.14684 5.03895 6.83246 5.50471 6.73519 5.98652C6.65322 6.39255 6.25762 6.65524 5.8516 6.57327C5.44558 6.4913 5.18289 6.0957 5.26486 5.68968C5.45085 4.76842 6.0266 3.9937 6.79145 3.45365C7.58737 2.89165 8.61047 2.5647 9.70985 2.5647C12.0348 2.5647 14.2179 4.099 14.2179 6.32116C14.2179 7.61324 13.4499 8.6967 12.3837 9.34959C12.0304 9.5659 11.5687 9.45489 11.3524 9.10164C11.1361 8.7484 11.2471 8.28668 11.6003 8.07037C12.3286 7.6244 12.7179 6.9766 12.7179 6.32116C12.7179 5.22247 11.536 4.0647 9.70985 4.0647Z" fill="currentColor"/><path fill-rule="evenodd" clip-rule="evenodd" d="M9.70984 9.32922C10.1241 9.32922 10.4598 9.66501 10.4598 10.0792V11.5825C10.4598 11.9967 10.1241 12.3325 9.70984 12.3325C9.29563 12.3325 8.95984 11.9967 8.95984 11.5825V10.0792C8.95984 9.66501 9.29563 9.32922 9.70984 9.32922Z" fill="currentColor"/><path fill-rule="evenodd" clip-rule="evenodd" d="M12.6383 8.32605C12.851 8.68144 12.7354 9.14202 12.38 9.35479L10.0951 10.7227C9.73971 10.9355 9.27912 10.8199 9.06636 10.4645C8.85359 10.1091 8.96921 9.64851 9.3246 9.43574L11.6095 8.0678C11.9649 7.85504 12.4255 7.97066 12.6383 8.32605Z" fill="currentColor"/></g><path fill-rule="evenodd" clip-rule="evenodd" d="M13 24.5C19.3513 24.5 24.5 19.3513 24.5 13C24.5 6.64873 19.3513 1.5 13 1.5C6.64873 1.5 1.5 6.64873 1.5 13C1.5 19.3513 6.64873 24.5 13 24.5ZM13 25.5C19.9036 25.5 25.5 19.9036 25.5 13C25.5 6.09644 19.9036 0.5 13 0.5C6.09644 0.5 0.5 6.09644 0.5 13C0.5 19.9036 6.09644 25.5 13 25.5Z" fill="currentColor"/></svg>