<svg width="20" height="20" viewBox="0 0 26 26" fill="none" xmlns="http://www.w3.org/2000/svg"><path opacity="0.2" fill-rule="evenodd" clip-rule="evenodd" d="M13.5 26C20.4036 26 26 20.4036 26 13.5C26 6.59644 20.4036 1 13.5 1C6.59644 1 1 6.59644 1 13.5C1 20.4036 6.59644 26 13.5 26ZM13.5 24C19.299 24 24 19.299 24 13.5C24 7.70101 19.299 3 13.5 3C7.70101 3 3 7.70101 3 13.5C3 19.299 7.70101 24 13.5 24Z" fill="currentColor"/><g transform="translate(3, 3)"><g opacity="0.2"><path d="M4 10C4 8.34315 5.34315 7 7 7H17C18.6569 7 20 8.34315 20 10V16C20 17.6569 18.6569 19 17 19H7C5.34315 19 4 17.6569 4 16V10Z" fill="currentColor"/><path fill-rule="evenodd" clip-rule="evenodd" d="M16.6708 2.66457C16.8561 3.03505 16.7059 3.48556 16.3354 3.6708L6.33541 8.67083C5.96492 8.85607 5.51442 8.7059 5.32917 8.33542C5.14393 7.96493 5.2941 7.51443 5.66458 7.32919L15.6646 2.32916C16.0351 2.14392 16.4856 2.29408 16.6708 2.66457Z" fill="currentColor"/></g><path fill-rule="evenodd" clip-rule="evenodd" d="M15 7H5C3.89543 7 3 7.89543 3 9V15C3 16.1046 3.89543 17 5 17H15C16.1046 17 17 16.1046 17 15V9C17 7.89543 16.1046 7 15 7ZM5 6C3.34315 6 2 7.34315 2 9V15C2 16.6569 3.34315 18 5 18H15C16.6569 18 18 16.6569 18 15V9C18 7.34315 16.6569 6 15 6H5Z" fill="currentColor"/><path d="M10 12C10 13.3807 8.88071 14.5 7.5 14.5C6.11929 14.5 5 13.3807 5 12C5 10.6193 6.11929 9.5 7.5 9.5C8.88071 9.5 10 10.6193 10 12Z" fill="currentColor"/><path fill-rule="evenodd" clip-rule="evenodd" d="M14.4472 1.47406C14.5707 1.72105 14.4706 2.02138 14.2236 2.14488L4.22361 7.1449C3.97662 7.2684 3.67629 7.16829 3.55279 6.9213C3.4293 6.67431 3.52941 6.37397 3.7764 6.25048L13.7764 1.25045C14.0234 1.12696 14.3237 1.22707 14.4472 1.47406Z" fill="currentColor"/><path fill-rule="evenodd" clip-rule="evenodd" d="M11 10.6499C11 10.4566 11.1567 10.2999 11.35 10.2999H14.65C14.8433 10.2999 15 10.4566 15 10.6499C15 10.8432 14.8433 10.9999 14.65 10.9999H11.35C11.1567 10.9999 11 10.8432 11 10.6499Z" fill="currentColor"/><path fill-rule="evenodd" clip-rule="evenodd" d="M11 12.1499C11 11.9566 11.1567 11.7999 11.35 11.7999H14.65C14.8433 11.7999 15 11.9566 15 12.1499C15 12.3432 14.8433 12.4999 14.65 12.4999H11.35C11.1567 12.4999 11 12.3432 11 12.1499Z" fill="currentColor"/><path fill-rule="evenodd" clip-rule="evenodd" d="M11 13.6499C11 13.4566 11.1567 13.2999 11.35 13.2999H14.65C14.8433 13.2999 15 13.4566 15 13.6499C15 13.8432 14.8433 13.9999 14.65 13.9999H11.35C11.1567 13.9999 11 13.8432 11 13.6499Z" fill="currentColor"/></g><path fill-rule="evenodd" clip-rule="evenodd" d="M13 24.5C19.3513 24.5 24.5 19.3513 24.5 13C24.5 6.64873 19.3513 1.5 13 1.5C6.64873 1.5 1.5 6.64873 1.5 13C1.5 19.3513 6.64873 24.5 13 24.5ZM13 25.5C19.9036 25.5 25.5 19.9036 25.5 13C25.5 6.09644 19.9036 0.5 13 0.5C6.09644 0.5 0.5 6.09644 0.5 13C0.5 19.9036 6.09644 25.5 13 25.5Z" fill="currentColor"/></svg>