<svg width="20" height="20" viewBox="0 0 26 26" fill="none" xmlns="http://www.w3.org/2000/svg"><path opacity="0.2" d="M26 14C26 20.6274 20.6274 26 14 26C7.37258 26 2 20.6274 2 14C2 7.37258 7.37258 2 14 2C20.6274 2 26 7.37258 26 14Z" fill="currentColor"/><g transform="translate(3, 3)"><path fill-rule="evenodd" clip-rule="evenodd" d="M11.5 5.5C9.84315 5.5 8.5 6.84315 8.5 8.5C8.5 10.1569 9.84315 11.5 11.5 11.5C13.1569 11.5 14.5 10.1569 14.5 8.5C14.5 6.84315 13.1569 5.5 11.5 5.5ZM7.5 8.5C7.5 6.29086 9.29086 4.5 11.5 4.5C13.7091 4.5 15.5 6.29086 15.5 8.5C15.5 10.7091 13.7091 12.5 11.5 12.5C9.29086 12.5 7.5 10.7091 7.5 8.5Z" fill="currentColor"/><path fill-rule="evenodd" clip-rule="evenodd" d="M2.5 4C2.5 2.89543 3.39543 2 4.5 2C5.60457 2 6.5 2.89543 6.5 4V7.27222C6.5 8.27165 6.85039 9.23944 7.49021 10.0072L8.88411 11.6799C9.06089 11.892 9.03223 12.2073 8.82009 12.3841C8.60795 12.5609 8.29267 12.5322 8.11589 12.3201L6.72199 10.6474C5.93241 9.69991 5.5 8.50558 5.5 7.27222V4C5.5 3.44772 5.05228 3 4.5 3C3.94772 3 3.5 3.44772 3.5 4V7.75C3.5 8.48863 3.68182 9.21591 4.02941 9.86765L7.44118 16.2647C7.57113 16.5084 7.47895 16.8112 7.23529 16.9412C6.99164 17.0711 6.68877 16.9789 6.55882 16.7353L3.14706 10.3382C2.72222 9.54167 2.5 8.65277 2.5 7.75V4Z" fill="currentColor"/><path fill-rule="evenodd" clip-rule="evenodd" d="M8 12C8 11.7239 8.22386 11.5 8.5 11.5H11C14.0376 11.5 16.5 13.9624 16.5 17V19C16.5 19.2761 16.2761 19.5 16 19.5C15.7239 19.5 15.5 19.2761 15.5 19V17C15.5 14.5147 13.4853 12.5 11 12.5H8.5C8.22386 12.5 8 12.2761 8 12ZM7 16C7.27614 16 7.5 16.2239 7.5 16.5V19C7.5 19.2761 7.27614 19.5 7 19.5C6.72386 19.5 6.5 19.2761 6.5 19V16.5C6.5 16.2239 6.72386 16 7 16Z" fill="currentColor"/></g><path fill-rule="evenodd" clip-rule="evenodd" d="M13 24.5C19.3513 24.5 24.5 19.3513 24.5 13C24.5 6.64873 19.3513 1.5 13 1.5C6.64873 1.5 1.5 6.64873 1.5 13C1.5 19.3513 6.64873 24.5 13 24.5ZM13 25.5C19.9036 25.5 25.5 19.9036 25.5 13C25.5 6.09644 19.9036 0.5 13 0.5C6.09644 0.5 0.5 6.09644 0.5 13C0.5 19.9036 6.09644 25.5 13 25.5Z" fill="currentColor"/></svg>