<svg width="20" height="20" viewBox="0 0 26 26" fill="none" xmlns="http://www.w3.org/2000/svg"><path opacity="0.2" fill-rule="evenodd" clip-rule="evenodd" d="M13.5 26C20.4036 26 26 20.4036 26 13.5C26 6.59644 20.4036 1 13.5 1C6.59644 1 1 6.59644 1 13.5C1 20.4036 6.59644 26 13.5 26ZM13.5 24C19.299 24 24 19.299 24 13.5C24 7.70101 19.299 3 13.5 3C7.70101 3 3 7.70101 3 13.5C3 19.299 7.70101 24 13.5 24Z" fill="currentColor"/><g transform="translate(3, 3)"><g opacity="0.2"><path d="M16 9C16 10.933 14.433 12.5 12.5 12.5C10.567 12.5 9 10.933 9 9C9 7.067 10.567 5.5 12.5 5.5C14.433 5.5 16 7.067 16 9Z" fill="currentColor"/><path fill-rule="evenodd" clip-rule="evenodd" d="M12.5 10.5C13.3284 10.5 14 9.82843 14 9C14 8.17157 13.3284 7.5 12.5 7.5C11.6716 7.5 11 8.17157 11 9C11 9.82843 11.6716 10.5 12.5 10.5ZM12.5 12.5C14.433 12.5 16 10.933 16 9C16 7.067 14.433 5.5 12.5 5.5C10.567 5.5 9 7.067 9 9C9 10.933 10.567 12.5 12.5 12.5Z" fill="currentColor"/><path d="M7 7.77222V4.5C7 3.67157 6.32843 3 5.5 3C4.67157 3 4 3.67157 4 4.5V8.25C4 9.0707 4.20202 9.87879 4.58824 10.6029L7.88235 16.7794C7.9596 16.9242 8 17.0859 8 17.25V19C8 19.5523 8.44772 19.5 9 19.5H16C16.5523 19.5 17 19.5523 17 19V17.5C17 14.7386 14.7614 12.5 12 12.5H11.6773C10.2977 12.5 8.98933 11.8872 8.1061 10.8273C7.3914 9.96968 7 8.88861 7 7.77222Z" fill="currentColor"/><path fill-rule="evenodd" clip-rule="evenodd" d="M8.50313 13.6934L9.64706 15.8382L7.88235 16.7794L4.58824 10.6029C4.20202 9.87879 4 9.0707 4 8.25V4.5C4 3.67157 4.67157 3 5.5 3C6.32843 3 7 3.67157 7 4.5V7.77222C7 8.88861 7.3914 9.96968 8.1061 10.8273C8.98933 11.8872 10.2977 12.5 11.6773 12.5H12C14.7614 12.5 17 14.7386 17 17.5V19C17 19.5075 16.622 19.5045 16.1322 19.5007C16.089 19.5003 16.0448 19.5 16 19.5H9C8.95517 19.5 8.91103 19.5003 8.86776 19.5007C8.37798 19.5045 8 19.5075 8 19V17.25C8 17.0859 7.9596 16.9242 7.88235 16.7794L9.64706 15.8382C9.87879 16.2727 10 16.7576 10 17.25V17.5H15C15 15.8431 13.6569 14.5 12 14.5H11.6773C10.5553 14.5 9.46619 14.2166 8.50313 13.6934ZM16.3344 17.5002C16.3364 17.5002 16.3381 17.5001 16.3396 17.5C16.3452 17.4997 16.3478 17.4995 16.3477 17.4994C16.3476 17.4993 16.3439 17.4994 16.3371 17.5C16.3363 17.5001 16.3354 17.5002 16.3344 17.5002ZM8.65234 17.4994C8.65254 17.4993 8.65713 17.4995 8.66557 17.5002C8.65637 17.4999 8.65214 17.4995 8.65234 17.4994Z" fill="currentColor"/></g><path fill-rule="evenodd" clip-rule="evenodd" d="M11.5 5.5C9.84315 5.5 8.5 6.84315 8.5 8.5C8.5 10.1569 9.84315 11.5 11.5 11.5C13.1569 11.5 14.5 10.1569 14.5 8.5C14.5 6.84315 13.1569 5.5 11.5 5.5ZM7.5 8.5C7.5 6.29086 9.29086 4.5 11.5 4.5C13.7091 4.5 15.5 6.29086 15.5 8.5C15.5 10.7091 13.7091 12.5 11.5 12.5C9.29086 12.5 7.5 10.7091 7.5 8.5Z" fill="currentColor"/><path fill-rule="evenodd" clip-rule="evenodd" d="M2.5 4C2.5 2.89543 3.39543 2 4.5 2C5.60457 2 6.5 2.89543 6.5 4V7.27222C6.5 8.27165 6.85039 9.23944 7.49021 10.0072L8.88411 11.6799C9.06089 11.892 9.03223 12.2073 8.82009 12.3841C8.60795 12.5609 8.29267 12.5322 8.11589 12.3201L6.72199 10.6474C5.93241 9.69991 5.5 8.50558 5.5 7.27222V4C5.5 3.44772 5.05228 3 4.5 3C3.94772 3 3.5 3.44772 3.5 4V7.75C3.5 8.48863 3.68182 9.21591 4.02941 9.86765L7.44118 16.2647C7.57113 16.5084 7.47895 16.8112 7.23529 16.9412C6.99164 17.0711 6.68877 16.9789 6.55882 16.7353L3.14706 10.3382C2.72222 9.54167 2.5 8.65277 2.5 7.75V4Z" fill="currentColor"/><path fill-rule="evenodd" clip-rule="evenodd" d="M8 12C8 11.7239 8.22386 11.5 8.5 11.5H11C14.0376 11.5 16.5 13.9624 16.5 17V19C16.5 19.2761 16.2761 19.5 16 19.5C15.7239 19.5 15.5 19.2761 15.5 19V17C15.5 14.5147 13.4853 12.5 11 12.5H8.5C8.22386 12.5 8 12.2761 8 12ZM7 16C7.27614 16 7.5 16.2239 7.5 16.5V19C7.5 19.2761 7.27614 19.5 7 19.5C6.72386 19.5 6.5 19.2761 6.5 19V16.5C6.5 16.2239 6.72386 16 7 16Z" fill="currentColor"/></g><path fill-rule="evenodd" clip-rule="evenodd" d="M13 24.5C19.3513 24.5 24.5 19.3513 24.5 13C24.5 6.64873 19.3513 1.5 13 1.5C6.64873 1.5 1.5 6.64873 1.5 13C1.5 19.3513 6.64873 24.5 13 24.5ZM13 25.5C19.9036 25.5 25.5 19.9036 25.5 13C25.5 6.09644 19.9036 0.5 13 0.5C6.09644 0.5 0.5 6.09644 0.5 13C0.5 19.9036 6.09644 25.5 13 25.5Z" fill="currentColor"/></svg>