<svg xmlns="http://www.w3.org/2000/svg" width="20" height="20" viewBox="0 0 20 20">
  <g fill="none" fill-rule="evenodd">
    <circle cx="12" cy="10.5" r="6.5" fill="#AB92F0" fill-rule="nonzero"/>
    <path stroke="#000" stroke-linecap="round" d="M5.60735931,14.2426407 C6.69314575,15.3284271 8.19314575,16 9.85,16 C13.1637085,16 15.85,13.3137085 15.85,10"/>
    <path stroke="#000" stroke-linecap="round" d="M13.0075917,12.1990539 L15.7004217,9.80094614" transform="rotate(8 14.354 11)"/>
    <path stroke="#000" stroke-linecap="round" d="M18.0490277,12.846229 L15.6509723,10.153771" transform="rotate(8 16.85 11.5)"/>
    <path stroke="#000" stroke-linecap="round" d="M3.75735931,8.04358683 C4.84314575,9.12937326 6.34314575,9.80094614 8,9.80094614 C11.3137085,9.80094614 14,7.11465464 14,3.80094614" transform="rotate(-180 8.879 6.8)"/>
    <path stroke="#000" stroke-linecap="round" d="M3.90693762,10 L6.59976761,7.60189228" transform="rotate(-172 5.253 8.8)"/>
    <path stroke="#000" stroke-linecap="round" d="M3.95638703,9.64717514 L1.55833159,6.95471714" transform="rotate(-172 2.757 8.3)"/>
  </g>
</svg>
