<svg width="20" height="20" viewBox="0 0 26 26" fill="none" xmlns="http://www.w3.org/2000/svg"><path opacity="0.2" d="M26 14C26 20.6274 20.6274 26 14 26C7.37258 26 2 20.6274 2 14C2 7.37258 7.37258 2 14 2C20.6274 2 26 7.37258 26 14Z" fill="currentColor"/><g transform="translate(3, 3)"><path fill-rule="evenodd" clip-rule="evenodd" d="M14.6674 2.94581C14.8851 2.77597 15.1993 2.81479 15.3692 3.03252L16.9157 5.01508C17.0855 5.23281 17.0467 5.547 16.829 5.71685C16.6113 5.88669 16.2971 5.84787 16.1272 5.63014L14.5807 3.64758C14.4109 3.42985 14.4497 3.11566 14.6674 2.94581Z" fill="currentColor"/><path fill-rule="evenodd" clip-rule="evenodd" d="M16.8256 4.92583C16.6065 4.75783 16.2926 4.79931 16.1246 5.01847L14.5781 7.03592C14.4101 7.25508 14.4516 7.56894 14.6708 7.73694C14.8899 7.90494 15.2038 7.86346 15.3718 7.6443L16.9183 5.62685C17.0863 5.40769 17.0448 5.09383 16.8256 4.92583Z" fill="currentColor"/><path fill-rule="evenodd" clip-rule="evenodd" d="M2.97498 9.32263C2.97498 6.83735 4.98969 4.82263 7.47498 4.82263H15.975C16.2511 4.82263 16.475 5.04649 16.475 5.32263C16.475 5.59877 16.2511 5.82263 15.975 5.82263H7.47498C5.54198 5.82263 3.97498 7.38964 3.97498 9.32263V10.6598C3.97498 10.936 3.75112 11.1598 3.47498 11.1598C3.19883 11.1598 2.97498 10.936 2.97498 10.6598V9.32263Z" fill="currentColor"/><path fill-rule="evenodd" clip-rule="evenodd" d="M5.32905 17.0541C5.11132 17.224 4.79713 17.1852 4.62728 16.9674L3.08076 14.9849C2.91092 14.7671 2.94974 14.4529 3.16747 14.2831C3.3852 14.1132 3.6994 14.1521 3.86924 14.3698L5.41576 16.3524C5.58561 16.5701 5.54679 16.8843 5.32905 17.0541Z" fill="currentColor"/><path fill-rule="evenodd" clip-rule="evenodd" d="M3.17081 15.0742C3.38997 15.2422 3.70382 15.2007 3.87182 14.9815L5.41833 12.9641C5.58633 12.7449 5.54486 12.4311 5.3257 12.2631C5.10654 12.0951 4.79269 12.1365 4.62469 12.3557L3.07818 14.3732C2.91018 14.5923 2.95165 14.9062 3.17081 15.0742Z" fill="currentColor"/><path fill-rule="evenodd" clip-rule="evenodd" d="M17.0215 10.6774C17.0215 13.1626 15.0068 15.1774 12.5215 15.1774H4.02148C3.74534 15.1774 3.52148 14.9535 3.52148 14.6774C3.52148 14.4012 3.74534 14.1774 4.02148 14.1774H12.5215C14.4545 14.1774 16.0215 12.6104 16.0215 10.6774V9.34016C16.0215 9.06402 16.2453 8.84016 16.5215 8.84016C16.7976 8.84016 17.0215 9.06402 17.0215 9.34016V10.6774Z" fill="currentColor"/></g><path fill-rule="evenodd" clip-rule="evenodd" d="M13 24.5C19.3513 24.5 24.5 19.3513 24.5 13C24.5 6.64873 19.3513 1.5 13 1.5C6.64873 1.5 1.5 6.64873 1.5 13C1.5 19.3513 6.64873 24.5 13 24.5ZM13 25.5C19.9036 25.5 25.5 19.9036 25.5 13C25.5 6.09644 19.9036 0.5 13 0.5C6.09644 0.5 0.5 6.09644 0.5 13C0.5 19.9036 6.09644 25.5 13 25.5Z" fill="currentColor"/></svg>