<svg width="20" height="20" viewBox="0 0 26 26" fill="none" xmlns="http://www.w3.org/2000/svg"><path opacity="0.2" fill-rule="evenodd" clip-rule="evenodd" d="M13.5 26C20.4036 26 26 20.4036 26 13.5C26 6.59644 20.4036 1 13.5 1C6.59644 1 1 6.59644 1 13.5C1 20.4036 6.59644 26 13.5 26ZM13.5 24C19.299 24 24 19.299 24 13.5C24 7.70101 19.299 3 13.5 3C7.70101 3 3 7.70101 3 13.5C3 19.299 7.70101 24 13.5 24Z" fill="currentColor"/><g transform="translate(3, 3)"><g opacity="0.2"><path fill-rule="evenodd" clip-rule="evenodd" d="M15.5137 3.7487C15.8402 3.49393 16.3115 3.55217 16.5663 3.87876L18.1128 5.86132C18.3676 6.18792 18.3094 6.65921 17.9828 6.91398C17.6562 7.16874 17.1849 7.11051 16.9301 6.78392L15.3836 4.80136C15.1288 4.47476 15.1871 4.00347 15.5137 3.7487Z" fill="currentColor"/><path fill-rule="evenodd" clip-rule="evenodd" d="M17.9777 5.72744C17.649 5.47544 17.1782 5.53765 16.9262 5.86638L15.3797 7.88384C15.1277 8.21258 15.1899 8.68336 15.5187 8.93536C15.8474 9.18736 16.3182 9.12515 16.5702 8.79641L18.1167 6.77896C18.3687 6.45022 18.3065 5.97944 17.9777 5.72744Z" fill="currentColor"/><path fill-rule="evenodd" clip-rule="evenodd" d="M3.47498 10.3226C3.47498 7.56121 5.71355 5.32263 8.47498 5.32263H16.3354C16.8877 5.32263 17.3354 5.77035 17.3354 6.32263C17.3354 6.87492 16.8877 7.32263 16.3354 7.32263H8.47498C6.81812 7.32263 5.47498 8.66578 5.47498 10.3226V10.8226C5.47498 11.3749 5.02726 11.8226 4.47498 11.8226C3.92269 11.8226 3.47498 11.3749 3.47498 10.8226V10.3226Z" fill="currentColor"/><path fill-rule="evenodd" clip-rule="evenodd" d="M6.48281 18.2512C6.15621 18.506 5.68492 18.4478 5.43015 18.1212L3.88363 16.1386C3.62887 15.812 3.6871 15.3407 4.01369 15.086C4.34029 14.8312 4.81158 14.8894 5.06635 15.216L6.61287 17.1986C6.86764 17.5252 6.80941 17.9965 6.48281 18.2512Z" fill="currentColor"/><path fill-rule="evenodd" clip-rule="evenodd" d="M4.01873 16.2726C4.34747 16.5246 4.81825 16.4624 5.07025 16.1336L6.61676 14.1162C6.86876 13.7874 6.80655 13.3166 6.47781 13.0646C6.14907 12.8126 5.67829 12.8749 5.42629 13.2036L3.87978 15.221C3.62778 15.5498 3.68999 16.0206 4.01873 16.2726Z" fill="currentColor"/><path fill-rule="evenodd" clip-rule="evenodd" d="M18.5215 11.6774C18.5215 14.4388 16.2829 16.6774 13.5215 16.6774H5.66102C5.10873 16.6774 4.66102 16.2297 4.66102 15.6774C4.66102 15.1251 5.10873 14.6774 5.66102 14.6774H13.5215C15.1783 14.6774 16.5215 13.3342 16.5215 11.6774V11.1774C16.5215 10.6251 16.9692 10.1774 17.5215 10.1774C18.0738 10.1774 18.5215 10.6251 18.5215 11.1774V11.6774Z" fill="currentColor"/></g><path fill-rule="evenodd" clip-rule="evenodd" d="M14.6674 2.94581C14.8851 2.77597 15.1993 2.81479 15.3692 3.03252L16.9157 5.01508C17.0855 5.23281 17.0467 5.547 16.829 5.71685C16.6113 5.88669 16.2971 5.84787 16.1272 5.63014L14.5807 3.64758C14.4109 3.42985 14.4497 3.11566 14.6674 2.94581Z" fill="currentColor"/><path fill-rule="evenodd" clip-rule="evenodd" d="M16.8256 4.92583C16.6065 4.75783 16.2926 4.79931 16.1246 5.01847L14.5781 7.03592C14.4101 7.25508 14.4516 7.56894 14.6708 7.73694C14.8899 7.90494 15.2038 7.86346 15.3718 7.6443L16.9183 5.62685C17.0863 5.40769 17.0448 5.09383 16.8256 4.92583Z" fill="currentColor"/><path fill-rule="evenodd" clip-rule="evenodd" d="M2.97498 9.32263C2.97498 6.83735 4.98969 4.82263 7.47498 4.82263H15.975C16.2511 4.82263 16.475 5.04649 16.475 5.32263C16.475 5.59877 16.2511 5.82263 15.975 5.82263H7.47498C5.54198 5.82263 3.97498 7.38964 3.97498 9.32263V10.6598C3.97498 10.936 3.75112 11.1598 3.47498 11.1598C3.19883 11.1598 2.97498 10.936 2.97498 10.6598V9.32263Z" fill="currentColor"/><path fill-rule="evenodd" clip-rule="evenodd" d="M5.32905 17.0541C5.11132 17.224 4.79713 17.1852 4.62728 16.9674L3.08076 14.9849C2.91092 14.7671 2.94974 14.4529 3.16747 14.2831C3.3852 14.1132 3.6994 14.1521 3.86924 14.3698L5.41576 16.3524C5.58561 16.5701 5.54679 16.8843 5.32905 17.0541Z" fill="currentColor"/><path fill-rule="evenodd" clip-rule="evenodd" d="M3.17081 15.0742C3.38997 15.2422 3.70382 15.2007 3.87182 14.9815L5.41833 12.9641C5.58633 12.7449 5.54486 12.4311 5.3257 12.2631C5.10654 12.0951 4.79269 12.1365 4.62469 12.3557L3.07818 14.3732C2.91018 14.5923 2.95165 14.9062 3.17081 15.0742Z" fill="currentColor"/><path fill-rule="evenodd" clip-rule="evenodd" d="M17.0215 10.6774C17.0215 13.1626 15.0068 15.1774 12.5215 15.1774H4.02148C3.74534 15.1774 3.52148 14.9535 3.52148 14.6774C3.52148 14.4012 3.74534 14.1774 4.02148 14.1774H12.5215C14.4545 14.1774 16.0215 12.6104 16.0215 10.6774V9.34016C16.0215 9.06402 16.2453 8.84016 16.5215 8.84016C16.7976 8.84016 17.0215 9.06402 17.0215 9.34016V10.6774Z" fill="currentColor"/></g><path fill-rule="evenodd" clip-rule="evenodd" d="M13 24.5C19.3513 24.5 24.5 19.3513 24.5 13C24.5 6.64873 19.3513 1.5 13 1.5C6.64873 1.5 1.5 6.64873 1.5 13C1.5 19.3513 6.64873 24.5 13 24.5ZM13 25.5C19.9036 25.5 25.5 19.9036 25.5 13C25.5 6.09644 19.9036 0.5 13 0.5C6.09644 0.5 0.5 6.09644 0.5 13C0.5 19.9036 6.09644 25.5 13 25.5Z" fill="currentColor"/></svg>