<svg width="20" height="20" viewBox="0 0 26 26" fill="none" xmlns="http://www.w3.org/2000/svg"><path opacity="0.2" fill-rule="evenodd" clip-rule="evenodd" d="M13.5 26C20.4036 26 26 20.4036 26 13.5C26 6.59644 20.4036 1 13.5 1C6.59644 1 1 6.59644 1 13.5C1 20.4036 6.59644 26 13.5 26ZM13.5 24C19.299 24 24 19.299 24 13.5C24 7.70101 19.299 3 13.5 3C7.70101 3 3 7.70101 3 13.5C3 19.299 7.70101 24 13.5 24Z" fill="currentColor"/><g transform="translate(3, 3)"><g opacity="0.2"><path d="M11.8601 10.7474C11.4048 11.1458 11.4048 11.8541 11.8601 12.2525L17.3415 17.0488C17.9881 17.6145 19 17.1553 19 16.2962V6.70373C19 5.84457 17.9881 5.38539 17.3415 5.95115L11.8601 10.7474Z" fill="currentColor"/><path fill-rule="evenodd" clip-rule="evenodd" d="M11.5308 12.6288L17.0122 17.4251C17.9821 18.2737 19.5 17.5849 19.5 16.2962V6.70372C19.5 5.41499 17.9821 4.72622 17.0122 5.57486L11.5308 10.3711C10.8478 10.9687 10.8478 12.0312 11.5308 12.6288ZM11.8601 12.2525C11.4048 11.8541 11.4048 11.1458 11.8601 10.7474L17.3415 5.95115C17.9881 5.38539 19 5.84457 19 6.70372V16.2962C19 17.1553 17.9881 17.6145 17.3415 17.0488L11.8601 12.2525Z" fill="currentColor"/><path d="M4.86008 10.7474C4.40475 11.1458 4.40475 11.8541 4.86008 12.2525L10.3415 17.0488C10.9881 17.6145 12 17.1553 12 16.2962V6.70373C12 5.84457 10.9881 5.38539 10.3415 5.95115L4.86008 10.7474Z" fill="currentColor"/><path fill-rule="evenodd" clip-rule="evenodd" d="M4.53083 12.6288L10.0122 17.4251C10.9821 18.2737 12.5 17.5849 12.5 16.2962V6.70372C12.5 5.41499 10.9821 4.72622 10.0122 5.57486L4.53083 10.3711C3.84784 10.9687 3.84784 12.0312 4.53083 12.6288ZM4.86008 12.2525C4.40475 11.8541 4.40475 11.1458 4.86008 10.7474L10.3415 5.95115C10.9881 5.38539 12 5.84457 12 6.70372V16.2962C12 17.1553 10.9881 17.6145 10.3415 17.0488L4.86008 12.2525Z" fill="currentColor"/></g><path fill-rule="evenodd" clip-rule="evenodd" d="M16.5 14.7962L11.0186 9.99996L16.5 5.20373L16.5 14.7962ZM10.3601 10.7525C9.90475 10.3541 9.90475 9.64579 10.3601 9.24738L15.8415 4.45115C16.4881 3.88539 17.5 4.34457 17.5 5.20373V14.7962C17.5 15.6554 16.4881 16.1145 15.8415 15.5488L10.3601 10.7525Z" fill="currentColor"/><path fill-rule="evenodd" clip-rule="evenodd" d="M9.5 14.7962L4.01859 9.99996L9.49999 5.20373L9.5 14.7962ZM3.36008 10.7525C2.90475 10.3541 2.90475 9.64579 3.36008 9.24738L8.84149 4.45115C9.48807 3.88539 10.5 4.34457 10.5 5.20373V14.7962C10.5 15.6554 9.48807 16.1145 8.84149 15.5488L3.36008 10.7525Z" fill="currentColor"/><path d="M1.15063 1.87794C0.94979 1.6771 0.94979 1.35147 1.15063 1.15063C1.35147 0.949789 1.6771 0.949789 1.87794 1.15063L18.8494 18.1221C19.0502 18.3229 19.0502 18.6485 18.8494 18.8494C18.6485 19.0502 18.3229 19.0502 18.1221 18.8494L1.15063 1.87794Z" fill="currentColor"/></g><path fill-rule="evenodd" clip-rule="evenodd" d="M13 24.5C19.3513 24.5 24.5 19.3513 24.5 13C24.5 6.64873 19.3513 1.5 13 1.5C6.64873 1.5 1.5 6.64873 1.5 13C1.5 19.3513 6.64873 24.5 13 24.5ZM13 25.5C19.9036 25.5 25.5 19.9036 25.5 13C25.5 6.09644 19.9036 0.5 13 0.5C6.09644 0.5 0.5 6.09644 0.5 13C0.5 19.9036 6.09644 25.5 13 25.5Z" fill="currentColor"/></svg>