<svg width="20" height="20" viewBox="0 0 26 26" fill="none" xmlns="http://www.w3.org/2000/svg"><path opacity="0.2" d="M26 14C26 20.6274 20.6274 26 14 26C7.37258 26 2 20.6274 2 14C2 7.37258 7.37258 2 14 2C20.6274 2 26 7.37258 26 14Z" fill="currentColor"/><g transform="translate(3, 3)"><path fill-rule="evenodd" clip-rule="evenodd" d="M2.31066 13.6264C2.1154 13.8217 2.1154 14.1383 2.31066 14.3335L5.84619 17.8691C6.04145 18.0643 6.35804 18.0643 6.5533 17.8691L17.867 6.55536C18.0623 6.3601 18.0623 6.04351 17.867 5.84825L14.3315 2.31272C14.1362 2.11746 13.8196 2.11746 13.6244 2.31272L12.5637 3.37338L14.2725 5.08222C14.4678 5.27748 14.4678 5.59406 14.2725 5.78933C14.0773 5.98459 13.7607 5.98459 13.5654 5.78933L11.8566 4.08049L10.4424 5.4947L11.3263 6.37858C11.5215 6.57384 11.5215 6.89043 11.3263 7.08569C11.131 7.28095 10.8144 7.28095 10.6192 7.08569L9.73528 6.20181L8.32107 7.61602L10.0299 9.32486C10.2252 9.52012 10.2252 9.83671 10.0299 10.032C9.83465 10.2272 9.51806 10.2272 9.3228 10.032L7.61396 8.32313L6.19975 9.73734L7.08363 10.6212C7.27889 10.8165 7.27889 11.1331 7.08363 11.3283C6.88837 11.5236 6.57179 11.5236 6.37652 11.3283L5.49264 10.4444L4.07843 11.8587L5.78727 13.5675C5.98253 13.7628 5.98253 14.0793 5.78727 14.2746C5.59201 14.4699 5.27542 14.4699 5.08016 14.2746L3.37132 12.5658L2.31066 13.6264ZM1.60355 15.0406C1.01777 14.4549 1.01777 13.5051 1.60355 12.9193L12.9173 1.60561C13.503 1.01983 14.4528 1.01983 15.0386 1.60561L18.5741 5.14115C19.1599 5.72693 19.1599 6.67668 18.5741 7.26247L7.26041 18.5762C6.67462 19.162 5.72487 19.162 5.13909 18.5762L1.60355 15.0406Z" fill="currentColor"/></g><path fill-rule="evenodd" clip-rule="evenodd" d="M13 24.5C19.3513 24.5 24.5 19.3513 24.5 13C24.5 6.64873 19.3513 1.5 13 1.5C6.64873 1.5 1.5 6.64873 1.5 13C1.5 19.3513 6.64873 24.5 13 24.5ZM13 25.5C19.9036 25.5 25.5 19.9036 25.5 13C25.5 6.09644 19.9036 0.5 13 0.5C6.09644 0.5 0.5 6.09644 0.5 13C0.5 19.9036 6.09644 25.5 13 25.5Z" fill="currentColor"/></svg>