<svg width="20" height="20" viewBox="0 0 20 20" fill="none" xmlns="http://www.w3.org/2000/svg"><path opacity="0.2" d="M2.86827 15.6071C2.47775 15.2166 2.47775 14.5834 2.86827 14.1929V14.1929L3.57538 13.4858L4.28248 12.7787L4.98959 12.0716L5.6967 11.3645L6.4038 10.6574L7.11091 9.95028L7.81802 9.24317L8.52512 8.53606L9.23223 7.82896L9.93934 7.12185L10.6464 6.41474L11.3536 5.70764L12.0607 5.00053L12.7678 4.29342L13.4749 3.58632L14.182 2.87921V2.87921C14.5725 2.48869 15.2057 2.48869 15.5962 2.87921L19.1317 6.41474C19.5223 6.80527 19.5223 7.43843 19.1317 7.82896L7.81802 19.1427C7.42749 19.5332 6.79433 19.5332 6.4038 19.1427L2.86827 15.6071Z" fill="currentColor"/><path fill-rule="evenodd" clip-rule="evenodd" d="M2.31066 13.6264C2.1154 13.8217 2.1154 14.1383 2.31066 14.3335L5.84619 17.8691C6.04145 18.0643 6.35804 18.0643 6.5533 17.8691L17.867 6.55536C18.0623 6.3601 18.0623 6.04351 17.867 5.84825L14.3315 2.31272C14.1362 2.11746 13.8196 2.11746 13.6244 2.31272L12.5637 3.37338L14.2725 5.08222C14.4678 5.27748 14.4678 5.59406 14.2725 5.78933C14.0773 5.98459 13.7607 5.98459 13.5654 5.78933L11.8566 4.08049L10.4424 5.4947L11.3263 6.37858C11.5215 6.57384 11.5215 6.89043 11.3263 7.08569C11.131 7.28095 10.8144 7.28095 10.6192 7.08569L9.73528 6.20181L8.32107 7.61602L10.0299 9.32486C10.2252 9.52012 10.2252 9.83671 10.0299 10.032C9.83465 10.2272 9.51806 10.2272 9.3228 10.032L7.61396 8.32313L6.19975 9.73734L7.08363 10.6212C7.27889 10.8165 7.27889 11.1331 7.08363 11.3283C6.88837 11.5236 6.57179 11.5236 6.37652 11.3283L5.49264 10.4444L4.07843 11.8587L5.78727 13.5675C5.98253 13.7628 5.98253 14.0793 5.78727 14.2746C5.59201 14.4699 5.27542 14.4699 5.08016 14.2746L3.37132 12.5658L2.31066 13.6264ZM1.60355 15.0406C1.01777 14.4549 1.01777 13.5051 1.60355 12.9193L12.9173 1.60561C13.503 1.01983 14.4528 1.01983 15.0386 1.60561L18.5741 5.14115C19.1599 5.72693 19.1599 6.67668 18.5741 7.26247L7.26041 18.5762C6.67462 19.162 5.72487 19.162 5.13909 18.5762L1.60355 15.0406Z" fill="currentColor"/><path d="M1.15063 1.87794C0.94979 1.6771 0.94979 1.35147 1.15063 1.15063C1.35147 0.949789 1.6771 0.949789 1.87794 1.15063L18.8494 18.1221C19.0502 18.3229 19.0502 18.6485 18.8494 18.8494C18.6485 19.0502 18.3229 19.0502 18.1221 18.8494L1.15063 1.87794Z" fill="currentColor"/></svg>