<svg width="20" height="20" viewBox="0 0 26 26" fill="none" xmlns="http://www.w3.org/2000/svg"><path opacity="0.2" d="M26 14C26 20.6274 20.6274 26 14 26C7.37258 26 2 20.6274 2 14C2 7.37258 7.37258 2 14 2C20.6274 2 26 7.37258 26 14Z" fill="currentColor"/><g transform="translate(3, 3)"><path fill-rule="evenodd" clip-rule="evenodd" d="M5.5 8.5C7.15685 8.5 8.5 7.15685 8.5 5.5C8.5 3.84315 7.15685 2.5 5.5 2.5C3.84315 2.5 2.5 3.84315 2.5 5.5C2.5 7.15685 3.84315 8.5 5.5 8.5ZM5.5 3.5C6.60457 3.5 7.5 4.39543 7.5 5.5C7.5 6.60457 6.60457 7.5 5.5 7.5C4.39543 7.5 3.5 6.60457 3.5 5.5C3.5 4.39543 4.39543 3.5 5.5 3.5Z" fill="currentColor"/><path fill-rule="evenodd" clip-rule="evenodd" d="M5.5 18.5C7.15685 18.5 8.5 17.1569 8.5 15.5C8.5 13.8431 7.15685 12.5 5.5 12.5C3.84315 12.5 2.5 13.8431 2.5 15.5C2.5 17.1569 3.84315 18.5 5.5 18.5ZM5.5 13.5C6.60457 13.5 7.5 14.3954 7.5 15.5C7.5 16.6046 6.60457 17.5 5.5 17.5C4.39543 17.5 3.5 16.6046 3.5 15.5C3.5 14.3954 4.39543 13.5 5.5 13.5Z" fill="currentColor"/><path d="M16.9784 15.7823C17.1764 15.9748 17.1809 16.2913 16.9885 16.4894C16.796 16.6874 16.4795 16.6919 16.2814 16.4995L7.40465 7.87268C7.20662 7.68023 7.2021 7.36368 7.39455 7.16565C7.587 6.96762 7.90355 6.96309 8.10159 7.15555L16.9784 15.7823Z" fill="currentColor"/><path d="M7.14645 13.1464C6.95118 13.3417 6.95118 13.6583 7.14645 13.8536C7.34171 14.0488 7.65829 14.0488 7.85355 13.8536L16.8536 4.85355C17.0488 4.65829 17.0488 4.34171 16.8536 4.14645C16.6583 3.95118 16.3417 3.95118 16.1464 4.14645L7.14645 13.1464Z" fill="currentColor"/></g><path fill-rule="evenodd" clip-rule="evenodd" d="M13 24.5C19.3513 24.5 24.5 19.3513 24.5 13C24.5 6.64873 19.3513 1.5 13 1.5C6.64873 1.5 1.5 6.64873 1.5 13C1.5 19.3513 6.64873 24.5 13 24.5ZM13 25.5C19.9036 25.5 25.5 19.9036 25.5 13C25.5 6.09644 19.9036 0.5 13 0.5C6.09644 0.5 0.5 6.09644 0.5 13C0.5 19.9036 6.09644 25.5 13 25.5Z" fill="currentColor"/></svg>