<svg width="20" height="20" viewBox="0 0 26 26" fill="none" xmlns="http://www.w3.org/2000/svg"><path opacity="0.2" fill-rule="evenodd" clip-rule="evenodd" d="M13.5 26C20.4036 26 26 20.4036 26 13.5C26 6.59644 20.4036 1 13.5 1C6.59644 1 1 6.59644 1 13.5C1 20.4036 6.59644 26 13.5 26ZM13.5 24C19.299 24 24 19.299 24 13.5C24 7.70101 19.299 3 13.5 3C7.70101 3 3 7.70101 3 13.5C3 19.299 7.70101 24 13.5 24Z" fill="currentColor"/><g transform="translate(3, 3)"><g opacity="0.2"><path fill-rule="evenodd" clip-rule="evenodd" d="M6.5 19.5C8.15685 19.5 9.5 18.1569 9.5 16.5C9.5 15.8457 9.29051 15.2403 8.93495 14.7472C9.14795 14.7656 9.36732 14.6933 9.53033 14.5303L11.25 12.8107L16.9697 18.5303C17.2626 18.8232 17.7374 18.8232 18.0303 18.5303C18.3232 18.2374 18.3232 17.7626 18.0303 17.4697L12.3107 11.75L18.0303 6.03033C18.3232 5.73744 18.3232 5.26256 18.0303 4.96967C17.7374 4.67678 17.2626 4.67678 16.9697 4.96967L11.25 10.6893L9.53033 8.96967C9.43881 8.87815 9.32953 8.81523 9.21358 8.7809C9.39727 8.39245 9.5 7.95822 9.5 7.5C9.5 5.84315 8.15685 4.5 6.5 4.5C4.84315 4.5 3.5 5.84315 3.5 7.5C3.5 9.15685 4.84315 10.5 6.5 10.5C7.19572 10.5 7.83613 10.2632 8.34501 9.86575C8.37798 9.92472 8.41953 9.98019 8.46967 10.0303L10.1893 11.75L8.46967 13.4697C8.30666 13.6327 8.23438 13.8521 8.25281 14.065C7.75974 13.7095 7.15434 13.5 6.5 13.5C4.84315 13.5 3.5 14.8431 3.5 16.5C3.5 18.1569 4.84315 19.5 6.5 19.5Z" fill="currentColor"/></g><path fill-rule="evenodd" clip-rule="evenodd" d="M5.5 8.5C7.15685 8.5 8.5 7.15685 8.5 5.5C8.5 3.84315 7.15685 2.5 5.5 2.5C3.84315 2.5 2.5 3.84315 2.5 5.5C2.5 7.15685 3.84315 8.5 5.5 8.5ZM5.5 3.5C6.60457 3.5 7.5 4.39543 7.5 5.5C7.5 6.60457 6.60457 7.5 5.5 7.5C4.39543 7.5 3.5 6.60457 3.5 5.5C3.5 4.39543 4.39543 3.5 5.5 3.5Z" fill="currentColor"/><path fill-rule="evenodd" clip-rule="evenodd" d="M5.5 18.5C7.15685 18.5 8.5 17.1569 8.5 15.5C8.5 13.8431 7.15685 12.5 5.5 12.5C3.84315 12.5 2.5 13.8431 2.5 15.5C2.5 17.1569 3.84315 18.5 5.5 18.5ZM5.5 13.5C6.60457 13.5 7.5 14.3954 7.5 15.5C7.5 16.6046 6.60457 17.5 5.5 17.5C4.39543 17.5 3.5 16.6046 3.5 15.5C3.5 14.3954 4.39543 13.5 5.5 13.5Z" fill="currentColor"/><path d="M16.9784 15.7823C17.1764 15.9748 17.1809 16.2913 16.9885 16.4894C16.796 16.6874 16.4795 16.6919 16.2814 16.4995L7.40465 7.87268C7.20662 7.68023 7.2021 7.36368 7.39455 7.16565C7.587 6.96762 7.90355 6.96309 8.10159 7.15555L16.9784 15.7823Z" fill="currentColor"/><path d="M7.14645 13.1464C6.95118 13.3417 6.95118 13.6583 7.14645 13.8536C7.34171 14.0488 7.65829 14.0488 7.85355 13.8536L16.8536 4.85355C17.0488 4.65829 17.0488 4.34171 16.8536 4.14645C16.6583 3.95118 16.3417 3.95118 16.1464 4.14645L7.14645 13.1464Z" fill="currentColor"/></g><path fill-rule="evenodd" clip-rule="evenodd" d="M13 24.5C19.3513 24.5 24.5 19.3513 24.5 13C24.5 6.64873 19.3513 1.5 13 1.5C6.64873 1.5 1.5 6.64873 1.5 13C1.5 19.3513 6.64873 24.5 13 24.5ZM13 25.5C19.9036 25.5 25.5 19.9036 25.5 13C25.5 6.09644 19.9036 0.5 13 0.5C6.09644 0.5 0.5 6.09644 0.5 13C0.5 19.9036 6.09644 25.5 13 25.5Z" fill="currentColor"/></svg>