<svg width="20" height="20" viewBox="0 0 26 26" fill="none" xmlns="http://www.w3.org/2000/svg"><path opacity="0.2" fill-rule="evenodd" clip-rule="evenodd" d="M13.5 26C20.4036 26 26 20.4036 26 13.5C26 6.59644 20.4036 1 13.5 1C6.59644 1 1 6.59644 1 13.5C1 20.4036 6.59644 26 13.5 26ZM13.5 24C19.299 24 24 19.299 24 13.5C24 7.70101 19.299 3 13.5 3C7.70101 3 3 7.70101 3 13.5C3 19.299 7.70101 24 13.5 24Z" fill="currentColor"/><g transform="translate(3, 3)"><g><g opacity="0.2"><path fill-rule="evenodd" clip-rule="evenodd" d="M10.2187 10.2023C10.771 10.2023 11.2187 10.65 11.2187 11.2023V17.7023C11.2187 18.2546 10.771 18.7023 10.2187 18.7023C9.6664 18.7023 9.21869 18.2546 9.21869 17.7023V11.2023C9.21869 10.65 9.6664 10.2023 10.2187 10.2023Z" fill="currentColor"/><path d="M8.98127 5.75595C10.8507 7.34817 11.4717 9.68904 10.3684 10.9844C9.26512 12.2798 7.11853 12.7913 4.67649 10.9844C2.49504 9.37035 1.35005 5.54442 2.45336 4.24904C3.55667 2.95366 7.11186 4.16372 8.98127 5.75595Z" fill="currentColor"/><path fill-rule="evenodd" clip-rule="evenodd" d="M8.8565 8.99438C8.72231 8.4886 8.34836 7.844 7.68445 7.27853C6.98995 6.68701 5.90359 6.11858 4.90967 5.85076C4.53779 5.75056 4.24102 5.70961 4.02739 5.70313C4.02529 5.99523 4.08465 6.40684 4.23859 6.88955C4.56942 7.92691 5.20029 8.88405 5.86609 9.37668C6.78706 10.0581 7.47721 10.1792 7.89425 10.152C8.31247 10.1247 8.63014 9.94086 8.84585 9.6876C8.85219 9.68015 8.99309 9.50922 8.8565 8.99438ZM3.73858 5.72317C3.73845 5.72306 3.74108 5.72215 3.74687 5.72075C3.7416 5.72257 3.73871 5.72328 3.73858 5.72317ZM10.3684 10.9844C11.4717 9.68904 10.8507 7.34817 8.98127 5.75595C7.11186 4.16372 3.55667 2.95366 2.45336 4.24904C1.35005 5.54442 2.49504 9.37035 4.67649 10.9844C7.11853 12.7913 9.26512 12.2798 10.3684 10.9844Z" fill="currentColor"/><path d="M12.6327 8.06467C10.7184 9.26333 10.0744 11.5689 10.7569 12.659C11.4394 13.7491 13.2935 14.7491 15.7397 13.4028C17.9248 12.2002 19.231 8.62486 18.5484 7.5348C17.8659 6.44473 14.5471 6.866 12.6327 8.06467Z" fill="currentColor"/><path fill-rule="evenodd" clip-rule="evenodd" d="M12.5996 11.0886C12.7716 10.6177 13.1371 10.1086 13.6941 9.7598C14.3511 9.34846 15.3553 9.02386 16.2575 8.93093C16.3984 8.91642 16.5259 8.90875 16.6397 8.90619C16.5839 9.11929 16.5007 9.36427 16.3859 9.62767C15.9717 10.5784 15.3414 11.3391 14.7754 11.6506C13.9436 12.1084 13.3873 12.0846 13.0812 12.0066C12.7843 11.9308 12.5901 11.7721 12.494 11.6553C12.4933 11.6455 12.4928 11.634 12.4926 11.6205C12.491 11.5078 12.5142 11.3225 12.5996 11.0886ZM12.4993 11.6974C12.4994 11.6974 12.4991 11.6962 12.4986 11.6941C12.499 11.6963 12.4993 11.6974 12.4993 11.6974ZM16.7281 8.28941C16.7278 8.2896 16.7281 8.29525 16.7299 8.30575C16.7292 8.29445 16.7283 8.28921 16.7281 8.28941ZM17.2331 8.95658C17.2474 8.96277 17.2556 8.96518 17.2562 8.96484C17.2567 8.9645 17.2496 8.9614 17.2331 8.95658ZM10.7569 12.659C10.0744 11.5689 10.7184 9.26333 12.6327 8.06467C14.5471 6.866 17.8659 6.44473 18.5484 7.5348C19.231 8.62486 17.9248 12.2002 15.7397 13.4028C13.2935 14.7491 11.4394 13.7491 10.7569 12.659Z" fill="currentColor"/></g><path fill-rule="evenodd" clip-rule="evenodd" d="M9.80011 10.8023C10.0763 10.8023 10.3001 11.0262 10.3001 11.3023V16.8023C10.3001 17.0784 10.0763 17.3023 9.80011 17.3023C9.52397 17.3023 9.30011 17.0784 9.30011 16.8023V11.3023C9.30011 11.0262 9.52397 10.8023 9.80011 10.8023Z" fill="currentColor"/><path fill-rule="evenodd" clip-rule="evenodd" d="M2.39083 6.44529C2.78929 7.69475 3.57072 8.95404 4.55521 9.68248C5.70122 10.5304 6.73413 10.8036 7.57325 10.7488C8.41267 10.694 9.10144 10.3093 9.56911 9.7602C9.98443 9.27257 10.1101 8.54804 9.88766 7.70971C9.66585 6.87364 9.1054 5.97503 8.23839 5.23658C7.36373 4.49161 6.07503 3.82408 4.88126 3.50241C4.28523 3.3418 3.74023 3.27497 3.29944 3.3123C2.85617 3.34984 2.57466 3.48617 2.41533 3.67323C2.24328 3.87524 2.12197 4.22606 2.10968 4.73306C2.0976 5.23104 2.19296 5.82483 2.39083 6.44529ZM1.10997 4.70882C1.12513 4.0837 1.27443 3.47051 1.65404 3.02482C2.04636 2.5642 2.62299 2.36601 3.21505 2.31587C3.80957 2.26552 4.47708 2.35783 5.14144 2.53685C6.46844 2.89442 7.89204 3.62803 8.8868 4.47529C9.88921 5.32906 10.574 6.397 10.8542 7.45327C11.1339 8.50727 11.0184 9.60086 10.3304 10.4086C9.69476 11.1549 8.75858 11.6736 7.63837 11.7467C6.51786 11.8198 5.25645 11.4453 3.96042 10.4864C2.76346 9.60071 1.88166 8.13999 1.4381 6.74913C1.21496 6.04942 1.09459 5.34297 1.10997 4.70882Z" fill="currentColor"/><path fill-rule="evenodd" clip-rule="evenodd" d="M17.3424 9.32686C16.8531 10.4499 16.0409 11.5359 15.08 12.0648C12.8626 13.2851 11.3017 12.3555 10.7621 11.4936C10.5348 11.1307 10.485 10.46 10.772 9.67406C11.0512 8.90946 11.6223 8.12513 12.4795 7.58843C13.3616 7.0361 14.5939 6.65121 15.6851 6.5388C16.2295 6.48274 16.7116 6.49746 17.0805 6.5777C17.4629 6.66089 17.64 6.79458 17.706 6.90012C17.7848 7.02586 17.846 7.31188 17.7897 7.78309C17.736 8.2324 17.5844 8.77157 17.3424 9.32686ZM18.7826 7.90174C18.8476 7.3584 18.8161 6.78872 18.5536 6.36943C18.2784 5.92993 17.7847 5.70751 17.293 5.60056C16.7879 5.49067 16.1927 5.48124 15.5827 5.54407C14.3653 5.66945 12.981 6.09453 11.9488 6.74086C10.8916 7.40283 10.1834 8.37063 9.83269 9.33102C9.48977 10.27 9.45923 11.2972 9.91449 12.0243C10.7399 13.3426 12.8872 14.413 15.5621 12.9408C16.7863 12.2671 17.7198 10.9642 18.2592 9.72633C18.5316 9.10119 18.7151 8.46697 18.7826 7.90174Z" fill="currentColor"/><path fill-rule="evenodd" clip-rule="evenodd" d="M8.90963 10.6147C8.27196 9.81759 7.53606 9.10433 6.71944 8.49187L6.00007 7.95233C5.77915 7.78665 5.73438 7.47325 5.90007 7.25233C6.06575 7.03142 6.37915 6.98665 6.60006 7.15233L7.31944 7.69187C8.2035 8.35491 9.00017 9.12707 9.6905 9.98999C9.863 10.2056 9.82804 10.5203 9.61241 10.6928C9.39678 10.8653 9.08214 10.8303 8.90963 10.6147Z" fill="currentColor"/><path fill-rule="evenodd" clip-rule="evenodd" d="M11.1536 12.4059C11.7914 11.7681 12.4995 11.2048 13.2643 10.7268L14.0651 10.2263C14.2993 10.08 14.3704 9.77151 14.2241 9.53734C14.0777 9.30317 13.7693 9.23198 13.5351 9.37834L12.7343 9.87881C11.9053 10.3969 11.1378 11.0075 10.4465 11.6988C10.2513 11.894 10.2513 12.2106 10.4465 12.4059C10.6418 12.6012 10.9584 12.6012 11.1536 12.4059Z" fill="currentColor"/></g><defs><clipPath id="clip0_2608_817"><rect width="20" height="20" fill="white" transform="matrix(0 1 -1 0 20 0)"/></clipPath></defs></g><path fill-rule="evenodd" clip-rule="evenodd" d="M13 24.5C19.3513 24.5 24.5 19.3513 24.5 13C24.5 6.64873 19.3513 1.5 13 1.5C6.64873 1.5 1.5 6.64873 1.5 13C1.5 19.3513 6.64873 24.5 13 24.5ZM13 25.5C19.9036 25.5 25.5 19.9036 25.5 13C25.5 6.09644 19.9036 0.5 13 0.5C6.09644 0.5 0.5 6.09644 0.5 13C0.5 19.9036 6.09644 25.5 13 25.5Z" fill="currentColor"/></svg>