<svg width="20" height="20" viewBox="0 0 26 26" fill="none" xmlns="http://www.w3.org/2000/svg"><path opacity="0.2" fill-rule="evenodd" clip-rule="evenodd" d="M13.5 26C20.4036 26 26 20.4036 26 13.5C26 6.59644 20.4036 1 13.5 1C6.59644 1 1 6.59644 1 13.5C1 20.4036 6.59644 26 13.5 26ZM13.5 24C19.299 24 24 19.299 24 13.5C24 7.70101 19.299 3 13.5 3C7.70101 3 3 7.70101 3 13.5C3 19.299 7.70101 24 13.5 24Z" fill="currentColor"/><g transform="translate(3, 3)"><g opacity="0.2"><path fill-rule="evenodd" clip-rule="evenodd" d="M7.17451 14.2075C6.82435 14.3942 6.42453 14.5 6 14.5C4.61929 14.5 3.5 13.3807 3.5 12C3.5 10.6193 4.61929 9.5 6 9.5C6.52196 9.5 7.00656 9.65996 7.40745 9.93353L12.5011 6.92362C12.5415 5.57825 13.6448 4.5 15 4.5C16.3807 4.5 17.5 5.61929 17.5 7C17.5 8.38071 16.3807 9.5 15 9.5C14.1422 9.5 13.3853 9.06794 12.935 8.40957L8.34206 11.1236C8.44417 11.3963 8.5 11.6916 8.5 12C8.5 12.3894 8.41096 12.7581 8.25213 13.0866L12.9102 15.6274C13.3571 14.9483 14.1262 14.5 15 14.5C16.3807 14.5 17.5 15.6193 17.5 17C17.5 18.3807 16.3807 19.5 15 19.5C13.6574 19.5 12.562 18.4416 12.5025 17.1137L7.17451 14.2075Z" fill="currentColor"/></g><path fill-rule="evenodd" clip-rule="evenodd" d="M5 12.5C6.38071 12.5 7.5 11.3807 7.5 10C7.5 8.61929 6.38071 7.5 5 7.5C3.61929 7.5 2.5 8.61929 2.5 10C2.5 11.3807 3.61929 12.5 5 12.5ZM5 8.5C5.82843 8.5 6.5 9.17157 6.5 10C6.5 10.8284 5.82843 11.5 5 11.5C4.17157 11.5 3.5 10.8284 3.5 10C3.5 9.17157 4.17157 8.5 5 8.5Z" fill="currentColor"/><path fill-rule="evenodd" clip-rule="evenodd" d="M14 7.5C15.3807 7.5 16.5 6.38071 16.5 5C16.5 3.61929 15.3807 2.5 14 2.5C12.6193 2.5 11.5 3.61929 11.5 5C11.5 6.38071 12.6193 7.5 14 7.5ZM14 3.5C14.8284 3.5 15.5 4.17157 15.5 5C15.5 5.82843 14.8284 6.5 14 6.5C13.1716 6.5 12.5 5.82843 12.5 5C12.5 4.17157 13.1716 3.5 14 3.5Z" fill="currentColor"/><path fill-rule="evenodd" clip-rule="evenodd" d="M14 17.5C15.3807 17.5 16.5 16.3807 16.5 15C16.5 13.6193 15.3807 12.5 14 12.5C12.6193 12.5 11.5 13.6193 11.5 15C11.5 16.3807 12.6193 17.5 14 17.5ZM14 13.5C14.8284 13.5 15.5 14.1716 15.5 15C15.5 15.8284 14.8284 16.5 14 16.5C13.1716 16.5 12.5 15.8284 12.5 15C12.5 14.1716 13.1716 13.5 14 13.5Z" fill="currentColor"/><path d="M6.75437 9.18048L6.24564 8.31955L11.7456 5.06955L12.2544 5.93048L6.75437 9.18048Z" fill="currentColor"/><path d="M12 14.8779L12.4789 14L6.97885 11L6.5 11.8779L12 14.8779Z" fill="currentColor"/></g><path fill-rule="evenodd" clip-rule="evenodd" d="M13 24.5C19.3513 24.5 24.5 19.3513 24.5 13C24.5 6.64873 19.3513 1.5 13 1.5C6.64873 1.5 1.5 6.64873 1.5 13C1.5 19.3513 6.64873 24.5 13 24.5ZM13 25.5C19.9036 25.5 25.5 19.9036 25.5 13C25.5 6.09644 19.9036 0.5 13 0.5C6.09644 0.5 0.5 6.09644 0.5 13C0.5 19.9036 6.09644 25.5 13 25.5Z" fill="currentColor"/></svg>