<svg width="20" height="20" viewBox="0 0 20 20" fill="none" xmlns="http://www.w3.org/2000/svg"><path opacity="0.2" d="M3.50119 7.93924C3.48848 6.54214 4.33325 5.31267 5.58445 4.69095L9.22002 2.88442C10.3413 2.32726 11.6587 2.32726 12.78 2.88442L16.4155 4.69095C17.6667 5.31267 18.5115 6.54215 18.4988 7.93924C18.4826 9.71863 18.2955 12.1734 17.5018 13.8378C16.6194 15.6879 14.5498 17.479 12.9808 18.6488C11.7965 19.5318 10.2035 19.5318 9.01922 18.6488C7.45021 17.479 5.38055 15.6879 4.4982 13.8378C3.70445 12.1734 3.51739 9.71863 3.50119 7.93924Z" fill="currentColor"/><path fill-rule="evenodd" clip-rule="evenodd" d="M11.5575 2.33219C10.5764 1.84468 9.42361 1.84467 8.44251 2.33219L4.80695 4.13872C3.70644 4.68556 2.99041 5.75123 3.00117 6.93469C3.01734 8.71142 3.20754 11.0668 3.9495 12.6225C4.77387 14.3511 6.75046 16.0792 8.31809 17.248C9.32502 17.9987 10.675 17.9987 11.6819 17.248C13.2495 16.0792 15.2261 14.3511 16.0505 12.6225C16.7924 11.0668 16.9826 8.71142 16.9988 6.93469C17.0096 5.75123 16.2936 4.68556 15.193 4.13872L11.5575 2.33219ZM7.99752 1.43665C9.25893 0.809853 10.7411 0.809853 12.0025 1.43665L15.638 3.24318C17.0399 3.93978 18.0134 5.33307 17.9988 6.94379C17.9826 8.72585 17.7986 11.2801 16.9531 13.053C16.0128 15.0247 13.85 16.8788 12.2796 18.0497C10.9181 19.0648 9.08191 19.0648 7.72036 18.0497C6.14996 16.8788 3.98723 15.0247 3.04689 13.053C2.20136 11.2801 2.01743 8.72585 2.00122 6.94379C1.98656 5.33306 2.96007 3.93978 4.36195 3.24318L7.99752 1.43665Z" fill="currentColor"/><path d="M1.15063 1.87794C0.94979 1.6771 0.94979 1.35147 1.15063 1.15063C1.35147 0.949789 1.6771 0.949789 1.87794 1.15063L18.8494 18.1221C19.0502 18.3229 19.0502 18.6485 18.8494 18.8494C18.6485 19.0502 18.3229 19.0502 18.1221 18.8494L1.15063 1.87794Z" fill="currentColor"/></svg>