<svg width="20" height="20" viewBox="0 0 26 26" fill="none" xmlns="http://www.w3.org/2000/svg"><path opacity="0.2" d="M26 14C26 20.6274 20.6274 26 14 26C7.37258 26 2 20.6274 2 14C2 7.37258 7.37258 2 14 2C20.6274 2 26 7.37258 26 14Z" fill="currentColor"/><g transform="translate(3, 3)"><path fill-rule="evenodd" clip-rule="evenodd" d="M11.5575 2.33219C10.5764 1.84468 9.42362 1.84467 8.44252 2.33219L4.80695 4.13872C3.70644 4.68556 2.99041 5.75123 3.00118 6.93469C3.01735 8.71142 3.20755 11.0668 3.94951 12.6225C4.77388 14.3511 6.75046 16.0792 8.3181 17.248C9.32503 17.9987 10.675 17.9987 11.6819 17.248C13.2495 16.0792 15.2261 14.3511 16.0505 12.6225C16.7925 11.0668 16.9826 8.71142 16.9988 6.93469C17.0096 5.75123 16.2936 4.68556 15.193 4.13872L11.5575 2.33219ZM7.99753 1.43665C9.25894 0.809853 10.7411 0.809853 12.0025 1.43665L15.638 3.24318C17.0399 3.93978 18.0134 5.33307 17.9988 6.94379C17.9826 8.72585 17.7986 11.2801 16.9531 13.053C16.0128 15.0247 13.85 16.8788 12.2796 18.0497C10.9181 19.0648 9.08192 19.0648 7.72037 18.0497C6.14997 16.8788 3.98723 15.0247 3.0469 13.053C2.20137 11.2801 2.01744 8.72585 2.00122 6.94379C1.98657 5.33306 2.96008 3.93978 4.36196 3.24318L7.99753 1.43665Z" fill="currentColor"/><path fill-rule="evenodd" clip-rule="evenodd" d="M12.7949 7.88393C13.0066 8.06168 13.0358 8.37825 12.8601 8.591L11.0805 10.7464C10.5191 11.4265 9.49765 11.4713 8.87538 10.8432L7.66668 9.6232C7.47201 9.4267 7.47171 9.10887 7.66602 8.9133C7.86032 8.71773 8.17565 8.71848 8.37032 8.91497L9.57901 10.135C9.78644 10.3444 10.1269 10.3294 10.3141 10.1027L12.0936 7.9473C12.2693 7.73455 12.5833 7.70618 12.7949 7.88393Z" fill="currentColor"/></g><path fill-rule="evenodd" clip-rule="evenodd" d="M13 24.5C19.3513 24.5 24.5 19.3513 24.5 13C24.5 6.64873 19.3513 1.5 13 1.5C6.64873 1.5 1.5 6.64873 1.5 13C1.5 19.3513 6.64873 24.5 13 24.5ZM13 25.5C19.9036 25.5 25.5 19.9036 25.5 13C25.5 6.09644 19.9036 0.5 13 0.5C6.09644 0.5 0.5 6.09644 0.5 13C0.5 19.9036 6.09644 25.5 13 25.5Z" fill="currentColor"/></svg>