<svg width="20" height="20" viewBox="0 0 20 20" fill="none" xmlns="http://www.w3.org/2000/svg"><g opacity="0.2"><path d="M3.5012 7.93924C3.48849 6.54214 4.33326 5.31267 5.58446 4.69095L9.22002 2.88442C10.3413 2.32726 11.6587 2.32726 12.78 2.88442L16.4155 4.69095C17.6667 5.31267 18.5115 6.54215 18.4988 7.93924C18.4826 9.71863 18.2955 12.1734 17.5018 13.8378C16.6194 15.6879 14.5498 17.479 12.9808 18.6488C11.7965 19.5318 10.2035 19.5318 9.01923 18.6488C7.45022 17.479 5.38055 15.6879 4.49821 13.8378C3.70446 12.1734 3.51739 9.71863 3.5012 7.93924Z" fill="currentColor"/></g><path fill-rule="evenodd" clip-rule="evenodd" d="M11.5575 2.33219C10.5764 1.84468 9.42362 1.84467 8.44252 2.33219L4.80695 4.13872C3.70644 4.68556 2.99041 5.75123 3.00118 6.93469C3.01735 8.71142 3.20755 11.0668 3.94951 12.6225C4.77388 14.3511 6.75046 16.0792 8.3181 17.248C9.32503 17.9987 10.675 17.9987 11.6819 17.248C13.2495 16.0792 15.2261 14.3511 16.0505 12.6225C16.7925 11.0668 16.9826 8.71142 16.9988 6.93469C17.0096 5.75123 16.2936 4.68556 15.193 4.13872L11.5575 2.33219ZM7.99753 1.43665C9.25894 0.809853 10.7411 0.809853 12.0025 1.43665L15.638 3.24318C17.0399 3.93978 18.0134 5.33307 17.9988 6.94379C17.9826 8.72585 17.7986 11.2801 16.9531 13.053C16.0128 15.0247 13.85 16.8788 12.2796 18.0497C10.9181 19.0648 9.08192 19.0648 7.72037 18.0497C6.14997 16.8788 3.98723 15.0247 3.0469 13.053C2.20137 11.2801 2.01744 8.72585 2.00122 6.94379C1.98657 5.33306 2.96008 3.93978 4.36196 3.24318L7.99753 1.43665Z" fill="currentColor"/><path fill-rule="evenodd" clip-rule="evenodd" d="M12.7949 7.88393C13.0066 8.06168 13.0358 8.37825 12.8601 8.591L11.0805 10.7464C10.5191 11.4265 9.49765 11.4713 8.87538 10.8432L7.66668 9.6232C7.47201 9.4267 7.47171 9.10887 7.66602 8.9133C7.86032 8.71773 8.17565 8.71848 8.37032 8.91497L9.57901 10.135C9.78644 10.3444 10.1269 10.3294 10.3141 10.1027L12.0936 7.9473C12.2693 7.73455 12.5833 7.70618 12.7949 7.88393Z" fill="currentColor"/></svg>