<svg width="20" height="20" viewBox="0 0 26 26" fill="none" xmlns="http://www.w3.org/2000/svg"><path opacity="0.2" fill-rule="evenodd" clip-rule="evenodd" d="M13.5 26C20.4036 26 26 20.4036 26 13.5C26 6.59644 20.4036 1 13.5 1C6.59644 1 1 6.59644 1 13.5C1 20.4036 6.59644 26 13.5 26ZM13.5 24C19.299 24 24 19.299 24 13.5C24 7.70101 19.299 3 13.5 3C7.70101 3 3 7.70101 3 13.5C3 19.299 7.70101 24 13.5 24Z" fill="currentColor"/><g transform="translate(3, 3)"><g opacity="0.2"><path d="M3.50119 7.93924C3.48848 6.54214 4.33325 5.31267 5.58445 4.69095L9.22002 2.88442C10.3413 2.32726 11.6587 2.32726 12.78 2.88442L16.4155 4.69095C17.6667 5.31267 18.5115 6.54215 18.4988 7.93924C18.4826 9.71863 18.2955 12.1734 17.5018 13.8378C16.6194 15.6879 14.5498 17.479 12.9808 18.6488C11.7965 19.5318 10.2035 19.5318 9.01922 18.6488C7.45021 17.479 5.38055 15.6879 4.4982 13.8378C3.70445 12.1734 3.51739 9.71863 3.50119 7.93924Z" fill="currentColor"/><path fill-rule="evenodd" clip-rule="evenodd" d="M15.6966 12.9769C16.2832 11.7468 16.4828 9.68977 16.4989 7.92104C16.5038 7.37847 16.174 6.80424 15.5255 6.48202L11.89 4.67549C11.3294 4.39691 10.6706 4.39691 10.11 4.67549L6.47444 6.48202C5.82598 6.80424 5.49617 7.37847 5.50111 7.92104C5.51721 9.68977 5.7168 11.7468 6.30342 12.9769C6.95383 14.3407 8.6512 15.8797 10.2147 17.0455C10.6897 17.3996 11.3103 17.3996 11.7853 17.0455C13.3488 15.8797 15.0462 14.3407 15.6966 12.9769ZM5.58445 4.69095C4.33325 5.31267 3.48848 6.54214 3.50119 7.93924C3.51739 9.71863 3.70445 12.1734 4.4982 13.8378C5.38055 15.6879 7.45021 17.479 9.01922 18.6488C10.2035 19.5318 11.7965 19.5318 12.9808 18.6488C14.5498 17.479 16.6194 15.6879 17.5018 13.8378C18.2955 12.1734 18.4826 9.71863 18.4988 7.93924C18.5115 6.54215 17.6667 5.31267 16.4155 4.69095L12.78 2.88442C11.6587 2.32726 10.3413 2.32726 9.22002 2.88442L5.58445 4.69095Z" fill="currentColor"/></g><path fill-rule="evenodd" clip-rule="evenodd" d="M11.5575 2.33219C10.5764 1.84468 9.42361 1.84467 8.44251 2.33219L4.80695 4.13872C3.70644 4.68556 2.99041 5.75123 3.00117 6.93469C3.01734 8.71142 3.20754 11.0668 3.9495 12.6225C4.77387 14.3511 6.75046 16.0792 8.31809 17.248C9.32502 17.9987 10.675 17.9987 11.6819 17.248C13.2495 16.0792 15.2261 14.3511 16.0505 12.6225C16.7924 11.0668 16.9826 8.71142 16.9988 6.93469C17.0096 5.75123 16.2936 4.68556 15.193 4.13872L11.5575 2.33219ZM7.99752 1.43665C9.25893 0.809853 10.7411 0.809853 12.0025 1.43665L15.638 3.24318C17.0399 3.93978 18.0134 5.33307 17.9988 6.94379C17.9826 8.72585 17.7986 11.2801 16.9531 13.053C16.0128 15.0247 13.85 16.8788 12.2796 18.0497C10.9181 19.0648 9.08191 19.0648 7.72036 18.0497C6.14996 16.8788 3.98723 15.0247 3.04689 13.053C2.20136 11.2801 2.01743 8.72585 2.00122 6.94379C1.98656 5.33306 2.96007 3.93978 4.36195 3.24318L7.99752 1.43665Z" fill="currentColor"/><path d="M9.50461 1.5L12.9722 2.5L16.9352 4.86842L17.4306 7.5L16.9352 10H10.0046C9.72847 10 9.50461 9.77614 9.50461 9.5V1.5Z" fill="currentColor"/><path d="M2.56937 9.5H9.49999C9.77613 9.5 9.99999 9.72386 9.99999 10V18.5L5.54162 16L3.56012 12.5L2.56937 9.5Z" fill="currentColor"/></g><path fill-rule="evenodd" clip-rule="evenodd" d="M13 24.5C19.3513 24.5 24.5 19.3513 24.5 13C24.5 6.64873 19.3513 1.5 13 1.5C6.64873 1.5 1.5 6.64873 1.5 13C1.5 19.3513 6.64873 24.5 13 24.5ZM13 25.5C19.9036 25.5 25.5 19.9036 25.5 13C25.5 6.09644 19.9036 0.5 13 0.5C6.09644 0.5 0.5 6.09644 0.5 13C0.5 19.9036 6.09644 25.5 13 25.5Z" fill="currentColor"/></svg>