<svg width="20" height="20" viewBox="0 0 26 26" fill="none" xmlns="http://www.w3.org/2000/svg"><path opacity="0.2" d="M26 14C26 20.6274 20.6274 26 14 26C7.37258 26 2 20.6274 2 14C2 7.37258 7.37258 2 14 2C20.6274 2 26 7.37258 26 14Z" fill="currentColor"/><g transform="translate(3, 3)"><path fill-rule="evenodd" clip-rule="evenodd" d="M17.5563 5.16926C17.338 5.00011 17.0239 5.03993 16.8548 5.2582L15.3548 7.19374C15.1856 7.41201 15.2254 7.72608 15.4437 7.89524C15.662 8.06439 15.976 8.02457 16.1452 7.8063L17.6452 5.87076C17.8143 5.65249 17.7745 5.33842 17.5563 5.16926Z" fill="currentColor"/><path fill-rule="evenodd" clip-rule="evenodd" d="M17.5563 14.8952C17.338 15.0643 17.0239 15.0245 16.8548 14.8063L15.3548 12.8707C15.1856 12.6524 15.2254 12.3384 15.4437 12.1692C15.662 12.0001 15.976 12.0399 16.1452 12.2581L17.6452 14.1937C17.8143 14.412 17.7745 14.726 17.5563 14.8952Z" fill="currentColor"/><path fill-rule="evenodd" clip-rule="evenodd" d="M15.45 3.10003C15.2291 3.26571 15.1843 3.57912 15.35 3.80003L16.85 5.80003C17.0157 6.02094 17.3291 6.06571 17.55 5.90003C17.7709 5.73434 17.8157 5.42094 17.65 5.20003L16.15 3.20003C15.9843 2.97912 15.6709 2.93434 15.45 3.10003Z" fill="currentColor"/><path fill-rule="evenodd" clip-rule="evenodd" d="M15.45 16.9C15.2291 16.7343 15.1843 16.4209 15.35 16.2L16.85 14.2C17.0157 13.9791 17.3291 13.9343 17.55 14.1C17.7709 14.2657 17.8157 14.5791 17.65 14.8L16.15 16.8C15.9843 17.0209 15.6709 17.0657 15.45 16.9Z" fill="currentColor"/><path fill-rule="evenodd" clip-rule="evenodd" d="M2.75 5.5C2.75 5.22386 2.97386 5 3.25 5C5.04574 5 6.69164 5.53102 7.90072 6.41428C9.10942 7.29725 9.91 8.55896 9.91 10C9.91 11.441 9.10942 12.7027 7.90072 13.5857C6.69164 14.469 5.04574 15 3.25 15C2.97386 15 2.75 14.7761 2.75 14.5C2.75 14.2239 2.97386 14 3.25 14C4.85634 14 6.29043 13.5237 7.31083 12.7782C8.33162 12.0325 8.91 11.0442 8.91 10C8.91 8.95576 8.33162 7.96747 7.31083 7.22176C6.29043 6.47634 4.85634 6 3.25 6C2.97386 6 2.75 5.77614 2.75 5.5Z" fill="currentColor"/><path fill-rule="evenodd" clip-rule="evenodd" d="M17 5.5C17 5.22386 16.7761 5 16.5 5H15.3747C13.6522 5 12.0744 5.53424 10.9166 6.42109C9.75835 7.30831 9 8.56921 9 10C9 11.4308 9.75835 12.6917 10.9166 13.5789C12.0744 14.4658 13.6522 15 15.3747 15H16.5C16.7761 15 17 14.7761 17 14.5C17 14.2239 16.7761 14 16.5 14H15.3747C13.8526 14 12.4931 13.5269 11.5247 12.785C10.5567 12.0436 10 11.0545 10 10C10 8.94551 10.5567 7.9564 11.5247 7.21495C12.4931 6.47312 13.8526 6 15.3747 6H16.5C16.7761 6 17 5.77614 17 5.5Z" fill="currentColor"/></g><path fill-rule="evenodd" clip-rule="evenodd" d="M13 24.5C19.3513 24.5 24.5 19.3513 24.5 13C24.5 6.64873 19.3513 1.5 13 1.5C6.64873 1.5 1.5 6.64873 1.5 13C1.5 19.3513 6.64873 24.5 13 24.5ZM13 25.5C19.9036 25.5 25.5 19.9036 25.5 13C25.5 6.09644 19.9036 0.5 13 0.5C6.09644 0.5 0.5 6.09644 0.5 13C0.5 19.9036 6.09644 25.5 13 25.5Z" fill="currentColor"/></svg>