<svg width="20" height="20" viewBox="0 0 26 26" fill="none" xmlns="http://www.w3.org/2000/svg"><path opacity="0.2" fill-rule="evenodd" clip-rule="evenodd" d="M13.5 26C20.4036 26 26 20.4036 26 13.5C26 6.59644 20.4036 1 13.5 1C6.59644 1 1 6.59644 1 13.5C1 20.4036 6.59644 26 13.5 26ZM13.5 24C19.299 24 24 19.299 24 13.5C24 7.70101 19.299 3 13.5 3C7.70101 3 3 7.70101 3 13.5C3 19.299 7.70101 24 13.5 24Z" fill="currentColor"/><g transform="translate(3, 3)"><g opacity="0.2"><path fill-rule="evenodd" clip-rule="evenodd" d="M18.8626 5.77408C18.426 5.43577 17.7979 5.5154 17.4596 5.95194L15.9596 7.88749C15.6213 8.32403 15.7009 8.95216 16.1375 9.29047C16.574 9.62878 17.2021 9.54915 17.5404 9.11261L19.0404 7.17706C19.3787 6.74052 19.2991 6.11238 18.8626 5.77408Z" fill="currentColor"/><path fill-rule="evenodd" clip-rule="evenodd" d="M18.8626 16.2905C18.426 16.6288 17.7979 16.5492 17.4596 16.1126L15.9596 14.1771C15.6213 13.7405 15.7009 13.1124 16.1375 12.7741C16.574 12.4358 17.2021 12.5154 17.5404 12.952L19.0404 14.8875C19.3787 15.3241 19.2991 15.9522 18.8626 16.2905Z" fill="currentColor"/><path fill-rule="evenodd" clip-rule="evenodd" d="M16.15 3.70006C15.7082 4.03143 15.6186 4.65823 15.95 5.10006L17.45 7.10006C17.7814 7.54189 18.4082 7.63143 18.85 7.30006C19.2918 6.96869 19.3814 6.34189 19.05 5.90006L17.55 3.90006C17.2186 3.45823 16.5918 3.36869 16.15 3.70006Z" fill="currentColor"/><path fill-rule="evenodd" clip-rule="evenodd" d="M16.15 18.3001C15.7082 17.9687 15.6186 17.3419 15.95 16.9001L17.45 14.9001C17.7814 14.4582 18.4082 14.3687 18.85 14.7001C19.2918 15.0314 19.3814 15.6582 19.05 16.1001L17.55 18.1001C17.2186 18.5419 16.5918 18.6314 16.15 18.3001Z" fill="currentColor"/><path fill-rule="evenodd" clip-rule="evenodd" d="M3.25 6.5C3.25 5.94772 3.69772 5.5 4.25 5.5C6.14044 5.5 7.89224 6.05836 9.19566 7.01053C10.4983 7.96215 11.41 9.36056 11.41 11C11.41 12.6394 10.4983 14.0379 9.19566 14.9895C7.89224 15.9416 6.14044 16.5 4.25 16.5C3.69772 16.5 3.25 16.0523 3.25 15.5C3.25 14.9477 3.69772 14.5 4.25 14.5C5.76164 14.5 7.08983 14.051 8.01589 13.3745C8.94272 12.6974 9.41 11.8458 9.41 11C9.41 10.1542 8.94272 9.30257 8.01589 8.62551C7.08983 7.949 5.76164 7.5 4.25 7.5C3.69772 7.5 3.25 7.05228 3.25 6.5Z" fill="currentColor"/><path fill-rule="evenodd" clip-rule="evenodd" d="M18.5 6.5C18.5 5.94772 18.0523 5.5 17.5 5.5H16.3747C14.552 5.5 12.865 6.06479 11.6126 7.02416C10.3591 7.98427 9.5 9.38106 9.5 11C9.5 12.6189 10.3591 14.0157 11.6126 14.9758C12.865 15.9352 14.552 16.5 16.3747 16.5H17.5C18.0523 16.5 18.5 16.0523 18.5 15.5C18.5 14.9477 18.0523 14.5 17.5 14.5H16.3747C14.9529 14.5 13.7025 14.0574 12.8287 13.3881C11.9559 12.7195 11.5 11.8663 11.5 11C11.5 10.1337 11.9559 9.28045 12.8287 8.61188C13.7025 7.94257 14.9529 7.5 16.3747 7.5H17.5C18.0523 7.5 18.5 7.05228 18.5 6.5Z" fill="currentColor"/></g><path fill-rule="evenodd" clip-rule="evenodd" d="M17.5563 5.16926C17.338 5.00011 17.0239 5.03993 16.8548 5.2582L15.3548 7.19374C15.1856 7.41201 15.2254 7.72608 15.4437 7.89524C15.662 8.06439 15.976 8.02457 16.1452 7.8063L17.6452 5.87076C17.8143 5.65249 17.7745 5.33842 17.5563 5.16926Z" fill="currentColor"/><path fill-rule="evenodd" clip-rule="evenodd" d="M17.5563 14.8952C17.338 15.0643 17.0239 15.0245 16.8548 14.8063L15.3548 12.8707C15.1856 12.6524 15.2254 12.3384 15.4437 12.1692C15.662 12.0001 15.976 12.0399 16.1452 12.2581L17.6452 14.1937C17.8143 14.412 17.7745 14.726 17.5563 14.8952Z" fill="currentColor"/><path fill-rule="evenodd" clip-rule="evenodd" d="M15.45 3.10003C15.2291 3.26571 15.1843 3.57912 15.35 3.80003L16.85 5.80003C17.0157 6.02094 17.3291 6.06571 17.55 5.90003C17.7709 5.73434 17.8157 5.42094 17.65 5.20003L16.15 3.20003C15.9843 2.97912 15.6709 2.93434 15.45 3.10003Z" fill="currentColor"/><path fill-rule="evenodd" clip-rule="evenodd" d="M15.45 16.9C15.2291 16.7343 15.1843 16.4209 15.35 16.2L16.85 14.2C17.0157 13.9791 17.3291 13.9343 17.55 14.1C17.7709 14.2657 17.8157 14.5791 17.65 14.8L16.15 16.8C15.9843 17.0209 15.6709 17.0657 15.45 16.9Z" fill="currentColor"/><path fill-rule="evenodd" clip-rule="evenodd" d="M2.75 5.5C2.75 5.22386 2.97386 5 3.25 5C5.04574 5 6.69164 5.53102 7.90072 6.41428C9.10942 7.29725 9.91 8.55896 9.91 10C9.91 11.441 9.10942 12.7027 7.90072 13.5857C6.69164 14.469 5.04574 15 3.25 15C2.97386 15 2.75 14.7761 2.75 14.5C2.75 14.2239 2.97386 14 3.25 14C4.85634 14 6.29043 13.5237 7.31083 12.7782C8.33162 12.0325 8.91 11.0442 8.91 10C8.91 8.95576 8.33162 7.96747 7.31083 7.22176C6.29043 6.47634 4.85634 6 3.25 6C2.97386 6 2.75 5.77614 2.75 5.5Z" fill="currentColor"/><path fill-rule="evenodd" clip-rule="evenodd" d="M17 5.5C17 5.22386 16.7761 5 16.5 5H15.3747C13.6522 5 12.0744 5.53424 10.9166 6.42109C9.75835 7.30831 9 8.56921 9 10C9 11.4308 9.75835 12.6917 10.9166 13.5789C12.0744 14.4658 13.6522 15 15.3747 15H16.5C16.7761 15 17 14.7761 17 14.5C17 14.2239 16.7761 14 16.5 14H15.3747C13.8526 14 12.4931 13.5269 11.5247 12.785C10.5567 12.0436 10 11.0545 10 10C10 8.94551 10.5567 7.9564 11.5247 7.21495C12.4931 6.47312 13.8526 6 15.3747 6H16.5C16.7761 6 17 5.77614 17 5.5Z" fill="currentColor"/><path d="M1.15063 1.87794C0.94979 1.6771 0.94979 1.35147 1.15063 1.15063C1.35147 0.949789 1.6771 0.949789 1.87794 1.15063L18.8494 18.1221C19.0502 18.3229 19.0502 18.6485 18.8494 18.8494C18.6485 19.0502 18.3229 19.0502 18.1221 18.8494L1.15063 1.87794Z" fill="currentColor"/></g><path fill-rule="evenodd" clip-rule="evenodd" d="M13 24.5C19.3513 24.5 24.5 19.3513 24.5 13C24.5 6.64873 19.3513 1.5 13 1.5C6.64873 1.5 1.5 6.64873 1.5 13C1.5 19.3513 6.64873 24.5 13 24.5ZM13 25.5C19.9036 25.5 25.5 19.9036 25.5 13C25.5 6.09644 19.9036 0.5 13 0.5C6.09644 0.5 0.5 6.09644 0.5 13C0.5 19.9036 6.09644 25.5 13 25.5Z" fill="currentColor"/></svg>