<svg width="20" height="20" viewBox="0 0 26 26" fill="none" xmlns="http://www.w3.org/2000/svg"><path opacity="0.2" d="M26 14C26 20.6274 20.6274 26 14 26C7.37258 26 2 20.6274 2 14C2 7.37258 7.37258 2 14 2C20.6274 2 26 7.37258 26 14Z" fill="currentColor"/><g transform="translate(3, 3)"><path fill-rule="evenodd" clip-rule="evenodd" d="M5.5 0.5C4.67157 0.5 4 1.17157 4 2V18C4 18.8284 4.67157 19.5 5.5 19.5H14.5C15.3284 19.5 16 18.8284 16 18V2C16 1.17157 15.3284 0.5 14.5 0.5H5.5ZM5 2C5 1.72386 5.22386 1.5 5.5 1.5H7V2.5C7 2.77614 7.22386 3 7.5 3H12.5C12.7761 3 13 2.77614 13 2.5V1.5H14.5C14.7761 1.5 15 1.72386 15 2V18C15 18.2761 14.7761 18.5 14.5 18.5H5.5C5.22386 18.5 5 18.2761 5 18V2Z" fill="currentColor"/></g><path fill-rule="evenodd" clip-rule="evenodd" d="M13 24.5C19.3513 24.5 24.5 19.3513 24.5 13C24.5 6.64873 19.3513 1.5 13 1.5C6.64873 1.5 1.5 6.64873 1.5 13C1.5 19.3513 6.64873 24.5 13 24.5ZM13 25.5C19.9036 25.5 25.5 19.9036 25.5 13C25.5 6.09644 19.9036 0.5 13 0.5C6.09644 0.5 0.5 6.09644 0.5 13C0.5 19.9036 6.09644 25.5 13 25.5Z" fill="currentColor"/></svg>