<svg width="20" height="20" viewBox="0 0 26 26" fill="none" xmlns="http://www.w3.org/2000/svg"><path opacity="0.2" fill-rule="evenodd" clip-rule="evenodd" d="M13.5 26C20.4036 26 26 20.4036 26 13.5C26 6.59644 20.4036 1 13.5 1C6.59644 1 1 6.59644 1 13.5C1 20.4036 6.59644 26 13.5 26ZM13.5 24C19.299 24 24 19.299 24 13.5C24 7.70101 19.299 3 13.5 3C7.70101 3 3 7.70101 3 13.5C3 19.299 7.70101 24 13.5 24Z" fill="currentColor"/><g transform="translate(3, 3)"><path opacity="0.2" fill-rule="evenodd" clip-rule="evenodd" d="M6 2.5C6 1.67157 6.67157 1 7.5 1H15.5C16.3284 1 17 1.67157 17 2.5V18.5C17 19.3284 16.3284 20 15.5 20H7.5C6.67157 20 6 19.3284 6 18.5V2.5Z" fill="currentColor"/><path fill-rule="evenodd" clip-rule="evenodd" d="M4 2C4 1.17157 4.67157 0.5 5.5 0.5H14.5C15.3284 0.5 16 1.17157 16 2V18C16 18.8284 15.3284 19.5 14.5 19.5H5.5C4.67157 19.5 4 18.8284 4 18V2ZM5.5 1.5C5.22386 1.5 5 1.72386 5 2V18C5 18.2761 5.22386 18.5 5.5 18.5H14.5C14.7761 18.5 15 18.2761 15 18V2C15 1.72386 14.7761 1.5 14.5 1.5H5.5Z" fill="currentColor"/><path fill-rule="evenodd" clip-rule="evenodd" d="M7.5 3C7.5 2.44772 7.94772 2 8.5 2H11.5C12.0523 2 12.5 2.44772 12.5 3C12.5 3.55228 12.0523 4 11.5 4H8.5C7.94772 4 7.5 3.55228 7.5 3Z" fill="currentColor"/><path d="M1.15063 1.87794C0.94979 1.6771 0.94979 1.35147 1.15063 1.15063C1.35147 0.949789 1.6771 0.949789 1.87794 1.15063L18.8494 18.1221C19.0502 18.3229 19.0502 18.6485 18.8494 18.8494C18.6485 19.0502 18.3229 19.0502 18.1221 18.8494L1.15063 1.87794Z" fill="currentColor"/></g><path fill-rule="evenodd" clip-rule="evenodd" d="M13 24.5C19.3513 24.5 24.5 19.3513 24.5 13C24.5 6.64873 19.3513 1.5 13 1.5C6.64873 1.5 1.5 6.64873 1.5 13C1.5 19.3513 6.64873 24.5 13 24.5ZM13 25.5C19.9036 25.5 25.5 19.9036 25.5 13C25.5 6.09644 19.9036 0.5 13 0.5C6.09644 0.5 0.5 6.09644 0.5 13C0.5 19.9036 6.09644 25.5 13 25.5Z" fill="currentColor"/></svg>