<svg width="20" height="20" viewBox="0 0 20 20" fill="none" xmlns="http://www.w3.org/2000/svg"><g opacity="0.2"><path fill-rule="evenodd" clip-rule="evenodd" d="M6.29521 13.5409H3C2.72386 13.5409 2.5 13.317 2.5 13.0409V7.84091C2.5 7.56476 2.72386 7.34091 3 7.34091H6.39936L10.6718 3.62282C10.9953 3.34123 11.5 3.57105 11.5 3.99999V17C11.5 17.4298 10.9936 17.6593 10.6704 17.376L6.29521 13.5409Z" fill="currentColor"/><path d="M13.6518 13.7584C13.2329 14.1184 12.6016 14.0707 12.2416 13.6518C11.8816 13.2329 11.9294 12.6016 12.3482 12.2416C12.3761 12.2176 12.4039 12.1914 12.4312 12.1631C12.5494 12.0405 12.6575 11.8815 12.747 11.6934C12.9093 11.3524 13 10.9391 13 10.5C13 9.80772 12.7732 9.19154 12.4312 8.83698C12.4039 8.80862 12.3761 8.78242 12.3482 8.75842C11.9294 8.39845 11.8816 7.76709 12.2416 7.34823C12.6016 6.92938 13.2329 6.88164 13.6518 7.24161C13.7274 7.30658 13.8004 7.37561 13.8707 7.44846C14.5888 8.19298 15 9.31015 15 10.5C15 11.2325 14.8448 11.9396 14.553 12.5528C14.3731 12.9309 14.143 13.2692 13.8707 13.5516C13.8004 13.6244 13.7274 13.6935 13.6518 13.7584Z" fill="currentColor"/></g><path fill-rule="evenodd" clip-rule="evenodd" d="M9.67176 2.12282L5.39936 5.84091H2C1.72386 5.84091 1.5 6.06476 1.5 6.34091V11.5409C1.5 11.817 1.72386 12.0409 2 12.0409H5.29521L9.67042 15.876C9.99362 16.1593 10.5 15.9298 10.5 15.5V2.49999C10.5 2.07105 9.99534 1.84123 9.67176 2.12282ZM5.88379 6.74498L9.5 3.59795V14.3968L6.01411 11.3413C5.93704 11.1645 5.76073 11.0409 5.55556 11.0409H2.5V6.84091H5.39356C5.55132 6.89541 5.73636 6.87329 5.88379 6.74498Z" fill="currentColor"/><path d="M13.3259 11.8792C13.1165 12.0592 12.8008 12.0353 12.6208 11.8259C12.4408 11.6165 12.4647 11.3008 12.6741 11.1208C12.7139 11.0866 12.753 11.0497 12.7911 11.0102C12.9478 10.8477 13.0864 10.6438 13.1985 10.4082C13.3931 9.99922 13.5 9.51248 13.5 9.00001C13.5 8.18332 13.2271 7.44189 12.7911 6.98984C12.753 6.95036 12.7139 6.91345 12.6741 6.87921C12.4647 6.69923 12.4408 6.38354 12.6208 6.17412C12.8008 5.96469 13.1165 5.94082 13.3259 6.12081C13.3896 6.17553 13.4512 6.23386 13.5108 6.29558C14.1349 6.94261 14.5 7.93454 14.5 9.00001C14.5 9.65916 14.3609 10.2928 14.1015 10.8379C13.9442 11.1685 13.7446 11.462 13.5108 11.7044C13.4512 11.7662 13.3896 11.8245 13.3259 11.8792Z" fill="currentColor"/></svg>