<svg width="20" height="20" viewBox="0 0 26 26" fill="none" xmlns="http://www.w3.org/2000/svg"><path opacity="0.2" fill-rule="evenodd" clip-rule="evenodd" d="M13.5 26C20.4036 26 26 20.4036 26 13.5C26 6.59644 20.4036 1 13.5 1C6.59644 1 1 6.59644 1 13.5C1 20.4036 6.59644 26 13.5 26ZM13.5 24C19.299 24 24 19.299 24 13.5C24 7.70101 19.299 3 13.5 3C7.70101 3 3 7.70101 3 13.5C3 19.299 7.70101 24 13.5 24Z" fill="currentColor"/><g transform="translate(3, 3)"><g opacity="0.2"><path fill-rule="evenodd" clip-rule="evenodd" d="M6.29521 13.5409H3C2.72386 13.5409 2.5 13.317 2.5 13.0409V7.84091C2.5 7.56476 2.72386 7.34091 3 7.34091H6.39936L10.6718 3.62282C10.9953 3.34123 11.5 3.57105 11.5 3.99999V17C11.5 17.4298 10.9936 17.6593 10.6704 17.376L6.29521 13.5409Z" fill="currentColor"/><path d="M13.6518 13.7584C13.2329 14.1184 12.6016 14.0707 12.2416 13.6518C11.8816 13.2329 11.9294 12.6016 12.3482 12.2416C12.3761 12.2176 12.4039 12.1914 12.4312 12.1631C12.5494 12.0405 12.6575 11.8815 12.747 11.6934C12.9093 11.3524 13 10.9391 13 10.5C13 9.80772 12.7732 9.19154 12.4312 8.83698C12.4039 8.80862 12.3761 8.78242 12.3482 8.75842C11.9294 8.39845 11.8816 7.76709 12.2416 7.34823C12.6016 6.92938 13.2329 6.88164 13.6518 7.24161C13.7274 7.30658 13.8004 7.37561 13.8707 7.44846C14.5888 8.19298 15 9.31015 15 10.5C15 11.2325 14.8448 11.9396 14.553 12.5528C14.3731 12.9309 14.143 13.2692 13.8707 13.5516C13.8004 13.6244 13.7274 13.6935 13.6518 13.7584Z" fill="currentColor"/><path d="M14.5485 16.8362C14.0866 17.1391 13.4667 17.0103 13.1638 16.5484C12.8609 16.0866 12.9897 15.4667 13.4516 15.1638C13.6081 15.0612 13.7594 14.951 13.9049 14.8339C14.0503 14.7168 14.1899 14.5928 14.323 14.4624C14.456 14.3321 14.5824 14.1955 14.7017 14.0532C14.821 13.911 14.933 13.7633 15.0374 13.6105C15.1417 13.4579 15.2383 13.3004 15.3267 13.1386C15.415 12.977 15.4952 12.8112 15.5669 12.6419C15.6384 12.4728 15.7014 12.3004 15.7557 12.125C15.8097 11.9502 15.855 11.7727 15.8913 11.5928C15.9275 11.4138 15.9547 11.2326 15.9729 11.0496C15.9909 10.8679 16 10.6846 16 10.5C16 10.3154 15.9909 10.1321 15.9729 9.95036C15.9547 9.76741 15.9275 9.5862 15.8913 9.40717C15.855 9.2273 15.8097 9.04974 15.7557 8.87497C15.7014 8.69959 15.6384 8.52714 15.5669 8.35813C15.4952 8.18878 15.415 8.02302 15.3267 7.86141C15.2383 7.69962 15.1417 7.54212 15.0374 7.38948C14.933 7.2367 14.821 7.08893 14.7017 6.94674C14.5824 6.80444 14.456 6.66786 14.323 6.53754C14.1899 6.40715 14.0503 6.28316 13.9049 6.16607C13.7594 6.04894 13.6081 5.93883 13.4516 5.83618C12.9897 5.53328 12.8609 4.91335 13.1638 4.45154C13.4667 3.98973 14.0866 3.86091 14.5485 4.16381C14.7592 4.30203 14.9629 4.45032 15.159 4.6081C15.355 4.76592 15.5431 4.93308 15.7226 5.10894C15.9022 5.28486 16.0729 5.46933 16.2342 5.66164C16.3956 5.85405 16.5473 6.05413 16.6887 6.26116C16.8303 6.46829 16.9614 6.68217 17.0816 6.90207C17.2018 7.12203 17.311 7.34779 17.4087 7.57861C17.5063 7.80921 17.5923 8.04464 17.6664 8.28415C17.7402 8.52295 17.8021 8.76558 17.8517 9.01133C17.9011 9.25581 17.9383 9.50315 17.9631 9.75269C17.9876 10.0001 18 10.2494 18 10.5C18 10.7506 17.9876 10.9999 17.9631 11.2473C17.9383 11.4968 17.9011 11.7442 17.8517 11.9887C17.8021 12.2344 17.7402 12.477 17.6664 12.7158C17.5923 12.9553 17.5063 13.1908 17.4087 13.4214C17.311 13.6522 17.2018 13.878 17.0816 14.0979C16.9614 14.3178 16.8303 14.5317 16.6887 14.7388C16.5473 14.9458 16.3956 15.1459 16.2342 15.3383C16.0729 15.5307 15.9022 15.7151 15.7226 15.891C15.5431 16.0669 15.355 16.2341 15.159 16.3919C14.9629 16.5497 14.7592 16.698 14.5485 16.8362Z" fill="currentColor"/></g><path fill-rule="evenodd" clip-rule="evenodd" d="M9.67176 2.12282L5.39936 5.84091H2C1.72386 5.84091 1.5 6.06476 1.5 6.34091V11.5409C1.5 11.817 1.72386 12.0409 2 12.0409H5.29521L9.67042 15.876C9.99362 16.1593 10.5 15.9298 10.5 15.5V2.49999C10.5 2.07105 9.99534 1.84123 9.67176 2.12282ZM5.88379 6.74498L9.5 3.59795V14.3968L6.01411 11.3413C5.93704 11.1645 5.76073 11.0409 5.55556 11.0409H2.5V6.84091H5.39356C5.55132 6.89541 5.73636 6.87329 5.88379 6.74498Z" fill="currentColor"/><path d="M13.3259 11.8792C13.1165 12.0592 12.8008 12.0353 12.6208 11.8259C12.4408 11.6165 12.4647 11.3008 12.6741 11.1208C12.7139 11.0866 12.753 11.0497 12.7911 11.0102C12.9478 10.8477 13.0864 10.6438 13.1985 10.4082C13.3931 9.99922 13.5 9.51248 13.5 9.00001C13.5 8.18332 13.2271 7.44189 12.7911 6.98984C12.753 6.95036 12.7139 6.91345 12.6741 6.87921C12.4647 6.69923 12.4408 6.38354 12.6208 6.17412C12.8008 5.96469 13.1165 5.94082 13.3259 6.12081C13.3896 6.17553 13.4512 6.23386 13.5108 6.29558C14.1349 6.94261 14.5 7.93454 14.5 9.00001C14.5 9.65916 14.3609 10.2928 14.1015 10.8379C13.9442 11.1685 13.7446 11.462 13.5108 11.7044C13.4512 11.7662 13.3896 11.8245 13.3259 11.8792Z" fill="currentColor"/><path d="M14.2742 14.9181C14.0433 15.0695 13.7334 15.0051 13.5819 14.7742C13.4305 14.5433 13.4949 14.2334 13.7258 14.0819C13.8958 13.9704 14.0602 13.8507 14.2184 13.7234C14.3765 13.5961 14.5282 13.4614 14.6729 13.3196C14.8175 13.1779 14.955 13.0293 15.0848 12.8745C15.2146 12.7198 15.3366 12.5589 15.4502 12.3926C15.5638 12.2263 15.669 12.0547 15.7654 11.8784C15.8617 11.7022 15.9492 11.5215 16.0273 11.3367C16.1054 11.1523 16.1742 10.9641 16.2333 10.7727C16.2923 10.5819 16.3418 10.3881 16.3814 10.1918C16.4209 9.99639 16.4506 9.79864 16.4704 9.59904C16.4901 9.40092 16.5 9.20109 16.5 9C16.5 8.7989 16.4901 8.59907 16.4704 8.40095C16.4506 8.20135 16.4209 8.00361 16.3814 7.80821C16.3418 7.61187 16.2923 7.41805 16.2333 7.22727C16.1742 7.03585 16.1054 6.84766 16.0273 6.66326C15.9492 6.47854 15.8617 6.29778 15.7654 6.12158C15.669 5.94526 15.5638 5.77367 15.4502 5.60741C15.3366 5.44106 15.2146 5.28022 15.0848 5.12547C14.955 4.97066 14.8175 4.82212 14.6729 4.68039C14.5282 4.53864 14.3765 4.40386 14.2184 4.27658C14.0602 4.14929 13.8958 4.02963 13.7258 3.91809C13.4949 3.76664 13.4305 3.45668 13.5819 3.22577C13.7334 2.99487 14.0433 2.93045 14.2742 3.0819C14.4714 3.21123 14.662 3.34998 14.8454 3.4976C15.0288 3.64523 15.2048 3.8016 15.3727 3.96609C15.5406 4.13062 15.7003 4.30311 15.8511 4.48292C16.0019 4.66278 16.1437 4.84978 16.2759 5.04324C16.4081 5.23675 16.5306 5.43654 16.6429 5.64191C16.7551 5.84728 16.8571 6.05804 16.9483 6.27349C17.0393 6.4887 17.1196 6.70838 17.1887 6.93186C17.2576 7.15465 17.3153 7.38101 17.3616 7.6103C17.4077 7.83841 17.4424 8.06922 17.4655 8.30211C17.4885 8.53306 17.5 8.76588 17.5 9C17.5 9.23411 17.4885 9.46693 17.4655 9.69788C17.4424 9.93077 17.4077 10.1616 17.3616 10.3897C17.3153 10.619 17.2576 10.8453 17.1887 11.0681C17.1196 11.2916 17.0393 11.5113 16.9483 11.7265C16.8571 11.9419 16.7551 12.1527 16.6429 12.3581C16.5306 12.5635 16.4081 12.7632 16.2759 12.9567C16.1437 13.1502 16.0019 13.3372 15.8511 13.5171C15.7003 13.6969 15.5406 13.8694 15.3727 14.0339C15.2048 14.1984 15.0288 14.3548 14.8454 14.5024C14.662 14.65 14.4714 14.7888 14.2742 14.9181Z" fill="currentColor"/></g><path fill-rule="evenodd" clip-rule="evenodd" d="M13 24.5C19.3513 24.5 24.5 19.3513 24.5 13C24.5 6.64873 19.3513 1.5 13 1.5C6.64873 1.5 1.5 6.64873 1.5 13C1.5 19.3513 6.64873 24.5 13 24.5ZM13 25.5C19.9036 25.5 25.5 19.9036 25.5 13C25.5 6.09644 19.9036 0.5 13 0.5C6.09644 0.5 0.5 6.09644 0.5 13C0.5 19.9036 6.09644 25.5 13 25.5Z" fill="currentColor"/></svg>