<svg xmlns="http://www.w3.org/2000/svg" width="20" height="20" viewBox="0 0 20 20">
  <g fill="none" fill-rule="evenodd" stroke-linecap="round" stroke-linejoin="round">
    <g stroke="#AB92F0" transform="translate(3 4)">
      <path fill="#AB92F0" d="M3.55555556,3.86780914 L8,0 L8,13 L3.55555556,9.10422319 L3.55555556,9.04091238 L0,9.04091238 L0,3.84091238 L3.55555556,3.84091238 L3.55555556,3.86780914 Z"/>
      <path stroke-width="2" d="M10,9 C10.0518443,8.95544431 10.1021966,8.90781691 10.1509273,8.85729883 C10.3460429,8.6550269 10.515164,8.40641263 10.64999,8.12307589 C10.8711225,7.6583662 11,7.10025191 11,6.5 C11,5.53377032 10.6660582,4.67672578 10.1509273,4.14270117 C10.1021966,4.09218309 10.0518443,4.04455569 10,4"/>
    </g>
    <path stroke="#000" d="M3.55555556 3.86780914L8 0 8 13 3.55555556 9.10422319 3.55555556 9.04091238 0 9.04091238 0 3.84091238 3.55555556 3.84091238 3.55555556 3.86780914zM11 9C11.0518443 8.95544431 11.1021966 8.90781691 11.1509273 8.85729883 11.3460429 8.6550269 11.515164 8.40641263 11.64999 8.12307589 11.8711225 7.6583662 12 7.10025191 12 6.5 12 5.53377032 11.6660582 4.67672578 11.1509273 4.14270117 11.1021966 4.09218309 11.0518443 4.04455569 11 4" transform="translate(2 2.5)"/>
  </g>
</svg>
