<svg width="20" height="20" viewBox="0 0 26 26" fill="none" xmlns="http://www.w3.org/2000/svg"><path opacity="0.2" d="M26 14C26 20.6274 20.6274 26 14 26C7.37258 26 2 20.6274 2 14C2 7.37258 7.37258 2 14 2C20.6274 2 26 7.37258 26 14Z" fill="currentColor"/><g transform="translate(3, 3)"><path fill-rule="evenodd" clip-rule="evenodd" d="M5.57113 17.4554L10 15.4484L14.4289 17.4554C14.7806 17.6148 15.1725 17.3324 15.1326 16.9483L14.6223 12.0373L17.8741 8.37025C18.128 8.08399 17.9794 7.63033 17.6053 7.54973L12.8596 6.52701L10.4349 2.25327C10.2433 1.91558 9.75672 1.91558 9.56513 2.25327L7.14039 6.52701L2.39468 7.54973C2.02067 7.63033 1.87207 8.08399 2.12591 8.37025L5.37776 12.0373L4.86744 16.9483C4.82753 17.3324 5.21945 17.6148 5.57113 17.4554ZM9.79364 14.4441L5.95215 16.1849L6.39514 11.9218C6.40963 11.7824 6.36492 11.6433 6.27192 11.5384L3.44186 8.34701L7.57005 7.45737C7.70938 7.42735 7.82927 7.33929 7.8996 7.21533L10 3.51324L12.1004 7.21533C12.1708 7.33929 12.2906 7.42735 12.43 7.45737L16.5582 8.34701L13.7281 11.5384C13.6351 11.6433 13.5904 11.7824 13.6049 11.9218L14.0479 16.1849L10.2064 14.4441C10.0752 14.3846 9.9248 14.3846 9.79364 14.4441Z" fill="currentColor"/></g><path fill-rule="evenodd" clip-rule="evenodd" d="M13 24.5C19.3513 24.5 24.5 19.3513 24.5 13C24.5 6.64873 19.3513 1.5 13 1.5C6.64873 1.5 1.5 6.64873 1.5 13C1.5 19.3513 6.64873 24.5 13 24.5ZM13 25.5C19.9036 25.5 25.5 19.9036 25.5 13C25.5 6.09644 19.9036 0.5 13 0.5C6.09644 0.5 0.5 6.09644 0.5 13C0.5 19.9036 6.09644 25.5 13 25.5Z" fill="currentColor"/></svg>