<svg width="20" height="20" viewBox="0 0 26 26" fill="none" xmlns="http://www.w3.org/2000/svg"><path opacity="0.2" d="M26 14C26 20.6274 20.6274 26 14 26C7.37258 26 2 20.6274 2 14C2 7.37258 7.37258 2 14 2C20.6274 2 26 7.37258 26 14Z" fill="currentColor"/><g transform="translate(3, 3)"><g><path fill-rule="evenodd" clip-rule="evenodd" d="M9.99999 2C10.18 2 10.3461 2.09673 10.4349 2.25327L12.8596 6.52701L17.6053 7.54973C17.779 7.58716 17.9198 7.71399 17.9752 7.88287C18.0305 8.05174 17.992 8.23729 17.8741 8.37025L14.6222 12.0373L15.1326 16.9483C15.1511 17.1265 15.0729 17.3009 14.9276 17.4056C14.7822 17.5104 14.592 17.5294 14.4289 17.4554L9.99999 15.4484L5.57112 17.4554C5.40797 17.5294 5.21774 17.5104 5.07242 17.4056C4.9271 17.3009 4.8489 17.1265 4.86742 16.9483L5.37774 12.0373L2.1259 8.37025C2.00799 8.23729 1.96952 8.05174 2.02483 7.88287C2.08015 7.71399 2.22094 7.58716 2.39466 7.54973L7.14037 6.52701L9.56511 2.25327C9.65392 2.09673 9.82002 2 9.99999 2ZM9.99999 3.51324L7.89958 7.21533C7.82925 7.33929 7.70936 7.42735 7.57003 7.45737L3.44184 8.34701L6.2719 11.5384C6.3649 11.6433 6.40961 11.7824 6.39512 11.9218L5.95213 16.1849L9.79362 14.4441C9.92478 14.3846 10.0752 14.3846 10.2064 14.4441L14.0479 16.1849L13.6049 11.9218C13.5904 11.7824 13.6351 11.6433 13.7281 11.5384L16.5581 8.34701L12.43 7.45737C12.2906 7.42735 12.1707 7.33929 12.1004 7.21533L9.99999 3.51324Z" fill="currentColor"/></g></g><path fill-rule="evenodd" clip-rule="evenodd" d="M13 24.5C19.3513 24.5 24.5 19.3513 24.5 13C24.5 6.64873 19.3513 1.5 13 1.5C6.64873 1.5 1.5 6.64873 1.5 13C1.5 19.3513 6.64873 24.5 13 24.5ZM13 25.5C19.9036 25.5 25.5 19.9036 25.5 13C25.5 6.09644 19.9036 0.5 13 0.5C6.09644 0.5 0.5 6.09644 0.5 13C0.5 19.9036 6.09644 25.5 13 25.5Z" fill="currentColor"/></svg>