<svg width="20" height="20" viewBox="0 0 26 26" fill="none" xmlns="http://www.w3.org/2000/svg"><path opacity="0.2" fill-rule="evenodd" clip-rule="evenodd" d="M13.5 26C20.4036 26 26 20.4036 26 13.5C26 6.59644 20.4036 1 13.5 1C6.59644 1 1 6.59644 1 13.5C1 20.4036 6.59644 26 13.5 26ZM13.5 24C19.299 24 24 19.299 24 13.5C24 7.70101 19.299 3 13.5 3C7.70101 3 3 7.70101 3 13.5C3 19.299 7.70101 24 13.5 24Z" fill="currentColor"/><g transform="translate(3, 3)"><g><path opacity="0.2" fill-rule="evenodd" clip-rule="evenodd" d="M11.5 2.5C11.8599 2.5 12.1921 2.69346 12.3698 3.00653L14.6839 7.08543L19.2107 8.06095C19.5581 8.13582 19.8397 8.38948 19.9503 8.72723C20.0609 9.06498 19.984 9.43607 19.7482 9.70199L16.6423 13.2044L17.1299 17.8966C17.1669 18.253 17.0105 18.6019 16.7199 18.8113C16.4292 19.0207 16.0488 19.0587 15.7225 18.9108L11.5 16.9974L7.27749 18.9108C6.95119 19.0587 6.57073 19.0207 6.2801 18.8113C5.98946 18.6019 5.83306 18.253 5.87009 17.8966L6.35767 13.2044L3.25179 9.70199C3.01599 9.43607 2.93904 9.06498 3.04967 8.72723C3.1603 8.38948 3.44189 8.13582 3.78932 8.06095L8.31603 7.08543L10.6302 3.00653C10.8078 2.69346 11.14 2.5 11.5 2.5ZM11.5 5.52647L9.83446 8.46206C9.69379 8.70999 9.45401 8.8861 9.17536 8.94615L5.88369 9.65552L8.14599 12.2067C8.332 12.4164 8.42142 12.6947 8.39244 12.9735L8.03952 16.3698L11.0872 14.9887C11.3496 14.8698 11.6504 14.8698 11.9127 14.9887L14.9605 16.3698L14.6075 12.9735C14.5786 12.6947 14.668 12.4164 14.854 12.2067L17.1163 9.65552L13.8246 8.94615C13.546 8.8861 13.3062 8.70999 13.1655 8.46206L11.5 5.52647Z" fill="currentColor"/><path fill-rule="evenodd" clip-rule="evenodd" d="M9.99999 2C10.18 2 10.3461 2.09673 10.4349 2.25327L12.8596 6.52701L17.6053 7.54973C17.779 7.58716 17.9198 7.71399 17.9752 7.88287C18.0305 8.05174 17.992 8.23729 17.8741 8.37025L14.6222 12.0373L15.1326 16.9483C15.1511 17.1265 15.0729 17.3009 14.9276 17.4056C14.7822 17.5104 14.592 17.5294 14.4289 17.4554L9.99999 15.4484L5.57112 17.4554C5.40797 17.5294 5.21774 17.5104 5.07242 17.4056C4.9271 17.3009 4.8489 17.1265 4.86742 16.9483L5.37774 12.0373L2.1259 8.37025C2.00799 8.23729 1.96952 8.05174 2.02483 7.88287C2.08015 7.71399 2.22094 7.58716 2.39466 7.54973L7.14037 6.52701L9.56511 2.25327C9.65392 2.09673 9.82002 2 9.99999 2ZM9.99999 3.51324L7.89958 7.21533C7.82925 7.33929 7.70936 7.42735 7.57003 7.45737L3.44184 8.34701L6.2719 11.5384C6.3649 11.6433 6.40961 11.7824 6.39512 11.9218L5.95213 16.1849L9.79362 14.4441C9.92478 14.3846 10.0752 14.3846 10.2064 14.4441L14.0479 16.1849L13.6049 11.9218C13.5904 11.7824 13.6351 11.6433 13.7281 11.5384L16.5581 8.34701L12.43 7.45737C12.2906 7.42735 12.1707 7.33929 12.1004 7.21533L9.99999 3.51324Z" fill="currentColor"/></g></g><path fill-rule="evenodd" clip-rule="evenodd" d="M13 24.5C19.3513 24.5 24.5 19.3513 24.5 13C24.5 6.64873 19.3513 1.5 13 1.5C6.64873 1.5 1.5 6.64873 1.5 13C1.5 19.3513 6.64873 24.5 13 24.5ZM13 25.5C19.9036 25.5 25.5 19.9036 25.5 13C25.5 6.09644 19.9036 0.5 13 0.5C6.09644 0.5 0.5 6.09644 0.5 13C0.5 19.9036 6.09644 25.5 13 25.5Z" fill="currentColor"/></svg>