<svg width="20" height="20" viewBox="0 0 20 20" fill="none" xmlns="http://www.w3.org/2000/svg"><g><g opacity="0.2"><path fill-rule="evenodd" clip-rule="evenodd" d="M10.5003 1C10.7203 1.00001 10.9145 1.14385 10.9786 1.35433L12.9073 7.68709L18.6716 9.79398C18.8665 9.86518 18.9971 10.0493 19 10.2567C19.0028 10.4641 18.8773 10.6517 18.6846 10.7283L12.9578 13.0028L10.9795 19.6428C10.9163 19.8547 10.7215 20 10.5003 20C10.2792 20 10.0843 19.8547 10.0211 19.6428L8.04237 13.0032L2.31541 10.7283C2.12265 10.6517 1.99718 10.4641 2.00005 10.2567C2.00292 10.0493 2.13353 9.86519 2.32834 9.79398L8.09289 7.68682L10.022 1.35429C10.0861 1.14382 10.2803 0.999993 10.5003 1Z" fill="currentColor"/><path d="M17.33 19.95C17.22 19.95 17.13 19.87 17.12 19.77C16.92 17.77 16.77 17.13 14.89 16.96C14.78 16.95 14.7 16.86 14.7 16.75C14.7 16.64 14.78 16.55 14.89 16.54C16.79 16.36 16.92 15.84 17.12 13.89C17.13 13.78 17.22 13.7 17.33 13.7C17.44 13.7 17.53 13.78 17.54 13.88C17.74 15.84 17.87 16.36 19.77 16.53C19.88 16.54 19.96 16.63 19.96 16.74C19.96 16.85 19.88 16.94 19.77 16.95C17.9 17.13 17.74 17.77 17.55 19.76C17.54 19.87 17.45 19.95 17.34 19.95H17.33Z" fill="currentColor"/></g><path fill-rule="evenodd" clip-rule="evenodd" d="M9.00032 0.5C9.22034 0.500007 9.41451 0.643846 9.47861 0.854326L11.4073 7.18709L17.1716 9.29398C17.3665 9.36518 17.4971 9.54928 17.5 9.75668C17.5028 9.96408 17.3773 10.1517 17.1846 10.2283L11.4578 12.5028L9.47949 19.1428C9.41634 19.3547 9.22147 19.5 9.00032 19.5C8.77917 19.5 8.58429 19.3547 8.52113 19.1428L6.54237 12.5032L0.815414 10.2283C0.622651 10.1517 0.497179 9.96407 0.500048 9.75667C0.502918 9.54928 0.633534 9.36519 0.828341 9.29398L6.59289 7.18682L8.522 0.854293C8.58612 0.643818 8.78029 0.499993 9.00032 0.5ZM9.00024 2.71597L7.47688 7.71659C7.43115 7.8667 7.31761 7.98663 7.17024 8.0405L2.40326 9.78301L7.13687 11.6634C7.27917 11.7199 7.38773 11.8385 7.43146 11.9852L9.00023 17.2491L10.5687 11.9849C10.6124 11.8381 10.7209 11.7195 10.8633 11.663L15.5966 9.783L10.83 8.04077C10.6826 7.9869 10.569 7.86696 10.5233 7.71683L9.00024 2.71597Z" fill="currentColor"/><path d="M16.75 19.12C16.65 19.12 16.56 19.04 16.55 18.94C16.37 17.12 16.23 16.54 14.56 16.38C14.46 16.37 14.38 16.28 14.38 16.18C14.38 16.08 14.46 15.99 14.56 15.98C16.27 15.82 16.37 15.38 16.55 13.56C16.55 13.46 16.65 13.38 16.75 13.38C16.85 13.38 16.94 13.46 16.95 13.56C17.13 15.38 17.24 15.82 18.94 15.98C19.04 15.99 19.12 16.08 19.12 16.18C19.12 16.28 19.04 16.37 18.94 16.38C17.26 16.54 17.13 17.12 16.95 18.95C16.95 19.05 16.86 19.13 16.75 19.13V19.12Z" fill="currentColor"/></g></svg>