<svg width="20" height="20" viewBox="0 0 20 20" fill="none" xmlns="http://www.w3.org/2000/svg"><g opacity="0.2"><path d="M18.5 11.5C18.5 15.0899 15.5899 18 12 18C8.41015 18 5.5 15.0899 5.5 11.5C5.5 7.91015 8.41015 5 12 5C15.5899 5 18.5 7.91015 18.5 11.5Z" fill="currentColor"/><path fill-rule="evenodd" clip-rule="evenodd" d="M12 16C14.4853 16 16.5 13.9853 16.5 11.5C16.5 9.01472 14.4853 7 12 7C9.51472 7 7.5 9.01472 7.5 11.5C7.5 13.9853 9.51472 16 12 16ZM12 18C15.5899 18 18.5 15.0899 18.5 11.5C18.5 7.91015 15.5899 5 12 5C8.41015 5 5.5 7.91015 5.5 11.5C5.5 15.0899 8.41015 18 12 18Z" fill="currentColor"/></g><path fill-rule="evenodd" clip-rule="evenodd" d="M10 16.5C13.0376 16.5 15.5 14.0376 15.5 11C15.5 7.96243 13.0376 5.5 10 5.5C6.96243 5.5 4.5 7.96243 4.5 11C4.5 14.0376 6.96243 16.5 10 16.5ZM10 17.5C13.5899 17.5 16.5 14.5899 16.5 11C16.5 7.41015 13.5899 4.5 10 4.5C6.41015 4.5 3.5 7.41015 3.5 11C3.5 14.5899 6.41015 17.5 10 17.5Z" fill="currentColor"/><path fill-rule="evenodd" clip-rule="evenodd" d="M3.64645 4.6464C3.84171 4.45114 4.15829 4.45114 4.35355 4.6464L5.85355 6.1464C6.04882 6.34166 6.04882 6.65824 5.85355 6.85351C5.65829 7.04877 5.34171 7.04877 5.14645 6.85351L3.64645 5.35351C3.45118 5.15824 3.45118 4.84166 3.64645 4.6464Z" fill="currentColor"/><path fill-rule="evenodd" clip-rule="evenodd" d="M14.1464 6.8536C14.3417 7.04886 14.6583 7.04886 14.8536 6.8536L16.3536 5.3536C16.5488 5.15834 16.5488 4.84176 16.3536 4.64649C16.1583 4.45123 15.8417 4.45123 15.6464 4.64649L14.1464 6.14649C13.9512 6.34176 13.9512 6.65834 14.1464 6.8536Z" fill="currentColor"/><path fill-rule="evenodd" clip-rule="evenodd" d="M12.8904 8.68767C13.0629 8.9033 13.028 9.21795 12.8123 9.39045L10.3123 11.3905C10.0967 11.563 9.78207 11.528 9.60956 11.3124C9.43706 11.0967 9.47202 10.7821 9.68765 10.6096L12.1876 8.60958C12.4033 8.43708 12.7179 8.47204 12.8904 8.68767Z" fill="currentColor"/><path fill-rule="evenodd" clip-rule="evenodd" d="M9.5 5V3H10.5V5H9.5Z" fill="currentColor"/><path fill-rule="evenodd" clip-rule="evenodd" d="M8 3C8 2.72386 8.22386 2.5 8.5 2.5H11.5C11.7761 2.5 12 2.72386 12 3C12 3.27614 11.7761 3.5 11.5 3.5H8.5C8.22386 3.5 8 3.27614 8 3Z" fill="currentColor"/></svg>