<svg width="20" height="20" viewBox="0 0 26 26" fill="none" xmlns="http://www.w3.org/2000/svg"><path opacity="0.2" fill-rule="evenodd" clip-rule="evenodd" d="M13.5 26C20.4036 26 26 20.4036 26 13.5C26 6.59644 20.4036 1 13.5 1C6.59644 1 1 6.59644 1 13.5C1 20.4036 6.59644 26 13.5 26ZM13.5 24C19.299 24 24 19.299 24 13.5C24 7.70101 19.299 3 13.5 3C7.70101 3 3 7.70101 3 13.5C3 19.299 7.70101 24 13.5 24Z" fill="currentColor"/><g transform="translate(3, 3)"><g opacity="0.2"><path d="M5.25 3.5C5.25 3.22386 5.47386 3 5.75 3H16.75C17.0261 3 17.25 3.22386 17.25 3.5V10.5C17.25 10.7761 17.0261 11 16.75 11H5.75C5.47386 11 5.25 10.7761 5.25 10.5V3.5Z" fill="currentColor"/><path fill-rule="evenodd" clip-rule="evenodd" d="M7.25 5V9H15.25V5H7.25ZM5.75 3C5.47386 3 5.25 3.22386 5.25 3.5V10.5C5.25 10.7761 5.47386 11 5.75 11H16.75C17.0261 11 17.25 10.7761 17.25 10.5V3.5C17.25 3.22386 17.0261 3 16.75 3H5.75Z" fill="currentColor"/><path d="M5.25 10.5C5.25 10.2239 5.47386 10 5.75 10H16.75C17.0261 10 17.25 10.2239 17.25 10.5V17.5C17.25 17.7761 17.0261 18 16.75 18H5.75C5.47386 18 5.25 17.7761 5.25 17.5V10.5Z" fill="currentColor"/><path fill-rule="evenodd" clip-rule="evenodd" d="M7.25 12V16H15.25V12H7.25ZM5.75 10C5.47386 10 5.25 10.2239 5.25 10.5V17.5C5.25 17.7761 5.47386 18 5.75 18H16.75C17.0261 18 17.25 17.7761 17.25 17.5V10.5C17.25 10.2239 17.0261 10 16.75 10H5.75Z" fill="currentColor"/><path fill-rule="evenodd" clip-rule="evenodd" d="M3.25 3C3.25 2.58579 3.58579 2.25 4 2.25H18.5C18.9142 2.25 19.25 2.58579 19.25 3C19.25 3.41421 18.9142 3.75 18.5 3.75H4C3.58579 3.75 3.25 3.41421 3.25 3Z" fill="currentColor"/><path fill-rule="evenodd" clip-rule="evenodd" d="M5.57575 16.5L7.21154 10.7747L5.28849 10.2253L3.37954 16.9066C3.1514 17.7051 3.75097 18.5 4.58145 18.5H17.9186C18.7491 18.5 19.3486 17.7051 19.1205 16.9066L17.2115 10.2253L15.2885 10.7747L16.9243 16.5H5.57575Z" fill="currentColor"/></g><path fill-rule="evenodd" clip-rule="evenodd" d="M3.5 3C3.5 2.44772 3.94772 2 4.5 2H15.5C16.0523 2 16.5 2.44771 16.5 3V10C16.5 10.5523 16.0523 11 15.5 11H4.5C3.94772 11 3.5 10.5523 3.5 10V3ZM15.5 3H4.5V10H15.5V3Z" fill="currentColor"/><path fill-rule="evenodd" clip-rule="evenodd" d="M2.25 2.5C2.25 2.22386 2.47386 2 2.75 2H17.25C17.5261 2 17.75 2.22386 17.75 2.5C17.75 2.77614 17.5261 3 17.25 3H2.75C2.47386 3 2.25 2.77614 2.25 2.5Z" fill="currentColor"/><path fill-rule="evenodd" clip-rule="evenodd" d="M4.49029 10.098L3.1099 17H16.8901L15.5097 10.098L16.4903 9.90192L17.8707 16.8039C17.9944 17.4227 17.5211 18 16.8901 18H3.1099C2.47885 18 2.00556 17.4227 2.12932 16.8039L3.50971 9.90192L4.49029 10.098Z" fill="currentColor"/><path d="M1.15063 1.87794C0.94979 1.6771 0.94979 1.35147 1.15063 1.15063C1.35147 0.949789 1.6771 0.949789 1.87794 1.15063L18.8494 18.1221C19.0502 18.3229 19.0502 18.6485 18.8494 18.8494C18.6485 19.0502 18.3229 19.0502 18.1221 18.8494L1.15063 1.87794Z" fill="currentColor"/></g><path fill-rule="evenodd" clip-rule="evenodd" d="M13 24.5C19.3513 24.5 24.5 19.3513 24.5 13C24.5 6.64873 19.3513 1.5 13 1.5C6.64873 1.5 1.5 6.64873 1.5 13C1.5 19.3513 6.64873 24.5 13 24.5ZM13 25.5C19.9036 25.5 25.5 19.9036 25.5 13C25.5 6.09644 19.9036 0.5 13 0.5C6.09644 0.5 0.5 6.09644 0.5 13C0.5 19.9036 6.09644 25.5 13 25.5Z" fill="currentColor"/></svg>