<svg width="20" height="20" viewBox="0 0 26 26" fill="none" xmlns="http://www.w3.org/2000/svg"><path opacity="0.2" fill-rule="evenodd" clip-rule="evenodd" d="M13.5 26C20.4036 26 26 20.4036 26 13.5C26 6.59644 20.4036 1 13.5 1C6.59644 1 1 6.59644 1 13.5C1 20.4036 6.59644 26 13.5 26ZM13.5 24C19.299 24 24 19.299 24 13.5C24 7.70101 19.299 3 13.5 3C7.70101 3 3 7.70101 3 13.5C3 19.299 7.70101 24 13.5 24Z" fill="currentColor"/><g transform="translate(3, 3)"><g opacity="0.2"><path fill-rule="evenodd" clip-rule="evenodd" d="M11.3 8C11.8523 8 12.3 7.55228 12.3 7C12.3 6.44772 11.8523 6 11.3 6C10.7477 6 10.3 6.44772 10.3 7C10.3 7.55228 10.7477 8 11.3 8ZM11.3 10C12.9568 10 14.3 8.65685 14.3 7C14.3 5.34315 12.9568 4 11.3 4C9.64313 4 8.29999 5.34315 8.29999 7C8.29999 8.65685 9.64313 10 11.3 10Z" fill="currentColor"/><path fill-rule="evenodd" clip-rule="evenodd" d="M7.31346 3.50774C6.5357 2.17443 7.49744 0.5 9.04102 0.5H13.5589C15.1025 0.5 16.0643 2.17443 15.2865 3.50774L13.5388 6.50387L11.8112 5.49613L13.5589 2.5H9.04102L10.7888 5.49613L9.06121 6.50387L7.31346 3.50774Z" fill="currentColor"/><path fill-rule="evenodd" clip-rule="evenodd" d="M15.2865 10.4923C16.0643 11.8256 15.1025 13.5 13.559 13.5H9.04103C7.49745 13.5 6.5357 11.8256 7.31347 10.4923L9.06121 7.49613L10.7888 8.50387L9.04103 11.5H13.559L11.8112 8.50387L13.5388 7.49613L15.2865 10.4923Z" fill="currentColor"/><path fill-rule="evenodd" clip-rule="evenodd" d="M7.90939 10.2956C6.58028 11.1817 4.79999 10.2289 4.79999 8.63149V5.36853C4.79999 3.77114 6.58028 2.81836 7.90939 3.70443L10.8547 5.66796L9.96665 7.00001L10.8547 8.33206L7.90939 10.2956ZM9.24721 7.00001L6.79999 5.36853L6.79999 8.63149L9.24721 7.00001Z" fill="currentColor"/><path fill-rule="evenodd" clip-rule="evenodd" d="M14.6906 3.70441C16.0197 2.81833 17.8 3.77111 17.8 5.36851V8.63147C17.8 10.2289 16.0197 11.1816 14.6906 10.2956L11.7453 8.33204L12.6333 6.99999L11.7453 5.66794L14.6906 3.70441ZM13.3528 6.99999L15.8 8.63147L15.8 5.36851L13.3528 6.99999Z" fill="currentColor"/><path fill-rule="evenodd" clip-rule="evenodd" d="M16.7138 18.4061C16.4895 18.9108 15.8985 19.1381 15.3938 18.9138L12.3 17.5388V18.5C12.3 19.0523 11.8523 19.5 11.3 19.5C10.7477 19.5 10.3 19.0523 10.3 18.5V17.5388L7.20612 18.9138C6.70144 19.1381 6.11047 18.9108 5.88617 18.4061C5.66187 17.9015 5.88916 17.3105 6.39384 17.0862L10.3 15.3501V13C10.3 12.4477 10.7477 12 11.3 12C11.8523 12 12.3 12.4477 12.3 13V15.3501L16.2061 17.0862C16.7108 17.3105 16.9381 17.9015 16.7138 18.4061Z" fill="currentColor"/><path d="M8.29999 2H14.3V12H8.29999V2Z" fill="currentColor"/><path d="M16.3 4V10H6.29999V4L16.3 4Z" fill="currentColor"/></g><path fill-rule="evenodd" clip-rule="evenodd" d="M10 8.5C10.8284 8.5 11.5 7.82843 11.5 7C11.5 6.17157 10.8284 5.5 10 5.5C9.17157 5.5 8.5 6.17157 8.5 7C8.5 7.82843 9.17157 8.5 10 8.5ZM10 9.5C11.3807 9.5 12.5 8.38071 12.5 7C12.5 5.61929 11.3807 4.5 10 4.5C8.61929 4.5 7.5 5.61929 7.5 7C7.5 8.38071 8.61929 9.5 10 9.5Z" fill="currentColor"/><path fill-rule="evenodd" clip-rule="evenodd" d="M5.96047 2.76282C5.36989 1.76289 6.09071 0.5 7.25202 0.5L12.748 0.5C13.9093 0.5 14.6301 1.7629 14.0395 2.76282L12.3465 5.62927L11.4855 5.12073L13.1785 2.25427C13.3754 1.92097 13.1351 1.5 12.748 1.5L7.25202 1.5C6.86491 1.5 6.62464 1.92097 6.8215 2.25427L8.5145 5.12073L7.65347 5.62927L5.96047 2.76282Z" fill="currentColor"/><path fill-rule="evenodd" clip-rule="evenodd" d="M14.0395 11.2372C14.6301 12.2371 13.9093 13.5 12.748 13.5H7.25201C6.09071 13.5 5.36988 12.2371 5.96046 11.2372L7.65346 8.37073L8.5145 8.87927L6.8215 11.7457C6.62464 12.079 6.86491 12.5 7.25201 12.5H12.748C13.1351 12.5 13.3754 12.079 13.1785 11.7457L11.4855 8.87927L12.3465 8.37073L14.0395 11.2372Z" fill="currentColor"/><path fill-rule="evenodd" clip-rule="evenodd" d="M5.84829 10.3389C4.85289 11.0214 3.5 10.3087 3.5 9.10177L3.5 4.89823C3.5 3.69129 4.85289 2.97858 5.84829 3.66114L8.65776 5.58764L8.09224 6.41236L5.28276 4.48587C4.95096 4.25835 4.5 4.49592 4.5 4.89823V9.10177C4.5 9.50408 4.95096 9.74165 5.28277 9.51413L8.09224 7.58764L8.65776 8.41237L5.84829 10.3389Z" fill="currentColor"/><path fill-rule="evenodd" clip-rule="evenodd" d="M14.1517 3.66114C15.1471 2.97858 16.5 3.69129 16.5 4.89823V9.10177C16.5 10.3087 15.1471 11.0214 14.1517 10.3389L11.3422 8.41236L11.9078 7.58764L14.7172 9.51413C15.049 9.74165 15.5 9.50408 15.5 9.10177V4.89823C15.5 4.49592 15.049 4.25835 14.7172 4.48587L11.9078 6.41236L11.3422 5.58763L14.1517 3.66114Z" fill="currentColor"/><path fill-rule="evenodd" clip-rule="evenodd" d="M14.9569 18.2031C14.8448 18.4554 14.5493 18.5691 14.2969 18.4569L10.5 16.7694V18.5C10.5 18.7761 10.2761 19 10 19C9.72385 19 9.5 18.7761 9.5 18.5V16.7694L5.70307 18.4569C5.45072 18.5691 5.15524 18.4554 5.04309 18.2031C4.93094 17.9507 5.04459 17.6552 5.29693 17.5431L9.5 15.6751V13C9.5 12.7239 9.72385 12.5 10 12.5C10.2761 12.5 10.5 12.7239 10.5 13V15.6751L14.7031 17.5431C14.9554 17.6552 15.0691 17.9507 14.9569 18.2031Z" fill="currentColor"/></g><path fill-rule="evenodd" clip-rule="evenodd" d="M13 24.5C19.3513 24.5 24.5 19.3513 24.5 13C24.5 6.64873 19.3513 1.5 13 1.5C6.64873 1.5 1.5 6.64873 1.5 13C1.5 19.3513 6.64873 24.5 13 24.5ZM13 25.5C19.9036 25.5 25.5 19.9036 25.5 13C25.5 6.09644 19.9036 0.5 13 0.5C6.09644 0.5 0.5 6.09644 0.5 13C0.5 19.9036 6.09644 25.5 13 25.5Z" fill="currentColor"/></svg>