<svg width="20" height="20" viewBox="0 0 26 26" fill="none" xmlns="http://www.w3.org/2000/svg"><path opacity="0.2" d="M26 14C26 20.6274 20.6274 26 14 26C7.37258 26 2 20.6274 2 14C2 7.37258 7.37258 2 14 2C20.6274 2 26 7.37258 26 14Z" fill="currentColor"/><g transform="translate(3, 3)"><path fill-rule="evenodd" clip-rule="evenodd" d="M3.5 3C3.5 2.44772 3.94772 2 4.5 2H15.5C16.0523 2 16.5 2.44771 16.5 3V10C16.5 10.5523 16.0523 11 15.5 11H4.5C3.94772 11 3.5 10.5523 3.5 10V3ZM15.5 3H4.5V10H15.5V3Z" fill="currentColor"/><path fill-rule="evenodd" clip-rule="evenodd" d="M2.25 2.5C2.25 2.22386 2.47386 2 2.75 2H17.25C17.5261 2 17.75 2.22386 17.75 2.5C17.75 2.77614 17.5261 3 17.25 3H2.75C2.47386 3 2.25 2.77614 2.25 2.5Z" fill="currentColor"/><path fill-rule="evenodd" clip-rule="evenodd" d="M4.49029 10.098L3.1099 17H16.8901L15.5097 10.098L16.4903 9.90192L17.8707 16.8039C17.9944 17.4227 17.5211 18 16.8901 18H3.1099C2.47885 18 2.00556 17.4227 2.12932 16.8039L3.50971 9.90192L4.49029 10.098Z" fill="currentColor"/></g><path fill-rule="evenodd" clip-rule="evenodd" d="M13 24.5C19.3513 24.5 24.5 19.3513 24.5 13C24.5 6.64873 19.3513 1.5 13 1.5C6.64873 1.5 1.5 6.64873 1.5 13C1.5 19.3513 6.64873 24.5 13 24.5ZM13 25.5C19.9036 25.5 25.5 19.9036 25.5 13C25.5 6.09644 19.9036 0.5 13 0.5C6.09644 0.5 0.5 6.09644 0.5 13C0.5 19.9036 6.09644 25.5 13 25.5Z" fill="currentColor"/></svg>