<svg width="20" height="20" viewBox="0 0 26 26" fill="none" xmlns="http://www.w3.org/2000/svg"><path opacity="0.2" fill-rule="evenodd" clip-rule="evenodd" d="M13.5 26C20.4036 26 26 20.4036 26 13.5C26 6.59644 20.4036 1 13.5 1C6.59644 1 1 6.59644 1 13.5C1 20.4036 6.59644 26 13.5 26ZM13.5 24C19.299 24 24 19.299 24 13.5C24 7.70101 19.299 3 13.5 3C7.70101 3 3 7.70101 3 13.5C3 19.299 7.70101 24 13.5 24Z" fill="currentColor"/><g transform="translate(3, 3)"><g opacity="0.2"><path d="M14 10.5C14 12.433 12.433 14 10.5 14C8.567 14 7 12.433 7 10.5C7 8.567 8.567 7 10.5 7C12.433 7 14 8.567 14 10.5Z" fill="currentColor"/><path d="M1 10.5C1 9.94772 1.44772 9.5 2 9.5H4C4.55228 9.5 5 9.94772 5 10.5C5 11.0523 4.55228 11.5 4 11.5H2C1.44772 11.5 1 11.0523 1 10.5Z" fill="currentColor"/><path d="M16 10.5C16 9.94772 16.4477 9.5 17 9.5H19C19.5523 9.5 20 9.94772 20 10.5C20 11.0523 19.5523 11.5 19 11.5H17C16.4477 11.5 16 11.0523 16 10.5Z" fill="currentColor"/><path d="M14.5 14.5C14.8905 14.1095 15.5237 14.1095 15.9142 14.5L17.3284 15.9142C17.719 16.3047 17.719 16.9379 17.3284 17.3284C16.9379 17.7189 16.3048 17.7189 15.9142 17.3284L14.5 15.9142C14.1095 15.5237 14.1095 14.8905 14.5 14.5Z" fill="currentColor"/><path d="M3.50001 3.49999C3.89054 3.10946 4.5237 3.10946 4.91423 3.49999L6.32844 4.9142C6.71897 5.30472 6.71897 5.93789 6.32844 6.32841C5.93792 6.71894 5.30475 6.71894 4.91423 6.32841L3.50001 4.9142C3.10949 4.52367 3.10949 3.89051 3.50001 3.49999Z" fill="currentColor"/><path d="M10.5 16C11.0523 16 11.5 16.4477 11.5 17V19C11.5 19.5523 11.0523 20 10.5 20C9.94772 20 9.5 19.5523 9.5 19V17C9.5 16.4477 9.94772 16 10.5 16Z" fill="currentColor"/><path d="M10.5 1C11.0523 1 11.5 1.44772 11.5 2V4C11.5 4.55228 11.0523 5 10.5 5C9.94772 5 9.5 4.55228 9.5 4V2C9.5 1.44772 9.94772 1 10.5 1Z" fill="currentColor"/><path d="M17.3284 3.50001C17.7189 3.89054 17.7189 4.5237 17.3284 4.91423L15.9142 6.32844C15.5237 6.71897 14.8905 6.71897 14.5 6.32844C14.1095 5.93792 14.1095 5.30475 14.5 4.91423L15.9142 3.50001C16.3047 3.10949 16.9379 3.10949 17.3284 3.50001Z" fill="currentColor"/><path d="M6.32841 14.5C6.71894 14.8905 6.71894 15.5237 6.32841 15.9142L4.9142 17.3284C4.52368 17.719 3.89051 17.719 3.49999 17.3284C3.10946 16.9379 3.10946 16.3048 3.49999 15.9142L4.9142 14.5C5.30472 14.1095 5.93789 14.1095 6.32841 14.5Z" fill="currentColor"/></g><path fill-rule="evenodd" clip-rule="evenodd" d="M10 13.5C11.933 13.5 13.5 11.933 13.5 10C13.5 8.067 11.933 6.5 10 6.5C8.067 6.5 6.5 8.067 6.5 10C6.5 11.933 8.067 13.5 10 13.5ZM10 7.5C11.3807 7.5 12.5 8.61929 12.5 10C12.5 11.3807 11.3807 12.5 10 12.5C8.61929 12.5 7.5 11.3807 7.5 10C7.5 8.61929 8.61929 7.5 10 7.5Z" fill="currentColor"/><rect x="1" y="10.5" width="1" height="3" rx="0.5" transform="rotate(-90 1 10.5)" fill="currentColor"/><rect x="16" y="10.5" width="1" height="3" rx="0.5" transform="rotate(-90 16 10.5)" fill="currentColor"/><rect x="14" y="14.7071" width="1" height="3" rx="0.5" transform="rotate(-45 14 14.7071)" fill="currentColor"/><rect x="3" y="3.70709" width="1" height="3" rx="0.5" transform="rotate(-45 3 3.70709)" fill="currentColor"/><rect x="9.5" y="16" width="1" height="3" rx="0.5" fill="currentColor"/><rect x="9.5" y="1" width="1" height="3" rx="0.5" fill="currentColor"/><rect x="16.1213" y="3" width="1" height="3" rx="0.5" transform="rotate(45 16.1213 3)" fill="currentColor"/><rect x="5.12131" y="14" width="1" height="3" rx="0.5" transform="rotate(45 5.12131 14)" fill="currentColor"/></g><path fill-rule="evenodd" clip-rule="evenodd" d="M13 24.5C19.3513 24.5 24.5 19.3513 24.5 13C24.5 6.64873 19.3513 1.5 13 1.5C6.64873 1.5 1.5 6.64873 1.5 13C1.5 19.3513 6.64873 24.5 13 24.5ZM13 25.5C19.9036 25.5 25.5 19.9036 25.5 13C25.5 6.09644 19.9036 0.5 13 0.5C6.09644 0.5 0.5 6.09644 0.5 13C0.5 19.9036 6.09644 25.5 13 25.5Z" fill="currentColor"/></svg>