<svg xmlns="http://www.w3.org/2000/svg" style="" style="" style="" width="20" height="20" viewBox="0 0 20 20"><g fill="none" fill-rule="evenodd"><g fill="currentColor" opacity=".8" transform="rotate(-90 10.5 10)"><circle cx="10" cy="10" r="3" stroke="currentColor"/><path fill-rule="nonzero" d="M10 .5a1 1 0 0 1 1 1v2a1 1 0 0 1-2 0v-2a1 1 0 0 1 1-1zm0 15a1 1 0 0 1 1 1v2a1 1 0 0 1-2 0v-2a1 1 0 0 1 1-1zM6 14a1 1 0 0 1 0 1.414l-1.414 1.414a1 1 0 0 1-1.414-1.414L4.586 14A1 1 0 0 1 6 14zM17 3a1 1 0 0 1 0 1.414l-1.414 1.414a1 1 0 1 1-1.414-1.414L15.586 3A1 1 0 0 1 17 3zM4.5 10a1 1 0 0 1-1 1h-2a1 1 0 0 1 0-2h2a1 1 0 0 1 1 1zm15 0a1 1 0 0 1-1 1h-2a1 1 0 0 1 0-2h2a1 1 0 0 1 1 1zM17 16.828a1 1 0 0 1-1.414 0l-1.414-1.414A1 1 0 1 1 15.586 14L17 15.414a1 1 0 0 1 0 1.414zm-11-11a1 1 0 0 1-1.414 0L3.172 4.414A1 1 0 1 1 4.586 3L6 4.414a1 1 0 0 1 0 1.414z"/></g><g transform="rotate(-90 10 9)"><circle cx="9" cy="9" r="3" stroke="#000"/><rect width="1" height="3" x="8.5" fill="#000" rx=".5"/><rect width="1" height="3" x="8.5" y="15" fill="#000" rx=".5"/><rect width="1" height="3" x="3.086" y="12.914" fill="#000" rx=".5" transform="rotate(45 3.586 14.414)"/><rect width="1" height="3" x="14.086" y="1.914" fill="#000" rx=".5" transform="rotate(45 14.586 3.414)"/><rect width="1" height="3" x="1" y="7.5" fill="#000" rx=".5" transform="rotate(90 1.5 9)"/><rect width="1" height="3" x="16" y="7.5" fill="#000" rx=".5" transform="rotate(90 16.5 9)"/><rect width="1" height="3" x="14.086" y="12.914" fill="#000" rx=".5" transform="rotate(135 14.586 14.414)"/><rect width="1" height="3" x="3.086" y="1.914" fill="#000" rx=".5" transform="rotate(135 3.586 3.414)"/></g></g></svg>