<svg width="20" height="20" viewBox="0 0 26 26" fill="none" xmlns="http://www.w3.org/2000/svg"><path opacity="0.2" fill-rule="evenodd" clip-rule="evenodd" d="M13.5 26C20.4036 26 26 20.4036 26 13.5C26 6.59644 20.4036 1 13.5 1C6.59644 1 1 6.59644 1 13.5C1 20.4036 6.59644 26 13.5 26ZM13.5 24C19.299 24 24 19.299 24 13.5C24 7.70101 19.299 3 13.5 3C7.70101 3 3 7.70101 3 13.5C3 19.299 7.70101 24 13.5 24Z" fill="currentColor"/><g transform="translate(3, 3)"><g><g opacity="0.2"><path d="M14.0655 4.05337C14.2105 3.90103 14.3999 3.7983 14.6067 3.75979L17.0159 3.31117C17.7047 3.18291 18.3084 3.78441 18.1827 4.47368L17.7434 6.88271C17.7054 7.09078 17.6025 7.28147 17.4494 7.42736L10.2067 14.3267C9.81365 14.7012 9.19369 14.6936 8.80985 14.3098L7.18995 12.6899C6.80619 12.3061 6.79858 11.6863 7.17279 11.2933L14.0655 4.05337Z" fill="currentColor"/><path fill-rule="evenodd" clip-rule="evenodd" d="M15.8342 6.20372L15.9547 5.54315L15.2909 5.66676L9.29411 11.9656L9.53391 12.2054L15.8342 6.20372ZM14.6067 3.75979C14.3999 3.7983 14.2105 3.90103 14.0655 4.05337L7.17279 11.2933C6.79858 11.6863 6.80619 12.3061 7.18995 12.6899L8.80985 14.3098C9.19369 14.6936 9.81366 14.7012 10.2067 14.3267L17.4494 7.42736C17.6025 7.28147 17.7054 7.09078 17.7434 6.88271L18.1827 4.47368C18.3084 3.78441 17.7047 3.18291 17.0159 3.31117L14.6067 3.75979Z" fill="currentColor"/><path fill-rule="evenodd" clip-rule="evenodd" d="M7.94372 10.1854C7.194 9.43841 5.98071 9.44066 5.23376 10.1904C4.48681 10.9401 4.48907 12.1534 5.23879 12.9003L8.63739 16.2864C9.38712 17.0333 10.6004 17.031 11.3474 16.2813C12.0943 15.5316 12.092 14.3183 11.3423 13.5714L7.94372 10.1854Z" fill="currentColor"/><path fill-rule="evenodd" clip-rule="evenodd" d="M9.04473 14.4802L5.31296 18.3096C4.92449 18.7082 4.2853 18.7129 3.89099 18.3201L3.23737 17.6689C2.86228 17.2952 2.84349 16.6939 3.1945 16.2975L6.49093 12.5749C6.79116 12.2359 7.28175 12.1409 7.6868 12.3434L8.77576 12.8879C9.38142 13.1907 9.51732 13.9953 9.04473 14.4802Z" fill="currentColor"/><path d="M4.98411 3.31117L7.39335 3.75979C7.60013 3.7983 7.78951 3.90103 7.93455 4.05337L14.877 11.3456C15.2308 11.7172 15.246 12.2963 14.912 12.6859L13.2076 14.6744C12.8267 15.1188 12.1474 15.1425 11.7364 14.7259L4.53155 7.4224C4.39046 7.27937 4.29572 7.09717 4.25968 6.89953L3.81727 4.47368C3.69157 3.78441 4.29531 3.18291 4.98411 3.31117Z" fill="currentColor"/><path fill-rule="evenodd" clip-rule="evenodd" d="M6.70913 5.66676L12.8055 12.0703L12.3967 12.5473L6.1719 6.23735L6.0453 5.54315L6.70913 5.66676ZM4.98411 3.31117L7.39335 3.75979C7.60013 3.7983 7.78951 3.90103 7.93455 4.05337L14.877 11.3456C15.2308 11.7172 15.246 12.2963 14.912 12.6859L13.2076 14.6744C12.8267 15.1188 12.1474 15.1425 11.7364 14.7259L4.53155 7.4224C4.39046 7.27937 4.29572 7.09717 4.25968 6.89953L3.81727 4.47368C3.69157 3.78441 4.29531 3.18291 4.98411 3.31117Z" fill="currentColor"/><path fill-rule="evenodd" clip-rule="evenodd" d="M10.6347 16.2633C11.3915 17.023 12.6209 17.0253 13.3806 16.2684L16.7432 12.9183C17.5029 12.1615 17.5051 10.9321 16.7483 10.1724C15.9914 9.4127 14.762 9.41042 14.0023 10.1673L10.8806 13.2774L10.7227 13.4247C9.92121 14.1721 9.87045 15.4253 10.6089 16.235L10.6347 16.2633Z" fill="currentColor"/><path fill-rule="evenodd" clip-rule="evenodd" d="M13.1821 15.132L16.6879 18.3806C17.0816 18.7454 17.6932 18.7343 18.0734 18.3555L18.726 17.7053C19.1158 17.317 19.1187 16.6868 18.7325 16.2949L15.29 12.8016C14.8696 12.375 14.171 12.4111 13.7969 12.8788L13.0809 13.7738C12.7535 14.1831 12.7976 14.7757 13.1821 15.132Z" fill="currentColor"/></g><path fill-rule="evenodd" clip-rule="evenodd" d="M16.6908 3.38393C16.7537 3.03929 16.4518 2.73854 16.1074 2.80267L13.6859 3.25358C13.5863 3.27212 13.4947 3.32048 13.4232 3.39223L7.33019 9.50792C7.13529 9.70355 7.13588 10.0201 7.33151 10.215L9.31111 12.1873C9.50674 12.3822 9.82332 12.3816 10.0182 12.186L16.1112 6.0703C16.1827 5.99854 16.2307 5.90676 16.2489 5.80711L16.6908 3.38393ZM15.9244 1.81957C16.9576 1.62718 17.8632 2.52943 17.6746 3.56334L17.2327 5.98652C17.1782 6.28547 17.0341 6.56081 16.8197 6.77609L10.7266 12.8918C10.1419 13.4787 9.19219 13.4804 8.60532 12.8957L6.62571 10.9234C6.03884 10.3387 6.03708 9.389 6.62178 8.80213L12.7148 2.68644C12.9293 2.47117 13.2041 2.32611 13.5028 2.27048L15.9244 1.81957Z" fill="currentColor"/><path fill-rule="evenodd" clip-rule="evenodd" d="M7.95393 11.5699C7.75831 11.375 7.75772 11.0584 7.95262 10.8628L11.3365 7.46635C11.5314 7.27073 11.848 7.27014 12.0436 7.46504C12.2392 7.65994 12.2398 7.97652 12.0449 8.17215L8.66104 11.5686C8.46614 11.7642 8.14956 11.7648 7.95393 11.5699Z" fill="currentColor"/><path fill-rule="evenodd" clip-rule="evenodd" d="M3.54224 9.176C4.2978 8.41763 5.52507 8.41535 6.28343 9.17091L10.3592 13.2315C11.1175 13.9871 11.1198 15.2144 10.3643 15.9727C9.6087 16.7311 8.38142 16.7334 7.62306 15.9778L3.54733 11.9172C2.78896 11.1616 2.78669 9.93436 3.54224 9.176ZM5.57764 9.87933C5.21053 9.51357 4.61641 9.51467 4.25066 9.88179C3.8849 10.2489 3.886 10.843 4.25312 11.2088L8.32885 15.2694C8.69597 15.6352 9.29008 15.6341 9.65583 15.2669C10.0216 14.8998 10.0205 14.3057 9.65337 13.94L5.57764 9.87933Z" fill="currentColor"/><path fill-rule="evenodd" clip-rule="evenodd" d="M5.30749 12.9598L2.62942 15.6478C2.43452 15.8435 2.43511 16.1601 2.63074 16.3549L3.25176 16.9737C3.44739 17.1686 3.76397 17.168 3.95887 16.9724L6.63693 14.2843L7.34535 14.9901L4.66729 17.6782C4.08259 18.265 3.13284 18.2668 2.54597 17.6821L1.92494 17.0634C1.33807 16.4787 1.33631 15.5289 1.921 14.9421L4.59907 12.254L5.30749 12.9598Z" fill="currentColor"/><path fill-rule="evenodd" clip-rule="evenodd" d="M3.30917 3.38393C3.24631 3.03929 3.54819 2.73854 3.89258 2.80267L6.31411 3.25358C6.41369 3.27212 6.50529 3.32048 6.57679 3.39223L9.86642 6.6941L10.5748 5.98831L7.2852 2.68644C7.07072 2.47116 6.79592 2.32611 6.49717 2.27048L4.07565 1.81957C3.04245 1.62718 2.13684 2.52943 2.32539 3.56334L2.76731 5.98652C2.82183 6.28547 2.96587 6.56081 3.18034 6.77609L6.46998 10.078L7.1784 9.37217L3.88876 6.0703C3.81727 5.99854 3.76926 5.90676 3.75108 5.80711L3.30917 3.38393Z" fill="currentColor"/><path fill-rule="evenodd" clip-rule="evenodd" d="M10.3501 13.8569L14.4156 9.87003C14.7858 9.50703 15.3794 9.51048 15.7453 9.87775C16.1133 10.2471 16.1122 10.8448 15.7428 11.2128L11.6711 15.2694C11.304 15.6351 10.7099 15.634 10.3442 15.2669L9.63574 15.9727C10.3913 16.7311 11.6186 16.7334 12.3769 15.9778L16.4486 11.9212C17.2092 11.1634 17.2115 9.93255 16.4537 9.17196C15.7002 8.41562 14.4777 8.40852 13.7154 9.15605L9.64992 13.143L10.3501 13.8569Z" fill="currentColor"/><path fill-rule="evenodd" clip-rule="evenodd" d="M14.6925 12.9598L17.3706 15.6478C17.5655 15.8435 17.5649 16.1601 17.3693 16.3549L16.7482 16.9737C16.5526 17.1686 16.236 17.168 16.0411 16.9724L13.3631 14.2843L12.6546 14.9901L15.3327 17.6782C15.9174 18.265 16.8672 18.2668 17.454 17.6821L18.0751 17.0634C18.6619 16.4787 18.6637 15.5289 18.079 14.9421L15.4009 12.254L14.6925 12.9598Z" fill="currentColor"/></g><path d="M1.15063 1.87794C0.94979 1.6771 0.94979 1.35147 1.15063 1.15063C1.35147 0.949789 1.6771 0.949789 1.87794 1.15063L18.8494 18.1221C19.0502 18.3229 19.0502 18.6485 18.8494 18.8494C18.6485 19.0502 18.3229 19.0502 18.1221 18.8494L1.15063 1.87794Z" fill="currentColor"/></g><path fill-rule="evenodd" clip-rule="evenodd" d="M13 24.5C19.3513 24.5 24.5 19.3513 24.5 13C24.5 6.64873 19.3513 1.5 13 1.5C6.64873 1.5 1.5 6.64873 1.5 13C1.5 19.3513 6.64873 24.5 13 24.5ZM13 25.5C19.9036 25.5 25.5 19.9036 25.5 13C25.5 6.09644 19.9036 0.5 13 0.5C6.09644 0.5 0.5 6.09644 0.5 13C0.5 19.9036 6.09644 25.5 13 25.5Z" fill="currentColor"/></svg>