<svg width="20" height="20" viewBox="0 0 20 20" fill="none" xmlns="http://www.w3.org/2000/svg"><g><g opacity="0.2"><path d="M14.6357 3.69249C14.7786 3.54941 14.9615 3.453 15.1603 3.41599L17.7606 2.93179C18.4494 2.80352 19.0531 3.40503 18.9274 4.0943L18.4535 6.69283C18.4169 6.89396 18.3194 7.07901 18.1743 7.22305L10.8071 14.5378C10.4162 14.926 9.78495 14.9248 9.39541 14.5353L7.30662 12.4465C6.9163 12.0562 6.91607 11.4234 7.30611 11.0328L14.6357 3.69249Z" fill="currentColor"/><path fill-rule="evenodd" clip-rule="evenodd" d="M16.5423 6.02506L16.6994 5.16377L15.8316 5.32536L9.42743 11.7389L10.105 12.4165L16.5423 6.02506ZM15.1603 3.41599C14.9615 3.453 14.7786 3.54941 14.6357 3.69249L7.30611 11.0328C6.91607 11.4234 6.9163 12.0562 7.30662 12.4465L9.39541 14.5353C9.78495 14.9248 10.4162 14.926 10.8071 14.5378L18.1743 7.22305C18.3194 7.07901 18.4169 6.89396 18.4535 6.69283L18.9274 4.0943C19.0531 3.40503 18.4494 2.80352 17.7606 2.93179L15.1603 3.41599Z" fill="currentColor"/><path fill-rule="evenodd" clip-rule="evenodd" d="M7.18152 10.4665C6.59465 9.88183 5.6449 9.88359 5.06021 10.4705C4.47551 11.0573 4.47727 12.0071 5.06414 12.5918L9.31465 16.8265C9.90152 17.4112 10.8513 17.4095 11.436 16.8226C12.0207 16.2357 12.0189 15.286 11.432 14.7013L7.18152 10.4665Z" fill="currentColor"/><path fill-rule="evenodd" clip-rule="evenodd" d="M8.9292 14.9466L5.46396 18.597C5.07721 19.0044 4.43085 19.0134 4.0329 18.6169L3.34198 17.9286C2.95067 17.5387 2.94957 16.9054 3.33953 16.5142L6.8929 12.9493C7.28324 12.5578 7.91728 12.5572 8.30825 12.9482L8.91104 13.551C9.29441 13.9343 9.30246 14.5534 8.9292 14.9466Z" fill="currentColor"/></g><path fill-rule="evenodd" clip-rule="evenodd" d="M7.91156 12.0839C7.71593 11.889 7.71535 11.5724 7.91025 11.3768L11.4392 7.83469C11.6341 7.63907 11.9507 7.63848 12.1464 7.83338C12.342 8.02828 12.3426 8.34486 12.1477 8.54049L8.61866 12.0826C8.42376 12.2782 8.10718 12.2788 7.91156 12.0839Z" fill="currentColor"/><path fill-rule="evenodd" clip-rule="evenodd" d="M17.0403 3.5047C17.1031 3.16006 16.8013 2.85931 16.4569 2.92344L13.8572 3.40753C13.7576 3.42607 13.666 3.47442 13.5945 3.54618L7.20052 9.96396C7.00562 10.1596 7.00621 10.4762 7.20183 10.6711L9.32708 12.7884C9.52271 12.9833 9.83929 12.9828 10.0342 12.7871L16.4282 6.36935C16.4997 6.2976 16.5477 6.20582 16.5659 6.10616L17.0403 3.5047ZM16.2738 1.94034C17.307 1.74795 18.2126 2.65021 18.0241 3.68411L17.5496 6.28558C17.4951 6.58453 17.3511 6.85987 17.1366 7.07515L10.7426 13.4929C10.1579 14.0798 9.20816 14.0816 8.62129 13.4969L6.49604 11.3795C5.90916 10.7948 5.9074 9.84504 6.4921 9.25816L12.8861 2.84039C13.1006 2.62511 13.3754 2.48006 13.6741 2.42443L16.2738 1.94034Z" fill="currentColor"/><path fill-rule="evenodd" clip-rule="evenodd" d="M3.31078 9.61752C4.09038 8.83502 5.35671 8.83267 6.1392 9.61227L10.3897 13.847C11.1722 14.6266 11.1746 15.893 10.395 16.6755C9.61536 17.4579 8.34903 17.4603 7.56654 16.6807L3.31603 12.4459C2.53353 11.6663 2.53118 10.4 3.31078 9.61752ZM5.43341 10.3207C5.04216 9.93089 4.409 9.93206 4.0192 10.3233C3.6294 10.7146 3.63057 11.3477 4.02182 11.7375L8.27233 15.9723C8.66358 16.3621 9.29674 16.3609 9.68654 15.9697C10.0763 15.5784 10.0752 14.9452 9.68392 14.5554L5.43341 10.3207Z" fill="currentColor"/><path fill-rule="evenodd" clip-rule="evenodd" d="M5.12135 13.5334L2.29817 16.3671C2.10328 16.5627 2.10386 16.8793 2.29949 17.0742L3.00791 17.78C3.20353 17.9749 3.52011 17.9743 3.71501 17.7787L6.53818 14.945L7.2466 15.6508L4.42343 18.4845C3.83873 19.0714 2.88898 19.0731 2.30211 18.4884L1.59369 17.7826C1.00682 17.1979 1.00506 16.2482 1.58976 15.6613L4.41293 12.8276L5.12135 13.5334Z" fill="currentColor"/></g><path d="M1.15063 1.87794C0.94979 1.6771 0.94979 1.35147 1.15063 1.15063C1.35147 0.949789 1.6771 0.949789 1.87794 1.15063L18.8494 18.1221C19.0502 18.3229 19.0502 18.6485 18.8494 18.8494C18.6485 19.0502 18.3229 19.0502 18.1221 18.8494L1.15063 1.87794Z" fill="currentColor"/></svg>