<svg width="20" height="20" viewBox="0 0 26 26" fill="none" xmlns="http://www.w3.org/2000/svg"><path opacity="0.2" fill-rule="evenodd" clip-rule="evenodd" d="M13.5 26C20.4036 26 26 20.4036 26 13.5C26 6.59644 20.4036 1 13.5 1C6.59644 1 1 6.59644 1 13.5C1 20.4036 6.59644 26 13.5 26ZM13.5 24C19.299 24 24 19.299 24 13.5C24 7.70101 19.299 3 13.5 3C7.70101 3 3 7.70101 3 13.5C3 19.299 7.70101 24 13.5 24Z" fill="currentColor"/><g transform="translate(3, 3)"><g><g opacity="0.2"><path fill-rule="evenodd" clip-rule="evenodd" d="M10.9452 6.3621C10.7597 6.40924 10.5917 6.5086 10.461 6.64838L5.20733 12.2683C4.81491 12.6881 4.85617 13.3515 5.29759 13.7194L6.75029 14.9302C7.16093 15.2724 7.76812 15.2312 8.12873 14.8366L13.303 9.1745C13.4447 9.01949 13.5339 8.82381 13.5582 8.61523L13.7397 7.05137C13.8205 6.35541 13.1791 5.79427 12.5 5.96687L10.9452 6.3621Z" fill="currentColor"/><path d="M3.60936 12.5231C4.09849 11.964 4.94826 11.9073 5.50738 12.3964L8.6302 15.1283C9.18932 15.6174 9.24606 16.4672 8.75694 17.0263C8.26781 17.5854 7.41804 17.6422 6.85892 17.153L3.73609 14.4211C3.17698 13.932 3.12023 13.0822 3.60936 12.5231Z" fill="currentColor"/><path fill-rule="evenodd" clip-rule="evenodd" d="M5.50738 12.3964C4.94826 11.9073 4.09849 11.964 3.60936 12.5231C3.12023 13.0822 3.17698 13.932 3.73609 14.4211L6.85892 17.153C7.41804 17.6422 8.26781 17.5854 8.75694 17.0263C9.24606 16.4672 9.18932 15.6174 8.6302 15.1283L5.50738 12.3964Z" fill="currentColor"/><path d="M4.38498 18.2091L6.65463 15.8024C7.06405 15.3682 7.00454 14.6744 6.52716 14.3163L6.1664 14.0457C5.74719 13.7313 5.15634 13.7938 4.8122 14.1889L2.66344 16.6564C2.30133 17.0723 2.34414 17.7028 2.75915 18.0658L2.99903 18.2757C3.40377 18.6297 4.01604 18.6003 4.38498 18.2091Z" fill="currentColor"/><path fill-rule="evenodd" clip-rule="evenodd" d="M6.65463 15.8024L4.38498 18.2091C4.01604 18.6003 3.40377 18.6297 2.99903 18.2757L2.75915 18.0658C2.34414 17.7028 2.30133 17.0723 2.66344 16.6564L4.8122 14.1889C5.15634 13.7938 5.74719 13.7313 6.1664 14.0457L6.52716 14.3163C7.00454 14.6744 7.06405 15.3682 6.65463 15.8024Z" fill="currentColor"/><path d="M18.2501 13.3679C18.974 11.832 19.1573 9.58336 19.1794 7.91346C19.1978 6.52176 18.359 5.29374 17.1155 4.6685L13.9787 3.09125C12.8482 2.52281 11.5154 2.52281 10.3849 3.09125L7.24808 4.6685C6.00461 5.29374 5.1658 6.52166 5.18422 7.91336C5.19777 8.93707 5.27188 10.1783 5.49398 11.3395C5.53819 11.5706 5.63069 11.7891 5.75766 11.9872L8.53889 16.3271C8.63375 16.4752 8.74747 16.6105 8.87913 16.7271C9.32538 17.122 9.77337 17.4842 10.1891 17.8023C11.3742 18.709 12.9894 18.709 14.1746 17.8022C15.6192 16.6969 17.4534 15.0585 18.2501 13.3679Z" fill="currentColor"/><path fill-rule="evenodd" clip-rule="evenodd" d="M7.24808 4.6685C6.00461 5.29374 5.1658 6.52166 5.18422 7.91336C5.19777 8.93707 5.27188 10.1783 5.49398 11.3395C5.53819 11.5706 5.63069 11.7891 5.75766 11.9872L8.53889 16.3271C8.63375 16.4752 8.74747 16.6105 8.87913 16.7271C9.32538 17.122 9.77337 17.4842 10.1891 17.8023C11.3742 18.709 12.9894 18.709 14.1746 17.8022C15.6192 16.6969 17.4534 15.0585 18.2501 13.3679C18.974 11.832 19.1573 9.58336 19.1794 7.91346C19.1978 6.52176 18.359 5.29374 17.1155 4.6685L13.9787 3.09125C12.8482 2.52281 11.5154 2.52281 10.3849 3.09125L7.24808 4.6685ZM16.441 12.5153C16.9647 11.404 17.1577 9.54204 17.1796 7.88698C17.1866 7.35216 16.8624 6.77981 16.2171 6.45533L13.0803 4.87808C12.515 4.59386 11.8486 4.59386 11.2833 4.87808L8.14654 6.45533C7.50116 6.77984 7.17697 7.35212 7.18404 7.88689C7.19661 8.83652 7.26491 9.93157 7.45048 10.922L10.219 15.2421C10.6186 15.595 11.0236 15.9225 11.4044 16.2139C11.8722 16.5718 12.4914 16.5718 12.9593 16.2138C14.3903 15.1189 15.8682 13.7307 16.441 12.5153Z" fill="currentColor"/></g><path fill-rule="evenodd" clip-rule="evenodd" d="M12.5033 6.19911C12.5437 5.85112 12.2229 5.57058 11.8834 5.65691L10.346 6.04783C10.2479 6.07279 10.1596 6.12699 10.0929 6.20323L5.76769 11.1482C5.58589 11.356 5.60701 11.6719 5.81486 11.8537L7.16944 13.0385C7.37729 13.2203 7.69317 13.1992 7.87497 12.9914L12.2002 8.0464C12.2669 7.97015 12.3088 7.87545 12.3205 7.77483L12.5033 6.19911ZM11.637 4.68775C12.6555 4.42876 13.6177 5.27039 13.4966 6.31434L13.3138 7.89006C13.2788 8.19192 13.1529 8.47603 12.9529 8.70476L8.62767 13.6497C8.08226 14.2733 7.13463 14.3366 6.51107 13.7912L5.1565 12.6064C4.53294 12.061 4.46959 11.1134 5.01499 10.4898L9.3402 5.54487C9.54026 5.31613 9.80508 5.15356 10.0996 5.07867L11.637 4.68775Z" fill="currentColor"/><path fill-rule="evenodd" clip-rule="evenodd" d="M2.32708 11.2544C2.99796 10.4874 4.1636 10.4095 4.93061 11.0803L8.05367 13.812C8.82069 14.4829 8.89862 15.6485 8.22774 16.4155C7.55685 17.1825 6.39121 17.2605 5.6242 16.5896L2.50114 13.8579C1.73413 13.1871 1.6562 12.0214 2.32708 11.2544ZM4.27225 11.833C3.92094 11.5258 3.38706 11.5615 3.07978 11.9128C2.7725 12.2641 2.8082 12.798 3.1595 13.1052L6.28256 15.8369C6.63387 16.1442 7.16776 16.1085 7.47503 15.7572C7.78231 15.4058 7.74662 14.872 7.39531 14.5647L4.27225 11.833Z" fill="currentColor"/><path fill-rule="evenodd" clip-rule="evenodd" d="M4.20887 14.1383L2.3657 16.2456C2.1839 16.4535 2.20502 16.7693 2.41287 16.9512L2.62346 17.1353C2.83131 17.3171 3.14719 17.296 3.32899 17.0882L5.17215 14.9809L5.92485 15.6393L4.08169 17.7465C3.53628 18.3701 2.58865 18.4334 1.96509 17.888L1.75451 17.7039C1.13095 17.1584 1.0676 16.2108 1.613 15.5873L3.45617 13.48L4.20887 14.1383Z" fill="currentColor"/><path fill-rule="evenodd" clip-rule="evenodd" d="M12.8175 2.59802C11.8283 2.10063 10.6621 2.10063 9.67287 2.59802L6.53606 4.17526C5.44211 4.72533 4.73195 5.78933 4.74754 6.9668C4.76224 8.07742 4.8494 9.42838 5.11671 10.6372L5.23221 11.1347L4.25813 11.3609L4.14087 10.8559C3.85205 9.55114 3.76275 8.12237 3.74763 6.98004C3.72637 5.3741 4.69383 3.98228 6.08684 3.28185L9.22364 1.7046C10.4955 1.0651 11.9949 1.0651 13.2667 1.7046L16.4035 3.28185C17.7965 3.98228 18.764 5.37422 18.7427 6.98014C18.7206 8.65375 18.5397 10.999 17.7658 12.6411C16.913 14.4506 14.9898 16.1515 13.5418 17.2594C12.1773 18.3033 10.3131 18.3034 8.94864 17.2595C8.46296 16.8878 7.93216 16.4557 7.40893 15.9803L8.08141 15.2401C8.5795 15.6927 9.08783 16.1068 9.55629 16.4652C10.5621 17.2348 11.9283 17.2348 12.9341 16.4652C14.3753 15.3625 16.1204 13.7866 16.8612 12.2148C17.5351 10.7851 17.7207 8.63309 17.7428 6.9669C17.7584 5.78942 17.0482 4.72532 15.9543 4.17526L12.8175 2.59802Z" fill="currentColor"/></g></g><path fill-rule="evenodd" clip-rule="evenodd" d="M13 24.5C19.3513 24.5 24.5 19.3513 24.5 13C24.5 6.64873 19.3513 1.5 13 1.5C6.64873 1.5 1.5 6.64873 1.5 13C1.5 19.3513 6.64873 24.5 13 24.5ZM13 25.5C19.9036 25.5 25.5 19.9036 25.5 13C25.5 6.09644 19.9036 0.5 13 0.5C6.09644 0.5 0.5 6.09644 0.5 13C0.5 19.9036 6.09644 25.5 13 25.5Z" fill="currentColor"/></svg>