<svg xmlns="http://www.w3.org/2000/svg" style="" style="" style="" width="20" height="20" viewBox="0 0 20 20"><g fill="none" fill-rule="evenodd"><g stroke="currentColor" opacity=".8" transform="rotate(135 10.167 7.747)"><path fill="currentColor" stroke-linecap="round" d="M18.586 3.843v2a1.5 1.5 0 0 1-1.5 1.5h-9.87a1.5 1.5 0 0 1-1.071-.45l-.962-.983a1.5 1.5 0 0 1-.013-2.086l.973-1.017a1.5 1.5 0 0 1 1.084-.464h9.859a1.5 1.5 0 0 1 1.5 1.5z"/><path fill="#FFF" stroke-linecap="round" d="M13.5 3v2"/><path fill="#FFF" stroke-linecap="round" stroke-width="1.5" d="M21.5 3v4m-3-6.434V9"/><path fill="#FFF" stroke-linecap="round" d="M10.5 3v2"/><path fill="#FFF" stroke-linecap="square" stroke-width="1.5" d="M20.5 5h-2"/><path fill="#FFF" stroke-linecap="round" stroke-width="1.5" d="M.565 4.858h4.243"/></g><path stroke="#000" stroke-linecap="round" d="M4.975 15.46L3.56 14.046a1.5 1.5 0 0 1 0-2.121l6.978-6.979a1.5 1.5 0 0 1 1.077-.44l1.375.015a1.5 1.5 0 0 1 1.483 1.466l.032 1.407a1.5 1.5 0 0 1-.439 1.095l-6.97 6.971a1.5 1.5 0 0 1-2.122 0zm4.192-3l-1.414-1.414M3.21 18.117L.682 15.589M7 18l-6-6m10.289-1.661L9.874 8.925"/><path stroke="#000" stroke-linecap="square" d="M2 16.75L3.75 15"/><path stroke="#000" stroke-linecap="round" d="M17 2l-3 3"/></g></svg>