<svg width="20" height="20" viewBox="0 0 20 20" fill="none" xmlns="http://www.w3.org/2000/svg"><g opacity="0.2"><path d="M3.25 3C3.25 2.44772 3.69772 2 4.25 2H17.25C17.8023 2 18.25 2.44772 18.25 3V19C18.25 19.5523 17.8023 20 17.25 20H4.25C3.69772 20 3.25 19.5523 3.25 19V3Z" fill="currentColor"/><path fill-rule="evenodd" clip-rule="evenodd" d="M5.25 4V18H16.25V4H5.25ZM4.25 2C3.69772 2 3.25 2.44772 3.25 3V19C3.25 19.5523 3.69772 20 4.25 20H17.25C17.8023 20 18.25 19.5523 18.25 19V3C18.25 2.44772 17.8023 2 17.25 2H4.25Z" fill="currentColor"/></g><path fill-rule="evenodd" clip-rule="evenodd" d="M1.75 2C1.75 1.17157 2.42157 0.5 3.25 0.5H16.25C17.0784 0.5 17.75 1.17157 17.75 2V18C17.75 18.8284 17.0784 19.5 16.25 19.5H3.25C2.42157 19.5 1.75 18.8284 1.75 18V2ZM3.25 1.5C2.97386 1.5 2.75 1.72386 2.75 2V18C2.75 18.2761 2.97386 18.5 3.25 18.5H16.25C16.5261 18.5 16.75 18.2761 16.75 18V2C16.75 1.72386 16.5261 1.5 16.25 1.5H3.25Z" fill="currentColor"/><path fill-rule="evenodd" clip-rule="evenodd" d="M7.75 17C7.75 16.7239 7.97386 16.5 8.25 16.5H11.25C11.5261 16.5 11.75 16.7239 11.75 17C11.75 17.2761 11.5261 17.5 11.25 17.5H8.25C7.97386 17.5 7.75 17.2761 7.75 17Z" fill="currentColor"/></svg>