<svg width="20" height="20" viewBox="0 0 26 26" fill="none" xmlns="http://www.w3.org/2000/svg"><path opacity="0.2" fill-rule="evenodd" clip-rule="evenodd" d="M13.5 26C20.4036 26 26 20.4036 26 13.5C26 6.59644 20.4036 1 13.5 1C6.59644 1 1 6.59644 1 13.5C1 20.4036 6.59644 26 13.5 26ZM13.5 24C19.299 24 24 19.299 24 13.5C24 7.70101 19.299 3 13.5 3C7.70101 3 3 7.70101 3 13.5C3 19.299 7.70101 24 13.5 24Z" fill="currentColor"/><g transform="translate(3, 3)"><g opacity="0.2"><path d="M3.25 3C3.25 2.44772 3.69772 2 4.25 2H17.25C17.8023 2 18.25 2.44772 18.25 3V19C18.25 19.5523 17.8023 20 17.25 20H4.25C3.69772 20 3.25 19.5523 3.25 19V3Z" fill="currentColor"/><path fill-rule="evenodd" clip-rule="evenodd" d="M5.25 4V18H16.25V4H5.25ZM4.25 2C3.69772 2 3.25 2.44772 3.25 3V19C3.25 19.5523 3.69772 20 4.25 20H17.25C17.8023 20 18.25 19.5523 18.25 19V3C18.25 2.44772 17.8023 2 17.25 2H4.25Z" fill="currentColor"/></g><path fill-rule="evenodd" clip-rule="evenodd" d="M1.75 2C1.75 1.17157 2.42157 0.5 3.25 0.5H16.25C17.0784 0.5 17.75 1.17157 17.75 2V18C17.75 18.8284 17.0784 19.5 16.25 19.5H3.25C2.42157 19.5 1.75 18.8284 1.75 18V2ZM3.25 1.5C2.97386 1.5 2.75 1.72386 2.75 2V18C2.75 18.2761 2.97386 18.5 3.25 18.5H16.25C16.5261 18.5 16.75 18.2761 16.75 18V2C16.75 1.72386 16.5261 1.5 16.25 1.5H3.25Z" fill="currentColor"/><path fill-rule="evenodd" clip-rule="evenodd" d="M7.75 17C7.75 16.7239 7.97386 16.5 8.25 16.5H11.25C11.5261 16.5 11.75 16.7239 11.75 17C11.75 17.2761 11.5261 17.5 11.25 17.5H8.25C7.97386 17.5 7.75 17.2761 7.75 17Z" fill="currentColor"/><path d="M1.15063 1.87794C0.94979 1.6771 0.94979 1.35147 1.15063 1.15063C1.35147 0.949789 1.6771 0.949789 1.87794 1.15063L18.8494 18.1221C19.0502 18.3229 19.0502 18.6485 18.8494 18.8494C18.6485 19.0502 18.3229 19.0502 18.1221 18.8494L1.15063 1.87794Z" fill="currentColor"/></g><path fill-rule="evenodd" clip-rule="evenodd" d="M13 24.5C19.3513 24.5 24.5 19.3513 24.5 13C24.5 6.64873 19.3513 1.5 13 1.5C6.64873 1.5 1.5 6.64873 1.5 13C1.5 19.3513 6.64873 24.5 13 24.5ZM13 25.5C19.9036 25.5 25.5 19.9036 25.5 13C25.5 6.09644 19.9036 0.5 13 0.5C6.09644 0.5 0.5 6.09644 0.5 13C0.5 19.9036 6.09644 25.5 13 25.5Z" fill="currentColor"/></svg>