<svg width="20" height="20" viewBox="0 0 26 26" fill="none" xmlns="http://www.w3.org/2000/svg"><path opacity="0.2" fill-rule="evenodd" clip-rule="evenodd" d="M13.5 26C20.4036 26 26 20.4036 26 13.5C26 6.59644 20.4036 1 13.5 1C6.59644 1 1 6.59644 1 13.5C1 20.4036 6.59644 26 13.5 26ZM13.5 24C19.299 24 24 19.299 24 13.5C24 7.70101 19.299 3 13.5 3C7.70101 3 3 7.70101 3 13.5C3 19.299 7.70101 24 13.5 24Z" fill="currentColor"/><g transform="translate(3, 3)"><g opacity="0.2"><path fill-rule="evenodd" clip-rule="evenodd" d="M13 3.5C13 2.67157 12.3284 2 11.5 2C10.6716 2 10 2.67157 10 3.5C10 3.67532 10.0301 3.84361 10.0854 4H7.67116C6.75343 4 5.95346 4.62459 5.73088 5.51493L4.59959 10.0401C3.6869 10.2256 3 11.0326 3 12V15C3 15.8061 3.4769 16.5008 4.16396 16.8174C4.05913 17.0222 4 17.2542 4 17.5V18.5C4 19.3284 4.67157 20 5.5 20C6.32843 20 7 19.3284 7 18.5V17.5C7 17.3247 6.96992 17.1564 6.91465 17H16.0854C16.0301 17.1564 16 17.3247 16 17.5V18.5C16 19.3284 16.6716 20 17.5 20C18.3284 20 19 19.3284 19 18.5V17.5C19 17.2542 18.9409 17.0222 18.836 16.8174C19.5231 16.5008 20 15.8061 20 15V12C20 11.0326 19.3131 10.2256 18.4004 10.0401L17.2691 5.51493C17.0465 4.62459 16.2466 4 15.3288 4H12.9146C12.9699 3.84361 13 3.67532 13 3.5Z" fill="currentColor"/></g><path fill-rule="evenodd" clip-rule="evenodd" d="M6.17116 3C5.25343 3 4.45346 3.62459 4.23088 4.51493L3.09959 9.04009C2.1869 9.22556 1.5 10.0326 1.5 11V14C1.5 15.1046 2.39543 16 3.5 16H16.5C17.6046 16 18.5 15.1046 18.5 14V11C18.5 10.0326 17.8131 9.22556 16.9004 9.04009L15.7691 4.51493C15.5465 3.62459 14.7466 3 13.8288 3H6.17116ZM3.5 10C3.72943 10 3.92943 9.84385 3.98507 9.62127L5.20102 4.75746C5.31231 4.3123 5.7123 4 6.17116 4H13.8288C14.2877 4 14.6877 4.3123 14.799 4.75746L16.0149 9.62127C16.0706 9.84385 16.2706 10 16.5 10C17.0523 10 17.5 10.4477 17.5 11V14C17.5 14.5523 17.0523 15 16.5 15H3.5C2.94772 15 2.5 14.5523 2.5 14V11C2.5 10.4477 2.94772 10 3.5 10Z" fill="currentColor"/><path fill-rule="evenodd" clip-rule="evenodd" d="M15 14C15.8284 14 16.5 13.3284 16.5 12.5C16.5 11.6716 15.8284 11 15 11C14.1716 11 13.5 11.6716 13.5 12.5C13.5 13.3284 14.1716 14 15 14ZM15 12C15.2761 12 15.5 12.2239 15.5 12.5C15.5 12.7761 15.2761 13 15 13C14.7239 13 14.5 12.7761 14.5 12.5C14.5 12.2239 14.7239 12 15 12Z" fill="currentColor"/><path fill-rule="evenodd" clip-rule="evenodd" d="M5 14C5.82843 14 6.5 13.3284 6.5 12.5C6.5 11.6716 5.82843 11 5 11C4.17157 11 3.5 11.6716 3.5 12.5C3.5 13.3284 4.17157 14 5 14ZM5 12C5.27614 12 5.5 12.2239 5.5 12.5C5.5 12.7761 5.27614 13 5 13C4.72386 13 4.5 12.7761 4.5 12.5C4.5 12.2239 4.72386 12 5 12Z" fill="currentColor"/><path fill-rule="evenodd" clip-rule="evenodd" d="M5.5 16.5C5.5 15.6716 4.82843 15 4 15C3.17157 15 2.5 15.6716 2.5 16.5V17.5C2.5 18.3284 3.17157 19 4 19C4.82843 19 5.5 18.3284 5.5 17.5V16.5ZM3.5 16.5C3.5 16.2239 3.72386 16 4 16C4.27614 16 4.5 16.2239 4.5 16.5V17.5C4.5 17.7761 4.27614 18 4 18C3.72386 18 3.5 17.7761 3.5 17.5V16.5Z" fill="currentColor"/><path fill-rule="evenodd" clip-rule="evenodd" d="M17.5 16.5C17.5 15.6716 16.8284 15 16 15C15.1716 15 14.5 15.6716 14.5 16.5V17.5C14.5 18.3284 15.1716 19 16 19C16.8284 19 17.5 18.3284 17.5 17.5V16.5ZM15.5 16.5C15.5 16.2239 15.7239 16 16 16C16.2761 16 16.5 16.2239 16.5 16.5V17.5C16.5 17.7761 16.2761 18 16 18C15.7239 18 15.5 17.7761 15.5 17.5V16.5Z" fill="currentColor"/><path fill-rule="evenodd" clip-rule="evenodd" d="M12.6476 5H7.35207C6.66122 5 6.05971 5.47186 5.89521 6.14284L5.4049 8.14284C5.37624 8.25973 5.36176 8.37965 5.36176 8.5C5.36176 9.32843 6.03333 10 6.86176 10H13.1379C13.2582 10 13.3781 9.98552 13.495 9.95686C14.2996 9.7596 14.792 8.94744 14.5947 8.14284L14.1044 6.14284C13.9399 5.47186 13.3384 5 12.6476 5ZM6.86645 6.38095C6.92128 6.15729 7.12179 6 7.35207 6H12.6476C12.8779 6 13.0784 6.15729 13.1332 6.38095L13.6235 8.38095C13.6893 8.64915 13.5251 8.91987 13.2569 8.98562C13.218 8.99517 13.178 9 13.1379 9H6.86176C6.58561 9 6.36176 8.77614 6.36176 8.5C6.36176 8.45988 6.36658 8.41991 6.37614 8.38095L6.86645 6.38095Z" fill="currentColor"/><path fill-rule="evenodd" clip-rule="evenodd" d="M11.5 2.5C11.5 1.67157 10.8284 1 10 1C9.17157 1 8.5 1.67157 8.5 2.5C8.5 3.32843 9.17157 4 10 4C10.8284 4 11.5 3.32843 11.5 2.5ZM9.5 2.5C9.5 2.22386 9.72386 2 10 2C10.2761 2 10.5 2.22386 10.5 2.5C10.5 2.77614 10.2761 3 10 3C9.72386 3 9.5 2.77614 9.5 2.5Z" fill="currentColor"/></g><path fill-rule="evenodd" clip-rule="evenodd" d="M13 24.5C19.3513 24.5 24.5 19.3513 24.5 13C24.5 6.64873 19.3513 1.5 13 1.5C6.64873 1.5 1.5 6.64873 1.5 13C1.5 19.3513 6.64873 24.5 13 24.5ZM13 25.5C19.9036 25.5 25.5 19.9036 25.5 13C25.5 6.09644 19.9036 0.5 13 0.5C6.09644 0.5 0.5 6.09644 0.5 13C0.5 19.9036 6.09644 25.5 13 25.5Z" fill="currentColor"/></svg>