<svg width="20" height="20" viewBox="0 0 26 26" fill="none" xmlns="http://www.w3.org/2000/svg"><path opacity="0.2" fill-rule="evenodd" clip-rule="evenodd" d="M13.5 26C20.4036 26 26 20.4036 26 13.5C26 6.59644 20.4036 1 13.5 1C6.59644 1 1 6.59644 1 13.5C1 20.4036 6.59644 26 13.5 26ZM13.5 24C19.299 24 24 19.299 24 13.5C24 7.70101 19.299 3 13.5 3C7.70101 3 3 7.70101 3 13.5C3 19.299 7.70101 24 13.5 24Z" fill="currentColor"/><g transform="translate(3, 3)"><g opacity="0.2"><path fill-rule="evenodd" clip-rule="evenodd" d="M12 5.42442L13.9143 3.03148C14.539 2.25061 15.7103 3.18765 15.0857 3.96852L13.4605 6H16C17.6569 6 19 7.34315 19 9V14C19 15.6569 17.6569 17 16 17H8.5C6.84315 17 5.5 15.6569 5.5 14V9C5.5 7.34315 6.84315 6 8.5 6H10.5395L8.91435 3.96852C8.28965 3.18765 9.46096 2.25061 10.0857 3.03148L12 5.42442Z" fill="currentColor"/></g><path fill-rule="evenodd" clip-rule="evenodd" d="M3.25 9V14C3.25 15.6569 4.59315 17 6.25 17H13.75C15.4069 17 16.75 15.6569 16.75 14V9C16.75 7.34315 15.4069 6 13.75 6H6.25C4.59315 6 3.25 7.34315 3.25 9ZM6.25 16C5.14543 16 4.25 15.1046 4.25 14V9C4.25 7.89543 5.14543 7 6.25 7H13.75C14.8546 7 15.75 7.89543 15.75 9V14C15.75 15.1046 14.8546 16 13.75 16H6.25Z" fill="currentColor"/><path d="M9.85957 5.68765L11.8596 3.18765C12.276 2.66707 13.0569 3.29177 12.6404 3.81235L10.6404 6.31235C10.224 6.83293 9.4431 6.20823 9.85957 5.68765Z" fill="currentColor"/><path d="M8.85957 6.31235L6.85957 3.81235C6.4431 3.29177 7.22397 2.66707 7.64044 3.18765L9.64044 5.68765C10.0569 6.20823 9.27603 6.83293 8.85957 6.31235Z" fill="currentColor"/><path d="M1.15063 1.87794C0.94979 1.6771 0.94979 1.35147 1.15063 1.15063C1.35147 0.949789 1.6771 0.949789 1.87794 1.15063L18.8494 18.1221C19.0502 18.3229 19.0502 18.6485 18.8494 18.8494C18.6485 19.0502 18.3229 19.0502 18.1221 18.8494L1.15063 1.87794Z" fill="currentColor"/></g><path fill-rule="evenodd" clip-rule="evenodd" d="M13 24.5C19.3513 24.5 24.5 19.3513 24.5 13C24.5 6.64873 19.3513 1.5 13 1.5C6.64873 1.5 1.5 6.64873 1.5 13C1.5 19.3513 6.64873 24.5 13 24.5ZM13 25.5C19.9036 25.5 25.5 19.9036 25.5 13C25.5 6.09644 19.9036 0.5 13 0.5C6.09644 0.5 0.5 6.09644 0.5 13C0.5 19.9036 6.09644 25.5 13 25.5Z" fill="currentColor"/></svg>