<svg width="20" height="20" viewBox="0 0 26 26" fill="none" xmlns="http://www.w3.org/2000/svg"><path opacity="0.2" d="M26 14C26 20.6274 20.6274 26 14 26C7.37258 26 2 20.6274 2 14C2 7.37258 7.37258 2 14 2C20.6274 2 26 7.37258 26 14Z" fill="currentColor"/><g transform="translate(3, 3)"><path fill-rule="evenodd" clip-rule="evenodd" d="M4.25 9V14C4.25 15.1046 5.14543 16 6.25 16H13.75C14.8546 16 15.75 15.1046 15.75 14V9C15.75 7.89543 14.8546 7 13.75 7H6.25C5.14543 7 4.25 7.89543 4.25 9ZM3.25 9V14C3.25 15.6569 4.59315 17 6.25 17H13.75C15.4069 17 16.75 15.6569 16.75 14V9C16.75 7.34315 15.4069 6 13.75 6H6.25C4.59315 6 3.25 7.34315 3.25 9Z" fill="currentColor"/><path fill-rule="evenodd" clip-rule="evenodd" d="M11.5 11.5L9 13V10L11.5 11.5Z" fill="currentColor"/><path fill-rule="evenodd" clip-rule="evenodd" d="M12 11.5C12 11.6756 11.9079 11.8384 11.7572 11.9287L9.25725 13.4287C9.10278 13.5214 8.9104 13.5239 8.75365 13.4351C8.5969 13.3463 8.5 13.1801 8.5 13V10C8.5 9.81986 8.5969 9.65365 8.75365 9.5649C8.9104 9.47615 9.10278 9.47857 9.25725 9.57125L11.7572 11.0713C11.9079 11.1616 12 11.3244 12 11.5ZM9.5 10.8831V12.1169L10.5282 11.5L9.5 10.8831Z" fill="currentColor"/><path fill-rule="evenodd" clip-rule="evenodd" d="M12.5623 3.10956C12.778 3.28207 12.8129 3.59672 12.6404 3.81235L10.6404 6.31235C10.4679 6.52798 10.1533 6.56294 9.93764 6.39043C9.72201 6.21793 9.68705 5.90328 9.85955 5.68765L11.8596 3.18765C12.0321 2.97202 12.3467 2.93706 12.5623 3.10956Z" fill="currentColor"/><path fill-rule="evenodd" clip-rule="evenodd" d="M6.93764 3.10956C7.15327 2.93706 7.46792 2.97202 7.64042 3.18765L9.64042 5.68765C9.81293 5.90328 9.77797 6.21793 9.56234 6.39043C9.3467 6.56294 9.03206 6.52798 8.85955 6.31235L6.85955 3.81235C6.68705 3.59672 6.72201 3.28207 6.93764 3.10956Z" fill="currentColor"/></g><path fill-rule="evenodd" clip-rule="evenodd" d="M13 24.5C19.3513 24.5 24.5 19.3513 24.5 13C24.5 6.64873 19.3513 1.5 13 1.5C6.64873 1.5 1.5 6.64873 1.5 13C1.5 19.3513 6.64873 24.5 13 24.5ZM13 25.5C19.9036 25.5 25.5 19.9036 25.5 13C25.5 6.09644 19.9036 0.5 13 0.5C6.09644 0.5 0.5 6.09644 0.5 13C0.5 19.9036 6.09644 25.5 13 25.5Z" fill="currentColor"/></svg>