<svg width="20" height="20" viewBox="0 0 20 20" fill="none" xmlns="http://www.w3.org/2000/svg"><g opacity="0.2"><path fill-rule="evenodd" clip-rule="evenodd" d="M5.5 14L5.5 9C5.5 7.34315 6.84315 6 8.5 6H16C17.6569 6 19 7.34315 19 9V14C19 15.6569 17.6569 17 16 17H8.5C6.84315 17 5.5 15.6569 5.5 14Z" fill="currentColor"/><path fill-rule="evenodd" clip-rule="evenodd" d="M6.5 9V14C6.5 15.1046 7.39543 16 8.5 16H16C17.1046 16 18 15.1046 18 14V9C18 7.89543 17.1046 7 16 7H8.5C7.39543 7 6.5 7.89543 6.5 9ZM5.5 9V14C5.5 15.6569 6.84315 17 8.5 17H16C17.6569 17 19 15.6569 19 14V9C19 7.34315 17.6569 6 16 6H8.5C6.84315 6 5.5 7.34315 5.5 9Z" fill="currentColor"/><path fill-rule="evenodd" clip-rule="evenodd" d="M12.5 6L14.5 3.5L12.5 6Z" fill="currentColor"/><path fill-rule="evenodd" clip-rule="evenodd" d="M14.9685 2.91435C15.292 3.17311 15.3444 3.64508 15.0856 3.96852L13.0856 6.46852C12.8269 6.79197 12.3549 6.84441 12.0315 6.58565C11.708 6.3269 11.6556 5.85493 11.9143 5.53148L13.9143 3.03148C14.1731 2.70803 14.6451 2.65559 14.9685 2.91435Z" fill="currentColor"/><path fill-rule="evenodd" clip-rule="evenodd" d="M11.5 6L9.5 3.5L11.5 6Z" fill="currentColor"/><path fill-rule="evenodd" clip-rule="evenodd" d="M9.03148 2.91435C9.35492 2.65559 9.82689 2.70803 10.0856 3.03148L12.0856 5.53148C12.3444 5.85493 12.292 6.3269 11.9685 6.58565C11.6451 6.84441 11.1731 6.79197 10.9143 6.46852L8.91435 3.96852C8.65559 3.64508 8.70803 3.17311 9.03148 2.91435Z" fill="currentColor"/></g><path fill-rule="evenodd" clip-rule="evenodd" d="M4.25 9V14C4.25 15.1046 5.14543 16 6.25 16H13.75C14.8546 16 15.75 15.1046 15.75 14V9C15.75 7.89543 14.8546 7 13.75 7H6.25C5.14543 7 4.25 7.89543 4.25 9ZM3.25 9V14C3.25 15.6569 4.59315 17 6.25 17H13.75C15.4069 17 16.75 15.6569 16.75 14V9C16.75 7.34315 15.4069 6 13.75 6H6.25C4.59315 6 3.25 7.34315 3.25 9Z" fill="currentColor"/><path fill-rule="evenodd" clip-rule="evenodd" d="M11.5 11.5L9 13V10L11.5 11.5Z" fill="currentColor"/><path fill-rule="evenodd" clip-rule="evenodd" d="M12 11.5C12 11.6756 11.9079 11.8384 11.7572 11.9287L9.25725 13.4287C9.10278 13.5214 8.9104 13.5239 8.75365 13.4351C8.5969 13.3463 8.5 13.1801 8.5 13V10C8.5 9.81986 8.5969 9.65365 8.75365 9.5649C8.9104 9.47615 9.10278 9.47857 9.25725 9.57125L11.7572 11.0713C11.9079 11.1616 12 11.3244 12 11.5ZM9.5 10.8831V12.1169L10.5282 11.5L9.5 10.8831Z" fill="currentColor"/><path fill-rule="evenodd" clip-rule="evenodd" d="M12.5623 3.10956C12.778 3.28207 12.8129 3.59672 12.6404 3.81235L10.6404 6.31235C10.4679 6.52798 10.1533 6.56294 9.93764 6.39043C9.72201 6.21793 9.68705 5.90328 9.85955 5.68765L11.8596 3.18765C12.0321 2.97202 12.3467 2.93706 12.5623 3.10956Z" fill="currentColor"/><path fill-rule="evenodd" clip-rule="evenodd" d="M6.93764 3.10956C7.15327 2.93706 7.46792 2.97202 7.64042 3.18765L9.64042 5.68765C9.81293 5.90328 9.77797 6.21793 9.56234 6.39043C9.3467 6.56294 9.03206 6.52798 8.85955 6.31235L6.85955 3.81235C6.68705 3.59672 6.72201 3.28207 6.93764 3.10956Z" fill="currentColor"/><path d="M1.15063 1.87794C0.94979 1.6771 0.94979 1.35147 1.15063 1.15063C1.35147 0.949789 1.6771 0.949789 1.87794 1.15063L18.8494 18.1221C19.0502 18.3229 19.0502 18.6485 18.8494 18.8494C18.6485 19.0502 18.3229 19.0502 18.1221 18.8494L1.15063 1.87794Z" fill="currentColor"/></svg>