<svg xmlns="http://www.w3.org/2000/svg" style="" width="20" height="20" viewBox="0 0 20 20"><g fill="none" fill-rule="evenodd"><g fill="currentColor" stroke="currentColor" opacity=".8" transform="translate(5.5 3.5)"><path d="M.5 10.5A2.5 2.5 0 0 0 3 13h7.5a2.5 2.5 0 0 0 2.5-2.5v-5A2.5 2.5 0 0 0 10.5 3H3A2.5 2.5 0 0 0 .5 5.5v5z"/><path stroke-linecap="round" stroke-linejoin="round" stroke-width="1.5" d="M7 2.5L9 0 7 2.5zm-1 0L4 0l2 2.5z"/></g><path stroke="#000" d="M3.75 14a2.5 2.5 0 0 0 2.5 2.5h7.5a2.5 2.5 0 0 0 2.5-2.5V9a2.5 2.5 0 0 0-2.5-2.5h-7.5A2.5 2.5 0 0 0 3.75 9v5z"/><path stroke="#000" stroke-linecap="round" stroke-linejoin="round" d="M10.25 6l2-2.5-2 2.5zm-1 0l-2-2.5 2 2.5z"/></g></svg>