<svg xmlns="http://www.w3.org/2000/svg" width="20" height="20" viewBox="0 0 20 20"><g fill="none" fill-rule="evenodd"><path fill="currentColor" d="M6 6h12a2 2 0 0 1 2 2v6.102a2 2 0 0 1-2 2h-7.55C9.06 17.367 8.144 18 7.705 18c-.44 0-.792-.633-1.056-1.898H6a2 2 0 0 1-2-2V8a2 2 0 0 1 2-2z"/><path stroke="#000" stroke-linecap="round" d="M4 4h12a2 2 0 0 1 2 2v6.102a2 2 0 0 1-2 2H8.45C7.06 15.367 6.144 16 5.705 16c-.44 0-.792-.633-1.056-1.898H4a2 2 0 0 1-2-2V6a2 2 0 0 1 2-2z"/><circle cx="7" cy="9" r="1" fill="#000"/><circle cx="10" cy="9" r="1" fill="#000"/><circle cx="13" cy="9" r="1" fill="#000"/></g></svg>