<svg width="20" height="20" viewBox="0 0 26 26" fill="none" xmlns="http://www.w3.org/2000/svg"><path opacity="0.2" fill-rule="evenodd" clip-rule="evenodd" d="M13.5 26C20.4036 26 26 20.4036 26 13.5C26 6.59644 20.4036 1 13.5 1C6.59644 1 1 6.59644 1 13.5C1 20.4036 6.59644 26 13.5 26ZM13.5 24C19.299 24 24 19.299 24 13.5C24 7.70101 19.299 3 13.5 3C7.70101 3 3 7.70101 3 13.5C3 19.299 7.70101 24 13.5 24Z" fill="currentColor"/><g transform="translate(3, 3)"><path opacity="0.2" d="M3 7C3 6.44772 3.44772 6 4 6H18C18.5523 6 19 6.44772 19 7V8.5V9.64094C19 9.70698 18.9603 9.76655 18.8993 9.79195Lnan nanL18.8993 9.79195C17.8255 10.2394 17.8255 11.7606 18.8993 12.2081Lnan nanL18.8993 12.2081C18.9603 12.2335 19 12.293 19 12.3591V13.5V15C19 15.5523 18.5523 16 18 16H4C3.44772 16 3 15.5523 3 15V13.5V12.3591C3 12.293 3.03971 12.2335 3.10067 12.2081Lnan nanL3.10067 12.2081C4.1745 11.7606 4.1745 10.2394 3.10067 9.79195Lnan nanL3.10067 9.79195C3.03971 9.76655 3 9.70698 3 9.64094V8.5V7Z" fill="currentColor"/><path fill-rule="evenodd" clip-rule="evenodd" d="M1.5 6C1.5 5.17157 2.17157 4.5 3 4.5H17C17.8284 4.5 18.5 5.17157 18.5 6V8.64094C18.5 8.90883 18.3389 9.15045 18.0916 9.25349C17.4281 9.52997 17.4281 10.47 18.0916 10.7465C18.3389 10.8496 18.5 11.0912 18.5 11.3591V14C18.5 14.8284 17.8284 15.5 17 15.5H3C2.17157 15.5 1.5 14.8284 1.5 14V11.3591C1.5 11.0912 1.66108 10.8496 1.90836 10.7465C2.57193 10.47 2.57193 9.52997 1.90836 9.25349C1.66108 9.15045 1.5 8.90883 1.5 8.64094V6ZM3 5.5C2.72386 5.5 2.5 5.72386 2.5 6V8.4314C3.70805 9.11382 3.70805 10.8862 2.5 11.5686V14C2.5 14.2761 2.72386 14.5 3 14.5H17C17.2761 14.5 17.5 14.2761 17.5 14V11.5686C16.2919 10.8862 16.2919 9.11382 17.5 8.43139V6C17.5 5.72386 17.2761 5.5 17 5.5H3Z" fill="currentColor"/><path fill-rule="evenodd" clip-rule="evenodd" d="M12.5 13.25C12.9142 13.25 13.25 13.5858 13.25 14V14.5C13.25 14.9142 12.9142 15.25 12.5 15.25C12.0858 15.25 11.75 14.9142 11.75 14.5V14C11.75 13.5858 12.0858 13.25 12.5 13.25Z" fill="currentColor"/><path fill-rule="evenodd" clip-rule="evenodd" d="M12.5 4.75C12.9142 4.75 13.25 5.08579 13.25 5.5V6C13.25 6.41421 12.9142 6.75 12.5 6.75C12.0858 6.75 11.75 6.41421 11.75 6V5.5C11.75 5.08579 12.0858 4.75 12.5 4.75Z" fill="currentColor"/><path fill-rule="evenodd" clip-rule="evenodd" d="M12.5 7.5C12.9142 7.5 13.25 7.83579 13.25 8.25V8.75C13.25 9.16421 12.9142 9.5 12.5 9.5C12.0858 9.5 11.75 9.16421 11.75 8.75V8.25C11.75 7.83579 12.0858 7.5 12.5 7.5Z" fill="currentColor"/><path fill-rule="evenodd" clip-rule="evenodd" d="M12.5 10.5C12.9142 10.5 13.25 10.8358 13.25 11.25V11.75C13.25 12.1642 12.9142 12.5 12.5 12.5C12.0858 12.5 11.75 12.1642 11.75 11.75V11.25C11.75 10.8358 12.0858 10.5 12.5 10.5Z" fill="currentColor"/><path d="M1.15063 1.87794C0.94979 1.6771 0.94979 1.35147 1.15063 1.15063C1.35147 0.949789 1.6771 0.949789 1.87794 1.15063L18.8494 18.1221C19.0502 18.3229 19.0502 18.6485 18.8494 18.8494C18.6485 19.0502 18.3229 19.0502 18.1221 18.8494L1.15063 1.87794Z" fill="currentColor"/></g><path fill-rule="evenodd" clip-rule="evenodd" d="M13 24.5C19.3513 24.5 24.5 19.3513 24.5 13C24.5 6.64873 19.3513 1.5 13 1.5C6.64873 1.5 1.5 6.64873 1.5 13C1.5 19.3513 6.64873 24.5 13 24.5ZM13 25.5C19.9036 25.5 25.5 19.9036 25.5 13C25.5 6.09644 19.9036 0.5 13 0.5C6.09644 0.5 0.5 6.09644 0.5 13C0.5 19.9036 6.09644 25.5 13 25.5Z" fill="currentColor"/></svg>