<svg width="20" height="20" viewBox="0 0 26 26" fill="none" xmlns="http://www.w3.org/2000/svg"><path opacity="0.2" d="M26 14C26 20.6274 20.6274 26 14 26C7.37258 26 2 20.6274 2 14C2 7.37258 7.37258 2 14 2C20.6274 2 26 7.37258 26 14Z" fill="currentColor"/><g transform="translate(3, 3)"><path d="M6.85355 13.8536C6.65829 14.0488 6.34171 14.0488 6.14645 13.8536C5.95118 13.6583 5.95118 13.3417 6.14645 13.1464L13.1464 6.14645C13.3417 5.95118 13.6583 5.95118 13.8536 6.14645C14.0488 6.34171 14.0488 6.65829 13.8536 6.85355L6.85355 13.8536Z" fill="currentColor"/><path d="M6.14645 6.85355C5.95118 6.65829 5.95118 6.34171 6.14645 6.14645C6.34171 5.95118 6.65829 5.95118 6.85355 6.14645L13.8536 13.1464C14.0488 13.3417 14.0488 13.6583 13.8536 13.8536C13.6583 14.0488 13.3417 14.0488 13.1464 13.8536L6.14645 6.85355Z" fill="currentColor"/></g><path fill-rule="evenodd" clip-rule="evenodd" d="M13 24.5C19.3513 24.5 24.5 19.3513 24.5 13C24.5 6.64873 19.3513 1.5 13 1.5C6.64873 1.5 1.5 6.64873 1.5 13C1.5 19.3513 6.64873 24.5 13 24.5ZM13 25.5C19.9036 25.5 25.5 19.9036 25.5 13C25.5 6.09644 19.9036 0.5 13 0.5C6.09644 0.5 0.5 6.09644 0.5 13C0.5 19.9036 6.09644 25.5 13 25.5Z" fill="currentColor"/></svg>