<svg width="20" height="20" viewBox="0 0 20 20" fill="none" xmlns="http://www.w3.org/2000/svg"><g opacity="0.2"><path fill-rule="evenodd" clip-rule="evenodd" d="M6.13197 6.47653C5.56672 7.08215 5.59945 8.03134 6.20507 8.59659L8.78016 11L6.20507 13.4034C5.59945 13.9687 5.56672 14.9179 6.13197 15.5235C6.69722 16.1291 7.6464 16.1618 8.25203 15.5966L10.9786 13.0518L13.7051 15.5966C14.3107 16.1618 15.2599 16.1291 15.8251 15.5235C16.3904 14.9179 16.3577 13.9687 15.752 13.4034L13.1769 11L15.752 8.59659C16.3577 8.03134 16.3904 7.08215 15.8251 6.47653C15.2599 5.8709 14.3107 5.83817 13.7051 6.40342L10.9786 8.94818L8.25203 6.40342C7.6464 5.83817 6.69722 5.8709 6.13197 6.47653Z" fill="currentColor"/></g><path d="M6.85355 13.8536C6.65829 14.0488 6.34171 14.0488 6.14645 13.8536C5.95118 13.6583 5.95118 13.3417 6.14645 13.1464L13.1464 6.14645C13.3417 5.95118 13.6583 5.95118 13.8536 6.14645C14.0488 6.34171 14.0488 6.65829 13.8536 6.85355L6.85355 13.8536Z" fill="currentColor"/><path d="M6.14645 6.85355C5.95118 6.65829 5.95118 6.34171 6.14645 6.14645C6.34171 5.95118 6.65829 5.95118 6.85355 6.14645L13.8536 13.1464C14.0488 13.3417 14.0488 13.6583 13.8536 13.8536C13.6583 14.0488 13.3417 14.0488 13.1464 13.8536L6.14645 6.85355Z" fill="currentColor"/></svg>