<svg xmlns="http://www.w3.org/2000/svg" style="" style="" style="" width="20" height="20" viewBox="0 0 20 20"><g fill="none" fill-rule="evenodd"><g opacity=".8" transform="translate(7 2.5)"><rect width="10" height="11.5" y="4.5" fill="currentColor" fill-rule="nonzero" rx="1"/><path fill="currentColor" fill-rule="nonzero" d="M6.937 2.5H3.063A2.003 2.003 0 0 1 5 0a2.003 2.003 0 0 1 1.937 2.5z"/><path stroke="currentColor" stroke-linecap="round" stroke-width="1.5" d="M0 2.5h10"/></g><path stroke="#000" stroke-linecap="round" d="M8 14.999v-6m2 6v-6m2 6v-6"/><path fill="#000" fill-rule="nonzero" d="M11.5 4.499h-3a1.501 1.501 0 0 1 3-.001z"/><path stroke="#000" stroke-linecap="round" d="M4.5 4.499h11"/><path d="M5 5.5h10v12H5z"/><path stroke="#000" stroke-linejoin="round" d="M5.5 6h9v11h-9z"/></g></svg>