<svg width="20" height="20" viewBox="0 0 20 20" fill="none" xmlns="http://www.w3.org/2000/svg"><g opacity="0.2"><path fill-rule="evenodd" clip-rule="evenodd" d="M14.0901 7.4855C14.3742 7.95908 14.2207 8.57334 13.7471 8.85749L11.7326 10.0662V19C11.7326 19.5523 11.2849 20 10.7326 20C10.1803 20 9.73258 19.5523 9.73258 19V12.5662L7.71808 11.3575C7.2445 11.0733 7.09093 10.4591 7.37508 9.9855C7.65923 9.51192 8.27349 9.35836 8.74707 9.64251L9.73258 10.2338V6C9.73258 5.44772 10.1803 5 10.7326 5C11.2849 5 11.7326 5.44772 11.7326 6V7.73381L12.7181 7.14251C13.1917 6.85836 13.8059 7.01192 14.0901 7.4855Z" fill="currentColor"/><path fill-rule="evenodd" clip-rule="evenodd" d="M10.6326 1.5C9.85092 1.5 9.1323 1.8125 8.57889 2.33852C8.26837 2.63367 8.01059 2.99567 7.82565 3.40538C7.71582 3.64872 7.43537 3.76143 7.18942 3.66598C5.55345 3.54337 4.05224 4.83864 3.86801 6.69733C3.74214 7.96722 4.27417 9.13737 5.14874 9.82521C5.24716 9.90262 5.30868 10.0096 5.33061 10.1236C5.37464 10.2225 5.38701 10.3364 5.35833 10.4495C5.26852 10.8037 5.2348 11.1859 5.26926 11.581C5.40915 13.1845 6.93981 14.3078 8.32072 14.1681C8.85215 14.1143 9.225 14.0259 9.5059 13.8635C9.75789 13.7177 9.97382 13.4899 10.149 13.0739C10.1883 12.9256 10.2949 12.7973 10.4484 12.7365C10.5101 12.7121 10.5738 12.7008 10.6363 12.7013C10.6978 12.7011 10.7604 12.7125 10.8212 12.7365C10.9746 12.7973 11.0813 12.9256 11.1205 13.0738C11.2957 13.4899 11.5117 13.7177 11.7637 13.8634C12.0446 14.0259 12.4174 14.1143 12.9489 14.1681C14.3298 14.3078 15.8604 13.1845 16.0003 11.5809C16.0348 11.1859 16.0011 10.8037 15.9113 10.4495C15.8826 10.3363 15.895 10.2223 15.9391 10.1233C15.9611 10.0094 16.0226 9.90257 16.1209 9.82523C16.9955 9.13739 17.5275 7.96724 17.4016 6.69735C17.2172 4.83651 15.7127 3.54039 14.0745 3.66643C13.8289 3.76108 13.5491 3.64834 13.4395 3.40538C13.2545 2.99567 12.9968 2.63367 12.6862 2.33852C12.1328 1.8125 11.4142 1.5 10.6326 1.5ZM14.1828 2.65926C13.9655 2.26828 13.6927 1.91552 13.3752 1.6137L13.0307 1.97611L13.3752 1.6137C12.6503 0.924734 11.6899 0.5 10.6326 0.5C9.57523 0.5 8.61478 0.924734 7.88994 1.6137C7.57245 1.91548 7.29973 2.26818 7.08245 2.6591C4.92333 2.5952 3.0979 4.32859 2.87289 6.59869C2.72315 8.10932 3.30784 9.53279 4.33474 10.4473C4.25948 10.8382 4.23649 11.2488 4.27305 11.6679C4.46328 13.8484 6.50731 15.3567 8.42138 15.163C8.99217 15.1053 9.53781 15.0002 10.0065 14.7291C10.2467 14.5903 10.4553 14.4147 10.6348 14.1979C10.8143 14.4147 11.0229 14.5902 11.2631 14.7291C11.7318 15.0002 12.2774 15.1053 12.8482 15.163C14.7623 15.3567 16.8063 13.8484 16.9965 11.6678C17.0331 11.2488 17.0101 10.8383 16.9349 10.4474C17.9618 9.53285 18.5465 8.10936 18.3968 6.59871C18.1716 4.32705 16.3438 2.59285 14.1828 2.65926Z" fill="currentColor"/><path d="M14.2325 5C14.2325 7.20914 12.6655 9 10.7325 9C8.79955 9 7.23254 7.20914 7.23254 5C7.23254 2.79086 8.79955 1 10.7325 1C12.6655 1 14.2325 2.79086 14.2325 5Z" fill="currentColor"/><path d="M11.7325 11C11.7325 13.2091 10.1655 15 8.23254 15C6.29955 15 4.73254 13.2091 4.73254 11C4.73254 8.79086 6.29955 7 8.23254 7C10.1655 7 11.7325 8.79086 11.7325 11Z" fill="currentColor"/><path d="M16.7325 11C16.7325 13.2091 15.1655 15 13.2325 15C11.2995 15 9.73254 13.2091 9.73254 11C9.73254 8.79086 11.2995 7 13.2325 7C15.1655 7 16.7325 8.79086 16.7325 11Z" fill="currentColor"/><path d="M17.7325 7C17.7325 9.20914 16.1655 11 14.2325 11C12.2995 11 10.7325 9.20914 10.7325 7C10.7325 4.79086 12.2995 3 14.2325 3C16.1655 3 17.7325 4.79086 17.7325 7Z" fill="currentColor"/><path d="M10.7325 7C10.7325 9.20914 9.16554 11 7.23254 11C5.29955 11 3.73254 9.20914 3.73254 7C3.73254 4.79086 5.29955 3 7.23254 3C9.16554 3 10.7325 4.79086 10.7325 7Z" fill="currentColor"/></g><path fill-rule="evenodd" clip-rule="evenodd" d="M9.36004 1C8.5784 1 7.85977 1.3125 7.30637 1.83852C6.99585 2.13367 6.73806 2.49567 6.55313 2.90538C6.4433 3.14872 6.16285 3.26143 5.9169 3.16598C4.28092 3.04337 2.77972 4.33864 2.59549 6.19733C2.46961 7.46722 3.00164 8.63737 3.87622 9.32521C3.97464 9.40262 4.03616 9.50956 4.05809 9.62357C4.10212 9.72249 4.11448 9.83637 4.08581 9.94948C3.99599 10.3037 3.96228 10.6859 3.99674 11.081C4.13663 12.6845 5.66729 13.8078 7.0482 13.6681C7.58058 13.6142 7.95379 13.5256 8.23484 13.3626C8.48604 13.2169 8.70156 12.9893 8.87653 12.5739C8.91574 12.4257 9.02236 12.2974 9.17583 12.2365C9.23755 12.2121 9.30122 12.2008 9.36376 12.2013C9.42534 12.2011 9.48797 12.2125 9.54871 12.2366C9.70215 12.2974 9.80876 12.4256 9.84799 12.5738C10.023 12.9893 10.2385 13.2169 10.4897 13.3626C10.7707 13.5256 11.144 13.6142 11.6763 13.6681C13.0573 13.8078 14.5879 12.6845 14.7278 11.0809C14.7623 10.6859 14.7285 10.3037 14.6387 9.94946C14.61 9.83626 14.6224 9.72227 14.6666 9.62329C14.6886 9.50939 14.75 9.40257 14.8484 9.32523C15.723 8.63739 16.255 7.46724 16.1291 6.19735C15.9447 4.33651 14.4402 3.04039 12.802 3.16643C12.5563 3.26108 12.2766 3.14834 12.1669 2.90538C11.982 2.49567 11.7242 2.13367 11.4137 1.83852C10.8603 1.3125 10.1417 1 9.36004 1ZM12.9102 2.15926C12.6929 1.76828 12.4202 1.41552 12.1027 1.1137C11.3778 0.424734 10.4174 0 9.36004 0C8.30271 0 7.34226 0.424734 6.61742 1.1137C6.29993 1.41548 6.02721 1.76818 5.80993 2.1591C3.65081 2.0952 1.82538 3.82859 1.60036 6.09869C1.45063 7.60932 2.03532 9.03279 3.06222 9.94729C2.98695 10.3382 2.96396 10.7488 3.00052 11.1679C3.19075 13.3484 5.23478 14.8567 7.14886 14.663C7.72063 14.6052 8.26718 14.4998 8.73648 14.2277C8.97562 14.089 9.18341 13.9139 9.36227 13.6979C9.54114 13.9139 9.74893 14.089 9.98806 14.2277C10.4574 14.4998 11.0039 14.6052 11.5757 14.663C13.4898 14.8567 15.5338 13.3484 15.724 11.1678C15.7606 10.7488 15.7376 10.3383 15.6623 9.94735C16.6893 9.03285 17.274 7.60936 17.1242 6.09871C16.8991 3.82705 15.0713 2.09285 12.9102 2.15926Z" fill="currentColor"/><path fill-rule="evenodd" clip-rule="evenodd" d="M12.3888 7.24275C12.5308 7.47954 12.454 7.78667 12.2173 7.92875L9.96001 9.2831V18.5C9.96001 18.7761 9.73615 19 9.46001 19C9.18387 19 8.96001 18.7761 8.96001 18.5V11.7831L6.70276 10.4287C6.46597 10.2867 6.38919 9.97954 6.53126 9.74275C6.67334 9.50596 6.98047 9.42918 7.21726 9.57125L8.96001 10.6169V5.5C8.96001 5.22386 9.18387 5 9.46001 5C9.73615 5 9.96001 5.22386 9.96001 5.5V8.1169L11.7028 7.07125C11.9395 6.92918 12.2467 7.00596 12.3888 7.24275Z" fill="currentColor"/><path d="M1.15063 1.87794C0.94979 1.6771 0.94979 1.35147 1.15063 1.15063C1.35147 0.949789 1.6771 0.949789 1.87794 1.15063L18.8494 18.1221C19.0502 18.3229 19.0502 18.6485 18.8494 18.8494C18.6485 19.0502 18.3229 19.0502 18.1221 18.8494L1.15063 1.87794Z" fill="currentColor"/></svg>