<svg width="20" height="20" viewBox="0 0 26 26" fill="none" xmlns="http://www.w3.org/2000/svg"><path opacity="0.2" fill-rule="evenodd" clip-rule="evenodd" d="M13.5 26C20.4036 26 26 20.4036 26 13.5C26 6.59644 20.4036 1 13.5 1C6.59644 1 1 6.59644 1 13.5C1 20.4036 6.59644 26 13.5 26ZM13.5 24C19.299 24 24 19.299 24 13.5C24 7.70101 19.299 3 13.5 3C7.70101 3 3 7.70101 3 13.5C3 19.299 7.70101 24 13.5 24Z" fill="currentColor"/><g transform="translate(3, 3)"><path opacity="0.2" fill-rule="evenodd" clip-rule="evenodd" d="M17.5193 10.1362C18.1808 10.5221 18.1808 11.4779 17.5193 11.8637L8.50389 17.1227C7.83723 17.5116 7.00002 17.0307 7.00002 16.2589L7.00002 5.74101C7.00002 4.96922 7.83723 4.48835 8.50389 4.87723L17.5193 10.1362Z" fill="currentColor"/><path fill-rule="evenodd" clip-rule="evenodd" d="M16 10C16 10.1756 15.9079 10.3384 15.7572 10.4287L5.75725 16.4287C5.60278 16.5214 5.41041 16.5239 5.25365 16.4351C5.0969 16.3463 5 16.1801 5 16V4C5 3.81986 5.0969 3.65365 5.25365 3.5649C5.41041 3.47615 5.60278 3.47857 5.75725 3.57125L15.7572 9.57125C15.9079 9.66162 16 9.82437 16 10ZM6 4.8831V15.1169L14.5282 10L6 4.8831Z" fill="currentColor"/></g><path fill-rule="evenodd" clip-rule="evenodd" d="M13 24.5C19.3513 24.5 24.5 19.3513 24.5 13C24.5 6.64873 19.3513 1.5 13 1.5C6.64873 1.5 1.5 6.64873 1.5 13C1.5 19.3513 6.64873 24.5 13 24.5ZM13 25.5C19.9036 25.5 25.5 19.9036 25.5 13C25.5 6.09644 19.9036 0.5 13 0.5C6.09644 0.5 0.5 6.09644 0.5 13C0.5 19.9036 6.09644 25.5 13 25.5Z" fill="currentColor"/></svg>