<svg width="20" height="20" viewBox="0 0 26 26" fill="none" xmlns="http://www.w3.org/2000/svg"><path opacity="0.2" fill-rule="evenodd" clip-rule="evenodd" d="M13.5 26C20.4036 26 26 20.4036 26 13.5C26 6.59644 20.4036 1 13.5 1C6.59644 1 1 6.59644 1 13.5C1 20.4036 6.59644 26 13.5 26ZM13.5 24C19.299 24 24 19.299 24 13.5C24 7.70101 19.299 3 13.5 3C7.70101 3 3 7.70101 3 13.5C3 19.299 7.70101 24 13.5 24Z" fill="currentColor"/><g transform="translate(3, 3)"><path opacity="0.2" fill-rule="evenodd" clip-rule="evenodd" d="M10.6362 5.98075C11.0221 5.31924 11.9779 5.31924 12.3637 5.98075L17.6227 14.9961C18.0116 15.6628 17.5307 16.5 16.7589 16.5H6.24101C5.46922 16.5 4.98835 15.6628 5.37723 14.9961L10.6362 5.98075Z" fill="currentColor"/><path fill-rule="evenodd" clip-rule="evenodd" d="M10 4C10.1756 4 10.3384 4.09215 10.4287 4.24275L16.4287 14.2428C16.5214 14.3972 16.5239 14.5896 16.4351 14.7463C16.3463 14.9031 16.1801 15 16 15H4C3.81986 15 3.65365 14.9031 3.5649 14.7463C3.47615 14.5896 3.47857 14.3972 3.57125 14.2428L9.57125 4.24275C9.66162 4.09215 9.82437 4 10 4ZM4.8831 14H15.1169L10 5.47183L4.8831 14Z" fill="currentColor"/><path d="M1.15063 1.87794C0.94979 1.6771 0.94979 1.35147 1.15063 1.15063C1.35147 0.949789 1.6771 0.949789 1.87794 1.15063L18.8494 18.1221C19.0502 18.3229 19.0502 18.6485 18.8494 18.8494C18.6485 19.0502 18.3229 19.0502 18.1221 18.8494L1.15063 1.87794Z" fill="currentColor"/></g><path fill-rule="evenodd" clip-rule="evenodd" d="M13 24.5C19.3513 24.5 24.5 19.3513 24.5 13C24.5 6.64873 19.3513 1.5 13 1.5C6.64873 1.5 1.5 6.64873 1.5 13C1.5 19.3513 6.64873 24.5 13 24.5ZM13 25.5C19.9036 25.5 25.5 19.9036 25.5 13C25.5 6.09644 19.9036 0.5 13 0.5C6.09644 0.5 0.5 6.09644 0.5 13C0.5 19.9036 6.09644 25.5 13 25.5Z" fill="currentColor"/></svg>