<svg width="20" height="20" viewBox="0 0 20 20" fill="none" xmlns="http://www.w3.org/2000/svg"><path opacity="0.2" fill-rule="evenodd" clip-rule="evenodd" d="M6.48075 11.8638C5.81924 11.4779 5.81924 10.5221 6.48075 10.1363L15.4961 4.87729C16.1628 4.4884 17 4.96928 17 5.74107V16.259C17 17.0308 16.1628 17.5117 15.4961 17.1228L6.48075 11.8638Z" fill="currentColor"/><path fill-rule="evenodd" clip-rule="evenodd" d="M4 10C4 9.82437 4.09215 9.66161 4.24275 9.57125L14.2428 3.57125C14.3972 3.47857 14.5896 3.47615 14.7463 3.5649C14.9031 3.65365 15 3.81986 15 4V16C15 16.1801 14.9031 16.3463 14.7463 16.4351C14.5896 16.5239 14.3972 16.5214 14.2428 16.4287L4.24275 10.4287C4.09215 10.3384 4 10.1756 4 10ZM14 15.1169V4.88309L5.47183 10L14 15.1169Z" fill="currentColor"/><path d="M1.15063 1.87794C0.94979 1.6771 0.94979 1.35147 1.15063 1.15063C1.35147 0.949789 1.6771 0.949789 1.87794 1.15063L18.8494 18.1221C19.0502 18.3229 19.0502 18.6485 18.8494 18.8494C18.6485 19.0502 18.3229 19.0502 18.1221 18.8494L1.15063 1.87794Z" fill="currentColor"/></svg>