<svg width="20" height="20" viewBox="0 0 26 26" fill="none" xmlns="http://www.w3.org/2000/svg"><path opacity="0.2" fill-rule="evenodd" clip-rule="evenodd" d="M13.5 26C20.4036 26 26 20.4036 26 13.5C26 6.59644 20.4036 1 13.5 1C6.59644 1 1 6.59644 1 13.5C1 20.4036 6.59644 26 13.5 26ZM13.5 24C19.299 24 24 19.299 24 13.5C24 7.70101 19.299 3 13.5 3C7.70101 3 3 7.70101 3 13.5C3 19.299 7.70101 24 13.5 24Z" fill="currentColor"/><g transform="translate(3, 3)"><path opacity="0.2" fill-rule="evenodd" clip-rule="evenodd" d="M7.98631 10.75L14.5 14.5279V6.97203L7.98631 10.75ZM5.49145 9.88494C4.82707 10.2703 4.82707 11.2297 5.49145 11.615L14.9983 17.129C15.665 17.5156 16.5 17.0346 16.5 16.2639V5.236C16.5 4.46532 15.665 3.9843 14.9983 4.37097L5.49145 9.88494Z" fill="currentColor"/><path fill-rule="evenodd" clip-rule="evenodd" d="M4 10C4 9.82437 4.09215 9.66161 4.24275 9.57125L14.2428 3.57125C14.3972 3.47857 14.5896 3.47615 14.7463 3.5649C14.9031 3.65365 15 3.81986 15 4V16C15 16.1801 14.9031 16.3463 14.7463 16.4351C14.5896 16.5239 14.3972 16.5214 14.2428 16.4287L4.24275 10.4287C4.09215 10.3384 4 10.1756 4 10ZM14 15.1169V4.88309L5.47183 10L14 15.1169Z" fill="currentColor"/><path d="M1.15063 1.87794C0.94979 1.6771 0.94979 1.35147 1.15063 1.15063C1.35147 0.949789 1.6771 0.949789 1.87794 1.15063L18.8494 18.1221C19.0502 18.3229 19.0502 18.6485 18.8494 18.8494C18.6485 19.0502 18.3229 19.0502 18.1221 18.8494L1.15063 1.87794Z" fill="currentColor"/></g><path fill-rule="evenodd" clip-rule="evenodd" d="M13 24.5C19.3513 24.5 24.5 19.3513 24.5 13C24.5 6.64873 19.3513 1.5 13 1.5C6.64873 1.5 1.5 6.64873 1.5 13C1.5 19.3513 6.64873 24.5 13 24.5ZM13 25.5C19.9036 25.5 25.5 19.9036 25.5 13C25.5 6.09644 19.9036 0.5 13 0.5C6.09644 0.5 0.5 6.09644 0.5 13C0.5 19.9036 6.09644 25.5 13 25.5Z" fill="currentColor"/></svg>