<svg width="20" height="20" viewBox="0 0 20 20" fill="none" xmlns="http://www.w3.org/2000/svg"><path opacity="0.2" fill-rule="evenodd" clip-rule="evenodd" d="M10.6362 5.98075C11.0221 5.31924 11.9779 5.31924 12.3637 5.98075L17.6227 14.9961C18.0116 15.6628 17.5307 16.5 16.7589 16.5H6.24101C5.46922 16.5 4.98835 15.6628 5.37723 14.9961L10.6362 5.98075Z" fill="currentColor"/><path fill-rule="evenodd" clip-rule="evenodd" d="M10 4C10.1756 4 10.3384 4.09215 10.4287 4.24275L16.4287 14.2428C16.5214 14.3972 16.5239 14.5896 16.4351 14.7463C16.3463 14.9031 16.1801 15 16 15H4C3.81986 15 3.65365 14.9031 3.5649 14.7463C3.47615 14.5896 3.47857 14.3972 3.57125 14.2428L9.57125 4.24275C9.66162 4.09215 9.82437 4 10 4ZM4.8831 14H15.1169L10 5.47183L4.8831 14Z" fill="currentColor"/></svg>