<svg width="20" height="20" viewBox="0 0 26 26" fill="none" xmlns="http://www.w3.org/2000/svg"><path opacity="0.2" d="M26 14C26 20.6274 20.6274 26 14 26C7.37258 26 2 20.6274 2 14C2 7.37258 7.37258 2 14 2C20.6274 2 26 7.37258 26 14Z" fill="currentColor"/><g transform="translate(3, 3)"><path fill-rule="evenodd" clip-rule="evenodd" d="M4 10C4 9.82437 4.09215 9.66161 4.24275 9.57125L14.2428 3.57125C14.3972 3.47857 14.5896 3.47615 14.7463 3.5649C14.9031 3.65365 15 3.81986 15 4V16C15 16.1801 14.9031 16.3463 14.7463 16.4351C14.5896 16.5239 14.3972 16.5214 14.2428 16.4287L4.24275 10.4287C4.09215 10.3384 4 10.1756 4 10ZM14 15.1169V4.88309L5.47183 10L14 15.1169Z" fill="currentColor"/></g><path fill-rule="evenodd" clip-rule="evenodd" d="M13 24.5C19.3513 24.5 24.5 19.3513 24.5 13C24.5 6.64873 19.3513 1.5 13 1.5C6.64873 1.5 1.5 6.64873 1.5 13C1.5 19.3513 6.64873 24.5 13 24.5ZM13 25.5C19.9036 25.5 25.5 19.9036 25.5 13C25.5 6.09644 19.9036 0.5 13 0.5C6.09644 0.5 0.5 6.09644 0.5 13C0.5 19.9036 6.09644 25.5 13 25.5Z" fill="currentColor"/></svg>