<svg width="20" height="20" viewBox="0 0 20 20" fill="none" xmlns="http://www.w3.org/2000/svg"><path opacity="0.2" fill-rule="evenodd" clip-rule="evenodd" d="M13.8638 16.5193C13.4779 17.1808 12.5221 17.1808 12.1363 16.5193L6.87729 7.50389C6.4884 6.83723 6.96928 6.00002 7.74107 6.00002H18.259C19.0308 6.00002 19.5117 6.83723 19.1228 7.50389L13.8638 16.5193Z" fill="currentColor"/><path fill-rule="evenodd" clip-rule="evenodd" d="M10 16C9.82437 16 9.66161 15.9079 9.57125 15.7572L3.57125 5.75725C3.47857 5.60278 3.47615 5.41041 3.5649 5.25365C3.65365 5.0969 3.81986 5 4 5L16 5C16.1801 5 16.3463 5.0969 16.4351 5.25365C16.5239 5.41041 16.5214 5.60278 16.4287 5.75725L10.4287 15.7572C10.3384 15.9079 10.1756 16 10 16ZM15.1169 6L4.88309 6L10 14.5282L15.1169 6Z" fill="currentColor"/><path d="M1.15063 1.87794C0.94979 1.6771 0.94979 1.35147 1.15063 1.15063C1.35147 0.949789 1.6771 0.949789 1.87794 1.15063L18.8494 18.1221C19.0502 18.3229 19.0502 18.6485 18.8494 18.8494C18.6485 19.0502 18.3229 19.0502 18.1221 18.8494L1.15063 1.87794Z" fill="currentColor"/></svg>