<svg width="20" height="20" viewBox="0 0 20 20" fill="none" xmlns="http://www.w3.org/2000/svg"><path opacity="0.2" fill-rule="evenodd" clip-rule="evenodd" d="M10.75 8.48631L6.97208 15H14.528L10.75 8.48631ZM11.6151 5.99145C11.2297 5.32707 10.2703 5.32707 9.885 5.99145L4.37103 15.4983C3.98436 16.165 4.46537 17 5.23606 17H16.264C17.0347 17 17.5157 16.165 17.129 15.4983L11.6151 5.99145Z" fill="currentColor"/><path fill-rule="evenodd" clip-rule="evenodd" d="M10 4C10.1756 4 10.3384 4.09215 10.4287 4.24275L16.4287 14.2428C16.5214 14.3972 16.5239 14.5896 16.4351 14.7463C16.3463 14.9031 16.1801 15 16 15H4C3.81986 15 3.65365 14.9031 3.5649 14.7463C3.47615 14.5896 3.47857 14.3972 3.57125 14.2428L9.57125 4.24275C9.66162 4.09215 9.82437 4 10 4ZM4.8831 14H15.1169L10 5.47183L4.8831 14Z" fill="currentColor"/><path d="M1.15063 1.87794C0.94979 1.6771 0.94979 1.35147 1.15063 1.15063C1.35147 0.949789 1.6771 0.949789 1.87794 1.15063L18.8494 18.1221C19.0502 18.3229 19.0502 18.6485 18.8494 18.8494C18.6485 19.0502 18.3229 19.0502 18.1221 18.8494L1.15063 1.87794Z" fill="currentColor"/></svg>