<svg width="20" height="20" viewBox="0 0 20 20" fill="none" xmlns="http://www.w3.org/2000/svg"><path opacity="0.2" fill-rule="evenodd" clip-rule="evenodd" d="M14.5137 11.25L7.99999 7.47208L7.99999 15.028L14.5137 11.25ZM17.0086 12.1151C17.6729 11.7297 17.6729 10.7703 17.0086 10.385L7.50171 4.87103C6.83504 4.48436 5.99999 4.96537 5.99999 5.73606L5.99999 16.764C5.99999 17.5347 6.83504 18.0157 7.50171 17.629L17.0086 12.1151Z" fill="currentColor"/><path fill-rule="evenodd" clip-rule="evenodd" d="M16 10C16 10.1756 15.9079 10.3384 15.7572 10.4287L5.75725 16.4287C5.60278 16.5214 5.41041 16.5239 5.25365 16.4351C5.0969 16.3463 5 16.1801 5 16V4C5 3.81986 5.0969 3.65365 5.25365 3.5649C5.41041 3.47615 5.60278 3.47857 5.75725 3.57125L15.7572 9.57125C15.9079 9.66162 16 9.82437 16 10ZM6 4.8831V15.1169L14.5282 10L6 4.8831Z" fill="currentColor"/></svg>