<svg width="20" height="20" viewBox="0 0 26 26" fill="none" xmlns="http://www.w3.org/2000/svg"><path opacity="0.2" fill-rule="evenodd" clip-rule="evenodd" d="M13.5 26C20.4036 26 26 20.4036 26 13.5C26 6.59644 20.4036 1 13.5 1C6.59644 1 1 6.59644 1 13.5C1 20.4036 6.59644 26 13.5 26ZM13.5 24C19.299 24 24 19.299 24 13.5C24 7.70101 19.299 3 13.5 3C7.70101 3 3 7.70101 3 13.5C3 19.299 7.70101 24 13.5 24Z" fill="currentColor"/><g transform="translate(3, 3)"><path opacity="0.2" fill-rule="evenodd" clip-rule="evenodd" d="M14.5137 11.25L7.99999 7.47208L7.99999 15.028L14.5137 11.25ZM17.0086 12.1151C17.6729 11.7297 17.6729 10.7703 17.0086 10.385L7.50171 4.87103C6.83504 4.48436 5.99999 4.96537 5.99999 5.73606L5.99999 16.764C5.99999 17.5347 6.83504 18.0157 7.50171 17.629L17.0086 12.1151Z" fill="currentColor"/><path fill-rule="evenodd" clip-rule="evenodd" d="M16 10C16 10.1756 15.9079 10.3384 15.7572 10.4287L5.75725 16.4287C5.60278 16.5214 5.41041 16.5239 5.25365 16.4351C5.0969 16.3463 5 16.1801 5 16V4C5 3.81986 5.0969 3.65365 5.25365 3.5649C5.41041 3.47615 5.60278 3.47857 5.75725 3.57125L15.7572 9.57125C15.9079 9.66162 16 9.82437 16 10ZM6 4.8831V15.1169L14.5282 10L6 4.8831Z" fill="currentColor"/><path d="M1.15063 1.87794C0.94979 1.6771 0.94979 1.35147 1.15063 1.15063C1.35147 0.949789 1.6771 0.949789 1.87794 1.15063L18.8494 18.1221C19.0502 18.3229 19.0502 18.6485 18.8494 18.8494C18.6485 19.0502 18.3229 19.0502 18.1221 18.8494L1.15063 1.87794Z" fill="currentColor"/></g><path fill-rule="evenodd" clip-rule="evenodd" d="M13 24.5C19.3513 24.5 24.5 19.3513 24.5 13C24.5 6.64873 19.3513 1.5 13 1.5C6.64873 1.5 1.5 6.64873 1.5 13C1.5 19.3513 6.64873 24.5 13 24.5ZM13 25.5C19.9036 25.5 25.5 19.9036 25.5 13C25.5 6.09644 19.9036 0.5 13 0.5C6.09644 0.5 0.5 6.09644 0.5 13C0.5 19.9036 6.09644 25.5 13 25.5Z" fill="currentColor"/></svg>