<svg xmlns="http://www.w3.org/2000/svg" width="20" height="20" viewBox="0 0 20 20"><g fill="none" fill-rule="evenodd"><circle cx="8" cy="17.5" r="1.5" fill="currentColor" stroke="currentColor" stroke-width="1.5"/><circle cx="17" cy="17.5" r="1.5" fill="currentColor" stroke="currentColor" stroke-width="1.5"/><rect width="11.5" height="9.5" x="7.75" y="6.75" fill="currentColor" stroke="currentColor" stroke-width="1.5" rx="2"/><path fill="currentColor" stroke="currentColor" stroke-width="1.5" d="M1.75 13.113V15c0 .69.56 1.25 1.25 1.25h4c.69 0 1.25-.56 1.25-1.25v-4c0-.69-.56-1.25-1.25-1.25H3.71a1.25 1.25 0 0 0-1.194.881l-.766 2.482z"/><circle cx="7.5" cy="16.5" r="1.5" stroke="#000"/><circle cx="16.5" cy="16.5" r="1.5" stroke="#000"/><rect width="11" height="10" x="7.5" y="5" stroke="#000" rx="2"/><path stroke="#000" stroke-linecap="round" d="M10.25 8h5.5m-5.5 2h5.5m-5.5 2h5.5"/><path stroke="#000" d="M.5 11.575V13.5A1.5 1.5 0 0 0 2 15h4a1.5 1.5 0 0 0 1.5-1.5v-4A1.5 1.5 0 0 0 6 8H2.71a1.5 1.5 0 0 0-1.433 1.058L.5 11.575z"/><path stroke="#000" stroke-linecap="round" stroke-linejoin="round" d="M2.79 10.1H4.5v2h-2v-.85z"/></g></svg>