<svg width="20" height="20" viewBox="0 0 26 26" fill="none" xmlns="http://www.w3.org/2000/svg"><path opacity="0.2" d="M26 14C26 20.6274 20.6274 26 14 26C7.37258 26 2 20.6274 2 14C2 7.37258 7.37258 2 14 2C20.6274 2 26 7.37258 26 14Z" fill="currentColor"/><g transform="translate(3, 3)"><path d="M9.5 10.5C9.5 10.2239 9.72386 10 10 10C10.2761 10 10.5 10.2239 10.5 10.5L10.4963 17.0563C10.5797 17.7343 10.8603 18 11.4601 18C11.981 18 12.25 17.5673 12.25 16.4249C12.25 16.1488 12.4739 15.9249 12.75 15.9249C13.0261 15.9249 13.25 16.1488 13.25 16.4249C13.25 18.0494 12.6591 19 11.4601 19C10.3401 19 9.64721 18.3439 9.5 17.1174V10.5Z" fill="currentColor"/><path d="M9.50006 1.76538C9.50006 1.48924 9.72392 1.26538 10.0001 1.26538C10.2762 1.26538 10.5001 1.48924 10.5001 1.76538V3.28981C10.5001 3.56595 10.2762 3.78981 10.0001 3.78981C9.72392 3.78981 9.50006 3.56595 9.50006 3.28981L9.50006 1.76538Z" fill="currentColor"/><path fill-rule="evenodd" clip-rule="evenodd" d="M15.9982 12.2653C16.9261 12.2688 17.5001 11.6801 17.5001 10.7654C17.5001 6.54833 14.2949 3.26538 10.1136 3.26538C5.89319 3.26538 2.50006 6.58764 2.50006 10.7654C2.50006 11.6778 3.08442 12.2386 3.98535 12.2652C4.31262 12.2748 4.55496 12.1022 4.8221 11.7917C4.90384 11.6966 4.98717 11.5888 5.09088 11.4465C5.12068 11.4056 5.1965 11.2998 5.25957 11.2118C5.30109 11.1539 5.33708 11.1037 5.35077 11.0848C5.70855 10.5908 5.94604 10.3544 6.10486 10.3204C6.14156 10.3125 6.28048 10.3912 6.65739 10.6896C7.26022 11.1667 7.58819 11.3408 8.08215 11.2586C8.39286 11.2069 8.65993 11.069 9.0175 10.8194C9.07317 10.7805 9.11973 10.7472 9.21734 10.6768C9.64505 10.3685 9.83443 10.2681 10.0081 10.2653C10.1616 10.2628 10.3455 10.361 10.7763 10.6744L10.8594 10.7347C11.3049 11.0568 11.5748 11.2065 11.9249 11.2597C12.416 11.3344 12.7331 11.1538 13.3421 10.649C13.7196 10.3361 13.8665 10.2484 13.8998 10.2552C14.041 10.2841 14.2788 10.5301 14.6432 11.0476C14.6485 11.055 14.6662 11.0804 14.6902 11.1148C14.7544 11.2066 14.8637 11.363 14.9034 11.4187C15.0064 11.5633 15.0903 11.6744 15.1723 11.772C15.4371 12.0872 15.6752 12.2641 15.9982 12.2653ZM10.1136 4.26538C13.7372 4.26538 16.5001 7.09531 16.5001 10.7654C16.5001 11.1328 16.3695 11.2667 16.002 11.2653C16.0328 11.2654 15.9656 11.1728 15.7999 10.9448C15.7136 10.8259 15.6006 10.6703 15.4608 10.4718C14.9354 9.72575 14.5989 9.37758 14.1003 9.27554C13.6207 9.17736 13.3697 9.32723 12.7039 9.87915C12.3325 10.187 12.1617 10.2842 12.0752 10.2711C11.9357 10.2498 11.7634 10.1543 11.4453 9.92431L11.3645 9.86567C10.7453 9.41534 10.4509 9.25803 9.99198 9.26545C9.53482 9.27283 9.23301 9.43277 8.63259 9.86557C8.53642 9.93494 8.49504 9.96456 8.44516 9.99937C8.20097 10.1698 8.0431 10.2513 7.91797 10.2722C7.81814 10.2888 7.64863 10.1988 7.278 9.90544C6.61491 9.38063 6.36876 9.24107 5.89527 9.34256C5.39709 9.44935 5.05101 9.7939 4.54088 10.4982C4.42013 10.665 4.32023 10.7997 4.24073 10.907C4.04883 11.1658 3.97573 11.2644 4.01477 11.2656C3.63946 11.2546 3.50006 11.1208 3.50006 10.7654C3.50006 7.14471 6.4408 4.26538 10.1136 4.26538Z" fill="currentColor"/></g><path fill-rule="evenodd" clip-rule="evenodd" d="M13 24.5C19.3513 24.5 24.5 19.3513 24.5 13C24.5 6.64873 19.3513 1.5 13 1.5C6.64873 1.5 1.5 6.64873 1.5 13C1.5 19.3513 6.64873 24.5 13 24.5ZM13 25.5C19.9036 25.5 25.5 19.9036 25.5 13C25.5 6.09644 19.9036 0.5 13 0.5C6.09644 0.5 0.5 6.09644 0.5 13C0.5 19.9036 6.09644 25.5 13 25.5Z" fill="currentColor"/></svg>