<svg xmlns="http://www.w3.org/2000/svg" width="20" height="20" viewBox="0 0 20 20"><g fill="none" fill-rule="evenodd" stroke-linecap="round" stroke-linejoin="round"><g stroke="currentColor" transform="rotate(-90 12.125 7.125)"><path stroke-width="2" d="M8.235 7h-6.5C.829 7.108.376 7.57.376 8.386c0 .817.68 1.225 2.039 1.225M17.235 7H15.71"/><path fill="currentColor" d="M8.235 14c3.916 0 7-2.958 7-6.886 0-3.93-3.084-7.114-7-7.114-.654 0-.982.384-1 1-.016.522 1.758 1.182 1.934 2 .13.613-1.053 1.288-.934 2 .111.672.988 1.289 1 2 .01.689-.898 1.325-1 2-.106.695 1.125 1.386 1 2-.162.789-1.998 1.472-2 2-.003.66.371 1 1 1z"/></g><path stroke="#000" d="M10 10.5v6.617c.113.922.6 1.383 1.46 1.383s1.29-.692 1.29-2.075M10 1.765V3.29"/><path stroke="#000" d="M17 10.765c0-3.916-2.958-7-6.886-7-3.93 0-7.114 3.084-7.114 7 0 .654.384.982 1 1 .522.016 1.182-1.758 2-1.934.613-.13 1.288 1.053 2 .934.672-.111 1.289-.988 2-1 .689-.01 1.325.898 2 1 .695.106 1.386-1.125 2-1 .789.162 1.472 1.998 2 2 .66.003 1-.371 1-1z"/></g></svg>