<svg width="20" height="20" viewBox="0 0 26 26" fill="none" xmlns="http://www.w3.org/2000/svg"><path opacity="0.2" fill-rule="evenodd" clip-rule="evenodd" d="M13.5 26C20.4036 26 26 20.4036 26 13.5C26 6.59644 20.4036 1 13.5 1C6.59644 1 1 6.59644 1 13.5C1 20.4036 6.59644 26 13.5 26ZM13.5 24C19.299 24 24 19.299 24 13.5C24 7.70101 19.299 3 13.5 3C7.70101 3 3 7.70101 3 13.5C3 19.299 7.70101 24 13.5 24Z" fill="currentColor"/><g transform="translate(3, 3)"><g opacity="0.2"><path d="M16.1 11.25C16.1 13.7353 14.0853 15.75 11.6 15.75C9.11472 15.75 7.10001 13.7353 7.10001 11.25C7.10001 8.76472 9.11472 6.75 11.6 6.75C14.0853 6.75 16.1 8.76472 16.1 11.25Z" fill="currentColor"/><path fill-rule="evenodd" clip-rule="evenodd" d="M11.6 9C12.0142 9 12.35 9.33579 12.35 9.75V11.25C12.35 11.6642 12.0142 12 11.6 12C11.1858 12 10.85 11.6642 10.85 11.25V9.75C10.85 9.33579 11.1858 9 11.6 9Z" fill="currentColor"/><path fill-rule="evenodd" clip-rule="evenodd" d="M13.85 11.25C13.85 11.6642 13.5142 12 13.1 12H11.6C11.1858 12 10.85 11.6642 10.85 11.25C10.85 10.8358 11.1858 10.5 11.6 10.5H13.1C13.5142 10.5 13.85 10.8358 13.85 11.25Z" fill="currentColor"/><path fill-rule="evenodd" clip-rule="evenodd" d="M9.60001 3.75C9.60001 3.47386 9.82386 3.25 10.1 3.25H13.1C13.3761 3.25 13.6 3.47386 13.6 3.75C13.6 4.02614 13.3761 4.25 13.1 4.25H10.1C9.82386 4.25 9.60001 4.02614 9.60001 3.75Z" fill="currentColor"/><path fill-rule="evenodd" clip-rule="evenodd" d="M10.2437 3.2711C10.5082 3.35045 10.6583 3.62919 10.5789 3.89368L9.07891 8.89368C8.99956 9.15818 8.72082 9.30827 8.45633 9.22892C8.19183 9.14957 8.04174 8.87083 8.12109 8.60634L9.62109 3.60634C9.70044 3.34184 9.97918 3.19175 10.2437 3.2711Z" fill="currentColor"/><path fill-rule="evenodd" clip-rule="evenodd" d="M10.2437 19.2289C10.5082 19.1496 10.6583 18.8708 10.5789 18.6063L9.07891 13.6063C8.99956 13.3418 8.72082 13.1917 8.45633 13.2711C8.19183 13.3504 8.04174 13.6292 8.12109 13.8937L9.62109 18.8937C9.70044 19.1582 9.97918 19.3083 10.2437 19.2289Z" fill="currentColor"/><path fill-rule="evenodd" clip-rule="evenodd" d="M12.9563 19.2289C12.6918 19.1496 12.5417 18.8708 12.6211 18.6063L14.1211 13.6063C14.2004 13.3418 14.4792 13.1917 14.7437 13.2711C15.0082 13.3504 15.1583 13.6292 15.0789 13.8937L13.5789 18.8937C13.4996 19.1582 13.2208 19.3083 12.9563 19.2289Z" fill="currentColor"/><path fill-rule="evenodd" clip-rule="evenodd" d="M12.9563 3.2711C12.6918 3.35045 12.5417 3.62919 12.6211 3.89368L14.1211 8.89368C14.2004 9.15818 14.4792 9.30827 14.7437 9.22892C15.0082 9.14957 15.1583 8.87083 15.0789 8.60634L13.5789 3.60634C13.4996 3.34184 13.2208 3.19175 12.9563 3.2711Z" fill="currentColor"/><path fill-rule="evenodd" clip-rule="evenodd" d="M9.60001 18.75C9.60001 18.4739 9.82386 18.25 10.1 18.25H13.1C13.3761 18.25 13.6 18.4739 13.6 18.75C13.6 19.0261 13.3761 19.25 13.1 19.25H10.1C9.82386 19.25 9.60001 19.0261 9.60001 18.75Z" fill="currentColor"/><path d="M10.1 4.25H13.1L14.1 7.25H9.10001L10.1 4.25Z" fill="currentColor"/><path d="M13.1 18.25H10.1L9.10001 15.25H14.1L13.1 18.25Z" fill="currentColor"/></g><path fill-rule="evenodd" clip-rule="evenodd" d="M10 6C7.79086 6 6 7.79086 6 10C6 12.2091 7.79086 14 10 14C12.2091 14 14 12.2091 14 10C14 7.79086 12.2091 6 10 6ZM5 10C5 7.23858 7.23858 5 10 5C12.7614 5 15 7.23858 15 10C15 12.7614 12.7614 15 10 15C7.23858 15 5 12.7614 5 10Z" fill="currentColor"/><path fill-rule="evenodd" clip-rule="evenodd" d="M10 8C10.2761 8 10.5 8.22386 10.5 8.5V10C10.5 10.2761 10.2761 10.5 10 10.5C9.72386 10.5 9.5 10.2761 9.5 10V8.5C9.5 8.22386 9.72386 8 10 8Z" fill="currentColor"/><path fill-rule="evenodd" clip-rule="evenodd" d="M12 10C12 10.2761 11.7761 10.5 11.5 10.5H10C9.72386 10.5 9.5 10.2761 9.5 10C9.5 9.72386 9.72386 9.5 10 9.5H11.5C11.7761 9.5 12 9.72386 12 10Z" fill="currentColor"/><path fill-rule="evenodd" clip-rule="evenodd" d="M8 2.5C8 2.22386 8.22386 2 8.5 2H11.5C11.7761 2 12 2.22386 12 2.5C12 2.77614 11.7761 3 11.5 3H8.5C8.22386 3 8 2.77614 8 2.5Z" fill="currentColor"/><path fill-rule="evenodd" clip-rule="evenodd" d="M8.63737 2.01924C8.90288 2.09511 9.05663 2.37185 8.98077 2.63737L7.98077 6.13737C7.90491 6.40288 7.62816 6.55663 7.36265 6.48077C7.09713 6.40491 6.94338 6.12816 7.01924 5.86265L8.01924 2.36265C8.09511 2.09713 8.37185 1.94338 8.63737 2.01924Z" fill="currentColor"/><path fill-rule="evenodd" clip-rule="evenodd" d="M8.63737 17.9808C8.90288 17.9049 9.05663 17.6282 8.98077 17.3626L7.98077 13.8626C7.90491 13.5971 7.62816 13.4434 7.36265 13.5192C7.09713 13.5951 6.94338 13.8718 7.01924 14.1374L8.01924 17.6374C8.09511 17.9029 8.37185 18.0566 8.63737 17.9808Z" fill="currentColor"/><path fill-rule="evenodd" clip-rule="evenodd" d="M11.3626 17.9808C11.0971 17.9049 10.9434 17.6282 11.0192 17.3626L12.0192 13.8626C12.0951 13.5971 12.3718 13.4434 12.6374 13.5192C12.9029 13.5951 13.0566 13.8718 12.9808 14.1374L11.9808 17.6374C11.9049 17.9029 11.6282 18.0566 11.3626 17.9808Z" fill="currentColor"/><path fill-rule="evenodd" clip-rule="evenodd" d="M11.3626 2.01924C11.0971 2.09511 10.9434 2.37185 11.0192 2.63737L12.0192 6.13737C12.0951 6.40288 12.3718 6.55663 12.6374 6.48077C12.9029 6.40491 13.0566 6.12816 12.9808 5.86265L11.9808 2.36265C11.9049 2.09713 11.6282 1.94338 11.3626 2.01924Z" fill="currentColor"/><path fill-rule="evenodd" clip-rule="evenodd" d="M8 17.5C8 17.2239 8.22386 17 8.5 17H11.5C11.7761 17 12 17.2239 12 17.5C12 17.7761 11.7761 18 11.5 18H8.5C8.22386 18 8 17.7761 8 17.5Z" fill="currentColor"/></g><path fill-rule="evenodd" clip-rule="evenodd" d="M13 24.5C19.3513 24.5 24.5 19.3513 24.5 13C24.5 6.64873 19.3513 1.5 13 1.5C6.64873 1.5 1.5 6.64873 1.5 13C1.5 19.3513 6.64873 24.5 13 24.5ZM13 25.5C19.9036 25.5 25.5 19.9036 25.5 13C25.5 6.09644 19.9036 0.5 13 0.5C6.09644 0.5 0.5 6.09644 0.5 13C0.5 19.9036 6.09644 25.5 13 25.5Z" fill="currentColor"/></svg>