<svg width="20" height="20" viewBox="0 0 26 26" fill="none" xmlns="http://www.w3.org/2000/svg"><path opacity="0.2" d="M26 14C26 20.6274 20.6274 26 14 26C7.37258 26 2 20.6274 2 14C2 7.37258 7.37258 2 14 2C20.6274 2 26 7.37258 26 14Z" fill="currentColor"/><g transform="translate(3, 3)"><path fill-rule="evenodd" clip-rule="evenodd" d="M10 6C7.79086 6 6 7.79086 6 10C6 12.2091 7.79086 14 10 14C12.2091 14 14 12.2091 14 10C14 7.79086 12.2091 6 10 6ZM5 10C5 7.23858 7.23858 5 10 5C12.7614 5 15 7.23858 15 10C15 12.7614 12.7614 15 10 15C7.23858 15 5 12.7614 5 10Z" fill="currentColor"/><path fill-rule="evenodd" clip-rule="evenodd" d="M10 8C10.2761 8 10.5 8.22386 10.5 8.5V10C10.5 10.2761 10.2761 10.5 10 10.5C9.72386 10.5 9.5 10.2761 9.5 10V8.5C9.5 8.22386 9.72386 8 10 8Z" fill="currentColor"/><path fill-rule="evenodd" clip-rule="evenodd" d="M12 10C12 10.2761 11.7761 10.5 11.5 10.5H10C9.72386 10.5 9.5 10.2761 9.5 10C9.5 9.72386 9.72386 9.5 10 9.5H11.5C11.7761 9.5 12 9.72386 12 10Z" fill="currentColor"/><path fill-rule="evenodd" clip-rule="evenodd" d="M8 2.5C8 2.22386 8.22386 2 8.5 2H11.5C11.7761 2 12 2.22386 12 2.5C12 2.77614 11.7761 3 11.5 3H8.5C8.22386 3 8 2.77614 8 2.5Z" fill="currentColor"/><path fill-rule="evenodd" clip-rule="evenodd" d="M8.63737 2.01924C8.90288 2.09511 9.05663 2.37185 8.98077 2.63737L7.98077 6.13737C7.90491 6.40288 7.62816 6.55663 7.36265 6.48077C7.09713 6.40491 6.94338 6.12816 7.01924 5.86265L8.01924 2.36265C8.09511 2.09713 8.37185 1.94338 8.63737 2.01924Z" fill="currentColor"/><path fill-rule="evenodd" clip-rule="evenodd" d="M8.63737 17.9808C8.90288 17.9049 9.05663 17.6282 8.98077 17.3626L7.98077 13.8626C7.90491 13.5971 7.62816 13.4434 7.36265 13.5192C7.09713 13.5951 6.94338 13.8718 7.01924 14.1374L8.01924 17.6374C8.09511 17.9029 8.37185 18.0566 8.63737 17.9808Z" fill="currentColor"/><path fill-rule="evenodd" clip-rule="evenodd" d="M11.3626 17.9808C11.0971 17.9049 10.9434 17.6282 11.0192 17.3626L12.0192 13.8626C12.0951 13.5971 12.3718 13.4434 12.6374 13.5192C12.9029 13.5951 13.0566 13.8718 12.9808 14.1374L11.9808 17.6374C11.9049 17.9029 11.6282 18.0566 11.3626 17.9808Z" fill="currentColor"/><path fill-rule="evenodd" clip-rule="evenodd" d="M11.3626 2.01924C11.0971 2.09511 10.9434 2.37185 11.0192 2.63737L12.0192 6.13737C12.0951 6.40288 12.3718 6.55663 12.6374 6.48077C12.9029 6.40491 13.0566 6.12816 12.9808 5.86265L11.9808 2.36265C11.9049 2.09713 11.6282 1.94338 11.3626 2.01924Z" fill="currentColor"/><path fill-rule="evenodd" clip-rule="evenodd" d="M8 17.5C8 17.2239 8.22386 17 8.5 17H11.5C11.7761 17 12 17.2239 12 17.5C12 17.7761 11.7761 18 11.5 18H8.5C8.22386 18 8 17.7761 8 17.5Z" fill="currentColor"/></g><path fill-rule="evenodd" clip-rule="evenodd" d="M13 24.5C19.3513 24.5 24.5 19.3513 24.5 13C24.5 6.64873 19.3513 1.5 13 1.5C6.64873 1.5 1.5 6.64873 1.5 13C1.5 19.3513 6.64873 24.5 13 24.5ZM13 25.5C19.9036 25.5 25.5 19.9036 25.5 13C25.5 6.09644 19.9036 0.5 13 0.5C6.09644 0.5 0.5 6.09644 0.5 13C0.5 19.9036 6.09644 25.5 13 25.5Z" fill="currentColor"/></svg>