<svg width="20" height="20" viewBox="0 0 20 20" fill="none" xmlns="http://www.w3.org/2000/svg"><g><g opacity="0.2"><path d="M18.4478 14.9829C16.6406 18.4836 12.3377 19.8564 8.83702 18.0491C5.33635 16.2419 3.96354 11.939 5.77076 8.43833C6.87748 6.29458 10.0822 3.17505 15.185 2.61125C16.3189 3.1782 14.0246 4.67157 15.3816 5.37208C18.8822 7.1793 20.255 11.4822 18.4478 14.9829Z" fill="currentColor"/><path fill-rule="evenodd" clip-rule="evenodd" d="M15.3816 5.37208C15.0125 5.18156 14.9136 4.9324 14.9422 4.65918C14.9687 4.40676 15.1042 4.13381 15.2363 3.86759C15.2605 3.81891 15.2845 3.77045 15.3078 3.72238C15.5257 3.27171 15.6735 2.85551 15.185 2.61125C14.8459 2.64872 14.5151 2.69748 14.1928 2.75649C13.9657 2.79808 13.7427 2.84476 13.524 2.89616C13.5094 2.89958 13.4949 2.90303 13.4804 2.90649C9.36449 3.88814 6.74864 6.54414 5.77076 8.43833C3.96354 11.939 5.33635 16.2419 8.83702 18.0491C12.3377 19.8564 16.6406 18.4836 18.4478 14.9829C20.255 11.4822 18.8822 7.1793 15.3816 5.37208ZM12.9655 5.13229C10.021 6.11995 8.20294 8.08697 7.54792 9.35579C6.24739 11.875 7.2353 14.9715 9.75448 16.272C12.2737 17.5725 15.3701 16.5846 16.6707 14.0654C17.9712 11.5462 16.9833 8.44976 14.4641 7.14923C14.0671 6.9443 13.6483 6.62966 13.3426 6.14921C13.1287 5.81301 13.0138 5.46405 12.9655 5.13229Z" fill="currentColor"/></g><path fill-rule="evenodd" clip-rule="evenodd" d="M7.05835 10.856C7.10205 10.5563 6.90598 10.2583 6.61918 10.1894C6.33141 10.1203 6.06127 10.308 6.01581 10.6087L6.53686 10.7338C6.01581 10.6087 6.01583 10.6085 6.01581 10.6087L6.01561 10.61L6.01537 10.6116L6.0148 10.6155L6.01333 10.6263C6.01221 10.6348 6.01083 10.6457 6.00933 10.659C6.00634 10.6856 6.00281 10.7216 5.99979 10.7658C5.99378 10.8537 5.98962 10.9758 5.99613 11.12C6.00889 11.4026 6.06397 11.801 6.25179 12.1977C6.43896 12.593 6.70857 12.8862 6.91708 13.0743C7.0233 13.1701 7.11921 13.2436 7.19026 13.2942C7.22593 13.3197 7.25577 13.3396 7.27803 13.354C7.28917 13.3613 7.29845 13.3671 7.30567 13.3716L7.31492 13.3772L7.31834 13.3793L7.31974 13.3801L7.32065 13.3807C7.32079 13.3808 7.32093 13.3809 7.55417 12.8981L7.32065 13.3807C7.58197 13.5359 7.8985 13.4458 8.02731 13.1792C8.15608 12.9127 8.04878 12.5708 7.78767 12.4155L7.78839 12.4159L7.79011 12.4169C7.79011 12.4169 7.79039 12.4171 7.79011 12.4169L7.7817 12.4116C7.77263 12.4057 7.75709 12.3954 7.73654 12.3807C7.69516 12.3512 7.6353 12.3055 7.56817 12.245C7.42998 12.1203 7.28259 11.9523 7.18851 11.7536C7.09509 11.5563 7.05852 11.3338 7.04994 11.144C7.04579 11.052 7.04854 10.975 7.0521 10.9229C7.05387 10.897 7.0558 10.8779 7.05706 10.8667L7.05835 10.856Z" fill="currentColor"/><path fill-rule="evenodd" clip-rule="evenodd" d="M13.3265 1.64128C13.8671 1.91159 13.6285 2.39247 13.3778 2.89762C13.1027 3.45199 12.8131 4.03558 13.5231 4.40211C17.0237 6.20933 18.3966 10.5122 16.5893 14.0129C14.7821 17.5136 10.4792 18.8864 6.97853 17.0792C3.47786 15.2719 2.10505 10.969 3.91227 7.46836C4.98263 5.39503 8.01543 2.40898 12.8298 1.70499C12.9933 1.68108 13.1589 1.6598 13.3265 1.64128ZM12.3117 2.80903C8.22443 3.62589 5.68571 6.21309 4.80085 7.92709C3.24697 10.937 4.42733 14.6367 7.43726 16.1906C10.4472 17.7445 14.1469 16.5641 15.7008 13.5542C17.2546 10.5443 16.0743 6.84456 13.0643 5.29068C12.7811 5.14443 12.5154 4.93714 12.3279 4.64243C12.1351 4.33954 12.072 4.01822 12.0797 3.72844C12.0889 3.38312 12.2039 3.05502 12.3117 2.80903Z" fill="currentColor"/></g></svg>