<svg width="20" height="20" viewBox="0 0 26 26" fill="none" xmlns="http://www.w3.org/2000/svg"><path opacity="0.2" fill-rule="evenodd" clip-rule="evenodd" d="M13.5 26C20.4036 26 26 20.4036 26 13.5C26 6.59644 20.4036 1 13.5 1C6.59644 1 1 6.59644 1 13.5C1 20.4036 6.59644 26 13.5 26ZM13.5 24C19.299 24 24 19.299 24 13.5C24 7.70101 19.299 3 13.5 3C7.70101 3 3 7.70101 3 13.5C3 19.299 7.70101 24 13.5 24Z" fill="currentColor"/><g transform="translate(3, 3)"><g opacity="0.2"><path d="M14.6961 12.2821C15.0926 12.6665 15.1024 13.2996 14.7179 13.6961C14.3335 14.0926 13.7004 14.1024 13.3039 13.7179C13.273 13.688 13.2391 13.6581 13.2022 13.6285C13.0406 13.4986 12.8292 13.3788 12.5791 13.2796C12.1265 13.1001 11.5793 13 11 13C10.086 13 9.26716 13.2511 8.79777 13.6285C8.76089 13.6581 8.72699 13.688 8.69613 13.7179C8.29964 14.1024 7.66655 14.0926 7.28209 13.6961C6.89762 13.2996 6.90738 12.6665 7.30387 12.2821C7.37977 12.2085 7.46015 12.1377 7.54472 12.0697C8.39422 11.3868 9.65538 11 11 11C11.8267 11 12.6239 11.1459 13.3163 11.4204C13.7456 11.5907 14.131 11.809 14.4553 12.0697C14.5399 12.1377 14.6202 12.2085 14.6961 12.2821Z" fill="currentColor"/><path d="M17.2128 9.68869C17.6002 10.0824 17.595 10.7155 17.2013 11.1029C16.8076 11.4902 16.1745 11.485 15.7872 11.0913C15.6908 10.9934 15.5866 10.898 15.4751 10.8056C15.362 10.712 15.2416 10.6216 15.1142 10.5349C14.9855 10.4473 14.8498 10.3636 14.7078 10.2842C14.5647 10.2042 14.4152 10.1287 14.2601 10.058C14.104 9.9869 13.9424 9.92084 13.7758 9.86013C13.6085 9.79914 13.4364 9.74364 13.2601 9.6939C13.0833 9.64404 12.9026 9.60002 12.7185 9.56207C12.5345 9.52413 12.3472 9.49229 12.1573 9.46673C11.968 9.44124 11.7762 9.42202 11.5824 9.40919C11.3899 9.39644 11.1956 9.39001 11 9.39001C10.8044 9.39001 10.6101 9.39644 10.4176 9.40919C10.2238 9.42202 10.032 9.44124 9.84266 9.46673C9.65277 9.49229 9.46552 9.52413 9.28146 9.56207C9.09736 9.60002 8.91666 9.64404 8.73993 9.6939C8.56364 9.74364 8.39152 9.79914 8.22416 9.86013C8.0576 9.92084 7.89597 9.9869 7.73987 10.058C7.58477 10.1287 7.43534 10.2042 7.29217 10.2842C7.15018 10.3636 7.01455 10.4473 6.88581 10.5349C6.75842 10.6216 6.63797 10.712 6.52494 10.8056C6.41338 10.898 6.30922 10.9934 6.21284 11.0913C5.82551 11.485 5.19237 11.4902 4.79868 11.1029C4.40498 10.7155 4.39983 10.0824 4.78716 9.68869C4.93166 9.54182 5.0859 9.40053 5.24924 9.26525C5.41113 9.13118 5.58183 9.0031 5.76069 8.8814C5.93819 8.76061 6.12361 8.6462 6.31623 8.53851C6.50766 8.4315 6.70608 8.3312 6.91079 8.23795C7.11446 8.14517 7.32421 8.05944 7.53934 7.98104C7.75355 7.90297 7.97295 7.83222 8.19683 7.76905C8.41971 7.70617 8.64688 7.65083 8.87767 7.60326C9.10719 7.55594 9.34013 7.51634 9.57585 7.48461C9.80999 7.45309 10.0467 7.42936 10.2855 7.41356C10.522 7.39789 10.7604 7.39001 11 7.39001C11.2396 7.39001 11.478 7.39789 11.7145 7.41356C11.9533 7.42936 12.19 7.45309 12.4241 7.48461C12.6599 7.51634 12.8928 7.55594 13.1223 7.60326C13.3531 7.65083 13.5803 7.70617 13.8032 7.76905C14.0271 7.83222 14.2464 7.90297 14.4607 7.98104C14.6758 8.05944 14.8855 8.14517 15.0892 8.23795C15.2939 8.3312 15.4923 8.4315 15.6838 8.53851C15.8764 8.6462 16.0618 8.76061 16.2393 8.8814C16.4182 9.0031 16.5889 9.13118 16.7508 9.26525C16.9141 9.40053 17.0683 9.54182 17.2128 9.68869Z" fill="currentColor"/><path d="M19.2454 7.22201C19.6136 7.63366 19.5783 8.26584 19.1667 8.63403C18.755 9.00221 18.1228 8.96697 17.7546 8.55532C17.6133 8.3973 17.4611 8.24398 17.2987 8.09599C17.1352 7.94702 16.9614 7.80363 16.7782 7.66645C16.5939 7.5285 16.4001 7.397 16.1977 7.27253C15.9944 7.14748 15.7825 7.02968 15.5629 6.91965C15.3426 6.80922 15.1147 6.70676 14.8801 6.61271C14.6448 6.51841 14.4031 6.43268 14.1558 6.35591C13.9082 6.27907 13.6552 6.21129 13.3976 6.15288C13.1404 6.09455 12.8788 6.04562 12.6136 6.00636C12.3494 5.96723 12.0818 5.93773 11.8116 5.91805C11.5433 5.89851 11.2725 5.88866 11 5.88866C10.7275 5.88866 10.4568 5.89851 10.1884 5.91805C9.91819 5.93773 9.65062 5.96723 9.38638 6.00636C9.12121 6.04562 8.85962 6.09455 8.60238 6.15288C8.34479 6.21129 8.0918 6.27907 7.84422 6.35591C7.59687 6.43268 7.35518 6.51841 7.11995 6.61271C6.88536 6.70676 6.65746 6.80922 6.43708 6.91965C6.2175 7.02968 6.00564 7.14748 5.80229 7.27253C5.59988 7.397 5.40615 7.5285 5.22185 7.66645C5.03857 7.80363 4.86484 7.94702 4.70132 8.09599C4.53888 8.24398 4.38671 8.3973 4.24538 8.55532C3.87719 8.96697 3.24501 9.00221 2.83335 8.63403C2.4217 8.26584 2.38646 7.63366 2.75464 7.22201C2.94178 7.01278 3.14198 6.81106 3.35441 6.61753C3.56577 6.42498 3.78906 6.24069 4.02339 6.06529C4.2567 5.89067 4.50075 5.725 4.75463 5.56888C5.00757 5.41334 5.27004 5.26739 5.54111 5.13157C5.81132 4.99617 6.08986 4.87094 6.37575 4.75633C6.66085 4.64203 6.95304 4.53839 7.25138 4.4458C7.54872 4.35351 7.85193 4.27227 8.1601 4.20239C8.46682 4.13284 8.77822 4.0746 9.09344 4.02793C9.40671 3.98154 9.72353 3.94661 10.0431 3.92334C10.3598 3.90027 10.679 3.88866 11 3.88866C11.321 3.88866 11.6402 3.90027 11.9569 3.92334C12.2765 3.94661 12.5933 3.98154 12.9066 4.02793C13.2218 4.0746 13.5332 4.13284 13.8399 4.20239C14.1481 4.27227 14.4513 4.35351 14.7486 4.4458C15.047 4.53839 15.3392 4.64203 15.6243 4.75633C15.9102 4.87094 16.1887 4.99617 16.4589 5.13157C16.73 5.26739 16.9925 5.41334 17.2454 5.56888C17.4993 5.725 17.7433 5.89067 17.9766 6.06529C18.211 6.24069 18.4342 6.42498 18.6456 6.61753C18.858 6.81106 19.0582 7.01278 19.2454 7.22201Z" fill="currentColor"/><path d="M13 16.25C13 17.3546 12.1046 18.25 11 18.25C9.89543 18.25 9 17.3546 9 16.25C9 15.1454 9.89543 14.25 11 14.25C12.1046 14.25 13 15.1454 13 16.25Z" fill="currentColor"/></g><path d="M13.3481 11.641C13.5463 11.8333 13.5512 12.1498 13.359 12.3481C13.1667 12.5463 12.8502 12.5512 12.6519 12.359C12.6098 12.3181 12.5643 12.278 12.5155 12.2388C12.3132 12.0762 12.0583 11.9317 11.7634 11.8148C11.2508 11.6116 10.6411 11.5 10 11.5C8.97837 11.5 8.04893 11.7851 7.4845 12.2388C7.43571 12.278 7.39018 12.3181 7.34807 12.359C7.14982 12.5512 6.83327 12.5463 6.64104 12.3481C6.44881 12.1498 6.45369 11.8333 6.65194 11.641C6.71658 11.5784 6.78533 11.5178 6.85798 11.4594C7.61245 10.8529 8.76304 10.5 10 10.5C10.7648 10.5 11.4996 10.6344 12.132 10.8852C12.5165 11.0377 12.8584 11.2314 13.142 11.4594C13.2147 11.5178 13.2834 11.5784 13.3481 11.641Z" fill="currentColor"/><path d="M15.8564 9.03935C16.0501 9.2362 16.0475 9.55277 15.8507 9.74644C15.6538 9.9401 15.3372 9.93752 15.1436 9.74068C15.0352 9.63049 14.9185 9.52361 14.794 9.42049C14.6687 9.31677 14.5357 9.21697 14.3955 9.12153C14.2545 9.02564 14.1065 8.93426 13.9518 8.84781C13.7966 8.76102 13.6349 8.6793 13.4674 8.60299C13.2994 8.52647 13.1257 8.45549 12.947 8.39036C12.768 8.3251 12.584 8.26579 12.3958 8.21269C12.2076 8.15957 12.0153 8.11272 11.8195 8.07237C11.6241 8.03208 11.4254 7.9983 11.224 7.9712C11.0235 7.9442 10.8204 7.92385 10.6154 7.91028C10.4119 7.8968 10.2066 7.89001 10 7.89001C9.79341 7.89001 9.58811 7.8968 9.38457 7.91028C9.17957 7.92385 8.97652 7.9442 8.77596 7.9712C8.57461 7.9983 8.37593 8.03208 8.18051 8.07237C7.98474 8.11272 7.79242 8.15957 7.60416 8.21269C7.41597 8.26579 7.23203 8.3251 7.05296 8.39036C6.87425 8.45549 6.70059 8.52647 6.5326 8.60299C6.3651 8.6793 6.20342 8.76102 6.04818 8.84781C5.89354 8.93426 5.74546 9.02564 5.60453 9.12153C5.46427 9.21697 5.33126 9.31677 5.20602 9.42049C5.08151 9.52361 4.96483 9.63049 4.85642 9.74068C4.66276 9.93752 4.34618 9.9401 4.14934 9.74644C3.95249 9.55277 3.94991 9.2362 4.14358 9.03935C4.27605 8.90471 4.41777 8.77489 4.56817 8.65033C4.71784 8.52638 4.87598 8.40772 5.04197 8.29478C5.20728 8.18229 5.38025 8.07555 5.56021 7.97494C5.73958 7.87467 5.92575 7.78056 6.11806 7.69296C6.30984 7.60561 6.50756 7.52479 6.71054 7.45081C6.91304 7.37701 7.12062 7.31008 7.3326 7.25026C7.54395 7.19063 7.7595 7.13813 7.97862 7.09296C8.19677 7.04799 8.41829 7.01033 8.64256 6.98014C8.8655 6.95013 9.09101 6.92753 9.3185 6.91246C9.54404 6.89753 9.77138 6.89001 10 6.89001C10.2286 6.89001 10.456 6.89753 10.6815 6.91246C10.909 6.92753 11.1345 6.95013 11.3574 6.98014C11.5817 7.01033 11.8032 7.04799 12.0214 7.09296C12.2405 7.13813 12.4561 7.19063 12.6674 7.25026C12.8794 7.31008 13.087 7.37701 13.2895 7.45081C13.4924 7.52479 13.6902 7.60561 13.8819 7.69296C14.0742 7.78056 14.2604 7.87467 14.4398 7.97494C14.6198 8.07555 14.7927 8.18229 14.958 8.29478C15.124 8.40772 15.2822 8.52638 15.4318 8.65033C15.5822 8.77489 15.724 8.90471 15.8564 9.03935Z" fill="currentColor"/><path d="M17.8727 6.55534C18.0568 6.76117 18.0392 7.07726 17.8333 7.26135C17.6275 7.44544 17.3114 7.42782 17.1273 7.22199C16.9745 7.05117 16.8104 6.88575 16.6354 6.72638C16.4599 6.56651 16.2738 6.4129 16.0778 6.26617C15.8812 6.11905 15.6749 5.979 15.4596 5.84662C15.2439 5.71395 15.0194 5.58911 14.7869 5.47264C14.5541 5.35597 14.3135 5.24781 14.0661 5.14862C13.8184 5.04932 13.5641 4.95911 13.304 4.87839C13.044 4.79769 12.7784 4.72654 12.5082 4.66526C12.2386 4.60413 11.9646 4.55287 11.6869 4.51176C11.4104 4.47082 11.1305 4.43996 10.848 4.41938C10.5675 4.39895 10.2846 4.38867 10 4.38867C9.71539 4.38867 9.43252 4.39895 9.15205 4.41938C8.86952 4.43996 8.58964 4.47082 8.31314 4.51176C8.03545 4.55287 7.76142 4.60413 7.4918 4.66526C7.22157 4.72654 6.95603 4.79769 6.69601 4.87839C6.43591 4.95911 6.18159 5.04932 5.9339 5.14862C5.68648 5.24781 5.44592 5.35597 5.21308 5.47264C4.98063 5.58911 4.75611 5.71395 4.54037 5.84662C4.32509 5.979 4.11878 6.11905 3.92223 6.26617C3.72619 6.4129 3.54007 6.56651 3.36459 6.72638C3.18965 6.88575 3.02547 7.05117 2.87269 7.22199C2.6886 7.42782 2.3725 7.44544 2.16668 7.26135C1.96085 7.07726 1.94323 6.76117 2.12732 6.55534C2.30301 6.35891 2.4912 6.1693 2.69113 5.98715C2.89053 5.80549 3.10143 5.63143 3.323 5.46559C3.54406 5.30013 3.77553 5.14301 4.01654 4.9948C4.25708 4.84688 4.5069 4.70797 4.7651 4.57859C5.02285 4.44944 5.28873 4.3299 5.56179 4.22043C5.83442 4.11113 6.11399 4.01197 6.39958 3.92333C6.68448 3.83491 6.97514 3.75703 7.27066 3.69002C7.56501 3.62327 7.86396 3.56736 8.16667 3.52254C8.46768 3.47797 8.77219 3.4444 9.07941 3.42202C9.38405 3.39983 9.69115 3.38867 10 3.38867C10.3089 3.38867 10.616 3.39983 10.9206 3.42202C11.2278 3.4444 11.5323 3.47797 11.8333 3.52254C12.1361 3.56736 12.435 3.62327 12.7293 3.69002C13.0249 3.75703 13.3155 3.83491 13.6004 3.92333C13.886 4.01197 14.1656 4.11113 14.4382 4.22043C14.7113 4.3299 14.9772 4.44944 15.2349 4.57859C15.4931 4.70797 15.7429 4.84688 15.9835 4.9948C16.2245 5.14301 16.456 5.30013 16.677 5.46559C16.8986 5.63143 17.1095 5.80549 17.3089 5.98715C17.5088 6.1693 17.697 6.35891 17.8727 6.55534Z" fill="currentColor"/><path d="M11.75 15.25C11.75 16.2165 10.9665 17 10 17C9.0335 17 8.25 16.2165 8.25 15.25C8.25 14.2835 9.0335 13.5 10 13.5C10.9665 13.5 11.75 14.2835 11.75 15.25Z" fill="currentColor"/><path d="M1.15063 1.87794C0.94979 1.6771 0.94979 1.35147 1.15063 1.15063C1.35147 0.949789 1.6771 0.949789 1.87794 1.15063L18.8494 18.1221C19.0502 18.3229 19.0502 18.6485 18.8494 18.8494C18.6485 19.0502 18.3229 19.0502 18.1221 18.8494L1.15063 1.87794Z" fill="currentColor"/></g><path fill-rule="evenodd" clip-rule="evenodd" d="M13 24.5C19.3513 24.5 24.5 19.3513 24.5 13C24.5 6.64873 19.3513 1.5 13 1.5C6.64873 1.5 1.5 6.64873 1.5 13C1.5 19.3513 6.64873 24.5 13 24.5ZM13 25.5C19.9036 25.5 25.5 19.9036 25.5 13C25.5 6.09644 19.9036 0.5 13 0.5C6.09644 0.5 0.5 6.09644 0.5 13C0.5 19.9036 6.09644 25.5 13 25.5Z" fill="currentColor"/></svg>