<svg width="20" height="20" viewBox="0 0 26 26" fill="none" xmlns="http://www.w3.org/2000/svg"><path opacity="0.2" fill-rule="evenodd" clip-rule="evenodd" d="M13.5 26C20.4036 26 26 20.4036 26 13.5C26 6.59644 20.4036 1 13.5 1C6.59644 1 1 6.59644 1 13.5C1 20.4036 6.59644 26 13.5 26ZM13.5 24C19.299 24 24 19.299 24 13.5C24 7.70101 19.299 3 13.5 3C7.70101 3 3 7.70101 3 13.5C3 19.299 7.70101 24 13.5 24Z" fill="currentColor"/><g transform="translate(3, 3)"><g opacity="0.2"><path fill-rule="evenodd" clip-rule="evenodd" d="M11.2071 9.20706C10.8166 9.59758 10.1834 9.59758 9.79289 9.20706L4.79289 4.20703C4.40237 3.81651 4.40237 3.18334 4.7929 2.79282C5.18342 2.40229 5.81659 2.4023 6.20711 2.79282L11.2071 7.79285C11.5976 8.18337 11.5976 8.81654 11.2071 9.20706Z" fill="currentColor"/><path fill-rule="evenodd" clip-rule="evenodd" d="M9.7929 9.20706C10.1834 9.59758 10.8166 9.59758 11.2071 9.20706L16.2071 4.20703C16.5976 3.81651 16.5976 3.18334 16.2071 2.79282C15.8166 2.40229 15.1834 2.4023 14.7929 2.79282L9.79289 7.79285C9.40237 8.18337 9.40237 8.81654 9.7929 9.20706Z" fill="currentColor"/><path fill-rule="evenodd" clip-rule="evenodd" d="M4.5 9.49988C4.5 8.94759 4.94772 8.49988 5.5 8.49988H15.5C16.0523 8.49988 16.5 8.94759 16.5 9.49988C16.5 10.0522 16.0523 10.4999 15.5 10.4999H5.5C4.94772 10.4999 4.5 10.0522 4.5 9.49988Z" fill="currentColor"/><path fill-rule="evenodd" clip-rule="evenodd" d="M4.5 12.9999C4.5 12.4476 4.94772 11.9999 5.5 11.9999H15.5C16.0523 11.9999 16.5 12.4476 16.5 12.9999C16.5 13.5522 16.0523 13.9999 15.5 13.9999H5.5C4.94772 13.9999 4.5 13.5522 4.5 12.9999Z" fill="currentColor"/><path fill-rule="evenodd" clip-rule="evenodd" d="M10.5 9.49988C11.0523 9.49988 11.5 9.94759 11.5 10.4999V17.4999C11.5 18.0522 11.0523 18.4999 10.5 18.4999C9.94772 18.4999 9.5 18.0522 9.5 17.4999V10.4999C9.5 9.94759 9.94772 9.49988 10.5 9.49988Z" fill="currentColor"/></g><path fill-rule="evenodd" clip-rule="evenodd" d="M9.33593 8.87037C9.13139 9.0559 8.81519 9.04049 8.62966 8.83595L3.62966 3.3237C3.44413 3.11917 3.45954 2.80296 3.66408 2.61744C3.86861 2.43191 4.18482 2.44732 4.37034 2.65185L9.37034 8.1641C9.55587 8.36864 9.54046 8.68484 9.33593 8.87037Z" fill="currentColor"/><path fill-rule="evenodd" clip-rule="evenodd" d="M8.66407 8.87037C8.86861 9.0559 9.18482 9.04049 9.37034 8.83595L14.3703 3.32371C14.5559 3.11917 14.5405 2.80296 14.3359 2.61744C14.1314 2.43191 13.8152 2.44732 13.6297 2.65185L8.62966 8.1641C8.44413 8.36864 8.45954 8.68484 8.66407 8.87037Z" fill="currentColor"/><path fill-rule="evenodd" clip-rule="evenodd" d="M3.5 8.98779C3.5 8.71165 3.72386 8.48779 4 8.48779H14C14.2761 8.48779 14.5 8.71165 14.5 8.98779C14.5 9.26394 14.2761 9.48779 14 9.48779H4C3.72386 9.48779 3.5 9.26394 3.5 8.98779Z" fill="currentColor"/><path fill-rule="evenodd" clip-rule="evenodd" d="M3.5 12.4878C3.5 12.2117 3.72386 11.9878 4 11.9878H14C14.2761 11.9878 14.5 12.2117 14.5 12.4878C14.5 12.7639 14.2761 12.9878 14 12.9878H4C3.72386 12.9878 3.5 12.7639 3.5 12.4878Z" fill="currentColor"/><path fill-rule="evenodd" clip-rule="evenodd" d="M9 8C9.27614 8 9.5 8.22386 9.5 8.5V16.9878C9.5 17.2639 9.27614 17.4878 9 17.4878C8.72386 17.4878 8.5 17.2639 8.5 16.9878V8.5C8.5 8.22386 8.72386 8 9 8Z" fill="currentColor"/><path d="M1.15063 1.87794C0.94979 1.6771 0.94979 1.35147 1.15063 1.15063C1.35147 0.949789 1.6771 0.949789 1.87794 1.15063L18.8494 18.1221C19.0502 18.3229 19.0502 18.6485 18.8494 18.8494C18.6485 19.0502 18.3229 19.0502 18.1221 18.8494L1.15063 1.87794Z" fill="currentColor"/></g><path fill-rule="evenodd" clip-rule="evenodd" d="M13 24.5C19.3513 24.5 24.5 19.3513 24.5 13C24.5 6.64873 19.3513 1.5 13 1.5C6.64873 1.5 1.5 6.64873 1.5 13C1.5 19.3513 6.64873 24.5 13 24.5ZM13 25.5C19.9036 25.5 25.5 19.9036 25.5 13C25.5 6.09644 19.9036 0.5 13 0.5C6.09644 0.5 0.5 6.09644 0.5 13C0.5 19.9036 6.09644 25.5 13 25.5Z" fill="currentColor"/></svg>