<svg width="20" height="20" viewBox="0 0 26 26" fill="none" xmlns="http://www.w3.org/2000/svg"><path opacity="0.2" d="M26 14C26 20.6274 20.6274 26 14 26C7.37258 26 2 20.6274 2 14C2 7.37258 7.37258 2 14 2C20.6274 2 26 7.37258 26 14Z" fill="currentColor"/><g transform="translate(3, 3)"><path fill-rule="evenodd" clip-rule="evenodd" d="M3.83241 2.58392C4.06217 2.43074 4.3726 2.49283 4.52578 2.72259L9.52578 10.2226C9.67896 10.4524 9.61687 10.7628 9.38711 10.916C9.15734 11.0691 8.84691 11.0071 8.69373 10.7773L3.69373 3.27729C3.54055 3.04753 3.60264 2.73709 3.83241 2.58392Z" fill="currentColor"/><path fill-rule="evenodd" clip-rule="evenodd" d="M14.3871 2.58392C14.1573 2.43074 13.8469 2.49283 13.6937 2.72259L8.69373 10.2226C8.54055 10.4524 8.60264 10.7628 8.8324 10.916C9.06217 11.0691 9.3726 11.0071 9.52578 10.7773L14.5258 3.27729C14.679 3.04753 14.6169 2.73709 14.3871 2.58392Z" fill="currentColor"/><path fill-rule="evenodd" clip-rule="evenodd" d="M4.10976 11C4.10976 10.7239 4.33361 10.5 4.60976 10.5H13.6098C13.8859 10.5 14.1098 10.7239 14.1098 11C14.1098 11.2761 13.8859 11.5 13.6098 11.5H4.60976C4.33361 11.5 4.10976 11.2761 4.10976 11Z" fill="currentColor"/><path fill-rule="evenodd" clip-rule="evenodd" d="M9.10976 10C9.3859 10 9.60976 10.2239 9.60976 10.5V17C9.60976 17.2761 9.3859 17.5 9.10976 17.5C8.83361 17.5 8.60976 17.2761 8.60976 17V10.5C8.60976 10.2239 8.83361 10 9.10976 10Z" fill="currentColor"/></g><path fill-rule="evenodd" clip-rule="evenodd" d="M13 24.5C19.3513 24.5 24.5 19.3513 24.5 13C24.5 6.64873 19.3513 1.5 13 1.5C6.64873 1.5 1.5 6.64873 1.5 13C1.5 19.3513 6.64873 24.5 13 24.5ZM13 25.5C19.9036 25.5 25.5 19.9036 25.5 13C25.5 6.09644 19.9036 0.5 13 0.5C6.09644 0.5 0.5 6.09644 0.5 13C0.5 19.9036 6.09644 25.5 13 25.5Z" fill="currentColor"/></svg>