<svg width="20" height="20" viewBox="0 0 20 20" fill="none" xmlns="http://www.w3.org/2000/svg"><g opacity="0.2"><path fill-rule="evenodd" clip-rule="evenodd" d="M4.91876 2.93623C5.36817 2.61522 5.99272 2.71931 6.31373 3.16872L11.3137 10.1687C11.6347 10.6181 11.5307 11.2427 11.0812 11.5637C10.6318 11.8847 10.0073 11.7806 9.68627 11.3312L4.68627 4.3312C4.36526 3.88179 4.46935 3.25724 4.91876 2.93623Z" fill="currentColor"/><path fill-rule="evenodd" clip-rule="evenodd" d="M16.0812 2.93623C15.6318 2.61522 15.0073 2.71931 14.6863 3.16872L9.68627 10.1687C9.36526 10.6181 9.46935 11.2427 9.91876 11.5637C10.3682 11.8847 10.9927 11.7806 11.3137 11.3312L16.3137 4.3312C16.6347 3.88179 16.5307 3.25724 16.0812 2.93623Z" fill="currentColor"/><path fill-rule="evenodd" clip-rule="evenodd" d="M5 11.75C5 11.1977 5.44772 10.75 6 10.75H15C15.5523 10.75 16 11.1977 16 11.75C16 12.3023 15.5523 12.75 15 12.75H6C5.44772 12.75 5 12.3023 5 11.75Z" fill="currentColor"/><path fill-rule="evenodd" clip-rule="evenodd" d="M10.5 9.75C11.0523 9.75 11.5 10.1977 11.5 10.75V17.75C11.5 18.3023 11.0523 18.75 10.5 18.75C9.94772 18.75 9.5 18.3023 9.5 17.75V10.75C9.5 10.1977 9.94772 9.75 10.5 9.75Z" fill="currentColor"/></g><path fill-rule="evenodd" clip-rule="evenodd" d="M3.83241 2.58392C4.06217 2.43074 4.3726 2.49283 4.52578 2.72259L9.52578 10.2226C9.67896 10.4524 9.61687 10.7628 9.38711 10.916C9.15734 11.0691 8.84691 11.0071 8.69373 10.7773L3.69373 3.27729C3.54055 3.04753 3.60264 2.73709 3.83241 2.58392Z" fill="currentColor"/><path fill-rule="evenodd" clip-rule="evenodd" d="M14.3871 2.58392C14.1573 2.43074 13.8469 2.49283 13.6937 2.72259L8.69373 10.2226C8.54055 10.4524 8.60264 10.7628 8.8324 10.916C9.06217 11.0691 9.3726 11.0071 9.52578 10.7773L14.5258 3.27729C14.679 3.04753 14.6169 2.73709 14.3871 2.58392Z" fill="currentColor"/><path fill-rule="evenodd" clip-rule="evenodd" d="M4.10976 11C4.10976 10.7239 4.33361 10.5 4.60976 10.5H13.6098C13.8859 10.5 14.1098 10.7239 14.1098 11C14.1098 11.2761 13.8859 11.5 13.6098 11.5H4.60976C4.33361 11.5 4.10976 11.2761 4.10976 11Z" fill="currentColor"/><path fill-rule="evenodd" clip-rule="evenodd" d="M9.10976 10C9.3859 10 9.60976 10.2239 9.60976 10.5V17C9.60976 17.2761 9.3859 17.5 9.10976 17.5C8.83361 17.5 8.60976 17.2761 8.60976 17V10.5C8.60976 10.2239 8.83361 10 9.10976 10Z" fill="currentColor"/><path d="M1.15063 1.87794C0.94979 1.6771 0.94979 1.35147 1.15063 1.15063C1.35147 0.949789 1.6771 0.949789 1.87794 1.15063L18.8494 18.1221C19.0502 18.3229 19.0502 18.6485 18.8494 18.8494C18.6485 19.0502 18.3229 19.0502 18.1221 18.8494L1.15063 1.87794Z" fill="currentColor"/></svg>