<svg width="20" height="20" viewBox="0 0 26 26" fill="none" xmlns="http://www.w3.org/2000/svg"><g transform="translate(3, 3)"><path d="M10 13.4673L6.24548 17.6665C5.63355 18.3509 4.5 17.9181 4.5 17V3C4.5 2.44772 4.94772 2 5.5 2H14.5C15.0523 2 15.5 2.44772 15.5 3V17C15.5 17.9181 14.3665 18.3509 13.7545 17.6665L10 13.4673Z" fill="currentColor"/></g><path fill-rule="evenodd" clip-rule="evenodd" d="M13 24C19.0751 24 24 19.0751 24 13C24 6.92487 19.0751 2 13 2C6.92487 2 2 6.92487 2 13C2 19.0751 6.92487 24 13 24ZM13 26C20.1797 26 26 20.1797 26 13C26 5.8203 20.1797 0 13 0C5.8203 0 0 5.8203 0 13C0 20.1797 5.8203 26 13 26Z" fill="currentColor"/></svg>