<svg width="20" height="20" viewBox="0 0 26 26" fill="none" xmlns="http://www.w3.org/2000/svg"><g transform="translate(3, 3)"><g><path fill-rule="evenodd" clip-rule="evenodd" d="M1.5 4.5C1.5 3.11929 2.61929 2 4 2H15.7479C17.1287 2 18.2479 3.11929 18.2479 4.5V12.1513C18.2479 13.532 17.1287 14.6513 15.7479 14.6513H10.874V16.9286C10.874 17.4809 10.4263 17.9286 9.87397 17.9286C9.32169 17.9286 8.87397 17.4809 8.87397 16.9286V14.4311C8.64595 14.2479 8.5 13.9666 8.5 13.6513C8.5 13.099 8.94772 12.6513 9.5 12.6513H15.7479C16.0241 12.6513 16.2479 12.4274 16.2479 12.1513V4.5C16.2479 4.22386 16.0241 4 15.7479 4H4C3.72386 4 3.5 4.22386 3.5 4.5V6C3.5 6.55228 3.05228 7 2.5 7C1.94772 7 1.5 6.55228 1.5 6V4.5Z" fill="currentColor"/><path fill-rule="evenodd" clip-rule="evenodd" d="M5.18701 17.5905C5.18701 17.0382 5.63473 16.5905 6.18701 16.5905H13.561C14.1133 16.5905 14.561 17.0382 14.561 17.5905C14.561 18.1427 14.1133 18.5905 13.561 18.5905H6.18701C5.63473 18.5905 5.18701 18.1427 5.18701 17.5905Z" fill="currentColor"/><path fill-rule="evenodd" clip-rule="evenodd" d="M5.43675 9.3815C4.36734 8.81314 3.03967 9.21931 2.47131 10.2887C1.90295 11.3581 2.30913 12.6858 3.37853 13.2541C4.44793 13.8225 5.7756 13.4163 6.34396 12.3469C6.91232 11.2775 6.50615 9.94986 5.43675 9.3815ZM0.705247 9.3501C1.79199 7.30532 4.33059 6.52869 6.37536 7.61543C8.42014 8.70218 9.19677 11.2408 8.11003 13.2855C7.18502 15.026 5.20815 15.8477 3.37926 15.3836L1.70242 18.5386C1.44322 19.0263 0.837759 19.2116 0.350073 18.9524C-0.137613 18.6932 -0.322843 18.0877 -0.0636506 17.6L1.61319 14.4449C0.205243 13.1888 -0.219762 11.0906 0.705247 9.3501Z" fill="currentColor"/></g></g><path fill-rule="evenodd" clip-rule="evenodd" d="M13 24C19.0751 24 24 19.0751 24 13C24 6.92487 19.0751 2 13 2C6.92487 2 2 6.92487 2 13C2 19.0751 6.92487 24 13 24ZM13 26C20.1797 26 26 20.1797 26 13C26 5.8203 20.1797 0 13 0C5.8203 0 0 5.8203 0 13C0 20.1797 5.8203 26 13 26Z" fill="currentColor"/></svg>