<svg width="20" height="20" viewBox="0 0 26 26" fill="none" xmlns="http://www.w3.org/2000/svg"><g transform="translate(3, 3)"><path fill-rule="evenodd" clip-rule="evenodd" d="M6 0H15C16.1046 0 17 0.942558 17 2.10526V17.8947C17 19.0574 16.1046 20 15 20H6C4.89543 20 4 19.0574 4 17.8947V2.10526C4 0.942558 4.89543 0 6 0ZM7 2C6.44772 2 6 2.44772 6 3V17C6 17.5523 6.44772 18 7 18H14C14.5523 18 15 17.5523 15 17V3C15 2.44772 14.5523 2 14 2H13V3.5C13 3.77614 12.7761 4 12.5 4H8.5C8.22386 4 8 3.77614 8 3.5V2H7Z" fill="currentColor"/></g><path fill-rule="evenodd" clip-rule="evenodd" d="M13 24C19.0751 24 24 19.0751 24 13C24 6.92487 19.0751 2 13 2C6.92487 2 2 6.92487 2 13C2 19.0751 6.92487 24 13 24ZM13 26C20.1797 26 26 20.1797 26 13C26 5.8203 20.1797 0 13 0C5.8203 0 0 5.8203 0 13C0 20.1797 5.8203 26 13 26Z" fill="currentColor"/></svg>