<svg width="20" height="20" viewBox="0 0 26 26" fill="none" xmlns="http://www.w3.org/2000/svg"><g transform="translate(3, 3)"><path fill-rule="evenodd" clip-rule="evenodd" d="M3.5 8C2.94772 8 2.5 8.44772 2.5 9V11V14.5C2.5 15.0523 2.94772 15.5 3.5 15.5H6C6.55228 15.5 7 15.0523 7 14.5V9C7 8.44772 6.55228 8 6 8H3.5ZM4.75 14C5.30228 14 5.75 13.5523 5.75 13C5.75 12.4477 5.30228 12 4.75 12C4.19772 12 3.75 12.4477 3.75 13C3.75 13.5523 4.19772 14 4.75 14Z" fill="currentColor"/><path fill-rule="evenodd" clip-rule="evenodd" d="M11.4813 4.66482C11.3948 4.57833 11.2507 4.61173 11.2077 4.72103L11.0135 5.88612C10.8096 7.10949 10.1734 8.21206 9.23071 8.99921V13.6802L13.4268 14.5194C13.4546 14.525 13.4819 14.5316 13.5086 14.5393C14.1233 14.7102 14.7773 14.4538 15.1119 13.9101L15.3292 13.5568L15.836 12.2189C16.1793 11.3124 16.1724 10.311 15.8177 9.40995L15.5071 8.78878C15.2662 8.30694 14.7745 8.00199 14.2361 7.99999L14.2307 8H12.7307C12.6885 8 12.647 7.99739 12.6062 7.99232C12.4866 8.00748 12.3622 8.0011 12.2381 7.97009C11.7023 7.83612 11.3766 7.29317 11.5106 6.75738L11.6591 6.1634C11.7038 5.98448 11.7233 5.80018 11.717 5.61585L11.703 5.2055C11.6964 5.01383 11.6251 4.83027 11.5011 4.68456L11.4813 4.66482ZM8.05258 15.4842L12.9999 16.4736C14.4651 16.8683 16.0182 16.2535 16.8152 14.9582L17.0716 14.5416C17.0931 14.5081 17.1128 14.4731 17.1305 14.4365C17.1465 14.4035 17.1606 14.37 17.1727 14.3361L17.7063 12.9272C18.2311 11.5415 18.2151 10.0091 17.6617 8.6348C17.6509 8.60718 17.6387 8.57981 17.6252 8.55275L17.296 7.89436C16.7155 6.73335 15.5288 5.99996 14.2308 5.99998V6H14.2307H13.7056C13.7176 5.84964 13.721 5.69853 13.7158 5.54743L13.7018 5.13708C13.6789 4.46875 13.4216 3.82978 12.975 3.33208C12.963 3.31876 12.9506 3.30568 12.9378 3.29287L12.8955 3.2506C11.7044 2.05943 9.66913 2.62316 9.26056 4.25744L9.26057 4.25744C9.25419 4.28306 9.24877 4.30913 9.24436 4.33562L9.04073 5.5573C8.89778 6.41494 8.40796 7.17565 7.68682 7.6607C7.41229 7.83897 7.23071 8.14828 7.23071 8.5V14.4805C7.22877 14.5744 7.24017 14.6666 7.26344 14.7547C7.33856 15.0391 7.53733 15.2814 7.81032 15.4076C7.88637 15.4429 7.96761 15.4689 8.05258 15.4842Z" fill="currentColor"/></g><path fill-rule="evenodd" clip-rule="evenodd" d="M13 24C19.0751 24 24 19.0751 24 13C24 6.92487 19.0751 2 13 2C6.92487 2 2 6.92487 2 13C2 19.0751 6.92487 24 13 24ZM13 26C20.1797 26 26 20.1797 26 13C26 5.8203 20.1797 0 13 0C5.8203 0 0 5.8203 0 13C0 20.1797 5.8203 26 13 26Z" fill="currentColor"/></svg>