<svg width="20" height="20" viewBox="0 0 26 26" fill="none" xmlns="http://www.w3.org/2000/svg"><g transform="translate(3, 3)"><path fill-rule="evenodd" clip-rule="evenodd" d="M10.7071 8.70718C10.3166 9.09771 9.68341 9.0977 9.29289 8.70718L4.29289 3.70715C3.90237 3.31663 3.90237 2.68346 4.2929 2.29294C4.68342 1.90242 5.31659 1.90242 5.70711 2.29294L10.7071 7.29297C11.0976 7.6835 11.0976 8.31666 10.7071 8.70718Z" fill="currentColor"/><path fill-rule="evenodd" clip-rule="evenodd" d="M9.2929 8.70718C9.68342 9.09771 10.3166 9.0977 10.7071 8.70718L15.7071 3.70715C16.0976 3.31663 16.0976 2.68346 15.7071 2.29294C15.3166 1.90242 14.6834 1.90242 14.2929 2.29294L9.29289 7.29297C8.90237 7.6835 8.90237 8.31666 9.2929 8.70718Z" fill="currentColor"/><path fill-rule="evenodd" clip-rule="evenodd" d="M4 9C4 8.44772 4.44772 8 5 8H15C15.5523 8 16 8.44772 16 9C16 9.55228 15.5523 10 15 10H5C4.44772 10 4 9.55228 4 9Z" fill="currentColor"/><path fill-rule="evenodd" clip-rule="evenodd" d="M4 12.5C4 11.9477 4.44772 11.5 5 11.5H15C15.5523 11.5 16 11.9477 16 12.5C16 13.0523 15.5523 13.5 15 13.5H5C4.44772 13.5 4 13.0523 4 12.5Z" fill="currentColor"/><path fill-rule="evenodd" clip-rule="evenodd" d="M10 9C10.5523 9 11 9.44772 11 10V17C11 17.5523 10.5523 18 10 18C9.44772 18 9 17.5523 9 17V10C9 9.44772 9.44772 9 10 9Z" fill="currentColor"/></g><path fill-rule="evenodd" clip-rule="evenodd" d="M13 24C19.0751 24 24 19.0751 24 13C24 6.92487 19.0751 2 13 2C6.92487 2 2 6.92487 2 13C2 19.0751 6.92487 24 13 24ZM13 26C20.1797 26 26 20.1797 26 13C26 5.8203 20.1797 0 13 0C5.8203 0 0 5.8203 0 13C0 20.1797 5.8203 26 13 26Z" fill="currentColor"/></svg>