<svg width="20" height="20" viewBox="0 0 26 26" fill="none" xmlns="http://www.w3.org/2000/svg"><g transform="translate(3, 3)"><path fill-rule="evenodd" clip-rule="evenodd" d="M11 4.5H5C3.61929 4.5 2.5 5.61929 2.5 7V12C2.5 13.3807 3.61929 14.5 5 14.5H11C12.3807 14.5 13.5 13.3807 13.5 12V7C13.5 5.61929 12.3807 4.5 11 4.5ZM3.5 7C3.5 6.17157 4.17157 5.5 5 5.5H11C11.8284 5.5 12.5 6.17157 12.5 7V12C12.5 12.8284 11.8284 13.5 11 13.5H5C4.17157 13.5 3.5 12.8284 3.5 12V7Z" fill="currentColor"/><path fill-rule="evenodd" clip-rule="evenodd" d="M15.7275 5.58078L12.7507 7.5157C12.6104 7.60692 12.525 7.76231 12.5232 7.92968L12.4958 10.542C12.494 10.7131 12.5799 10.8732 12.7233 10.9665L15.7275 12.9192C16.0601 13.1354 16.5 12.8967 16.5 12.5V6C16.5 5.60328 16.0601 5.36457 15.7275 5.58078ZM15.5 11.5787L13.4987 10.2778L13.5204 8.20811L15.5 6.92134V11.5787Z" fill="currentColor"/></g><path fill-rule="evenodd" clip-rule="evenodd" d="M13 24.5C19.3513 24.5 24.5 19.3513 24.5 13C24.5 6.64873 19.3513 1.5 13 1.5C6.64873 1.5 1.5 6.64873 1.5 13C1.5 19.3513 6.64873 24.5 13 24.5ZM13 25.5C19.9036 25.5 25.5 19.9036 25.5 13C25.5 6.09644 19.9036 0.5 13 0.5C6.09644 0.5 0.5 6.09644 0.5 13C0.5 19.9036 6.09644 25.5 13 25.5Z" fill="currentColor"/></svg>