<svg width="20" height="20" viewBox="0 0 26 26" fill="none" xmlns="http://www.w3.org/2000/svg"><g transform="translate(3, 3)"><path fill-rule="evenodd" clip-rule="evenodd" d="M12.5 2H7.5C5.83333 2.66667 4.83333 3.66667 4.5 5V15C4.5 16.6569 5.84315 18 7.5 18H12.5C14.1569 18 15.5 16.6569 15.5 15V5C15.1667 3.66667 14.1667 2.66667 12.5 2ZM5.5 15V5.13263C5.76428 4.2329 6.46901 3.52753 7.69872 3H12.3013C13.531 3.52753 14.2357 4.2329 14.5 5.13263V15C14.5 16.1046 13.6046 17 12.5 17H7.5C6.39543 17 5.5 16.1046 5.5 15Z" fill="currentColor"/><path fill-rule="evenodd" clip-rule="evenodd" d="M7 9.5C7 11.7091 8.79086 13.5 11 13.5C13.2091 13.5 15 11.7091 15 9.5C15 7.29086 13.2091 5.5 11 5.5C8.79086 5.5 7 7.29086 7 9.5ZM14 9.5C14 11.1569 12.6569 12.5 11 12.5C9.34315 12.5 8 11.1569 8 9.5C8 7.84315 9.34315 6.5 11 6.5C12.6569 6.5 14 7.84315 14 9.5Z" fill="currentColor"/><path d="M12.074 6.50549L13.0605 6.66932C12.8934 7.67545 12.3874 8.60748 11.5554 9.45909C10.7241 10.3101 9.59116 10.9196 8.16632 11.2925L7.91317 10.325C9.17196 9.99565 10.1444 9.47247 10.8401 8.76028C11.5353 8.0487 11.9422 7.29921 12.074 6.50549Z" fill="currentColor"/><path d="M13.342 7.61187C13.3008 7.3388 13.4889 7.08411 13.762 7.04301C14.035 7.0019 14.2897 7.18994 14.3308 7.46301C14.492 8.53379 14.3614 9.40881 13.9145 10.0712C13.3957 10.84 12.6016 11.2783 11.834 11.4795C11.7433 11.5033 11.6048 11.5346 11.3885 11.5813C11.2817 11.6043 10.8578 11.6945 10.7761 11.712C10.7206 11.7239 10.7206 11.7239 10.6653 11.7358C10.3994 11.7933 10.1986 11.8385 10.0432 11.8767C9.81481 11.9327 9.3984 12.0609 8.80309 12.259C8.54108 12.3462 8.25798 12.2045 8.17078 11.9425C8.08357 11.6805 8.22528 11.3974 8.48729 11.3102C9.10681 11.104 9.54295 10.9698 9.80484 10.9055C9.9714 10.8646 10.1799 10.8176 10.4542 10.7584C10.5103 10.7463 10.5103 10.7463 10.5665 10.7342C10.6495 10.7164 11.0726 10.6264 11.1777 10.6038C11.3794 10.5603 11.5089 10.5309 11.5805 10.5122C12.1353 10.3668 12.7303 10.0384 13.0855 9.51186C13.3752 9.08259 13.4689 8.45488 13.342 7.61187Z" fill="currentColor"/></g><path fill-rule="evenodd" clip-rule="evenodd" d="M13 24.5C19.3513 24.5 24.5 19.3513 24.5 13C24.5 6.64873 19.3513 1.5 13 1.5C6.64873 1.5 1.5 6.64873 1.5 13C1.5 19.3513 6.64873 24.5 13 24.5ZM13 25.5C19.9036 25.5 25.5 19.9036 25.5 13C25.5 6.09644 19.9036 0.5 13 0.5C6.09644 0.5 0.5 6.09644 0.5 13C0.5 19.9036 6.09644 25.5 13 25.5Z" fill="currentColor"/></svg>