<svg width="20" height="20" viewBox="0 0 26 26" fill="none" xmlns="http://www.w3.org/2000/svg"><g transform="translate(3, 3)"><path fill-rule="evenodd" clip-rule="evenodd" d="M4.5 7C4.5 6.72386 4.72386 6.5 5 6.5H15C15.2761 6.5 15.5 6.72386 15.5 7C15.5 7.27614 15.2761 7.5 15 7.5H5C4.72386 7.5 4.5 7.27614 4.5 7Z" fill="currentColor"/><path fill-rule="evenodd" clip-rule="evenodd" d="M4.5 13C4.5 12.7239 4.72386 12.5 5 12.5H15C15.2761 12.5 15.5 12.7239 15.5 13C15.5 13.2761 15.2761 13.5 15 13.5H5C4.72386 13.5 4.5 13.2761 4.5 13Z" fill="currentColor"/></g><path fill-rule="evenodd" clip-rule="evenodd" d="M13 24.5C19.3513 24.5 24.5 19.3513 24.5 13C24.5 6.64873 19.3513 1.5 13 1.5C6.64873 1.5 1.5 6.64873 1.5 13C1.5 19.3513 6.64873 24.5 13 24.5ZM13 25.5C19.9036 25.5 25.5 19.9036 25.5 13C25.5 6.09644 19.9036 0.5 13 0.5C6.09644 0.5 0.5 6.09644 0.5 13C0.5 19.9036 6.09644 25.5 13 25.5Z" fill="currentColor"/></svg>