<svg width="20" height="20" viewBox="0 0 26 26" fill="none" xmlns="http://www.w3.org/2000/svg"><g transform="translate(3, 3)"><path fill-rule="evenodd" clip-rule="evenodd" d="M4.5 4.5V8.5H8.5V4.5H4.5ZM4 3.5C3.72386 3.5 3.5 3.72386 3.5 4V9C3.5 9.27614 3.72386 9.5 4 9.5H9C9.27614 9.5 9.5 9.27614 9.5 9V4C9.5 3.72386 9.27614 3.5 9 3.5H4Z" fill="currentColor"/><path fill-rule="evenodd" clip-rule="evenodd" d="M11.5 4.5V8.5H15.5V4.5H11.5ZM11 3.5C10.7239 3.5 10.5 3.72386 10.5 4V9C10.5 9.27614 10.7239 9.5 11 9.5H16C16.2761 9.5 16.5 9.27614 16.5 9V4C16.5 3.72386 16.2761 3.5 16 3.5H11Z" fill="currentColor"/><path fill-rule="evenodd" clip-rule="evenodd" d="M4.5 11.5V15.5H8.5V11.5H4.5ZM4 10.5C3.72386 10.5 3.5 10.7239 3.5 11V16C3.5 16.2761 3.72386 16.5 4 16.5H9C9.27614 16.5 9.5 16.2761 9.5 16V11C9.5 10.7239 9.27614 10.5 9 10.5H4Z" fill="currentColor"/><path fill-rule="evenodd" clip-rule="evenodd" d="M11.5 11.5V15.5H15.5V11.5H11.5ZM11 10.5C10.7239 10.5 10.5 10.7239 10.5 11V16C10.5 16.2761 10.7239 16.5 11 16.5H16C16.2761 16.5 16.5 16.2761 16.5 16V11C16.5 10.7239 16.2761 10.5 16 10.5H11Z" fill="currentColor"/></g><path fill-rule="evenodd" clip-rule="evenodd" d="M13 24.5C19.3513 24.5 24.5 19.3513 24.5 13C24.5 6.64873 19.3513 1.5 13 1.5C6.64873 1.5 1.5 6.64873 1.5 13C1.5 19.3513 6.64873 24.5 13 24.5ZM13 25.5C19.9036 25.5 25.5 19.9036 25.5 13C25.5 6.09644 19.9036 0.5 13 0.5C6.09644 0.5 0.5 6.09644 0.5 13C0.5 19.9036 6.09644 25.5 13 25.5Z" fill="currentColor"/></svg>