<svg width="20" height="20" viewBox="0 0 26 26" fill="none" xmlns="http://www.w3.org/2000/svg"><g transform="translate(3, 3)"><path fill-rule="evenodd" clip-rule="evenodd" d="M16.75 7.80413C16.75 6.26176 14.6038 4.13512 10.281 1.19759C9.94906 0.972008 9.5 1.20978 9.5 1.61114V5.29498C9.5 5.51063 9.63826 5.70198 9.84301 5.76969C11.3174 6.25731 12.434 7.03285 13.2079 8.09803C13.9416 9.10793 14.0756 9.95646 13.6688 10.7148C13.4324 11.1555 13.918 11.632 14.3541 11.3872C15.9291 10.5034 16.75 9.29646 16.75 7.80413ZM10.5 4.94056V2.56389C13.9918 5.01467 15.75 6.82274 15.75 7.80413C15.75 8.5504 15.4721 9.19993 14.8955 9.76443C14.8758 9.04 14.5787 8.28357 14.0169 7.51024C13.1776 6.35503 12.0012 5.49802 10.5 4.94056Z" fill="currentColor"/><path d="M9.5 4.5C9.5 4.22386 9.72386 4 10 4C10.2761 4 10.5 4.22386 10.5 4.5V15C10.5 15.2761 10.2761 15.5 10 15.5C9.72386 15.5 9.5 15.2761 9.5 15V4.5Z" fill="currentColor"/><path fill-rule="evenodd" clip-rule="evenodd" d="M4.5 15C4.5 16.4083 5.8646 17.5 7.5 17.5C9.1354 17.5 10.5 16.4083 10.5 15C10.5 13.5917 9.1354 12.5 7.5 12.5C5.8646 12.5 4.5 13.5917 4.5 15ZM9.5 15C9.5 15.8008 8.62602 16.5 7.5 16.5C6.37398 16.5 5.5 15.8008 5.5 15C5.5 14.1992 6.37398 13.5 7.5 13.5C8.62602 13.5 9.5 14.1992 9.5 15Z" fill="currentColor"/></g><path fill-rule="evenodd" clip-rule="evenodd" d="M13 24.5C19.3513 24.5 24.5 19.3513 24.5 13C24.5 6.64873 19.3513 1.5 13 1.5C6.64873 1.5 1.5 6.64873 1.5 13C1.5 19.3513 6.64873 24.5 13 24.5ZM13 25.5C19.9036 25.5 25.5 19.9036 25.5 13C25.5 6.09644 19.9036 0.5 13 0.5C6.09644 0.5 0.5 6.09644 0.5 13C0.5 19.9036 6.09644 25.5 13 25.5Z" fill="currentColor"/></svg>