<svg width="20" height="20" viewBox="0 0 26 26" fill="none" xmlns="http://www.w3.org/2000/svg"><g transform="translate(3, 3)"><path fill-rule="evenodd" clip-rule="evenodd" d="M13.411 4.5H6.58933C6.50836 4.5 6.42747 4.50492 6.3471 4.51472C5.25066 4.6485 4.47027 5.64579 4.60405 6.74223L5.82417 16.7422C5.9466 17.7457 6.79855 18.5 7.80944 18.5H12.1937C13.2048 18.5 14.0569 17.7454 14.179 16.7417L15.3963 6.74167C15.4061 6.66148 15.411 6.58078 15.411 6.5C15.411 5.39543 14.5155 4.5 13.411 4.5ZM6.46822 5.50736C6.5084 5.50246 6.54885 5.5 6.58933 5.5H13.411C13.9633 5.5 14.411 5.94772 14.411 6.5C14.411 6.54039 14.4085 6.58074 14.4036 6.62084L13.1864 16.6208C13.1253 17.1227 12.6992 17.5 12.1937 17.5H7.80944C7.304 17.5 6.87802 17.1228 6.81681 16.6211L5.59669 6.62111C5.5298 6.07289 5.92 5.57425 6.46822 5.50736Z" fill="currentColor"/><path d="M8.97789 14.647C8.89668 14.911 8.61688 15.0591 8.35295 14.9779C8.08902 14.8967 7.9409 14.6169 8.02211 14.353L12.0221 1.35295C12.1033 1.08902 12.3831 0.940897 12.647 1.02211C12.911 1.10332 13.0591 1.38311 12.9779 1.64704L8.97789 14.647Z" fill="currentColor"/><path d="M5.5 10C5.22386 10 5 9.77614 5 9.5C5 9.22386 5.22386 9 5.5 9H14.5C14.7761 9 15 9.22386 15 9.5C15 9.77614 14.7761 10 14.5 10H5.5Z" fill="currentColor"/><path d="M12.3787 1.98507C12.1108 1.91809 11.948 1.64663 12.0149 1.37873C12.0819 1.11083 12.3534 0.947951 12.6213 1.01492L16.6213 2.01493C16.8892 2.0819 17.052 2.35337 16.9851 2.62126C16.9181 2.88916 16.6466 3.05204 16.3787 2.98507L12.3787 1.98507Z" fill="currentColor"/></g><path fill-rule="evenodd" clip-rule="evenodd" d="M13 24.5C19.3513 24.5 24.5 19.3513 24.5 13C24.5 6.64873 19.3513 1.5 13 1.5C6.64873 1.5 1.5 6.64873 1.5 13C1.5 19.3513 6.64873 24.5 13 24.5ZM13 25.5C19.9036 25.5 25.5 19.9036 25.5 13C25.5 6.09644 19.9036 0.5 13 0.5C6.09644 0.5 0.5 6.09644 0.5 13C0.5 19.9036 6.09644 25.5 13 25.5Z" fill="currentColor"/></svg>