<svg xmlns="http://www.w3.org/2000/svg" width="20" height="20" viewBox="0 0 20 20">
  <path fill="none" stroke="#AB92F0" stroke-linecap="round" stroke-linejoin="round" stroke-width="2" d="M13.324432,8.03668239 L13.1220878,12.7084311 C14.6953914,13.8914112 15.6411957,14.6622059 15.9595008,15.0208153 C16.3741605,15.4879799 16.5590791,16.3213132 16.5142566,17.5208153 L12.0762096,15.0208153 L10.9654209,15.0208153 L6.52737392,17.5208153 C6.48255148,16.3213132 6.66747011,15.4879799 7.08212979,15.0208153 C7.40050155,14.6621308 8.34663546,13.8910882 9.92053152,12.7076877 L9.71768943,8.03640592 L3.53131044,11.5208153 C3.45958539,9.60161196 3.75549297,8.26827863 4.4190332,7.52081528 C4.96788223,6.90254902 6.68238517,5.8834414 9.56254203,4.46349241 L9.52081528,3.50256065 C9.52166693,0.848063736 10.1885465,-0.47918472 11.521454,-0.47918472 C12.8543615,-0.47918472 13.5208153,0.848063736 13.5208153,3.50256065 L13.4791929,4.46354385 C16.3592868,5.88346601 18.073755,6.90255649 18.6225974,7.52081528 C19.2861376,8.26827863 19.5820452,9.60161196 19.5103201,11.5208153 L13.324432,8.03668239 Z" transform="rotate(45 11.52 8.52)"/>
</svg>
