<svg xmlns="http://www.w3.org/2000/svg" width="20" height="20" viewBox="0 0 20 20">
  <g fill="none" fill-rule="evenodd">
    <path stroke="#AB92F0" stroke-linecap="round" stroke-linejoin="round" stroke-width="2" d="M9.63168264,3.13168258 L14.7760465,4.41777035 C15.3172826,4.55307938 15.7387088,4.97758723 15.870071,5.51979479 C16.2022352,6.89082813 16.3683173,8.26169844 16.3683173,9.63240573 C16.3683173,11.0030022 16.2022621,12.3734356 15.8701516,13.743706 L15.8701202,13.7436984 C15.7387236,14.2858339 15.3173295,14.710271 14.7761535,14.845565 L9.63168267,16.1316827 C9.63168267,16.9601098 8.96010979,17.6316827 8.13168267,17.6316827 L5.13168267,17.6316827 C4.30325554,17.6316827 3.63168267,16.9601098 3.63168267,16.1316827 L3.63168267,3.13168267 C3.63168267,2.30325554 4.30325554,1.63168267 5.13168267,1.63168267 L8.13168267,1.63168267 C8.96010975,1.63168267 9.63168259,2.30325547 9.63168267,3.13168253 Z" transform="rotate(-90 10 9.632)"/>
    <circle cx="15" cy="13" r="1" fill="#AB92F0" stroke="#AB92F0" stroke-linecap="round" stroke-linejoin="round" transform="rotate(-90 15 13)"/>
    <circle cx="5" cy="13" r="1" fill="#AB92F0" stroke="#AB92F0" stroke-linecap="round" stroke-linejoin="round" transform="rotate(-90 5 13)"/>
    <rect width="2" height="3" x="3" y="16" fill="#AB92F0" stroke="#AB92F0" rx="1"/>
    <rect width="2" height="3" x="15" y="16" fill="#AB92F0" stroke="#AB92F0" rx="1"/>
    <path stroke="#AB92F0" stroke-width="2" d="M7.80490654,6 L12.194789,6 C12.6662454,6 13.0736621,6.32928897 13.1725459,6.79025873 L13.6015713,8.79025873 C13.7174082,9.33025897 13.3735559,9.86192002 12.8335556,9.97775692 C12.7646215,9.99254418 12.6943167,10 12.6238144,10 L7.37588116,10 C6.82359641,10 6.37588116,9.55228475 6.37588116,9 C6.37588116,8.92949763 6.38333698,8.85919292 6.39812424,8.79025873 L6.82714962,6.79025873 C6.92603348,6.32928897 7.33345013,6 7.80490654,6 Z"/>
  </g>
</svg>
