<svg xmlns="http://www.w3.org/2000/svg" width="20" height="20" viewBox="0 0 20 20">
  <g fill="none" fill-rule="evenodd">
    <g transform="rotate(-90 9 6)">
      <path d="M0.5 0H14.5V14H0.5z"/>
      <circle cx="7.5" cy="7" r="1.5" stroke="#AB92F0" stroke-width="2"/>
      <path stroke="#AB92F0" stroke-linecap="round" stroke-linejoin="round" stroke-width="2" d="M6.5,12.5 C8.03846154,12.5 10.5,8.15240146 10.5,5.78555487 C10.5,3.41870827 8.709139,1.5 6.5,1.5 C4.290861,1.5 2.5,3.41870827 2.5,5.78555487 C2.5,8.15240146 4.96153846,12.5 6.5,12.5 Z" transform="rotate(90 6.5 7)"/>
    </g>
    <path stroke="#AB92F0" stroke-linecap="round" stroke-linejoin="round" stroke-width="2" d="M13.7298287,9 C14.6282443,9 15.4164091,9.59907274 15.6568645,10.4647123 L17.0457534,15.4647123 C17.3413847,16.5289848 16.7182778,17.6314046 15.6540053,17.9270358 C15.4796972,17.9754547 15.2996256,18 15.1187176,18 L4.88128241,18 C3.77671291,18 2.88128241,17.1045695 2.88128241,16 C2.88128241,15.819092 2.90582767,15.6390204 2.95424659,15.4647123 L4.34313548,10.4647123 C4.5835909,9.59907274 5.37175569,9 6.2701713,9 L6.2701713,9"/>
  </g>
</svg>
