<svg xmlns="http://www.w3.org/2000/svg" width="20" height="20" viewBox="0 0 20 20">
  <g fill="none" fill-rule="evenodd" stroke="#AB92F0" transform="translate(2 2)">
    <circle cx="9.75" cy="10.5" r="1" fill="#AB92F0" stroke-linecap="round" stroke-linejoin="round" transform="rotate(-90 9.75 10.5)"/>
    <circle cx="6.25" cy="10.5" r="1" fill="#AB92F0" stroke-linecap="round" stroke-linejoin="round" transform="rotate(-90 6.25 10.5)"/>
    <path stroke-linecap="round" stroke-linejoin="round" stroke-width="2" d="M10.5,2.5 C10.5,3.88071187 9.38071187,5 8,5 C6.61928813,5 5.5,3.88071187 5.5,2.5 C5.5,1.11928813 6.61928813,0 8,0 C9.38071187,0 10.5,1.11928813 10.5,2.5 Z M8,13 C8.55228475,13 9,13.4477153 9,14 L9,15.5 C9,16.0522847 8.55228475,16.5 8,16.5 C7.44771525,16.5 7,16.0522847 7,15.5 L7,14 C7,13.4477153 7.44771525,13 8,13 Z M8,5 C10.209139,5 12,6.790861 12,9 L12,11.5 C12,12.3284271 11.3284271,13 10.5,13 L5.5,13 C4.67157288,13 4,12.3284271 4,11.5 L4,9 C4,6.790861 5.790861,5 8,5 Z"/>
    <g transform="rotate(-90 1.5 1.5)">
      <path stroke-linecap="round" stroke-linejoin="round" stroke-width="2" d="M0.5,14.5 L2.5,14.5" transform="rotate(90 1.5 14.5)"/>
      <path stroke-linecap="round" stroke-linejoin="round" stroke-width="2" d="M0.5,1.5 L2.5,1.5" transform="rotate(90 1.5 1.5)"/>
      <path stroke-linecap="square" stroke-width="1.5" d="M0.25,4.25 L2.25,4.75" transform="rotate(90 1.25 4.5)"/>
      <path stroke-linecap="square" stroke-width="1.5" d="M0.25,11.25 L2.25,11.75" transform="matrix(0 1 1 0 -10.25 10.25)"/>
    </g>
  </g>
</svg>
