<svg xmlns="http://www.w3.org/2000/svg" width="20" height="20" viewBox="0 0 20 20">
  <g fill="none" fill-rule="evenodd">
    <path stroke="#AB92F0" stroke-linecap="round" stroke-linejoin="round" stroke-width="2" d="M10,3.5 L14.8638034,4.71595086 C15.5315539,4.88288848 16,5.48286315 16,6.17116461 C16,7.4476841 16,8.72420358 16,10.0007231 C16,11.2767605 16,12.5527979 16,13.8288354 C16,14.5171369 15.5315539,15.1171115 14.8638034,15.2840491 L10,16.5 C10,17.3284271 9.32842712,18 8.5,18 L5.5,18 C4.67157288,18 4,17.3284271 4,16.5 L4,3.5 C4,2.67157288 4.67157288,2 5.5,2 L8.5,2 C9.32842712,2 10,2.67157288 10,3.5 Z" transform="rotate(-90 10 10)"/>
    <circle cx="15" cy="13" r="1" fill="#AB92F0" stroke="#AB92F0" stroke-linecap="round" stroke-linejoin="round" transform="rotate(-90 15 13)"/>
    <circle cx="5" cy="13" r="1" fill="#AB92F0" stroke="#AB92F0" stroke-linecap="round" stroke-linejoin="round" transform="rotate(-90 5 13)"/>
    <rect width="2" height="3" x="3" y="16" fill="#AB92F0" stroke="#AB92F0" rx="1"/>
    <rect width="2" height="3" x="15" y="16" fill="#AB92F0" stroke="#AB92F0" rx="1"/>
    <path stroke="#AB92F0" stroke-linecap="round" stroke-linejoin="round" stroke-width="2" d="M10,2 L10,2 C10.5522847,2 11,2.44771525 11,3 L11,3 C11,3.55228475 10.5522847,4 10,4 L10,4 L10,4 C9.44771525,4 9,3.55228475 9,3 L9,3 C9,2.44771525 9.44771525,2 10,2 Z"/>
    <path stroke="#AB92F0" stroke-width="2" d="M7.80490654,6.5 L12.194789,6.5 C12.6662454,6.5 13.0736621,6.82928897 13.1725459,7.29025873 L13.6015713,9.29025873 C13.7174082,9.83025897 13.3735559,10.36192 12.8335556,10.4777569 C12.7646215,10.4925442 12.6943167,10.5 12.6238144,10.5 L7.37588116,10.5 C6.82359641,10.5 6.37588116,10.0522847 6.37588116,9.5 C6.37588116,9.42949763 6.38333698,9.35919292 6.39812424,9.29025873 L6.82714962,7.29025873 C6.92603348,6.82928897 7.33345013,6.5 7.80490654,6.5 Z"/>
  </g>
</svg>
