<svg xmlns="http://www.w3.org/2000/svg" width="20" height="20" viewBox="0 0 20 20">
  <g fill="none" fill-rule="evenodd">
    <path stroke="#AB92F0" stroke-linecap="round" stroke-linejoin="round" stroke-width="2" d="M6.5,1.99995581 L13.5000137,1.9999524 C15.1568679,1.9999524 16.5000137,3.34309815 16.5000137,4.9999524 C16.5000137,4.99995353 16.5000137,4.99995467 16.5000137,4.99995581 L16.5000023,11.9893314 C16.5000008,13.3034958 15.6446813,14.4646824 14.3896284,14.8543874 C12.9264189,15.3087267 11.4632095,15.5358964 10,15.5358964 C8.5367903,15.5358964 7.07358061,15.3087266 5.61037091,14.8543871 L5.61037177,14.8543844 C4.35531884,14.4646794 3.5,13.3034921 3.5,11.9893278 L3.5,4.99995581 C3.5,3.34310156 4.84314575,1.99995581 6.5,1.99995581 Z"/>
    <circle cx="6.5" cy="12" r="1" fill="#AB92F0" stroke="#AB92F0" transform="rotate(-90 6.5 12)"/>
    <circle cx="13.5" cy="12" r="1" fill="#AB92F0" stroke="#AB92F0" transform="rotate(-90 13.5 12)"/>
    <path stroke="#AB92F0" stroke-linecap="round" stroke-linejoin="round" stroke-width="2" d="M5.51439771,15.5430562 L4.01439771,19.0071598" transform="rotate(-.413 5.014 17.007)"/>
    <path stroke="#AB92F0" stroke-linecap="round" stroke-linejoin="round" stroke-width="2" d="M16.0142964,15.0053523 L14.5157036,18.9646477" transform="scale(-1 1) rotate(-.413 0 4250.242)"/>
    <path stroke="#AB92F0" stroke-linecap="round" stroke-width="2" d="M7.5,4.5 L12.5,4.5 C13.3284271,4.5 14,5.17157288 14,6 L13.9999874,7.49932106 C13.9999874,8.19195044 13.5257498,8.7945179 12.8525198,8.95729633 C12.0454641,9.15243211 11.0946242,9.25 10,9.25 C8.90536839,9.25 7.95452298,9.15243079 7.14746377,8.95729237 L7.14746621,8.95728229 C6.47423667,8.79450248 6,8.19193481 6,7.49930557 L6,6 C6,5.17157288 6.67157288,4.5 7.5,4.5 Z"/>
    <path stroke="#AB92F0" stroke-linecap="square" stroke-width="1.5" d="M5.5,17.5 L14.5014461,17.5"/>
  </g>
</svg>
