<svg xmlns="http://www.w3.org/2000/svg" width="20" height="20" viewBox="0 0 20 20">
  <g fill="none" fill-rule="evenodd">
    <circle cx="7.5" cy="16.5" r="1.5" fill="#AB92F0" stroke="#AB92F0" stroke-width="1.5"/>
    <circle cx="16.5" cy="16.5" r="1.5" fill="#AB92F0" stroke="#AB92F0" stroke-width="1.5"/>
    <rect width="12" height="9.5" x="7" y="5.5" stroke="#AB92F0" stroke-width="2" rx="2"/>
    <path stroke="#AB92F0" stroke-linecap="round" d="M10.25 8.25L15.75 8.25M10.25 10.25L15.75 10.25M10.25 12.25L15.75 12.25"/>
    <path stroke="#AB92F0" stroke-width="2" d="M1,11.8922653 L1,14 C1,14.5522847 1.44771525,15 2,15 L6,15 C6.55228475,15 7,14.5522847 7,14 L7,9.5 C7,8.94771525 6.55228475,8.5 6,8.5 L2.73604892,8.5 C2.29117479,8.5 1.899794,8.79389045 1.77572476,9.22111382 L1,11.8922653 Z"/>
    <path fill="#AB92F0" stroke="#AB92F0" stroke-linecap="round" stroke-linejoin="round" d="M3.29 10.6L5 10.6 5 12.6 3 12.6 3 11.75z"/>
  </g>
</svg>
