<svg width="20" height="20" viewBox="0 0 20 20" fill="none" xmlns="http://www.w3.org/2000/svg">
<g opacity="0.8">
<path d="M15.8116 11.7288C15.7624 11.8174 15.7036 11.9018 15.6355 11.9805L10.6524 17.9603C10.122 18.5967 9.17618 18.6827 8.53976 18.1524C7.90335 17.622 7.81736 16.6762 8.34771 16.0398L12.5475 11L8.34771 5.96031C7.81736 5.3239 7.90335 4.37805 8.53976 3.84771C9.17618 3.31736 10.122 3.40335 10.6524 4.03976L15.6524 10.0398C16.0606 10.5296 16.1036 11.2028 15.8116 11.7288L15.8116 11.7288Z" fill="#AB92F0"/>
</g>
<path d="M7.1159 4.3201C6.93912 4.10797 6.96778 3.79268 7.17992 3.6159C7.39206 3.43912 7.70734 3.46778 7.88412 3.67992L12.8841 9.67992C13.0609 9.89206 13.0322 10.2073 12.8201 10.3841C12.608 10.5609 12.2927 10.5322 12.1159 10.3201L7.1159 4.3201Z" fill="black"/>
<path d="M7.88412 16.3201C7.70734 16.5322 7.39206 16.5609 7.17992 16.3841C6.96778 16.2073 6.93912 15.8921 7.1159 15.6799L12.1159 9.67992C12.2927 9.46778 12.608 9.43912 12.8201 9.6159C13.0322 9.79268 13.0609 10.108 12.8841 10.3201L7.88412 16.3201Z" fill="black"/>
</svg>
