<svg width="20" height="20" viewBox="0 0 20 20" fill="none" xmlns="http://www.w3.org/2000/svg">
<g clip-path="url(#clip0_303_4999)">
<g opacity="0.8">
<path fill-rule="evenodd" clip-rule="evenodd" d="M7.85721 13.6409C7.03218 13.5659 6.42417 12.8363 6.49917 12.0112L6.97057 6.82578C7.04558 6.00075 7.77519 5.39274 8.60022 5.46774C9.42524 5.54274 10.0333 6.27236 9.95825 7.09738L9.48685 12.2828C9.41185 13.1079 8.68223 13.7159 7.85721 13.6409Z" fill="#AB92F0"/>
<path fill-rule="evenodd" clip-rule="evenodd" d="M15.1437 6.35443C15.2187 7.17946 14.6107 7.90907 13.7857 7.98407L8.60022 8.45548C7.7752 8.53048 7.04558 7.92247 6.97058 7.09744C6.89558 6.27242 7.50359 5.5428 8.32861 5.4678L13.5141 4.99639C14.3391 4.92139 15.0687 5.52941 15.1437 6.35443Z" fill="#AB92F0"/>
<path fill-rule="evenodd" clip-rule="evenodd" d="M8.81794 7.31518C9.40373 6.72939 10.3535 6.72939 10.9393 7.31518L16.5961 12.972C17.1819 13.5578 17.1819 14.5076 16.5961 15.0934C16.0103 15.6791 15.0606 15.6791 14.4748 15.0934L8.81794 9.4365C8.23215 8.85071 8.23215 7.90096 8.81794 7.31518Z" fill="#AB92F0"/>
</g>
<path fill-rule="evenodd" clip-rule="evenodd" d="M5.94774 12.145C5.67274 12.12 5.47007 11.8768 5.49507 11.6018L5.96647 6.41631C5.99147 6.1413 6.23468 5.93863 6.50969 5.96363C6.78469 5.98864 6.98736 6.23184 6.96236 6.50685L6.49096 11.6923C6.46596 11.9673 6.22275 12.17 5.94774 12.145Z" fill="black"/>
<path fill-rule="evenodd" clip-rule="evenodd" d="M12.1478 5.94497C12.1728 6.21997 11.9701 6.46318 11.6951 6.48818L6.50969 6.95959C6.23468 6.98459 5.99148 6.78192 5.96647 6.50691C5.94147 6.2319 6.14414 5.98869 6.41915 5.96369L11.6046 5.49229C11.8796 5.46729 12.1228 5.66996 12.1478 5.94497Z" fill="black"/>
<path fill-rule="evenodd" clip-rule="evenodd" d="M6.64651 6.64346C6.84178 6.44821 7.15836 6.44821 7.35362 6.64348L13.889 13.1791C14.0843 13.3744 14.0843 13.691 13.889 13.8862C13.6937 14.0815 13.3772 14.0815 13.1819 13.8862L6.6465 7.35057C6.45124 7.1553 6.45125 6.83872 6.64651 6.64346Z" fill="black"/>
</g>
<defs>
<clipPath id="clip0_303_4999">
<rect width="20" height="20" fill="white"/>
</clipPath>
</defs>
</svg>
